<svg id="icon" height="24" viewBox="0 0 24 24" width="24" xmlns="http://www.w3.org/2000/svg"><path d="m12 2a9.99 9.99 0 0 1 10 10 9.99 9.99 0 0 1 -10 10 9.99 9.99 0 0 1 -10-10 9.99 9.99 0 0 1 10-10zm-.169 13.531c-.687 0-1.281.563-1.281 1.25 0 .719.594 1.282 1.281 1.282.688 0 1.282-.563 1.282-1.282 0-.687-.594-1.25-1.282-1.25zm.39-9.312c-1.25 0-2.72.312-2.72 1.312-.03.532.376.938.876.969s1.125-.344 1.906-.344c.562 0 1.125.219 1.125.844 0 1.75-2.625 1.406-2.625 4.063 0 .53.437.968.969.968.625 0 .968-.5.968-.969 0-1.343 2.625-1.156 2.625-4.062 0-1.688-1.312-2.781-3.125-2.781z" fill="var(--db-icon-color, currentColor)" fill-rule="evenodd"/></svg>
