<svg id="icon" height="64" viewBox="0 0 64 64" width="64" xmlns="http://www.w3.org/2000/svg"><g fill="none" fill-rule="evenodd" transform="translate(13.017 11.984)"><path d="m18.983 0c-1.49 0-2.859.82-3.56 2.134l-14.947 27.958a4.037 4.037 0 0 0 3.56 5.94h29.891a4.037 4.037 0 0 0 3.56-5.94l-14.944-27.958a4.037 4.037 0 0 0 -3.56-2.134zm0 2c.751 0 1.442.414 1.796 1.077l14.946 27.958a2.037 2.037 0 0 1 -1.797 2.997h-29.89a2.037 2.037 0 0 1 -1.797-2.997l14.945-27.958a2.037 2.037 0 0 1 1.797-1.077z" fill="#282D37" style="fill: currentColor;fill: var(--db-icon-color, currentColor)" fill-rule="nonzero"/><path d="m18.983 27.516a1.5 1.5 0 1 1 0 3 1.5 1.5 0 0 1 0-3zm0-17.5a1 1 0 0 1 .993.883l.007.117v13a1 1 0 0 1 -1.994.117l-.006-.117v-13a1 1 0 0 1 1-1z" fill="#EC0016" style="fill:#EC0016;fill: var(--db-icon-pulse-color, #EC0016)"/></g></svg>
