<svg id="icon" height="64" viewBox="0 0 64 64" width="64" xmlns="http://www.w3.org/2000/svg"><g fill="none" fill-rule="evenodd" transform="translate(9 11)"><path d="m47 34v6a3 3 0 0 1 -3 3h-23a3 3 0 0 1 -3-3v-6a1 1 0 0 1 2 0v6a1 1 0 0 0 1 1h23a1 1 0 0 0 1-1v-6a1 1 0 0 1 2 0zm-38.481-14.855a12.73 12.73 0 0 0 6.471 1.855 12.753 12.753 0 0 0 5.587-1.354 1 1 0 1 1 .897 1.787 14.76 14.76 0 0 1 -6.484 1.567c-2.503-.026-5.127-.726-7.252-1.994-1.139-.112-5.616 1.147-5.738 5.994v12c0 .552-.436 1-1 1s-1-.462-1-1v-12a8 8 0 0 1 8-8c.183 0 .363.05.519.145zm19.481 11.855v3a1 1 0 0 1 -2 0v-3a1 1 0 0 1 2 0zm11 0v3a1 1 0 0 1 -2 0v-3a1 1 0 0 1 2 0zm-4.115-11c1.717 0 3.115 1.378 3.115 3.084v.915l6 .001a3 3 0 0 1 3 3l-.003 3.64a27.29 27.29 0 0 1 -5.76 1.947 1 1 0 1 1 -.439-1.951c1.308-.284 2.708-.718 4.2-1.302l.002-2.334c0-.513-.31-.91-1-1-.658-.01-8.325-.01-23 0a1 1 0 0 0 -1 .999l.001 2.335c1.583.619 2.984 1.053 4.2 1.302.488.1.878.656.756 1.195a.999.999 0 0 1 -1.195.756c-2.064-.459-3.984-1.108-5.759-1.947l-.003-3.64c0-1.656 1.344-3 3-3l6-.001v-.915c0-1.706 1.399-3.084 3.115-3.084zm-4.77 2c-.618 0-1.115.489-1.115 1.084v.915h7v-.915c0-.595-.496-1.084-1.115-1.084zm-6.115-13a9 9 0 0 1 -9 9 9 9 0 0 1 -9-9 9 9 0 0 1 9-9 9 9 0 0 1 9 9zm-16 0a7 7 0 1 0 14 0 7 7 0 0 0 -14 0z" fill="var(--db-icon-color, currentColor)" fill-rule="nonzero"/><path d="m34.928 31.428a1 1 0 0 1 .14 1.995c-.86.061-3.095.191-5.134 0-.537-.05-.967-.515-.929-1.066s.532-.983 1.067-.929c1.3.133 4.042.058 4.856 0z" fill="var(--db-icon-pulse-color, #EC0016)"/></g></svg>
