<svg id="icon" height="64" viewBox="0 0 64 64" width="64" xmlns="http://www.w3.org/2000/svg"><g fill="none" fill-rule="evenodd" transform="translate(4 10)"><path d="m11.045 20c1.632 0 2.857.888 3.174 2.431l.907 4.57h5.619c.47 0 .878.385.973.855l1.38 6.97a1.006 1.006 0 0 1 -1.977.376l-1.193-6.202h-5.65c-.471 0-.88-.296-.973-.767l-1.036-5.242c-.125-.628-.565-.99-1.193-.99-.596 0-.753.268-1.161.268-.534 0-.91-.47-.91-1.036 0-.847 1.16-1.233 2.04-1.233zm-9.038-9c2.13 0 3.999 1.66 3.999 4.01v2.851l2.298 11.56c.182.91 1.034 1.579 1.974 1.579h5.726c.564 0 1 .436 1 1s-.436 1-1 1h-5.726a3.975 3.975 0 0 1 -3.916-3.203l-2.33-11.56a3.224 3.224 0 0 1 -.031-.376v-2.851c0-1.128-.898-2.01-1.994-2.01a.985.985 0 0 1 -1.003-.997 1.01 1.01 0 0 1 1.003-1.003zm21.069-11a5 5 0 0 1 5 5v.021l-.059 14a5 5 0 0 1 -5 4.979h-2.017a1 1 0 0 1 0-2h2.017a3 3 0 0 0 3-2.987l.059-14v-.013a3 3 0 0 0 -3-3h-20.076a1 1 0 0 1 0-2zm-11.811 11.753c1.789 0 3.233 1.476 3.233 3.265s-1.444 3.265-3.233 3.265a3.263 3.263 0 0 1 -3.265-3.265 3.263 3.263 0 0 1 3.265-3.265zm0 2.009a1.26 1.26 0 0 0 -1.256 1.256 1.26 1.26 0 0 0 1.256 1.256 1.26 1.26 0 0 0 1.255-1.256 1.26 1.26 0 0 0 -1.255-1.256zm37.299-11.762c.613 0 1.33.652.834 1.551l-3.233 4.898c-.11.179-.165.357-.165.533v1.77a1 1 0 1 0 2 0v-1.454l3.067-4.645a3 3 0 0 0 -2.503-4.653h-4.564a1 1 0 0 0 0 2zm-47.564 37a1 1 0 0 0 0 2h54a1 1 0 0 0 0-2z" fill="var(--db-icon-color, currentColor)" fill-rule="nonzero"/><path d="m42.54 22.496-4.65-.073.56-5.412zm-2.377 8.4c.44.652 1.097.516 1.447.267a.98.98 0 0 0 .24-1.31l-1.645-2.683a3.43 3.43 0 0 1 2.005.076 3.481 3.481 0 0 1 2.147 4.42c-.622 1.816-2.439 2.74-4.401 2.156-1.963-.585-3.315-3.491-1.444-5.619l1.651 2.694zm10.89-19.404a.985.985 0 0 0 -1.378-.25.996.996 0 0 0 -.248 1.382c.043.062.612.962.595 1.946-.034 1.912-1.55 3.47-3.455 3.47-1.567 0-2.879-1.06-3.3-2.498l3.107.092a.994.994 0 0 0 1.017-.966.993.993 0 0 0 -.96-1.022l-3.151-.092c.172-.564.41-1.122 1.22-1.764.431-.341.528-.951.201-1.391-.328-.44-.94-.513-1.385-.202-1.086.76-1.87 2.207-2.088 3.296-.002.003-1.7-.047-5.092-.15l.122-1.101a.994.994 0 0 0 -.877-1.097.992.992 0 0 0 -1.092.88l-.236 2.17c-.076.7.507 1.09.954 1.102l1.625.048-.73 7.048-2.034-.058.345-1.008a.995.995 0 0 0 -.613-1.262.988.988 0 0 0 -1.258.616l-1.288 3.757a.994.994 0 0 0 .614 1.263.988.988 0 0 0 1.257-.616l.265-.774 2.98.072 1.278 2.084a5.445 5.445 0 0 0 -1.51 2.287c-.978 2.855.533 5.965 3.374 6.947 2.84.982 5.937-.534 6.916-3.387.974-2.854-.535-5.962-3.374-6.947a5.392 5.392 0 0 0 -3.716.064l-.622-1.013 4.963.076a.988.988 0 0 0 .907-.562l.269-.763a1.585 1.585 0 0 0 -.225-1.46l-4.681-6.272 1.444.043c.522 2.718 2.815 4.547 5.374 4.547 2.996 0 5.38-2.38 5.433-5.457.03-1.71-.874-2.973-.948-3.078z" fill="var(--db-icon-pulse-color, #EC0016)" transform="matrix(.9998477 -.01745241 .01745241 .9998477 -.395155 .727778)"/></g></svg>
