<svg id="icon" height="64" viewBox="0 0 64 64" width="64" xmlns="http://www.w3.org/2000/svg"><g fill="none" fill-rule="evenodd" transform="translate(8.001 8.001)"><path d="m28.8 4.642c-.08 0-.161-.01-.241-.029a20.18 20.18 0 0 0 -9.334-.076 1 1 0 0 1 -.449-1.949 22.195 22.195 0 0 1 10.264.084 1 1 0 0 1 -.24 1.971zm16.26 24.666c.831-3.351.86-6.899.084-10.264a1 1 0 0 0 -1.949.449c.705 3.06.679 6.287-.077 9.334a1 1 0 1 0 1.942.48zm-16.373 16.105a1 1 0 0 0 -.449-1.949 20.162 20.162 0 0 1 -9.333-.077 1 1 0 0 0 -.481 1.941c1.736.431 3.524.646 5.312.646 1.665 0 3.331-.187 4.952-.561zm-25.169-15.707a1 1 0 0 0 .75-1.199 20.152 20.152 0 0 1 .077-9.334 1 1 0 0 0 -1.941-.481 22.168 22.168 0 0 0 -.085 10.264 1 1 0 0 0 1.2.75z" fill="var(--db-icon-pulse-color, #EC0016)"/><path d="m38.469 33.5c0 .844.656 1.5 1.5 1.5a1.5 1.5 0 0 0 1.5-1.5c0-.812-.688-1.5-1.5-1.5a1.5 1.5 0 0 0 -1.5 1.5zm1.875 3.5a1.006 1.006 0 0 0 -.969 1.25l1.188 4c.141.474.531.75 1 .75h2.75l1.75 4.312c.154.376.5.688.969.688a.981.981 0 0 0 .969-1c0-.094-.02-.27-.062-.375l-1.844-4.562c-.278-.689-.75-1.062-1.531-1.062h-2.187l-1.031-3.25a1.055 1.055 0 0 0 -1-.75zm-3.219 3a.953.953 0 0 0 -.719.312c-.781.907-1.25 2-1.25 3.156 0 2.5 2.031 4.531 4.531 4.531a4.522 4.522 0 0 0 3.188-1.312c.188-.188.25-.469.25-.719 0-.531-.438-1-1-1a.92.92 0 0 0 -.662.275 2.533 2.533 0 0 1 -1.806.756 2.54 2.54 0 0 1 -2.531-2.531c0-.625.25-1.269.725-1.744a.968.968 0 0 0 .306-.725c0-.562-.469-1-1.031-1zm-22.556-2.301c.488.65.911 1.236 1.268 1.756.098.163.163.358.163.553s-.065.39-.163.553c-1.301 1.919-3.707 5.463-7.837 5.463-.52 0-1.041-.065-1.561-.195l1.821-1.821c2.439-.13 4.13-2.049 5.528-4-.228-.293-.423-.585-.65-.878zm-.553-4.683c-.26 0-.52.097-.715.293l-1.724 1.724a6.912 6.912 0 0 0 -3.577-1.008c-4.13 0-6.537 3.512-7.837 5.431a1.094 1.094 0 0 0 -.163.553c0 .195.065.39.163.553.748 1.171 1.626 2.276 2.634 3.219l-1.496 1.529a1.005 1.005 0 0 0 -.293.683.993.993 0 0 0 1.008 1.008.992.992 0 0 0 .683-.293l12-12c.195-.195.293-.455.293-.715a.979.979 0 0 0 -.976-.976zm-5.496 5.073a1.477 1.477 0 0 0 -.52-.098c-1.106 0-2.016.911-2.016 1.984 0 .195.033.358.098.553l-1.854 1.854a15.507 15.507 0 0 1 -2.016-2.374c1.431-2.016 3.187-3.967 5.789-3.967.715 0 1.431.163 2.081.455l-1.561 1.594zm29.363-26.718-4.335 4.336a.997.997 0 0 1 -1.414 0 .999.999 0 0 1 0-1.414l4.335-4.336a.999.999 0 1 1 1.414 1.414zm7.176-7.175c-.066.066-.147.106-.225.15.151.526.237 1.08.237 1.655 0 2.006-.961 3.342-1.809 4.521-.54.751-1.006 1.399-1.173 2.128-.398 1.932-2.14 3.351-4.139 3.351-.341 0-.68-.041-1.01-.121a1 1 0 0 1 .476-1.943c1.187.293 2.47-.506 2.719-1.713.263-1.143.894-2.02 1.504-2.869.736-1.025 1.432-1.992 1.432-3.354 0-2.206-1.794-4-4-4a3.981 3.981 0 0 0 -2.766 1.11.997.997 0 0 1 -1.414-.03.999.999 0 0 1 .03-1.413 5.988 5.988 0 0 1 9.01.829l1.362-1.362a.999.999 0 1 1 1.414 1.414l-1.648 1.648zm-5.392 2.742c.337-.509.403-.729.403-.938a1.001 1.001 0 0 0 -1.69-.724.999.999 0 1 1 -1.384-1.443 2.985 2.985 0 0 1 2.074-.833c1.654 0 3 1.346 3 3 0 .773-.294 1.376-.735 2.042a.998.998 0 0 1 -1.386.282 1 1 0 0 1 -.282-1.386zm-26.664 9.065a.988.988 0 0 1 -.997-.997v-1.994c0-.567-.45-1.017-.997-1.017h-8.017c-.548 0-.997.45-.997 1.017v.994c0 .567-.45.997-.997.997a.989.989 0 0 1 -.997-.997v-.994c0-1.662 1.349-3.011 2.992-3.011h8.017c1.642 0 2.992 1.349 2.992 3.011v1.994c0 .567-.45.997-.997.997zm-6.003-16.003c-2.21 0-4.008 1.779-4.008 3.989a4.013 4.013 0 0 0 4.008 4.008c2.209 0 3.989-1.799 3.989-4.008a3.98 3.98 0 0 0 -3.989-3.989zm0 5.998a2.01 2.01 0 0 1 -2.008-2.009 2 2 0 0 1 2.008-1.989c1.097 0 1.989.893 1.989 1.989a2.002 2.002 0 0 1 -1.989 2.009z" fill="var(--db-icon-color, currentColor)" fill-rule="nonzero"/></g></svg>
