<svg id="icon" height="32" viewBox="0 0 32 32" width="32" xmlns="http://www.w3.org/2000/svg"><path d="m10 9v-6c0-.531.438-1 1-1 .563 0 1 .469 1 1v6a1 1 0 0 1 -2 0zm-2-.024c0 1.67 1.344 3.024 3 3.024s3-1.354 3-3.024v-5.976c0-.531.438-1 1-1 .563 0 1 .469 1 1v6a4.999 4.999 0 0 1 -4 4.906v15.094c0 .531-.438 1-1 1-.563 0-1-.469-1-1v-15.094a4.999 4.999 0 0 1 -4-4.906v-6c0-.531.438-1 1-1 .563 0 1 .469 1 1zm11 10.024v-10.969c0-3.311 2.688-6.031 6-6.031.563 0 1 .469 1 1.031v25.972c0 .53-.438 1-1 1-.563 0-1-.47-1-1v-9.003h-4a1 1 0 0 1 -1-1zm2-1h3v-13.875c-1.75.438-3 2.031-3 3.875z" fill="#282D37" style="fill: currentColor;fill: var(--db-icon-color, currentColor)" fill-rule="evenodd"/></svg>
