<svg id="icon" height="20" viewBox="0 0 20 20" width="20" xmlns="http://www.w3.org/2000/svg"><path d="m4.02189554 9 5.99839996.0018c.624 0 1.0725.5655.9945 1.1506l-.9758 6.9746c-.05859996.4884-.48839996.8535-.97679996.873h-4.0049c-.4884-.0195-.9182-.3846-.9964-.873l-1.04828888-6.9744c-.0976-.6056.38408888-1.1526 1.00928888-1.1526zm4.86591112 2.0043h-3.7052l.7329 5.003h2.2661zm2.11219334-7.0043h2.0049l-.0064.998c0 .858.234 1.6966.6435 2.4571l.9166 1.6966c.273.507.439 1.0534.439 1.6004v5.2479l-2.0013.0036c-.547 0-.9963.4298-.9963.9964 0 .547.4493.9963.9963.9963l2.9976.0037c.547 0 1.0061-.4689 1.0061-.9963v-6.2516c0-.8791-.2442-1.7582-.674-2.5396l-.9182-1.7192c-.2539-.4689-.4102-.9658-.4102-1.4933v-1.398c0-.8792-.7229-1.602-1.6215-1.602h-2.7546c-.8987 0-1.6215.7228-1.6215 1.602l.0008 1.4155c0 .585.4095.9946.9945.9946.5851 0 1.0047-.4271 1.0047-1.0121z" fill="var(--db-icon-color, currentColor)" fill-rule="evenodd"/></svg>
