<svg id="icon" height="32" viewBox="0 0 32 32" width="32" xmlns="http://www.w3.org/2000/svg"><path d="m16.1561047 16c1.125 0 2 .9062 2 2 0 .0938 0 .2188-.0312.3125l-1.6563 10c-.1563.9687-1 1.6875-1.9687 1.6875h-4.3126c-1 0-1.8124-.7188-1.9687-1.6875l-1.6875-10c-.2188-1.2187.75-2.3125 1.9688-2.3125zm0 2h-7.6562l.6874 4h2.8126953c.5626 0 1 .4375 1 1 0 .5312-.4374 1-1 1h-2.5000953l.6874 4h4.3126zm-1.3124047-6.9375 1.5313-3.0313c.4374-.8437.625-1.7812.625-2.6874v-1.3438c0-1.125.9062-2 2-2h2c1.0937 0 2 .875 2 2v1.3438c0 .9062.1874 1.8437.625 2.6874l1.5312 3.0313c.5625 1.0937.8438 2.3437.8438 3.5625v13.375c0 1.0938-.9063 2-2 2h-4c-.5626 0-1-.4688-1-1 0-.5625.4374-1 1-1h4v-13.375c0-.9062-.2188-1.8438-.625-2.6562l-1.5313-3.0626c-.5625-1.0937-.8437-2.3437-.8437-3.5624v-1.3438h-2v1.3438c0 1.2187-.2813 2.4687-.8438 3.5624l-1.5312 3.0626c-.1563.3437-.5313.5312-.875.5312-.5626 0-1-.4375-1-1 0-.1562.0312-.2812.0937-.4375z" fill="var(--db-icon-color, currentColor)" fill-rule="evenodd"/></svg>
