<svg id="icon" height="20" viewBox="0 0 20 20" width="20" xmlns="http://www.w3.org/2000/svg"><path d="m11.4361148 2.15c.1414098 0 .5647566.09179296 1.2700405.27537887.4554257.11385642.7323222.57535074.6184658 1.03077641-.1050982.42039293-.5064086.6886664-.9257314.63790056l-1.0512709-.24022159-.4976188-.00483425v1.15l.5861148.001c.9627749 0 1.5121354.11781261 2.0123298.38531951.5001944.26750689.898729.66604153 1.1662359 1.16623593.2623173.4904907.367495.96282039.3832029 1.78049286l.0021166 6.3540665c0 .9637813-.0991552 1.477249-.3853195 2.0123298-.2675069.5001944-.6660415.898729-1.1662359 1.1662359-.4904907.2623173-.9628204.367495-1.7804929.3832029l-3.1040665.0021166c-.96378133 0-1.47724899-.0991552-2.01232976-.3853195-.5001944-.2675069-.89872904-.6660415-1.16623593-1.1662359-.2623173-.4904907-.36749497-.9628204-.38320294-1.7804929l-.00211657-6.3540665c0-.96378133.09915518-1.47724899.38531951-2.01232976.26750689-.5001944.66604153-.89872904 1.16623593-1.16623593.4904907-.2623173.96282039-.36749497 1.78049286-.38320294l.8179517-.00311657v-1.15l-.50467529.001-.93916943.22462113c-.45542567.11385641-.92024712-.17634872-1.03077641-.61846585-.11052928-.44211713.15328672-.88576842.51663337-.99849176.36334665-.11272333 1.11568124-.30766352 1.37187296-.30766352zm-4.03788536 12.3568466c-.36607556.0496624-.64822944.3634576-.64822944.7431534s.28215388.693491.64822944.7431534h1.00354112c.36607556-.0496624.64822944-.3634576.64822944-.7431534s-.28215388-.693491-.64822944-.7431534zm4.24999996 0c-.3660755.0496624-.6482294.3634576-.6482294.7431534s.2821539.693491.6482294.7431534h1.0035412c.3660755-.0496624.6482294-.3634576.6482294-.7431534s-.2821539-.693491-.6482294-.7431534zm-3.6662868-7.8068466c-.44575937 0-.60740249.04641281-.77036545.13356635-.16296296.08715355-.29085725.21504784-.3780108.3780108-.07625935.14259259-.12132657.28417468-.13140183.61596614l-.00216452 5.20338601c1.2.0754717 2.3.1132075 3.3.1132075.8333333 0 2.1724567-.0452478 3.3-.1132075v-5.0489867c0-.44575937-.0464128-.60740249-.1335664-.77036545-.0871535-.16296296-.2150478-.29085725-.3780107-.3780108-.1425926-.07625935-.2841747-.12132657-.6159662-.13140183zm3.0180574 1.3c.4142136 0 .75.33578644.75.75 0 .37969577-.2940826.75-.75.75h-2c-.41421356 0-.75-.33578644-.75-.75 0-.37969577.3138852-.75.75-.75z" fill="var(--db-icon-color, currentColor)" fill-rule="evenodd"/></svg>
