<svg id="icon" height="20" viewBox="0 0 20 20" width="20" xmlns="http://www.w3.org/2000/svg"><path d="m18.0036163 8.39136498c.0020015.46796214.0020015.93601472 0 1.40415773 0 .1921584-.1259107.39151329-.3914252.39142529-.3110214.0000586-.6737364.000088-1.0881449.000088.002847.3932829.0030208.7864259.0005215 1.1794289 0 .1718744-.1358496.3901866-.3914253.3914252-.3827598.0018551-.7656077.0017193-1.1485436-.0004075.0045201.2765493.0067801.5373649.0067801.7824468-.0166801.1532886-.0204277.1732662-.1233048.2884062-.175585.1632959-.4562198.4272482-.8419043.791857.2025001.4610906.2905764.9401437.2642291 1.4371592-.039521.7455233-.343771 1.4790409-.9127852 2.048055-1.2228886 1.2228887-3.2055828 1.2228887-4.42847138 0-.85906453-.8590645-1.55675909-2.7673252 0-4.4284714.63737307-.637373 1.48114918-.9425454 2.31617258-.9155171.3226257.0104428.5973392.0563663.8241407.1377704 1.2537038-1.2636934 2.5093387-2.52522416 3.7669048-3.78459215.0564539-.05653474.1248196-.11416731.276782-.11464829.7394346-.00238627.7397227-.00388953 1.4790522 0 .3191205.00167886.3909215.27444863.3914217.39141672zm-7.2879857 5.71984142c-.6523836 0-1.18124496.5288614-1.18124496 1.181245s.52886136 1.181245 1.18124496 1.181245 1.181245-.5288614 1.181245-1.181245-.5288614-1.181245-1.181245-1.181245zm2.9151469-12.1112064c.8409311 0 1.640532.5942682 1.8591171 1.41010287.2898284 1.04797599.5168955 2.05060836.6812013 3.00789713-.5753853-.05404576-1.130222.30964967-1.3135505.46257378l-.1325558.12111263c-1.0494412 1.0802251-2.1080764 2.13841266-3.1759055 3.17456269-1.5104903-.1145554-2.81164318.4496581-3.73130908 1.369324-.63146242.6314625-1.44353693 1.780547-1.38289759 3.5116987l-2.43487743.0004439-.00002139-2.2317779c-.35577897-.4064396-.56406842-.8712931-.62486834-1.3945602l-.27111027-2.4313776h-1.104v-2h1.696l.76116229-3.43162637c.23801091-.80507112.94283771-1.56164568 1.83736282-1.56164568zm-9.61206421 7.91525753c-.08541296.36996417.11892077.73918767.46444223.86992627l1.55917713.3669912c.40359729.0931777.80631306-.158467.89949084-.5620643.08541296-.3699642-.11892078-.73918765-.46444223-.86992631l-1.55917713-.36699111c-.4035973-.09317778-.80631306.15846696-.89949084.56206425zm9.93902821-6.21525753h-7.91448305l-.64325845 3.3h9.2z" fill="var(--db-icon-color, currentColor)" fill-rule="evenodd"/></svg>
