<svg id="icon" height="32" viewBox="0 0 32 32" width="32" xmlns="http://www.w3.org/2000/svg"><path d="m22.4384472 6.15c1.2483285 0 2.3437459.81097305 2.7166158 1.98816059l1.471237 5.86173941h2.3909c.5125714 0 .9070153.3561071.9607493.8497423l.0062507 1.1162577c0 .5125714-.3733549 1.034-.967 1.03283l-1.1907691.000762c.0347748.3155715.0133325.8998579-.0643267 1.7528592l-.3425541 3.5573977c-.1110517 1.147912-.6674305 1.9894004-1.6188971 2.3640462l-.000653 2.0442623c0 .4457594.000653 1.2819426-1.281943 1.2819426h-1.036114c-1.282643 0-1.281943-.8361832-1.281943-1.2819426l-.0007-1.6441574c-2.0659674.1834172-4.1324008.2751259-6.1993.2751259s-4.1337992-.0917087-6.2007-.2751259l.0007 1.6441574c0 .4457594 0 1.2819426-1.281943 1.2819426h-1.036114c-1.281943 0-1.281943-.8361832-1.281943-1.2819426l-.00103779-2.0127081c-.89649023-.3258193-1.46281713-1.1147783-1.62157598-2.1908809l-.35855502-3.6626591c-.08587919-.9465422-.11146592-1.5642354-.07676021-1.8530793l-1.174771.00117c-.553 0-.967-.482-.967-1.034v-1c0-.553.414-.966.967-.966h2.406l1.42334669-5.69112653c.30276415-1.21105659 1.41111679-2.15877347 2.76490612-2.15877347zm-9.5550683 12.8567277c-.4973387.0577651-.8833789.4804365-.8833789.9932723s.3860402.9355072.8833789.9932723h6.2332422c.4973387-.0577651.8833789-.4804365.8833789-.9932723s-.3860402-.9355072-.8833789-.9932723zm-6.00000003-1.0001c-.49733868.0577651-.88337887.4804365-.88337887.9932723s.38604019.9355072.88337887.9932723h2.23324226c.49733868-.0577651.88337887-.4804365.88337887-.9932723s-.38604019-.9355072-.88337887-.9932723zm16.00000003 0c-.4973387.0577651-.8833789.4804365-.8833789.9932723s.3860402.9355072.8833789.9932723h2.2332422c.4973387-.0577651.8833789-.4804365.8833789-.9932723s-.3860402-.9355072-.8833789-.9932723zm-13.32182609-10.1566277c-.48710565 0-.91651142.30601447-1.08035564.7557499l-1.35589717 5.3941501h17.748l-1.3191889-5.27881597c-.1181405-.47256189-.5541111-.87108403-1.1156639-.87108403zm9.42284719-4.7001c.469442 0 .85.38055796.85.85 0 .43333111-.3602179.85-.8344.85h-6.0156c-.469442 0-.85-.38055796-.85-.85 0-.43333111.3311914-.85.8656-.85z" fill="var(--db-icon-color, currentColor)" fill-rule="evenodd"/></svg>
