<svg id="icon" height="24" viewBox="0 0 24 24" width="24" xmlns="http://www.w3.org/2000/svg"><path d="m18 11.25c-.095 0-.184.021-.277.028l-.509-1.528h1.786a.876.876 0 0 0 .619-.256l1-1a.875.875 0 0 0 -1.237-1.238l-.744.744h-2.007l-.8-2.401a.876.876 0 0 0 -.83-.599h-2a.875.875 0 0 0 0 1.75h1.369l.656 1.966-3.296 4.396-2.179-5.362h.45a.875.875 0 0 0 0-1.75h-3a.875.875 0 0 0 0 1.75h.661l.829 2.04-1.182 1.688a3.86 3.86 0 0 0 -1.309-.229 3.879 3.879 0 0 0 -3.875 3.875 3.879 3.879 0 0 0 3.875 3.875c1.923 0 3.511-1.411 3.812-3.25h1.688a.864.864 0 0 0 .366-.086c.033-.016.059-.041.09-.061a.86.86 0 0 0 .202-.168c.012-.014.031-.02.042-.035l3.498-4.664.353 1.059c-1.146.674-1.926 1.907-1.926 3.33a3.879 3.879 0 0 0 3.875 3.875 3.879 3.879 0 0 0 3.875-3.875 3.879 3.879 0 0 0 -3.875-3.875zm-7.8 2.75h-2.52l1.594-2.278zm-4.2 3.25a2.127 2.127 0 0 1 -2.125-2.125c0-1.172.953-2.125 2.125-2.125.078 0 .154.011.231.019l-.948 1.354c-.018.025-.021.055-.035.081a.861.861 0 0 0 -.106.334c-.003.03-.018.056-.018.087 0 .026.013.048.015.073.005.06.018.116.035.174a.844.844 0 0 0 .059.154.826.826 0 0 0 .089.132.861.861 0 0 0 .125.131c.019.016.03.038.05.053.033.023.07.033.104.051.031.016.059.033.092.045a.873.873 0 0 0 .304.062h2.02a2.12 2.12 0 0 1 -2.02 1.5zm12 0a2.127 2.127 0 0 1 -2.125-2.125c0-.645.295-1.217.75-1.607l.545 1.633a.875.875 0 1 0 1.66-.552l-.523-1.568a2.122 2.122 0 0 1 1.817 2.094 2.127 2.127 0 0 1 -2.125 2.125z" fill="#282D37" style="fill: currentColor;fill: var(--db-icon-color, currentColor)" fill-rule="evenodd"/></svg>
