<svg id="icon" height="24" viewBox="0 0 24 24" width="24" xmlns="http://www.w3.org/2000/svg"><path d="m15.001 18.499h-6.002a1 1 0 1 0 0 2h1.001v.498a1 1 0 0 0 1 1h2.002a1 1 0 0 0 1-1v-.498h.999a1 1 0 1 0 0-2zm-3.001-16.499c3.86 0 7 3.141 7 7 0 2.625-1.223 3.895-2.116 4.822-.604.628-.895.952-.895 1.438v1.239a1 1 0 0 1 -1 1h-5.978a1 1 0 0 1 -1-1v-1.239c0-.487-.291-.81-.895-1.438-.893-.926-2.116-2.197-2.116-4.822 0-3.859 3.14-7 7-7zm-.002 2c-2.757 0-5 2.243-5 5 0 1.819.757 2.604 1.557 3.436.682.708 1.455 1.511 1.455 2.824v.239h.994v-2.489a1 1 0 1 1 2 0v2.489h.984v-.239c0-1.313.773-2.116 1.455-2.824.799-.832 1.555-1.618 1.555-3.436 0-2.757-2.243-5-5-5zm-1.385 1.25a1 1 0 0 1 .698 1.875 2.024 2.024 0 0 0 -1.118 1.03 1.003 1.003 0 0 1 -1.331.48 1 1 0 0 1 -.48-1.33 4.037 4.037 0 0 1 2.23-2.056z" fill="var(--db-icon-color, currentColor)" fill-rule="evenodd"/></svg>
