<svg id="icon" height="32" viewBox="0 0 32 32" width="32" xmlns="http://www.w3.org/2000/svg"><path d="m18.357 17.434a1 1 0 0 1 -.824-1.565c.871-1.273 1.343-2.188 1.343-3.366a4.29 4.29 0 0 0 -4.286-4.285c-1.11 0-2.163.423-2.963 1.19a.997.997 0 0 1 -1.414-.03.999.999 0 0 1 .03-1.414 6.255 6.255 0 0 1 4.347-1.746 6.292 6.292 0 0 1 6.286 6.285c0 1.69-.62 2.928-1.692 4.495a1 1 0 0 1 -.827.436zm1.001 7.226c.351-1.52 1.307-2.85 2.32-4.259 1.5-2.084 3.198-4.445 3.198-7.897 0-5.67-4.614-10.285-10.286-10.285a10.237 10.237 0 0 0 -7.114 2.857.999.999 0 0 0 -.03 1.413.997.997 0 0 0 1.414.03 8.25 8.25 0 0 1 5.73-2.3c4.57 0 8.286 3.716 8.286 8.284 0 2.808-1.37 4.713-2.82 6.73-1.084 1.506-2.205 3.063-2.65 5a5.014 5.014 0 0 1 -4.898 3.984c-.72 0-1.417-.15-2.07-.446a1 1 0 1 0 -.827 1.82 6.962 6.962 0 0 0 2.897.626c3.307 0 6.19-2.348 6.851-5.559v.002z" fill="#282D37" style="fill: currentColor;fill: var(--db-icon-color, currentColor)" fill-rule="evenodd"/></svg>
