<svg id="icon" height="32" viewBox="0 0 32 32" width="32" xmlns="http://www.w3.org/2000/svg"><path d="m16 4c6.627417 0 12 5.372583 12 12 0 2.9535886-1.067074 5.6579487-2.8367393 7.7485975l.0291275.0295771-1.4142136 1.4142136-.0295771-.0291275c-2.0906488 1.7696653-4.7950089 2.8367393-7.7485975 2.8367393-6.627417 0-12-5.372583-12-12 0-2.9535886 1.067074-5.6579487 2.83673926-7.74859753l-.02912742-.02957706 1.41421357-1.41421357.02957706.02912742c2.09064883-1.76966526 4.79500893-2.83673926 7.74859753-2.83673926zm-10 12c0 5.5228475 4.4771525 10 10 10 2.4013589 0 4.605024-.8464278 6.3289229-2.2572111l-14.07171183-14.07171177c-1.41078322 1.72389887-2.25721107 3.92756397-2.25721107 6.32892287zm10-10c-2.4013589 0-4.605024.84642785-6.32892287 2.25721107l14.07171177 14.07171183c1.4107833-1.7238989 2.2572111-3.927564 2.2572111-6.3289229 0-5.5228475-4.4771525-10-10-10z" fill="var(--db-icon-color, currentColor)" fill-rule="evenodd"/></svg>
