<svg id="icon" height="24" viewBox="0 0 24 24" width="24" xmlns="http://www.w3.org/2000/svg"><path d="m9.5 4h-4c-1.38071187 0-2.5 1.11928813-2.5 2.5v11c0 1.3807119 1.11928813 2.5 2.5 2.5h13c1.3807119 0 2.5-1.1192881 2.5-2.5v-9c0-1.43515158-1.1745166-2.5-2.5-2.5h-6.585l-1.7078932-1.70710678c-.1875364-.18753638-.44189031-.29289322-.7071068-.29289322zm-4 2h3.585l1.7078932 1.70710678c.1875364.18753638.4418903.29289322.7071068.29289322h7c.2761424 0 .5.22385763.5.5v9c0 .2761424-.2238576.5-.5.5h-13c-.27614237 0-.5-.2238576-.5-.5v-11c0-.27614237.22385763-.5.5-.5z" fill="var(--db-icon-color, currentColor)" fill-rule="evenodd"/></svg>
