<svg id="icon" height="24" viewBox="0 0 24 24" width="24" xmlns="http://www.w3.org/2000/svg"><path d="m3.06736129 17.823c.585.475 1.277.967 2.137 1.52.539.347 1.27.612 3.248.654v.904c0 .164.015.325.042.481l-.005.02c.007.033.02.064.02.1 0 .276-.224.5-.5.5-.004 0-.011-.002-.011-.002l-2.003.002c-.552 0-1-.448-1-1 0-.137.027-.267.077-.386-.364-.2-.729-.517-1.073-.982-.438-.591-.748-1.195-.932-1.811zm13.11787501-6.822125.143125.000125 1.521.001c.2313333.0006667.4262222.0013333.5701481.002l.1758519.001c.696.006 1.384.563 1.542 1.188.106.417.331 1.43.675 3.038 0 0 .192.665.192.665h.018c.554.057.982.523.982 1.088v.25c0 .518-.358.951-.839 1.067-.048.442-.084.723-.107.845-.012.06-.027.122-.045.187.003.032.004.066.004.099v1.467c0 .608-.493 1.1-1.1 1.1h-.214c-.607 0-1.1-.492-1.1-1.1l-.113.035c-.968.146-1.936.219-2.904.219s-1.936-.073-2.904-.219l-.114-.043c0 .616-.493 1.108-1.1 1.108h-.214c-.608 0-1.1-.492-1.1-1.1v-1.467l.004-.096c-.003-.009-.006-.018-.008-.027-.029-.106-.074-.433-.137-.98l.086.003c-.60600001 0-1.09700001-.491-1.09700001-1.097v-.25c0-.606.491-1.097 1.09700001-1.097l.063.003.192-.661.631-2.904c.198-.681.782-1.326 1.731-1.326zm-.055875 7.700125h-1.094c-.304 0-.55.246-.55.55s.246.55.55.55h1.094c.304 0 .55-.246.55-.55s-.246-.55-.55-.55zm-4.729-1.296-.003.011c-.086.322.105.652.426.739l1.163.316c.327.086.659-.107.744-.43l.003-.011c.085-.322-.105-.652-.426-.739l-1.163-.316c-.327-.086-.659.107-.744.43zm7.623-.43-1.167.316c-.321.088-.511.417-.426.739l.003.011c.086.323.417.516.74.43l1.167-.316c.321-.088.511-.417.426-.739l-.003-.011c-.086-.323-.417-.515-.74-.43zm-9.018-14.975c2.009 0 3.44.756 4.406 2.041.885 1.177 1.48 2.785 1.519 4.362l.01.381c-.003.009 0 .014 0 .019 0 .276-.224.5-.5.5l-2.081-.001c.031-.073.076-.138.099-.215.075-.25.293-1.125.325-1.314.329-1.459-.642-3.02-1.986-3.396-1.1648-.32586667-1.87743112-.36931556-2.51349897-.37510874l-.44386256-.00075496c-.67287317.00177186-1.40856705.02657799-2.64263848.3738637-1.329.374-2.229 1.888-2.018 3.225.185.82.304 1.316.355 1.487.222.745.828 1.307 1.578 1.478 1.113.191 2.074.289 2.883.293.263.001.553-.023.837-.041-.207.309-.371.656-.482 1.037l-.016.056-.012.056-.557 2.561c-.873.474-1.466 1.398-1.466 2.459v.25c0 .254.041.498.106.733-.776-.078-1.06-.272-1.12-.311-1.835-1.18-2.759-1.989-3.57-3.016l-.528-.706c-.124-.865-.193-2.024-.187-3.191.004-.778.024-1.559.059-2.342.039-1.576.57-3.101 1.519-4.362.918-1.22 2.269-1.964 4.119-2.035zm8.695 10.501h-6.267l-.774 3.389h7.827zm-13.39200001-.483c-.485.165-.761.667-.655 1.156l.658 1.932c.215.452.74.681 1.225.516s.761-.667.655-1.156l-.658-1.932c-.215-.452-.74-.681-1.225-.516z" fill="var(--db-icon-color, currentColor)" fill-rule="evenodd"/></svg>
