<svg id="icon" height="32" viewBox="0 0 32 32" width="32" xmlns="http://www.w3.org/2000/svg"><path d="m3 15c.513 0 1 .415 1 1 .002 1 .002 2 0 3 0 2.142 1.705 4 4 4 7 .002 14 .002 21 0a1 1 0 0 1 1 1 .99.99 0 0 1 -1 1c-.24.002-.48.002-.719 0l.69 2.757a1 1 0 0 1 -.728 1.213c-.498.125-1.11-.193-1.213-.727a864.38 864.38 0 0 1 -.812-3.243h-18.218c-.782 0-1.53-.15-2.215-.422l-.809 3.639a1 1 0 0 1 -1.193.76c-.5-.112-.892-.621-.76-1.194.319-1.442.639-2.883.961-4.325a5.996 5.996 0 0 1 -1.984-4.458v-3a1 1 0 0 1 1-1zm13.203 2.5c3.47.33 7.068.664 10.797 1 1.365 0 2.715.905 2.982 2.313a1 1 0 0 1 -1.936.487c-.15-.478-.248-.69-1.14-.805a2413.42 2413.42 0 0 0 -10.906-1.005c-.647-.07-1.216.385-1.416 1.226a1 1 0 1 1 -1.951-.44c.361-1.605 1.6-2.95 3.57-2.776zm-7.761-2a3 3 0 1 1 0 6 3 3 0 0 1 0-6zm0 2a1 1 0 1 0 0 2 1 1 0 0 0 0-2zm6.305-7.135c.205 0 .37.205.37.392a1 1 0 0 1 -.217.623l-1.496 1.878h1.343a.371.371 0 1 1 0 .742h-2.082c-.205 0-.37-.234-.37-.398 0-.246.076-.44.218-.618l1.5-1.877h-1.354a.371.371 0 0 1 0-.742zm5.047-2.454c.274 0 .496.305.496.64 0 .22-.074.446-.209.62l-2.19 2.838h1.923a.496.496 0 1 1 0 .991h-3.069a.49.49 0 0 1 -.495-.496c0-.404.075-.591.214-.767l2.233-2.835h-1.743a.496.496 0 1 1 0-.991zm6.112-2.454c.312 0 .565.324.565.796a1 1 0 0 1 -.199.6l-2.943 3.934h2.562a.606.606 0 1 1 0 1.213h-3.96c-.334 0-.606-.256-.606-.87a1 1 0 0 1 .21-.614l2.99-3.842h-2.323a.609.609 0 0 1 0-1.217z" fill="var(--db-icon-color, currentColor)" fill-rule="evenodd"/></svg>
