<svg id="icon" height="20" viewBox="0 0 20 20" width="20" xmlns="http://www.w3.org/2000/svg"><path d="m15.001 8c1.055 0 2 .864 2 2v3c0 1.054-.842 2-2 2v2c0 .614-.487 1-1 1s-1-.384-1-1a750 750 0 0 1 0-3c0-.513.413-1 1-1a82.99 82.99 0 0 1 1 0v-3h-1a1 1 0 0 1 -1-1c0-.513.375-1 1-1zm-4.5 5a1.5 1.5 0 0 1 .5 2.916v1.084a1 1 0 1 1 -2 0v-1l.005-.084a1.5 1.5 0 0 1 .494-2.916h1zm-3.5-6a1 1 0 0 1 1 1c0 .513-.418 1-1 1h-2v3h1c.513 0 1 .336 1 1v4a1 1 0 0 1 -1 1c-.513 0-1-.373-1-1v-3c-1.054 0-2-.81-2-2v-3c0-1.054.832-2 2-2zm3 2a1.5 1.5 0 1 1 0 3 1.5 1.5 0 0 1 0-3zm4-6a2 2 0 1 1 0 4 2 2 0 0 1 0-4zm-7-1a2 2 0 1 1 0 4 2 2 0 0 1 0-4z" fill="var(--db-icon-color, currentColor)" fill-rule="evenodd"/></svg>
