<svg id="icon" height="20" viewBox="0 0 20 20" width="20" xmlns="http://www.w3.org/2000/svg"><path d="m10.004 2c4.406 0 7.996 3.575 7.996 7.994 0 4.41-3.575 8.006-7.995 8.006-4.437 0-8.005-3.616-8.005-8.006 0-4.402 3.589-7.994 8.004-7.994zm-.314 10.683c-.745 0-1.35.586-1.35 1.361 0 .766.59 1.351 1.37 1.351.769 0 1.343-.603 1.343-1.351 0-.732-.586-1.361-1.363-1.361zm.19-7.923c-1.324 0-2.43.555-2.865.82l.897 2.146c.56-.296 1.346-.605 1.918-.605.61 0 .736.351.736.629 0 1.128-2.068 1.07-2.068 3.059v1.191h2.341v-1.19c0-.788 2.073-1.28 2.073-3.493 0-1.58-1.273-2.556-3.032-2.556z" fill="#282D37" style="fill: currentColor;fill: var(--db-icon-color, currentColor)" fill-rule="evenodd"/></svg>