<svg id="icon" height="20" viewBox="0 0 20 20" width="20" xmlns="http://www.w3.org/2000/svg"><path d="m13.51 6.999a8.74 8.74 0 0 0 .392-1.575c.126-.882-.083-1.719-.592-2.356a2.867 2.867 0 0 0 -2.04-1.068c-1.615.018-2.14 1.675-2.354 2.359-.516 1.414-1.291 2.162-1.931 2.565a.992.992 0 0 0 -.985-.926h-3a1 1 0 0 0 -1 1v9.002a1 1 0 0 0 1 1h3a.989.989 0 0 0 .937-.689c1.773.744 4.195 1.689 5.063 1.689 2.916 0 6-3.598 6-7 0-1.094 0-4-3-4zm-9.51 8v-7.001h1v7.001zm3-.838v-5.029c1.066-.392 2.824-1.43 3.81-4.132.219-.698.369-.921.443-.993.158.033.35.126.493.306.166.208.225.486.176.827-.172 1.2-.796 2.372-.803 2.384a1.001 1.001 0 0 0 .88 1.474h3c.581 0 1 0 1 2 0 2.48-2.327 5-3.993 5-.526-.025-2.889-.929-5.006-1.837z" fill="var(--db-icon-color, currentColor)" fill-rule="evenodd" transform="matrix(1 0 0 -1 0 20)"/></svg>
