<svg id="icon" height="20" viewBox="0 0 20 20" width="20" xmlns="http://www.w3.org/2000/svg"><path d="m13.288 2h1.82l1.786.01c.413.012.861.468.891.968l.215 3.812a1.039 1.039 0 0 1 -.924.957l-1.116.121-.156 1.275c-.1.38-.408.676-.802.755l-1.462.292-.13.13-.175.175-.199.198-.468.468-.078.078c.468 2.156-.298 3.88-1.409 4.99a5.32 5.32 0 1 1 -7.523-7.523c1.11-1.11 2.66-1.665 4.14-1.547l4.866-4.853c.21-.21.494-.307.724-.307zm.41 2-5.24 5.225-.918-.072a2.616 2.616 0 0 0 -.234-.01c-.863 0-1.714.356-2.334.977a3.294 3.294 0 0 0 -.972 2.343 3.301 3.301 0 0 0 .972 2.352c.626.626 1.459.97 2.345.97.89 0 1.724-.344 2.349-.97.583-.582 1.206-1.602.87-3.152l-.231-1.064 2.25-2.252 1.365-.273.247-2.025 1.777-.19-.105-1.855zm-5.298 7.385a1.529 1.529 0 1 1 -2.162 2.162 1.529 1.529 0 0 1 2.162-2.161z" fill="var(--db-icon-color, currentColor)" fill-rule="evenodd"/></svg>
