<svg id="icon" height="24" viewBox="0 0 24 24" width="24" xmlns="http://www.w3.org/2000/svg"><path d="m12.001 2a5.978 5.978 0 0 1 5.999 6h2.638c.845 0 1.471.781 1.346 1.594l-1.721 10.312c-.22 1.219-1.158 2.094-2.473 2.094h-11.641c-1.158 0-2.19-.906-2.378-2.094l-1.753-10.281c-.125-.813.407-1.625 1.22-1.625h2.762a6 6 0 0 1 6.001-6zm7.886 8h-15.772l1.627 9.594c.032.218.22.406.407.406h11.642a.5.5 0 0 0 .469-.406zm-7.886-6a3.987 3.987 0 0 0 -4.001 4h8c0-2.188-1.777-4-3.999-4z" fill="var(--db-icon-color, currentColor)" fill-rule="evenodd"/></svg>
