<svg id="icon" height="20" viewBox="0 0 20 20" width="20" xmlns="http://www.w3.org/2000/svg"><path d="m10 3a7 7 0 1 1 0 14 7 7 0 0 1 0-14zm0 2c-2.757 0-5 2.243-5 5s2.243 5 5 5 5-2.243 5-5-2.243-5-5-5zm2.018 5.72a.998.998 0 0 1 .677 1.736c-.116.107-1.18 1.043-2.698 1.043s-2.576-.929-2.692-1.035a.994.994 0 0 1 -.066-1.401c.367-.41.997-.442 1.409-.08.006.005.597.517 1.35.517.741 0 1.328-.5 1.352-.521a.996.996 0 0 1 .668-.259zm-4.018-3.72a1.25 1.25 0 1 1 0 2.5 1.25 1.25 0 0 1 0-2.5zm4 0a1.25 1.25 0 1 1 0 2.5 1.25 1.25 0 0 1 0-2.5z" fill="var(--db-icon-color, currentColor)" fill-rule="evenodd"/></svg>
