<svg id="icon" height="32" viewBox="0 0 32 32" width="32" xmlns="http://www.w3.org/2000/svg"><path d="m19.695 26.999a1 1 0 0 1 -1 1h-14.694a1 1 0 1 1 0-2h14.695a1 1 0 0 1 1 1zm-5.642-3a5.959 5.959 0 0 0 4.242-1.757c.204-.203.39-.418.558-.642a1 1 0 1 0 -1.599-1.201 3.928 3.928 0 0 1 -.373.428c-1.512 1.512-4.146 1.512-5.657 0a3.985 3.985 0 0 1 -.274-5.353 1 1 0 0 0 -1.55-1.265 5.979 5.979 0 0 0 .41 8.032 5.958 5.958 0 0 0 4.243 1.758zm-.5-15.41a2 2 0 1 0 .001-3.999 2 2 0 0 0 -.001 3.999zm9.394 15.41a.999.999 0 0 0 .928-1.37l-2.394-6a.999.999 0 0 0 -.929-.63h-3.478l-.58-2h1.969a1 1 0 1 0 0-2h-2.549l-.063-.218a2.516 2.516 0 0 0 -2.395-1.782h-.897a1 1 0 1 0 0 2h.897c.219 0 .416.146.477.348l1.431 4.931a1 1 0 0 0 .96.722h3.551l2.143 5.37a1 1 0 0 0 .929.63zm5.054 2h-5.305a1 1 0 1 0 0 2h5.305a1 1 0 1 0 0-2z" fill="var(--db-icon-color, currentColor)" fill-rule="evenodd"/></svg>
