<svg id="icon" height="24" viewBox="0 0 24 24" width="24" xmlns="http://www.w3.org/2000/svg"><path d="m20 3c.531 0 1 .438 1 1 0 .25-.094.531-.281.719l-16 16a1.101 1.101 0 0 1 -.719.281c-.563 0-1-.406-1-1 0-.25.094-.5.281-.688l2.719-2.717c-1.406-1.188-2.688-2.5-3.781-3.969a.955.955 0 0 1 -.219-.626c0-.219.063-.438.219-.625 1.656-2.063 5.094-6.375 9.781-6.375a8.864 8.864 0 0 1 4.344 1.25l2.937-2.938a.998.998 0 0 1 .719-.312zm-8 4c-3.344 0-6.125 3.063-7.719 5a19.903 19.903 0 0 0 3.125 3.156l2.375-2.344c-.125-.25-.156-.53-.156-.812a2.374 2.374 0 0 1 2.375-2.375c.281 0 .563.063.813.156l2.03-2.062a6.833 6.833 0 0 0 -2.843-.719zm6.063 3.156a26.581 26.581 0 0 1 1.655 1.844c-1.594 1.969-4.375 5-7.719 5-.25 0-.469 0-.719-.031l-1.656 1.656c.75.25 1.563.375 2.375.375 4.688 0 8.125-4.313 9.781-6.375a.955.955 0 0 0 .22-.625.955.955 0 0 0 -.219-.625 36.115 36.115 0 0 0 -2.281-2.625l-1.438 1.406z" fill="#282D37" style="fill: currentColor;fill: var(--db-icon-color, currentColor)" fill-rule="evenodd"/></svg>
