<svg id="icon" height="64" viewBox="0 0 64 64" width="64" xmlns="http://www.w3.org/2000/svg"><g fill="none" fill-rule="evenodd" transform="translate(14.998 5)"><path d="m11.897 14.157a1 1 0 0 1 .337 1.286l-.06.1-2.304 3.457h8.312a1 1 0 0 1 .116 1.993l-.116.007h-5.646l-6.666 10h2.396a1 1 0 0 1 .89 1.455l-.056.096-6.24 9.449h28.32l-6.022-9.463a1 1 0 0 1 .733-1.531l.11-.006h2.132l-6.963-10.445a1 1 0 0 1 .72-1.55l.112-.005h2.13l-2.296-3.446a1 1 0 0 1 .184-1.316l.093-.07a1 1 0 0 1 1.317.183l.07.094 3.334 5a1 1 0 0 1 -.72 1.55l-.112.005h-2.132l6.963 10.445a1 1 0 0 1 -.72 1.55l-.112.005h-2.18l6.023 9.463a1 1 0 0 1 -.733 1.531l-.11.006-12.001-.001v8.001a1 1 0 0 1 -.883.993l-.116.007h-6a1 1 0 0 1 -.994-.883l-.005-.117-.002-8.001-12 .001a1 1 0 0 1 -.89-1.455l.056-.096 6.24-9.449h-2.404a1 1 0 0 1 -.89-1.458l.058-.097 6.96-10.445h-2.128l-.111-.007a.984.984 0 0 1 -.723-.44l-.03-.049-.047-.09-.033-.083-.033-.117a.976.976 0 0 1 -.007-.401l.044-.155.023-.059.052-.101 3.373-5.064a1 1 0 0 1 1.387-.277zm7.105 29.843h-4v7h4zm-2.89-43.456a1 1 0 0 1 1.712-.114l.068.114 1.617 3.158 3.631.509a1 1 0 0 1 .696 1.543l-.068.09-.082.086-2.605 2.448.613 3.447a1.001 1.001 0 0 1 -1.229 1.146l-.107-.034-.1-.045-3.256-1.65-3.256 1.65a1.001 1.001 0 0 1 -1.452-.846l.002-.112.013-.11.613-3.446-2.605-2.448a1.001 1.001 0 0 1 .317-1.66l.114-.037.115-.022 3.63-.509 1.62-3.158zm.89 2.649-.965 1.883a1 1 0 0 1 -.632.51l-.12.025-2.078.29 1.48 1.39a1 1 0 0 1 .312.656l.001.123-.014.125-.357 2.006 1.92-.972a1 1 0 0 1 .65-.089l.13.036.125.053 1.92.972-.357-2.006a1 1 0 0 1 .14-.712l.074-.1.086-.092 1.479-1.391-2.079-.29a1 1 0 0 1 -.616-.335l-.073-.095-.062-.105-.964-1.883z" fill="#282D37" style="fill: currentColor;fill: var(--db-icon-color, currentColor)" fill-rule="nonzero"/><path d="m22.002 31a1 1 0 0 1 .116 1.993l-.116.007h-18a1 1 0 0 1 -.117-1.993l.117-.007z" fill="#EC0016" style="fill:#EC0016;fill: var(--db-icon-pulse-color, #EC0016)"/></g></svg>
