<svg id="icon" height="32" viewBox="0 0 32 32" width="32" xmlns="http://www.w3.org/2000/svg"><path d="m21.023 1.99c.289 0 .53.112.706.29l3.982 4.014a1 1 0 0 1 .289.706v14.16c2.023 1.285 2.972 2.578 2.972 4.955 0 2.312-1.187 3.885-3.275 3.885h-3.34c-1.733 0-3.178-1.477-3.178-3.243v-1.413c-1.06-.16-2.12-.225-3.179-.225-1.06 0-2.12.064-3.147.225v1.413c0 1.766-1.445 3.243-3.21 3.243h-3.373c-2.023 0-3.243-1.51-3.243-3.885 0-2.28.72-3.927 3.032-5.115v-16.761c0-1.253.995-2.248 2.247-2.248h12.716zm-4.99 19.02c-5.203 0-11.015 1.027-11.015 4.976 0 .996.161 1.991 1.253 1.991h3.371c.675 0 1.252-.61 1.252-1.252v-2.248c0-.482.322-.867.739-.963a22.296 22.296 0 0 1 4.431-.45c1.477 0 2.954.16 4.367.45a1 1 0 0 1 .77.963v2.248c0 .674.547 1.252 1.189 1.252h3.371c.708 0 1.285-.61 1.285-1.573 0-4.303-4.913-5.395-11.014-5.395zm3.022-17.02h-10.757a.253.253 0 0 0 -.257.258v15.83c2.28-.803 4.496-1.06 8.092-1.06 3.275 0 5.812.418 7.867 1.156v-11.174h-3.95a1 1 0 0 1 -.995-.995zm1.945.41v2.6h2.569zm-11 11.605c0-.581.452-1 1-1h10.032c.58 0 .968.419.968 1 0 .58-.387 1-.968 1h-10.032c-.548 0-1-.42-1-1zm0-4.02c0-.54.452-.985 1-.985h10.032c.58 0 .968.444.968.984 0 .571-.387 1.016-.968 1.016h-10.032c-.548 0-1-.445-1-1.016z" fill="#282D37" style="fill: currentColor;fill: var(--db-icon-color, currentColor)" fill-rule="evenodd"/></svg>
