<svg id="icon" height="20" viewBox="0 0 20 20" width="20" xmlns="http://www.w3.org/2000/svg"><path d="m13.093 2c.25 0 .5.156.625.25l2.031 2.062.073.099c.112.172.177.381.177.589v3h.407c1 0 1.594.875 1.594 1.844v5.344c0 .937-.625 1.812-1.594 1.812h-9.186c-.55.609-1.337 1-2.22 1-1.654 0-3-1.346-3-3v-6c0-1.654 1.346-3 3-3v-2.219c0-1.031.812-1.781 1.812-1.781zm-8.094 6a1 1 0 0 0 -1 1v6a1 1 0 0 0 2 0v-6a1 1 0 0 0 -1-1zm11 2h-8v5h8zm-2.5 1.5a1 1 0 1 1 0 2 1 1 0 0 1 0-2zm-3 0a1 1 0 1 1 0 2 1 1 0 0 1 0-2zm1.5-7.5h-5v2.78c.367.331.647.746.816 1.22h6.184v-2h-1.031c-.531 0-.969-.5-.969-1z" fill="var(--db-icon-color, currentColor)" fill-rule="evenodd"/></svg>
