<svg id="icon" height="20" viewBox="0 0 20 20" width="20" xmlns="http://www.w3.org/2000/svg"><path d="m15.412 2c1.51 0 2.588 1.132 2.588 2.499v8.003a2.509 2.509 0 0 1 -2.51 2.498h-8.647c-.294 0-.549.079-.725.274l-2.412 2.44c-.627.624-1.706.156-1.706-.722v-12.493c0-1.367 1.137-2.499 2.53-2.499zm.588 2h-12v10.6l.727-.685c.53-.508 1.217-.876 1.944-.915h9.329zm-6 6.5c.498 0 .875.381.875.866a.872.872 0 0 1 -.875.884.872.872 0 0 1 -.875-.884c0-.485.377-.866.875-.866zm.194-5.5c1.102 0 1.955.592 1.955 1.67 0 .83-.414 1.284-.787 1.614-.373.329-.586.483-.582.692v.79h-1.548v-.79c0-.624.31-.936.636-1.174l.419-.293c.188-.145.326-.303.326-.545 0-.219-.114-.416-.547-.416-.372 0-.803.145-1.137.33l-.529-1.372c.33-.267 1.096-.506 1.794-.506z" fill="var(--db-icon-color, currentColor)" fill-rule="evenodd"/></svg>
