<svg id="icon" height="32" viewBox="0 0 32 32" width="32" xmlns="http://www.w3.org/2000/svg"><path d="m24 12.246v14.754a3 3 0 0 1 -3 3h-10a2.985 2.985 0 0 1 -2.79-1.956l1.79-1.801v.757a1 1 0 0 0 1 1h10a1 1 0 0 0 1-1v-12.754zm-3.012-10.246a3.01 3.01 0 0 1 3.012 3v1.586l2.28-2.293a1 1 0 1 1 1.415 1.414l-22 22a1 1 0 0 1 -1.414-1.414l3.719-3.707v-17.586c0-1.657 1.33-3 2.988-3zm-2.988 22a1 1 0 0 1 0 2h-4a1 1 0 1 1 0-2zm-6-20h-1a1 1 0 0 0 -1 1v15.586l12-12v-3.586a1 1 0 0 0 -1-1h-1a1 1 0 0 1 -1 1h-6a1 1 0 0 1 -1-1z" fill="var(--db-icon-color, currentColor)" fill-rule="evenodd"/></svg>
