<svg id="icon" height="20" viewBox="0 0 20 20" width="20" xmlns="http://www.w3.org/2000/svg"><path d="m8.67 14.886 1.33.642 1.327-.641a.868.868 0 0 1 1.169.407c.194.401.057.917-.4 1.167l-1.715.827a.877.877 0 0 1 -.762 0l-1.71-.827a.875.875 0 0 1 -.407-1.168.882.882 0 0 1 1.169-.407zm-4.67-4.261a.88.88 0 0 1 .875.875v1.551l1.12.541a.88.88 0 0 1 .406 1.169.871.871 0 0 1 -1.168.407l-1.614-.78a.88.88 0 0 1 -.494-.788v-2.1c0-.483.392-.875.875-.875zm12 0c.446 0 .875.356.868.875l.007 2.1a.875.875 0 0 1 -.398.733l-1.681.82a.875.875 0 0 1 -1.169-.406.886.886 0 0 1 .407-1.169l1.09-.527.001-1.551c0-.519.429-.875.875-.875zm-3.563-3.231c1.018 0 1.527.447 1.527 1.342 0 .367-.09.648-.27.843-.134.142-.333.252-.598.331.176.094.322.258.438.494.31.64.542 1.119.697 1.436.09.187-.062.403-.41.403-.173 0-.476-.053-.588-.276l-.643-1.348c-.087-.183-.172-.307-.254-.371-.072-.057-.188-.085-.347-.085h-.326v1.572a.507.507 0 1 1 -1.015 0v-3.937c0-.223.181-.404.404-.404zm-4.523 0a.51.51 0 0 1 .484.333l1.543 4.091c.086.23.046.425-.363.425-.363 0-.498-.092-.59-.319l-.287-.712h-1.801l-.242.652c-.102.274-.242.379-.605.379s-.451-.181-.363-.41l1.573-4.106c.068-.179.226-.333.423-.333zm-.08 1.295-.644 1.8h1.286l-.643-1.8zm4.495-.533c.318 0 .512.09.582.271.034.086.051.22.051.406 0 .227-.041.385-.124.475-.1.11-.271.165-.515.165h-.663v-1.317zm-5.957-2.933c.191.403.03.967-.415 1.166l-1.082.513v1.598a.877.877 0 0 1 -.875.875.881.881 0 0 1 -.875-.875v-2.15c0-.3.154-.577.402-.736l1.679-.806a.875.875 0 0 1 1.166.415zm8.326-.457 1.677.794a.875.875 0 0 1 .493.679l.007 2.261a.875.875 0 0 1 -1.743.11l-.008-1.708-1.13-.536c-.404-.192-.64-.685-.423-1.143.217-.457.677-.64 1.127-.457zm-4.444-2.103 1.771.83a.875.875 0 0 1 -.648 1.622l-1.378-.647-1.31.624c-.403.191-.9.085-1.148-.368-.247-.453-.039-1.014.413-1.23l1.67-.784a.875.875 0 0 1 .63-.047z" fill="#282D37" style="fill: currentColor;fill: var(--db-icon-color, currentColor)" fill-rule="evenodd"/></svg>
