<svg id="icon" height="20" viewBox="0 0 20 20" width="20" xmlns="http://www.w3.org/2000/svg"><path d="m16 2c1.1045695 0 2 .8954305 2 2v12c0 1.1045695-.8954305 2-2 2h-12c-1.1045695 0-2-.8954305-2-2v-12c0-1.1045695.8954305-2 2-2zm0 2h-12v12h12zm-5.6432076 2.31699501c.8650313 0 1.526013.1988177 1.9829449.59645309.4569319.3976354.6853978.97664834.6853978 1.73703882 0 .78131867-.237186 1.37602778-.7115581 1.78412718-.4312473.3709996-1.0441027.573363-1.8385664.6070902-.59434229.0027364-1.05582212-.020691-1.38443947-.0702824l.00004541 1.8435062c0 .4709897-.38181258.8528023-.85280226.8528023-.43477043 0-.85282328-.3426117-.85282328-.8528233v-5.74791209c0-.37969576.29992913-.78078829.75-.75.74055727-.00218212 1.48115772-.00218212 2.2218014 0zm-.1360323 1.24521348h-1.1301881v2.26234925c.27607116.04046114.60745613.06069172.9941549.06069172.4534396 0 .7795747-.09417681.9783924-.28253041.1988176-.18835361.2982265-.4918122.2982265-.91037577 0-.34680982-.0645508-.66940133-.2668343-.86851941-.2174278-.20024406-.5269416-.26161538-.8737514-.26161538z" fill="var(--db-icon-color, currentColor)" fill-rule="evenodd"/></svg>
