<svg id="icon" height="32" viewBox="0 0 32 32" width="32" xmlns="http://www.w3.org/2000/svg"><path d="m16 11a5 5 0 0 0 -5 5v11a1 1 0 0 1 -2 0v-11a7 7 0 0 1 7-7h4.578l-3.08-3.076a.992.992 0 0 1 -.298-.73c0-.53.431-.994.995-.994.266 0 .531.1.697.298l4.889 4.883a.935.935 0 0 1 .219.619c0 .232-.1.497-.299.696l-5.01 5.006a1.035 1.035 0 0 1 -.696.298.998.998 0 0 1 -.995-.994c0-.266.1-.53.299-.73l3.279-3.276z" fill="var(--db-icon-color, currentColor)" fill-rule="evenodd" transform="matrix(-1 0 0 1 33 0)"/></svg>
