<svg id="icon" height="20" viewBox="0 0 20 20" width="20" xmlns="http://www.w3.org/2000/svg"><path d="m7.656 2.125 5.282 1.75 3.562-1.781c.15-.075.313-.094.563-.094.437 0 .937.344.937.844v12.156c0 .344-.125.656-.438.813l-4.093 2.093a.997.997 0 0 1 -.438.094c-.125 0-.312-.063-.5-.094l-5.469-1.843-3.625 1.843a.961.961 0 0 1 -.406.094c-.561 0-1.031-.344-1.031-1v-12.031c0-.313.125-.688.438-.844l4-2c.208-.104.373-.122.512-.124l.081-.001c.157 0 .278.01.625.125zm.344 2.219v9.937l4 1.344v-9.938l-4-1.342zm8 .25-2 1v9.781l2-1zm-10 0-2 1v9.781l2-1z" fill="var(--db-icon-color, currentColor)" fill-rule="evenodd"/></svg>
