<svg id="icon" height="24" viewBox="0 0 24 24" width="24" xmlns="http://www.w3.org/2000/svg"><path d="m12 2c.719 0 1.469.219 2 .75l7.719 7.719a.99.99 0 0 1 .281.719c0 .562-.438.968-1 .968a.955.955 0 0 1 -.625-.219l-.375-.342v9.405c0 .531-.406 1-.906 1h-5.094c-.531 0-1-.469-1-1v-5h-2v5c0 .531-.406 1-.906 1h-5.094c-.531 0-1-.406-1-.906v-9.5l-.281.281a1.043 1.043 0 0 1 -.719.281c-.438 0-1-.312-1-.969 0-.25.031-.468.219-.656l7.656-7.656c.625-.594 1.344-.875 2.125-.875zm0 2c-.219 0-.469.063-.625.219l-5.375 5.375v10.406h3v-5c0-.5.375-1 .906-1h4.094c.531 0 1 .406 1 .906v5.094h3v-10.406l-5.281-5.314c-.189-.217-.469-.28-.719-.28z" fill="#282D37" style="fill: currentColor;fill: var(--db-icon-color, currentColor)" fill-rule="evenodd"/></svg>