<svg id="icon" height="20" viewBox="0 0 20 20" width="20" xmlns="http://www.w3.org/2000/svg"><path d="m8.5 2a4.5 4.5 0 0 1 4.5 4.5v8.176l1.326-1.327c.216-.2.46-.299.73-.299.53 0 .994.431.994.995 0 .266-.1.531-.298.697l-3.006 3.01c-.166.199-.43.298-.696.298-.232 0-.497-.1-.696-.299l-3.006-3.01a1.035 1.035 0 0 1 -.298-.696c0-.564.464-.995.994-.995.266 0 .53.1.73.299l1.226 1.228v-8.077a2.5 2.5 0 0 0 -5 0v4.25a1 1 0 0 1 -2 0v-4.25a4.5 4.5 0 0 1 4.5-4.5z" fill="var(--db-icon-color, currentColor)" fill-rule="evenodd"/></svg>
