<svg id="icon" height="24" viewBox="0 0 24 24" width="24" xmlns="http://www.w3.org/2000/svg"><path d="m17.305562 3c.6842907 0 1.3063734.21803279 1.772985.6852459l2.768217 2.67868853c.4666116.43606557.653236 1.02786885.653236 1.61967213 0 .52950819-.1866244 1.15245901-.653236 1.58852459l-2.768217 2.67868855c-.4976659.4983606-1.0886943.7491803-1.772985.7491803h-4.305562v7h3.0326767c.5287203 0 .9641781.4737705.9641781.9409836 0 .6229508-.4354578 1.0590164-.9641781 1.0590164h-8.3370717c-.52881983 0-.933124-.4360656-.933124-1.0590164 0-.4672131.40430417-.9409836.933124-.9409836h3.298204l.006191-7h-5.41830813c-1.46194349 0-2.58169187-1.1229508-2.58169187-2.5557377v-4.92131148c0-1.40163934 1.11974838-2.52295082 2.58169187-2.52295082zm-.155471 2h-11.19514967c-.62208244 0-.93312365.30491803-.93312365.89672131v4.17377049c0 .5918033.31104121.9344262.93312365.9344262h11.19514967c.4976659 0 .8397618-.1245901 1.150803-.4672131l1.866247-1.89999998c.2177786-.21803279.332859-.43606558.332859-.6852459 0-.21803279-.1150804-.43606558-.332859-.65409836l-1.866247-1.83770492c-.3420956-.34262295-.6531371-.46065574-1.150803-.46065574z" fill="var(--db-icon-color, currentColor)" fill-rule="evenodd"/></svg>
