<svg id="icon" height="20" viewBox="0 0 20 20" width="20" xmlns="http://www.w3.org/2000/svg"><path d="m16 2a2 2 0 0 1 2 2v12a2 2 0 0 1 -2 2h-12a2 2 0 0 1 -2-2v-12a2 2 0 0 1 2-2zm0 2h-12v12h12zm-5.643 2.317c.865 0 1.526.199 1.983.596.457.398.685.977.685 1.737 0 .782-.237 1.377-.711 1.785-.432.37-1.045.573-1.839.607-.594.002-1.056-.021-1.384-.07v1.843a.853.853 0 1 1 -1.706 0v-5.748c0-.38.3-.78.75-.75.74-.002 1.481-.002 2.222 0zm-.136 1.245h-1.131v2.263c.276.04.607.06.994.06.453 0 .78-.094.978-.282.199-.189.298-.492.298-.91 0-.347-.064-.67-.266-.87-.218-.2-.527-.26-.874-.26z" fill="#282D37" style="fill: currentColor;fill: var(--db-icon-color, currentColor)" fill-rule="evenodd"/></svg>
