<svg id="icon" height="20" viewBox="0 0 20 20" width="20" xmlns="http://www.w3.org/2000/svg"><path d="m10 2c.995 0 1.463.585 1.893 1.015l5.814 5.795c.195.195.293.448.293.722 0 .566-.468.995-1.034.995-.234 0-.449-.059-.605-.215l-.37-.39v7.063c0 .547-.508 1.015-.996 1.015h-9.99a1.03 1.03 0 0 1 -.995-1.015v-7.063l-.293.312a.99.99 0 0 1 -.702.293c-.586 0-1.015-.449-1.015-1.034 0-.215.078-.43.234-.586l5.873-5.892c.43-.43.898-1.015 1.893-1.015zm0 2-4 4v8h8v-8z" fill="var(--db-icon-color, currentColor)" fill-rule="evenodd"/></svg>
