<svg id="icon" height="32" viewBox="0 0 32 32" width="32" xmlns="http://www.w3.org/2000/svg"><path d="m16 2c.563 0 1 .438 1 1v4.063a9.002 9.002 0 0 1 7.938 7.937h4.062c.563 0 1 .438 1 1 0 .563-.438 1-1 1h-4.063a9.032 9.032 0 0 1 -7.937 7.938v4.062c0 .563-.438 1-1 1-.563 0-1-.438-1-1v-4.063a9.002 9.002 0 0 1 -7.938-7.937h-4.062c-.563 0-1-.438-1-1 0-.563.438-1 1-1h4.063a9.032 9.032 0 0 1 7.937-7.938v-4.062c0-.563.438-1 1-1zm0 7c-3.875 0-7 3.125-7 7s3.125 7 7 7 7-3.125 7-7-3.125-7-7-7zm0 10a3 3 0 1 0 -.002-6.002 3 3 0 0 0 .002 6.002z" fill="var(--db-icon-color, currentColor)" fill-rule="evenodd"/></svg>
