<svg id="icon" height="20" viewBox="0 0 20 20" width="20" xmlns="http://www.w3.org/2000/svg"><path d="m5 17c0-.531.5-1 1-1h8c.563 0 1 .438 1 1 0 .563-.5 1-1 1h-8c-.5 0-1-.438-1-1zm5-15c2.781 0 5 2.031 5 4.656 0 .938-.313 1.907-.906 2.813l-3.25 5.062c-.219.313-.531.469-.844.469s-.625-.156-.844-.469l-3.25-5.061c-.593-.907-.906-1.876-.906-2.814 0-2.625 2.219-4.656 5-4.656zm0 3c-1.094 0-2 .913-2 2.016 0 1.102.906 1.984 2 1.984s2-.882 2-1.984c0-1.103-.906-2.016-2-2.016z" fill="var(--db-icon-color, currentColor)" fill-rule="evenodd"/></svg>
