<svg id="icon" height="32" viewBox="0 0 32 32" width="32" xmlns="http://www.w3.org/2000/svg"><path d="m16 2c7.732 0 14 6.268 14 14s-6.268 14-14 14-14-6.268-14-14 6.268-14 14-14zm0 2c-6.627 0-12 5.373-12 12s5.373 12 12 12 12-5.373 12-12-5.373-12-12-12zm4.59 4.46c.78 0 1.5.642 1.5 1.5v11.54a1.5 1.5 0 0 1 -1.5 1.5c-.78 0-1.5-.647-1.5-1.5v-4.82h-6.18v4.82a1.5 1.5 0 0 1 -1.5 1.5c-.78 0-1.5-.64-1.5-1.5v-11.54c0-.78.666-1.5 1.5-1.5s1.5.792 1.5 1.5v4.46h6.18v-4.46a1.5 1.5 0 0 1 1.5-1.5z" fill="var(--db-icon-color, currentColor)" fill-rule="evenodd"/></svg>
