<svg id="icon" height="24" viewBox="0 0 24 24" width="24" xmlns="http://www.w3.org/2000/svg"><path d="m8.01923112 7.75c.8438 0 1.5625.5938 1.6875 1.4375l.74999998 4.7813c.1563 1.0624-.56249998 2-1.78119998 2v5.0637c0 .5313-.4375.9687-.9688.9687-.5312 0-.9687-.4374-.9687-.9687v-6.0637c0-.5313.4375-.9688.9687-.9688h.7813l-.6875-4.3125h-3.125l-.6563 4.3125h.8125c.5313 0 .9688.4375.9688.9688v6.0637c0 .5313-.4688.9687-1 .9687-.5 0-.9688-.4374-.9688-.9687v-5.0637c-1.1562 0-1.9687-.875-1.8125-2l.7813-4.7813c.125-.8437.8437-1.4375 1.6875-1.4375zm11.85244278 0c1.0312 0 1.8437.9063 1.6875 1.9063l-.75 5.3437c-.0938.5938-.4688 1.0938-1.0625 1.3126v4.7187c0 .5313-.4375.9687-.9688.9687-.5312 0-.9687-.4374-.9687-.9687v-5.5937c0-.5313.3437-.9688 1.125-.9688l.6562-4.7812h-4.5937l.6875 4.7812c.75 0 1.1562.4062 1.1562.9688v5.5937c0 .5313-.4375.9687-.9687.9687-.5313 0-.9688-.4374-.9688-.9687v-4.7187c-.5625-.2188-1-.7188-1.0937-1.2813l-.7813-5.3125c-.1875-1.0312.5938-1.9688 1.6563-1.9688zm-13.63279765-5.75c1.242692 0 2.25009558 1.00730372 2.25009558 2.25001365 0 1.24270994-1.00740358 2.24998635-2.25009558 2.24998635-1.24250083 0-2.24990442-1.00727641-2.24990442-2.24998635 0-1.24270993 1.00740359-2.25001365 2.24990442-2.25001365zm11.05026655 0c1.242692 0 2.2500955 1.00730372 2.2500955 2.25001365 0 1.24270994-1.0074035 2.24998635-2.2500955 2.24998635-1.2425009 0-2.2499045-1.00727641-2.2499045-2.24998635 0-1.24270993 1.0074036-2.25001365 2.2499045-2.25001365z" fill="var(--db-icon-color, currentColor)" fill-rule="evenodd"/></svg>
