<svg id="icon" height="20" viewBox="0 0 20 20" width="20" xmlns="http://www.w3.org/2000/svg"><path d="m4 15a.99.99 0 0 1 .281-.719l4.282-4.281-4.283-4.313a.97.97 0 0 1 -.28-.687c0-.5.406-1 1-1 .25 0 .5.094.688.281l4.312 4.282 4.313-4.282a.97.97 0 0 1 .687-.281c.531 0 1 .438 1 1 0 .25-.094.5-.281.688l-4.281 4.312 4.28 4.281a.99.99 0 0 1 .282.719c0 .531-.438 1-1 1a.99.99 0 0 1 -.719-.281l-4.281-4.313-4.281 4.314a.99.99 0 0 1 -.719.28c-.563 0-1-.469-1-1z" fill="#282D37" style="fill: currentColor;fill: var(--db-icon-color, currentColor)" fill-rule="evenodd"/></svg>