<svg id="icon" height="32" viewBox="0 0 32 32" width="32" xmlns="http://www.w3.org/2000/svg"><path d="m5 16.032c0-5.161 3.613-9.613 8.645-10.645l-2.484-1.484a1.022 1.022 0 0 1 -.484-.845c0-.314.17-1.058.972-1.058.19 0 .409.071.703.251l4.456 2.717c.265.161.515.451.515.798 0 .17-.045.36-.162.557l-2.742 4.612a.988.988 0 0 1 -.861.484c-.567 0-1.01-.451-1.01-1.007 0-.154.035-.352.13-.509l1.58-2.613c-4.097.775-7.258 4.355-7.258 8.742a8.954 8.954 0 0 0 3.585 7.188c.293.22.415.522.415.825 0 .561-.42.987-1 .987a.989.989 0 0 1 -.61-.198 11.086 11.086 0 0 1 -4.39-8.802zm9.677 10.268c0-.17.045-.36.162-.557l2.742-4.613a.988.988 0 0 1 .861-.484c.567 0 1.01.452 1.01 1.007 0 .154-.035.352-.13.51l-1.58 2.612c4.097-.775 7.258-4.355 7.258-8.743a8.954 8.954 0 0 0 -3.585-7.188 1.003 1.003 0 0 1 -.415-.824c0-.562.42-.988 1-.988.226 0 .433.065.61.198 2.745 2.082 4.39 5.35 4.39 8.802 0 5.162-3.613 9.613-8.645 10.645l2.484 1.484c.29.174.484.516.484.846 0 .313-.17 1.058-.972 1.058-.093 0-.344-.032-.61-.194l-4.549-2.774c-.265-.161-.515-.452-.515-.799z" fill="#282D37" style="fill: currentColor;fill: var(--db-icon-color, currentColor)" fill-rule="evenodd"/></svg>