<svg id="icon" height="32" viewBox="0 0 32 32" width="32" xmlns="http://www.w3.org/2000/svg"><path d="m19.172 6a3 3 0 0 1 1.976.743l.145.136 2.122 2.121 3.588.004c1.54.002 2.897 1.319 2.992 2.831l.005.169v10.994a3 3 0 0 1 -2.824 2.995l-.176.005h-22a3 3 0 0 1 -2.995-2.824l-.005-.176v-10.994a3 3 0 0 1 2.82-2.995l.177-.005 3.587-.004 2.123-2.121c.473-.473 1.267-.817 1.942-.872l.181-.007zm0 2h-6.344a1 1 0 0 0 -.608.206l-.099.087-2.414 2.414a1 1 0 0 1 -.575.284l-.131.009-4.002.004a1 1 0 0 0 -.992.883l-.007.117v10.994a1 1 0 0 0 .883.993l.117.007h22a1 1 0 0 0 .993-.884l.007-.116v-10.994a1 1 0 0 0 -.882-.993l-.118-.007-4.001-.004a1 1 0 0 1 -.607-.206l-.1-.087-2.413-2.414a1 1 0 0 0 -.707-.293zm-3.172 4a5 5 0 1 1 0 10 5 5 0 0 1 0-10zm0 2a3 3 0 1 0 0 6 3 3 0 0 0 0-6zm-8-1a1 1 0 0 1 0 2h-1a1 1 0 0 1 0-2z" fill="#282D37" style="fill: currentColor;fill: var(--db-icon-color, currentColor)" fill-rule="evenodd"/></svg>
