<svg id="icon" height="32" viewBox="0 0 32 32" width="32" xmlns="http://www.w3.org/2000/svg"><path d="m27 2a3 3 0 0 1 3 3v22a3 3 0 0 1 -3 3h-22a3 3 0 0 1 -3-3v-22a3 3 0 0 1 3-3zm0 2h-22a1 1 0 0 0 -.993.883l-.007.117v22a1 1 0 0 0 .883.993l.117.007h22a1 1 0 0 0 .993-.883l.007-.117v-22a1 1 0 0 0 -.883-.993zm-10.824 4.46c1.72 0 3 .343 3.84 1.03s1.26 1.723 1.26 3.11c0 1.01-.231 1.791-.85 2.53-.413.492-1.17.891-2.273 1.196.463.21.91.631 1.343 1.262l2.05 3.28c.38.61.215 1.503-.448 1.918-.664.414-1.462.214-1.906-.448-.36-.559-1.165-1.858-2.416-3.898-.267-.427-.497-.743-.69-.95-.155-.165-.325-.506-1.152-.545l-.948-.005v4.56a1.5 1.5 0 0 1 -1.5 1.5c-.78 0-1.5-.662-1.5-1.5v-11.54c0-.78.618-1.498 1.5-1.5l.95-.001h1.845zm-.18 2.2h-2.01v4.26h2.03c.857.008 1.449-.2 1.77-.51.353-.34.53-.89.53-1.65 0-.787-.174-1.333-.52-1.64-.315-.279-1.02-.46-1.8-.46z" fill="#282D37" style="fill: currentColor;fill: var(--db-icon-color, currentColor)" fill-rule="evenodd"/></svg>
