<svg id="icon" height="20" viewBox="0 0 20 20" width="20" xmlns="http://www.w3.org/2000/svg"><path d="m10 15a1 1 0 0 1 1 1v1a1 1 0 0 1 -2 0v-1a1 1 0 0 1 1-1zm4.95-1.464.707.707a1 1 0 1 1 -1.414 1.414l-.707-.707a1 1 0 0 1 1.414-1.414zm-8.486 0a1 1 0 0 1 0 1.414l-.707.707a.995.995 0 0 1 -.53.277l-.118.014h-.118a1 1 0 0 1 -.648-1.705l.707-.707a1 1 0 0 1 1.414 0zm3.536-7.536a4 4 0 1 1 0 8 4 4 0 0 1 0-8zm7 3a1 1 0 0 1 0 2h-1a1 1 0 0 1 0-2zm-13 0a1 1 0 1 1 0 2h-1a1 1 0 0 1 0-2zm1.757-4.657.707.707a1 1 0 1 1 -1.414 1.414l-.707-.707a1 1 0 0 1 1.414-1.414zm9.9 0a1 1 0 0 1 0 1.414l-.707.707a.995.995 0 0 1 -.53.278l-.118.014h-.118a1 1 0 0 1 -.648-1.705l.707-.708a1 1 0 0 1 1.414 0zm-5.657-2.343a1 1 0 0 1 1 1v1a1 1 0 0 1 -2 0v-1a1 1 0 0 1 1-1z" fill="#282D37" style="fill: currentColor;fill: var(--db-icon-color, currentColor)" fill-rule="evenodd"/></svg>
