<svg id="icon" height="20" viewBox="0 0 20 20" width="20" xmlns="http://www.w3.org/2000/svg"><path d="m7 14a2 2 0 1 1 0 4 2 2 0 0 1 0-4zm6 0a2 2 0 1 1 0 4 2 2 0 0 1 0-4zm-1.042-11.99a5.329 5.329 0 0 1 4.96 5.686c-.008.3-.032.604-.097.825-.051.16-.233.691-.43 1.258l-.147.426-.143.408-.127.358a13.59 13.59 0 0 1 -.16.437 2.516 2.516 0 0 1 -2.314 1.592h-7.22a2.488 2.488 0 0 1 -2.33-1.631l-.882-2.992a1 1 0 0 1 .932-1.36l1.156-.001-.526-.793a.5.5 0 0 0 -.417-.223h-.225a1 1 0 1 1 0-2h.225a2.495 2.495 0 0 1 2.084 1.119l1.257 1.897h2.156l1.174-4.277a1 1 0 0 1 1.075-.729zm2.57 7.004-9.028.001.505 1.596c.065.241.248.405.455.409h7.172c.211-.017.393-.187.462-.431.044-.134.24-.848.435-1.575zm-1.963-4.846-.782 2.848h3.115c-.198-1.823-1.379-2.555-2.333-2.848z" fill="#282D37" style="fill: currentColor;fill: var(--db-icon-color, currentColor)" fill-rule="evenodd"/></svg>
