<svg id="icon" height="64" viewBox="0 0 64 64" width="64" xmlns="http://www.w3.org/2000/svg"><g fill="none" fill-rule="evenodd" transform="translate(6 9)"><path d="m24.394 25.082a1 1 0 0 1 .565 1.203l-.04.11-2.402 5.605h4.483a1 1 0 0 1 .966 1.261l-.037.11-4 10a1 1 0 0 1 -1.894-.632l.037-.11 3.45-8.63h-4.522a1 1 0 0 1 -.959-1.283l.04-.11 3-7a1 1 0 0 1 1.313-.525zm13.536-24.963a8.008 8.008 0 0 1 6.632 7.784c-.001.47-.045.937-.13 1.397l-.054.255.108.032a7.892 7.892 0 0 1 5.506 7.91l-.016.253c-.33 4.058-3.687 7.184-7.716 7.25h-1.997a.998.998 0 0 1 -.769-.36 8.208 8.208 0 0 1 -7.363 5.354l-.255.007h-3.876a1 1 0 0 1 -.116-1.994l.116-.006h3.865a6.202 6.202 0 0 0 .976-12.315 1 1 0 0 1 -.77-1.334 6.195 6.195 0 0 0 -5.734-8.351 6.125 6.125 0 0 0 -5.75 4.074 1 1 0 0 1 -1.566.447 6.038 6.038 0 0 0 -3.766-1.322 6.152 6.152 0 0 0 -6.089 5.507 1 1 0 0 1 -1 .895l-.064-.002-.192.006a6.2 6.2 0 0 0 -5.906 5.968l-.004.227a6.199 6.199 0 0 0 5.9 6.193l.225.007h8.875a1 1 0 0 1 .117 1.993l-.117.007h-8.885a8.2 8.2 0 0 1 -.975-16.332l.172-.02.036-.162a8.155 8.155 0 0 1 7.643-6.281l.26-.005c1.278 0 2.53.305 3.655.879l.312.168.05-.09a8.133 8.133 0 0 1 6.797-4.152l.278-.005a8.19 8.19 0 0 1 2.976.59 8.003 8.003 0 0 1 8.61-4.472zm-6.801 5.323-.053.119a8.195 8.195 0 0 1 3.21 8.315l-.024.1.156.05a8.204 8.204 0 0 1 5.574 8.163l-.016.258a8.29 8.29 0 0 1 -.073.623.887.887 0 0 1 .243-.063l.117-.006h1.76a5.89 5.89 0 0 0 .95-11.716 1 1 0 0 1 -.788-1.344 5.766 5.766 0 0 0 .377-2.025 6.004 6.004 0 0 0 -11.433-2.474z" fill="#282D37" style="fill: currentColor;fill: var(--db-icon-color, currentColor)" fill-rule="nonzero"/><path d="m44 32c.772 0 1.397.437 1.733 1.075l5.906 12.047c.134.302.201.604.201.873 0 1.107-.766 2.005-1.84 2.005h-12c-1.073 0-2-.899-2-2.006 0-.302.068-.604.202-.873l5.973-11.98c.302-.671 1.087-1.141 1.825-1.141zm0 2-6 12h12zm-1 8v-4h2v4zm1 1.008c.549 0 1 .452 1 1 0 .549-.451 1-1 1-.548 0-1-.451-1-1 0-.548.452-1 1-1z" fill="#EC0016" style="fill:#EC0016;fill: var(--db-icon-pulse-color, #EC0016)"/></g></svg>
