<svg id="icon" height="48" viewBox="0 0 48 48" width="48" xmlns="http://www.w3.org/2000/svg"><path d="m39.714 2a6.286 6.286 0 0 1 6.286 6.286v31.429a6.285 6.285 0 0 1 -6.286 6.285h-31.429a6.285 6.285 0 0 1 -6.285-6.285v-31.43a6.286 6.286 0 0 1 6.285-6.285zm0 2h-31.428a4.29 4.29 0 0 0 -4.286 4.286v31.429a4.29 4.29 0 0 0 4.286 4.285h31.428a4.29 4.29 0 0 0 4.286-4.285v-31.43a4.291 4.291 0 0 0 -4.286-4.285zm-29.778 5.935a.999.999 0 0 1 1.414 0l12.65 12.65 12.65-12.65a.999.999 0 1 1 1.414 1.414l-12.65 12.651 12.65 12.651a.999.999 0 1 1 -1.414 1.414l-12.65-12.651-12.65 12.65a1 1 0 0 1 -1.414-1.414l12.65-12.65-12.65-12.65a.999.999 0 0 1 0-1.415z" fill="var(--db-icon-color, #55b9e6)" fill-rule="evenodd"/></svg>
