<svg id="icon" height="20" viewBox="0 0 20 20" width="20" xmlns="http://www.w3.org/2000/svg"><path d="m10.04 1.716c.61-.02 1.199.284 1.584.751l.59.731.954-.223c.162-.041.324-.061.487-.061 1.096 0 2.03.853 2.07 1.949l.062.934.893.365c.792.346 1.32 1.097 1.32 1.95 0 .386-.122.771-.345 1.116l-.508.772.508.833c.203.345.325.73.325 1.137 0 .832-.528 1.604-1.32 1.908l-.873.325-.081.975c-.082 1.015-.914 1.929-2.072 1.929-.182 0-.365-.02-.527-.061l-.894-.244-.65.731c-.426.528-.893.73-1.604.751-.609.02-1.198-.284-1.583-.751l-.59-.731-.954.223a1.975 1.975 0 0 1 -.487.061c-1.096 0-2.03-.853-2.07-1.949l-.062-.934-.893-.365c-.812-.346-1.32-1.078-1.32-1.93 0-.406.122-.791.345-1.136l.508-.772-.508-.853a2.112 2.112 0 0 1 -.325-1.117c0-.832.528-1.604 1.32-1.908l.873-.325.102-.975c.04-1.096.974-1.929 2.05-1.929.183 0 .366.02.528.061l.894.244.63-.751c.446-.488.913-.71 1.624-.731zm1.953 4.863-5.393 5.433 1.4 1.401 5.415-5.413-1.422-1.42zm.403 4.822a.996.996 0 0 0 -.995.995 1 1 0 0 0 .995 1.015c.569 0 1.015-.446 1.015-1.015a1 1 0 0 0 -1.015-.995zm-4.792-4.812c-.569 0-1.015.446-1.015 1.015a1 1 0 0 0 1.015.995.996.996 0 0 0 .995-.995 1 1 0 0 0 -.995-1.015z" fill="#282D37" style="fill: currentColor;fill: var(--db-icon-color, currentColor)" fill-rule="evenodd"/></svg>