<svg id="icon" height="20" viewBox="0 0 20 20" width="20" xmlns="http://www.w3.org/2000/svg"><path d="m9.662 4.092c.155 0 .282.164.282.318a.686.686 0 0 1 -.174.469l-1.188 1.527h1.096a.297.297 0 1 1 0 .594h-1.781c-.164 0-.297-.156-.297-.337 0-.192.045-.299.13-.416l1.245-1.561h-.963a.297.297 0 0 1 0-.594zm3.797-1.092c.205 0 .371.205.371.392a1 1 0 0 1 -.218.624l-1.496 1.877h1.343a.371.371 0 0 1 0 .742h-2.081c-.205 0-.371-.234-.371-.398 0-.246.077-.44.219-.618l1.5-1.877h-1.356a.371.371 0 0 1 0-.742h2.088zm4.15-1c.23 0 .416.239.416.457 0 .264-.086.52-.244.726l-1.679 2.186h1.507c.23 0 .416.194.416.432a.424.424 0 0 1 -.416.432h-2.335c-.23 0-.416-.272-.416-.464 0-.286.086-.512.245-.719l1.683-2.186h-1.52a.424.424 0 0 1 -.416-.432c0-.239.186-.432.416-.432zm-14.609 6.482c.513 0 1 .402 1 1 .002.44.002.879 0 1.318a2.2 2.2 0 0 0 2.2 2.2c3.6.002 7.2.002 10.8 0a1 1 0 0 1 .178 1.984l.308 1.852a1 1 0 0 1 -.822 1.15 1.008 1.008 0 0 1 -1.15-.822 315.14 315.14 0 0 1 -.362-2.165l-8.952.001a4.19 4.19 0 0 1 -1.51-.28l-.728 2.555a1 1 0 0 1 -1.237.687c-.493-.141-.846-.687-.687-1.237.307-1.082.616-2.164.927-3.246-.561-.677-.965-1.772-.965-2.679v-1.318a1 1 0 0 1 1-1zm3.497.518a1.5 1.5 0 1 1 0 3 1.5 1.5 0 0 1 0-3zm4.516.139c2.046.287 4.089.577 6.128.871a1 1 0 0 1 .849 1.131 1.015 1.015 0 0 1 -1.131.849c-2.94-.417-3.047-.478-5.872-.839-.124.538-.455.82-.995.849a1 1 0 0 1 -.992-1.008c.008-1.034.9-1.959 2.013-1.853z" fill="#282D37" style="fill: currentColor;fill: var(--db-icon-color, currentColor)" fill-rule="evenodd"/></svg>
