<svg id="icon" height="20" viewBox="0 0 20 20" width="20" xmlns="http://www.w3.org/2000/svg"><path d="m16 2a2 2 0 0 1 2 2v12a2 2 0 0 1 -2 2h-12a2 2 0 0 1 -2-2v-12a2 2 0 0 1 2-2zm0 2h-12v12h12zm-6.074 3.562h-1.068v2.116h1.079c.412 0 .707-.084.885-.251.178-.168.267-.444.267-.828 0-.391-.085-.662-.257-.812-.15-.131-.443-.225-.906-.225zm.084-1.247c.922 0 1.612.182 2.07.545.457.363.685.915.685 1.655 0 .49-.183 1.058-.434 1.305-.252.246-.601.48-1.17.63.117.057.2.092.347.229.147.136.294.32.44.55l.747 1.231c.165.277.139.849-.243 1.086-.403.235-.87.125-1.065-.199l-1.063-1.773a3.315 3.315 0 0 0 -.35-.476c-.077-.082-.285-.288-.75-.288h-.366v2.002a.854.854 0 0 1 -.854.854c-.435 0-.854-.319-.854-.854v-5.747c0-.38.3-.75.75-.75a371.01 371.01 0 0 1 2.11 0z" fill="var(--db-icon-color, currentColor)" fill-rule="evenodd"/></svg>
