<svg id="icon" height="24" viewBox="0 0 24 24" width="24" xmlns="http://www.w3.org/2000/svg"><path d="m20.3871006 2.20970461c.3739348-.34242205.9595222-.27729535 1.3200062.08318861.3604839.36048396.4130602.96658819.0831886 1.32000622l-9.3762954 9.38654036 7.8007233.0005602c.6245163 0 1.0707969.0946062 1.4895098.3185363.418713.2239301.7533005.5585176.9772306.9772306.1979148.3700685.3185363.7056729.3185363 1.704953s-.092348 1.2805778-.3185363 1.7035132c-.2239301.418713-.5585176.7533005-.9772306.9772306-.3700685.1979148-.7536246.293358-1.2631175.3141264l-14.0271156.0038497-2.80110056 2.7908556c-.36633652.2772953-.95952226.2772953-1.32000622-.0831886-.36048396-.360484-.4023772-1.0008325-.08318861-1.3200062zm-13.3011006 10.78973519-2.002 2.002c-.15580153-.0034304-.29706868-.0033849-.42380143.0001364-.19009913.0052821-.33633324.0046396-.48098656.1326248-.14465332.1279853-.17129733.2978786-.17763578.5259976-.00422563.1520793-.00441771.293493-.00057623.4242412l-1.659 1.659-.02346367-.0392067c-.1979148-.3700685-.31853633-.7042331-.31853633-1.7035132s.09234799-1.2820176.31853633-1.704953c.22393012-.418713.55851762-.7533005.97723053-.9772306.3700685-.1979148.83810538-.3185363 1.48950982-.3185363.43426962 0 1.20117739-.0001867 2.30072332-.0005602zm3.326 2.002-1.998 1.998 11.8007233.0005602c.1723773 0 .4270892.0492516.6245163-.1402244.197427-.189476.1607604-.5185343.1607604-.8590557 0-.3405213.0398254-.6533536-.13709-.8427151-.1769154-.1893616-.4758094-.1516389-.6481867-.1564286zm-7.44650313-12.81640624c.43047373-.3459925 1.05992398-.27750692 1.40591648.15296681 1.12867379 1.40426287 1.17731343 2.99857727.17623913 4.54546507l-.23378387.35007142c-.38059288.62494652-.37929245 1.2151099-.1346566 1.79355509.04446756.10514421.13805703.26668108.28076842.48461064.2608036.42298233.17188285.98388611-.22547752 1.30326381-.43047374.3459925-1.05992399.277507-1.40591649-.1529668-.14689598-.1827636-.3288907-.4715873-.49141283-.85587334-.48851042-1.1550903-.47494978-2.43917777.3080949-3.67686669l.24271791-.36188474c.5251836-.82138763.49050768-1.47226892-.07545634-2.17642478-.3459925-.43047374-.27750692-1.05992399.15296681-1.40591649z" fill="var(--db-icon-color, currentColor)" fill-rule="evenodd"/></svg>
