<svg id="icon" height="24" viewBox="0 0 24 24" width="24" xmlns="http://www.w3.org/2000/svg"><path d="m7.512 15.863a3.964 3.964 0 0 1 0-5.597.999.999 0 1 1 1.414 1.414 1.961 1.961 0 0 0 0 2.769 1.963 1.963 0 0 0 2.769 0 1 1 0 1 1 1.415 1.414 3.952 3.952 0 0 1 -2.798 1.157 3.944 3.944 0 0 1 -2.798-1.157zm3.512-9.306a1.558 1.558 0 1 0 0-3.116 1.558 1.558 0 0 0 0 3.116zm5.624 10.465a1 1 0 0 0 .928-1.373l-1.7-4.226a1 1 0 0 0 -.928-.627h-2.215l-.775-2.659a1 1 0 0 0 -1.92.558l.985 3.38a1 1 0 0 0 .96.721h2.29l1.448 3.599a.999.999 0 0 0 .928.627zm-3.954 1.977h-9.694a1 1 0 1 0 0 2h9.694a1 1 0 1 0 0-2zm8.305 0h-4.305a1 1 0 1 0 0 2h4.305a1 1 0 1 0 0-2z" fill="var(--db-icon-color, currentColor)" fill-rule="evenodd"/></svg>
