<svg id="icon" height="32" viewBox="0 0 32 32" width="32" xmlns="http://www.w3.org/2000/svg"><path d="m2 21.031v-16.031c0-1.594 1.313-3 2.906-3h16.124c1.625 0 2.97 1.406 2.97 3v8.036c0 .532-.47.969-1.032.969a.974.974 0 0 1 -.97-.969v-8.036c0-.531-.437-1-.968-1h-16.124c-.531 0-.906.469-.906 1v16.031c0 .531.469.969 1 .969h8.033c.53 0 .968.467.968.999a.98.98 0 0 1 -.968 1l-8.033.001c-1.594 0-3-1.344-3-2.969zm11-15.031c3.853 0 7 3.115 7 7 0 3.853-3.147 7-7 7-3.885 0-7-3.147-7-7 0-3.885 3.115-7 7-7zm0 2c-2.756 0-5 2.243-5 5 0 2.756 2.244 5 5 5s5-2.244 5-5c0-2.757-2.244-5-5-5zm-2.016 4c.572 0 1.016.42 1.016 1 0 .548-.444 1-1.016 1a.997.997 0 0 1 -.984-1c0-.58.444-1 .984-1zm4.016 0c.548 0 1 .42 1 1 0 .548-.452 1-1 1s-1-.452-1-1c0-.58.452-1 1-1zm6.969 4.875c.218 0 .437.063.593.219l1.782 1.781.687-.688c.219-.218.469-.312.688-.312.218 0 .437.063.593.219l1.97 1.937a4.95 4.95 0 0 1 1.53 3.563c0 1.187-.437 2.406-1.343 3.5l1.25 1.25a.97.97 0 0 1 .281.687c0 .532-.438.969-.938.969-.218 0-.468-.094-.718-.281l-1.25-1.25a4.855 4.855 0 0 1 -3.375 1.343c-1.25 0-2.5-.437-3.5-1.375l-2.032-2.03a.97.97 0 0 1 -.28-.688c0-.219.062-.407.187-.594l.75-.75-1.688-1.688a1.087 1.087 0 0 1 -.281-.687c0-.563.438-.969.969-.969a.96.96 0 0 1 .593.188l1.783 1.781 2.75-2.75-1.688-1.719a.97.97 0 0 1 -.281-.687c0-.5.469-.969.969-.969zm3.781 3.344-5.5 5.5 1.156 1.187c.625.594 1.469.969 2.344.969.688 0 1.375-.219 1.938-.719l1.343-1.343a3.185 3.185 0 0 0 .844-2.157c0-.781-.281-1.531-.844-2.125l-1.281-1.311z" fill="var(--db-icon-color, currentColor)" fill-rule="evenodd"/></svg>
