<svg id="icon" height="24" viewBox="0 0 24 24" width="24" xmlns="http://www.w3.org/2000/svg"><path d="m11.996 5a3.004 3.004 0 0 1 3.004 3.004c0 1.204-.656 2.018-1.823 2.697-.173.1-.182.22-.182.621l7.377 2.847a2.5 2.5 0 0 1 -.721 4.824l-15.121.007a2.5 2.5 0 0 1 -1.07-4.76l7.534-2.915.004-.366a2.39 2.39 0 0 1 .268-1.037 2.3 2.3 0 0 1 .888-.94c.635-.378.845-.636.845-.978a.999.999 0 0 0 -1.003-1.004c-.341 0-.886.232-1.03.765a1 1 0 0 1 -1.931-.523c.351-1.298 1.594-2.242 2.96-2.242zm-.603 8.308-7.043 2.726a.5.5 0 0 0 .09.958l15.03.008a.5.5 0 0 0 .261-.926l-7.124-2.766c-.265-.108-.467-.162-.607-.162s-.342.054-.607.162z" fill="var(--db-icon-color, currentColor)" fill-rule="evenodd"/></svg>
