<svg id="icon" height="64" viewBox="0 0 64 64" width="64" xmlns="http://www.w3.org/2000/svg"><g fill="none" fill-rule="evenodd" transform="translate(8 15)"><path d="m40 0a5 5 0 0 1 4.995 4.783l.005.217v18a5 5 0 0 1 -4.783 4.995l-.217.005h-32a5 5 0 0 1 -4.995-4.783l-.005-.217v-18a5 5 0 0 1 4.783-4.995l.217-.005zm0 2h-32a3 3 0 0 0 -2.995 2.824l-.005.176v18a3 3 0 0 0 2.824 2.995l.176.005h32a3 3 0 0 0 2.995-2.824l.005-.176v-18a3 3 0 0 0 -2.824-2.995zm-16 1.875a1.125 1.125 0 1 1 0 2.25 1.125 1.125 0 0 1 0-2.25z" fill="#282D37" style="fill: currentColor;fill: var(--db-icon-color, currentColor)" fill-rule="nonzero"/><path d="m47 30a1 1 0 0 1 .117 1.993l-.117.007h-46a1 1 0 0 1 -.117-1.993l.117-.007z" fill="#EC0016" style="fill:#EC0016;fill: var(--db-icon-pulse-color, #EC0016)"/></g></svg>
