<svg id="icon" height="32" viewBox="0 0 32 32" width="32" xmlns="http://www.w3.org/2000/svg"><path d="m20.99 7.15a.85.85 0 0 1 .784.498l2.001 6.55c3.52-.43 6.075 2.347 6.075 5.302a5.35 5.35 0 1 1 -7.702-4.807l-.622-2.045-5.86 7.38a.84.84 0 0 1 -.666.322h-2.217a5.351 5.351 0 0 1 -10.633-.85 5.35 5.35 0 0 1 10.633-.85l1.193-.001-1.682-4.809c-1.75-.725-3.222-1.016-4.85-1.001l-.408.01c-2.325.1-3.757-.856-3.884-2.793a.85.85 0 1 1 1.696-.112c.056.851.67 1.235 2.013 1.213a13.108 13.108 0 0 1 4.707.61l-.672-1.917h-.896a.85.85 0 1 1 0-1.7h3a.85.85 0 0 1 0 1.7h-.302l2.716 7.76 5.51-6.938-.552-1.815-2.362.028c-.433.006-.86-.36-.86-.812 0-.454.3-.864.84-.887zm-13.49 8.7a3.65 3.65 0 1 0 3.55 4.5h-3.55a.85.85 0 0 1 0-1.701h3.55a3.651 3.651 0 0 0 -3.55-2.799zm16.801 0 1.012 3.403a.85.85 0 0 1 -.566 1.06c-.414.126-.928-.094-1.06-.566l-1.034-3.396a3.65 3.65 0 1 0 5.497 3.149 3.652 3.652 0 0 0 -3.849-3.65z" fill="#282D37" style="fill: currentColor;fill: var(--db-icon-color, currentColor)" fill-rule="evenodd"/></svg>