<svg id="icon" height="24" viewBox="0 0 24 24" width="24" xmlns="http://www.w3.org/2000/svg"><path d="m12 18c.5522847 0 1 .4477153 1 1v2c0 .5522847-.4477153 1-1 1s-1-.4477153-1-1v-2c0-.5522847.4477153-1 1-1zm5.6568542-1.7573593 1.4142136 1.4142135c.3905243.3905243.3905243 1.0236893 0 1.4142136s-1.0236893.3905243-1.4142136 0l-1.4142135-1.4142136c-.3905243-.3905242-.3905243-1.0236892 0-1.4142135s1.0236893-.3905243 1.4142135 0zm-9.89949489 0c.39052429.3905243.39052429 1.0236893 0 1.4142135l-1.41421356 1.4142136c-.39052429.3905243-1.02368927.3905243-1.41421356 0s-.39052429-1.0236893 0-1.4142136l1.41421356-1.4142135c.39052429-.3905243 1.02368927-.3905243 1.41421356 0zm4.24264069-8.2426407c2.209139 0 4 1.790861 4 4s-1.790861 4-4 4-4-1.790861-4-4 1.790861-4 4-4zm0 2c-1.1045695 0-2 .8954305-2 2s.8954305 2 2 2 2-.8954305 2-2-.8954305-2-2-2zm9 1c.5522847 0 1 .4477153 1 1s-.4477153 1-1 1h-2c-.5522847 0-1-.4477153-1-1s.4477153-1 1-1zm-16 0c.55228475 0 1 .4477153 1 1s-.44771525 1-1 1h-2c-.55228475 0-1-.4477153-1-1s.44771525-1 1-1zm1.34314575-6.07106781 1.41421356 1.41421356c.39052429.39052429.39052429 1.02368927 0 1.41421356s-1.02368927.39052429-1.41421356 0l-1.41421356-1.41421356c-.39052429-.39052429-.39052429-1.02368927 0-1.41421356s1.02368927-.39052429 1.41421356 0zm12.72792205 0c.3905243.39052429.3905243 1.02368927 0 1.41421356l-1.4142136 1.41421356c-.3905242.39052429-1.0236892.39052429-1.4142135 0s-.3905243-1.02368927 0-1.41421356l1.4142135-1.41421356c.3905243-.39052429 1.0236893-.39052429 1.4142136 0zm-7.0710678-2.92893219c.5522847 0 1 .44771525 1 1v2c0 .55228475-.4477153 1-1 1s-1-.44771525-1-1v-2c0-.55228475.4477153-1 1-1z" fill="var(--db-icon-color, currentColor)" fill-rule="evenodd"/></svg>
