<svg id="icon" height="32" viewBox="0 0 32 32" width="32" xmlns="http://www.w3.org/2000/svg"><path d="m15.9827874 4.44974988c.2288967-.50261789.0070019-1.09562764-.495616-1.32452434-.153588-.06994537-.3223799-.09988227-.4906543-.08702236-6.74762695.51566936-11.9965171 6.15591188-11.9965171 12.96179682 0 7.1797017 5.82029825 13 13 13 5.1466617 0 9.7443042-3.0186319 11.8375646-7.6213067.2286399-.5027348.006442-1.095631-.4962928-1.3242709-.1534662-.0697952-.3220874-.0996574-.4901892-.0868107-.2820298.0215534-.5658513.0323883-.8510826.0323883-6.0751322 0-11-4.9248678-11-11 0-1.59213535.3378354-3.13404613.9827874-4.55025012zm-2.4407874.82525012c-.0396635.13174925-.6224021 1.98626122-.5384496 4.03185621.1559334 6.73195409 5.4563233 12.25915289 12.2314496 12.66914379-2.150302 3.2129038-5.5018067 5.024-9.235 5.024-6.07513225 0-11-4.9248678-11-11 0-5.1728861 3.31520123-9.22853392 8.542-10.725z" fill="var(--db-icon-color, currentColor)" fill-rule="evenodd"/></svg>
