<svg id="icon" height="20" viewBox="0 0 20 20" width="20" xmlns="http://www.w3.org/2000/svg"><path d="m17.90395 14.2366533c.1196874.4986737-.1722384 1.0694351-.7390013 1.2057683-4.2662292 1.0262285-8.53584004 2.0509841-12.80883241 3.0742668-.53703328.1288942-1.07687412-.201968-1.20576828-.7390012-.11968742-.4986738.15315355-1.0454216.73900126-1.2057683 4.26622963-1.0262286 8.53584043-2.0509842 12.80883243-3.0742669.5370333-.1288941 1.0768741.201968 1.2057683.7390013zm-11.87908952-5.57065032c.37457493.34581931.4443849.99895534.05640554 1.41308822-.29414289.313971-.43612291.7391613-.39030887 1.1750528.08659421.8238889.82468662 1.4215844 1.64857554 1.3349902.37535622-.0394516.71467977-.1932721 1.05659452-.6098791.32494051-.4465782.95038002-.5451851 1.39695824-.2202445.44657825.3249405.54518505.95038.22024455 1.3969582-.57885602.7955441-1.46656373 1.3172965-2.46474039 1.4222091-1.92240746.2020532-3.64462308-1.1925695-3.84667625-3.114977-.10661284-1.0143534.23163173-2.00616921.90985886-2.74079238.37463759-.40578951 1.00729875-.43104313 1.41308826-.05640554zm2.37739528-2.59859299 1.34524142 2.20622386 2.13969792-.45480683c.7641289-.16242061 1.3032385.10513902 1.7186457.72092745l1.8801387 2.69493033c.0630046.0934425.1195989.2620606.1391011.3538108.1169503.5502081-.2200279 1.069109-.7397177 1.1795725-.4584578.0974482-.8619548-.135245-1.0904709-.4710724l-1.7364105-2.46989555-2.68990587.57175715c-.45855559.097469-.89806605-.0915829-1.13408137-.52569901l-1.65396184-2.90735876c-.03339522-.06139844-.06959946-.17689504-.08259394-.23802926-.12345796-.58082405.28116211-1.08210345.77023591-1.18605929.45855559-.097469.91040757.12944429 1.13408137.52569901zm-2.43503436-4.05554245c.79474493-.16892825 1.61016069.36060894 1.77908894 1.15535386.17543588.82536095-.36060894 1.61016069-1.15535387 1.77908894-.82526313.17541509-1.60365305-.32999292-1.77908893-1.15535387-.16892825-.79474492.33009073-1.60367384 1.15535386-1.77908893z" fill="var(--db-icon-color, currentColor)" fill-rule="evenodd"/></svg>
