<svg id="icon" height="20" viewBox="0 0 20 20" width="20" xmlns="http://www.w3.org/2000/svg"><path d="m8.58 2.002h2.84c1.197.017 1.845.157 2.517.517.663.355 1.19.881 1.544 1.544.36.672.5 1.32.517 2.518l.002 6.573c0 1.37-.134 2.063-.519 2.783a3.726 3.726 0 0 1 -1.544 1.544c-.672.36-1.32.5-2.518.517l-2.573.002c-1.37 0-2.063-.134-2.783-.519a3.726 3.726 0 0 1 -1.544-1.544c-.36-.672-.5-1.32-.517-2.518v-6.838c.017-1.198.157-1.846.517-2.518a3.726 3.726 0 0 1 1.544-1.543c.672-.36 1.32-.5 2.518-.517zm-1.33 12.498a1 1 0 0 0 -.117 1.993l.867.007a1 1 0 0 0 .117-1.993zm4.75 0a1 1 0 0 0 -.117 1.993l.867.007a1 1 0 0 0 .117-1.993zm.913-10.5-5.91.003a1 1 0 0 0 -.916.963l.564 6.845c.035.423.089.573.18.724.092.15.218.267.376.345.138.07.273.11.59.118l4.26.002c.424 0 .579-.041.736-.12a.906.906 0 0 0 .376-.345c.08-.132.13-.264.166-.578.385-4.62.578-6.939.578-6.957a1 1 0 0 0 -1-1z" fill="#282D37" style="fill: currentColor;fill: var(--db-icon-color, currentColor)" fill-rule="evenodd"/></svg>