<svg id="icon" height="32" viewBox="0 0 32 32" width="32" xmlns="http://www.w3.org/2000/svg"><path d="m24.365 2 4.348.011c.726.091 1.288.71 1.288 1.461l-.013 4.357a1.469 1.469 0 0 1 -.418.847l-1.17 1.157a1.472 1.472 0 0 1 -.623.287l-1.639.327-.377 1.825a1.47 1.47 0 0 1 -1.102.967l-1.644.33-.373 1.81c-.072.22-.195.42-.359.584l-2.917 2.92a8.833 8.833 0 1 1 -6.247-6.248l10.351-10.332a1.47 1.47 0 0 1 .895-.303zm.236 2-10.885 10.865-1.114-.298a6.82 6.82 0 0 0 -1.769-.233 6.789 6.789 0 0 0 -4.832 2.002 6.84 6.84 0 0 0 0 9.663 6.789 6.789 0 0 0 4.832 2.002c1.824 0 3.54-.71 4.831-2.002a6.853 6.853 0 0 0 1.77-6.599l-.298-1.115 3.61-3.613.577-2.807 2.587-.515.537-2.605 2.765-.55.777-.769.011-3.416zm-12.207 15.607a2.209 2.209 0 1 1 -3.124 3.123 2.209 2.209 0 0 1 3.125-3.123z" fill="#282D37" style="fill: currentColor;fill: var(--db-icon-color, currentColor)" fill-rule="evenodd"/></svg>
