<svg id="icon" height="32" viewBox="0 0 32 32" width="32" xmlns="http://www.w3.org/2000/svg"><path d="m28.92 12.608a13.825 13.825 0 0 1 1.08 5.392c0 3.662-1.413 7.104-3.898 9.693a1 1 0 1 1 -1.443-1.385 11.954 11.954 0 0 0 3.341-8.308c0-1.61-.318-3.196-.92-4.608a1 1 0 1 1 1.84-.784zm-12.92-8.608c1.875 0 3.7.37 5.395 1.077a1 1 0 1 1 -.772 1.846 11.96 11.96 0 0 0 -4.623-.923c-6.627 0-12 5.373-12 12 0 3.14 1.21 6.088 3.341 8.308a1 1 0 0 1 -1.443 1.385 13.954 13.954 0 0 1 -3.898-9.693c0-7.732 6.268-14 14-14zm7.073 19.657a1 1 0 1 1 -1.414 1.414 1 1 0 0 1 1.414-1.414zm-12.728 0a1 1 0 1 1 -1.414 1.414 1 1 0 0 1 1.414-1.414zm14.61-4.294a1 1 0 1 1 -.518 1.932 1 1 0 0 1 .517-1.932zm-16.68.708a1 1 0 1 1 -1.932.517 1 1 0 0 1 1.932-.517zm16.432-10.778a.999.999 0 0 1 0 1.414l-6.772 6.777a2 2 0 1 1 -1.417-1.418l6.775-6.773a1 1 0 0 1 1.414 0zm.954 6.119a1 1 0 1 1 -1.931.517 1 1 0 0 1 1.931-.517zm-18.093-.707a1 1 0 1 1 -.518 1.932 1 1 0 0 1 .518-1.932zm2.777-3.776a1 1 0 1 1 -1.414 1.414 1 1 0 0 1 1.414-1.414zm8.245-2.589a1 1 0 1 1 -.517 1.932 1 1 0 0 1 .517-1.932zm-3.951.707a1 1 0 1 1 -1.932.517 1 1 0 0 1 1.932-.517z" fill="#282D37" style="fill: currentColor;fill: var(--db-icon-color, currentColor)" fill-rule="evenodd"/></svg>
