<svg id="icon" height="24" viewBox="0 0 24 24" width="24" xmlns="http://www.w3.org/2000/svg"><path d="m17.973 2 3.106.008c.518.065.92.507.92 1.043l-.01 3.113c-.03.227-.134.44-.298.605l-.837.826a1.051 1.051 0 0 1 -.444.205l-1.17.233-.269 1.304a1.05 1.05 0 0 1 -.788.69l-1.174.235-.267 1.294c-.05.157-.138.3-.256.417l-2.083 2.086a6.308 6.308 0 1 1 -4.462-4.463l7.393-7.379a1.05 1.05 0 0 1 .64-.217zm.404 2.001-7.839 7.825-1.114-.298a4.332 4.332 0 0 0 -1.115-.147 4.277 4.277 0 0 0 -3.047 1.263 4.28 4.28 0 0 0 -1.262 3.047 4.28 4.28 0 0 0 1.262 3.046 4.281 4.281 0 0 0 3.046 1.261 4.284 4.284 0 0 0 3.047-1.261 4.326 4.326 0 0 0 1.116-4.162l-.298-1.114 2.69-2.693.455-2.208 1.847-.368.384-1.861 2.178-.434.264-.26.004-1.632zm-8.953 10.574a1.576 1.576 0 1 1 -2.23 2.23 1.576 1.576 0 0 1 2.23-2.23z" fill="#282D37" style="fill: currentColor;fill: var(--db-icon-color, currentColor)" fill-rule="evenodd"/></svg>
