<svg id="icon" height="64" viewBox="0 0 64 64" width="64" xmlns="http://www.w3.org/2000/svg"><g fill="none" fill-rule="evenodd" transform="translate(4 4)"><path d="m45.683 12a1 1 0 0 1 1 1v4.021h5v-4.007a1 1 0 1 1 2 0v4.007l1.599.001c.751 0 1.362.611 1.362 1.363v6.308c.006.068.147 3.015-1.891 5.172-1.291 1.367-3.125 2.09-5.454 2.153l-.335.004c-6.076 0-7.682-4.794-7.682-7.329v-6.308c0-.752.611-1.363 1.363-1.363h2.038v-4.023a1 1 0 0 1 1-1zm8.962 7.021h-11.362l-.001 5.672c.004.542.2 5.33 5.682 5.33 1.918 0 3.377-.516 4.337-1.532 1.334-1.412 1.351-3.429 1.347-3.71l-.001-.032zm-40.034.237c-2.429 0-4.157-.416-4.294-.449a1 1 0 0 1 .48-1.94c.058.013 5.924 1.405 11.014-1.23 4.148-2.149 8.547-9.124 10.137-11.823-5.261-1.263-13.899-2.69-17.707-1.12-5.228 2.157-7.418 6.978-7.305 9.712.01.53.051 1.13.286 1.737a1 1 0 0 1 -1.865.721c-.35-.904-.408-1.756-.42-2.398-.16-3.847 2.778-9.244 8.54-11.62 5.517-2.279 17.696.69 20.082 1.308a1.13 1.13 0 0 1 .701 1.651c-.995 1.79-6.234 10.864-11.529 13.607-2.824 1.463-5.793 1.844-8.119 1.844zm22.519 25.753h-5.816l-.296-.74c-.144-.44.013-.92.387-1.194.117-.086.26-.185.419-.296.714-.498 1.793-1.25 2.683-2.359.512-.636 1.305-1.855.881-2.867-.148-.354-.563-.768-1.245-.768-.932 0-1.561.363-1.566.367a1.004 1.004 0 0 1 -1.368-.343.994.994 0 0 1 .326-1.364c.108-.067 1.11-.66 2.608-.66 1.369 0 2.582.783 3.09 1.996.61 1.458.196 3.194-1.166 4.891a11.31 11.31 0 0 1 -1.271 1.337h2.336a1 1 0 1 1 0 2zm-20.165-1a1 1 0 1 1 -2 0v-18.148a1 1 0 1 1 2 0v8.073h9v-8.073a1 1 0 1 1 2 0v18.148a1 1 0 1 1 -2 0v-8.075h-9z" fill="#282D37" style="fill: currentColor;fill: var(--db-icon-color, currentColor)" fill-rule="nonzero"/><path d="m25.969 56.024c-14.319 0-25.969-11.649-25.969-25.968 0-10.658 6.68-20.396 16.62-24.235a1 1 0 0 1 .721 1.866c-9.176 3.543-15.341 12.531-15.341 22.37 0 13.215 10.752 23.967 23.969 23.967 10.108 0 20.942-6.73 21.576-17.994a1 1 0 0 1 1.996.113c-.699 12.445-12.534 19.881-23.572 19.881z" fill="#EC0016" style="fill:#EC0016;fill: var(--db-icon-pulse-color, #EC0016)"/></g></svg>
