<svg id="icon" height="20" viewBox="0 0 20 20" width="20" xmlns="http://www.w3.org/2000/svg"><path d="m7.481 6.997c.464 0 .881.324.988.786l.744 3.217h3.325c.463 0 .885.35.987.793l1.129 4.897c.027.12.04.222.04.323 0 .604-.463.987-.987.987a.999.999 0 0 1 -.967-.786l-.987-4.214h-3.325a.977.977 0 0 1 -.967-.743l-.927-3.93a1.515 1.515 0 0 1 -.04-.322c0-.564.463-1.008.987-1.008zm-4.481-4.997c.544 0 .995.456.995 1v2.587l2.156 9.128c.034.143.161.283.322.283h3.507c.544 0 1.007.463 1.007.987 0 .544-.483 1.015-1.007 1.015h-3.567a2.256 2.256 0 0 1 -2.196-1.73l-2.177-9.26a1.371 1.371 0 0 1 -.04-.302v-2.708c0-.544.436-1 1-1zm4.5 3c.81 0 1.5-.669 1.5-1.5s-.69-1.5-1.5-1.5-1.5.669-1.5 1.5.69 1.5 1.5 1.5zm3.5 1.992v-2.984c0-1.111.897-2.008 2.008-2.008h3.978c.566 0 1.014.448 1.014 1.014 0 .546-.448.994-1.014.994h-3.978v2.984h3.978c.566 0 1.014.448 1.014 1.014 0 .546-.448.994-1.014.994h-3.978a2.005 2.005 0 0 1 -2.008-2.008z" fill="var(--db-icon-color, currentColor)" fill-rule="evenodd"/></svg>
