<svg id="icon" height="20" viewBox="0 0 20 20" width="20" xmlns="http://www.w3.org/2000/svg"><path d="m7.865 2.5.961 1.656a4.944 4.944 0 0 1 1.174-.154c.396 0 .776.058 1.145.145l.998-1.66a1.001 1.001 0 0 1 1.714 1.03l-.891 1.483a4.99 4.99 0 0 1 1.933 3.002h2.101a1 1 0 1 1 0 2h-2v1h2a1 1 0 1 1 0 2h-2c0 .342-.035.677-.101 1h2.101a1 1 0 1 1 0 2h-3.026c-.913 1.207-2.345 2-3.974 2s-3.065-.794-3.978-2.004l-.022.004h-3a1 1 0 1 1 0-2h2.101a4.995 4.995 0 0 1 -.101-1h-2a1 1 0 1 1 0-2h2v-1h-2a1 1 0 1 1 0-2h2.101a4.993 4.993 0 0 1 1.912-2.985l-.878-1.513a1 1 0 0 1 1.73-1.004zm5.135 7.502h-6v3c0 1.654 1.346 3 3 3s3-1.346 3-3zm-2 2a1 1 0 1 1 0 2h-2a1 1 0 1 1 0-2zm-1-6a2.996 2.996 0 0 0 -2.816 2h5.632a2.996 2.996 0 0 0 -2.816-2z" fill="#282D37" style="fill: currentColor;fill: var(--db-icon-color, currentColor)" fill-rule="evenodd"/></svg>
