<svg id="icon" height="64" viewBox="0 0 64 64" width="64" xmlns="http://www.w3.org/2000/svg"><g fill="none" fill-rule="evenodd" transform="translate(8 5.998)"><path d="m23.993 45.002c.559 0 1 .43 1 1a762.53 762.53 0 0 1 0 3.382l1.447.724a1 1 0 1 1 -.894 1.789c-.518-.257-1.036-.516-1.552-.777l-1.554.777a1 1 0 0 1 -1.341-.447 1.027 1.027 0 0 1 .447-1.342l1.448-.724v-3.382c0-.512.44-1 1-1zm-9.493-2.545c.444.256.637.843.366 1.366-.228.4-.458.799-.69 1.197l.89 1.35a1 1 0 0 1 -.283 1.385c-.428.283-1.027.216-1.385-.283l-.956-1.449-1.734-.104a1 1 0 0 1 -.938-1.058c.03-.512.493-.938 1.058-.938.538.03 1.077.062 1.616.097l.69-1.197c.257-.444.922-.623 1.366-.366zm20.366.366.692 1.196 1.614-.096a1 1 0 0 1 1.058.938c.031.512-.326.998-.938 1.058-.577.037-1.155.071-1.732.104l-.957 1.449a1 1 0 0 1 -1.386.283c-.428-.282-.566-.896-.283-1.385l.892-1.35-.692-1.197c-.256-.444-.078-1.11.366-1.366.444-.257 1.049-.13 1.366.366zm-10.866-34.82c9.941 0 18 8.058 18 18 0 9.94-8.059 18-18 18-9.94 0-18-8.06-18-18 0-9.942 8.06-18 18-18zm0 2c-8.836 0-16 7.163-16 16 0 8.836 7.164 16 16 16 8.837 0 16-7.164 16-16 0-8.837-7.163-16-16-16zm17.815 25.136 2.93 1.69 1.35-.89a1 1 0 0 1 1.101 1.669c-.48.32-.964.639-1.448.956l-.104 1.733a1 1 0 0 1 -1.058.939 1.027 1.027 0 0 1 -.939-1.058c.03-.54.063-1.078.098-1.616l-2.93-1.69c-.444-.257-.645-.883-.366-1.367a.985.985 0 0 1 1.366-.366zm-34.275.361a.985.985 0 0 1 -.366 1.366 882.31 882.31 0 0 1 -2.928 1.692l.096 1.614a1 1 0 0 1 -1.996.12c-.037-.577-.071-1.154-.104-1.732l-1.449-.957a1 1 0 0 1 -.283-1.386 1.027 1.027 0 0 1 1.385-.283l1.35.892 2.93-1.692c.443-.256 1.086-.118 1.365.366zm-5.645-11.945.723 1.448h1.382c.513 0 1 .487 1 1 0 .512-.412.972-1 1-.46.002-.921.002-1.382 0l-.723 1.447a1 1 0 0 1 -1.342.447c-.459-.23-.7-.782-.447-1.342l.776-1.552-.776-1.553a1 1 0 0 1 .447-1.342c.459-.23 1.06-.042 1.342.447zm45.552-.447c.46.23.701.782.448 1.342l-.777 1.552.777 1.553a1 1 0 0 1 -.448 1.342c-.458.23-1.059.042-1.341-.447l-.724-1.448h-1.382c-.513 0-1-.487-1-1 0-.512.412-.973 1-1h1.382l.724-1.447a1 1 0 0 1 1.341-.447zm-44.04-12.339c.513.03.963.498.939 1.058-.03.539-.063 1.078-.097 1.616l2.929 1.69c.444.257.645.882.366 1.366a.985.985 0 0 1 -1.366.366 882.31 882.31 0 0 1 -2.93-1.69l-1.35.89a1 1 0 1 1 -1.101-1.668c.481-.32.964-.64 1.448-.956l.105-1.734a1 1 0 0 1 1.058-.938zm42.24.945c.037.577.071 1.154.104 1.732l1.45.957a1 1 0 0 1 .283 1.386 1.027 1.027 0 0 1 -1.386.283c-.451-.296-.902-.593-1.35-.892l-2.93 1.692c-.443.256-1.086.117-1.365-.367a.985.985 0 0 1 .366-1.366l2.929-1.691-.097-1.615a1 1 0 0 1 1.996-.12zm-30.864-7.465c.428.283.566.897.284 1.386-.296.45-.593.901-.892 1.35l.691 1.197c.257.444.078 1.11-.366 1.366s-1.048.13-1.366-.366l-.691-1.197-1.615.097a1 1 0 0 1 -1.058-.938c-.03-.512.327-.998.938-1.058l1.733-.104.957-1.45a1 1 0 0 1 1.385-.283zm19.82.284.956 1.448 1.733.105a1 1 0 0 1 .938 1.058c-.03.512-.493.938-1.058.938l-1.615-.097-.69 1.197c-.257.444-.923.622-1.367.366-.444-.257-.636-.843-.366-1.366l.69-1.197-.89-1.35a1 1 0 0 1 .283-1.386c.428-.282 1.028-.215 1.386.284zm-12.156-4.425 1.553.776 1.553-.776a1 1 0 0 1 1.342.447c.229.459.05 1.083-.448 1.342-.481.243-.964.484-1.447.723v3.382c0 .513-.441 1-1 1-.558 0-1-.43-1-1a882.305 882.305 0 0 1 0-3.382l-1.447-.723a1 1 0 1 1 .894-1.789z" fill="#282D37" style="fill: currentColor;fill: var(--db-icon-color, currentColor)" fill-rule="nonzero"/><path d="m29.377 20.002c.745 0 2.09.27 2.998.438.47.166.717.682.55 1.153a.887.887 0 0 1 -1.084.556 8.208 8.208 0 0 0 -2.401-.36c-1.784 0-3.558.476-3.558 4.3 0 3.825 1.864 4.427 4.348 4.111.361-.054.698-.07.696-.366-.004-.692.002-1.384 0-2.077a.194.194 0 0 0 -.198-.197h-.94c-.437 0-.79-.425-.79-.861 0-.408.331-.862.79-.863h2.592a.79.79 0 0 1 .791.79c.002 1.344.002 2.687 0 4.03 0 .343-.22.624-.546.752-1.015.396-2.14.594-3.375.594-1.971 0-3.439-.495-4.403-1.486-.965-.99-1.447-2.466-1.447-4.427 0-2.056.6-6.087 5.977-6.087zm-11.545.096c1.238 0 2.182.31 2.832.928.651.62.976 1.515.976 2.688 0 .863-.1 2.2-1.816 4.016-1.157 1.144-2.03 1.97-2.616 2.48h4.251c1.098 0 1.04 1.792-.192 1.792h-6.297c-.764.023-1.166-.821-.741-1.33 1.74-1.616 2.803-2.623 3.187-3.022.576-.597.99-1.214 1.36-1.832s1.799-4.899-2.736-3.672c-.26.071-.536.203-.833.356-.877.367-1.571-.835-.719-1.412.95-.66 2.064-.992 3.344-.992z" fill="#EC0016" style="fill:#EC0016;fill: var(--db-icon-pulse-color, #EC0016)"/></g></svg>
