<svg id="icon" height="24" viewBox="0 0 24 24" width="24" xmlns="http://www.w3.org/2000/svg"><path d="m10 16a2.995 2.995 0 0 1 3 3c.002.665.002 1.33 0 1.995a1 1 0 1 1 -2 0 313.09 313.09 0 0 1 0-1.995c0-.513-.373-.999-1-1a2075.01 2075.01 0 0 0 -4.99 0 .99.99 0 0 0 -1 1c-.002.665-.005 1.332-.01 2a.987.987 0 0 1 -.99.995c-.513 0-1.072-.441-1-1a331.67 331.67 0 0 1 0-1.995c0-1.598 1.344-3 3-3 1.663-.002 3.327-.002 4.99 0zm6.152-3.03a1 1 0 1 1 1.696 1.06 1 1 0 0 1 -1.696-1.06zm-4.016-.473a.999.999 0 1 1 1.728 1.006 1 1 0 1 1 -1.728-1.006zm8.36-.362a1 1 0 0 1 1.007 1.73 1 1 0 0 1 -1.006-1.73zm-12.976-5.197a3.47 3.47 0 0 1 3.48 3.48c0 1.933-1.552 3.52-3.48 3.52-1.93 0-3.52-1.59-3.52-3.52 0-1.928 1.586-3.48 3.52-3.48zm0 2c-.839 0-1.52.667-1.52 1.48 0 .826.694 1.52 1.52 1.52.813 0 1.48-.682 1.48-1.52a1.47 1.47 0 0 0 -1.48-1.48zm8.632 1.032a1 1 0 1 1 1.696 1.06 1 1 0 0 1 -1.696-1.06zm-3.017-.473a1 1 0 1 1 1.728 1.005 1 1 0 0 1 -1.728-1.005zm6.362-.361a1 1 0 1 1 1.005 1.73 1 1 0 0 1 -1.005-1.73zm-2.497-7.136c.513 0 .993.414.993 1l.008 2.53a17.61 17.61 0 0 1 3.242.5 1 1 0 0 1 -.486 1.94 15.438 15.438 0 0 0 -3.757-.47c-1.25 0-2.503.156-3.757.47a1 1 0 1 1 -.486-1.94 17.61 17.61 0 0 1 3.243-.5v-2.53a1 1 0 0 1 1-1z" fill="#282D37" style="fill: currentColor;fill: var(--db-icon-color, currentColor)" fill-rule="evenodd"/></svg>
