<svg id="icon" height="20" viewBox="0 0 20 20" width="20" xmlns="http://www.w3.org/2000/svg"><path d="m6 18h8c1.094 0 2-.906 2-2v-12c0-1.125-.906-2-2-2h-8c-1.094 0-2 .875-2 2v12c0 1.094.906 2 2 2zm0-2v-12h8v12zm1-3.016c0-.508.426-.984.984-.984.59 0 1.016.476 1.016.984a1.01 1.01 0 0 1 -1.016 1.016c-.558 0-.984-.476-.984-1.016zm3.997 0c0-.508.451-.984 1-.984.548 0 1 .476 1 .984 0 .54-.452 1.016-1 1.016-.549 0-1-.476-1-1.016z" fill="#282D37" style="fill: currentColor;fill: var(--db-icon-color, currentColor)" fill-rule="evenodd"/></svg>
