<svg id="icon" height="20" viewBox="0 0 20 20" width="20" xmlns="http://www.w3.org/2000/svg"><path d="m15.99 4c1.112 0 2.01.899 2.01 1.993v8.014a2.004 2.004 0 0 1 -2.01 1.993h-11.98a2.004 2.004 0 0 1 -2.01-1.993v-8.014c0-1.093.898-1.993 2.01-1.993zm.01 2h-12v8h12zm-10.976 7.01v-6h2.498c1.405 0 2.107.547 2.107 1.563 0 .665-.273 1.017-.975 1.27.936.196 1.307.626 1.307 1.447 0 1.133-.839 1.72-2.517 1.72zm1.659-1.446h.76c.567 0 .82-.157.82-.528 0-.41-.214-.547-.76-.547h-.82zm0-2.287h.722c.39 0 .585-.143.585-.43 0-.26-.175-.391-.566-.391h-.741v.82zm3.766.762c0-2.072 1.112-3.166 3.083-3.166.331 0 .744.054 1.463.193l-.129 1.684a5.23 5.23 0 0 0 -1.295-.196c-.956 0-1.288.371-1.288 1.466 0 1.055.351 1.426 1.307 1.426.258 0 .706-.038 1.238-.188l.219 1.574c-.564.236-1.342.295-1.593.295-1.913 0-3.005-.977-3.005-3.088z" fill="#282D37" style="fill: currentColor;fill: var(--db-icon-color, currentColor)" fill-rule="evenodd"/></svg>
