<svg id="icon" height="32" viewBox="0 0 32 32" width="32" xmlns="http://www.w3.org/2000/svg"><path d="m10.5 18c1.9329966 0 3.5 1.5670034 3.5 3.5s-1.5670034 3.5-3.5 3.5c-1.93299662 0-3.5-1.5670034-3.5-3.5s1.56700338-3.5 3.5-3.5zm0 2c-.82842712 0-1.5.6715729-1.5 1.5s.67157288 1.5 1.5 1.5c.8284271 0 1.5-.6715729 1.5-1.5s-.6715729-1.5-1.5-1.5zm-6.42028202-9.1575153c.66483221-2.57890886 3.25156298-4.1983337 5.88144499-3.63876025.57557943.10940132 1.75262133.56005983 3.53112583 1.35197553 1.6020814.70008503 3.0874827 1.64352722 4.4032625 2.79772242 1.9780298 1.7351176 3.6063973 3.4095183 4.8851291 5.0262197.1667219.2107866.2404303.4781388.2083494.741306s-.6298941 2.6843783-.772745 2.9163655c-.7036973 1.1427914-1.5892687 1.9474559-2.4713634 1.9550711-.5880632.0050769-1.7085806.0053727-3.3615523.0008876-.4810425-.0008876-.8833789-.4804365-.8833789-.9932723s.4198979-.9932723.8833789-.9932723c1.9287755 0 2.9646761-.0041506 3.1077018-.0124519.2538505.0155271.5481963-.3034924.8205589-.6954568.181575-.2613097.3791523-.947916.5927318-2.059819-1.5403247-1.7961181-2.9828872-3.2568051-4.3276875-4.3820607-1.1827467-.9896581-2.4499768-1.8370843-3.8502046-2.4532191-1.4002278-.61613488-2.80813159-1.18043582-3.35501197-1.27549158-1.50156287-.22966129-2.94197424.70532463-3.34352154 2.17031448l-1.02757442 4.8064569c0 1.7816073-.0001238 2.7363485-.00037139 2.8642236-.00037138.1918126.12375242.2809381.24253563.3106339.5357949.1339487.8615556.6768832.72760687 1.2126781-.13394872.5357949-.67688322.8615556-1.21267812.7276069-.97549197-.243873-1.75746438-1.1438638-1.75746438-2.2179147 0-1.1143255 0-2.1150681 0-3.0022278 0-.1600545.35990927-1.8792263 1.0797278-5.1575153zm24.83407512 7.4678601c.5522848 0 1 .4477153 1 1 0 .5522848-.4477152 1-1 1-.3234267 0-.6432425.0619893-.9423119.1819732l-1.8179929.8880743c-.3438704.1695398-.781505.2917028-1.097265.3004828-.2105067.0058534-.4533857.0087801-.7286371.0087801-.5522847 0-1-.4477153-1-1 0-.5128359.4154612-1 1-.9932723l.4992771-.0067277c.1150181 0 .2288804-.0198404.3366511-.0583704.0718471-.0256866.6540921-.3103113 1.7467351-.8538738.6231988-.3072582 1.3087168-.4670662 2.0035436-.4670662zm-21.12095026-6.212128c.22845319-.7291663.98925424-1.2113964 1.7520877-1.0501167 1.23830646.5081555 2.26782956.9557182 3.08856916 1.3426881 1.2311096.5804548 2.3545317 1.3661552 3.3221075 2.3234198.362922.3663153.6469718.6675584.8521493.9037295.3077664.3542565.2496513.9670832-.121027 1.317076-.3706784.3499928-.9384715.3614363-1.3218496.0452816-.1068064-.1181038-.3949472-.4154396-.8644225-.8920074-.704213-.7148516-1.6770149-1.388343-2.6584411-1.8592639l-2.25435471-.9810238-.44033246 2.0468084c-.09835884.4104754-.59474926.7829269-1.15451698.658816s-.85613246-.658816-.78906414-1.0697316c.05707742-.3118187.25344236-1.2403774.58909483-2.785676z" fill="var(--db-icon-color, currentColor)" fill-rule="evenodd"/></svg>
