<svg id="icon" height="20" viewBox="0 0 20 20" width="20" xmlns="http://www.w3.org/2000/svg"><path d="m16.360985 6c.9170648 0 1.639015.7606 1.639015 1.6577v4.3423c0 .5-.5 1-1 1l-.7631208.00096-.2368792.00054c0 .5485-.45.9946-1.0049175.9946h-1.9902053c-.5548772 0-1.0048772-.4461-1.0048772-.9946l-.5705967-.0026885-3.1604073-.0048393-.268996.0075278c-.00975842.546-.45.9946-1.00487671.9946h-1.99020331c-.55491998 0-1.00491998-.4486-.99516369-.9961h-1.00975629c-.5 0-1-.5-1-1v-4.3423c0-.8971.72195147-1.6577 1.63902488-1.6577zm-.360985 2h-12v2h12z" fill="var(--db-icon-color, currentColor)" fill-rule="evenodd"/></svg>
