<svg id="icon" height="24" viewBox="0 0 24 24" width="24" xmlns="http://www.w3.org/2000/svg"><path d="m14.7204963 7.09125035c2.9651484-.9545558 6.7485378.10245368 7.4596659 2.47848394.4565923 1.51788221-.5724354 3.32034271-2.2751255 3.84562771-1.1398908.3586786-2.2805697.7162246-3.4220367 1.072638l-2.8255135 5.1662008c-.1949594.3235924-.685435.7190033-1.0654273.8079352-.1612443.0449953-.3253653.0855857-.4923632.121771-1.0045139.2009374-2.0287985-.5670073-2.0407249-1.6951386-.0083438-.7892407-.0153341-1.5784969-.0209711-2.3677684l-1.8350066.5622334c-1.86362444.5035204-3.79916443-.490286-4.44010434-2.2866051l-1.69245352-4.7560483c-.23216029-.77067639.12361408-1.59861154.83633813-1.96178998l.60805305-.24993745c.66705011-.27750663 1.48891345-.2138759 2.1348363.30105624.54098492.42688317 1.08009725.85491357 1.61733698 1.28409119zm3.0464142 1.69301392c-.6825893-.08723406-1.7036573-.04697914-2.4424318.21358469-1.5511791.48046143-4.2068458 1.30812814-7.96700004 2.48300004-.27643182.0861529-.62262832.0594-.919274-.1714756-.68054375-.5371374-1.35866898-1.0754346-2.03437569-1.6148917-.03125523-.02496548-.05778461-.03392714-.09421917-.02644587l-.2206098.08496417 1.55918662 4.3760655c.2715061.7712066 1.12280365 1.3027159 2.14998178.9881981l2.935-.902c.6019203-.1849854 1.3208316.2727364 1.2937282.9472502.0111559 1.0851342.0201903 2.1702963.0271034 3.2554862l2.8685585-5.2436635c.1034429-.1891568.3157753-.3923689.5782725-.4744163l3.8110704-1.1945745c.6676446-.2053883 1.2073695-.9545326.8710716-1.53925972l-1.4287683.52339882c-.5185643.1900251-1.0929895-.0763086-1.2830146-.59487286-.1357322-.37040307-.0613282-.80831427.2957204-1.11034767zm-8.10227666 3.58317683c.169.525-.12 1.089-.645 1.258-.526.17-1.089-.119-1.258-.646-.17-.525.119-1.089.645-1.258s1.089.12 1.258.646zm3.10929996-1.0019c.169.525-.12 1.089-.645 1.259-.526.169-1.089-.12-1.258-.646-.17-.525.119-1.089.645-1.259.526-.168 1.089.121 1.258.646zm3.1094-1.001c.169.525-.12 1.089-.645 1.258-.526.17-1.089-.119-1.259-.646-.169-.525.12-1.08899999.646-1.25799999s1.089.12 1.258.64599999zm-5.5047548-6.82886819 1.957 1.955c.3907239.39032459.3910476 1.02348948.000723 1.41421338-.3602996.36066821-.9638959.41898826-1.4142133.00072301-.6297056-.62563006-1.25747185-1.25283316-1.88329876-1.8816093l-.093.025.75517166 1.56051511c.24498359.54554229-.00288399 1.11234914-.46450177 1.33575376s-1.05909206.06132854-1.33575376-.46450177l-.89423133-1.85020656c-.48340355-1.28001868.22630632-1.94320187.75433407-2.24779527.13892996-.0801419.27778294-.14501992.41655896-.19463405.14576733-.042272.29206066-.08320574.43888001-.12280123.58193946-.16096198 1.27051808-.03807988 1.76233122.47034292z" fill="var(--db-icon-color, currentColor)" fill-rule="evenodd"/></svg>
