<svg id="icon" height="32" viewBox="0 0 32 32" width="32" xmlns="http://www.w3.org/2000/svg"><path d="m18.5 1.9999c3.9754902 0 7.3646674 3.34031464 7.4960479 7.26400084l.0039521 13.14399916c0 4.1178291-3.3424966 7.4611857-7.5042642 7.5882535l-4.7457358.0037465c-4.19292575 0-7.61605558-3.2641676-7.74616378-7.3506864l-.00383622-13.1492136c0-3.94591828 3.31122647-7.36360387 7.2621955-7.49611368zm-10.11414063 22.4257047c.62958929 1.5818084 1.97779423 2.8173013 3.65779013 3.3241224.1370329-.4680137.60072-.7754418 1.0976611-.7045069.9566559.1365559 1.9094391.2047798 2.8586894.2047798.9556375 0 1.908111-.0682017 2.857781-.2046498.4972341-.0714423.9615139.2360546 1.1005246.7036226 1.6611893-.5013105 2.9984259-1.7163728 3.6360522-3.2743558-1.9224739.4655827-3.2410742.7749415-3.9558012.9280765-1.0720904.2297024-2.1451453.355936-3.6385566.355936-1.4933829 0-2.5666693-.1262776-3.638317-.3559477-.7144319-.1531133-2.0397064-.4788057-3.97582363-.9770771zm14.04588063-18.69374423-.3689803 9.19880613c-.0534094 1.3327463-.9784659 2.4622161-2.2574278 2.7871822l-1.1174595.2192464c-1.6278329.3113693-3.2962442.3373168-4.9308402.0778424l-1.3858152-.2578183c-1.3100654-.2505872-2.2897591-1.3330066-2.42133945-2.646031l-.38161752-9.37922783c-.90210229.93908864-1.49111633 2.17718633-1.56121925 3.50206879-.00469385 8.62864714-.00704078 12.94297074-.00704078 12.94297074.9352502.3647715 2.5288487.7881677 4.7807956 1.2701887.9405455.2015728 1.8752091.3115408 3.2192044.3115408 1.3440509 0 2.2785242-.1099309 3.2195529-.3115525s2.6358133-.5616386 4.7804471-1.166177c0 0 0-4.2603 0-12.7809 0-1.42454458-.6060176-2.76644498-1.56826-3.76813953zm-11.0476008 13.55232343 2.0860331.4412783c.5399642.1160049.8836511.6477729.7676462 1.1877371-.1077189.5013953-.5739273.8335515-1.0723045.7855642l-2.0860331-.4412782c-.5399641-.1160049-.883651-.6477729-.7676461-1.1877371.1077188-.5013953.5739273-.8335515 1.0723044-.7855643zm10.355776.7855643c.1077189.5013953-.1809292.9957235-.6550398 1.1566637l-2.0832068.4544335c-.5399642.1160049-1.0717322-.227682-1.1877371-.7676461-.1077188-.5013954.1809292-.9957235.6550398-1.1566637l2.0832068-.4544336c.5399642-.1160049 1.0717322.227682 1.1877371.7676462zm-8.2399152-16.0698482c-.6919857 0-1.362296.14207499-1.9829457.39736924l.418582 10.45331226c.047386.4523404.2546823.792108.6998127.9141383.5619979.138825 1.9520566.421168 3.3609916.4271321s2.7468632-.2963654 3.2565976-.3991195c.5119753-.1071888.7627958-.4486029.8001707-.8277158l.4297368-10.56774736c-.5319854-.21882364-1.1004563-.35446579-1.6877891-.3887549z" fill="var(--db-icon-color, currentColor)" fill-rule="evenodd"/></svg>
