<svg id="icon" height="24" viewBox="0 0 24 24" width="24" xmlns="http://www.w3.org/2000/svg"><path d="m8.97367186 2.00180115h6.05265624c1.0432666.01458448 1.6080103.11983126 2.2105451.3914704.610181.27508624 1.1183239.69166374 1.5077345 1.23604656.3570644.49916393.5670534.99451247.7704958 1.87951642l.1841623.89204642c.1824002-.24339033.4731753-.40088095.8007342-.40088095.5128358 0 1 .40088095 1 1v3c0 .5522847-.4477153 1-1 1-.182197 0-.3530136-.0487257-.5001295-.1338571l.0001295 6.5699719c0 .9637813-.0991552 1.477249-.3853195 2.0123298-.1597122.2986358-.36613.5610343-.6130034.7809456l-.0016771.7706098c0 .5522847-.4477153 1-1 1h-1c-.5522847 0-1-.4477153-1-1h-8c0 .5522847-.44771525 1-1 1h-1c-.55228475 0-1-.4477153-1-1l-.00065672-.7697013c-.24732505-.220097-.45409161-.482807-.61402377-.7818541-.2623173-.4904907-.36749497-.9628204-.38320294-1.7804929l-.00100227-6.8023794c-.14733823.0854842-.31851058.1344277-.5011143.1344277-.51283584 0-1-.4073789-1-1v-3c0-.55228475.44771525-1 1-1 .32755893 0 .61833396.15749062.80073419.40088095l.18416227-.89204642c.20344241-.88500395.41343148-1.38035249.77049588-1.87951642.38941058-.54438282.89755344-.96096032 1.50773441-1.23604656.6025348-.27163914 1.16727854-.37688592 2.21054511-.3914704zm3.02632814 13.29349655c-1.7592622 0-3.75820796-.1473383-5.99871179-.4411715l-.00128821.9748738 2.08304988.1744546c.55037682.0458672.95936269.5292185.91349551 1.0795953-.04259095.5110642-.49012144.9644965-1.07959527.9148209l-1.90995012-.1608708c.01056809.3054106.05788339.5281595.1419459.6682468.12609377.210131.26722431.4971876 1.24549765.493764.97827333-.0034236 8.35117235.0034236 9.21111295 0 .8599405-.0034236 1.1175423-.2346675 1.2454976-.493764.0982832-.1990132.1459318-.4480955.1429459-.7472468l-1.8699653.2342779c-.5480199.0685025-1.0478101-.3202232-1.1163126-.8682432-.0636094-.5088756.2765644-1.0365408.8682432-1.1163126l2.1240347-.257826-.0012882-.8957699c-2.2405038.2938332-4.2394496.4411715-5.9987118.4411715zm2.9662946-11.29428807c-.9096706 0-5.09871037 0-5.93258921 0s-1.17397296.09173287-1.44859509.21554002c-.28844777.13004014-.51896682.31902055-.70305092.5763639-.15335314.21438249-.25854651.43132448-.36840146.83758251l-.51365792 2.46550394.00218328 4.7405931c2.26481609.306118 4.26478842.4587046 5.99781672.4587046s3.7330006-.1525866 5.9978167-.4587046l.0021833-4.7355931-.4661378-2.28425809c-.1010384-.41774372-.2318375-.76648502-.4159216-1.02382836-.1840841-.25734335-.4146031-.44632376-.7030509-.5763639-.2402944-.10833125-.5389244-.21554002-1.4485951-.21554002zm.0337054 1.99899037c.5522847 0 1 .44771525 1 1 0 .51283584-.4010315 1-1 1h-6c-.55228475 0-1-.44771525-1-1 0-.51283584.41641235-1 1-1z" fill="var(--db-icon-color, currentColor)" fill-rule="evenodd"/></svg>
