<svg id="icon" height="20" viewBox="0 0 20 20" width="20" xmlns="http://www.w3.org/2000/svg"><path d="m2 5.024a3.04 3.04 0 0 1 3.024-3.024c1.301 0 2.407.845 2.83 2.016h4.683c2.048 0 3.642 1.496 3.642 3.513 0 1.918-1.561 3.512-3.642 3.512h-4.033c-.845 0-1.496.65-1.496 1.496 0 .845.65 1.495 1.496 1.495h6.211l-.357-.325a1.05 1.05 0 0 1 -.26-.683c0-.552.455-.943.943-.943.26 0 .487.13.683.293l2.016 1.984c.162.195.26.382.26.642 0 .228-.098.488-.26.683l-2.049 2.016c-.163.13-.39.26-.65.26a.942.942 0 0 1 -.943-.943c0-.26.097-.488.26-.683l.357-.325h-6.21c-1.952 0-3.513-1.553-3.513-3.471a3.498 3.498 0 0 1 3.512-3.513h4.033c.878 0 1.593-.65 1.593-1.495 0-.879-.748-1.529-1.593-1.529h-4.683c-.423 1.17-1.529 2.016-2.83 2.016-1.658 0-3.024-1.366-3.024-2.992z" fill="#282D37" style="fill: currentColor;fill: var(--db-icon-color, currentColor)" fill-rule="evenodd"/></svg>
