<svg id="icon" height="32" viewBox="0 0 32 32" width="32" xmlns="http://www.w3.org/2000/svg"><path d="m27.707 4.293a.999.999 0 0 1 0 1.414l-22 22a.997.997 0 0 1 -1.414 0 .999.999 0 0 1 0-1.414l5.707-5.708v-2.553c0-.526-.302-1.031-1-1.032h-4c-.525 0-1 .365-1 1.032v6.968c0 .5-.438 1-1 1-.526 0-1-.5-1-1v-6.968c0-1.632 1.4-3.032 3-3.032h4c1.597 0 3 1.4 3 3.032v.553l2.118-2.118a1.177 1.177 0 0 1 -.118-.467.99.99 0 0 1 1-1h.585l5.944-5.944a3.52 3.52 0 0 1 3.027-3.027l1.737-1.736a.999.999 0 0 1 1.414 0zm-15.707 19.937v.77c0 .6-.437 1-1 1a.951.951 0 0 1 -.567-.204zm15-9.23c1.597 0 3 1.4 3 3v7a.987.987 0 0 1 -1 .999c-.523 0-.937-.404-.994-.887l-.006-.113v-6.999c0-.493-.5-1-1-.999h-3c-.6 0-1-.469-1-1.001 0-.522.4-1 1-1zm-6.774 1.002c.476.527.773 1.213.773 1.967l.001 7.031c0 .6-.439.999-1 .999-.564 0-1-.399-1-1v-7.03a.924.924 0 0 0 -.195-.545zm-4.351-10.002c1.938 0 3.5 1.594 3.5 3.5 0 1.937-1.562 3.5-3.5 3.5a3.495 3.495 0 0 1 -3.5-3.5c0-1.906 1.563-3.5 3.5-3.5zm-8.875 0c1.937 0 3.5 1.594 3.5 3.5 0 1.937-1.563 3.5-3.5 3.5a3.495 3.495 0 0 1 -3.5-3.5c0-1.906 1.563-3.5 3.5-3.5zm21.175 2.055c.204.443.325.93.325 1.445a3.494 3.494 0 0 1 -4.725 3.273l-.225-.093 1.705-1.705a1.498 1.498 0 0 0 1.187-1.077l.032-.143 1.7-1.7zm-12.3-.055a1.5 1.5 0 0 0 -1.5 1.5c0 .844.656 1.5 1.5 1.5a1.5 1.5 0 0 0 1.5-1.5c0-.813-.687-1.5-1.5-1.5zm-8.875 0c-.813 0-1.5.687-1.5 1.5a1.5 1.5 0 1 0 3 0c0-.813-.688-1.5-1.5-1.5z" fill="#282D37" style="fill: currentColor;fill: var(--db-icon-color, currentColor)" fill-rule="evenodd"/></svg>
