<svg id="icon" height="20" viewBox="0 0 20 20" width="20" xmlns="http://www.w3.org/2000/svg"><path d="m16 2a2 2 0 0 1 2 2v12a2 2 0 0 1 -2 2h-12a2 2 0 0 1 -2-2v-12a2 2 0 0 1 2-2zm-6.868 11.06v-2.12c.412.053.8.08 1.166.08.968 0 1.705-.217 2.211-.65.506-.432.76-1.063.76-1.892 0-.799-.244-1.411-.732-1.837-.488-.425-1.19-.638-2.107-.638h-2.429a.75.75 0 0 0 -.75.75v6.307a.94.94 0 0 0 1.881 0zm1.001-3.256c-.205 0-.892-.042-1-.063v-2.302h1.132c.42 0 .718.088.897.264.18.176.27.47.27.88 0 .433-.101.744-.303.935-.202.19-.534.286-.996.286z" fill="var(--db-icon-color, currentColor)" fill-rule="evenodd"/></svg>
