<svg id="icon" height="20" viewBox="0 0 20 20" width="20" xmlns="http://www.w3.org/2000/svg"><path d="m17.71 2.29c.274.292.372.702.215 1.073l-5.62 14.012a.998.998 0 0 1 -.917.625c-.469-.02-.82-.293-.937-.683l-1.932-5.837-5.836-1.93a.986.986 0 0 1 -.683-.898c0-.43.234-.8.625-.957l14.012-5.62c.371-.157.781-.059 1.074.214zm-2.478 2.478-9.348 3.747 3.727 1.23c.293.117.527.331.625.644l1.23 3.727z" fill="#282D37" style="fill: currentColor;fill: var(--db-icon-color, currentColor)" fill-rule="evenodd"/></svg>
