<svg id="icon" height="20" viewBox="0 0 20 20" width="20" xmlns="http://www.w3.org/2000/svg"><path d="m9.018 4c.564 0 1.003.469 1.003 1v10c0 .563-.439 1-1.003 1-.188 0-.376-.063-.532-.156l-2.758-1.844h-.72c-1.66 0-3.008-1.344-3.008-2.969v-2c0-1.656 1.347-3.031 3.008-3.031h.72l2.758-1.813a.852.852 0 0 1 .532-.187zm-1.002 2.875-1.442.969a1.084 1.084 0 0 1 -.564.156h-1.002c-.564 0-1.003.469-1.003 1v2c0 .563.439 1 1.003 1h1.002c.22 0 .408.094.564.188l1.442.937zm2.976 5.125c0-1 1.003-1 1.003-1.969 0-1-1.003-1-1.003-2 0-.5.501-1.031 1.003-1.031 1.002-0 2.005 1.5 2.005 3.031 0 1.5-1.003 3-2.005 3-.502 0-1.003-.5-1.003-1.031z" fill="var(--db-icon-color, currentColor)" fill-rule="evenodd"/></svg>
