<svg id="icon" height="24" viewBox="0 0 24 24" width="24" xmlns="http://www.w3.org/2000/svg"><path d="m11 14.557v-4.63c0-.59.437-1.05 1-1.05s1.003.46 1.003 1.05v4.63c0 .656-.44 1.115-1.003 1.115s-1-.492-1-1.115zm-.69-11.344-8.06 16c-.156.328-.25.656-.25.984 0 .983.751 1.803 1.847 1.803h16.306c1.097 0 1.847-.82 1.847-1.803 0-.295-.094-.656-.25-.984l-8.029-16c-.421-.787-1.064-1.213-1.721-1.213s-1.26.426-1.69 1.213zm1.945.993 7.696 15.313c.127.24 0 .481-.288.481h-15.343c-.192 0-.32-.137-.32-.275 0-.103.032-.137.032-.206l7.713-15.313c.064-.103.16-.206.255-.206.064 0 .149.069.255.206zm-.27 14.614c.563 0 1-.46 1-1.05s-.437-1.049-1-1.049c-.564 0-1.002.46-1.002 1.05s.438 1.049 1.001 1.049z" fill="#282D37" style="fill: currentColor;fill: var(--db-icon-color, currentColor)" fill-rule="evenodd"/></svg>