<svg id="icon" height="24" viewBox="0 0 24 24" width="24" xmlns="http://www.w3.org/2000/svg"><path d="m17.8425353 5.88759744c.0573029.42952558-.175307.86738842-.7301327.95493782-.289171.04040648-.5789718.07889473-.8694026.11546474l1.4242283 4.4561813c.1096756-.0093896.2206641-.0141813.3327717-.0141813 2.1262963 0 3.85 1.7237037 3.85 3.85s-1.7237037 3.85-3.85 3.85-3.85-1.7237037-3.85-3.85c0-1.4135413.7617844-2.6491583 1.8972085-3.3187065l-.2862275-.8973918-3.3676018 3.7440748c-.1066483.1184981-.2377796.2123986-.3843124.2751984-.5211665.2233571-1.1192296.0129201-1.3912239-.4701249l-.99886192-2.312268-.55073921.6532745c.49060069.6461681.78175823 1.4520541.78175823 2.3259435 0 2.1262963-1.72370371 3.85-3.85 3.85s-3.85-1.7237037-3.85-3.85 1.72370371-3.85 3.85-3.85c.63724844 0 1.23833626.154822 1.76770081.4289033l1.10128017-1.3081213-1.144-2.67088035-.72498098.00009835c-.46944204 0-.85-.38055796-.85-.85 0-.43333111.33370998-.85.85-.85.83320247-.00211694 1.66653581-.00211694 2.5 0 .46944204 0 .85.38055796.85.85 0 .43333111-.3328281.80599976-.77701902.84490165.22930965.54144345.46464302 1.09107025.70600002 1.64888039l4.471-1.62588039-.4336237-1.35933823c-.1502319-.47046735.1254683-1.0160075.6973165-1.10109868.6240177-.08524057 1.2486589-.1685739 1.8739236-.25.4653194-.06207822.8928596.26481333.9549379.7301327zm-11.8425353 7.21240256c-1.18741221 0-2.15.9625878-2.15 2.15s.96258779 2.15 2.15 2.15 2.15-.9625878 2.15-2.15c0-.3466926-.08205905-.6742193-.22781402-.9642169l-1.27201146 1.5117323c-.32896647.3798448-.86853189.3798448-1.1976899.1026591-.32915802-.2771857-.43571893-.8204619-.10265914-1.1976899.42171537-.505339.84533078-1.0091854 1.2708462-1.511539-.19651325-.0591544-.40487985-.0909456-.62067168-.0909456zm12.2087661.0100059.600953 1.8814307c.1545856.4746271-.1383598.9364665-.5511557 1.0682825-.4127958.1318159-.9014384-.0696234-1.0682825-.5511557-.2025397-.626114-.4031232-1.2529176-.6017505-1.880411-.4525248.3941581-.7385304.9746028-.7385304 1.6218476 0 1.1874122.9625878 2.15 2.15 2.15s2.15-.9625878 2.15-2.15c0-1.1169812-.8517832-2.0350178-1.9412339-2.1399941zm-3.5387851-3.40422386-3.72 1.35199996.807019 1.884218z" fill="var(--db-icon-color, currentColor)" fill-rule="evenodd"/></svg>
