<svg id="icon" height="32" viewBox="0 0 32 32" width="32" xmlns="http://www.w3.org/2000/svg"><path d="m15.975 2c.646 0 1.248.32 1.609.857.864 1.285 2.275 3.376 3.504 5.196a1 1 0 0 1 -1.657 1.119c-1.23-1.82-2.642-3.913-3.506-5.199-.627.996-1.552 2.413-2.48 3.82l-.308.467a829.262 829.262 0 0 1 -2.893 4.346l-.064.096-.037.055c-1.716 2.486-2.583 4.737-2.583 6.699 0 4.951 3.549 8.544 8.438 8.544s8.438-3.593 8.438-8.544c0-1.871-.798-4.018-2.373-6.379a1.001 1.001 0 0 1 1.664-1.11c1.797 2.696 2.709 5.216 2.709 7.488 0 6.011-4.487 10.544-10.438 10.544-5.951.002-10.438-4.531-10.438-10.542 0-2.376.986-5.009 2.93-7.825l.04-.06c.25-.37 1.602-2.387 3.03-4.518l.307-.458 1.893-2.832.252-.377.346-.519a1.94 1.94 0 0 1 1.611-.868zm3.862 17.407c.468 0 .831.119 1.079.353.25.235.377.58.377 1.024 0 .292-.06.559-.178.795a2.694 2.694 0 0 1 -.479.665l-.078.079a15.33 15.33 0 0 1 -.442.422h.944a.449.449 0 0 1 .445.496.527.527 0 0 1 -.524.471h-2.058a.465.465 0 0 1 -.452-.342.464.464 0 0 1 .044-.357.933.933 0 0 1 .186-.226l.193-.174c.308-.282.539-.509.705-.691a2.27 2.27 0 0 0 .375-.538 1.26 1.26 0 0 0 .122-.549c0-.162-.034-.279-.101-.347s-.182-.102-.343-.102c-.141 0-.279.022-.41.064l-.03.01a.428.428 0 0 1 -.541-.263l-.008-.023a.468.468 0 0 1 .25-.579c.087-.041.179-.076.272-.104.202-.056.42-.084.652-.084zm-2.904-5.863c.473 0 .857.384.857.857v6.457a.857.857 0 0 1 -1.714 0v-2.669h-2.732v2.669a.857.857 0 0 1 -1.714 0v-6.457a.857.857 0 0 1 1.714 0v2.493h2.732v-2.493c0-.473.384-.857.857-.857z" fill="#282D37" style="fill: currentColor;fill: var(--db-icon-color, currentColor)" fill-rule="evenodd"/></svg>
