<svg id="icon" height="20" viewBox="0 0 20 20" width="20" xmlns="http://www.w3.org/2000/svg"><path d="m6.655 5a1.5 1.5 0 1 0 -.001-3.001 1.5 1.5 0 0 0 0 3.001zm1.317 5.099a.999.999 0 1 0 1.514-1.306l-2.21-2.561a.982.982 0 0 0 -.236-.241 1.002 1.002 0 0 0 -1.043-.06l-2.787 1.494a.998.998 0 0 0 -.484.589l-.682 2.23a1 1 0 1 0 1.913.584l.56-1.836.695-.372-.351 2.568-2.23 5.432a1.001 1.001 0 0 0 .924 1.38 1 1 0 0 0 .926-.62l1.6-3.899.466.634 1.079 3.204a1.001 1.001 0 0 0 1.896-.639l-1.128-3.351a1.029 1.029 0 0 0 -.141-.271l-1.373-1.872.278-2.031.814.943-.001.001zm3.534.721a1 1 0 1 0 -1.324 1.5l3.913 3.451c.19.168.426.25.66.25a1 1 0 0 0 .662-1.75l-3.913-3.451zm5.494 5.18c-.517 0-1 .483-1 1s.483 1 1 1 1-.483 1-1-.483-1-1-1z" fill="#282D37" style="fill: currentColor;fill: var(--db-icon-color, currentColor)" fill-rule="evenodd"/></svg>
