<svg id="icon" height="32" viewBox="0 0 32 32" width="32" xmlns="http://www.w3.org/2000/svg"><path d="m16 4c6.627 0 12 5.373 12 12 0 2.954-1.067 5.658-2.837 7.749l.03.03-1.415 1.413-.03-.029a11.952 11.952 0 0 1 -7.748 2.837c-6.627 0-12-5.373-12-12 0-2.954 1.067-5.658 2.837-7.749l-.03-.03 1.415-1.413.03.029a11.952 11.952 0 0 1 7.748-2.837zm-10 12c0 5.523 4.477 10 10 10a9.959 9.959 0 0 0 6.329-2.257l-14.072-14.073a9.959 9.959 0 0 0 -2.257 6.33zm10-10a9.959 9.959 0 0 0 -6.329 2.257l14.072 14.073a9.959 9.959 0 0 0 2.257-6.33c0-5.523-4.477-10-10-10z" fill="var(--db-icon-color, currentColor)" fill-rule="evenodd"/></svg>
