<svg id="icon" height="32" viewBox="0 0 32 32" width="32" xmlns="http://www.w3.org/2000/svg"><path d="m26.307 16c0 5.683-4.624 10.307-10.307 10.307s-10.307-4.624-10.307-10.307 4.624-10.307 10.307-10.307 10.307 4.624 10.307 10.307zm-22.307 0c0 6.627 5.373 12 12 12s12-5.373 12-12-5.373-12-12-12-12 5.373-12 12zm10.299-4.703a1.001 1.001 0 0 0 -1.307.541 2.004 2.004 0 0 1 -2.614 1.082 1 1 0 1 0 -.764 1.848 3.971 3.971 0 0 0 1.525.305c1.57 0 3.063-.931 3.701-2.469a1.001 1.001 0 0 0 -.541-1.307zm8.669 2.164a1 1 0 0 0 -1.306-.541 2.005 2.005 0 0 1 -2.614-1.082 1.001 1.001 0 0 0 -1.848.766 4.009 4.009 0 0 0 3.701 2.469c.509 0 1.026-.098 1.525-.305.51-.211.753-.796.542-1.307zm-2.391 7.962c-.022-.01-2.258-.924-4.577-.924s-4.555.914-4.577.924a1.003 1.003 0 0 1 -1.359-1.145c.376-1.653 2.102-4.778 5.936-4.778s5.56 3.125 5.936 4.778a.998.998 0 0 1 -.977 1.221c-.128 0-.258-.025-.382-.076zm-4.577-2.924c1.085 0 2.135.163 3.014.362-.607-.715-1.559-1.362-3.014-1.362s-2.406.647-3.014 1.362c.878-.199 1.929-.362 3.014-.362z" fill="var(--db-icon-color, currentColor)" fill-rule="evenodd"/></svg>
