<svg id="icon" height="20" viewBox="0 0 20 20" width="20" xmlns="http://www.w3.org/2000/svg"><path d="m14.506 2a3.482 3.482 0 0 1 3.494 3.499 3.495 3.495 0 0 1 -3.494 3.498 3.45 3.45 0 0 1 -2.616-1.207l-2.983 1.433c.061.245.081.511.081.777s-.02.532-.081.777l2.963 1.412a3.58 3.58 0 0 1 2.636-1.186 3.508 3.508 0 0 1 3.494 3.497 3.495 3.495 0 0 1 -3.494 3.5 3.482 3.482 0 0 1 -3.494-3.499c0-.163.02-.348.04-.49l-3.146-1.474a3.466 3.466 0 0 1 -2.412.962 3.508 3.508 0 0 1 -3.494-3.499 3.495 3.495 0 0 1 3.494-3.499c.94 0 1.798.369 2.432.962l3.126-1.494a3.366 3.366 0 0 1 -.04-.47 3.495 3.495 0 0 1 3.494-3.499zm0 11.008a1.5 1.5 0 0 0 -1.492 1.493 1.5 1.5 0 0 0 1.492 1.494 1.5 1.5 0 0 0 1.491-1.494 1.5 1.5 0 0 0 -1.491-1.493zm-9.012-4.502c-.817 0-1.491.655-1.491 1.494a1.501 1.501 0 0 0 3.003 0c0-.839-.674-1.494-1.512-1.494zm9.012-4.521c-.818 0-1.492.675-1.492 1.514a1.501 1.501 0 0 0 3.004 0 1.51 1.51 0 0 0 -1.512-1.514z" fill="var(--db-icon-color, currentColor)" fill-rule="evenodd"/></svg>
