<svg id="icon" height="24" viewBox="0 0 24 24" width="24" xmlns="http://www.w3.org/2000/svg"><path d="m9.6 5c-.639 0-1.408.338-1.838.805l-1.258 1.361h-2.004a2.5 2.5 0 0 0 -2.5 2.5v7.834a2.5 2.5 0 0 0 2.5 2.5h15a2.5 2.5 0 0 0 2.5-2.5v-7.998c0-1.291-1.175-2.335-2.5-2.335l-1.973-.001-1.305-1.383a2.5 2.5 0 0 0 -1.817-.783zm4.805 2a.5.5 0 0 1 .363.157l1.603 1.696a1 1 0 0 0 .727.314h2.402a.5.5 0 0 1 .5.5v7.833a.5.5 0 0 1 -.5.5h-15a.5.5 0 0 1 -.5-.5v-7.833a.5.5 0 0 1 .5-.5h2.443a1 1 0 0 0 .735-.322l1.554-1.685a.5.5 0 0 1 .367-.16zm-2.405 2.5a3.5 3.5 0 1 0 0 7 3.5 3.5 0 0 0 0-7zm0 2a1.5 1.5 0 1 1 0 3 1.5 1.5 0 0 1 0-3z" fill="var(--db-icon-color, currentColor)" fill-rule="evenodd"/></svg>
