<svg id="icon" height="20" viewBox="0 0 20 20" width="20" xmlns="http://www.w3.org/2000/svg"><path d="m10.01 2.031c.25 0 .5.094.687.281l3.032 3a.994.994 0 0 1 .28.72v1h-4.029c-.563 0-1-.439-1-1v-2h-4.97v12h4v2h-5c-.562 0-1-.439-1-1v-14c0-.564.438-1 1-1zm3 6c2.75 0 5 2.25 5 5s-2.25 5-5 5-5-2.25-5-5 2.25-5 5-5zm-1.505 2.3-1.185 1.184 1.526 1.526-1.534 1.517 1.178 1.191 1.54-1.524 1.533 1.532 1.184-1.184-1.526-1.526 1.534-1.518-1.178-1.19-1.54 1.523-1.532-1.532z" fill="var(--db-icon-color, currentColor)" fill-rule="evenodd"/></svg>
