<svg id="icon" height="32" viewBox="0 0 32 32" width="32" xmlns="http://www.w3.org/2000/svg"><path d="m10.031 20.969a4.015 4.015 0 0 1 3.875 3.031h15.094c.563 0 1 .438 1 1 0 .531-.438 1-1 1h-15.125a3.958 3.958 0 0 1 -3.844 2.969c-1.875 0-3.437-1.25-3.875-2.969h-3.156c-.563 0-1-.469-1-1 0-.562.438-1 1-1h3.125a4.024 4.024 0 0 1 3.906-3.031zm0 2c-1.125 0-2 .906-2 2s.875 2 2 2c.969 0 2-.781 2-2 0-1.094-.906-2-2-2zm11.906-10.969a3.995 3.995 0 0 1 3.875 3h3.188c.563 0 1 .438 1 1 0 .531-.438 1-1 1h-3.188c-.437 1.719-2 3-3.875 3a3.995 3.995 0 0 1 -3.875-3h-15.124c-.5 0-.937-.469-.937-1 0-.562.438-1 .938-1h15.124c.47-1.719 2.032-3 3.875-3zm0 2c-1.093 0-2 .906-2 2 0 1.125.907 2 2 2 1.125 0 2-.875 2-2 0-1.094-.875-2-2-2zm-11.937-11a3.96 3.96 0 0 1 3.875 3h15.125c.563 0 1 .438 1 1 0 .531-.438 1-1 1h-15.125c-.5 1.781-2.031 3-3.875 3a3.995 3.995 0 0 1 -3.875-3h-3.125c-.563 0-1-.469-1-1 0-.562.438-1 1-1h3.125c.438-1.75 2-3 3.875-3zm0 2c-1.094 0-2 .875-2 2 0 1.094.906 2 2 2s2-.906 2-2-.875-2-2-2z" fill="var(--db-icon-color, currentColor)" fill-rule="evenodd"/></svg>
