<svg id="icon" height="20" viewBox="0 0 20 20" width="20" xmlns="http://www.w3.org/2000/svg"><path d="m15.8936228 14.7716641c.4238417.4583604.8207155.7270818 1.1063772.7270818.469442 0 .85.380558.85.85s-.380558.85-.85.85c-.6028666 0-1.1831999-.2322486-1.741-.6967459-.604489.4644973-1.2110267.6967459-1.8196131.6967459-.6085865 0-1.2090488-.2399153-1.8013869-.7197459-.6289873.4798306-1.2334511.7197459-1.81339123.7197459-.57994017 0-1.16680976-.2259153-1.76060877-.6777459-.5085091.4518306-1.05236739.6777459-1.63157488.6777459s-1.19701587-.240582-1.85342512-.7217459c-.48415362.3811933-1.01048695.57179-1.579.57179-.46944204 0-.85-.380558-.85-.85s.38055796-.85.85-.85c.26050309 0 .55364759-.1754783.87943351-.5264348.3142233-.3983929.90523862-.4345372 1.26566714-.0774036.09357042.0927151.793956.7537943 1.21936372.7537943.2749476 0 .58720493-.2113242.93677199-.6339725.30698179-.443223.94374094-.492332 1.31505402-.1014215.08529433.089796.76152996.7351673 1.20831839.735394.41420483.0002101 1.11781123-.644408 1.20250263-.7339796.3383953-.3578949.9091776-.3541571 1.2428567.0081388.0813164.0882903.7395944.7258408 1.1981362.7258408.2818957 0 .6957702-.2232334 1.1868803-.737213.3385866-.3543534.9058932-.3497132 1.2386382.0101312zm-3.1436228-12.6216641c.3510337 0 .6615255.21501674.7890754.53386782l.3439246 1.34613218-6.90195971.0070605c-.41802149 0-.79019977.41004618-.79019977.84337729s.42436193.84956221.79019977.84956221h7.32695971l.355 1.42h2.5385215c.5246379 0 .9049812.46249782.8445002.95178763-.0604811.48928982-1.3311281 3.08245327-2.2902929 4.03744777-.3351051.3727869-.6444077.6482317-.9279078.8263344-.4252502.2671541-.8978342.4271701-1.4112061.4271701-.5461359 0-1.1256742-.2222466-1.7386149-.6667399-.5769233.5955743-1.1645468.9033114-1.76287047.9232113-.59832364.0198999-1.21336681-.2478372-1.84512953-.8032113-.5125091.5370385-1.05836739.8055578-1.63757488.8055578s-1.16668253-.2718526-1.76242512-.8155578c-.52704433.5437052-1.083711.8155578-1.67.8155578-.43333111 0-.85-.3571462-.85-.8055578v-9.846c0-.43333111.32430405-.85.85-.85zm.2869277 5.34096858c-.5522847 0-1 .44771525-1 1s.4477153 1 1 1c.5522848 0 1-.44771525 1-1s-.4477152-1-1-1zm-3.99999999 0c-.55228475 0-1 .44771525-1 1s.44771525 1 1 1 .99999999-.44771525.99999999-1-.44771524-1-.99999999-1zm-4 0c-.55228475 0-1 .44771525-1 1s.44771525 1 1 1 1-.44771525 1-1-.44771525-1-1-1z" fill="var(--db-icon-color, currentColor)" fill-rule="evenodd"/></svg>
