<svg id="icon" height="32" viewBox="0 0 32 32" width="32" xmlns="http://www.w3.org/2000/svg"><path d="m27 6c1.656 0 3 1.375 3 3v14c0 1.656-1.375 3-3 3h-22c-1.656 0-3-1.375-3-3v-14a3 3 0 0 1 3-3zm1 8h-24v9c0 .5.374 1 .875 1h22.125c.563 0 1-.469 1-1zm-1-6h-22c-.563 0-1 .469-1 1v3h24v-3c0-.563-.469-1-1-1zm-18.997 11h7.994a.989.989 0 0 1 1.003 1c0 .563-.439 1-1.003 1h-7.994a.989.989 0 0 1 -1.003-1c0-.563.439-1 1.003-1z" fill="#282D37" style="fill: currentColor;fill: var(--db-icon-color, currentColor)" fill-rule="evenodd"/></svg>
