<svg id="icon" height="20" viewBox="0 0 20 20" width="20" xmlns="http://www.w3.org/2000/svg"><path d="m3 15.969c0 .561.5 1.031 1.031 1.031.25 0 .469-.094.688-.313l12-12c.218-.187.281-.437.281-.687 0-.531-.406-1.031-.969-1.031-.281 0-.531.125-.718.312l-.313.281c-.031-.874-.719-1.562-1.594-1.562h-6.75c-.906 0-1.656.719-1.656 1.594v9.969l-1.688 1.717c-.217.22-.312.47-.312.69zm3.25 2h7.156a1.58 1.58 0 0 0 1.594-1.594v-7.156l-2 2v4.781h-4.75zm.75-6.407v-7.562h1v1h4v-1h1v1.563l-6 6zm2.25 3.438h1.781v-1.781z" fill="#282D37" style="fill: currentColor;fill: var(--db-icon-color, currentColor)" fill-rule="evenodd"/></svg>
