<svg id="icon" height="24" viewBox="0 0 24 24" width="24" xmlns="http://www.w3.org/2000/svg"><path d="m18.995 2a3.026 3.026 0 0 1 3.005 3.005v10c0 1.643-1.361 2.98-3.005 2.98h-11.033a.956.956 0 0 0 -.704.283l-3.568 3.45a.94.94 0 0 1 -.68.282c-.518 0-1.01-.4-1.01-1.01v-15.984a3.026 3.026 0 0 1 3.005-3.006zm0 2.019h-13.99a.963.963 0 0 0 -.986.986v13.709l1.854-1.808c.54-.493 1.197-.822 1.902-.845h11.22c.564 0 .986-.446.986-1.01v-10.045a.963.963 0 0 0 -.986-.986zm-7 8.501c.566 0 .995.43.995.976s-.429.995-.995.995a.987.987 0 0 1 -.995-.995c0-.547.43-.976.995-.976zm.242-7.02c1.416 0 2.513.76 2.513 2.147 0 1.05-.516 1.634-.99 2.055-.592.526-.758.618-.76.91v1.015h-2v-1.015c0-.81.405-1.212.83-1.518l.45-.312c.28-.202.495-.414.495-.756 0-.282-.146-.536-.703-.536-.479 0-1.032.187-1.462.425l-.68-1.765c.94-.433 1.709-.65 2.307-.65z" fill="#282D37" style="fill: currentColor;fill: var(--db-icon-color, currentColor)" fill-rule="evenodd"/></svg>
