<svg id="icon" height="20" viewBox="0 0 20 20" width="20" xmlns="http://www.w3.org/2000/svg"><path d="m2 6.884c0-.282.094-.501.281-.72 2.156-2.131 4.625-3.164 7.781-3.164 2.844 0 5.594 1.128 7.626 3.163.187.188.312.47.312.72 0 .596-.438 1.003-1 1.003a1.1 1.1 0 0 1 -.719-.282 8.668 8.668 0 0 0 -6.218-2.63c-2.47 0-4.688.907-6.376 2.599-.187.188-.437.313-.687.313-.438 0-1-.345-1-1.002zm3.688 3.476c0-.25.093-.532.312-.72 1.156-1.096 2.406-1.66 4.063-1.66 1.53 0 2.968.595 4.062 1.66.219.22.281.47.281.72 0 .47-.312 1.002-1 1.002a.97.97 0 0 1 -.687-.281c-.719-.69-1.656-1.097-2.656-1.097s-2 .408-2.657 1.097a.989.989 0 0 1 -.718.281c-.594 0-1-.532-1-1.002zm2.312 4.64c0-1.094.875-2 2-2 1.094 0 2 .875 2 2 0 1.094-.875 2-2 2-1.094 0-2-.875-2-2z" fill="#282D37" style="fill: currentColor;fill: var(--db-icon-color, currentColor)" fill-rule="evenodd"/></svg>
