<svg id="icon" height="64" viewBox="0 0 64 64" width="64" xmlns="http://www.w3.org/2000/svg"><g fill="none" fill-rule="evenodd" transform="translate(12 12)"><path d="m29.952 20.742c-5.516 0-10 4.484-10 10s4.484 10 10 10 10-4.484 10-10-4.484-10-10-10zm0 17.981h-.012a7.976 7.976 0 0 1 -7.969-7.981v-.012a7.976 7.976 0 0 1 7.981-7.969h.012a7.976 7.976 0 0 1 7.969 7.981v.012a7.976 7.976 0 0 1 -7.981 7.969zm5-7.981c0 .563-.437 1-1 1l-2.99.01-.01 2.99c0 .563-.437 1-1 1s-1-.437-1-1v-3l-2.99.01c-.565 0-1.01-.448-1.01-1.01s.437-1 1-1h3v-3c0-.563.437-1 1-1s1 .437 1 1v3h3c.563 0 1 .437 1 1z" fill="var(--db-icon-pulse-color, #EC0016)"/><path d="m8 19c.183 0 .363.05.52.145a12.739 12.739 0 0 0 6.47 1.855 12.746 12.746 0 0 0 5.587-1.354 1 1 0 1 1 .897 1.787 14.769 14.769 0 0 1 -6.484 1.567 14.747 14.747 0 0 1 -7.129-1.922l-.123-.072-.186.01a6 6 0 0 0 -5.548 5.76l-.004.224v12a1 1 0 0 1 -1.993.117l-.007-.117v-12a8 8 0 0 1 8-8zm7-19a9 9 0 0 1 9 9 9 9 0 0 1 -9 9 9 9 0 0 1 -9-9 9 9 0 0 1 9-9zm0 2a7 7 0 1 0 0 14 7 7 0 0 0 0-14z" fill="var(--db-icon-color, currentColor)" fill-rule="nonzero"/></g></svg>
