<svg id="icon" height="32" viewBox="0 0 32 32" width="32" xmlns="http://www.w3.org/2000/svg"><path d="m16 7c5.844 0 10.063 2.906 13.813 8.438a.953.953 0 0 1 .187.562c0 .195-.063.39-.188.563-3.749 5.53-7.967 8.437-13.812 8.437-5.844 0-10.063-2.906-13.813-8.438a.953.953 0 0 1 -.187-.562c0-.195.063-.39.188-.563 3.75-5.53 7.967-8.437 13.812-8.437zm0 2c-4.688 0-8.281 2.125-11.781 7 3.483 4.726 7.061 7 11.781 7 4.969 0 8.281-2.125 11.781-7-3.468-4.813-6.811-7-11.781-7zm0 2c2.75 0 5 2.25 5 5s-2.25 5-5 5-5-2.25-5-5 2.25-5 5-5zm0 2a3 3 0 1 0 .002 6.002 3 3 0 0 0 -.002-6.002z" fill="#282D37" style="fill: currentColor;fill: var(--db-icon-color, currentColor)" fill-rule="evenodd"/></svg>