<svg id="icon" height="24" viewBox="0 0 24 24" width="24" xmlns="http://www.w3.org/2000/svg"><path d="m7 15c1.1045695 0 2 .8954305 2 2s-.8954305 2-2 2-2-.8954305-2-2 .8954305-2 2-2zm.01650774-8.74309753c.55122375.11369103 1.15989364.30371273 1.82600965.5700651 2.09815731.74937818 4.02686941 1.9074141 5.67452781 3.40709613.8165388.7432053 1.5297266 1.4849319 2.1393423 2.2258971.1748479.2125211.2239888.4949934.1640613.7621819-.1640613.7314724-1.3498108 3.0189065-1.5744937 3.3651106-.1536054.2560632-.4303081.4127467-.7289099.4127467-1.5050715-.059546-2.7810033-.1139927-3.8277954-.1633402-.0866767-2.0225421-1.77546697-3.5366598-3.6892498-3.5366598-1.74539022 0-3.20851203 1.2085347-3.59820667 2.8344455-.09563839-.0359935-1.2518033-.4189656-1.2518033-1.6934625 0-2.1310392 0-3.2780335 0-3.440983s.09588924-.6704512.28766773-1.52250523c.42652662-2.13263311 2.4511936-3.53841965 4.57884998-3.2205923zm13.98349226 8.04309753c.469442 0 .85.380558.85.85 0 .4333311-.3242624.7909267-.7433778.8433773-.3286193.0216285-.5652582.0751967-.7099166.1607046l-.909289.4968773c-.3961419.2326939-.8919474.3490408-1.4874166.3490408-.469442 0-.85-.380558-.85-.85 0-.4333311.3242624-.7909267.7433778-.8433773.2678313-.0250462.5177855 0 .7788505-.1474637.2787867-.1491012.581883-.314727.909289-.4968774.4350035-.2377059.9227689-.3622816 1.4184827-.3622816zm-16.55637224-5.15532964-.41314214 1.61090544c-.13499177.5355331.18971111 1.0791008.72524418 1.2140926.4972807.1253495 1.0014893-.1456704 1.17906392-.6138048l.2733603-1.0568636 2.79739668.962253c.20013721.068811.39224248.1585414.5731655.2675831.12061536.0726945.7360215.5024155 1.8462184 1.2891631.4517685.3176849 1.0755337.2089887 1.3932186-.2427798.2932476-.417017.2245886-1.017685-.1446535-1.3146909-.2461613-.1980039-.8352499-.6154277-1.7672657-1.2522714-.3077656-.21642174-.6387274-.39724012-.98651317-.53920215l-3.69692198-1.27385091c-.75604668-.19057661-1.52276925.22965212-1.77917109.94946632z" fill="var(--db-icon-color, currentColor)" fill-rule="evenodd"/></svg>
