<svg id="icon" height="20" viewBox="0 0 20 20" width="20" xmlns="http://www.w3.org/2000/svg"><path d="m15.342925 13.071254c.2760928.2842011.4747553.4749096.5959875.5721255.3532611.2832794.7439946.5066205 1.0610875.5066205.469442 0 .85.380558.85.85s-.380558.8500115-.85.8500115c-.7417399 0-1.5154066-.348118-2.321-1.0443538-.8018322.6962358-1.5837211 1.0443538-2.3456667 1.0443538s-1.5357233-.348118-2.3213333-1.0443538c-.80561038.6948898-1.58297548 1.0423348-2.3320953 1.0423348-.74911983 0-1.52708806-.347445-2.3339047-1.0423348-.79832316.6900058-1.57036713 1.0380509-2.31613193 1.0441352-.50755903.004141-.87986807-.3803509-.87986807-.8497929 0-.4333311.36190186-.8584901.85-.85.29375518.0051097.68606705-.1951376 1.09127825-.5126015.28125414-.2203494.50267745-.4427561.61733126-.576828.34331264-.4014569.96579466-.3958576 1.30183001.0117102.1090295.1322387.32191727.3528705.59411127.5713732.3527311.2831536.78923707.5070566 1.07535391.5062073.28611683-.0008493.67454012-.1970596 1.07750736-.5125979.28154981-.2204639.50334886-.4429954.61829676-.5771983.34324193-.4007387.96485388-.3951939 1.30089258.011604.1093678.1323972.3226899.35318.5952282.5718215.3530467.2832286.7770621.5072264 1.0752832.5063589s.6744132-.1975482 1.0768358-.5126191c.281622-.2204918.5035128-.4430538.6185325-.5772887.3431336-.4004572.9643288-.3950536 1.3004439.0113124zm-2.3302809-7.73974536c.3042165.40737344.5265363.81001684.6742371 1.14144226l3.2337323-.56997476c.6937452-.12213519 1.2105242.59667226.9145714 1.20407739l-2.2295516 3.50623547c-.2166624.3396702-.5018583.424919-.772656.3941573s-.3647526-.1367918-.5079149-.1367918c-.1431624 0-.841768 1.4430799-2.0421536 1.4430799-.800257 0-1.5788933-.4156922-2.3359088-1.2470767-.8730899.8313845-1.68836704 1.2470767-2.4458314 1.2470767-.75746437 0-1.5018539-.3520256-2.2331686-1.0560767-.71850926.8572259-1.47450926 1.2858388-2.268 1.2858388-.43333111 0-.84337729-.3196492-.84337729-.7433778l-.00662271-1.7439925c0-.84515717.57122379-1.57544594 1.37573891-1.78824311l1.30335088-.24688295c.36135639-.07981279.53955468-.6385266.41063522-1.9674775l-.08062449-.65092749c-.06313165-.42795606.18689948-.86878215.7148101-.96464455l3.99121798-.59863572c1.2875702-.20692309 2.341278.41256873 3.1475155 1.49219376zm-2.7483768.17321367-3.3262673.49193534c.06291553.70614692.03418834 1.22920382-.03733439 1.67105781 3.35522249-.59087315 5.03283379-.88630972 5.03283379-.88630972-.6197595-1.02612498-1.1668379-1.30047076-1.6692321-1.27668343z" fill="var(--db-icon-color, currentColor)" fill-rule="evenodd"/></svg>
