<svg id="icon" height="24" viewBox="0 0 24 24" width="24" xmlns="http://www.w3.org/2000/svg"><path d="m12.9815923 2c1.6681941 0 2.5496427.17430624 3.443698.65245221.8261203.44181398 1.4804435 1.0961372 1.9222575 1.92225752.4482618.83817678.629477 1.66527357.6503779 3.13993607l.0020743 8.2669465c0 1.6681941-.1743062 2.5496427-.6524522 3.443698-.441814.8261203-1.0961372 1.4804435-1.9222575 1.9222575-.4532364.2423934-1.0391606.4629998-1.45413.5098024-.1811431-.479779-.7272141-.8494173-1.2128985-.7277898-.5427115.1835358-1.0623282.2204396-1.7558392.2204396-.694174 0-1.2134906-.0552064-1.538655-.1493076-.65929551-.2488011-1.18007416-.0243807-1.43402892.6566578-.53219205-.1049326-1.01720169-.2748668-1.45502895-.5098024-.82612032-.441814-1.48044354-1.0961372-1.92225752-1.9222575-.44826185-.8381768-.62947706-1.6652736-.65037793-3.1399361l-.00207428-8.26694654c0-1.66819403.17430624-2.5496427.65245221-3.44369793.44181398-.82612032 1.0961372-1.48044354 1.92225752-1.92225752.83817678-.44826185 1.66527357-.62947706 3.13993607-.65037793zm-4.09821343 16.0067277c-.49733868.0577651-.88337887.4804365-.88337887.9932723s.38604019.9355072.88337887.9932723h1.23324223c.4973387-.0577651.8833789-.4804365.8833789-.9932723s-.3860402-.9355072-.8833789-.9932723zm5.11662113-.0067277c-.5522847 0-1 .4477153-1 1 0 .5128358.3860402.9355072.8833789.9932723l1.1166211.0067277c.5522847 0 1-.4477153 1-1 0-.5128358-.3860402-.9355072-.8833789-.9932723zm.7826017-14-5.68770024.00375489c-1.05238228.06457801-1.86459263.93183063-1.87741489 1.96942386l.46081561 7.59915305c.0445928.7266975.3372673 1.4732894.3372673 1.4732894.18085111.3077226.43453564.5463173.75275737.7079814.2386663.121248.47412478.1992225.93993542.2306318h4.58347543c.4658107-.0314093.7012692-.1093838.9399354-.2306318.3182218-.1616641.5719063-.4002588.7527574-.7079814s.2774931-.6868314.3241882-1.2846477c.3159886-5.14674163.473983-7.7337328.473983-7.7609735 0-1.1045695-.8954305-2-2-2z" fill="var(--db-icon-color, currentColor)" fill-rule="evenodd"/></svg>
