<svg id="icon" height="32" viewBox="0 0 32 32" width="32" xmlns="http://www.w3.org/2000/svg"><path d="m4 23c0 .55.47 1 1 1h8c2.15 0 4.031-1.817 4.031-3.973v-4.017c0-1.102.875-2.009 1.969-2.009l7.258.012-2.19 2.287c-.202.21-.304.46-.304.687 0 .517.406 1.002.967 1.002a.9.9 0 0 0 .677-.3l3.812-3.967a1.02 1.02 0 0 0 .28-.71 1.03 1.03 0 0 0 -.28-.712l-3.812-4a.898.898 0 0 0 -.677-.3c-.593 0-.967.517-.967 1.002 0 .259.103.508.303.72l2.191 2.318-7.258-.017c-2.156 0-3.875 1.783-3.875 3.986v4.018c.005 1.09-1.065 1.969-2.125 1.969l-8 .004c-.53 0-1 .45-1 1zm0-10.016a.985.985 0 0 1 1-.984c.548 0 1 .426 1 .984 0 .556-.452 1.016-1 1.016s-1-.459-1-1.016zm4 0a.985.985 0 0 1 1-.984c.58 0 1 .426 1 .984 0 .556-.42 1.016-1 1.016-.548 0-1-.459-1-1.016zm4 .007c0-.556.453-.981.994-.991a.989.989 0 0 1 1.006.984c0 .556-.454 1.016-1.006 1.016-.54.005-.994-.453-.994-1.009z" fill="var(--db-icon-color, currentColor)" fill-rule="evenodd"/></svg>
