<svg id="icon" height="20" viewBox="0 0 20 20" width="20" xmlns="http://www.w3.org/2000/svg"><path d="m17 10.5v5.5c.5522847 0 1 .4477153 1 1 0 .5128358-.4190445 1-1 1h-14c-.55228475 0-1-.4477153-1-1 0-.5128358.41329575-1 1-1v-5.5zm-1.2396683-8.5c.4395275 0 .8275296.28699282.956194.70726645l1.1611246 3.79273355c.0773321.23513325.1223497.48730941.1223497.75 0 1.24264069-1.0073593 2.25-2.25 2.25-.8110268 0-1.5218307-.42910506-1.9177622-1.07266563-.3937405.64356057-1.1045444 1.07266563-1.9155711 1.07266563-.8106024 0-1.5210868-.42865609-1.91714038-1.0716555-.39510626.64299941-1.10559063 1.0716555-1.91619299 1.0716555-.81102676 0-1.52183066-.42910506-1.91776215-1.07266563-.39374052.64356057-1.10454442 1.07266563-1.91557118 1.07266563-1.24264069 0-2.25-1.00735931-2.25-2.25 0-.28134543.05163842-.55063005.14595453-.79889313l1.13846416-3.74196755c.12805179-.42121721.51651413-.70913932.95676542-.70913932z" fill="var(--db-icon-color, currentColor)" fill-rule="evenodd"/></svg>
