<svg id="icon" height="20" viewBox="0 0 20 20" width="20" xmlns="http://www.w3.org/2000/svg"><path d="m10.01625 17.999375c-3.47 0-6.08625-2.63875-6.08625-6.138125 0-1.375.559375-2.88125 1.660625-4.475625 0 0 2.169375-3.229375 3.158125-4.71375.28-.419375.7475-.670625 1.25125-.671875h.003125c.4 0 .7775.158125 1.056875.433125.085.065.160625.144375.223125.23875.990625 1.486875 3.165625 4.724375 3.165625 4.724375 1.094375 1.584375 1.65375 3.09 1.65375 4.465625 0 3.5-2.616875 6.138125-6.086875 6.138125zm0-13.62375c-1.080625 1.61625-2.773125 4.135625-2.773125 4.135625-.87375 1.264375-1.31375 2.388125-1.31375 3.349375 0 2.398125 1.71875 4.13875 4.08625 4.13875s4.086875-1.740625 4.086875-4.13875c0-.96125-.439375-2.084375-1.30625-3.339375-.00625-.009375-1.7-2.53-2.78-4.14625z" fill="var(--db-icon-color, currentColor)" fill-rule="evenodd"/></svg>
