<svg id="icon" height="24" viewBox="0 0 24 24" width="24" xmlns="http://www.w3.org/2000/svg"><path d="m9.13758828 16.224283c1.12644082.4619116 1.86223192 1.5591836 1.86241172 2.77731.0091121 1.6443932-1.31242172 2.9865574-2.95573329 3.0018268-1.21722631.0179674-2.32461863-.7019024-2.80292569-1.8220657-.47830707-1.1201632-.23268282-2.4184968.62170063-3.2862179s2.14810586-1.1327648 3.27454663-.6708532zm8.00018402.0000742c1.1263492.4619596 1.8620566 1.5591876 1.8622277 2.7772467.0087016 1.6445155-1.3130485 2.9865578-2.9564811 3.0018268-1.2171643.0176619-2.3243297-.7024053-2.8023997-1.8225968s-.2322566-2.4184043.6221902-3.285969 2.1481138-1.1324673 3.2744629-.6705077zm-9.09006064 1.7767941c-.40832833-.019556-.78743316.2114561-.95729068.5833368-.16985752.3718806-.09625164.8097181.18586476 1.1055986.28211639.2958804.71591377.3902016 1.09539672.2381737s.62820844-.5197804.6280653-.9286245c.01211577-.5383897-.41374144-.9850239-.9520361-.9984846zm7.99854894-.0000692c-.408165-.0189501-.78679.2123884-.9562234.5842489s-.0955786.8094104.1865214 1.1050392.7156759.3898446 1.0950027.2379435.6280694-.5193508.6282033-.928c.0117063-.5389164-.4146876-.985759-.953504-.9992316zm-2.122905-16.0010821c4.2348918 0 7.0796762 2.84622213 7.0796762 7 .0013805.05096868-.0010867.1003972-.0072026.14822539-.0004283.52237533-.0659268 1.05474721-.212491 1.55686521-.0776972.244602-.1830088.5553087-.2947348.8758495l-.1357932.3857681c-.2042378.5749288-.401783 1.1087938-.4689969 1.2734252-.4417961 1.1369963-1.5209472 1.7458315-2.729004 1.7598666h-10.46922241c-1.22759605-.0024501-2.32361364-.6341739-2.74607422-1.7996408l-.89061867-2.7526752c-.09854955-.3052323-.04632648-.63973939.14041901-.89943289.18674548-.2596935.49314152-.40185164.81068699-.40116865l1.74425-.00008246-.95930103-1.55563784c-.22474952-.36748498-.62213557-.59055846-1.04944566-.58910851h-.74218223c-.54680116 0-.99007108-.44821188-.99007108-1.00110925s.44326992-1.0011444.99007108-1.0011444h.74218223c1.1112972-.00367253 2.14471129.57662615 2.72900403 1.53246775l1.61174266 2.61453225h3.151l1.7416593-6.41080197c.1179608-.43468062.508668-.73604684.9544463-.73619803zm4.6167068 9h-13.1900624l.4549577 1.4093577c.14300579.3609152.48977974.5966596.87429066.5943784h10.47144894c.4060628-.0130598.7627504-.2763358.8987827-.6634204.0586324-.1433373.2760918-.7316953.4905824-1.3403157zm-3.8730402-6.9580073-1.3867722 5.1050073 5.7505845.00122539c-.006116-.04782819-.0085832-.09725671-.0072027-.14822539 0-3.27874535-2.1330317-4.71410887-4.3566096-4.9580073z" fill="var(--db-icon-color, currentColor)" fill-rule="evenodd"/></svg>
