<svg id="icon" height="32" viewBox="0 0 32 32" width="32" xmlns="http://www.w3.org/2000/svg"><path d="m12.4109489 8.16c1.698 0 3.08-1.382 3.08-3.08s-1.382-3.08-3.08-3.08-3.08099996 1.382-3.08099996 3.08 1.38199996 3.08 3.08099996 3.08zm0-4.16c.596 0 1.08.484 1.08 1.08s-.484 1.08-1.08 1.08-1.081-.484-1.081-1.08.485-1.08 1.081-1.08zm-1.982 5.937 2.692 2.653 2.247.577c.535.139.857.684.72 1.219-.137.534-.68.858-1.218.72l-2.507-.645c-.171-.044-.327-.133-.453-.257l-2.11999996-2.089c-.938 1.218-2.423 3.667-1.068 5.637l3.80399996 3.845c.146.147.242.337.276.541l1.098 6.701c.09.545-.28 1.059-.825 1.149-.055.009-.109.013-.163.013-.482 0-.906-.348-.986-.838l-1.046-6.387-3.63799996-3.677c-.037-.037-.07-.076-.101-.118-2.959-4.106 1.679-8.839 1.878-9.038.388-.39 1.01799996-.392 1.40999996-.006zm7.072 17.063c.8284272 0 1.5.6715729 1.5 1.5s-.6715728 1.5-1.5 1.5c-.8284271 0-1.5-.6715729-1.5-1.5s.6715729-1.5 1.5-1.5zm8.999 0c.8284272 0 1.5.6715729 1.5 1.5s-.6715728 1.5-1.5 1.5c-.8284271 0-1.5-.6715729-1.5-1.5s.6715729-1.5 1.5-1.5zm-19.33199996-6.242c.534.14.853.687.713 1.221l-1.913 7.275c-.118.449-.524.746-.967.746-.084 0-.17-.011-.255-.033-.534-.14-.853-.687-.713-1.221l1.913-7.275c.141-.534.686-.856 1.222-.713zm12.83299996-6.758c.459 0 .859.313.97.758l.811 3.242h4.219c.392 0 .748.23.91.586.163.356.101.775-.156 1.071l-2.213 2.539.811 3.244c.134.536-.191 1.079-.727 1.213-.082.02-.163.03-.244.03-.448 0-.855-.303-.969-.758l-.473-1.891-2.258 2.591c-.197.227-.475.343-.754.343-.233 0-.468-.081-.657-.246-.416-.363-.46-.994-.097-1.411l4.629-5.311h-2.802c-.459 0-.859-.313-.97-.758l-.811-3.242h-1.219c-.552 0-1-.447-1-1s.448-1 1-1z" fill="var(--db-icon-color, currentColor)" fill-rule="evenodd"/></svg>
