<svg id="icon" height="20" viewBox="0 0 20 20" width="20" xmlns="http://www.w3.org/2000/svg"><path d="m12.094 2c.25 0 .5.156.625.25l3.031 3.063c.156.187.25.437.25.687v5.438c1.25.812 2 2 2 3.656 0 1.719-.875 2.906-2.313 2.906h-1.967c-1.281 0-2.281-1-2.281-2h-2.815c0 1.063-1.031 2-2.313 2h-2c-1.373 0-2.311-1.063-2.311-2.906 0-1.625.75-2.813 2-3.625v-7.689c0-1.03.813-1.78 1.813-1.78zm-1.094 2h-5v6.719c1.156-.5 2.531-.719 4.031-.719 1.469 0 2.813.219 3.969.656v-3.656h-2.031c-.531 0-.969-.5-.969-1zm-7 11.188c0-2.126 2.438-3.188 6.031-3.188 3.219 0 5.969.75 5.969 3.188 0 .406-.125.812-.5.812h-1.781c-.156 0-.313-.094-.313-.281v-.5c0-.875-1.125-1.219-3.375-1.219-2.406 0-3.406.344-3.406 1.219v.469c0 .218-.125.312-.313.312h-1.75c-.374 0-.562-.375-.562-.813z" fill="#282D37" style="fill: currentColor;fill: var(--db-icon-color, currentColor)" fill-rule="evenodd"/></svg>