<svg id="icon" height="16" viewBox="0 0 16 16" width="16" xmlns="http://www.w3.org/2000/svg"><path d="m8.003 2a6 6 0 0 1 5.997 5.996c0 3.308-2.681 6.004-5.996 6.004-3.328 0-6.004-2.712-6.004-6.004 0-3.302 2.692-5.996 6.003-5.996zm-.25 8.146c-.596 0-1.08.47-1.08 1.09 0 .612.472 1.08 1.096 1.08.615 0 1.074-.482 1.074-1.081 0-.585-.468-1.089-1.09-1.089zm.15-6.337c-1.058 0-1.942.443-2.291.655l.718 1.717c.448-.236 1.077-.483 1.534-.483.488 0 .589.28.589.503 0 .902-1.655.857-1.655 2.447v.952h1.873v-.952c0-.63 1.658-1.024 1.658-2.794 0-1.264-1.018-2.045-2.425-2.045z" fill="#282D37" style="fill: currentColor;fill: var(--db-icon-color, currentColor)" fill-rule="evenodd"/></svg>
