<svg id="icon" height="24" viewBox="0 0 24 24" width="24" xmlns="http://www.w3.org/2000/svg"><path d="m21.6 15.2c-.043-.033-4.064-3.111-4.661-7.2h2.777a1 1 0 1 0 0-2h-2.857v-3a1 1 0 1 0 -2 0v3h-2.857a1 1 0 1 0 0 2h2.776c-.424 2.892-2.557 5.278-3.787 6.438l-2.417-6.774a1 1 0 0 0 -1.883 0l-4.63 13a1 1 0 1 0 1.884.672l1.382-3.882h4.617l1.376 3.856a.998.998 0 0 0 1.278.605.999.999 0 0 0 .606-1.277l-1.485-4.163c.864-.727 2.904-2.622 4.14-5.244 1.55 3.297 4.38 5.447 4.545 5.569a1.002 1.002 0 0 0 1.399-.201 1 1 0 0 0 -.2-1.399h-.002zm-15.563.254 1.594-4.476 1.597 4.476z" fill="#282D37" style="fill: currentColor;fill: var(--db-icon-color, currentColor)" fill-rule="evenodd"/></svg>
