<svg id="icon" height="24" viewBox="0 0 24 24" width="24" xmlns="http://www.w3.org/2000/svg"><path d="m12 1c6.065 0 11 4.935 11 10.999 0 6.065-4.935 11-11 11s-11-4.935-11-11c0-6.064 4.935-10.999 11-10.999zm1 2.059v.479a1 1 0 1 1 -2 0v-.479a9.012 9.012 0 0 0 -7.941 7.94h.48a1 1 0 1 1 0 2h-.48a9.012 9.012 0 0 0 7.941 7.941v-.479a1 1 0 1 1 2 0v.479a9.012 9.012 0 0 0 7.941-7.941h-.48a1 1 0 1 1 0-2h.48a9.012 9.012 0 0 0 -7.941-7.94zm-3.202 8.756.117.011c.544.088.918.598.833 1.144l-.262 1.665 1.312-1.059a1 1 0 1 1 1.257 1.556l-3.331 2.69a1 1 0 0 1 -1.616-.935l.664-4.228a1 1 0 0 1 1.143-.833zm5.605-5.698c.357.206.55.611.489 1.018l-.643 4.192a1 1 0 0 1 -1.976-.302l.254-1.656-1.306 1.048a1 1 0 1 1 -1.251-1.56l3.308-2.654a1 1 0 0 1 1.125-.086z" fill="#282D37" style="fill: currentColor;fill: var(--db-icon-color, currentColor)" fill-rule="evenodd"/></svg>
