<svg id="icon" height="24" viewBox="0 0 24 24" width="24" xmlns="http://www.w3.org/2000/svg"><path d="m19.5 5c1.344 0 2.5 1.03 2.5 2.344v9.156c0 1.344-1.03 2.5-2.344 2.5h-15.156c-1.344 0-2.5-1.03-2.5-2.344v-9.156c0-1.313 1.03-2.5 2.344-2.5zm.5 6h-16v5.5c0 .252.156.5.406.5h15.094c.25 0 .5-.156.5-.406zm-.406-4h-15.094c-.25 0-.5.188-.5.406v1.594h16v-1.5c0-.25-.154-.5-.406-.5zm-8.594 6c.563 0 1 .469 1 1s-.405 1-.906 1h-4.094c-.563 0-1-.438-1-1 0-.5.405-1 .906-1z" fill="#282D37" style="fill: currentColor;fill: var(--db-icon-color, currentColor)" fill-rule="evenodd"/></svg>