<svg id="icon" height="20" viewBox="0 0 20 20" width="20" xmlns="http://www.w3.org/2000/svg"><path d="m10 4c4.125 0 6.531 3.5 7.813 5.406a.936.936 0 0 1 0 1.125c-1.283 1.907-3.689 5.439-7.813 5.439s-6.531-3.531-7.813-5.438a.936.936 0 0 1 0-1.125c1.283-1.907 3.689-5.407 7.813-5.407zm0 2c-2.594 0-4.344 1.976-5.781 3.984 1.437 2.04 3.187 4.016 5.781 4.016s4.344-1.977 5.781-4.016c-1.437-2.008-3.187-3.984-5.781-3.984zm-.015 6c1.115 0 2.015-.9 2.015-1.985 0-1.115-.9-2.015-2.015-2.015-1.117 0-1.985.9-1.985 2.015 0 1.086.868 1.985 1.985 1.985z" fill="#282D37" style="fill: currentColor;fill: var(--db-icon-color, currentColor)" fill-rule="evenodd"/></svg>
