<svg id="icon" height="20" viewBox="0 0 20 20" width="20" xmlns="http://www.w3.org/2000/svg"><path d="m10 2c4.406 0 8 3.594 8 8s-3.594 8-8 8-8-3.594-8-8 3.594-8 8-8zm0 2c-3.313 0-6 2.688-6 6 0 3.313 2.688 6 6 6 3.313 0 6-2.688 6-6 0-3.313-2.688-6-6-6zm1 4v4h2v2h-6v-2h2v-2h-1.656v-2zm-1-2.938c.594 0 1.031.438 1.031 1.032 0 .593-.437 1.031-1.031 1.031a1.002 1.002 0 0 1 -1.031-1.031c0-.594.437-1.032 1.031-1.032z" fill="#282D37" style="fill: currentColor;fill: var(--db-icon-color, currentColor)" fill-rule="evenodd"/></svg>
