<svg id="icon" height="20" viewBox="0 0 20 20" width="20" xmlns="http://www.w3.org/2000/svg"><path d="m12.548 10c1.732.016 3.412.65 4.683 1.816l.486.477a1 1 0 0 1 -1.32 1.497l-.36-.349c-.864-.864-2.03-1.414-3.227-1.455-1.197-.04-1.464.004-1.806 0-.343-.002-.648.207-.73.54-.024.1.039.21.167.232.086.015.973.097 2.662.247a1 1 0 0 1 .903 1.088c-.047.51-.455.937-.971.907-.516-.029-2.282-.198-2.778-.25-.497-.052-.931-.209-1.453-.374-.348-.11-1.444-.452-3.29-1.026a1.377 1.377 0 0 0 -1.477.45c-.058.07-.055.206.112.271l3.84 1.47a7 7 0 0 0 2.176.452l6.845.007a1 1 0 0 1 1 1c0 .513-.426 1-1 1h-6.526c-.974 0-2.09-.177-2.864-.468-.515-.194-1.924-.728-4.226-1.604a2.166 2.166 0 0 1 -.911-3.387 3.377 3.377 0 0 1 3.422-1.157l2.41.739c.317-1.247 1.312-2.06 2.51-2.123zm-5.91-2.231c.284 0 1.05-.175 1.116-.188.217-.045.482.097.572.332.175.454-.224.689-.344.755-.119.067-.45.182-.724.242-.275.06-.551.09-.829.09-.6 0-1.09-.085-1.473-.256a1.935 1.935 0 0 1 -.89-.781c-.212-.35-.359-.807-.44-1.369h-.626v-.796h.597v-.625h-.597v-.795h.625c.108-.575.272-1.035.493-1.379.22-.344.524-.596.91-.757.383-.162.879-.242 1.485-.242.495 0 .943.065 1.342.194.266.091.533.368.44.724-.127.425-.545.484-.835.408a3.318 3.318 0 0 0 -.843-.114c-.429 0-.738.09-.928.27s-.322.479-.398.896h1.753v.795h-1.771v.625h1.772v.796h-1.753c.057.442.183.748.38.919.195.17.517.256.965.256z" fill="#282D37" style="fill: currentColor;fill: var(--db-icon-color, currentColor)" fill-rule="evenodd"/></svg>
