<svg id="icon" height="20" viewBox="0 0 20 20" width="20" xmlns="http://www.w3.org/2000/svg"><path d="m14.313 17.562a1.01 1.01 0 0 1 -.438-.125l-3.875-2.03-3.875 2.03a.813.813 0 0 1 -.469.125c-.593 0-1.062-.593-.968-1.156l.75-4.312-3.125-3.032a1.076 1.076 0 0 1 -.313-.718c0-.407.281-.907.844-1l4.344-.625 1.906-3.907c.156-.343.531-.562.906-.562s.75.219.906.562l1.906 3.907 4.344.625c.469.062.844.468.844 1 0 .25-.125.531-.313.718l-3.125 3.032.75 4.312a.996.996 0 0 1 -1 1.156z" fill="#282D37" style="fill: currentColor;fill: var(--db-icon-color, currentColor)" fill-rule="evenodd"/></svg>
