<svg id="icon" height="20" viewBox="0 0 20 20" width="20" xmlns="http://www.w3.org/2000/svg"><path d="m10.345 7.993c.106.502-.177 1.048-.659 1.155-.978.216-1.617.944-1.69 1.821l-.006 3.284a2 2 0 0 0 2 2c1.054 0 1.921-.815 2-2 .036-.55.447-1 1-1a1 1 0 0 1 1 1 4 4 0 0 1 -7.995.2l-.005-3.318a4 4 0 0 1 3.17-3.913 1 1 0 0 1 1.185.771zm-.355-6.34a4 4 0 0 1 3.995 3.8l.005 3.318a4 4 0 0 1 -3.171 3.913 1 1 0 1 1 -.413-1.956 2.001 2.001 0 0 0 1.577-1.791l.007-3.284a2 2 0 0 0 -2-2c-1.055 0-1.918.818-2 2-.038.55-.448 1-1 1a1 1 0 0 1 -1-1 4 4 0 0 1 4-4z" fill="#282D37" style="fill: currentColor;fill: var(--db-icon-color, currentColor)" fill-rule="evenodd" transform="matrix(.70710678 .70710678 -.70710678 .70710678 9.963837 -4.148831)"/></svg>
