<svg id="icon" height="32" viewBox="0 0 32 32" width="32" xmlns="http://www.w3.org/2000/svg"><path d="m16 2c7.719 0 14 6.281 14 14s-6.281 14-14 14-14-6.281-14-14 6.281-14 14-14zm0 2c-6.625 0-12 5.375-12 12s5.375 12 12 12 12-5.375 12-12-5.375-12-12-12zm-1 12.125v-8.125c0-.563.438-1 1-1 .5 0 1 .438 1 1v7.594l3.719 3.687a.81.81 0 0 1 .266.61c0 .448-.39 1.132-1.008 1.132a.998.998 0 0 1 -.696-.304l-4-4a1.056 1.056 0 0 1 -.281-.594z" fill="#282D37" style="fill: currentColor;fill: var(--db-icon-color, currentColor)" fill-rule="evenodd"/></svg>