<svg id="icon" height="32" viewBox="0 0 32 32" width="32" xmlns="http://www.w3.org/2000/svg"><path d="m2.005 6.003a1.01 1.01 0 0 1 1.001-1.003c2.13 0 3.999 1.66 3.999 4.01v2.85l2.298 11.561c.182.91 1.034 1.579 1.974 1.579h5.726c.564 0 1 .436 1 1s-.436 1-1 1h-5.726a3.976 3.976 0 0 1 -3.916-3.203l-2.33-11.56a3.11 3.11 0 0 1 -.031-.376v-2.851c0-1.128-.897-2.01-1.993-2.01a.985.985 0 0 1 -1.002-.997zm8 9.23c0-.847 1.16-1.233 2.04-1.233 1.632 0 2.856.888 3.174 2.43l.907 4.57h5.618c.471 0 .88.386.974.857l1.38 6.968a1.005 1.005 0 0 1 -.972 1.193c-.503 0-.91-.345-1.005-.816l-1.193-6.202h-5.65c-.47 0-.879-.296-.973-.767l-1.036-5.242c-.126-.628-.565-.991-1.193-.991-.596 0-.753.27-1.161.27-.534 0-.91-.472-.91-1.037zm2.26-9.48c1.789 0 3.233 1.476 3.233 3.265 0 1.79-1.444 3.264-3.233 3.264a3.262 3.262 0 0 1 -3.265-3.263 3.262 3.262 0 0 1 3.265-3.265zm0 2.01a1.26 1.26 0 0 0 -1.256 1.255c0 .69.565 1.256 1.256 1.256a1.26 1.26 0 0 0 1.255-1.256 1.26 1.26 0 0 0 -1.255-1.256zm8.735 9.241c0-.534.47-1.005 1.004-1.005h7.063c.565 0 1.005.47 1.005 1.005v6.026a.992.992 0 0 1 -1.005 1.005.992.992 0 0 1 -1.004-1.005v-5.02h-6.059c-.533 0-1.004-.44-1.004-1.005z" fill="#282D37" style="fill: currentColor;fill: var(--db-icon-color, currentColor)" fill-rule="evenodd"/></svg>
