<svg id="icon" height="32" viewBox="0 0 32 32" width="32" xmlns="http://www.w3.org/2000/svg"><path d="m27 2c1.563 0 3 1.156 3 3v15c0 1.563-1.123 3-3 3h-17.156c-.281 0-.485.046-.719.281l-5.406 5.439a1.04 1.04 0 0 1 -.719.28c-.469 0-1-.374-1-1v-23c0-1.563 1.254-3 3-3zm0 2h-22c-.469 0-1 .25-1 1v20.594l3.688-3.719c.605-.612 1.24-.875 2.156-.875h17.156c.469 0 1-.281 1-1v-15c0-.469-.372-1-1-1zm-11.75 11.5c.67 0 1.25.556 1.25 1.235 0 .71-.58 1.265-1.25 1.265s-1.25-.556-1.25-1.265c0-.68.58-1.235 1.25-1.235zm.47-9c1.813 0 3.125 1.094 3.125 2.781 0 2.906-2.625 2.719-2.625 4.063 0 .468-.343.968-.968.968a.973.973 0 0 1 -.969-.968c0-2.657 2.625-2.313 2.625-4.063 0-.625-.563-.844-1.125-.844-.781 0-1.406.375-1.906.344s-.907-.437-.875-.969c0-1 1.468-1.312 2.718-1.312z" fill="var(--db-icon-color, currentColor)" fill-rule="evenodd"/></svg>
