<svg id="icon" height="64" viewBox="0 0 64 64" width="64" xmlns="http://www.w3.org/2000/svg"><g fill="none" fill-rule="evenodd" transform="translate(19 11.102)"><path d="m13 0c7.18 0 13 5.82 13 13.03a15.818 15.818 0 0 1 -2.142 7.502l-.24.397-9.756 16.578a1 1 0 0 1 -1.65.11l-.074-.11-9.743-16.556a15.857 15.857 0 0 1 -2.395-7.951c0-7.18 5.82-13 13-13zm0 2c-6.075 0-11 4.925-11 10.97a13.84 13.84 0 0 0 1.88 6.57l.225.374 8.895 15.116 8.909-15.137a13.836 13.836 0 0 0 2.039-6.039l.033-.426.019-.428c0-6.075-4.925-11-11-11zm0 5.898a5 5 0 1 1 0 10 5 5 0 0 1 0-10zm0 2a3 3 0 1 0 0 6 3 3 0 0 0 0-6z" fill="#282D37" style="fill: currentColor;fill: var(--db-icon-color, currentColor)" fill-rule="nonzero"/><path d="m25 40.898a1 1 0 0 1 .117 1.993l-.117.007h-24a1 1 0 0 1 -.117-1.994l.117-.006z" fill="#EC0016" style="fill:#EC0016;fill: var(--db-icon-pulse-color, #EC0016)"/></g></svg>
