<svg id="icon" height="24" viewBox="0 0 24 24" width="24" xmlns="http://www.w3.org/2000/svg"><path d="m19.251 12.998a1.751 1.751 0 0 1 1.749 1.748v4.503a1.751 1.751 0 0 1 -1.749 1.749h-4.503a1.75 1.75 0 0 1 -1.748-1.749v-4.503a1.75 1.75 0 0 1 1.748-1.748zm-10 0a1.75 1.75 0 0 1 1.749 1.748v4.503a1.75 1.75 0 0 1 -1.748 1.749h-4.504a1.75 1.75 0 0 1 -1.748-1.749v-4.503a1.75 1.75 0 0 1 1.748-1.748h4.504zm9.749 2h-4v4h4zm-10 0h-4v4h4zm10.251-11.996a1.751 1.751 0 0 1 1.749 1.749v4.503a1.751 1.751 0 0 1 -1.749 1.748h-4.503a1.75 1.75 0 0 1 -1.748-1.748v-4.504a1.75 1.75 0 0 1 1.748-1.749h4.503zm-10 0a1.75 1.75 0 0 1 1.749 1.749v4.503a1.75 1.75 0 0 1 -1.748 1.748h-4.504a1.75 1.75 0 0 1 -1.748-1.748v-4.504a1.75 1.75 0 0 1 1.748-1.749h4.504zm9.749 1.996h-4v4h4zm-10 0h-4v4h4z" fill="#282D37" style="fill: currentColor;fill: var(--db-icon-color, currentColor)" fill-rule="evenodd"/></svg>