<svg id="icon" height="20" viewBox="0 0 20 20" width="20" xmlns="http://www.w3.org/2000/svg"><path d="m9.64 14.825c.644 0 1.034-.546 1.034-.956 0-.469-.741-1.6-.741-2.87 0-2.694 2.05-4.724 4.548-4.958l-.683.644c-.156.195-.293.449-.293.703 0 .507.468.956.996.956.253 0 .532-.092.716-.278l2.178-2.196c.185-.186.268-.454.268-.708a.89.89 0 0 0 -.273-.644l-2.207-2.225a.942.942 0 0 0 -.682-.293 1 1 0 0 0 -.996.995.95.95 0 0 0 .293.684l.449.449a6.878 6.878 0 0 0 -6.247 6.871c0 1.386.527 3.826 1.64 3.826z" fill="#282D37" style="fill: currentColor;fill: var(--db-icon-color, currentColor)" fill-rule="evenodd" transform="matrix(-1 0 0 1 25.663 0)"/></svg>
