<svg id="icon" height="20" viewBox="0 0 20 20" width="20" xmlns="http://www.w3.org/2000/svg"><path d="m4.07124828 12.0067793c1.22339321-.7842766 3.70154869-1.5685532 5.92875172-1.5685532 2.791846 0 4.8308347.9097528 6.0542279 1.5685532h.9420241c.533274 0 1.00381.4390664 1.00381 1.0038098 0 .5645426-.470536 1.0038098-1.00381 1.0038098h-.7851788c-1.0351788 2.4466861-3.5133343 4.0465581-6.2110732 3.98382-2.69773888-.0314192-5.17589436-1.5371339-6.21107323-3.98382h-.78517877c-.56464302 0-1.00381-.4392672-1.00381-1.0038098 0-.5647434.43916698-1.0038098 1.00381-1.0038098zm-1.00380982-3.32522041c0-3.70144831 3.13690568-6.68155889 6.99529964-6.68155889 3.858394 0 6.9952997 2.98011058 6.9952997 6.68155889 0 .5647434-.4391668 1.00380982-1.0038099 1.00380982-.564643 0-1.0038098-.43906642-1.0038098-1.00380982 0-2.57216227-2.227203-4.64262039-4.98768-4.64262039-2.72910792 0-4.95631095 2.07045812-4.95631095 4.64262039 0 .5647434-.47053585 1.00380982-1.03517887 1.00380982-.53327397 0-1.00380982-.43906642-1.00380982-1.00380982zm2.69773888 4.79951591c.81559548 1.5997717 2.44678643 2.5095245 4.23482266 2.5409437 1.7880362.0313189 3.4192272-.9097528 4.2348227-2.5095245-1.3488695-.6902196-2.7918461-1.0352291-4.2348227-1.0666483-1.44297661.0314192-2.82321511.4392672-4.23482266 1.0352291z" fill="var(--db-icon-color, currentColor)" fill-rule="evenodd"/></svg>
