<svg id="icon" height="32" viewBox="0 0 32 32" width="32" xmlns="http://www.w3.org/2000/svg"><path d="m27.707 4.293c.36.36.428.986 0 1.414a62372.483 62372.483 0 0 1 -22 22 1 1 0 0 1 -1.414 0 1.01 1.01 0 0 1 0-1.414c1.844-1.848 3.69-3.694 5.539-5.54a1.045 1.045 0 0 1 -.363-.784c0-.188.062-.36.183-.535 1.181-1.714 2.882-2.896 4.803-3.306l3.015-3.014a9.563 9.563 0 0 0 -1.47-.114c-3.344 0-6.473 1.719-8.436 4.564-.193.28-.533.405-.845.405a.98.98 0 0 1 -.969-1c0-.188.063-.412.19-.593 2.337-3.345 6.06-5.376 10.06-5.376 1.076 0 2.134.15 3.151.434l2.364-2.365a14.751 14.751 0 0 0 -5.515-1.069c-4.844 0-9.304 2.344-12.191 6.31-.207.284-.528.44-.84.44-.563 0-.969-.469-.969-1 0-.219.063-.415.19-.592 3.241-4.47 8.31-7.158 13.81-7.158 2.477 0 4.867.539 7.042 1.543l3.25-3.25a1 1 0 0 1 1.415 0zm-11.723 16.707c1.634 0 3.016 1.375 3.016 3.031 0 1.625-1.382 2.969-3.016 2.969-1.633 0-2.984-1.344-2.984-2.969 0-1.656 1.35-3.031 2.984-3.031zm0 2c-.54 0-.984.468-.984 1.031 0 .532.444.969.984.969s1.016-.438 1.016-.969c0-.561-.476-1.031-1.016-1.031zm3.416-6.185c1.143.598 2.142 1.494 2.917 2.62a.92.92 0 0 1 .183.534c0 .312-.188.648-.466.847a.904.904 0 0 1 -.534.184c-.344 0-.653-.188-.845-.468-.701-1.026-1.665-1.793-2.762-2.21zm3.554-3.554a12.912 12.912 0 0 1 3.076 3.115c.126.181.189.405.189.593 0 .562-.469 1-.969 1-.313 0-.636-.125-.839-.41a11.293 11.293 0 0 0 -2.905-2.85zm3.567-3.568a17.558 17.558 0 0 1 3.289 3.465c.128.177.19.373.19.592 0 .531-.406 1-.969 1-.312 0-.633-.156-.84-.44a15.653 15.653 0 0 0 -3.096-3.19z" fill="#282D37" style="fill: currentColor;fill: var(--db-icon-color, currentColor)" fill-rule="evenodd"/></svg>
