<svg id="icon" height="20" viewBox="0 0 20 20" width="20" xmlns="http://www.w3.org/2000/svg"><path d="m3 17.9999996c-.55228475 0-1-.4477149-1-1 0-.5128354.41773891-1 1-1l.00027101-6.40452565c-.61649357-.59148108-1.00027101-1.4236595-1.00027101-2.34547395 0-.29342165.03914692-.58238528.11738866-.86617449l.72336083-2.86733548c.19589305-.78626026.91853071-1.5164904 1.94067465-1.5164904h10.43540746c.8658347 0 1.7028652.57802893 1.9416043 1.5164904l.7364832 2.86733548c.0700539.27309563.1050809.56182046.1050809.86617449 0 .92130712-.3833551 1.75307685-.9992533 2.34449715l-.0007467 6.40550245c.5522847 0 1 .4477157 1 1 0 .5128362-.4022646 1-1 1zm12-3.9999996h-10v2h10zm-1.834-3.913c-.5015879.2753333-1.0291435.413-1.5826667.413-.5535231 0-1.0813009-.1376667-1.5833333-.413-.49365298.2753333-1.02143076.413-1.58333333.413-.56190258 0-1.08979147-.1376667-1.58366667-.413-.58773906.317199-1.19862231.4517171-1.83264974.4035542l-.00035026 1.5094458h10v-1.5c-.6893183.0322537-1.3006517-.1054129-1.834-.413zm2.0508316-6.087h-10.43540746l-.74349079 3.01029288c-.02036943.09002899-.03793862.14472817-.03793862.23970712 0 .69035594.55964933 1.25 1.25000527 1.25.50245042 0 1.03020259-.35 1.58325653-1.05.57516645.7 1.10296983 1.05 1.58341014 1.05.4804403 0 1.0081829-.35 1.58322781-1.05.59583832.7 1.12365132 1.05 1.58343882 1.05.4597876 0 .9869775-.35 1.5815698-1.05.5830542.7 1.1114199 1.05 1.5850969 1.05.6903559 0 1.2500937-.55964406 1.2500937-1.25 0-.10387656.001156-.14186104-.0231526-.23970712z" fill="var(--db-icon-color, currentColor)" fill-rule="evenodd"/></svg>
