<svg id="icon" height="64" viewBox="0 0 64 64" width="64" xmlns="http://www.w3.org/2000/svg"><g fill="none" fill-rule="evenodd"><path d="m52.945 18.674a1 1 0 0 1 -.619 1.271c-1.744.603-3 2.713-3.24 4.654a9.553 9.553 0 0 0 -.082 1.03l-.003.35v10.365c2.209-2.733 3.95-6 5.041-9.632a1 1 0 1 1 1.916.576c-1.434 4.768-3.92 8.96-7.11 12.24a.999.999 0 0 1 -.312.316l-.24.237c-4.458 4.327-10.184 6.919-16.296 6.919-6.225 0-12.048-2.688-16.538-7.157a1 1 0 0 1 -.311-.315c-3.19-3.28-5.675-7.472-7.109-12.24a1 1 0 0 1 1.916-.576c1.092 3.632 2.832 6.9 5.042 9.633v-6.167l-.001-.033v-3.964a9.765 9.765 0 0 0 -.084-1.367 4.98 4.98 0 0 0 -3.253-4.018 1 1 0 1 1 .676-1.883 6.98 6.98 0 0 1 4.52 5.377c.134-.068.274-.126.419-.173l13.722-3.975a3.609 3.609 0 0 1 1.756-.062l.247.062 13.517 3.915c.207.054.405.128.593.219l-.01.07c.323-2.613 1.98-5.396 4.572-6.291a1 1 0 0 1 1.271.619zm-21.214 3.349-.177.04-13.56 3.927c-.533.141-.92.592-.984 1.115l-.01.132v11.313c4.114 4.037 9.395 6.45 15 6.45s10.886-2.413 15-6.45v-11.293a1.34 1.34 0 0 0 -.881-1.23l-.135-.043-13.538-3.92a1.609 1.609 0 0 0 -.715-.041z" fill="var(--db-icon-color, currentColor)" fill-rule="nonzero"/><path d="m43.766 33.358a1 1 0 0 1 -.124 1.408 18.125 18.125 0 0 1 -23.284 0 1 1 0 0 1 1.284-1.532 16.125 16.125 0 0 0 20.716 0 1 1 0 0 1 1.408.124zm-4.966-5.958a1 1 0 0 1 -.2 1.4 11 11 0 0 1 -13.2 0 1 1 0 0 1 1.2-1.6 9 9 0 0 0 10.8 0 1 1 0 0 1 1.4.2z" fill="var(--db-icon-pulse-color, #EC0016)"/><path d="m0 0h64l-64 64z" fill="#ffd800" fill-opacity=".8"/><path d="m15.14 31.776.547.544c.043-.444.111-.788.206-1.031.094-.243.246-.47.457-.679.369-.367.806-.504 1.312-.41.507.094 1.028.408 1.564.942.554.55.872 1.102.956 1.655s-.078 1.033-.486 1.438c-.171.171-.373.31-.605.417a3.181 3.181 0 0 1 -.824.237l1.584 1.575-.599.596-4.55-4.528c.094-.103.173-.213.235-.33a.773.773 0 0 0 .1-.324zm23.995-26.776 4.865 4.842-.393.39-.598-.287c-.03.43-.096.778-.196 1.04a2.009 2.009 0 0 1 -.467.708c-.378.376-.822.519-1.332.43-.51-.09-1.034-.402-1.57-.936-.55-.546-.876-1.089-.979-1.627s.063-1.022.496-1.454c.18-.179.385-.32.614-.426.23-.104.506-.18.827-.227l-1.705-1.697c.094-.103.174-.214.238-.333a.773.773 0 0 0 .103-.327zm-26.916 29.72c.442-.44.916-.64 1.423-.601.506.038 1.016.313 1.531.826l.27.269-2.2 2.19c.42.419.793.643 1.12.673.326.03.664-.13 1.016-.48a2.58 2.58 0 0 0 .415-.523 2.46 2.46 0 0 0 .109-.21l.123-.282.138-.356.496.493a3.854 3.854 0 0 1 -.348.762c-.128.21-.287.408-.476.596-.528.525-1.072.775-1.634.75-.563-.026-1.131-.325-1.706-.898-.566-.563-.873-1.12-.92-1.671s.167-1.063.643-1.537zm10.281-10.23c.442-.44.916-.64 1.423-.602.506.038 1.016.313 1.531.826l.27.269-2.2 2.19c.42.419.793.643 1.12.673.325.03.664-.13 1.016-.48a2.64 2.64 0 0 0 .415-.522c.034-.058.07-.128.109-.21l.123-.283.138-.356.496.493a3.854 3.854 0 0 1 -.348.762c-.128.21-.287.408-.476.596-.528.525-1.073.775-1.635.75-.562-.026-1.13-.325-1.705-.897-.566-.564-.873-1.121-.92-1.672-.048-.551.167-1.063.643-1.537zm6.735-6.703c.421-.419.825-.63 1.214-.631.388-.003.79.204 1.206.618l1.5 1.492c.107.107.2.162.277.167.077.004.16-.039.25-.129.06-.06.114-.13.161-.21l.4.396c-.1.2-.215.367-.348.5-.159.158-.325.244-.499.26-.174.014-.363-.038-.57-.158.013.363-.024.674-.112.932a1.764 1.764 0 0 1 -.434.689c-.292.29-.601.435-.927.435s-.64-.15-.94-.448c-.3-.299-.45-.593-.447-.88.002-.289.108-.585.318-.888l.086-.12.209-.275.26-.323.313-.372.175-.204-.277-.275c-.261-.26-.498-.396-.71-.407-.213-.01-.435.1-.667.33a2.83 2.83 0 0 0 -.45.583c-.13.218-.26.5-.393.845l-.483-.48c.108-.303.232-.57.374-.8.141-.231.313-.447.514-.647zm6.298-6.268c.442-.44.916-.64 1.422-.602.507.038 1.017.314 1.532.826l.27.269-2.2 2.19c.42.419.793.643 1.12.673.325.03.664-.13 1.016-.48a2.61 2.61 0 0 0 .415-.522c.1-.173.224-.456.37-.849l.496.493a3.854 3.854 0 0 1 -.348.762 3.21 3.21 0 0 1 -.476.596c-.528.525-1.073.775-1.635.75-.562-.026-1.13-.325-1.705-.897-.566-.564-.873-1.121-.92-1.672-.048-.55.167-1.063.643-1.537zm-9.366 9.321a3.36 3.36 0 0 1 .496-.41 4.56 4.56 0 0 1 .637-.346l.534.532c-.335.137-.58.25-.734.34a2.31 2.31 0 0 0 -.463.365c-.236.234-.379.453-.428.656-.05.203-.012.422.113.657.124.235.351.516.682.845.33.329.615.555.856.679.24.124.466.16.679.106.212-.054.436-.198.672-.433.163-.162.283-.313.36-.454l.036-.069.084-.185.16-.4.062-.166.495.493a4.003 4.003 0 0 1 -.322.724c-.115.196-.26.38-.43.55-1.026 1.021-2.127.946-3.302-.224-.57-.568-.871-1.127-.901-1.678-.03-.55.208-1.078.714-1.582zm5.596-6.889.721.718.914-.91.431.43-.914.909 1.957 1.947c.201.2.389.302.563.304s.357-.093.55-.285c.073-.072.136-.146.19-.22a2.42 2.42 0 0 0 .183-.318l.432.43a2.1 2.1 0 0 1 -.19.348 2.165 2.165 0 0 1 -.255.298c-.36.359-.716.534-1.068.525-.352-.008-.714-.198-1.087-.57l-1.873-1.864-.496.494-.431-.43.122-.121c.15-.15.234-.288.251-.416.017-.129-.03-.29-.141-.487l-.232-.41zm-12.46 13.682.566.564c.052-.718.234-1.262.548-1.634l.579.577c-.408.5-.678.956-.811 1.37l2.098 2.089.566-.564.431.43-1.68 1.67-.43-.428.514-.513-2.387-2.376-.502.5-.457-.455.257-.256c.185-.184.32-.34.406-.468.085-.128.141-.252.167-.371zm-12.655 10.07c.66-.657 1.363-.952 2.107-.886.745.066 1.484.464 2.217 1.194.751.748 1.16 1.498 1.226 2.252.067.753-.232 1.461-.898 2.123l-1.62 1.614-4.68-4.656 1.648-1.64zm25.779-17.97-.721-.717-.284.324-.232.282-.182.24c-.026.037-.05.072-.071.105-.153.233-.226.434-.22.602.007.17.096.339.268.51.184.183.356.28.515.288s.324-.073.495-.243c.322-.32.466-.784.432-1.39zm7.177-11.28c-.291.29-.402.594-.331.912.07.318.338.708.801 1.169.4.397.763.652 1.091.765s.634.03.917-.253c.155-.153.272-.325.35-.515.08-.19.154-.469.223-.836l-1.847-1.838a3.32 3.32 0 0 0 -.705.227 1.91 1.91 0 0 0 -.499.368zm-22.971 22.861c-.155.153-.266.31-.335.467l-.063.17-.035.11-.075.271-.084.34 1.86 1.85c.291-.068.523-.145.695-.23.171-.086.339-.21.502-.372.287-.286.39-.595.309-.928-.082-.333-.359-.735-.83-1.204-.43-.427-.795-.678-1.098-.753-.302-.075-.585.018-.846.279zm-9.586 6.927-.953.948 3.74 3.721.952-.948c.48-.478.684-.984.611-1.518s-.427-1.116-1.062-1.748c-.648-.645-1.235-1.004-1.763-1.076-.528-.073-1.036.134-1.525.62zm5.59-3.092c-.278.277-.395.562-.35.855.045.292.218.614.518.964l1.557-1.55c-.39-.346-.713-.54-.968-.58s-.507.063-.756.31zm10.28-10.231c-.278.277-.395.562-.35.855.045.292.218.614.518.964l1.557-1.55c-.39-.346-.713-.54-.968-.58-.256-.04-.508.063-.756.31zm13.033-12.97c-.278.278-.395.563-.35.855.045.293.217.614.518.964l1.557-1.55c-.39-.346-.713-.54-.968-.58-.256-.04-.508.063-.757.311z" fill="#740009" fill-rule="nonzero"/></g></svg>
