<svg id="icon" height="64" viewBox="0 0 64 64" width="64" xmlns="http://www.w3.org/2000/svg"><g fill="none" fill-rule="evenodd" transform="translate(3.873 13.024)"><path d="m43.127 23.976a7 7 0 1 1 0 14 7 7 0 0 1 0-14zm-30 0a7 7 0 1 1 0 14 7 7 0 0 1 0-14zm30 2a5 5 0 1 0 0 10 5 5 0 0 0 0-10zm-30 0a5 5 0 1 0 0 10 5 5 0 0 0 0-10zm30.68-25.976c4.313-.002 7.978 3.12 8.678 7.323l.04.259 3.426 20.89a2.92 2.92 0 0 1 -2.808 3.528 1 1 0 0 1 -.15-1.991l.117-.009a.921.921 0 0 0 .705-.347.924.924 0 0 0 .192-.678l-3.46-21.095a6.797 6.797 0 0 0 -6.497-5.875l-.242-.005h-38.764a2.132 2.132 0 0 0 -2.08 1.658l-.023.122-.936 24.955c-.021.282.06.561.225.786l.09.108c.194.207.454.335.733.365l.14.006a1 1 0 1 1 .026 2 3.178 3.178 0 0 1 -3.219-3.181l.945-25.18.01-.108a4.132 4.132 0 0 1 3.886-3.526l.204-.005h38.763zm2.32 5.976a1 1 0 0 1 .116 1.993l-.116.007h-14v8h16a1 1 0 0 1 .116 1.993l-.116.007h-16a2 2 0 0 1 -1.995-1.85l-.005-.15v-8a2 2 0 0 1 1.85-1.995l.15-.005zm-23-.02a2 2 0 0 1 1.994 1.851l.006.15v8a2 2 0 0 1 -1.851 1.994l-.15.005h-14a2 2 0 0 1 -1.994-1.85l-.005-.15v-8a2 2 0 0 1 1.85-1.994l.15-.006zm0 2h-14v8h14z" fill="var(--db-icon-color, currentColor)" fill-rule="nonzero"/><path d="m33.127 30.976a1 1 0 0 1 .116 1.993l-.116.007h-10a1 1 0 0 1 -.117-1.993l.117-.007z" fill="var(--db-icon-pulse-color, #EC0016)"/></g></svg>
