<svg id="icon" height="32" viewBox="0 0 32 32" width="32" xmlns="http://www.w3.org/2000/svg"><path d="m1.9998 24.9687c0 .562.437 1.031 1 1.031h8c.563 0 1-.469 1-1.031v-6.937c0-1.657-1.344-3.032-3-3.032h-4c-1.656 0-3 1.375-3 3.032zm5-18.969c1.937 0 3.5 1.594 3.5 3.5 0 1.938-1.563 3.5-3.5 3.5s-3.5-1.562-3.5-3.5c0-1.906 1.563-3.5 3.5-3.5zm8 11.0013h3c.562 0 1 .437 1 .968v7.03c0 .531.437 1 1 1 .562 0 1-.469 1-1.031v-6.999c0-1.625-1.344-2.969-3-2.969h-3c-.562 0-1 .438-1 1 0 .532.438 1.001 1 1.001zm4.375-7.5013c0 1.938-1.562 3.5-3.5 3.5-1.937 0-3.5-1.562-3.5-3.5 0-1.906 1.563-3.5 3.5-3.5 1.938 0 3.5 1.594 3.5 3.5zm-3.5-1.5c-.844 0-1.5.688-1.5 1.5 0 .844.656 1.5 1.5 1.5.813 0 1.5-.656 1.5-1.5 0-.812-.687-1.5-1.5-1.5zm8.125 9.0013h3c.562 0 1 .437 1 .968v7.03c0 .531.437 1 1 1 .562 0 1-.469 1-1.031v-6.999c0-1.625-1.344-2.969-3-2.969h-3c-.563 0-1 .438-1 1 0 .532.437 1.001 1 1.001zm4.5-7.5013c0 1.938-1.563 3.5-3.5 3.5-1.938 0-3.5-1.562-3.5-3.5 0-1.906 1.562-3.5 3.5-3.5 1.937 0 3.5 1.594 3.5 3.5zm-3.5-1.5c-.813 0-1.5.688-1.5 1.5 0 .844.687 1.5 1.5 1.5.812 0 1.5-.656 1.5-1.5 0-.812-.688-1.5-1.5-1.5z" fill="var(--db-icon-color, currentColor)" fill-rule="evenodd"/></svg>
