<svg id="icon" height="64" viewBox="0 0 64 64" width="64" xmlns="http://www.w3.org/2000/svg"><g fill="none" fill-rule="evenodd" transform="translate(7 7)"><path d="m17.576 1.114c12.23-3.776 25.333 2.325 30.315 14.116a24.923 24.923 0 0 1 1.965 9.732c-.017 12.8-9.726 23.508-22.463 24.773-.7.07-1.397.109-2.089.12a.993.993 0 0 1 -.9-.001 24.915 24.915 0 0 1 -16.754-6.958 1.006 1.006 0 0 1 -.278-.27 24.852 24.852 0 0 1 -6.876-12.762c-2.533-12.547 4.849-24.974 17.08-28.75zm8.28.905v1.609a1 1 0 0 1 -1.994.116l-.006-.116v-1.602c-1.894.09-3.803.416-5.69.999a22.848 22.848 0 0 0 -9.009 5.263l1.01 1.01a1 1 0 0 1 -1.327 1.492l-.087-.078-.985-.986a22.95 22.95 0 0 0 -5.762 14.674h1.077a1 1 0 0 1 .117 1.994l-.117.006h-1.033c.066 1.018.201 2.043.408 3.068a22.844 22.844 0 0 0 5.76 11.158l.536-.537a1 1 0 0 1 1.492 1.327l-.078.087-.519.519a22.908 22.908 0 0 0 14.207 5.812v-.661a1 1 0 0 1 1.994-.117l.007.117v.666a22.85 22.85 0 0 0 14.278-5.747l-.59-.59a1 1 0 0 1 1.327-1.491l.087.078.612.612a22.875 22.875 0 0 0 6.24-14.3h-1.182a1 1 0 0 1 -.116-1.994l.116-.007h1.222a22.923 22.923 0 0 0 -1.802-8.391 22.89 22.89 0 0 0 -4.024-6.362l-1.066 1.065a1 1 0 0 1 -1.492-1.327l.078-.087 1.082-1.083a22.987 22.987 0 0 0 -14.77-6.196zm-6.14 22.85a1 1 0 0 1 .803 1.059l-.016.116-2.067 10.473 8.404-7.842a1 1 0 0 1 1.322-.038l.091.086a1 1 0 0 1 .038 1.322l-.086.092-10.667 9.955c-.682.637-1.764.075-1.68-.816l.017-.108 2.666-13.512a1 1 0 0 1 1.175-.787zm4.46-1.55a1.778 1.778 0 1 1 1.36 3.285 1.778 1.778 0 0 1 -1.36-3.285z" fill="var(--db-icon-color, currentColor)" fill-rule="nonzero"/><path d="m32.078 10.005c.676-.626 1.744-.08 1.677.8l-.014.112-2.568 14.222a1 1 0 0 1 -1.982-.24l.014-.115 2.037-11.282-8.374 7.749a1 1 0 0 1 -1.322.032l-.091-.087a1 1 0 0 1 -.032-1.322l.087-.091z" fill="var(--db-icon-pulse-color, #EC0016)"/></g></svg>
