<svg id="icon" height="24" viewBox="0 0 24 24" width="24" xmlns="http://www.w3.org/2000/svg"><path d="m12 2c5.523 0 10 4.477 10 10s-4.477 10-10 10-10-4.477-10-10 4.477-10 10-10zm0 2a8 8 0 1 0 0 16 8 8 0 0 0 0-16zm-3.163 2.865.117.007a1 1 0 0 1 .876.877l.007.116v3.172h4.326v-3.172a1 1 0 0 1 .883-.993l.117-.007h.1a1 1 0 0 1 .993.884l.007.116v8.178a1 1 0 0 1 -.883.994l-.117.006h-.1a1 1 0 0 1 -.993-.883l-.007-.117v-3.423h-4.326v3.424a1 1 0 0 1 -.883.994l-.117.006h-.1a1 1 0 0 1 -.993-.883l-.007-.117v-8.179a1 1 0 0 1 .883-.993l.117-.007z" fill="#282D37" style="fill: currentColor;fill: var(--db-icon-color, currentColor)" fill-rule="evenodd"/></svg>
