<svg id="icon" height="20" viewBox="0 0 20 20" width="20" xmlns="http://www.w3.org/2000/svg"><path d="m9.99 2c3.398 0 5.663 2.498 5.663 6.224v3.903c0 1.249.156 1.483.878 2.01.313.214.469.526.469.839 0 .468-.35.995-.898.995h-4.1v.02a2.008 2.008 0 0 1 -2.012 2.009c-1.035 0-2.01-.898-2.01-2.03h-3.985c-.625 0-.996-.507-.996-1.014 0-.273.098-.546.352-.741.82-.527.976-.82.976-2.147v-3.57c.001-3.883 2.207-6.498 5.663-6.498zm.02 2.01c-2.207 0-3.671 1.541-3.671 4.234v3.336c0 .957-.059 1.62-.254 2.42h7.83c-.176-.644-.254-1.249-.254-2.439v-3.063c0-2.85-1.386-4.488-3.651-4.488z" fill="#282D37" style="fill: currentColor;fill: var(--db-icon-color, currentColor)" fill-rule="evenodd"/></svg>
