<svg id="icon" height="24" viewBox="0 0 24 24" width="24" xmlns="http://www.w3.org/2000/svg"><path d="m12 2c2.188 0 3.969 1.563 3.969 4h2.031c.5 0 .938.406.969.938l1.062 12.968c.032.594-.437 1.094-1 1.094h-14.061c-.563 0-1.032-.5-1-1.094l1.03-12.968a.995.995 0 0 1 1-.938h2c0-2.438 1.813-4 4-4zm5.063 6h-10.158l-.843 11h11.875l-.875-11zm-5.094-4c-1.125 0-1.969.844-1.969 2h3.969c0-1.25-.938-2-2-2zm2 7c0 1.188-.875 2-1.969 2-1.031 0-2.031-.75-2.031-2 0-.563-.469-1-.969-1-.563 0-1 .438-1 1 0 2.219 1.781 4 3.969 4 2.219 0 4-1.781 4-4 0-.563-.469-1-1-1-.563 0-1 .438-1 1z" fill="#282D37" style="fill: currentColor;fill: var(--db-icon-color, currentColor)" fill-rule="evenodd"/></svg>