<svg id="icon" height="24" viewBox="0 0 24 24" width="24" xmlns="http://www.w3.org/2000/svg"><path d="m5 16a2 2 0 1 1 0 4 2 2 0 0 1 0-4zm10 0a2 2 0 1 1 0 4 2 2 0 0 1 0-4zm-3.62.74a.85.85 0 0 1 -.662 1.562 1.63 1.63 0 0 0 -.679-.19 1.437 1.437 0 0 0 -.659.148.85.85 0 1 1 -.76-1.52 3.086 3.086 0 0 1 2.76 0zm6.646-12.59a2.31 2.31 0 0 1 2.24 1.744l1.597 8.957a.85.85 0 0 1 -.63.973l-2.42.965a.85.85 0 0 1 -.631-1.578l1.883-.754-1.438-8.103a.603.603 0 0 0 -.601-.504.85.85 0 0 1 0-1.7zm-1.026 4.85c.47 0 .85.38.85.85a.86.86 0 0 1 -.85.85v1.8c0 1.248-1.304 2.5-2.5 2.5h-9c-1.196 0-2.5-1.252-2.5-2.5v-1.8a.853.853 0 0 1 -.85-.85c0-.433.353-.85.85-.85z" fill="var(--db-icon-color, currentColor)" fill-rule="evenodd"/></svg>
