<svg id="icon" height="32" viewBox="0 0 32 32" width="32" xmlns="http://www.w3.org/2000/svg"><path d="m23.844 2c.718 0 1.437.281 2.093.938l3.157 3.156c.562.593.906 1.343.906 2.156 0 .719-.25 1.438-.906 2.094l-17.032 16.969c-.374.375-.75.656-1.437.812l-7.375 1.813c-.094.03-.219.03-.313.03a.94.94 0 0 1 -.937-.936c0-.093 0-.187.031-.281l1.844-7.437c.125-.594.375-.97.813-1.407l17-16.968c.562-.564 1.342-.939 2.155-.939zm-18.344 20.969-1.156 4.656 4.625-1.156zm14.969-16-14.063 14.031 4.532 4.594 14.062-14.064-4.531-4.56zm3.343-2.938c-.25 0-.5.094-.718.313l-1.219 1.218 4.563 4.594 1.25-1.25c.156-.156.312-.406.312-.719 0-.218-.094-.437-.313-.687l-3.156-3.156a1.017 1.017 0 0 0 -.718-.313z" fill="var(--db-icon-color, currentColor)" fill-rule="evenodd"/></svg>
