<svg id="icon" height="24" viewBox="0 0 24 24" width="24" xmlns="http://www.w3.org/2000/svg"><path d="m7 22c.25 0 .5-.094.719-.281l4-4c.187-.219.281-.469.281-.719 0-.563-.469-1-1-1-.25 0-.5.094-.688.313l-2.312 2.28v-8.593c0-.563-.438-1-1-1-.563 0-1 .438-1 1v8.594l-2.313-2.282a.886.886 0 0 0 -.687-.312c-.563 0-1 .469-1 1 0 .25.094.5.281.719l4 4c.219.187.469.281.719.281zm10-7c.563 0 1-.438 1-1v-8.594l2.313 2.313a.97.97 0 0 0 .687.281c.594 0 1-.438 1-1a.97.97 0 0 0 -.281-.688l-4-4.03a1.101 1.101 0 0 0 -.719-.282.97.97 0 0 0 -.688.281l-4.03 4.031a.97.97 0 0 0 -.282.688c0 .594.438 1 1 1 .25 0 .5-.094.719-.281l2.281-2.313v8.594c0 .563.438 1 1 1z" fill="#282D37" style="fill: currentColor;fill: var(--db-icon-color, currentColor)" fill-rule="evenodd"/></svg>
