<svg id="icon" height="24" viewBox="0 0 24 24" width="24" xmlns="http://www.w3.org/2000/svg"><path d="m17.4 2a1 1 0 0 1 .608.206 535.35 535.35 0 0 1 3.7 3.687c.212.228.263.39.292.607v13c0 1.325-1 2.5-2.5 2.5h-15c-1.325 0-2.5-1-2.5-2.5v-15c0-1.325 1-2.5 2.5-2.5zm-11.4 2h-1.5c-.245 0-.5.256-.5.5v15c0 .245.265.5.5.5h1.5v-7c0-.513.482-1 1-1h10c.513 0 1 .534 1 1v7h1.5c.245 0 .5-.262.5-.5v-12.485l-3.015-3.015h-2.985v3c0 .513-.497 1-.999 1h-6.001c-.513 0-1-.504-1-1zm10 10h-8v6h8zm-4-10h-4v2h4z" fill="#282D37" style="fill: currentColor;fill: var(--db-icon-color, currentColor)" fill-rule="evenodd"/></svg>