<svg id="icon" height="20" viewBox="0 0 20 20" width="20" xmlns="http://www.w3.org/2000/svg"><path d="m14.45 7.396s-2.175-3.237-3.166-4.724a1.019 1.019 0 0 0 -.223-.239 1.505 1.505 0 0 0 -1.057-.433h-.003a1.507 1.507 0 0 0 -1.251.672c-.99 1.484-3.16 4.714-3.16 4.714-1.1 1.594-1.66 3.1-1.66 4.476 0 3.5 2.617 6.138 6.087 6.138s6.087-2.639 6.087-6.138c0-1.375-.56-2.881-1.654-4.466zm-3.505 5.998a.536.536 0 0 1 -1.071 0v-1.668h-1.708v1.668a.536.536 0 0 1 -1.07 0v-4.036a.536.536 0 0 1 1.07 0v1.559h1.708v-1.559a.536.536 0 0 1 1.071 0zm1.995 1.785h-1.286a.292.292 0 0 1 -.282-.215.29.29 0 0 1 .027-.223.583.583 0 0 1 .116-.141l.12-.109a7.3 7.3 0 0 0 .442-.432c.094-.1.173-.214.234-.336a.788.788 0 0 0 .076-.343c0-.101-.021-.175-.063-.217-.042-.043-.114-.064-.214-.064a.839.839 0 0 0 -.257.04l-.018.006h-.002a.267.267 0 0 1 -.336-.164l-.005-.014a.292.292 0 0 1 .156-.362c.054-.026.112-.048.17-.065.126-.035.262-.053.407-.053.293 0 .52.075.675.22.156.148.235.363.235.64a1.1 1.1 0 0 1 -.11.498c-.079.154-.18.293-.3.415l-.049.05c-.08.08-.172.167-.276.264h.59l.03.001a.28.28 0 0 1 .248.309.33.33 0 0 1 -.328.294z" fill="var(--db-icon-color, currentColor)" fill-rule="evenodd"/></svg>
