<svg id="icon" height="32" viewBox="0 0 32 32" width="32" xmlns="http://www.w3.org/2000/svg"><path d="m23.883 14.037-.617-2.029 2.738-.008a.995.995 0 0 0 .704-.293l1-1a.999.999 0 1 0 -1.414-1.414l-.708.708-2.927.01-.701-2.302a1 1 0 0 0 -.957-.709h-3a1 1 0 1 0 0 2h2.259l.567 1.863-5.449 6.608-2.488-7.466h.109a1 1 0 1 0 .002-2l-1.422-.002-1.578-.003a1 1 0 1 0 -.002 2h.781l.96 2.881-1.537 1.835a5.44 5.44 0 0 0 -2.703-.716 5.506 5.506 0 0 0 -5.5 5.5c0 3.032 2.467 5.5 5.5 5.5 2.691 0 4.932-1.944 5.404-4.5h2.096a.99.99 0 0 0 .407-.091c.034-.015.06-.043.092-.062a.976.976 0 0 0 .238-.185c.01-.011.025-.015.034-.026l5.753-6.978.445 1.464a5.502 5.502 0 0 0 -2.97 4.878c0 3.032 2.467 5.5 5.5 5.5s5.5-2.468 5.5-5.5-2.467-5.5-5.5-5.5c-.207 0-.413.014-.616.037zm-10.27 4.463h-3.971l2.84-3.392zm-6.112 4.5c-1.93 0-3.5-1.57-3.5-3.5s1.57-3.5 3.5-3.5c.485 0 .948.108 1.381.294l-2.147 2.564c-.03.035-.04.079-.064.117-.038.061-.077.118-.102.187-.024.067-.031.134-.041.203-.007.046-.027.087-.027.135 0 .015.008.028.009.043.003.071.024.137.042.206.015.059.024.118.049.172.025.053.064.097.099.146.042.059.08.118.133.166.011.01.015.024.027.034.048.04.103.06.155.089.042.024.078.053.124.071a.99.99 0 0 0 .362.073h3.337c-.434 1.441-1.757 2.5-3.337 2.5zm17 0a3.496 3.496 0 0 1 -1.932-6.414l.975 3.205a.999.999 0 0 0 1.248.666 1 1 0 0 0 .666-1.248l-.976-3.207.02-.002c1.93 0 3.5 1.57 3.5 3.5s-1.57 3.5-3.5 3.5z" fill="#282D37" style="fill: currentColor;fill: var(--db-icon-color, currentColor)" fill-rule="evenodd"/></svg>
