<svg id="icon" height="20" viewBox="0 0 20 20" width="20" xmlns="http://www.w3.org/2000/svg"><path d="m10 3c3.866 0 7 3.134 7 7s-3.134 7-7 7-7-3.134-7-7 3.134-7 7-7zm0 2c-2.757 0-5 2.243-5 5s2.243 5 5 5 5-2.243 5-5-2.243-5-5-5zm2.018 5.72c.271 0 .54.109.737.323.374.407.347 1.04-.06 1.413-.116.107-1.18 1.043-2.698 1.043s-2.576-.929-2.692-1.035c-.405-.37-.432-.993-.066-1.401.367-.41.997-.442 1.409-.08.006.005.597.517 1.35.517.741 0 1.328-.5 1.352-.521.19-.173.43-.258.669-.258zm-4.018-3.72c.69035594 0 1.25.55964406 1.25 1.25s-.55964406 1.25-1.25 1.25-1.25-.55964406-1.25-1.25.55964406-1.25 1.25-1.25zm4 0c.6903559 0 1.25.55964406 1.25 1.25s-.5596441 1.25-1.25 1.25-1.25-.55964406-1.25-1.25.5596441-1.25 1.25-1.25z" fill="var(--db-icon-color, currentColor)" fill-rule="evenodd"/></svg>
