<svg id="icon" height="20" viewBox="0 0 20 20" width="20" xmlns="http://www.w3.org/2000/svg"><path d="m16 2a2 2 0 0 1 2 2v12a2 2 0 0 1 -2 2h-12a2 2 0 0 1 -2-2v-12a2 2 0 0 1 2-2zm-6.041 5.439c.44 0 .748.077.924.231s.264.429.264.825c0 .389-.092.667-.275.836s-.488.253-.913.253l-1.078.001v-2.146zm.077-1.438h-2.286a.75.75 0 0 0 -.75.75v6.307a.94.94 0 0 0 1.881 0v-2.303l.363-.002c.393 0 .578.09.764.297.125.138.24.307.347.506l1.22 2.027a.884.884 0 0 0 1.206.305.867.867 0 0 0 .3-1.194c-.2-.339-.507-.846-.922-1.523a3.228 3.228 0 0 0 -.468-.582 1.27 1.27 0 0 0 -.367-.236c.582-.172.985-.394 1.209-.666.293-.323.44-.778.44-1.364 0-.778-.242-1.359-.726-1.744s-1.221-.577-2.211-.577z" fill="var(--db-icon-color, currentColor)" fill-rule="evenodd"/></svg>
