<svg id="icon" height="20" viewBox="0 0 20 20" width="20" xmlns="http://www.w3.org/2000/svg"><path d="m9.996 3a3.004 3.004 0 0 1 3.004 3.004c0 1.204-.645 1.997-1.823 2.697-.062.037-.146.117-.17.285l5.544 2.407a2.404 2.404 0 0 1 -.786 4.6l-11.352.007a2.404 2.404 0 0 1 -1.124-4.53c3.808-1.655 5.711-2.484 5.711-2.486a2.43 2.43 0 0 1 .25-1.02c.194-.399.494-.737.904-.981.635-.378.845-.636.845-.978a1.003 1.003 0 0 0 -1.003-1.005c-.428 0-.91.319-1.03.765a1 1 0 1 1 -1.931-.523c.351-1.298 1.594-2.242 2.96-2.242zm-.392 7.891-5.353 2.335a.404.404 0 0 0 -.242.37c0 .195.116.367.38.404h11.198a.404.404 0 0 0 .234-.734l-5.35-2.345a1.278 1.278 0 0 0 -.475-.117c-.117 0-.247.029-.392.087z" fill="var(--db-icon-color, currentColor)" fill-rule="evenodd"/></svg>
