<svg id="icon" height="20" viewBox="0 0 20 20" width="20" xmlns="http://www.w3.org/2000/svg"><path d="m11.722 18.346c-1.833 0-3.241-.491-4.224-1.474s-1.555-2.398-1.716-4.246h-1.122a.633.633 0 0 1 -.462-.198.61.61 0 0 1 -.198-.44c0-.176.066-.323.198-.44a.633.633 0 0 1 .462-.198h1.1l-.022-2.068h-1.078a.633.633 0 0 1 -.462-.198.61.61 0 0 1 -.198-.44c0-.19.066-.345.198-.462a.633.633 0 0 1 .462-.198h1.122c.147-1.892.704-3.359 1.672-4.4.983-1.056 2.413-1.584 4.29-1.584a8.6 8.6 0 0 1 1.298.088c.381.044.821.132 1.32.264a.8.8 0 0 1 .418.286.708.708 0 0 1 .198.484.772.772 0 0 1 -.308.638.752.752 0 0 1 -.682.11 13.17 13.17 0 0 0 -1.188-.242 7.18 7.18 0 0 0 -1.012-.066c-1.35 0-2.325.367-2.926 1.1-.601.719-.953 1.826-1.056 3.322h4.092c.176 0 .323.066.44.198a.589.589 0 0 1 .198.462.61.61 0 0 1 -.198.44.564.564 0 0 1 -.44.198h-4.092l.022 2.068h4.07c.176 0 .323.066.44.198a.564.564 0 0 1 .198.44.61.61 0 0 1 -.198.44.564.564 0 0 1 -.44.198h-4.048c.117 1.012.323 1.819.616 2.42a2.957 2.957 0 0 0 1.254 1.32c.557.279 1.29.418 2.2.418a8.29 8.29 0 0 0 1.144-.066 12.08 12.08 0 0 0 1.188-.308.642.642 0 0 1 .66.11.772.772 0 0 1 .308.638.793.793 0 0 1 -.154.462.736.736 0 0 1 -.374.264 9.738 9.738 0 0 1 -2.97.462z" fill="var(--db-icon-color, currentColor)" fill-rule="evenodd"/></svg>
