<svg id="icon" height="20" viewBox="0 0 20 20" width="20" xmlns="http://www.w3.org/2000/svg"><path d="m10.016 18c-3.47 0-6.086-2.64-6.086-6.139 0-1.375.56-2.881 1.66-4.475 0 0 2.17-3.23 3.159-4.714.28-.42.747-.67 1.251-.672h.003c.4 0 .778.158 1.057.433a1 1 0 0 1 .223.239c.99 1.487 3.166 4.724 3.166 4.724 1.094 1.585 1.653 3.09 1.653 4.466 0 3.5-2.616 6.138-6.086 6.138zm0-13.624c-1.08 1.616-2.773 4.134-2.773 4.134-.873 1.266-1.313 2.39-1.313 3.351 0 2.398 1.72 4.138 4.087 4.138s4.086-1.74 4.086-4.138c0-.962-.439-2.085-1.306-3.34-.006-.01-1.7-2.53-2.78-4.146z" fill="#282D37" style="fill: currentColor;fill: var(--db-icon-color, currentColor)" fill-rule="evenodd"/></svg>
