<svg id="icon" height="32" viewBox="0 0 32 32" width="32" xmlns="http://www.w3.org/2000/svg"><path d="m6 28a1 1 0 1 1 0-2v-10.627a3.496 3.496 0 0 1 -1.447-3.488l1.303-6.29a1.992 1.992 0 0 1 1.958-1.595h16.372c.892 0 1.755.62 1.959 1.595l1.294 6.229c.04.228.061.452.061.676 0 1.189-.593 2.24-1.5 2.872v10.628a1 1 0 0 1 1 1c0 .513-.402 1-1 1zm18-6h-16v4h16zm-2.001-6.629c-.6.42-1.266.629-1.999.629s-1.4-.21-2.001-.629c-.6.42-1.266.629-1.999.629s-1.4-.21-2.001-.629c-.6.42-1.266.629-1.999.629s-1.4-.21-2.001-.629c-.62.432-1.286.642-1.999.629v4h16v-4a3.48 3.48 0 0 1 -2.001-.629zm2.187-9.371h-16.372l-1.294 6.258a1.5 1.5 0 0 0 -.019.242c0 .828.564 1.5 1.5 1.5.624 0 1.29-.5 1.999-1.5.702 1 1.37 1.5 2.001 1.5.632 0 1.298-.5 1.999-1.5.726 1 1.394 1.5 2.005 1.5.61 0 1.275-.5 1.995-1.5.71 1 1.378 1.5 2.001 1.5s1.29-.5 1.999-1.5c.725 1 1.392 1.5 2.001 1.5.914 0 1.5-.672 1.5-1.5 0-.07-.018-.235-.025-.301z" fill="#282D37" style="fill: currentColor;fill: var(--db-icon-color, currentColor)" fill-rule="evenodd"/></svg>
