<svg id="icon" height="32" viewBox="0 0 32 32" width="32" xmlns="http://www.w3.org/2000/svg"><path d="m19.222 30.173c-3.085 0-5.456-.854-7.111-2.563-1.655-1.708-2.609-4.132-2.86-7.273h-2.143c-.25 0-.477-.1-.677-.301s-.301-.427-.301-.679c0-.276.1-.502.3-.678.201-.2.427-.301.678-.301h2.107l-.038-3.807h-2.07c-.25 0-.477-.1-.677-.301s-.301-.427-.301-.678c0-.277.1-.503.3-.679.201-.2.427-.301.678-.301h2.107c.2-3.266 1.116-5.816 2.746-7.65 1.656-1.86 4.064-2.789 7.224-2.789.853 0 1.605.05 2.258.15.652.076 1.43.24 2.332.49a.95.95 0 0 1 .565.377c.175.201.263.428.263.679 0 .352-.15.64-.451.867-.276.2-.59.25-.941.15-.928-.25-1.668-.414-2.22-.49a10.57 10.57 0 0 0 -1.881-.15c-2.458 0-4.239.69-5.343 2.072-1.103 1.382-1.73 3.48-1.88 6.294h7.373c.276 0 .502.1.678.301a.86.86 0 0 1 .3.679c0 .25-.1.477-.3.678a.858.858 0 0 1 -.678.301h-7.374l.038 3.807h7.336c.276 0 .502.1.678.301a.86.86 0 0 1 .3.678c0 .252-.1.478-.3.679a.858.858 0 0 1 -.678.301h-7.299c.226 1.86.602 3.354 1.13 4.485.526 1.105 1.291 1.934 2.294 2.487 1.004.527 2.345.791 4.026.791.828 0 1.517-.05 2.07-.15.576-.1 1.316-.302 2.22-.603.325-.126.639-.076.94.15.3.201.451.49.451.867 0 .226-.075.44-.226.64-.15.177-.326.302-.526.378-1.68.527-3.386.791-5.117.791z" fill="var(--db-icon-color, currentColor)" fill-rule="evenodd"/></svg>
