<svg id="icon" height="20" viewBox="0 0 20 20" width="20" xmlns="http://www.w3.org/2000/svg"><path d="m16.001 8.995h-4.002a.999.999 0 0 1 -.999-.999v-4.002a.999.999 0 0 1 .999-.999h4.002a1 1 0 0 1 .999 1v4.001a.999.999 0 0 1 -.999 1zm0 8.01h-4.002a1 1 0 0 1 -.999-1v-4.003a1 1 0 0 1 .999-1h4.002a.998.998 0 0 1 .999 1v4.006a1 1 0 0 1 -.999.997zm-8.003-8.01h-3.999a.999.999 0 0 1 -.999-.999v-4.002a1 1 0 0 1 .999-.999h4.002a1 1 0 0 1 .999 1v4.001a.999.999 0 0 1 -1.002 1zm0 8.01h-3.999a1 1 0 0 1 -.999-1v-4.003a1 1 0 0 1 .999-1h4.002a.998.998 0 0 1 .999 1v4.006a1 1 0 0 1 -1.002.997z" fill="#282D37" style="fill: currentColor;fill: var(--db-icon-color, currentColor)" fill-rule="evenodd"/></svg>