<svg id="icon" height="24" viewBox="0 0 24 24" width="24" xmlns="http://www.w3.org/2000/svg"><path d="m6 7v-3.969c0-.561.438-1.031 1-1.031.5 0 1 .375 1 1.031v3.969a1 1 0 1 1 -2 0zm-2-3.969v4.189c0 1.5 1.219 2.75 2.75 2.75h.469c1.531 0 2.75-1.25 2.75-2.75v-2.22h.031v-1.969c0-.561.438-1.031 1-1.031.531 0 .969.469.969 1.031v4.189a4.774 4.774 0 0 1 -4 4.718v9.032c0 .56-.439 1.03-.969 1.03-.563 0-1-.469-1-1.031v-9.032a4.774 4.774 0 0 1 -4-4.717v-4.19c0-.56.438-1.03 1-1.03.531 0 1 .469 1 1.031zm17-1.031c.563 0 1 .438 1 1v18c0 .563-.438 1-1 1-.531 0-1-.438-1-1v-5h-4a1 1 0 0 1 -1-1v-7.031a5.914 5.914 0 0 1 2.643-4.959 6.052 6.052 0 0 1 3.357-1.01zm-1 2.094c-1.781.468-3.031 2.093-3.031 3.875l.031 6.031h3z" fill="#282D37" style="fill: currentColor;fill: var(--db-icon-color, currentColor)" fill-rule="evenodd"/></svg>
