<svg id="icon" height="24" viewBox="0 0 24 24" width="24" xmlns="http://www.w3.org/2000/svg"><path d="m18 2a4 4 0 0 1 4 4v12a4 4 0 0 1 -4 4h-12a4 4 0 0 1 -4-4v-12a4 4 0 0 1 4-4zm-12 2a1.997 1.997 0 0 0 -1.995 2l-.005 12c0 1.054.863 2 2 2h12a2 2 0 0 0 2-2v-12c0-1.054-.862-2-2-2zm3.857 2v7.36c0 1.343.959 2.069 2.143 2.069 1.133 0 2.06-.664 2.137-1.898l.006-7.531h3v7.633c0 3.197-2.436 4.367-5.143 4.367-2.637 0-5.018-1.113-5.138-4.125l-.005-7.875z" fill="#282D37" style="fill: currentColor;fill: var(--db-icon-color, currentColor)" fill-rule="evenodd"/></svg>