<svg id="icon" height="32" viewBox="0 0 32 32" width="32" xmlns="http://www.w3.org/2000/svg"><path d="m26 1.9999c2.209 0 4 1.791 4 4v20c0 2.209-1.791 4-4 4h-20c-2.209 0-4-1.791-4-4v-20c0-2.209 1.791-4 4-4zm0 2h-20c-1.103 0-2 .897-2 2v20c0 1.103.897 2 2 2h20c1.103 0 2-.897 2-2v-20c0-1.103-.897-2-2-2zm-19.2069 2.7929c.391-.391 1.023-.391 1.414 0l7.793 7.793 7.793-7.793c.391-.391 1.023-.391 1.414 0s.391 1.023 0 1.414l-7.793 7.793 7.793 7.793c.391.391.391 1.023 0 1.414-.195.195-.451.293-.707.293s-.512-.098-.707-.293l-7.793-7.793-7.793 7.793c-.195.195-.451.293-.707.293s-.512-.098-.707-.293c-.391-.391-.391-1.023 0-1.414l7.793-7.793-7.793-7.793c-.391-.391-.391-1.023 0-1.414z" fill="var(--db-icon-color, #55b9e6)" fill-rule="evenodd"/></svg>
