<svg id="icon" height="32" viewBox="0 0 32 32" width="32" xmlns="http://www.w3.org/2000/svg"><path d="m4 23.149c0-1.367.48-2.734 1.415-3.813a.973.973 0 0 1 .743-.336c.6 0 1.007.456 1.007 1.007 0 .216-.072.432-.215.624-.6.695-.96 1.606-.96 2.518 0 2.11 1.68 3.851 3.79 3.851 1.27 0 2.445-.59 3.189-1.597.216-.288.527-.432.815-.432.528 0 1.031.408 1.031 1.007a.92.92 0 0 1 -.215.6 5.974 5.974 0 0 1 -4.82 2.422c-3.119 0-5.78-2.566-5.78-5.851zm3.501-7.147c0-.551.456-1.007 1.007-1.007h.72c1.15 0 2.158.624 2.494 1.679l.096.326h3.429a1 1 0 0 1 1.007.993c0 .551-.456 1.007-1.007 1.007h-2.83l.6 2h3.501c.432 0 .767.254.935.662l2.183 5.18a.767.767 0 0 1 .071.335c0 .48-.383.984-1.007.984-.431 0-.767-.24-.935-.648l-1.943-4.508h-3.549a1 1 0 0 1 -.959-.72l-1.439-4.868c-.096-.312-.216-.431-.647-.431h-.72a.993.993 0 0 1 -1.007-.984zm0-4.988c0-1.103.911-2.014 2.015-2.014 1.103 0 1.99.911 1.99 2.014 0 1.104-.887 1.99-1.99 1.99-1.104 0-2.015-.886-2.015-1.99zm6.314-6.127c0-.526.47-.858.913-.858a.83.83 0 0 1 .83.664l.769 3.532.865-3.56c.102-.417.498-.636.858-.636s.757.21.858.636l.847 3.573.759-3.545c.101-.473.47-.664.83-.664.47 0 .914.332.914.858a.967.967 0 0 1 -.028.249l-1.605 6.173c-.115.442-.499.637-.858.637-.36 0-.734-.198-.859-.637l-.885-3.128-.886 3.128c-.127.447-.499.637-.858.637a.877.877 0 0 1 -.859-.665l-1.577-6.145a.983.983 0 0 1 -.028-.25zm8.83 3.128c0-3.654 2.16-4.042 3.1-4.042.554 0 1.136.111 1.662.36.387.166.553.47.553.775 0 .47-.36.942-.858.942a.853.853 0 0 1 -.36-.083 2.213 2.213 0 0 0 -.913-.222c-.388 0-1.412 0-1.412 2.27 0 2.187.914 2.187 1.412 2.187.332-.028.664-.11.969-.222.11-.027.221-.055.332-.055.498 0 .858.47.858.941 0 .332-.166.637-.581.803a6.54 6.54 0 0 1 -1.634.304c-1.162 0-3.128-.526-3.128-3.958z" fill="#282D37" style="fill: currentColor;fill: var(--db-icon-color, currentColor)" fill-rule="evenodd"/></svg>
