<svg id="icon" height="64" viewBox="0 0 64 64" width="64" xmlns="http://www.w3.org/2000/svg"><g fill="none" fill-rule="evenodd" transform="translate(7 7)"><path d="m25 0c13.807 0 25 11.193 25 25 0 13.669-10.97 24.776-24.587 24.997l-.413.003-.413-.003c-13.617-.221-24.587-11.328-24.587-24.997 0-13.807 11.193-25 25-25zm8.991 26h-17.981l.006.295.026.853.017.423.045.84.057.829.068.818.08.808.092.796.05.393.109.778.058.384.124.758.066.374.068.37.145.73c.083.401.17.796.262 1.183l.14.575.178.675.186.66.097.322.198.633.103.309.21.605.22.586c1.624 4.21 3.846 6.86 6.195 6.997l.19.006.19-.006c2.285-.132 4.448-2.641 6.06-6.65l.136-.347.22-.586.21-.605.103-.31.198-.632.097-.323.186-.659.177-.675c.115-.456.225-.922.327-1.399l.15-.722.14-.737.065-.374.124-.758.058-.384.109-.778.05-.393.091-.796.08-.808.07-.818.056-.83.045-.839.017-.423.032-1.147zm-19.983.001h-11.987a22.872 22.872 0 0 0 2.776 10l6.203-.001a1 1 0 0 1 .117 1.993l-.117.007-4.976.001c3.257 4.744 8.245 8.205 14.054 9.471-1.08-1.195-2.05-2.777-2.88-4.664l-.19-.441-.242-.597c-.131-.337-.26-.682-.383-1.034l-.182-.536-.21-.657-.2-.673-.097-.343-.186-.697c-.08-.313-.158-.63-.232-.952l-.11-.485-.155-.74-.074-.375-.14-.76-.066-.385-.124-.778-.113-.79-.052-.4-.096-.807c-.05-.452-.096-.908-.135-1.37l-.056-.694-.055-.842a58.747 58.747 0 0 1 -.092-2.451zm33.97 0h-11.985c-.01.552-.026 1.1-.05 1.641l-.042.81-.055.842c-.035.465-.074.926-.12 1.383l-.07.68-.097.808-.052.4-.113.79-.124.778-.066.385-.14.76-.074.375-.155.74c-.072.325-.146.647-.224.965l-.118.472-.186.697-.097.343-.2.673-.21.657c-.12.361-.243.714-.37 1.059l-.195.51-.242.598c-.872 2.082-1.907 3.818-3.07 5.105 9.902-2.159 17.421-10.696 18.037-21.09l.02-.381zm-2.773-12.001h-10.289l.147.722.14.76.066.385.124.778.113.79.052.4.096.807c.05.452.096.908.135 1.37l.056.694.055.842c.047.806.078 1.624.092 2.452h11.987a22.874 22.874 0 0 0 -2.535-9.548l-.24-.452zm-30.121 0h-10.288a22.872 22.872 0 0 0 -2.775 10h11.987c.01-.552.026-1.1.05-1.642l.042-.81.055-.842c.035-.465.074-.926.12-1.383l.07-.68.097-.808.052-.4.113-.79.124-.778.066-.385.14-.76.074-.375.072-.347zm17.78 0h-15.726l-.098.454-.094.46-.14.737-.065.374-.124.758-.058.384-.109.778-.05.393-.091.796-.08.808-.07.818-.056.83-.045.839-.017.423-.032 1.148h17.981l-.005-.295-.026-.853-.017-.423-.045-.84-.057-.829-.068-.818-.08-.808-.092-.796-.05-.393-.109-.778-.058-.384-.124-.758-.066-.374-.068-.37-.145-.73-.117-.55zm-2.942-11.472.114.127c1.03 1.176 1.959 2.706 2.759 4.52l.197.458.242.597c.131.337.26.682.383 1.034l.182.536.21.657.2.673.097.343.14.527h9.53a23.027 23.027 0 0 0 -13.596-9.368l-.457-.104zm-9.844 0-.25.056a23.02 23.02 0 0 0 -13.804 9.416h9.529l.141-.527.097-.343.2-.673.21-.657c.12-.361.243-.714.37-1.059l.195-.51.242-.598c.872-2.082 1.907-3.818 3.07-5.105zm4.922-.528-.19.006c-2.285.132-4.448 2.641-6.06 6.65l-.136.347-.22.586-.21.605-.103.31-.198.632-.097.323-.153.541h14.733l-.2-.703-.049-.161-.198-.633-.103-.309-.21-.605-.22-.586c-1.624-4.21-3.846-6.86-6.195-6.997z" fill="#282D37" style="fill: currentColor;fill: var(--db-icon-color, currentColor)" fill-rule="nonzero"/><path d="m45.79 36a1 1 0 0 1 .116 1.993l-.117.007h-22.789a1 1 0 0 1 -.117-1.993l.117-.007z" fill="#EC0016" style="fill:#EC0016;fill: var(--db-icon-pulse-color, #EC0016)"/></g></svg>
