<svg id="icon" height="32" viewBox="0 0 32 32" width="32" xmlns="http://www.w3.org/2000/svg"><path d="m9 10a1 1 0 0 1 1 1c0 .513-.483 1.005-1 1h-2.5c-.245 0-.5.242-.5.5v14c0 .245.26.501.5.5h11c.245 0 .502-.27.5-.5v-1.5a1 1 0 0 1 1-1c.513 0 1.003.501 1 1v1.5c0 1.325-1.203 2.502-2.5 2.5h-11c-1.325 0-2.496-1.196-2.5-2.5v-14c0-1.325 1.187-2.494 2.5-2.5zm16.5-7c1.325 0 2.507 1.231 2.5 2.5v14c0 1.325-1.203 2.505-2.5 2.5h-11c-1.325 0-2.49-1.198-2.5-2.5v-14c0-1.325 1.185-2.494 2.5-2.5zm-11 2c-.245 0-.494.255-.5.5v14c0 .245.233.506.5.5h11c.245 0 .508-.259.5-.5v-14c0-.245-.278-.492-.5-.5zm5.5 3c.513 0 1 .499 1 1l-.001 1.999 2.001.001a1 1 0 0 1 1 1c0 .513-.517 1-1 1l-2.001-.001.001 2.001a1 1 0 0 1 -1 1c-.513 0-1-.5-1-1l-.001-2.001-1.999.001a1 1 0 0 1 -1-1c0-.513.5-1 1-1l1.999-.001.001-1.999c0-.53.467-1 1-1z" fill="var(--db-icon-color, currentColor)" fill-rule="evenodd"/></svg>
