<svg id="icon" height="20" viewBox="0 0 20 20" width="20" xmlns="http://www.w3.org/2000/svg"><path d="m7.034 18h-2.03c-.486 0-1.004-.43-1.004-1.015v-7.063l-.283.312a.955.955 0 0 1 -.702.293c-.586 0-1.015-.449-1.015-1.034 0-.215.078-.43.234-.586l5.873-5.892c.429-.43.898-1.015 1.893-1.015s1.463.586 1.893 1.015l5.814 5.795a1 1 0 0 1 .293.722c0 .566-.468.995-1.034.995-.234 0-.453-.055-.605-.215l-.361-.39v7.063c0 .547-.517 1.015-1.005 1.015h-1.99c-.527 0-1.005-.351-1.005-.878v-5.122h-4v5.005c0 .527-.341.995-.966.995z" fill="var(--db-icon-color, currentColor)" fill-rule="evenodd"/></svg>
