<svg id="icon" height="20" viewBox="0 0 20 20" width="20" xmlns="http://www.w3.org/2000/svg"><path d="m15 2a3 3 0 0 1 3 3v10a3 3 0 0 1 -3 3h-10a3 3 0 0 1 -3-3v-10a3 3 0 0 1 3-3zm-10 2a1 1 0 0 0 -.993.883l-.007 10.117a1 1 0 0 0 .883.993l10.117.007a1 1 0 0 0 .993-.883l.007-10.117a1 1 0 0 0 -.883-.993zm3.667 2v4.906c0 .896.544 1.427 1.333 1.427.743 0 1.269-.47 1.328-1.272l.005-5.061h2v5.089c0 2.131-1.528 2.911-3.333 2.911-1.744 0-3.231-.73-3.328-2.703l-.005-5.297z" fill="var(--db-icon-color, currentColor)" fill-rule="evenodd"/></svg>
