<svg id="icon" height="64" viewBox="0 0 64 64" width="64" xmlns="http://www.w3.org/2000/svg"><g fill="none" fill-rule="evenodd" transform="translate(9 8)"><path d="m44.606 30.973a.995.995 0 0 0 -.872-.168l-21.234 5.846-21.234-5.846a1 1 0 0 0 -1.266.964v11.08a1 1 0 1 0 2 0v-9.768l19.5 5.369v9.318a1 1 0 1 0 2 0v-9.318l19.5-5.369v9.768a1 1 0 1 0 2 0v-11.08a.997.997 0 0 0 -.394-.796m-27.764-28.973c-3.86 0-7 3.141-7 7 0 3.86 3.14 7 7 7s7-3.14 7-7c0-3.859-3.14-7-7-7m0 16c-4.962 0-9-4.037-9-9s4.038-9 9-9c4.963 0 9 4.037 9 9s-4.037 9-9 9m-14 10a1 1 0 0 1 -1-1c0-4.411 3.589-8 8-8 .223 0 .44.075.616.212l6.384 4.989 6.385-4.989a1 1 0 0 1 1.231 1.576l-7 5.47a.999.999 0 0 1 -1.231 0l-6.717-5.249a6.01 6.01 0 0 0 -5.668 5.991 1 1 0 0 1 -1 1" fill="var(--db-icon-color, currentColor)" fill-rule="nonzero"/><path d="m37.202 18.108a4.228 4.228 0 0 1 -4.223 4.223 4.228 4.228 0 0 1 -4.222-4.223 4.227 4.227 0 0 1 4.222-4.222 4.227 4.227 0 0 1 4.223 4.222m2 0a6.23 6.23 0 0 0 -6.223-6.222 6.229 6.229 0 0 0 -6.222 6.222 6.229 6.229 0 0 0 6.222 6.223 6.23 6.23 0 0 0 6.223-6.223m-14.362 14.712v-2.231a3.575 3.575 0 0 1 3.313-3.56 10.023 10.023 0 0 0 4.837 1.297 10.002 10.002 0 0 0 4.816-1.297c.856.06 1.654.423 2.267 1.036a1 1 0 1 0 1.414-1.414 5.533 5.533 0 0 0 -3.938-1.631 1 1 0 0 0 -.519.146 7.983 7.983 0 0 1 -4.04 1.16 7.996 7.996 0 0 1 -4.06-1.16 1.002 1.002 0 0 0 -.52-.146 5.575 5.575 0 0 0 -5.57 5.569v2.23a1 1 0 1 0 2 0m-11.498-3.214h-5.836a1 1 0 1 1 0-2h5.836a1 1 0 1 1 0 2" fill="var(--db-icon-pulse-color, #EC0016)"/></g></svg>
