<svg id="icon" height="24" viewBox="0 0 24 24" width="24" xmlns="http://www.w3.org/2000/svg"><path d="m20.503 3.471a1.002 1.002 0 0 1 .001 1.418l-15.807 15.82a.999.999 0 0 1 -1.418 0 1.002 1.002 0 0 1 0-1.417l.286-.287c-.02-.011-.207-.017-.562-.017-.522 0-1.006-.428-1.003-.988.003-.663.005-2.329.003-4.998 0-1.015.995-1.984 1.996-1.993.667-.006 1.999-.006 3.994 0 1.022 0 1.796.65 1.963 1.6l6.345-6.352c.19-.817.842-1.48 1.68-1.68l1.104-1.105a1.002 1.002 0 0 1 1.418 0zm-.503 7.539c1.074 0 2 .957 1.997 1.961-.002.664-.002 2.339 0 5.025a.988.988 0 0 1 -1 1.001l-2.997.003.003-6.995c0-.523.497-1.005.997-1.005.333 0 .667.003 1 .009zm-4.117 1.34c.068.205.113.422.113.653v4.985c0 .562-.435 1-.998 1-.355 0-1.354.005-2.998.013v-3zm-3.614-7.833c1.224 0 2.23 1.023 2.23 2.23 0 1.24-1.006 2.263-2.23 2.263a2.264 2.264 0 0 1 -2.263-2.263c0-1.207 1.005-2.23 2.263-2.23zm-6.24 0a2.251 2.251 0 0 1 2.23 2.23c0 1.24-1.005 2.263-2.23 2.263a2.264 2.264 0 0 1 -2.263-2.263c0-1.207 1.005-2.23 2.262-2.23z" fill="#282D37" style="fill: currentColor;fill: var(--db-icon-color, currentColor)" fill-rule="evenodd"/></svg>
