<svg id="icon" height="20" viewBox="0 0 20 20" width="20" xmlns="http://www.w3.org/2000/svg"><path d="m15.001 10.013c-.065 0-.126.015-.19.019l-.487-1.519h1.678c.25 0 .484-.125.623-.332l.503-.75a.75.75 0 0 0 -1.247-.836l-.28.418h-1.759l-.638-1.992a.75.75 0 0 0 -.714-.521h-1.5a.75.75 0 0 0 0 1.5h.953l.577 1.802-2.501 3.216c-.007 0-.012-.004-.019-.004h-.519l-1.219-4.002a.749.749 0 0 0 -.012-1.498h-2a.75.75 0 0 0 0 1.5h.442l.581 1.941-.87 1.457a2.72 2.72 0 0 0 -1.404-.398 2.752 2.752 0 0 0 -2.75 2.75 2.752 2.752 0 0 0 2.75 2.75 2.744 2.744 0 0 0 2.725-2.5h2.275c.231 0 .45-.106.592-.289l2.483-3.192.322 1.006a2.742 2.742 0 0 0 -1.147 2.225 2.752 2.752 0 0 0 2.75 2.75 2.752 2.752 0 0 0 2.75-2.75 2.752 2.752 0 0 0 -2.75-2.75zm-10 4c-.689 0-1.25-.561-1.25-1.25s.561-1.25 1.25-1.25 1.25.561 1.25 1.25-.561 1.25-1.25 1.25zm10 0c-.689 0-1.25-.561-1.25-1.25s.561-1.25 1.25-1.25 1.25.561 1.25 1.25-.561 1.25-1.25 1.25z" fill="#282D37" style="fill: currentColor;fill: var(--db-icon-color, currentColor)" fill-rule="evenodd"/></svg>
