<svg id="icon" height="64" viewBox="0 0 64 64" width="64" xmlns="http://www.w3.org/2000/svg"><g fill="none" fill-rule="evenodd" transform="translate(4 12)"><path d="m18.2 0c2.079 0 4.092.345 5.979.99 1.966-.202 5.507-.075 7.185.345 1.71.467 2.837 1.447 2.837 3.065a3.1 3.1 0 0 1 -1.486 2.642 18.494 18.494 0 0 1 2.19 3.53 1 1 0 1 1 -1.808.857 16.466 16.466 0 0 0 -14.896-9.429c-7.821 0-14.543 5.568-16.107 13.097 2.927 2.286 5.702 3.045 9.702 2.609 1.407-1.03 2.153-3.368 1.816-5.554-.341-2.221-1.603-4.065-3.117-4.738a1 1 0 1 1 .812-1.828c2.176.967 3.842 3.402 4.282 6.262.296 1.923-.04 3.864-.855 5.379 1.979-.476 3.181-.69 5.115-.196a8.18 8.18 0 0 1 5.925 10c-.731 3.326-3.61 4.972-3.993 5.202-.295.184-.818.51-1.413-.053-1.104-1.189-2.721-1.683-4.18-1.222a4.03 4.03 0 0 0 -1.631.94c.572.792 1.507 1.366 2.945 1.407 1.388.021 1.269 1.516.665 1.819-1.06.729-1.63 1.845-1.573 2.853.869.153 3.403.04 4.422-2.642.122-.445.36-.722.77-.812 3.777-.829 7.206-3.04 9.627-6.139a1 1 0 0 1 1.576 1.232c-2.586 3.31-6.206 5.715-10.227 6.732-1.722 3.965-5.963 3.99-7.349 3.41-.494-.194-.763-.604-.8-1.274-.088-1.127.077-2.303.905-3.502-1.423-.498-2.562-1.548-3.136-2.888-.207-.481-.034-.893.39-1.333 3.303-3.074 6.613-2.027 8.41-.553a5.864 5.864 0 0 0 2.65-3.656 6.22 6.22 0 0 0 -.486-4.422c-.489.641-1.215 1.09-2.055 1.166-3.399.168-3.97-3.556-4.159-4.51-.384.008-1.465.309-2.664.532-5.943 1.135-9.755.51-14.116-3.056a1.006 1.006 0 0 1 -.337-.93c1.498-8.774 9.191-15.332 18.186-15.332zm1.007 18.933c.436 2.037 1.211 2.434 1.903 2.371.425-.039.803-.447.883-.926-.729-.656-1.551-1.123-2.786-1.445zm-13.107-8.933a1 1 0 1 1 0 2 1 1 0 0 1 0-2zm22.115-7.054a17.914 17.914 0 0 1 3.115 2.529c.487-.109.87-.55.87-1.075 0-.511-.422-.878-1.343-1.13-.621-.155-1.582-.266-2.642-.324z" fill="#282D37" style="fill: currentColor;fill: var(--db-icon-color, currentColor)" fill-rule="nonzero"/><path d="m19.815 5.226c1.384-.77 3.192-.294 3.96 1.088.71 1.277.378 2.918-.918 3.758a2.813 2.813 0 0 1 -1.015 3.61c-1.84 1.125-3.73 0-4.236-1.235a1 1 0 0 1 1.731-.996l.138.263c.222.4.805.553 1.24.312a.813.813 0 0 0 .317-1.13l-.4-.7a.993.993 0 0 1 .373-1.364l.71-.406c.411-.229.547-.717.312-1.14-.205-.37-.762-.566-1.227-.32l-3.3 1.9a1 1 0 0 1 -1.366-.367.99.99 0 0 1 .368-1.366l3.313-1.907zm21.586 25.474c-4.622.024-8.308-3.382-8.421-10.157 5.565-.88 10.004-.732 11.219-.619l.67.575c3.53 0 6.408 1.086 8.632 3.259v.992c2.178 2.135 2.883 5.282 2.115 9.442l-.641.441c-.794 2.992-2.342 5.306-4.642 6.943l-1.051-.235c-3.06 1.302-7.536 1.448-10.733.092-1.783 3.263-5.449 2.905-7.003 1.7-.448-.3-.55-.819-.35-1.38.416-1.172.868-1.856 1.784-2.515-1.06-.725-1.79-1.808-1.872-2.928-.054-.402.063-.728.353-.978 2.132-1.777 6.108-1.02 7.323 2.148 4.61-.256 6.517-2.912 6.517-4.88 0-1.084-.674-1.827-1.651-1.895l-2.25-.005zm-8.08 11.106c1.659.64 3.052-.42 3.492-1.367-.781-.286-2.614-.265-3.493 1.367zm11.034-4.066c-1.48 1.008-3.233 1.583-5.261 1.725 2.043.936 4.47 1.157 7.282.665a7.027 7.027 0 0 1 -2.021-2.39zm2.298-2.538c-.167.342-.45.765-.734 1.112.453 1.322 1.907 2.892 3.876 3.171a10.18 10.18 0 0 0 2.641-3.623c-1.944.43-4.239.163-5.783-.66zm-13.435 1.388c.905 1.71 2.892 1.672 3.579 1.34-.477-.938-1.78-1.968-3.579-1.34zm20.046-8.783c-.914 3.402-2.907 5.148-5.981 5.239l-.02.198c1.203.92 4.76 1.331 6.513-.16.302-2.098.132-3.856-.512-5.277zm-6.533-5.189c2.091 3.2.272 5.943-.802 6.935.473.39.845.9 1.082 1.493 2.484.105 4.55-1.648 4.572-6.32-1.372-1.15-2.99-1.852-4.852-2.108zm-11.643-.354c.816 4.981 3.468 6.346 6.034 6.432l2.079.005c1.237 0 2.5-1.616 2.5-3.1 0-1.002-.631-2.333-2.408-3.728-2.429-.097-5.164.033-8.205.391zm3.512 1.136a.6.6 0 1 1 0 1.2.6.6 0 0 1 0-1.2zm15.4-10a1 1 0 1 1 0 2h-13.82c-2.048-.041-3.486.376-4.362 1.088-.538.438-.817.952-.822 1.429-.005.591-.363 1.034-.913 1.08a1 1 0 0 1 -1.08-.914c-.207-2.482 2.424-4.679 6.896-4.686z" fill="#EC0016" style="fill:#EC0016;fill: var(--db-icon-pulse-color, #EC0016)"/></g></svg>
