<svg id="icon" height="24" viewBox="0 0 24 24" width="24" xmlns="http://www.w3.org/2000/svg"><path d="m15.365 5.15a.85.85 0 0 1 .788.506c1.068 3.668 1.606 5.501 1.613 5.501a3.842 3.842 0 0 1 4.084 3.843 3.85 3.85 0 1 1 -5.718-3.368l-.492-1.692-3.158 5.494a.814.814 0 0 1 -.731.416l-1.994.001a3.851 3.851 0 0 1 -7.607-.851 3.85 3.85 0 0 1 7.606-.851h.831l-.964-3.03c-1.206-.774-2.26-1.263-3.449-1.263-1.417 0-2.572-.755-3.2-2.156a.85.85 0 0 1 1.552-.695c.332.742.832 1.143 1.742 1.143.765 0 1.677.212 2.608.625l-.453-1.423h-.67a.85.85 0 0 1 -.85-.85c0-.433.31-.844.85-.85h2.005a.85.85 0 0 1 .415 1.592l1.801 5.662 3.006-5.226-.239-.82h-1.207a.849.849 0 0 1 -.854-.822c-.005-.386.332-.886.854-.886h1.83zm-9.365 7.7a2.15 2.15 0 1 0 1.975 3h-1.975a.85.85 0 0 1 -.85-.85.86.86 0 0 1 .85-.851l1.976.001a2.15 2.15 0 0 0 -1.976-1.3zm12.264.016.552 1.896a.85.85 0 0 1 -.578 1.054c-.416.121-.928-.096-1.054-.578l-.553-1.896a2.15 2.15 0 1 0 1.632-.476z" fill="#282D37" style="fill: currentColor;fill: var(--db-icon-color, currentColor)" fill-rule="evenodd"/></svg>