<svg id="icon" height="24" viewBox="0 0 24 24" width="24" xmlns="http://www.w3.org/2000/svg"><path d="m16.672 6.173c1.16 0 2.099.922 2.178 2.076l.005 2.751a.93.93 0 0 1 -.216.566l-4.468 5a.841.841 0 0 1 -.634.284h-3.687a2.851 2.851 0 0 1 -2.849 3 2.864 2.864 0 0 1 -2.85-3h-1.151a.85.85 0 0 1 -.843-.743l-.007-1.737c0-1.586 1.081-2.804 2.67-2.84l4.334-.005-.461-1.599h-2.693a.863.863 0 0 1 -.85-.85.85.85 0 0 1 .85-.85h2.838c.632 0 1.188.398 1.411.981l1.723 5.943h1.184l3.999-4.475v-2.268c0-.268-.177-.482-.398-.526l-2.085-.008a.85.85 0 0 1 0-1.7zm2.328 7.977a2.85 2.85 0 1 1 0 5.7 2.85 2.85 0 0 1 0-5.7zm-13.15 2.692c-.039.794.476 1.308 1.15 1.308s1.2-.514 1.15-1.308zm13.15-.992a1.15 1.15 0 1 0 0 2.3 1.15 1.15 0 0 0 0-2.3z" fill="#282D37" style="fill: currentColor;fill: var(--db-icon-color, currentColor)" fill-rule="evenodd"/></svg>