<svg id="icon" height="20" viewBox="0 0 20 20" width="20" xmlns="http://www.w3.org/2000/svg"><path d="m4.098 12.199c.407.306.544.94.197 1.4a1.5 1.5 0 0 0 2.115 2.089 1 1 0 1 1 1.223 1.583 3.5 3.5 0 0 1 -4.936-4.874 1 1 0 0 1 1.4-.198zm2.85-2.015c.26.77.517 1.543.773 2.316h1.12c.746 0 1.493.412 1.838 1.212.415.964.828 1.928 1.24 2.894a1 1 0 0 1 -.525 1.313c-.471.202-1.087 0-1.313-.525a764.32 764.32 0 0 1 -1.241-2.894h-1.12a2 2 0 0 1 -1.84-1.218l-.83-2.466a1 1 0 0 1 1.898-.632zm-1.452-3.919c.623 0 1.151.528 1.151 1.152 0 .648-.528 1.151-1.151 1.151a1.137 1.137 0 0 1 -1.152-1.151c0-.624.504-1.152 1.152-1.152zm1.912-3.6c0-.399.357-.65.692-.65a.63.63 0 0 1 .63.503l.582 2.677.655-2.698c.077-.316.378-.482.65-.482.273 0 .574.16.651.482l.641 2.708.576-2.687c.077-.358.356-.503.63-.503.356 0 .691.251.691.65a.733.733 0 0 1 -.02.189l-1.217 4.678c-.087.335-.378.483-.65.483a.654.654 0 0 1 -.651-.483l-.671-2.37-.672 2.37c-.095.339-.377.483-.65.483a.664.664 0 0 1 -.65-.504l-1.197-4.657a.745.745 0 0 1 -.021-.189zm6.6 2.34c0-2.741 1.62-3.032 2.325-3.032.415 0 .851.083 1.246.27.29.125.415.353.415.582 0 .353-.27.705-.644.705a.64.64 0 0 1 -.27-.062 1.66 1.66 0 0 0 -.685-.166c-.29 0-1.058 0-1.058 1.703 0 1.64.685 1.64 1.058 1.64.25-.021.499-.083.727-.166a1.03 1.03 0 0 1 .25-.042c.373 0 .643.353.643.706 0 .25-.125.478-.436.602-.395.125-.81.208-1.225.228-.872 0-2.346-.394-2.346-2.968z" fill="var(--db-icon-color, currentColor)" fill-rule="evenodd"/></svg>
