<svg id="icon" height="64" viewBox="0 0 64 64" width="64" xmlns="http://www.w3.org/2000/svg"><g fill="none" fill-rule="evenodd" transform="translate(7 10)"><path d="m37.282 12.04 12 3.532a1 1 0 0 1 .718.96l-.003 10.191c0 .693-.042 1.41-.122 2.2-.542 5.34-2.952 9.304-6.584 12.056a18.3 18.3 0 0 1 -4.002 2.296c-.857.358-1.562.58-2.045.695l-.128.023a1 1 0 0 1 -.335-.017 7.619 7.619 0 0 1 -.46-.12l-.382-.12-.213-.072-.466-.17a18.23 18.23 0 0 1 -4.876-2.769c-3.457-2.748-5.735-6.635-6.259-11.802-.08-.79-.122-1.507-.122-2.2l-.003-10.191a1 1 0 0 1 .718-.96l12-3.531a1 1 0 0 1 .564 0zm-.282 2.003-11 3.237.004 9.443c0 .62.038 1.272.112 1.999.467 4.608 2.463 8.014 5.513 10.44a16.246 16.246 0 0 0 3.882 2.28c.461.192.888.344 1.268.46l.223.066.07-.019.346-.106c.25-.082.538-.185.857-.313l.245-.1a16.314 16.314 0 0 0 3.564-2.045c3.208-2.43 5.32-5.903 5.802-10.663.074-.727.112-1.38.112-1.999l.002-9.444-11-3.237zm-29 4.957a1 1 0 0 1 .52.145 12.736 12.736 0 0 0 6.47 1.855 12.752 12.752 0 0 0 5.587-1.354 1 1 0 1 1 .897 1.787 14.771 14.771 0 0 1 -6.484 1.567 14.752 14.752 0 0 1 -7.129-1.922l-.123-.072-.186.01a6 6 0 0 0 -5.548 5.76l-.004.224v12a1 1 0 0 1 -1.993.117l-.007-.117v-12a8 8 0 0 1 8-8zm29.5 15a1 1 0 0 1 .117 1.993l-.117.007h-1a1 1 0 0 1 -.117-1.993l.117-.007zm3-4a1 1 0 0 1 .117 1.993l-.117.007h-7a1 1 0 0 1 -.117-1.993l.117-.007zm0-8a1 1 0 0 1 .117 1.993l-.117.007h-7a1 1 0 0 1 -.117-1.993l.117-.007zm-3-4a1 1 0 0 1 .117 1.993l-.117.007h-1a1 1 0 0 1 -.117-1.993l.117-.007zm-22.5-18a9 9 0 1 1 0 18 9 9 0 0 1 0-18zm0 2a7 7 0 1 0 0 14 7 7 0 0 0 0-14z" fill="var(--db-icon-color, currentColor)" fill-rule="nonzero"/><path d="m43.5 26a1 1 0 0 1 .117 1.993l-.117.007h-13a1 1 0 0 1 -.117-1.993l.117-.007z" fill="var(--db-icon-pulse-color, #EC0016)"/></g></svg>
