<svg id="icon" height="24" viewBox="0 0 24 24" width="24" xmlns="http://www.w3.org/2000/svg"><path d="m22.144 13.017c0-4.125-3.195-7.567-7.32-7.908l.404-.403a.99.99 0 0 0 .341-.745c0-.527-.465-.961-1.023-.961a1.03 1.03 0 0 0 -.652.217l-2.263 2.295a.912.912 0 0 0 -.28.682c0 .28.094.527.28.713l2.169 2.203c.186.186.435.28.745.28.527 0 .961-.466.961-.993a.88.88 0 0 0 -.31-.682l-.558-.62c3.1.217 5.52 2.822 5.52 5.954 0 1.52-.62 3.039-1.768 4.217a.962.962 0 0 0 -.279.683 1 1 0 0 0 .992.992.962.962 0 0 0 .683-.279 7.937 7.937 0 0 0 2.357-5.644z" fill="#282D37" style="fill: currentColor;fill: var(--db-icon-color, currentColor)" fill-rule="evenodd"/></svg>