<svg id="icon" height="32" viewBox="0 0 32 32" width="32" xmlns="http://www.w3.org/2000/svg"><path d="m6.99021173 30h14.01862847c1.6397992 0 2.9902138-1.348624 2.9902138-3.018349v-6.550461c0-.54587-.4501382-.99541-.9967346-.99541s-.9967446.44954-.9967446.99541v6.550461c0 .545872-.4501382.995413-.9967346.995413h-14.01862847c-.54659738 0-.99673658-.449541-.99673658-.995413v-21.963301c0-.54587.4501392-.99541.99673658-.99541h7.49160467c.5465964 0 .9967446-.44955.9967446-.99542 0-.57798-.4501482-1.02752-.9967446-1.02752h-7.49160467c-1.67194587 0-2.99021173 1.34862-2.99021173 3.01835v21.963301c0 1.669725 1.31826586 3.018349 2.99021173 3.018349zm1.99347515-6.004587h.99673757c.54659635 0 .99673455-.449541.99673455-.995413s-.4501382-.995413-.99673455-.995413h-.99673757c-.54659738 0-.99673758.449541-.99673758.995413s.4501402.995413.99673758.995413zm4.50139492 0h.9967346c.5465964 0 .9967446-.449541.9967446-.995413s-.4501482-.995413-.9967446-.995413h-.9967346c-.5465963 0-.9967345.449541-.9967345.995413s.4501382.995413.9967345.995413zm4.501392 0h.9967446c.5465963 0 .9967345-.449541.9967345-.995413s-.4501382-.995413-.9967345-.995413h-.9967446c-.5465964 0-.9967346.449541-.9967346.995413s.4501382.995413.9967346.995413zm4.5978601-21.995413c.35368 0 .70736.16055.9002764.44954l.5787491.67431c.2893746.38532.7716655.54587 1.2218037.41743l.8359809-.22477c.35368-.09633.7073601-.03211.9967346.19266.2893746.19266.4822909.51377.4822909.86698l.0643055.89908c.0321527.44954.3215273.86697.7395127 1.02752l.835971.3211c.3215373.12844.5787591.38532.70737.73854.0964582.3211.0643054.70642-.1286109.99541l-.4822909.73853c-.2572319.38532-.2572319.89908 0 1.2844l.4822909.73854c.1929163.28899.2250691.67431.1286109.99541-.1286109.35321-.3858327.61009-.70737.73853l-.835971.3211c-.4179854.16055-.70736.57798-.7395127 1.02752l-.0643055.89909c0 .35321-.1929163.67431-.4822909.86697-.2893745.22477-.6430546.28899-.9967346.19266l-.8359809-.22477c-.4501382-.12844-.9324291.03211-1.2218037.38532l-.5787491.70642c-.1929164.28899-.5465964.44954-.9002764.44954-.35369 0-.6752173-.16055-.9002864-.44954l-.5787491-.70642c-.2893745-.35321-.7716655-.51376-1.2218036-.38532l-.835971.22477c-.35369.09633-.70737.03211-.9967446-.19266-.2893745-.19266-.4822909-.51376-.4822909-.86697l-.0643054-.89909c0-.44954-.3215273-.86697-.7395128-1.02752l-.8359709-.3211c-.3215273-.12844-.5787491-.38532-.7073701-.73853-.0964581-.3211-.0321527-.70642.1607737-.99541l.4822909-.73854c.2250691-.38532.2250691-.89908 0-1.2844l-.4822909-.73853c-.2250791-.28899-.2572318-.67431-.1607737-.99541.128621-.35322.3858428-.6101.7073701-.73854l.8359709-.3211c.4179855-.16055.7395128-.57798.7395128-1.05963l.0643054-.86697c0-.35321.1929164-.67432.4822909-.89909.2893746-.19266.6430546-.25688.9967446-.16055l.835971.22477c.4501381.09633.9324291-.03211 1.2218036-.41743l.5787491-.67431c.2250691-.28899.5465964-.44954.9002864-.44954zm2.7651346 9.5367c-.5787491 0-1.0288873.48165-1.0288873 1.05963s.4501382 1.05963 1.0288873 1.05963c.5787592 0 1.0610501-.48165 1.0610501-1.05963s-.4822909-1.05963-1.0610501-1.05963zm-.4822909-4.91285c-.35368-.09633-.6752073.03211-.9967345.28899l-4.1798647 4.20643c-.2893746.28899-.3858328.70642-.2250691 1.09174.1607636.38532.5144436.61009.9324291.61009.35368 0 .4501382-.09633.70736-.28899l4.1798647-4.17431c.2893745-.25688.3858327-.6422.3215273-.99541-.0964582-.35322-.3858328-.64221-.7395128-.73854zm-5.1122938-.61009c-.5465963 0-.9967445.44954-.9967445.99541 0 .54588.4501482.99542.9967445.99542.5465964 0 .9967346-.44954.9967346-.99542 0-.54587-.4501382-.99541-.9967346-.99541z" fill="var(--db-icon-color, currentColor)" fill-rule="evenodd"/></svg>
