<svg id="icon" height="20" viewBox="0 0 20 20" width="20" xmlns="http://www.w3.org/2000/svg"><path d="m15.99024 4c1.1122 0 2.00976.89896831 2.00976 1.99345598v8.01308802c0 1.0944877-.89756 1.993456-2.00976 1.993456h-11.980484c-1.112195 0-2.009756-.8989683-2.009756-1.993456v-8.01308802c0-1.09448767.897561-1.99345598 2.009756-1.99345598zm.00976 2h-12v8h12zm-10.97561 7.009816v-6.00010013h2.497561c1.404878 0 2.107317.54729391 2.107317 1.5635538 0 .66448533-.27317 1.01625989-.975609 1.27037495.936585.19541918 1.307317.62542148 1.307317 1.44626218 0 1.1335515-.839025 1.7199092-2.517074 1.7199092zm1.658537-1.4462622h.760975c.565854 0 .819513-.1563554.819513-.527762 0-.4103703-.214635-.5471938-.760976-.5471938h-.819512zm0-2.286735h.721951c.390244 0 .585366-.14323394.585366-.42990217 0-.26062569-.17561-.39093853-.565854-.39093853h-.741463zm3.765853.762245c0-2.07168375 1.1122-3.16617141 3.08293-3.16617141.3317 0 .74393.05458916 1.46341.19301526l-.12904 1.68455143c-.50598-.14934393-1.06151-.19672131-1.29535-.19672131-.9561 0-1.2878.37130647-1.2878 1.46579413 0 1.0554239.35122 1.4267303 1.30731 1.4267303.25745 0 .7057-.0382625 1.23738-.1883075l.21906 1.5741711c-.56408.2362859-1.342.2949818-1.59302.2949818-1.9122 0-3.00488-.9772962-3.00488-3.0880438z" fill="var(--db-icon-color, currentColor)" fill-rule="evenodd"/></svg>
