<svg id="icon" height="24" viewBox="0 0 24 24" width="24" xmlns="http://www.w3.org/2000/svg"><path d="m2 18.9688c0 1.6562 1.3125 3.0312 2.9687 3.0312h8c1.6563 0 3-1.375 3-3.0312v-1.9376c0-.5312-.4687-1.0312-1-1.0312-.5625 0-.9687.5-1 1.0312v1.9376c0 .5624-.4375 1.0312-1 1.0312h-8c-.5312 0-.9687-.4688-.9687-1.0312v-13.9376c0-.5624.4375-1 .9687-1h3.0313c.5312-.0312.9687-.4374.9687-1 0-.5624-.4375-.9687-.9687-1h-3.0313c-1.6562 0-2.9687 1.3438-2.9687 3zm3-1.9688c0 .5312.4375 1 1 1s1-.4688 1-1c0-.5625-.4375-1-1-1s-1 .4375-1 1zm3 0c0 .5312.4688 1 1 1 .5625 0 1-.4688 1-1 0-.5625-.4375-1-1-1-.5312 0-1 .4375-1 1zm1.0625-6.7812c.0625.25.2812.5.5625.5937l.6562.25c.3438.125.5938.4687.625.8437l.0313.7188c0 .2812.1562.5625.375.7188.25.1562.5312.2187.8125.125l.6875-.1876c.375-.0937.75.0626 1 .3438l.4375.5625c.1875.2187.4687.3437.75.3437.2812 0 .5625-.125.7187-.3437l.4688-.5625c.25-.2812.625-.4375 1-.3438l.6875.1876c.2812.0937.5937.0312.7812-.125.25-.1563.375-.4376.4063-.7188l.0625-.7188c0-.375.25-.7187.5937-.8437l.6563-.25c.2812-.0937.4687-.3437.5625-.5937.0937-.2813.0625-.5626-.0938-.8126l-.375-.5937c-.2187-.3437-.2187-.75 0-1.0313l.375-.625c.1563-.2187.1875-.5312.0938-.8124-.0938-.25-.2813-.5-.5625-.5938l-.6563-.25c-.3437-.1562-.5937-.4688-.5937-.8438l-.0625-.7187c-.0313-.2813-.1563-.5625-.4063-.7187-.1875-.1563-.5-.2188-.7812-.1563l-.6875.1875c-.375.0938-.75 0-1-.3125l-.4688-.5625c-.1562-.2188-.4375-.375-.7187-.375-.2813 0-.5625.1562-.75.375l-.4375.5625c-.25.3125-.625.4063-1 .3125l-.6875-.1875c-.2813-.0625-.5625 0-.8125.1563-.2188.1562-.375.4374-.375.7187l-.0313.7187c-.0312.375-.2812.6876-.625.8438l-.6562.25c-.2813.0938-.5.3438-.5625.5938-.0938.2812-.0625.5937.0937.8124l.4063.625c.1875.2813.1875.6876 0 1.0313l-.4063.5937c-.1562.25-.1875.5313-.0937.8126zm1.9375 6.7812c0 .5312.4375 1 1 1 .5313 0 1-.4688 1-1 0-.5625-.4687-1-1-1-.5625 0-1 .4375-1 1zm.9062-10.9062c0-.4688.375-.8438.8438-.8438.4687 0 .875.375.875.8438 0 .4687-.4063.875-.875.875-.4688 0-.8438-.4063-.8438-.875zm.625 4.1562c-.125-.2812-.0312-.5625.1563-.7812l3.4062-3.4063.0938-.0625c.3125-.2188.6875-.1875.9687.0625.2813.2813.2813.75 0 1.0625l-3.4062 3.4062-.0938.0626c-.0937.0937-.2812.125-.4375.125-.3125 0-.5625-.1876-.6875-.4688zm3.875.375c0-.4688.375-.875.8438-.875.4687 0 .8437.4062.8437.875s-.375.8438-.8437.8438c-.4688 0-.8438-.375-.8438-.8438z" fill="var(--db-icon-color, currentColor)" fill-rule="evenodd"/></svg>
