<svg id="icon" height="32" viewBox="0 0 32 32" width="32" xmlns="http://www.w3.org/2000/svg"><path d="m2.0312 29-.0312-7.9219c0-3.4062 2.1875-5.7812 5.4688-5.9062.2187 0 .375.0312.5624.125 1.25.75 2.5938 1.1875 4 1.1875.5 0 1-.0313 1.5-.125.7188-.125 1.125.4062 1.125.9687 0 .4063-.25.8438-.7812.9688-.5938.0937-1.1875.1875-1.7812.1875-1.6563 0-3.3438-.4375-4.8126-1.3438-1.625.1563-3.2812 1.25-3.2812 3.9375v7.9219c0 .5625-.4375 1-1 1-.5312 0-.9688-.4375-.9688-1zm9.9688-26.5c3.3125 0 6 2.6875 6 6s-2.6875 6-6 6-6-2.6875-6-6 2.6875-6 6-6zm-.0155394 2c-2.21018029 0-3.9844606 1.8125-3.9844606 4.0312 0 2.1875 1.77428031 3.9688 3.9844606 3.9688 2.2101803 0 4.0155394-1.7813 4.0155394-3.9688 0-2.2187-1.8053591-4.0312-4.0155394-4.0312zm15.1093394 10.4844c1.5937 0 2.9062 1.3125 2.9062 2.9062v9.1875c0 1.5938-1.3125 2.9063-2.9062 2.9063h-7.1876c-1.5937 0-2.9062-1.3125-2.9062-2.9063v-9.1875c0-1.5937 1.3125-2.9062 2.9062-2.9062zm-.0626 2h-7.0624c-.5313 0-.9688.4375-.9688.9687v9.0625c0 .5313.4375.9688.9688.9688h7.0624c.5313 0 .9688-.4375.9688-.9688v-9.0625c0-.5312-.4375-.9687-.9688-.9687zm-6.0312 9c-.5 0-1-.4063-1-1 0-.5625.4375-1 1-1h.9688c.5937 0 1.0312.4375 1.0312 1s-.4375 1-1.0312 1zm4 0c-.5 0-1-.4063-1-1 0-.5625.4375-1 1-1h.9688c.5937 0 1.0312.4375 1.0312 1s-.4375 1-1.0312 1z" fill="var(--db-icon-color, currentColor)" fill-rule="evenodd"/></svg>
