<svg id="icon" height="20" viewBox="0 0 20 20" width="20" xmlns="http://www.w3.org/2000/svg"><path d="m15.5 16c.5522847 0 1 .4477153 1 1 0 .5128358-.4079285 1-1 1h-11c-.55228475 0-1-.4477153-1-1 0-.5128358.4281311-1 1-1zm-6.39443098-13.447312c.34912564-.69826609 1.31151548-.73501693 1.72519518-.11025254l2.0562358 4.09656454 3.5582998-2.37105029c.6873566-.45823773 1.6595046.08688942 1.549321.940182-.6176106 2.81777522-1.2904221 5.85400699-2.0184343 9.10869519-.0932029.4194084-.4419654.7278953-.8604618.7763972l-10.1157247.0066699c-.42963957 0-.80643839-.2735362-.94457096-.6715451l-2.03161556-9.11141601c-.18735405-.84308329.70169937-1.49275161 1.43607673-1.10545075l3.65210979 2.42751786zm.89443098 2.683312-1.60556902 3.21120601c-.25106203.50213472-.85985603.69284221-1.34682103.44476597l-2.53160995-1.67897198 1.286 5.786h8.395l1.286-5.786-2.4282998 1.61905029c-.4337488.28916589-1.1099691.19967184-1.3900315-.28205714-.5306436-1.05046978-1.0855332-2.15513417-1.6646687-3.31399315z" fill="var(--db-icon-color, currentColor)" fill-rule="evenodd"/></svg>
