<svg id="icon" height="20" viewBox="0 0 20 20" width="20" xmlns="http://www.w3.org/2000/svg"><path d="m15.99024 6c1.1122 0 2.00976.89896831 2.00976 1.99345598v8.01308802c0 1.0944877-.89756 1.993456-2.00976 1.993456h-11.980484c-1.112195 0-2.009756-.8989683-2.009756-1.993456v-8.01308802c0-1.09448767.897561-1.99345598 2.009756-1.99345598zm-1.89925 2.09121565c-2.451966 0-3.681234 1.47310608-3.681234 4.05502325 0 2.1947848.88827 3.7039497 3.400634 3.7039497.53322 0 1.30694-.068011 2.06144-.3378518l-.21602-1.6550032c-.36791.131014-.8192.253414-1.4864.253414-1.53526 0-1.88648-.7341992-1.88648-2.0771928 0-1.4212213.3934-2.20299822 1.79986-2.20299822.49223 0 .99609.10086474 1.51748.29748592l.13453-1.77940639c-.53362-.18129612-1.0864-.25742046-1.64381-.25742046zm-7.271478.19541919h-2.907317v7.40719846h2.848781c1.795122 0 2.965853-.5946713 2.965853-2.1125505 0-1.053621-.563939-1.6074255-1.658536-1.8157658.84633-.3065006 1.229268-.7036493 1.229268-1.56736 0-1.39217389-.995122-1.91152216-2.478049-1.91152216zm1.112195 5.07629126c0 .7958411-.74062749.8426552-1.18808224.845409l-1.03630776.0001721v-1.6613135h1.092683c.353836 0 1.131707 0 1.131707.8157324zm-.370731-2.9590331c0 .6579747-.625385.6579747-.878049.6579747h-.97561v-1.28990683h1.014634c.262001 0 .839025 0 .839025.63193213zm8.439024-8.402118c1.0543618 0 1.9113718.80246133 1.9945143 1.85073766l.0054857.39748734c0 .55228475-.4477153 1-1 1-.5128358 0-1-.43063415-1-.96829012v-.27993488h-12v.248225c0 .55228475-.44771525 1-1 1-.51283584 0-1-.40731777-.99327227-1l-.00672773-.248225c0-1.0543618.80558683-2 2-2z" fill="var(--db-icon-color, currentColor)" fill-rule="evenodd"/></svg>
