<svg id="icon" height="20" viewBox="0 0 20 20" width="20" xmlns="http://www.w3.org/2000/svg"><path d="m9.98698122 6c1.10390068 0 2.01301878.878 2.01301878 1.9837v8c0 1.1057-.9091181 2.0163-2.01301878 2.0163h-5.97396244c-1.13644759 0-2.01301878-.9106-2.01301878-2.0163v-8c0-1.1057.87657119-1.9837 2.01301878-1.9837zm.01301878 2.0163h-6.0163v8h6.0163zm-4.5 5.9837v-2h1v2zm1.9959 0v-2h1v2zm.5041-10.9946229c0-.55130687.45455907-1.0053771 1.00655931-1.0053771h6.98042189c1.1364476 0 2.0130188.90814045 2.0130188 2.01085394v7.97839186c0 1.1027135-.8765712 2.0107542-2.0130188 2.0107542h-.9740123c-.5519004 0-1.0064595-.4540702-1.0064595-1.0053771 0-.5514066.4545591-1.0053771 1.0064595-1.0053771h.9740123v-7.97839186h-6.98042189c-.55200024 0-1.00655931-.45407023-1.00655931-1.00547684z" fill="var(--db-icon-color, currentColor)" fill-rule="evenodd"/></svg>
