<svg id="icon" height="32" viewBox="0 0 32 32" width="32" xmlns="http://www.w3.org/2000/svg"><path d="m4 26.625v-21.25c0-1.875 1.34375-3.375 3-3.375h6c.5625 0 1 .4375 1 1s-.4375 1-1 1h-6c-.53125 0-1 .625-1 1.375v21.25c0 .75.46875 1.375 1 1.375h14c.53125 0 1-.625 1-1.375v-7.625c0-.5625.4375-1 1-1s1 .4375 1 1v7.625c0 1.875-1.34375 3.375-3 3.375h-14c-1.65625 0-3-1.5-3-3.375zm4-3.625c0-.5625.4375-1 1-1h10c.5625 0 1 .4375 1 1s-.4375 1-1 1h-10c-.5625 0-1-.4375-1-1zm0-4c0-.5625.4375-1 1-1h10c.5625 0 1 .4375 1 1s-.4375 1-1 1h-10c-.5625 0-1-.4375-1-1zm0-4c0-.5625.4375-1 1-1h2c.5625 0 1 .4375 1 1s-.4375 1-1 1h-2c-.5625 0-1-.4375-1-1zm0-4c0-.5625.4375-1 1-1h2c.5625 0 1 .4375 1 1s-.4375 1-1 1h-2c-.5625 0-1-.4375-1-1zm0-4c0-.5625.4375-1 1-1h2c.5625 0 1 .4375 1 1s-.4375 1-1 1h-2c-.5625 0-1-.4375-1-1zm13-5c3.875 0 7 3.1562 7 7s-3.125 7-7 7-7-3.1562-7-7 3.125-7 7-7zm.9375 2.125.03125 4.9062c0 .5313-.4375 1-1 1-.15 0-.3-.039936-.434-.103936l-.09725-.052264-4.125-2.5938c-.21875.5313-.34375 1.125-.34375 1.75 0 2.75 2.25 5 5 5s5-2.25 5-5c0-2.4374-1.75-4.4374-4.03125-4.9062zm-2 0c-1 .2188-1.875.75-2.5625 1.4688l2.59375 1.625z" fill="var(--db-icon-color, currentColor)" fill-rule="evenodd"/></svg>
