<svg id="icon" height="32" viewBox="0 0 32 32" width="32" xmlns="http://www.w3.org/2000/svg"><path d="m12.7071724 14.2931471c-.3909822-.3909878-1.0229535-.3909878-1.4139357 0-.3909823.3909878-.3909823 1.022968 0 1.4139558l2.9998636 2.9999063c.1949912.1949939.4509795.2929908.7069679.2929908.2559883 0 .5119767-.0979969.7069678-.2929908l5.9997273-5.9998125c.3909823-.3909878.3909823-1.0229681 0-1.4139559-.3909822-.3909877-1.0229535-.3909877-1.4139357 0l-5.2927594 5.2928346zm12.2928276-1.2528424c0 6.7109195-2.9439 11.6087557-9 14.9596953-6.0552-3.3509396-9-8.2487758-9-14.9596953v-4.70999875l9-4.33030595 9 4.33030595zm-8.2950833-10.8863047c-.2255-.103-.46475-.154-.7049167-.154s-.4794167.051-.7049167.154l-9.7313333 4.576c-.341.155-.56375.52-.56375.923v5.347c0 7.523 3.53191667 13.23 10.5948333 16.901.1265.066.2658334.099.4051667.099s.2786667-.033.4051667-.099c7.0629166-3.671 10.5948333-9.377 10.5948333-16.901v-5.347c0-.403-.22275-.768-.56375-.923z" fill="var(--db-icon-color, currentColor)" fill-rule="evenodd"/></svg>
