<svg id="icon" height="20" viewBox="0 0 20 20" width="20" xmlns="http://www.w3.org/2000/svg"><path d="m2 17v-3.625c0-1.3125 1.0312-2.375 2.3438-2.375h2.6562c.5625 0 1 .4375 1 1s-.4375 1-1 1h-2.6562c-.1876 0-.3438.1562-.3438.375v3.625c0 .5625-.4375 1-1 1s-1-.4375-1-1zm1.5-11.5c0-1.9375 1.5938-3.5 3.5-3.5 1.9375 0 3.5 1.5625 3.5 3.5 0 1.9062-1.5625 3.5-3.5 3.5-1.9062 0-3.5-1.5938-3.5-3.5zm2 0c0 .8125.6875 1.5 1.5 1.5.8438 0 1.5-.6875 1.5-1.5 0-.8438-.6562-1.5-1.5-1.5-.8125 0-1.5.6562-1.5 1.5zm4.5 10.875v-5.7188c0-.9062.7188-1.6562 1.625-1.6562h4.75c.9062 0 1.625.75 1.625 1.6562v5.7188c0 .875-.7188 1.625-1.625 1.625h-4.75c-.9062 0-1.625-.75-1.625-1.625zm2-.375h4v-5h-4z" fill="var(--db-icon-color, currentColor)" fill-rule="evenodd"/></svg>
