<svg id="icon" height="32" viewBox="0 0 32 32" width="32" xmlns="http://www.w3.org/2000/svg"><path d="m27.4252903 17.6524522c.8143455.4508714 1.4804435 1.0961372 1.9222575 1.9222575.4504827.8423295.6297547 1.6661269.650404 3.1742468l.0020482 4.2510435c0 .5522847-.4477153.9999499-1 .9999499-.5128358 0-1.0053459-.3969457-1.0053459-.9999499v-4.4297454c-.0253326-1.0581186-.1433729-1.5524277-.4107327-2.0523471-.2554144-.4775834-.6242455-.8464145-1.1018289-1.1018289-.5356279-.2864569-1.0648155-.4015012-2.2879241-.4147628l-5.1736374-.0013158c-1.3671662 0-1.9341885.1120762-2.5026235.4160786-.4775834.2554144-.8464145.6242455-1.1018289 1.1018289-.2850022.5329078-.4013194 1.064574-.4147457 2.2554608l-.0013329 4.2266317c0 .5522847-.4477153.9999499-1 .9999499-.5128358 0-1-.4124011-1-.9999499v-3.979469c0-1.6702974.1741835-2.5515366.6524522-3.4458213.441814-.8261203 1.0961372-1.4804435 1.9222575-1.9222575.8383919-.4483769 1.665318-.6294914 3.1416915-.6503793 2.9710997-.0013819 4.7775406-.0020729 5.4193229-.0020729.9626733 0 2.208975.054171 3.2895662.6524522zm-17.1752903-.6524522c.5522847 0 1 .4477153 1 1 0 .5128358-.3987093 1.0013158-1 1h-2.1222296c-.17349042 0-.53592172.010121-1.08729392.0303631-.71771158.0504575-1.1158878.16822-1.52256903.3857155-.47758338.2554144-.84641446.6242455-1.10182884 1.1018289-.2174955.4066812-.33525798.8048574-.38571553 1.522569l-.03036308 1.0872939v3.8722296c0 .5522847-.44771525 1-1 1-.51283584 0-1-.4153644-1-1 0-.389757 0-1.6805002 0-3.8722296 0-1.776598.16819357-2.6475757.65245221-3.5530607.44181398-.8261203 1.0961372-1.4804435 1.92225752-1.9222575.85222112-.4557728 1.67387534-.6315711 3.24875293-.6506761zm11.25-13c-3.0375661 0-5.5 2.46243388-5.5 5.5 0 3.0375661 2.4624339 5.5 5.5 5.5s5.5-2.4624339 5.5-5.5c0-3.03756612-2.4624339-5.5-5.5-5.5zm0 2c1.9329966 0 3.5 1.56700338 3.5 3.5 0 1.9329966-1.5670034 3.5-3.5 3.5s-3.5-1.5670034-3.5-3.5c0-1.93299662 1.5670034-3.5 3.5-3.5zm-11-2c1.1103524 0 2.1739573.33075828 3.0753658.9396131.4576653.30912927.5780775.93073909.2689483 1.38840441-.3091293.45766532-.9307391.57807758-1.3884044.26894831-.5733278-.38725329-1.2476912-.59696582-1.9559097-.59696582-1.93299662 0-3.5 1.56700338-3.5 3.5 0 1.9329966 1.56700338 3.5 3.5 3.5.701547 0 1.369894-.205761 1.9398682-.5861948.4593608-.3066041 1.0802981-.1827702 1.3869021.2765906.3066041.4593609.1827702 1.0802981-.2765906 1.3869022-.8962002.5981759-1.9503163.922702-3.0501797.922702-3.03756612 0-5.5-2.4624339-5.5-5.5 0-3.03756612 2.46243388-5.5 5.5-5.5z" fill="var(--db-icon-color, currentColor)" fill-rule="evenodd"/></svg>
