<svg id="icon" height="20" viewBox="0 0 20 20" width="20" xmlns="http://www.w3.org/2000/svg"><path d="m3 16.375v-12.75c0-.90625.71875-1.625 1.625-1.625h1.375c.5625 0 1 .4375 1 1s-.4375 1-1 1h-1v12h8v-2c0-.5625.46875-1 1-1 .5625 0 1 .4375 1 1v2.375c0 .90625-.71875 1.625-1.625 1.625h-8.75c-.90625 0-1.625-.71875-1.625-1.625zm4-3.375c0-.5625.4375-1 1-1h2c.5625 0 1 .4375 1 1s-.4375 1-1 1h-2c-.5625 0-1-.4375-1-1zm5.5-11c2.46875 0 4.5 2.03125 4.5 4.5s-2.03125 4.5-4.5 4.5-4.5-2.03125-4.5-4.5 2.03125-4.5 4.5-4.5zm.21875 2.03125v2.86219l-2.4375-1.51844c-.15625.3125-.28125.71875-.28125 1.125 0 1.375 1.125 2.5 2.5 2.5s2.5-1.125 2.5-2.5c0-1.3125-1-2.375-2.28125-2.46875z" fill="var(--db-icon-color, currentColor)" fill-rule="evenodd"/></svg>
