<svg id="icon" height="20" viewBox="0 0 20 20" width="20" xmlns="http://www.w3.org/2000/svg"><path d="m7.1674543 11c1.01080966-.0010344 1.8311677.8178056 1.8325457 1.8291558v3.3410645c-.00137797 1.0114509-.82163496 1.8304697-1.8325457 1.8297797h-3.33865359c-1.00959091-.0010331-1.82776858-.8196486-1.82880071-1.8297797v-3.3410645c.00137601-1.0098873.81945315-1.8281228 1.82880071-1.8291558zm-.1674543 2h-3v3h3zm9.1703836-11c1.0100412.00103249 1.8285838.81950209 1.8296164 1.82945322v3.33984479c-.0006878 1.01029635-.8192306 1.82932486-1.8296164 1.83070199h-3.3407672c-1.0100412-.00103249-1.8285838-.81950209-1.8296164-1.82945322v-3.34109356c.0010326-1.00995113.8195752-1.82842073 1.8296164-1.82945322zm-.1703836 2h-3v3h3zm-8.82961641-2c1.00979776.00103202 1.82823978.8192677 1.82961641 1.82915514v3.34168972c-.00171968 1.00974499-.81996097 1.82777999-1.82961641 1.82915514h-3.34076718c-1.00965544-.00137515-1.82789673-.81941015-1.82961641-1.82915514v-3.34168972c.00137663-1.00988744.81981865-1.82812312 1.82961641-1.82915514zm-.17038359 2h-3v3h3zm5 11c-.5522847 0-1-.4477153-1-1v-2c0-.5522847.4477153-1 1-1h2c.5522847 0 1 .4477153 1 1v2h2c.5522847 0 1 .4477153 1 1v2c0 .5522847-.4477153 1-1 1h-2c-.5522847 0-1-.4477153-1-1v-2z" fill="var(--db-icon-color, currentColor)" fill-rule="evenodd"/></svg>
