<svg id="icon" height="32" viewBox="0 0 32 32" width="32" xmlns="http://www.w3.org/2000/svg"><path d="m21.5156225 7.8125c3.59376 0 6.5 2.90625 6.5 6.5s-2.90624 6.5-6.5 6.5c-3.5625 0-6.5-2.90625-6.5-6.5s2.90626-6.5 6.5-6.5zm-12.531245-3.625c2.7469098 0 5 2.22222222 5 5 0 2.7469136-2.2530902 5-5 5-2.77777888 0-5-2.2530864-5-5 0-2.77777778 2.22222112-5 5-5zm5.750005 23.625c1.875 0 3.40624-1.53125 3.40624-3.40625s-1.53124-3.40625-3.40624-3.40625c-1.906255 0-3.406255 1.53125-3.406255 3.40625s1.5 3.40625 3.406255 3.40625z" fill="var(--db-icon-color, currentColor)" fill-rule="evenodd"/></svg>
