<svg id="icon" height="32" viewBox="0 0 32 32" width="32" xmlns="http://www.w3.org/2000/svg"><path d="m26.001835 10.999875c1.5978806 0 3.000375 1.2774166 2.9952817 3.000375l.0050933 7.9995c0 1.5978806-1.2983106 3.000375-3.000375 3.000375h-13.9995c-1.5978806 0-3.000375-1.2802399-2.99528167-3.000375l-.00509333-7.9995c0-1.5978806 1.3004452-3.000375 3.000375-2.9952817zm-13.9995 2.00025c-.5128999 0-1.000125.4351768-.9933964 1.000125l-.0067286 7.9995c0 .5128999.4110735 1.000125 1.000125.9933964l13.9995.0067286c.5128999 0 .9933964-.4093578.9933964-1.000125l.0067286-7.9995c0-.5128999-.4026856-1.000125-1.000125-1.0002687zm11.0007225 1.2135825c.4055339.0057982.7996095.0530809 1.206.13701s.5865.4730242.5865.7340925-.0985397.4714495-.2710692.6137245c-.1725296.1422751-.399835.1995439-.6191808.1560005-.2792968-.0557438-.5634451-.0835732-.84825-.0830775-1.4175 0-1.812.78075-1.812 2.27625 0 1.4115.39375 2.20275 1.8015 2.20275.3006665-.0024419.6003388-.0348826.8945625-.09684.2147855-.0500807.440695-.0001146.6143259.135875s.2762702.3433466.2791116.563875-.0690851.6069902-.52974.7592175c-.4390816.1450982-.8996323.19851-1.36026.1948725-2.3805 0-3.56025-1.3485-3.56025-3.75 0-2.415 1.25775-3.84375 3.61875-3.84375zm-7.3215.17025c1.8013091 0 2.338467.7846872 2.4271776 1.6990164.0887105.9143293-.4577228 1.5792331-1.1964276 1.7104836 1.0755.21975 1.61175.74325 1.61175 1.80225 0 1.45425-1.1415 2.061-2.901 2.061h-2.0385c-.4142136 0-.75-.3357864-.75-.75v-5.77275c0-.4142136.3357864-.75.75-.75zm-.02925 4.22475h-1.05975v1.5435h.933c.819 0 1.2405-.19725 1.2405-.80625 0-.486-.29925-.73725-1.11375-.73725zm4.3526065-12.6088325c1.655706 0 2.997296 1.34365824 2.997296 3.000375 0 .55235379-.4477712 1.000125-1.000125 1.000125-.5128999 0-.9933964-.40840217-.9933964-1.000125 0-.4205318-.3076886-.99340133-1.0037746-.99340133l-14.00565797-.00672367c-.51100041 0-.93269791.38579132-.99033327.88342563l-.00671276 8.11214387c0 .5132199.38519747.9356698.88083318.9934013l1.11667631.0067237c.55235379 0 1.000125.4477712 1.000125 1.000125 0 .5128999-.38608845.9356241-.8834893.9933964l-1.11709916.0067286c-1.59657371 0-2.90106752-1.2493965-2.9922092-2.8241145l-.00508683-8.171705c0-1.5975483 1.27296256-3.000375 2.99729603-3.000375zm-4.4306065 9.8885825h-.98175v1.17225h.94275c.59025 0 .879-.17175.879-.5955 0-.40725-.276-.57675-.84-.57675z" fill="var(--db-icon-color, currentColor)" fill-rule="evenodd"/></svg>
