<svg id="icon" height="24" viewBox="0 0 24 24" width="24" xmlns="http://www.w3.org/2000/svg"><path d="m15.9933 2c1.6678 0 3.0067 1.3614878 3.0067 3.00468686v13.99062624c0 1.6431991-1.3389 3.0046869-3.0067 3.0046869h-7.9866c-1.6678 0-3.0067-1.3614878-3.0067-3.0046869v-13.99062624c0-1.64319906 1.3389-3.00468686 3.0067-3.00468686zm0 2.01874744h-8.0101c-.5402 0-.9866.44600118-.9866 1.00942369v13.99062627c0 .5399382.4464.9859394.9866.9859394h8.0101c.5637 0 1.0101-.4460012 1.0101-.9859394v-13.99062627c0-.56342251-.4464-1.00942369-1.0101-1.00942369zm-7.9866 12.98130256c0 .5398383.4463.9858395 1.0101.9858395.5402 0 .9866-.4460012.9866-.9858395 0-.5634225-.4464-1.0094237-.9866-1.0094237-.5638 0-1.0101.4460012-1.0101 1.0094237zm2.9832 0c0 .5398383.4463.9858395 1.0101.9858395.5403 0 .9866-.4460012.9866-.9858395 0-.5634225-.4463-1.0094237-.9866-1.0094237-.5638 0-1.0101.4460012-1.0101 1.0094237zm3.0067 0c0 .5398383.4464.9858395.9866.9858395.5638 0 1.0101-.4460012 1.0101-.9858395 0-.5634225-.4463-1.0094237-1.0101-1.0094237-.5402 0-.9866.4460012-.9866 1.0094237z" fill="var(--db-icon-color, currentColor)" fill-rule="evenodd"/></svg>
