<svg id="icon" height="20" viewBox="0 0 20 20" width="20" xmlns="http://www.w3.org/2000/svg"><path d="m14.3013797 10c.9877264 0 1.5345948.1116309 2.0939223.4232263.5212373.2903758.9337686.7200959 1.2093596 1.2568774.2672996.5206323.376744 1.0273798.3931285 1.8873796l.0022099 2.4325167c0 .5522847-.4477153 1-1 1-.5128358 0-.9974131-.4072088-1-1-.0036912-.8458381-.0053097-1.6917064-.0048553-2.5376049-.0148707-.46152-.065259-.6654186-.1696894-.8688226-.0962642-.1874983-.2294152-.3261973-.4034864-.4231706-.183745-.1023624-.3656862-.1512934-.7949988-.1657026l-2.9493536-.0046993c-.6529356 0-.8762351.0459759-1.0995854.1704019-.1740712.0969733-.3072222.2356723-.4034864.4231706-.1038671.2023068-.1546138.4070034-.1696336.8567849l-.0049111 2.5496426c0 .5522847-.44771525 1-1 1-.51283584 0-.99827602-.4035941-1-1-.00213012-.7369086-.00213012-1.4738473 0-2.2108161 0-.989966.10507588-1.5437221.39533842-2.1090802.27559095-.5367815.68812223-.9665016 1.20935962-1.2568774.50615176-.2819718 1.00597266-.4010414 1.81922126-.4203601zm-8.0513797 0c.55228475 0 1 .4477153 1 1 0 .5128358-.39881897 1-1 1l-.97931629.0102017c-.35758629.0193635-.5216713.0680759-.68943371.1611192-.17553314.0973531-.30955521.2363389-.40626242.423863-.08608048.1669178-.13515925.3320305-.15831392.6478215l-.01667366 2.7569946c0 .5522847-.44771525 1-1 1-.51283584 0-1-.4078827-1-1v-2.1512387c0-1.0493735.10207255-1.5975254.39743964-2.1702689.27680799-.5367558.69090429-.966189 1.21378385-1.2561851.51787661-.2872213 1.01828217-.4027257 1.88888849-.4199818zm6.75-7c-1.6568542 0-3 1.34314575-3 3s1.3431458 3 3 3 3-1.34314575 3-3-1.3431458-3-3-3zm0 2c.5522847 0 1 .44771525 1 1s-.4477153 1-1 1-1-.44771525-1-1 .4477153-1 1-1zm-6-2c.30239712 0 .59989734.04506608.88452034.1328034.52777818.16269185.82373912.7224284.66104727 1.25020658-.15107101.49007974-.64449178.78027625-1.13677845.68897228-.22522251-.05622699-.3066717-.07198226-.40878916-.07198226-.55228475 0-1 .44771525-1 1s.44771525 1 1 1c.06065222 0 .16115757-.00358035.26432091-.03504427.53283524-.1452758 1.08255285.1689032 1.22782865.70173843s-.16890319 1.08255284-.70173843 1.22782865c-.25596906.06978913-.52130732.10547719-.79041113.10547719-1.65685425 0-3-1.34314575-3-3s1.34314575-3 3-3z" fill="var(--db-icon-color, currentColor)" fill-rule="evenodd"/></svg>
