<svg id="icon" height="24" viewBox="0 0 24 24" width="24" xmlns="http://www.w3.org/2000/svg"><path d="m3.87401785 7.43307c0-1.88976 1.5433073-3.43307 3.4330713-3.43307 1.889763 0 3.40157395 1.54331 3.40157395 3.43307s-1.51181095 3.401576-3.40157395 3.401576c-1.889764 0-3.4330713-1.511816-3.4330713-3.401576zm5.0078743 10.267717c0 1.259843 1.007874 2.299213 2.29921205 2.299213 1.259843 0 2.299208-1.03937 2.299208-2.299213 0-1.259842-1.039365-2.299212-2.299208-2.299212-1.29133805 0-2.29921205 1.03937-2.29921205 2.299212zm2.46184975-6.857037c-.0051567-2.4343 1.9476003-4.38706 4.4042903-4.38706 2.3937 0 4.37795 1.95276 4.37795 4.377956 0 2.456693-1.98425 4.409448-4.37795 4.409448s-4.4042903-1.994094-4.4042903-4.400344z" fill="var(--db-icon-color, currentColor)" fill-rule="evenodd"/></svg>
