<svg id="icon" height="24" viewBox="0 0 24 24" width="24" xmlns="http://www.w3.org/2000/svg"><path d="m18.9882679 6c.5845781 0 1.0117321.4620532 1.0076756 1.02325313 1.1289113 0 2.0040565.97674687 2.0040565 1.97674687v10c0 1-1 2-2 2h-5c-1 0-2-1-2-2l-.001-1.03c-.3330277.02-.6660277.03-.999.03-1.6666667 0-3.46666667-.107-5.4-.321v.321c0 .5522847-.44771525 1-1 1h-.6c-.55228475 0-1-.4477153-1-1l.00011242-1.7569867c-.36707043-.5315917-.55060564-2.017076-.55060564-4.456453-.03108446-.2693986-.01811876-.533728.03318502-.7857861l-.83445986-.0007742c-.37003519 0-.64823194-.3213333-.64823194-.6893333v-.6666667c0-.36866667.27819675-.644.64823194-.644h1.41176806l.94712197-4.206949c.2307565-.98895643 1.11787803-1.793051 1.99430272-1.793051h8.48381531c.5212981 0 .82476.42892611.82476.80253002 0 .37360392-.3034619.89646883-.8039465.89646883-.6249782 0-3.395967.00033372-8.3129665.00100115-.20822573 0-.43985214.14620738-.53043495.479342l-.85765205 3.820658 7.194-.00031165c.001-.87182504.7620937-1.99657168 2.001-1.97643522 0-.75168401.6462196-1.02325313 1.0065381-1.02325313zm1.0076756 2.71933242-4.9939786.007825c-.1367449.00004263-.3019649.08526225-.3019649.31419613v9.96313165c0 .1579519.1206642.2955148.3019649.2955148h4.9939786c.1796326 0 .3040565-.1510174.3040565-.2955148v-9.97095665c0-.15541641-.089795-.31419613-.3040565-.31419613zm-10.46027965 4.05027978c-.50287691.1005753-.88298822.6239539-.78446454 1.1766968.08127952.4168691.16461286.8335357.25 1.25.08569444.4284722.44825786.8038838.99880069.8038838l2.999-.0001928v-1.999l-2.198.0001928-.0886393-.4471161c-.1005754-.5028769-.6738199-.8850399-1.17669685-.7844645zm-5.01624453.0342717c-.11058351.50187.18492352 1.0267492.78446454 1.1766968.77158502.1537334 1.18825169.2370667 1.25.25.56887405.1128665 1.07612143-.2815877 1.17669682-.7844646.10057538-.5028769-.2143892-1.0478817-.78446454-1.1766968l-1.13307002-.2165433c-.69323409-.139379-1.15716569.1316955-1.2936268.7510079zm12.78483538-1.407863c.1965152-.3646295.6514129-.5009129 1.0160423-.3043977.3342437.180139.4766133.577391.3466536.9232062l-.6689506 1.2544973.2448534.0004405c.5339808.0011954.9308335.5740549.6556247 1.1111795-.2947701.534065-.7037075 1.2788839-1.2268123 2.2344567-.199475.3630188-.6554662.4955973-1.018485.2961223-.3327672-.182852-.5062333-.6340537-.2961223-1.0184849.1654152-.2990335.3710624-.6746048.6169415-1.1267141l-.2316836.0000852c-.5314586-.0011897-.9274043-.5643621-.658541-1.1058204.4056191-.7572942.8124455-1.512151 1.2204793-2.2645706z" fill="var(--db-icon-color, currentColor)" fill-rule="evenodd"/></svg>
