<svg id="icon" height="48" viewBox="0 0 48 48" width="48" xmlns="http://www.w3.org/2000/svg"><path d="m41.5527386 9.00045657c1.1682025-.01677931 2.2947844.43340212 3.129717 1.25063293.8349326.8172308 1.3091489 1.9339085 1.3174035 3.1022023v21.9998893c-.0086205 2.4524972-1.9946233 4.4385-4.4471205 4.4471205h-35.15268022c-1.17385416-.0041477-2.29774619-.4755241-3.12335691-1.3099807-.82561071-.8344565-1.28498316-1.9633081-1.27673315-3.1371398v-21.9998893c-.00422748-1.1639721.4594782-2.2808375 1.28695745-3.0994509.82747925-.81861343 1.94927481-1.2702617 3.11313261-1.25338433zm-35.15268022 3.14284133c-.33276263-.0273941-.66124564.0895707-.90180778.3211117-.24056213.2315411-.36999045.555316-.35532875.8888822l.00076832 22.1437647c.01901005.2857759.14173211.5567759.34785601.7603233.24047787.2374719.57133128.3602788.9085122.3372236h35.21553702c.3318472.0087374.6527099-.1192471.8874425-.3539798.2347327-.2347327.3627173-.5555954.3539799-.8874425l-.0628569-21.9841751c.0089631-.3305011-.1194835-.6499298-.3547533-.8822215s-.5563089-.356659-.886669-.3434866zm27.71986052 2.1685605c3.5514107 0 5.7199712 1.9328474 5.7199712 4.8871183-.035696 2.1654733-1.4538793 4.0648259-3.5199823 4.714262 2.4530323.3054482 4.2782736 2.4156714 4.2271216 4.8871182 0 4.0071227-2.734272 5.6728286-7.7471039 5.6728286h-7.1342498v-20.1613271zm-18.6527633-.0314284c5.1856882 0 8.0928164 3.2999834 8.0928164 9.9942354 0 5.8456849-1.97999 10.1513775-8.0928164 10.1985201h-7.43281973v-20.1927555zm17.112771 11.7542266h-2.1057037v5.1385455l2.0496573-.0000659c.8146375-.002177 3.1836357-.0761942 3.1988878-2.5927782 0-1.0999944-.6285683-2.5457014-3.1428414-2.5457014zm-18.6213348-8.5485285h-1.0842803v13.687074h1.6971343c2.6085583 0 4.101408-2.0271326 4.101408-6.4585389 0-4.0542653-.4399978-7.2285351-4.714262-7.2285351zm18.0084808-.078571h-1.4928497v4.8871183h1.8857048c.6884929.068162 1.3729797-.1635742 1.8784664-.6359636.5054867-.4723893.782974-1.1396408.7615203-1.8311669 0-1.6814201-.8328529-2.4199878-3.0328418-2.4199878z" fill="var(--db-icon-color, currentColor)" fill-rule="evenodd"/></svg>
