<svg id="icon" height="24" viewBox="0 0 24 24" width="24" xmlns="http://www.w3.org/2000/svg"><path d="m11.999945 12.9374c3.09374 0 6.37497 1.1563 7.46872 2.0938h1.53124c.5625 0 .99999.4687.99999 1 0 .5627-.43749 1-.99999 1h-1.28124c-1.2456597 3.0077639-4.1749666 4.981745-7.4382257 5.0316548l-.2804943-.0004548c-3.374979.0625-6.437463-1.9375-7.718707-5.0312h-1.281238c-.5625022 0-1-.4373-1-1 0-.5313.4374978-1 1-1h1.531237c1.093745-.9375 4.374978-2.0938 7.468708-2.0938zm0 2c-2.031235.0313-3.999975.5-5.812466 1.4063.968745 2.3125 3.281233 3.8125 5.812466 3.7187 2.53124.0938 4.84373-1.4062 5.84372-3.7187-1.81249-.9063-3.81248-1.375-5.84372-1.4063zm1.53125 1.3438c.56249 0 .99999.4375.99999 1 0 .9375-1.12499 1.2187-2.53124 1.2187-1.312489 0-2.531233-.1875-2.531233-1.2187 0-.5313.437498-1 .968745-1 .125 0 .781246.2187 1.562488.2187.40625 0 .84375-.2187 1.53125-.2187zm-1.53125-14.2812c4.74998 0 8.59371 3.8437 8.59371 8.625 0 .5312-.4375 1-.99999 1-.53125 0-.96875-.4688-.96875-1 0-3.6563-2.96873-6.625-6.62497-6.625-3.687477 0-6.624962 2.9687-6.624962 6.625 0 .5625-.468748 1-1.031245 1-.531247 0-.968745-.5-.968745-1 .03125-4.7813 3.84373-8.625 8.624952-8.625z" fill="var(--db-icon-color, currentColor)" fill-rule="evenodd"/></svg>
