<svg id="icon" height="20" viewBox="0 0 20 20" width="20" xmlns="http://www.w3.org/2000/svg"><path d="m6 18h8c1.0938 0 2-.9062 2-2v-12c0-1.125-.9062-2-2-2h-8c-1.0938 0-2 .875-2 2v12c0 1.0938.9062 2 2 2zm0-2v-12h8v12zm1-3.0158917c0-.5079459.42621954-.9841083.98363811-.9841083.59014235 0 1.01636189.4761624 1.01636189.9841083 0 .5397293-.42621954 1.0158917-1.01636189 1.0158917-.55741857 0-.98363811-.4761624-.98363811-1.0158917zm3.9968 0c0-.5079459.4516322-.9841083.9999502-.9841083.5484176 0 1.0000498.4761624 1.0000498.9841083 0 .5397293-.4516322 1.0158917-1.0000498 1.0158917-.548318 0-.9999502-.4761624-.9999502-1.0158917z" fill="var(--db-icon-color, currentColor)" fill-rule="evenodd"/></svg>
