<svg id="icon" height="64" viewBox="0 0 64 64" width="64" xmlns="http://www.w3.org/2000/svg"><g fill="none" fill-rule="evenodd" transform="translate(8 14.505)"><path d="m29.142 1.717c5.695-1.723 12.518-2.195 19.031-1.207a1 1 0 0 1 .793 1.245c-4.046 15.007-10.527 23.887-18.448 27.246-6.042 2.562-12.66 1.492-16.186-1.672a1 1 0 0 1 1.336-1.488c2.945 2.643 8.738 3.579 14.07 1.318 6.969-2.955 13.068-10.824 16.993-24.832-5.594-.634-11.606-.33-17.01 1.305-7.464 2.26-12.969 6.814-15.786 14.219a1 1 0 1 1 -1.87-.712c3.056-8.028 9.056-12.993 17.077-15.422z" fill="#282D37" style="fill: currentColor;fill: var(--db-icon-color, currentColor)" fill-rule="nonzero"/><path d="m37.679 10.712a1 1 0 0 1 .094 1.411c-2.792 3.192-6.72 6.459-9.13 8.262-7.953 5.952-16.007 9.164-23.624 8.133a19.768 19.768 0 0 1 -4.373-1.108 1 1 0 0 1 .709-1.87c1.278.485 2.589.815 3.932.996 6.986.946 14.584-2.084 22.158-7.752 2.337-1.748 6.436-5.248 8.823-7.977a1 1 0 0 1 1.41-.095z" fill="#78be14" style="fill:#78be14;fill: var(--db-icon-pulse-color, #78be14)"/></g></svg>
