<svg id="icon" height="20" viewBox="0 0 20 20" width="20" xmlns="http://www.w3.org/2000/svg"><path d="m15.5 16a1 1 0 0 1 0 2h-11a1 1 0 0 1 -1-1c0-.513.428-1 1-1zm-6.394-13.447a1 1 0 0 1 1.725-.11l2.056 4.096 3.558-2.371c.688-.458 1.66.087 1.55.94-.618 2.818-1.29 5.854-2.019 9.109a1 1 0 0 1 -.86.776l-10.116.007a1 1 0 0 1 -.945-.672l-2.031-9.111c-.188-.843.702-1.493 1.436-1.106l3.652 2.429 1.994-3.986zm.894 2.683-1.606 3.211a1 1 0 0 1 -1.346.445l-2.532-1.679 1.286 5.786h8.395l1.286-5.786-2.428 1.62c-.434.288-1.11.199-1.39-.283a861.24 861.24 0 0 1 -1.665-3.314z" fill="var(--db-icon-color, currentColor)" fill-rule="evenodd"/></svg>
