<svg id="icon" height="20" viewBox="0 0 20 20" width="20" xmlns="http://www.w3.org/2000/svg"><path d="m15 2c1.598 0 3 1.257 3 3 .002 3.333.002 6.667 0 10 0 1.598-1.261 3-3 3h-10c-1.598 0-3-1.272-3-3-.002-3.333-.002-6.667 0-10a3.013 3.013 0 0 1 3-3h4.344l-3.045 3.04a.987.987 0 0 0 0 1.415c.34.333 1.016.384 1.414 0 .433-.429.864-.86 1.293-1.292v6.835c0 .589.487 1 1 1s1-.442 1-1c.002-2.278.002-4.557 0-6.835.43.433.86.864 1.293 1.292a1 1 0 0 0 1.414-1.414c-.666-.669-1.683-1.683-3.05-3.044z" fill="var(--db-icon-color, currentColor)" fill-rule="evenodd"/></svg>
