<svg id="icon" height="32" viewBox="0 0 32 32" width="32" xmlns="http://www.w3.org/2000/svg"><path d="m21.023 2c.289 0 .529.111.706.289l3.982 4.014a.998.998 0 0 1 .289.706v5.991a3.012 3.012 0 0 1 2.999 3.003v7.995a3.011 3.011 0 0 1 -3.002 3.002h-14.169v.282c0 .274-.088 2.718-3.15 2.718-3.506 0-5.678-3.871-5.678-10.042 0-7.796 2.876-9.619 5-9.907v-5.803c0-1.253.996-2.248 2.248-2.248zm-12.344 10c-2.653 0-3.686 3.428-3.686 7.958 0 3.991 1.127 8.005 3.686 8.005.61 0 1.15-.094 1.15-.681v-2.535c0-.352-.305-.634-.681-.634h-.822c-.962 0-1.338-1.221-1.338-4.132 0-2.558.352-4.131 1.338-4.131h.822c.376 0 .681-.282.681-.634v-2.535c0-.54-.446-.681-1.15-.681zm17.318 3h-14.169v.216c0 1.452-1.203 2.634-2.681 2.634h-.02c-.069.38-.14 1.034-.14 2.131s.058 1.75.119 2.132h.041c1.478 0 2.681 1.182 2.681 2.634v.253h14.171c.543 0 1.002-.459 1.002-1.002l-.002-7.996c0-.543-.459-1.002-1.002-1.002zm-7.985 6c.541 0 .988.442.988 1s-.447 1-.988 1h-.023a.993.993 0 0 1 -.988-1c0-.558.447-1 .988-1zm6 0c.541 0 .988.442.988 1s-.447 1-.988 1h-.023a.993.993 0 0 1 -.988-1c0-.558.447-1 .988-1zm-3 0c.541 0 .988.442.988 1s-.447 1-.988 1h-.023a.993.993 0 0 1 -.988-1c0-.558.447-1 .988-1zm-3-3c.541 0 .988.442.988 1s-.447 1-.988 1h-.023a.993.993 0 0 1 -.988-1c0-.558.447-1 .988-1zm6 0c.541 0 .988.442.988 1s-.447 1-.988 1h-.023a.993.993 0 0 1 -.988-1c0-.558.447-1 .988-1zm-3 0c.541 0 .988.442.988 1s-.447 1-.988 1h-.023a.993.993 0 0 1 -.988-1c0-.558.447-1 .988-1zm-1.956-14h-8.817a.253.253 0 0 0 -.257.257v5.931c1.779.568 1.846 2.265 1.846 2.493v.319h12.172v-3.991h-3.949a1 1 0 0 1 -.995-.995zm1.944.409v2.601h2.569z" fill="var(--db-icon-color, currentColor)" fill-rule="evenodd"/></svg>
