<svg id="icon" height="32" viewBox="0 0 32 32" width="32" xmlns="http://www.w3.org/2000/svg"><path d="m8.5 4a1 1 0 0 1 1 1c0 .513-.413 1.007-1 1-.5.002-1 .002-1.5 0-.513 0-1 .422-1 1-.002 6-.002 12 0 18 0 .513.48 1 1 1 6 .002 12 .002 18 0 .513 0 1-.457 1-1v-18c0-.513-.434-1-1-1-.5-.002-1-.002-1.5 0a1 1 0 0 1 0-2h1.5c1.598 0 3 1 3 3v18c0 1.598-1.175 3-3 3h-18c-1.598 0-3-1.276-3-3-.002-6-.002-12 0-18 0-1.598 1.261-3 3-3 .5-.002 1-.002 1.5 0zm8.207.293c2.16 2.175 2.503 2.497 5 5 .378.387.37 1.045 0 1.414-.37.37-.974.398-1.414 0a1277.96 1277.96 0 0 1 -3.293-3.293c.002 4.195.002 7.724 0 10.586 0 .58-.487 1-1 1s-1-.42-1-1a9255.2 9255.2 0 0 1 0-10.586l-3.293 3.293-.094.083a1 1 0 0 1 -1.403-1.403l.083-.094c2.644-2.654 4.31-4.321 5-5 .42-.374 1.003-.409 1.414 0z" fill="var(--db-icon-color, currentColor)" fill-rule="evenodd"/></svg>
