<svg id="icon" height="24" viewBox="0 0 24 24" width="24" xmlns="http://www.w3.org/2000/svg"><path d="m14.9941 2c1.6673 0 3.0059 1.3386 3.0059 3.0059v14.043c0 1.6439-1.3386 2.9511-3.0059 2.9511h-5.9882c-1.6673 0-3.0059-1.3072-3.0059-2.9511v-14.043c0-1.6673 1.3386-3.0059 3.0059-3.0059zm-4.99797495 2h-.98823942c-.56470824 0-1.01178563.44576538-1.01178563 1.0088164v14.0293214c0 .5395739.4706236.9618622 1.01178563.9618622h5.99997497c.541162 0 .9882394-.4457654.9882394-.9853393v-14.02932141c0-.54996378-.4464762-.98533929-.9882394-.98533929h-1.0117856c0 .66565099-.4758339.98533929-.9882395.98533929h-1.9999248c-.5412622 0-1.01178565-.44576537-1.01178565-.98533929zm.00387495 13.0174079c0-.5205.43264-1.0197.9917702-1.0174079l1.9981046.0077079c.5835703.0022 1.0101252.4323 1.0101252.998 0 .4999-.3886478.9982-1.0092274.9982h-1.9990024c-.555539 0-.9917702-.4698-.9917702-.9865z" fill="var(--db-icon-color, currentColor)" fill-rule="evenodd"/></svg>
