<svg id="icon" height="20" viewBox="0 0 20 20" width="20" xmlns="http://www.w3.org/2000/svg"><path d="m2.375 6.459c0 4.438 6.47 10.968 10.83 10.968 2.013 0 4.42-1.953 4.42-3.748 0-.533-.178-1.065-.592-1.48l-1.4-1.42c-.316-.316-.691-.473-1.086-.473a1.69 1.69 0 0 0 -1.183.493l-1.44 1.44c-1.677-1.342-2.822-2.545-4.44-4.38l1.44-1.46a1.69 1.69 0 0 0 .494-1.183c0-.355-.118-.73-.375-1.006l-1.46-1.58c-.433-.452-.966-.63-1.539-.63-1.736 0-3.669 2.387-3.669 4.459z" fill="#282D37" style="fill: currentColor;fill: var(--db-icon-color, currentColor)" fill-rule="evenodd"/></svg>
