<svg id="icon" height="24" viewBox="0 0 24 24" width="24" xmlns="http://www.w3.org/2000/svg"><path d="m2.97031369 19.9968751c0-.2817395.1251953-.5321301.31298826-.7199231l2.71669805-2.7229478v-11.58056564c0-1.65888786 1.35214935-2.97343856 3.01093706-2.97343856h6.00937464c1.5023436 0 2.9796883 1 2.9796883 2.56650375l1.3083009-1.3145507c.2190418-.18779296.4694324-.28163936.719823-.28163936.5633788 0 1.0015624.43818357 1.0015624 1.00156244 0 .28163935-.1251953.50078122-.3129883.68857417l-16.02499895 16.024999c-.18779296.187793-.43818357.3129883-.71982292.3129883-.56337887 0-1.00156244-.4695325-1.00156244-1.0015625zm4.0374985 1.2206042 1.439746-1.4083971c.15654421.1251953.3334001.2190417.55244181.2190417h6c.5633789 0 1-.4694323 1-1.0015625v-6.8231441l2-2.0031248v8.8262689c0 1.6588879-1.3411121 2.9734386-3 2.9734386h-6c-.75117183 0-1.42880894-.2817395-1.99218781-.7825207zm.99218781-6.6384761 8-8.01249945v-1.56494131c0-.53213013-.4375-1.00156244-1-1.00156244h-1c0 .56337887-.4687 1.00156244-1 1.00156244h-2c-.5625 0-1-.43818357-1-1.00156244h-1c-.5625 0-1 .46943231-1 1.00156244zm2.4506831 3.20508 1.7840831-1.7840832h.7824206c.5321301 0 1.0015624.4381836 1.0015624.9703137 0 .5633789-.4694323 1.0328112-1.0015624 1.0328112h-2.0031249c-.1877929 0-.4068346-.0938464-.5633788-.2190417z" fill="var(--db-icon-color, currentColor)" fill-rule="evenodd"/></svg>
