<svg id="icon" height="32" viewBox="0 0 32 32" width="32" xmlns="http://www.w3.org/2000/svg"><path d="m11 4a1 1 0 0 1 1 1c0 .513-.387 1-1 1-1.333.002-2.667.002-4 0-.513 0-1 .417-1 1-.002 6-.002 12 0 18 0 .513.511 1 1 1 6 .002 12 .002 18 0 .513 0 1-.429 1-1v-18c0-.513-.392-1-1-1-1.333-.002-2.667-.002-4 0a1 1 0 0 1 -1-1c0-.513.433-1 1-1 1.333-.002 2.667-.002 4 0 1.598 0 3.09 1.38 3 3 .002 6 .002 12 0 18 0 1.598-1.32 3.061-3 3-6 .002-12 .002-18 0-1.598 0-3-1.259-3-3-.002-6-.002-12 0-18a3.007 3.007 0 0 1 3-3c1.333-.002 2.667-.002 4 0zm5 0a1 1 0 0 1 1 1c.002 3.861.002 7.723 0 11.584l3.293-3.291c.435-.44 1.054-.36 1.414 0s.414 1.007 0 1.414a3264.756 3264.756 0 0 1 -5 5c-.36.36-.958.431-1.414 0a3266.702 3266.702 0 0 1 -5-5 1 1 0 0 1 0-1.414c.36-.36.944-.431 1.414 0 1.099 1.095 2.197 2.192 3.293 3.291v-11.584a1 1 0 0 1 1-1z" fill="var(--db-icon-color, currentColor)" fill-rule="evenodd"/></svg>
