<svg id="icon" height="24" viewBox="0 0 24 24" width="24" xmlns="http://www.w3.org/2000/svg"><path d="m14.994 2a2.997 2.997 0 0 1 3.006 3.006v14.043c0 1.644-1.339 2.951-3.006 2.951h-5.988c-1.667 0-3.006-1.307-3.006-2.951v-14.043a2.997 2.997 0 0 1 3.006-3.006zm-4.998 2h-.988c-.565 0-1.012.446-1.012 1.009v14.03c0 .539.47.961 1.012.961h6a.993.993 0 0 0 .988-.985v-14.03a.986.986 0 0 0 -.988-.985h-1.012c0 .666-.476.985-.988.985h-2c-.541 0-1.012-.445-1.012-.985zm.004 13.017c0-.52.433-1.02.992-1.017l1.998.008c.583.002 1.01.432 1.01.998 0 .5-.389.998-1.01.998h-1.998c-.556 0-.992-.47-.992-.987z" fill="var(--db-icon-color, currentColor)" fill-rule="evenodd"/></svg>
