<svg id="icon" height="24" viewBox="0 0 24 24" width="24" xmlns="http://www.w3.org/2000/svg"><path d="m2.97 19.997c0-.282.126-.532.313-.72l2.717-2.723v-11.58c0-1.661 1.352-2.974 3.01-2.974h6.01c1.503 0 2.98 1 2.98 2.567l1.308-1.315c.22-.188.47-.282.72-.282a.989.989 0 0 1 1.002 1.002c0 .282-.126.5-.313.688l-16.025 16.025a1.019 1.019 0 0 1 -.72.313c-.564 0-1.002-.47-1.002-1.001zm4.038 1.22 1.44-1.408c.156.125.333.22.552.22h6c.563 0 1-.47 1-1.002v-6.824l2-2.003v8.827c0 1.658-1.341 2.973-3 2.973h-6c-.751 0-1.429-.282-1.992-.783zm.992-6.637 8-8.012v-1.566c0-.533-.438-1.002-1-1.002h-1c0 .563-.469 1.002-1 1.002h-2c-.563 0-1-.439-1-1.002h-1c-.563 0-1 .47-1 1.002v9.577zm2.45 3.205 1.786-1.785h.782c.532 0 1.002.438 1.002.97 0 .564-.47 1.033-1.002 1.033h-2.003a.975.975 0 0 1 -.563-.219z" fill="var(--db-icon-color, currentColor)" fill-rule="evenodd"/></svg>
