<svg id="icon" height="20" viewBox="0 0 20 20" width="20" xmlns="http://www.w3.org/2000/svg"><path d="m15.412 2c1.51 0 2.588 1.132 2.588 2.499v8.003a2.509 2.509 0 0 1 -2.51 2.498h-8.647c-.294 0-.549.079-.725.274l-2.412 2.44c-.627.624-1.706.156-1.706-.722v-12.493c0-1.367 1.137-2.499 2.53-2.499zm-5.412 8.875c-.64 0-1.125.49-1.125 1.114s.485 1.136 1.125 1.136 1.125-.512 1.125-1.136-.485-1.114-1.125-1.114zm.243-7.015c-.899 0-1.886.435-2.312.78l.682 1.768c.43-.238.985-.426 1.465-.426.559 0 .705.255.705.537 0 .311-.178.515-.42.702l-.54.377c-.42.306-.82.71-.82 1.513v.764h1.995v-.764c-.005-.269.27-.468.75-.892s1.014-1.01 1.014-2.08c0-1.389-1.1-2.28-2.519-2.28z" fill="var(--db-icon-color, currentColor)" fill-rule="evenodd"/></svg>
