<svg id="icon" height="24" viewBox="0 0 24 24" width="24" xmlns="http://www.w3.org/2000/svg"><path d="m18.995 2a3.026 3.026 0 0 1 3.005 3.005v10c0 1.643-1.361 2.98-3.005 2.98h-11.033a.956.956 0 0 0 -.704.283l-3.568 3.45a.94.94 0 0 1 -.68.282c-.518 0-1.01-.4-1.01-1.01v-15.984a3.026 3.026 0 0 1 3.005-3.006zm0 2.019h-13.99a.963.963 0 0 0 -.986.986v13.709l1.854-1.808c.54-.493 1.197-.822 1.902-.845h11.22c.564 0 .986-.446.986-1.01v-10.045a.963.963 0 0 0 -.986-.986zm-6.995 1.981c.558 0 1 .462 1 1.015v2.516c0 .577-.419.969-1 .969-.558 0-1-.415-1-.97v-2.514c0-.485.349-1.016 1-1.016zm.024 7.925c.633 0 1.173-.493 1.173-1.15 0-.61-.54-1.127-1.173-1.127-.61 0-1.15.516-1.15 1.127 0 .657.54 1.15 1.15 1.15z" fill="var(--db-icon-color, currentColor)" fill-rule="evenodd"/></svg>
