<svg id="icon" height="24" viewBox="0 0 24 24" width="24" xmlns="http://www.w3.org/2000/svg"><path d="m8 3a1 1 0 0 1 1 1c0 .513-.455 1.007-1 1-.667.002-1.333.002-2 0a1 1 0 0 0 -1 1c-.002 4-.002 8 0 12 0 .513.437 1 1 1 4 .002 8 .002 12 0 .513 0 1-.398 1-1 .002-4 .002-8 0-12 0-.513-.424-1-1-1-.667-.002-1.333-.002-2 0a1 1 0 0 1 0-2c.667-.002 1.333-.002 2 0 1.598 0 3 1.262 3 3 .002 4 .002 8 0 12 0 1.598-1.287 3-3 3-4 .002-8 .002-12 0-1.598 0-3-1.261-3-3-.002-4-.002-8 0-12 0-1.598 1.294-3 3-3 .667-.002 1.333-.002 2 0zm4 0c.513 0 1 .403 1 1 .002 2.528.002 5.057 0 7.585l2.293-2.292c.466-.393.938-.393 1.414 0 .36.36.427.958 0 1.414a2098.688 2098.688 0 0 1 -4 4c-.36.36-.95.422-1.414 0a2099.687 2099.687 0 0 1 -4-4 1 1 0 0 1 0-1.414c.36-.36.92-.425 1.414 0 .766.762 1.53 1.526 2.293 2.292v-7.585a1 1 0 0 1 1-1z" fill="var(--db-icon-color, currentColor)" fill-rule="evenodd"/></svg>
