<svg id="icon" height="32" viewBox="0 0 32 32" width="32" xmlns="http://www.w3.org/2000/svg"><path d="m24 14c.5522847 0 1 .4477153 1 1 0 4.6333431-3.4989419 8.5036019-8 9v4h2c.5522847 0 1 .4477153 1 1 0 .5128358-.45 1-1 1h-6c-.5522847 0-1-.4477153-1-1 0-.5128358.45-1 1-1h2v-4c-4.5015389-.4959437-8-4.3663142-8-9 0-.5522847.44771525-1 1-1s1 .4477153 1 1c0 3.8659932 3.1340068 7 7 7s7-3.1340068 7-7c0-.5522847.4477153-1 1-1zm-8-12c2.7614237 0 5 2.23857625 5 5v8c0 2.7614237-2.2385763 5-5 5s-5-2.2385763-5-5v-8c0-2.76142375 2.2385763-5 5-5z" fill="var(--db-icon-color, currentColor)" fill-rule="evenodd"/></svg>
