<svg id="icon" height="32" viewBox="0 0 32 32" width="32" xmlns="http://www.w3.org/2000/svg"><path d="m21.56 6.04h-1.69v-2.32h1.17c.07 0 .14.02.21.07l1.34.79a.835.835 0 0 0 1.16-.3c.24-.41.1-.93-.3-1.16l-1.34-.79c-.33-.19-.7-.3-1.07-.3l-10.09-.03c-.4 0-.8.12-1.15.34l-1.23.79c-.39.25-.51.78-.25 1.17.25.39.78.51 1.17.25l1.23-.79c.08-.05.16-.08.23-.08h1.23v2.35h-1.68c-2.47 0-4.5 2.02-4.5 4.5v14.97c0 2.47 2.03 4.5 4.5 4.5h11.07c2.47 0 4.5-2.03 4.5-4.5v-14.96c0-2.47-2.02-4.5-4.5-4.5zm-3.39 0h-4.3v-2.34h4.3zm-6 20.84h-1.81a.85.85 0 1 1 0-1.7h1.81a.85.85 0 1 1 0 1.7zm4.73-3.99h-1.81a.85.85 0 1 1 0-1.7h1.81a.85.85 0 1 1 0 1.7zm4.76 3.99h-1.81a.85.85 0 1 1 0-1.7h1.81a.85.85 0 1 1 0 1.7zm.86-9.84c0 1.08-.89 1.97-1.97 1.97h-9.06a1.98 1.98 0 0 1 -1.97-1.97v-6.06c0-1.08.89-1.97 1.97-1.97h9.06c1.08 0 1.97.89 1.97 1.97z" fill="#282D37" style="fill: currentColor;fill: var(--db-icon-color, currentColor)" fill-rule="evenodd"/></svg>
