<svg id="icon" height="20" viewBox="0 0 20 20" width="20" xmlns="http://www.w3.org/2000/svg"><path d="m5.735 2.613 1.323.439a1.35 1.35 0 0 1 .952 1.46l-1.438 6.648c.894.382 1.603.911 2.113 1.592.459.611.794 1.331 1.008 2.155h4.298a2.125 2.125 0 1 1 -.109 1.701c-3.3 0-4.949-.001-4.949-.003-.14 0-.666-.158-.766-.707-.146-.87-.428-1.574-.842-2.126-.27-.361-.646-.667-1.134-.915l-.336 1.496a2.125 2.125 0 1 1 -1.611-.592c0 .007.67-3.051 2.012-9.175l-1.01-.344c-.43-.13-.716-.633-.57-1.059.148-.426.57-.704 1.06-.57zm6.93 9.283c1.101-1.063 2.272-1.405 3.693-1.232a.85.85 0 0 1 -.205 1.687c-.935-.113-1.594.079-2.307.768a.85.85 0 1 1 -1.181-1.223z" fill="#282D37" style="fill: currentColor;fill: var(--db-icon-color, currentColor)" fill-rule="evenodd" transform="matrix(-1 0 0 1 20.26 0)"/></svg>
