<svg id="icon" height="32" viewBox="0 0 32 32" width="32" xmlns="http://www.w3.org/2000/svg"><path d="m6.698 25.562c2.745.787 4.51 1.223 5.295 1.308 1.177.128 1.825.128 2.916.128h2.182c1.382 0 1.542 0 2.735-.102.796-.068 2.621-.513 5.476-1.333a7.729 7.729 0 0 1 -5.078 4.188 1.249 1.249 0 0 0 -1.4-.988c-1.114.157-2.057.237-2.824.237-.768 0-1.711-.079-2.823-.237-.64-.092-1.224.299-1.401.988-2.075-.41-4.122-2.14-5.078-4.19zm11.802-23.562c3.975 0 7.365 3.34 7.496 7.264.003 8.974-.008 13.598-.031 13.872-1.806.833-4.716 1.675-6.707 1.807-1.244.057-1.68.055-3.258.057-1.58.002-2.33.002-3.158-.05-2.196-.166-5.338-1.098-6.807-1.815-.047-.168-.059-4.713-.035-13.635 0-3.946 3.311-7.364 7.262-7.496zm-7.296 18.505a1.125 1.125 0 0 0 -.277 2.22l2.243.28a1.125 1.125 0 0 0 .278-2.22zm7.536.28a1.125 1.125 0 0 0 .277 2.22l2.243-.28a1.125 1.125 0 0 0 -.277-2.22zm-5.917-16.735a4 4 0 0 0 -3.635 4.303l.676 8.443a2 2 0 0 0 1.841 1.835l2.696.206a21 21 0 0 0 3.198 0l2.696-.206a2 2 0 0 0 1.841-1.835l.676-8.443a4 4 0 0 0 -3.635-4.303c-.368-.033-5.986-.033-6.354 0z" fill="#282D37" style="fill: currentColor;fill: var(--db-icon-color, currentColor)" fill-rule="evenodd"/></svg>
