<svg id="icon" height="32" viewBox="0 0 32 32" width="32" xmlns="http://www.w3.org/2000/svg"><path d="m21 2c1.6568542 0 3 1.34314575 3 3v22c0 1.6568542-1.3431458 3-3 3h-10c-1.65685425 0-3-1.3431458-3-3v-22c0-1.65685425 1.34314575-3 3-3zm-9 2h-1c-.5522847 0-1 .44771525-1 1v22c0 .5522847.4477153 1 1 1h10c.5522847 0 1-.4477153 1-1v-22c0-.55228475-.4477153-1-1-1h-1c0 .55228475-.4477153 1-1 1h-6c-.5522847 0-1-.44771525-1-1zm6 20c.5522847 0 1 .4477153 1 1s-.4477153 1-1 1h-4c-.5522847 0-1-.4477153-1-1s.4477153-1 1-1z" fill="var(--db-icon-color, currentColor)" fill-rule="evenodd"/></svg>
