<svg id="icon" height="32" viewBox="0 0 32 32" width="32" xmlns="http://www.w3.org/2000/svg"><path d="m5 16c0-6.063 4.906-11 11-11 .969 0 1.906.125 2.844.375.437.125.718.5.718.938 0 .687-.593 1.156-1.25 1a8.258 8.258 0 0 0 -2.312-.313c-4.969 0-9 4.031-9 9s4.031 9 9 9c.781 0 1.563-.094 2.313-.313.562-.125 1.25.22 1.25 1a.966.966 0 0 1 -.72.938c-.937.25-1.874.375-2.843.375-6.094 0-11-4.938-11-11z" fill="#282D37" style="fill: currentColor;fill: var(--db-icon-color, currentColor)" fill-rule="evenodd"/></svg>
