<svg id="icon" height="32" viewBox="0 0 32 32" width="32" xmlns="http://www.w3.org/2000/svg"><path d="m26.002 11c1.598 0 3 1.277 2.995 3l.005 8c0 1.598-1.298 3-3 3h-14c-1.598 0-3-1.28-2.995-3l-.005-8c0-1.598 1.3-3 3-2.995zm-14 2c-.513 0-1 .435-.993 1l-.007 8c0 .513.411 1 1 .993l14 .007c.513 0 .993-.41.993-1l.007-8c0-.513-.403-1-1-1zm11.001 1.214c.406.006.8.053 1.206.137s.587.473.587.734a.766.766 0 0 1 -.272.614c-.172.142-.4.2-.619.156a4.296 4.296 0 0 0 -.848-.084c-1.417 0-1.812.781-1.812 2.277 0 1.411.394 2.202 1.802 2.202.3-.002.6-.034.894-.096a.728.728 0 0 1 .894.7c.002.22-.07.606-.53.759-.44.145-.9.198-1.36.194-2.38 0-3.56-1.348-3.56-3.75 0-2.415 1.257-3.843 3.618-3.843zm-7.321.17c1.8 0 2.338.785 2.427 1.699.088.914-.458 1.58-1.197 1.71 1.076.22 1.612.744 1.612 1.803 0 1.454-1.141 2.06-2.9 2.06h-2.04a.75.75 0 0 1 -.75-.75v-5.772a.75.75 0 0 1 .75-.75zm-.03 4.225h-1.06v1.543h.934c.819 0 1.24-.197 1.24-.806 0-.486-.3-.737-1.114-.737zm4.353-12.61a2.999 2.999 0 0 1 2.997 3.001 1 1 0 0 1 -1 1 .994.994 0 0 1 -.993-1c0-.42-.308-.993-1.004-.993l-14.006-.007a.998.998 0 0 0 -.99.884l-.007 8.112a1 1 0 0 0 .881.993l1.117.007a1 1 0 0 1 .116 1.993l-1.116.007a2.999 2.999 0 0 1 -2.992-2.824l-.006-8.172c0-1.597 1.273-3 2.997-3h14.006zm-4.43 9.89h-.982v1.172h.942c.59 0 .88-.172.88-.596 0-.407-.277-.577-.84-.577z" fill="#282D37" style="fill: currentColor;fill: var(--db-icon-color, currentColor)" fill-rule="evenodd"/></svg>
