<svg id="icon" height="20" viewBox="0 0 20 20" width="20" xmlns="http://www.w3.org/2000/svg"><g fill="#282D37" style="fill: currentColor;fill: var(--db-icon-color, currentColor)" fill-rule="evenodd"><path d="m15.75 10.25c1.077.037 2 .755 2 1.75 0 .972-.89 1.725-2 1.747v.744c0 .793-.099 1.368-.356 1.84a2.557 2.557 0 0 1 -1.063 1.063c-.444.237-.88.337-1.612.354l-1.21.002c-.872 0-1.352-.095-1.84-.356a2.567 2.567 0 0 1 -1.063-1.063c-.237-.444-.337-.88-.354-1.612l-.002-4.469zm-1.5 1.5h-4.5l.001 2.923c.007.398.027.585.109.8.082.216.322.494.517.599.142.075.39.177.921.177h1.352c.57 0 .803-.086.973-.177a1.08 1.08 0 0 0 .449-.449c.089-.167.178-.51.178-.842zm-7.1-9.518c1.051.514 1.19 1.425.765 2.348l-.265.518c.26.158.4.447.362.742l-.155 1.22c.48-.06.874.245.91.654a.765.765 0 0 1 -.694.835l-4.939.373c-.09 1.158.438 2.595.858 3.196l1.947-.923c.338-.172.7-.103.956.241.255.345.114.857-.19 1.044l-.85.44c.21.54.77 1.136.933 1.287a.75.75 0 0 1 -1.02 1.1 5.707 5.707 0 0 1 -.61-.663 5.156 5.156 0 0 1 -.67-1.102l-.39.185a.75.75 0 0 1 -.863-.16c-.619-.647-1.068-1.516-1.357-2.596-.29-1.08-.335-2.058-.123-2.928.068-.28.302-.621 1.004-.596-.071-.595-.075-1.112-.01-1.549a3.83 3.83 0 0 1 1.287-2.36.75.75 0 0 1 .678-.166l.152-.289c.498-.956 1.196-1.383 2.284-.85zm4.35 4.768v2h-1.5v-2zm2.5-1v3h-1.5v-3zm-9.335-.945c-.27.453-.413.785-.455 1.278-.027.329-.013.639.042.93l2.081-.104.13-1.023z"/><path d="m15.75 10.25c1.077.037 2 .755 2 1.75 0 .972-.89 1.725-2 1.747v.744c0 .793-.099 1.368-.356 1.84a2.557 2.557 0 0 1 -1.063 1.063c-.444.237-.88.337-1.612.354l-1.21.002c-.872 0-1.352-.095-1.84-.356a2.567 2.567 0 0 1 -1.063-1.063c-.237-.444-.337-.88-.354-1.612l-.002-4.469zm-1.5 1.5h-4.5l.001 2.923c.007.398.027.585.109.8.082.216.322.494.517.599.142.075.39.177.921.177h1.352c.57 0 .803-.086.973-.177a1.08 1.08 0 0 0 .449-.449c.089-.167.178-.51.178-.842zm-7.1-9.518c1.051.514 1.19 1.425.765 2.348l-.265.518c.26.158.4.447.362.742l-.155 1.22c.48-.06.874.245.91.654a.765.765 0 0 1 -.694.835l-4.939.373c-.09 1.158.438 2.595.858 3.196l1.947-.923c.338-.172.7-.103.956.241.255.345.114.857-.19 1.044l-.85.44c.21.54.77 1.136.933 1.287a.75.75 0 0 1 -1.02 1.1 5.707 5.707 0 0 1 -.61-.663 5.156 5.156 0 0 1 -.67-1.102l-.39.185a.75.75 0 0 1 -.863-.16c-.619-.647-2.035-2.798-1.48-5.524.058-.289.302-.621 1.004-.596-.183-1.72.243-3.024 1.277-3.91a.762.762 0 0 1 .678-.165l.152-.289c.498-.956 1.196-1.383 2.284-.85zm4.35 4.768v2h-1.5v-2zm2.5-1v3h-1.5v-3zm-9.335-.945c-.449.63-.587 1.366-.413 2.209l2.081-.105.13-1.023z"/></g></svg>
