<svg id="icon" height="24" viewBox="0 0 24 24" width="24" xmlns="http://www.w3.org/2000/svg"><path d="m17.5 2c2.4852814 0 4.5 2.01471863 4.5 4.5 0 1.08939837-.3818039 2.13300375-1.143 2.994.0953333.50506416.143 1.0070642.143 1.506 0 3.3664173-2.0986559 6.3374798-5.2007271 7.496296-.5173645.1932678-1.0934458-.0694646-1.2867136-.5868291-.1932677-.5173644.0694646-1.0934457.5868291-1.2867135 2.3263824-.8690482 3.9006116-3.0976811 3.9006116-5.6227534 0-.4283968 0-1-.3715662-2.17990538 1.0521378-.82009462 1.3715662-1.57395985 1.3715662-2.32009462 0-1.38071187-1.1192881-2.5-2.5-2.5-.6839717 0-1.5551228.26029279-2.3182431 1.37228631-.9457485-.244138-1.1817569-.37228631-2.1817569-.37228631-.6666667 0-1.3933018.12385539-2.1799054.37156616-.6207756-.91437744-1.39414051-1.37156616-2.3200946-1.37156616-1.38071187 0-2.5 1.11928813-2.5 2.5 0 .6133493.14725003 1.38237337 1.37228631 2.31824313-.16194775.42678806-.27727272 1.01267774-.30752437 1.29616937 1.6816599.36458 3.04740686 1.574621 3.63039346 3.162539.1206431.0306333.232368.0948728.3351747.1927184.3896539.389654.8584089.3432824 1.0826816.0536263.0707378-.1056588.1175673-.2433879.1321451-.4097418l-.0001568-.3635544h-.245c-.4142136 0-.75-.3357864-.75-.75 0-.3796958.2968675-.75.75-.75.6665862-.0021714 1.3332529-.0021714 2 0 .4142136 0 .75.3357864.75.75 0 .2262582-.1825173.75-.75.75h-.246l.0008432.3635544c.0155633.1776.0678864.3225742.1460794.4310161.2103973.2499413.7758541.2179926 1.0687473-.0749006s.767767-.2928932 1.0606602 0 .2928932.767767 0 1.0606602c-.9014379.9014379-2.1898219.9694155-3.0303301.2446699-.5596808.5121881-1.3373606.6100535-2.0043722.3950978-.0385797.8253374-.2356769 1.5582597-.5912915 2.1987669l.9047182.7536985c.2153424-.0792774.448089-.1225632.6909455-.1225632 1.1045695 0 2 .8954305 2 2s-.8954305 2-2 2-2-.8954305-2-2c0-.1158639.0098524-.2294267.0287651-.3398963l-.90539723-.755439c-.85574755.6854078-1.94168587 1.0953353-3.12336787 1.0953353-2.76142375 0-5-2.2385763-5-5 0-2.4372351 1.74381594-4.4671802 4.05182883-4.9102163.01827818-.16584305.05167249-.38486198.09117117-.5957837-.63551076-.67575687-1.143-1.78818319-1.143-2.994 0-2.48528137 2.01471863-4.5 4.5-4.5 1.08939837 0 2.0981833.34422152 2.994 1.142.5480311-.09466667 1.0500311-.142 1.506-.142.4746818 0 .9961756.03904316 1.505.143.8698943-.75133804 1.867651-1.143 2.995-1.143zm-1.5 6c.5522847 0 1 .44771525 1 1s-.4477153 1-1 1-1-.44771525-1-1 .4477153-1 1-1zm-6 0c.5522847 0 1 .44771525 1 1s-.4477153 1-1 1c-.55228475 0-1-.44771525-1-1s.44771525-1 1-1zm-4 4c-1.65685425 0-3 1.3431458-3 3s1.34314575 3 3 3 3-1.3431458 3-3-1.34314575-3-3-3z" fill="var(--db-icon-color, currentColor)" fill-rule="evenodd"/></svg>
