<svg id="icon" height="32" viewBox="0 0 32 32" width="32" xmlns="http://www.w3.org/2000/svg"><path d="m4 23.1487c0-1.3669.4796-2.7338 1.4149-3.813.2158-.2398.4796-.3357.7434-.3357.5995 0 1.0072.4556 1.0072 1.0072 0 .2158-.072.4316-.2159.6235-.5995.6954-.9592 1.6067-.9592 2.518 0 2.1103 1.6786 3.8513 3.789 3.8513 1.2709 0 2.446-.5899 3.1894-1.5971.2158-.2878.5276-.4317.8154-.4317.5275 0 1.0311.4077 1.0311 1.0072 0 .2158-.0719.4317-.2158.5995-1.1271 1.5108-2.8777 2.4221-4.8201 2.4221-3.1175 0-5.7794-2.5659-5.7794-5.8513zm3.5012-7.1463c0-.5516.4556-1.0072 1.0072-1.0072h.7194c1.1511 0 2.1583.6235 2.494 1.6787l.0959.3261h3.4293c.5515 0 1.0072.4412 1.0072.9928s-.4557 1.0072-1.0072 1.0072h-2.8298l.5996 2h3.5012c.4316 0 .7674.2542.9352.6619l2.1823 5.1798c.0479.0959.0719.2159.0719.3358 0 .4796-.3837.9832-1.0072.9832-.4316 0-.7674-.2398-.9352-.6475l-1.9425-4.5084h-3.5491c-.4317 0-.8394-.2878-.9593-.7194l-1.4388-4.8681c-.0959-.3118-.2158-.4317-.6475-.4317h-.7194c-.5516 0-1.0072-.4316-1.0072-.9832zm0-4.988c0-1.1031.9113-2.0144 2.0144-2.0144s1.9904.9113 1.9904 2.0144-.8873 1.9904-1.9904 1.9904-2.0144-.8873-2.0144-1.9904zm6.3137462-6.12752579c0-.52599876.4705466-.85818053.9134556-.85818053.3599079 0 .7334574.21826557.830543.66436355l.7680043 3.53202232.8651785-3.55965986c.1015147-.41757462.4982727-.63672601.8580919-.63672601.3599079 0 .7570201.21091328.8581805.63672601l.8463106 3.57276996.7592346-3.54513242c.1015148-.47258394.4706352-.66436355.8304546-.66436355.4705464 0 .9134554.33218177.9134554.85818053 0 .08308974-.0055806.16440783-.0276374.24909204l-1.6055452 6.17308885c-.1148907.441846-.4982727.636726-.858092.636726-.3599079 0-.7338116-.1974488-.8581806-.636726l-.885818-3.12800071-.8858181 3.12800071c-.1264062.4464523-.4982726.636726-.8581805.636726-.3598193 0-.7445301-.2222517-.8580919-.6643635l-1.5779077-6.14545135c-.0217026-.08477278-.0276376-.1660023-.0276376-.24909204zm8.830543 3.12800071c0-3.65399947 2.159093-4.04145628 3.1003632-4.04145628.5536363 0 1.1349102.11072725 1.6609088.35981929.387457.16609088.5536364.47054655.5536364.77509079 0 .47054656-.3599078.94118168-.8581805.94118168-.1107273 0-.2490921-.02772609-.3598193-.08300115-.3045443-.13845336-.6090886-.2214545-.9135442-.2214545-.3875454 0-1.4117282 0-1.4117282 2.26982017 0 2.18690758.9134556 2.18690758 1.4117282 2.18690758.3321818-.0276375.6643635-.1107272.9688192-.22145449.1107272-.02763752.2214546-.05536362.3321818-.05536362.4983612 0 .8581805.47063511.8581805.94118171 0 .3321817-.1660909.636726-.5812739.8027283-.5259986.1661795-1.0796349.2769067-1.6332712.3045442-1.1626362 0-3.1280008-.5259987-3.1280008-3.95854368z" fill="var(--db-icon-color, currentColor)" fill-rule="evenodd"/></svg>
