<svg id="icon" height="24" viewBox="0 0 24 24" width="24" xmlns="http://www.w3.org/2000/svg"><path d="m7.022 2c-.321 0-.545.086-.74.281l-4 4a1.043 1.043 0 0 0 -.282.719c0 .25.095.5.281.688l4 4.03a.995.995 0 0 0 .719.282c.563 0 1-.469 1-1a.97.97 0 0 0 -.281-.688l-2.313-2.312h8.594c.563 0 1-.469 1-1 0-.563-.438-1-1-1h-8.594l2.314-2.313a.966.966 0 0 0 .28-.687c0-.531-.406-1-.978-1zm9.978 10c-.563 0-1 .438-1 1 0 .25.11.482.313.688l2.28 2.312h-8.593c-.531 0-1 .438-1 1 0 .531.469 1 1 1h8.594l-2.282 2.313c-.202.205-.312.437-.312.687 0 .563.438 1 1 1a1 1 0 0 0 .719-.281l4-4a1 1 0 0 0 .281-.719 1 1 0 0 0 -.281-.719l-4-4a1 1 0 0 0 -.719-.281z" fill="#282D37" style="fill: currentColor;fill: var(--db-icon-color, currentColor)" fill-rule="evenodd"/></svg>
