<svg id="icon" height="20" viewBox="0 0 20 20" width="20" xmlns="http://www.w3.org/2000/svg"><path d="m9.987 6c1.104 0 2.013.878 2.013 1.984v8c0 1.105-.91 2.016-2.013 2.016h-5.974a2.004 2.004 0 0 1 -2.013-2.016v-8c0-1.106.877-1.984 2.013-1.984zm.013 2.016h-6.016v8h6.016zm-4.5 5.984v-2h1v2zm1.996 0v-2h1v2zm.504-10.995c0-.55.455-1.005 1.007-1.005h6.98c1.136 0 2.013.908 2.013 2.01v7.98c0 1.102-.877 2.01-2.013 2.01h-.974a1.011 1.011 0 0 1 -1.006-1.005 1.01 1.01 0 0 1 1.006-1.006h.974v-7.978h-6.98a1.011 1.011 0 0 1 -1.007-1.006z" fill="var(--db-icon-color, currentColor)" fill-rule="evenodd"/></svg>
