<svg id="icon" height="20" viewBox="0 0 20 20" width="20" xmlns="http://www.w3.org/2000/svg"><path d="m10 2c.1148571 0 .2305714.027.3377143.081l5.4025714 2.789c.1577143.079.2597143.26.2597143.46v2.67c0 4.498-1.9371429 7.852-5.8097143 9.952-.0591428.032-.1251428.048-.1902857.048-.06514286 0-.13114286-.016-.19028571-.048-3.87257143-2.1-5.80971429-5.454-5.80971429-9.952v-2.67c0-.2.102-.381.25971429-.46l5.40257142-2.789c.10714286-.054.22285715-.081.33771429-.081zm1.6615645 5.29323534-2.46919468 2.29288535-.85393432-.79296035c-.42104453-.39098045-1.10160756-.39098045-1.5226521 0-.42104453.39098045-.42104453 1.02294885 0 1.41392926l1.61526037 1.499925c.20998384.1949903.48565495.2929854.76132605.2929854s.5513422-.0979951.76132605-.2929854l3.23052073-2.99984996c.4210445-.39098045.4210445-1.02294885 0-1.4139293s-1.1016076-.39098045-1.5226521 0z" fill="var(--db-icon-color, currentColor)" fill-rule="evenodd"/></svg>
