<svg id="icon" height="20" viewBox="0 0 20 20" width="20" xmlns="http://www.w3.org/2000/svg"><path d="m17 12a1 1 0 0 1 1 1v2c0 1.654-1.346 3-3 3h-2a1 1 0 1 1 0-2h2c.551 0 1-.448 1-1v-2a1 1 0 0 1 1-1m-1-5v-2c0-.552-.449-1-1-1h-2a1 1 0 1 1 0-2h2c1.654 0 3 1.346 3 3v2a1 1 0 1 1 -2 0m-12 6v2c0 .552.449 1 1 1h2a1 1 0 1 1 0 2h-2c-1.654 0-3-1.346-3-3v-2a1 1 0 1 1 2 0m-1-5a1 1 0 0 1 -1-1v-2c0-1.654 1.346-3 3-3h2a1 1 0 1 1 0 2h-2c-.551 0-1 .448-1 1v2a1 1 0 0 1 -1 1m10.25 3.5h-.25v-.25a.75.75 0 0 0 -.75-.75h-1a.75.75 0 0 0 -.75.75v1c0 .414.336.75.75.75h.25v.25c0 .414.336.75.75.75h1a.75.75 0 0 0 .75-.75v-1a.75.75 0 0 0 -.75-.75m-3.75 1.5v-1.5a1 1 0 0 0 -1-1h-1.5a1 1 0 0 0 -1 1v1.5a1 1 0 0 0 1 1h1.5a1 1 0 0 0 1-1m4.5-4.5v-1.5a1 1 0 0 0 -1-1h-1.5a1 1 0 0 0 -1 1v1.5a1 1 0 0 0 1 1h1.5a1 1 0 0 0 1-1m-4.5 0v-1.5a1 1 0 0 0 -1-1h-1.5a1 1 0 0 0 -1 1v1.5a1 1 0 0 0 1 1h1.5a1 1 0 0 0 1-1" fill="var(--db-icon-color, currentColor)" fill-rule="evenodd"/></svg>
