<svg id="icon" height="32" viewBox="0 0 32 32" width="32" xmlns="http://www.w3.org/2000/svg"><path d="m12.985 22.485c0 .281-.219.5-.5.5h-3a.494.494 0 0 1 -.5-.5v-3c0-.28.219-.5.5-.5h3c.281 0 .5.22.5.5zm-.5-5.5h-3a2.507 2.507 0 0 0 -2.5 2.5v3c0 1.375 1.125 2.5 2.5 2.5h3c1.375 0 2.5-1.125 2.5-2.5v-3c0-1.375-1.125-2.5-2.5-2.5zm.5-4.5c0 .281-.219.5-.5.5h-3a.494.494 0 0 1 -.5-.5v-3c0-.28.219-.5.5-.5h3c.281 0 .5.22.5.5zm-.5-5.5h-3a2.507 2.507 0 0 0 -2.5 2.5v3c0 1.375 1.125 2.5 2.5 2.5h3c1.375 0 2.5-1.125 2.5-2.5v-3c0-1.375-1.125-2.5-2.5-2.5zm5.5 10c-.531 0-1 .47-1 1v3c0 .531.469 1 1 1h2v2c0 .563.438 1 1 1h3c.563 0 1-.437 1-1v-3c0-.562-.437-1-1-1h-2v-2c0-.53-.469-1-1-1zm5-4.5c0 .281-.219.5-.5.5h-3a.494.494 0 0 1 -.5-.5v-3c0-.28.219-.5.5-.5h3c.281 0 .5.22.5.5zm-.5-5.5h-3a2.507 2.507 0 0 0 -2.5 2.5v3c0 1.375 1.125 2.5 2.5 2.5h3c1.375 0 2.5-1.125 2.5-2.5v-3c0-1.375-1.125-2.5-2.5-2.5zm1.487-4.983a1.001 1.001 0 0 0 0 2c.676-.002 1.352-.002 2.028 0 1.176.003 2 .945 2 2-.011.652-.021 1.304-.028 1.957a1.017 1.017 0 0 0 .986 1.014 1 1 0 0 0 1.014-.985c.012-.658.021-1.315.028-1.972.025-2.248-1.857-4.014-4-4.014a228.49 228.49 0 0 0 -2.028 0zm-17.97 0a3.99 3.99 0 0 0 -4 4c-.003.665-.003 1.327 0 1.985.001.564.487.985 1 .985a1 1 0 0 0 1-1c-.002-.657-.002-1.314-0-1.97.003-1.144.945-2 2-2h1.971c.575-.003 1-.489 1-1a1 1 0 0 0 -1-1c-.657-.003-1.314-.003-1.971 0zm-4 21.967a343.07 343.07 0 0 0 0 2.03c.005 2.266 1.857 4 4 4h1.971a1.01 1.01 0 0 0 1-1 1 1 0 0 0 -1-1h-1.971a1.99 1.99 0 0 1 -2-2c.002-.678.002-1.354 0-2.03a.995.995 0 0 0 -1-1 1 1 0 0 0 -1 1zm26.996-.999c.513 0 .998.37 1 1 .003.676.003 1.352 0 2.028a3.989 3.989 0 0 1 -4 4c-.676.002-1.352.002-2.028 0a1 1 0 0 1 -1-1c0-.512.422-.998 1-1 .676-.002 1.352-.002 2.028 0 1.055 0 1.998-.878 2-2 .002-.676.002-1.352 0-2.028a1 1 0 0 1 1-1z" fill="var(--db-icon-color, currentColor)" fill-rule="evenodd"/></svg>
