<svg id="icon" height="20" viewBox="0 0 20 20" width="20" xmlns="http://www.w3.org/2000/svg"><path d="m2.0469 11.8438c0-1.7188.6875-3.4375 2.25-4.7188.2187-.1562.4062-.2187.625-.2187.5312 0 .9687.4687.9687 1 0 .25-.0937.5-.3437.7187-1.0938.875-1.5625 2.0625-1.5625 3.25 0 2.2188 1.6562 4.4063 4.2812 4.4063 1.2813 0 2.5313-.5625 3.3438-1.5625.2187-.25.4687-.3438.7187-.3438.5 0 1 .4375 1 .9688 0 .2187-.0625.4062-.2187.625-1.2188 1.4375-2.9688 2.25-4.8438 2.25-3.7812 0-6.2187-3.1875-6.2187-6.375zm4.0312-1.875c0-.4375.4063-.8125.8125-.8125.25 0 .4688.0937.625.3437l1.5938 2.25.2812 1.4688c.0625.4062-.2187.9687-.7812.9687-.375 0-.7188-.25-.7813-.625l-.25-1.3125-1.3437-1.8125c-.125-.1562-.1563-.3125-.1563-.4687zm6.875-7.9688c2.75 0 5 2.25 5 5 0 2.7813-2.25 5-5 5-2.7812 0-5-2.2187-5-5 0-2.75 2.2188-5 5-5zm-.4687 2.3438-1.1563 1.1875 1.6875 1.6875-1.7187 1.6562 1.1875 1.2188 2.875-2.875z" fill="var(--db-icon-color, currentColor)" fill-rule="evenodd"/></svg>
