<svg id="icon" height="24" viewBox="0 0 24 24" width="24" xmlns="http://www.w3.org/2000/svg"><path d="m2 18.969c0 1.656 1.313 3.031 2.969 3.031h8c1.656 0 3-1.375 3-3.031v-1.939c0-.531-.469-1.031-1-1.031-.563 0-.969.5-1 1.031v1.938c0 .562-.438 1.031-1 1.031h-8c-.532.001-.969-.468-.969-1.03v-13.939c0-.562.438-1 .969-1h3.031c.531-.031.969-.437.969-1 0-.562-.438-.969-.969-1h-3.031c-1.657.001-2.969 1.345-2.969 3.001v13.939zm3-1.969c0 .531.438 1 1 1 .563 0 1-.469 1-1 0-.563-.438-1-1-1-.563 0-1 .438-1 1zm3 0c0 .531.469 1 1 1 .563 0 1-.469 1-1 0-.563-.438-1-1-1-.531 0-1 .438-1 1zm1.063-6.781c.062.25.28.5.562.594l.656.25a.994.994 0 0 1 .625.843l.031.719c0 .281.157.563.376.719.25.156.53.219.812.125l.688-.188c.374-.094.75.063 1 .344l.437.563a.998.998 0 0 0 .75.343c.281 0 .563-.125.719-.344l.469-.562c.25-.281.625-.438 1-.344l.687.188c.281.094.594.031.781-.125.25-.156.375-.438.407-.719l.062-.719c0-.375.25-.719.594-.844l.656-.25c.281-.093.469-.343.563-.593a.933.933 0 0 0 -.094-.813l-.375-.594c-.219-.343-.219-.75 0-1.03l.375-.626c.156-.218.187-.531.093-.812-.093-.25-.28-.5-.562-.594l-.656-.25c-.344-.156-.594-.469-.594-.844l-.063-.718c-.03-.282-.156-.563-.406-.72-.187-.155-.5-.218-.781-.155l-.688.187c-.375.094-.75 0-1-.313l-.468-.562a.917.917 0 0 0 -.719-.375c-.281 0-.563.156-.75.375l-.438.563c-.25.312-.624.406-1 .312l-.687-.188c-.281-.062-.563 0-.813.157a.917.917 0 0 0 -.374.719l-.032.718c-.031.375-.281.688-.625.844l-.656.25a.887.887 0 0 0 -.563.594c-.093.281-.062.593.094.812l.406.625c.188.282.188.688 0 1.032l-.406.593a.932.932 0 0 0 -.094.813zm1.937 6.781c0 .531.438 1 1 1 .531 0 1-.469 1-1 0-.563-.469-1-1-1-.563 0-1 .438-1 1zm.906-10.906a.84.84 0 0 1 .844-.844c.469 0 .875.375.875.844a.894.894 0 0 1 -.875.875c-.469 0-.844-.407-.844-.875zm.625 4.156c-.125-.281-.031-.563.156-.781l3.407-3.406.093-.063a.757.757 0 0 1 .97.063c.28.28.28.75 0 1.062l-3.407 3.406-.094.063c-.094.094-.281.125-.437.125-.313 0-.563-.188-.688-.469zm3.875.375c0-.469.375-.875.844-.875s.844.406.844.875a.84.84 0 0 1 -.844.844.84.84 0 0 1 -.844-.844z" fill="var(--db-icon-color, currentColor)" fill-rule="evenodd"/></svg>
