<svg id="icon" height="24" viewBox="0 0 24 24" width="24" xmlns="http://www.w3.org/2000/svg"><path d="m7.5469 9.1563c-1.9688.8125-3.25 2.7187-3.25 4.875 0 3.3125 2.6875 5.25 5.375 5.25 1.9062 0 3.875-1 4.7812-3.2188.1875-.4375.5313-.5937.8438-.5937.5 0 1 .375 1 .9375 0 .125-.0313.25-.0938.375-1.125 2.6875-3.7187 4.4375-6.625 4.4375-4.5312 0-7.1562-3.6875-7.1562-7.2813 0-2.6562 1.375-5.25 4.4062-6.5312.125-.0625.2813-.0938.375-.0938.5625 0 .9375.4688.9375.9688 0 .3437-.1562.6875-.5937.875zm1.375 2.3125 1.3125 1.8437c.125.1875.1875.3438.25.5313l.3437 1.4375c.125.4687-.25 1.1875-.9375 1.1875-.4062 0-.8125-.3125-.9062-.75l-.3125-1.3125-1.3125-1.8125c-.125-.1875-.1875-.375-.1875-.5625 0-.5313.4687-.9688.9687-.9688.3125 0 .5625.1563.7813.4063zm6.8437-9.4688c3.1875 0 5.8125 2.5938 5.8125 5.8125 0 3.1875-2.625 5.7813-5.8125 5.7813s-5.7812-2.5938-5.7812-5.7813c0-3.2187 2.5937-5.8125 5.7812-5.8125zm.8813 2.4688c-.25 0-.4688.125-.6563.3125l-2.125 2.125c-.25.2187-.3437.4375-.3437.6875 0 .2187.0937.4687.3437.6875l2.125 2.0937c.1563.1875.4063.2813.6563.2813.5625 0 1-.4063 1-1 0-.25-.0938-.4688-.2813-.6563l-1.4062-1.4062 1.4062-1.4375c.1875-.1875.2813-.4063.2813-.6875 0-.5313-.4375-1-1-1z" fill="var(--db-icon-color, currentColor)" fill-rule="evenodd"/></svg>
