<svg id="icon" height="32" viewBox="0 0 32 32" width="32" xmlns="http://www.w3.org/2000/svg"><path d="m3 27v-22c0-1.6562 1.3438-3 3-3h7.5c.5312 0 1 .4375 1 1s-.4688 1-1 1h-7.5c-.5625 0-1 .4375-1 1v22c0 .5625.4375 1 1 1h14c.5625 0 1-.4375 1-1v-8c0-.5625.4375-1 1-1s1 .4375 1 1v8c0 1.6562-1.3438 3-3 3h-14c-1.6562 0-3-1.3438-3-3zm4-4c0-.5625.4375-1 1-1h1c.5625 0 1 .4375 1 1s-.4375 1-1 1h-1c-.5625 0-1-.4375-1-1zm4.5 0c0-.5625.4375-1 1-1h1c.5625 0 1 .4375 1 1s-.4375 1-1 1h-1c-.5625 0-1-.4375-1-1zm4.5 0c0-.5625.4375-1 1-1h1c.5625 0 1 .4375 1 1s-.4375 1-1 1h-1c-.5625 0-1-.4375-1-1zm6-21c3.875 0 7 3.125 7 7s-3.125 7-7 7-7-3.125-7-7 3.125-7 7-7zm0 2c-2.75 0-5 2.25-5 5s2.25 5 5 5 5-2.25 5-5-2.25-5-5-5zm-.0889 2.4391 1.9454 1.9455c.1832.1825.2863.4305.2863.6891s-.1031.5066-.2863.6892l-1.9629 1.9454c-.1836.1805-.4313.2809-.6887.2792212-.5367-.0023212-.9687-.4469212-.9687-.9725212 0-.2545.1-.5046.2878-.6909l1.2655-1.2548-1.2548-1.2548c-.1898-.1899-.2847-.4388-.2847-.6876 0-.54.4401-.973.9729-.973.2491 0 .4982.0951.6882.2852z" fill="var(--db-icon-color, currentColor)" fill-rule="evenodd"/></svg>
