<svg id="icon" height="24" viewBox="0 0 24 24" width="24" xmlns="http://www.w3.org/2000/svg"><path d="m13 21c.75 0 1.5625-.0938 2.3125-.3125.4375-.125.7188-.5.7188-.9687 0-.5313-.4375-1-.9688-1-.25 0-1.125.2812-2.0625.2812-3.875 0-7-3.125-7-7s3.125-7 7-7c1 0 1.875.2812 2.0625.2812.5313 0 .9688-.4687.9688-1 0-.4687-.2813-.8437-.7188-.9687-.75-.2187-1.5625-.3125-2.3125-.3125-5 0-9 4.0312-9 9s4 9 9 9zm0-6c.25 0 .4688-.0312.6875-.2812l7-7.0313c.1875-.1875.2813-.4375.2813-.6875 0-.5625-.4375-1-.9688-1-.2812 0-.5312.0938-.7187.2812l-6.2813 6.3438-2.2812-2.2812c-.1875-.1876-.4688-.3126-.75-.3126-.5313 0-.9688.4688-.9688 1 0 .25.0938.5.3125.7188l2.9688 2.9688c.1875.1874.4375.2812.7187.2812z" fill="var(--db-icon-color, currentColor)" fill-rule="evenodd"/></svg>
