<svg id="icon" height="32" viewBox="0 0 32 32" width="32" xmlns="http://www.w3.org/2000/svg"><path d="m27 23c.513 0 .998.416 1 1 .002.5.002 1 0 1.5 0 1.325-1.063 2.5-2.5 2.5-6.333.002-12.666.002-19 0a2.516 2.516 0 0 1 -2.5-2.5c-.002-.5-.002-1 0-1.5a1 1 0 0 1 2 0c.002.5.002 1 0 1.5 0 .245.182.5.5.5 6.33.003 12.664.003 19 0 .245 0 .498-.2.5-.5.003-.5.003-1 0-1.5a1 1 0 0 1 1-1zm-4.991-.5a1 1 0 1 1 0 2 1 1 0 0 1 0-2zm-12 0a1 1 0 1 1 0 2 1 1 0 0 1 0-2zm6 0a1 1 0 1 1 0 2 1 1 0 0 1 0-2zm-.857-18.03c.392-.63 1.247-.63 1.696 0 1.493 2.383 2.983 4.767 4.47 7.152l7.152-4.47c.672-.42 1.64.078 1.514 1.027a422.363 422.363 0 0 0 -1.776 10.768 2.503 2.503 0 0 1 -2.46 2.053c-6.499.002-12.997.002-19.496 0-1.15 0-2.252-.81-2.46-2.053a352.777 352.777 0 0 1 -1.776-10.767c-.148-.817.741-1.5 1.514-1.027 2.386 1.489 4.77 2.978 7.151 4.469l4.471-7.151zm.848 2.417-4.152 6.643a1 1 0 0 1 -1.276.374l-.102-.056-6.082-3.801 1.372 8.542a.5.5 0 0 0 .32.38l.083.023.089.008h19.496a.5.5 0 0 0 .468-.325l.024-.086 1.372-8.544-6.082 3.803a1 1 0 0 1 -1.227-.13l-.083-.093-.068-.095z" fill="var(--db-icon-color, currentColor)" fill-rule="evenodd"/></svg>
