<svg id="icon" height="24" viewBox="0 0 24 24" width="24" xmlns="http://www.w3.org/2000/svg"><path d="m20 8.002c1.054 0 2 .863 2 1.999v8c0 1.053-.859 2-2 2h-12c-1.054 0-2-.904-2-2v-8c0-1.054.877-2 2-1.994zm0 2h-12v7.998h12zm-2.493.998c.332 0 .744.055 1.464.193l-.13 1.685a5.23 5.23 0 0 0 -1.295-.197c-.956 0-1.287.371-1.287 1.466 0 1.055.35 1.426 1.307 1.426.257 0 .706-.038 1.237-.188l.22 1.574c-.565.237-1.343.295-1.594.295-1.912 0-3.005-.977-3.005-3.088 0-2.072 1.113-3.166 3.083-3.166zm-6.01.137c1.405 0 2.108.547 2.108 1.563 0 .665-.273 1.017-.976 1.27.937.196 1.308.626 1.308 1.447 0 1.134-.84 1.72-2.517 1.72h-2.42v-6h2.498zm5.503-7.135a1 1 0 0 1 0 2h-12a.993.993 0 0 0 -.993 1l-.007 7.998a1 1 0 0 1 -1 1c-.513 0-1-.436-1-1v-7.998a2.998 2.998 0 0 1 3-2.995zm-5.522 10.614h-.82v1.075h.762c.565 0 .819-.157.819-.528 0-.41-.215-.547-.761-.547zm-.078-2.033h-.741v.82h.721c.39 0 .586-.142.586-.429 0-.26-.176-.39-.566-.39z" fill="var(--db-icon-color, currentColor)" fill-rule="evenodd"/></svg>
