<svg id="icon" height="24" viewBox="0 0 24 24" width="24" xmlns="http://www.w3.org/2000/svg"><path d="m17.6267246 13c1.1899892 0 1.827154.1248603 2.4806685.4743637.6088364.3256093 1.0926339.8094068 1.4182432 1.4182432.3226185.6032441.4538252 1.1925572.4721018 2.21561l.0022619 2.8917831c0 .5522847-.4477153 1-1 1-.5128358 0-1.0046787-.4232045-1.0046787-1v-2.9983075c-.0174731-.6154317-.0856216-.8897318-.2333114-1.1658879-.1392097-.2602994-.3375151-.4586048-.5978145-.5978145-.2761561-.1476898-.5504562-.2158383-1.1658879-.2333114l-3.6512868-.0046787c-.8609223 0-1.1865677.0643662-1.5112161.2379901-.2602994.1392097-.4586048.3375151-.5978145.5978145-.1591552.2975944-.2265037.5960265-.2366232 1.3068279l-.0013669 2.8573675c0 .5522847-.4477153 1-1 1-.5128358 0-1-.4128257-.9932723-1l-.0067277-2.6529793c0-1.1640535.1264736-1.8039158.4743637-2.4544138.3256093-.6088364.8094068-1.0926339 1.4182432-1.4182432.6004597-.3211293 1.191857-.4535961 2.1948478-.4720754zm-10.3767246 0c.55228475 0 1 .4477153 1 1 0 .5128358-.42079248 1-1 1l-1.15872158.0095741c-.50283836.0136572-.89717931.0941016-1.18302283.2413333-.29088785.1451973-.50906171.3488262-.65898459.6104689-.15650377.2731275-.22662714.5376958-.24449933 1.1721281l-.00477167 2.9664956c0 .5522847-.44771525 1-1 1-.51283584 0-1-.4097634-1-1v-2.5814864c0-1.2439932.13294054-1.886521.5139653-2.5514784.34809738-.6074931.86074802-1.0859671 1.5010771-1.4055887.6380642-.3184911 1.25033462-.4433786 2.37801995-.4595947zm8.75-10c2.209139 0 4 1.790861 4 4s-1.790861 4-4 4-4-1.790861-4-4 1.790861-4 4-4zm-7.79287886 0c.51209548 0 1.01314975.08736624 1.48401812.25605832.51992594.1862673.78625244.7564442.60414234 1.2786759-.1035549.29696134-.50858257.80901664-1.16661867.63714121l-.40203142-.09936548c-.0354562-.00805666-.0681585-.01521814-.0984243-.0215839l-.15489613-.02944162-.15602996-.01879888-.11015998-.00268555c-1.23332886 0-2.20712114.91090318-2.20712114 2s.97379228 2 2.20712114 2l.15255977-.00215912c.15921329-.00649452.35056613-.03252411.68366931-.13684845.44413757-.13909912 1.02277338.11907811 1.19927698.64239916.1765036.52332101-.1046474 1.09064101-.62796849 1.26714461-.44865652.1513211-.92321474.2294638-1.40753757.2294638-2.30915933 0-4.20712114-1.77538832-4.20712114-4s1.89796181-4 4.20712114-4zm7.79287886 2c-1.1045695 0-2 .8954305-2 2s.8954305 2 2 2 2-.8954305 2-2-.8954305-2-2-2z" fill="var(--db-icon-color, currentColor)" fill-rule="evenodd"/></svg>
