<svg id="icon" height="32" viewBox="0 0 32 32" width="32" xmlns="http://www.w3.org/2000/svg"><path d="m27 23c.5128358 0 .9975685.4157208 1 1 .0020808.4999974.0020808.9999974 0 1.5 0 1.3254834-1.0627129 2.4996012-2.5 2.5-6.3326822.0017572-12.6660156.0017572-19 0-1.3254834 0-2.49547611-1.0840713-2.5-2.5-.0015975-.4999989-.0015975-.9999989 0-1.5 0-.5522847.44771525-1 1-1 .51283584 0 .99752321.4048464 1 1 .00208079.4999974.00208079.9999974 0 1.5 0 .2454599.18236387.499866.5.5 6.3306917.0026715 12.664025.0026715 19 0 .2454599 0 .498481-.2002155.5-.5.0025334-.4999951.0025334-.9999951 0-1.5 0-.5522847.4477153-1 1-1zm-4.9912152-.5c.5522848 0 1 .4477153 1 1s-.4477152 1-1 1c-.5522847 0-1-.4477153-1-1s.4477153-1 1-1zm-12 0c.5522848 0 1 .4477153 1 1s-.4477152 1-1 1c-.55228473 0-.99999998-.4477153-.99999998-1s.44771525-1 .99999998-1zm6 0c.5522848 0 1 .4477153 1 1s-.4477152 1-1 1c-.5522847 0-1-.4477153-1-1s.4477153-1 1-1zm-.8567863-18.03009987c.3924601-.62981565 1.2472723-.62981565 1.696003 0 1.4926762 2.3834483 2.9826757 4.76748159 4.4699985 7.15209987l7.1520011-4.4699983c.6724016-.42025105 1.6405478.07791118 1.5138688 1.02688374-.5846345 3.25642086-1.1766544 6.84586366-1.7760597 10.76832816-.2058401 1.1321207-1.1985099 2.0527864-2.4596747 2.0527864-6.4986601.001923-12.9974201.001923-19.49627984 0-1.15067504 0-2.25185566-.810816-2.45967166-2.0527693-.59393322-3.2558427-1.18595077-6.8451436-1.77605266-10.76790272-.14860082-.8172721.74118026-1.50019125 1.51383439-1.02691135 2.38556175 1.48848301 4.76923984 2.97801077 7.15103427 4.46858337zm.8480015 2.41709987-4.1519985 6.6429939c-.2717935.4348753-.8231517.5887069-1.2755072.374124l-.10246-.0560988-6.0820343-3.8010191 1.37192133 8.5424461c.03242089.1783079.15700001.3200905.31920589.3798376l.08398604.0228265.0887424.0078898h19.49627984c.2114377 0 .3964019-.1323091.4682975-.3246572l.0236374-.0859001 1.3719296-8.5444427-6.0820011 3.8029983c-.3986452.2491533-.9049655.1830749-1.2273445-.1309383l-.083142-.0917365-.0675139-.0953296z" fill="var(--db-icon-color, currentColor)" fill-rule="evenodd"/></svg>
