<svg id="icon" height="24" viewBox="0 0 24 24" width="24" xmlns="http://www.w3.org/2000/svg"><path d="m8.5 13c1.375 0 2.5 1.125 2.5 2.5v3c0 1.375-1.125 2.5-2.5 2.5h-3c-1.375 0-2.5-1.125-2.5-2.5v-3c0-1.375 1.125-2.5 2.5-2.5zm0 2h-3c-.28125 0-.5.21875-.5.5v3c0 .28125.21875.5.5.5h3c.28125 0 .5-.21875.5-.5v-3c0-.28125-.21875-.5-.5-.5zm0-12c1.375 0 2.5 1.125 2.5 2.5v3c0 1.375-1.125 2.5-2.5 2.5h-3c-1.375 0-2.5-1.125-2.5-2.5v-3c0-1.375 1.125-2.5 2.5-2.5zm0 2h-3c-.28125 0-.5.21875-.5.5v3c0 .28125.21875.5.5.5h3c.28125 0 .5-.21875.5-.5v-3c0-.28125-.21875-.5-.5-.5zm8.5 8c.53125 0 1 .46875 1 1v2h2c.5625 0 1 .4375 1 1v3c0 .5625-.4375 1-1 1h-3c-.5625 0-1-.4375-1-1v-2h-2c-.53125 0-1-.46875-1-1v-3c0-.53125.46875-1 1-1zm1.5-10c1.375 0 2.5 1.125 2.5 2.5v3c0 1.375-1.125 2.5-2.5 2.5h-3c-1.375 0-2.5-1.125-2.5-2.5v-3c0-1.375 1.125-2.5 2.5-2.5zm0 2h-3c-.28125 0-.5.21875-.5.5v3c0 .28125.21875.5.5.5h3c.28125 0 .5-.21875.5-.5v-3c0-.28125-.21875-.5-.5-.5z" fill="var(--db-icon-color, currentColor)" fill-rule="evenodd"/></svg>
