<svg id="icon" height="32" viewBox="0 0 32 32" width="32" xmlns="http://www.w3.org/2000/svg"><path d="m3 27v-22c0-1.6562 1.3438-3 3-3h7.5c.5312 0 1 .4375 1 1s-.4688 1-1 1h-7.5c-.5625 0-1 .4375-1 1v22c0 .5625.4375 1 1 1h14c.5625 0 1-.4375 1-1v-8c0-.5625.4375-1 1-1s1 .4375 1 1v8c0 1.6562-1.3438 3-3 3h-14c-1.6562 0-3-1.3438-3-3zm4-4c0-.5625.4375-1 1-1h1c.5625 0 1 .4375 1 1s-.4375 1-1 1h-1c-.5625 0-1-.4375-1-1zm4.5 0c0-.5625.4375-1 1-1h1c.5625 0 1 .4375 1 1s-.4375 1-1 1h-1c-.5625 0-1-.4375-1-1zm4.5 0c0-.5625.4375-1 1-1h1c.5625 0 1 .4375 1 1s-.4375 1-1 1h-1c-.5625 0-1-.4375-1-1zm6-21c3.875 0 7 3.125 7 7s-3.125 7-7 7-7-3.125-7-7 3.125-7 7-7zm0 2c-2.75 0-5 2.25-5 5s2.25 5 5 5 5-2.25 5-5-2.25-5-5-5zm-1 5.5678v-2.5678c0-.5625.4375-1 1-1s1.0312.4375 1.0312 1v2l.8438.7188c.2451.2005.379.4805.379.772 0 .5484-.4634 1.0092-1.004 1.0092-.25 0-.4688-.0938-.6562-.2188l-1.3112-1.1054c-.1839-.1551-.2826-.3674-.2826-.608z" fill="var(--db-icon-color, currentColor)" fill-rule="evenodd"/></svg>
