<svg id="icon" height="32" viewBox="0 0 32 32" width="32" xmlns="http://www.w3.org/2000/svg"><path d="m12.9375 8c.6562-.01159978 1 .50020022 1 1.00020022s-.3437.99999998-1 .99999998c-4.9687 0-9 4.0312-9 8.9999 0 5.9688 4.625 8.9375 9 8.9375s8.8438-3 9-8.9375c.0174-.6589.5-1 1-1s1 .3438 1 1c0 6.0625-4.9375 11-11 11-7.2812 0-10.9375-5.6562-10.9375-10.9997 0-5.344 3.9688-10.87519998 10.9375-11.0004002zm-2.875 6c.25 0 .5553.1299.75.4062l2.8316 4.0162c.1687.2393.2535.4332.3146.7194l.6038 2.8269c.1223.5726-.3437 1.2187-.9687 1.2187-.4688 0-.8645-.3147-.9688-.7812l-.6562-2.9375-2.7813-3.875c-.1567-.2184-.1875-.4062-.1875-.5937 0-.5313.5313-1 1.0625-1zm12.9375-12c3.875 0 7 3.125 7 7s-3.125 7-7 7-7-3.125-7-7 3.125-7 7-7zm0 2c-2.75 0-5 2.25-5 5s2.25 5 5 5 5-2.25 5-5-2.25-5-5-5zm-.7812 2.1562c.25 0 .5.0938.6875.2813l1.9375 1.9375c.1875.1875.3125.4375.3125.6875 0 .2812-.125.5312-.3125.6875l-1.9375 1.9687c-.1875.1563-.4375.2813-.6875.2813-.4563 0-.9688-.3508-.9688-1 0-.25.0938-.5.2813-.6875l1.25-1.25-1.25-1.25c-.1875-.1875-.2813-.4375-.2813-.6875 0-.5413.4383-.9688.9688-.9688z" fill="var(--db-icon-color, currentColor)" fill-rule="evenodd"/></svg>
