<svg id="icon" height="32" viewBox="0 0 32 32" width="32" xmlns="http://www.w3.org/2000/svg"><path d="m23 2c1.6562 0 3 1.3438 3 3v22c0 1.6562-1.3438 3-3 3h-14c-1.6562 0-3-1.3438-3-3v-22c0-1.6562 1.3438-3 3-3zm0 2h-14c-.5625 0-1 .4375-1 1v22c0 .5625.4375 1 1 1h14c.5625 0 1-.4375 1-1v-22c0-.5625-.4375-1-1-1zm-13 19c0-.5625.4375-1 1-1h1c.5625 0 1 .4375 1 1s-.4375 1-1 1h-1c-.5625 0-1-.4375-1-1zm4.5 0c0-.5625.4375-1 1-1h1c.5625 0 1 .4375 1 1s-.4375 1-1 1h-1c-.5625 0-1-.4375-1-1zm4.5 0c0-.5625.4375-1 1-1h1c.5625 0 1 .4375 1 1s-.4375 1-1 1h-1c-.5625 0-1-.4375-1-1z" fill="var(--db-icon-color, currentColor)" fill-rule="evenodd"/></svg>
