<svg id="icon" height="24" viewBox="0 0 24 24" width="24" xmlns="http://www.w3.org/2000/svg"><path d="m19.5 20c.5522847 0 1 .4477153 1 1 0 .5128358-.4501652 1-1 1h-15c-.55228475 0-1-.4477153-1-1 0-.5128358.42649485-1 1-1zm-8.3944304-17.44731326c.3491261-.69826449 1.311514-.73501526 1.725194-.11025229l2.6162364 5.21556555 5.1057864-2.55242719c.6683697-.33418483 1.5148828.17390624 1.4451581.9639476-.5740073 3.23494318-1.2453656 6.93803009-2.0140749 11.10926069-.0792491.4358658-.4338379.7626072-.8646386.8140373l-14.119231.0070756c-.44301171 0-.82791406-.2904193-.95557922-.7050708l-2.02829039-11.11593609c-.14071071-.77390146.61958204-1.38409634 1.33003208-1.11744873l5.20583753 2.59656162zm.8944304 2.68331326-2.10556965 4.21120728c-.22934506.45869823-.76365666.66410772-1.23432557.49335719l-4.31910478-2.15256447 1.493 8.211h12.331l1.493-8.211-4.2107864 2.10642719c-.4234123.21170611-1.0436032.10546683-1.2834723-.34591865-.5856725-1.1494627-1.3069195-2.58696555-2.1637413-4.31250854z" fill="var(--db-icon-color, currentColor)" fill-rule="evenodd"/></svg>
