<svg id="icon" height="20" viewBox="0 0 20 20" width="20" xmlns="http://www.w3.org/2000/svg"><path d="m2 15.9843v-11.9686c0-1.1023.8819-2.0157 1.9842-2.0157h2.9921c.567 0 1.0079.4724 1.0079 1.0079 0 .5669-.4409 1.0078-1.0079 1.0078h-2.9921v11.9686h8.0315v-.9764c0-.567.4095-1.0079.9764-1.0079.5354 0 1.0079.4409 1.0079 1.0079v.9764c0 1.1023-.8819 2.0157-1.9843 2.0157h-8.0315c-1.1023 0-1.9842-.9134-1.9842-2.0157zm3-3.0001917c0-.5079459.42621954-.9841083.98363811-.9841083.59014235 0 1.01636189.4761624 1.01636189.9841083 0 .5397293-.42621954 1.0158917-1.01636189 1.0158917-.55741857 0-.98363811-.4761624-.98363811-1.0158917zm2.9968 0c0-.5079459.4516322-.9841083.99995016-.9841083.54841764 0 1.00004984.4761624 1.00004984.9841083 0 .5397293-.4516322 1.0158917-1.00004984 1.0158917-.54831796 0-.99995016-.4761624-.99995016-1.0158917zm.0032-5.9691391c0-2.76272382 2.2455226-5.0149692 5-5.0149692s5 2.25224538 5 5.0149692c0 2.76281917-2.2455226 4.9850308-5 4.9850308s-5-2.22221163-5-4.9850308zm2-1.99801822c0 .54232363.4667161.98304902 1 .98304902.5333898 0 1-.44072539 1-.98304902 0-.57633321-.4666102-1.01695098-1-1.01695098-.5332839 0-1 .44061777-1 1.01695098zm.6614 3.36024902.9986.9528 3.72-3.67-1.0021-.9994zm3.3386.63975098c0 .54232363.4332963.98304902.9999471.98304902.533418 0 1.0000529-.44072539 1.0000529-.98304902 0-.57622559-.4666349-1.01695098-1.0000529-1.01695098-.5666508 0-.9999471.44072539-.9999471 1.01695098z" fill="var(--db-icon-color, currentColor)" fill-rule="evenodd"/></svg>
