<svg id="icon" height="32" viewBox="0 0 32 32" width="32" xmlns="http://www.w3.org/2000/svg"><path d="m27 6a3 3 0 0 1 3 3v14a3 3 0 0 1 -3 3h-22a3 3 0 0 1 -3-3v-14a3 3 0 0 1 3-3zm-18 2h-4c-.563 0-1 .438-1 1v14c0 .563.438 1 1 1h9.313a2.515 2.515 0 0 1 -1.188-2.125c0-1.438 1.156-2.5 2.5-2.5s2.5 1.063 2.5 2.5a2.56 2.56 0 0 1 -1.156 2.125h10.031c.563 0 1-.438 1-1v-14c0-.563-.438-1-1-1h-13.156a3.7 3.7 0 0 1 1.312 2.813 3.728 3.728 0 0 1 -3.719 3.718 3.708 3.708 0 0 1 -3.718-3.719c0-1.062.468-2.092 1.281-2.812zm6.813 6.5a4.748 4.748 0 0 1 4.75-4.75 4.748 4.748 0 0 1 4.75 4.75 4.748 4.748 0 0 1 -4.75 4.75 4.748 4.748 0 0 1 -4.75-4.75z" fill="var(--db-icon-color, currentColor)" fill-rule="evenodd"/></svg>
