<svg id="icon" height="24" viewBox="0 0 24 24" width="24" xmlns="http://www.w3.org/2000/svg"><path d="m3.5 19.5v-15.5c0-1.09375.90625-2 2-2h2.96875c.5625 0 1 .4375 1 1 0 .53125-.4375 1-1 1h-2.96875v15.5c0 .28125.1875.5.46875.5h9c.28125 0 .53125-.21875.53125-.5v-4.84375c0-.53125.4375-1 .96875-1 .59375 0 1.03125.46875 1.03125 1v4.84375c0 1.375-1.125 2.5-2.53125 2.5h-9c-1.34375 0-2.46875-1.125-2.46875-2.5zm4-2.5c0-.5625.4375-1 .96875-1h4.03125c.53125 0 .96875.4375.96875 1 0 .53125-.4375 1-.96875 1h-4.03125c-.53125 0-.96875-.46875-.96875-1zm0-4c0-.5625.4375-1 1-1h2c.53125 0 .96875.4375.96875 1s-.4375 1-.96875 1h-2c-.5625 0-1-.4375-1-1zm7.96875-11c2.8125 0 5.03125 2.25 5.03125 5 0 2.78125-2.21875 5-5 5-2.75 0-4.96875-2.21875-4.96875-5 0-2.75 2.1875-5 4.9375-5zm1.03125 2v2.9375c0 .375-.1875.71875-.5.875-.15625.09375-.3125.15625-.5.15625-.15625 0-.34375-.0625-.5-.1875l-2.40625-1.53125c-.0625.21875-.0625.4375-.0625.65625 0 1.71875 1.34375 3.09375 2.96875 3.09375 1.6875 0 3-1.375 3-3.09375 0-1.34375-.8125-2.46875-2-2.90625z" fill="var(--db-icon-color, currentColor)" fill-rule="evenodd"/></svg>
