<svg id="icon" height="24" viewBox="0 0 24 24" width="24" xmlns="http://www.w3.org/2000/svg"><path d="m19.5 5c1.375 0 2.5 1.125 2.5 2.5v9c0 1.375-1.125 2.5-2.5 2.5h-15c-1.375 0-2.5-1.125-2.5-2.5v-9c0-1.375 1.125-2.5 2.5-2.5zm-12.46875 2h-2.53125c-.28125 0-.5.2188-.5.5v9c0 .2812.21875.5.5.5h6c-.34375-.3125-.53125-.75-.53125-1.1875 0-.9375.75-1.625 1.65625-1.625s1.625.7187 1.625 1.625c0 .4375-.1875.875-.53125 1.1875h6.78125c.28125 0 .5-.2188.5-.5v-9c0-.2812-.21875-.5-.5-.5h-8.78125c.375.4375.5625 1 .5625 1.5625 0 1.3437-1.0625 2.4375-2.40625 2.4375-1.375 0-2.4375-1.125-2.4375-2.4688 0-.5624.21875-1.0937.59375-1.5312zm4.71875 4c0-1.7188 1.375-3.125 3.09375-3.125s3.09375 1.4062 3.09375 3.125-1.375 3.0938-3.09375 3.0938-3.09375-1.375-3.09375-3.0938z" fill="var(--db-icon-color, currentColor)" fill-rule="evenodd"/></svg>
