<svg id="icon" height="32" viewBox="0 0 32 32" width="32" xmlns="http://www.w3.org/2000/svg"><path d="m23 2a3 3 0 0 1 3 3v22a3 3 0 0 1 -3 3h-14a3 3 0 0 1 -3-3v-22a3 3 0 0 1 3-3zm0 2h-14c-.563 0-1 .438-1 1v22c0 .563.438 1 1 1h14c.563 0 1-.438 1-1v-22c0-.563-.438-1-1-1zm-13 19c0-.563.438-1 1-1h1c.563 0 1 .438 1 1 0 .563-.438 1-1 1h-1c-.563 0-1-.438-1-1zm4.5 0c0-.563.438-1 1-1h1c.563 0 1 .438 1 1 0 .563-.438 1-1 1h-1c-.563 0-1-.438-1-1zm4.5 0c0-.563.438-1 1-1h1c.563 0 1 .438 1 1 0 .563-.438 1-1 1h-1c-.563 0-1-.438-1-1z" fill="#282D37" style="fill: currentColor;fill: var(--db-icon-color, currentColor)" fill-rule="evenodd"/></svg>
