<svg id="icon" height="24" viewBox="0 0 24 24" width="24" xmlns="http://www.w3.org/2000/svg"><path d="m20 8.001775c1.0543618 0 2 .86319457 2 1.9991469v7.9991469c0 1.0543617-.8589211 2-2 2h-12c-1.0543618 0-2-.9035433-2-2v-7.9982938c0-1.0543618.87746861-2 2-1.99451426zm0 2h-12v7.9982938h12zm-2.49268.998225c.3317 0 .74393.0545892 1.46341.1930153l-.12904 1.6845514c-.50598-.1493439-1.06151-.1967213-1.29535-.1967213-.9561 0-1.2878.3713064-1.2878 1.4657941 0 1.0554239.35122 1.4267303 1.30731 1.4267303.25745 0 .7057-.0382625 1.23738-.1883075l.21906 1.5741711c-.56408.2362859-1.342.2949818-1.59302.2949818-1.9122 0-3.00488-.9772962-3.00488-3.0880438 0-2.0716837 1.1122-3.1661714 3.08293-3.1661714zm-6.009759.1368235c1.404878 0 2.107317.5472939 2.107317 1.5635538 0 .6644853-.27317 1.0162599-.975609 1.2703749.936585.1954192 1.307317.6254216 1.307317 1.4462623 0 1.1335514-.839025 1.7199091-2.517074 1.7199091h-2.419512v-6.0001001zm5.502439-7.1350485c.5522847 0 1 .44771525 1 1 0 .51283584-.4174188 1-1 1h-12c-.51283584 0-.99327227.40675447-.99327227 1l-.00672773 7.9982937c0 .5522848-.44771525 1-1 1-.51283584 0-1-.4355812-1-.9999999v-7.9982938c0-1.59768088 1.28810793-2.99490731 3-2.99490731zm-5.521951 10.6139307h-.819512v1.0749557h.760975c.565854 0 .819513-.1563554.819513-.527762 0-.4103703-.214635-.5471937-.760976-.5471937zm-.078049-2.03262h-.741463v.8208407h.721951c.390244 0 .585366-.1432339.585366-.4299022 0-.2606256-.17561-.3909385-.565854-.3909385z" fill="var(--db-icon-color, currentColor)" fill-rule="evenodd"/></svg>
