<svg id="icon" height="24" viewBox="0 0 24 24" width="24" xmlns="http://www.w3.org/2000/svg"><path d="m14.5 8v1.5h1.501l-.001-1.5zm1.5 3.5h-1.5c-1.103 0-2-.897-2-2v-1.5c0-1.103.897-2 2-2h1.5c1.103 0 2 .897 2 2v1.5c0 1.103-.897 2-2 2zm1 3h-1v-1a1 1 0 0 0 -1-1h-1.5a1 1 0 0 0 -1 1v1.5a1 1 0 0 0 1 1h1v1a1 1 0 0 0 1 1h1.5a1 1 0 0 0 1-1v-1.5a1 1 0 0 0 -1-1zm-9 0v1.5h1.501l-.001-1.5zm1.5 3.5h-1.5c-1.103 0-2-.897-2-2v-1.5c0-1.103.897-2 2-2h1.5c1.103 0 2 .897 2 2v1.5c0 1.103-.897 2-2 2zm-1.5-10v1.5h1.501l-.001-1.5zm1.5 3.5h-1.5c-1.103 0-2-.897-2-2v-1.5c0-1.103.897-2 2-2h1.5c1.103 0 2 .897 2 2v1.5c0 1.103-.897 2-2 2zm-6.498-2.528a1 1 0 0 0 1-1c-.002-.657-.002-1.313 0-1.971.003-1.143.945-2 2-2 .657.002 1.314.002 1.971 0 .575-.001 1-.488 1-1a1 1 0 0 0 -1-1h-1.971a3.99 3.99 0 0 0 -4 4c-.003.666-.003 1.328 0 1.986.001.565.487.985 1 .985zm12.97-4.97c.676-.002 1.352-.002 2.028 0 1.176.003 2 .945 2 2-.011.652-.021 1.304-.028 1.957a1.017 1.017 0 0 0 .986 1.014 1 1 0 0 0 1.014-.985c.012-.658.021-1.315.028-1.972.025-2.248-1.857-4.014-4-4.014a228.49 228.49 0 0 0 -2.028 0 1.001 1.001 0 0 0 0 2zm5.026 10.968a1 1 0 0 0 -1 1c.002.676.002 1.353 0 2.028-.002 1.122-.945 2-2 2-.676-.002-1.352-.002-2.028 0-.578.002-1 .489-1 1a1 1 0 0 0 1 1c.676.002 1.352.002 2.028 0a3.989 3.989 0 0 0 4-4c.003-.675.003-1.352 0-2.028-.002-.631-.487-1-1-1zm-12.026 6.028c0 .512-.418.998-1 1-.657.002-1.313.002-1.97 0-2.143 0-3.996-1.732-4-4a343.07 343.07 0 0 1 0-2.029 1 1 0 0 1 1-1 .996.996 0 0 1 1 1v2.029a1.99 1.99 0 0 0 2 2c.657.002 1.313.002 1.97 0a1 1 0 0 1 1 1z" fill="var(--db-icon-color, currentColor)" fill-rule="evenodd"/></svg>
