<svg id="icon" height="32" viewBox="0 0 32 32" width="32" xmlns="http://www.w3.org/2000/svg"><path d="m3 15c.51283584 0 1 .4152934 1 1 .00215863.9999844.00215863 1.9999844 0 3 0 2.1421954 1.70513938 3.9994701 4 4 6.9999208.0016164 13.9999208.0016164 21 0 .5522847 0 1 .4477153 1 1 0 .5128358-.3928447 1-1 1-.239445.0019278-.4791116.0019278-.719 0l.6891425 2.7574644c.1339487.5357949-.191812 1.0787294-.7276069 1.2126781-.4975238.124381-1.1100915-.1934441-1.2126781-.7276069-.2728016-1.0806917-.5434208-2.161537-.8118575-3.2425356h-18.218c-.7824034 0-1.52982926-.1497566-2.21517698-.4221692l-.80863596 3.6390997c-.11980738.5391332-.65398429.8790639-1.19311752.7592566-.50062371-.1112498-.89220658-.6206821-.7592566-1.1931176.31790493-1.4418038.63801722-2.8835016.96033688-4.3250932-1.16643835-1.0514301-1.98414982-2.6292314-1.98414982-4.4579763-.00128327-1-.00128327-2 0-3 0-.5522847.44771525-1 1-1zm13.2028654 2.4991127c3.4694855.3309584 7.0685303.6645875 10.7971346 1.0008873 1.3647371 0 2.7150755.9054252 2.9824443 2.3134436.1030322.542589-.2532989 1.0659684-.7958879 1.1690007-.5038326.0956728-.9911019-.2047382-1.1406346-.6825692-.1495327-.4778311-.2482005-.6899588-1.1407309-.8043796-3.5062349-.3320029-7.1412986-.6675838-10.9051909-1.0067425-.6468942-.0703127-1.2156625.3847638-1.416428 1.2257848-.1214637.5387625-.6566828.8770499-1.1954453.7555861-.5387625-.1214637-.8770499-.6566829-.7555861-1.1954453.3617437-1.6045441 1.5998106-2.9489941 3.5703248-2.7755659zm-7.76126605-1.9991127c1.65685425 0 2.99999995 1.3431458 2.99999995 3s-1.3431457 3-2.99999995 3-3-1.3431458-3-3 1.34314575-3 3-3zm0 2c-.55228475 0-1 .4477153-1 1s.44771525 1 1 1 1-.4477153 1-1-.44771525-1-1-1zm6.30498265-7.1352539c.2049495 0 .3710938.2051576.3710938.3924959 0 .2264059-.076829.4461109-.2179202.6231783l-1.495947 1.8773922h1.3427734c.2049495 0 .3710938.1661443.3710938.3710938 0 .2049494-.1661443.3710937-.3710938.3710937h-2.0813059c-.2049494 0-.3710938-.2340229-.3710938-.3983154 0-.2458039.0771517-.4404213.2187853-.6176645l1.4999647-1.8770865h-1.3543935c-.2049494 0-.3710937-.1661443-.3710937-.3710938 0-.2049494.1661443-.3710937.3710937-.3710937zm5.0473633-2.45410157c.2737154 0 .4956055.3057409.4956055.63969288 0 .2211987-.0733407.44648479-.2085427.62155411l-2.1908714 2.83689758h1.9243164c.2737154 0 .4956055.2218901.4956055.4956054 0 .2737154-.2218901.4956055-.4956055.4956055h-3.0693359c-.2737154 0-.4956055-.2117678-.4956055-.4956055 0-.4043731.0755294-.591494.214432-.7678382l2.2328336-2.83470083h-1.743164c-.2737154 0-.4956055-.22189013-.4956055-.49560547s.2218901-.49560547.4956055-.49560547zm6.1125488-2.45410156c.3118737 0 .5646973.32427542.5646973.79680562 0 .21591172-.0698811.42602441-.1991966.59892725l-2.9428932 3.93483356h2.5620117c.3349305 0 .6064453.2715148.6064453.6064453s-.2715148.6064453-.6064453.6064453h-3.9594727c-.3349305 0-.6064453-.2562103-.6064453-.8697829 0-.2223758.0741222-.4384077.2106478-.6139406l2.988571-3.84244837h-2.3225098c-.336144 0-.6086426-.27249857-.6086426-.60864258 0-.33614402.2724986-.60864258.6086426-.60864258z" fill="var(--db-icon-color, currentColor)" fill-rule="evenodd"/></svg>
