<svg id="icon" height="32" viewBox="0 0 32 32" width="32" xmlns="http://www.w3.org/2000/svg"><path d="m29 23c.5522847 0 1 .4477153 1 1 0 .5128358-.3935153 1-1 1-.1089812.001638-.2193145.001638-.331 0l.3188082 2.0169626c.0859775.5455514-.2865807 1.0575067-.8321321 1.1434843-.5065834.0798362-1.0365054-.2686682-1.1434843-.8321321-.1245552-.7760911-.2469525-1.5521961-.3671918-2.3283148h-21.291l-.36619185 2.3283148c-.08597754.5455514-.59793289.9181096-1.14348427.8321321-.50658342-.0798363-.92198304-.6179447-.83213203-1.1434843.10379205-.6723303.2097281-1.3446511.31780815-2.0169626h-.33c-.55228475 0-1-.4477153-1-1 0-.5128358.41987586-1.0001453 1-1 8.6648241-.0022321 17.3314908-.0022321 26 0zm-23-7c1.65685425 0 3 1.3431458 3 3s-1.34314575 3-3 3-3-1.3431458-3-3 1.34314575-3 3-3zm7.589111 1.4778248 13.410889 1.0221752c1.3647371 0 2.7150755.9054252 2.9824443 2.3134436.1030322.542589-.2532989 1.0659684-.7958879 1.1690007-.5038326.0956728-.9911019-.2047382-1.1406346-.6825692l-.0283661-.1133187c-.0645872-.3401296-.4500314-.6315828-1.0933419-.6894323l-13.5081348-1.0269149c-.6514214-.0636497-1.2650129.4302629-1.4405633 1.2497204-.1214637.5387625-.6566828.8770499-1.1954453.7555861-.5387625-.1214637-.87704991-.6566828-.7555861-1.1954453.3599328-1.5965116 1.733143-2.9836109 3.5646267-2.8022456zm-7.589111.5221752c-.55228475 0-1 .4477153-1 1s.44771525 1 1 1 1-.4477153 1-1-.44771525-1-1-1zm8.746582-7.6352539c.2049495 0 .3710938.2051576.3710938.3924959 0 .2264059-.076829.4461109-.2179202.6231783l-1.495947 1.8773922h1.3427734c.2049495 0 .3710938.1661443.3710938.3710938 0 .2049494-.1661443.3710937-.3710938.3710937h-2.0813059c-.2049494 0-.3710938-.2340229-.3710938-.3983154 0-.2458039.0771517-.4404213.2187853-.6176645l1.4999647-1.8770865h-1.3543935c-.2049494 0-.3710937-.1661443-.3710937-.3710938 0-.2049494.1661443-.3710937.3710937-.3710937zm5.0473633-2.45410157c.2737154 0 .4956055.3057409.4956055.63969288 0 .2211987-.0733407.44648479-.2085427.62155411l-2.1908714 2.83689758h1.9243164c.2737154 0 .4956055.2218901.4956055.4956054 0 .2737154-.2218901.4956055-.4956055.4956055h-3.0693359c-.2737154 0-.4956055-.2117678-.4956055-.4956055 0-.4043731.0755294-.591494.214432-.7678382l2.2328336-2.83470083h-1.743164c-.2737154 0-.4956055-.22189013-.4956055-.49560547s.2218901-.49560547.4956055-.49560547zm6.1125488-2.45410156c.3118737 0 .5646973.32427542.5646973.79680562 0 .21591172-.0698811.42602441-.1991966.59892725l-2.9428932 3.93483356h2.5620117c.3349305 0 .6064453.2715148.6064453.6064453s-.2715148.6064453-.6064453.6064453h-3.9594727c-.3349305 0-.6064453-.2562103-.6064453-.8697829 0-.2223758.0741222-.4384077.2106478-.6139406l2.988571-3.84244837h-2.3225098c-.336144 0-.6086426-.27249857-.6086426-.60864258 0-.33614402.2724986-.60864258.6086426-.60864258z" fill="var(--db-icon-color, currentColor)" fill-rule="evenodd"/></svg>
