<svg id="icon" height="32" viewBox="0 0 32 32" width="32" xmlns="http://www.w3.org/2000/svg"><path d="m16 2c7.719 0 14 6.281 14 14s-6.281 14-14 14-14-6.281-14-14 6.281-14 14-14zm0 2c-6.625 0-12 5.375-12 12s5.375 12 12 12 12-5.375 12-12-5.375-12-12-12zm0 5c.563 0 1 .438 1 1v5h5c.563 0 1 .438 1 1 0 .563-.438 1-1 1h-5v5c0 .563-.438 1-1 1-.563 0-1-.438-1-1v-5h-5c-.563 0-1-.438-1-1 0-.563.438-1 1-1h5v-5c0-.563.438-1 1-1z" fill="#282D37" style="fill: currentColor;fill: var(--db-icon-color, currentColor)" fill-rule="evenodd"/></svg>