<svg id="icon" height="20" viewBox="0 0 20 20" width="20" xmlns="http://www.w3.org/2000/svg"><path d="m10.001 2c2 0 4 1.5 4 4h1.407a.995.995 0 0 1 1 .938l.593 10a1.021 1.021 0 0 1 -1 1.062h-12c-.562 0-1.03-.5-1-1.063l.594-10a.995.995 0 0 1 1-.937h1.406c0-2.5 1.844-4 4-4zm-2 7h-2v.688c0 2.656 1.813 4.312 4 4.312 2.188 0 4-1.656 4-4.313v-.687h-2v.344c0 1.281-.406 2.656-2 2.656-1.593 0-2-1.375-2-2.656zm2-5c-1 0-2 .594-2 2h4c0-1.406-1-2-2-2z" fill="#282D37" style="fill: currentColor;fill: var(--db-icon-color, currentColor)" fill-rule="evenodd"/></svg>
