<svg id="icon" height="20" viewBox="0 0 20 20" width="20" xmlns="http://www.w3.org/2000/svg"><path d="m10.417 5.842 3.781 3.741-7.197 7.157a1.446 1.446 0 0 1 -.711.386l-3.395.854c-.061.02-.122.02-.204.02a.699.699 0 0 1 -.691-.691c0-.082 0-.143.02-.204l.854-3.456c.061-.264.163-.447.346-.65zm5.245-3.456 1.972 1.952c.224.244.366.59.366.895 0 .325-.142.65-.366.874l-2.053 2.073-3.741-3.76 2.033-2.034c.244-.244.57-.386.894-.386.326 0 .63.142.895.386z" fill="#282D37" style="fill: currentColor;fill: var(--db-icon-color, currentColor)" fill-rule="evenodd"/></svg>
