<svg id="icon" height="32" viewBox="0 0 32 32" width="32" xmlns="http://www.w3.org/2000/svg"><path d="m16 2c7.719 0 14 6.281 14 14s-6.281 14-14 14-14-6.281-14-14 6.281-14 14-14zm4.969 15h-10.094c.594 5.406 4.281 9.813 5.312 11 6.188-.125 11.25-4.906 11.75-11h-4.967c-.063 2.094-.563 4.219-1.5 6.406a.984.984 0 0 1 -.907.594 1.014 1.014 0 0 1 -1.03-1c0-.125.03-.281.093-.406.844-1.907 1.281-3.782 1.344-5.594zm-12.094 0h-4.813c.438 5.25 4.282 9.563 9.313 10.688-1.688-2.22-4.063-6.094-4.5-10.688zm9.5-12.75c1.687 2.219 4.125 6.125 4.562 10.75h5c-.437-5.344-4.406-9.719-9.562-10.75zm-2.75-.219a11.96 11.96 0 0 0 -11.563 10.969h4.75c.094-2.094.594-4.219 1.5-6.406a.984.984 0 0 1 .908-.594c.656 0 1.03.469 1.03 1a.962.962 0 0 1 -.093.406c-.812 1.906-1.25 3.781-1.344 5.594h10.094c-.594-5.375-4.219-9.813-5.281-10.969z" fill="#282D37" style="fill: currentColor;fill: var(--db-icon-color, currentColor)" fill-rule="evenodd"/></svg>