<svg id="icon" height="20" viewBox="0 0 20 20" width="20" xmlns="http://www.w3.org/2000/svg"><path d="m5.281 2.281-3 3a1.1 1.1 0 0 0 -.281.719c0 .25.094.5.281.719l3 3c.219.187.469.28.719.28.562 0 1-.437 1-1a.97.97 0 0 0 -.281-.687l-1.313-1.312h5.594c.562 0 1-.438 1-1 0-.563-.438-1-1-1h-5.594l1.314-1.281a1.1 1.1 0 0 0 .279-.719.985.985 0 0 0 -.999-1c-.25 0-.5.094-.719.281zm8.719 7.719c-.594 0-1 .469-1 1 0 .25.094.5.281.719l1.313 1.28h-5.594c-.563 0-1 .438-1 1 0 .532.437 1 1 1h5.594l-1.313 1.282a1.1 1.1 0 0 0 -.281.719c0 .562.406 1 1 1 .25 0 .5-.094.719-.281l3-3c.187-.22.28-.47.281-.72 0-.25-.094-.5-.281-.718l-3-3a1.1 1.1 0 0 0 -.72-.281z" fill="#282D37" style="fill: currentColor;fill: var(--db-icon-color, currentColor)" fill-rule="evenodd"/></svg>
