<svg id="icon" height="32" viewBox="0 0 32 32" width="32" xmlns="http://www.w3.org/2000/svg"><path d="m22.438 6.15a2.85 2.85 0 0 1 2.717 1.988l1.471 5.862h2.391a.94.94 0 0 1 .96.85l.007 1.116c0 .512-.373 1.034-.967 1.033h-1.19c.034.316.013.9-.065 1.753l-.342 3.558c-.112 1.148-.668 1.99-1.62 2.364v2.044c0 .446 0 1.282-1.282 1.282h-1.036c-1.283 0-1.282-.836-1.282-1.282v-1.644a70.068 70.068 0 0 1 -12.4 0v1.644c0 .446 0 1.282-1.282 1.282h-1.036c-1.282 0-1.282-.836-1.282-1.282l-.001-2.013c-.897-.325-1.463-1.114-1.622-2.19l-.358-3.663c-.086-.947-.112-1.564-.077-1.853h-1.175c-.553.001-.967-.48-.967-1.032v-1c0-.553.414-.966.967-.966h2.406l1.424-5.691a2.861 2.861 0 0 1 2.765-2.16zm-9.555 12.857a1 1 0 0 0 0 1.986h6.234a1 1 0 0 0 0-1.986zm-6-1a1 1 0 0 0 0 1.986h2.234a1 1 0 0 0 0-1.986zm16 0a1 1 0 0 0 0 1.986h2.234a1 1 0 0 0 0-1.986zm-13.321-10.157a1.15 1.15 0 0 0 -1.08.756l-1.358 5.394h17.748l-1.318-5.28a1.155 1.155 0 0 0 -1.116-.871h-12.876zm9.422-4.7c.47 0 .85.38.85.85 0 .433-.36.85-.834.85h-6.016a.85.85 0 1 1 .016-1.7z" fill="var(--db-icon-color, currentColor)" fill-rule="evenodd"/></svg>
