<svg id="icon" height="32" viewBox="0 0 32 32" width="32" xmlns="http://www.w3.org/2000/svg"><path d="m22.5 5.173c1.242.097 2.344.81 2.717 1.988l1.41 5.838h2.39a.94.94 0 0 1 .96.85l.007 1.117c0 .512-.358.965-.85 1.027l-1.308.006c.021.35.012.75-.022 1.237a300.4 300.4 0 0 1 -.384 4.074 3.32 3.32 0 0 1 -.32 1.17v2.238c0 .446 0 1.282-1.282 1.282h-1.536c-1.3 0-1.282-.836-1.282-1.282v-.773c-2.37.13-4.705.194-7.008.194a123.5 123.5 0 0 1 -6.908-.191v.77c0 .446 0 1.282-1.281 1.282h-1.536c-1.282 0-1.282-.836-1.282-1.282v-2.017a3.171 3.171 0 0 1 -.405-1.167l-.408-4.234c-.038-.508-.05-.93-.03-1.301l-1.175.001c-.553 0-.967-.482-.967-1.034v-1c0-.553.414-.966.967-.966l2.406-.001 1.485-5.552c.303-1.211 1.146-2.073 2.588-2.153 2.172-.121 4.394-.29 6.592-.291 2.154-.001 4.274.062 6.462.17zm-9.87 12.334a1 1 0 0 0 -.84.71l-.289 1.735c-.023.461.306.937.835 1.034.529.098.997-.264 1.125-.708l.136-.778h4.805l.137.778a1 1 0 0 0 1.96-.326l-.29-1.734a1 1 0 0 0 -.838-.71h-6.742zm-6.147-.757a1 1 0 0 0 -.198 1.977l2.732.273a1 1 0 0 0 .198-1.977zm16.302.273a1 1 0 0 0 .198 1.977l2.732-.273a1 1 0 0 0 -.198-1.977zm-13.162-10.035c-.482.024-.916.306-1.08.756l-1.417 5.255c2.935-.124 5.883-.186 8.842-.186 2.956 0 5.925.062 8.905.186l-1.257-5.255c-.118-.473-.502-.846-.996-.865-2.22-.085-4.412-.175-6.619-.176-2.126 0-4.21.176-6.378.285z" fill="var(--db-icon-color, currentColor)" fill-rule="evenodd"/></svg>
