<svg id="icon" height="32" viewBox="0 0 32 32" width="32" xmlns="http://www.w3.org/2000/svg"><path d="m29.256 13.005c.475 0 .75.39.75.75.002.919.002 1.838 0 2.757 0 .245-.192.5-.5.5-.673.002-1.346.002-2.02 0v1.495c0 .245-.189.5-.5.5-.51.002-1.022.002-1.534 0v1.117a.54.54 0 0 1 -.147.355c-.422.422-.846.842-1.27 1.261a5.028 5.028 0 0 1 -8.058 5.79 5.026 5.026 0 0 1 5.4-8.23l6.002-6c.156-.156.438-.295.705-.293.586.003.586-.002 1.172-.002zm-10.516 10.012a1.75 1.75 0 1 0 1.75 1.75c0-1.167-.989-1.75-1.75-1.75zm3.769-18.716c1.254 0 2.35.893 2.78 2.148.046.08.417 1.154 1.113 3.223a.85.85 0 1 1 -1.542.715l-1.198-3.527c-.241-.635-.74-.86-1.153-.86-2.14-.001-4.35-.153-6.49-.153-2.153 0-4.39.036-6.457.142-.486.032-.956.323-1.116.87a491.474 491.474 0 0 1 -1.32 5.141c4.14-.129 7.098-.193 8.874-.193 3.095 0 5.477.086 8.401.194.763 0 .916.741.616 1.05a7681.872 7681.872 0 0 1 -4.194 4.19c-2.057-.388-3.786.082-5.205 1.075h-2.126l-.154-.79c-.07-.427-.55-.77-.978-.699-.427.072-.764.453-.698.978l.25 1.5c.062.373.448.71.838.71h1.18a6.7 6.7 0 0 0 -1.161 3.242l-3.685-.163v.625c0 .948-.38 1.282-1.281 1.282h-1.536c-1.003.035-1.283-.4-1.282-1.282l-.001-1.103c-.244-.738-.242-1.096-.432-2.306-.19-1.209-.625-4.535-.548-5.31h-1.037c-.553 0-.967-.481-.967-1.033v-1c0-.553.414-.966.967-.966l2.406-.001 1.424-5.55c.302-1.212 1.365-2.09 2.765-2.16 2.619-.115 4.842-.139 6.459-.139 3.245 0 3.243.151 6.488.151zm-17.004 12.35c-.051.51.332 1.036.895 1.094 1.249.128 1.25.128 2.5.25a1.004 1.004 0 0 0 1.095-.895.99.99 0 0 0 -.895-1.095c-1.249-.128-1.25-.128-2.5-.25-.283-.028-1.018.122-1.095.895z" fill="var(--db-icon-color, currentColor)" fill-rule="evenodd"/></svg>
