<svg id="icon" height="64" viewBox="0 0 64 64" width="64" xmlns="http://www.w3.org/2000/svg"><g fill="none" fill-rule="evenodd" transform="translate(9 8)"><path d="m25.56 4a4.44 4.44 0 0 1 4.435 4.231l.005.21v37.119a4.44 4.44 0 0 1 -4.231 4.435l-.21.005h-21.119a4.44 4.44 0 0 1 -4.435-4.231l-.005-.21v-37.119a4.44 4.44 0 0 1 4.231-4.435l.21-.005zm0 2h-21.12a2.44 2.44 0 0 0 -2.435 2.28l-.005.16v37.12a2.44 2.44 0 0 0 2.28 2.435l.16.005h21.12a2.44 2.44 0 0 0 2.435-2.28l.005-.16v-37.12a2.44 2.44 0 0 0 -2.28-2.435zm16.268-6a4.201 4.201 0 0 1 4.192 3.996l.005.21v34.588a4.202 4.202 0 0 1 -3.988 4.2l-.21.006h-8.827a1 1 0 0 1 -.117-1.993l.117-.007h8.828a2.2 2.2 0 0 0 2.192-2.048l.005-.158v-34.588c0-1.166-.9-2.12-2.04-2.2l-.157-.006h-18.828a1 1 0 0 1 -.117-1.993l.117-.007zm-22.054 22.03a1 1 0 0 1 .993.884l.007.117-.001 2.961.05-.002h3a1 1 0 0 1 .993.883l.006.117v3a1 1 0 0 1 -.883.993l-.117.007h-3a1 1 0 0 1 -.991-.869l-.009-.131v-2.963l-.048.004h-3a1 1 0 0 1 -.992-.869l-.008-.131v-3a1 1 0 0 1 .868-.992l.132-.008h3zm-7.952-.06a2 2 0 0 1 1.995 1.85l.005.15v5a2 2 0 0 1 -1.85 1.994l-.15.005h-5a2 2 0 0 1 -1.994-1.85l-.006-.15v-5a2 2 0 0 1 1.851-1.994l.15-.006h5zm11.5 5.52h-2v2h2zm-11.5-4.02h-5a.502.502 0 0 0 -.491.41l-.009.09v5a.5.5 0 0 0 .41.491l.09.008h5a.5.5 0 0 0 .492-.41l.008-.09v-5a.502.502 0 0 0 -.41-.491l-.09-.009zm-1.445 1.5a.5.5 0 0 1 .5.5v2a.5.5 0 0 1 -.5.5h-2a.5.5 0 0 1 -.5-.5v-2a.5.5 0 0 1 .5-.5zm8.897-1.44h-2v2h2zm-7.397-12.52a2 2 0 0 1 1.995 1.851l.005.15v5a2 2 0 0 1 -1.85 1.994l-.15.005h-5a2 2 0 0 1 -1.994-1.85l-.006-.15v-5a2 2 0 0 1 1.851-1.994l.15-.006h5zm10.884 0a2 2 0 0 1 1.995 1.851l.005.15v5a2 2 0 0 1 -1.85 1.994l-.15.005h-5a2 2 0 0 1 -1.994-1.85l-.006-.15v-5a2 2 0 0 1 1.851-1.994l.15-.006h5zm-10.884 1.5h-5a.502.502 0 0 0 -.491.41l-.009.09v5a.5.5 0 0 0 .41.492l.09.008h5a.5.5 0 0 0 .492-.41l.008-.09v-5a.502.502 0 0 0 -.41-.491zm10.884 0h-5a.501.501 0 0 0 -.492.41l-.008.09v5a.5.5 0 0 0 .41.492l.09.008h5a.5.5 0 0 0 .492-.41l.008-.09v-5a.502.502 0 0 0 -.41-.491zm-12.384 1.5a.5.5 0 0 1 .5.5v2a.5.5 0 0 1 -.5.5h-2a.5.5 0 0 1 -.5-.5v-2a.5.5 0 0 1 .5-.5zm10.884 0a.5.5 0 0 1 .5.5v2a.5.5 0 0 1 -.5.5h-2a.5.5 0 0 1 -.5-.5v-2a.5.5 0 0 1 .5-.5z" fill="#282D37" style="fill: currentColor;fill: var(--db-icon-color, currentColor)" fill-rule="nonzero"/><path d="m10 41a1 1 0 0 1 .117 1.993l-.117.007h-3a1 1 0 0 1 -.117-1.993l.117-.007zm7 0a1 1 0 0 1 .117 1.993l-.117.007h-3a1 1 0 0 1 -.117-1.993l.117-.007zm6.92 0a1 1 0 0 1 .116 1.993l-.116.007h-2.92a1 1 0 0 1 -.117-1.993l.117-.007zm10.08-8a1 1 0 0 1 .117 1.993l-.117.007h-1a1 1 0 0 1 -.117-1.993l.117-.007zm6.92 0a1 1 0 0 1 .116 1.993l-.116.007h-2.92a1 1 0 0 1 -.117-1.993l.117-.007z" fill="#EC0016" style="fill:#EC0016;fill: var(--db-icon-pulse-color, #EC0016)"/></g></svg>
