<svg id="icon" height="64" viewBox="0 0 64 64" width="64" xmlns="http://www.w3.org/2000/svg"><g fill="none" fill-rule="evenodd" transform="translate(6.54 12.002)"><path d="m11.748.59a1 1 0 0 1 .22 1.396c-.3.412-.93.56-1.397.22-.738-.536-2.759-.07-3.843 1.232-.659.768-1.534 1.663-2.625 2.685-1.307 1.297-2.018 2.293-2.081 3.047.72.105 1.16-.003 1.675-.203a1 1 0 0 1 1.294.57c.203.667.018 1.362-1.812 1.626.188.664.68 1.04 1.47.942.63-.07 1.597-.104 2.9-.102 1.47.134 2.678 1.441 2.905 3.2.019.187-.029.545-.288.803-.364.365-.908 1.65.768 2.231.531.152.986.806.53 1.59-.663.855-.07 2.272.995 2.272.553 0 1.25.553.903 1.432.299 1.198 1.652 1.491 2.257.9.774-.645 2.101.19 1.635 1.315-.461 1.086.361 2.076 1.281 1.96 1.04-.055 1.086.803 1.19 1.258.781 3.404.761 5.423.236 7.451-.216.774-.317 1.302-.301 1.583h2.095c-.128-3.373.2-6.457.984-9.253.48-1.712.48-2.905.331-3.898a1 1 0 0 1 1.978-.296c.105.7.142 1.515.111 2.448 0 .987 1.112 1.837 2.046 1.268.427-.285 1.136-.25 1.549.485.25.602 1.709 1.144 2.337-.05.417-.73 1.576-.638 2.016.067.241.386 1.454 1.093 2.233-.464.268-.624 1.297-.936 1.879-.257.345.403 1.306.892 2.095-.124a15.973 15.973 0 0 1 -2.455-2.625 1 1 0 0 1 1.6-1.2c1.158 1.543 2.43 2.699 4.14 3.658.205.13.349.333.433.609.846 3.524.677 5.73-.23 7.81-.489.995-.748 1.602-.775 1.822h1.866c.05-.02.212-.416.486-1.19 1.282-3.61 1.75-6.854 1.863-9.021-.866-2.156-.249-3.669-.206-3.773a1 1 0 0 1 1.227-.568c.802-.174 1.486-1.396.735-2.239-.247-.46-.174-.885.221-1.276.917-.691.746-1.972-.254-2.413-.811-.348-.67-1.413-.365-1.77.904-1.458-.474-2.218-.882-2.26-.465-.066-.708-.423-.75-.476-2.38-3.073-6.413-4.075-12.155-3.814-9.121.575-11.65.349-13.154.201-1.235 0-2.527-.441-3.624-1.32a1 1 0 1 1 1.25-1.56c.737.59 1.588.88 2.47.884 1.513.145 3.906.347 12.959-.203 6.229-.283 10.783.817 13.682 4.392 2.705.844 2.772 3.573 2.242 4.62 1.81 1.487 1.16 3.894.473 4.658.838 2.272-.865 4.214-2.323 4.508-.021.385.031.829.186 1.324a.989.989 0 0 1 .285.732c-.188 5.362-2.145 10.465-2.151 10.481-.426 1.277-.894 1.997-2.149 2.084h-2.8c-1.365-.011-1.348-2.247-.777-3.38l.502-1.053c.77-1.661.96-3.356.3-6.314l-.254-.152a3.28 3.28 0 0 1 -4.359.97c-1.668 1.901-3.693 1.115-4.45.538-1.41 1.408-3.811.784-4.687-.274-.922.258-1.918.136-2.888-.572-.929 3.469-.787 6.667-.787 7.937s-.89 2.3-2.2 2.3h-2.7c-1.001 0-1.483-1.64-1.046-3.28.437-1.638.897-3.008.021-7.044-2.177-.43-2.627-2.282-2.696-2.95-2.268.155-3.521-1.603-3.741-2.802-2.105-.784-2.485-3.127-2.06-4.238-2.163-1.392-1.654-3.744-.956-4.65-.256-.65-.595-1.003-.922-1.036-1.317.011-2.175.042-2.576.092-1.971.247-3.361-.98-3.704-2.696a.997.997 0 0 1 -.004-.375c-.644-.168-1.01-.479-1.098-.932-.341-1.777.449-3.184 2.38-5.145 1.215-1.168 2.126-2.096 2.733-2.785 1.711-2.05 4.887-2.784 6.558-1.569zm-2.589 4.207a.8.8 0 1 1 0 1.6.8.8 0 0 1 0-1.6z" fill="#282D37" style="fill: currentColor;fill: var(--db-icon-color, currentColor)" fill-rule="nonzero"/><path d="m13.978 2.274c-.28.115-.65.327-1.024.659-2.099 1.863-1.347 4.644 3.24 7.79a1 1 0 0 0 1.432-.327c1.427-2.48.798-4.794-1.033-6.679-.642-.661-1.282-1.126-1.736-1.386a1 1 0 0 0 -.88-.057zm.352 2.112c.644.504 2.47 1.972 1.987 3.964-2.312-1.764-3.113-3.03-1.987-3.964z" fill="#EC0016" style="fill:#EC0016;fill: var(--db-icon-pulse-color, #EC0016)"/></g></svg>
