<svg id="icon" height="64" viewBox="0 0 64 64" width="64" xmlns="http://www.w3.org/2000/svg"><g fill="none" fill-rule="evenodd" transform="translate(6.216 4)"><path d="m7.57 4.529c.087.505-.262 1.096-.815 1.156-.445.05-.866.422-1.368 1.369-.99 2.224-1.913 3.463-2.77 3.719-.527.126-.759.722-.5 1.392.289.747 1.03 1.126 2.178.834 4.25-1.267 7.734 2.296 8.571 4.13a1 1 0 0 1 -1.764.942c-1.492-2.805-4.472-3.696-6.024-3.215-2.25.692-4.138-.189-4.827-1.97-.933-2.663.983-3.807 1.683-3.997.314-.192.764-.894 1.35-2.105.954-1.977 1.634-2.809 3.129-3.069a1 1 0 0 1 1.156.814zm.013 3.171a.7.7 0 1 1 0 1.4.7.7 0 0 1 0-1.4zm3.67-1.81c-.402 1.175-2.18.799-1.942-.526.33-1.356.027-2.713-1.97-3.394a1 1 0 1 1 .485-1.94c2.068.59 3.19 2.062 3.494 3.41.637-.285 1.458-.497 2.464-.635a1 1 0 0 1 1.087.84c.12.753.085 1.855-.085 2.64 2.923 1.574 15.676.801 17.044.723 3.216-.21 7.182-.519 10.453-.708 4.143 0 7.4 2.513 7.4 6 0 1.278-.129 2.44-.43 3.643a1 1 0 1 1 -1.94-.485c.259-1.037.37-2.036.37-3.158 0-2.252-2.264-4-5.4-4-3.48.224-7.275.556-11.163.75-3.888.195-13.998.692-17.113-.932a3.628 3.628 0 0 1 -1.797 1.327 1 1 0 0 1 -.76-1.845c.927-.285 1.423-1.153 1.488-2.604-.9.25-1.462.549-1.683.895z" fill="#282D37" style="fill: currentColor;fill: var(--db-icon-color, currentColor)" fill-rule="nonzero"/><path d="m47.267 19.692a5.18 5.18 0 0 1 .354 1.782c.3-.321.501-.672.603-1.053a1 1 0 0 1 1.92.558c-.44 1.566-1.74 2.726-3.14 3.194-1.238 2.418-3.302 2.816-3.846 2.912a1 1 0 1 1 -.348-1.97 3.114 3.114 0 0 0 1.559-.754c-.886-.188-1.64-.679-2.123-1.366-1.469-1.06-3.582-1.877-6.712-2.306-3.738-.628-14.29-1.612-21.715 3.484-.427.35-1.276.361-1.595-.492-.695-.813-2.061-1.372-2.461-1.525-1.043-.373-1.59-.575-1.644-.605.546 2.98 2.281 3.27 2.347 3.29a1 1 0 0 1 .677 1.241c-.155.53-.697.99-1.703.517-.233.132-.515.387-.886.804-.572.585-1.969 2.752-3.739 3.016l.04 1.341c1.343.191 2.264.643 4.065 2.56 1.623 1.597 3.367 2.243 7.184 2.004.402-.22.913-.13 1.289.318 1.922 2.33 2.187 4.033 1.346 6.557-.226.72-.725 1.62-1.5 2.701h1.787c.808-1.577 1.367-3.142 1.677-4.696a3.08 3.08 0 0 1 .24-.713c.11-.235 1.58-2.38 2.027-3.214-.195-2.183-.993-4.668-1.15-5.414a1 1 0 0 1 1.929-.526c.561 2.227.894 3.115 1.2 5.588 2.852.602 6.702.65 9.943-.103a11.553 11.553 0 0 1 -1.039-2.057 1 1 0 0 1 1.862-.73c.811 1.846 1.062 2.212 3.017 4.102 1.232 1.298 1.466 2.632.707 5.062-.235.75-.735 1.65-1.5 2.701h1.601c1.25-1.026 1.68-1.98 1.923-4.148.27-2.724.632-3.996 1.198-5.336 1.121-2.69 4.172-4.487 3.534-8.768a1 1 0 1 1 1.978-.295c.775 5.204-2.693 7.498-3.668 9.836-.423 1.002-.7 1.732-1.022 4.515-.399 3.46-1.202 4.649-2.999 5.996a1 1 0 0 1 -.471.192l-4.129.008c-.86 0-1.318-1.012-.753-1.658.566-.647 2.034-2.474 2.399-3.64.554-1.773.453-2.35-.248-3.088l-1.011-.991c-3.76 1.113-8.513 1.07-11.895.324-.63 1.054-1.594 2.433-1.624 2.496a1.13 1.13 0 0 0 -.068.178c-.79 3.8-2.184 5.82-2.29 5.965a1 1 0 0 1 -.69.407l-4.52.007c-.86 0-1.318-1.012-.753-1.658 1.7-1.942 2.308-3.35 2.404-3.658.597-1.79.482-2.717-.666-4.261-5.796.391-7.6-1.621-8.724-2.65-1.596-1.72-2.251-1.973-3.561-1.973a1 1 0 0 1 -.99-.856l-.11-3.413a1 1 0 0 1 1.182-1.014c.719.133 1.275-.22 2.295-1.404.97-1.167 1.202-1.384 1.463-1.622-.524-.578-1.765-2.298-1.74-5.532a1 1 0 0 1 1.531-.806c.225.197 1.09.565 2.596 1.102 1.89.655 2.905 1.507 3.287 1.867 6.348-3.846 14.361-4.434 21.78-3.405 3.123.415 4.971.975 6.583 1.768.234-.827.83-1.556 1.676-1.98 1.487-.743 3.29-.153 3.83 1.287zm-36.583 8.608c.387 0 .7.358.7.8s-.313.8-.7.8-.7-.358-.7-.8.313-.8.7-.8zm33.647-8.105c-.567.283-.863.887-.569 1.437.13.103.533.396.612.611.293.152.705.242 1.128.212.15-.642.165-1.284-.076-1.967-.108-.36-.61-.536-1.095-.293z" fill="#EC0016" style="fill:#EC0016;fill: var(--db-icon-pulse-color, #EC0016)"/></g></svg>
