<svg id="icon" height="32" viewBox="0 0 32 32" width="32" xmlns="http://www.w3.org/2000/svg"><path d="m8.006 9c.552 0 .994.448.994 1 0 .513-.454 1-.993 1h-2.39c-.524 0-.73.58-.544 1.16.882 2.833 1.765 5.666 2.65 8.498a.502.502 0 0 0 .475.342c2.06.003 4.118.003 6.177 0 1.169 0 2.254.85 2.646 1.946l1.737 5.75a1 1 0 0 1 -1.874.687l-1.728-5.706c-.094-.328-.443-.677-.78-.677-2.06-.003-4.119-.003-6.178 0a2.5 2.5 0 0 1 -2.31-1.542l-2.732-8.731c-.526-1.834.277-3.727 2.461-3.727a476.01 476.01 0 0 1 2.39 0zm16.994-4a2 2 0 0 1 2 2l.001.536c1.132.654 1.999 1.874 1.999 3.464v10.5a2.5 2.5 0 0 1 -2.336 2.495l-3.164.005a2.5 2.5 0 0 1 -2.495-2.336l-.005-10.664c0-1.48.804-2.773 2-3.465v-.535a2 2 0 0 1 2-2zm2 8h-4v2h1a1 1 0 0 1 0 2h-1v1h1a1 1 0 0 1 0 2h-1v1.5c0 .215.174.5.5.5h3a.5.5 0 0 0 .492-.41zm-14.001-.523 1.825 1.816a1 1 0 0 1 -1.32 1.497l-1.008-.997-1.239 3.207h4.86c.628 0 .962.333 1 1 0 .513-.416 1-1 1h-5c-1.438 0-2.26-1.07-1.84-2.41l1.769-4.592c.279-.72 1.19-1.116 1.953-.52zm12.001-3.477c-1.054 0-2 .895-2 2h4a2 2 0 0 0 -2-2zm-11.883-1.5a1.5 1.5 0 1 1 0 3 1.5 1.5 0 0 1 0-3zm-6-5.5a3 3 0 1 1 0 6 3 3 0 0 1 0-6zm0 2a1 1 0 1 0 0 2 1 1 0 0 0 0-2z" fill="#282D37" style="fill: currentColor;fill: var(--db-icon-color, currentColor)" fill-rule="evenodd"/></svg>
