<svg id="icon" height="24" viewBox="0 0 24 24" width="24" xmlns="http://www.w3.org/2000/svg"><path d="m12 2a9.99 9.99 0 0 1 10 10 9.99 9.99 0 0 1 -10 10 9.99 9.99 0 0 1 -10-10 9.99 9.99 0 0 1 10-10zm0 2c-4.406 0-8 3.594-8 8s3.594 8 8 8c4.438 0 8-3.594 8-8s-3.594-8-8-8zm-2.498 3.531c-.032.532.375.938.875.969s1.125-.344 1.906-.344c.562 0 1.125.219 1.125.844 0 1.75-2.625 1.406-2.625 4.063 0 .53.437.968.969.968.625 0 .968-.5.968-.969 0-1.343 2.625-1.156 2.625-4.062 0-1.688-1.312-2.781-3.125-2.781-1.25 0-2.718.312-2.718 1.312zm1.048 9.25c0-.687.594-1.25 1.281-1.25.688 0 1.282.563 1.282 1.25 0 .719-.594 1.282-1.282 1.282a1.287 1.287 0 0 1 -1.281-1.282z" fill="var(--db-icon-color, currentColor)" fill-rule="evenodd"/></svg>
