<svg id="icon" height="24" viewBox="0 0 24 24" width="24" xmlns="http://www.w3.org/2000/svg"><path d="m18.5 3c1.325 0 2.501 1.185 2.5 2.5v13c0 1.325-1.23 2.505-2.5 2.5h-13c-1.325 0-2.495-1.19-2.5-2.5v-13c0-1.325 1.184-2.496 2.5-2.5zm-2.5 10.415-3.293 3.292a1 1 0 0 1 -1.037.237l-3.599-1.79-3.071 2.047v1.299c0 .245.262.5.5.5h13c.245 0 .507-.251.5-.5v-2.086zm-10.5-8.415c-.245 0-.5.264-.5.5v9.297l2.445-1.63a1 1 0 0 1 .88-.113l3.477 1.728 3.49-3.49a1 1 0 0 1 1.32-.082l2.388 2.376v-8.086c0-.245-.26-.495-.5-.5zm3.5 2a2 2 0 1 1 0 4 2 2 0 0 1 0-4z" fill="var(--db-icon-color, currentColor)" fill-rule="evenodd"/></svg>
