<svg id="icon" height="20" viewBox="0 0 20 20" width="20" xmlns="http://www.w3.org/2000/svg"><path d="m15.714 2a2.285 2.285 0 0 1 2.286 2.285v11.429a2.286 2.286 0 0 1 -2.286 2.286h-11.428a2.286 2.286 0 0 1 -2.286-2.286v-11.429a2.285 2.285 0 0 1 2.286-2.285zm0 2h-11.428a.286.286 0 0 0 -.286.285v11.429c0 .158.128.286.286.286h11.428a.286.286 0 0 0 .286-.286v-11.429a.286.286 0 0 0 -.286-.285zm-9.434 2.339a1 1 0 0 1 1.415-.002l2.288 2.28 2.287-2.28a1 1 0 1 1 1.413 1.416l-2.284 2.276 2.284 2.276a1 1 0 1 1 -1.413 1.416l-2.287-2.28-2.288 2.28a1.002 1.002 0 0 1 -1.415-.002 1 1 0 0 1 .003-1.414l2.283-2.276-2.283-2.276a1 1 0 0 1 -.003-1.414z" fill="#55b9e6" style="fill: #55b9e6;fill: var(--db-icon-color, #55b9e6)" fill-rule="evenodd"/></svg>
