<svg id="icon" height="32" viewBox="0 0 32 32" width="32" xmlns="http://www.w3.org/2000/svg"><path d="m23 3c.563 0 1 .469 1 1v13h5c.563 0 1 .438 1 1v10c0 .563-.438 1-1 1h-10c-.563 0-1-.438-1-1v-5c0-.563-.438-1-1-1h-2c-.563 0-1 .438-1 1v5c0 .563-.438 1-1 1h-10c-.563 0-1-.438-1-1v-10c0-.563.469-1 1-1h4.969v-13c0-.501.531-1 1.031-1zm-15 16h-4v8h4zm14-14h-12v22h2v-4a3 3 0 0 1 3-3h2a3 3 0 0 1 3 3v4h2zm6 14h-4v8h4zm-12-11c2.219 0 4 1.781 4 4a4.019 4.019 0 0 1 -1.156 2.844 4.019 4.019 0 0 1 -2.844 1.156c-2.219 0-4-1.781-4-4s1.781-4 4-4zm0 2c-1.094 0-2 .906-2 2s.906 2 2 2 2-.906 2-2-.906-2-2-2z" fill="var(--db-icon-color, currentColor)" fill-rule="evenodd"/></svg>
