<svg id="icon" height="20" viewBox="0 0 20 20" width="20" xmlns="http://www.w3.org/2000/svg"><path d="m10.688 3.313a.886.886 0 0 0 -.688-.313c-.25 0-.5.094-.719.313l-5 4.968a1.044 1.044 0 0 0 -.281.719c0 .563.438 1 1 1 .25 0 .5-.094.688-.281l3.312-3.313v9.594c0 .563.438 1 1 1 .531 0 1-.438 1-1v-9.594l3.281 3.313c.219.187.469.281.719.281.531 0 1-.438 1-1a.975.975 0 0 0 -.226-.633l-5.086-5.055z" fill="#282D37" style="fill: currentColor;fill: var(--db-icon-color, currentColor)" fill-rule="evenodd"/></svg>