<svg id="icon" height="20" viewBox="0 0 20 20" width="20" xmlns="http://www.w3.org/2000/svg"><path d="m10.6263226.21689517 6.3167596 6.24068493c.4121514.40793878.4155664 1.07275324.0076276 1.48490465-.3765588.38044745-.971994.41262247-1.3855395.0944664l-.5271703-.50995115-2.4799348 2.45593298c.2379706.38821982.3991297.80029782.4829069 1.23133462.2816593 1.4491475-.3017599 2.871405-1.3939832 4.2304274-.5145259.6402099-1.0267308 1.1291798-1.3874456 1.4212939-.38137557.3088457-.91976996.3093399-1.29993033.0171906l-3.63561297-3.5871795-3.46766392 3.4339059c-.41210839.4079823-1.0769232.4046374-1.48490544-.007471-.37659899-.3804078-.40271805-.9761393-.08037356-1.3864285l3.53994292-3.5180064-3.51964052-3.48328054c-.38628949-.38234981-.41694567-.99629131-.07066677-1.41522074.29525056-.35719516.78937311-.86431556 1.43597686-1.37347365 1.36845493-1.0775686 2.7985814-1.65263501 4.25130987-1.37676139.43930604.08342437.85946665.24554737 1.25532185.48601679l2.47669871-2.45128047-.41158934-.40773377c-.41215141-.40793879-.41556641-1.07275324-.00762763-1.48490465.37655888-.38044746.97199407-.41262247 1.38553957-.09446641z" fill="var(--db-icon-color, currentColor)" fill-rule="evenodd" transform="translate(1 1)"/></svg>
