<svg id="icon" height="32" viewBox="0 0 32 32" width="32" xmlns="http://www.w3.org/2000/svg"><path d="m27 6a3 3 0 0 1 3 3v14a3 3 0 0 1 -3 3h-22a3 3 0 0 1 -3-3v-14a3 3 0 0 1 3-3zm0 2h-22c-.562 0-1 .438-1 1v14c0 .563.438 1 1 1h22c.563 0 1-.438 1-1v-14c0-.563-.438-1-1-1zm-16.156 1.875c2.437 0 4.125.875 4.125 3.156 0 1.375-.59 2.103-1.875 2.531l-.188.063c1.844.375 2.75 1.281 2.75 3.063 0 2.468-1.937 3.5-4.937 3.5h-3.719c-.562 0-1-.438-1-1v-10.314c0-.564.438-1 1-1h3.844zm-.063 7.063h-1.781v2.78h1.563c1.406 0 2.093-.343 2.093-1.437 0-.968-.625-1.343-1.875-1.343zm-.125-4.625h-1.656v2.156h1.594c.906 0 1.469-.219 1.469-1.094 0-.719-.438-1.063-1.407-1.063zm6.125 3.874c0-4.156 2.063-6.625 6.125-6.625.688 0 1.313.063 1.969.22a1.398 1.398 0 0 1 1.063 1.25c0 1-.75 1.687-1.688 1.53a6.262 6.262 0 0 0 -1.25-.124c-2.469 0-3.094 1.312-3.094 3.624 0 2.22.594 3.5 3.063 3.5.468 0 .875-.03 1.406-.125.813-.125 1.594.438 1.625 1.25 0 .72-.344 1.25-.969 1.438a6.221 6.221 0 0 1 -1.906.313c-4.719.03-6.344-2.407-6.344-6.25z" fill="#282D37" style="fill: currentColor;fill: var(--db-icon-color, currentColor)" fill-rule="evenodd"/></svg>
