<svg id="icon" height="24" viewBox="0 0 24 24" width="24" xmlns="http://www.w3.org/2000/svg"><path d="m18.995 5a3.006 3.006 0 0 1 3.005 3v8c0 1.668-1.361 3-3.005 3h-13.99a3.006 3.006 0 0 1 -3.005-3v-8c0-1.668 1.362-3 3.005-3zm-.008 1.997h-13.983c-.563 0-1.009.446-1.009 1.009v7.981c0 .564.446 1.01 1.01 1.01h13.982c.563 0 1.008-.446 1.008-1.01v-7.981c0-.563-.445-1.01-1.008-1.01zm-3.02 1.221c.376 0 .822.047 1.22.118.33.07.588.399.588.751v.024a.75.75 0 0 1 -.892.728 4.724 4.724 0 0 0 -.845-.07c-1.409 0-1.808.775-1.808 2.255 0 1.409.376 2.207 1.784 2.207.305 0 .587-.023.892-.093.47-.094.892.234.892.704v.047c0 .33-.211.611-.516.705a5.017 5.017 0 0 1 -1.362.188c-2.37 0-3.544-1.34-3.544-3.735 0-2.42 1.244-3.829 3.591-3.829zm-7.3.165c1.455 0 2.441.516 2.441 1.855 0 .846-.376 1.245-1.197 1.55 1.056.212 1.596.729 1.596 1.786 0 1.456-1.127 2.067-2.887 2.067h-2.043a.757.757 0 0 1 -.75-.752v-5.755c0-.423.351-.751.75-.751zm-.024 4.204h-1.056v1.55h.939c.798 0 1.22-.187 1.22-.798 0-.493-.281-.752-1.103-.752zm-.07-2.701h-.986v1.174h.939c.587 0 .868-.188.868-.61 0-.4-.258-.564-.821-.564z" fill="#282D37" style="fill: currentColor;fill: var(--db-icon-color, currentColor)" fill-rule="evenodd"/></svg>
