<svg id="icon" height="20" viewBox="0 0 20 20" width="20" xmlns="http://www.w3.org/2000/svg"><path d="m2.047 11.844c0-1.719.687-3.438 2.25-4.719.219-.156.406-.219.625-.219.531 0 .969.469.969 1 0 .25-.094.5-.344.719a4.07 4.07 0 0 0 -1.563 3.25c0 2.219 1.657 4.406 4.282 4.406 1.28 0 2.53-.562 3.343-1.562.22-.25.47-.344.72-.344.5 0 1 .438 1 .969 0 .219-.063.406-.22.625a6.314 6.314 0 0 1 -4.843 2.25c-3.782 0-6.22-3.188-6.22-6.375zm4.031-1.875c0-.438.406-.813.813-.813a.69.69 0 0 1 .625.344l1.593 2.25.282 1.469c.062.406-.22.969-.782.969-.375 0-.718-.25-.78-.626l-.25-1.312-1.345-1.813a.706.706 0 0 1 -.156-.468zm6.875-7.969c2.75 0 5 2.25 5 5 0 2.781-2.25 5-5 5-2.781 0-5-2.219-5-5 0-2.75 2.219-5 5-5zm-.469 2.344-1.156 1.186 1.688 1.688-1.72 1.656 1.188 1.219 2.875-2.875-2.875-2.875z" fill="#282D37" style="fill: currentColor;fill: var(--db-icon-color, currentColor)" fill-rule="evenodd"/></svg>
