<svg id="icon" height="20" viewBox="0 0 20 20" width="20" xmlns="http://www.w3.org/2000/svg"><path d="m16.46 7c.937 0 1.75.781 1.562 1.844l-.843 4.312c-.032.25-.22.5-.47.656v3.188a.98.98 0 0 1 -.968 1c-.562 0-1-.438-1-1v-4.063c0-.406.25-.78.656-.906l.594-3.062h-3.469l.625 3.062c.407.125.657.5.657.906v4.063c0 .563-.438 1-1 1a.98.98 0 0 1 -.97-1v-3.188c-.25-.156-.437-.406-.468-.656l-.875-4.281c-.187-.875.5-1.875 1.594-1.875zm-2.19-1.094a1.947 1.947 0 0 0 1.938-1.937c0-1.094-.875-1.969-1.937-1.969a1.96 1.96 0 0 0 -1.97 1.969c0 1.062.876 1.937 1.97 1.937zm-7.048 1.094c.812 0 1.5.563 1.594 1.344l.717 3.656a1.64 1.64 0 0 1 -1.312 1.906v3.094a.98.98 0 0 1 -.969 1c-.562 0-1-.438-1-1v-4.063c0-.562.438-1 1-1h.25l-.562-2.967h-2.282l-.593 2.969h.218c.563 0 1 .437 1 1v4.061c0 .563-.437 1-1 1a.98.98 0 0 1 -.968-1v-3.094a1.588 1.588 0 0 1 -1.282-1.906l.75-3.688c.094-.78.782-1.312 1.563-1.312h2.875zm-1.439-1.094a1.947 1.947 0 0 0 1.938-1.936c0-1.095-.875-1.97-1.938-1.97a1.96 1.96 0 0 0 -1.968 1.969c0 1.062.875 1.937 1.968 1.937z" fill="#282D37" style="fill: currentColor;fill: var(--db-icon-color, currentColor)" fill-rule="evenodd"/></svg>
