<svg id="icon" height="32" viewBox="0 0 32 32" width="32" xmlns="http://www.w3.org/2000/svg"><path d="m14 4a6 6 0 0 1 6 6v8.014l-.003.051.003 6.513 3.276-3.28a.992.992 0 0 1 .73-.298c.53 0 .994.431.994.995 0 .266-.1.531-.298.697l-5.083 5.089a.936.936 0 0 1 -.619.219c-.232 0-.497-.1-.696-.299l-5.006-5.01a1.035 1.035 0 0 1 -.298-.696c0-.564.464-.995.994-.995.266 0 .53.1.73.299l3.276 3.279-.005-12.578.005-.1v-1.9a4 4 0 1 0 -8 0v6a1 1 0 0 1 -2 0v-6a6 6 0 0 1 6-6z" fill="var(--db-icon-color, currentColor)" fill-rule="evenodd"/></svg>
