<svg id="icon" height="24" viewBox="0 0 24 24" width="24" xmlns="http://www.w3.org/2000/svg"><path d="m16.672 6c1.243 0 2.248 1.011 2.328 2.245l.005 2.755a1 1 0 0 1 -.178.57l-4.544 5.096a.92.92 0 0 1 -.746.334h-3.537a3 3 0 1 1 -6 0h-1a1 1 0 0 1 -.993-.883l-.007-1.45c0-1.96 1.572-3.667 3.667-3.667h3.233l-.266-.996h-2.634c-.555 0-.994-.491-.994-1.004s.474-.977.994-.977l2.838.007c.695 0 1.306.437 1.551 1.076l1.611 5.894h1.005l4-4.383v-2.21c0-.193-.075-.409-.333-.409h-2c-.552 0-1-.423-1-.975 0-.513.452-1.023 1-1.023zm2.328 8a3 3 0 1 1 0 6 3 3 0 0 1 0-6zm-13 3a1 1 0 0 0 1 1c.513 0 1-.384 1-1zm13-1a1 1 0 1 0 0 2 1 1 0 0 0 0-2zm-9.55-3h-3.783c-.872 0-1.588.67-1.66 1.523l-.007.477h6z" fill="#282D37" style="fill: currentColor;fill: var(--db-icon-color, currentColor)" fill-rule="evenodd"/></svg>