<svg id="icon" height="64" viewBox="0 0 64 64" width="64" xmlns="http://www.w3.org/2000/svg"><g fill="none" transform="translate(8 4)"><path d="m21.773.365c1.414 1.7 6.466 8.001 8.018 10.024a1 1 0 0 1 -1.582 1.222c-.655-.887-3.066-3.908-7.234-9.063-8.472 9.83-13.929 17.123-16.37 21.879-1.715 3.63-2.605 7.167-2.605 10.573 0 10.448 8.552 19 19 19 9.803 0 17.947-7.427 18.905-17.099a1 1 0 0 1 1.99.198c-1.058 10.691-10.06 18.901-20.895 18.901-11.552 0-21-9.448-21-21 0-3.721.962-7.545 2.8-11.438 3.984-8.02 17.044-22.762 17.45-23.224a1 1 0 0 1 1.523.027z" fill="var(--db-icon-color, currentColor)"/><path d="m22.408 30.048c-1.258-3.423-.08-9.025 3.79-12.407 4.85-4.321 13.067-5.266 24.68-1.902a1 1 0 0 1 .698 1.177c-.684 3.095-2.473 6.746-3.807 8.83-4.524 7.044-11.247 10.516-20.402 8.327a1 1 0 0 1 .466-1.946c8.244 1.972 14.154-1.08 18.253-7.462 1.356-2.082 2.606-4.895 3.293-7.27-11.179-3.027-17.797-1.66-21.642 1.558-2.495 2.11-4.025 5.508-3.775 8.844 3.68-4.715 8.625-7.463 14.363-8.482a1 1 0 0 1 .35 1.97c-9.292 1.648-16.605 8.26-18.686 21.866a1 1 0 0 1 -1.978-.302c.758-4.954 2.209-9.239 4.397-12.801z" fill="var(--db-icon-pulse-color, #78be14)"/></g></svg>
