<svg id="icon" xmlns="http://www.w3.org/2000/svg" width="64" height="64" viewBox="0 0 64 64"><g fill="none" fill-rule="evenodd" transform="translate(17 4)"><path fill="var(--db-icon-color, currentColor)" fill-rule="nonzero" d="M25 0a5 5 0 0 1 4.996 4.783L30 51a5 5 0 0 1-4.783 4.995L5 56a5 5 0 0 1-4.995-4.783L0 5A5 5 0 0 1 4.783.005L25 0ZM7.005 2H5a3 3 0 0 0-2.995 2.824L2 51a3 3 0 0 0 2.824 2.995L25 54a3 3 0 0 0 2.995-2.824L28 5a3 3 0 0 0-2.824-2.995L23 2v.034a2.964 2.964 0 0 1-2.752 2.958L9.966 5c-1.58 0-2.87-1.443-2.96-3ZM21 50a1 1 0 0 1 .117 1.993L21 52H9a1 1 0 0 1-.117-1.993L9 50h12Zm2.19-25.87c1.12 0 2.028.907 2.028 2.027v5.015c0 1.12-.908 2.028-2.028 2.028h-5.015a2.027 2.027 0 0 1-2.027-2.028v-5.015c0-1.12.907-2.027 2.027-2.027Zm-11.365 0c1.12 0 2.027.907 2.027 2.027v5.015c0 1.12-.907 2.028-2.027 2.028H6.81a2.027 2.027 0 0 1-2.028-2.028v-5.015c0-1.12.908-2.027 2.028-2.027Zm11.045 1.81h-4.373a.535.535 0 0 0-.535.535v4.374c0 .295.24.534.535.534h4.373a.535.535 0 0 0 .535-.534v-4.374a.535.535 0 0 0-.535-.535Zm-11.365 0H7.13a.535.535 0 0 0-.535.535v4.374c0 .295.24.534.535.534h4.373a.535.535 0 0 0 .535-.534v-4.374a.535.535 0 0 0-.535-.535Zm.321-13.185c1.12 0 2.027.907 2.027 2.027V19.8c0 1.12-.907 2.027-2.027 2.027H6.81A2.027 2.027 0 0 1 4.782 19.8v-5.016c0-1.12.908-2.027 2.028-2.027Zm-.321 1.811H7.13a.535.535 0 0 0-.535.535v4.374c0 .295.24.535.535.535h4.373c.295 0 .535-.24.535-.535v-4.374a.535.535 0 0 0-.535-.535ZM21 2H9v.034c0 .496.373.904.853.96L9.966 3h10.068a.966.966 0 0 0 .958-.839L21 2.034V2Z"/><path fill="var(--db-icon-pulse-color, #EC0016)" d="M21.06 20.76a.535.535 0 0 1-.756 0l-3.093-3.093a.535.535 0 0 1 0-.756l3.092-3.092a.535.535 0 0 1 .756 0l3.093 3.093a.535.535 0 0 1 0 .756L21.06 20.76Zm-5.357-4.903a2.027 2.027 0 0 0 0 2.868l3.546 3.546a2.028 2.028 0 0 0 2.867 0l3.547-3.546a2.027 2.027 0 0 0 0-2.868l-3.547-3.546a2.028 2.028 0 0 0-2.867 0l-3.546 3.546Z"/></g></svg>
