<svg id="icon" height="20" viewBox="0 0 20 20" width="20" xmlns="http://www.w3.org/2000/svg"><path d="m9.969 3c1.62 0 2.91.816 3.563 2.054l1.26-1.261a1 1 0 0 1 1.415 0c.36.36.429.984 0 1.414a20197.47 20197.47 0 0 1 -12.5 12.5 1 1 0 0 1 -1.415-1.414c.37-.374.742-.746 1.115-1.117l-1.387-6.977a1.008 1.008 0 0 1 .873-1.192l.114-.007h2.993c0-2.224 1.63-4 3.969-4zm7.244 4.024c.44.1.893.556.768 1.175a5361.09 5361.09 0 0 1 -1.559 7.987c-.086.43-.495.823-.998.814h-8.188l2-2.001 5.378.001 1.277-6.654zm-7.629 1.976h-5.351l.881 4.469 4.47-4.47zm.416-4c-1.19 0-1.922.738-1.986 1.84l-.004.16 3.575-.001.385-.383c-.155-.956-.893-1.616-1.97-1.616z" fill="#282D37" style="fill: currentColor;fill: var(--db-icon-color, currentColor)" fill-rule="evenodd"/></svg>