<svg id="icon" height="24" viewBox="0 0 24 24" width="24" xmlns="http://www.w3.org/2000/svg"><path d="m3.5 19.5v-15.5c0-1.094.906-2 2-2h2.969c.562 0 1 .438 1 1 0 .531-.438 1-1 1h-2.969v15.5c0 .281.188.5.469.5h9c.281 0 .531-.219.531-.5v-4.844c0-.531.438-1 .969-1 .593 0 1.031.469 1.031 1v4.844c0 1.375-1.125 2.5-2.531 2.5h-9c-1.344 0-2.469-1.125-2.469-2.5zm4-2.5c0-.563.438-1 .969-1h4.031a.98.98 0 0 1 .969 1c0 .531-.438 1-.969 1h-4.031c-.531 0-.969-.469-.969-1zm0-4c0-.563.438-1 1-1h2a.98.98 0 0 1 .969 1 .98.98 0 0 1 -.969 1h-2c-.563 0-1-.438-1-1zm7.969-11a5.001 5.001 0 0 1 5.031 5c0 2.781-2.219 5-5 5a4.968 4.968 0 0 1 -4.969-5c0-2.75 2.188-5 4.938-5zm1.031 2v2.938c0 .375-.188.718-.5.875a.944.944 0 0 1 -.5.156.831.831 0 0 1 -.5-.188l-2.406-1.531c-.063.219-.063.438-.063.656 0 1.719 1.344 3.094 2.969 3.094 1.688 0 3-1.375 3-3.094 0-1.343-.813-2.468-2-2.906z" fill="#282D37" style="fill: currentColor;fill: var(--db-icon-color, currentColor)" fill-rule="evenodd"/></svg>
