<svg id="icon" height="32" viewBox="0 0 32 32" width="32" xmlns="http://www.w3.org/2000/svg"><path d="m4 6c0-.563.438-1 .969-1 10.625 0 23.125 9 23.125 15.813 0 5.718-6.719 5.968-10.407 5.968h-.5a.98.98 0 0 1 -1-.968c0-.563.438-1 1-1 6.344 0 8.907-1.157 8.907-4 0-4.97-10.625-13.844-21.125-13.844a.974.974 0 0 1 -.969-.969zm.125 19.375c0-.531.375-1.031.969-1.031.093 0 .218 0 .343.062a8.763 8.763 0 0 0 2.688.407c1.25 0 3.344-.282 3.344-2.157 0-1.187-.75-1.656-2.469-2.406-1.594-.656-3.531-1.5-3.531-3.906 0-2.375 2-3.969 5-3.969 1 0 2 .188 2.937.531.469.156.656.531.656.875 0 .531-.375 1.063-.937 1.063-.125 0-.25-.031-.375-.063a6.27 6.27 0 0 0 -2.281-.406c-.719 0-3.031.125-3.031 1.969 0 1 .687 1.406 2.343 2.093 1.531.688 3.688 1.594 3.688 4.22-.031 2.562-2.063 4.124-5.344 4.124a9.915 9.915 0 0 1 -3.313-.5c-.468-.156-.687-.531-.687-.906z" fill="var(--db-icon-color, currentColor)" fill-rule="evenodd"/></svg>
