<svg id="icon" height="24" viewBox="0 0 24 24" width="24" xmlns="http://www.w3.org/2000/svg"><path d="m4 21a1 1 0 0 1 -1-1c0-.513.403-1 1-1v-6.764c-.614-.55-1-1.347-1-2.236 0-.442.059-.634.158-.989l1.18-4.515a1.995 1.995 0 0 1 1.934-1.496h11.454c.857 0 1.672.525 1.935 1.497l1.182 4.514c.11.316.156.65.156.989a2.99 2.99 0 0 1 -1 2.235v6.765a1 1 0 0 1 0 2zm14-4h-12v2h12zm-1.501-4.402c-.46.268-.96.402-1.499.402-.54 0-1.04-.134-1.501-.402a3.01 3.01 0 0 1 -1.499.402 3.021 3.021 0 0 1 -1.501-.402 2.936 2.936 0 0 1 -1.499.402 2.947 2.947 0 0 1 -1.501-.402c-.445.26-.945.395-1.499.402v2h12v-2a3.036 3.036 0 0 1 -1.501-.402zm1.228-7.598h-11.454l-1.253 4.794a1 1 0 0 0 .98 1.206c.517 0 1.017-.397 1.499-1.19.44.793.941 1.19 1.501 1.19s1.06-.397 1.499-1.19c.47.793.971 1.19 1.501 1.19s1.03-.397 1.499-1.19c.438.793.939 1.19 1.501 1.19s1.062-.397 1.499-1.19c.45.793.95 1.19 1.501 1.19a1 1 0 0 0 1-1c0-.092-.069-.373-.104-.499l-1.17-4.501z" fill="#282D37" style="fill: currentColor;fill: var(--db-icon-color, currentColor)" fill-rule="evenodd"/></svg>