<svg id="icon" height="20" viewBox="0 0 20 20" width="20" xmlns="http://www.w3.org/2000/svg"><path d="m9.016 4a1 1 0 0 1 .997.997v10.006c0 .567-.43.997-.997.997a.982.982 0 0 1 -.527-.156l-2.756-1.838h-.723c-1.661 0-3.01-1.348-3.01-2.97v-2.013c0-1.642 1.349-3.03 3.01-3.03h.723l2.756-1.817a.857.857 0 0 1 .527-.176zm-.996 2.873-1.446.977a1.281 1.281 0 0 1 -.567.156h-.997a1 1 0 0 0 -.997.997v1.994c0 .566.43.997.997.997h.996c.215 0 .41.097.567.195l1.446.938v-6.254z" fill="var(--db-icon-color, currentColor)" fill-rule="evenodd"/></svg>
