<svg id="icon" height="64" viewBox="0 0 64 64" width="64" xmlns="http://www.w3.org/2000/svg"><g fill="none" fill-rule="evenodd" transform="translate(11 7.903)"><path d="m41.866 19.337c1.664 6.184 2.184 13.792 2.051 21.53l-.019.889a.986.986 0 0 1 -.47.79c-5.3 3.298-12.317 5.551-20.028 5.551-5.688 0-11.83-1.848-16.006-3.98l-3.687 3.687a1 1 0 1 1 -1.414-1.414l6-6a1 1 0 0 1 1.497 1.32c-.208.221-.51.526-.903.914 3.765 1.814 9.289 3.473 14.513 3.473 6.858 0 13.428-1.929 18.511-4.968l.017-1.078c.082-7.295-.445-14.441-1.992-20.188-.11-.419-.381-1.316-.816-2.692-4.09-12.319-10.864-16.826-16.982-14.632-4 1.433-3.725 7.549-.358 8.498 1.798.525 3.88-.785 5.232-3.4a1 1 0 1 1 1.776.92 9.714 9.714 0 0 1 -.395.704c4.194 3.594 4.85 8.874 2.546 15.18a1 1 0 1 1 -1.878-.687c1.998-5.47 1.542-9.844-1.865-12.884-1.692 1.85-3.858 2.705-5.967 2.09-5.22-1.472-5.612-10.208.234-12.304 7.791-2.793 16.164 3.315 20.403 18.681zm-30.016 5.401a1 1 0 1 1 -1.302 1.519c-2.74-2.35-6.214-2.252-8.98-.337a1 1 0 1 1 -1.138-1.645c3.466-2.4 7.935-2.524 11.42.463z" fill="#282D37" style="fill: currentColor;fill: var(--db-icon-color, currentColor)" fill-rule="nonzero"/><path d="m21.9 26.597c3.883 0 7.696 2.485 10.384 5.88a1 1 0 1 1 -1.568 1.241c-2.346-2.963-5.657-5.12-8.816-5.12-3.02 0-6.24 1.225-9.338 3.327a1 1 0 0 1 -1.123-1.655c3.401-2.308 6.986-3.673 10.461-3.673z" fill="#EC0016" style="fill:#EC0016;fill: var(--db-icon-pulse-color, #EC0016)"/></g></svg>
