<svg id="icon" height="32" viewBox="0 0 32 32" width="32" xmlns="http://www.w3.org/2000/svg"><path d="m5.17372112 5.41776631 2.16117403.44893787c1.19954614.24918016 1.99731588 1.37350928 1.85631303 2.57304865l-1.47800818 8.13707667c1.65271535.9221488 3.0057486 1.9842797 3.9205624 3.0078354.8330829.9321096 1.2426067 2.1802575 1.2522536 3.7151894l10.2822557-.000009c.1750174-1.6858197 1.5997373-2.9998453 3.3319283-2.9998453 1.8497349 0 3.3498 1.4998507 3.3498 3.35s-1.5000651 3.35-3.3498 3.35c-1.3697126 0-2.5471729-.8216204-3.0665174-1.9989976-6.9772508 0-10.7884784-.0003342-11.4336826-.0010024-.2837813.0010024-.9003737-.2340942-.8467415-.9243566.1345956-1.5327177-.1411753-2.6354986-.7870209-3.3581145-.70957911-.7939252-1.70314469-1.5828379-2.98112192-2.3607714l-.42497977 2.2773389c1.11859201.5425735 1.89006409 1.6891726 1.89006409 3.0159036 0 1.8501493-1.50026513 3.35-3.35 3.35-1.85044204 0-3.3502-1.499558-3.3502-3.35 0-1.7806268 1.38873908-3.2363471 3.14231448-3.343658l2.2036995-12.02009971c.05868212-.31605835-.12210861-.62205354-.41558107-.72911062l-2.25246943-.47489798c-.45962998-.09547834-.75483321-.54548254-.65935487-1.00511251.08813385-.42427382.52554422-.75796835 1.00511251-.65935487zm.32647888 16.58223369c-.91155796 0-1.65.738442-1.65 1.65s.73844204 1.65 1.65 1.65c.91095592 0 1.65-.7388399 1.65-1.65s-.73904408-1.65-1.65-1.65zm21 0c-.911558 0-1.65.738442-1.65 1.65s.738442 1.65 1.65 1.65c.9109559 0 1.65-.7388399 1.65-1.65s-.7390441-1.65-1.65-1.65zm1.4994047-5.6999488c.469442 0 .85.380558.85.85s-.380558.85-.85.85c-3.0969824 0-4.4540145.6127078-5.2152204 2.4720439-.1778599.4344441-.6742304.6424467-1.1086745.4645867-.4344441-.1778599-.6424467-.6742304-.4645867-1.1086745 1.074348-2.6242231 3.0759459-3.5279561 6.7884816-3.5279561z" fill="var(--db-icon-color, currentColor)" fill-rule="evenodd" transform="matrix(-1 0 0 1 32 0)"/></svg>
