<svg id="icon" height="32" viewBox="0 0 32 32" width="32" xmlns="http://www.w3.org/2000/svg"><path d="m20.74600029 10.43599987c-.26543236 2.57623196-.53319168 5.15222263-.8029995 7.72799969l3.63599968 3.6439991c.07999992.07999992.18600082.28100014.22200012.38999939.56399918 2.20100021 1.12700081 4.40500069 1.68700027 6.61000061.11624336.45480537-.15820122.91773415-.61300087 1.0340004-.42000008.10700035-.87199974-.12599945-1.0340004-.61300087-.54500008-2.12700081-1.08799934-4.25600052-1.62999916-6.38599968l-3.58799934-3.59499931c-.28477669-.28886986-.42655563-.68929291-.38699913-1.09300041.2159996-2.1079998.43400002-4.21500015.65600014-6.3220005l-3.05800056 1.59700012-.47799969 2.68700027c-.07600021.42700005-.56000042.76399994-.98600006.68799973-.45945644-.08665466-.76522636-.5248661-.68799973-.98600006.18200016-1.03299999.36600018-2.06599998.55200005-3.09799957.03999996-.22200012.23900032-.50899982.44400024-.60400009 1.60900021-.84300041 3.21900082-1.68400002 4.83000088-2.52200031.41927719-.21480274.93330193-.04904366 1.14810371.37023449.07434082.14510536.10553741.3084774.08989334.47076702zm-17.89599991 5.56400013h7.30000019c.46944237 0 .85000038.38055801.85000038.85000038s-.38055801.85000038-.85000038.85000038h-7.30000019c-.46944213 0-.85000038-.38055801-.85000038-.85000038s.38055801-.85000038.85000038-.85000038zm2.28600025 4h7.30000019c.46944237 0 .85000038.38055801.85000038.85000038s-.38055801.85000038-.85000038.85000038h-7.30000019c-.46944237 0-.85000038-.38055801-.85000038-.85000038s.38055801-.85000038.85000038-.85000038zm12.80199909.96699905c.39599991.1760006.61199951.62700081.43000031 1.12199974-1.07934189 2.42621994-2.1606102 4.85158348-3.24399948 7.27599907-.1911459.42876434-.69368267.6213932-1.12244701.43024635-.00018406-.00008202-.00036907-.00016403-.00055313-.00024605-.42555523-.19447327-.61684036-.69403839-.43000031-1.12299919 1.07999992-2.42700005 2.1619997-4.85199928 3.24499989-7.27499962.1912365-.42841721.69342041-.62087631 1.12199974-.43000031zm5.11000061-8.75500011c.29299927.31499958.58399963.63000011.87299919.94799995l2.10000038 1.06599998c1.04999924.53199959.26300049 1.95600033-.76799965 1.51599979-.74699974-.3760004-1.49099922-.75300026-2.23500061-1.13300037-.08602142-.05228901-.16644287-.11327553-.23999977-.18200016-.32799912-.35299969-.65500069-.70699978-.97999954-1.06299973-.31715202-.34532833-.29478073-.88225079.04999924-1.19999981.31599998-.29199982.8220005-.31999969 1.20000076.04800034zm-2.61800003-10.05500031c1.57014465 0 2.84300041 1.27285433 2.84300041 2.84299994s-1.27285576 2.84299994-2.84300041 2.84299994-2.84300041-1.27285433-2.84300041-2.84299994 1.27285576-2.84299994 2.84300041-2.84299994zm0 1.70000005c-.63126183-.0001111-1.14308929.51153731-1.14320183 1.14279914-.00011063.63126135.51153755 1.14308977 1.14279938 1.14320087h.00040245c.63126183-.0001111 1.14291-.51193953 1.14279938-1.14320087-.00011063-.63110447-.51169586-1.14268804-1.14279938-1.14279914z" fill="var(--db-icon-color, currentColor)" fill-rule="evenodd"/></svg>
