<svg id="icon" height="32" viewBox="0 0 32 32" width="32" xmlns="http://www.w3.org/2000/svg"><path d="m6.69786049 25.5615471c2.74513933.7872475 4.51014991 1.2234783 5.29503191 1.3086926 1.1773229.1278213 1.8247268.1278213 2.9159172.1278213h2.1819404c1.3826598 0 1.5420644 0 2.7356114-.1020485.795698-.0680323 2.6208029-.5125231 5.4753145-1.3334723-.9565994 2.0489759-2.8162421 3.6069335-5.0776889 4.1888056-.1301013-.64518-.7420929-1.0828785-1.4007637-.9887827-1.1121105.158873-2.0548777.2374369-2.8232233.2374369s-1.7111128-.0785639-2.8232233-.2374369c-.6407039-.0915291-1.2237365.2990773-1.4007637.9887827-2.07489354-.4112895-4.12169041-2.1403331-5.07815251-4.1897987zm11.80213951-23.5616471c3.9754902 0 7.3646674 3.34031464 7.4960479 7.26400084.0026347 8.97374656-.0077655 13.59781146-.0312006 13.87219466-1.8060192.8328927-4.7160562 1.6747425-6.7066886 1.807013-1.2438927.0568915-1.6796148.0551105-3.2585567.0568915s-2.3297005.001781-3.1579187-.049654c-2.1956332-.1661674-5.33774662-1.0987167-6.80662807-1.8152559-.04700124-.1676789-.05868632-4.7127089-.03505523-13.6350901 0-3.94591828 3.31122647-7.36360387 7.2621955-7.49611368zm-7.2956133 18.5050961c-.5668812-.009306-1.0614707.4100066-1.1333983.9854275-.07192765.575421.3042284 1.1035767.8559577 1.234097l2.2432692.2804087c.5668811.009306 1.0614707-.4100066 1.1333983-.9854275.0719276-.575421-.3042284-1.1035767-.8559578-1.234097zm7.5352585.2804087c-.5517294.1305203-.9278854.658676-.8559578 1.234097.0719276.5754209.5665172.9947335 1.1333983.9854275l2.2432691-.2804087c.5517294-.1305203.9278854-.658676.8559578-1.234097-.0719276-.5754209-.5665172-.9947335-1.1333983-.9854275zm-5.9170257-16.73652155c-2.1873293.19368819-3.80954923 2.11449509-3.63443765 4.30338991l.67545696 8.44321194c.07851499.9814374.85964339 1.759743 1.84135859 1.8347045l2.6961467.2058713c1.0643548.0812716 2.133357.0812716 3.1977118 0l2.6961467-.2058713c.9817152-.0749615 1.7628436-.8532671 1.8413586-1.8347045l.6754572-8.44321559c.1751075-2.18888966-1.4471076-4.1096921-3.634431-4.30338565-.3680205-.03258924-5.9867493-.03258944-6.3547679-.00000061z" fill="var(--db-icon-color, currentColor)" fill-rule="evenodd"/></svg>
