<svg id="icon" height="24" viewBox="0 0 24 24" width="24" xmlns="http://www.w3.org/2000/svg"><path d="m15.365 5.15a.85.85 0 0 1 .788.506l1.613 5.501c2.294-.13 4.084 1.717 4.084 3.843a3.85 3.85 0 1 1 -5.718-3.368l-.492-1.692-3.158 5.494c-.179.277-.422.416-.731.416l-1.994.001a3.851 3.851 0 0 1 -7.607-.851 3.85 3.85 0 0 1 7.606-.851h.831l-.964-3.03-.048-.032c-1.207-.773-2.307-1.24-3.366-1.24-1.511 0-2.607-.746-3.235-2.147a.85.85 0 0 1 1.552-.695c.332.742.817 1.096 1.559 1.14 1.043 0 1.974.21 2.79.628l-.451-1.423h-.67a.85.85 0 0 1 -.85-.85c0-.433.361-.844.85-.85h2.005a.85.85 0 0 1 .415 1.592l1.801 5.662 3.006-5.226-.239-.82-1.2.017a.844.844 0 0 1 -.861-.839c-.006-.433.347-.861.839-.861l1.846-.025zm-9.365 7.7a2.15 2.15 0 1 0 1.975 3h-1.975a.85.85 0 0 1 -.85-.85c0-.433.354-.85.85-.85h1.976a2.15 2.15 0 0 0 -1.976-1.3zm12.264.016.552 1.896a.85.85 0 0 1 -.578 1.054.864.864 0 0 1 -1.054-.578l-.553-1.896a2.15 2.15 0 1 0 1.632-.476z" fill="#282D37" style="fill: currentColor;fill: var(--db-icon-color, currentColor)" fill-rule="evenodd"/></svg>