<svg id="icon" height="32" viewBox="0 0 32 32" width="32" xmlns="http://www.w3.org/2000/svg"><path d="m17.486 2c3.086 0 4.872 1.074 6.252 2.9a10.727 10.727 0 0 1 2.155 5.826l.098 3.64a27.36 27.36 0 0 1 -.676 6.771l-.753 3.004c-.23.753-.417 1.282-.562 1.587-.217.457-.878 1.422-1.12 1.71-.242.287-.93.99-1.911 1.317a.999.999 0 0 1 -.969 1.245h-8a1 1 0 0 1 -.965-1.262 4.39 4.39 0 0 1 -2.03-1.484c-.521-.688-.724-1.004-.997-1.526-.182-.348-.388-.937-.618-1.765l-.56-2.2a27.089 27.089 0 0 1 -.83-6.717l.092-3.946c.056-2.24.815-4.407 2.17-6.199 1.331-1.761 3.198-2.901 6.318-2.901h2.907zm-8.139 21.542c.087.423.222.81.404 1.162.183.352.44.763.771 1.234.412.611 1.233 1.062 1.853 1.055l7.15.007c.736 0 1.497-.323 1.965-1.046.468-.722.711-1.092.895-1.542.123-.3.21-.59.265-.87-1.359.856-2.161 1.348-2.409 1.476-.37.192-.771.31-1.336.381-1.022.066-1.99.101-2.905.104s-1.83-.026-2.747-.086c-.704-.074-1.162-.21-1.595-.453s-1.613-1.01-2.311-1.422zm5.232-19.542c-2.288 0-3.618.647-4.721 2.106a8.726 8.726 0 0 0 -1.751 4.703l-.1 3.669c-.051 2.08.138 4.232.663 6.38.775.43 1.447.814 2.014 1.152.852.507 1.167.725 1.759 1.077s1.723.415 3.575.415c1.851 0 2.818.045 3.575-.415s1.11-.703 1.74-1.077a58.642 58.642 0 0 1 1.988-1.14c.454-1.738.68-3.68.679-5.826l-.09-3.895a8.725 8.725 0 0 0 -1.767-5.043c-1.068-1.412-2.23-2.102-4.657-2.102l-2.906-.004zm-1.985 13.54.94 2.896a1 1 0 0 1 -1.86.723l-.941-2.896a1 1 0 0 1 1.861-.722zm6.7.027a1 1 0 0 1 1.89.61l-.961 2.982a1 1 0 0 1 -1.89-.61l.96-2.982zm-3.294-11.567c2.105 0 3.69.433 4.757 1.298 1.067.866 1.252 1.757 1.143 2.713-.084.738-.15 1.313-.414 2.43s-1.23 1.998-2.39 2.2a13.62 13.62 0 0 1 -3.096.359c-1.549 0-1.868-.117-3.097-.36-1.23-.242-2.132-1.099-2.407-2.27a25.3 25.3 0 0 1 -.412-2.333 3 3 0 0 1 .914-2.524c1.062-1.009 2.73-1.513 5.002-1.513zm0 2c-1.805 0-2.987.358-3.625.963a1.003 1.003 0 0 0 -.313.695c-.004.169.123.92.381 2.255a1 1 0 0 0 .681.729c1.24.235 2.196.355 2.867.358.67.003 1.591-.107 2.763-.33.344-.06.628-.293.752-.593.124-.301.33-1.612.407-2.292.031-.279.02-.557-.416-.934-.592-.511-1.812-.851-3.497-.851z" fill="#282D37" style="fill: currentColor;fill: var(--db-icon-color, currentColor)" fill-rule="evenodd"/></svg>