<svg id="icon" height="32" viewBox="0 0 32 32" width="32" xmlns="http://www.w3.org/2000/svg"><path d="m20.988 7a1 1 0 0 1 .927.596c1.298 4.294 1.953 6.44 1.966 6.438 3.53-.368 6.119 2.428 6.119 5.466a5.5 5.5 0 1 1 -8.032-4.884l-.503-1.651-5.682 7.157a1.02 1.02 0 0 1 -.783.378h-2.09a5.502 5.502 0 0 1 -10.91-1 5.5 5.5 0 0 1 10.91-1l.855-.001-1.585-4.529c-1.712-.724-3.244-1.051-5.138-.97-2.398.101-3.907-.905-4.04-2.935a1 1 0 0 1 .933-1.063c.511-.033 1.026.368 1.063.933.05.76.48 1.129 1.96 1.066 1.478-.063 2.97.114 4.37.533l-.538-1.534h-.79a1 1 0 0 1 -1-1c0-.513.426-1 1-1h3c.552 0 1 .437 1 1s-.457 1-1.09 1l2.555 7.304 5.293-6.664-.497-1.632-2.25.027a1.014 1.014 0 0 1 -1.011-.988c-.006-.512.379-1.011.988-1.011zm-13.488 9a3.5 3.5 0 1 0 3.355 4.5h-3.355a1 1 0 0 1 -1-1c0-.513.419-1 1-1h3.355a3.502 3.502 0 0 0 -3.355-2.5zm17 0 .957 3.209a1 1 0 0 1 -.666 1.248 1.007 1.007 0 0 1 -1.248-.666l-.977-3.209a3.5 3.5 0 1 0 1.934-.582z" fill="#282D37" style="fill: currentColor;fill: var(--db-icon-color, currentColor)" fill-rule="evenodd"/></svg>