<svg id="icon" height="24" viewBox="0 0 24 24" width="24" xmlns="http://www.w3.org/2000/svg"><path d="m11.839 6.247a1 1 0 0 0 1-1v-2.249c0-.69-.487-1-1-1a1 1 0 0 0 -1 1l-.001 1.756v.492c.002.577.488 1 1 1m0 8.55-2.198 2.2 2.206-5.714 2.202 5.723zm5.772 5.895-4.733-12.297c-.205-.462-.51-.769-1.038-.769-.578 0-.946.55-1.072.898l-4.7 12.17a.999.999 0 0 0 1.64 1.066l4.132-4.132 4.13 4.131a.999.999 0 0 0 1.64-1.066z" fill="#282D37" style="fill: currentColor;fill: var(--db-icon-color, currentColor)" fill-rule="evenodd"/></svg>
