<svg id="icon" height="20" viewBox="0 0 20 20" width="20" xmlns="http://www.w3.org/2000/svg"><path d="m9.077 4c.322 0 .583.177.699.306l1.149 1.194h4.075c1.054 0 2.005.844 2 2v1.5c.592 0 1.114.548.98 1.196l-.839 4.196a2.002 2.002 0 0 1 -1.96 1.608h-10.361a2.002 2.002 0 0 1 -1.961-1.608l-.84-4.196a1 1 0 0 1 .981-1.196v-3c0-1.054.834-2 2-2zm-.446 2h-3.631v3h10v-1.5h-4.5c-.233 0-.5-.08-.72-.306l-1.15-1.194z" fill="#282D37" style="fill: currentColor;fill: var(--db-icon-color, currentColor)" fill-rule="evenodd"/></svg>
