<svg id="icon" height="32" viewBox="0 0 32 32" width="32" xmlns="http://www.w3.org/2000/svg"><path d="m27 6a3 3 0 0 1 3 3v14a3 3 0 0 1 -3 3h-22a3 3 0 0 1 -3-3v-14a3 3 0 0 1 3-3zm0 2h-22a1 1 0 0 0 -1 1v14a1 1 0 0 0 1 1h22a1 1 0 0 0 1-1v-14a1 1 0 0 0 -1-1zm-14.09 10.2c1.031 0 1.878.847 1.878 1.89v1.252a.62.62 0 0 1 -.626.626h-7.532a.62.62 0 0 1 -.626-.626v-1.252c0-1.043.846-1.89 1.877-1.89zm6.286.892a1 1 0 0 1 .88-.051l1.386.581 1.724-.468a1 1 0 0 1 .513-.003l1.641.425a1 1 0 0 1 -.5 1.936l-1.385-.358-1.801.489a1 1 0 0 1 -.65-.043l-1.25-.525-1.215.686a1 1 0 0 1 -.984-1.742zm5.893-3.213a1 1 0 1 1 0 2h-7.042a1 1 0 0 1 0-2h7.043zm-14.693-3.95a2.508 2.508 0 0 1 2.515 2.504 2.519 2.519 0 0 1 -2.515 2.516 2.508 2.508 0 0 1 -2.503-2.516 2.498 2.498 0 0 1 2.503-2.504z" fill="var(--db-icon-color, currentColor)" fill-rule="evenodd"/></svg>
