<svg id="icon" height="64" viewBox="0 0 64 64" width="64" xmlns="http://www.w3.org/2000/svg"><g fill="none" fill-rule="evenodd" transform="translate(4 4)"><path d="m42.988 0c2.141 0 3.896 1.7 4 3.826l.006.2v8.446c.752.595 1.86 1.472 3.012 2.387l.462.367c.575.457 1.15.916 1.687 1.345l.395.317c1.224.982 2.179 1.76 2.35 1.93.461.466 1.024 1.03 1.093 2.15l.007.231v31.775a4.022 4.022 0 0 1 -3.808 4.021l-.2.005h-47.982c-2.142 0-3.9-1.7-4.004-3.826l-.005-.2v-31.725c0-1.291.644-1.928 1.028-2.308.274-.275 2.04-1.698 3.93-3.206l.474-.378c1.243-.99 2.49-1.979 3.36-2.667l.21-.166v-8.498a4.022 4.022 0 0 1 3.808-4.021l.2-.005h29.978zm-15.825 32.386-.108.098-23.3 22.455c.059.008.112.028.168.041l.086.011v-.002h47.982c.06 0 .113-.017.168-.032l.084-.018-23.288-22.439a1.335 1.335 0 0 0 -1.792-.114zm26.835-9.73-16.295 15.491 16.147 15.56a2.09 2.09 0 0 0 .138-.54l.01-.191zm-51.994-.01v30.328c0 .194.032.38.086.556l.06.173 16.145-15.558-8.979-8.54-.032-.03-7.28-6.93zm40.986-20.637h-29.98a2.013 2.013 0 0 0 -2.002 1.867l-.006.15v24.416l8.736 8.311 5.92-5.704c1.238-1.238 3.245-1.284 4.551-.123l.148.14 5.903 5.687 8.736-8.305v-24.422c0-1.113-.9-2.017-2.006-2.017zm4.006 13.023v11.513l6.558-6.236-.064-.066c-.26-.25-2.54-2.073-4.903-3.95l-.458-.363-.457-.363zm-37.994.048-.676.536-.457.362-.458.363-.455.362c-2.117 1.683-4.063 3.242-4.415 3.559l-.031.03-.034.035 6.526 6.21zm30.995 8.94c.552 0 1 .45 1 1.004 0 .555-.448 1.005-1 1.005h-23.997c-.552 0-1-.45-1-1.005 0-.554.448-1.004 1-1.004zm0-6.027c.552 0 1 .45 1 1.004 0 .555-.448 1.005-1 1.005h-23.997c-.552 0-1-.45-1-1.005 0-.554.448-1.004 1-1.004zm0-6.027a1.004 1.004 0 0 1 .116 2.002l-.116.007h-23.997c-.552 0-1-.45-1-1.005 0-.515.387-.94.884-.997l.116-.007h23.996z" fill="#282D37" style="fill: currentColor;fill: var(--db-icon-color, currentColor)" fill-rule="nonzero"/><path d="m39.997 7.948h-23.997c-.552 0-1-.45-1-1.005 0-.554.448-1.004 1-1.004h23.996c.552 0 1 .45 1 1.004 0 .555-.448 1.005-1 1.005z" fill="#EC0016" style="fill:#EC0016;fill: var(--db-icon-pulse-color, #EC0016)"/></g></svg>
