<svg id="icon" height="20" viewBox="0 0 20 20" width="20" xmlns="http://www.w3.org/2000/svg"><path d="m10.001 2c2.25 0 3.97 1.625 4 4h1.407a.995.995 0 0 1 1 .938l.593 10a1.021 1.021 0 0 1 -1 1.062h-12c-.562 0-1.03-.5-1-1.063l.594-10a.995.995 0 0 1 1-.937h1.406c0-2.375 1.75-4 4-4zm4.47 6h-8.939l-.469 8h9.875l-.469-8zm-4.471-4c-1.468 0-2 1-2 2h4c0-1-.5-2-2-2zm1 6v1c0 .563-.437 1-1 1-.562 0-1-.438-1-1v-1h-2v1c0 1.5 1 3 3 3s3-1.5 3-3v-1z" fill="var(--db-icon-color, currentColor)" fill-rule="evenodd"/></svg>
