<svg id="icon" height="32" viewBox="0 0 32 32" width="32" xmlns="http://www.w3.org/2000/svg"><path d="m26.362 13.671 3.06 1.425a1 1 0 1 1 -.843 1.812l-2.63-1.224-1.948.944v1.778l1.504-.729a.996.996 0 0 1 .858-.007l3.06 1.425a1 1 0 1 1 -.843 1.812l-2.63-1.224-1.948.944-.001.696c0 .383-.038.756-.092 1.124l1.596-.773a1 1 0 0 1 .858-.006l3.06 1.425a1 1 0 1 1 -.844 1.812l-2.63-1.224-2.96 1.434c-1.321 2.316-3.809 3.885-6.662 3.885h-.65c-2.852 0-5.341-1.568-6.664-3.884l-2.96-1.433-2.63 1.224a1 1 0 0 1 -.843-1.812l3.06-1.425a1 1 0 0 1 .858.006l1.596.773a7.55 7.55 0 0 1 -.094-1.124v-.698l-1.95-.944-2.628 1.224a1.001 1.001 0 0 1 -1.328-.484 1 1 0 0 1 .485-1.328l3.06-1.425a.996.996 0 0 1 .858.007l1.504.73v-1.779l-1.95-.944-2.628 1.224a1.001 1.001 0 0 1 -1.328-.484 1 1 0 0 1 .485-1.328l3.06-1.425a.996.996 0 0 1 .858.007l2.732 1.324h13.54l2.733-1.324a.996.996 0 0 1 .858-.007zm-4.36 3.33h-12v4.324a5.682 5.682 0 0 0 5.675 5.676h.65a5.682 5.682 0 0 0 5.675-5.676zm-5 6a1 1 0 1 1 0 2h-2a1 1 0 1 1 0-2zm1.998-3.993a1 1 0 1 1 0 2h-6.014a1 1 0 1 1 0-2zm-7.713-15.181c.199 1.144.81 2.18 1.677 2.95a6.445 6.445 0 0 1 3.036-.779c1.077 0 2.11.283 3.037.777.867-.77 1.478-1.806 1.677-2.949a1 1 0 0 1 1.971.344 7.183 7.183 0 0 1 -2.001 3.825 7.154 7.154 0 0 1 2 3.831c.068.386.102.78.102 1.173a1 1 0 0 1 -1 1h-11.571a1 1 0 0 1 -1-1c0-.393.034-.787.1-1.173a7.154 7.154 0 0 1 2.002-3.83 7.18 7.18 0 0 1 -2.001-3.826 1 1 0 0 1 1.97-.344zm4.715 4.173c-2.181 0-4.205 1.743-4.681 4h9.362c-.476-2.257-2.5-4-4.681-4z" fill="var(--db-icon-color, currentColor)" fill-rule="evenodd"/></svg>
