<svg id="icon" height="32" viewBox="0 0 32 32" width="32" xmlns="http://www.w3.org/2000/svg"><path d="m27 4c.25 0 .5.094.719.281.187.188.281.469.281.719a.99.99 0 0 1 -.281.719l-22 22c-.282.25-.625.375-1 .281-.344-.094-.625-.375-.688-.719-.094-.343 0-.718.25-.968l3.719-3.72a20.96 20.96 0 0 1 -5.812-6.03.937.937 0 0 1 0-1.125c2.468-3.625 6.592-8.438 13.812-8.438 2.156 0 4.281.469 6.219 1.375l4.062-4.094c.219-.187.469-.281.719-.281zm-11 5c-4.656 0-8.313 2.156-11.781 7a18.226 18.226 0 0 0 5.219 5.156l2.406-2.406a4.836 4.836 0 0 1 -.844-2.75c0-2.75 2.25-5 5-5a4.83 4.83 0 0 1 2.75.844l1.938-1.969c-1.47-.594-3.063-.875-4.688-.875zm0 4a3 3 0 0 0 -3 3c0 .438.094.875.312 1.281l3.97-3.969a2.678 2.678 0 0 0 -1.282-.312zm8.219-.969a22.63 22.63 0 0 1 3.561 3.969c-3.468 4.844-7.125 7-11.781 7-.844 0-1.688-.062-2.531-.219l-1.625 1.625c1.343.407 2.75.594 4.156.594 7.219 0 11.344-4.812 13.812-8.437a.937.937 0 0 0 0-1.125 22.73 22.73 0 0 0 -4.187-4.813l-1.406 1.406zm-8.906 8.907c.218.03.468.062.687.062 2.75 0 5-2.25 5-5 0-.219-.031-.469-.062-.687z" fill="var(--db-icon-color, currentColor)" fill-rule="evenodd"/></svg>
