<svg id="icon" height="20" viewBox="0 0 20 20" width="20" xmlns="http://www.w3.org/2000/svg"><path d="m10 2c1.9366281 0 3.5848217 1.38574882 3.9327479 3.26953217.1003079.54309921-.2586453 1.06468377-.8017446 1.16499172-.5043064.09314308-.9900619-.20970945-1.1371947-.68828495l-.027797-.11345958c-.1735186-.93948507-.9981148-1.63277936-1.9660116-1.63277936-1.05402651 0-1.91755515.81561834-1.99388001 1.85014912l-.00548399.14921488v2.01780109h5.999364c1.1045695 0 2 .8954305 2 2.00000001v5.9828349c0 1.1045695-.8954305 2-2 2h-8c-1.1045695 0-2-.8954305-2-2v-5.9828349c0-1.10456951.8954305-2.00000001 2-2.00000001l.000636-2.01780109c0-2.20878775 1.79057625-3.999364 3.999364-3.999364zm0 9c-.51283584 0-.93550716.3860402-.99327227.8833789l-.00672773.1166211v1.9950964l.00672773.1166212c.05776511.4973386.48043643.8833788.99327227.8833788.5128358 0 .9355072-.3860402.9932723-.8833788l.0067277-.1166212v-1.9950964l-.0067277-.1166211c-.0577651-.4973387-.4804365-.8833789-.9932723-.8833789z" fill="var(--db-icon-color, currentColor)" fill-rule="evenodd"/></svg>
