<svg id="icon" height="32" viewBox="0 0 32 32" width="32" xmlns="http://www.w3.org/2000/svg"><path d="m16 15c.25 0 .508.0857.7111.2889l3.9998 4.0002c.2031.2031.2891.4609.2891.7111 0 .4373-.3125.9998-1 .9998-.25 0-.5319-.0931-.7176-.2812l-2.2824-2.3126v8.5938c0 .5624-.4375 1-1 1s-1-.4376-1-1v-8.5938l-2.2895 2.3044c-.2023.2038-.4605.2894-.7105.2894-.5938 0-1-.4688-1-1 0-.25.0861-.5076.2888-.7111l3.9928-4.0077c.1872-.1874.4684-.2812.7184-.2812zm3.5-10c4.14 0 7.5 3.35786438 7.5 7.5l-.0077654.647c1.6832382 1.1008246 2.8179316 2.8836118 2.9859318 4.8390898l.0163965.2559998.0054371.2579104c0 3.4412737-2.8701317 6.2421022-6.5089005 6.4835929l-.2437002.0122867-1.2478993.0000668c-.512552.0000275-.93501-.3857764-.9927697-.8828366l-.0067303-.1166098c0-.5520362.4474638-.9995763.9995-.9996705l1.1960947-.000204c2.618265-.0905162 4.683405-1.9834973 4.7992756-4.2919001l.0051297-.2047254c0-1.6368945-.9837098-3.1313854-2.5579156-3.9267053-.3958554-.199994-.6126902-.6368286-.5326388-1.073052.0600654-.3273138.0905544-.6615813.0905544-1.0002427 0-3.03756612-2.4624339-5.5-5.5-5.5-2.0650364 0-3.926057 1.14742673-4.8715679 2.9428861-.245756.4666735-.8117077.6622486-1.2931578.4468746-.5718484-.2558131-1.1931926-.3897607-1.8352743-.3897607-2.2429924 0-4.13505938 1.6515942-4.45263665 3.8486803-.0461859.3195267-.24379353.5970992-.53060457.7453216-1.55134853.8017285-2.51675878 2.284226-2.51675878 3.9059981 0 2.3964494 2.09846275 4.386749 4.76967214 4.4954721l.23032786.0046768 1.0005002-.0005748c.5122849-.0002942.9347238.3850888.9927122.8818601l.0067876.1170658c0 .5521702-.4473296.9999473-.9994995 1.0004995l-1.0005005.0010005c-3.76564313 0-6.86553665-2.7681257-6.99574233-6.2705602l-.00425767-.2294398c0-2.1377207 1.11799417-4.0835697 2.92072447-5.2838298l.21958665-.140417.06857748-.2140888c.6897322-2.6615573 3.0098847-4.62852937 5.7873633-4.84234103l.2616926-.01487632.2420555-.00444705c.4932953 0 .9793571.05515697 1.4511272.16279701l.3510377.09052882.1362513-.17213247c1.3368018-1.83241591 3.7290271-3.08119336 6.0615838-3.08119336z" fill="var(--db-icon-color, currentColor)" fill-rule="evenodd"/></svg>
