<svg id="icon" height="20" viewBox="0 0 20 20" width="20" xmlns="http://www.w3.org/2000/svg"><path d="m9.124 4.75a1.75 1.75 0 1 1 3.501.001 1.75 1.75 0 0 1 -3.501-.001zm8.876 5.938c0-1.736-1.12-3.288-3.073-4.256a1 1 0 1 0 -.888 1.791c.732.363 1.961 1.167 1.961 2.465 0 .926-.405 1.622-1.312 2.246l-1.975.869c-.685.176-1.369.31-2.043.262-.542-.033-1.073-.179-1.615-.276-.273-.049-1.93-.336-1.93-.336a2.558 2.558 0 0 0 -.168-.015c-.172 0-.465-.253-.748-.497-.329-.285-.703-.607-1.186-.835a.963.963 0 0 0 -.233-.076l-.79-.154v-1.025l.528-.128a.997.997 0 0 0 .661-.528c.451-.909.914-1.591.918-1.598a1 1 0 0 0 .161-.399l.161-.959.113.092a1 1 0 1 0 1.263-1.551l-1.447-1.178a.997.997 0 0 0 -1.617.611l-.409 2.446c-.153.237-.425.676-.718 1.229l-.848.205a1 1 0 0 0 -.765.972v2.636c0 .479.339.89.808.981l1.459.285c.204.116.414.298.634.488.344.297.752.636 1.26.829l.292.998a1 1 0 0 0 .96.72h1.37c.552 0 1-.441 1-1.044 0 0 .433.083.821.107s1.438-.105 1.438-.105c.004.588.449 1.043 1.001 1.043h1.37c.426 0 .805-.27.944-.672l.66-1.897c1.31-.977 1.983-2.233 1.983-3.744zm-5.044-1.401a1 1 0 0 0 -.848-1.132c-.949-.137-1.521-.142-2.453-.021a1 1 0 0 0 -.865 1.119c.07.549.575.926 1.119.865.754-.097 2.011.027 2.058.027a.999.999 0 0 0 .988-.858z" fill="var(--db-icon-color, currentColor)" fill-rule="evenodd"/></svg>
