<svg id="icon" height="20" viewBox="0 0 20 20" width="20" xmlns="http://www.w3.org/2000/svg"><path d="m10 3c4.414 0 8 3.656 8 8 0 2.288-1.003 4.276-2.717 5.757a1.06 1.06 0 0 1 -.66.243h-9.252a1 1 0 0 1 -.654-.243c-1.714-1.481-2.717-3.469-2.717-5.758 0-4.343 3.586-7.999 8-7.999zm4.207 3.792a.99.99 0 0 0 -1.414 0c-.695.697-1.454 1.456-2.276 2.275a2.003 2.003 0 0 0 -2.517 1.932 2 2 0 1 0 3.933-.517l2.274-2.276a.998.998 0 0 0 0-1.414z" fill="var(--db-icon-color, currentColor)" fill-rule="evenodd"/></svg>
