<svg id="icon" height="24" viewBox="0 0 24 24" width="24" xmlns="http://www.w3.org/2000/svg"><path d="m14.5 2c-4.1421356 0-7.5 3.35786438-7.5 7.5 0 .9233217.15808077 1.6361617.334 2.218l-5.69065923 5.6844459c-.39329014.3927928-.3907881 1.030931.00557005 1.4206277l3.54320401 3.5035834c.43389893.4193004 1.0771819.3587154 1.43544142 0l5.65344375-5.661657c.6817819.2170715 1.4743559.335 2.219.335 4.1421356 0 7.5-3.3578644 7.5-7.5 0-.98531205-.2189751-2.14406967-.6104589-2.95073582-.3160529-.59625243-1.1099833-.70852539-1.5848447-.23451967l-3.2756964 3.26825549-2.116-2.114 3.2710648-3.27392325c.5038955-.50453825.3329104-1.35926347-.3263017-1.63112564-.8989721-.37074035-1.8657631-.56395111-2.8577631-.56395111zm0 2c.1757819 0 .3507819.00866667.525.026l-2.7325573 2.73734401c-.3902371.39073484-.3898775 1.02382423.0008034 1.41411545l3.5204736 3.52676434c.4199839.4257906 1.0622975.3598021 1.4227491 0l2.7365312-2.7322238c.018.14989615.027.32589615.027.528 0 3.0375661-2.4624339 5.5-5.5 5.5-.7298805 0-1.4419519-.143098-2.1734467-.4452218-.4130287-.1160015-.7586968-.0049352-1.0126246.2493157l-5.3999287 5.4059061-2.143-2.107 5.42490831-5.4169309c.28603058-.2856688.37193142-.7154531.21768216-1.0891206-.27188717-.6586441-.41359047-1.367068-.41359047-2.0969485 0-3.03756612 2.4624339-5.5 5.5-5.5z" fill="var(--db-icon-color, currentColor)" fill-rule="evenodd"/></svg>
