<svg id="icon" height="24" viewBox="0 0 24 24" width="24" xmlns="http://www.w3.org/2000/svg"><path d="m13.47625 13.08825c-.193 0-.389-.056-.561-.173-.457-.311-.576-.933-.265-1.39.605-.891.81-1.393.81-1.987 0-1.339-1.089-2.429-2.429-2.429-.629 0-1.225.239-1.679.674-.398.381-1.031.368-1.414-.029-.382-.398-.369-1.032.03-1.414.827-.794 1.915-1.23 3.062-1.23 2.442 0 4.429 1.986 4.429 4.429 0 1.175-.442 2.062-1.156 3.112-.193.284-.508.438-.828.438zm1.156 4.935c.229-.993.874-1.889 1.556-2.838 1.065-1.48 2.272-3.158 2.272-5.646 0-4.097-3.333-7.429-7.429-7.429-1.924 0-3.749.733-5.138 2.064-.399.382-.412 1.015-.03 1.413.383.399 1.016.414 1.414.03 1.015-.973 2.348-1.508 3.754-1.508 2.993 0 5.429 2.436 5.429 5.429 0 1.844-.92 3.124-1.896 4.479-.768 1.067-1.562 2.172-1.886 3.58-.3 1.456-1.599 2.513-3.089 2.513-.456 0-.895-.095-1.305-.281-.502-.229-1.096-.007-1.324.496-.229.503-.006 1.096.496 1.324.672.306 1.39.461 2.133.461 2.435 0 4.558-1.729 5.043-4.087z" fill="var(--db-icon-color, currentColor)" fill-rule="evenodd"/></svg>
