<svg id="icon" height="32" viewBox="0 0 32 32" width="32" xmlns="http://www.w3.org/2000/svg"><path d="m16.014 14.486a5.018 5.018 0 0 1 4.896 3.997 3.71 3.71 0 0 0 2.905 2.904 4.989 4.989 0 0 1 3.173 2.135 1 1 0 1 1 -1.662 1.112 2.944 2.944 0 0 0 -1.909-1.285 5.706 5.706 0 0 1 -4.467-4.465 3.01 3.01 0 0 0 -2.936-2.397c-.201 0-.406.021-.592.06a2.98 2.98 0 0 0 -1.911 1.282 2.985 2.985 0 0 0 -.44 2.257 11.686 11.686 0 0 0 3.172 5.931c.453.455 1.548 1.401 2.02 1.746a1 1 0 1 1 -1.181 1.614c-.595-.436-1.776-1.468-2.256-1.95a13.678 13.678 0 0 1 -3.715-6.943 4.976 4.976 0 0 1 .733-3.761 4.964 4.964 0 0 1 3.177-2.137c.312-.064.657-.1.993-.1zm.977 4.8a7.7 7.7 0 0 0 6.031 6.021 1 1 0 0 1 -.397 1.962 9.698 9.698 0 0 1 -7.594-7.584 1 1 0 1 1 1.96-.399zm-7.652 2.616c.332 1.188.914 2.389 1.681 3.47a1 1 0 1 1 -1.631 1.158c-.913-1.286-1.578-2.661-1.976-4.089a1 1 0 1 1 1.926-.539zm6.671-15.402c1.263 0 2.516.184 3.725.547a1 1 0 1 1 -.576 1.916 10.914 10.914 0 0 0 -3.15-.463c-6.071 0-11.01 4.939-11.01 11.011 0 .382.02.761.059 1.136a1.001 1.001 0 0 1 -.996 1.104 1.003 1.003 0 0 1 -.993-.897 13.057 13.057 0 0 1 -.069-1.343c0-7.174 5.836-13.011 13.01-13.011zm7.429 2.337a13.04 13.04 0 0 1 5.129 7.27 3.005 3.005 0 0 1 -2.108 3.681 3.068 3.068 0 0 1 -.586.097l-.195.005-.178-.004a3.007 3.007 0 0 1 -2.722-2.208 7.027 7.027 0 0 0 -6.768-5.178c-3.481 0-6.466 2.598-6.944 6.043a1 1 0 0 1 -1.982-.275c.615-4.428 4.452-7.768 8.925-7.768a9.033 9.033 0 0 1 8.699 6.654c.144.531.694.847 1.23.703a1 1 0 0 0 .699-1.227 11.04 11.04 0 0 0 -4.342-6.152 1 1 0 0 1 1.143-1.641zm-7.429-6.337c3.742 0 7.279 1.195 10.266 3.458a1 1 0 1 1 -1.207 1.593 14.9 14.9 0 0 0 -9.059-3.052 14.894 14.894 0 0 0 -9.066 3.055.993.993 0 0 1 -.604.204 1 1 0 0 1 -.606-1.795 16.844 16.844 0 0 1 10.276-3.463z" fill="#282D37" style="fill: currentColor;fill: var(--db-icon-color, currentColor)" fill-rule="evenodd"/></svg>
