<svg id="icon" height="24" viewBox="0 0 24 24" width="24" xmlns="http://www.w3.org/2000/svg"><path d="m10.574 6.073-.173.127-.23-.062a5.011 5.011 0 0 0 -1.171-.138l-.217.005a5 5 0 0 0 -4.765 4.564l-.012.185-.153.106a4.5 4.5 0 0 0 2.4 8.133l10.971.002a5.005 5.005 0 0 0 4.776-4.995l-.006-.236a4.992 4.992 0 0 0 -1.946-3.727l-.144-.106-.034-.18a6.003 6.003 0 0 0 -5.87-4.751c-1.14.054-2.51.435-3.426 1.073zm3.426.927a4 4 0 0 1 3.982 3.618 1 1 0 0 0 .501.775 3 3 0 0 1 -1.333 5.604l-.175.003h-10.475l-.165-.005c-1.295-.07-2.335-1.165-2.335-2.495a2.5 2.5 0 0 1 1.44-2.265 1 1 0 0 0 .57-.992 3 3 0 0 1 4.19-2.993 1 1 0 0 0 1.081-.184 3.98 3.98 0 0 1 2.719-1.066z" fill="#282D37" style="fill: currentColor;fill: var(--db-icon-color, currentColor)" fill-rule="evenodd"/></svg>
