<svg id="icon" height="32" viewBox="0 0 32 32" width="32" xmlns="http://www.w3.org/2000/svg"><path d="m6.38655732 21c.70640294 0 1.38478569.1813929 1.94585347.4905098.39087872.2153522.54465797.7291175.34347557 1.1475269-.20118241.4184094-.68114277.5830197-1.07202149.3676675-.33907973-.1868139-.76833673-.301593-1.21730755-.301593-.40748165 0-.54680637.1417526-.54680637.4848051 0 .4019515.20720568.6958775.90712366 1.24474l.35187612.267435c1.37908195 1.0249161 1.90124927 1.6376607 1.90124927 2.8584777 0 1.4300933-1.06588374 2.440431-2.50138347 2.440431-.76558574 0-1.53144237-.2452241-2.12921236-.6515334-.37111709-.2522514-.4809319-.778781-.24527825-1.1760369.21601585-.3641513.64733709-.4932713 1.0035785-.3179647l.09507709.0554108c.34615206.2352824.81689701.386013 1.27583502.386013.59645961 0 .9094001-.2966323.9094001-.7363198 0-.3022827-.12565287-.5441951-.51332603-.8956196l-.23826321-.2035678-.29515201-.2314158-.1913457-.1435971c-1.39409843-1.0360538-1.9221621-1.6570775-1.9221621-2.8964524 0-1.3041073.86965436-2.1889163 2.13878974-2.1889163zm12.21561358 0c1.5465916 0 2.3978291.9735243 2.3978291 2.776106 0 1.7335205-.7711907 2.6727694-2.2139886 2.7451357l-.1838405.0045255-1.0103176-.0001737.0001623 2.6223509c0 .4343791-.3036652.7928394-.6961583.8454169l-.0998495.0066387c-.4058058 0-.7406868-.3250466-.7898058-.7451755l-.006202-.1068801v-7.2958888c0-.4343791.3036652-.7928394.6961583-.8454169l.0998495-.0066387zm-4.5373325 0c.4396229 0 .7960078.3814783.7960078.8520556 0 .434379-.3036652.7928394-.6961583.8454169l-.0998495.0066387-2.4736342-.0005212v1.7697742l1.8793014.0008897c.4396229 0 .7960077.3814782.7960077.8520555 0 .4343791-.3036651.7928394-.6961582.8454169l-.0998495.0066387-1.8793014-.0008896v2.1178923l2.612788.0005211c.4058058 0 .7406868.3250466.7898058.7451756l.006202.10688c0 .4343791-.3036652.7928394-.6961583.8454169l-.0998495.0066387h-3.4079844c-.4058058 0-.7406868-.3250466-.7898058-.7451755l-.006202-.1068801v-7.2958888c0-.4343791.3036652-.7928394.6961583-.8454169l.0998495-.0066387zm11.3648936.3772971.0618386.1044861.0482519.1171468 2.4189438 7.2956945c.1489762.4493219-.118441.9268907-.5972929 1.0666798-.4420172.1290361-.9096846-.0748449-1.0961917-.4603786l-.0405917-.1000803-.6480106-1.9550918h-2.0604218l-.7524218 1.9874206c-.1540039.4064253-.6031444.634927-1.0408862.5487624l-.1188713-.0314038c-.433136-.1445067-.6766552-.5659494-.5848278-.9766965l.0334677-.1115406 2.7645073-7.2956945c.2616029-.6903853 1.2265507-.7454646 1.6125065-.1893041zm-.814953 3.1689391-.4531817 1.1954516h.8497157zm-7.0229257-1.8426462v2.1178923l1.0103176.0001738c.6625872 0 .8058135-.1615603.8058135-1.0455501 0-.8336122-.1442835-1.0476591-.6972737-1.0699567l-.1085398-.0020381zm8.4081467-20.70359c1.656 0 3 1.375 3 3v10.985c0 1.656-1.375 3-3 3h-20c-1.656 0-3-1.375-3-3v-10.985c0-1.656 1.344-3 3-3zm0 2h-20c-.55228475 0-1 .44771525-1 1v11c0 .5522847.44771525 1 1 1h20c.5522847 0 1-.4477153 1-1v-11c0-.55228475-.4477153-1-1-1zm-8 9c.5522847 0 1 .4477153 1 1s-.4477153 1-1 1h-10c-.55228475 0-1-.4477153-1-1s.44771525-1 1-1zm6-7c.5522847 0 1 .44771525 1 1v1c0 .55228475-.4477153 1-1 1h-1c-.5522847 0-1-.44771525-1-1v-1c0-.55228475.4477153-1 1-1z" fill="var(--db-icon-color, currentColor)" fill-rule="evenodd"/></svg>
