<svg id="icon" height="20" viewBox="0 0 20 20" width="20" xmlns="http://www.w3.org/2000/svg"><path d="m15 3c1.0543618 0 2.0028205.92958307 2 2v10c0 1.0543618-.9273815 2.0027394-2 2h-10c-1.0543618 0-1.99319959-.9375401-2-2v-10c0-1.0543618.95102262-1.9935751 2-2zm0 2h-10v6.881l1.5527864-.7754272c.1976807-.0988403.42133448-.1288669.63600019-.0875949l2.54021341.8370221 2.5638932-2.56210678c.360484-.36048396.927715-.3882135 1.3200062-.08318861l1.3871006 1.37529539zm-7.5 1c.82851018 0 1.5.67161804 1.5 1.5s-.67148982 1.5-1.5 1.5-1.5-.67161804-1.5-1.5.67148982-1.5 1.5-1.5z" fill="var(--db-icon-color, currentColor)" fill-rule="evenodd"/></svg>
