<svg id="icon" height="24" viewBox="0 0 24 24" width="24" xmlns="http://www.w3.org/2000/svg"><path d="m6 22h12a3 3 0 0 0 3-3v-4c0-.563-.438-1-1-1-.563 0-1 .438-1 1v4c0 .563-.438 1-1 1h-12c-.563 0-1-.438-1-1v-4c0-.563-.438-1-1-1-.563 0-1 .438-1 1v4a3 3 0 0 0 3 3zm6-20c.25 0 .531.093.719.28l3.969 3.992a.902.902 0 0 1 .312.717c0 .53-.438.966-1 .966-.25 0-.531-.093-.719-.28l-2.281-2.276v9.603c0 .561-.469.998-1 .998-.563 0-1-.437-1-.998v-9.602l-2.281 2.275c-.219.187-.469.28-.719.28-.563 0-1-.436-1-.997 0-.25.094-.5.313-.686l3.967-3.992c.19-.187.47-.28.72-.28z" fill="#282D37" style="fill: currentColor;fill: var(--db-icon-color, currentColor)" fill-rule="evenodd"/></svg>
