<svg id="icon" height="32" viewBox="0 0 32 32" width="32" xmlns="http://www.w3.org/2000/svg"><path d="m15.999 2a6 6 0 0 1 6.001 6h2.999a1 1 0 0 1 .999.95l1.001 19a1 1 0 0 1 -.999 1.051h-20.001c-.57 0-1.026-.479-.998-1.051l1-19c.027-.531.466-.95.998-.95h3.001a6 6 0 0 1 5.999-6zm8.051 8h-16.1l-.899 17h17.898zm-8.051-6a4 4 0 0 0 -3.999 4h8a4 4 0 0 0 -4.001-4zm0 13a4 4 0 0 1 -3.999-4 1 1 0 0 0 -2 0 6 6 0 0 0 12 0 1 1 0 0 0 -2 0 4 4 0 0 1 -4.001 4z" fill="#282D37" style="fill: currentColor;fill: var(--db-icon-color, currentColor)" fill-rule="evenodd"/></svg>