<svg id="icon" height="24" viewBox="0 0 24 24" width="24" xmlns="http://www.w3.org/2000/svg"><path d="m12 3a9 9 0 0 1 9 9 9 9 0 0 1 -9 9 9 9 0 0 1 -9-9 9 9 0 0 1 9-9zm0 2c-3.86 0-7 3.14-7 7s3.14 7 7 7 7-3.14 7-7-3.14-7-7-7zm-.001 8c2.31 0 3.857 1.153 3.922 1.202a1 1 0 0 1 -.477 1.789l-.129.007-.124-.007a.99.99 0 0 1 -.473-.191c-.023-.017-1.116-.8-2.719-.8-1.613 0-2.708.792-2.719.8a1.002 1.002 0 0 1 -1.397-.205.997.997 0 0 1 .194-1.393c.064-.049 1.612-1.202 3.922-1.202zm-2.699-4.5a1.5 1.5 0 1 1 0 3 1.5 1.5 0 0 1 0-3zm5.4 0a1.5 1.5 0 1 1 0 3 1.5 1.5 0 0 1 0-3z" fill="var(--db-icon-color, currentColor)" fill-rule="evenodd"/></svg>
