<svg id="icon" height="20" viewBox="0 0 20 20" width="20" xmlns="http://www.w3.org/2000/svg"><path d="m16.016 3a.98.98 0 0 1 .976.976c0 .26-.098.52-.293.715l-12 12a.992.992 0 0 1 -.683.293.993.993 0 0 1 -1.008-1.008c0-.228.1-.486.293-.683l1.496-1.529c-1.008-.943-1.886-2.049-2.634-3.22a1.096 1.096 0 0 1 -.163-.551c0-.195.065-.39.163-.553 1.3-1.92 3.707-5.431 7.837-5.431 1.268 0 2.504.357 3.577 1.007l1.724-1.723c.195-.195.455-.293.715-.293zm-6.016 3.024c-2.602 0-4.358 1.952-5.789 3.968a15.57 15.57 0 0 0 2.017 2.374l1.853-1.854a1.651 1.651 0 0 1 -.097-.553c0-1.073.91-1.983 2.016-1.983.163 0 .358.032.52.097l1.561-1.593a5.103 5.103 0 0 0 -2.081-.456zm5.138 3.09c.228.293.423.585.65.878-1.398 1.951-3.089 3.87-5.528 4l-1.82 1.821c.52.13 1.04.195 1.561.195 4.13 0 6.537-3.545 7.837-5.463.098-.163.163-.358.163-.553s-.065-.39-.163-.553c-.357-.52-.78-1.106-1.268-1.756l-1.43 1.43z" fill="var(--db-icon-color, currentColor)" fill-rule="evenodd"/></svg>
