<svg id="icon" height="24" viewBox="0 0 24 24" width="24" xmlns="http://www.w3.org/2000/svg"><path d="m9.273 10.252a8.02 8.02 0 0 0 2.021 2.021 8.02 8.02 0 0 0 -2.021 2.021 8.02 8.02 0 0 0 -2.021-2.021 8.02 8.02 0 0 0 2.021-2.021m0-5.252a.482.482 0 0 0 -.492.429l-.151 1.11a5.947 5.947 0 0 1 -5.091 5.091l-1.11.151c-.572.078-.572.905 0 .983l1.11.151a5.947 5.947 0 0 1 5.091 5.091l.151 1.11a.482.482 0 0 0 .492.429.482.482 0 0 0 .492-.429l.151-1.11a5.947 5.947 0 0 1 5.091-5.091l1.11-.151c.572-.078.572-.905 0-.983l-1.11-.151a5.947 5.947 0 0 1 -5.091-5.091l-.151-1.11a.482.482 0 0 0 -.492-.429zm5.734.367-.061.006c-.343.033-.343.533 0 .565l.061.006a3.383 3.383 0 0 1 3.049 3.049l.006.061c.033.343.533.343.565 0l.006-.061a3.383 3.383 0 0 1 3.049-3.049l.061-.006c.343-.033.343-.533 0-.565l-.061-.006a3.383 3.383 0 0 1 -3.049-3.049l-.006-.061c-.033-.343-.533-.343-.565 0l-.006.061a3.383 3.383 0 0 1 -3.049 3.049zm-1.953 13.568-.063.006c-.464.041-.464.72 0 .762l.063.006a2.073 2.073 0 0 1 1.881 1.881l.006.063c.041.464.72.464.762 0l.006-.063a2.073 2.073 0 0 1 1.881-1.881l.063-.006c.464-.041.464-.72 0-.762l-.063-.006a2.073 2.073 0 0 1 -1.881-1.881l-.006-.063c-.041-.464-.72-.464-.762 0l-.006.063a2.073 2.073 0 0 1 -1.881 1.881z" fill="var(--db-icon-color, currentColor)" fill-rule="evenodd"/></svg>
