<svg id="icon" height="20" viewBox="0 0 20 20" width="20" xmlns="http://www.w3.org/2000/svg"><path d="m10 9c.5128358 0 .9355072.38604019.9932723.88337887l.0067277.11662113.0002668 4.633534c.3823952-.2208663.8797342-.1677466 1.20684.1593592.3604839.360484.3882135.927715.0831886 1.3200062l-.0831886.0942074-1.5 1.5-.0816578.0732044-.1047402.0736933-.0974873.0523221-.111079.0439353-.1114167.029498-.1254873.0174522-.0752385.0027879-.09003195-.003998-.05843492-.0070198-.1175261-.0248273-.10534305-.0353804-.11272608-.0534457-.11124451-.0716634-.05725943-.0458734-.05454074-.0506852-1.5-1.5-.08318861-.0942074c-.27960615-.3596002-.27960615-.8661986 0-1.2257988l.08318861-.0942074.09420734-.0831886c.2876264-.2236431.66929638-.2684051.99456836-.1342862l.11903951.0586796-.00070843-4.634098.00672773-.11662113c.05776511-.49733868.48043643-.88337887.99327227-.88337887zm2-7c2.7614237 0 5 2.23857625 5 5l-.013.343.0858281.0960712c.4875577.58408383.8017016 1.2987296.8967205 2.06617187l.0234945.25766285.0069569.23709408c0 2.0533278-1.551265 3.7577655-3.5894465 3.9775071l-.2054018.0169831-.2061518.0000872c-.5121063.0002166-.9343394-.3850958-.9922324-.8817026l-.0067675-.1168748c0-.5517929.4472071-.9991673.9989999-.9993736l.1194286-.0000447c1.0029473-.0581121 1.8021596-.8544453 1.8760008-1.8463906l.0055707-.1501911c0-.53714331-.2119268-1.03790448-.5801623-1.40834218l-.1284581-.11852358-.4400833-.37229379.101594-.56741045c.0312455-.17450846.0471097-.35271776.0471097-.53343 0-1.65685425-1.3431458-3-3-3-1.0286084 0-1.9643675.52129332-2.51098547 1.36042493l-.10404726.17200388-.34549425.61660842-.69655718-.11991794c-.1121801-.01931271-.22670005-.02911929-.34291584-.02911929-.83170201 0-1.5639955.5124393-1.8614835 1.26548221l-.05360081.15373608-.15525762.51133154-.51138216.15509077c-.83533863.25333953-1.41827591 1.02728424-1.41827591 1.9143594 0 1.0543618.81587779 1.9181651 1.85073766 1.9945143l.14976234.0054857c.55200861 0 .9995.4474914.9995.9995 0 .5127295-.38570763.9354466-.88290688.9936608l-.11709312.0068392c-2.14219539 0-3.89107888-1.6839685-3.99510469-3.8003597l-.00489531-.1996403c0-1.49808144.83073319-2.83410887 2.09636801-3.51903464l.18372075-.09336447.07391124-.03360089.03327847-.07370837c.59236056-1.24364726 1.79539126-2.11000097 3.18771879-2.25783704l.22135286-.01732173.20364988-.00513286.18244688-.22795726c.88326604-1.04624674 2.40891382-1.70571773 3.81755312-1.77204274z" fill="var(--db-icon-color, currentColor)" fill-rule="evenodd"/></svg>
