<svg id="icon" height="24" viewBox="0 0 24 24" width="24" xmlns="http://www.w3.org/2000/svg"><path d="m4 6c.513 0 1.004.499 1 1v13h11c.513 0 1 .487 1 1s-.501 1.002-1 1h-11.5a1.5 1.5 0 0 1 -1.5-1.5v-13.5a1 1 0 0 1 1-1zm15.9-4c.567 0 1.102.545 1.1 1.1v13.8c0 .567-.552 1.108-1.1 1.1h-11.8c-.567 0-1.097-.526-1.1-1.1v-13.8c0-.567.53-1.097 1.1-1.1zm-.9 2h-10v12h10zm-4 3v1.997h2v2h-2v2h-2v-2h-2v-2h2v-1.997z" fill="#282D37" style="fill: currentColor;fill: var(--db-icon-color, currentColor)" fill-rule="evenodd"/></svg>
