<svg id="icon" height="32" viewBox="0 0 32 32" width="32" xmlns="http://www.w3.org/2000/svg"><path d="m23.344 4a4.668 4.668 0 0 1 4.656 4.656 4.72 4.72 0 0 1 -1.656 3.594c.406 1.156.656 2.406.656 3.719 0 2.719-1 5.187-2.625 7.125l2.438 3.281a1.007 1.007 0 0 1 -.813 1.594c-.313 0-.625-.125-.813-.407l-2.25-3.062c-1.906 1.531-4.312 2.469-6.937 2.469s-5.031-.938-6.906-2.469l-2.281 3.063c-.188.28-.5.406-.813.406-.531 0-1-.469-1-1 0-.219.063-.407.219-.594l2.406-3.281a11.015 11.015 0 0 1 -2.594-7.125c0-1.313.219-2.563.657-3.719a4.647 4.647 0 0 1 -1.688-3.594c0-2.562 2.094-4.656 4.688-4.656 1.374 0 2.687.625 3.562 1.656 1.156-.436 2.438-.656 3.75-.656 1.313 0 2.594.219 3.75.656a4.72 4.72 0 0 1 3.594-1.656zm-7.344 3c-4.938 0-8.969 4.031-8.969 8.969 0 4.969 4.032 9 8.969 9 4.969 0 9-4.032 9-9 0-4.939-4.031-8.969-9-8.969zm-7.313-1c-1.467 0-2.687 1.188-2.687 2.656 0 .625.219 1.188.594 1.656.906-1.53 2.218-2.812 3.75-3.75a2.655 2.655 0 0 0 -1.656-.562zm14.626-.031c-.563 0-1.063.187-1.625.593 1.5.938 2.78 2.22 3.718 3.75a2.619 2.619 0 0 0 .594-1.656 2.708 2.708 0 0 0 -2.688-2.687zm-12.313 10.031c0-.531.438-1 1-1h3v-3c0-.531.438-1 1-1 .531 0 1 .469 1 1v3h3c.531 0 1 .469 1 1 0 .563-.469 1-1 1h-3v3c0 .563-.469 1-1 1-.563 0-1-.438-1-1v-3h-3c-.563 0-1-.438-1-1z" fill="var(--db-icon-color, currentColor)" fill-rule="evenodd"/></svg>
