<svg id="icon" height="24" viewBox="0 0 24 24" width="24" xmlns="http://www.w3.org/2000/svg"><path d="m10.5744959 6.07320061-.1734959.12679939-.2307905-.06208809c-.37986725-.09115669-.77205491-.13791191-1.1702095-.13791191l-.21688962.00461951c-2.51697645.10742387-4.55209841 2.07561382-4.7647574 4.56396139l-.01235298.1854191-.15278988.1059712c-1.14329932.8316772-1.85321012 2.1717716-1.85321012 3.6400288 0 2.3934819 1.873351 4.3646339 4.25397014 4.4933624l10.97018346.0014418c2.68032-.1314414 4.7758464-2.3261823 4.7758464-4.9948042l-.0055152-.2360062c-.0696474-1.4879828-.7949024-2.8423368-1.9461661-3.7271525l-.1443187-.1058413-.034052-.1792448c-.5770777-2.73049496-3.001536-4.7517552-5.869948-4.7517552-1.1408853.05385591-2.5097604.43520619-3.4255041 1.07320061zm3.4255041.92679939c2.066998 0 3.7888943 1.57532131 3.9820188 3.6175127.0306963.3245969.2177096.6138476.5011104.7750599.9304988.5293136 1.5168708 1.5165111 1.5168708 2.6074274 0 1.600955-1.2575699 2.9180655-2.8494528 2.9963105l-.1750605.00399-10.4754867-.0003005-.16507671-.0048154c-1.29390485-.0703326-2.33492329-1.1656989-2.33492329-2.4951846 0-.9793613.5678205-1.8555023 1.43910548-2.2646532.37966154-.178287.6077165-.5745586.57112719-.9923987-.00680241-.0776818-.01023267-.1589183-.01023267-.2429481 0-1.65685425 1.34314575-3 3-3 .41971277 0 .82557242.08565137 1.2002673.24946706.3646309.15941573.7890812.08745439 1.0807916-.18323748.7344172-.68150046 1.6953305-1.06622958 2.7189411-1.06622958z" fill="var(--db-icon-color, currentColor)" fill-rule="evenodd"/></svg>
