<svg id="icon" height="20" viewBox="0 0 20 20" width="20" xmlns="http://www.w3.org/2000/svg"><path d="m6.44 3c1.144 0 2.303.44 3.168 1.306l.392.392.294-.261c.95-.844 2.057-1.404 3.265-1.404 2.417 0 4.441 1.826 4.441 4.212 0 1.273-.361 2.479-1.306 3.396l-5.551 5.388c-.298.29-.719.49-1.143.49s-.845-.2-1.143-.49l-5.55-5.388c-.897-.868-1.307-2.025-1.307-3.167 0-2.45 1.992-4.474 4.44-4.474zm.012 2a2.468 2.468 0 0 0 -2.452 2.449c0 .62.254 1.28.72 1.73l5.296 5.127 5.297-5.126c.498-.482.687-1.176.687-1.862 0-1.307-1.08-2.285-2.42-2.285-.686 0-1.314.287-1.83.783l-.884.85a1.222 1.222 0 0 1 -1.733 0l-.948-.948a2.452 2.452 0 0 0 -1.733-.718z" fill="var(--db-icon-color, currentColor)" fill-rule="evenodd"/></svg>
