<svg id="icon" height="20" viewBox="0 0 20 20" width="20" xmlns="http://www.w3.org/2000/svg"><path d="m6 18h8a3 3 0 0 0 3-3v-2c0-.563-.469-1-1-1-.563 0-1 .438-1 1v2c0 .531-.438 1-1 1h-8c-.563 0-1-.469-1-1v-2c0-.563-.438-1-1-1-.531 0-1 .438-1 1v2a3 3 0 0 0 3 3zm3.313-15.719c.217-.187.467-.281.717-.281s.469.094.688.281l3.062 3.094c.156.188.219.438.219.625 0 .531-.438 1-1 1-.313 0-.5-.094-.719-.313l-1.28-1.28v6.593c0 .531-.438 1-1 1-.563 0-1-.469-1-1v-6.594l-1.281 1.282a.887.887 0 0 1 -.689.312c-.499 0-1.03-.438-1.03-1.031 0-.25.094-.5.281-.688z" fill="#282D37" style="fill: currentColor;fill: var(--db-icon-color, currentColor)" fill-rule="evenodd"/></svg>