<svg id="icon" height="20" viewBox="0 0 20 20" width="20" xmlns="http://www.w3.org/2000/svg"><path d="m10 3c4.4136955 0 8 3.65563693 8 7.999359 0 2.2887409-1.0032557 4.2762094-2.7172547 5.7572879-.1513848.1308126-.4020366.2433531-.6594076.2433531h-9.25225919c-.24008786 0-.47216206-.086378-.65382378-.2433531-1.71399904-1.4810785-2.71725473-3.468547-2.71725473-5.7572879 0-4.34372207 3.58630448-7.999359 8-7.999359zm4.2071068 3.79225224c-.360484-.36048396-.9851657-.43022985-1.4142136 0-.6952621.69717745-1.4538795 1.45537157-2.275852 2.27458236-.1649266-.04401346-.338244-.06747558-.5170412-.06747558-1.1045695 0-2 .8954305-2 1.99999998 0 1.1045695.8954305 2 2 2s2-.8954305 2-2c0-.1787972-.0234621-.3521145-.0674756-.5170412l2.2745824-2.275852c.4222571-.42581151.3604839-1.0537296 0-1.41421356z" fill="var(--db-icon-color, currentColor)" fill-rule="evenodd"/></svg>
