<svg id="icon" height="20" viewBox="0 0 20 20" width="20" xmlns="http://www.w3.org/2000/svg"><path d="m9 2c3.87 0 7 3.13 7 7 0 1.593-.537 3.016-1.382 4.187l3.09 3.09c.194.195.292.455.292.715 0 .551-.438 1.008-.972 1.008-.248 0-.508-.098-.752-.293l-3.089-3.09a6.955 6.955 0 0 1 -4.187 1.383c-3.87 0-7-3.13-7-7s3.13-7 7-7zm-.008 2.016a4.955 4.955 0 0 0 -4.976 4.976c0 2.764 2.212 5.008 4.976 5.008a5.01 5.01 0 0 0 5.008-5.008c0-2.764-2.244-4.976-5.008-4.976z" fill="var(--db-icon-color, currentColor)" fill-rule="evenodd"/></svg>
