<svg id="icon" height="20" viewBox="0 0 20 20" width="20" xmlns="http://www.w3.org/2000/svg"><path d="m10.657 3c1.19 0 2.164.259 2.165 1.254 0 .541-.263.807-.7.807-.206 0-.9-.18-1.485-.18-1.072 0-1.598.243-1.598.85 0 1.8 4.754 1.356 4.754 4.37 0 .991-.586 1.882-1.497 2.307.344.465.506 1.031.486 1.618 0 1.922-1.234 2.974-3.4 2.974-1.14 0-2.695-.254-2.695-1.368 0-.42.26-.8.759-.8.31 0 1.076.307 1.876.307 1.032 0 1.558-.324 1.558-.951 0-1.861-4.673-1.295-4.673-4.228a2.613 2.613 0 0 1 1.578-2.327c-.385-.465-.547-1.072-.547-1.68 0-1.879 1.214-2.953 3.42-2.953zm-1.577 5.604c-.81.283-1.093.627-1.093.991 0 .628.526.81 2.954 1.76.768-.343 1.011-.606 1.011-1.031 0-.587-.465-.77-2.872-1.72z" fill="#282D37" style="fill: currentColor;fill: var(--db-icon-color, currentColor)" fill-rule="evenodd"/></svg>
