<svg id="icon" height="32" viewBox="0 0 32 32" width="32" xmlns="http://www.w3.org/2000/svg"><path d="m22.594 4c4.062 0 7.406 3.281 7.406 7.375 0 1.875-.656 3.781-2.219 5.281l-11.093 10.814a1.043 1.043 0 0 1 -.72.281.97.97 0 0 1 -.687-.281l-11.125-10.814c-1.468-1.406-2.156-3.343-2.156-5.218 0-4.158 3.375-7.438 7.375-7.438 1.906 0 3.813.75 5.25 2.188l1.344 1.343 1.344-1.343a7.453 7.453 0 0 1 5.28-2.188zm-.063 2.031a5.27 5.27 0 0 0 -3.781 1.563l-2.063 2.062a1.042 1.042 0 0 1 -.718.281.97.97 0 0 1 -.688-.28l-2.061-2.064c-1.032-1.031-2.407-1.563-3.845-1.563-2.969.001-5.375 2.408-5.375 5.44 0 1.375.5 2.75 1.563 3.781l10.406 10.094 10.406-10.095c1.094-1.063 1.594-2.438 1.594-3.813 0-3.03-2.469-5.406-5.438-5.406z" fill="var(--db-icon-color, currentColor)" fill-rule="evenodd"/></svg>
