<svg id="icon" height="24" viewBox="0 0 24 24" width="24" xmlns="http://www.w3.org/2000/svg"><path d="m10.5 4c.221 0 .477.08.679.26l1.736 1.74h5.088c1.326 0 2.5 1.06 2.5 2.5v1.301c.78.423 1.434 1.358 1.29 2.491l-.65 5.553c-.143 1.195-1.2 2.155-2.477 2.155h-13.332c-1.444 0-2.334-1.11-2.474-2.155l-.656-5.553a2.5 2.5 0 0 1 1.296-2.492v-3.3c0-1.325 1.065-2.5 2.5-2.5zm-5.822 7.5c-.286 0-.494.263-.494.5l.653 5.558a.509.509 0 0 0 .497.442h13.332c.303 0 .432-.231.493-.442l.654-5.558a.505.505 0 0 0 -.458-.5zm5.407-5.5h-4.085a.5.5 0 0 0 -.5.5v3h13.003v-1c0-.245-.188-.5-.5-.5h-5.503c-.221 0-.497-.08-.731-.307z" fill="#282D37" style="fill: currentColor;fill: var(--db-icon-color, currentColor)" fill-rule="evenodd"/></svg>
