<svg id="icon" height="24" viewBox="0 0 24 24" width="24" xmlns="http://www.w3.org/2000/svg"><path d="m16.508 3a3.5 3.5 0 0 1 3.492 3.492c0 1.945-1.57 3.516-3.492 3.516-1.102 0-2.04-.516-2.695-1.29l-4.923 2.439c.07.281.117.563.117.844s-.047.563-.117.82l4.945 2.438a3.44 3.44 0 0 1 2.672-1.266c1.922 0 3.492 1.57 3.492 3.516a3.5 3.5 0 0 1 -3.491 3.491c-1.945 0-3.516-1.57-3.516-3.492 0-.14.028-.334.047-.422l-5.156-2.531a3.469 3.469 0 0 1 -2.39.937 3.486 3.486 0 0 1 -3.493-3.492 3.501 3.501 0 0 1 3.492-3.492 3.41 3.41 0 0 1 2.367.937l5.18-2.554a1.637 1.637 0 0 1 -.047-.399c0-1.922 1.57-3.492 3.516-3.492zm-.012 12.984a1.51 1.51 0 0 0 -1.512 1.512c0 .814.675 1.488 1.512 1.488.814 0 1.488-.674 1.488-1.488 0-.837-.674-1.512-1.488-1.512zm-11.004-5.484c-.82 0-1.5.68-1.5 1.5s.68 1.5 1.5 1.5c.844 0 1.524-.68 1.524-1.5s-.68-1.5-1.524-1.5zm11.02-5.5c-.838 0-1.512.674-1.512 1.488 0 .838.674 1.512 1.512 1.512.814 0 1.488-.674 1.488-1.512 0-.814-.674-1.488-1.488-1.488z" fill="var(--db-icon-color, currentColor)" fill-rule="evenodd"/></svg>
