<svg id="icon" height="20" viewBox="0 0 20 20" width="20" xmlns="http://www.w3.org/2000/svg"><path d="m10.68125 10.59925c-.189 0-.381-.054-.551-.166-.46-.305-.587-.926-.282-1.386.337-.509.403-.729.403-.938 0-.552-.449-1-1-1-.259 0-.504.099-.69.276-.398.384-1.032.369-1.414-.03-.382-.398-.369-1.031.03-1.413.561-.537 1.297-.833 2.074-.833 1.654 0 3 1.346 3 3 0 .773-.294 1.376-.735 2.042-.192.291-.511.448-.835.448zm1.587 4.159c.168-.729.634-1.377 1.174-2.128.848-1.179 1.809-2.515 1.809-4.521 0-3.309-2.691-6-6-6-1.554 0-3.028.592-4.15 1.667-.399.382-.412 1.015-.03 1.413.382.399 1.016.415 1.414.03.748-.716 1.73-1.11 2.766-1.11 2.206 0 4 1.794 4 4 0 1.362-.696 2.329-1.432 3.354-.61.849-1.241 1.726-1.504 2.869-.249 1.207-1.532 2.006-2.719 1.713-.54-.134-1.078.197-1.209.734-.131.536.197 1.077.733 1.209.33.08.669.121 1.01.121 1.999 0 3.741-1.419 4.139-3.351z" fill="var(--db-icon-color, currentColor)" fill-rule="evenodd"/></svg>
