<svg id="icon" height="32" viewBox="0 0 32 32" width="32" xmlns="http://www.w3.org/2000/svg"><path d="m26.307 16c0 5.683-4.624 10.307-10.307 10.307s-10.307-4.624-10.307-10.307 4.624-10.307 10.307-10.307 10.307 4.624 10.307 10.307zm-22.307 0c0 6.627 5.373 12 12 12s12-5.373 12-12-5.373-12-12-12-12 5.373-12 12zm17 4a1 1 0 0 0 -1-1h-8a1 1 0 1 0 0 2h8a1 1 0 0 0 1-1zm-10.5-7a2 2 0 1 1 3.999-.001 2 2 0 0 1 -3.999.001zm9 2a2 2 0 1 0 .001-3.999 2 2 0 0 0 -.001 3.999z" fill="var(--db-icon-color, currentColor)" fill-rule="evenodd"/></svg>
