<svg id="icon" height="24" viewBox="0 0 24 24" width="24" xmlns="http://www.w3.org/2000/svg"><path d="m12 2a9.99 9.99 0 0 1 10 10 9.99 9.99 0 0 1 -10 10 9.99 9.99 0 0 1 -10-10 9.99 9.99 0 0 1 10-10zm0 2c-4.406 0-8 3.594-8 8s3.594 8 8 8c4.438 0 8-3.594 8-8s-3.594-8-8-8zm-2.498 3.531c0-1 1.468-1.312 2.718-1.312 1.813 0 3.125 1.093 3.125 2.781 0 2.906-2.625 2.719-2.625 4.063 0 .468-.343.968-.968.968a.973.973 0 0 1 -.969-.969c0-2.656 2.625-2.312 2.625-4.062 0-.625-.563-.844-1.125-.844-.781 0-1.406.375-1.906.344s-.907-.438-.875-.969zm1.048 9.25c0 .719.594 1.282 1.281 1.282.688 0 1.282-.563 1.282-1.282 0-.687-.594-1.25-1.282-1.25-.687 0-1.281.563-1.281 1.25z" fill="var(--db-icon-color, currentColor)" fill-rule="evenodd"/></svg>
