<svg id="icon" height="32" viewBox="0 0 32 32" width="32" xmlns="http://www.w3.org/2000/svg"><path d="m15.281 7.281a1.058 1.058 0 0 0 -.281.719c0 .59.438 1 1 1 .258 0 .516-.094.719-.281l3.281-3.313v12.594c0 .563.438 1 1 1 .563 0 1-.438 1-1v-12.594l3.281 3.313c.219.187.469.281.719.281.453 0 1-.318 1-1a1.06 1.06 0 0 0 -.281-.719l-5-5a1.102 1.102 0 0 0 -.719-.281c-.25 0-.5.094-.719.281zm-5.281 19.313-3.281-3.314a1.058 1.058 0 0 0 -.719-.28c-.59 0-1 .438-1 1 0 .258.094.516.281.719l5 5c.219.187.469.281.719.281s.5-.094.719-.281l5-5a1.06 1.06 0 0 0 .281-.719c0-.59-.438-1-1-1a1.06 1.06 0 0 0 -.719.281l-3.281 3.313v-12.594c0-.563-.438-1-1-1-.563 0-1 .438-1 1z" fill="var(--db-icon-color, currentColor)" fill-rule="evenodd"/></svg>
