<svg id="icon" height="20" viewBox="0 0 20 20" width="20" xmlns="http://www.w3.org/2000/svg"><path d="m17.7840217 9.14676898c.1844479.78001601.2159783 1.34605352.2159783 1.85323102 0 2.1791687-.8768147 4.2215142-2.402982 5.7160676-.3945898.386416-1.0277201.3797898-1.4141361-.0147999-.3864161-.3945898-.3797899-1.0277201.0147999-1.4141362 1.1458422-1.1221065 1.8023182-2.6512218 1.8023182-4.2871315 0-.3818357-.0307417-.8203139-.1619376-1.39144922-.1275176-.53736182.2047269-1.07635302.7420887-1.20387055.5373618-.12751752 1.076353.20472693 1.2038706.74208875zm-7.7840217-6.14676898c.5907127 0 1.1746381.05721375 1.7101654.17233415.5399499.11607112.8835716.64788127.7675005 1.18783121-.1160712.53994994-.6478813.88357162-1.1878313.76750049-.3916266-.08418658-.8353774-.12766585-1.2898346-.12766585-3.3137085 0-6 2.6862915-6 6 0 1.6359097.656476 3.165025 1.80231823 4.2871315.39458979.3864161.40121594 1.0195464.01479991 1.4141362-.38641602.3945897-1.01954632.4012159-1.41413611.0147999-1.52616732-1.4945534-2.40298203-3.5368989-2.40298203-5.7160676 0-4.418278 3.581722-8 8-8zm5.207428 2.79295645c.3604839.36048396.4267061.98531266 0 1.41421356-1.0281012 1.03338923-2.1196287 2.12533989-3.2745824 3.27585199.0440135.1649267.0674756.338244.0674756.5170412 0 1.1045695-.8954305 2-2 2-1.10456951 0-2.00000001-.8954305-2.00000001-2 0-1.10456947.8954305-1.99999997 2.00000001-1.99999997.1791584 0 .3528148.02355701.5180407.06774257l3.2748525-3.27484935c.3905243-.3905243 1.0236893-.3905243 1.4142136 0z" fill="var(--db-icon-color, currentColor)" fill-rule="evenodd"/></svg>
