<svg id="icon" height="32" viewBox="0 0 32 32" width="32" xmlns="http://www.w3.org/2000/svg"><path d="m24.5 2c.2210137 0 .4943777.11784533.6679232.25076148l4.5391836 4.54213174c.1562803.15628031.2928932.47558646.2928932.69060539v19.51650139c0 1.5976809-1.4235827 3-3 3h-22c-1.59768088 0-3-1.4267301-3-3v-22c0-1.59768088 1.35132988-3 3-3zm-16.5 2h-3c-.51283584 0-1 .44343533-1 1v22c0 .5128358.50495936 1 1 1h3v-11c0-.5128358.48173146-1 1-1h14c.5128358 0 1 .4971489 1 1v11h3c.5128358 0 1-.5082442 1-1v-19.085l-3.915-3.915h-4.085v5c0 .51283584-.4977176 1-1 1h-10c-.51283584 0-1-.47147605-1-1zm14 14h-12v10h12zm-4-14h-8v4h8z" fill="var(--db-icon-color, currentColor)" fill-rule="evenodd"/></svg>
