<svg id="icon" height="32" viewBox="0 0 32 32" width="32" xmlns="http://www.w3.org/2000/svg"><path d="m23.72 12.497c.164.761.259 1.578.277 2.443l.003.311v3.75c0 2.625.656 3.938 2.531 5.157.282.187.469.5.469.843a.983.983 0 0 1 -.887.994l-.113.006h-6c0 2.22-1.781 4-4 4a3.987 3.987 0 0 1 -3.995-3.8l-.005-.2h-1.785l2-1.999h11.16c-.938-1.378-1.326-3.002-1.37-4.667l-.005-.335v-3.75c0-.342-.013-.674-.039-.996l1.758-1.758zm-7.69-10.496c.494 0 .906.405.962.888l.008.111v3.063c2.04.223 3.725 1.135 4.93 2.592l3.385-3.386a1 1 0 0 1 1.415 0c.36.36.42 1.001 0 1.415a72618.69 72618.69 0 0 1 -21.498 21.497 1 1 0 0 1 -1.414 0c-.36-.36-.423-.997 0-1.414.94-.944 1.883-1.886 2.827-2.826 1.035-1.128 1.326-2.656 1.353-4.623l.002-.318v-3.75c0-5.114 2.611-8.578 6.745-9.155l.255-.031v-3.064c0-.525.381-.968.89-1h.141zm1.969 24h-4c0 1.094.906 2 2 2s2-.906 2-2zm-2-18c-3.67 0-5.904 2.605-5.997 6.964l-.002.285v3.75c0 .577-.04 1.15-.126 1.712l10.639-10.64c-1.033-1.335-2.572-2.072-4.513-2.072z" fill="var(--db-icon-color, currentColor)" fill-rule="evenodd"/></svg>
