<svg id="icon" height="32" viewBox="0 0 32 32" width="32" xmlns="http://www.w3.org/2000/svg"><path d="m27 6a3 3 0 0 1 3 3v4a1 1 0 0 1 -1 1 2 2 0 1 0 0 4 1 1 0 0 1 1 1v4a3 3 0 0 1 -3 3h-22a3 3 0 0 1 -3-3v-4a1 1 0 0 1 1-1 2 2 0 1 0 0-4 1 1 0 0 1 -1-1v-4a3 3 0 0 1 3-3zm0 2h-22a1 1 0 0 0 -1 1v3.126l.155.043a4.002 4.002 0 0 1 2.84 3.631l.005.2a4.002 4.002 0 0 1 -2.845 3.83l-.155.044v3.126a1 1 0 0 0 .883.993l.117.007h22a1 1 0 0 0 1-1v-3.127l-.155-.042a4.002 4.002 0 0 1 -2.84-3.631l-.005-.2a4.002 4.002 0 0 1 2.845-3.83l.155-.044v-3.126a1 1 0 0 0 -.883-.993zm-6.985 3.063c.432 0 .987.382.987 1 0 .25-.095.5-.287.687l-7.997 7.844a1.03 1.03 0 0 1 -.733.281.977.977 0 0 1 -.987-.969c0-.25.095-.5.287-.687l8.029-7.844c.191-.187.446-.313.7-.313zm-.096 5.874c1.115 0 2.007.907 2.007 1.97 0 1.093-.892 1.968-2.007 1.968s-2.007-.875-2.007-1.969c0-1.062.892-1.968 2.007-1.968zm-7.36-5.875c1.115 0 2.007.876 2.007 1.97 0 1.093-.892 1.968-2.007 1.968s-2.007-.875-2.007-1.969.892-1.969 2.007-1.969z" fill="var(--db-icon-color, currentColor)" fill-rule="evenodd"/></svg>
