<svg id="icon" height="32" viewBox="0 0 32 32" width="32" xmlns="http://www.w3.org/2000/svg"><path d="m17 9.5a2.752 2.752 0 0 1 -2.75-2.75 2.752 2.752 0 0 1 2.75-2.75 2.752 2.752 0 0 1 2.75 2.75 2.752 2.752 0 0 1 -2.75 2.75zm0-3.5a.75.75 0 0 0 0 1.5.75.75 0 0 0 0-1.5zm3.018 9.973a1 1 0 0 0 -.867-1.118 17.17 17.17 0 0 0 -4.268-.004 1 1 0 0 0 -.869 1.115.995.995 0 0 0 1.116.869 15.147 15.147 0 0 1 3.77.004 1 1 0 0 0 1.118-.866zm-9.489 1.56a1 1 0 1 0 0-2 1 1 0 0 0 0 2zm12.721 10.467h-2.25a1 1 0 0 1 -1-1v-.759c-.991.177-2 .278-3.005.259a15.994 15.994 0 0 1 -1.995-.243v.743a1 1 0 0 1 -1 1h-2.25c-.441 0-.831-.29-.958-.713l-.594-1.979a8.092 8.092 0 0 1 -4.352-3.44l-1.589-.397a1 1 0 0 1 -.757-.97v-3c0-.431.275-.812.684-.948l1.09-.363a7.286 7.286 0 0 1 2.12-2.554l.901-2.929a1 1 0 0 1 1.614-.459l1.564 1.369c1.788-.581 3.657-.842 5.528-.866 6.448 0 11.5 3.433 11.5 7.815 0 2.276-1.038 4.105-3.169 5.581l-1.139 3.189a1 1 0 0 1 -.942.664zm-1.25-2h.545l1.013-2.836a.998.998 0 0 1 .397-.503c1.736-1.126 2.544-2.428 2.544-4.096 0-3.207-4.262-5.815-9.5-5.815-.02-.004-.04 0-.059 0a15.66 15.66 0 0 0 -5.351.94 1.001 1.001 0 0 1 -1-.188l-.839-.734-.547 1.775a.997.997 0 0 1 -.392.532 5.289 5.289 0 0 0 -1.893 2.313 1 1 0 0 1 -.604.559l-.816.272v1.498l1.243.312a1 1 0 0 1 .638.495 6.081 6.081 0 0 0 3.863 3.005.999.999 0 0 1 .714.683l.536 1.787h.506v-1a1.001 1.001 0 0 1 1.268-.964c.908.252 1.848.408 2.793.466 1.225-.016 2.467-.152 3.688-.47a.998.998 0 0 1 1.251.968v1z" fill="var(--db-icon-color, currentColor)" fill-rule="evenodd"/></svg>
