<svg id="icon" height="20" viewBox="0 0 20 20" width="20" xmlns="http://www.w3.org/2000/svg"><path d="m7.865 2.49956303.961 1.656c.378-.092.768-.154 1.174-.154.396 0 .776.058 1.145.145l.998-1.66c.285-.473.898-.625 1.372-.342.474.285.627.899.342 1.373l-.891 1.482c.971.721 1.683 1.774 1.933 3.002h2.101c.552 0 1 .447 1 1s-.448.99999997-1 .99999997h-2v1h2c.552 0 1 .447 1 1s-.448 1-1 1h-2c0 .342-.035.677-.101 1h2.101c.552 0 1 .447 1 1s-.448 1-1 1h-3.026c-.913 1.207-2.345 2-3.974 2s-3.065-.794-3.978-2.004l-.022.004h-3c-.552 0-1-.447-1-1s.448-1 1-1h2.101c-.066-.323-.101-.658-.101-1h-2c-.552 0-1-.447-1-1s.448-1 1-1h2v-1h-2c-.552 0-1-.44699997-1-.99999997s.448-1 1-1h2.101c.248-1.218.952-2.263 1.912-2.985l-.878-1.513c-.277-.477-.115-1.09.363-1.367.477-.28 1.09-.115 1.367.363zm5.135 7.50199997h-6v3c0 1.654 1.346 3 3 3s3-1.346 3-3zm-2 2c.552 0 1 .447 1 1s-.448 1-1 1h-2c-.552 0-1-.447-1-1s.448-1 1-1zm-1-5.99999997c-1.302 0-2.402.839-2.816 2h5.632c-.414-1.161-1.514-2-2.816-2z" fill="var(--db-icon-color, currentColor)" fill-rule="evenodd"/></svg>
