<svg id="icon" height="32" viewBox="0 0 32 32" width="32" xmlns="http://www.w3.org/2000/svg"><path d="m23.6175849 2c1.8930336 0 3.3824151 1.63779161 3.3824151 3.60884899v20.97980121c0 1.8614059-1.408779 3.4113498-3.2020061 3.4113498h-14.41557885c-1.89351905 0-3.38241505-1.63817-3.38241505-3.608849v-4.391151h-.97172237c-.56790205 0-1.02827763-.4477153-1.02827763-1s.46037558-1 1.02827763-1h.97172237v-8h-.97172237c-.56790205 0-1.02827763-.4477153-1.02827763-1s.46037558-1 1.02827763-1h.97172237v-4.58964768c0-1.79745315 1.31257964-3.30317301 3.01783908-3.40487848l.18416706-.00547384zm-11.6175849 1.994-2.79799386.0009414c-.63048484 0-1.18626415.61131537-1.18626415 1.41541092l-.00074199 4.58964768h.95672237c.56790205 0 1.02827763.4477153 1.02827763 1s-.46037558 1-1.02827763 1h-.95672237v8h.95672237c.56790205 0 1.02827763.4477153 1.02827763 1s-.46037558 1-1.02827763 1h-.95672237l.00074199 4.391151c0 .8595243.56410079 1.5307411 1.2389514 1.6067336l.12772166.007174 2.61759765.0000396zm2 24.011 9.7979939.0000586c.6295889 0 1.1862641-.6124562 1.1862641-1.4164084v-20.97980121c0-.91340623-.6370247-1.61390759-1.3666731-1.61390759l-9.6176029-.00100624zm8.1039427-9.005c.4948788 0 .8960573.4477153.8960573 1s-.4011785 1-.8960573 1h-5.2078854c-.4948788 0-.8960573-.4477153-.8960573-1s.4011785-1 .8960573-1zm0-4c.4948788 0 .8960573.4477153.8960573 1s-.4011785 1-.8960573 1h-5.2078854c-.4948788 0-.8960573-.4477153-.8960573-1s.4011785-1 .8960573-1zm0-4c.4948788 0 .8960573.4477153.8960573 1s-.4011785 1-.8960573 1h-5.2078854c-.4948788 0-.8960573-.4477153-.8960573-1s.4011785-1 .8960573-1z" fill="var(--db-icon-color, currentColor)" fill-rule="evenodd"/></svg>
