<svg id="icon" height="24" viewBox="0 0 24 24" width="24" xmlns="http://www.w3.org/2000/svg"><path d="m12 3a9 9 0 0 1 9 9 9 9 0 0 1 -9 9 9 9 0 0 1 -9-9 9 9 0 0 1 9-9zm0 2c-3.86 0-7 3.14-7 7s3.14 7 7 7 7-3.14 7-7-3.14-7-7-7zm3.315 8.501a1.001 1.001 0 0 1 .606 1.797c-.065.049-1.612 1.202-3.922 1.202s-3.858-1.153-3.922-1.202a.997.997 0 0 1 -.194-1.393 1.002 1.002 0 0 1 1.397-.205c.011.008 1.106.8 2.719.8 1.603 0 2.696-.783 2.719-.8a.992.992 0 0 1 .597-.199zm-6.015-5.001a1.5 1.5 0 1 1 0 3 1.5 1.5 0 0 1 0-3zm5.4 0a1.5 1.5 0 1 1 0 3 1.5 1.5 0 0 1 0-3z" fill="var(--db-icon-color, currentColor)" fill-rule="evenodd"/></svg>
