<svg id="icon" height="32" viewBox="0 0 32 32" width="32" xmlns="http://www.w3.org/2000/svg"><path d="m16 2c7.72 0 14 6.28 14 14s-6.28 14-14 14-14-6.28-14-14 6.28-14 14-14zm-.475 18.5a1.375 1.375 0 1 0 0 2.75 1.375 1.375 0 0 0 0-2.75zm.847-12c-1.525 0-3.622.307-3.622 1.489 0 .543.448.997.998.997.931 0 1.147-.49 2.624-.49.872 0 1.753.464 1.753 1.5 0 2.815-3.632 2.168-3.632 5.571a.998.998 0 1 0 1.996 0c0-1.996 3.631-1.626 3.631-5.571 0-1.994-1.611-3.496-3.748-3.496z" fill="var(--db-icon-color, currentColor)" fill-rule="evenodd"/></svg>
