<svg id="icon" height="32" viewBox="0 0 32 32" width="32" xmlns="http://www.w3.org/2000/svg"><path d="m16 4c6.627 0 12 5.373 12 12s-5.373 12-12 12-12-5.373-12-12 5.373-12 12-12zm0 1.693c-5.683 0-10.307 4.624-10.307 10.307s4.624 10.307 10.307 10.307 10.307-4.624 10.307-10.307-4.624-10.307-10.307-10.307zm4.961 12.307a1 1 0 0 1 .71 1.704c-.093.094-2.315 2.296-5.671 2.296s-5.578-2.202-5.671-2.296a1 1 0 1 1 1.42-1.408c.017.016 1.719 1.704 4.251 1.704 2.502 0 4.237-1.69 4.251-1.704a.997.997 0 0 1 .71-.296zm-8.461-7a2 2 0 1 1 0 4 2 2 0 0 1 0-4zm7 0a2 2 0 1 1 0 4 2 2 0 0 1 0-4z" fill="var(--db-icon-color, currentColor)" fill-rule="evenodd"/></svg>
