<svg id="icon" height="20" viewBox="0 0 20 20" width="20" xmlns="http://www.w3.org/2000/svg"><path d="m10 9a1 1 0 0 1 .993.883l.007.117v4.634a1 1 0 0 1 1.29 1.479l-.083.094-1.5 1.5-.082.073-.104.074-.098.052-.11.044-.112.03-.126.017-.075.003-.09-.004-.058-.007-.118-.025-.105-.035-.113-.054-.111-.071-.058-.046-.054-.05-1.5-1.5-.083-.095a1 1 0 0 1 0-1.226l.083-.094.094-.083c.288-.224.67-.269.995-.135l.119.06-.001-4.635.007-.117a1 1 0 0 1 .993-.883zm2-7a5 5 0 0 1 5 5l-.013.343.086.096c.487.584.802 1.299.897 2.066l.023.258.007.237a4.004 4.004 0 0 1 -3.59 3.978l-.205.016h-.205a.999.999 0 0 1 -.992-.881l-.008-.117a1 1 0 0 1 .999-1h.12a2 2 0 0 0 1.875-1.846l.006-.15a1.99 1.99 0 0 0 -.58-1.408l-.129-.119-.44-.372.102-.568a3 3 0 0 0 -5.464-2.173l-.104.172-.346.617-.696-.12a2.003 2.003 0 0 0 -2.204 1.236l-.054.154-.155.512-.512.155a2.001 2.001 0 0 0 .433 3.909l.149.005a1 1 0 0 1 .116 1.993l-.116.007a4 4 0 0 1 -3.995-3.8l-.005-.2a4 4 0 0 1 2.096-3.519l.184-.093.074-.034.033-.074a4.004 4.004 0 0 1 3.188-2.258l.221-.017.204-.005.182-.228c.884-1.046 2.41-1.706 3.818-1.772z" fill="#282D37" style="fill: currentColor;fill: var(--db-icon-color, currentColor)" fill-rule="evenodd"/></svg>
