<svg id="icon" height="24" viewBox="0 0 24 24" width="24" xmlns="http://www.w3.org/2000/svg"><path d="m19 4.5a3 3 0 0 1 3 3v9a3 3 0 0 1 -3 3h-14a3 3 0 0 1 -3-3v-9a3 3 0 0 1 3-3zm0 2h-14a1 1 0 0 0 -1 1v9a1 1 0 0 0 1 1h14a1 1 0 0 0 1-1v-9a1 1 0 0 0 -1-1zm-8.809 6.374c.719 0 1.309.59 1.309 1.318v.873a.433.433 0 0 1 -.436.437h-5.254a.433.433 0 0 1 -.436-.437v-.873c0-.727.59-1.318 1.309-1.318zm6.809.628a1 1 0 1 1 0 2h-3a1 1 0 1 1 0-2zm0-3a1 1 0 1 1 0 2h-3a1 1 0 1 1 0-2zm-8.563-2a1.749 1.749 0 1 1 0 3.5 1.75 1.75 0 0 1 -1.745-1.755c0-.967.779-1.745 1.745-1.745z" fill="var(--db-icon-color, currentColor)" fill-rule="evenodd"/></svg>
