<svg id="icon" height="24" viewBox="0 0 24 24" width="24" xmlns="http://www.w3.org/2000/svg"><path d="M12 2a9.99 9.99 0 0 1 10 10a9.99 9.99 0 0 1 -10 10a9.99 9.99 0 0 1 -10 -10a9.99 9.99 0 0 1 10 -10zm0 8h-1.938c-0.562 0 -1 0.469 -1 1s0.438 1 1 1h0.938v3h-1c-0.531 0 -1 0.437 -1 1s0.469 1 1 1h4.031c0.531 0 0.969 -0.469 0.969 -1s-0.438 -1 -0.969 -1h-1.031v-4c0 -0.562 -0.406 -1 -1 -1zm0 -4c-0.687 0 -1.25 0.53 -1.25 1.219s0.562 1.25 1.25 1.25s1.25 -0.532 1.25 -1.25s-0.562 -1.219 -1.25 -1.219z" fill="var(--db-icon-color, currentColor)"/></svg>
