<svg id="icon" height="24" viewBox="0 0 24 24" width="24" xmlns="http://www.w3.org/2000/svg"><path d="m17.4 2c.2210137 0 .434484.07316447.6080295.20608063 2.324269 2.3058048 3.5572948 3.53474233 3.6990773 3.68681259.2126737.22810539.2641639.39040567.2928932.60710678v13c0 1.3254834-1 2.5-2.5 2.5h-15c-1.3254834 0-2.5-1-2.5-2.5v-15c0-1.3254834 1-2.5 2.5-2.5zm-11.4 2h-1.5c-.24545989 0-.5.25612235-.5.5v15c0 .2454599.26490307.5.5.5h1.5v-7c0-.5128358.48209-1 1-1h10c.5128358 0 1 .5337014 1 1v7h1.5c.2454599 0 .5-.2620103.5-.5v-12.485l-3.015-3.015h-2.985v3c0 .51283584-.4971609 1-.9988832 1h-6.0011168c-.51283584 0-1-.50407553-1-1zm10 10h-8v6h8zm-4-10h-4v2h4z" fill="var(--db-icon-color, currentColor)" fill-rule="evenodd"/></svg>
