<svg id="icon" height="32" viewBox="0 0 32 32" width="32" xmlns="http://www.w3.org/2000/svg"><path d="m15.825 3c4.418 0 7.978 3.591 7.978 8.04h3.813a1.994 1.994 0 0 1 1.97 2.353l-2.478 13.189c-.254 1.366-1.399 2.447-2.765 2.447h-16.844a3.003 3.003 0 0 1 -2.956-2.447l-2.51-13.19a1.997 1.997 0 0 1 1.97-2.351h3.845c0-4.418 3.56-8.041 7.977-8.041zm11.791 10.011h-23.613l2.51 13.19c.096.476.509.826.986.826h16.685c.477 0 .89-.35.985-.827zm-11.79-8.009c-3.306 0-5.975 2.702-5.975 6.039h11.949c0-3.306-2.67-6.039-5.976-6.039z" fill="var(--db-icon-color, currentColor)" fill-rule="evenodd"/></svg>
