<svg id="icon" height="32" viewBox="0 0 32 32" width="32" xmlns="http://www.w3.org/2000/svg"><path d="m19.1715729 6c.7956494 0 1.5587112.31607052 2.1213203.87867966l2.1221068 2.12132034 3.5880259.00403713c1.5965407.00161035 2.9969741 1.51566577 2.9969741 2.99596287v10.9975964c0 1.6568542-1.3431458 3-3 3h-22c-1.65685425 0-3-1.3431458-3-3v-10.9935608c0-1.6556727 1.34130223-2.99832848 2.99697406-2.99999847l3.58702594-.00403713 2.1231068-2.12132034c.515725-.51572504 1.3545702-.87867966 2.1228932-.87867966zm-3.1715729 6c-2.7614237 0-5 2.2385763-5 5s2.2385763 5 5 5 5-2.2385763 5-5-2.2385763-5-5-5zm0 2c1.6568542 0 3 1.3431458 3 3s-1.3431458 3-3 3-3-1.3431458-3-3 1.3431458-3 3-3zm-8-1h-1c-.55228475 0-1 .4477153-1 1s.44771525 1 1 1h1c.55228475 0 1-.4477153 1-1s-.44771525-1-1-1z" fill="var(--db-icon-color, currentColor)" fill-rule="evenodd"/></svg>
