<svg id="icon" height="24" viewBox="0 0 24 24" width="24" xmlns="http://www.w3.org/2000/svg"><path d="m20.667 3.31c.291.267.364.68.243 1.07l-6.344 16.478c-.267.705-.9 1.142-1.628 1.142h-.073a1.744 1.744 0 0 1 -1.629-1.24l-1.895-6.124-6.1-1.896a1.714 1.714 0 0 1 -1.241-1.604 1.772 1.772 0 0 1 1.119-1.726l16.478-6.343c.365-.146.778-.049 1.07.243zm-3.354 4.764-6.004 6.051 1.653 5.323 4.35-11.374zm-1.41-1.41-11.374 4.375 5.346 1.652z" fill="var(--db-icon-color, currentColor)" fill-rule="evenodd"/></svg>
