<svg id="icon" height="20" viewBox="0 0 20 20" width="20" xmlns="http://www.w3.org/2000/svg"><path d="m16.2402179 6.58006457-2.1151258 2.12534607-2.8292624-2.82902106 2.1232026-2.11799362c.5838435-.58241201.2514546-1.58141648-.5649394-1.69794118-.2814524-.04017198-.5666661-.06045478-.8540929-.06045478-3.3137085 0-6 2.6862915-6 6 0 .593671.0683365 1.11333767.2050095 1.559l-4.32580613 4.3224766c-.39112364.3907912-.39089594 1.0248119.00050829 1.4153221l2.82523867 2.8197831c.42331028.4183427 1.05503891.3601995 1.41523028 0l4.32182889-4.3225818c.4868721.1423329 1.1232417.206 1.5579905.206 3.3137085 0 6-2.6862915 6-6 0-.28824748-.0203988-.57426859-.0607991-.85650156-.1169312-.81687218-1.1171068-1.14856048-1.698983-.56343387z" fill="var(--db-icon-color, currentColor)" fill-rule="evenodd"/></svg>
