<svg id="icon" height="24" viewBox="0 0 24 24" width="24" xmlns="http://www.w3.org/2000/svg"><path d="m12 3.013c2.688 0 4.988 2.093 4.998 4.999v.987a2.001 2.001 0 0 1 2.002 2.001v8.001a2 2 0 0 1 -2 2h-10.001a2 2 0 0 1 -2-2v-8.001c0-1.054.823-2 2.003-2v-.988a4.998 4.998 0 0 1 4.998-4.999zm5 7.987h-10.001v8.001h10.001zm-5 2c.513 0 .998.417 1 1v2a1 1 0 0 1 -2 0v-2a1 1 0 0 1 1-1zm0-7.987c-1.597 0-2.99 1.34-2.998 2.999-.002.329-.002.658 0 .987h5.996v-.987a2.998 2.998 0 0 0 -2.998-2.999z" fill="var(--db-icon-color, currentColor)" fill-rule="evenodd"/></svg>
