<svg id="icon" height="24" viewBox="0 0 24 24" width="24" xmlns="http://www.w3.org/2000/svg"><path d="M12 2a9.99 9.99 0 0 1 10 10a9.99 9.99 0 0 1 -10 10a9.99 9.99 0 0 1 -10 -10a9.99 9.99 0 0 1 10 -10zm4.5 6.375a0.97 0.97 0 0 0 -0.688 0.281l-5.656 5.657l-2.031 -2c-0.218 -0.219 -0.406 -0.313 -0.688 -0.313c-0.53 0 -1 0.437 -1 1a1.043 1.043 0 0 0 0.283 0.72l2.717 2.717c0.219 0.219 0.438 0.313 0.688 0.313a1.017 1.017 0 0 0 0.719 -0.312l6.375 -6.344c0.25 -0.25 0.312 -0.5 0.312 -0.75c0 -0.5 -0.468 -0.969 -1.031 -0.969z" fill="var(--db-icon-color, currentColor)"/></svg>
