<svg id="icon" height="32" viewBox="0 0 32 32" width="32" xmlns="http://www.w3.org/2000/svg"><path d="m19.5 6c-2.3325567 0-4.724782 1.24877745-6.0615838 3.08119336l-.1362513.17213247c-.5802291-.16714306-1.1855457-.25332583-1.8021649-.25332583l-.2420555.00444705c-2.89256946.10643053-5.33776957 2.11248635-6.0490559 4.85721735l-.06857748.2140888c-1.93108862 1.1853162-3.14031112 3.2010173-3.14031112 5.4242468 0 3.6102129 3.15249507 6.5 7 6.5l14.2473993-.0041204c3.7534903-.1296124 6.7526007-2.9781331 6.7526007-6.4958796l-.0054371-.2579104c-.0867646-2.0551636-1.2064505-3.9084738-2.962873-5.0571603-.0211266-.3799725-.0316899-.6082823-.0316899-.6849293 0-4.14213562-3.36-7.5-7.5-7.5z" fill="var(--db-icon-color, currentColor)" fill-rule="evenodd"/></svg>
