<svg id="icon" height="32" viewBox="0 0 32 32" width="32" xmlns="http://www.w3.org/2000/svg"><path d="m22 2c1.094 0 2 .906 2 2v2h3a3 3 0 0 1 3 3v10a3 3 0 0 1 -3 3h-3v6c0 1.094-.906 2-2 2h-12c-1.094 0-2-.906-2-2v-6h-3a3 3 0 0 1 -3-3v-10a3 3 0 0 1 3-3h3v-2c0-1.094.906-2 2-2zm0 16h-12v10h12zm5-10h-22c-.563 0-1 .437-1 1v10c0 .563.438 1 1 1h3v-2c0-1.094.906-2 2-2h12c1.094 0 2 .906 2 2v2h3c.563 0 1-.437 1-1v-10c0-.563-.438-1-1-1zm-5-4h-12v2h12zm-14 7c0-.563.438-1 1-1h4c.563 0 1 .438 1 1 0 .563-.438 1-1 1h-4c-.563 0-1-.438-1-1zm4 14c0-.563.438-1 1-1h6c.563 0 1 .438 1 1 0 .563-.438 1-1 1h-6c-.563 0-1-.438-1-1zm0-4c0-.563.438-1 1-1h6c.563 0 1 .438 1 1 0 .563-.438 1-1 1h-6c-.563 0-1-.438-1-1z" fill="#282D37" style="fill: currentColor;fill: var(--db-icon-color, currentColor)" fill-rule="evenodd"/></svg>
