<svg id="icon" height="20" viewBox="0 0 20 20" width="20" xmlns="http://www.w3.org/2000/svg"><path d="m10 1c4.962 0 9 4.037 9 9s-4.038 9-9 9-9-4.038-9-9 4.038-9 9-9zm0 2c-3.86 0-7 3.141-7 7s3.14 7 7 7 7-3.141 7-7-3.14-7-7-7zm1.397 2.727c.321-.258.768-.292 1.125-.086.355.207.549.611.487 1.018l-.654 4.269c-.038.247-.166.471-.36.627l-3.392 2.739c-.321.259-.77.295-1.128.088-.358-.206-.552-.613-.488-1.021l.677-4.307c.039-.246.168-.469.363-.625zm-.753 3.166-1.065.853-.213 1.361 1.072-.865z" fill="var(--db-icon-color, currentColor)" fill-rule="evenodd"/></svg>
