<svg id="icon" height="20" viewBox="0 0 20 20" width="20" xmlns="http://www.w3.org/2000/svg"><path d="m12.3467893 17.5c-.1618335 0-.3254923-.0419358-.4763747-.1308905-2.15615853-1.2669695-3.56033851-3.1223109-4.05922395-5.3646054-.12167937-.5464362.20381295-1.0935078.72764266-1.2205859.5250465-.1264428 1.04705102.2128559 1.1687304.7599275.46968239 2.1120393 1.95477919 3.3701133 3.11803399 4.0531585.4684656.2757597.6345579.8952658.3711221 1.3845168-.1788687.3316741-.5092282.518479-.8493221.518479zm-6.38695034-.5820181c-.33157629 0-.65524343-.177274-.83715409-.4962403-.74650297-1.3082698-.98681973-2.4195685-.99716248-2.4665874-.16670074-.6379325-.26100226-1.3781629-.26100226-2.0929777 0-1.5154073.64003351-2.94376603 1.75583338-3.91845567.87791669-.76691682 1.99128297-1.18945177 3.13506909-1.18945177 2.1312142 0 4.002643 1.42391101 4.6572781 3.54357504.1648755.5343638-.1162038 1.1074864-.6278656 1.2796773-.5128786.1721909-1.0604358-.1207243-1.2253113-.655088-.3942412-1.27713574-1.5209922-2.13491346-2.8041012-2.13491346-.68748847 0-1.35733343.25415637-1.88603031.71672094-.67227855.58710122-1.05800216 1.44678512-1.05800216 2.35857102 0 .5375407.07057403 1.0935078.20381295 1.607539.01216794.0514667.20259616.9003489.77935639 1.9106204.27499539.4822617.12411297 1.1062156-.33766026 1.3934123-.156358.0972148-.32792592.1442337-.49766864.1442337zm10.38046744-2.373185c-.073616 0-.1484488-.0088955-.22389-.0273218-.5232213-.128349-.8481053-.6754205-.7246007-1.2224921.577977-2.5695208-.2482259-5.25023502-2.1561585-6.99501844-.4045839-.37043289-.4447381-1.0128131-.0906512-1.43471266.3546954-.42317034.9691763-.46510614 1.3737602-.09530863 2.451231 2.24229449 3.5122751 5.68674853 2.7688142 8.99014583-.1052527.4682831-.5055778.7840724-.9466656.7840724zm-13.36708769-7.35655586c-.2342328 0-.46968239-.08768394-.65646023-.26559339-.39667476-.37932837-.42466101-1.02170858-.06205648-1.43661883 1.46623647-1.67616121 3.4636034-2.72074385 5.6246291-2.94249527 1.02454034-.10293333 2.04725548-.02350947 3.0395508.24017776.5207877.1391506.8353289.69257608.7026984 1.23647069-.1326305.54389462-.6613274.87048554-1.1839403.7338765-.77266408-.20586666-1.56966398-.27067653-2.36848908-.18680493-1.68160895.17219094-3.23606297.9848559-4.3774155 2.28994881-.19164502.21984526-.45508086.33103866-.71912511.33103866z" fill="var(--db-icon-color, currentColor)" fill-rule="evenodd"/></svg>
