<svg id="icon" height="20" viewBox="0 0 20 20" width="20" xmlns="http://www.w3.org/2000/svg"><path d="m15 10c0 2.757-2.243 5-5 5s-5-2.243-5-5 2.243-5 5-5 5 2.243 5 5zm-12 0a7 7 0 1 0 14 0 7 7 0 0 0 -14 0zm6.468-1.173a.984.984 0 0 0 -.38-1.323c-.465-.276-1.072-.113-1.362.341a.453.453 0 0 1 -.355.207 1.001 1.001 0 0 0 .029 2h.03c1.354-.041 1.972-1.104 2.038-1.225zm3.161-.775a.455.455 0 0 1 -.354-.204 1 1 0 0 0 -1.744.979c.066.121.684 1.184 2.038 1.225h.03a1 1 0 0 0 .03-2zm-.255 3.866c-.156-.632-.855-1.828-2.377-1.828-1.511 0-2.232 1.185-2.402 1.811a.797.797 0 0 0 .305.851.806.806 0 0 0 .912.024c.017-.011.431-.271 1.171-.271.726 0 1.139.251 1.169.271a.798.798 0 0 0 .9-.005.805.805 0 0 0 .322-.853z" fill="var(--db-icon-color, currentColor)" fill-rule="evenodd"/></svg>
