<svg id="icon" height="24" viewBox="0 0 24 24" width="24" xmlns="http://www.w3.org/2000/svg"><path d="m12 3c4.9705627 0 9 4.02943725 9 9 0 4.9705627-4.0294373 9-9 9-4.97056275 0-9-4.0294373-9-9 0-4.97056275 4.02943725-9 9-9zm-7 9c0 3.8659932 3.13400675 7 7 7 1.5723496 0 3.0236173-.5184131 4.1922034-1.3936395l-9.7985639-9.79856385c-.87522641 1.16858608-1.3936395 2.61985375-1.3936395 4.19220335zm7-7c-1.5723496 0-3.02361727.51841309-4.19220335 1.3936395l9.79856385 9.7985639c.8752264-1.1685861 1.3936395-2.6198538 1.3936395-4.1922034 0-3.86599325-3.1340068-7-7-7z" fill="var(--db-icon-color, currentColor)" fill-rule="evenodd"/></svg>
