<svg id="icon" height="20" viewBox="0 0 20 20" width="20" xmlns="http://www.w3.org/2000/svg"><path d="m8.18244688 5.77204274-.18244688.22795726-.20364988.00513286c-1.48535397.07500781-2.78553422.96605639-3.40907165 2.27515877l-.03327847.07370837-.07391124.03360089c-1.36835438.651417-2.28008876 2.04298051-2.28008876 3.61239911 0 2.209139 1.790861 4 4 4l8.2051517-.0055098c2.138442-.1234832 3.7948483-1.8727181 3.7948483-3.9944902l-.0069569-.2370941c-.0508446-.8646831-.3784842-1.6748527-.920215-2.3238347l-.0858281-.0960712c.0086667-.16221375.013-.27654708.013-.343 0-2.76142375-2.2385763-5-5-5-1.4086393.06632501-2.93428708.725796-3.81755312 1.77204274z" fill="var(--db-icon-color, currentColor)" fill-rule="evenodd"/></svg>
