<svg id="icon" height="24" viewBox="0 0 24 24" width="24" xmlns="http://www.w3.org/2000/svg"><path d="m17.954 10.28c.015.194.025.392.03.594l.028 3.121c0 1.831.516 2.512 1.526 3.17.376.234.54.704.423 1.126a1.007 1.007 0 0 1 -.963.704h-3.734c-.14 1.667-1.55 3.005-3.24 3.005a3.258 3.258 0 0 1 -3.186-2.598l2.4-2.402h5.412a6.108 6.108 0 0 1 -.658-3.005v-1.752zm-5.954-8.28c.54 0 .986.446.986 1.01v1.08l.024-.001c1.437.23 2.618.932 3.469 2.017l1.814-1.813a1 1 0 0 1 1.497 1.32l-.083.094-15.002 15.003a1 1 0 0 1 -1.497-1.32l.083-.094 2.709-2.7v-5.418c0-3.967 1.938-6.643 4.99-7.112v-1.057c0-.563.446-1.009 1.01-1.009zm1.245 16.995h-2.443c.118.564.61.986 1.222.986.587 0 1.08-.422 1.22-.986zm-1.268-13.004c-2.49 0-3.993 1.948-3.993 5.187v2.817c.01.203.009.406-.002.608l7.067-7.066c-.691-.998-1.74-1.546-3.072-1.546z" fill="var(--db-icon-color, currentColor)" fill-rule="evenodd"/></svg>
