<svg id="icon" height="24" viewBox="0 0 24 24" width="24" xmlns="http://www.w3.org/2000/svg"><path d="m11 2c.28 0 .53.094.719.313l4 4a.915.915 0 0 1 .28.687v1a1 1 0 0 1 -1 1h-5c-.561 0-1-.469-1-1v-4h-4.999v16h5a1 1 0 0 1 0 2h-6c-.562 0-1-.437-1-1v-18c0-.562.438-1 1-1zm5 8c3.307 0 6 2.673 6 5.993 0 3.311-2.693 6.007-6 6.007s-6-2.696-6-6.007c0-3.297 2.693-5.993 6-5.993zm2.794 3.385-3.918 3.918-1.669-1.665-1.155 1.124 2.844 2.781 5.053-5.018zm-11.794 2.615a1 1 0 1 1 -.001 2 1 1 0 0 1 0-2zm1-4c.563 0 1 .437 1 1 0 .562-.437 1-1 1h-1c-.562 0-1-.438-1-1 0-.563.438-1 1-1zm3-7.594v2.594h2.594z" fill="var(--db-icon-color, currentColor)" fill-rule="evenodd"/></svg>
