<svg id="icon" height="32" viewBox="0 0 32 32" width="32" xmlns="http://www.w3.org/2000/svg"><path d="m20 26h-2.481c-.007 0-.012-.004-.019-.004s-.013.004-.019.004h-2.961c-.007 0-.012-.004-.019-.004s-.013.004-.019.004h-2.481a1 1 0 1 0 0 2h1.5v1a1 1 0 0 0 1 1h3a1 1 0 0 0 1-1v-1h1.5a1 1 0 1 0 0-2zm0-3h-8a1 1 0 1 0 0 2h8a1 1 0 1 0 0-2zm-3.999-21c5.404 0 9.8 4.397 9.8 9.8 0 3.648-1.64 5.461-2.957 6.919-.77.852-1.379 1.525-1.452 2.367a.998.998 0 0 1 -.996.914l-4.366-.006c-.01.001-.019.006-.029.006l-.029-.006-4.369-.006a1 1 0 0 1 -.995-.91c-.076-.838-.682-1.508-1.451-2.359-1.317-1.457-2.957-3.271-2.957-6.919 0-5.404 4.396-9.8 9.8-9.8zm-.001 1.999c-4.301 0-7.8 3.499-7.8 7.8 0 2.878 1.24 4.251 2.44 5.578.704.778 1.426 1.577 1.77 2.611l2.59.004v-2.668l-1.262-1.737a1 1 0 1 1 1.618-1.175l.644.886.643-.886a.999.999 0 1 1 1.618 1.175l-1.261 1.737v2.671l2.586.004c.343-1.039 1.067-1.841 1.773-2.622 1.2-1.328 2.441-2.7 2.441-5.578 0-4.301-3.499-7.8-7.8-7.8zm-2.825 1.947a1 1 0 1 1 .873 1.799 4.514 4.514 0 0 0 -2.229 2.391 1 1 0 0 1 -1.858-.742 6.51 6.51 0 0 1 3.213-3.447z" fill="var(--db-icon-color, currentColor)" fill-rule="evenodd"/></svg>
