<svg id="icon" height="20" viewBox="0 0 20 20" width="20" xmlns="http://www.w3.org/2000/svg"><path d="m14.937 2c1.46 0 2.698 1.365 2.698 2.698a2.75 2.75 0 0 1 -1.27 2.286c.413.92.635 1.937.635 2.984 0 1.651-.54 3.143-1.46 4.35l1.301 2.095c.095.158.159.349.159.54 0 .57-.381 1.015-.952 1.015a.97.97 0 0 1 -.857-.476l-1.143-1.778a7.07 7.07 0 0 1 -4.032 1.27 7.29 7.29 0 0 1 -4.032-1.238l-1.143 1.778c-.19.286-.476.476-.793.476-.572 0-1.016-.381-1.016-.952 0-.19.032-.413.159-.604l1.301-2.095a7.406 7.406 0 0 1 -1.46-4.38c0-1.017.222-2.032.635-2.953-.794-.508-1.302-1.365-1.302-2.286 0-1.492 1.206-2.73 2.635-2.73 1.048 0 2.064.603 2.508 1.492.825-.35 1.587-.476 2.508-.476.889 0 1.682.095 2.508.38a2.749 2.749 0 0 1 2.413-1.396zm-4.89 2.984a5.057 5.057 0 0 0 -5.047 5.046 5.057 5.057 0 0 0 5.046 5.047 5.057 5.057 0 0 0 5.046-5.047 5.057 5.057 0 0 0 -5.046-5.046zm.953 1.556v3.079l1.778 1.714-1.397 1.46-2.35-2.317v-3.936z" fill="var(--db-icon-color, currentColor)" fill-rule="evenodd"/></svg>
