<svg id="icon" height="24" viewBox="0 0 24 24" width="24" xmlns="http://www.w3.org/2000/svg"><path d="m13.476 13.088a1 1 0 0 1 -.826-1.563c.605-.89.81-1.393.81-1.987a2.432 2.432 0 0 0 -2.429-2.429 2.42 2.42 0 0 0 -1.679.674 1 1 0 1 1 -1.384-1.443 4.4 4.4 0 0 1 3.062-1.23 4.434 4.434 0 0 1 4.43 4.43c0 1.174-.443 2.061-1.157 3.111a1 1 0 0 1 -.828.438h.001zm1.156 4.935c.23-.993.874-1.889 1.556-2.838 1.065-1.48 2.272-3.158 2.272-5.646 0-4.097-3.333-7.429-7.429-7.429a7.393 7.393 0 0 0 -5.138 2.064.999.999 0 1 0 1.384 1.443 5.4 5.4 0 0 1 3.754-1.508 5.436 5.436 0 0 1 5.43 5.43c0 1.843-.92 3.123-1.897 4.478-.768 1.067-1.562 2.172-1.886 3.58a3.163 3.163 0 0 1 -4.394 2.232 1 1 0 1 0 -.828 1.82c.672.306 1.39.461 2.133.461 2.435 0 4.558-1.729 5.043-4.087z" fill="var(--db-icon-color, currentColor)" fill-rule="evenodd"/></svg>
