<svg id="icon" height="32" viewBox="0 0 32 32" width="32" xmlns="http://www.w3.org/2000/svg"><path d="m23.618 2c1.892 0 3.382 1.638 3.382 3.609v20.98c0 1.861-1.409 3.411-3.202 3.411h-14.416c-1.892 0-3.382-1.638-3.382-3.609v-4.391h-.972c-.568 0-1.028-.448-1.028-1s.46-1 1.028-1h.972v-8h-.972c-.568 0-1.028-.448-1.028-1s.46-1 1.028-1h.972v-4.59c0-1.797 1.313-3.303 3.018-3.405l.184-.005zm-11.618 1.994h-2.798c-.63 0-1.186.612-1.186 1.416l-.001 4.59h.957c.568 0 1.028.448 1.028 1s-.46 1-1.028 1h-.957v8h.957c.568 0 1.028.448 1.028 1s-.46 1-1.028 1h-.957v4.391c0 .86.565 1.53 1.24 1.607l.127.007h2.618zm2 24.011h9.798c.63 0 1.186-.612 1.186-1.416v-20.98c0-.914-.637-1.614-1.366-1.614l-9.618-.001zm8.104-9.005c.495 0 .896.448.896 1s-.401 1-.896 1h-5.208c-.495 0-.896-.448-.896-1s.401-1 .896-1zm0-4c.495 0 .896.448.896 1s-.401 1-.896 1h-5.208c-.495 0-.896-.448-.896-1s.401-1 .896-1zm0-4c.495 0 .896.448.896 1s-.401 1-.896 1h-5.208c-.495 0-.896-.448-.896-1s.401-1 .896-1z" fill="var(--db-icon-color, currentColor)" fill-rule="evenodd"/></svg>
