<svg id="icon" height="24" viewBox="0 0 24 24" width="24" xmlns="http://www.w3.org/2000/svg"><path d="m17.1 2.019c.541.11.891.639.781 1.18a5.96 5.96 0 0 1 -1.665 3.045 5.987 5.987 0 0 1 1.695 3.262h2.091a1 1 0 0 1 .707.293l1 1a.999.999 0 1 1 -1.414 1.414l-.707-.707h-1.586v2h2a1 1 0 0 1 .707.293l1 1a.999.999 0 1 1 -1.414 1.414l-.707-.707h-1.586l-.002.494c0 .52-.073 1.022-.198 1.504h2.198a1 1 0 0 1 .707.293l1 1a.999.999 0 1 1 -1.414 1.414l-.707-.707h-2.586c-.043 0-.079-.02-.12-.024a5.991 5.991 0 0 1 -4.88 2.52 5.991 5.991 0 0 1 -4.879-2.52c-.042.006-.079.025-.122.025h-2.585l-.707.707a.997.997 0 0 1 -1.414 0 .999.999 0 0 1 0-1.414l1-1a.997.997 0 0 1 .707-.292h2.198a5.975 5.975 0 0 1 -.198-1.504v-.496h-1.586l-.707.707a.997.997 0 0 1 -1.414 0 .999.999 0 0 1 0-1.414l1-1a.997.997 0 0 1 .707-.293h2v-2h-1.586l-.707.707a.997.997 0 0 1 -1.414 0 .999.999 0 0 1 0-1.414l1-1a.997.997 0 0 1 .707-.293h2.091a5.987 5.987 0 0 1 1.695-3.262 5.968 5.968 0 0 1 -1.665-3.045c-.11-.541.24-1.07.781-1.18a1.003 1.003 0 0 1 1.18.78 3.98 3.98 0 0 0 1.384 2.279 5.946 5.946 0 0 1 2.535-.57c.907 0 1.764.208 2.535.57a3.986 3.986 0 0 0 1.385-2.278c.11-.541.637-.884 1.18-.781zm-1.098 9.487h-8v4.496c0 2.206 1.794 4 4 4s4-1.794 4-4zm-3 4.494a1 1 0 1 1 0 2h-2a1 1 0 1 1 0-2zm1-3a1 1 0 1 1 0 2h-4a1 1 0 1 1 0-2zm-2-6.491c-1.857 0-3.409 1.278-3.857 2.997h7.714c-.448-1.72-2-2.997-3.857-2.997z" fill="var(--db-icon-color, currentColor)" fill-rule="evenodd"/></svg>
