<svg id="icon" height="20" viewBox="0 0 20 20" width="20" xmlns="http://www.w3.org/2000/svg"><path d="m10.626.217 6.317 6.24a1.05 1.05 0 0 1 -1.378 1.58l-.527-.51-2.48 2.456c.238.388.4.8.483 1.231.282 1.45-.302 2.872-1.394 4.23a9.727 9.727 0 0 1 -1.387 1.422 1.05 1.05 0 0 1 -1.3.017l-3.636-3.587-3.468 3.434a1.05 1.05 0 0 1 -1.565-1.394l3.54-3.518-3.52-3.483a1.05 1.05 0 0 1 -.07-1.416c.295-.357.79-.864 1.436-1.373 1.368-1.078 2.798-1.653 4.251-1.377.44.084.86.246 1.255.486l2.477-2.451-.412-.408a1.05 1.05 0 0 1 1.378-1.58zm.527 3.464-3.147 3.115a1.056 1.056 0 0 1 -1.477 0c-.327-.323-.65-.514-.993-.564-.833-.121-1.835.327-3.006 1.344l7.082 7.009c1.027-1.1 1.483-2.09 1.368-2.97-.038-.287-.193-.56-.436-.835-.152-.129-.836-.797-.13-1.63a647.81 647.81 0 0 1 3.131-3.1l-2.392-2.369z" fill="var(--db-icon-color, currentColor)" fill-rule="evenodd" transform="translate(1 1)"/></svg>
