<svg id="icon" height="20" viewBox="0 0 20 20" width="20" xmlns="http://www.w3.org/2000/svg"><path d="m2 8c0-.563.438-1 1-1h1c1.094 0 2 1 2 2v7h8.031v-7c0-1 .906-2 1.969-2h1c.563 0 1 .438 1 1 0 .563-.438 1-1 1h-.969v7.188c0 1.062-.967 1.812-2 1.812h-8.031c-1.064 0-2-.75-2-1.813v-7.187h-1c-.563 0-1-.438-1-1zm0-3c0-.563.438-1 1-1h4v-1c0-.563.438-1 1-1h4c.25 0 .531.094.719.281a.99.99 0 0 1 .281.719v1h4c.563 0 1 .438 1 1 0 .563-.438 1-1 1h-14c-.563 0-1-.438-1-1zm5 9v-5c0-.563.438-1 1-1 .563 0 1 .438 1 1v5c0 .531-.438 1-1 1-.25 0-.531-.125-.719-.313a.97.97 0 0 1 -.281-.687zm4 0v-5c0-.563.438-1 1-1 .563 0 1 .438 1 1v5c0 .531-.438 1-1 1-.25 0-.531-.125-.719-.313a.97.97 0 0 1 -.281-.687z" fill="var(--db-icon-color, currentColor)" fill-rule="evenodd"/></svg>
