<svg id="icon" height="24" viewBox="0 0 24 24" width="24" xmlns="http://www.w3.org/2000/svg"><path d="m14.5 2a7.5 7.5 0 0 0 -7.166 9.718l-5.69 5.684a1 1 0 0 0 .005 1.421l3.543 3.504a1.03 1.03 0 0 0 1.436 0l5.653-5.662a7.5 7.5 0 0 0 9.719-7.165c0-.985-.219-2.144-.61-2.95a.994.994 0 0 0 -1.585-.235l-3.276 3.268-2.116-2.114 3.271-3.274a1 1 0 0 0 -.326-1.631 7.48 7.48 0 0 0 -2.858-.564zm0 2c.176 0 .35.009.525.026l-2.733 2.737a1 1 0 0 0 .001 1.414l3.52 3.527c.42.426 1.063.36 1.423 0l2.737-2.732a5.5 5.5 0 0 1 -7.646 5.583c-.413-.116-.76-.005-1.013.25l-5.4 5.405-2.143-2.107 5.425-5.417a1 1 0 0 0 .218-1.09 5.5 5.5 0 0 1 5.086-7.596z" fill="var(--db-icon-color, currentColor)" fill-rule="evenodd"/></svg>
