<svg id="icon" height="32" viewBox="0 0 32 32" width="32" xmlns="http://www.w3.org/2000/svg"><path d="m12 2a9.99 9.99 0 0 1 10 10 9.912 9.912 0 0 1 -2.25 6.313l9.969 9.968a.961.961 0 0 1 .281.719c0 .594-.438 1-.969 1-.25 0-.531-.063-.75-.281l-9.968-9.969a9.912 9.912 0 0 1 -6.313 2.25 9.99 9.99 0 0 1 -10-10 9.99 9.99 0 0 1 10-10zm0 2c-4.406 0-8 3.594-8 8s3.594 8 8 8 8-3.594 8-8-3.594-8-8-8zm0 3c.438 0 1 .313 1 1v3h3c.563 0 1 .438 1 1 0 .469-.438 1-1 1h-3v3c0 .563-.438 1-1 1-.5 0-1-.438-1-.875v-3.125h-3c-.563 0-1-.438-1-1 0-.469.281-1 1-1h3v-3c0-.563.438-1 1-1z" fill="var(--db-icon-color, currentColor)" fill-rule="evenodd"/></svg>
