<svg id="icon" height="24" viewBox="0 0 24 24" width="24" xmlns="http://www.w3.org/2000/svg"><path d="m8.75 19.5c.688 0 1.25.563 1.25 1.25 0 .688-.563 1.25-1.25 1.25-.688 0-1.25-.563-1.25-1.25 0-.688.563-1.25 1.25-1.25zm8.5 0c.688 0 1.25.563 1.25 1.25 0 .688-.563 1.25-1.25 1.25-.688 0-1.25-.563-1.25-1.25 0-.688.563-1.25 1.25-1.25zm-13.094-16.5c1.314 0 2.532.5 2.844 2.094h12.75c1.094 0 1.938 1 1.719 2.062l-.969 4a2.524 2.524 0 0 1 -2.188 2l-9.656 1.064.25 1.375c.031.25.25.437.469.437h8.25c.563 0 1.031.438 1.031 1 0 .532-.468.969-1.031.969h-8.25c-1.219 0-2.281-.875-2.469-2.094l-1.781-10.063a.975.975 0 0 0 -.969-.844h-1.156c-.563 0-1-.438-1-1 0-.531.438-1 1-1zm15.125 4.031h-12l.969 5.219 9.688-1.094c.218-.031.406-.187.437-.406z" fill="#282D37" style="fill: currentColor;fill: var(--db-icon-color, currentColor)" fill-rule="evenodd"/></svg>