<svg id="icon" height="32" viewBox="0 0 32 32" width="32" xmlns="http://www.w3.org/2000/svg"><path d="m23.344 4a4.668 4.668 0 0 1 4.656 4.656c0 1.406-.625 2.688-1.656 3.594.406 1.156.656 2.406.656 3.719 0 2.719-1 5.187-2.625 7.125l2.438 3.281c.125.188.187.375.187.594 0 .562-.438 1-1 1-.313 0-.625-.125-.813-.407l-2.25-3.062c-1.906 1.531-4.312 2.469-6.937 2.469s-5.031-.938-6.938-2.469l-2.25 3.063c-.187.28-.5.406-.812.406a1.007 1.007 0 0 1 -.813-1.594l2.438-3.281c-1.625-1.938-2.625-4.407-2.625-7.125 0-1.313.25-2.563.656-3.75a4.656 4.656 0 0 1 -1.656-3.563 4.668 4.668 0 0 1 4.656-4.656c1.406 0 2.719.594 3.594 1.656 1.156-.436 2.438-.656 3.75-.656 1.313 0 2.594.219 3.75.656.875-1.062 2.188-1.656 3.594-1.656zm-7.344 3c-4.969 0-9 4.031-9 8.969 0 4.969 4.031 9 9 9s9-4.032 9-9c0-4.939-4.031-8.969-9-8.969zm7.344-1c-.625 0-1.219.188-1.688.563 1.532.937 2.844 2.218 3.75 3.75a2.619 2.619 0 0 0 .594-1.658 2.654 2.654 0 0 0 -2.656-2.655zm-14.688 0a2.654 2.654 0 0 0 -2.656 2.656c0 .625.219 1.188.594 1.656a10.771 10.771 0 0 1 3.75-3.75c-.469-.374-1.064-.562-1.688-.562zm7.344 2.969c.563 0 1 .469 1 1v5.594l2.656 2.656a.97.97 0 0 1 .282.687c0 .625-.47 1-1 1a1.1 1.1 0 0 1 -.72-.281l-2.937-2.938a.99.99 0 0 1 -.281-.717v-6c0-.531.438-1 1-1z" fill="var(--db-icon-color, currentColor)" fill-rule="evenodd"/></svg>
