<svg id="icon" height="24" viewBox="0 0 24 24" width="24" xmlns="http://www.w3.org/2000/svg"><path d="m14.202 22.203c-2.214 0-3.924-.602-5.13-1.808-1.188-1.225-1.872-2.962-2.052-5.211h-1.512a.764.764 0 0 1 -.513-.216.764.764 0 0 1 -.216-.514c0-.216.072-.386.216-.513a.764.764 0 0 1 .513-.216h1.485l-.027-2.672h-1.458a.764.764 0 0 1 -.513-.217.764.764 0 0 1 -.216-.513.7.7 0 0 1 .216-.513.764.764 0 0 1 .513-.216h1.485c.144-2.34.81-4.166 1.998-5.48s2.925-1.971 5.211-1.971c.594 0 1.125.036 1.593.108a11.2 11.2 0 0 1 1.674.35.758.758 0 0 1 .432.297.753.753 0 0 1 .189.514.745.745 0 0 1 -.324.62.809.809 0 0 1 -.729.136c-.648-.163-1.17-.27-1.566-.325a7.144 7.144 0 0 0 -1.323-.107c-1.728 0-2.988.485-3.78 1.458-.774.954-1.215 2.42-1.323 4.4h5.238c.198 0 .36.072.486.216a.7.7 0 0 1 .216.513c0 .18-.072.351-.216.513a.616.616 0 0 1 -.486.216h-5.238l.027 2.674h5.211c.198 0 .36.071.486.215a.647.647 0 0 1 .216.513c0 .18-.072.351-.216.513a.616.616 0 0 1 -.486.216h-5.184c.162 1.297.423 2.34.783 3.133.378.774.918 1.358 1.62 1.755.72.377 1.674.566 2.862.566.576 0 1.062-.035 1.458-.108.414-.072.936-.215 1.566-.431a.708.708 0 0 1 .702.108.776.776 0 0 1 .351.675.688.688 0 0 1 -.189.459.844.844 0 0 1 -.378.297 12.21 12.21 0 0 1 -3.672.566z" fill="var(--db-icon-color, currentColor)" fill-rule="evenodd"/></svg>
