<svg id="icon" height="24" viewBox="0 0 24 24" width="24" xmlns="http://www.w3.org/2000/svg"><path d="m11.9592929 8.98126625c.5522848 0 1 .44771525 1 1s-.4477152.99999995-1 .99999995c-1.3254834 0-2.41003866 1.031536-2.49468231 2.3356244l-.00531768 4.9688958c0 1.3807119 1.11928809 2.5 2.49999999 2.5 1.3254834 0 2.4100387-1.0315359 2.4946823-2.3356243l.0053177-2.2643757c0-.5522847.4477153-1 1-1 .5128359 0 .9355072.3860402.9932723.8833789l.0067277 2.2166211c0 2.4852814-2.0147186 4.5-4.5 4.5-2.41427332 0-4.38448908-1.9012365-4.495102-4.2881643l-.00489799-5.0163559c0-2.4852813 2.01471863-4.49999995 4.49999999-4.49999995zm0-7.79547981c2.4142733 0 4.3844891 1.90123651 4.495102 4.28816429l.004898 5.00731547c0 2.4852814-2.0147186 4.5-4.5 4.5-.5522847 0-1-.4477152-1-1 0-.5128358.3846149-.9922877.8833789-.9932722 1.3716795-.0027075 2.5266598-1.0382637 2.6113034-2.3423521l.0053177-4.95985546c0-1.38071188-1.1192881-2.5-2.5-2.5-1.3254834 0-2.41003866 1.03153593-2.49468231 2.33562431l-.00531768 2.26437569c0 .55228475-.44771525 1-1 1-.51283584 0-.93550716-.38604019-.99327227-.88337888l-.00672773-2.21662112c0-2.48528138 2.01471863-4.5 4.49999999-4.5z" fill="var(--db-icon-color, currentColor)" fill-rule="evenodd" transform="matrix(.70710678 .70710678 -.70710678 .70710678 11.978026 -4.945942)"/></svg>
