<svg id="icon" height="24" viewBox="0 0 24 24" width="24" xmlns="http://www.w3.org/2000/svg"><path d="m12 3c4.971 0 9 4.029 9 9s-4.029 9-9 9-9-4.029-9-9 4.029-9 9-9zm0 2c-3.86 0-7 3.14-7 7s3.14 7 7 7 7-3.14 7-7-3.14-7-7-7zm3.315 8.501.1289563.008344c.2563906.0332887.5001866.165656.6690437.387656.334.44.248 1.067-.192 1.401-.065.049-1.612 1.202-3.922 1.202s-3.858-1.153-3.922-1.202c-.438-.332-.523-.954-.194-1.393.329-.441.955-.532 1.397-.205.011.008 1.106.8 2.719.8 1.603 0 2.696-.783 2.719-.8.18-.135.39-.199.598-.199zm-6.015-5.001c.8284271 0 1.5.67157288 1.5 1.5 0 .8284271-.6715729 1.5-1.5 1.5-.82842712 0-1.5-.6715729-1.5-1.5 0-.82842712.67157288-1.5 1.5-1.5zm5.4 0c.8284271 0 1.5.67157288 1.5 1.5 0 .8284271-.6715729 1.5-1.5 1.5s-1.5-.6715729-1.5-1.5c0-.82842712.6715729-1.5 1.5-1.5z" fill="var(--db-icon-color, currentColor)" fill-rule="evenodd"/></svg>
