<svg id="icon" height="24" viewBox="0 0 24 24" width="24" xmlns="http://www.w3.org/2000/svg"><path d="m17.438 20.5h-1.688a1 1 0 0 1 -1-1v-.274a14.35 14.35 0 0 1 -2.005.149 12.38 12.38 0 0 1 -1.245-.135v.26a1 1 0 0 1 -1 1h-1.688c-.441 0-.831-.29-.958-.713l-.408-1.361a6.315 6.315 0 0 1 -3.22-2.558l-1.094-.273a1 1 0 0 1 -.757-.97v-2.25c0-.431.275-.812.684-.948l.721-.24a5.7 5.7 0 0 1 1.55-1.859l.653-2.121a1 1 0 0 1 1.614-.459l1.5 1.312a1 1 0 1 1 -1.317 1.506l-.339-.297-.297.963a.994.994 0 0 1 -.391.531 3.73 3.73 0 0 0 -1.331 1.627 1 1 0 0 1 -.604.559l-.441.147v.748l.743.187a1 1 0 0 1 .638.495 4.303 4.303 0 0 0 2.738 2.13c.342.086.613.345.715.683l.292.974v-.312a1.001 1.001 0 0 1 1.267-.964 9.923 9.923 0 0 0 2.043.341c.856-.024 1.793-.112 2.689-.345a.998.998 0 0 1 1.251.968v.452l.683-1.913a.998.998 0 0 1 .397-.503c.819-.531 1.794-1.457 1.794-2.851 0-1.609-.884-2.58-3.155-3.461a1 1 0 0 1 .724-1.865c1.902.739 4.43 2.095 4.43 5.326 0 1.688-.855 3.214-2.417 4.332l-.828 2.318a1 1 0 0 1 -.942.664zm-6.205-8.31a8.65 8.65 0 0 1 2.911-.009 1 1 0 0 0 .34-1.97 10.662 10.662 0 0 0 -3.599.011 1 1 0 1 0 .348 1.968zm3.745-6.19c0-1.379-1.122-2.5-2.5-2.5a2.503 2.503 0 0 0 -2.5 2.5c0 1.379 1.122 2.5 2.5 2.5s2.5-1.121 2.5-2.5zm-2 0a.5.5 0 1 1 -1.002-.002.5.5 0 0 1 1.002.002z" fill="var(--db-icon-color, currentColor)" fill-rule="evenodd"/></svg>
