<svg id="icon" height="20" viewBox="0 0 20 20" width="20" xmlns="http://www.w3.org/2000/svg"><path d="m7.896 10.382a7.82 7.82 0 0 0 1.515 1.515 7.82 7.82 0 0 0 -1.515 1.515 7.82 7.82 0 0 0 -1.515-1.515 7.82 7.82 0 0 0 1.515-1.515m0-4.382a.465.465 0 0 0 -.475.415l-.011.078a5.744 5.744 0 0 1 -4.918 4.918l-.078.011c-.553.075-.553.875 0 .95l.078.011a5.744 5.744 0 0 1 4.918 4.918l.011.078a.465.465 0 0 0 .475.415.465.465 0 0 0 .475-.415l.011-.078a5.744 5.744 0 0 1 4.918-4.918l.078-.011c.553-.075.553-.875 0-.95l-.078-.011a5.744 5.744 0 0 1 -4.918-4.918l-.011-.078a.465.465 0 0 0 -.475-.415zm4.104-1.112-.049.005c-.294.028-.294.457 0 .485l.049.005a2.905 2.905 0 0 1 2.618 2.618l.005.049c.028.294.457.294.485 0l.005-.049a2.905 2.905 0 0 1 2.618-2.618l.049-.005c.294-.028.294-.457 0-.485l-.049-.005a2.905 2.905 0 0 1 -2.618-2.618l-.005-.049c-.028-.294-.457-.294-.485 0l-.005.049a2.905 2.905 0 0 1 -2.618 2.618z" fill="var(--db-icon-color, currentColor)" fill-rule="evenodd"/></svg>
