<svg id="icon" height="20" viewBox="0 0 20 20" width="20" xmlns="http://www.w3.org/2000/svg"><path d="m13.281 2.281-3 3.031a.972.972 0 0 0 -.281.692.97.97 0 0 0 1 .996c.258 0 .516-.094.719-.281l1.281-1.313v5.594c0 .563.438 1 1 1 .563 0 1-.438 1-1v-5.594l1.313 1.313a.97.97 0 0 0 .687.281c.588 0 1-.44 1-.996a.972.972 0 0 0 -.281-.691l-3-3.032a1.102 1.102 0 0 0 -.719-.281c-.25 0-.5.094-.719.281zm-8.281 6.719v5.594l-1.313-1.314a.972.972 0 0 0 -.69-.281.97.97 0 0 0 -.997 1.001c0 .258.094.516.281.719l3 3c.219.187.469.281.719.281s.5-.094.719-.281l3-3a1.06 1.06 0 0 0 .281-.719c0-.59-.438-1-1-1a1.06 1.06 0 0 0 -.719.281l-1.281 1.313v-5.594c0-.531-.438-1-1-1-.563 0-1 .469-1 1z" fill="var(--db-icon-color, currentColor)" fill-rule="evenodd"/></svg>
