<svg id="icon" height="20" viewBox="0 0 20 20" width="20" xmlns="http://www.w3.org/2000/svg"><path d="m12 15h-4a1 1 0 1 0 0 2h.504v.002a1 1 0 0 0 1 1h.992a1 1 0 0 0 1-1v-.002h.504a1 1 0 1 0 0-2zm-1.999-13c3.033 0 5.5 2.468 5.5 5.5 0 1.982-.901 3.264-1.559 4.2-.368.524-.686.976-.699 1.336-.02.538-.462.964-1 .964h-4.485a1 1 0 0 1 -1-.964c-.013-.36-.331-.813-.699-1.336-.658-.935-1.559-2.218-1.559-4.2 0-3.032 2.467-5.5 5.5-5.5zm0 2c-1.93 0-3.5 1.57-3.5 3.5 0 1.35.608 2.214 1.195 3.05.321.458.65.925.855 1.45h2.899c.205-.525.534-.992.855-1.45.588-.836 1.196-1.7 1.196-3.05 0-1.93-1.57-3.5-3.5-3.5zm-.975 1.197a1 1 0 0 1 .78 1.842.506.506 0 0 0 -.289.327.999.999 0 1 1 -1.925-.539 2.529 2.529 0 0 1 1.435-1.63z" fill="#282D37" style="fill: currentColor;fill: var(--db-icon-color, currentColor)" fill-rule="evenodd"/></svg>
