<svg id="icon" height="32" viewBox="0 0 32 32" width="32" xmlns="http://www.w3.org/2000/svg"><path d="m20.8747677 18c1.832783 0 3.6190348.5594803 5.1216429 1.5994035 1.0017387.6932821 1.7167466 1.2268143 2.1450238 1.6005965.4418278.3313708.5313709.9581722.2 1.4-.3058808.407841-.9189519.5380592-1.2949748.2690296-.250682-.1793531-.9079126-.6690296-1.9716919-1.4690296-1.1308949-.8481712-2.4900751-1.3326451-3.897692-1.3934719l-3.5740885-.0065281c-.7527211 0-1.4088486.5122889-1.5914103 1.2425356-.0816567.3266269.1294637.7055866.516926.7574644h4.0129315c.5522848 0 1 .4477153 1 1 0 .5128358-.4135904.9945357-1 1h-3.9397666c-.8611878-.011756-1.2024299-.1852811-3.1786615-1-.5403475-.2227631-1.5124675-.6092177-2.9163599-1.1593638-1.12566378-.439417-2.39850001-.2656702-3.365212.4593638-.15607115.1170534-.23247993.4803425.09122662.6145642.2090483.0866799 2.65103889.9746764 7.32597178 2.6639898.6572117.2389861 1.3458976.3779155 2.043035.4127324l5.1476105.0087136c.4741343 0 .9473411.037467 1.4152117.1119644l4.5730605.9074549c.5415598.108312.8927765.6351371.7844646 1.1766968-.1005754.5028769-.5941021.8889099-1.1766968.7844646l-4.2232271-.8446454c-.3390092-.0678019-.6824197-.1103645-1.027406-.1274083l-5.143851-.008527c-.9178511 0-1.8295194-.1404004-2.7035159-.4156535l-7.6981434-2.7901954c-.42947902-.1561742-.80419265-.434021-1.07838845-.7996154-.77979507-1.0397268-.5690788-2.5147406.47064795-3.2945357 1.45124667-1.088435 3.34116388-1.3868854 5.0497114-.8107134 2.014977.7831231 3.0224655 1.1746846 3.0224655 1.1746846.233707-1.7490472 1.8769902-3.0639712 3.5278231-3.0639712zm-10.8747677-16c4.418278 0 8 3.581722 8 8s-3.581722 8-8 8-8-3.581722-8-8 3.581722-8 8-8zm0 2c-3.3137085 0-6 2.6862915-6 6s2.6862915 6 6 6 6-2.6862915 6-6-2.6862915-6-6-6zm.5576726 2c.5659633 0 1.0771639.07409075 1.5336018.22227225.3040421.10384107.6087083.41976987.5033187.82677076-.1454161.48531927-.6239527.55318557-.9543859.46655665-.3304333-.08662891-.6515849-.12994337-.9634548-.12994337-.4907533 0-.8443843.10284168-1.0608931.30852504-.2165088.20568335-.36806495.54668471-.45466847 1.02300406h2.00270637v.90933694h-2.02435725v.71447907h2.02435725v.9093369h-2.00270637c.06495264.5051872.20929183.8552097.43301759 1.0500677.22372576.1948579.59179068.2922868 1.10419488.2922868.3254023 0 1.1999572-.1989981 1.2759293-.2148046.2478852-.051574.5506338.1114297.6540307.3793622.2002752.5189734-.2564812.7875426-.3927476.8638592-.1362663.0763166-.5142084.2074876-.8281461.2760487-.3139378.0685611-.6296798.1028417-.947226.1028417-.68561118 0-1.24672981-.097429-1.68335588-.2922869s-.77582319-.4925575-1.01759134-.8930988c-.24176816-.4005412-.40956247-.9219666-.50338295-1.564276h-.71447903v-.9093369h.68200271v-.71447907h-.68200271v-.90933694h.71447903c.12268831-.65674335.31032927-1.18177718.56292287-1.57510149.25259359-.39332431.59900766-.68200271 1.03924222-.86603519.44023455-.18403247 1.0067659-.27604871 1.69959408-.27604871z" fill="var(--db-icon-color, currentColor)" fill-rule="evenodd"/></svg>
