<svg id="icon" height="24" viewBox="0 0 24 24" width="24" xmlns="http://www.w3.org/2000/svg"><path d="m7.99999885 14c1.05436295 0 2 .8435372 2 2v4c0 1.0543618-.81832029 2-2 2h-4c-1.05436065 0-2-.8267076-2-2v-4c0-1.0543618.8534124-2 2-2zm.00000115 2h-4v4h4zm11.5-14c1.3254834 0 2.5 1.0761889 2.5 2.5v12c0 1.3254834-1.0625697 2.5-2.5 2.5h-6.5c-.5522847 0-1-.4477153-1-1 0-.5128358.4055125-1 1-1h6.5c.2275292 0 .5-.1869258.5-.5v-12c0-.22526937-.1742681-.5-.5-.5h-12c-.24545989 0-.5.20032358-.5.5v6.5c0 .5522847-.44771525 1-1 1-.51283584 0-1-.4044719-1-1v-6.5c0-1.3254834 1.07533264-2.5 2.5-2.5zm-6.5 4h4c.584734.00672773 1 .46482182 1 1v4c0 .5522847-.4477153 1-1 1-.5128358 0-1-.382916-1-1v-1.586l-3.2928932 3.2931068c-.3905243.3905243-1.0236893.3905243-1.4142136 0-.3604839-.360484-.4255836-1.0008094 0-1.4142136l3.2911068-3.2928932h-1.584c-.5128358 0-1-.4160944-1-1s.4843306-1 1-1z" fill="var(--db-icon-color, currentColor)" fill-rule="evenodd"/></svg>
