<svg id="icon" height="32" viewBox="0 0 32 32" width="32" xmlns="http://www.w3.org/2000/svg"><path d="m22.608 26a1.64 1.64 0 0 1 1.642 1.642c0 .874-.734 1.608-1.642 1.608a1.603 1.603 0 0 1 -1.608-1.608c0-.908.699-1.642 1.608-1.642zm-11.5 0a1.64 1.64 0 0 1 1.642 1.642c0 .874-.734 1.608-1.642 1.608a1.603 1.603 0 0 1 -1.608-1.608c0-.908.699-1.642 1.608-1.642zm-6.676-23c1.319 0 2.477.88 2.8 2.136l.197.879 17.142-.001 2.717-2.717a1 1 0 0 1 1.415 1.415 62346.71 62346.71 0 0 1 -21.996 21.995 1 1 0 1 1 -1.414-1.414 1537.14 1537.14 0 0 1 3.415-3.416l-.023-.094-3.259-15.832c-.156-.674-.577-.963-.994-.963h-1.438a1 1 0 0 1 -.994-.994 1 1 0 0 1 .994-.994zm19.065 19.008a1 1 0 0 1 .994.994 1 1 0 0 1 -.994.995h-11.277l1.989-1.989zm-11.772-3.148-1.602.17.254 1.178zm16.735-11.105c.03.217.024.442-.024.665l-1.732 6.794c-.257 1.187-1.219 2.085-2.406 2.31l-6.272.666 2.261-2.262 3.755-.393c.353-.096.61-.385.705-.77l1.135-4.433zm-5.878.248h-14.75l1.86 9.04 4.303-.453z" fill="var(--db-icon-color, currentColor)" fill-rule="evenodd"/></svg>
