<svg id="icon" height="20" viewBox="0 0 20 20" width="20" xmlns="http://www.w3.org/2000/svg"><path d="m9.969 3c1.627 0 2.917.813 3.564 2.053l1.26-1.26a1 1 0 0 1 1.414 1.414 20197.47 20197.47 0 0 1 -12.5 12.5 1 1 0 0 1 -1.415 0c-.36-.36-.416-.965 0-1.414.37-.374.742-.746 1.115-1.117l-1.387-6.977a1.033 1.033 0 0 1 .998-1.221h2.992c0-2.224 1.62-3.978 3.959-3.978zm7.26 4.009c.501.13.86.649.752 1.19l-1.559 7.987c-.094.47-.53.814-.998.814h-8.188zm-7.229-2.009c-1.247 0-1.995.846-1.995 2.004h3.575l.385-.383c-.153-.957-.888-1.621-1.965-1.621z" fill="var(--db-icon-color, currentColor)" fill-rule="evenodd"/></svg>
