<svg id="icon" height="24" viewBox="0 0 24 24" width="24" xmlns="http://www.w3.org/2000/svg"><path d="m15.702 8.999c.513-1.052 1.06-2.473 1.06-3.746 0-1.793-1.239-3.251-2.762-3.251-1.337 0-1.793.978-2.372 2.216l-.212.452c-1.067 2.247-3.137 4.081-4.239 4.951a2.416 2.416 0 0 0 -1.609-.622h-1.136a2.435 2.435 0 0 0 -2.432 2.432v7.136a2.435 2.435 0 0 0 2.432 2.433h1.136c.735 0 1.386-.334 1.833-.851 2.436.676 6.804 1.855 7.6 1.855 3.605 0 7-5.072 7-9.004 0-1.782 0-4-3-4zm-9.702 9.568a.434.434 0 0 1 -.432.433h-1.136a.433.433 0 0 1 -.432-.433v-7.136c0-.238.194-.432.432-.432h1.136c.238 0 .432.193.432.432zm2-.327v-6.726c1.076-.8 3.822-3.037 5.222-5.986l.218-.463c.216-.463.461-.986.56-1.062.266 0 .762.43.762 1.251 0 1.417-1.156 3.514-1.601 4.202a1 1 0 0 0 .839 1.543h5c.962 0 1 0 1 2 0 3.142-2.757 7.004-4.983 7.004-.523-.03-3.85-.888-7.017-1.763z" fill="var(--db-icon-color, currentColor)" fill-rule="evenodd"/></svg>
