<svg id="icon" height="24" viewBox="0 0 24 24" width="24" xmlns="http://www.w3.org/2000/svg"><path d="m15.035 12.667a7 7 0 0 1 4.257 1.443l1.35 1.124a1 1 0 0 1 -1.183 1.607l-1.212-1.006c-.83-.696-2.067-1.154-2.942-1.161-.584-.005-1.317-.007-2.2-.007a.826.826 0 0 0 -.804.64.232.232 0 0 0 .174.28l2.59.165a1 1 0 0 1 -.065 1.996l-2.551-.149c-.569-.052-1.035-.233-1.778-.513a312.28 312.28 0 0 0 -3-1.097 1.255 1.255 0 0 0 -1.405.39c-.087.107-.078.307.09.384l3.472 1.597a7 7 0 0 0 2.588.632l7.584.008a1 1 0 0 1 1 1c0 .513-.402 1-1 1h-7.249a9 9 0 0 1 -3.403-.668c-2.666-1.196-4.101-1.879-4.305-2.047-.949-.787-1.114-2.199-.332-3.164a3.256 3.256 0 0 1 3.455-1.073l2.192.79c.308-1.29 1.507-2.16 2.57-2.166a400.7 400.7 0 0 1 2.107-.005zm-6.839-2.427c.407 0 1.5-.249 1.595-.269.31-.064.688.14.818.475.25.648-.32.984-.491 1.08-.17.095-.643.259-1.035.344a5.534 5.534 0 0 1 -1.184.13c-.858 0-1.559-.122-2.105-.365a2.764 2.764 0 0 1 -1.272-1.117c-.302-.5-.512-1.152-.629-1.955h-.893v-1.137h.853v-.893h-.853v-1.137h.893c.153-.82.388-1.477.704-1.968a2.78 2.78 0 0 1 1.299-1.083c.55-.23 1.258-.345 2.124-.345.708 0 1.347.093 1.917.278.38.13.761.525.63 1.033-.182.607-.78.692-1.194.583a4.74 4.74 0 0 0 -1.204-.162c-.613 0-1.055.129-1.326.386-.27.257-.46.683-.568 1.278h2.503v1.137h-2.53v.893h2.53v1.137h-2.503c.08.631.261 1.069.541 1.313.28.243.74.365 1.38.365z" fill="var(--db-icon-color, currentColor)" fill-rule="evenodd"/></svg>
