<svg id="icon" height="32" viewBox="0 0 32 32" width="32" xmlns="http://www.w3.org/2000/svg"><path d="m19.5 6c-2.3325567 0-4.724782 1.24877745-6.0615838 3.08119336l-.1362513.17213247c-.5802291-.16714306-1.1855457-.25332583-1.8021649-.25332583l-.2420555.00444705c-2.89256946.10643053-5.33776957 2.11248635-6.0490559 4.85721735l-.06857748.2140888c-1.93108862 1.1853162-3.14031112 3.2010173-3.14031112 5.4242468 0 3.6102129 3.15249507 6.5 7 6.5l14.2473993-.0041204c3.7534903-.1296124 6.7526007-2.9781331 6.7526007-6.4958796l-.0054371-.2579104c-.0867646-2.0551636-1.2459058-3.946403-3.0023283-5.0950896.0051769-.3546863.0077654-.570353.0077654-.647 0-4.14213562-3.36-7.5-7.5-7.5zm0 2c3.0375661 0 5.5 2.4624339 5.5 5.5 0 .3386614-.030489.6729289-.0905544 1.0002427-.0800514.4362234.1367834.873058.5326388 1.073052 1.5742058.7953199 2.5579156 2.2898108 2.5579156 3.9267053 0 2.4002172-2.1091325 4.403447-4.8044053 4.4966255l-14.1955947.0035234c-2.77991206 0-5-2.0352295-5-4.5001489 0-1.6217721.96541025-3.1042696 2.51675878-3.9059981.28681104-.1482224.48441867-.4257949.53060457-.7453216.31757727-2.1970861 2.20964425-3.8486803 4.45263665-3.8486803.6420817 0 1.2634259.1339476 1.8352743.3897607.4814501.215374 1.0474018.0197989 1.2931578-.4468746.9455109-1.79545937 2.8065315-2.9428861 4.8715679-2.9428861z" fill="var(--db-icon-color, currentColor)" fill-rule="evenodd"/></svg>
