<svg id="icon" height="20" viewBox="0 0 20 20" width="20" xmlns="http://www.w3.org/2000/svg"><path d="m14 2c2.209139 0 4 1.790861 4 4 0 .98047327-.2981241 1.88844043-1.111 2.765.0626815.32495068.0996815.73661735.111 1.235 0 2.0129337-.8556205 3.8902983-2.3238554 5.2090715-.410877.3690509-1.0431334.3351442-1.4121844-.0757327-.3690509-.4108769-.3351442-1.0431334.0757327-1.4121843 1.0502377-.9433268 1.6603071-2.2819141 1.6603071-3.7211545 0-.36339253-.0312271-.92362547-.3613508-1.98325115.1689201-.1174324.3526695-.25376074.5512482-.40898503.5065862-.37584922.8101026-.96560918.8101026-1.60776382 0-1.1045695-.8956023-1.98052183-2-2-.7874009-.01388733-1.4921568.43905023-2.1142677 1.35881267-.7310213-.23920845-1.3595988-.35881267-1.8857323-.35881267-.78920031 0-1.1758871.1420818-1.81595994.35881267-.6029859-1.00613736-1.4046071-1.35881267-2.05904006-1.35881267-1.17360509 0-2.125.95139491-2.125 2.125 0 .59490434.24492521 1.1475508.66576782 1.54387551.25171906.20959668.46195046.38062911.63069422.51309729-.22810649.86003061-.32657733 1.4778045-.29541254 1.8533217.16296722-.0232602.32955348-.0352945.4989505-.0352945 1.09947751 0 2.08054633.5069679 2.7221962 1.2998934.11785458-.0482805.25246793-.0659599.3953369-.0414628l.2065798.0533659c.2733796.0623343.39725441-.0282911.42140709-.2307237l.0120755-.2008645c.10980902-.8402777 1.37500001-.8402777 1.48480901 0l.0122501.2019047c.0217769.180124.1283676.2602897.3038565.2602897.0446267 0 .1354224-.0246488.2723873-.0739463.7143017-.1764681 1.2494457.7248687.6930844 1.2681459-.5168022.5046485-1.0253122.5726504-1.6070007.3713876-.1652037-.0635369-.3041977-.1162002-.4169821-.1579899-.46837711.2128663-.86954117.2634802-1.03490142.2630441.07190425.4467998.03490142.8403466-.09545369 1.4365629l1.13962081.6325052c.1537639-.0532096.3188738-.0821122.4907343-.0821122.8284271 0 1.5.6715729 1.5 1.5s-.6715729 1.5-1.5 1.5c-.71412425 0-1.31169234-.4990362-1.46299717-1.1674016l-1.24191238-.6900748c-.61445524.5341249-1.41701145.8574764-2.29509045.8574764-1.93299662 0-3.5-1.5670034-3.5-3.5 0-.988975.41018369-1.8821465 1.0697054-2.5186688-.04669237-.3224572-.0697054-.650557-.0697054-.9813312 0-.34153689.0215807-.71202159.086-1.089-.61679176-.66076492-1.10662178-1.72209333-1.086-2.786 0-2.27817459 1.84682541-4.125 4.125-4.125 1.03033895 0 1.95623255.34937072 2.787 1.085.46590775-.05818625.70828332-.085 1.088-.085.3797167 0 .6970401.02861381 1.234.11.6447336-.67829548 1.7990791-1.11 2.766-1.11zm-6.5 5.5c.55228475 0 1 .44771525 1 1s-.44771525 1-1 1-1-.44771525-1-1 .44771525-1 1-1zm5 0c.5522847 0 1 .44771525 1 1s-.4477153 1-1 1-1-.44771525-1-1 .4477153-1 1-1zm-7 4.5c-.82842712 0-1.5.6715729-1.5 1.5s.67157288 1.5 1.5 1.5 1.5-.6715729 1.5-1.5-.67157288-1.5-1.5-1.5z" fill="var(--db-icon-color, currentColor)" fill-rule="evenodd"/></svg>
