<svg id="icon" height="64" viewBox="0 0 64 64" width="64" xmlns="http://www.w3.org/2000/svg"><g fill="none" fill-rule="evenodd" transform="translate(4 19)"><path d="m49 0a1 1 0 0 1 1 1v1h3a3 3 0 0 1 3 3v18a3 3 0 0 1 -3 3h-50a3 3 0 0 1 -3-3v-18a3 3 0 0 1 3-3h3v-1a1 1 0 1 1 2 0v1h40v-1a1 1 0 0 1 1-1zm4 4h-50a1 1 0 0 0 -1 1v18a1 1 0 0 0 1 1h50a1 1 0 0 0 1-1v-18a1 1 0 0 0 -1-1zm-40.988 4a.99.99 0 0 1 .594.198l.112.098c.03.03.059.063.085.097l3.92 3.983a1 1 0 0 1 -.005 1.41l-.094.083a.993.993 0 0 1 -1.315-.078l-2.303-2.341v7.285a1 1 0 0 1 -2 0v-7.285l-2.299 2.335a.992.992 0 0 1 -1.309.093l-.105-.093a1 1 0 0 1 -.006-1.409l3.92-3.983a1.01 1.01 0 0 1 .806-.393zm26.239 5a1 1 0 0 1 0 2h-16.266a1 1 0 1 1 0-2z" fill="var(--db-icon-color, currentColor)" fill-rule="nonzero"/><path d="m48 9a1 1 0 0 1 0 2h-26.015a1 1 0 1 1 0-2z" fill="var(--db-icon-pulse-color, #EC0016)"/></g></svg>
