<svg id="icon" height="24" viewBox="0 0 24 24" width="24" xmlns="http://www.w3.org/2000/svg"><path d="m7 15a2 2 0 1 1 0 4 2 2 0 0 1 0-4zm.017-8.743c.55.114 1.16.304 1.826.57a16.85 16.85 0 0 1 5.674 3.407c.817.743 1.53 1.485 2.14 2.226a.886.886 0 0 1 .163.762c-.164.732-1.35 3.019-1.574 3.365a.85.85 0 0 1 -.729.413c-1.505-.06-2.781-.114-3.828-.163-.086-2.023-1.775-3.537-3.689-3.537a3.701 3.701 0 0 0 -3.598 2.834c-.096-.036-1.252-.419-1.252-1.693v-3.441c0-.163.096-.67.288-1.523a4.061 4.061 0 0 1 4.579-3.22zm13.983 8.043a.85.85 0 0 1 .107 1.693c-.329.022-.566.076-.71.161l-.91.497c-.396.233-.892.349-1.487.349a.85.85 0 0 1 -.107-1.693c.268-.025.518 0 .78-.148.278-.149.581-.315.909-.497a2.958 2.958 0 0 1 1.418-.362zm-16.556-5.155-.414 1.61a1 1 0 0 0 1.905.6l.273-1.056 2.798.962a3 3 0 0 1 .573.268c.12.073.736.502 1.846 1.289a1 1 0 0 0 1.393-.243c.293-.417.225-1.017-.145-1.314-.246-.198-.835-.616-1.767-1.253a5 5 0 0 0 -.986-.539l-3.697-1.274a1.5 1.5 0 0 0 -1.78.95z" fill="#282D37" style="fill: currentColor;fill: var(--db-icon-color, currentColor)" fill-rule="evenodd"/></svg>