<svg id="icon" height="24" viewBox="0 0 24 24" width="24" xmlns="http://www.w3.org/2000/svg"><path d="m18.714 17.3c.42.43 1.465 1.7 2.286 1.7a1 1 0 0 1 1 1c0 .513-.445 1.005-1 1-1.016-.009-2.016-.511-3-1.508-1.043 1.007-2.045 1.51-3.004 1.508-.96-.002-1.958-.504-2.996-1.507-1.03 1.005-2.03 1.507-3 1.507-.968 0-1.968-.502-3-1.506-1.034 1.004-2.034 1.506-3 1.506a1 1 0 0 1 -1-1c0-.513.436-1 1-1 .868 0 1.8-1.065 2.2-1.6a1 1 0 0 1 1.6 0c.4.536 1.21 1.6 2.2 1.6.991 0 1.8-1.067 2.2-1.6a1 1 0 0 1 1.6 0c.4.533 1.129 1.6 2.202 1.6s1.825-1.103 2.198-1.6a1 1 0 0 1 1.514-.1zm-7.743-11.3c1.647 0 2.958.711 3.928 1.867.376.447.652.893.843 1.284l6.074-1.134a1 1 0 0 1 1.123 1.329l-3.045 6.101a1 1 0 0 1 -1.341.447c-.459-.229-.724-.803-.381-1.462-2.388.427-5.445.983-9.17 1.668a1 1 0 0 1 -.47-1.94l10.758-1.963.915-1.845-15.837 2.958c-.211.044-.334.154-.362.333l-.006 2.357a1 1 0 0 1 -1.993.117l-.007-2.393c0-1.171.758-2.048 1.812-2.335l1.624-.315c.455-.186.788-1.6.573-3.19a1 1 0 0 1 .696-1.09zm-2.894 2.564c.031.731-.02 1.43-.166 2.051l5.746-1.075a4.275 4.275 0 0 0 -.29-.387c-.57-.68-1.28-1.091-2.184-1.147z" fill="#282D37" style="fill: currentColor;fill: var(--db-icon-color, currentColor)" fill-rule="evenodd"/></svg>