<svg id="icon" height="20" viewBox="0 0 20 20" width="20" xmlns="http://www.w3.org/2000/svg"><path d="m1.75 15c0 .55.45 1 1 1h4c.583 0 1.024-.47 1.024-.988l-.024-4.012c0-1.037-.964-2-2-2h-2c-1.069 0-2 .996-2 2zm7.514-5c0 .367-.004 2.367-.014 6h2.5c.55 0 1-.482 1-1v-4c0-1.134-.862-2-1.996-2h-.486a.985.985 0 0 0 -1.004 1zm4.988 0-.002 6a841.34 841.34 0 0 1 2.496-.016c.55 0 1.004-.466 1.004-.984v-4c0-1.134-.866-2-2-2h-.526c-.55 0-.972.45-.972 1zm-9.486-3c.821 0 1.484-.663 1.484-1.516 0-.82-.663-1.484-1.484-1.484s-1.516.663-1.516 1.484c0 .853.695 1.516 1.516 1.516zm5.5 0c.82 0 1.484-.663 1.484-1.516 0-.82-.663-1.484-1.484-1.484s-1.516.663-1.516 1.484c0 .853.695 1.516 1.516 1.516zm4.968 0c.853 0 1.516-.663 1.516-1.516 0-.82-.663-1.484-1.516-1.484-.82 0-1.484.663-1.484 1.484 0 .853.663 1.516 1.484 1.516z" fill="#282D37" style="fill: currentColor;fill: var(--db-icon-color, currentColor)" fill-rule="evenodd"/></svg>
