<svg id="icon" height="24" viewBox="0 0 24 24" width="24" xmlns="http://www.w3.org/2000/svg"><path d="m6.016 9c1.227 0 2.234-1.024 2.234-2.266a2.254 2.254 0 0 0 -2.234-2.234c-1.26 0-2.266 1.024-2.266 2.234a2.267 2.267 0 0 0 2.266 2.266zm-4.016 9c0 .563.438.995 1.002.995l5.998.005c.564 0 1-.437 1-1v-5c0-1.16-.84-1.997-2-1.997h-4c-1.159 0-2 .932-2 1.997zm16.516-9c1.227 0 2.234-1.024 2.234-2.266a2.254 2.254 0 0 0 -2.234-2.234c-1.26 0-2.266 1.024-2.266 2.234a2.267 2.267 0 0 0 2.266 2.266zm-6.25 0c1.227 0 2.234-1.024 2.234-2.266a2.254 2.254 0 0 0 -2.234-2.234c-1.26 0-2.266 1.024-2.266 2.234a2.267 2.267 0 0 0 2.266 2.266zm.736 4h.878c.062 0 .12.071.12.103l.005 4.89c0 .563.463 1.002.995 1.002.564 0 1-.439 1-1.002v-4.993a1.968 1.968 0 0 0 -2-1.997h-.998c-.532 0-1.002.433-1.002.997 0 .533.47 1 1.002 1zm6 .002h.878c.062 0 .12.071.12.103v4.895c0 .564.468 1.003 1 1.003.564 0 1-.44 1-1.003v-4.998a1.97 1.97 0 0 0 -2-1.999h-.998c-.532 0-1.002.434-1.002.998 0 .534.47 1.001 1.002 1.001z" fill="#282D37" style="fill: currentColor;fill: var(--db-icon-color, currentColor)" fill-rule="evenodd"/></svg>
