<svg id="icon" height="24" viewBox="0 0 24 24" width="24" xmlns="http://www.w3.org/2000/svg"><path d="m7.175 2.484 2.264 3.66c.833 1.416.413 2.966-1.243 2.966h-.812l.46.447c.458.452.64.774.64 1.334 0 .306-.097.552-.274.741.17.198.273.328.273.742s-.208.862-.55 1.202l-.549.518v1.328c0 1.756-1.059 2.412-2.906 2.457-.319 0-.478.155-.478.466l-.004.872.002 1.393.002.39a1 1 0 0 1 -1 1c-.513 0-1-.4-1-1v-2.655c0-1.132.92-2.467 1.99-2.457l.786-.01c.351.007.607-.284.609-.52v-1.648a.977.977 0 0 1 .254-.68l.414-.432c-.453-.384-.526-1.417.014-1.926l-.39-.39c-.156-.156-.284-.31-.284-.575l-.008-.862c0-.923.634-1.733 1.73-1.733h.572l-2.16-3.598c-.264-.44-.142-1.107.314-1.376.456-.27 1.032-.094 1.334.346zm-3.925 1.515a1.25 1.25 0 1 1 0 2.5 1.25 1.25 0 0 1 0-2.5zm10.082 3.495c1.18.029 2.367 1.044 2.186 2.506l-.452 3.923c.8-.109 1.396.204 1.787.938.68-.061 1.43.102 1.84.933 1.09-.239 2.307.25 2.307 2.206v3a1 1 0 0 1 -1 1c-.513 0-1.008-.444-1-1v-3.176c-.887.303-1.562.025-2.027-.833-.907.261-1.537-.054-1.89-.947-1.356.317-2.104-.787-2.08-1.632l.528-4.645c.013-.137-.106-.269-.243-.282-.14-.013-.274.044-.296.21l-.983 8.281.477 2.86c.085.505-.316 1.066-.822 1.15a1.02 1.02 0 0 1 -1.15-.822l-.5-3a1.1 1.1 0 0 1 -.01-.136l.003-.145.983-8.354a2.304 2.304 0 0 1 2.342-2.034zm-.652-5.494c.96 0 1.488.46 1.488 1.298 0 .867-.546 1.333-1.557 1.333-.184 0-.425-.017-.597-.04v1.148a.507.507 0 1 1 -1.014 0v-3.236c0-.28.227-.503.513-.503zm-.092.735h-.574v1.178c.144.023.333.034.505.034.477 0 .667-.178.667-.626 0-.425-.167-.586-.598-.586zm5.873.293c.216 0 .48.055.644.107.18.057.295.147.295.328 0 .18-.148.365-.327.327a1.617 1.617 0 0 0 -.566-.107c-.305 0-.438.075-.438.236 0 .103.036.166.128.223l.078.034.134.04.293.076c.585.155.817.425.817.948 0 .656-.413 1.002-1.219 1.005a2.88 2.88 0 0 1 -.932-.158c-.173-.063-.23-.189-.223-.326.01-.208.199-.356.417-.275.129.048.416.115.658.115.338 0 .467-.074.467-.27a.224.224 0 0 0 -.088-.19l-.063-.031-.118-.037-.273-.075c-.653-.195-.88-.448-.88-.993 0-.644.408-.977 1.196-.977zm-2.76 0c.216 0 .476.054.645.107.18.057.294.147.294.328 0 .18-.148.365-.327.327a1.617 1.617 0 0 0 -.566-.107c-.304 0-.438.075-.438.236 0 .103.037.166.128.223l.079.034.133.04.293.076c.586.155.818.425.818.948 0 .656-.414 1.002-1.22 1.005a2.88 2.88 0 0 1 -.932-.158c-.172-.063-.23-.188-.223-.326.01-.208.199-.356.417-.275.129.048.416.115.658.115.338 0 .467-.074.467-.27a.224.224 0 0 0 -.088-.19l-.063-.031-.117-.037-.274-.075c-.653-.195-.88-.448-.88-.993 0-.644.408-.977 1.196-.977zm5.1-.627c.213 0 .334.114.36.266l.006.067v.386l.457-.002a.319.319 0 0 1 .074.63l-.074.009h-.457v1.533c0 .23.082.304.337.304l.054-.002.1-.012c.218-.044.342.13.342.29a.331.331 0 0 1 -.246.322 1.563 1.563 0 0 1 -.426.048c-.716 0-1.043-.268-1.082-.902l-.003-.132v-1.448l-.09-.001a.32.32 0 0 1 -.32-.32.32.32 0 0 1 .247-.309l.073-.008h.155l.113-.356c.065-.207.133-.363.38-.363z" fill="#282D37" style="fill: currentColor;fill: var(--db-icon-color, currentColor)" fill-rule="evenodd"/></svg>
