<svg id="icon" height="32" viewBox="0 0 32 32" width="32" xmlns="http://www.w3.org/2000/svg"><path d="m12.6801279 3.13684877c1.4348779.82842712 1.9265034 2.66319834 1.0980762 4.09807621l-.9934334 1.71949907.4325678.25092409c.3692034.21315968.562672.63694779.4818777 1.05554126l-.3314455 1.7135347c.4775204-.0556009.8963993.2262918 1.0548474.6240745l.5733345 2.1130897c.1429418.5334661-.1736407 1.081803-.7071068 1.2247449-.4953614.1327316-1.0035451-.1307592-1.1880626-.5962007l-.3600013-1.3213143-8.55149074.5521011c-.21971504 2.0607111.515152 5.4290807 1.99834185 7.4579133l5.38487879-2.6587832c.4943485-.2462479 1.0947205-.0451227 1.3409684.4492258.2286588.4590378.0715724 1.009494-.3478382 1.2829484-1.8756061.9525466-3.19724851 1.6131683-3.96492717 1.9818652.73892141 1.7555993 1.80951137 2.9309796 3.21176987 3.526141.2678004-.5076755.8995362-.6856998 1.3688355-.4287265s.6439758.8124994.4453325 1.2720899l-.4729722.8326673c-.2165111.3750082-.6490211.5517859-1.0733954.4782626-2.76051444-.4782626-4.49251444-3.0470354-5.28663755-4.804458l-.44533.2211118c-.40423686.1998735-.89539841.1151787-1.19142952-.2329397-2.40254129-2.7954153-3.45522828-7.7467413-2.81968525-10.5232086.09019226-.3940187.39950714-.7080848.79462607-.7822895l.61735405-.0459863c-.12048919-2.1569778-.12048919-4.8036249 2.17469136-6.8035089.32372867-.28207793.79429319-.34019394 1.16973993-.12342967l.49415647.28560982.99428106-1.72049907c.82842713-1.43487787 2.66319838-1.92650334 4.09807618-1.09807621zm14.3198721 14.86315123c1.6568542 0 3 1.3431458 3 3 0 1.5976809-1.24892 2.9036609-2.8237272 2.9949073l-1.1969955.0050678c-.0509736.8304603-.2005163 1.380341-.4981632 1.9368923-.3546604.6631574-.8810893 1.1895863-1.5442467 1.5442467-.6604592.3532175-1.3115246.4978664-2.433242.5167284l-1.933072.0021575c-1.0984315 0-1.8200159-.1512577-2.5074208-.5188859-.6631574-.3546604-1.1895863-.8810893-1.5442467-1.5442467-.3369925-.6301212-.4921737-1.2889626-.515697-2.2404656l-.0031889-3.4144592c0-.557373.064636-.8920856.2517532-1.2419643.1803533-.3372314.4509937-.6078718.7882251-.7882251.3061438-.1637276.6006762-.2336804 1.0429221-.2486104zm-3 2h-7v3.4294466c0 .7912047.0843811 1.19375.2825123 1.5642231.1682608.3146204.4091976.5555572.723818.723818.3334258.1783181.6928301.2644986 1.3381649.2799515l2.3063159-.0030553c.6900535-.0209494 1.0166793-.1024535 1.3428586-.2768962.3146204-.1682608.5555572-.4091976.723818-.723818.1569984-.2935614.2387166-.5874844.2687623-1.1463824zm3 0h-1v2h1c.5522847 0 1-.4477153 1-1s-.4477153-1-1-1zm-8-7c.5522847 0 1 .4477153 1 1v1c0 .5522847-.4477153 1-1 1s-1-.4477153-1-1v-1c0-.5522847.4477153-1 1-1zm3-1c.5522847 0 1 .4477153 1 1v2c0 .5522847-.4477153 1-1 1s-1-.4477153-1-1v-2c0-.5522847.4477153-1 1-1zm-15.22945054-4.2068721c-1.39983957 1.83007611-1.10243761 3.7178625-1.01868212 4.6615932l5.55390336-.347297.2957184-1.5258229zm3.54355304-2.55820292-.99433184 1.72049907 1.73300004 1 .9933826-1.72049907c.2761424-.47829262.1122673-1.08988303-.3660254-1.3660254-.4782926-.27614238-1.089883-.11226722-1.3660254.3660254z" fill="var(--db-icon-color, currentColor)" fill-rule="evenodd"/></svg>
