<svg id="icon" height="24" viewBox="0 0 24 24" width="24" xmlns="http://www.w3.org/2000/svg"><path d="m19.143 2a2.857 2.857 0 0 1 2.857 2.857v14.286a2.857 2.857 0 0 1 -2.857 2.857h-14.286a2.857 2.857 0 0 1 -2.857-2.857v-14.286a2.857 2.857 0 0 1 2.857-2.857zm0 1.999h-14.286a.858.858 0 0 0 -.857.858v14.286c0 .473.384.856.857.856h14.286a.857.857 0 0 0 .857-.856v-14.286a.859.859 0 0 0 -.857-.858zm-2.793 2.336a1 1 0 0 1 1.411 1.418l-4.306 4.29 4.306 4.287a1 1 0 1 1 -1.41 1.418l-4.314-4.295-4.312 4.295a.997.997 0 0 1 -1.414-.003 1 1 0 0 1 .003-1.415l4.306-4.288-4.306-4.289a1 1 0 1 1 1.411-1.418l4.312 4.295z" fill="var(--db-icon-color, #55b9e6)" fill-rule="evenodd"/></svg>
