<svg id="icon" height="64" viewBox="0 0 64 64" width="64" xmlns="http://www.w3.org/2000/svg"><g fill="none" fill-rule="evenodd" transform="translate(13 4)"><path d="m25 0a5 5 0 0 1 5 5v6a1 1 0 0 1 -2 0v-6a3 3 0 0 0 -3-3h-2v.034a2.966 2.966 0 0 1 -2.966 2.966h-10.068a2.966 2.966 0 0 1 -2.966-2.966v-.034h-2a3 3 0 0 0 -3 3v46a3 3 0 0 0 3 3h20a3 3 0 0 0 3-3v-8a1 1 0 0 1 2 0v8a5 5 0 0 1 -5 5h-20a5 5 0 0 1 -5-5v-46a5 5 0 0 1 5-5zm-4 50a1 1 0 0 1 0 2h-12a1 1 0 0 1 0-2zm0-48h-12v.034c0 .496.373.904.853.96l.113.006h10.068a.966.966 0 0 0 .966-.966z" fill="var(--db-icon-color, currentColor)" fill-rule="nonzero"/><path d="m15 19.224a5.236 5.236 0 0 1 5.224-5.224c2.876 0 5.176 2.348 5.176 5.224s-2.3 5.176-5.176 5.176-5.224-2.3-5.224-5.176zm7.2 15.176c0 1.973 1.578 3.6 3.6 3.6 1.973 0 3.6-1.627 3.6-3.6s-1.627-3.6-3.6-3.6a3.588 3.588 0 0 0 -3.6 3.6zm4-10.81c-.008-3.546 2.839-6.39 6.42-6.39 3.488 0 6.38 2.844 6.38 6.377 0 3.579-2.892 6.423-6.38 6.423-3.49 0-6.42-2.905-6.42-6.41z" fill="var(--db-icon-pulse-color, #EC0016)"/></g></svg>
