<svg id="icon" height="64" viewBox="0 0 64 64" width="64" xmlns="http://www.w3.org/2000/svg"><g fill="none" fill-rule="evenodd" transform="translate(13 7)"><path d="m34.5 0h-29.5c-2.757 0-5 2.161-5 4.818v40.363c0 2.657 2.243 4.818 5 4.818h29.5c1.93 0 3.5-1.57 3.5-3.5v-42.999c0-1.93-1.57-3.5-3.5-3.5zm-32.5 45.182v-40.364c0-1.554 1.346-2.818 3-2.818s3 1.265 3 2.818v40.363c0 1.554-1.346 2.818-3 2.818s-3-1.265-3-2.818zm34 1.318c0 .827-.673 1.5-1.5 1.5h-25.463a4.66 4.66 0 0 0 .963-2.818v-40.364a4.66 4.66 0 0 0 -.963-2.818h25.463c.827 0 1.5.673 1.5 1.5zm-3.843-39.512a1 1 0 0 1 -1 1h-16.296a1 1 0 1 1 0-2h16.296a1 1 0 0 1 1 1zm0 30a1 1 0 0 1 -1 1h-16.296a1 1 0 1 1 0-2h16.296a1 1 0 0 1 1 1zm0 6a1 1 0 0 1 -1 1h-16.296a1 1 0 1 1 0-2h16.296a1 1 0 0 1 1 1z" fill="var(--db-icon-color, currentColor)" fill-rule="nonzero"/><path d="m23 12.5c5.517-.006 9.994 4.463 10 9.98v.02c.006 5.517-4.463 9.994-9.98 10h-.02c-5.517.006-9.994-4.463-10-9.98v-.02c-.006-5.517 4.463-9.994 9.98-10zm0 2c-4.438 0-8 3.563-8 8 0 4.406 3.594 8 8 8s8-3.594 8-8c0-4.438-3.594-8-8-8zm0 6c.594 0 1 .438 1 1v4h1.031c.531 0 .969.469.969 1s-.438 1-.969 1h-4.031c-.531 0-1-.469-1-1 0-.563.469-1 1-1h1v-3h-.938c-.562 0-1-.469-1-1s.438-1 1-1zm0-4c.688 0 1.25.531 1.25 1.219 0 .718-.563 1.25-1.25 1.25s-1.25-.531-1.25-1.25c0-.689.563-1.219 1.25-1.219z" fill="var(--db-icon-pulse-color, #EC0016)"/></g></svg>
