<svg id="icon" height="24" viewBox="0 0 24 24" width="24" xmlns="http://www.w3.org/2000/svg"><path d="m10.2 5.75a1.873 1.873 0 0 0 1.875-1.875 1.848 1.848 0 0 0 -1.875-1.875c-.997 0-1.875.838-1.875 1.875 0 .997.878 1.875 1.875 1.875zm-3.588 10.299c.525.172.812.737.642 1.262l-1.301 4a1.002 1.002 0 0 1 -1.26.641 1.002 1.002 0 0 1 -.642-1.261l1.3-4a1 1 0 0 1 1.26-.642zm1.664-8.778c.048.004.096-.005.143.006a.994.994 0 0 1 .356.16l3.148 2.261a1.002 1.002 0 0 1 -.585 1.813.995.995 0 0 1 -.583-.188l-2.501-1.797c-.826 1.091-.225 3-.054 3.478l2.59 3.329a.997.997 0 0 1 .212.614v4.053a1 1 0 1 1 -2 0v-3.71l-2.473-3.178c-.011-.015-.013-.032-.023-.047-.041-.059-.084-.117-.112-.186-.696-1.686-1.21-4.948 1.274-6.48l.117-.061c.08-.035.163-.06.249-.074.08-.013.16 0 .242.007zm5.226 12.229a1.25 1.25 0 1 1 0 2.5 1.25 1.25 0 0 1 0-2.5zm5.25 0a1.25 1.25 0 1 1 0 2.5 1.25 1.25 0 0 1 0-2.5zm-4-8.5a1 1 0 0 1 .848.47l1.58 2.53h1.822a1 1 0 0 1 .723 1.69l-3.245 3.392a1 1 0 0 1 -1.445-1.382l1.625-1.7h-.034a1 1 0 0 1 -.848-.47l-1.58-2.53h-.196a1 1 0 1 1 0-2z" fill="#282D37" style="fill: currentColor;fill: var(--db-icon-color, currentColor)" fill-rule="evenodd"/></svg>
