<svg id="icon" height="64" viewBox="0 0 64 64" width="64" xmlns="http://www.w3.org/2000/svg"><g fill="none" fill-rule="evenodd" transform="translate(4 6.25)"><path d="m28 28.75c2.85 0 5.04.619 6.562 1.676a8.019 8.019 0 0 1 3.438 6.601c0 4.415-3.536 8-7.904 8a7.842 7.842 0 0 1 -5.839-2.607 1 1 0 0 1 1.486-1.34 5.843 5.843 0 0 0 4.353 1.947c3.258 0 5.904-2.683 5.904-6a6.02 6.02 0 0 0 -2.578-4.958c-1.109-.77-2.776-1.265-5.04-1.315l-.382-.004h-22a1 1 0 0 1 -.117-1.993l.117-.007zm-4 5a1 1 0 0 1 .117 1.993l-.117.007h-12a1 1 0 0 1 -.117-1.993l.117-.007zm19-28.25c5.523 0 10 4.477 10 10 0 3.885-2.091 7.313-5.45 8.959-1.844.904-4.323 1.287-7.087 1.293l-.463-.002h-39a1 1 0 0 1 -.117-1.993l.117-.007h39.013c2.675.034 5.055-.302 6.658-1.088 2.666-1.305 4.329-4.032 4.329-7.162a8 8 0 1 0 -16 0 1 1 0 0 1 -2 0c0-5.523 4.477-10 10-10zm-25.576-5.5a.75.75 0 0 1 .744.648l.006.102v2.045l1.292-1.29a.75.75 0 0 1 .976-.072l.084.072a.75.75 0 0 1 .073.977l-.073.084-2.352 2.351v3.533l3.243-1.872.813-3.029a.75.75 0 0 1 1.47.28l-.022.109-.423 1.579 1.589-.917a.75.75 0 0 1 .834 1.243l-.084.057-1.82 1.05 1.946.523a.75.75 0 0 1 .55.81l-.02.109a.75.75 0 0 1 -.81.55l-.109-.02-3.397-.911-3.01 1.739 3.376 1.95 3.03-.811a.75.75 0 0 1 .494 1.412l-.105.037-1.58.422 1.454.84a.75.75 0 0 1 -.659 1.344l-.091-.044-1.688-.975.522 1.948a.75.75 0 0 1 -.425.882l-.105.037a.75.75 0 0 1 -.882-.426l-.036-.105-.912-3.397-3.144-1.815v3.843l2.352 2.353a.75.75 0 0 1 -.976 1.133l-.084-.073-1.292-1.291v1.736a.75.75 0 0 1 -1.493.102l-.007-.102v-1.736l-1.29 1.291a.75.75 0 0 1 -.977.073l-.084-.073a.75.75 0 0 1 -.073-.976l.073-.084 2.351-2.353v-3.844l-3.145 1.816-.91 3.397a.75.75 0 0 1 -1.47-.279l.021-.11.522-1.948-1.687.976a.75.75 0 0 1 -.834-1.243l.084-.057 1.453-.839-1.579-.423a.75.75 0 0 1 -.55-.81l.02-.109a.75.75 0 0 1 .81-.551l.109.02 3.027.812 3.378-1.95-3.01-1.739-3.395.91a.75.75 0 0 1 -.494-1.411l.105-.037 1.946-.522-1.819-1.051a.75.75 0 0 1 .659-1.344l.091.044 1.588.917-.423-1.58a.75.75 0 0 1 .426-.881l.105-.037a.75.75 0 0 1 .882.426l.036.104.811 3.029 3.244 1.873v-3.534l-2.351-2.351a.75.75 0 0 1 .976-1.133l.084.072 1.291 1.292v-2.047a.75.75 0 0 1 .75-.75z" fill="#282D37" style="fill: currentColor;fill: var(--db-icon-color, currentColor)" fill-rule="nonzero"/><path d="m46 34.75c.772 0 1.397.436 1.732 1.074l5.907 12.048c.134.302.201.604.201.872 0 1.108-.766 2.006-1.84 2.006h-12c-1.074 0-2-.898-2-2.006 0-.302.067-.604.201-.872l5.974-11.981c.302-.671 1.087-1.141 1.825-1.141zm0 2-6 12h12zm-1 8v-4h2v4zm1 1.007c.548 0 1 .452 1 1 0 .549-.452 1-1 1s-1-.451-1-1c0-.548.452-1 1-1z" fill="#EC0016" style="fill:#EC0016;fill: var(--db-icon-pulse-color, #EC0016)"/></g></svg>
