<svg id="icon" height="32" viewBox="0 0 32 32" width="32" xmlns="http://www.w3.org/2000/svg"><path d="m27 2c1.6568542 0 3 1.34314575 3 3v22c0 1.6568542-1.3431458 3-3 3h-22c-1.65685425 0-3-1.3431458-3-3v-22c0-1.65685425 1.34314575-3 3-3zm0 2h-22c-.51283584 0-.93550716.38604019-.99327227.88337887l-.00672773.11662113v22c0 .5128358.38604019.9355072.88337887.9932723l.11662113.0067277h22c.5128358 0 .9355072-.3860402.9932723-.8833789l.0067277-.1166211v-22c0-.51283584-.3860402-.93550716-.8833789-.99327227zm-10.1141946 4.46c1.6133333 0 2.84.36 3.68 1.08s1.26 1.8 1.26 3.24c0 1.48-.4366667 2.5966667-1.31 3.35-.81875.70625-2.0095703 1.0814453-3.5724609 1.1255859-1.0419271.0294271-1.9344841-.0171015-2.6776709-.1395859l.0001013 4.5240305c0 .7510904-.6088791 1.3599695-1.3599695 1.3599695-.7069245 0-1.36-.524054-1.36-1.36-.0020522-3.8932359-.0020522-7.7865692 0-11.68 0-.77969612.6031882-1.5 1.5-1.5zm-2.6201318 2v4.759c.7083215.0806667 1.4216988.121 2.1401318.121.9466667 0 1.63-.1933333 2.05-.58s.63-1.02.63-1.9c0-.7878788-.1515151-1.369146-.4545454-1.7438017-.3030303-.3746556-1.0628658-.6547281-1.9254546-.6561983-.8133637-.0013863-1.626741-.0013863-2.4401318 0z" fill="var(--db-icon-color, currentColor)" fill-rule="evenodd"/></svg>
