<svg id="icon" height="24" viewBox="0 0 24 24" width="24" xmlns="http://www.w3.org/2000/svg"><path d="m19.5 2c1.3807119 0 2.5 1.11928813 2.5 2.5v15c0 1.3807119-1.1192881 2.5-2.5 2.5h-15c-1.38071187 0-2.5-1.1192881-2.5-2.5v-15c0-1.38071187 1.11928813-2.5 2.5-2.5zm0 2c-4.9998806-.00266917-9.99988059-.00266917-15 0-.24545989 0-.49983661.1939429-.5.5-.00266917 4.99988062-.00266917 9.9998806 0 15 0 .2454599.20452444.4998423.5.5 4.99988062.0026692 9.9998806.0026692 15 0 .2454599 0 .4998402-.2006972.5-.5.0026692-4.9998806.0026692-9.99988059 0-15 0-.24545989-.1928579-.49983603-.5-.5zm-8.493223 4.40531864v3.16599996c.7404502.0546667 1.2071197.082 1.4000086.082.6346666 0 1.092-.1283333 1.372-.385.28-.2566666.42-.6836666.42-1.28099996 0-.50607407-.0958683-.88309465-.287605-1.13106172-.2733066-.30062552-.6472161-.44944033-1.1217284-.44644445zm1.7640086-1.54c1.1386666 0 2.009.259 2.611.777s.903 1.28566667.903 2.303c0 1.03599996-.3126667 1.82233336-.938 2.35899996-.5772308.4953847-1.4841181.805-2.758.805-.4068153.0109205-.9341514-.0220795-1.5820086-.099l.0000064 2.9830023c0 .5798977-.4701001 1.0499977-1.04999782 1.0499977-.54123906 0-1.05-.4310282-1.05-1.05 0-.8312357 0-3.5405691 0-8.12799996 0-.51283584.41419891-.99867775 1-1 .95463402-.00215476 1.90930072-.00215476 2.86400002 0z" fill="var(--db-icon-color, currentColor)" fill-rule="evenodd"/></svg>
