<svg id="icon" height="64" viewBox="0 0 64 64" width="64" xmlns="http://www.w3.org/2000/svg"><g fill="none" fill-rule="evenodd" transform="translate(6 4.096)"><path d="m36.484.137c4.836 1.294 9.671 2.59 14.507 3.887 2.064.553 3.407 2.7 2.822 4.888-3.02 11.276-6.041 22.55-9.064 33.825a3.991 3.991 0 0 1 -4.694 2.869l-1.055-.279v5.577c0 1.853-.385 3.347-1.161 4.544a1 1 0 0 1 -1.678-1.088c.512-.79.838-1.878.839-3.456v-6.112l-5-1.339v3.451c0 2.472-1.025 4.322-2.717 5.578-1.156.821-2.191 1.29-3.104 1.406a1 1 0 0 1 -.471-1.94 6.822 6.822 0 0 0 2.224-.957c1.254-.812 2.066-2.138 2.068-4.087.002-1.667.002-3.333 0-5 0-.221.09-.523.293-.707 1.998-2.002 3.998-4.002 5.998-5.999 1.066-1.07 1.066-2.519.002-3.587-1.023-1.024-2.461-1.103-3.586 0-3.032 3.023-6.064 6.048-9.095 9.074a4.004 4.004 0 0 1 -1.08-3.9c.882-3.296 1.764-6.59 2.648-9.885l-6.472 5.71c-.94.813-1.708 2.588-1.708 4.294-.002 6-.002 12 0 18a1 1 0 0 1 -1 1 .99.99 0 0 1 -1-1c-.002-6-.002-12 0-18 0-2.072.878-4.534 2.338-5.75l.487-.431.486-.43.504-.446c3.68-3.257 7.01-6.176 7.284-6.426l.018-.017 5.48-20.445c.551-2.064 2.706-3.405 4.886-2.822zm-2.956 3.34c-2.99 11.147-5.977 22.296-8.963 33.446l6.727-6.726c1.848-1.85 4.567-1.85 6.417.001 1.785 1.793 1.84 4.393.166 6.237l-1.871 1.878 2.504.672a1 1 0 0 1 .707 1.224c-.133.496-.707.877-1.225.707-1.206-.32-2.413-.644-3.619-.97l-1.633 1.633 7.641 2.048c1.014.272 2.1-.272 2.438-1.408 3.023-11.274 6.044-22.549 9.064-33.825a1.982 1.982 0 0 0 -1.408-2.438c-.325-.089-.65-.176-.975-.261l-.13.483c-.349 1.304-1.712 2.138-3.114 1.763-2.542-.678-5.084-1.36-7.626-2.043-1.302-.349-2.18-1.683-1.816-3.085.042-.162.085-.323.13-.483l-.976-.261c-1.013-.272-2.13.261-2.438 1.408zm-14.527-.573a1 1 0 0 1 .957.71l.701 2.301 2.927-.01.708-.708a.999.999 0 1 1 1.414 1.414l-1 1a.995.995 0 0 1 -.704.293l-2.738.008.617 2.03c.005-.002.008.01.013.011 2.288-.212 3.65.84 3.898 1.02.446.326.543.952.218 1.398a1.001 1.001 0 0 1 -1.398.217c-.13-.094-1.028-.727-2.128-.67l.972 3.195c.161.528-.125 1.109-.666 1.248-.68.176-1.117-.234-1.248-.666l-.97-3.187a3.499 3.499 0 0 0 -1.561 2.91 3.492 3.492 0 0 0 2.708 3.408 3.66 3.66 0 0 0 1.242.07 1 1 0 0 1 .234 1.986 8.568 8.568 0 0 1 -1.935-.11c-2.55-.478-4.249-2.79-4.249-5.355 0-2.122 1.247-3.994 2.957-4.868-.005 0-.154-.496-.446-1.487l-5.753 6.978c-.393.397-.669.355-.771.364h-2.096c-.472 2.556-2.713 4.5-5.404 4.5a5.506 5.506 0 0 1 -5.5-5.5c0-3.032 2.467-5.5 5.5-5.5.964 0 1.883.25 2.703.716l1.537-1.835-.326-.978-.123-.368-.511-1.535h-.781a1 1 0 0 1 .002-2l3 .005a1 1 0 0 1 -.002 2h-.109l2.488 7.466 5.449-6.608-.567-1.863h-2.259a1 1 0 1 1 0-2zm-13.5 9c-1.93 0-3.5 1.57-3.5 3.5s1.57 3.5 3.5 3.5c1.58 0 2.903-1.059 3.337-2.5l-3.459-.009c-.041-.005-.603-.034-.798-.65s.14-.965.154-.983l2.147-2.564a3.484 3.484 0 0 0 -1.381-.294zm38.658 4.327 2.001.533a1 1 0 0 1 -.514 1.933l-2.002-.533a1 1 0 0 1 .515-1.933zm1.052-3.983 2.897.776a1 1 0 1 1 -.517 1.932l-2.898-.776a1 1 0 0 1 .518-1.932zm-34.729-1.236-2.84 3.392h3.971zm28.391-8.164-.13.483c-.045.302.09.514.402.635l7.627 2.043c.342.051.564-.065.665-.349l.13-.483-8.694-2.33z" fill="var(--db-icon-color, currentColor)" fill-rule="nonzero"/><path d="m35.421 16.082a.491.491 0 0 1 -.491-.491v-4.018c0-.271.22-.491.491-.491h4.018c.27 0 .491.22.491.491v4.018a.49.49 0 0 1 -.491.49h-4.019zm-.464-7c-1.12 0-2.027.907-2.027 2.027v5.016c0 1.12.908 2.027 2.027 2.027h5.016c1.12 0 2.027-.907 2.027-2.027v-5.016c0-1.12-.908-2.027-2.027-2.027z" fill="var(--db-icon-pulse-color, #EC0016)" transform="matrix(.96592583 .25881905 -.25881905 .96592583 4.800928 -9.232668)"/></g></svg>
