<svg id="icon" height="32" viewBox="0 0 32 32" width="32" xmlns="http://www.w3.org/2000/svg"><path d="m27.425 17.652a4.758 4.758 0 0 1 1.923 1.923c.45.842.63 1.666.65 3.174l.002 4.251a1 1 0 0 1 -1 1 .997.997 0 0 1 -1.005-1v-4.43c-.026-1.058-.144-1.552-.411-2.052a2.635 2.635 0 0 0 -1.102-1.102c-.536-.286-1.065-.401-2.288-.415l-5.173-.001c-1.368 0-1.935.112-2.503.416a2.635 2.635 0 0 0 -1.102 1.102c-.285.533-.401 1.064-.415 2.255l-.001 4.227a1 1 0 0 1 -2 0v-3.98c0-1.67.174-2.551.652-3.445a4.634 4.634 0 0 1 1.923-1.923c.838-.448 1.665-.629 3.141-.65l5.42-.002c.962 0 2.209.054 3.29.652zm-17.175-.652a1 1 0 0 1 1 1 .992.992 0 0 1 -1 1h-2.122c-.174 0-.536.01-1.088.03-.717.05-1.115.169-1.522.386a2.635 2.635 0 0 0 -1.102 1.102c-.217.407-.335.805-.386 1.522l-.03 1.088v3.872a1 1 0 0 1 -2 0v-3.872c0-1.777.168-2.648.652-3.553a4.634 4.634 0 0 1 1.923-1.923c.852-.455 1.674-.631 3.248-.65zm11.25-13a5.5 5.5 0 1 0 0 11 5.5 5.5 0 0 0 0-11zm0 2a3.5 3.5 0 1 1 0 7 3.5 3.5 0 0 1 0-7zm-11-2c1.11 0 2.174.33 3.075.94a1 1 0 0 1 -1.12 1.657 3.5 3.5 0 1 0 -.016 5.817 1 1 0 1 1 1.111 1.663 5.5 5.5 0 1 1 -3.05-10.077z" fill="var(--db-icon-color, currentColor)" fill-rule="evenodd"/></svg>
