<svg id="icon" height="20" viewBox="0 0 20 20" width="20" xmlns="http://www.w3.org/2000/svg"><path d="m7 12c.51283584 0 1 .4216657 1 1v4c0 .5128358-.40773648 1-1 1h-4c-.49187851 0-1-.3935056-1-1v-4c0-.5128358.4195509-1 1-1zm9-10c1.0543618 0 2 .86370996 2 2v10c0 1.0543618-.8692873 2-2 2h-5.5c-.55228475 0-1-.4477153-1-1 0-.5128358.4111455-1 1-1h5.5v-10h-10v5.5c0 .5522847-.44771525 1-1 1-.51283584 0-1-.4275296-1-1v-5.5c0-1.0543618.83523787-2 2-2zm-10 12h-2v2h2z" fill="var(--db-icon-color, currentColor)" fill-rule="evenodd"/></svg>
