<svg id="icon" height="64" viewBox="0 0 64 64" width="64" xmlns="http://www.w3.org/2000/svg"><g fill="none" fill-rule="evenodd" transform="translate(4 4)"><path d="m35.653 15.001c2.402 0 3.647.33 4.75.919a6.452 6.452 0 0 1 2.677 2.678c.555 1.037.842 2.074.919 4.749.02.112.02 7.368 0 21.768l-.032 1.345c-.1 2.276-.436 3.578-1.154 4.919a8.269 8.269 0 0 1 -3.434 3.434c-1.267.678-2.767 1.187-6.635 1.187l-9.86-.001c-3.271.001-4.922-.468-6.263-1.186a8.269 8.269 0 0 1 -3.434-3.434c-.678-1.267-1.086-2.715-1.154-4.92a22.911 22.911 0 0 1 -.032-1.344v-21.768c.095-2.726.33-3.647.919-4.75a6.452 6.452 0 0 1 2.678-2.677c1.037-.555 2.395-.919 4.749-.919 2.538.013 12.717.013 15.306 0zm6.347 22.119c-5.307.586-9.972.88-13.999.88-4.026 0-8.692-.294-13.998-.88l-.003 3.88h2c1.598 0 3 1.325 3 3v1c0 1.598-1.293 3.001-3 3-.333-.003-.943-.003-1.83.001.11.755.223 1.392.78 2.435.558 1.042 1.275 1.938 2.614 2.614 1.34.675 2.405.921 5.32.95h9.86c2.607 0 3.921-.165 5.388-.796 1.466-.631 2.465-1.966 2.918-2.768.452-.803.654-1.572.78-2.435l-1.83-.001c-1.868.001-2.995-1.54-3-3 .005-.33 0-.6 0-1 0-1.777 1.436-3 3-3h2zm0 5.88h-2c-.541 0-1 .385-1 1v1c0 .56.459 1 1 1h1.982l.018-1.257zm-26 0c-.374.004-1.04.004-2 0l.01 1.791.008 1.208 1.982.001c.513 0 1-.44 1-1v-1c0-.513-.459-.993-1-1zm12-43c15.466 0 28 12.674 28 28.3a28.382 28.382 0 0 1 -4.4 15.235 1 1 0 1 1 -1.69-1.07 26.382 26.382 0 0 0 4.09-14.165c0-14.527-11.643-26.3-26-26.3s-26 11.773-26 26.3c0 5.037 1.401 9.862 4.002 14.025a1 1 0 0 1 -1.696 1.06 28.385 28.385 0 0 1 -4.306-15.085c0-15.626 12.534-28.3 28-28.3zm7.71 17.002c-1.71.016-13.71.016-15.468 0-1.95 0-3.013.313-3.7.681a4.452 4.452 0 0 0 -1.859 1.858c-.34.635-.67 1.459-.683 4.15a1206.72 1206.72 0 0 0 0 11.416c5.335.596 10 .893 14 .893 4.003 0 8.67-.297 14-.893v-11.415c0-2.692-.315-3.463-.683-4.15a4.452 4.452 0 0 0 -1.858-1.859c-.635-.34-1.51-.681-3.75-.681z" fill="var(--db-icon-color, currentColor)" fill-rule="nonzero"/><path d="m33 19a1 1 0 0 1 0 2c-3.331.002-6.664.002-10 0a1 1 0 0 1 -1-1c0-.513.394-1 1-1 3.331-.002 6.664-.002 10 0z" fill="var(--db-icon-pulse-color, #EC0016)"/></g></svg>
