<svg id="icon" height="64" viewBox="0 0 64 64" width="64" xmlns="http://www.w3.org/2000/svg"><g fill="none" fill-rule="evenodd" transform="translate(4 15)"><path d="m39 0a1 1 0 0 1 .949 1.315l-.889 2.676 3.266 9.336a11.022 11.022 0 0 1 2.674-.327c6.075 0 11 4.925 11 11s-4.925 11-11 11-11-4.925-11-11c0-3.258 1.426-6.286 3.853-8.362a1 1 0 1 1 1.3 1.52 8.976 8.976 0 0 0 -3.153 6.842 9 9 0 1 0 6.99-8.775l2.954 8.445a1 1 0 0 1 -.506 1.229l-.108.045a1 1 0 0 1 -1.274-.614l-6.997-20a1 1 0 0 1 -.005-.645l.56-1.685h-4.614a1 1 0 0 1 -.993-.883l-.007-.117a1 1 0 0 1 1-1zm-19.057 6.667 5.764 16.333h.744a3 3 0 0 0 2.632-1.559l.087-.172 5.924-12.692a1 1 0 0 1 1.812.846l-5.924 12.692a5 5 0 0 1 -4.53 2.885h-4.497c-.505 5.608-5.217 10-10.955 10-6.075 0-11-4.925-11-11s4.925-11 11-11c1.137 0 2.251.173 3.315.509a1 1 0 0 1 -.602 1.907 8.995 8.995 0 0 0 -2.713-.416 9 9 0 1 0 8.945 10h-8.945l-.052-.001-.049-.004.041.002h-.02a1.002 1.002 0 0 1 -.553-.223l-.007-.006-.087-.081-.017-.019a1.059 1.059 0 0 1 -.054-.065l-.013-.018-.013-.017a1.098 1.098 0 0 1 -.11-.212.94.94 0 0 1 -.064-.285l-.001-.03v-.07l.001-.04.001-.01v.009l.001-.019.008-.068a.988.988 0 0 1 .214-.476l.006-.007 9.47-11.366-1.645-4.661a1 1 0 1 1 1.886-.666zm.534 7.521-7.342 8.812h10.452zm1.523-12.188a1 1 0 0 1 0 2h-7a1 1 0 0 1 0-2z" fill="var(--db-icon-color, currentColor)" fill-rule="nonzero"/><path d="m42.149 4.064a1 1 0 0 1 1.287.585l1.257 3.351h5.188l1.225-2.447a1 1 0 0 1 1.234-.494l.107.047a1 1 0 0 1 .447 1.341l-1.5 3a1 1 0 0 1 -.894.553h-6.5a1 1 0 0 1 -.936-.649l-1.5-4a1 1 0 0 1 .585-1.287z" fill="var(--db-icon-pulse-color, #EC0016)"/></g></svg>
