<svg id="icon" height="64" viewBox="0 0 64 64" width="64" xmlns="http://www.w3.org/2000/svg"><g fill="none" fill-rule="evenodd" transform="translate(8 10)"><path d="m36 32a7 7 0 1 1 0 14 7 7 0 0 1 0-14zm-19 0a7 7 0 1 1 0 14 7 7 0 0 1 0-14zm19 2a5 5 0 1 0 0 10 5 5 0 0 0 0-10zm-19 0a5 5 0 1 0 0 10 5 5 0 0 0 0-10zm15.464-34c8.509.033 15.4 6.874 15.534 15.34l.002.834a13.138 13.138 0 0 1 -.515 3.487l-.217.664-.265.783-.4 1.15-.718 2.01-.432 1.166-.238.613a6.12 6.12 0 0 1 -5.372 3.943l-.251.01h-25.437a5.998 5.998 0 0 1 -5.551-3.773l-.088-.23-2.468-7.688a1 1 0 0 1 1.862-.72l.042.108 2.458 7.657a3.992 3.992 0 0 0 3.538 2.64l.21.006h25.415a4.12 4.12 0 0 0 3.701-2.488l.127-.314.26-.68.348-.946.5-1.39.595-1.702.334-.988.133-.41c.235-.817.374-1.658.416-2.5l.013-.42v-.511c.03-7.301-5.702-13.281-12.918-13.635l-.345-.012-3.781 12.29a1 1 0 0 1 -1.137.69l-.113-.028a1 1 0 0 1 -.69-1.137l.028-.113 4-13a1 1 0 0 1 .838-.699l.118-.007zm-24.467 5.999a1 1 0 0 1 .608.206l.1.087 7.001 7a1 1 0 0 1 -1.32 1.498l-.094-.083-6.712-6.709-6.579.002a1 1 0 0 1 -.994-.883l-.007-.117a1 1 0 0 1 .883-.993l.117-.007z" fill="var(--db-icon-color, currentColor)" fill-rule="nonzero"/><path d="m36.097 17.003a1 1 0 0 1 .116 1.993l-.116.007h-29.097a1 1 0 0 1 -.117-1.993l.117-.007z" fill="var(--db-icon-pulse-color, #EC0016)"/></g></svg>
