<svg id="icon" height="64" viewBox="0 0 64 64" width="64" xmlns="http://www.w3.org/2000/svg"><g fill="none" fill-rule="evenodd" transform="translate(8 16.25)"><path d="m23.984 28.546c-.752 0-1.473-.095-2.194-.345-5.672-1.849-9.933-3.885-12.785-6.142v-11.249c0-.668.193-1 .97-1.254l9.434-3.07c1.186-.387 1.9-1.356 3.165-3.04.374-.5.895-.69 1.41-.69.535 0 1.057.19 1.43.69 1.264 1.684 1.98 2.653 3.166 3.04l9.433 3.07c.777.254.97.586.97 1.254v11.25c-2.851 2.257-7.113 4.293-12.781 6.155a6.983 6.983 0 0 1 -2.218.332m.02-27.797c-1.088 0-2.187.381-3.101 1.576l-.711.93c-.636.832-.864 1.136-1.504 1.348l-9.84 3.26c-.44-2.477-2.162-4.545-4.512-5.39a1.138 1.138 0 0 0 -.314-.064c-.501 0-1.034.408-1.034 1.003 0 .407.282.784.689.94a5.021 5.021 0 0 1 3.228 4.011c.063.471.094.91.094 1.38v10.591c-2.068-1.88-3.075-3.394-3.698-5.014-.295-.768-.154-.465-1.003-3.885-.25-1.203-.521-1.849-1.284-1.849a.981.981 0 0 0 -.972 1.253c.157.501.29.97.408 1.473l.595 2.538c.8 3.415 3.224 6.155 6.299 8.462 3.7 2.775 8.179 4.94 13.85 6.8.91.313 1.85.438 2.79.438.96 0 1.9-.125 2.813-.427 5.669-1.872 10.147-4.036 13.848-6.81 3.075-2.308 5.498-5.048 6.298-8.463l.596-2.538c.117-.503.25-.972.412-1.472a.987.987 0 0 0 -.976-1.254c-.763 0-1.034.646-1.32 1.84-.813 3.43-.672 3.126-.967 3.894-.623 1.62-1.63 3.134-3.7 5.014v-10.592c0-.47.033-.908.097-1.378a5.036 5.036 0 0 1 3.224-4.018c.41-.15.69-.527.69-.934 0-.595-.531-1.003-1.032-1.003-.095 0-.22.032-.314.065-2.35.844-4.074 2.912-4.512 5.388l-9.841-3.259c-.641-.212-.868-.516-1.504-1.348l-.712-.93c-.912-1.195-2.011-1.576-3.079-1.576" fill="#282D37" style="fill: currentColor;fill: var(--db-icon-color, currentColor)" fill-rule="nonzero"/><path d="m24 20.969a1 1 0 0 1 .994.883l.006.117v3.25a1 1 0 0 1 -1.993.116l-.007-.115v-3.25a1 1 0 0 1 1-1zm0-15.219a1 1 0 0 1 .994.883l.006.117v3.657a1 1 0 0 1 -1.993.117l-.007-.117v-3.657a1 1 0 0 1 1-1zm-7.982 12.656v-1.552h1.632a.512.512 0 1 0 0-1.024h-1.632v-1.456h2.028a.54.54 0 1 0 0-1.08h-2.936a.5.5 0 0 0 -.5.5v4.612a.704.704 0 0 0 1.408 0zm4.944 0v-1.552h1.632a.512.512 0 1 0 0-1.024h-1.633v-1.456h2.03a.54.54 0 1 0 0-1.08h-2.937a.5.5 0 0 0 -.5.5v4.612a.704.704 0 0 0 1.408 0zm4.923 0v-1.506l.117.016c.15.018.306.03.468.036l.247.005c.704 0 1.242-.16 1.612-.476.37-.318.556-.778.556-1.38 0-.582-.178-1.028-.536-1.34-.357-.312-.87-.468-1.536-.468h-1.836a.5.5 0 0 0 -.5.5v4.612a.704.704 0 0 0 1.408 0zm.704-2.4a6.01 6.01 0 0 1 -.436-.016 2.844 2.844 0 0 1 -.372-.048l.103.019v-1.643h.801c.25 0 .439.043.57.13l.07.058c.128.125.192.334.192.628 0 .309-.072.532-.216.668s-.381.204-.712.204zm6.799 2.584a.47.47 0 0 0 -.467-.52h-1.778l.17-.154c.319-.29.576-.535.774-.733l.111-.113a3.67 3.67 0 0 0 .652-.904c.158-.315.236-.667.236-1.056 0-.587-.161-1.032-.484-1.336-.322-.304-.796-.456-1.42-.456-.314 0-.608.037-.88.112-.1.027-.223.074-.37.14a.5.5 0 0 0 -.262.618l.01.03c.08.228.33.35.56.27l.004-.001.038-.013c.206-.067.418-.1.636-.1.278 0 .48.065.608.196.128.13.192.334.192.612 0 .304-.064.589-.192.856a3.386 3.386 0 0 1 -.56.804c-.245.269-.584.6-1.016.996l-.276.248a1.095 1.095 0 0 0 -.23.28.5.5 0 0 0 .435.744h2.93a.582.582 0 0 0 .579-.52z" fill="#EC0016" style="fill:#EC0016;fill: var(--db-icon-pulse-color, #EC0016)"/></g></svg>
