<svg id="icon" height="32" viewBox="0 0 32 32" width="32" xmlns="http://www.w3.org/2000/svg"><path d="m20.875 18a9 9 0 0 1 5.121 1.6c1.002.693 1.717 1.226 2.145 1.6a1 1 0 0 1 .2 1.4c-.305.408-.919.538-1.295.269-.25-.18-.907-.669-1.971-1.469a7 7 0 0 0 -3.898-1.393l-3.574-.007a1.64 1.64 0 0 0 -1.591 1.243.618.618 0 0 0 .517.757h4.012a1 1 0 0 1 1 1c0 .513-.413.995-1 1h-3.94c-.86-.012-1.202-.185-3.178-1-.54-.223-1.512-.61-2.916-1.16a3.492 3.492 0 0 0 -3.366.46c-.156.117-.232.48.092.615.209.086 2.65.974 7.326 2.664a7 7 0 0 0 2.043.412l5.147.009a9 9 0 0 1 1.415.112l4.574.907a1 1 0 0 1 .784 1.177c-.1.503-.594.889-1.177.785l-4.223-.845a7 7 0 0 0 -1.027-.127l-5.145-.009a9 9 0 0 1 -2.704-.416l-7.698-2.79a2.353 2.353 0 0 1 -.608-4.094 5.492 5.492 0 0 1 5.05-.81l3.023 1.174c.234-1.75 1.877-3.064 3.527-3.064h3.334zm-10.875-16a8 8 0 1 1 0 16 8 8 0 0 1 0-16zm0 2a6 6 0 1 0 0 12 6 6 0 0 0 0-12zm.558 2c.566 0 1.077.074 1.533.222.304.104.609.42.504.827-.146.485-.624.553-.955.467a3.792 3.792 0 0 0 -.963-.13c-.491 0-.845.102-1.061.308-.217.206-.368.547-.455 1.023h2.003v.91h-2.024v.714h2.024v.91h-2.004c.065.505.21.855.433 1.05.224.194.592.292 1.104.292.326 0 1.2-.2 1.276-.215.248-.052.551.111.654.38.2.518-.256.787-.392.863-.137.076-.515.208-.829.276-.313.069-.63.103-.947.103-.685 0-1.246-.097-1.683-.292a2.211 2.211 0 0 1 -1.018-.893c-.241-.4-.41-.922-.503-1.565h-.715v-.909h.682v-.714h-.682v-.91h.715c.123-.657.31-1.182.563-1.575a2.224 2.224 0 0 1 1.04-.866c.44-.184 1.006-.276 1.699-.276z" fill="#282D37" style="fill: currentColor;fill: var(--db-icon-color, currentColor)" fill-rule="evenodd"/></svg>
