<svg id="icon" height="32" viewBox="0 0 32 32" width="32" xmlns="http://www.w3.org/2000/svg"><path d="m16.994 4c1.442 0 3.557.32 3.557 1.603 0 .608-.448.865-.961.865-.641 0-1.314-.417-2.693-.417-1.923 0-2.852.77-2.852 2.18 0 1.602 1.25 2.211 2.917 3.013l1.73.833c1.379.673 3.558 1.699 3.558 4.647 0 1.731-.77 3.141-2.724 3.814.705.802.897 1.763.897 2.725 0 3.109-1.987 4.743-5.288 4.743-1.987 0-4.584-.577-4.584-1.89 0-.448.289-.93.93-.93.801 0 1.602.769 3.461.769 1.955 0 3.013-.685 3.013-2.212 0-1.153-.577-1.955-1.378-2.371l-2.564-1.314c-2.34-1.218-4.263-2.18-4.263-4.744 0-2.02 1.186-3.173 3.045-4.006-.737-.802-1.09-1.731-1.09-2.853 0-2.724 1.955-4.455 5.289-4.455zm-2.34 8.718c-1.667.224-2.66 1.058-2.66 2.275 0 1.571 1.57 2.308 2.211 2.597l3.365 1.57c1.603-.352 2.276-1.058 2.276-2.34 0-1.41-.833-1.859-1.25-2.083l-1.667-.897z" fill="#282D37" style="fill: currentColor;fill: var(--db-icon-color, currentColor)" fill-rule="evenodd"/></svg>