<svg id="icon" height="24" viewBox="0 0 24 24" width="24" xmlns="http://www.w3.org/2000/svg"><path d="m11.96 8.981a1 1 0 1 1 0 2 2.5 2.5 0 0 0 -2.495 2.336l-.006 4.969a2.5 2.5 0 0 0 4.995.164l.005-2.264a1 1 0 0 1 1.994-.117l.006 2.217a4.5 4.5 0 0 1 -8.995.212l-.004-5.018a4.5 4.5 0 0 1 4.5-4.5zm0-7.795a4.5 4.5 0 0 1 4.494 4.288l.005 5.007a4.5 4.5 0 0 1 -4.5 4.5 1 1 0 0 1 -1-1c0-.513.385-.992.884-.993 1.371-.003 2.526-1.038 2.611-2.342l.005-4.96a2.5 2.5 0 0 0 -4.994-.165l-.006 2.265a1 1 0 0 1 -1.993.116l-.007-2.216a4.5 4.5 0 0 1 4.5-4.5z" fill="#282D37" style="fill: currentColor;fill: var(--db-icon-color, currentColor)" fill-rule="evenodd" transform="matrix(.70710678 .70710678 -.70710678 .70710678 11.978385 -4.946379)"/></svg>
