<svg id="icon" height="20" viewBox="0 0 20 20" width="20" xmlns="http://www.w3.org/2000/svg"><path d="m16 13c1.1045695 0 2 .8954305 2 2s-.8954305 2-2 2h-12c-1.1045695 0-2-.8954305-2-2s.8954305-2 2-2zm-12 1c-.55228475 0-1 .4477153-1 1s.44771525 1 1 1 1-.4477153 1-1-.44771525-1-1-1zm12-6c1.1045695 0 2 .8954305 2 2s-.8954305 2-2 2h-12c-1.1045695 0-2-.8954305-2-2s.8954305-2 2-2zm-12 1c-.55228475 0-1 .44771525-1 1 0 .5522847.44771525 1 1 1s1-.4477153 1-1c0-.55228475-.44771525-1-1-1zm12-6c1.1045695 0 2 .8954305 2 2s-.8954305 2-2 2h-12c-1.1045695 0-2-.8954305-2-2s.8954305-2 2-2zm-12 1c-.55228475 0-1 .44771525-1 1s.44771525 1 1 1 1-.44771525 1-1-.44771525-1-1-1z" fill="var(--db-icon-color, currentColor)" fill-rule="evenodd"/></svg>
