<svg id="icon" height="32" viewBox="0 0 32 32" width="32" xmlns="http://www.w3.org/2000/svg"><path d="m18.61 2c3.9944658 0 7.2571346 3.10812128 7.3860436 7.00071736l.0039564 14.99928264c0 3.2386528-2.5656793 5.8775834-5.7750689 5.9958619l-8.2249311.0041381c-3.23829015 0-5.87756691-2.5653248-5.99586136-5.7750447l-.00413864-14.9849553c0-3.92364767 3.1827795-7.11024191 7.1463756-7.23613622zm-5.22 2c-2.907354 0-5.26923645 2.23550102-5.38551348 5.0244057l-.00448652 14.9755943c0 2.1423893 1.67754766 3.9736475 4 4.000039.0115902-.6378945.5945679-1.0328626 1.1413106-.9548188.9566559.1365559 1.9094391.2047798 2.8586894.2047798.9556375 0 1.908111-.0682017 2.857781-.2046498.5466709-.0785453 1.1293173.3148157 1.140219.9546888 2.1441494 0 3.8930761-1.6838194 3.9971046-3.8003816l.0048954-14.9596574c0-2.81617844-2.2891986-5.12208392-5.1674619-5.23561908zm-.39 19c.5522847 0 1 .4477153 1 1 0 .5128358-.4384893 1-1 1h-2c-.5522847 0-1-.4477153-1-1 0-.5128358.4072685-1 1-.9932723zm8 0c.5522847 0 1 .4477153 1 1 0 .5128358-.4239022 1-1 1h-2c-.5522847 0-1-.4477153-1-1 0-.5128358.4113611-.9965479 1-1zm-2.315561-17c1.7714502 0 3.2230183 1.37395907 3.3095679 3.16173939-.3027962 4.77401481-.4846754 7.72364731-.5456373 8.84889761-.091443 1.6878755-1.2544393 2.893462-2.826262 2.9842935l-5.1053437.0050695c-1.6007344 0-2.9087149-1.2503006-2.9958534-2.7728801l-.5209102-8.95491759c.001395-1.74872554 1.3893842-3.17102579 3.1288721-3.26703613zm-5.367895 2c-.6846641 0-1.2422119.50513515-1.3111194 1.09512213-.0069421.322965.1649496 3.33006397.5156749 9.02129687.0526466.4590521.4173316.8234971.8784898.8768493l5.0465881.0067317c.5152822 0 .9399927-.3887209.9975741-.936408l.5563238-8.78254714c.0025402-.65914854-.5121261-1.2083119-1.1801043-1.27438252z" fill="var(--db-icon-color, currentColor)" fill-rule="evenodd"/></svg>
