<svg id="icon" height="32" viewBox="0 0 32 32" width="32" xmlns="http://www.w3.org/2000/svg"><path d="m24.5 2c.221 0 .494.118.668.25l4.54 4.543c.155.156.292.475.292.69v19.517c0 1.598-1.424 3-3 3h-22c-1.598 0-3-1.427-3-3v-22c0-1.598 1.351-3 3-3zm-16.5 2h-3c-.513 0-1 .443-1 1v22c0 .513.505 1 1 1h3v-11c0-.513.482-1 1-1h14c.513 0 1 .497 1 1v11h3c.513 0 1-.508 1-1v-19.085l-3.915-3.915h-4.085v5c0 .513-.498 1-1 1h-10c-.513 0-1-.471-1-1zm14 14h-12v10h12zm-4-14h-8v4h8z" fill="#282D37" style="fill: currentColor;fill: var(--db-icon-color, currentColor)" fill-rule="evenodd"/></svg>