<svg id="icon" height="24" viewBox="0 0 24 24" width="24" xmlns="http://www.w3.org/2000/svg"><path d="m10 7.25a1 1 0 0 1 1 1c0 .513-.478 1-1 1h-2.994c-.004.668-.006 2.084-.006 4.25 0 .243.229.504.5.504h.499c.513 0 1.056.495 1 1v5.996a1 1 0 0 1 -1 1c-.513 0-.993-.424-1-1-.001-.85.007-3.238-.001-5.052-1.05-.242-1.998-1.163-1.998-2.448v-4.25c0-1.054.975-2 2-2 1-.002 2-.002 3 0zm7 2c1.054 0 2 .857 2 2v3.25c0 1.22-.99 2.277-2 2.435v4.065c0 .513-.487 1-1 1s-1-.462-1-1c-.002-1.666-.002-3.333 0-5 0-.513.402-1 1-1h.533c.236 0 .467-.234.467-.5v-3.25h-2a1 1 0 0 1 -1-1c0-.513.465-1 1-1zm-4.5 6.75a1.5 1.5 0 0 1 1.5 1.5v1a1.5 1.5 0 0 1 -1 1.414v1.086a1 1 0 0 1 -2 0v-1.085a1.5 1.5 0 0 1 -1-1.415v-1a1.5 1.5 0 0 1 1.5-1.5zm-2-2.5a1.5 1.5 0 1 0 3 0 1.5 1.5 0 0 0 -3 0zm-3.5-9.5a2 2 0 1 0 4 0 2 2 0 0 0 -4 0zm6 2a2 2 0 1 0 4 0 2 2 0 0 0 -4 0z" fill="#282D37" style="fill: currentColor;fill: var(--db-icon-color, currentColor)" fill-rule="evenodd"/></svg>
