<svg id="icon" height="32" viewBox="0 0 32 32" width="32" xmlns="http://www.w3.org/2000/svg"><path d="m22.608 29.25c.908 0 1.642-.734 1.642-1.608a1.64 1.64 0 0 0 -1.642-1.642c-.91 0-1.608.734-1.608 1.642 0 .874.699 1.608 1.608 1.608zm-11.5 0c.908 0 1.642-.734 1.642-1.608a1.64 1.64 0 0 0 -1.642-1.642c-.91 0-1.608.734-1.608 1.642 0 .874.699 1.608 1.608 1.608zm-6.676-26.25c1.379 0 2.581.962 2.838 2.31l.159.705h19.05c1.283 0 2.213 1.219 1.957 2.405l-1.732 6.794c-.257 1.187-1.219 2.085-2.406 2.31l-14.175 1.506.484 2.24c.096.448.513.737.962.737h11.928a1 1 0 0 1 .994.994 1 1 0 0 1 -.994.995h-11.913c-1.54 0-2.662-.963-2.918-2.31l-3.24-15.735c-.156-.674-.577-.963-.994-.963h-1.438a1 1 0 0 1 -.994-.994 1 1 0 0 1 .994-.994zm22.047 5.003h-18.647l1.86 9.04 14.35-1.508c.353-.096.61-.385.705-.77z" fill="var(--db-icon-color, currentColor)" fill-rule="evenodd"/></svg>
