<svg id="icon" height="32" viewBox="0 0 32 32" width="32" xmlns="http://www.w3.org/2000/svg"><path d="m16 23c.513 0 1 .417 1 1v1.72l1.235-.62a1 1 0 0 1 1.342.445c.23.459.067 1.065-.445 1.343l-2.682 1.346a1.05 1.05 0 0 1 -.891 0l-2.687-1.346a1 1 0 0 1 -.445-1.342c.23-.458.838-.708 1.342-.445l1.23.616.001-1.717a1 1 0 0 1 1-1zm11.667-4.333.002 3.318c0 .366-.211.722-.551.894l-3.41 1.712a1 1 0 0 1 -1.343-.446 1.015 1.015 0 0 1 .446-1.342l1.613-.812-.982-.66a1 1 0 0 1 -.271-1.389c.286-.425.87-.591 1.388-.27l1.108.745v-1.75c0-.55.466-1 .999-1s1 .44 1 1zm-22.334-1a1 1 0 0 1 1 1v1.75l1.108-.746a1 1 0 0 1 1.388.27c.287.426.208 1.068-.27 1.388l-.984.662 1.58.794a.995.995 0 0 1 .446 1.342.983.983 0 0 1 -1.338.445l-3.378-1.692c-.3-.15-.552-.49-.552-.894v-3.318a1 1 0 0 1 1-1zm14.517-5.905c1.569 0 2.353.69 2.353 2.07 0 .565-.139.998-.417 1.3-.206.218-.513.388-.921.51.27.144.496.398.676.76.477.988.835 1.726 1.074 2.216.14.287-.095.62-.632.62-.267 0-.734-.08-.906-.425l-.992-2.078c-.134-.283-.265-.474-.392-.573-.111-.087-.29-.13-.535-.13h-.503v2.424a.782.782 0 1 1 -1.564 0v-6.071c0-.344.28-.623.623-.623zm-.167 1.175h-1.031v2.031h1.021c.376 0 .64-.085.795-.255.127-.138.19-.382.19-.732 0-.285-.025-.494-.078-.626-.108-.279-.407-.418-.897-.418zm-10.08-5.111c.226.46.067 1.085-.447 1.34l-1.64.802 1.043.703c.464.32.583.933.25 1.428-.334.496-.912.514-1.368.231l-1.109-.747.001 1.75c0 .577-.487 1-1 1s-1-.411-1-.999v-3.402c0-.359.222-.739.558-.897l3.372-1.665a1 1 0 0 1 1.34.455zm14.129-.455 3.38 1.664c.338.174.548.49.555.897v3.402a1 1 0 0 1 -2 0v-1.752l-1.108.747a1 1 0 0 1 -1.117-1.658l1.041-.703-1.636-.807c-.558-.286-.7-.885-.42-1.413.282-.527.887-.566 1.305-.377zm-10.856 4.391c.327 0 .623.19.746.514l2.379 6.308c.133.353.07.654-.56.654-.56 0-.768-.14-.91-.49l-.443-1.099h-2.775l-.373 1.005c-.157.423-.373.584-.933.584s-.695-.278-.56-.63l2.426-6.332c.106-.276.349-.514.653-.514zm-.125 1.997-.991 2.775h1.982zm3.693-9.987 2.714 1.34a1 1 0 0 1 .454 1.339c-.227.46-.81.706-1.339.454l-1.274-.629.001 1.224a1 1 0 0 1 -1 1 .99.99 0 0 1 -1-1v-1.223l-1.204.595a.987.987 0 0 1 -1.352-.464c-.218-.467-.119-1.02.467-1.33l2.648-1.306c.291-.13.547-.142.885 0z" fill="var(--db-icon-color, currentColor)" fill-rule="evenodd"/></svg>
