<svg id="icon" height="64" viewBox="0 0 64 64" width="64" xmlns="http://www.w3.org/2000/svg"><g fill="none" fill-rule="evenodd" transform="translate(5 3)"><path d="m17.032 20.078a1 1 0 0 1 1 1v5.048h1.5v-2.7a1 1 0 0 1 2 0v2.703l.085.004a1.62 1.62 0 0 1 1.471 1.613v3.308h8.046a1 1 0 0 1 0 2h-.102v2l.117.007a1 1 0 0 1 .883.993l-.001 19.083 1.051.003a1 1 0 0 1 .117 1.993l-.117.007-32.05-.086a1 1 0 0 1 -.117-1.993l.117-.007 1 .003v-18.003h-1.032a1 1 0 0 1 0-2h2.032v-2h-.5a1 1 0 0 1 0-2h8.444v-3.308c0-.873.69-1.585 1.556-1.619v-2.701a1 1 0 0 1 2 0v2.7h1.5v-5.048a1 1 0 0 1 1-1zm18.974-20.078a1 1 0 0 1 1 1v4.667l.408.001a1 1 0 0 1 .768.356l1.916 2.292a1 1 0 0 1 .234.642v1.75a1 1 0 0 1 -.2.6l-.986 1.288a.888.888 0 0 0 -.178.632l1.536 15.072h1.704a1 1 0 0 1 .928 1.37l-1.6 3.978.63 2.422h1.866a1 1 0 0 1 .93 1.37l-1.711 4.28 10.637 10.852a1 1 0 0 1 .286.698v2.8a1 1 0 0 1 -1 1l-7.718.013-.59.009-.118.01h-.112a1 1 0 0 1 -.894-.96l-.044-.257-.058-.28-.081-.347-.07-.263-.082-.286-.096-.305-.111-.322-.062-.167-.135-.343-.153-.354c-.027-.06-.054-.12-.083-.18l-.18-.363c-1.14-2.2-3.337-4.602-7.501-4.611a1 1 0 0 1 -.117-1.993l.117-.007c4.875.011 7.562 2.712 9.018 5.292l.21.386c.066.128.13.255.19.382l.175.376c.028.062.055.123.08.185l.151.362.07.178.127.345.113.33.1.315.126.436.1.386.028.117.338-.017.8-.025 1.546-.022 1.641-.008 2.275-.002v-1.4l-10.473-10.684h-6.655a1 1 0 0 1 0-2h6.34l1.166-2.918h-1.164a1 1 0 0 1 -.968-.748l-.906-3.49a1 1 0 0 1 .038-.624l1.164-2.91h-1.128a1 1 0 0 1 -1-.898l-1.628-15.972a2.88 2.88 0 0 1 .578-2.048l.782-1.022v-1.044l-1.384-1.654h-1.886l-1.37 1.622v1.082l.782 1.064c.423.576.617 1.289.544 2l-1.56 12.8a1 1 0 0 1 -1.984-.242l1.57-12.782a.89.89 0 0 0 -.17-.6l-.976-1.328a1 1 0 0 1 -.2-.6v-1.758a1 1 0 0 1 .236-.646l1.91-2.258a1 1 0 0 1 .766-.354l.408-.001v-4.667a1 1 0 0 1 1-1zm-5.975 43.024h-2.999v12.1l2.999.008zm-4.999 0h-3v12.087l3 .008zm-5 0h-6v12.065l6 .016zm-8 0h-3v12.051l3 .008zm-5 0h-3v12.038l3 .008zm14.056-14.898h-8.112v3.928a1 1 0 0 1 -1 1h-6.944v2.986a1 1 0 0 1 -.588.911.997.997 0 0 1 -.411.102l-.001 3.971h25.999v-3.984l-.116-.007a1 1 0 0 1 -.883-.993v-2.986h-6.944a1 1 0 0 1 -1-1z" fill="#282D37" style="fill: currentColor;fill: var(--db-icon-color, currentColor)" fill-rule="nonzero"/><path d="m33.064 37.054-24.968-.082a1 1 0 0 1 0-2l24.966.082a1 1 0 0 1 0 2z" fill="#EC0016" style="fill:#EC0016;fill: var(--db-icon-pulse-color, #EC0016)"/></g></svg>
