<svg id="icon" height="32" viewBox="0 0 32 32" width="32" xmlns="http://www.w3.org/2000/svg"><path d="m16 2c7.719 0 14 6.281 14 14s-6.281 14-14 14-14-6.281-14-14 6.281-14 14-14zm-.6 11.12c.208-.05.414-.114.597-.112.559.007 1.003.426 1.003.992v7h2c.563 0 1 .438 1 1 0 .563-.438 1-1 1h-6c-.563 0-1-.438-1-1 0-.563.438-1 1-1h2v-5.75h-1.75c-.563 0-1-.438-1-1 0-.563.438-1 1-1h1.625l.526-.13zm.444-5.026a1.5 1.5 0 0 1 1.5 1.5c0 .844-.657 1.5-1.5 1.5a1.5 1.5 0 0 1 -1.5-1.5c0-.813.687-1.5 1.5-1.5z" fill="#282D37" style="fill: currentColor;fill: var(--db-icon-color, currentColor)" fill-rule="evenodd"/></svg>
