<svg id="icon" height="32" viewBox="0 0 32 32" width="32" xmlns="http://www.w3.org/2000/svg"><path d="m16.451 11.453a1 1 0 0 1 .117 1.993l-.615.007a4 4 0 0 0 -3.995 3.8l-.005 8.2a4 4 0 0 0 7.995.2l.005-3.2a1 1 0 0 1 1.993-.117l.007 3.117a6 6 0 0 1 -11.996.225l-.004-8.225a6 6 0 0 1 5.775-5.996zm-.498-11a6 6 0 0 1 5.996 5.775l.004 8.225a6 6 0 0 1 -5.775 5.996l-.727.004a1 1 0 0 1 -.116-1.993l.618-.007a4 4 0 0 0 3.995-3.8l.005-8.2a4 4 0 0 0 -7.995-.2l-.005 3.2a1 1 0 0 1 -1.993.116l-.007-3.116a6 6 0 0 1 6-6z" fill="#282D37" style="fill: currentColor;fill: var(--db-icon-color, currentColor)" fill-rule="evenodd" transform="matrix(.70710678 .70710678 -.70710678 .70710678 15.953 -6.607949)"/></svg>
