<svg id="icon" height="64" viewBox="0 0 64 64" width="64" xmlns="http://www.w3.org/2000/svg"><g fill="none" fill-rule="evenodd" transform="translate(11 4)"><path d="m25 0a5 5 0 0 1 4.995 4.783l.005.217v9a1 1 0 0 1 -1.993.117l-.007-.117v-9a3 3 0 0 0 -2.824-2.995l-.176-.005h-2v.034c0 .715-.258 1.404-.723 1.94l-.146.157a2.966 2.966 0 0 1 -1.883.861l-.214.008h-10.068a2.966 2.966 0 0 1 -2.961-2.791l-.005-.209h-2a3 3 0 0 0 -2.995 2.824l-.005.176v46a3 3 0 0 0 2.824 2.995l.176.005h20a3 3 0 0 0 2.995-2.824l.005-.176v-6a1 1 0 0 1 1.993-.117l.007.117v6a5 5 0 0 1 -4.783 4.995l-.217.005h-20a5 5 0 0 1 -4.995-4.783l-.005-.217v-46a5 5 0 0 1 4.783-4.995l.217-.005zm-4 50a1 1 0 0 1 .117 1.993l-.117.007h-12a1 1 0 0 1 -.117-1.993l.117-.007zm13.568-35.061 1.998.068a1.994 1.994 0 0 1 1.931 2.067l-.045 1.343c-.032.906.123 1.849.532 2.708l1.427 3.081a7.855 7.855 0 0 1 .721 3.589l-.456 13.368a2.014 2.014 0 0 1 -2.068 1.93l-3.997-.136a1.006 1.006 0 0 1 -.964-1.034.987.987 0 0 1 1.032-.965l3.998.136.456-13.367a6.022 6.022 0 0 0 -.533-2.676l-1.425-3.113a7.867 7.867 0 0 1 -.722-3.589l.045-1.343-1.997-.069-.046 1.344a7.86 7.86 0 0 1 -.966 3.531l-1.634 3.009c-.169.338-.55.512-.893.501a.988.988 0 0 1 -.965-1.034c.005-.156.04-.28.108-.434l1.633-2.977c.467-.829.687-1.759.718-2.665l.044-1.343a1.994 1.994 0 0 1 2.068-1.93zm-8.478 9.281.12.001a.836.836 0 0 1 .522 1.42c-.533.535-.783 1.21-.814 1.964l-.003.208.005.161.19-.113.143-.078.144-.074.296-.134a5.778 5.778 0 0 1 1.997-.452l.299-.006.289.008a6.415 6.415 0 0 1 2.605.714.838.838 0 0 1 .295 1.225 4.073 4.073 0 0 0 -.439 3.984 4.074 4.074 0 0 0 3.166 2.454.833.833 0 0 1 .677 1.065c-.54 1.795-1.783 3.221-3.415 3.914a5.767 5.767 0 0 1 -1.744.435l-.208.012-.154.142a5.777 5.777 0 0 1 -.984.687l-.266.139-.275.125a5.77 5.77 0 0 1 -1.704.43l-.297.02-.288.006a6.365 6.365 0 0 1 -2.897-.722.834.834 0 0 1 -.298-1.224c.836-1.174 1-2.662.439-3.985a4.073 4.073 0 0 0 -3.172-2.453.832.832 0 0 1 -.672-1.066c.538-1.792 1.783-3.22 3.413-3.912a5.707 5.707 0 0 1 1.211-.364l.052-.009-.003-.025c-.218-1.408.006-2.758.882-3.862l.172-.204.177-.188a.822.822 0 0 1 .413-.224zm2.838 4.558-.233.009a4.147 4.147 0 0 0 -2.728 1.276.828.828 0 0 1 -.61.26 4.13 4.13 0 0 0 -1.645.326 4.221 4.221 0 0 0 -2.043 1.85l-.099.186.216.077a5.72 5.72 0 0 1 3.132 2.893l.108.24a5.733 5.733 0 0 1 .01 4.483l-.105.232c.368.115.734.18 1.095.2l.27.006.238-.009a4.15 4.15 0 0 0 2.727-1.275.83.83 0 0 1 .61-.26 4.134 4.134 0 0 0 1.645-.326 4.219 4.219 0 0 0 2.044-1.851l.098-.187-.214-.075a5.72 5.72 0 0 1 -3.132-2.894l-.108-.24a5.723 5.723 0 0 1 -.012-4.482l.105-.234a4.64 4.64 0 0 0 -.82-.175l-.27-.024zm-7.928-26.778h-12l.006.147a.967.967 0 0 0 .738.827l.11.02.112.006h10.068a.966.966 0 0 0 .958-.839l.008-.127z" fill="var(--db-icon-color, currentColor)" fill-rule="nonzero"/><path d="m7 25.063c0 .508.507.859.995.859a.926.926 0 0 0 .683-.273l2.341-2.361c.196-.215.566-.288.781-.288h8.82c1.287 0 2.38-1.234 2.38-2.541v-8.156c0-1.25-1.151-2.303-2.478-2.303h-10.946c-1.483 0-2.576 1.151-2.576 2.459zm2.01-2.536-.01-10.527h12v9h-9.337c-.8 0-1.424.298-1.97.844zm1.99-5.527v2h8v-2zm0-3v2l8-.01v-1.99z" fill="var(--db-icon-pulse-color, #EC0016)"/></g></svg>
