<svg id="icon" height="64" viewBox="0 0 64 64" width="64" xmlns="http://www.w3.org/2000/svg"><g fill="none" fill-rule="evenodd" transform="translate(8 15.56)"><path d="m28.611 1.797c5.6-1.78 11.502-2.093 16.806-1.565l.551.059.73.091.473.072a1 1 0 0 1 .795 1.246c-4.002 14.848-10.284 23.663-17.919 27.04-5.85 2.587-12.231 1.575-15.715-1.557a1 1 0 0 1 1.337-1.487c2.898 2.605 8.44 3.483 13.57 1.214 6.7-2.964 12.41-10.69 16.27-23.862l.221-.771-.244-.028-.267-.027c-5.057-.503-10.7-.204-16.002 1.481-7.186 2.285-12.51 6.803-15.282 14.092a1 1 0 1 1 -1.87-.711c3.005-7.9 8.812-12.828 16.546-15.287z" fill="var(--db-icon-color, currentColor)" fill-rule="nonzero"/><path d="m36.252 10.776a1 1 0 0 1 1.497 1.327l-.129.142-.288.312-.53.556-.593.604-.317.317-.675.659a69.088 69.088 0 0 1 -6.665 5.653c-7.674 5.7-15.422 8.889-22.75 8.215a19.522 19.522 0 0 1 -5.156-1.186 1 1 0 1 1 .709-1.87c1.495.566 3.039.918 4.63 1.064 6.735.62 14.058-2.394 21.374-7.828a67.107 67.107 0 0 0 7.125-6.127l.6-.603.546-.564.57-.613z" fill="var(--db-icon-pulse-color, #EC0016)"/></g></svg>
