<svg id="icon" height="24" viewBox="0 0 24 24" width="24" xmlns="http://www.w3.org/2000/svg"><path d="m19.5 2a2.497 2.497 0 0 1 2.5 2.5v3c0 .563-.186 1.083-.5 1.501.275.365.5.875.5 1.499v3c0 .563-.186 1.083-.5 1.501.275.365.5.874.5 1.499v3c0 1.325-1.058 2.5-2.5 2.5h-15a2.502 2.502 0 0 1 -2.5-2.5v-3c0-.563.186-1.082.5-1.5a2.551 2.551 0 0 1 -.5-1.5v-3c0-.563.186-1.082.5-1.5a2.523 2.523 0 0 1 -.5-1.5v-3c0-1.325 1.07-2.5 2.5-2.5zm0 14h-15c-.245 0-.5.19-.5.5v3c0 .245.206.5.5.5h15c.245 0 .5-.21.5-.5v-3a.5.5 0 0 0 -.5-.5zm-13.5 1a1 1 0 1 1 0 2 1 1 0 0 1 0-2zm13.5-7h-15a.505.505 0 0 0 -.5.5v3c0 .245.208.5.5.5h15c.245 0 .5-.207.5-.5v-3a.5.5 0 0 0 -.5-.5zm-13.5 1a1 1 0 1 1 0 2 1 1 0 0 1 0-2zm13.5-7h-15a.507.507 0 0 0 -.5.5v3c0 .245.218.5.5.5h15c.245 0 .5-.204.5-.5v-3a.5.5 0 0 0 -.5-.5zm-13.5 1a1 1 0 1 1 0 2 1 1 0 0 1 0-2z" fill="#282D37" style="fill: currentColor;fill: var(--db-icon-color, currentColor)" fill-rule="evenodd"/></svg>
