<svg id="icon" height="64" viewBox="0 0 64 64" width="64" xmlns="http://www.w3.org/2000/svg"><g fill="none" fill-rule="evenodd" transform="translate(8 8)"><path d="m47.456 31.44c-1.08-1.715-2.758-2.17-4.378-1.193l-6.3 3.771a1 1 0 0 0 1.028 1.717l6.303-3.772c.57-.347 1.07-.385 1.63.504.545.959.15 1.336-.438 1.744l-7.563 4.576c-2.403 1.505-4.725 2.521-5.511 2.426a.998.998 0 0 0 -.197-.005l-18.924 1.373c-.078.006-.145.038-.217.06l-.438-.713c-.01-.019-.01-.041-.021-.06l-5.231-8.612 2.484-1.545c2.73-1.968 6.765-1.903 9.383.149 1.939 1.522 3.238 1.85 4.595 1.871l8.244.107c.34.006.847.305.854.93.004.405-.155.65-.29.783a.878.878 0 0 1 -.544.238l-9.414-.056h-.006a1 1 0 0 0 -.006 2l9.404.056a2.763 2.763 0 0 0 1.977-.819c.576-.573.889-1.362.879-2.224-.02-1.768-1.48-2.886-2.824-2.908l-8.244-.107c-.834-.014-1.721-.134-3.39-1.444-3.293-2.583-8.36-2.669-11.73-.237l-2.51 1.558c-.756-.856-2.133-1.117-3.322-.567l-2.25 1.331a1 1 0 1 0 1.023 1.719l2.104-1.251c.437-.18.873-.053.979.122l6.96 11.409c-.037.122-.177.31-.451.436l-2.247 1.336a1 1 0 0 0 1.026 1.716l2.11-1.262c.726-.35 1.26-.945 1.474-1.641.04-.134.066-.27.08-.404l18.544-1.345c1.83.132 4.973-1.64 6.727-2.738l7.52-4.549c.017-.01.1-.067.116-.078 2.192-1.509 1.584-3.382 1.004-4.402z" fill="var(--db-icon-pulse-color, #EC0016)"/><path d="m24.258 16.612c-4.58 0-8.306-3.726-8.306-8.306s3.726-8.306 8.306-8.306 8.305 3.726 8.305 8.306-3.726 8.306-8.305 8.306zm0-14.611a6.313 6.313 0 0 0 -6.306 6.306 6.313 6.313 0 0 0 6.306 6.306 6.312 6.312 0 0 0 6.305-6.306 6.313 6.313 0 0 0 -6.305-6.306zm13.784 27.751v-5.008a7.34 7.34 0 0 0 -2.166-5.227 7.343 7.343 0 0 0 -5.227-2.165h-.28l-.24.146a11.551 11.551 0 0 1 -5.861 1.681 11.557 11.557 0 0 1 -5.883-1.681l-.24-.146h-.28c-4.075 0-7.392 3.315-7.392 7.392v.514a1 1 0 1 0 2 0v-.514a5.399 5.399 0 0 1 5.129-5.386 13.575 13.575 0 0 0 6.666 1.82 13.561 13.561 0 0 0 6.646-1.82 5.349 5.349 0 0 1 3.549 1.573 5.355 5.355 0 0 1 1.58 3.812v5.008a1 1 0 1 0 2 0z" fill="var(--db-icon-color, currentColor)" fill-rule="nonzero"/></g></svg>
