<svg id="icon" height="24" viewBox="0 0 24 24" width="24" xmlns="http://www.w3.org/2000/svg"><path d="m20.67 5.96a1 1 0 0 1 .796 1.246c-1.525 5.656-3.958 9.071-6.976 10.406-2.163.956-4.518.706-6.037-.332-1.924.573-3.738.463-5.308-.16-1.035-.327-.835-2.292.71-1.87 3.343 1.247 6.862-.402 10.555-4.947 1.027-1.205 2.354.39 1.632 1.156-1.673 2.166-3.388 3.698-5.065 4.697 4.51.38 6.876-4.063 8.229-8.339-2.096-.134-4.025.14-5.79.82-2.178.86-3.752 2.41-4.546 4.578-.46 1.254-2.387.535-1.87-.711 1.453-3.499 3.453-5.003 6.514-6.027 3.356-1.123 7.127-.521 7.157-.516z" fill="#282D37" style="fill: currentColor;fill: var(--db-icon-color, currentColor)" fill-rule="evenodd"/></svg>
