<svg id="icon" height="20" viewBox="0 0 20 20" width="20" xmlns="http://www.w3.org/2000/svg"><path d="m17.1 4.853c.58.1 1.019.677.866 1.245-1.269 4.705-3.304 7.562-5.844 8.685-1.864.825-3.9.594-5.2-.329a6.417 6.417 0 0 1 -4.258.012c-1.22-.445-.54-2.336.672-1.884 1.873.698 4.651-.165 7.478-3.22 1.117-1.02 2.287.385 1.538 1.277-.98 1.082-1.99 1.96-3.033 2.637a3.674 3.674 0 0 0 1.994-.322c1.911-.89 3.373-2.97 4.385-6.235-3.619-.1-6.118.94-7.498 3.12-.886 1.488-2.507.373-1.826-.819 1.1-1.84 2.75-3.054 4.819-3.736 1.705-.562 3.627-.705 5.907-.43z" fill="#282D37" style="fill: currentColor;fill: var(--db-icon-color, currentColor)" fill-rule="evenodd"/></svg>