<svg id="icon" height="24" viewBox="0 0 24 24" width="24" xmlns="http://www.w3.org/2000/svg"><path d="m10 7.25c.5522847 0 1 .44771525 1 1 0 .51283584-.4779692 1-1 1-1 0-2.00113916 0-2.99441143 0-.00372571.66761794-.00558857 2.0842846-.00558857 4.25 0 .2433347.22895454.5039256.5.5039256h.49886084c.51283583 0 1.05655921.4954212 1 1v5.9960744c0 .5522847-.44771525 1-1 1-.51283584 0-.99327227-.4240519-1-1-.00086084-.8498076.00672773-3.2384724-.00086084-5.052-1.0496665-.2418606-1.998-1.1632312-1.998-2.448 0-1 0-2.4166667 0-4.25 0-1.0543618.9751286-2 2-2 1-.0017419 2-.0017419 3 0zm7 2c1.0543618 0 2 .8572127 2 2v3.25c0 1.220764-.9895332 2.2768065-2 2.4351237v4.0648763c0 .5128358-.4871642 1-1 1s-1-.4620601-1-1c-.0021909-1.6662418-.0021909-3.3329085 0-5 0-.5128358.4015406-1 1-1h.5326235c.2367288 0 .4673765-.2339248.4673765-.5 0-.4004403 0-1.4837737 0-3.25h-2c-.5522847 0-1-.4477153-1-1 0-.51283584.464692-1 1-1zm-4.5 6.75c.8284271 0 1.5.6715729 1.5 1.5v1c0 .6528467-.4170681 1.2082819-.999297 1.4143985l-.000703 1.0856015c0 .5522847-.4477153 1-1 1s-1-.4477153-1-1l.0002925-1.0852495c-.582749-.2058356-1.0002925-.7615318-1.0002925-1.4147505v-1c0-.8284271.6715729-1.5 1.5-1.5zm-2-2.5000111c0 .8284583.6716166 1.5000111 1.4999335 1.5000111.8284499 0 1.5000665-.6715528 1.5000665-1.5000111 0-.8284804-.6716166-1.4999889-1.5000665-1.4999889-.8283169 0-1.4999335.6715085-1.4999335 1.4999889zm-3.5-9.49997828c0 1.10464073.89548054 1.99998938 1.99990442 1.99998938 1.10459378 0 2.00009558-.89534865 2.00009558-1.99998938s-.8955018-2.00001062-2.00009558-2.00001062c-1.10442388 0-1.99990442.89536989-1.99990442 2.00001062zm6 2.00000152c0 1.10463105.8954699 1.99998786 1.999915 1.99998786 1.1046151 0 2.000085-.89535681 2.000085-1.99998786s-.8954699-2.00001214-2.000085-2.00001214c-1.1044451 0-1.999915.89538109-1.999915 2.00001214z" fill="var(--db-icon-color, currentColor)" fill-rule="evenodd"/></svg>
