<svg id="icon" height="24" viewBox="0 0 24 24" width="24" xmlns="http://www.w3.org/2000/svg"><path d="m7.17549519 2.48395062 2.26305479 3.66085932c.83370882 1.41534235.41377668 2.96491303-1.24236101 2.96491303h-.81218897l.46066006.44702516c.45761.45206287.63868346.77457397.63868346 1.33468667 0 .3056217-.09670583.5519599-.27334352.7407041.17010359.1982547.27334352.3277349.27334352.741789 0 .4140542-.20883245.8621385-.5511644 1.2021106l-.54787143.5181004v1.3274477c0 1.756555-1.05898085 2.4125545-2.90606308 2.4571712-.31882974 0-.47824461.1553019-.47824461.4659057l-.00431405.8727875.00230083 1.3926461c.0005752.1269553.00124628.2566359.00201322.3890418 0 .5522848-.44771525 1-1 1-.51283584 0-1-.399841-1-1v-2.6544754c0-1.1319199.91974964-2.4661771 1.9907967-2.4568609l.78479239-.0093162c.3513739.0068125.60699473-.2843955.60911594-.5207631l-.00008965-1.6476754c-.00117403-.2500006.08463482-.5056511.25411512-.6798892l.4142695-.4320198c-.45344355-.3839624-.52583821-1.417478.014-1.926l-.38965842-.3897664c-.15619517-.156269-.28405904-.31030188-.28405904-.57553564l-.00866716-.86217335c0-.92310703.63446773-1.73258559 1.73076924-1.7324636h.57161538l-2.15983821-3.5984997c-.26388548-.43973294-.14254641-1.10712342.3135685-1.37619678.45611491-.26907337 1.03214911-.09393915 1.3347649.34644719zm-3.92549519 1.51518829c.6903733 0 1.25.55964919 1.25 1.25001449 0 .69033633-.5596267 1.24998551-1.25 1.24998551s-1.25-.55964918-1.25-1.24998551c0-.6903653.5596267-1.25001449 1.25-1.25001449zm10.0818851 3.49481893c1.1791797.02872942 2.3672098 1.04401191 2.1858315 2.50581381l-.4517166 3.92336725c.8006956-.1089311 1.3963623.2037355 1.787.938.6797341-.0611157 1.4300877.1019402 1.84.933 1.0894482-.2388524 2.307.249 2.307 2.205v2.9993708c0 .5522847-.4477153 1.0001139-1 1.0001139-.5128358 0-1.008-.4436013-1-1.0001139v-3.1753708c-.8868284.3028764-1.5624951.0252097-2.027-.833-.9074862.2612783-1.5374862-.0543884-1.89-.947-1.3555945.3173322-2.103931-.78745-2.0792889-1.6322272l.5275982-4.64460855c.0128855-.13708889-.1059149-.26911575-.2430038-.2820012-.1409518-.01324853-.2743885.04401599-.2965804.21040611l-.9827251 8.28043084.4773883 2.8589382c.0843269.5058553-.3161005 1.066494-.8219558 1.1508209-.5058552.0843269-1.0569445-.2661206-1.1508208-.8219558l-.5-2.9993707c-.0051662-.0309903-.00817-.0833013-.0092256-.1368685l.0024633-.1444053.9828211-8.35397976c.1398429-1.18891608 1.1630348-2.06308952 2.3422146-2.0343601zm-.651672-5.49395784c.959191 0 1.4876275.459571 1.4876275 1.29817131 0 .86723009-.5456004 1.33252238-1.5566332 1.33252238-.183735 0-.4250565-.01718721-.5973256-.04007235l.000397 1.14832034c0 .28043639-.2270533.50748968-.5071394.50748968s-.5071394-.22705329-.5071394-.5071394v-3.23616914c0-.28010945.2267731-.50312282.5130242-.50312282zm-.0919376.73524354h-.5743937v1.17758063c.1436393.02288514.3330722.03435106.5055281.03435106.4767349 0 .6661678-.17799035.6661678-.62609542 0-.42503312-.1665478-.58583627-.5973022-.58583627zm5.8726542.29299987c.2161478 0 .4799574.05497104.6445436.10697636.1797651.0567458.2947513.14662836.2947513.32758445 0 .18090937-.1481463.36508805-.3276078.32758445-.2441004-.08138237-.3845871-.10744341-.56573-.10744341-.3045125 0-.4381571.0747737-.4381571.2356002 0 .10340347.0365929.16654778.1279934.22394745l.0787331.03365915.1336109.04000056.2931841.07572422c.5852057.15510521.8171863.42505647.8171863.94774842 0 .65591617-.4138708 1.00208896-1.2193577 1.0051481-.3479709 0-.6968759-.07225166-.9318923-.15807094-.1728995-.06312096-.230813-.18821861-.2236205-.32520253.0109288-.20888529.1991241-.35633099.4170934-.27562584.1290909.04777857.4163227.11561667.6579711.11561667.338093 0 .466927-.07475035.466927-.26995126 0-.08047163-.0251036-.1378713-.0877108-.18959639l-.0628433-.03214385-.1176587-.03723981-.2733244-.07425563c-.6534175-.19517756-.880354-.44794161-.880354-.99368217 0-.64330599.4081028-.9763782 1.1962624-.9763782zm-2.7597846 0c.2161712 0 .4760343.05373337.644567.10697636.1797651.0567458.2947279.14662836.2947279.32758445 0 .18090937-.1481696.36508805-.3276078.32758445-.2441004-.08138237-.3845871-.10744341-.56573-.10744341-.3045125 0-.4381337.0747737-.4381337.2356002 0 .10340347.0365695.16654778.1279466.22394745l.0787488.03365915.1336108.04000056.2931685.07572422c.5852291.15510521.8172097.42505647.8172097.94774842 0 .65591617-.4138707 1.00208896-1.2193343 1.0051481-.3480176 0-.6969226-.07225166-.9319156-.15807094-.1728996-.06309761-.230813-.18819526-.2236439-.32520253.0109755-.20888529.1991708-.35633099.4171167-.27562584.1290909.04777857.4163228.11561667.6579478.11561667.338093 0 .4669503-.07475035.4669503-.26995126 0-.08047163-.0251036-.1378713-.0877108-.18959639l-.0628433-.03214385-.1176587-.03723981-.2733244-.07425563c-.6534174-.19517756-.880354-.44794161-.880354-.99368217 0-.64330599.4080795-.9763782 1.1962624-.9763782zm5.1004675-.6272864c.2121371 0 .3330733.11412177.3599927.26583416l.0057725.06709795v.38629184l.456979-.00254539c.1765658-.00109755.3197147.14312554.3197147.31969141 0 .15134218-.1051534.27791007-.2464022.31117488l-.0733125.00853989-.456979.00067721v1.53131952c0 .22927176.081686.30430233.3364116.30430233l.054696-.00216138.0998488-.01177988c.2179693-.04453261.3416658.12948787.3416658.28921681 0 .15898168-.1052016.28253809-.2462488.32209669-.1318931.03701321-.2716326.04833902-.4255702.04833902-.7161094 0-1.0435485-.26757636-1.0816811-.90213122l-.0037985-.13183347v-1.44736842l-.0892054-.00067721c-.1765658-.00135443-.3197147-.1431489-.3197147-.31971477 0-.15012119.1051706-.27660043.2464095-.30893838l.0733052-.00799747.1546616.00025687.1125341-.35663457c.0653394-.20694706.1338081-.36305642.3809209-.36305642z" fill="var(--db-icon-color, currentColor)" fill-rule="evenodd"/></svg>
