<svg id="icon" height="32" viewBox="0 0 32 32" width="32" xmlns="http://www.w3.org/2000/svg"><path d="m16.407 20c1.593 0 2.593 1 2.593 2.785v1.43c0 1.36-.6 2.43-2.003 2.718l.003.067v2a1 1 0 0 1 -2 0v-2l.003-.067c-1.593-.358-2.003-1.53-2.003-2.718v-1.43c0-1.785 1-2.785 2.559-2.78zm-2.907-10.5c1.392 0 2.5 1.108 2.5 2.5a1 1 0 0 1 -1 1c-.513 0-1-.417-.993-.883.005-.356-.156-.616-.507-.617-1.333-.002-2.667-.002-4 0-.242 0-.477.202-.5.54v7.46c0 .242.188.5.54.5h.46c.513 0 1 .415 1 1 .002 2.666.002 5.333 0 8a1 1 0 0 1 -1 1 .99.99 0 0 1 -1-1c-.004-3.529.05-3.631-.001-7.058-1.024 0-1.999-1.212-1.994-2.276l-.005-7.626c0-1.336.985-2.538 2.5-2.54 1.333-.002 2.667-.002 4 0zm9.215 2c1.215 0 2.285 1.035 2.285 2.35v6.65c0 1.135-.862 2.163-2.001 2.423-.002.302-.003.672-.003 1.11v2.435c0 .751.002 1.595.004 2.532 0 .513-.487 1-1 1s-1-.436-1-1v-7c0-.513.415-1 1-1h.388c.327 0 .612-.259.612-.557v-6.594c0-.16-.077-.349-.285-.349h-3.705a1 1 0 0 1 -1-1 .994.994 0 0 1 1-1c1.235-.002 2.47-.002 3.705 0zm-6.375 10.502h-.68c-.421 0-.658.311-.658.658v1.68c0 .383.2.658.658.658h.68c.337.002.66-.237.66-.658v-1.68c0-.337-.239-.658-.66-.658zm-.34-7.002a2 2 0 1 1 0 4 2 2 0 0 1 0-4zm5-11a3 3 0 1 1 0 6 3 3 0 0 1 0-6zm-9-2a3 3 0 1 1 0 6 3 3 0 0 1 0-6zm9 4a1 1 0 1 0 0 2 1 1 0 0 0 0-2zm-9-2a1 1 0 1 0 0 2 1 1 0 0 0 0-2z" fill="var(--db-icon-color, currentColor)" fill-rule="evenodd"/></svg>
