<svg id="icon" height="32" viewBox="0 0 32 32" width="32" xmlns="http://www.w3.org/2000/svg"><path d="M16 2c7.719 0 14 6.281 14 14s-6.281 14 -14 14s-14 -6.281 -14 -14s6.281 -14 14 -14zm6.973 8.563l0 0.001a0.972 0.972 0 0 0 -0.692 0.281l-8.718 8.75l-3.813 -3.813s-0.464 -0.296 -0.689 -0.296c-0.552 0 -1.022 0.454 -1.022 1.015a1.014 1.014 0 0 0 0.305 0.719l4.5 4.5l0.093 0.062c0.19 0.146 0.411 0.216 0.63 0.216a0.962 0.962 0 0 0 0.683 -0.278l9.438 -9.439c0.238 -0.238 0.331 -0.482 0.331 -0.71c0 -0.534 -0.48 -1.008 -1.046 -1.008z" fill="var(--db-icon-color, currentColor)"/></svg>
