<svg id="icon" height="24" viewBox="0 0 24 24" width="24" xmlns="http://www.w3.org/2000/svg"><path d="m16.436 2.15c.941 0 1.431.095 1.942.368.474.253.85.63 1.104 1.104.25.468.351.919.366 1.716v.942a.846.846 0 0 1 .452-.13c.433 0 .875.352.85.85v3a.85.85 0 0 1 -1.301.72l.001 6.716c0 .941-.095 1.431-.368 1.942a2.67 2.67 0 0 1 -.68.824l-.002.798a1 1 0 0 1 -1 1h-.6c-.552 0-1-.383-1-1.15h-8.4c0 .753-.448 1.15-1 1.15h-.6a1 1 0 0 1 -1-1l-.002-.798a2.67 2.67 0 0 1 -.68-.824c-.25-.468-.351-.919-.366-1.716l-.002-6.941a.846.846 0 0 1 -.45.129.86.86 0 0 1 -.85-.85v-3a.85.85 0 0 1 1.3-.721v-.715c0-.941.095-1.431.368-1.942.253-.474.63-.85 1.104-1.104.468-.25.919-.351 1.716-.366zm-9.561 14.75a1.125 1.125 0 1 0 0 2.25 1.125 1.125 0 0 0 0-2.25zm10.25 0a1.125 1.125 0 1 0 0 2.25 1.125 1.125 0 0 0 0-2.25zm1.024-10.9h-12.3v8.63c2.324.355 4.434.52 6.151.52 1.76 0 3.81-.172 6.148-.519l.002-8.631zm-9.149-2.75a.76.76 0 0 0 -.75.75c0 .38.296.75.75.75h6a.74.74 0 0 0 .75-.75c0-.38-.36-.75-.75-.75z" fill="var(--db-icon-color, currentColor)" fill-rule="evenodd"/></svg>
