<svg id="icon" height="64" viewBox="0 0 64 64" width="64" xmlns="http://www.w3.org/2000/svg"><g fill="none" fill-rule="evenodd" transform="translate(10 11.193)"><path d="m22.008 18.456c1.55.258 2.435 1.31 2.718 2.76.132.673.132 1.32-.013 2.343l-.603 6.472c.49-.07.98-.049 1.368.035 1.402.3 2.107 1.081 2.306 2.183a3.955 3.955 0 0 1 1.893-.084c1.352.29 2.056 1.028 2.283 2.07.487-.164 1.09-.232 1.805-.081 1.917.404 2.53 1.72 2.33 3.519l-.142 1.368-.04.385-.142 1.366-.112 4.31a1 1 0 0 1 -1.999-.052l.116-4.383c.011-.115.298-2.908.332-3.215.1-.894-.038-1.196-.762-1.343-.718-.145-1.155.184-1.292.369a1.041 1.041 0 0 1 -.145.159c-.096.919-.224 2.164-.231 2.24a1 1 0 0 1 -1.99-.199 579.919 579.919 0 0 1 .332-3.215c.1-.894-.04-1.176-.762-1.343-.557-.128-1.072.074-1.292.37a1.059 1.059 0 0 1 -.278.259l-.2 1.935-.009.094a1 1 0 1 1 -1.99-.199l.01-.094c.052-.509.291-2.842.322-3.121.1-.894-.038-1.185-.762-1.343-.577-.125-.968.092-1.159.243-.095 1.026-.191 2.05-.288 3.071-.047.51-.515.966-1.088.903a.99.99 0 0 1 -.903-1.09l1.105-11.822c.11-.721.122-1.296.038-1.726-.138-.693-.448-1.065-1.085-1.172-.627-.104-.951.194-1.188.991-.114.383-.179.903-.195 1.56l-1.864 16.442.865 5.84c.049.39-.122.94-.724 1.111-.603.172-1.174-.272-1.255-.819l-.883-5.966a1 1 0 0 1 -.005-.26l1.872-16.52c0-.706.09-1.357.27-1.952.516-1.685 1.635-2.7 3.436-2.4zm-8.688-17.92 4.974 9.471a3.134 3.134 0 0 1 -2.3 4.475l-1.72.271a1.31 1.31 0 0 0 -1.105 1.297l-.001.93a1426.6 1426.6 0 0 0 1.232 1.286l.024.025c.55.546.868 1.286.868 2.076a2.94 2.94 0 0 1 -.544 1.69c.363.519.544 1.082.544 1.691 0 1.796-1.33 2.362-2.124 3.178v1.885c0 3.568-2.825 6.476-6.358 6.598l-3.016.004c-.99 0-1.795.806-1.795 1.8v4.987a1 1 0 0 1 -2 0v-4.985a3.798 3.798 0 0 1 3.795-3.801h2.784c2.535 0 4.59-2.06 4.59-4.602v-2.086c0-.459.203-.894.543-1.18l.948-.828.194-.168.135-.116c.271-.174.491-.82.059-1.306-.559-.628-.572-1.577 0-2.138a.885.885 0 0 0 -.03-1.277c-.39-.389-1.15-1.195-1.367-1.425l-.056-.06a1.557 1.557 0 0 1 -.425-1.069v-1.109a3.311 3.311 0 0 1 2.794-3.272l1.71-.27c.746-.124 1.162-.936.838-1.594l-4.961-9.449a1 1 0 0 1 1.771-.93zm-6.377 1.916c1.028 0 1.861.835 1.861 1.866 0 1.03-.833 1.865-1.861 1.865a1.864 1.864 0 0 1 -1.863-1.863c0-1.03.834-1.866 1.862-1.866z" fill="var(--db-icon-color, currentColor)" fill-rule="nonzero"/><path d="m28.959 7.049a.714.714 0 0 1 -.38.36c-.173.075-.405.112-.696.112-.278 0-.585-.04-.905-.096v-2.101h1.006c.394 0 .675.08.842.242.168.162.252.432.252.81 0 .282-.04.506-.12.673m-.754-3.242h-2.28c-.336 0-.595.09-.774.269-.18.179-.27.438-.27.776v6.055c0 .335.09.593.27.774.18.18.439.27.774.27.342 0 .604-.09.784-.27.18-.181.27-.44.27-.774v-2.078c.128.015.275.036.392.047.288.025.532.038.732.038.963 0 1.7-.22 2.215-.658.514-.44.77-1.08.77-1.92 0-.811-.251-1.435-.755-1.873-.503-.437-1.212-.656-2.128-.656m18.3 6.901c-.12-.12-.285-.178-.492-.175-.114.006-.23.009-.349.009-.223 0-.377-.042-.463-.126-.085-.085-.128-.238-.128-.46v-2.725h.8c.213 0 .378-.057.496-.173.118-.115.177-.278.177-.49 0-.206-.059-.367-.177-.482-.118-.114-.283-.172-.496-.172h-.8v-.402c0-.373-.079-.654-.236-.843-.158-.189-.395-.284-.71-.284-.317 0-.555.092-.716.275-.162.182-.242.467-.242.852v.402h-.12c-.243 0-.43.058-.566.172-.134.115-.2.276-.2.482 0 .205.066.367.2.486.133.116.32.174.556.176l.13.001v2.755c0 .518.126.981.378 1.387s.788.609 1.61.609c.305 0 .573-.025.803-.074.266-.046.453-.123.561-.23.11-.108.163-.257.163-.447 0-.229-.06-.403-.18-.523m-5.433-2.203c-.239-.151-.563-.283-.97-.395a29.919 29.919 0 0 0 -.4-.104c-.303-.075-.513-.147-.63-.216a.344.344 0 0 1 -.178-.32.34.34 0 0 1 .19-.316c.126-.071.32-.107.583-.107.311 0 .66.049 1.045.147a.748.748 0 0 0 .555-.081c.167-.098.251-.276.251-.532a.61.61 0 0 0 -.15-.432c-.103-.108-.256-.191-.463-.247a3.694 3.694 0 0 0 -.644-.136 5.624 5.624 0 0 0 -.729-.048c-.747 0-1.318.171-1.712.514-.395.342-.592.84-.592 1.491 0 .347.06.637.175.871.117.233.3.426.545.576.246.151.575.28.985.387.318.081.55.147.696.2.147.052.252.11.315.175a.351.351 0 0 1 .095.26.388.388 0 0 1 -.218.365c-.145.079-.376.119-.693.119-.209 0-.413-.017-.61-.05a6.445 6.445 0 0 1 -.565-.123c-.228-.057-.424-.036-.59.061-.166.098-.25.278-.25.541 0 .173.046.314.138.423s.247.194.467.257c.191.061.422.11.693.147.272.037.555.056.85.056.816 0 1.437-.176 1.86-.528.424-.352.636-.868.636-1.549 0-.336-.054-.616-.163-.841a1.38 1.38 0 0 0 -.522-.565m-5.334 0c-.24-.151-.563-.283-.971-.395a29.919 29.919 0 0 0 -.4-.104c-.303-.075-.513-.147-.63-.216a.344.344 0 0 1 -.178-.32.34.34 0 0 1 .19-.316c.127-.071.32-.107.584-.107.31 0 .66.049 1.044.147a.748.748 0 0 0 .556-.081c.166-.098.25-.276.25-.532a.61.61 0 0 0 -.15-.432c-.102-.108-.255-.191-.462-.247a3.694 3.694 0 0 0 -.645-.136 5.624 5.624 0 0 0 -.728-.048c-.747 0-1.319.171-1.712.514-.395.342-.593.84-.593 1.491 0 .347.06.637.175.871.117.233.3.426.545.576.247.151.576.28.986.387.317.081.55.147.695.2a.83.83 0 0 1 .316.175.351.351 0 0 1 .095.26.388.388 0 0 1 -.219.365c-.145.079-.376.119-.693.119a3.71 3.71 0 0 1 -.61-.05 6.445 6.445 0 0 1 -.564-.123c-.228-.057-.424-.036-.59.061-.167.098-.25.278-.25.541 0 .173.046.314.137.423.093.109.247.194.468.257.19.061.422.11.693.147s.554.056.848.056c.817 0 1.438-.176 1.861-.528.425-.352.636-.868.636-1.549 0-.336-.053-.616-.163-.841a1.38 1.38 0 0 0 -.521-.565" fill="var(--db-icon-pulse-color, #EC0016)"/></g></svg>
