<svg id="icon" height="20" viewBox="0 0 20 20" width="20" xmlns="http://www.w3.org/2000/svg"><path d="m15 3a3 3 0 0 1 2.236 5c.475.53.764 1.231.764 2s-.29 1.47-.765 2c.476.53.765 1.232.765 2 0 1.598-1.285 3-3 3.026l-10-.026a3 3 0 0 1 -2.236-5 2.989 2.989 0 0 1 -.764-2c0-.768.289-1.47.764-2a2.989 2.989 0 0 1 -.764-2c0-1.598 1.28-3 3-3zm-10 10a1 1 0 0 0 0 2h10a1 1 0 0 0 1-1c0-.513-.403-1-1-1zm0-4a1 1 0 0 0 -1 1c0 .513.427 1 1 1h10a1 1 0 0 0 1-1c0-.513-.382-.968-1-1zm0-4a1 1 0 0 0 -1 1c0 .513.43 1 1 1h10a1 1 0 0 0 0-2z" fill="#282D37" style="fill: currentColor;fill: var(--db-icon-color, currentColor)" fill-rule="evenodd"/></svg>
