<svg id="icon" height="64" viewBox="0 0 64 64" width="64" xmlns="http://www.w3.org/2000/svg"><g fill="none" fill-rule="evenodd" transform="translate(6 8)"><path d="m30 0a5 5 0 0 1 5 5v3h11a6 6 0 0 1 5.996 5.775l.004.225v26a6 6 0 0 1 -6 6h-40a6 6 0 0 1 -6-6v-26a6 6 0 0 1 6-6h11v-3a5 5 0 0 1 4.783-4.995l.217-.005zm16 10h-40a4 4 0 0 0 -4 4v26a4 4 0 0 0 4 4h40a4 4 0 0 0 4-4v-26a4 4 0 0 0 -4-4zm-16-8h-8a3 3 0 0 0 -3 3v3h14v-3a3 3 0 0 0 -2.824-2.995z" fill="var(--db-icon-color, currentColor)" fill-rule="nonzero"/><path d="m9 14a1 1 0 0 1 .993.883l.007.117v24a1 1 0 0 1 -1.993.117l-.007-.117v-24a1 1 0 0 1 1-1zm34 0a1 1 0 0 1 .993.883l.007.117v24a1 1 0 0 1 -1.993.117l-.007-.117v-24a1 1 0 0 1 1-1z" fill="var(--db-icon-pulse-color, #EC0016)"/></g></svg>
