<svg id="icon" height="32" viewBox="0 0 32 32" width="32" xmlns="http://www.w3.org/2000/svg"><path d="m12.0448 14c1.6323 0 2.8565.8879 3.174 2.4309l.9068 4.5691h5.6188c.4708 0 .8789.3857.9731.8565l1.3812 6.9686c.1255.6278-.3767 1.1929-.9731 1.1929-.5023 0-.9104-.3453-1.0045-.8162l-1.1928-6.2018h-5.6503c-.4708 0-.8789-.2959-.9731-.7668l-1.0358-5.2421c-.1256-.6278-.5651-.9911-1.1929-.9911-.5964 0-.7533.2691-1.1614.2691-.5336 0-.9103-.4709-.9103-1.0359 0-.8475 1.1614-1.2332 2.0403-1.2332zm-9.03779775-9c2.13031727 0 3.99863075 1.66044447 3.99863075 4.01000898v2.85091592l2.29828635 11.5600539c.18245541.9096705 1.03388055 1.5790212 1.97372645 1.5790212h5.7268542c.5639075 0 1 .4360925 1 1s-.4360925 1-1 1h-5.7268542c-1.91107006 0-3.53422144-1.3244939-3.91607455-3.2030829l-2.32956425-11.5600539c-.01253128-.0613531-.031379-.2819036-.031379-.3759383v-2.85091592c0-1.12781502-.89718905-2.01000898-1.99362575-2.01000898-.56390752 0-1.00250225-.43348999-1.00250225-.99749775 0-.5325292.43859473-1.00250225 1.00250225-1.00250225zm9.25759775.7534c1.7892 0 3.2332 1.4753 3.2332 3.2646 0 1.7892-1.444 3.2645-3.2332 3.2645-1.8207 0-3.2646-1.4753-3.2646-3.2645 0-1.7893 1.4439-3.2646 3.2646-3.2646zm0 2.009c-.6906 0-1.2556.565-1.2556 1.2556s.565 1.2556 1.2556 1.2556 1.2556-.565 1.2556-1.2556-.565-1.2556-1.2556-1.2556zm5.7354 5.2376.0043886-8c0-1.65620434 1.3432076-3 2.9989028-3h7.9971076c.5622381 0 .999601.43752183.999601.99996437 0 .56254231-.4373629 1.00006414-.999601 1.00006414h-7.9971076c-.5623379 0-.9997007.43752182-.9997007.99997149l-.0087772 8c0 .5301148.4362657 1.0043617 1.0084779.9999715h7.9971076c.5622381 0 .999601.4375218.999601 1.0000641 0 .5312124-.4373629.9999644-.999601.9999644h-7.9971076c-1.663076 0-3.0032914-1.3473948-3.0032914-3z" fill="var(--db-icon-color, currentColor)" fill-rule="evenodd"/></svg>
