<svg id="icon" height="24" viewBox="0 0 24 24" width="24" xmlns="http://www.w3.org/2000/svg"><path d="m18 10a1 1 0 0 1 1 1c0 3.528-2.606 6.516-6 7v2h2a1 1 0 0 1 1 1c0 .513-.45 1-1 1h-6a1 1 0 0 1 -1-1c0-.513.45-1 1-1h2v-2c-3.394-.484-6-3.472-6-7a1 1 0 0 1 2 0 5 5 0 0 0 10 0 1 1 0 0 1 1-1zm-6-8c1.869 0 3.5 1.57 3.5 3.5v5.5a3.5 3.5 0 0 1 -3.5 3.5c-1.869 0-3.5-1.57-3.5-3.5v-5.5a3.5 3.5 0 0 1 3.5-3.5z" fill="#282D37" style="fill: currentColor;fill: var(--db-icon-color, currentColor)" fill-rule="evenodd"/></svg>