<svg id="icon" height="32" viewBox="0 0 32 32" width="32" xmlns="http://www.w3.org/2000/svg"><path d="m8 28.991a.986.986 0 0 0 1 1.009h14.125c.501 0 .875-.496.875-1.007a.988.988 0 0 0 -1-.993h-14.125c-.563 0-.875.504-.875.991zm8-26.991c4.556 0 8 3.641 8 7.96 0 1.477-.403 3.036-1.274 4.526l-5.86 10.016a.966.966 0 0 1 -.87.498.975.975 0 0 1 -.871-.5l-5.68-9.66c-.965-1.64-1.445-3.277-1.445-4.885 0-4.4 3.531-7.955 8-7.955zm.034 2c-3.409 0-6.034 2.63-6.034 5.959 0 1.135.305 2.32 1.027 3.556l4.973 8.516 4.847-8.22a8.197 8.197 0 0 0 1.153-3.529c0-3.782-2.643-6.282-5.966-6.282zm-2.034 6c0 1.094.906 2 2 2s2-.906 2-2-.906-2-2-2-2 .906-2 2z" fill="#282D37" style="fill: currentColor;fill: var(--db-icon-color, currentColor)" fill-rule="evenodd"/></svg>