<svg id="icon" height="32" viewBox="0 0 32 32" width="32" xmlns="http://www.w3.org/2000/svg"><path d="m26 2a4 4 0 0 1 4 4v20a4 4 0 0 1 -4 4h-20a4 4 0 0 1 -4-4v-20a4 4 0 0 1 4-4zm0 2h-20c-1.103 0-2 .897-2 2v20c0 1.103.897 2 2 2h20c1.103 0 2-.897 2-2v-20c0-1.103-.897-2-2-2zm-19.207 2.793a.999.999 0 0 1 1.414 0l7.793 7.793 7.793-7.793a.999.999 0 1 1 1.414 1.414l-7.793 7.793 7.793 7.793a.999.999 0 1 1 -1.414 1.414l-7.793-7.793-7.793 7.793a.997.997 0 0 1 -1.414 0 .999.999 0 0 1 0-1.414l7.793-7.793-7.793-7.793a.999.999 0 0 1 0-1.414z" fill="var(--db-icon-color, #55b9e6)" fill-rule="evenodd"/></svg>
