<svg id="icon" height="20" viewBox="0 0 20 20" width="20" xmlns="http://www.w3.org/2000/svg"><path d="m15.7139 2c1.263 0 2.286 1.023 2.286 2.285v11.429c0 1.262-1.023 2.286-2.286 2.286h-11.428c-1.263 0-2.286-1.024-2.286-2.286v-11.429c0-1.262 1.023-2.285 2.286-2.285zm0 2h-11.428c-.158 0-.286.128-.286.285v11.429c0 .158.128.286.286.286h11.428c.158 0 .286-.128.286-.286v-11.429c0-.157-.128-.285-.286-.285zm-9.434 2.339c.389-.393 1.023-.392 1.415-.002l2.288 2.28 2.287-2.28c.392-.389 1.024-.391 1.415.002.39.392.389 1.024-.002 1.414l-2.284 2.276 2.284 2.276c.391.389.392 1.022.002 1.414-.195.196-.452.294-.708.294s-.511-.098-.707-.292l-2.287-2.28-2.288 2.28c-.196.194-.451.292-.70600192.292-.25699808 0-.51299808-.098-.70899808-.294-.389-.392-.388-1.025.003-1.414l2.283-2.276-2.283-2.276c-.391-.39-.392-1.022-.003-1.414z" fill="var(--db-icon-color, #55b9e6)" fill-rule="evenodd"/></svg>
