<svg id="icon" height="24" viewBox="0 0 24 24" width="24" xmlns="http://www.w3.org/2000/svg"><path d="m19.143 2c1.578 0 2.857 1.279 2.857 2.857v14.286c0 1.578-1.279 2.857-2.857 2.857h-14.286c-1.578 0-2.857-1.279-2.857-2.857v-14.286c0-1.578 1.279-2.857 2.857-2.857zm0 1.999h-14.286c-.473 0-.857.385-.857.858v14.286c0 .473.384.856.857.856h14.286c.472 0 .857-.383.857-.856v-14.286c0-.473-.385-.858-.857-.858zm-2.7929 2.3363c.391-.39 1.025-.387 1.414.003.39.392.389 1.024-.003 1.415l-4.306 4.289 4.306 4.288c.392.391.393 1.024.003 1.415-.195.196-.452.294-.708.294s-.511-.097-.706-.291l-4.313-4.295-4.312 4.295c-.195.194-.45.291-.706.291s-.513-.098-.708-.294c-.39-.391-.389-1.024.003-1.415l4.306-4.288-4.306-4.289c-.392-.391-.393-1.023-.003-1.415.39-.39 1.022-.393 1.414-.003l4.312 4.295z" fill="var(--db-icon-color, #55b9e6)" fill-rule="evenodd"/></svg>
