<svg id="icon" height="20" viewBox="0 0 20 20" width="20" xmlns="http://www.w3.org/2000/svg"><path d="m18 5c.002 3.333.002 6.667 0 10 0 1.598-1.261 3-3 3-3.333.002-6.667.002-10 0-1.598 0-3-1.272-3-3-.002-3.333-.002-6.667 0-10a3.013 3.013 0 0 1 3-3h.25a1 1 0 0 1 1 1c0 .513-.437 1-1 1-.333.002.083.002-.25 0-.513 0-1 .458-1 1-.002 3.333-.002 6.667 0 10 0 .513.42 1 1 1 3.333.002 6.667.002 10 0a1 1 0 0 0 1-1c.002-3.333.002-6.667 0-10 0-.513-.397-1-1-1h-.25a1 1 0 0 1 -1-1c0-.513.419-1 1-1h.25c1.598 0 3 1.257 3 3zm-7.994 6.998c-.513 0-1-.411-1-1-.002-2.195-.002-3.39 0-5.585l-1.293 1.292c-.36.36-1.046.36-1.414 0a.987.987 0 0 1 0-1.414 848.53 848.53 0 0 1 3-3c.36-.36.959-.414 1.414 0 1.001.997 2.001 1.997 3 3a1 1 0 0 1 -1.414 1.414c-.432-.428-.863-.859-1.293-1.292v5.585a1 1 0 0 1 -1 1z" fill="var(--db-icon-color, currentColor)" fill-rule="evenodd"/></svg>
