<svg id="icon" height="20" viewBox="0 0 20 20" width="20" xmlns="http://www.w3.org/2000/svg"><path d="m12 3c2.7614237 0 5 2.23857625 5 5l-.013.343.0858281.0960712c.4875577.58408383.8017016 1.2987296.8967205 2.0661719l.0234945.2576628.0069569.2370941c0 2.0533278-1.551265 3.7577655-3.5894465 3.9775071l-.2054018.0169831-.2061518.0000872c-.5514991.0002333-.9987665-.4466559-.9989998-.998155-.0000001-.0001408-.0000001-.0002816-.0000001-.0004224 0-.5517929.4472071-.9991673.9989999-.9993736l.1194286-.0000447c1.0029473-.0581121 1.8021596-.8544453 1.8760008-1.8463906l.0055707-.1501911c0-.5371433-.2119268-1.03790448-.5801623-1.40834218l-.1284581-.11852358-.4400833-.37229379.101594-.56741045c.0312455-.17450846.0471097-.35271776.0471097-.53343 0-1.65685425-1.3431458-3-3-3-1.0286084 0-1.9643675.52129332-2.51098547 1.36042493l-.10404726.17200388-.34549425.61660842-.69655718-.11991794c-.1121801-.01931271-.22670005-.02911929-.34291584-.02911929-.83170201 0-1.5639955.5124393-1.8614835 1.26548221l-.05360081.15373608-.15525762.51133154-.51138216.15509077c-.83533863.25333953-1.41827591 1.0272842-1.41827591 1.9143594 0 1.0543618.81587779 1.9181651 1.85073766 1.9945143l.14926234.0054857h.0005c.55200861 0 .9995.4474914.9995.9995 0 .5521702-.44732956.9999473-.9994995 1.0004995l-.0005005.0000005c-2.14219539 0-3.89107888-1.6839685-3.99510469-3.8003597l-.00489531-.1996403c0-1.49808144.83073319-2.83410887 2.09636801-3.51903464l.18372075-.09336447.07391124-.03360089.03327847-.07370837c.59236056-1.24364726 1.79539126-2.11000097 3.18771879-2.25783704l.22135286-.01732173.20364988-.00513286.18244688-.22795726c.88326604-1.04624674 2.40891382-1.70571773 3.81755312-1.77204274zm-2 6 .0752385.00278786.1254873.01745221.1114167.02949802.111079.04393527.0974873.05232209.1047402.07369332.0816578.07320445 1.5 1.49999998c.3905243.3905243.3905243 1.0236893 0 1.4142136-.3271058.3271058-.8244448.3802255-1.20684.1593592l-.0002668 3.133534c0 .5522847-.4477153 1-1 1-.51283584 0-.93550716-.3826613-.99327227-.88l-.00672773-.12.00070843-3.134098c-.34742457.2011941-.79002817.1759919-1.11360787-.0756066l-.09420734-.0831886c-.36048396-.360484-.3882135-.927715-.08318861-1.3200062l.08318861-.0942074 1.5-1.49999998c.03539405-.03539405.0727812-.06758027.11180017-.09655864l.11124451-.07166341.11272608-.05344568.10534305-.03538035.1175261-.02482734.05843492-.00701982z" fill="var(--db-icon-color, currentColor)" fill-rule="evenodd"/></svg>
