<svg id="icon" height="24" viewBox="0 0 24 24" width="24" xmlns="http://www.w3.org/2000/svg"><path d="m12 1c6.065 0 11 4.935 11 10.999 0 6.065-4.935 11-11 11s-11-4.935-11-11c0-6.064 4.935-10.999 11-10.999zm1 2.059v.479c0 .553-.448 1-1 1s-1-.447-1-1v-.479c-4.164.463-7.478 3.776-7.941 7.94h.48c.552 0 1 .447 1 1s-.448 1-1 1h-.48c.463 4.165 3.777 7.478 7.941 7.941v-.479c0-.553.448-1 1-1s1 .447 1 1v.479c4.164-.463 7.478-3.776 7.941-7.941h-.48c-.552 0-1-.447-1-1s.448-1 1-1h.48c-.463-4.164-3.777-7.477-7.941-7.94zm-3.20162216 8.7557775.11632216.0113225c.544.088.918.598.833 1.144l-.262 1.665 1.312-1.059c.43-.347 1.06-.28 1.406.15.347.429.28 1.059-.149 1.406l-3.331 2.689c-.322.259-.77.295-1.128.088-.359-.207-.552-.613-.488-1.022l.664-4.228c.086-.546.597-.918 1.143-.833zm5.60512216-5.6974775c.357.206.55.611.488 1.018l-.642 4.192c-.076.495-.502.849-.987.849-.051 0-.102-.004-.153-.012-.546-.083-.921-.593-.837-1.139l.254-1.656-1.306 1.048c-.432.343-1.061.277-1.406-.154-.345-.432-.277-1.061.155-1.406l3.308-2.654c.322-.257.768-.293 1.126-.086z" fill="var(--db-icon-color, currentColor)" fill-rule="evenodd"/></svg>
