<svg id="icon" height="24" viewBox="0 0 24 24" width="24" xmlns="http://www.w3.org/2000/svg"><path d="m21.4434379 9.70295059c.3669638 1.05114291.5565621 2.16185421.5565621 3.29704941 0 2.4936185-.9174808 4.84713-2.5471881 6.6676316-.3683658.4114913-1.0005648.4464515-1.4120562.0780858-.4114913-.3683658-.4464515-1.0005648-.0780858-1.4120562 1.3044797-1.4571987 2.0373301-3.3370983 2.0373301-5.3336612 0-.9099778-.1515672-1.7978942-.4448026-2.6378469-.1820338-.52142323.0930958-1.09168776.614519-1.2737215.5214232-.18203375 1.0916877.09309578 1.2737215.61451899zm-9.4434379-6.70295059c1.1517797 0 2.2782922.19518111 3.3428502.57267736.520527.18458082.7928652.75618365.6082844 1.27671066s-.7561837.7928652-1.2767107.60828438c-.8506644-.3016488-1.7511744-.4576724-2.6744239-.4576724-4.418278 0-8 3.581722-8 8 0 1.9965629.73285039 3.8764625 2.03733007 5.3336612.36836574.4114914.33340555 1.0436904-.07808579 1.4120562-.41149134.3683657-1.04369042.3334055-1.41205616-.0780858-1.62970727-1.8205016-2.54718812-4.1740131-2.54718812-6.6676316 0-5.5228475 4.4771525-10 10-10zm6.7071068 3.29289322c.3604839.36048396.4234994.99022754 0 1.41421356-1.5246927 1.52644447-3.1156065 3.11806202-4.7727414 4.77485252.0441855.1652259.0677425.3388823.0677425.5180407 0 1.1045695-.8954305 2-2 2-1.1045694 0-2-.8954305-2-2s.8954306-2 2-2c.1780749 0 .350714.0232729.5150418.0669431l4.7757435-4.77404988c.3905243-.39052429 1.0236893-.39052429 1.4142136 0z" fill="var(--db-icon-color, currentColor)" fill-rule="evenodd"/></svg>
