<svg id="icon" height="20" viewBox="0 0 20 20" width="20" xmlns="http://www.w3.org/2000/svg"><path d="m11 2c.5522847 0 1 .44771525 1 1 0 .51283584-.419448.99916144-1 1-1.47966134.00213724-2.95938274.00218523-4.43916421.00014398-.10198174-.00014067-.16943892.07698118-.19249403.16154827-.0433765.18606513-.25182375 1.13216771-.62534176 2.83830775l3.34941841.00004559c.19538988-.52916832.795142-1.00004559 1.40758159-1.00004559.1690361-.00224977.3357028-.00224977.5 0-.0072342-.50539142.340991-.9991755 1-.9991755h3c.5-.0008245 1 .4991755.9927658 1.01696856l.5072342.0018071c.7796961 0 1.5.62456706 1.5 1.48039984v9c0 .7796961-.6173161 1.4990136-1.5 1.5-1.9999471.002235-3.9999471.0087684-6 .0196002-.77969612 0-1.497812-.6399592-1.5-1.5-.00216622-.8514818-.00216622-1.6913486 0-2.5196002-1.15561562-.0951315-2.15561562-.1997981-3-.314v1.314h-2.5l-.00049226-3.0199918c-.04066993-.1164992-.11361476-.4542337-.12439747-.5486306-.09254411-.8101749-.1829142-1.6206341-.27111027-2.4313776h-.45576806c-.37003519 0-.64823194-.32133333-.64823194-.68933333v-.66666667c0-.36866667.27819675-.644.64823194-.644h1.04776806l.71905283-3.26803131c.20706458-.94120264.99407676-1.73046778 2.04380122-1.73196869 1.51367114-.00216427 3.02738645-.00216427 4.54114595 0zm5 6.019h-5v8h5zm-2.7639072 1.40227537c.1886591-.36875548.640533-.51475241 1.0092884-.32609327.3380259.17293755.5367825.60196254.3260933 1.0092885-.1472011.2898599-.3410259.6683697-.5814745 1.1355294l.2729663-.0013291c.5427178-.004264.9499272.5791461.6591073 1.1185012-.1480301.2622101-.574421 1.0179942-1.2791727 2.2673525-.2035304.3607606-.6609787.4882209-1.0217394.2846905-.3306972-.1865695-.4962273-.6172131-.2846905-1.0217393.1144474-.2049586.3282904-.5847839.641529-1.1394758l-.2131226.0024872c-.5279409.0041478-.9443265-.5422724-.6735832-1.0915745.1634512-.3145008.5450507-1.0603799 1.1447986-2.23763733zm-7.31721323-.40188664c-.4035973-.09317778-.80631306.15846696-.89949084.56206426-.08541296.36996419.11892077.73918761.46444223.86992631l1.55917713.3669911c.40359729.0931778.80631306-.158467.89949083-.5620642.08541297-.36996424-.11892077-.73918769-.46444222-.86992636z" fill="var(--db-icon-color, currentColor)" fill-rule="evenodd"/></svg>
