<svg id="icon" height="32" viewBox="0 0 32 32" width="32" xmlns="http://www.w3.org/2000/svg"><path d="m26.7518325 10c1.7195127 0 3.2467883 1.3934307 3.249405 3.25.0016442 1.1666667.0012318 3.0833333-.0012375 5.75 0 .5 0 1-1 1-.2706749.0014118-1.2908478.0014118-3.0605187 0 .562307 0 .9998169.4375.9998169 1 0 .5223214-.4392982 1-.9998169 1-.6263209 0-2.2822676 0-4.9678403 0-.562397 0-.9998169-.4375-.9998169-1 0-.5223214.5281759-1 .9998169-1-.981094 0-4.313817 0-9.9981691 0 .562397 0 .9998169.4375.9998169 1 0 .5223214-.4732888 1-.9998169 1-.6489813 0-2.30492803 0-4.96784028 0-.56239701 0-.99981691-.4375-.99981691-1 0-.5223214.49418529-1 .99981691-1-.92558805-.0021103-1.92746525-.0021103-3.00563162 0-.5 0-1-.5-1-1-.00164995-1.1666624-.00123746-3.083329.00123746-5.75 0-1.7197793 1.3737317-3.148332 3.07144205-3.2448079l.18308943-.0051921zm0 2c-7.1644881-.0021487-14.3298427-.0021487-21.49606356 0-.64441325 0-1.25576894.5-1.24977114 1.25.0099963 1.2499962.00799703 2.1666629-.0059978 2.75h24l.0016036-2.75c0-.6445313-.4999084-1.2497751-1.2497711-1.25z" fill="var(--db-icon-color, currentColor)" fill-rule="evenodd"/></svg>
