<svg id="icon" height="64" viewBox="0 0 64 64" width="64" xmlns="http://www.w3.org/2000/svg"><g fill="none" fill-rule="evenodd" transform="translate(4 5)"><path d="m51.5 0a2.5 2.5 0 0 1 2.5 2.5v15a2.5 2.5 0 0 1 -2.5 2.5h-15a2.5 2.5 0 0 1 -2.5-2.5v-15a2.5 2.5 0 0 1 2.5-2.5zm0 2c-5-.003-10-.003-15 0a.5.5 0 0 0 -.5.5c-.003 5-.003 10 0 15 0 .245.205.5.5.5 5 .003 10 .003 15 0 .245 0 .5-.2.5-.5.003-5 .003-10 0-15a.5.5 0 0 0 -.5-.5zm-28.416 35.016c.102.006 4.093.001 11.973-.014 2.138.123 4.055 1.48 4.899 3.704a3342.84 3342.84 0 0 0 4 13 1 1 0 0 1 -.662 1.25c-.49.15-1.009-.048-1.25-.662-.17-.56-1.499-4.88-3.987-12.96-.45-1.27-1.625-2.258-3.057-2.334-.338-.006-4.338-.006-12 0a1 1 0 0 1 -1-1c0-.513.436-.942 1.084-.984zm-3.341-15.5c.842 3.121 1.739 6.418 2.69 9.888a.71.71 0 0 0 .567.596h10a1 1 0 1 1 0 2c-.181-.005-3.54-.006-10.076-.003a2.704 2.704 0 0 1 -2.438-2.13l-2.665-9.796c-.45-1.476-1.963-2.426-3.602-2.095a1 1 0 0 1 -.438-1.952c2.51-.563 5.068.819 5.962 3.492zm-4.243-17.516a5.5 5.5 0 1 1 0 11 5.5 5.5 0 0 1 0-11zm0 2a3.5 3.5 0 1 0 0 7 3.5 3.5 0 0 0 0-7zm-10.247-1.357a5.798 5.798 0 0 1 1.747 4.236v8.118c.004 1.584.199 3.528.691 5.269.328 1.16 2.247 8.107 5.756 20.838.376 1.04 1.403 1.896 2.553 1.896h13a1 1 0 0 1 1 1c0 .513-.404.958-1 1-.172-.014-4.518-.015-13.04 0-1.908-.076-3.59-1.257-4.335-3.077l-5.865-21.135a23.277 23.277 0 0 1 -.76-5.788v-8.14a3.795 3.795 0 0 0 -3.957-3.86 1 1 0 0 1 -.086-2 5.795 5.795 0 0 1 4.296 1.643z" fill="var(--db-icon-color, currentColor)" fill-rule="nonzero"/><path d="m43.988 4.865c1.204 0 2.1.24 2.688.721s.882 1.207.882 2.177c0 .69-.222 1.411-.595 1.771s-.907.668-1.591.837c.21.115.352.216.45.304.157.142.314.326.47.551l1.484 2.354c.263.42.149 1.055-.307 1.34-.457.284-.988.203-1.34-.31-.288-.494-.861-1.413-1.721-2.759a4.516 4.516 0 0 0 -.483-.665c-.101-.108-.316-.353-.911-.381l-.664-.004v3.242c0 .513-.47.97-1 1s-1.1-.367-1.1-1v-8.178c0-.513.417-.998 1-1a580.9 580.9 0 0 1 2.738 0zm-.136 1.54h-1.512v2.983h1.526c.61 0 1.02-.146 1.24-.358.246-.238.37-.623.37-1.155 0-.55-.121-.933-.364-1.148-.216-.19-.6-.322-1.26-.322z" fill="var(--db-icon-pulse-color, #EC0016)"/></g></svg>
