<svg id="icon" height="64" viewBox="0 0 64 64" width="64" xmlns="http://www.w3.org/2000/svg"><g fill="none" fill-rule="evenodd" transform="translate(4 8)"><path d="m25.263 34.611a1 1 0 0 0 -1-1h-19.263c-1.654 0-3-1.346-3-3v-25.611c0-1.655 1.346-3 3-3h39.595c1.654 0 3 1.345 3 3v9.531a1 1 0 1 0 2 0v-9.531c0-2.757-2.244-5-5-5h-39.595c-2.757 0-5 2.243-5 5v25.611c0 2.757 2.243 5 5 5h19.263a1 1 0 0 0 1-1m19.002-16.056a5.135 5.135 0 0 0 -5.13 5.13 5.135 5.135 0 0 0 5.13 5.13 5.135 5.135 0 0 0 5.13-5.13 5.135 5.135 0 0 0 -5.13-5.13m0 12.26a7.137 7.137 0 0 1 -7.13-7.13c0-3.931 3.198-7.13 7.13-7.13s7.13 3.199 7.13 7.13a7.137 7.137 0 0 1 -7.13 7.13m-11.653 2.138a3.625 3.625 0 0 0 -3.621 3.621 3.625 3.625 0 0 0 3.621 3.621 3.625 3.625 0 0 0 3.621-3.621 3.625 3.625 0 0 0 -3.621-3.621m0 9.242a5.628 5.628 0 0 1 -5.621-5.621c0-3.1 2.522-5.621 5.621-5.621a5.627 5.627 0 0 1 5.621 5.621 5.628 5.628 0 0 1 -5.621 5.621m22.38 6.375a1 1 0 0 1 -1-1v-10.093a4.336 4.336 0 0 0 -1.278-3.086 4.334 4.334 0 0 0 -2.826-1.27 11.553 11.553 0 0 1 -5.612 1.525 11.493 11.493 0 0 1 -4.713-1.051.999.999 0 1 1 .834-1.818 9.471 9.471 0 0 0 3.879.869 9.522 9.522 0 0 0 4.833-1.388c.156-.094.336-.145.519-.145 1.7 0 3.298.662 4.5 1.864a6.322 6.322 0 0 1 1.864 4.5v10.093a1 1 0 0 1 -1 1m-14.314 0a1 1 0 0 1 -.995-.901 3.045 3.045 0 0 0 -2.775-2.731 8.946 8.946 0 0 1 -4.286 1.145 8.958 8.958 0 0 1 -4.306-1.146 3.033 3.033 0 0 0 -2.775 2.721 1 1 0 1 1 -1.99-.201 5.028 5.028 0 0 1 5.018-4.53c.183 0 .362.051.519.146a6.956 6.956 0 0 0 3.534 1.01 6.94 6.94 0 0 0 3.514-1.01 1 1 0 0 1 .519-.146 5.01 5.01 0 0 1 3.567 1.478 5.056 5.056 0 0 1 1.452 3.066 1 1 0 0 1 -.996 1.099" fill="var(--db-icon-color, currentColor)" fill-rule="nonzero"/><path d="m10.023 8.195h-1.453v2.876h1.466c.56 0 .96-.114 1.203-.342.242-.227.363-.602.363-1.124 0-.532-.116-.9-.348-1.104-.204-.178-.603-.306-1.232-.306m.114-1.694c1.253 0 2.19.247 2.812.74.622.494.932 1.243.932 2.25 0 .664-.25 1.437-.59 1.772-.342.336-.817.654-1.59.857.159.078.273.126.472.311s.399.434.598.747l1.015 1.674c.224.376.189 1.153-.33 1.476-.548.32-1.183.17-1.448-.27l-1.444-2.41a4.434 4.434 0 0 0 -.477-.648c-.103-.11-.386-.39-1.018-.39h-.498v2.72c0 .641-.52 1.161-1.161 1.161-.591 0-1.16-.434-1.16-1.16v-7.811c0-.517.408-1.02 1.019-1.02a456.97 456.97 0 0 1 2.868 0" fill="var(--db-icon-pulse-color, #EC0016)"/></g></svg>
