<svg id="icon" height="24" viewBox="0 0 24 24" width="24" xmlns="http://www.w3.org/2000/svg"><path d="m7.797 17.01h-4.797a1 1 0 1 1 0-2h1.407v-5.616l-.958.312a1 1 0 1 1 -.619-1.901l2.267-.74a1 1 0 0 1 1.31.951v6.994h1.389a1 1 0 1 1 0 2zm8.2-.034a1 1 0 0 1 -.675-1.74l.396-.36c1.677-1.515 3.576-3.234 3.576-4.675a1.08 1.08 0 0 0 -1.1-1.2 2.368 2.368 0 0 0 -1.411.485 1 1 0 0 1 -1.209-1.595 4.385 4.385 0 0 1 2.62-.89 3.083 3.083 0 0 1 3.106 3.2c0 1.764-1.236 3.31-2.74 4.774h2.117a1 1 0 1 1 0 2h-4.68zm-3.992 3.02a1 1 0 0 1 -1-1.004v-13.964a1 1 0 1 1 2 0v13.964a1 1 0 0 1 -1 1.003z" fill="#282D37" style="fill: currentColor;fill: var(--db-icon-color, currentColor)" fill-rule="evenodd"/></svg>
