<svg id="icon" height="20" viewBox="0 0 20 20" width="20" xmlns="http://www.w3.org/2000/svg"><path d="m2 17.429v-6.86c0-.313.271-.569.625-.569h.35c4.27 0 9.025 3.417 9.025 5.714 0 1.608-1.5 2.286-4.524 2.286h-4.842c-.353 0-.634-.26-.634-.571zm0-5.418v2.398h.714c2.496.01 3.412.135 4.71.512.22.065.443.017.608-.134.336-.215.5-.379.492-.49a.55.55 0 0 0 -.268-.413c-1.634-1.103-3.573-1.75-5.597-1.873a4.87 4.87 0 0 0 -.659 0zm6.65-9.393 3.9 2.034.053.031 4.016-1.144a1 1 0 1 1 .548 1.923l-10.887 3.1a1 1 0 0 1 -1-.273l-.98-1.029a1 1 0 1 1 1.45-1.375l.563.592 3.499-.997-2.087-1.088a1 1 0 1 1 .925-1.773z" fill="var(--db-icon-color, currentColor)" fill-rule="evenodd"/></svg>
