<svg id="icon" height="24" viewBox="0 0 24 24" width="24" xmlns="http://www.w3.org/2000/svg"><path d="m2 18.99v-13.98c0-1.683 1.327-3.01 2.977-3.01h3.043c.55 0 .971.453.971 1.003s-.42 1.003-.97 1.003h-3.045c-.517 0-.97.454-.97 1.004v13.98c0 .55.453 1.004.97 1.004h8.026a1.01 1.01 0 0 0 1.004-1.004v-1.94c0-.583.453-.971.97-.971.583 0 1.004.388 1.004.97v1.942c0 1.683-1.327 3.01-2.978 3.01h-8.025c-1.65-.001-2.977-1.328-2.977-3.011zm3-2.006c0-.508.452-.984 1-.984s1 .476 1 .984c0 .54-.452 1.016-1 1.016s-1-.476-1-1.016zm3 0c0-.508.426-.984.984-.984.59 0 1.016.476 1.016.984a1.01 1.01 0 0 1 -1.016 1.016c-.558 0-.984-.476-.984-1.016zm3.002 0c0-.508.451-.984 1-.984.548 0 1 .476 1 .984 0 .54-.452 1.016-1 1.016-.549 0-1-.476-1-1.016zm4.982-14.984a6.005 6.005 0 0 1 6.016 6.016c0 3.3-2.685 5.984-6.016 5.984a5.991 5.991 0 0 1 -5.984-5.984c0-3.331 2.685-6.016 5.984-6.016zm.785 2.6c-.26 0-.518.13-.712.291l-2.201 2.2c-.226.228-.356.486-.356.713 0 .259.13.518.356.744l2.2 2.168c.195.195.454.292.713.292.582 0 1.035-.453 1.035-1.036 0-.259-.13-.518-.291-.712l-1.456-1.456 1.456-1.456c.162-.195.291-.454.291-.712 0-.583-.453-1.036-1.035-1.036z" fill="#282D37" style="fill: currentColor;fill: var(--db-icon-color, currentColor)" fill-rule="evenodd"/></svg>
