<svg id="icon" height="32" viewBox="0 0 32 32" width="32" xmlns="http://www.w3.org/2000/svg"><path d="m7 21.15c1.57401154 0 2.85 1.2759885 2.85 2.85s-1.27598846 2.85-2.85 2.85-2.85-1.2759885-2.85-2.85 1.27598846-2.85 2.85-2.85zm13 0c1.5740115 0 2.85 1.2759885 2.85 2.85s-1.2759885 2.85-2.85 2.85-2.85-1.2759885-2.85-2.85 1.2759885-2.85 2.85-2.85zm-13 1.7c-.63512746 0-1.15.5148725-1.15 1.15s.51487254 1.15 1.15 1.15 1.15-.5148725 1.15-1.15-.51487254-1.15-1.15-1.15zm13 0c-.6351275 0-1.15.5148725-1.15 1.15s.5148725 1.15 1.15 1.15 1.15-.5148725 1.15-1.15-.5148725-1.15-1.15-1.15zm-4.5285048-.5572428c.3905994.2603996.4961471.7881386.2357476 1.178738-.2603996.3905994-.7881386.4961471-1.178738.2357476-.6228124-.4152083-1.4341972-.4152083-2.0570096 0-.3905994.2603995-.9183384.1548518-1.178738-.2357476-.2603995-.3905994-.1548518-.9183384.2357476-1.178738 1.1938414-.7958942 2.749149-.7958942 3.9429904 0zm9.5285048-18.1427572c1.2821225 0 2.3797059.89721866 2.6467361 2.1353166l2.1973197 14.6135731c.0734452.4822018-.1391883.7907789-.6379005.9257314-.4386861.1054141-1.7720194.4387475-4 1-.4554257.1138564-.91692-.1630401-1.0307764-.6184658-.1050983-.4203929.1227528-.8459568.5166333-.9984918l3.3519878-.8456635-2.0472512-13.65361245c-.0683151-.45543425-.4530171-.85838755-.9967488-.85838755-.469442 0-.85-.38055796-.85-.85s.380558-.85.85-.85zm-1 8.85c.469442 0 .85.380558.85.85 0 .4333311-.3391773.85-.85.85v2.3c0 1.6587119-1.4086808 3-3 3h-15c-1.59131922 0-3-1.3412881-3-3 0-1.5333333 0-2.3 0-2.3-.45353931 0-.85-.380558-.85-.85 0-.4333311.34847412-.85.85-.85z" fill="var(--db-icon-color, currentColor)" fill-rule="evenodd"/></svg>
