<svg id="icon" height="24" viewBox="0 0 24 24" width="24" xmlns="http://www.w3.org/2000/svg"><path d="m21.316 5.91-3.633-1.213-2.405-2.404a.997.997 0 0 0 -1.012-.245.997.997 0 0 0 -.681.788l-1.146 6.88h-.024l-7.422-7.424a.999.999 0 1 0 -1.414 1.414l6.007 6.008h-5.203c-.105-.069-.383-.459-.383-1.569a1 1 0 1 0 -2 0c0 1.951.67 2.834 1.286 3.235v7.691a2.932 2.932 0 0 0 2.929 2.93 2.932 2.932 0 0 0 2.929-2.93v-1.72c.942.28 2.2.28 3.143 0v1.72a2.932 2.932 0 0 0 2.929 2.93 2.932 2.932 0 0 0 2.929-2.93v-7.461c1.699-.34 3.857-1.586 3.857-4.752a.998.998 0 0 0 -.684-.948zm-12.674 9.08a1.002 1.002 0 0 0 -1.5.866v3.214a.93.93 0 0 1 -.929.93.93.93 0 0 1 -.929-.93v-7.356h5.714v3.863c-.095.01-.191.02-.286.02-.993 0-2.064-.603-2.072-.606h.002zm6.572 5.01a.93.93 0 0 1 -.929-.93v-3.214a.998.998 0 0 0 -1-1 1 1 0 0 0 -.286.046v-2.57l3.143 1.571v5.167a.93.93 0 0 1 -.929.93zm1.929-10.287a1 1 0 0 0 -1 1v.954l-1.849-.924.944-5.663 1.198 1.197a1 1 0 0 0 .391.241l3.112 1.038c-.375 2.016-2.369 2.151-2.796 2.156z" fill="#282D37" style="fill: currentColor;fill: var(--db-icon-color, currentColor)" fill-rule="evenodd"/></svg>
