<svg id="icon" height="20" viewBox="0 0 20 20" width="20" xmlns="http://www.w3.org/2000/svg"><path d="m14 2c.625 0 1.338.313 1.713.781l2.03 2.813c.345.406.5.937.5 1.406 0 .5-.155.969-.5 1.406l-2.033 2.75c-.438.563-.997.844-1.716.844h-2.994v4h2.969c.562 0 1.031.438 1.031 1 0 .531-.375 1-1.031 1h-7.969c-.531 0-1-.438-1-1 0-.563.438-1 1-1h3v-4h-3.75c-1.25 0-2.25-1-2.25-2.219v-5.5c0-1.25 1-2.281 2.25-2.281zm-.006 2h-8.994v6h8.994l2.25-3z" fill="#282D37" style="fill: currentColor;fill: var(--db-icon-color, currentColor)" fill-rule="evenodd"/></svg>