<svg id="icon" height="20" viewBox="0 0 20 20" width="20" xmlns="http://www.w3.org/2000/svg"><path d="m5 17c0-.531.5-1 1-1h8c.563 0 1 .438 1 1 0 .563-.5 1-1 1h-8c-.5 0-1-.438-1-1zm5-15c2.781 0 5 2.031 5 4.656 0 .938-.313 1.907-.906 2.813l-3.25 5.062a1.07 1.07 0 0 1 -.844.469 1.07 1.07 0 0 1 -.844-.469l-3.25-5.061c-.593-.907-.906-1.876-.906-2.814 0-2.625 2.219-4.656 5-4.656zm0 2c-1.719 0-3 1.156-3 2.625 0 .5.219 1.094.594 1.688l2.406 3.687 2.406-3.688c.375-.592.594-1.092.594-1.687 0-1.469-1.281-2.625-3-2.625zm-1 3c0-.563.406-1 1-1 .563 0 1 .406 1 1 0 .563-.406 1-1 1-.563 0-1-.406-1-1z" fill="#282D37" style="fill: currentColor;fill: var(--db-icon-color, currentColor)" fill-rule="evenodd"/></svg>