<svg id="icon" height="20" viewBox="0 0 20 20" width="20" xmlns="http://www.w3.org/2000/svg"><path d="m7.4811 6.9975c.4635 0 .8812.3236.9874.7859l.7456 3.2166h3.3249c.4635 0 .8853.3504.9874.7935l1.1285 4.8967c.0275.1194.0403.2216.0403.3224 0 .6045-.4635.9874-.9874.9874-.4635 0-.8585-.3242-.9673-.7859l-.9874-4.2141h-3.3249c-.4635 0-.8629-.3006-.9673-.7431l-.9269-3.9294c-.0281-.1193-.0403-.2419-.0403-.3225 0-.5642.4635-1.0075.9874-1.0075zm-4.4811-4.9975c.5441 0 .995.4559.995 1v2.5869l2.1561 9.1285c.0337.1427.1612.2821.3224.2821h3.5063c.5441 0 1.0076.4635 1.0076.9874 0 .5441-.4836 1.0151-1.0076 1.0151h-3.5667c-1.0481 0-1.9592-.7213-2.1965-1.73l-2.1763-9.2599c-.0146-.0621-.0403-.1814-.0403-.3023v-2.7078c0-.5441.4358-1 1-1zm4.4999497 3c.81088422 0 1.5000503-.66892436 1.5000503-1.5s-.68916608-1.5-1.5000503-1.5c-.81078362 0-1.4999497.66892436-1.4999497 1.5s.68916608 1.5 1.4999497 1.5zm3.5000503 1.99170189v-2.98330482c0-1.1114661.896931-2.00839707 2.0083971-2.00839707h3.9777067c.5654307 0 1.0138962.44846549 1.0138962 1.01389615 0 .54603543-.4484655.99450092-1.0138962.99450092h-3.9777067v2.98330482h3.9777067c.5654307 0 1.0138962.44846549 1.0138962 1.01389615 0 .54593647-.4484655.99440196-1.0138962.99440196h-3.9777067c-1.1114661 0-2.0083971-.89693097-2.0083971-2.00829811z" fill="var(--db-icon-color, currentColor)" fill-rule="evenodd"/></svg>
