<svg id="icon" height="24" viewBox="0 0 24 24" width="24" xmlns="http://www.w3.org/2000/svg"><path d="m3 10c.5000752 0 .99875159.421676 1 1 .00215861.9999776.00215861 1.9999776 0 3 0 1.5976809 1.28431516 3 3 3 4.6665994.0016764 9.3332661.0016764 14 0 .5522847 0 .9999985.4477153.9999985 1 0 .5128358-.4067798 1-.9999985 1-.2042617.0018829-.4086739.0018829-.6132366 0l.5619199 1.6837722c.1746478.5239434-.1085122 1.0902633-.6324555 1.2649111-.4865188.1621729-1.1235309-.0906836-1.2649111-.6324555-.2596732-.771792-.5171909-1.5438679-.7725533-2.3162278h-11.2787634c-.83982993 0-1.63129927-.2070563-2.326144-.5729049l-.7037135 2.8154405c-.13394873.5357949-.67688322.8615556-1.21267813.7276069-.49752384-.124381-.86749988-.6539147-.72760687-1.2126781.31356471-1.2627121.62933367-2.5252498.9473069-3.7876131-.57395959-.7761718-.97547123-1.7907816-.9771644-2.9698513-.00143601-1-.00143601-2 0-3 0-.5522847.44771525-1 1-1zm11.076756 2.5154201c2.6930138.1666744 4.7139118.3338753 6.0626939.5016029.9807485.0625425 1.8605501.9700172 1.8605501 1.993977v.3319037c0 .5522847-.4477153.8833788-1 .8833788-.5128358 0-.9355072-.3860402-.9932723-.8833788l-.0057277-.3319037-6.092363-.5050039c-.3704881-.0310402-.8410646.2740693-.908915.6705123-.0900862.544888-.604834.9135778-1.149722.8234916s-.9135782-.6048344-.823492-1.1497224c.2199707-1.330497 1.572643-2.4384298 3.050248-2.3348575zm-6.51207058-1.5154201c1.38071187 0 2.49999998 1.1192881 2.49999998 2.5s-1.11928811 2.5-2.49999998 2.5c-1.38071188 0-2.5-1.1192881-2.5-2.5s1.11928812-2.5 2.5-2.5zm0 2c-.27614238 0-.5.2238576-.5.5s.22385762.5.5.5c.27614237 0 .5-.2238576.5-.5s-.22385763-.5-.5-.5zm5.09683798-5.90820312c.1558695 0 .2822266.16389465.2822266.31860351 0 .20236206-.0609768.32423579-.1732876.46861239l-1.1880405 1.52723722h1.0957031c.1639595 0 .296875.13291546.296875.296875s-.1329155.296875-.296875.296875h-1.78125c-.1639595 0-.296875-.15551758-.296875-.33744812 0-.22926331.0653534-.33808645.1853279-.488225l1.1896721-1.48878h-.9628906c-.1639596 0-.296875-.13291547-.296875-.296875 0-.16395954.1329154-.296875.296875-.296875zm3.7976136-1.72705079c.2049494 0 .3710937.20515756.3710937.39249596 0 .2264058-.076829.44611084-.2179202.62317825l-1.495947 1.8773922h1.3427735c.2049494 0 .3710937.16614433.3710937.37109375s-.1661443.37109375-.3710937.37109375h-2.081306c-.2049494 0-.3710937-.23402291-.3710937-.39831543 0-.24580383.0771517-.44042126.2187852-.61766443l1.4999648-1.87708655h-1.3543936c-.2049494 0-.3710937-.16614433-.3710937-.37109375s.1661443-.37109375.3710937-.37109375zm5.0852966-2.45410156c.2737153 0 .4956055.3057409.4956055.63969288 0 .2211987-.0733407.44648479-.2085427.62155411l-2.1908714 2.83689754h1.9243164c.2737153 0 .4956055.22189013.4956055.49560547s-.2218902.49560547-.4956055.49560547h-3.0693359c-.2737154 0-.4956055-.21176781-.4956055-.49560547 0-.40437317.0755294-.59149402.214432-.76783821l2.2328336-2.83470085h-1.743164c-.2737154 0-.4956055-.22189013-.4956055-.49560547s.2218901-.49560547.4956055-.49560547z" fill="var(--db-icon-color, currentColor)" fill-rule="evenodd"/></svg>
