<svg id="icon" height="32" viewBox="0 0 32 32" width="32" xmlns="http://www.w3.org/2000/svg"><path d="m2.0045 6.00250225c0-.5325292.43859473-1.00250225 1.00250225-1.00250225 2.13031727 0 3.99863075 1.66044447 3.99863075 4.01000898v2.85091592l2.29828635 11.5600539c.18245541.9096705 1.03388055 1.5790212 1.97372645 1.5790212h5.7268542c.5639075 0 1 .4360925 1 1s-.4360925 1-1 1h-5.7268542c-1.91107006 0-3.53422144-1.3244939-3.91607455-3.2030829l-2.32956425-11.5600539c-.01253128-.0613531-.031379-.2819036-.031379-.3759383v-2.85091592c0-1.12781502-.89718905-2.01000898-1.99362575-2.01000898-.56390752 0-1.00250225-.43348999-1.00250225-.99749775zm8 9.23069775c0-.8475 1.1614-1.2332 2.0403-1.2332 1.6323 0 2.8565.8879 3.174 2.4309l.9068 4.5691h5.6188c.4708 0 .8789.3857.9731.8565l1.3812 6.9686c.1255.6278-.3767 1.1929-.9731 1.1929-.5023 0-.9104-.3453-1.0045-.8162l-1.1928-6.2018h-5.6503c-.4708 0-.8789-.2959-.9731-.7668l-1.0358-5.2421c-.1256-.6278-.5651-.9911-1.1929-.9911-.5964 0-.7533.2691-1.1614.2691-.5336 0-.9103-.4709-.9103-1.0359zm2.2601-9.4798c1.7892 0 3.2332 1.4753 3.2332 3.2646 0 1.7892-1.444 3.2645-3.2332 3.2645-1.8207 0-3.2646-1.4753-3.2646-3.2645 0-1.7893 1.4439-3.2646 3.2646-3.2646zm0 2.009c-.6906 0-1.2556.565-1.2556 1.2556s.565 1.2556 1.2556 1.2556 1.2556-.565 1.2556-1.2556-.565-1.2556-1.2556-1.2556zm8.7354 9.2421c0-.5337.4708-1.0045 1.0044-1.0045h7.0628c.565 0 1.0045.4708 1.0045 1.0045v6.0269c0 .565-.4395 1.0045-1.0045 1.0045s-1.0045-.4395-1.0045-1.0045v-5.0225h-6.0583c-.5336 0-1.0044-.4394-1.0044-1.0044z" fill="var(--db-icon-color, currentColor)" fill-rule="evenodd"/></svg>
