<svg id="icon" height="32" viewBox="0 0 32 32" width="32" xmlns="http://www.w3.org/2000/svg"><path d="m5 22.5625c0-1.7812.625-3.5 1.7812-4.8437.1875-.2188.5-.3438.7813-.3438.5312 0 .9687.4688.9687 1 0 .25-.0625.4688-.2187.6563-.8438.9687-1.3125 2.2187-1.3125 3.5312 0 2.9688 2.4375 5.4375 5.4062 5.4375 1.9688 0 3.8125-1.125 4.75-2.875.1875-.3125.5313-.5.875-.5.5625 0 1 .4375 1 1 0 .1563-.0312.3125-.125.4688-1.2812 2.375-3.7812 3.9062-6.5 3.9062-4.0937 0-7.4062-3.3437-7.4062-7.4375zm4.4844-10.2512c0-.9375 1.25-1.3125 2.25-1.3125 1.4687 0 2.5937 1.0312 3.0312 2.4375l.8125 2.5625h5.4063c.5625 0 1 .4687 1 1 0 .5625-.4375 1-1 1h-6.125c-.4375 0-.8125-.2813-.9375-.6875l-1.0625-3.375c-.1563-.5938-.5625-.9375-1.1563-.9375-.5 0-.9062.3125-1.2187.3125-.5625 0-1-.4688-1-1zm4.9062 8.6875c0-.5625.4688-1 1-1h7.5938c.4062 0 .7812.25.9375.5937l3 6.9388c.0625.125.0937.25.0937.375 0 .4687-.328 1-1.0156 1-.375 0-.7656-.2188-.9219-.5938l-2.75-6.3137h-6.9375c-.5312 0-1-.4375-1-1zm-2.625-18.4988c1.7813 0 3.2188 1.4375 3.2188 3.25 0 1.7813-1.4375 3.2188-3.2188 3.2188-1.8125 0-3.25-1.4375-3.25-3.2188 0-1.8125 1.4375-3.25 3.25-3.25zm0 2c-.6875 0-1.25.5625-1.25 1.25s.5625 1.2188 1.25 1.2188 1.25-.5313 1.25-1.2188-.5625-1.25-1.25-1.25z" fill="var(--db-icon-color, currentColor)" fill-rule="evenodd"/></svg>
