<svg id="icon" height="32" viewBox="0 0 32 32" width="32" xmlns="http://www.w3.org/2000/svg"><path d="m8.00605183 9c.55228475 0 .993319.44771525.993319 1 0 .5128358-.4543032 1-.993319 1h-2.38888074c-.52370102 0-.72955281.579534-.54378271 1.1593022.88124184 2.8340546 1.76471061 5.6669919 2.6504063 8.4988117.05833459.1750038.23109593.3415669.47434164.3418861 2.05895858.0027016 4.11798678.0027016 6.17708438 0 1.1687085 0 2.2537182.8494287 2.6456569 1.9464059l1.7374557 5.7491916c.1594866.5287556-.139865 1.0866861-.6686206 1.2461728-.4909873.1480947-1.0071306-.0994415-1.2060542-.5589107l-1.727927-5.7057272c-.0939523-.3276698-.4431821-.6766411-.7805108-.6771324-2.0589431-.0029988-4.1179712-.0029988-6.17708438 0-1.01629401 0-1.92490083-.6141921-2.3093838-1.5424258l-2.73301188-8.7305279c-.52599061-1.8342257.27688793-3.7270463 2.46143045-3.7270463.8323458-.0016441 1.55650955-.0016441 2.38888074 0zm16.99394817-4c1.1045695 0 2 .8954305 2 2l.0011092.53577067c1.1320968.65536728 1.99791 1.87427987 1.9988908 3.46422933v10.5c0 1.3254834-1.0315359 2.4100387-2.3356243 2.4946823l-3.1643757.0053177c-1.3254834 0-2.4100387-1.0315359-2.4946823-2.3356243l-.0053177-10.6643757c0-1.48051499.8043432-2.77316556 1.9998796-3.46480154l.0001204-.53519846c0-1.1045695.8954305-2 2-2zm2 8h-4v2h1c.5522847 0 1 .4477153 1 1s-.4477153 1-1 1h-1v1h1c.5522847 0 1 .4477153 1 1s-.4477153 1-1 1h-1v1.5c0 .2147774.1744027.4991511.5.5h3c.2454599 0 .4496084-.1768752.4919443-.4101244zm-14.0011688-.5227678 1.8252731 1.815661c.3905243.3905243.3905243 1.0236893 0 1.4142136-.360484.3604839-.927715.3882135-1.3200062.0831886l-1.0081006-.9972954-1.239 3.207h4.86c.6283494 0 .9616827.3333333 1 1 0 .5128358-.4157543 1-1 1h-5c-1.43778232 0-2.26080576-1.0696983-1.83906276-2.4103142l1.76784426-4.5917596c.2790796-.72035 1.1893589-1.116053 1.9530522-.520694zm12.0011688-3.4772322c-1.0543618 0-2 .8954305-2 2h4c0-1.1045695-.8954305-2-2-2zm-11.883069-1.5c.8284498 0 1.5000665.67150847 1.5000665 1.49998892 0 .82845828-.6716167 1.50001108-1.5000665 1.50001108-.8283169 0-1.4999335-.6715528-1.4999335-1.50001108 0-.82848045.6716166-1.49998892 1.4999335-1.49998892zm-6.00002909-5.5c1.6568942 0 3.00009559 1.34310079 3.00009559 3.00001062 0 1.65690906-1.34320062 2.99998938-3.00009559 2.99998938-1.65676368 0-2.99990442-1.34311896-2.99990442-2.99998938 0-1.65687118 1.3431415-3.00001062 2.99990442-3.00001062zm0 2c-.5521941 0-.99990442.44770962-.99990442 1.00001062 0 .55229366.44770298.99998938.99990442.99998938.55236557 0 1.00009558-.44768992 1.00009558-.99998938 0-.5523068-.44773735-1.00001062-1.00009558-1.00001062z" fill="var(--db-icon-color, currentColor)" fill-rule="evenodd"/></svg>
