<svg id="icon" height="32" viewBox="0 0 32 32" width="32" xmlns="http://www.w3.org/2000/svg"><path d="m25.9763597 6.00547839c.3604839.36048396.3604839 1.05356271 0 1.41421356-4.063802 4.06721225-7.5524219 7.56164835-10.4658597 10.48330805l.6151 3.097h5.6188c.4708 0 .8789.3857.9731.8565l1.3812 6.9686c.1255.6278-.3767 1.1929-.9731 1.1929-.5023 0-.9104-.3453-1.0045-.8162l-1.1928-6.2018h-5.6503c-.4708 0-.8789-.2959-.9731-.7668l-.5164-2.6082-4.30286132 4.3031642c.3402314.640605 1.03763662 1.0718358 1.79200712 1.0718358h5.7268542c.5639075 0 1 .4360925 1 1s-.4360925 1-1 1h-5.7268542c-1.31710051 0-2.49744247-.6291216-3.2289266-1.6351662l-2.34161242 2.342273c-.39052429.3905243-1.02368927.3905243-1.41421356 0-.36048396-.360484-.41917916-.9851603 0-1.4142136 6.75470588-6.7643906 13.51112358-13.5268622 20.26925288-20.28741481.3905243-.39052429 1.0236893-.39052429 1.4142136 0zm-22.96935745-1.00547839c2.13031727 0 3.99863075 1.66044447 3.99863075 4.01000898v2.85091592l1.482867 7.4600751-1.689 1.689-1.767493-8.7731368c-.02091933-.2380876-.031379-.3634004-.031379-.3759383v-2.85091592c0-1.12781502-.89718905-2.01000898-1.99362575-2.01000898-.56390752 0-1.00250225-.43348999-1.00250225-.99749775 0-.5325292.43859473-1.00250225 1.00250225-1.00250225zm9.03779775 9c.5441 0 1.0428556.0986556 1.4778.2873444l-1.7401349 1.7375004c-.2682273.0383948-.5048193.2442552-.8676651.2442552-.5336 0-.9103-.4709-.9103-1.0359 0-.8475 1.1614-1.2332 2.0403-1.2332zm.2198-8.2466c1.7892 0 3.2332 1.4753 3.2332 3.2646 0 1.7892-1.444 3.2645-3.2332 3.2645-1.8207 0-3.2646-1.4753-3.2646-3.2645 0-1.7893 1.4439-3.2646 3.2646-3.2646zm0 2.009c-.6906 0-1.2556.565-1.2556 1.2556s.565 1.2556 1.2556 1.2556 1.2556-.565 1.2556-1.2556-.565-1.2556-1.2556-1.2556z" fill="var(--db-icon-color, currentColor)" fill-rule="evenodd"/></svg>
