<svg id="icon" height="20" viewBox="0 0 20 20" width="20" xmlns="http://www.w3.org/2000/svg"><path d="m17.2071068 2.79289322c.3604839.36048396.3882135.92771502.0831886 1.32000622l-.0831886.09420734-6.7921068 6.79189322 2.124.001c.4635 0 .8853.3504.9874.7935l1.1285 4.8967c.0275.1194.0403.2216.0403.3224 0 .6045-.4635.9874-.9874.9874-.4635 0-.8585-.3242-.9673-.7859l-.9874-4.2141-3.3371-.002-1.99283461 1.9949118.02485273.0034205 3.53178188.0011677c.5441 0 1.0076.4635 1.0076.9874 0 .5441-.4836 1.0151-1.0076 1.0151h-3.5667c-.55153351 0-1.06513038-.1997351-1.46257019-.535979l-1.24342303 1.2430858c-.39052429.3905243-1.02368927.3905243-1.41421356 0-.36048396-.360484-.3882135-.927715-.08318861-1.3200062l.08318861-.0942074 13.49999998-13.49999998c.3905243-.39052429 1.0236893-.39052429 1.4142136 0zm-14.2071068-.79289322c.5441 0 .995.4559.995 1v2.5869l1.196 5.0621-1.669 1.669-1.4817-6.3079c-.0146-.0621-.0403-.1814-.0403-.3023v-2.7078c0-.5441.4358-1 1-1zm4.4811 4.9975c.35776894 0 .68824991.19280323.8692488.4933751l-1.6293488 1.6281249-.187-.7915c-.0281-.1193-.0403-.2419-.0403-.3225 0-.5642.4635-1.0075.9874-1.0075zm.0188497-4.9975c.81088422 0 1.5000503.66892436 1.5000503 1.5s-.68916608 1.5-1.5000503 1.5c-.81078362 0-1.4999497-.66892436-1.4999497-1.5s.68916608-1.5 1.4999497-1.5z" fill="var(--db-icon-color, currentColor)" fill-rule="evenodd"/></svg>
