<svg id="icon" height="24" viewBox="0 0 24 24" width="24" xmlns="http://www.w3.org/2000/svg"><path d="m4 16.149c0-1.367.48-2.734 1.415-3.813a.973.973 0 0 1 .743-.336c.6 0 1.007.456 1.007 1.007 0 .216-.072.432-.215.624-.6.695-.96 1.606-.96 2.518 0 2.11 1.68 3.851 3.79 3.851 1.27 0 2.445-.59 3.189-1.597.216-.288.527-.432.815-.432.528 0 1.031.408 1.031 1.007a.92.92 0 0 1 -.215.6 5.974 5.974 0 0 1 -4.82 2.422c-3.119 0-5.78-2.566-5.78-5.851zm3.501-7.147c0-.551.456-1.007 1.007-1.007h.72c1.15 0 2.158.624 2.494 1.679l.096.326h3.429a1 1 0 0 1 1.007.993c0 .551-.456 1.007-1.007 1.007h-2.83l.6 2h3.501c.432 0 .767.254.935.662l2.183 5.18a.767.767 0 0 1 .071.335c0 .48-.383.984-1.007.984-.431 0-.767-.24-.935-.648l-1.943-4.508h-3.549a1 1 0 0 1 -.959-.72l-1.439-4.868c-.096-.312-.216-.431-.647-.431h-.72a.993.993 0 0 1 -1.007-.984zm0-4.988c0-1.103.911-2.014 2.015-2.014 1.103 0 1.99.911 1.99 2.014s-.887 1.99-1.99 1.99c-1.104 0-2.015-.886-2.015-1.99z" fill="#282D37" style="fill: currentColor;fill: var(--db-icon-color, currentColor)" fill-rule="evenodd"/></svg>
