<svg id="icon" height="64" viewBox="0 0 64 64" width="64" xmlns="http://www.w3.org/2000/svg"><g fill="none" fill-rule="evenodd" transform="translate(5 8)"><path d="m8 15a8 8 0 0 1 .998 15.938l.002.031.001 3.031h2.023a1 1 0 1 1 0 2h-6a1 1 0 0 1 0-2h1.977v-3l.003-.061a8 8 0 0 1 .996-15.939zm15 15a1 1 0 0 1 0 2h-5.976a1 1 0 0 1 0-2zm-15-13a6 6 0 1 0 0 12 6 6 0 0 0 0-12zm13 6c.55 0 1 .45 1 1v2c0 .55-.45 1-1 1h-2c-.55 0-1-.45-1-1v-2c0-.55.45-1 1-1zm-10.718-3.903c.742 0 .854.58.854.85v5.821c0 .27-.074.85-.854.85s-.85-.58-.85-.85v-2.35h-2.864v2.35c0 .27-.089.85-.857.85s-.848-.58-.848-.85v-5.82c0-.27.1-.85.855-.85s.85.58.85.85v2.183h2.864v-2.234c.003-.286.05-.8.85-.8zm10.719-3.097c.55 0 1 .45 1 1v2c0 .55-.45 1-1 1h-2c-.55 0-1-.45-1-1v-2c0-.55.45-1 1-1zm2-12a1 1 0 0 1 0 2h-7c-.548 0-1 .452-1 1v8a1 1 0 0 1 -2 0v-8c0-1.652 1.348-3 3-3zm-2 5c.55 0 1 .45 1 1v2c0 .55-.45 1-1 1h-2c-.55 0-1-.45-1-1v-2c0-.55.45-1 1-1zm16-9c1.652 0 3 1.348 3 3v13.234a1 1 0 0 1 -2 0v-13.234c0-.548-.452-1-1-1h-8c-.548 0-1 .452-1 1v26c0 .548.452 1 1 1h.36a1 1 0 0 1 0 2h-.361c-1.652 0-3-1.348-3-3v-26c0-1.652 1.348-3 3-3h8zm-3 12c.55 0 1 .45 1 1v2c0 .55-.45 1-1 1h-2c-.55 0-1-.45-1-1v-2c0-.55.45-1 1-1zm0-7c.55 0 1 .45 1 1v2c0 .55-.45 1-1 1h-2c-.55 0-1-.45-1-1v-2c0-.55.45-1 1-1z" fill="var(--db-icon-color, currentColor)" fill-rule="nonzero"/><path d="m49 20a3 3 0 0 1 3 3v22a3 3 0 0 1 -3 3h-14c-1.656 0-3-1.344-3-3v-22c0-1.656 1.344-3 3-3zm0 2h-14c-.563 0-1 .438-1 1v22c0 .562.438 1 1 1h14c.563 0 1-.438 1-1v-22c0-.562-.438-1-1-1zm-11 18c.563 0 1 .438 1 1s-.437 1-1 1h-1c-.563 0-1-.438-1-1s.438-1 1-1zm4.5 0c.563 0 1 .438 1 1s-.438 1-1 1h-1c-.563 0-1-.438-1-1s.438-1 1-1zm4.5 0c.563 0 1 .438 1 1s-.437 1-1 1h-1c-.562 0-1-.438-1-1s.438-1 1-1z" fill="var(--db-icon-pulse-color, #EC0016)" transform="matrix(.98480775 .17364818 -.17364818 .98480775 6.542112 -6.776687)"/></g></svg>
