<svg id="icon" height="24" viewBox="0 0 24 24" width="24" xmlns="http://www.w3.org/2000/svg"><path d="m10.788 12c1.528 0 2.638.99 2.638 2.354 0 .536-.156 1.01-.467 1.423.539.454.863 1.133.863 1.932 0 3.043-3.72 3.222-5.121 3.29l-.049.001a1 1 0 0 1 -.047-2c3.032-.146 3.205-.862 3.215-1.229v-.062c0-.131 0-.531-.6-.531-.324 0-.535.021-1.226.158a1 1 0 0 1 -.42-1.955c.556-.13 1.85-.49 1.85-1.027 0-.327-.487-.353-.636-.353-.46 0-.937.13-1.502.408a1 1 0 1 1 -.884-1.795c.85-.418 1.608-.614 2.386-.614zm-1.132-9c.219 0 .469.063.656.219l2.282 2.312a.919.919 0 0 1 .281.688.99.99 0 0 1 -.281.718l-2.188 2.22c-.187.187-.437.28-.75.28-.531 0-.969-.468-.969-1 0-.25.094-.5.313-.687l.563-.625c-3.126.219-5.563 2.844-5.563 6 0 1.531.625 3.063 1.781 4.25a.97.97 0 0 1 .282.688c0 .562-.47 1-1 1a.97.97 0 0 1 -.688-.282 7.998 7.998 0 0 1 -2.375-5.687c0-4.156 3.219-7.625 7.375-7.969l-.406-.406a.998.998 0 0 1 -.344-.75c0-.531.469-.969 1.031-.969zm8.344 9c1.781 0 3 1.348 3 3.355v2.29c0 2.007-1.219 3.355-3 3.355-1.813 0-3-1.348-3-3.324v-2.383c0-2.007 1.188-3.293 3-3.293zm0 2c-.625 0-1 .472-1 1.258v2.421c0 .85.375 1.321 1 1.321s1-.472 1-1.352v-2.296c0-.849-.375-1.352-1-1.352z" fill="#282D37" style="fill: currentColor;fill: var(--db-icon-color, currentColor)" fill-rule="evenodd"/></svg>