<svg id="icon" height="24" viewBox="0 0 24 24" width="24" xmlns="http://www.w3.org/2000/svg"><path d="m5 16.956v-9.912a2.06 2.06 0 0 1 2.044-2.044c.399 0 .798.14 1.15.376l6.454 4.956c.54.376.845 1.01.845 1.668s-.305 1.292-.845 1.668l-6.453 4.956a2.113 2.113 0 0 1 -1.175.376c-1.033 0-2.02-.87-2.02-2.044zm12.003.047v-10.03c0-.54.447-.986.987-.986s1.01.446 1.01.986v10.03c0 .54-.446.987-1.01.987a.992.992 0 0 1 -.987-.987z" fill="#282D37" style="fill: currentColor;fill: var(--db-icon-color, currentColor)" fill-rule="evenodd"/></svg>