<svg id="icon" height="24" viewBox="0 0 24 24" width="24" xmlns="http://www.w3.org/2000/svg"><path d="m10.5 3.99999996c.2210137 0 .4771852.08054523.6789656.25929288l1.7360344 1.74070712h5.0880621c1.3254834 0 2.4998061 1.05980912 2.4998061 2.5l.0006613 1.30102899c.7800265.42313535 1.4330236 1.35812555 1.289754 2.49107415l-.6498891 5.5532916c-.1433944 1.1934757-1.1998552 2.1546053-2.4772688 2.1546053h-13.33225124c-1.44372767 0-2.33387436-1.1103548-2.47340056-2.1546053l-.65653477-5.5532916c-.12329771-1.0480305.42058149-2.020793 1.29602107-2.49317346l.0001702-3.29892968c0-1.32548336 1.06491887-2.5 2.5-2.5zm-5.82244968 7.50000004c-.2855568 0-.493536.2634513-.493536.5l.65328474 5.5584206c.0263327.223828.2270031.4415794.4965753.4415794h13.33225124c.3025693 0 .4321479-.2314068.4932071-.4415794l.6536403-5.5584206c0-.2454599-.1846676-.4715792-.4577675-.5zm5.40744968-5.50000004h-4.0848697c-.24545989 0-.50026208.19359354-.50026208.5l-.0002932 3h13.00299998l.0004871-1c0-.24545985-.1883388-.5-.5-.5h-5.5030621c-.2210137 0-.4965329-.07995077-.7311077-.30724188z" fill="var(--db-icon-color, currentColor)" fill-rule="evenodd"/></svg>
