<svg id="icon" height="20" viewBox="0 0 20 20" width="20" xmlns="http://www.w3.org/2000/svg"><path d="m13.288 1.9991 1.82.001 1.786.01c.413.012.861.468.891.968l.215 3.812c-.035.493-.419.902-.924.957l-1.116.121-.156 1.275c-.1.38-.408.676-.802.755l-1.462.292-.1960576.1955281c-.1207531.1205515-.2681358.267819-.4085926.4082099l-.367037.3669506-.0783128.0783114c.468 2.156-.298 3.879-1.409 4.989-2.065 2.065-5.437 2.087-7.523 0-2.087-2.086-2.068-5.456 0-7.523 1.11-1.11 2.66-1.664 4.14-1.546l4.866-4.853c.21-.21.494-.307.724-.307zm.41 2-5.24 5.226-.918-.072c-.078-.007-.156-.01-.234-.01-.863 0-1.714.356-2.334.977-.625.624-.971 1.456-.97200217 2.343-.00099783.888.34400217 1.723.97200217 2.352.626.626 1.459.97 2.345.97.89 0 1.724-.344 2.349-.97.583-.582 1.206-1.602.87-3.152l-.231-1.064 2.25-2.252 1.365-.273.247-2.025 1.777-.191-.105-1.854zm-5.2979 7.3867c.597.597.597 1.565 0 2.162s-1.565.597-2.162 0-.597-1.565 0-2.162 1.565-.597 2.162 0z" fill="var(--db-icon-color, currentColor)" fill-rule="evenodd"/></svg>
