<svg id="icon" height="32" viewBox="0 0 32 32" width="32" xmlns="http://www.w3.org/2000/svg"><path d="m23.5 2c1.5 0 2.5 1 2.5 2.5v24c0 .632898-.559735 1.4995-1.6445041 1.4995-.4442109.0088915-.8568978-.0772762-1.3531838-.3212251-.4843255-.2546714-2.8184295-1.4807631-7.0023121-3.6782749-3.1526515 1.5899811-5.4838235 2.7842169-6.99351594 3.5827075-.59335548.3138313-.85301864.4200425-1.43651486.4167925-.78736409 0-1.5537851-.5187739-1.5698692-1.5648362v-23.9346638c0-1.5.9999-2.5 2.4999-2.5zm0 1.99998437-14.99990015-.00047012c-.31748481 0-.5.25452586-.5.49998575v23.353l7.06490015-3.63c.3116853-.1483333.623352-.2225.935-.2225s.6229813.0741667.934.2225l7.066 3.6305v-23.353c0-.27613627-.2238637-.49999137-.5-.50001563z" fill="var(--db-icon-color, currentColor)" fill-rule="evenodd"/></svg>
