<svg id="icon" height="32" viewBox="0 0 32 32" width="32" xmlns="http://www.w3.org/2000/svg"><path d="m21.643 11.999c.617-1.32 1.373-3.287 1.373-5 0-2.355-1.24-4.001-3.016-4.001-1.652 0-2.007 1.115-2.293 2.012-.14.438-.298.936-.602 1.542-1.475 2.949-4.792 5.376-6.086 6.244-.534-.49-1.239-.796-2.02-.796h-3.999c-1.654 0-3 1.346-3 3v9c0 1.654 1.346 3 3 3h4c.83 0 1.582-.34 2.126-.886 1.86.686 7.975 2.886 9.874 2.886 4.881 0 9-7.371 9-12 0-1.87 0-5-4-5zm-11.643 12c0 .552-.449 1-1 1h-4c-.551 0-1-.448-1-1v-9c0-.552.449-1 1-1h4c.551 0 1 .448 1 1zm1.97.293c.01-.098.03-.193.03-.293v-9c0-.145-.023-.284-.043-.423 1.304-.852 5.163-3.581 6.937-7.129.373-.745.572-1.372.718-1.829.081-.253.181-.567.178-.6 0 0 .056-.02.209-.02.698 0 1.016 1.037 1.016 2.001 0 2.284-1.858 5.46-1.876 5.491-.183.31-.186.692-.007 1.005.178.312.509.504.868.504h6c1.598 0 2 .354 2 3 0 3.948-3.754 10-7 10-1.238 0-5.947-1.574-9.03-2.707z" fill="var(--db-icon-color, currentColor)" fill-rule="evenodd" transform="matrix(1 0 0 -1 0 31.998)"/></svg>
