<svg id="icon" height="32" viewBox="0 0 32 32" width="32" xmlns="http://www.w3.org/2000/svg"><path d="m12.063 17c1.624 0 2.937 1.344 2.937 2.969v6.093a2.934 2.934 0 0 1 -2.938 2.938h-6.092c-1.626 0-2.97-1.313-2.97-2.938v-6.092c.031-1.626 1.344-2.97 2.969-2.97h6.093zm0 2h-6.095a.974.974 0 0 0 -.969.969v6.062c0 .532.438.969.969.969h6.093c.532 0 .938-.438.938-.969v-6.061c0-.532-.406-.969-.938-.969zm0-16c1.631 0 2.937 1.335 2.937 2.969v6.093a2.934 2.934 0 0 1 -2.938 2.938h-6.123a2.934 2.934 0 0 1 -2.939-2.938v-6.092c0-1.626 1.313-2.97 2.938-2.97zm0 2h-6.095a.974.974 0 0 0 -.968.969v6.093c0 .532.438.938.969.97h6.093c.532-.032.938-.438.938-.97v-6.092c0-.532-.406-.938-.938-.969zm9.937 12c1 0 2 1 2 2v3h3c1 0 2 .625 2 2v3c0 1-1 2-2 2h-3c-1 0-2-1-2-2v-3h-3c-1 0-2-1-2-2v-3c0-1 1-2 2-2zm4.5 7h-2c-.25 0-.5.219-.5.5v2.125c0 .25.219.438.438.438h2.156c.218 0 .406-.188.406-.438v-2.125c0-.25-.25-.5-.5-.5zm-4.906-5h-2.157a.47.47 0 0 0 -.437.438v2.125c0 .25.219.437.438.437h2.062c.281 0 .5-.219.5-.5v-2.063c0-.218-.188-.437-.406-.437zm4.468-16c1.626 0 2.938 1.344 2.938 2.969v6.093a2.934 2.934 0 0 1 -2.938 2.938h-6.092c-1.626 0-2.97-1.313-2.97-2.938v-6.092a2.988 2.988 0 0 1 2.969-2.97zm0 2h-6.092a.974.974 0 0 0 -.969.969v6.093c0 .532.438.938.969.97h6.093c.532-.032.938-.438.938-.97v-6.092c0-.532-.406-.938-.938-.969zm-19.062 19v-2c0-.531.469-1 1-1h2c.563 0 1 .469 1 1v2c0 .563-.438 1-1 1h-2c-.531 0-1-.438-1-1zm0-14v-2c0-.531.469-1 1-1h2c.563 0 1 .469 1 1v2c0 .563-.438 1-1 1h-2c-.531 0-1-.438-1-1zm14 0v-2c0-.531.469-1 1-1h2c.563 0 1 .469 1 1v2c0 .563-.438 1-1 1h-2c-.531 0-1-.438-1-1z" fill="#282D37" style="fill: currentColor;fill: var(--db-icon-color, currentColor)" fill-rule="evenodd"/></svg>
