<svg id="icon" height="24" viewBox="0 0 24 24" width="24" xmlns="http://www.w3.org/2000/svg"><path d="m19.5 20a1 1 0 0 1 1 1c0 .513-.45 1-1 1h-15a1 1 0 0 1 -1-1c0-.513.426-1 1-1zm-8.394-17.447a1 1 0 0 1 1.725-.11l2.616 5.215 5.106-2.552c.668-.335 1.515.173 1.445.964a1723.41 1723.41 0 0 1 -2.014 11.109 1 1 0 0 1 -.865.814l-14.119.007a1 1 0 0 1 -.956-.705l-2.028-11.116a1 1 0 0 1 1.33-1.118l5.206 2.597zm.894 2.683-2.106 4.211a1 1 0 0 1 -1.234.494l-4.319-2.153 1.493 8.211h12.331l1.493-8.211-4.21 2.106c-.424.212-1.044.106-1.284-.345a480.513 480.513 0 0 1 -2.164-4.313z" fill="var(--db-icon-color, currentColor)" fill-rule="evenodd"/></svg>
