<svg id="icon" height="64" viewBox="0 0 64 64" width="64" xmlns="http://www.w3.org/2000/svg"><g fill="none" fill-rule="evenodd" transform="translate(9.334 5.875)"><path d="m26.666 44.125a1 1 0 0 1 .117 1.993l-.117.007h-8a1 1 0 0 1 -.117-1.993l.117-.007zm-4-34.125c7.18 0 13 5.82 13 13a13.11 13.11 0 0 1 -5.913 10.939c-1.018.656-1.725 2.417-1.988 5.33a3 3 0 0 1 -2.81 2.726l-.177.005h-4.2a3 3 0 0 1 -2.99-2.76c-.221-2.756-.884-4.475-1.886-5.216l-.127-.088-.285-.19a13.046 13.046 0 0 1 -5.624-10.746c0-7.18 5.82-13 13-13zm0 2c-6.075 0-11 4.925-11 11 0 3.664 1.797 7.04 4.717 9.07l.277.186.18.122c1.599 1.14 2.476 3.393 2.741 6.702a1 1 0 0 0 .878.913l.119.007h4.2a1 1 0 0 0 .996-.91c.3-3.343 1.168-5.595 2.714-6.709l.175-.12.277-.187a11.11 11.11 0 0 0 4.726-9.074c0-6.075-4.925-11-11-11zm15.984 19.081.104.053 3.464 2a1 1 0 0 1 -.895 1.785l-.105-.053-3.464-2a1 1 0 0 1 .896-1.785zm-30.706.419a1 1 0 0 1 -.269 1.302l-.098.064-3.464 2a1 1 0 0 1 -1.097-1.668l.097-.064 3.464-2a1 1 0 0 1 1.367.366zm37.373-12.494a1 1 0 0 1 -.698 1.132l-.114.027-3.939.694a1 1 0 0 1 -.46-1.943l.113-.026 3.94-.695a1 1 0 0 1 1.158.811zm-44.26-.825.117.014 3.939.695a1 1 0 0 1 -.231 1.983l-.116-.014-3.94-.694a1 1 0 0 1 .232-1.984zm36.393-12.8a1 1 0 0 1 .193 1.315l-.07.094-2.57 3.064a1 1 0 0 1 -1.603-1.192l.07-.094 2.571-3.064a1 1 0 0 1 1.41-.123zm-28.24.038.08.085 2.572 3.064a1 1 0 0 1 -1.452 1.372l-.08-.085-2.571-3.065a1 1 0 0 1 1.451-1.37zm13.457-5.419a1 1 0 0 1 .993.883l.007.117v4a1 1 0 0 1 -1.993.117l-.008-.117v-4a1 1 0 0 1 1-1zm1.553 47.98a1 1 0 0 1 .894 1.79c-.802.4-1.62.605-2.447.605s-1.646-.205-2.447-.606a1 1 0 1 1 .894-1.788c.532.265 1.046.394 1.553.394s1.021-.129 1.553-.394z" fill="#282D37" style="fill: currentColor;fill: var(--db-icon-color, currentColor)" fill-rule="nonzero"/><path d="m23.8 14.059a9.004 9.004 0 0 1 7.785 7.826 1 1 0 1 1 -1.985.242 7.004 7.004 0 0 0 -6.053-6.084 1 1 0 0 1 .136-1.992l.116.008z" fill="#EC0016" style="fill:#EC0016;fill: var(--db-icon-pulse-color, #EC0016)"/></g></svg>
