<svg id="icon" height="64" viewBox="0 0 64 64" width="64" xmlns="http://www.w3.org/2000/svg"><g fill="none" fill-rule="evenodd" transform="translate(7 10)"><path d="m37.17 12.015.112.026 12 3.531a1 1 0 0 1 .71.84l.008.12-.003 10.191c0 .693-.042 1.41-.122 2.2-.542 5.34-2.952 9.304-6.584 12.056a18.3 18.3 0 0 1 -4.002 2.296 14.63 14.63 0 0 1 -1.876.653l-.17.042-.127.023a1 1 0 0 1 -.335-.017 6.772 6.772 0 0 1 -.29-.073l-.17-.048-.382-.119-.105-.035-.108-.037-.466-.17a18.23 18.23 0 0 1 -4.876-2.769c-3.457-2.748-5.735-6.635-6.259-11.802a23.06 23.06 0 0 1 -.117-1.781l-.005-.419-.003-10.191a1 1 0 0 1 .605-.92l.113-.04 12-3.531a1 1 0 0 1 .453-.026zm-.17 2.027-11 3.237.004 9.443c0 .62.038 1.272.112 1.999.467 4.608 2.463 8.014 5.513 10.44a16.246 16.246 0 0 0 4.916 2.666l.234.074.223.066.07-.019.346-.106c.188-.061.397-.135.624-.222l.233-.09.245-.1a16.314 16.314 0 0 0 3.564-2.046c3.208-2.43 5.32-5.903 5.802-10.663.06-.582.095-1.115.108-1.623l.004-.376.002-9.443-11-3.237zm-29 4.958a1 1 0 0 1 .52.145 12.736 12.736 0 0 0 6.47 1.855 12.752 12.752 0 0 0 5.587-1.354 1 1 0 1 1 .897 1.787 14.771 14.771 0 0 1 -6.484 1.567 14.752 14.752 0 0 1 -7.129-1.922l-.123-.072-.186.01a6 6 0 0 0 -5.548 5.76l-.004.224v12a1 1 0 0 1 -1.993.117l-.007-.117v-12a8 8 0 0 1 8-8zm29.5 15a1 1 0 0 1 .117 1.993l-.117.007h-1a1 1 0 0 1 -.117-1.993l.117-.007zm3-4a1 1 0 0 1 .117 1.993l-.117.007h-7a1 1 0 0 1 -.117-1.993l.117-.007zm0-8a1 1 0 0 1 .117 1.993l-.117.007h-7a1 1 0 0 1 -.117-1.993l.117-.007zm-3-4a1 1 0 0 1 .117 1.993l-.117.007h-1a1 1 0 0 1 -.117-1.993l.117-.007zm-22.5-18a9 9 0 1 1 0 18 9 9 0 0 1 0-18zm0 2a7 7 0 1 0 0 14 7 7 0 0 0 0-14z" fill="#282D37" style="fill: currentColor;fill: var(--db-icon-color, currentColor)" fill-rule="nonzero"/><path d="m43.5 26a1 1 0 0 1 .117 1.993l-.117.007h-13a1 1 0 0 1 -.117-1.993l.117-.007z" fill="#EC0016" style="fill:#EC0016;fill: var(--db-icon-pulse-color, #EC0016)"/></g></svg>
