<svg id="icon" height="24" viewBox="0 0 24 24" width="24" xmlns="http://www.w3.org/2000/svg"><path d="m12 2.14c.656 0 1.239.291 1.651.801l.875 1.069c.024.049.097.049.17.024l1.287-.34a2.124 2.124 0 0 1 2.671 1.943l.073 1.384c0 .05.049.098.097.122l1.287.486a2.1 2.1 0 0 1 1.36 1.967c0 .413-.121.825-.34 1.165l-.752 1.166a.155.155 0 0 0 0 .146l.752 1.166c.219.34.34.752.34 1.165 0 .802-.461 1.627-1.36 1.967l-1.287.486c-.073.024-.097.049-.097.122l-.073 1.384a2.111 2.111 0 0 1 -2.113 2.016c-.194 0-.364-.025-.558-.073l-1.287-.34c-.073-.025-.146-.025-.17.024l-.875 1.069c-.412.51-.995.801-1.651.801a2.094 2.094 0 0 1 -1.651-.801l-.85-1.069c-.049-.049-.098-.073-.17-.049l-1.312.365a2.124 2.124 0 0 1 -2.671-1.943l-.073-1.384c0-.05-.024-.098-.097-.122l-1.287-.486a2.1 2.1 0 0 1 -1.36-1.967c0-.413.121-.825.34-1.165l.752-1.166a.155.155 0 0 0 0-.146l-.752-1.166a2.178 2.178 0 0 1 -.34-1.165c0-.802.461-1.627 1.36-1.967l1.287-.486c.048-.024.097-.073.097-.122l.073-1.384a2.111 2.111 0 0 1 2.113-2.016c.194 0 .364.025.558.073l1.287.34c.049.025.146 0 .17-.024l.875-1.069c.412-.51.995-.801 1.651-.801zm-.097 2.064-.874 1.069c-.413.51-1.02.777-1.652.777-.17 0-.364-.024-.558-.073l-1.336-.34c-.073-.024-.146.024-.146.097l-.073 1.386c-.048.85-.583 1.554-1.36 1.87l-1.287.51c-.073.024-.097.121-.048.194l.728 1.141c.219.365.34.753.34 1.166s-.121.801-.34 1.166l-.728 1.117c-.025.073-.025.17.048.194l1.287.534c.777.316 1.312 1.02 1.36 1.87l.073 1.385c0 .073.049.121.146.097l1.336-.34c.194-.049.388-.073.558-.073.632 0 1.239.267 1.652.777l.874 1.069a.114.114 0 0 0 .194 0l.874-1.069a2.106 2.106 0 0 1 1.652-.777c.17 0 .364.024.558.073l1.336.34c.073.024.146-.049.146-.097l.073-1.385c.048-.85.583-1.554 1.36-1.87l1.287-.51c.097-.024.121-.121.073-.17l-.753-1.165a2.241 2.241 0 0 1 -.34-1.166c0-.413.121-.801.34-1.166l.728-1.117c.049-.097.025-.194-.048-.218l-1.287-.51c-.777-.316-1.312-1.02-1.36-1.87l-.073-1.385c0-.073-.073-.121-.146-.097l-1.336.34a2.358 2.358 0 0 1 -.558.073 2.106 2.106 0 0 1 -1.652-.777l-.874-1.069a.114.114 0 0 0 -.194 0zm3.108 10.807a.985.985 0 0 0 .996-.995.985.985 0 0 0 -.996-.996.985.985 0 0 0 -.995.996c0 .558.437.995.995.995zm-5.027 0a.996.996 0 0 1 -.995-1.02c0-.242.097-.51.291-.704l4.007-4.007c.194-.194.462-.291.704-.291a1 1 0 0 1 1.02 1.02c0 .242-.097.51-.291.704l-4.007 4.007a1.028 1.028 0 0 1 -.729.291zm-.971-4.007c.583 0 1.044-.461 1.044-1.044 0-.559-.461-1.044-1.044-1.044s-1.044.484-1.044 1.044c0 .583.461 1.044 1.044 1.044z" fill="#282D37" style="fill: currentColor;fill: var(--db-icon-color, currentColor)" fill-rule="evenodd"/></svg>
