<svg id="icon" height="20" viewBox="0 0 20 20" width="20" xmlns="http://www.w3.org/2000/svg"><path d="m15.97 3c.469 0 .996.312.996.976 0 .214-.059.429-.195.624l-12.041 12.098a.968.968 0 0 1 -.702.273 1.037 1.037 0 0 1 -1.034-1.015c0-.214.07-.417.234-.585l1.337-1.375c-1.395-.203-2.565-1.36-2.565-2.956v-1.99c0-1.61 1.398-3.025 2.81-3.025h.917l2.751-1.815a.992.992 0 0 1 .546-.176c.488 0 .976.39.976.878v3.669l3.551-3.571-.234-.254a.88.88 0 0 1 -.312-.702c0-.547.449-1.035 1.014-1.035.371 0 .508.118.976.586l.273-.312c.182-.208.43-.293.703-.293zm-7.96 3.883-1.132.78c-.425.294-.644.371-.878.371h-.995a.989.989 0 0 0 -.995 1.016v1.99c0 .42.315.976.995.976h.995c.2 0 .257.054.449.117l1.56-1.561v-3.689zm.39 8.936 1.6-1.6v.781c0 .585-.43 1.034-1.034 1.034-.176 0-.293-.058-.566-.214zm3.005-3.004 2.595-2.556c-.098.975-.605 1.873-1.346 2.536a.887.887 0 0 1 -.605.215c-.215 0-.351-.04-.644-.195zm1.6 3.2c0-.274.117-.566.332-.761a7.284 7.284 0 0 0 2.653-5.308c0-.546-.058-.897-.253-1.463l1.56-1.542c.45.937.664 1.971.703 3.005-.098 2.654-1.327 5.113-3.356 6.83a.908.908 0 0 1 -.605.234c-.585 0-1.034-.43-1.034-.995z" fill="#282D37" style="fill: currentColor;fill: var(--db-icon-color, currentColor)" fill-rule="evenodd"/></svg>