<svg id="icon" height="20" viewBox="0 0 20 20" width="20" xmlns="http://www.w3.org/2000/svg"><path d="m3.64 14.825c.644 0 1.034-.546 1.034-.956 0-.469-.741-1.6-.741-2.87 0-2.694 2.05-4.724 4.548-4.958l-.683.644c-.156.195-.293.449-.293.703 0 .507.468.956.996.956.253 0 .532-.092.716-.278l2.178-2.196c.185-.186.268-.454.268-.708a.89.89 0 0 0 -.273-.644l-2.207-2.225a.942.942 0 0 0 -.682-.293 1 1 0 0 0 -.996.995.95.95 0 0 0 .293.684l.449.449a6.878 6.878 0 0 0 -6.247 6.871c0 1.386.527 3.826 1.64 3.826zm4.773-5.041c1.26 0 2.175.827 2.175 1.966 0 .413-.21.775-.63 1.084.574.32.921.807.921 1.381 0 2.461-3.001 2.606-3.987 2.654h-.048a.972.972 0 0 1 -.046-1.943c1.403-.067 2.137-.275 2.137-.614 0-.137-.086-.288-.271-.288-.505 0-.7.169-1.004.169-.488 0-.945-.434-.945-.967 0-.416.303-.782.752-.874.745-.152 1.205-.326 1.205-.466 0-.073-.09-.159-.302-.159-.588 0-.952.376-1.409.376-.495 0-.948-.442-.948-.974 0-.353.2-.701.542-.87.659-.324 1.25-.475 1.858-.475zm6.08.063c1.601 0 2.695 1.133 2.695 2.87v1.093c0 1.757-1.133 2.89-2.792 2.89-1.503 0-2.596-1.152-2.596-2.85v-1.211c0-1.66 1.132-2.791 2.694-2.791zm.047 1.948h-.066c-.43.011-.722.122-.722.825v1.23c0 .683.215.892.742.882.468-.01.722-.239.722-.941v-1.093c0-.82-.39-.912-.742-.903z" fill="#282D37" style="fill: currentColor;fill: var(--db-icon-color, currentColor)" fill-rule="evenodd"/></svg>