<svg id="icon" height="20" viewBox="0 0 20 20" width="20" xmlns="http://www.w3.org/2000/svg"><path d="m9 4c.563 0 1 .469 1 1v10c0 .563-.438 1-1 1-.188 0-.375-.063-.531-.156l-2.75-1.844h-.719c-1.656 0-3-1.344-3-2.969v-2c0-1.656 1.344-3.031 3-3.031h.719l2.75-1.813a.848.848 0 0 1 .531-.187zm-1 2.875-1.438.969a1.08 1.08 0 0 1 -.562.156h-1c-.563 0-1 .469-1 1v2c0 .563.438 1 1 1h1c.219 0 .406.063.563.188l1.437.936v-6.25zm4 6.094c1 0 2-1.5 2-3s-1-2.969-2-2.969c-.5 0-1 .469-1 1 0 .969 1 .969 1 1.969s-1 1-1 2c0 .5.5 1 1 1zm2 4.031c.25 0 .469-.094.656-.25a9.268 9.268 0 0 0 3.344-6.813c0-2.25-1.219-4.656-3.313-6.656a.97.97 0 0 0 -.687-.281c-.531 0-1 .469-1 1 0 .281.125.563.313.75 1.687 1.563 2.687 3.531 2.687 5.188a7.327 7.327 0 0 1 -2.656 5.312.998.998 0 0 0 -.344.75c0 .563.469 1 1 1z" fill="#282D37" style="fill: currentColor;fill: var(--db-icon-color, currentColor)" fill-rule="evenodd"/></svg>