<svg id="icon" height="32" viewBox="0 0 32 32" width="32" xmlns="http://www.w3.org/2000/svg"><path d="m25.969 9c1.125 0 2.25.25 3.312.719.438.187.625.531.625.906 0 .5-.406 1.031-.968 1.031a.961.961 0 0 1 -.407-.094 6.369 6.369 0 0 0 -2.687-.562c-1.157 0-4.157.187-4.157 5.969 0 5.218 2.47 5.812 4.344 5.812a7.92 7.92 0 0 0 2.532-.5 1.26 1.26 0 0 1 .468-.094c.563 0 .969.532.969 1.063 0 .344-.188.656-.594.844a9.707 9.707 0 0 1 -3.375.687c-2.906 0-6.343-1.344-6.343-7.812 0-6.938 3.937-7.969 6.28-7.969zm-23.939 1.25c-.03-.094-.03-.188-.03-.281 0-.594.531-.969 1.031-.969.406 0 .813.219.938.75l2.561 10.062 2.908-10.092a.957.957 0 0 1 .936-.72c.438 0 .844.25.969.719l2.812 10.093 2.657-10.062c.125-.531.532-.75.938-.75.5 0 1.031.375 1.031.969 0 .062-.031.187-.062.281l-3.563 13.625c-.125.5-.531.75-.969.75a.957.957 0 0 1 -.937-.719l-2.875-10.25-2.938 10.25c-.125.5-.53.719-.937.719-.438 0-.844-.25-.969-.75l-3.5-13.625z" fill="#282D37" style="fill: currentColor;fill: var(--db-icon-color, currentColor)" fill-rule="evenodd"/></svg>
