<svg id="icon" height="64" viewBox="0 0 64 64" width="64" xmlns="http://www.w3.org/2000/svg"><g fill="none" fill-rule="evenodd" transform="translate(6 6)"><path d="m41.7 22.293c3.085 0 4.872 1.074 6.252 2.9a10.732 10.732 0 0 1 2.155 5.826l.098 3.64a27.385 27.385 0 0 1 -.676 6.771l-.753 3.004c-.23.753-.418 1.282-.562 1.587-.217.457-.88 1.422-1.12 1.71-.242.287-.93.991-1.912 1.317a1 1 0 0 1 -.968 1.245h-8a1 1 0 0 1 -.966-1.262 4.389 4.389 0 0 1 -2.03-1.484c-.521-.688-1.264-1.75-1.615-3.29l-.56-2.2a27.106 27.106 0 0 1 -.83-6.719l.093-3.946c.056-2.24.815-4.407 2.17-6.199 1.33-1.76 3.197-2.9 6.317-2.9zm5.163 21.542c-1.358.856-2.161 1.348-2.408 1.476-.371.192-.772.31-1.336.381a47.666 47.666 0 0 1 -2.906.104c-.914.003-1.83-.026-2.746-.086-.704-.074-1.163-.21-1.595-.453-.233-.13-2.096-1.296-2.311-1.422.087.423.22.811.404 1.162.183.352.44.763.77 1.234.413.611 1.234 1.062 1.854 1.055l7.15.007c.735 0 1.497-.323 1.965-1.046.468-.722.71-1.092.895-1.542.122-.3.21-.59.264-.87zm-8.07-19.542c-2.29 0-3.62.647-4.722 2.106a8.735 8.735 0 0 0 -1.751 4.703l-.098 3.67c-.053 2.08.136 4.231.662 6.38.775.43 3.61 2.132 3.773 2.228.592.352 1.723.415 3.574.415 1.852 0 2.819.045 3.576-.415.757-.459 3.077-1.864 3.728-2.217.453-1.738.68-3.68.679-5.826l-.091-3.895a8.728 8.728 0 0 0 -1.766-5.043c-1.068-1.412-2.231-2.102-4.657-2.102zm-6.083-8.891c2.56 0 4.871 1.386 6.23 3.42.088.106.14.332.14.506a1 1 0 0 1 -1 1 .984.984 0 0 1 -.836-.482c-.005-.003-.02-.001-.022-.005a5.768 5.768 0 0 0 -.58-.707l-.022.542a.999.999 0 0 1 -1.997.018c-.002 0 .07-1.895.07-1.895a5.249 5.249 0 0 0 -1.688-.39l-5.295-.007c-.692 0-1.362.142-1.983.397l.42 10.453c.046.453.254.792.7.914.214.054.975.219.981.223a.987.987 0 0 1 .783.957 1 1 0 0 1 -1 1c-.24.003-1.03-.187-1.03-.187a3 3 0 0 1 -2.42-2.646l-.382-9.38c-.984 1.03-1.505 2.272-1.562 3.729l-.007 12.717c1.319.508 3.226.935 4.953 1.312.796.066 1.154.518 1.151 1.019-.002.5-.448 1-1 1-.35 0-1.92-.374-3.526-.779l-.481-.122-.71-.182a5.7 5.7 0 0 0 3.657 3.324.997.997 0 0 1 1.098-.704c.318.045.635.078.952.11.253.026.413.242.433.347.106.558.464 2.05.464 2.05.046.207-.006.447-.32.447h-.92c-4.194 0-7.617-3.263-7.747-7.35l-.004-13.151c0-3.945 3.311-7.363 7.262-7.495l5.238-.004zm12.014 21.922a1 1 0 0 1 .674 1.146l-.961 2.982a1.001 1.001 0 0 1 -1.891-.61l.96-2.982a1.001 1.001 0 0 1 1.218-.536zm-7.916.51.94 2.895a1 1 0 0 1 -1.861.723l-.94-2.896a.999.999 0 0 1 1.86-.722zm-17.808-37.834c8.246 0 15.474 5.3 18.034 13.002a1 1 0 1 1 -1.898.631 16.942 16.942 0 0 0 -1.13-2.634h-7.265c.08.399.154.806.223 1.22a1.001 1.001 0 0 1 -1.974.325 32.197 32.197 0 0 0 -.292-1.545h-11.393c-.449 2.104-.733 4.475-.793 7h4.702a1 1 0 0 1 0 2l-4.702.001c.181 7.696 2.43 14.417 5.212 16.043a1 1 0 0 1 -.521 1.863c-9.82-1.015-17.203-9.136-17.203-18.906 0-10.493 8.506-18.999 19-19zm-8.489 20h-8.482c.424 7.278 5.444 13.389 12.278 15.345-2.22-3.326-3.658-9.052-3.796-15.345zm29.703 6.293c2.105 0 3.69.433 4.757 1.298 1.066.866 1.25 1.757 1.143 2.713-.084.738-.15 1.313-.414 2.43s-1.231 1.998-2.39 2.2a13.683 13.683 0 0 1 -3.096.36c-1.55 0-1.868-.118-3.098-.36-1.23-.243-2.132-1.1-2.406-2.27a25.035 25.035 0 0 1 -.412-2.334 3 3 0 0 1 .914-2.524c1.062-1.009 2.729-1.513 5.002-1.513zm-15.686 7.165a1.002 1.002 0 0 1 1.186-.773l1.965.416a1.001 1.001 0 0 1 -.206 1.98c-.046 0-.77-.146-2.173-.438a1.001 1.001 0 0 1 -.772-1.185zm15.686-5.165c-1.805 0-2.987.358-3.625.963a1.002 1.002 0 0 0 -.313.695c-.004.17.123.92.38 2.255a.998.998 0 0 0 .682.73c1.24.234 2.196.354 2.867.357.67.003 1.59-.107 2.763-.33a.999.999 0 0 0 .75-.593c.126-.3.33-1.612.408-2.292.032-.279.02-.557-.415-.934-.592-.512-1.813-.85-3.497-.85zm-36.218-17.293a16.905 16.905 0 0 0 -1.967 7l8.482-.001c.055-2.486.312-4.85.742-6.999l-7.257-.001zm10.638-8.434a17.03 17.03 0 0 0 -9.383 6.434h6.469c.711-2.646 1.706-4.863 2.914-6.435zm8.746.006c1.28 1.757 2.245 3.9 2.896 6.429h6.477a17.032 17.032 0 0 0 -9.373-6.429zm-4.38-.573c-2.02 0-3.967 2.748-5.195 7h10.392c-1.258-4.332-3.252-7-5.197-7z" fill="var(--db-icon-color, currentColor)" fill-rule="nonzero"/><path d="m17.214 26.5a1 1 0 0 1 0 2h-13.805a1 1 0 0 1 0-2z" fill="var(--db-icon-pulse-color, #EC0016)"/></g></svg>
