<svg id="icon" height="32" viewBox="0 0 32 32" width="32" xmlns="http://www.w3.org/2000/svg"><path d="m16 2c7.72 0 14 6.28 14 14s-6.28 14-14 14-14-6.28-14-14 6.28-14 14-14zm0 2c-6.617 0-12 5.383-12 12s5.383 12 12 12 12-5.383 12-12-5.383-12-12-12zm-1.507 13.567a.998.998 0 1 0 1.996 0c0-1.996 3.631-1.626 3.631-5.571 0-1.994-1.611-3.496-3.748-3.496-1.525 0-3.622.307-3.622 1.489 0 .543.448.997.998.997.931 0 1.147-.49 2.624-.49.872 0 1.753.464 1.753 1.5 0 2.815-3.632 2.168-3.632 5.571zm2.406 4.308a1.375 1.375 0 1 1 -2.75-.002 1.375 1.375 0 0 1 2.75.002z" fill="var(--db-icon-color, currentColor)" fill-rule="evenodd"/></svg>
