<svg id="icon" height="64" viewBox="0 0 64 64" width="64" xmlns="http://www.w3.org/2000/svg"><g fill="none" fill-rule="evenodd" transform="translate(8 12)"><path d="m24 26a6 6 0 1 0 0 12 6 6 0 0 0 0-12zm0 2a4 4 0 1 1 0 8 4 4 0 0 1 0-8zm0-10c4.335 0 8.433 1.981 11.125 5.379a1 1 0 0 1 -1.568 1.242 12.194 12.194 0 0 0 -19.114 0 1 1 0 1 1 -1.568-1.242 14.194 14.194 0 0 1 11.125-5.379zm0-9a22.496 22.496 0 0 1 17.51 8.372 1 1 0 1 1 -1.557 1.256 20.496 20.496 0 0 0 -31.906 0 1 1 0 0 1 -1.557-1.256 22.496 22.496 0 0 1 17.51-8.372z" fill="#282D37" style="fill: currentColor;fill: var(--db-icon-color, currentColor)" fill-rule="nonzero"/><path d="m24 0c9.363 0 18.18 4.407 23.8 11.897a1 1 0 0 1 -1.6 1.2 27.754 27.754 0 0 0 -44.4 0 1 1 0 0 1 -1.6-1.2 29.754 29.754 0 0 1 23.8-11.897z" fill="#EC0016" style="fill:#EC0016;fill: var(--db-icon-pulse-color, #EC0016)"/></g></svg>
