<svg id="icon" height="24" viewBox="0 0 24 24" width="24" xmlns="http://www.w3.org/2000/svg"><path d="m17.627 13c1.19 0 1.827.125 2.48.474.61.326 1.093.81 1.419 1.419.322.603.453 1.192.472 2.215l.002 2.892a1 1 0 0 1 -1 1c-.513 0-1.005-.423-1.005-1v-2.998c-.017-.616-.085-.89-.233-1.166a1.423 1.423 0 0 0 -.598-.598c-.276-.148-.55-.216-1.166-.233l-3.651-.005c-.86 0-1.187.064-1.511.238a1.43 1.43 0 0 0 -.598.598c-.16.297-.227.596-.237 1.307l-.001 2.857a1 1 0 0 1 -1 1c-.513 0-1-.413-.993-1l-.007-2.653c0-1.164.126-1.804.474-2.454a3.423 3.423 0 0 1 1.419-1.419c.6-.32 1.191-.453 2.194-.472zm-10.377 0a1 1 0 0 1 1 1c0 .513-.42 1-1 1l-1.159.01c-.503.013-.897.094-1.183.24-.29.146-.509.35-.659.611-.156.274-.226.538-.244 1.173l-.005 2.966a1 1 0 0 1 -2 0v-2.581c0-1.244.133-1.887.514-2.552a3.516 3.516 0 0 1 1.501-1.406c.638-.318 1.25-.443 2.378-.46zm8.75-10a4 4 0 1 1 0 8 4 4 0 0 1 0-8zm-7.793 0a4.39 4.39 0 0 1 1.484.256c.52.186.786.757.604 1.279-.103.297-.508.809-1.166.637l-.402-.1a6.26 6.26 0 0 0 -.099-.021l-.155-.03-.156-.018-.11-.003c-1.233 0-2.207.91-2.207 2s.974 2 2.207 2l.153-.002c.159-.007.35-.033.683-.137.444-.14 1.023.12 1.2.642a1 1 0 0 1 -.628 1.268 4.4 4.4 0 0 1 -1.408.229c-2.309 0-4.207-1.775-4.207-4s1.898-4 4.207-4zm7.793 2a2 2 0 1 0 0 4 2 2 0 0 0 0-4z" fill="#282D37" style="fill: currentColor;fill: var(--db-icon-color, currentColor)" fill-rule="evenodd"/></svg>
