<svg id="icon" height="32" viewBox="0 0 32 32" width="32" xmlns="http://www.w3.org/2000/svg"><path d="m28.7 18.99c0-6.11-5.026-11.031-11.147-10.967l1.32-1.318a.997.997 0 0 0 .29-.708.983.983 0 0 0 -.998-.997 1 1 0 0 0 -.709.29l-3.156 3.15a.997.997 0 0 0 -.29.708 1 1 0 0 0 .29.708l3.157 3.152a1 1 0 0 0 .71.29c.58 0 .998-.451.998-.998a.997.997 0 0 0 -.29-.708l-1.579-1.576c4.994-.225 9.407 3.763 9.407 8.942a8.95 8.95 0 0 1 -2.223 5.918.982.982 0 0 0 -.225.643c0 .579.419 1.03.998 1.03a.946.946 0 0 0 .665-.264l.076-.09c1.771-1.995 2.706-4.568 2.706-7.205z" fill="#282D37" style="fill: currentColor;fill: var(--db-icon-color, currentColor)" fill-rule="evenodd"/></svg>