<svg id="icon" height="32" viewBox="0 0 32 32" width="32" xmlns="http://www.w3.org/2000/svg"><path d="m24 2c3.3137085 0 6 2.6862915 6 6 0 1.74174689-.7388578 3.3906285-2.097 4.555.0630657.4602254.095399.941892.097 1.445 0 6.0751322-4.9248678 11-11 11-.5009956 0-.998104-.0335576-1.4889816-.1000413-.5472879-.0741238-.9308633-.5778775-.8567395-1.1251655.0741238-.5472879.5778776-.9308633 1.1251655-.8567395.4019718.0544424.8094028.0819463 1.2205556.0819463 4.9705627 0 9-4.0294373 9-9 0-.4580123-.0518521-1.332436-.2812116-2.3280077 1.676664-.9575886 2.2812116-2.33555446 2.2812116-3.6719923 0-2.209139-1.790861-4-4-4-1.0409653 0-2.1824977.34074353-3.3631979 1.73860488-1.7141878-.64028652-2.5940481-.73860488-3.6368021-.73860488-.9122981 0-1.9184575.09333365-3.6364551.73819112-1.187237-1.43076889-2.2436552-1.73819112-3.3635449-1.73819112-2.209139 0-3.92057715 1.79228917-4 4-.08185937 2.2754385 1.9664735 3.466324 2.27981885 3.6690577-.05152512.2549057-.27981885 1.3309423-.27981885 2.3309423s.09185549 1.3493877.2070522 2.0453576c2.7036179.3466412 4.7929478 2.6566473 4.7929478 5.4546424 0 1.3211411-.4658129 2.5334858-1.24216 3.4817554l.887219 1.0496448c.1151952-.0206318.2338105-.0314002.354941-.0314002 1.1045695 0 2 .8954305 2 2s-.8954305 2-2 2-2-.8954305-2-2c0-.2372779.04132-.464905.117157-.6760783l-.886051-1.0488441c-.80469244.461237-1.7371057.7249224-2.731106.7249224-3.03756612 0-5.5-2.4624339-5.5-5.5 0-2.5937566 1.79544267-4.7681651 4.21129042-5.348188-.14086028-.8032386-.21129042-1.5205092-.21129042-2.151812 0-.7538795.03929199-.9466726.096-1.446-.7600953-.6430877-2.08727843-2.2166036-2.09041411-4.29369243-.00558589-3.70012542 2.68070561-6.26030757 5.99441411-6.26030757 1.3980765 0 2.645059.41743191 3.902 1.444.9265021-.296 1.9591687-.444 3.098-.444.9895058 0 2.3191827.17539625 3.097.444 1.2511991-1.02581483 2.4639701-1.444 3.903-1.444zm-5.85 13c.469442 0 .85.380558.85.85s-.380558.85-.85.85h-.3l.0010764.9003313c.2870671.2064882.5470207.2996687.7852872.2996687.2628442 0 .4670054-.1122887.6762107-.3999459.2761125-.3796548.8077169-.4635923 1.1873716-.1874798.3796548.2761125.4635923.8077169.1874798 1.1873716-.5180675.7123428-1.2229971 1.1000541-2.0510621 1.1000541-.5188806 0-1.0992738-.1714223-1.6363636-.525-.5048575.3292964-.8082987.525-1.6363636.525-.828065 0-1.5329946-.3877113-2.0510621-1.1000541-.2761125-.3796547-.192175-.9112591.1874798-1.1873716.3796547-.2761125.9112591-.192175 1.1873716.1874798.2092053.2876572.4133665.3999459.6762107.3999459.2385397 0 .4988164-.0933943.7862749-.3003796l.0000887-.8996204h-.3c-.469442 0-.85-.380558-.85-.85s.380558-.85.85-.85zm-5.4-4.5c.6903559 0 1.25.5596441 1.25 1.25s-.5596441 1.25-1.25 1.25-1.25-.5596441-1.25-1.25.5596441-1.25 1.25-1.25zm9 0c.6903559 0 1.25.5596441 1.25 1.25s-.5596441 1.25-1.25 1.25-1.25-.5596441-1.25-1.25.5596441-1.25 1.25-1.25zm-10.9837651 9.7397194-.106371.2020274c-1.00341346 1.8283811-2.80801811 3.2955172-4.9162359 4.0878015.51601647.2985372 1.11611784.4704517 1.756372.4704517 1.93299662 0 3.5-1.5670034 3.5-3.5 0-.4442895-.0827828-.8692441-.2337651-1.2602806zm-3.2662349-2.2397194c-1.93299662 0-3.5 1.5670034-3.5 3.5 0 .4973319.10372903.9704365.29073243 1.3988593 2.36553579-.6399367 4.37391627-2.3270634 5.00580066-4.325357l.02456573-.0630064c-.53053924-.3238773-1.15402548-.5104959-1.82109882-.5104959z" fill="var(--db-icon-color, currentColor)" fill-rule="evenodd"/></svg>
