<svg id="icon" height="64" viewBox="0 0 64 64" width="64" xmlns="http://www.w3.org/2000/svg"><g fill="none" fill-rule="evenodd" transform="translate(8.626 8)"><path d="m8.332 8.613c.148.491-.077 1.044-.67 1.245-.727.218-1.567.848-2.088 1.542-.466.606-.815 1.167-1.145 1.484-.876.909-1.682 1.296-1.96 1.54-.25.264-.375.441-.451.631.152.134.506.273 1.062.417 1.198-.247 1.909-.127 3-.015 1.09.112 1.716.033 2.633-.444.898-.41 1.472.39 1.46.843.173 3.891 2.16 6.83 7.144 10.005.294.177.544.362.628.697.508 2.035 1.406 4.23 2.601 6.252.4.71.443 1.991.237 3.889-.183 1.68-.539 3.78-1.067 6.301h1.284l1.27-9.343-.395-8.108a1 1 0 0 1 1.985-.214l.127 2.486c4.057.62 6.49.325 8.075.16a10.504 10.504 0 0 1 -1.198-1.964 1 1 0 0 1 1.818-.833c.935 2.038 3.163 4.13 5.155 4.985 2.126.83 3.21 1.863 3.476 3.398.098.564.082 1.164-.03 1.912-.294 1.671-.843 4.179-1.647 7.521h1.084c.904-3.348 1.686-6.71 2.347-10.087-.087-.586-1.325-2.13-2.1-2.906a1 1 0 0 1 -.237-.374c-.62-1.757-.147-3.358.986-5.247a1 1 0 1 1 1.715 1.029c-.75 1.25-1.13 2.305-.874 3.358.848.874 1.53 1.764 2.048 2.673.263.394.538 1.158.45 1.747a140.432 140.432 0 0 1 -2.623 11.09 1 1 0 0 1 -.84.71l-3.217.007a1 1 0 0 1 -.994-1.112c.068-.583 1.098-4.204 2-9.124.169-1.523-.732-2.132-2.3-2.745-1.142-.49-2.314-1.276-3.356-2.23-5.024.748-8.091.292-9.637.07.119 2.223.178 3.548.178 3.976l-1.4 10.3a1.008 1.008 0 0 1 -.99.865h-3.4a1 1 0 0 1 -.975-1.225c.145-.626 1.55-7.005 1.398-9.51-.014-.225-.042-.38-.085-.456-1.201-2.033-2.13-4.245-2.698-6.342-4.694-3.012-7.2-6.1-7.808-10.148-.68.184-1.25.285-3.45.028-.612-.04-1.015-.008-1.54.123a1 1 0 0 1 -.467.005c-3.907-.8-3.035-3.26-1.833-4.427.492-.477 1.292-.827 1.953-1.532.278-.296.74-.964 1.004-1.316.765-1.02 1.951-1.91 3.113-2.258a1 1 0 0 1 1.245.67zm6.442-1.713c1.115 1.486 1.288 3.254.254 4.53 1.236 1.38 2.152 2.023 2.43 2.147 4.562 1.896 7.621 2.207 12.73 1.694 3.477-.431 5.947-.622 7.409-.57 5.82.129 9.766 4.074 9.174 10.787a1 1 0 0 1 -1.993-.176c.486-5.508-2.513-8.507-7.218-8.612-1.382-.042-3.425.108-6.13.449-6.043.691-9.516.446-14.762-1.735-.869-.386-2.245-1.627-3.278-2.815-.127.054-.26.104-.4.15a1 1 0 0 1 -.632-1.897c1.146-.382 1.559-1.066 1.24-2l-1.838 1.022a1 1 0 0 1 -1.07-1.685l2.799-1.563a1 1 0 0 1 1.285.274zm-7.5 4.7a.5.5 0 1 1 0 1 .5.5 0 0 1 0-1z" fill="#282D37" style="fill: currentColor;fill: var(--db-icon-color, currentColor)" fill-rule="nonzero"/><path d="m12.922.106a1 1 0 0 1 .493 1.234c-.186.37-.236.75-.15 1.142.898-.328 1.824-.88 2.778-1.657a1 1 0 1 1 1.263 1.55c-1.618 1.319-2.403 1.575-3.222 1.935-.82.36-3.253 1.106-4.15 1.578-1.74.831-.994 2.61-.702 3.098a1 1 0 0 1 -.343 1.372c-.474.284-1.121.147-1.423-.433-.502-.96-.637-1.78-.646-2.347-1.067-.215-2.212-.984-3.268-2.509a1 1 0 0 1 1.645-1.138c.836 1.208 1.562 1.652 2.124 1.708.262-.443.63-.837 1.102-1.17-.576-.716-.88-1.634-1.022-2.24a1 1 0 0 1 1.947-.458c.102.433.34 1.225.926 1.792l1.105-.387c-.267-.895-.205-1.812.201-2.623a1 1 0 0 1 1.342-.447z" fill="#EC0016" style="fill:#EC0016;fill: var(--db-icon-pulse-color, #EC0016)"/></g></svg>
