<svg id="icon" height="64" viewBox="0 0 64 64" width="64" xmlns="http://www.w3.org/2000/svg"><g fill="none" fill-rule="evenodd" transform="translate(15.393 11.998)"><path d="m17.37 7.304a1 1 0 0 1 .461.147c.06.038.294.222.7.55 4.76-.091 8.697 1.307 11.658 4.07a1 1 0 0 1 .316.674c.003.123-.019.465-.065 1.027 4.38 4.022 3.352 10.425 3.06 12.24a1 1 0 0 1 -.304.614c-.125.1-.33.257-.614.47-1.124 3.98-3.083 7.05-5.875 9.206a1 1 0 0 1 -.62.2c-.158-.014-.54-.07-1.145-.169-4.08 1.78-10.605 2.088-15.14.04-1.012 2.136-3.195 3.629-5.695 3.629-1.258 0-2.548-.43-3.655-1.168-.455-.303-.554-.791-.354-1.476.61-1.71 1.34-2.781 2.78-3.628-1.78-.9-3.102-3.212-2.829-4.617.14-.717 2.327-1.711 4.058-1.711 2.784 0 5.176 1.853 5.997 4.382 6.64-.304 9.603-4.143 9.603-7.182 0-1.97-1.193-3.1-3.1-3.1h-2.7c-4.842 0-8.054-2.407-9.848-6.335-.614-1.346-1.408-3.858-1.452-6.148a1 1 0 0 1 .853-1.006c7.688-1.082 13.102-.76 13.91-.709zm-15.173 30.228c2.239 1.144 4.936.09 5.901-2.248-1.166-.803-4.905-.764-5.9 2.248zm16.077-6.466c-2.065 1.595-4.688 2.496-7.868 2.705a8.272 8.272 0 0 1 -.042.656c3.292 1.6 7.98 1.699 11.643.779-1.626-.985-2.967-2.456-3.733-4.14zm2.735-3.345c-.413.806-.804 1.421-1.172 1.846.709 2.227 3.05 4.605 5.993 4.88 1.824-1.498 3.234-3.598 4.159-5.902-2.817.855-6.692.568-8.98-.824zm-18.899 2.192c.485 2.004 3.71 3.505 5.968 2.158-.592-1.674-3.124-3.596-5.968-2.158zm28.095-13.4c-.229 1.595-1.592 8.337-8.503 8.345-.01.292-.038.581-.083.867 1.75 1.501 7.618 2.09 9.957-.376.567-3.754.11-6.699-1.371-8.835zm-9.415-6.433c2.039 2.47 3.14 6.845-1.103 10.314.817.585 1.432 1.431 1.757 2.46 4.499.089 6.841-3.122 7.029-9.635-2.04-1.769-4.602-2.815-7.683-3.139zm-16.114-.214c.274 2.153 1.43 9.43 8.901 9.632l2.695.003c2.515-.05 4.335-2.477 4.335-4.799 0-1.481-1.165-3.852-3.676-5.42-3.462-.181-7.547.014-12.255.584zm5.23 1.836a.9.9 0 1 1 0 1.8.9.9 0 0 1 0-1.8z" fill="#282D37" style="fill: currentColor;fill: var(--db-icon-color, currentColor)" fill-rule="nonzero"/><path d="m31.607.002a1 1 0 1 1 0 2h-19.415c-5.254-.075-7.706 1.924-7.587 3.941a1 1 0 0 1 -1.997.118c-.19-3.245 3.168-6.046 9.258-6.061l19.74.002z" fill="#EC0016" style="fill:#EC0016;fill: var(--db-icon-pulse-color, #EC0016)"/></g></svg>
