<svg id="icon" height="32" viewBox="0 0 32 32" width="32" xmlns="http://www.w3.org/2000/svg"><path d="m13.544 23c1.22 0 2.304.78 2.567 1.926l.864 3.851a1 1 0 0 1 -1.95.446l-.865-3.856c-.038-.168-.238-.327-.511-.36l-7.187-.007c-.327 0-.575.178-.617.362l-.87 3.86a1 1 0 0 1 -1.95-.445l.87-3.857c.249-1.086 1.312-1.915 2.567-1.915zm-3.544-12a5 5 0 1 1 0 10 5 5 0 0 1 0-10zm0 2a3 3 0 1 0 0 6 3 3 0 0 0 0-6zm14.53 4.152a1 1 0 1 1 -1.058 1.695 1 1 0 0 1 1.058-1.695zm-5.028-1.016a1 1 0 1 1 -1.005 1.73 1 1 0 0 1 1.005-1.73zm10 0a1 1 0 1 1 -1.005 1.73 1 1 0 0 1 1.005-1.73zm-4.972-1.984a1 1 0 1 1 -1.058 1.695 1 1 0 0 1 1.058-1.695zm-4.028-1.016a1 1 0 1 1 -1.005 1.73 1 1 0 0 1 1.005-1.73zm8.362.362a1 1 0 1 1 -1.728 1.006 1 1 0 0 1 1.728-1.006zm-4.334-2.346a.999.999 0 1 1 -1.06 1.695 1 1 0 1 1 1.06-1.695zm-3.028-1.016a1 1 0 1 1 -1.003 1.73 1 1 0 0 1 1.003-1.73zm6.362.362a1 1 0 1 1 -1.727 1.006 1 1 0 0 1 1.727-1.006zm-3.864-8.498a1 1 0 0 1 1 1v2.543c1.121.096 2.238.353 3.351.77a1 1 0 1 1 -.702 1.873c-1.223-.458-2.439-.686-3.649-.686-1.211 0-2.426.228-3.649.686a1 1 0 1 1 -.702-1.872 12.577 12.577 0 0 1 3.351-.771v-2.543a1 1 0 0 1 1-1z" fill="#282D37" style="fill: currentColor;fill: var(--db-icon-color, currentColor)" fill-rule="evenodd"/></svg>
