<svg id="icon" height="20" viewBox="0 0 20 20" width="20" xmlns="http://www.w3.org/2000/svg"><path d="m7.25 18c.688 0 1.25-.563 1.25-1.25 0-.688-.563-1.25-1.25-1.25-.719 0-1.25.563-1.25 1.25 0 .688.531 1.25 1.25 1.25zm6.75 0c.688 0 1.25-.563 1.25-1.25 0-.688-.562-1.25-1.25-1.25-.687 0-1.25.563-1.25 1.25 0 .688.563 1.25 1.25 1.25zm-10.094-16c.938 0 1.688.656 1.906 1.594l.095.406h10.593a.98.98 0 0 1 .969 1.219l-1.063 4.561c-.187.75-.75 1.469-1.75 1.563l-7.312.687.187.969h6.969c.563 0 1 .438 1 1 0 .469-.438 1-1 1h-6.906c-1.032 0-1.875-.688-2.032-1.594l-1.687-9.405h-.875c-.563 0-1-.469-1-1s.469-1 1-1zm11.344 4h-9l.75 4.063 7.438-.72z" fill="#282D37" style="fill: currentColor;fill: var(--db-icon-color, currentColor)" fill-rule="evenodd"/></svg>