<svg id="icon" height="32" viewBox="0 0 32 32" width="32" xmlns="http://www.w3.org/2000/svg"><path d="m27 4c.547 0 1 .4 1 1a1 1 0 0 1 -.281.711l-22.008 22a.992.992 0 0 1 -.711.289c-.546 0-1-.4-1-1 0-.258.09-.52.281-.71l4.875-4.852-.531-.438h-3.625a3 3 0 0 1 -3-3v-4a3 3 0 0 1 3-3h3.625l5.75-4.786a.933.933 0 0 1 .604-.216.994.994 0 0 1 1.021 1.002v7.594l3.719-3.75a.984.984 0 0 1 .671-1.701.99.99 0 0 1 .516.138l.25.156 2.188-2.187-.625-.375c-.328-.197-.514-.514-.514-.859 0-.54.433-1.023 1.001-1.023.165 0 .333.039.482.132l1.093.688 1.509-1.523a.986.986 0 0 1 .71-.29zm-13 5.125-4.344 3.656a1.265 1.265 0 0 1 -.656.219h-4c-.563 0-1 .438-1 1v4c0 .563.438 1 1 1h4c.219 0 .469.094.656.219l.906.781 3.438-3.406zm-1.75 14.875 2.128 1.78a.995.995 0 0 0 1.622-.78v-4.719zm7.15-2.138c0 .544.47 1.013 1.006 1.013.157 0 .34-.063.501-.155 2.624-1.504 4.093-3.876 4.093-6.72a7.318 7.318 0 0 0 -1-3.75l-1.469 1.5c.282.625.469 1.375.469 2.25 0 2.688-1.688 4.194-3.096 4.997a1 1 0 0 0 -.505.865zm2.805 4.122c0 .567.457 1.016 1.014 1.016a.91.91 0 0 0 .47-.123 12.508 12.508 0 0 0 6.311-10.877c0-2.688-.875-5.219-2.406-7.344l-1.438 1.438a10.332 10.332 0 0 1 1.844 5.906c0 3.781-2.031 7.282-5.282 9.125a.98.98 0 0 0 -.513.859z" fill="#282D37" style="fill: currentColor;fill: var(--db-icon-color, currentColor)" fill-rule="evenodd"/></svg>
