<svg id="icon" height="20" viewBox="0 0 20 20" width="20" xmlns="http://www.w3.org/2000/svg"><path d="m2 5.5312c0-1.875 1.5-3.375 3.375-3.375 1.84375 0 3.375 1.5 3.375 3.3438 0 1.75-1.34375 3.4062-3.375 3.4062-1.875 0-3.375-1.5-3.375-3.375zm4.9375 10.0626c0 1.25 1 2.25 2.25 2.25s2.25-1 2.25-2.25c0-1.2188-1-2.25-2.25-2.25s-2.25 1.0312-2.25 2.25zm2.40625-6.6876c0-2.375 1.9375-4.3124 4.34375-4.3124 2.375 0 4.3125 1.9374 4.3125 4.3124 0 2.4063-1.9375 4.3438-4.3125 4.3438s-4.34375-1.9375-4.34375-4.3438z" fill="var(--db-icon-color, currentColor)" fill-rule="evenodd"/></svg>
