<svg id="icon" height="32" viewBox="0 0 32 32" width="32" xmlns="http://www.w3.org/2000/svg"><path d="m27 6c1.65625 0 3 1.3438 3 3v14c0 1.6562-1.34375 3-3 3h-22c-1.65625 0-3-1.3438-3-3v-14c0-1.6562 1.34375-3 3-3zm-18 2h-4c-.5625 0-1 .4375-1 1v14c0 .5625.4375 1 1 1h9.3125c-.75-.4688-1.1875-1.2812-1.1875-2.125 0-1.4375 1.15625-2.5 2.5-2.5s2.5 1.0625 2.5 2.5c0 .8438-.4375 1.6562-1.15625 2.125h10.03125c.5625 0 1-.4375 1-1v-14c0-.5625-.4375-1-1-1h-13.15625c.84364.719 1.3125 1.75 1.3125 2.8125 0 2.0625-1.6875 3.7187-3.71875 3.7187-2.0625 0-3.71875-1.6562-3.71875-3.7187 0-1.0625.46875-2.0937 1.28125-2.8125zm6.8125 6.5c0-2.625 2.125-4.75 4.75-4.75s4.75 2.125 4.75 4.75-2.125 4.75-4.75 4.75-4.75-2.125-4.75-4.75z" fill="var(--db-icon-color, currentColor)" fill-rule="evenodd"/></svg>
