<svg id="icon" height="20" viewBox="0 0 20 20" width="20" xmlns="http://www.w3.org/2000/svg"><path d="m16 6.001775c1.0543618 0 1.9945143.84053921 1.9945143 2l.0054857 7.9982937c0 1.0543618-.8680012 2-2 2h-12c-1.0543618 0-1.99327227-.8684397-1.99451426-2l-.00548574-7.9982937c0-1.0543618.8225068-1.99451426 2-1.99451426zm0 2h-12v7.9982937h12zm-2.49268.998225c.3317 0 .74393.05458916 1.46341.19301526l-.12904 1.68455144c-.50598-.1493439-1.06151-.1967213-1.29535-.1967213-.9561 0-1.2878.3713064-1.2878 1.4657941 0 1.0554239.35122 1.4267303 1.30731 1.4267303.25745 0 .7057-.0382625 1.23738-.1883075l.21906 1.5741711c-.56408.2362859-1.342.2949818-1.59302.2949818-1.9122 0-3.00488-.9772962-3.00488-3.0880438 0-2.0716837 1.1122-3.1661714 3.08293-3.1661714zm-6.009759.13682348c1.404878 0 2.107317.54729391 2.107317 1.56355382 0 .6644853-.27317 1.0162599-.975609 1.2703749.936585.1954192 1.307317.6254216 1.307317 1.4462623 0 1.1335514-.839025 1.7199091-2.517074 1.7199091h-2.419512v-6.00010012zm-.019512 3.47888222h-.819512v1.0749557h.760975c.565854 0 .819513-.1563554.819513-.527762 0-.4103703-.214635-.5471937-.760976-.5471937zm-.078049-2.03262h-.741463v.8208407h.721951c.390244 0 .585366-.1432339.585366-.4299022 0-.2606256-.17561-.3909385-.565854-.3909385zm8.6-8.5813107c1.0543618 0 1.9113718.80246133 1.9945143 1.85073766l.0054857.39748734c0 .55228475-.4477153 1-1 1-.5128358 0-1-.43063415-1-.96829012v-.27993488h-12v.248225c0 .55228475-.44771525 1-1 1-.51283584 0-1-.40731777-.99327227-1l-.00672773-.248225c0-1.0543618.80558683-2 2-2z" fill="var(--db-icon-color, currentColor)" fill-rule="evenodd"/></svg>
