<svg id="icon" height="24" viewBox="0 0 24 24" width="24" xmlns="http://www.w3.org/2000/svg"><path d="m2 18.9903v-13.9806c0-1.6828 1.3269-3.0097 2.9774-3.0097h3.042c.5502 0 .9709.4531.9709 1.0032 0 .5502-.4207 1.0033-.9709 1.0033h-3.042c-.5178 0-.9709.453-.9709 1.0032v13.9806c0 .5502.4531 1.0032.9709 1.0032h8.0259c.5501 0 1.0032-.453 1.0032-1.0032v-1.9418c0-.5825.4531-.9708.9709-.9708.5825 0 1.0032.3883 1.0032.9708v1.9418c0 1.6828-1.3269 3.0097-2.9773 3.0097h-8.0259c-1.6505 0-2.9774-1.3269-2.9774-3.0097zm3-2.0061917c0-.5079459.45155502-.9841083 1-.9841083s1 .4761624 1 .9841083c0 .5397293-.45155502 1.0158917-1 1.0158917s-1-.4761624-1-1.0158917zm3 0c0-.5079459.42621954-.9841083.98363811-.9841083.59014235 0 1.01636189.4761624 1.01636189.9841083 0 .5397293-.42621954 1.0158917-1.01636189 1.0158917-.55741857 0-.98363811-.4761624-.98363811-1.0158917zm3.00165 0c0-.5079459.4516322-.9841083.9999502-.9841083.5484176 0 1.0000498.4761624 1.0000498.9841083 0 .5397293-.4516322 1.0158917-1.0000498 1.0158917-.548318 0-.9999502-.4761624-.9999502-1.0158917zm4.9822087-14.9841083c3.3314955 0 6.0161413 2.68464582 6.0161413 6.01614126 0 3.29921294-2.6846458 5.98385874-6.0161413 5.98385874-3.2992129 0-5.9838587-2.6846458-5.9838587-5.98385874 0-3.33149544 2.6846458-6.01614126 5.9838587-6.01614126zm.7847413 2.6c-.2589 0-.5178.1295-.712.2913l-2.2006 2.2006c-.2265.2266-.356.4855-.356.712 0 .2589.1295.5178.356.7444l2.2006 2.1682c.1942.1942.4531.2913.712.2913.5825 0 1.0356-.4531 1.0356-1.0356 0-.2589-.1294-.5178-.2913-.712l-1.4563-1.4563 1.4563-1.4563c.1619-.1942.2913-.4531.2913-.712 0-.5825-.4531-1.0356-1.0356-1.0356z" fill="var(--db-icon-color, currentColor)" fill-rule="evenodd"/></svg>
