<svg id="icon" height="64" viewBox="0 0 64 64" width="64" xmlns="http://www.w3.org/2000/svg"><g fill="none" fill-rule="evenodd" transform="translate(7 7)"><path d="m42.668 17.398a1 1 0 0 1 -.452-.108l-2.716-1.376-2.716 1.376a1 1 0 0 1 -1.437-1.067l.51-2.867-2.168-2.038a1 1 0 0 1 .546-1.719l3.028-.424 1.348-2.63c.341-.67 1.437-.67 1.779-.001l1.349 2.63 3.027.425a1 1 0 0 1 .546 1.719l-2.17 2.038.51 2.868a1 1 0 0 1 -.984 1.174zm-3.168-3.605c.155 0 .31.037.452.108l1.381.7-.254-1.427a.998.998 0 0 1 .3-.904l1.042-.98-1.475-.206a1 1 0 0 1 -.75-.535l-.696-1.356-.694 1.356a1 1 0 0 1 -.751.535l-1.476.206 1.042.98c.246.231.36.57.3.904l-.254 1.427 1.38-.7a1.01 1.01 0 0 1 .453-.108zm-25.832 3.605a1 1 0 0 1 -.452-.108l-2.716-1.376-2.716 1.376a1 1 0 0 1 -1.436-1.067l.51-2.867-2.17-2.038a1 1 0 0 1 .547-1.719l3.027-.424 1.348-2.631c.343-.668 1.438-.668 1.78 0l1.348 2.63 3.027.425a1 1 0 0 1 .547 1.719l-2.17 2.038.51 2.867a1 1 0 0 1 -.984 1.175zm-6.089-6.108 1.043.98a1 1 0 0 1 .299.904l-.253 1.426 1.38-.7c.284-.143.62-.143.904 0l1.38.7-.253-1.427a.998.998 0 0 1 .299-.904l1.043-.98-1.475-.207a1 1 0 0 1 -.752-.534l-.694-1.355-.694 1.356a1 1 0 0 1 -.752.534zm22.921 29.71c3.032 0 5.5 2.468 5.5 5.5v3.5a1 1 0 1 1 -2 0v-3.5c0-1.93-1.57-3.5-3.5-3.5h-11c-1.93 0-3.5 1.57-3.5 3.5v3.5a1 1 0 1 1 -2 0v-3.5c0-3.032 2.467-5.5 5.5-5.5zm14-6c3.032 0 5.5 2.468 5.5 5.5v2.5a1 1 0 1 1 -2 0v-2.5c0-1.93-1.57-3.5-3.5-3.5h-9.5a1 1 0 1 1 0-2zm-29.5 0a1 1 0 1 1 0 2h-9.5c-1.93 0-3.5 1.57-3.5 3.5v2.5a1 1 0 1 1 -2 0v-2.5c0-3.032 2.467-5.5 5.5-5.5zm10-7.5c3.033 0 5.5 2.468 5.5 5.5s-2.468 5.5-5.5 5.5a5.507 5.507 0 0 1 -5.5-5.5c0-3.032 2.467-5.5 5.5-5.5zm0 2c-1.93 0-3.5 1.57-3.5 3.5s1.57 3.5 3.5 3.5 3.5-1.57 3.5-3.5-1.57-3.5-3.5-3.5zm13.5-8c3.032 0 5.5 2.467 5.5 5.5s-2.468 5.5-5.5 5.5a5.507 5.507 0 0 1 -5.5-5.5c0-3.032 2.468-5.5 5.5-5.5zm-27 0c3.033 0 5.5 2.467 5.5 5.5s-2.467 5.5-5.5 5.5a5.507 5.507 0 0 1 -5.5-5.5c0-3.032 2.467-5.5 5.5-5.5zm27 2c-1.93 0-3.5 1.57-3.5 3.5s1.57 3.5 3.5 3.5 3.5-1.57 3.5-3.5-1.57-3.5-3.5-3.5zm-27 0c-1.93 0-3.5 1.57-3.5 3.5s1.57 3.5 3.5 3.5 3.5-1.57 3.5-3.5-1.57-3.5-3.5-3.5z" fill="var(--db-icon-color, currentColor)" fill-rule="nonzero"/><path d="m19.944 17a1 1 0 0 1 -.985-1.175l.87-4.894-3.695-3.474a.999.999 0 0 1 .546-1.718l5.138-.72 2.292-4.475a1 1 0 0 1 1.78 0l2.291 4.475 5.14.72a1 1 0 0 1 .545 1.718l-3.696 3.474.87 4.894a1 1 0 0 1 -1.437 1.067l-4.603-2.332-4.604 2.332a1.001 1.001 0 0 1 -.452.108zm-.92-9.57 2.57 2.415a.999.999 0 0 1 .3.903l-.615 3.455 3.269-1.657c.284-.143.62-.143.904 0l3.269 1.657-.615-3.455a.998.998 0 0 1 .3-.903l2.57-2.415-3.586-.503a1 1 0 0 1 -.751-.534l-1.64-3.2-1.638 3.2a1 1 0 0 1 -.751.534z" fill="var(--db-icon-pulse-color, #EC0016)"/></g></svg>
