<svg id="icon" height="64" viewBox="0 0 64 64" width="64" xmlns="http://www.w3.org/2000/svg"><g fill="none" fill-rule="evenodd" transform="translate(10.99 11.963)"><path d="m36.995 0a5 5 0 0 1 4.998 4.735l.007.265v21.037a5 5 0 0 1 -4.783 4.996l-.217.004h-25.39l-.199.042c-.361.089-.71.22-1.04.39l-.244.136-.176.111-8.255 7.998c-.58.561-1.515.235-1.673-.498l-.017-.108-.006-.112.008-33.964a5 5 0 0 1 4.779-4.994l.216-.005zm.002 2-31.992.033a3 3 0 0 0 -2.991 2.823l-.006.176-.008 31.602 6.634-6.424.134-.11a6.683 6.683 0 0 1 2.254-.984l.304-.062.18-.017h25.494a3 3 0 0 0 2.995-2.823l.005-.177v-21.037a3 3 0 0 0 -2.805-2.994zm-8.988 18.037a1 1 0 0 1 .117 1.994l-.117.006h-18a1 1 0 0 1 -.116-1.993l.116-.007zm-4-6a1 1 0 0 1 .117 1.994l-.117.006h-14a1 1 0 0 1 -.116-1.993l.116-.007z" fill="var(--db-icon-color, currentColor)" fill-rule="nonzero"/><path d="m32.01 8.037a1 1 0 0 1 .116 1.994l-.117.006h-22a1 1 0 0 1 -.116-1.993l.116-.007h22z" fill="var(--db-icon-pulse-color, #EC0016)"/></g></svg>
