<svg id="icon" xmlns="http://www.w3.org/2000/svg" width="64" height="64" viewBox="0 0 64 64"><g fill="none" fill-rule="evenodd" transform="translate(8 9)"><path fill="var(--db-icon-color, currentColor)" fill-rule="nonzero" d="M45 4H19v-.453A3.55 3.55 0 0 0 15.453 0H9.547A3.55 3.55 0 0 0 6 3.547V4H3C1.346 4 0 5.346 0 7v32c0 1.654 1.346 3 3 3h42c1.654 0 3-1.346 3-3V7c0-1.654-1.346-3-3-3ZM8 3.547C8 2.694 8.694 2 9.547 2h5.906C16.306 2 17 2.694 17 3.547v29.906c0 .853-.694 1.547-1.547 1.547H9.547A1.549 1.549 0 0 1 8 33.453V3.547ZM46 39c0 .552-.449 1-1 1H3c-.551 0-1-.448-1-1V7c0-.552.449-1 1-1h3v27.453A3.55 3.55 0 0 0 9.547 37h5.906A3.55 3.55 0 0 0 19 33.453V6h26c.551 0 1 .448 1 1v32ZM26.5 23a2.503 2.503 0 0 1-2.5-2.5c0-1.379 1.122-2.5 2.5-2.5s2.5 1.121 2.5 2.5-1.122 2.5-2.5 2.5Zm0-3a.5.5 0 1 0 .002 1.002A.5.5 0 0 0 26.5 20Zm6.5 3a2.503 2.503 0 0 1-2.5-2.5c0-1.379 1.122-2.5 2.5-2.5s2.5 1.121 2.5 2.5S34.378 23 33 23Zm0-3a.5.5 0 1 0 .002 1.002A.5.5 0 0 0 33 20Zm6.5 3a2.503 2.503 0 0 1-2.5-2.5c0-1.379 1.122-2.5 2.5-2.5s2.5 1.121 2.5 2.5-1.122 2.5-2.5 2.5Zm0-3a.5.5 0 1 0 .002 1.002A.5.5 0 0 0 39.5 20Zm-13 9.5A2.503 2.503 0 0 1 24 27c0-1.379 1.122-2.5 2.5-2.5S29 25.621 29 27s-1.122 2.5-2.5 2.5Zm0-3a.5.5 0 1 0 .002 1.002.5.5 0 0 0-.002-1.002Zm6.5 3a2.503 2.503 0 0 1-2.5-2.5c0-1.379 1.122-2.5 2.5-2.5s2.5 1.121 2.5 2.5-1.122 2.5-2.5 2.5Zm0-3a.5.5 0 1 0 .002 1.002A.5.5 0 0 0 33 26.5Zm6.5 3A2.503 2.503 0 0 1 37 27c0-1.379 1.122-2.5 2.5-2.5S42 25.621 42 27s-1.122 2.5-2.5 2.5Zm0-3a.5.5 0 1 0 .002 1.002.5.5 0 0 0-.002-1.002Zm-13 9.5a2.503 2.503 0 0 1-2.5-2.5c0-1.379 1.122-2.5 2.5-2.5s2.5 1.121 2.5 2.5-1.122 2.5-2.5 2.5Zm0-3a.5.5 0 1 0 .002 1.002A.5.5 0 0 0 26.5 33Zm6.5 3a2.503 2.503 0 0 1-2.5-2.5c0-1.379 1.122-2.5 2.5-2.5s2.5 1.121 2.5 2.5S34.378 36 33 36Zm0-3a.5.5 0 1 0 .002 1.002A.5.5 0 0 0 33 33Zm6.5 3a2.503 2.503 0 0 1-2.5-2.5c0-1.379 1.122-2.5 2.5-2.5s2.5 1.121 2.5 2.5-1.122 2.5-2.5 2.5Zm0-3a.5.5 0 1 0 .002 1.002A.5.5 0 0 0 39.5 33Z"/><path fill="var(--db-icon-pulse-color, #EC0016)" d="M39 16H27c-1.654 0-3-1.346-3-3v-2c0-1.654 1.346-3 3-3h12c1.654 0 3 1.346 3 3v2c0 1.654-1.346 3-3 3Zm-12-6c-.551 0-1 .448-1 1v2c0 .552.449 1 1 1h12c.551 0 1-.448 1-1v-2c0-.552-.449-1-1-1H27Z"/></g></svg>
