<svg id="icon" height="64" viewBox="0 0 64 64" width="64" xmlns="http://www.w3.org/2000/svg"><g fill="none" fill-rule="evenodd" transform="translate(7 6)"><path d="m48 15a3 3 0 0 1 3 3v30a3 3 0 0 1 -3 3h-24a3 3 0 0 1 -3-3v-30a3 3 0 0 1 3-3zm0 2h-24a1 1 0 0 0 -1 1v30a1 1 0 0 0 1 1h24a1 1 0 0 0 1-1v-30a1 1 0 0 0 -1-1zm-3.002 27a1 1 0 1 1 0 2h-17.998a1 1 0 0 1 0-2zm-2.998-6a1 1 0 0 1 0 2h-15a1 1 0 0 1 0-2zm3-6a1 1 0 0 1 0 2h-18a1 1 0 0 1 0-2zm-18-32a3 3 0 0 1 3 3v8.058a1 1 0 1 1 -2 0v-8.058a1 1 0 0 0 -1-1h-24a1 1 0 0 0 -1 1v16a1 1 0 0 0 1 1h2c1.202.063 2 .946 2 2v4.773l7.051-6.268c.397-.352.683-.505 1.199-.505h1.851c.553 0 1 .442 1 1s-.487 1-1 1h-1.721l-8.716 7.747c-.644.574-1.664.116-1.664-.747v-7h-2a3 3 0 0 1 -3-3v-16a3 3 0 0 1 3-3zm-12.75 14c.67 0 1.25.556 1.25 1.235 0 .71-.58 1.265-1.25 1.265s-1.25-.556-1.25-1.265c0-.68.58-1.235 1.25-1.235zm.47-9c1.813 0 3.125 1.094 3.125 2.781 0 2.906-2.625 2.719-2.625 4.063 0 .468-.343.968-.968.968a.973.973 0 0 1 -.969-.968c0-2.657 2.625-2.313 2.625-4.063 0-.625-.563-.844-1.125-.844-.781 0-1.406.375-1.906.344s-.907-.437-.875-.969c0-1 1.468-1.312 2.718-1.312z" fill="var(--db-icon-color, currentColor)" fill-rule="nonzero"/><path d="m42.62 25.055c-.106.338-.364.985-1.35.985-.985 0-1.24-.64-1.345-.977s-.32-1.562 0-2.68c.105-.335.387-.978 1.349-.978s1.244.643 1.346.977c.32 1.119.105 2.335 0 2.673zm.32-4.332c-.472-.286-1.96-.747-3.335 0a2.673 2.673 0 0 0 -1.08 1.164c-.69 1.5-.244 3.148 0 3.66.245.513.602.905 1.07 1.174.33.19.724.289 1.145.345.09.353.207.657.363.878.573.81 1.72.81 2.333.823.142.002.536-.09.536-.501 0-.41-.395-.502-.531-.505-.303-.011-1.08-.011-1.205-.761a2.85 2.85 0 0 0 .707-.28 2.631 2.631 0 0 0 1.073-1.168c.247-.51.7-2.154-.003-3.665a2.65 2.65 0 0 0 -1.072-1.164zm-8.279 1.673.79 2.21h-1.585zm.988-1.394c-.084-.222-.135-.332-.299-.497s-.627-.232-.89-.08c-.262.151-.354.426-.41.577l-2.03 5.26c-.178.459.047.682.148.748a.621.621 0 0 0 .345.1c.156 0 .49-.044.687-.665l.307-.855h2.3l.294.813c.229.663.657.706.866.706a.761.761 0 0 0 .471-.135c.12-.09.341-.332.202-.76l-1.99-5.212zm-4.876.636c.528 0 .597-.404.597-.59 0-.184-.071-.588-.597-.588h-3.078c-.682 0-.765.518-.765.765v5.115c0 .694.521.765.771.765.246 0 .763-.071.763-.765v-1.911h1.869c.503 0 .565-.38.565-.555 0-.178-.062-.552-.565-.552h-1.869v-1.684z" fill="var(--db-icon-pulse-color, #EC0016)"/></g></svg>
