<svg id="icon" height="64" viewBox="0 0 64 64" width="64" xmlns="http://www.w3.org/2000/svg"><g fill="none" fill-rule="evenodd" transform="translate(5.01 9.264)"><path d="m25.04 32.167c-.458-1.253-1.457-2.293-2.814-2.927-1.185-.553-2.442-.66-3.45-.293l-3.609 1.312-.196-.347c-1.386-2.45-3.876-9.416-4.519-12.288l-.09-.408 3.31-1.163c1.256-.428 2.317-1.402 2.911-2.673a5.17 5.17 0 0 0 .172-3.936l-2.305-6.037a5.215 5.215 0 0 0 -2.679-2.918 5.071 5.071 0 0 0 -3.46-.322c-3.929 1.084-5.695 2.395-7 5.192-2.224 4.77-1.604 12.527 1.749 21.851 3.45 9.333 7.98 15.699 12.756 17.926 1.13.527 2.213.862 3.482.862 1.35 0 2.907-.38 4.953-1.312 1.168-.482 2.157-1.442 2.712-2.634.601-1.287.665-2.602.194-3.896l-2.116-5.99zm.108 9.04a3.273 3.273 0 0 1 -1.696 1.647c-3.337 1.52-4.907 1.35-6.793.47-4.295-2.002-8.459-7.971-11.723-16.797-3.169-8.817-3.813-16.033-1.814-20.321 1.04-2.227 2.375-3.188 5.703-4.106.26-.066.518-.1.775-.1a3.208 3.208 0 0 1 2.975 2.108l2.305 6.037c.275.756.234 1.65-.11 2.39-.365.78-1 1.373-1.754 1.63l-4.995 1.754.478 2.144c.692 3.095 3.205 10.14 4.73 12.836l1.03 1.819 5.197-1.89c.506-.184 1.225-.1 1.922.227.874.408 1.505 1.047 1.776 1.79l2.115 5.989c.291.798.25 1.575-.124 2.376l.003-.002zm28.647-5.66c-.01.032-.016.063-.029.094a3.256 3.256 0 0 1 -3.034 2.096h-21.03a1 1 0 1 1 0-2h21.03c.318 0 .6-.13.822-.324l-9.742-9.22a1.001 1.001 0 0 1 1.375-1.452l8.803 8.33v-22.075a1.26 1.26 0 0 0 -1.257-1.258h-31.186a1 1 0 1 1 0-2h31.186a3.261 3.261 0 0 1 3.257 3.258v23.484c0 .376-.077.732-.195 1.068z" fill="var(--db-icon-color, currentColor)" fill-rule="nonzero"/><path d="m32.72 28.344a2.732 2.732 0 0 1 -1.946-.804l-11.889-11.321a1 1 0 1 1 1.38-1.45l11.905 11.341a.764.764 0 0 0 1.08.018l13.913-13.343a1 1 0 0 1 1.385 1.443l-13.896 13.327a2.717 2.717 0 0 1 -1.93.789z" fill="var(--db-icon-pulse-color, #EC0016)"/></g></svg>
