<svg id="icon" height="64" viewBox="0 0 64 64" width="64" xmlns="http://www.w3.org/2000/svg"><g fill="none" fill-rule="evenodd" transform="translate(17 4)"><path d="m15.01 16.01c-2.206 0-3.671 1.541-3.671 4.234v3.337c0 .956-.058 1.619-.254 2.419h7.83c-.176-.644-.254-1.248-.254-2.439v-3.063c0-2.849-1.386-4.488-3.651-4.488zm-.02-2.01c3.398 0 5.663 2.498 5.663 6.225v3.902c0 1.249.156 1.483.879 2.01.312.214.468.527.468.839 0 .468-.35.995-.898.995h-4.1v.019c0 1.113-.899 2.01-2.012 2.01-1.034 0-2.011-.897-2.011-2.029h-3.983c-.625 0-.996-.507-.996-1.015 0-.273.098-.546.352-.741.82-.527.976-.82.976-2.147v-3.57c0-3.883 2.206-6.498 5.662-6.498zm6.01 36a1 1 0 0 1 .117 1.993l-.117.007h-12a1 1 0 0 1 -.116-1.993l.116-.007zm0-48h-12v.035c0 .495.373.903.853.959l.113.006h10.069a.964.964 0 0 0 .957-.839l.008-.126zm2 0v.035a2.968 2.968 0 0 1 -2.752 2.958l-10.282.007c-1.58 0-2.871-1.443-2.961-3h-2.005a3.001 3.001 0 0 0 -2.995 2.824l-.005 46.176a3 3 0 0 0 2.824 2.995l20.176.005a3 3 0 0 0 2.995-2.824l.005-46.176a3.001 3.001 0 0 0 -2.824-2.995zm2-2a5.001 5.001 0 0 1 4.996 4.783l.004 46.217a5 5 0 0 1 -4.783 4.996l-20.217.004a4.999 4.999 0 0 1 -4.995-4.783l-.005-46.217a5 5 0 0 1 4.783-4.995z" fill="var(--db-icon-color, currentColor)" fill-rule="nonzero"/><path d="m21 11a2 2 0 1 1 .001 4 2 2 0 0 1 0-4" fill="var(--db-icon-pulse-color, #EC0016)"/></g></svg>
