<svg id="icon" height="64" viewBox="0 0 64 64" width="64" xmlns="http://www.w3.org/2000/svg"><g fill="none" fill-rule="evenodd" transform="translate(8 10)"><path d="M15 14a1 1 0 0 1 .117 1.993L15 16H3a1 1 0 0 0-.993.883L2 17v16a1 1 0 0 0 .883.993L3 34h2a2 2 0 0 1 1.995 1.85L7 36v4.772l7.051-6.267a2 2 0 0 1 1.146-.497L15.38 34H27a1 1 0 0 0 .993-.883L28 33v-7a1 1 0 0 1 1.993-.117L30 26v7a3 3 0 0 1-2.824 2.995L27 36H15.38l-8.716 7.747c-.616.549-1.576.154-1.658-.637L5 43v-7H3a3 3 0 0 1-2.995-2.824L0 33V17a3 3 0 0 1 2.824-2.995L3 14h12ZM45 0a3 3 0 0 1 3 3v16a3 3 0 0 1-3 3h-2v7c0 .863-1.02 1.32-1.664.747L32.62 22H21a3 3 0 0 1-3-3V3a3 3 0 0 1 3-3ZM22 27a1 1 0 0 1 .117 1.993L22 29H8a1 1 0 0 1-.117-1.993L8 27h14ZM45 2H21a1 1 0 0 0-1 1v16a1 1 0 0 0 1 1h11.62a2 2 0 0 1 1.329.505L41 26.773V22a2 2 0 0 1 1.85-1.995L43 20h2a1 1 0 0 0 1-1V3a1 1 0 0 0-1-1ZM14 21a1 1 0 0 1 .117 1.993L14 23H8a1 1 0 0 1-.117-1.993L8 21h6Zm22-8a1 1 0 0 1 .117 1.993L36 15H26a1 1 0 0 1-.117-1.993L26 13h10Z" fill="var(--db-icon-color, currentColor)" fill-rule="nonzero"/><path d="M40 7a1 1 0 0 1 .117 1.993L40 9H26a1 1 0 0 1-.117-1.993L26 7h14Z" fill="var(--db-icon-pulse-color, #EC0016)"/></g></svg>
