<svg id="icon" height="64" viewBox="0 0 64 64" width="64" xmlns="http://www.w3.org/2000/svg"><g fill="none" fill-rule="evenodd" transform="translate(12 4)"><path d="m24.99 54.853a1 1 0 0 1 -.843 1.136 28.27 28.27 0 0 1 -4.147.311c-1.366 0-2.748-.104-4.147-.31a1 1 0 0 1 .294-1.98c1.302.194 2.586.29 3.853.29s2.551-.096 3.853-.29a1 1 0 0 1 1.136.843zm-1.375-54.853c2.411 0 4.202.111 5.634.347a1 1 0 1 1 -.324 1.973c-1.31-.215-2.999-.32-5.31-.32h-7.233c-4.726 0-6.715.384-8.772 1.485a9.9 9.9 0 0 0 -4.125 4.125c-1.101 2.059-1.485 4.047-1.485 8.773v23.684c0 4.726.384 6.714 1.485 8.774a9.9 9.9 0 0 0 4.126 4.125c.988.53 1.886.867 3.05 1.092-.287-1.219-.399-2.062-.41-3.046a1 1 0 0 1 1.053-1.01c3.073.164 5.957.248 8.696.248s5.623-.084 8.696-.249a1 1 0 0 1 1.054 1.02c-.02.985-.134 1.823-.415 3.036a10.142 10.142 0 0 0 3.054-1.09 9.905 9.905 0 0 0 4.126-4.126c1.101-2.061 1.485-4.048 1.485-8.774v-14.612a1 1 0 0 1 2 0v14.612c0 5.027-.444 7.327-1.721 9.717a11.905 11.905 0 0 1 -4.946 4.946c-1.59.85-3.025 1.291-5.227 1.527a.999.999 0 0 1 -.942-.444l-.018-.03a.791.791 0 0 1 -.039-.066l-.012-.028a.96.96 0 0 1 -.061-.686c.32-1.129.533-2.111.639-2.947-3.163.13-5.72.194-7.673.194-2.563 0-5.002-.065-7.653-.193l-.028-.001.066.422c.136.828.3 1.557.49 2.187l.09.334.001.003.002.01.009.03a.859.859 0 0 1 .008.042l-.006-.026.011.06a1 1 0 0 1 -1.095 1.14c-2.203-.237-3.64-.679-5.228-1.528a11.9 11.9 0 0 1 -4.946-4.947c-1.277-2.389-1.721-4.689-1.721-9.716v-23.684c0-5.028.444-7.328 1.721-9.715a11.9 11.9 0 0 1 4.946-4.948c2.387-1.276 4.688-1.72 9.716-1.72h7.233zm-11.615 41a3 3 0 0 1 0 6h-3a3 3 0 0 1 0-6zm19 0a3 3 0 0 1 0 6h-3a3 3 0 0 1 0-6zm-19 2h-3a1 1 0 0 0 0 2h3a1 1 0 0 0 0-2zm19 0h-3a1 1 0 0 0 0 2h3a1 1 0 0 0 0-2zm-8.162-38a1 1 0 0 1 0 2h-1.945l-.363.001h-1.685l-.311.001h-1.159l-.268.001h-.752l-.234.001-.847.001h-.19l-.52.001h-.441l-.13.001h-.338l-.095.001-.235.001h-.156l-.035.001h-.044a5.002 5.002 0 0 0 -4.666 5.323l1.09 16.353c.147 2.202.367 3.072.892 3.959a4.438 4.438 0 0 0 1.848 1.729c.92.465 1.803.626 4.01.626h7.472c2.207 0 3.09-.161 4.01-.626a4.438 4.438 0 0 0 1.848-1.73c.525-.886.745-1.756.892-3.971l.33-4.111a1 1 0 0 1 1.993.16l-.328 4.097c-.166 2.49-.46 3.652-1.167 4.845a6.437 6.437 0 0 1 -2.666 2.494c-1.237.626-2.417.842-4.912.842h-7.472c-2.495 0-3.675-.216-4.912-.842a6.437 6.437 0 0 1 -2.666-2.494c-.707-1.193-1.001-2.356-1.167-4.845l-1.09-16.353a7 7 0 0 1 6.519-7.45l.195-.003h.135l.267-.002h.221l.124-.001h.273l.476-.002h.36l.193-.001h.412l.22-.001.708-.001h.788l.28-.001h.585l.306-.001h.97l.34-.001h1.074l.375-.002h1.178l.41-.001z" fill="var(--db-icon-color, currentColor)" fill-rule="nonzero"/><path d="m24.333 10.294c0 .603.63 1.15 1.096 1.15.328 0 .719-.082 1.01-.495 2.2-3.12 5.809-4.927 9.561-4.927 4.135 0 7.416 1.835 9.56 4.928.21.303.573.494.956.494.685 0 1.15-.52 1.15-1.177a1.19 1.19 0 0 0 -.223-.682c-2.588-3.727-6.897-5.918-11.443-5.918s-8.791 2.19-11.448 5.915a1.287 1.287 0 0 0 -.219.712zm2.903 3.204c0 .466.466 1.096 1.233 1.096.328 0 .684-.21.903-.52 1.507-2.137 3.944-3.479 6.546-3.479 2.658 0 5.1 1.343 6.597 3.48.229.327.578.519.934.519.52 0 1.178-.41 1.178-1.15 0-.274-.082-.507-.224-.71-1.93-2.768-5.088-4.466-8.485-4.466-3.341 0-6.5 1.698-8.431 4.467-.141.202-.25.517-.25.763zm3.068 2.986c0 .657.493 1.177 1.15 1.177.41 0 .794-.219.986-.52a4.122 4.122 0 0 1 3.478-1.917 4.15 4.15 0 0 1 3.508 1.915c.212.33.572.522.983.522.685 0 1.15-.602 1.15-1.177 0-.22-.082-.446-.22-.656a6.521 6.521 0 0 0 -5.421-2.932 6.495 6.495 0 0 0 -5.396 2.93c-.164.25-.218.438-.218.658zm3.363 3.502c0 1.298 1.098 2.347 2.333 2.347a2.338 2.338 0 0 0 2.333-2.347c0-1.27-1.07-2.32-2.388-2.32-1.235 0-2.278 1.05-2.278 2.32z" fill="var(--db-icon-pulse-color, #EC0016)"/></g></svg>
