<svg id="icon" height="64" viewBox="0 0 64 64" width="64" xmlns="http://www.w3.org/2000/svg"><g fill="none" fill-rule="evenodd" transform="translate(8.001 7.999)"><path d="m47.999 17.497v26.941a3.566 3.566 0 0 1 -3.562 3.562h-40.875a3.566 3.566 0 0 1 -3.562-3.562v-26.899c-.001-1.158.575-1.727.92-2.065.417-.417 4.835-3.901 6.747-5.405v-6.507a3.566 3.566 0 0 1 3.562-3.562h25.539a3.566 3.566 0 0 1 3.562 3.562v6.466c1.912 1.503 6.327 4.983 6.689 5.345.438.438.98.98.98 2.124zm-2 26.941v-25.366l-5.963 5.643-7.554 7.149 13.475 12.919c.025-.111.041-.226.041-.345zm-43.957.345 13.473-12.918-7.553-7.148-.003-.003-5.96-5.641v25.365c.001.119.017.234.043.345zm1.62 1.217h40.675l-19.625-18.813c-.4-.4-1.042-.385-1.412-.015zm36.667-33.426v9.111l5.223-4.943c-.441-.385-2.979-2.399-5.223-4.168zm-30.662-9.012v20.015l7.293 6.903 4.94-4.737c1.094-1.096 3.084-1.11 4.21.015l4.925 4.721 7.293-6.902v-20.014c0-.861-.701-1.562-1.562-1.562h-25.539c-.861 0-1.562.7-1.562 1.562zm-2 9.053c-2.196 1.733-4.677 3.701-5.198 4.149l5.198 4.92z" fill="var(--db-icon-color, currentColor)" fill-rule="nonzero"/><path d="m21.866 17.724c1.1 0 2.024-.484 2.882-1.496.638 1.1 1.694 1.628 3.3 1.628 3.08 0 4.994-2.266 4.994-5.896 0-4.334-3.41-7.326-8.36-7.326-5.588 0-9.724 4.092-9.724 9.592 0 4.928 3.322 7.788 9.042 7.788 2.134 0 3.762-.308 5.478-.968.374-.154.66-.418.66-.88 0-.836-.66-1.034-1.21-.858-1.782.616-3.388.902-5.126.902-4.378 0-6.534-1.98-6.534-6.006 0-4.598 3.058-7.832 7.392-7.832 3.696 0 6.138 2.222 6.138 5.588 0 2.288-.924 3.916-2.2 3.916-.506 0-.748-.308-.748-.902 0-.22.022-.506.066-.792l.484-2.948c.22-1.32-.55-2.178-1.65-2.178-.704 0-1.298.374-1.562 1.012-.77-.638-1.452-.946-2.266-.946-1.364 0-2.354.748-2.948 2.2-.418 1.034-.66 2.354-.66 3.476 0 1.848.924 2.926 2.552 2.926zm.924-3.102c0-.352.198-1.628.33-2.178.198-.748.462-1.034 1.034-1.034.308 0 .462.088.726.264l-.484 3.08c-.198.242-.484.572-.946.572-.44 0-.66-.242-.66-.704z" fill="var(--db-icon-pulse-color, #EC0016)"/></g></svg>
