<svg id="icon" xmlns="http://www.w3.org/2000/svg" width="64" height="64" viewBox="0 0 64 64"><g fill="none" fill-rule="evenodd" transform="translate(17 4)"><path fill="var(--db-icon-color, currentColor)" fill-rule="nonzero" d="M25 0a5 5 0 0 1 4.995 4.783L30 51a5 5 0 0 1-4.783 4.995L5 56a5 5 0 0 1-4.995-4.783L0 5A5 5 0 0 1 4.783.005L25 0Zm-2 2v.034a2.966 2.966 0 0 1-2.752 2.958L9.966 5c-1.58 0-2.87-1.443-2.961-3H5a3 3 0 0 0-2.995 2.824L2 51a3 3 0 0 0 2.824 2.995L25 54a3 3 0 0 0 2.995-2.824L28 5a3 3 0 0 0-2.824-2.995L23 2Zm-2 48a1 1 0 0 1 .117 1.993L21 52H9a1 1 0 0 1-.117-1.993L9 50h12Zm-1.975-33 .116.01A1 1 0 0 1 20 18.025l-.01.116L18.723 27H22a1 1 0 0 1 .117 1.993L22 29h-3.562l-.448 3.141a1 1 0 0 1-1.99-.166l.01-.116.408-2.859h-3.98l-.448 3.141a1 1 0 0 1-1.99-.166l.01-.116.408-2.859H7a1 1 0 0 1-.117-1.993L7 27h3.704l1.306-9.141A1 1 0 0 1 13.025 17l.116.01A1 1 0 0 1 14 18.025l-.01.116L12.723 27h3.981l1.306-9.141A1 1 0 0 1 19.025 17ZM21 2H9v.034c0 .496.373.904.853.96L9.966 3h10.068a.966.966 0 0 0 .958-.839L21 2.034V2Z"/><path fill="var(--db-icon-pulse-color, #EC0016)" d="M23 21a1 1 0 0 1 .116 1.993l-.117.007H8a1 1 0 0 1-.116-1.993L7.999 21h15Z"/></g></svg>
