<svg id="icon" height="64" viewBox="0 0 64 64" width="64" xmlns="http://www.w3.org/2000/svg"><g fill="none" fill-rule="evenodd" transform="translate(7.496 16.539)"><path d="m45.288 0h-41.577a3.716 3.716 0 0 0 -3.711 3.712v23.5a3.716 3.716 0 0 0 3.711 3.711h41.577a3.716 3.716 0 0 0 3.711-3.711v-23.5a3.716 3.716 0 0 0 -3.711-3.712zm-41.577 28.922c-.421 0-.802-.159-1.101-.412l11.952-9.513a1 1 0 1 0 -1.245-1.564l-11.317 9.008v-22.73c0-.944.768-1.712 1.711-1.712h41.577c.944 0 1.711.768 1.711 1.712v22.73l-11.317-9.009a1 1 0 1 0 -1.245 1.564l11.952 9.514c-.298.253-.68.412-1.101.412z" fill="var(--db-icon-color, currentColor)" fill-rule="nonzero"/><path d="m24.518 21.225c-.723 0-1.45-.272-2.002-.821l-14.593-13.438a1 1 0 0 1 1.354-1.471l14.621 13.463c.344.34.879.34 1.195.025l14.628-13.488a1 1 0 1 1 1.355 1.471l-14.602 13.463a2.77 2.77 0 0 1 -1.957.796z" fill="var(--db-icon-pulse-color, #EC0016)"/></g></svg>
