<svg id="icon" height="64" viewBox="0 0 64 64" width="64" xmlns="http://www.w3.org/2000/svg"><g fill="none" fill-rule="evenodd" transform="translate(4 6)"><path d="m28.045.001.148.013 15.147 1.434c.532.05 1.02.306 1.358.707l.107.138 10.836 15.375c.478.68.476 1.572.01 2.245l-.107.141-25.984 31.218a2.042 2.042 0 0 1 -3.035.1l-.089-.1-25.979-31.216a1.957 1.957 0 0 1 -.19-2.242l.095-.149 10.902-15.375c.305-.43.768-.721 1.287-.816l.174-.025 15.139-1.439c.06-.008.12-.01.18-.008zm-.046 2.46-15.377 16.549 15.368 29.392 15.376-29.402-15.366-16.54zm17.073 17.555-13.269 25.428 21.166-25.43zm-42.044-.004 21.126 25.384-13.243-25.38zm41.788-14.22.798 12.235h7.812zm-33.657.113-8.472 12.095h7.704zm14.318-3.677-12.134 1.154-.818 12.737 12.952-13.891zm5.043-.001 12.937 13.874-.818-12.726-12.12-1.148z" fill="#282D37" style="fill: currentColor;fill: var(--db-icon-color, currentColor)" fill-rule="nonzero"/><path d="m39 18a1 1 0 0 1 .117 1.993l-.117.007h-22a1 1 0 0 1 -.117-1.993l.117-.007z" fill="#EC0016" style="fill:#EC0016;fill: var(--db-icon-pulse-color, #EC0016)"/></g></svg>
