<svg id="icon" height="20" viewBox="0 0 20 20" width="20" xmlns="http://www.w3.org/2000/svg"><path d="m2 15.984v-11.968c0-1.103.882-2.016 1.984-2.016h2.992c.567 0 1.008.472 1.008 1.008a.995.995 0 0 1 -1.008 1.008h-2.992v11.968h8.032v-.976c0-.567.41-1.008.976-1.008.535 0 1.008.44 1.008 1.008v.976c0 1.103-.882 2.016-1.984 2.016h-8.032c-1.102 0-1.984-.913-1.984-2.016zm3-3c0-.508.426-.984.984-.984.59 0 1.016.476 1.016.984a1.01 1.01 0 0 1 -1.016 1.016c-.558 0-.984-.476-.984-1.016zm2.997 0c0-.508.451-.984 1-.984.548 0 1 .476 1 .984 0 .54-.452 1.016-1 1.016-.549 0-1-.476-1-1.016zm.003-5.969c0-2.763 2.246-5.015 5-5.015s5 2.252 5 5.015-2.246 4.985-5 4.985-5-2.222-5-4.985zm2-1.998c0 .542.467.983 1 .983s1-.44 1-.983c0-.576-.467-1.017-1-1.017s-1 .44-1 1.017zm.661 3.36.999.953 3.72-3.67-1.002-1zm3.339.64c0 .542.433.983 1 .983.533 0 1-.44 1-.983 0-.576-.467-1.017-1-1.017-.567 0-1 .44-1 1.017z" fill="#282D37" style="fill: currentColor;fill: var(--db-icon-color, currentColor)" fill-rule="evenodd"/></svg>
