<svg id="icon" height="24" viewBox="0 0 24 24" width="24" xmlns="http://www.w3.org/2000/svg"><path d="m2 4.013c0-.5654.4476-1.013.9894-1.013 1.8139 0 3.0118 1.2721 3.0118 3.2509v2.6619l1.629 8.1272c.1194.5886.636.96 1.2249.96h3.1567c.5418 0 .9894.5006.9894 1.0424 0 .5654-.4476.9576-.9894.9576h-3.1567c-1.5547 0-2.8733-1.0519-3.1802-2.5595l-1.6054-7.9858c-.0479-.2355-.0707-.4476-.0707-.6596v-2.5442c0-.8716-.3498-1.2485-1.0094-1.2485-.5418 0-.9894-.4476-.9894-.9894zm6.384 6.007c0-.5418.4476-1.02.9894-1.02h.9894c.8371 0 1.5597.407 2.0525 1.0043h2.3675c.5741-.0078 1.0217.4398 1.0217 1.0051 0 .5418-.4476.9894-1.0217.991h-1.7848v1.9996h2.5473c.4947 0 .9264.4033.9894.9199l.7303 5.9835c.0675.5529-.2861 1.0966-.9894 1.0966-.5182 0-.951-.3443-1.0129-.861l-.6125-5.139h-2.6502c-.5654 0-.998-.4599-.998-1v-3.3518c0-.298-.2092-.6482-.6341-.6482h-.9863c-.55-.0046-.9976-.4146-.9976-.98zm1.616-5.0176c0-1.1072.8951-2.0024 2.0023-2.0024s2.0024.8952 2.0024 2.0024c0 1.1071-.8952 2.0023-2.0024 2.0023s-2.0023-.8952-2.0023-2.0023zm6.9823 6.007c0-.5418.4476-1.0129 1.013-1.0129h.9894c1.6725 0 3.0153 1.3426 3.0153 2.9682v8.0329c0 .5654-.4476 1.0024-1.013 1.0024-.5418 0-.9894-.437-.9894-1.0024v-8.0094c0-.5663-.4475-.9894-1.0129-.9894h-.9894c-.5654 0-1.013-.424-1.013-.9894z" fill="var(--db-icon-color, currentColor)" fill-rule="evenodd"/></svg>
