<svg id="icon" height="32" viewBox="0 0 32 32" width="32" xmlns="http://www.w3.org/2000/svg"><path d="m29.188 4c.468 0 .812.344.812.875v17.125c0 .344-.151.698-.469.844l-8.561 3.936c-.216.1-.407.157-.625.157-.188 0-.409-.058-.625-.157l-8.063-3.687-8.094 3.718c-.19.088-.53.188-.718.188-.315.001-.845-.343-.845-1.03v-16.969c0-.344.152-.697.469-.844l8.281-3.844a2.11 2.11 0 0 1 .938-.218c.312 0 .658.058 1 .218l7.656 3.594 7.936-3.686c.166-.077.532-.219.907-.219zm-18.533 2.563-6.655 3.061v14.813l6.656-3.094v-14.781zm2 0v14.78l6.688 3.095v-14.783l-6.688-3.094zm15.344 0-6.656 3.062v14.813l6.657-3.095v-14.781z" fill="#282D37" style="fill: currentColor;fill: var(--db-icon-color, currentColor)" fill-rule="evenodd"/></svg>