<svg id="icon" height="24" viewBox="0 0 24 24" width="24" xmlns="http://www.w3.org/2000/svg"><path d="m12.265861 9c1.2273414 0 2.234139-1.02408143 2.234139-2.26564052 0-1.21027805-1.0067976-2.23435948-2.234139-2.23435948-1.2590634 0-2.265861 1.02408143-2.265861 2.23435948 0 1.24155909 1.0067976 2.26564052 2.265861 2.26564052zm-6.25007516 0c1.22734139 0 2.23413897-1.02408143 2.23413897-2.26564052 0-1.21027805-1.00679758-2.23435948-2.23413897-2.23435948-1.25906344 0-2.26586103 1.02408143-2.26586103 2.23435948 0 1.24155909 1.00679759 2.26564052 2.26586103 2.26564052zm8.98421416 9.995413c.5639098 0 1-.4390981 1-1.002256v-4.993157c0-1.1278195-.8721805-1.996617-2-1.996617h-.9977444c-.5323308 0-1.0022556.4327072-1.0022556.996617v7c1.8977185-.003058 2.8977185-.004587 3-.004587zm-13.00015038-.995413c0 .5631579.43834587.995339 1.00225564.995339.53308271 0 5.43398497.004661 5.99789474.004661s1-.4368421 1-1v-5c0-1.1593985-.8406015-1.9966914-2-1.9966914h-4c-1.15864662 0-2.00015038.9320297-2.00015038 1.9966914zm16.51608658-9c1.2273414 0 2.234139-1.02408143 2.234139-2.26564052 0-1.21027805-1.0067976-2.23435948-2.234139-2.23435948-1.2590634 0-2.265861 1.02408143-2.265861 2.23435948 0 1.24155909 1.0067976 2.26564052 2.265861 2.26564052zm.4863194 4.0019911h.8774436c.0624061 0 .1203008.071123.1203008.1027335v4.8954029c0 .5637195.4676692 1.0032555 1 1.0032555.5639098 0 1-.439536 1-1.0032555v-4.9981364c0-1.1289442-.8721805-1.9986081-2-1.9986081h-.9977444c-.5323308 0-1.0022556.4331387-1.0022556.9976109 0 .5336143.4699248 1.0009972 1.0022556 1.0009972z" fill="var(--db-icon-color, currentColor)" fill-rule="evenodd"/></svg>
