<svg id="icon" height="24" viewBox="0 0 24 24" width="24" xmlns="http://www.w3.org/2000/svg"><path d="m16 10.023a6.032 6.032 0 0 1 6.02 6.02c0 3.316-2.705 6.02-6.02 6.02a6.032 6.032 0 0 1 -6.02-6.02 6.032 6.032 0 0 1 6.02-6.02zm-5-8.023c.281 0 .531.094.719.313l4 4a.915.915 0 0 1 .281.687v1a1 1 0 0 1 -1 1h-5c-.562 0-1-.469-1-1v-4h-5v16h5a1 1 0 0 1 0 2h-6c-.562 0-1-.437-1-1v-18c0-.562.438-1 1-1zm7.163 10.845-2.14 2.116-2.116-2.116-1.059 1.058 2.117 2.14-2.117 2.14 1.059 1.058 2.116-2.14 2.14 2.14 1.058-1.058-2.14-2.14 2.14-2.14zm-11.163 3.155a1 1 0 1 1 0 2 1 1 0 0 1 0-2zm1-4c.563 0 1 .437 1 1 0 .562-.437 1-1 1h-1c-.562 0-1-.438-1-1 0-.563.438-1 1-1zm3-7.594v2.594h2.594z" fill="var(--db-icon-color, currentColor)" fill-rule="evenodd"/></svg>
