<svg id="icon" height="48" viewBox="0 0 48 48" width="48" xmlns="http://www.w3.org/2000/svg"><path d="m39.714 1.9997c3.472 0 6.286 2.815 6.286 6.286v31.429c0 3.471-2.814 6.285-6.286 6.285h-31.429c-3.471 0-6.285-2.814-6.285-6.285v-31.429c0-3.471 2.814-6.286 6.285-6.286zm0 2h-31.428c-2.364 0-4.286 1.923-4.286 4.286v31.429c0 2.363 1.922 4.285 4.286 4.285h31.428c2.363 0 4.286-1.922 4.286-4.285v-31.429c0-2.363-1.923-4.286-4.286-4.286zm-29.778 5.9357c.39-.391 1.023-.391 1.414 0l12.65 12.65 12.65-12.65c.391-.391 1.023-.391 1.414 0s.391 1.023 0 1.414l-12.65 12.65 12.65 12.651c.391.39.391 1.023 0 1.414-.195.195-.451.293-.707.293s-.512-.098-.707-.293l-12.65-12.65-12.65 12.65c-.196.195-.452.293-.707.293-.256 0-.512-.098-.707-.293-.391-.391-.391-1.024 0-1.414l12.65-12.651-12.65-12.65c-.391-.391-.391-1.023 0-1.414z" fill="var(--db-icon-color, #55b9e6)" fill-rule="evenodd"/></svg>
