<svg id="icon" height="64" viewBox="0 0 64 64" width="64" xmlns="http://www.w3.org/2000/svg"><path d="m53.9998 2c4.419 0 8 3.581 8 8v44c0 4.418-3.581 8-8 8h-44c-4.418 0-8-3.582-8-8v-44c0-4.419 3.582-8 8-8zm0 2h-44c-3.309 0-6 2.691-6 6v44c0 3.309 2.691 6 6 6h44c3.309 0 6-2.691 6-6v-44c0-3.309-2.691-6-6-6zm-40.9217 9.0791c.391-.391 1.024-.391 1.414 0l17.508 17.507 17.507-17.507c.391-.391 1.023-.391 1.414 0s.391 1.023 0 1.414l-17.507 17.507 17.507 17.507c.391.39.391 1.023 0 1.414-.391.39-1.023.39-1.414 0l-17.507-17.507-17.508 17.507c-.39.39-1.023.39-1.414 0-.39-.391-.39-1.024 0-1.414l17.508-17.507-17.508-17.507c-.39-.391-.39-1.023 0-1.414z" fill="var(--db-icon-color, #55b9e6)" fill-rule="evenodd"/></svg>
