<svg id="icon" height="64" viewBox="0 0 64 64" width="64" xmlns="http://www.w3.org/2000/svg"><g fill="none" fill-rule="evenodd" transform="translate(12 4)"><path d="m23.617.032c1.3.016 2.6.06 3.898.134 2.533.212 4.155.698 5.819 1.588a11.906 11.906 0 0 1 4.946 4.946c.89 1.664 1.375 3.286 1.588 5.818.082.903.126 2.202.133 3.897.038 7.54.038 15.08 0 22.617a70.45 70.45 0 0 1 -.133 3.965c-.213 2.532-.698 4.154-1.588 5.82a11.905 11.905 0 0 1 -4.946 4.945c-1.589.85-3.025 1.292-5.227 1.527a1 1 0 0 1 -1.072-1.254c.141-.556.265-1.207.376-2.002h-14.826l.382 1.998a1 1 0 0 1 -1.07 1.258c-2.204-.235-3.64-.677-5.228-1.527a11.9 11.9 0 0 1 -4.947-4.946c-.89-1.666-1.375-3.287-1.588-5.82a58.97 58.97 0 0 1 -.133-3.964v-22.617c-.001-.998.043-2.298.133-3.897.213-2.532.698-4.154 1.588-5.818a11.9 11.9 0 0 1 4.946-4.946c1.664-.89 3.286-1.376 5.818-1.588 1.3-.074 2.599-.118 3.898-.134 3.616-.042 3.617-.042 7.233 0zm.236 53.979a1 1 0 0 1 .294 1.978 28.27 28.27 0 0 1 -4.147.311c-1.366 0-2.748-.104-4.147-.31a1 1 0 0 1 .294-1.98c1.302.194 2.586.29 3.853.29s2.551-.096 3.853-.29zm10.053-49.504-1.424 21.543c-.169 2.247-.47 3.313-1.194 4.401-.65.978-1.558 1.734-2.679 2.24-.993.447-1.945.656-3.588.72l-1.283.021h-7.473l-1.284-.021c-1.643-.064-2.595-.273-3.588-.72-1.121-.506-2.029-1.262-2.679-2.24-.687-1.033-.96-2.095-1.194-4.41-.121-1.994-.596-9.172-1.424-21.534a9.903 9.903 0 0 0 -2.61 3.136c-.834 1.56-1.256 3.079-1.412 5.778a44.812 44.812 0 0 0 -.072 2.994c0 3.058-.004 11.342 0 23.107 0 .594.018 1.342.054 2.242.14 2.908.563 4.486 1.43 6.11a9.9 9.9 0 0 0 4.126 4.125c1.007.539 1.92.879 3.115 1.104a31.924 31.924 0 0 1 -.259-1.89.996.996 0 0 1 .13-.612.99.99 0 0 1 .903-.569c5.667-.002 11.333-.002 17 0a1 1 0 0 1 .903.57c.1.174.147.382.124.598a32.99 32.99 0 0 1 -.258 1.905 10.261 10.261 0 0 0 3.12-1.105 9.905 9.905 0 0 0 4.126-4.126c.834-1.56 1.257-3.08 1.413-5.78l.072-3.06v-22.62c0-1.015-.018-1.903-.055-2.664-.14-2.908-.562-4.486-1.43-6.108a9.92 9.92 0 0 0 -2.61-3.136zm-3.53 30.908a2.5 2.5 0 0 1 2.5 2.5v.548a3 3 0 0 1 -1.844 2.768l-2.091.873a4 4 0 0 1 -1.54.309h-1.9a1 1 0 0 1 -1-.973l-.124-4.618a1 1 0 0 1 .923-1.024c2.538-.195 2.531-.383 5.077-.383zm-20.562.007c.515.044 2.143.17 4.885.376a1 1 0 0 1 .92.91l-.118 4.73a1 1 0 0 1 -.885.968l-2.017.007a4 4 0 0 1 -1.294-.215l-2.338-.967c-1.058-.441-1.854-1.52-1.839-2.769l-.006-.547c0-1.38 1.196-2.614 2.692-2.493zm20.563 1.993c-.185 0-1.51.102-3.976.305l.073 2.693h.926a2 2 0 0 0 .77-.155l2.092-.872a1 1 0 0 0 .615-.923v-.548a.5.5 0 0 0 -.5-.5zm-20.755 0a.501.501 0 0 0 -.5.5 21.68 21.68 0 0 0 0 .548 1 1 0 0 0 .507.87l2.2.925a2 2 0 0 0 .572.145l1.127.01.07-2.693zm14.418-35.381-7.655-.002-2.665.055c-2.46.12-3.724.375-5.698 1.22.639 9.544 1.235 18.703 1.494 22.594.162 1.785.436 2.798.865 3.443.438.659 1.051 1.17 1.835 1.523.665.3 1.313.46 2.438.527l1.612.038h7.473l1.611-.038c1.125-.067 1.774-.228 2.438-.527.784-.353 1.397-.864 1.836-1.523.428-.645.702-1.653.864-3.434.166-2.079.665-9.613 1.494-22.603-1.238-.604-2.71-1.054-5.05-1.182-2.515-.138-.374-.09-2.892-.091z" fill="var(--db-icon-color, currentColor)" fill-rule="nonzero"/><path d="m38.082 41.124a1 1 0 0 1 .838 1.816l-1.863.852-1.297.58-1.212.533-1.129.483-.706.295-.99.402-.614.241-.578.22-.541.199-.507.177c-.08.028-.16.055-.24.08-4.159 1.04-14.325 1.04-18.558-.02l-.456-.157-.49-.176-.803-.303-.882-.349-.962-.395-1.042-.44-1.121-.486-1.62-.72-1.764-.802-.463-.214a1 1 0 1 1 .838-1.816l1.343.616.85.385 1.592.707.741.324 1.043.446.96.399.593.24.82.321.498.188.461.167.423.145c3.84.96 13.674.96 17.441.022l.437-.15.474-.17.51-.192.831-.324.913-.371 1.343-.566.726-.313 1.155-.509 1.236-.554 1.316-.6.456-.21z" fill="var(--db-icon-pulse-color, #EC0016)"/></g></svg>
