<svg id="icon" height="24" viewBox="0 0 24 24" width="24" xmlns="http://www.w3.org/2000/svg"><path d="m2 18.99v-13.98c0-1.683 1.327-3.01 2.977-3.01h3.043c.55 0 .971.453.971 1.003s-.42 1.003-.97 1.003h-3.045c-.517 0-.97.454-.97 1.004v13.98c0 .55.453 1.004.97 1.004h8.026a1.01 1.01 0 0 0 1.004-1.004v-1.94c0-.583.453-.971.97-.971.583 0 1.004.388 1.004.97v1.942c0 1.683-1.327 3.01-2.978 3.01h-8.025c-1.65-.001-2.977-1.328-2.977-3.011zm3-2.006c0-.508.452-.984 1-.984s1 .476 1 .984c0 .54-.452 1.016-1 1.016s-1-.476-1-1.016zm3 0c0-.508.426-.984.984-.984.59 0 1.016.476 1.016.984a1.01 1.01 0 0 1 -1.016 1.016c-.558 0-.984-.476-.984-1.016zm3.997-.984c.548 0 1 .476 1 .984 0 .54-.452 1.016-1 1.016-.549 0-1-.476-1-1.016 0-.508.451-.984 1-.984zm4.102-14a6.02 6.02 0 0 1 6.014 6.014c0 3.3-2.698 5.986-6.014 5.986a5.996 5.996 0 0 1 -5.721-4.226l-.471 1.01a1.001 1.001 0 0 1 -1.212.53l-.117-.046a1.001 1.001 0 0 1 -.53-1.212l.046-.117 1.494-3.204a1 1 0 0 1 .072-.129l.08-.106.088-.088.087-.07.102-.063.052-.027.084-.034.07-.023.125-.027.115-.01.119.003.11.016.108.028.057.02.06.026 3.205 1.494a1 1 0 0 1 -.73 1.859l-.116-.046-.996-.464c.475 1.671 1.998 2.906 3.819 2.906 2.213 0 4.014-1.788 4.014-3.986a4.019 4.019 0 0 0 -4.014-4.014c-.607 0-1.19.134-1.731.397a1 1 0 1 1 -.875-1.798 5.895 5.895 0 0 1 2.606-.599z" fill="var(--db-icon-color, currentColor)" fill-rule="evenodd"/></svg>
