<svg id="icon" height="20" viewBox="0 0 20 20" width="20" xmlns="http://www.w3.org/2000/svg"><path d="m7 2c.5312 0 1 .4375 1 1s-.4688 1-1 1h-3v12h8v-1.4375c0-.5313.4375-1 1-1s1 .4687 1 1v1.4375c0 1.0938-.9062 2-2 2h-8c-1.125 0-2-.9062-2-2v-12c0-1.125.875-2 2-2zm-1.01636189 10c.59014235 0 1.01636189.4761624 1.01636189.9841083 0 .5397293-.42621954 1.0158917-1.01636189 1.0158917-.55741857 0-.98363811-.4761624-.98363811-1.0158917 0-.5079459.42621954-.9841083.98363811-.9841083zm3.01311205 0c.54841764 0 1.00004984.4761624 1.00004984.9841083 0 .5397293-.4516322 1.0158917-1.00004984 1.0158917-.54831796 0-.99995016-.4761624-.99995016-1.0158917 0-.5079459.4516322-.9841083.99995016-.9841083zm4.00324984-10c2.75 0 5 2.25 5 5s-2.25 5-5 5-5-2.25-5-5 2.25-5 5-5zm.5937 2.25-2.8437 2.8438 2.875 2.875 1.1874-1.1876-1.7187-1.6874 1.6875-1.6563z" fill="var(--db-icon-color, currentColor)" fill-rule="evenodd"/></svg>
