<svg id="icon" height="64" viewBox="0 0 64 64" width="64" xmlns="http://www.w3.org/2000/svg"><g fill="none" fill-rule="evenodd" transform="translate(5 6)"><path d="m22 34a8 8 0 0 1 7.994 7.698l.006.302v9a1 1 0 0 1 -1.993.117l-.007-.117v-9a6 6 0 0 0 -5.442-5.974l-.297-.02-.122.072a14.764 14.764 0 0 1 -6.705 1.91l-.444.012a14.752 14.752 0 0 1 -7.129-1.922l-.123-.072-.186.01a6 6 0 0 0 -5.548 5.76l-.004.224v9a1 1 0 0 1 -1.993.117l-.007-.117v-9a8 8 0 0 1 8-8 1 1 0 0 1 .52.145 12.736 12.736 0 0 0 6.47 1.855 12.752 12.752 0 0 0 6.49-1.855 1 1 0 0 1 .52-.145zm-7-19a9 9 0 1 1 0 18 9 9 0 0 1 0-18zm0 2a7 7 0 1 0 0 14 7 7 0 0 0 0-14zm28-17a1 1 0 0 1 1 1h5a5 5 0 0 1 4.995 4.783l.005.217v13a5 5 0 0 1 -4.783 4.995l-.217.005h-22a1 1 0 0 1 -.117-1.993l.117-.007h22a3 3 0 0 0 2.995-2.824l.005-.176v-13a3 3 0 0 0 -2.824-2.995l-.176-.005h-36a3 3 0 0 0 -2.995 2.824l-.005.176v7a1 1 0 0 1 -1.993.117l-.007-.117v-7a5 5 0 0 1 4.783-4.995l.217-.005h4a1 1 0 0 1 .883-.993l.117-.007zm-12 10a1 1 0 0 1 .117 1.993l-.117.007h-12a1 1 0 0 1 -.117-1.993l.117-.007zm15-5a3 3 0 1 1 0 6 3 3 0 0 1 0-6zm0 2a1 1 0 1 0 0 2 1 1 0 0 0 0-2zm-2.28 11.694-.066.063-.102.077-.037.023a.99.99 0 0 1 -.374.133l-.097.01-.103-.002-.06-.005-.111-.02-.075-.02-.094-.036-.125-.065-.08-.055-.092-.08-.047-.048-3.062-3.825-2.3 4.603a1 1 0 0 1 -1.836-.787l.047-.107 3.016-6.033.043-.07.074-.099.053-.057.035-.034.048-.04a.993.993 0 0 1 .31-.17l.083-.023.124-.021.107-.006.113.006.113.02.113.033.11.047.069.038.083.056.107.092.047.05 3.172 3.965 1.274-1.907.052-.064.06-.062.097-.081.053-.036.064-.038.04-.02.117-.047.115-.031.08-.014.062-.005h.113l.088.008.11.022.111.036.105.048.088.052.072.053.073.065.06.063 3.04 4.051a1 1 0 0 1 -1.519 1.296l-.081-.096-2.152-2.87-1.25 1.873z" fill="var(--db-icon-color, currentColor)" fill-rule="nonzero"/><path d="m31 6a1 1 0 0 1 .117 1.993l-.117.007h-16a1 1 0 0 1 -.117-1.993l.117-.007z" fill="var(--db-icon-pulse-color, #EC0016)"/></g></svg>
