<svg id="icon" height="64" viewBox="0 0 64 64" width="64" xmlns="http://www.w3.org/2000/svg"><g fill="none" fill-rule="evenodd" transform="translate(5 4)"><path d="m43.5 0a10.48 10.48 0 0 1 10.5 10.5c0 4.052-2.264 7.633-6 9.5 0 9.83-8.188 18.228-18 18-2.51.054-4.793-.64-5.444-.838a1 1 0 0 1 .605-1.907c1.753.538 3.227.745 4.839.745 8.837 0 16-7.163 16-16a63.24 63.24 0 0 0 -.036-1.332c3.85-1.258 6.036-4.648 6.036-8.168a8.5 8.5 0 0 0 -8.5-8.5c-2.375 0-4.623.88-6.855 3.423-2.682-1.123-4.565-1.423-6.645-1.423-1.92 0-3.773.238-6.645 1.424-2.213-2.649-4.6-3.424-6.855-3.424a8.5 8.5 0 0 0 -8.5 8.5c0 3.425 2.002 6.666 6.039 8.168-.039.263-.039 1.124-.039 1.332 0 2.402.542 4.78 1.593 7.001a11.003 11.003 0 0 1 6.407 9.999c0 2.33-.724 4.49-1.96 6.269l6.5 5.447a4 4 0 1 1 -1.304 1.516l-6.482-5.43a10.965 10.965 0 0 1 -7.754 3.198c-6.075 0-11-4.925-11-11s4.925-11 11-11c.718 0 1.42.069 2.099.2-.667-1.81-1.03-3.579-1.099-6.213-3.111-1.382-6-4.933-6-9.487 0-5.799 4.701-10.5 10.5-10.5 2.732 0 5.271 1.013 7.407 3.059 1.885-.705 4.09-1.059 6.093-1.059s4.248.367 6.092 1.059c1.035-.991 3.4-3.059 7.408-3.059zm-14.676 50a2 2 0 1 0 2 2c0-1.105-.924-2-2-2zm-17.824-22a9 9 0 1 0 9 9c0-4-3.323-9-9-9zm20.586-5a1 1 0 0 1 .707 1.707l-1.293 1.293v2.07c.715.635 1.379.93 2 .93.739 0 1.317-.231 1.793-.707a1 1 0 0 1 1.414 1.414c-.857.858-1.946 1.293-3.207 1.293-.97 0-2-.35-3.001-1.161-.809.628-1.738 1.161-2.999 1.161s-2.35-.435-3.207-1.293a1 1 0 0 1 1.414-1.414c.476.476 1.054.707 1.793.707.621 0 1.286-.295 2-.93v-2.07l-1.293-1.293a.997.997 0 0 1 -.293-.696c-.003-.26.15-1.011 1-1.011zm6.919-6.25a1.75 1.75 0 1 1 -1.75 1.75c0-1.08.788-1.75 1.75-1.75zm-16.93 0a1.75 1.75 0 1 1 -1.75 1.75c0-.966.716-1.75 1.75-1.75z" fill="var(--db-icon-color, currentColor)" fill-rule="nonzero"/><path d="m15.072 33.629a1 1 0 0 1 1.856.742c-2.065 5.164-6.79 9.015-12.757 10.642a1 1 0 1 1 -.526-1.93c5.39-1.47 9.607-4.906 11.427-9.454z" fill="var(--db-icon-pulse-color, #EC0016)"/></g></svg>
