<svg id="icon" height="64" viewBox="0 0 64 64" width="64" xmlns="http://www.w3.org/2000/svg"><g fill="none" fill-rule="evenodd" transform="translate(12 4)"><path d="m35.992 0a4 4 0 0 1 3.996 3.8l.004.208.008 48a4 4 0 0 1 -4 3.992h-32a4 4 0 0 1 -4-4v-48a4 4 0 0 1 4-4zm0 2h-31.992a2 2 0 0 0 -1.995 1.85l-.005.15v48a2 2 0 0 0 1.85 1.995l.15.005 32-.004a2 2 0 0 0 1.994-1.847l.006-.149-.008-47.994a2 2 0 0 0 -1.85-2zm-26.992 39.75c1.808 0 3.25 1.32 3.25 3.027 0 .609-.203 1.239-.59 1.828l-2.112 3.29a.67.67 0 0 1 -.548.305.67.67 0 0 1 -.548-.305l-2.113-3.29c-.386-.59-.589-1.22-.589-1.828 0-1.707 1.442-3.027 3.25-3.027zm18 5.25a1 1 0 0 1 .117 1.993l-.117.007h-12a1 1 0 0 1 -.117-1.993l.117-.007zm-18-3.3c-.71 0-1.3.594-1.3 1.31 0 .717.59 1.29 1.3 1.29s1.3-.573 1.3-1.29c0-.716-.59-1.31-1.3-1.31zm22-.7a1 1 0 0 1 .117 1.993l-.117.007h-16a1 1 0 0 1 -.117-1.993l.117-.007zm-4-13a1 1 0 0 1 .117 1.993l-.117.007h-12a1 1 0 0 1 -.117-1.993l.117-.007zm-18-4.25a1.25 1.25 0 1 1 0 2.5 1.25 1.25 0 0 1 0-2.5zm22 .25a1 1 0 0 1 .117 1.993l-.117.007h-16a1 1 0 0 1 -.117-1.993l.117-.007zm-4-15a1 1 0 0 1 .117 1.993l-.117.007h-12a1 1 0 0 1 -.117-1.993l.117-.007zm-18-5.25a3.25 3.25 0 1 1 0 6.5 3.25 3.25 0 0 1 0-6.5zm0 2a1.25 1.25 0 1 0 0 2.5 1.25 1.25 0 0 0 0-2.5zm22-.75a1 1 0 0 1 .117 1.993l-.117.007h-16a1 1 0 0 1 -.117-1.993l.117-.007z" fill="var(--db-icon-color, currentColor)" fill-rule="nonzero"/><path d="m9 29.75a1 1 0 0 1 .993.883l.007.117v8.5a1 1 0 0 1 -1.993.117l-.007-.117v-8.5a1 1 0 0 1 1-1zm0-16a1 1 0 0 1 .993.883l.007.117v8.5a1 1 0 0 1 -1.993.117l-.007-.117v-8.5a1 1 0 0 1 1-1z" fill="var(--db-icon-pulse-color, #EC0016)"/></g></svg>
