<svg id="icon" height="64" viewBox="0 0 64 64" width="64" xmlns="http://www.w3.org/2000/svg"><g fill="none" fill-rule="evenodd" transform="translate(5.997 19)"><path d="m39.46 0a12.5 12.5 0 0 1 1.928 24.857 12.82 12.82 0 0 1 -9.375-2.327c-.46-.318-.999-.5-1.569-.527l-.214-.003h-8.653a2.97 2.97 0 0 0 -1.732.507 12.392 12.392 0 0 1 -9.236 2.348 12.5 12.5 0 0 1 1.631-24.853l.305-.002zm.004 2h-26.926a10.5 10.5 0 0 0 -10.506 9.684c-.427 5.48 3.445 10.362 8.872 11.193 2.74.401 5.525-.308 7.771-1.993a4.985 4.985 0 0 1 2.665-.883l.257-.001 8.873.002c.958.03 1.89.337 2.702.898a10.832 10.832 0 0 0 7.923 1.978 10.5 10.5 0 0 0 -1.347-20.875zm1.039 12.333a1.833 1.833 0 1 1 0 3.667 1.833 1.833 0 0 1 0-3.667zm-28.5-7.333a1 1 0 0 1 .993.883l.007.117v3h3a1 1 0 0 1 .116 1.993l-.116.007h-3v3a1 1 0 0 1 -1.993.117l-.007-.117v-3h-3a1 1 0 0 1 -.117-1.993l.117-.007h3v-3a1 1 0 0 1 1-1zm32.167 3.667a1.833 1.833 0 1 1 0 3.666 1.833 1.833 0 0 1 0-3.666zm-7.334 0a1.833 1.833 0 1 1 0 3.666 1.833 1.833 0 0 1 0-3.666zm3.667-3.667a1.833 1.833 0 1 1 0 3.667 1.833 1.833 0 0 1 0-3.667z" fill="#282D37" style="fill: currentColor;fill: var(--db-icon-color, currentColor)" fill-rule="nonzero"/><path d="m31.003 15a1 1 0 0 1 .116 1.993l-.116.007h-10a1 1 0 0 1 -.117-1.993l.117-.007z" fill="#EC0016" style="fill:#EC0016;fill: var(--db-icon-pulse-color, #EC0016)"/></g></svg>
