<svg id="icon" height="64" viewBox="0 0 64 64" width="64" xmlns="http://www.w3.org/2000/svg"><g fill="none" fill-rule="evenodd" transform="translate(12 6)"><path d="m20.31 0c-11 0-20.31 10.51-20.31 23.4a19.23 19.23 0 0 0 7 14.69l.15.18 3.51 6.3a.94.94 0 0 0 .76.43h3.82c.422 0 1.172-.43.91-1.35-.08-.22-.29-1-.29-1s.66.2 1.24.34c1.052.193 2.12.29 3.19.29a15.3 15.3 0 0 0 3.19-.3 11.92 11.92 0 0 0 1.21-.33l-.26 1c-.152.562.085 1.35 1 1.35h3.88a.64.64 0 0 0 .62-.33l3.45-6.58.13-.17a19 19 0 0 0 6.2-13.73c-.05-11.71-8.02-24.03-19.4-24.19zm11.45 36.92-3 5.71c-.13.24-.14.37-.37.37h-1.61l.24-.94.71-2.67a19.29 19.29 0 0 1 -7.42 1.87c-2.66 0-7.6-1.95-7.57-1.85l.78 2.67.26.94h-1.57c-.24 0-.25-.09-.41-.37l-3-5.43-.16-.19a18 18 0 0 1 -6.66-13.77c0-10.1 6.83-21.27 18.27-21.27h.06c9.8 0 17.44 11.81 17.4 22.23a17.38 17.38 0 0 1 -5.82 12.52zm3.3-10.63c.54.44.45 1.1.1 1.89-1.247 2.403-4.336 6.731-10.15 8.48a17.79 17.79 0 0 1 -12.78-.61c-1.16-.53-1.23-1.48-.88-2s.73-.58 1.71-.18a16.24 16.24 0 0 0 12.64 0c4.92-2 6.42-5.21 7.69-7.4.19-.257.94-.812 1.67-.18zm-30.141-8.553c1.523-7.75 9.784-14.215 17.365-13.107 3.568.522 7.076 2.739 9.177 5.67a13.982 13.982 0 0 1 2.43 10.47c-1.013 7.126-9.15 11.385-17.558 10.484-8.959-.963-12.94-5.752-11.414-13.517zm17.063-11.13c-6.48-.96-13.794 4.87-15.1 11.516-1.29 6.557 1.822 10.3 9.665 11.143 7.57.81 14.62-2.796 15.421-9.154a12 12 0 0 0 -2.132-8.647c-1.865-2.602-4.686-4.388-7.854-4.858zm-7.94 8.888c1.502-.415 3.426 1.808 4.299 4.965.872 3.156.362 6.052-1.139 6.467-1.5.414-3.425-1.808-4.298-4.965-.872-3.157-.362-6.052 1.139-6.467zm8.473-1.279c1.554-.1 2.987 2.49 3.2 5.786s-.874 6.049-2.429 6.15c-1.554.1-2.986-2.49-3.2-5.786-.213-3.296.874-6.05 2.429-6.15z" fill="#282D37" style="fill: currentColor;fill: var(--db-icon-color, currentColor)" fill-rule="nonzero"/><path d="m32 52h-24a1 1 0 0 1 0-2h24a1 1 0 0 1 0 2z" fill="#EC0016" style="fill:#EC0016;fill: var(--db-icon-pulse-color, #EC0016)"/></g></svg>
