<svg id="icon" height="24" viewBox="0 0 24 24" width="24" xmlns="http://www.w3.org/2000/svg"><path d="m9.5 2c4.156 0 7.531 3.374 7.531 7.497a7.582 7.582 0 0 1 -1.531 4.592l6.219 6.216c.375.375.375 1 0 1.406-.375.374-.938.374-1.344.062l-6.281-6.279a7.59 7.59 0 0 1 -4.594 1.531c-4.125 0-7.5-3.374-7.5-7.528 0-4.123 3.375-7.497 7.5-7.497zm0 2a5.507 5.507 0 0 0 -5.5 5.496c0 3.061 2.469 5.529 5.5 5.529a5.52 5.52 0 0 0 5.531-5.53c0-3.028-2.469-5.495-5.531-5.495z" fill="#282D37" style="fill: currentColor;fill: var(--db-icon-color, currentColor)" fill-rule="evenodd"/></svg>