<svg id="icon" height="64" viewBox="0 0 64 64" width="64" xmlns="http://www.w3.org/2000/svg"><g fill="none" fill-rule="evenodd" transform="translate(12 10)"><path d="m36.5 0a3.5 3.5 0 0 1 3.495 3.308l.005.192v10.5a1 1 0 0 1 -1.994.117l-.006-.117v-10.5a1.5 1.5 0 0 0 -1.356-1.493l-.144-.007h-32.998a1.5 1.5 0 0 0 -1.492 1.354l-.007.148-.003 35.636c.001 1.953.784 2.803 2.657 2.859l.205.003h31.638a1.5 1.5 0 0 0 1.493-1.356l.007-.144v-4.5a1 1 0 0 1 1.993-.117l.007.117v4.5a3.5 3.5 0 0 1 -3.308 3.495l-.192.005h-31.638c-3.042 0-4.766-1.642-4.858-4.611l-.004-.25.002-35.636a3.5 3.5 0 0 1 3.288-3.496l.212-.007zm-3.5 36a1 1 0 0 1 .116 1.993l-.116.007h-26a1 1 0 0 1 -.117-1.993l.117-.007zm-14-5a1 1 0 0 1 .116 1.993l-.116.007h-12a1 1 0 0 1 -.117-1.993l.117-.007zm-4.572-18.751c1.489 0 2.795.325 3.92.976.885.515 1.57 1.19 2.057 2.021.492.85.738 1.828.738 2.936 0 1.705-.474 2.994-1.424 3.867-.697.644-1.573.967-2.627.967-1.23 0-2.069-.446-2.514-1.336-.639.867-1.421 1.3-2.347 1.3-.603 0-1.08-.187-1.432-.562-.387-.416-.58-1.02-.58-1.81 0-1.003.187-1.972.562-2.91.469-1.19 1.283-1.784 2.443-1.784.688 0 1.326.245 1.917.734l.175.154.545-.87h1.705l-.685 4.306-.023.151-.017.136-.02.228a1.86 1.86 0 0 0 -.002.092c0 .492.223.738.668.738.598 0 1.072-.313 1.424-.94.363-.65.545-1.462.545-2.435 0-1.342-.413-2.42-1.24-3.234-.949-.938-2.22-1.407-3.814-1.407-1.717 0-3.138.563-4.263 1.688-1.195 1.201-1.793 2.804-1.793 4.807 0 3.37 1.782 5.054 5.344 5.054 1.552 0 3.115-.334 4.687-1.003l.393-.175v1.442l-.347.161c-1.402.62-2.938.929-4.61.929-2.285 0-4.066-.58-5.344-1.74-1.248-1.131-1.872-2.681-1.872-4.65 0-1.512.352-2.877 1.055-4.096a7.224 7.224 0 0 1 2.69-2.69c1.212-.696 2.575-1.045 4.086-1.045zm-.43 5.282c-.305 0-.542.103-.712.308-.14.172-.268.541-.388 1.106l-.078.406-.065.391-.047.331a4.095 4.095 0 0 0 -.037.482c0 .498.214.747.641.747.334 0 .655-.183.966-.549l.115-.146.449-2.786-.146-.088a1.433 1.433 0 0 0 -.698-.202zm19.372-11.543a1 1 0 0 1 .116 1.994l-.116.006h-26.37a1 1 0 0 1 -.117-1.993l.117-.007z" fill="#282D37" style="fill: currentColor;fill: var(--db-icon-color, currentColor)" fill-rule="nonzero"/><path d="m32.014 25.557v-4.63c0-.59.47-1.05 1.033-1.05.532 0 .97.46.97 1.05v4.63c0 .656-.407 1.115-.97 1.115-.564 0-1.033-.492-1.033-1.115zm-.704-11.344-8.06 16c-.156.328-.25.656-.25.984 0 .983.75 1.803 1.846 1.803h16.307c1.097 0 1.847-.82 1.847-1.803 0-.295-.094-.656-.25-.984l-8.029-16c-.421-.787-1.064-1.213-1.721-1.213s-1.26.426-1.69 1.213zm1.945.993 7.695 15.313c.128.24 0 .481-.287.481h-15.343c-.192 0-.32-.137-.32-.275 0-.103.033-.137.033-.206l7.713-15.313c.063-.103.16-.206.255-.206.096 0 .223.103.255.206zm-.27 14.614c.563 0 1-.46 1-1.05s-.437-1.049-1-1.049c-.564 0-1.002.46-1.002 1.05s.438 1.049 1.001 1.049z" fill="#EC0016" style="fill:#EC0016;fill: var(--db-icon-pulse-color, #EC0016)"/></g></svg>
