<svg id="icon" height="24" viewBox="0 0 24 24" width="24" xmlns="http://www.w3.org/2000/svg"><path d="m21.443 9.703a9.986 9.986 0 0 1 .557 3.297 9.965 9.965 0 0 1 -2.547 6.668 1 1 0 0 1 -1.49-1.334 7.965 7.965 0 0 0 2.037-5.334c0-.91-.152-1.798-.445-2.638a1 1 0 1 1 1.888-.659zm-9.443-6.703c1.152 0 2.278.195 3.343.573a1 1 0 0 1 -.669 1.885 8 8 0 0 0 -10.674 7.542c0 1.997.733 3.876 2.037 5.334a1 1 0 0 1 -1.49 1.334 9.965 9.965 0 0 1 -2.547-6.668c0-5.523 4.477-10 10-10zm6.707 3.293c.36.36.424.99 0 1.414a9969.31 9969.31 0 0 1 -4.773 4.775 2.003 2.003 0 0 1 -1.932 2.518 2 2 0 1 1 .515-3.933l4.776-4.774a1 1 0 0 1 1.414 0z" fill="#282D37" style="fill: currentColor;fill: var(--db-icon-color, currentColor)" fill-rule="evenodd"/></svg>
