<svg id="icon" height="20" viewBox="0 0 20 20" width="20" xmlns="http://www.w3.org/2000/svg"><path d="m16.387 2.21c.312-.305.96-.278 1.32.083.36.36.404.98.083 1.32l-8.376 8.387h7.331c.413 0 .58.046.743.134a.906.906 0 0 1 .378.378c.043.079.132.278.134.949.002.67-.089.944-.134 1.027a.909.909 0 0 1 -.378.378c-.163.088-.33.134-.743.134h-10.331l-2.801 2.79c-.358.305-.96.278-1.32-.083-.36-.36-.41-.959-.083-1.32zm-11.501 9.79-2.646 2.647c-.24-.349-.24-.437-.24-1.147s.046-.825.134-.988a.909.909 0 0 1 .378-.378c.163-.088.33-.134.743-.134zm-2.035-9.77a1 1 0 0 1 1.413.046c1.206 1.284 1.288 2.789.256 4.186l-.223.29c-.15.22-.342.58-.162 1.11.05.148.172.345.365.591a1 1 0 0 1 -1.54 1.271 3.388 3.388 0 0 1 -.522-.77c-.544-1.07-.555-2.278.261-3.405l.232-.302c.446-.607.402-1.04-.125-1.603a1 1 0 0 1 .044-1.414z" fill="#282D37" style="fill: currentColor;fill: var(--db-icon-color, currentColor)" fill-rule="evenodd"/></svg>
