<svg id="icon" height="24" viewBox="0 0 24 24" width="24" xmlns="http://www.w3.org/2000/svg"><path d="m10 2a1 1 0 0 1 1 1c0 .513-.414 1-1 .993l-3.581.007c-.788 0-1.267.06-1.579.24-.311.18-.46.343-.6.608-.15.285-.218.564-.235 1.217v11.87c.017.653.085.932.235 1.217.14.265.31.442.6.608.291.166.666.221 1.19.235l3.97.005a1 1 0 0 1 0 2h-3.581c-1.237 0-1.871-.124-2.531-.481a3.438 3.438 0 0 1 -1.416-1.433c-.326-.616-.453-1.21-.47-2.29l-.002-11.334c0-1.246.121-1.883.472-2.547a3.438 3.438 0 0 1 1.416-1.433c.613-.331 1.203-.462 2.275-.48zm7.5 5.65c2.39 0 4.35 1.937 4.35 4.35a4.353 4.353 0 0 1 -4.35 4.35c-1.284 0-2.723-.553-3.7-2.07h-1.213l-1.014.677a.85.85 0 0 1 -.9.027l-.828-.647-.715.576a.85.85 0 0 1 -1.088-.02l-2.08-2.328c-.271-.306-.276-.83-.044-1.075l1.026-1.038 1.053-1.053a.867.867 0 0 1 .596-.242l5.62-.007a4.357 4.357 0 0 1 3.287-1.5zm0 1.707c-.728 0-1.283.235-1.8.684-.51.53-.933.809-1.221.809h-5.53l-1.183 1.184.93 1.046.615-.493a.849.849 0 0 1 .964-.07l.869.681.528-.484h2.348c.644 0 1.114.536 1.272.754.16.217.274.371.461.528.365.305.88.65 1.747.65 1.575 0 2.65-1.193 2.65-2.646s-1.075-2.643-2.65-2.643zm0 1.393a1.25 1.25 0 1 1 0 2.5 1.25 1.25 0 0 1 0-2.5z" fill="#282D37" style="fill: currentColor;fill: var(--db-icon-color, currentColor)" fill-rule="evenodd"/></svg>
