<svg id="icon" height="20" viewBox="0 0 20 20" width="20" xmlns="http://www.w3.org/2000/svg"><path d="m7 2c.531 0 1 .438 1 1 0 .563-.469 1-1 1h-3v12h8v-1.438c0-.53.438-1 1-1 .563 0 1 .47 1 1v1.438c0 1.094-.906 2-2 2h-8c-1.125 0-2-.906-2-2v-12c0-1.125.875-2 2-2zm-2 10.984c0-.508.426-.984.984-.984.59 0 1.016.476 1.016.984a1.01 1.01 0 0 1 -1.016 1.016c-.558 0-.984-.476-.984-1.016zm3.997-.984c.548 0 1 .476 1 .984 0 .54-.452 1.016-1 1.016-.549 0-1-.476-1-1.016 0-.508.451-.984 1-.984zm2.293-9.697a4.952 4.952 0 0 1 3.82.171 4.961 4.961 0 0 1 2.588 2.817 5.006 5.006 0 0 1 -4.692 6.71 5.004 5.004 0 0 1 -2.118-.473 4.952 4.952 0 0 1 -2.428-2.486l-.033.012-.092.096a.997.997 0 0 1 -.98.214l-.117-.046-.111-.06a1 1 0 0 1 -.42-1.152l.047-.117.897-1.922.034-.066.038-.063.08-.105.087-.089.087-.07.102-.063.053-.027.083-.034.072-.023.123-.027.115-.01.12.003.109.016.124.033.102.041 1.922.897.11.06c.42.264.589.807.374 1.269a.998.998 0 0 1 -1.04.563 2.976 2.976 0 0 0 1.388 1.344c.729.34 1.544.377 2.292.104a3.004 3.004 0 0 0 1.793-3.845 2.982 2.982 0 0 0 -1.554-1.689 2.985 2.985 0 0 0 -2.292-.104 1 1 0 0 1 -.683-1.879z" fill="var(--db-icon-color, currentColor)" fill-rule="evenodd"/></svg>
