<svg id="icon" height="32" viewBox="0 0 32 32" width="32" xmlns="http://www.w3.org/2000/svg"><path d="m10.1429494 2.00169312h11.7141012c1.0915702.01483526 1.6811048.12925022 2.3056578.42515762.6260015.29659367 1.1409486.74320496 1.5230913 1.32097012.3167379.4788789.5060547.95154653.6579939 1.71620088l.6562064 4.53597826v13.4361148c0 .9637813-.0991552 1.477249-.3853195 2.0123298-.1597611.2987272-.3662564.561195-.6132301.7811475l-.0014504 1.4884653c0 .557373 0 2.2084823-2.0829004 2.2787998l-1.635157.0031428c-2.2638698 0-2.2638698-1.6406545-2.2787998-2.0829004l-.0033428-.9170996h-8l.0002.7180574c0 .557373-.0002 2.2787998-2.08290042 2.2787998l-1.63515698.0031428c-2.26386984 0-2.26386984-1.6406545-2.27879981-2.0829004l-.00379951-1.6868009c-.24732505-.220097-.45409161-.482807-.61402377-.7818541-.2623173-.4904907-.36749497-.9628204-.38320294-1.7804929l-.00211657-13.6679517.52865129-3.77162684c.1784931-1.24945173.37496288-1.85978335.78554897-2.4805523.38214273-.57776516.89708988-1.02437645 1.52309135-1.32097012.62455301-.2959074 1.21408763-.41032236 2.30565779-.42515762zm-2.1425282 24.99830688.00170797 1h1.99787083v-1zm16.0015547 0h-2.0001759v1h2.0001759zm.9979496-5.884v-1.406c-3.1884209.4433333-6.188396.665-8.9999255.665s-5.8110831-.2206621-8.99866079-.6619863l-.00063411 1.4039863 3.1233296.3907221c.54802.0685025.9367457.5682927.8682432 1.1163126-.0636095.5088757-.5293262.952778-1.11631263.8682432l-2.87526017-.3592779c-.0006034.3150376.00227416.5654845.00863269.7513407.0082176.2401956.02513851.3693358.11134018.5645532.08620168.1952173.19306242.2961714.37407519.4021602.18101276.1059888.47675868.1479567.89969039.1479567h15.21111295c.6594887 0 .7574-.0791902.8996903-.1479567.1422904-.0687665.2721788-.1922297.3458073-.3458073.0736285-.1535775.1382448-.257782.1448925-.7509797.0028588-.2121015.0041851-.4191906.0039789-.6212671l-2.8758847.3592771c-.5480195.0685059-1.047812-.3202167-1.1163179-.8682363-.0636126-.5088752.2665844-1.0246145.8682363-1.1163179zm-3.2011587-17.11506055h-11.5975336c-.66716347.00132791-1.16970072.07909874-1.50761172.2333125-.41167888.1878795-.69320028.52834786-.84098311.84118942s-.15795406.39455239-.22395737.71672638l-.628881 4.27883225v7.6195234c2.91729958.4803611 6.2319539.6844766 9.0002.6844766 2.9997104 0 5.9996496-.2281253 9.0002349-.6844766l-.0004349-7.6195234-.6534049-4.39471877c-.0651511-.28804825-.0830665-.39348724-.2255681-.65265558-.232407-.42267951-.4911082-.63391365-.8144485-.7893737-.3179889-.15288716-.8205262-.23065799-1.5076117-.2333125zm7.2010332 2.99906055c.5128358 0 1 .40468291 1 1v4c0 .5522847-.4477153 1-1 1-.5128358 0-1-.4027664-1-1v-4c0-.55228475.4477153-1 1-1zm-26 0c.51283584 0 1 .39892859 1 1v4c0 .5522847-.44771525 1-1 1-.51283584 0-1-.3986348-1-1v-4c0-.55228475.44771525-1 1-1zm18.5002 1c.5522847 0 1 .44771525 1 1 0 .51283584-.4194325 1-1 1h-11c-.55228475 0-1-.44771525-1-1 0-.51283584.41943251-1 1-1z" fill="var(--db-icon-color, currentColor)" fill-rule="evenodd"/></svg>
