<svg id="icon" height="24" viewBox="0 0 24 24" width="24" xmlns="http://www.w3.org/2000/svg"><path d="m13.0459275 2c2.1711308 0 3.4282378.75606464 4.3996624 2.04074074.8901959 1.17725381 1.4145999 2.58396219 1.5128712 4.0477891l.072462 2.61306136c.0391737 1.5538653-.1100281 3.1060621-.4438991 4.6232917-.2395264 1.0447781-.4267297 1.7967688-.5616099 2.2559722-.2023202.688805-.4241893 1.2723856-.983396 2.0449921-.3878796.5358989-.7788094.8710804-1.3025302 1.1055255.0701717.1223661.1105121.2657857.1105121.4186273 0 .4333311-.3509732.85-.85.85h-6c-.46944204 0-.85-.380558-.85-.85 0-.1574604.04281537-.3049208.1174392-.4313742-.6346401-.2905854-.86623541-.5323464-1.28934992-1.0868061-.42311452-.5544597-.76220229-1.2294363-.92636547-1.777861-.16416317-.5484247-.12398944-.4466478-.50412145-1.9461089-.380132-1.4994611-.576172-3.038268-.58437103-4.582973-.00546601-1.0298034.01605593-2.00373235.06456582-2.92178681.03958695-1.57620186.57338931-3.10099658 1.52717761-4.36234925.92726895-1.22628174 2.18476213-2.04074074 4.44518834-2.03607575zm3.4063038 14.869-.9925997.6595501c-.6344494.4078449-1.7895132.5913235-3.4625422.5913235s-2.77991318-.1562425-3.45663596-.5913804l-.99522211-.6594932c.09472406.4397001.25301721.8566579.47487943 1.2508736.33279334.5913235.7571621 1.1883917 1.55198434 1.1716077.7948222-.016784 4.1676418.0085187 4.9087184.0085187s1.0978034-.4827611 1.4601819-1.100953c.2415856-.412128.4119976-.855477.5112359-1.330047zm-5.4520682-13.169c-1.51960506 0-2.36880739.41337303-3.08921021 1.36608132-.68264094.90276949-1.08749202 1.97866545-1.16984735 3.09880842l-.07267239 2.62319416c-.03041845 1.2111476.06611225 2.4211507.28731224 3.6101832l1.51891405 1.0478024.98523417.6525182c.15220318.0978678 1.18725749.3212859 2.53719579.3212859 1.3499384 0 2.2377445-.1249352 2.543279-.3213428l1.4495461-.9684999 1.0486685-.7264279c.1934291-1.0316279.2929143-2.0783862.2982291-3.1280539l-.0632973-2.82968634c-.0307706-1.22054844-.4443491-2.40174648-1.183903-3.37978144-.6874212-.90909128-1.4587278-1.36608132-3.0436843-1.36189359zm3.8799685 9.0397369c.3875831.1937916.5624117.6437423.4218909 1.0420671l-.5417594 1.0983276c-.2099408.4198817-.7205129.5900724-1.1403947.3801315-.3875831-.1937916-.5624117-.6437423-.4218909-1.0420671l.5417594-1.0983276c.2099408-.4198817.7205129-.5900724 1.1403947-.3801315zm-4.6734749.2877275.5536064 1.092404c.2099409.4198818.0397502.9304539-.3801315 1.1403947-.38758317.1937916-.85244093.0636841-1.08678829-.2877275l-.55360642-1.092404c-.20994086-.4198818-.03975017-.9304539.38013155-1.1403947.38758313-.1937916.85244089-.0636841 1.08678826.2877275zm1.7933966-8.0274644c.8025434 0 1.4918679.09272274 2.0679733.27816823 1.2168731.39171089 1.9421988 1.63833474 1.6813799 2.88981027l-.2747751 1.31844036c-.1688049.80991864-.8188544 1.43230964-1.6353447 1.56575184-.7418596.1318862-1.3549551.1978293-1.8392867.1978293s-1.0974029-.0659417-1.839214-.1978251c-.81647945-.1334295-1.46652282-.7558013-1.63533668-1.56570498l-.27480599-1.31841286c-.2608512-1.25148129.46445702-2.49813424 1.68133759-2.88986177.57613248-.18546353 1.26548998-.27819529 2.06807238-.27819529zm0 1.7c-.6363087 0-1.1528382.0694831-1.5471489.19641614-.3540011.11395692-.57800066.45401065-.55308866.81577661.13113076.67155697.21812086 1.09439193.26097026 1.26850488.0642741.26116944.0994771.36514282.2742088.39373784.1747318.02859501 1.037926.17207439 1.5650052.17556453s1.1146091-.11256104 1.4537201-.15557556c.339111-.04301453.339111-.22558594.3855666-.41372681.0309703-.12542724.1129297-.51194802.2458782-1.15956234.0834619-.40047125-.1486428-.7993924-.538038-.92473856-.3942913-.1269204-.910796-.19639673-1.5470736-.19639673z" fill="var(--db-icon-color, currentColor)" fill-rule="evenodd"/></svg>
