<svg id="icon" height="32" viewBox="0 0 32 32" width="32" xmlns="http://www.w3.org/2000/svg"><path d="m22.4384472 6c1.3167506 0 2.4718749.8571943 2.8620236 2.10050212l1.4798292 5.89839788 2.2369.001c.5125714 0 .9070153.3561071.9607493.8497423l.0062507 1.1162577c0 .5125714-.3578316.9647857-.8509125 1.0267726l-1.1542228.0062058c.0238746.2349095.0016463.818985-.0666849 1.7522265l-.3435267 3.5730879c-.0604104.598429-.2500281 1.139097-.5688531 1.622004v2.7718606c0 .557373 0 2.2084823-2.0829004 2.2787998l-1.635157.0031428c-2.1621756 0-2.2638698-1.6406545-2.2787998-2.0829004l-.0046853-1.6086167c-.4642707.0294248-2.50015.1893131-4.9991575.1897949-2.499.0004818-4.2896052-.1431234-4.9980676-.1878675l-.0012324 1.4076471c0 .557373 0 2.2084823-2.08290042 2.2787998l-1.63515698.0031428c-2.13784507 0-2.26386984-1.6406545-2.27879981-2.0829004l-.00314279-2.9170996c-.29621999-.4062954-.49075958-.9052933-.57328517-1.4793945l-.36435406-3.7395767c-.07813859-.8540192-.10325806-1.4481633-.07535841-1.7824322l-1.01970236.0013034c-.553 0-.967-.482-.967-1.034v-1c0-.553.414-.966.967-.966h2.251l1.43282531-5.72750688c.31935894-1.27743574 1.46549582-2.27239312 2.9104275-2.27239312zm-15.4381472 19.0039-.0003 1.9961h2l-.0007-1.8301zm17.999-.002-2 .166.0077 1.8321h1.993zm-17.4288-9.002c-.98614033 0-1.33255055.1916522-1.47356174.5784748-.10396299.3084763-.13417574.782318-.09063826 1.4215252h1.9937c.55228475 0 1 .4477153 1 1 0 .5128358-.37488534 1-1 1h-1.8117l.20555305 2.1317072c.05293791.5472051.2163898.786626.52789382.8608957 3.08050213.3366127 6.10400313.5052329 9.07050313.5058604 2.9665.0005771 5.979189-.1688654 9.0380671-.5083275.3036089-.078131.4648701-.2804856.5307089-.7180741l.222274-2.2720617h-1.7833c-.5522847 0-1-.4477153-1-1 0-.5128358.4085897-1 1.0227447-1h1.9405553c.0275414-.6881524-.0038755-1.1563392-.0942507-1.4045606-.1355628-.372332-.4478607-.5683382-1.2809366-.5928175zm12.4295 3c.5522847 0 1 .4477153 1 1 0 .5128358-.4102221 1-1 1h-8c-.5522847 0-1-.4477153-1-1 0-.5128358.4239837-1.0066277 1-.9999zm-10.43844719-10.9999c-.42062867 0-.79177798.26241654-.93643815.64904458l-1.34481466 5.35085542 17.438-.001-1.3097103-5.24143563c-.1020175-.40806975-.4466158-.7044921-.8567854-.75106201zm9.42284719-5.0001c.5522847 0 1 .44771525 1 1 0 .51283584-.4122316 1-1 1h-6c-.5522847 0-1-.44771525-1-1 0-.51283584.4403479-1 1-1z" fill="var(--db-icon-color, currentColor)" fill-rule="evenodd"/></svg>
