<svg id="icon" height="20" viewBox="0 0 20 20" width="20" xmlns="http://www.w3.org/2000/svg"><path d="m2 15.77c0-.508.371-1.035.957-1.035.117 0 .215.02.352.059.43.136.899.214 1.367.214.665 0 1.446-.136 1.446-.8 0-.371-.176-.527-1.133-.937-.899-.371-2.266-.957-2.266-2.617 0-1.601 1.328-2.675 3.282-2.675.605 0 1.23.117 1.797.313.47.175.664.546.664.917 0 .508-.37 1.035-.957 1.035-.117 0-.234-.02-.351-.059a3.328 3.328 0 0 0 -1.153-.195c-.313 0-1.27.04-1.27.664 0 .274.117.39 1.035.781.938.41 2.364 1.016 2.364 2.792 0 1.68-1.367 2.773-3.458 2.773a6.583 6.583 0 0 1 -2.031-.312c-.45-.176-.645-.548-.645-.918zm.527-11.774a1 1 0 0 1 .997-.996c6.856 0 14.476 5.955 14.476 9.978 0 3.788-4.357 4.002-6.818 4.022h-.43c-.566 0-1.016-.45-1.016-.996 0-.547.45-.996 1.016-.996 4.826 0 5.236-1.015 5.236-2.03 0-2.5-6.252-7.967-12.464-7.967-.547 0-.997-.449-.997-1.015z" fill="var(--db-icon-color, currentColor)" fill-rule="evenodd"/></svg>
