<svg id="icon" height="32" viewBox="0 0 32 32" width="32" xmlns="http://www.w3.org/2000/svg"><path d="m7 21c1.65685425 0 3 1.3431458 3 3s-1.34314575 3-3 3-3-1.3431458-3-3 1.34314575-3 3-3zm13 0c1.6568542 0 3 1.3431458 3 3s-1.3431458 3-3 3-3-1.3431458-3-3 1.3431458-3 3-3zm-13 2c-.55228475 0-1 .4477153-1 1s.44771525 1 1 1 1-.4477153 1-1-.44771525-1-1-1zm13 0c-.5522847 0-1 .4477153-1 1s.4477153 1 1 1 1-.4477153 1-1-.4477153-1-1-1zm-4.4452998-.8320503c.4595287.3063525.5837026.9272218.2773501 1.3867505-.2844701.4267052-.8401309.5642524-1.285984.336442-.3117431-.2135679-.6483571-.3257153-1.0098419-.336442-.3614849-.0107267-.6886596.0817233-.9815242.2773501-.4595287.3063525-1.080398.1821786-1.3867505-.2773501s-.1821786-1.080398.2773501-1.3867505c1.2442263-.8294842 2.8651741-.8294842 4.1094004 0zm9.4452998-18.1679497c1.3557065 0 2.5159132.95050893 2.7949399 2.26102741 1.3972441 9.30903149 2.1285763 14.17257549 2.1939965 14.59063209.0981303.627085-.4099416 1.0375312-.7464008 1.118483-.2243061.0539679-1.5576394.3873012-4 1-.5357949.1339487-1.0787294-.191812-1.2126781-.7276069-.124381-.4975238.1620523-1.0640688.7276069-1.2126781l3.1185356-.7808575-2.0275916-13.51836138c-.0577444-.38496252-.3960311-.73063862-.8484084-.73063862-.5522847 0-1.0000265-.44771525-1.0000265-1s.4477418-1 1.0000265-1zm-1 8c.5522847 0 1 .4477153 1 1 0 .5128358-.4256236 1-1.0046789 1v2.9969537c-.083863 1.5986058-1.2854037 2.9065595-2.82312 2.9979458h-15.3444022c-1.53771627-.0913863-2.73925703-1.39934-2.82311999-2.9979458l-.00467891-2.9969537c-.55228475 0-1-.4477153-1-1 0-.5128358.43286133-1 1-1zm-2 2h-17l.00612126 2.950175c.05253188.5617948.54181376.9854627.99387874 1.0431203h15.1054135c.452065-.0576576.8359334-.4813255.8884652-1.0431203z" fill="var(--db-icon-color, currentColor)" fill-rule="evenodd"/></svg>
