<svg id="icon" height="20" viewBox="0 0 20 20" width="20" xmlns="http://www.w3.org/2000/svg"><path d="m6.289949 15.9960512 2.462051-4.8900512.2240512-2.694-.8000512.3519488-.192 1.3760512c-.064.512-.512.8640512-.9920512.8640512-.5439488 0-.9919488-.4800512-.9919488-.9920512 0-.064 0-.128 0-.1599488l.32-1.92c.0319488-.3520512.256-.64.5439488-.768l1.9520512-.896c.32-.128.8639488-.4481024 1.2479488-.4481024.3520512 0 .768.3201024.9920512.4481024l2.624 1.664c.256.1918976.448.512.448.8639488 0 .576-.4800512.9919488-.9920512.9919488-.2239488 0-.4159488-.0638976-.5758976-.1599488l-1.6001024-1.0559488-.1783808 2.5603678 1.784483 1.5995298c.1918976.128.3389256.3160096.415949.5440512l1.0499488 2.944c0 .0959488.0320512.192.0320512.2880512 0 .512-.448.9919488-.9919488.9919488-.4800512 0-.8640512-.2880512-.9920512-.7359488l-.954-2.5920512-1.173872-1.187267-1.966128 4.003267c-.192.32-.479949.512-.863949.512-.5761024 0-.992051-.4799488-.992051-.9919488 0-.1921024.031949-.3520512.159949-.512zm2.462051-12.49610226c0-.82968511.70212766-1.49994894 1.5000511-1.49994894.861651 0 1.4999489.67026383 1.4999489 1.49994894 0 .7979234-.6382979 1.50005106-1.4999489 1.50005106-.79792344 0-1.5000511-.70212766-1.5000511-1.50005106z" fill="var(--db-icon-color, currentColor)" fill-rule="evenodd"/></svg>
