<svg id="icon" height="24" viewBox="0 0 24 24" width="24" xmlns="http://www.w3.org/2000/svg"><path d="m14.75 4c.5522847 0 1 .44771525 1 1 0 .51283584-.401809.9994542-1 1-2.4188925.00220704-4.83786352.00220704-7.25691303 0-.14279986 0-.31270281.13208713-.35788552.29218364l-.87620145 3.70781636h6.741c0-1.00093102 1-2 2-2-.0061491-.53719177.5-1 .9929557-1h3.0070443c.4457594 0 1 .5 1 1 1 0 2 1 2 2v10c0 1-1 2-2 2h-5c-1 0-2-1-2-2v-1.024c-.1718463.016-.5051796.024-1 .024-.9358624 0-2.51919571-.0953333-4.75-.286v.286c0 .5522847-.44771525 1-1 1h-1c-.55228475 0-1-.4477153-1-1l.00011242-1.7569867c-.18883209-.3048903-.32470597-.6465327-.39480427-1.012398l-.03406337-.2223256-.371738-3.2217294c-.03108446-.2693986-.01811876-.533728.03318502-.7857861l-.83445986-.0007742c-.37003519 0-.64823194-.3213333-.64823194-.6893333v-.6666667c0-.3686667.27819675-.644.64823194-.644h1.55776806l.95504626-4.09103305c.24611152-1.05476366 1.09795374-1.90896695 2.33204071-1.90896695 2.41892854-.00193208 4.83789953-.00193208 7.25691303 0zm4.75 6c-1.1705547 0-2.5038881 0-4 0-.2454599 0-.4997966.2705356-.5.5-.0026583 2.9995272-.0026583 5.9995272 0 9 0 .2454599.1967449.4994027.5.5 1.3333039.0026262 2.6666372.0026262 4 0 .2973025 0 .5-.2543959.5-.5 0-1.0013099 0-4.0013099 0-9 0-.2454599-.2150086-.5-.5-.5zm-2.1957453 2.3896942c.1965152-.3646294.6514129-.5009129 1.0160423-.3043976.3342437.180139.4766133.577391.3466536.9232062l-.6689506 1.2544972.2448534.0004406c.5339808.0011954.9308335.5740549.6556247 1.1111794-.2947701.534065-.7037075 1.2788839-1.2268123 2.2344568-.199475.3630187-.6554662.4955972-1.018485.2961223-.3327672-.182852-.5062333-.6340538-.2961223-1.018485.1654152-.2990334.3710624-.6746048.6169415-1.1267141l-.2316836.0000853c-.5314586-.0011897-.9274043-.5643622-.658541-1.1058205.4056191-.7572941.8124455-1.512151 1.2204793-2.2645706zm-4.3042547-.3896942-7.09567425.0008246-.02860869.0024709c-.24384205.0281357-.42637081.2272454-.44169175.4638099l.00229934.0902067.05867535.5106879 1.16939899.1956061c.54477032.090795.91278999.6060226.82199493 1.1507929-.08430969.5058581-.53458412.8593139-1.03465251.8345311l-.1161404-.0125362-.60160101-.1003939.07406266.6430415c.04970601.4307854.36988686.7756188.78574025.8636274l.11565527.0175064.42593205.0388355 1.19226219.1023528 1.06355029.0811376.93430999.0599428.8045413.0387682.4640062.0140919.4059398.0046959.4059395-.0046959.4640057-.0140919.1300548-.0062122v-.9667103l-3.14496634.0001593-.11697424-.0068504c-.26987339-.0317458-.51555303-.1722613-.67974706-.3887786-.15541358-.2509507-.29549578-.4861642-.42024658-.7056405-.28079098-.4927805-.11085777-1.0253028.25780545-1.3040262.36866322-.2787235 1.08650248-.3092026 1.40113487.1928773l.1346003.2160873 2.5683936-.0035591z" fill="var(--db-icon-color, currentColor)" fill-rule="evenodd"/></svg>
