<svg id="icon" height="24" viewBox="0 0 24 24" width="24" xmlns="http://www.w3.org/2000/svg"><path d="m19.3975829 8c1.4457906 0 2.6024171 1.15520534 2.6024171 2.5751766v4.4248234c0 .5-.5 1-1 1l-1-.0012381c0 .55-.4457813 1-1 1h-3c-.55 0-1-.45-1-1h-6c0 .55-.45 1-1.00023598 1h-3.01181293c-.55421668 0-.98795109-.45725-.98795109-1.0108423l-1 .0120804c-.5 0-1-.5-1-1v-4.4248234c0-1.41997126 1.15662646-2.5751766 2.60240904-2.5751766zm.010758 1.99406006c-.418122.00593994-13.9083409.00593994-14.80683712 0-.37408372 0-.60150378.31456744-.60150378.66163304v2.3443069h16c0-1.3535094 0-2.1619992 0-2.4254694 0-.2925087-.2241848-.58047054-.5916591-.58047054z" fill="var(--db-icon-color, currentColor)" fill-rule="evenodd"/></svg>
