<svg id="icon" height="32" viewBox="0 0 32 32" width="32" xmlns="http://www.w3.org/2000/svg"><path d="m17.486318 2c3.0852911 0 4.8717064 1.07440764 6.2521519 2.9 1.2800749 1.69285558 2.0278902 3.71958788 2.1545995 5.8264474l.0982423 3.6389717c.0574076 2.2771283-.1698685 4.5517349-.676052 6.7719247l-.7528291 3.0038713c-.2304286.7530569-.4179056 1.2819697-.5624308 1.5867383-.2167879.457153-.8782398 1.4221352-1.1200988 1.7095375s-.9298666.9914545-1.9110912 1.3180087c.0206494.0774781.0311902.1597583.0311902.2445004 0 .5128358-.4075931 1-1 1h-8c-.5522848 0-1-.4477153-1-1 0-.0905864.0120449-.1783595.0346204-.2618053-.79961-.2840126-1.50804032-.7965129-2.02947205-1.4845081s-.72382315-1.0033272-.99724385-1.5257332c-.18228046-.3482706-.38835624-.9367221-.61822734-1.7653546l-.5588738-2.1988122c-.55706845-2.1974011-.83592672-4.4542637-.83080336-6.7184604l.0921328-3.9461983c.05625513-2.23986582.81481639-4.40667938 2.17019975-6.1991279 1.33114389-1.76039263 3.19682025-2.9 6.31684665-2.9zm-8.13936741 21.541601c.08690556.4236212.22170634.811183.40440235 1.1626855.182696.3515025.43960726.7627295.77073376 1.233681.4120901.6114335 1.2328887 1.0620325 1.8532422 1.0550005l7.1500376.007032c.735228 0 1.4966047-.3230266 1.9646882-1.0457432s.7113131-1.0924663.8950923-1.5422592c.1225194-.2998619.2106385-.5899941.2643574-.8703966-1.3581828.8565383-2.1608645 1.3487146-2.4080451 1.4765289-.370771.1917214-.7718933.3095622-1.3363847.3809716-1.022446.0663284-1.9909368.1009734-2.9054726.103935-.9145357.0029616-1.8301253-.0255822-2.7467689-.0856313-.7034978-.0747054-1.1620432-.2107749-1.5949168-.4534888-.4328736-.2427138-1.6129441-1.0105463-2.31096571-1.4223154zm5.23222861-19.541601c-2.2884263 0-3.6184416.64742225-4.72157826 2.10628303-1.03435505 1.36789948-1.64132372 3.00252257-1.75084728 4.70229617l-.09884916 3.6693112c-.05225161 2.0804609.1366258 4.2320516.66202617 6.3801096.77534023.4296785 1.44680353.8135902 2.01438973 1.1517351.8513794.5072174 1.1664224.7253774 1.7586783 1.077411s1.7229635.4144277 3.5746432.4144277c1.8516796 0 2.8184928.0451293 3.5756719-.4144277.757179-.459557 1.110617-.7036287 1.7391883-1.077411.6591774-.3919823 1.3374896-.786256 1.9889721-1.1399572.4532888-1.7375425.6794697-3.6795779.6785428-5.8261063l-.0904175-3.8942403c-.0459196-1.82144626-.6630568-3.58401696-1.766398-5.04314827-1.0681838-1.41263683-2.2304275-2.10269554-4.6568835-2.10269554zm-1.9850249 13.5408104.9406322 2.8955148c.1694751.5256393-.119253 1.0891408-.6448923 1.2586159-.4880936.1573697-1.0088338-.080344-1.2164262-.5359622l-.9406322-2.8955148c-.169475-.5256392.1192531-1.0891408.6448924-1.2586158.4880936-.1573698 1.0088337.0803439 1.2164261.5359621zm6.699624.0262771c.2075925-.4556182.7283326-.6933319 1.2164262-.5359622s.7719118.6544867.6742757 1.1455568l-.9615434 2.9822968c-.2075924.4556182-.7283326.6933319-1.2164262.5359622s-.7719118-.6544867-.6742757-1.1455568zm-3.2936983-11.5670875c2.1049797 0 3.6906972.43270895 4.7571524 1.29812686 1.0664551.86541791 1.2514783 1.75654113 1.1427484 2.71322224-.0837939.7372769-.149806 1.3126828-.4138978 2.4298006-.2640917 1.1171178-1.2306143 1.9980066-2.389324 2.199428-1.0320691.2396149-2.0643221.3594223-3.096759.3594223-1.5486554 0-1.868083-.1169212-3.0973075-.3595193s-2.1319484-1.0994082-2.4067621-2.27005c-.2012902-.9301481-.3385207-1.7079868-.4116914-2.333516-.10975606-.93829382.2288605-1.87347722.9138996-2.52398706 1.0621562-1.00861843 2.72947-1.51292764 5.0019414-1.51292764zm0 2c-1.8046357 0-2.9870205.35763366-3.6247511.96321963-.195726.18586044-.3066136.44143704-.3128509.69462927-.0041582.16879482.122682.9206276.3805207 2.2554984.0824448.3511956.3464496.6275475.6811167.7284621 1.2407027.2354215 2.1962861.3548183 2.86675.3581906.670464.0033723 1.5915858-.1065853 2.7633654-.3298726.343321-.0596804.6274973-.2927873.7515439-.5934696s.3297478-1.6114482.4069993-2.29116106c.0317128-.27903058.0199082-.55721908-.415782-.93437466-.5919174-.51239363-1.8122164-.85112208-3.496912-.85112208z" fill="var(--db-icon-color, currentColor)" fill-rule="evenodd"/></svg>
