<svg id="icon" height="24" viewBox="0 0 24 24" width="24" xmlns="http://www.w3.org/2000/svg"><path d="m16.506913 5c1.0623181 0 1.9770926.7208172 2.2880299 1.74482312l.9980571 4.25517688h1.5587681c.3363956 0 .5968917.2275482.6414745.5459053l.0067574.7647614c0 .3345454-.2299147.6305234-.5497303.6815727l-.9331914.0083346c.0327182.1613771.0498926.3283959.0498926.499426 0 .1140201-.1294072 1.2834667-.3882215 3.5083399-.0970549.8409532-.537684 1.572719-1.1773987 2.0540537l-.0013507 1.9376064c0 .5522847-.4477153 1-1 1h-1c-.5522847 0-1-.4477153-1-1v-1.22c-1.3333333.1466667-2.6666667.22-4 .22s-2.66666667-.0733333-4-.22v1.22c0 .5522847-.44771525 1-1 1h-1c-.55228475 0-1-.4477153-1-1l-.00036962-1.9368622c-.5869083-.4412228-1.00641046-1.0931639-1.14703232-1.8468551l-.40309128-3.4297224c-.03108446-.2693986-.01811876-.533728.03318502-.7857861l-.83445986-.0007742c-.37003519 0-.64823194-.3213333-.64823194-.6893333v-.6666667c0-.3686667.27819675-.644.64823194-.644h1.55776806l.95504626-4.09103305c.24611152-1.05476366 1.17040516-1.90896695 2.33204071-1.90896695zm-10.506913 7.9922394c-.41734746.0085348-.59050622.3061105-.56597469.474866l.05297469.5328946h.513c.55228475 0 1 .4477153 1 1 0 .5128358-.40619709 1-1 1h-.282l.09006266.7790415c.04970601.4307854.36988686.7756188.78574025.8636274.4874228.0793478 3.48277589.3541831 5.40619709.3573311s4.847065-.2839938 5.290536-.3398242c.4317957-.0398999.783819-.3521577.8812654-.7658869l.1091986-.8942889h-.281c-.5522847 0-1-.4477153-1-1 0-.5128358.4159546-1 1-1h.512l.0549709-.5c.0198669-.2050171-.1273194-.5077606-.5669709-.5zm8 1.0077606c.5522847 0 1 .4477153 1 1 0 .5128358-.4201018 1-1 .9932723l-4 .0067277c-.55228475 0-1-.4477153-1-1 0-.5128358.42801217-.9932723 1-.9932723zm-6.50691303-7c-.14279986 0-.2845759.10153668-.35526313.27237885l-.87882384 3.72762115h11.481l-.8487287-3.63657382c-.0450447-.19304869-.1583374-.36342618-.3843583-.36342618zm6.50691303-5c.5522847 0 1 .44771525 1 1 0 .51283584-.424984 1-1 1h-4c-.55228475 0-1-.44771525-1-1 0-.51283584.39120271-1 1-1z" fill="var(--db-icon-color, currentColor)" fill-rule="evenodd"/></svg>
