<svg id="icon" height="20" viewBox="0 0 20 20" width="20" xmlns="http://www.w3.org/2000/svg"><path d="m13 2.5v1.506l.7054749.00072795c.8131614.06687297 1.4933796.6261451 1.7844197 1.40337492.140288.47001748.4113231 1.66664985.8131054 3.58989713h1.697v2.003364l-1.105-.003364c-.1542335 1.4460393-.254247 2.322369-.3000404 2.628989-.0750179.3898781-.2919596.8742644-.5949596 1.1959716v2.6750394h-2.5v-1.759c-1.1666667.1726667-2.3333333.259-3.5.259-1.16666667 0-2.33333333-.0863333-3.5-.259v1.759h-2.5v-2.6750394c-.23973083-.2122744-.46293676-.6879798-.54999435-1.0035683-.06948415-.2436703-.18481937-1.1841344-.34600565-2.8213923l-1.104.003364v-2.003364h1.696l.76116229-3.43162637c.23801091-.80507112.88228221-1.41048063 1.67657904-1.54178708.19614795-.02474341.48490084-.03160559.86625867-.02058655v-1.506zm2 8.65h-1.75v1.7h1.75zm-8.25 0h-1.75v1.7h1.75zm5.25 0h-4v1.7h4zm1.913742-5.45h-7.827484l-.643258 3.3h9.113z" fill="var(--db-icon-color, currentColor)" fill-rule="evenodd"/></svg>
