<svg id="icon" height="32" viewBox="0 0 32 32" width="32" xmlns="http://www.w3.org/2000/svg"><path d="m16 4.99991485c2.0891561.00026017 4.1783065.08466379 6.2674513.25321087 1.2687326.10054963 2.3967102.89864567 2.7776372 2.08009449l1.4869115 5.70077979h2.5009c.5125714 0 .9070153.3561071.9607493.8497423l.0062507 1.0822577c0 .5125714-.3578316.9647857-.8509125 1.0267726l-1.1540754.0070364c0 .5898223-.039865 1.3587671-.119595 2.3068343-.0797301.9480673-.1767051 1.8706174-.290925 2.7676503-.0637422.6588809-.2781768 1.2203344-.6215499 1.6597507.0097376.0318634.0221236.1205153.0371578.2659557v2.0385431c0 .4972092 0 1.9083192-2.0958256 1.9593491l-1.6222318.0020227c-2.1249605 0-2.2581512-1.3808113-2.2777936-1.7822712l-.0031599-.8586803c-.8122384.0656164-2.4947415.1328624-4.9968213.1401614-2.5020797.007299-4.8856191-.1030891-5.0047563-.1109849l.0005885.6504032c0 .4972092-.0005885 1.9593491-2.09582565 1.9593491l-1.62223175.0020227c-2.25815118 0-2.25815118-1.3808113-2.27779359-1.7822712l-.00414901-2.2176437c0-.0525985.01559437-.1510331.0467831-.2953035-.30238649-.3791709-.50835379-.8442709-.59675317-1.3850925-.10099584-.9662232-.20085843-1.8925201-.29958777-2.7788908-.148094-1.329556-.15750369-2.3835017-.148094-2.5416031l-1.03534816.0008899c-.552 0-.967-.482-.967-1.034v-1c0-.553.415-.966.967-.966h2.509l1.4251255-5.47760663c.32211711-1.28846845 1.43420954-2.11886552 2.84869943-2.27048637 2.07762727-.16799477 4.16101897-.25199215 6.25017507-.25199215zm-9.00009312 18.81347045.00009312 1.1866147h2l-.00080156-.8082971c-.41519609-.038106-1.08162661-.1642118-1.99929156-.3783176zm17.99879842-.0242951c-.7028216.1393818-1.3582873.2531383-1.9984495.3454537l-.0002558.8654561h2zm-8.9987053-8.9875002c-2.8047572-.0003947-5.6094664.065742-8.41412749.19841-.99165609.0390055-1.33653599.2008898-1.4747487.5548802-.0769571.1971026-.11133171.5951425-.10312381 1.1941198l2.11603473.2587221c.54801994.0685025.93674564.5682927.86824315 1.1163126-.06360946.5088757-.49909453.8804007-.99975758.8760325l-1.8045203-.2190672.22120643 2.1007064c.0451574.4667759.21576612.7236287.7546725.9057178 1.33629188.3762319 4.38741407.716006 8.83562107.7117051s6.444615-.2280439 8.8931422-.7288468c.404249-.0826819.6109001-.2896339.6849816-.7619891l.2373762-2.2272934-1.6909653.2112779c-.5480199.0685025-1.0478101-.3202232-1.1163126-.8682432-.0636094-.5088756.2670238-.9761654.7533571-1.0951717l2.2404224-.279863c.0007341-.3826635-.0371371-.9356405-.116688-1.1540109-.1355073-.3719723-.4475039-.5442824-1.2811393-.5923681-2.9310256-.1335514-5.7989171-.2005618-8.6036743-.201031zm3.75 2.69841c.4481026 0 .836.2969651.959439.7178668l.2769549 1.6177342c.0907951.5447703-.2772246 1.0599979-.8219949 1.1507929-.5058582.0843097-.9862432-.2269912-1.1249843-.7080666l-.1374147-.7783273h-5.805l-.1106061.664399c-.094439.566634-.6449347.9063046-1.1507929.8219949-.5058581-.0843097-.8593139-.5345841-.8345311-1.0346525l.2625362-1.6161404c.0736676-.4420056.4303621-.7758046.8658303-.8283682zm-3.75-10.4991946c-2.0269366-.00061984-4.0539816.08052016-6.081135.24341999-.53439962.05768058-.90272496.3016761-1.04420294.6611301l-1.33266206 5.09464451c2.8191667-.1321714 5.6383333-.1982571 8.4575-.1982571s5.6383333.0660857 8.4575.1982571l-1.2984105-4.99253537c-.1004558-.40182317-.5276325-.71925929-1.0306283-.75929557-2.0583709-.16421951-4.1010246-.24667406-6.1279612-.24736366z" fill="var(--db-icon-color, currentColor)" fill-rule="evenodd"/></svg>
