<svg id="icon" height="20" viewBox="0 0 20 20" width="20" xmlns="http://www.w3.org/2000/svg"><path d="m15.2684893 15.5944624c-.7523975 1.287292-2.1610061 2.1721754-3.7850631 2.2499597l-2.7334262.0055779c-1.7201206 0-3.22724703-.9051342-4.01612306-2.2514784.56120958.2420656 2.38939152.8600063 3.10903786.9037295.71964635.0437232 1.07928509.0437194 2.1570852.0437232 1.0778001.0000038 1.3919428.0000038 2.155597-.0437078.7636542-.0437117 2.2045763-.5820878 3.1128923-.9078041zm-3.8184893-13.4444624c2.3486609 0 4.2831392 1.76559293 4.3949004 4.00513552.0033997 4.98164908.0038839 7.47247368.0014526 7.47247368-.480276.4052619-2.7425682 1.2214848-3.4383157 1.321541s-.9080373.1000562-2.4080373.1000562-1.76893762 0-2.40939464-.1000483c-.64045703-.1000483-2.54871217-.723356-3.43660536-1.3221581-.00266667.0004061-.004-2.4219272-.004-7.267 0-2.26708072 1.86540005-4.0993525 4.18766556-4.20517205zm-4.42980287 9.7675653c-.42225247-.0105661-.79616468.2947376-.86071383.7232341-.06454914.4284965.20282797.8304047.60945432.9447017l1.21086525.1824059c.42225247.0105661.79616468-.2947376.86071383-.7232341.06454914-.4284965-.20282797-.8304047-.60945432-.9447016zm4.74874047.182406c-.4066263.1142969-.6740034.5162051-.6094543.9447016s.4384614.7338002.8607138.7232341l1.2108653-.1824059c.4066263-.114297.6740034-.5162052.6094543-.9447017s-.4384614-.7338002-.8607138-.7232341zm-3.37513368-8.57286214c-1.08730237.10395205-1.89011845 1.06100282-1.80334495 2.1498108l.28999856 3.63881539c.068879.86427305.75525972 1.55055745 1.61954247 1.61931515.99842275.0794291 2.0015772.0794291 3 0 .8642827-.0687577 1.5506635-.7550421 1.6195425-1.61931515l.2899983-3.6388126c.0867773-1.08881814-.7160485-2.04587718-1.8033627-2.14981531-.1890503-.01807163-3.0233187-.01807105-3.21237418.00000172z" fill="var(--db-icon-color, currentColor)" fill-rule="evenodd"/></svg>
