<svg id="icon" height="32" viewBox="0 0 32 32" width="32" xmlns="http://www.w3.org/2000/svg"><path d="m16.0003539 2c7.7317237 0 13.9996461 6.26815817 13.9996461 14.0003539 0 7.7316058-6.2680403 13.9996461-13.9996461 13.9996461-7.628172 0-13.83068944-6.099434-13.99693203-13.6870023l-.00342187-.3126438.00342181-.3126674c.1662395-7.58813777 6.36864382-13.6876865 13.99693209-13.6876865zm0 2c-6.52622674 0-11.83475954 5.20832518-11.99655434 11.6953529l-.00379956.305001.00379963.3049733c.16179779 6.4864455 5.470427 11.6946728 11.99655427 11.6946728 6.6270363 0 11.9996461-5.3726098 11.9996461-11.9996461 0-6.62764307-5.3725088-12.0003539-11.9996461-12.0003539zm-.55153 4c2.2209155 0 4.2105531.75409951 5.791672 2.0234258v2.6662004c-1.3682136-1.5266599-3.4286396-2.86871085-5.8451685-2.86871085-1.3676732 0-2.1495868.75409955-2.1495868 1.63686585 0 1.1762759.89609 1.7182013 2.1207464 2.1034202.794696.2457346 1.3536101.3512939 2.5706116.6626954 2.1571526.5766455 4.2447196 1.4910036 4.2447196 4.4414646 0 2.4653683-2.3095359 5.3346386-6.1996504 5.3346386-2.1674189 0-4.6725683-1.0119926-6.03970118-2.2807594v-3.2004476c1.29634458 1.9311213 3.65883658 3.4203 6.03970118 3.4203 1.4568341 0 2.6288939-.8631866 2.6288939-1.7834341 0-1.1780079-1.0103855-1.7094594-2.3461494-2.1308654-.8984253-.2705932-1.2492769-.3679515-2.1620538-.6166386-2.1603412-.6459576-4.28467668-1.6245513-4.28467668-4.5714009 0-3.1450649 2.96608388-4.836754 5.63064208-4.836754z" fill="var(--db-icon-color, currentColor)" fill-rule="evenodd"/></svg>
