<svg id="icon" height="24" viewBox="0 0 24 24" width="24" xmlns="http://www.w3.org/2000/svg"><path d="m16.4361148 2c.9637813 0 1.477249.09915518 2.0123298.38531951.5001944.26750689.898729.66604153 1.1662359 1.16623593.2623173.4904907.367495.96282039.3832029 1.78049286l.0019871.80180882c.1471159-.08513139.3179325-.13385712.5001295-.13385712.5128358 0 1 .43296882 1 1v3c0 .5522847-.4477153 1-1 1-.182197 0-.3530136-.0487257-.5001295-.1338571l.0001295 6.5699719c0 .9637813-.0991552 1.477249-.3853195 2.0123298-.1597122.2986358-.36613.5610343-.6130034.7809456l-.0016771.7706098c0 .5522847-.4477153 1-1 1h-1c-.5522847 0-1-.4477153-1-1h-8c0 .5522847-.44771525 1-1 1h-1c-.55228475 0-1-.4477153-1-1l-.00065672-.7697013c-.24732505-.220097-.45409161-.482807-.61402377-.7818541-.2623173-.4904907-.36749497-.9628204-.38320294-1.7804929l-.00100227-6.8023794c-.14733823.0854842-.31851058.1344277-.5011143.1344277-.51283584 0-1-.4255676-1-1v-3c0-.55228475.44771525-1 1-1 .18260372 0 .35377607.0489435.5011143.13442774l-.0011143-.57054254c0-.96378133.09915518-1.47724899.38531951-2.01232976.26750689-.5001944.66604153-.89872904 1.16623593-1.16623593.4904907-.2623173 1.00552081-.38531951 1.84288811-.38320294zm-4.4361148 13.15c-1.7592622 0-3.75820796-.1473383-5.99871179-.4411715-.00085881 1.6601272-.00095848 2.6257032-.00029903 2.896728.00098917.4065371 0 .7634926.29872569 1.0759821s.70028513.3174722 1.09472868.3174722h9.21111295c.4900338 0 .8701408-.0239216 1.1312005-.3174722s.2634479-.7218597.2622538-1.0759821c-.000796-.2360817-.0008957-1.2016577-.000299-2.896728-2.2405038.2938332-4.2394496.4411715-5.9987118.4411715zm-4 .85c.55228475 0 1 .4477153 1 1s-.44771525 1-1 1-1-.4477153-1-1 .44771525-1 1-1zm8 0c.5522847 0 1 .4477153 1 1s-.4477153 1-1 1-1-.4477153-1-1 .4477153-1 1-1zm.6055565-11.99901082c-.3944436-.00447347-8.72499571.00290713-9.21111295 0-.48611725-.00290714-.79048542.03442647-1.06621174.26484944-.27572632.23042298-.32598206.58165058-.32724263 1.12860493-.00084039.36463623-.00044235 2.79692017.0011941 7.29685185 2.26481609.3061181 4.26478842.4587046 5.99781672.4587046s3.7330006-.1525865 5.9978167-.4587046c.0015922-4.54920707.0019902-6.98149101.0011941-7.29685185-.0011941-.47304126.0009892-.75940327-.2622538-1.07419209-.263243-.31478881-.736757-.31478881-1.1312005-.31926228zm-1.6055565.99901082c.5522847 0 1 .44771525 1 1 0 .51283584-.3833676 1-1 1h-6c-.55228475 0-1-.44771525-1-1 0-.51283584.42415288-1 1-.99787083z" fill="var(--db-icon-color, currentColor)" fill-rule="evenodd"/></svg>
