<svg id="icon" height="24" viewBox="0 0 24 24" width="24" xmlns="http://www.w3.org/2000/svg"><path d="m14.72 7.091c2.966-.954 6.749.103 7.46 2.479.457 1.518-.572 3.32-2.275 3.845-1.14.359-2.28.717-3.422 1.073l-2.826 5.166c-.194.324-.685.72-1.065.808a8.634 8.634 0 0 1 -.492.122c-1.005.2-2.03-.567-2.041-1.695l-.021-2.368-1.835.562c-1.864.504-3.8-.49-4.44-2.286l-1.693-4.757a1.666 1.666 0 0 1 .837-1.962l.608-.25a2.113 2.113 0 0 1 2.135.3c.54.428 1.08.856 1.617 1.285l7.453-2.323zm3.047 1.693c-.683-.087-1.704-.047-2.443.214-1.55.48-4.206 1.308-7.967 2.483a.998.998 0 0 1 -.919-.172c-.68-.537-1.358-1.075-2.034-1.615-.031-.024-.058-.033-.094-.026l-.221.085 1.56 4.376c.27.771 1.122 1.303 2.15.988l2.934-.902c.602-.185 1.321.273 1.294.948.011 1.085.02 2.17.027 3.255l2.869-5.244c.103-.189.315-.392.578-.474l3.81-1.195c.669-.205 1.208-.954.872-1.539l-1.429.523a1 1 0 0 1 -1.283-.594.983.983 0 0 1 .296-1.11zm-8.102 3.583a1 1 0 1 1 -1.905.613 1 1 0 0 1 1.905-.613zm3.109-1.001a1 1 0 1 1 -1.902.615 1 1 0 0 1 1.902-.615zm3.11-1.001a1 1 0 1 1 -1.905.612 1 1 0 0 1 1.904-.612zm-5.505-6.83 1.957 1.956a1 1 0 0 1 0 1.414c-.36.36-.964.419-1.414 0-.63-.625-1.257-1.252-1.883-1.881l-.093.025.755 1.56a1.006 1.006 0 0 1 -.465 1.336 1.01 1.01 0 0 1 -1.335-.464l-.895-1.85c-.483-1.28.227-1.944.755-2.248.139-.08.278-.145.416-.195a24.2 24.2 0 0 1 .44-.123 1.78 1.78 0 0 1 1.762.47z" fill="#282D37" style="fill: currentColor;fill: var(--db-icon-color, currentColor)" fill-rule="evenodd"/></svg>
