<svg id="icon" height="20" viewBox="0 0 20 20" width="20" xmlns="http://www.w3.org/2000/svg"><path d="m14.6470871 5.73543551c-.2271774.04738903-.4552064.09291053-.6840871.13656449l1.3051752 4.1780588c1.5104183.0097759 2.7318248 1.2372211 2.7318248 2.7499412 0 1.5187831-1.2312169 2.75-2.75 2.75s-2.75-1.2312169-2.75-2.75c0-.9953108.5287624-1.8671226 1.3207042-2.3498523l-.3277042-1.05229233-3.182285 3.35774093c-.0976196.1030065-.2160457.1840553-.34740694.2377595-.47469737.1940696-1.05117429 0-1.3040566-.5472078-.24083472-.58329-.47958521-1.1670542-.71625146-1.7512926l-.5702385.7141278c.2131818.3628565.3772385.8429172.3772385 1.3910168 0 1.5187831-1.23121694 2.75-2.75 2.75s-2.75-1.2312169-2.75-2.75 1.23121694-2.75 2.75-2.75c.46427641 0 .90168085.1150526 1.28525742.3182018l1.00874258-1.26234643-.841-2.056-.453.00014463c-.41421356 0-.75-.33578644-.75-.75 0-.37969577.31127405-.75.75-.75.66497426-.00217099 1.33009008-.00217099 1.99534745 0 .41421356 0 .75.33578644.75.75 0 .37969577-.31456895.74485537-.67434745.74485537.12237247.32131342.25570581.64798009.4.98l4.2-1.26-.3869394-1.24140352c-.1224799-.39242536.0721749-.84505372.5688523-.95888736.6400871-.1291258 1.0938302-.21876603 1.5-.3.2941742-.05850805.7510844.0730354.8654085.52118365.1588425.61522424-.3430562.90703811-.5712343.94968737zm-9.6470871 5.81456449c-.69035594 0-1.25.5596441-1.25 1.25s.55964406 1.25 1.25 1.25 1.25-.5596441 1.25-1.25-.55964406-1.25-1.25-1.25zm10.25 0c-.6903559 0-1.25.5596441-1.25 1.25s.5596441 1.25 1.25 1.25 1.25-.5596441 1.25-1.25-.5596441-1.25-1.25-1.25zm-2.907-3.12014463-3.301.99.712 1.74114463z" fill="var(--db-icon-color, currentColor)" fill-rule="evenodd"/></svg>
