<svg id="icon" height="32" viewBox="0 0 32 32" width="32" xmlns="http://www.w3.org/2000/svg"><path d="m29 10.9998587c.5176445-.0029643.9453564.3876791 1.0000841.8907127l.0059152.1094106.0004914 3.582229c0 .4817766-.4521168 1.0139926-.9954643 1.0139926-.3111188 0-.706155-.0003973-1.1851084-.0011918l-.0002383 1.410332c0 .4705858-.3837273 1-1 1-.3806095 0-.8490558 0-1.4053389 0l-.0003286.5792598c0 .1747214-.0012827.451957-.2865235.7006791-.3518015.3643515-.7056041.7167179-1.1266544 1.1470466.4906273 2.0040578.0166122 4.0833698-1.6033635 5.7837458-2.3648843 2.3648842-6.1828482 2.3877898-8.5279597.0426783-2.345063-2.345063-2.3221834-6.163098.0426783-8.5279597 1.4951542-1.4951543 3.8164462-2.1413178 5.8884306-1.5764604.8754348-.8948992 2.6970922-2.8100057 5.4649724-5.7453196.1245497-.1280788.3487045-.3780289.7284076-.409155zm-1.0185185 2.000778h-1.4588501l-5.7191253 5.9987845c-.2227095.2290199-.519972.3852284-1.0896938.2307594-1.4849094-.5965417-3.2137916-.2527911-4.3814094.9148267-1.587582 1.587582-1.6028734 4.1393373-.0426783 5.6995325 1.5602393 1.5602393 4.1119236 1.5449307 5.6995326-.0426783 1.1432959-1.1432959 1.4982056-2.825792.949038-4.2934528-.1210554-.3235227-.0558142-.7605015.2231052-1.0511282.2758815-.2820256.695629-.7096066 1.2592424-1.2827432l-.0006306-1.1721389c0-.4705858.3846038-.9966589 1-1 .4686628-.0025445.9373988-.0027193 1.4062079-.0005243l-.0005404-1.4056705c0-.4705858.4043702-.9959642 1-1 .3851962-.0026099.7704635-.0029065 1.1558018-.0008898zm-11.9814815-8.00072185c2.0891544.00026017 4.1783048.08466379 6.2674513.25321087 1.3321692.10557711 2.5091561.98019914 2.8293823 2.2612452l.3316542 1.28140214c.1383929.53466425-.1828486 1.08028484-.7175128 1.21867764-.5346643.1383929-1.0802849-.18284857-1.2186777-.71751283l-.3337078-1.28947324c-.1004558-.40182317-.5276325-.71925929-1.0306283-.75929557-2.0582782-.16421948-4.1009319-.24665659-6.1279612-.24731134s-4.0540743.08046781-6.081135.24336767c-.53439962.05768058-.91900007.27816798-1.07978015.7723592-.43435143 1.66083397-.86667538 3.32218461-1.29697183 4.98405211 4.60009608-.1199426 7.41939178-.1863006 8.45788698-.199074 1.0384952-.0127733 2.0770865.0061332 3.1157737.0567195.5520866.0147925.9876496.4743387.9728572 1.0264253-.0147924.5520867-.4743387.9876496-1.0264253.9728572s-1.3066385-.0575647-3.0622056-.0575647c-2.2632925.0280902-5.0680016.0947569-8.41412749.2-.9861539 0-1.35212999.185863-1.47358387.5784775-.10110309.3268281-.13453264.7430022-.10028864 1.2485225l1.14753143.1858072c.54521156.0881067.9157682.6015127.82766142 1.1467242-.08181344.5062679-.53033891.8619405-1.03052346.8396246l-.75866939-.116156.21120643 1.9987064c.04967314.5134535.28376262.7731334.7546725.9057178.8331881.2345835 1.79271305.4025948 2.89700847.5154396-.0983859 1.7423947.2953486 3.2628791.6197459 3.8940383-.2750187.3856802-.84152005.780559-1.6806333.8009901l-1.99989144.0020227c-.99712133 0-2.00010856-.6307445-2.00010856-1.9613718-.00043498-.5650697-.00065248-1.3634316-.00065248-2.3950858-.28116751-.3737922-.47193623-.8267157-.55343813-1.3496639s-.43501187-4.3351984-.44549485-4.5983555c-.01048297-.2631572-.01031097-.4898871.00187571-.6953532l-1.03529025-.0000847c-.552 0-.967-.482-.967-1.034v-1c0-.553.415-.966.967-.966h2.509l1.4251255-5.47760663c.32211711-1.28846845 1.43420954-2.11886552 2.84869943-2.27048637 2.07762897-.16799477 4.16102067-.25199215 6.25017507-.25199215zm-8.99989144 18.81341855c-.00007237.2281069-.00007237.6231128 0 1.1850177h1.53153626l-.14379167-.8428574c-.56285324-.1185023-.84574013-.208398-1.38774459-.3421603zm9.48421934 1.0606253c.5858089.5858089 1.5355655.5858245 2.1213551.0000349.5857897-.5857897.5857741-1.5355463-.0000348-2.1213552s-1.5354958-.5857549-2.1212855.0000348-.5858437 1.5354766-.0000348 2.1212855z" fill="var(--db-icon-color, currentColor)" fill-rule="evenodd"/></svg>
