<svg id="icon" height="20" viewBox="0 0 20 20" width="20" xmlns="http://www.w3.org/2000/svg"><path d="m9.514 10c0 .55.421 1 1.004 1h.486l-.004 4c0 .518.45 1 1 1s1-.482 1-1v-4c0-1.134-.862-2-1.996-2h-.486a.985.985 0 0 0 -1.004 1zm4.988 0c0 .55.421 1 .972 1h.518l.008 4c0 .518.445.984.996.984.55 0 1.004-.466 1.004-.984v-4c0-1.134-.866-2-2-2h-.526c-.55 0-.972.45-.972 1zm-3.986-3c.82 0 1.484-.663 1.484-1.516 0-.82-.663-1.484-1.484-1.484s-1.516.663-1.516 1.484c0 .853.695 1.516 1.516 1.516zm4.968 0c.853 0 1.516-.663 1.516-1.516 0-.82-.663-1.484-1.516-1.484-.82 0-1.484.663-1.484 1.484 0 .853.663 1.516 1.484 1.516zm-13.484 8c0 .55.45 1 1 1h4c.583 0 1.024-.47 1.024-.988l-.024-4.012c0-1.037-.964-2-2-2h-2c-1.069 0-2 .996-2 2zm3.016-8c.82 0 1.484-.663 1.484-1.516 0-.82-.663-1.484-1.484-1.484s-1.516.663-1.516 1.484c0 .853.695 1.516 1.516 1.516z" fill="#282D37" style="fill: currentColor;fill: var(--db-icon-color, currentColor)" fill-rule="evenodd"/></svg>