<svg id="icon" height="32" viewBox="0 0 32 32" width="32" xmlns="http://www.w3.org/2000/svg"><g fill="#282D37" style="fill: currentColor;fill: var(--db-icon-color, currentColor)" fill-rule="evenodd" transform="translate(8 2)"><path d="m9.555 19.312c-.41-.414-.965-1.063-1.556-1.063-.587 0-1.139.647-1.555 1.063l-3.186 3.187 4.742-12.6 4.742 12.6-3.186-3.187zm6.367 5.96-6.982-18.547a1.017 1.017 0 0 0 -.94-.683 1.021 1.021 0 0 0 -.934.658l-6.99 18.574a1.198 1.198 0 0 0 1.967 1.268l5.815-5.816a.2.2 0 0 1 .283 0l5.815 5.815a1.196 1.196 0 0 0 1.966-1.268z"/><path d="m1 4.638a1 1 0 0 0 1-1v-2.638a.989.989 0 0 0 -1-1 1 1 0 0 0 -1 1v2.638c.001.57.487 1 1 1" transform="translate(7)"/></g></svg>