<svg id="icon" height="32" viewBox="0 0 32 32" width="32" xmlns="http://www.w3.org/2000/svg"><path d="m16 4c.688 0 1.437.22 1.969.75l10.75 11.719a.94.94 0 0 1 .21.333c.047.126.071.26.071.386 0 .562-.469 1-1 1-.219 0-.5-.094-.625-.22l-1.375-1.373v11.405c0 .516-.375 1-.875 1h-6.125c-.5 0-.969-.375-.969-.875v-6.125h-4.031v6c0 .516-.406 1-.906 1h-6.094c-.5 0-1-.375-1-.875v-11.531l-1.281 1.281a.998.998 0 0 1 -.719.313c-.25 0-.531-.125-.719-.313a.97.97 0 0 1 -.281-.688c0-.218.063-.468.219-.625l10.656-11.686a2.949 2.949 0 0 1 2.125-.876zm0 2c-.219 0-.469.063-.625.219l-7.375 8.375v12.406h4v-6c0-.531.375-1 .875-1h6.125c.531 0 1 .375 1 .875v6.125h4v-12.406l-7.281-8.314a1.041 1.041 0 0 0 -.719-.28z" fill="#282D37" style="fill: currentColor;fill: var(--db-icon-color, currentColor)" fill-rule="evenodd"/></svg>
