<svg id="icon" height="32" viewBox="0 0 32 32" width="32" xmlns="http://www.w3.org/2000/svg"><path d="m29 27a1 1 0 0 1 0 2h-26a1 1 0 0 1 0-2zm-9.929-24a1.983 1.983 0 0 1 1.929 2.029v1.971h5.07a1.975 1.975 0 0 1 1.93 2.013v13.981a1.975 1.975 0 0 1 -1.93 2.013l-20.07-.007c-1.088-.025-2.021-.918-2-2.006v-13.981a1.975 1.975 0 0 1 1.93-2.013h5.07v-1.971c-.026-1.092.837-2 1.929-2.029zm6.929 6h-20l.07 13.987 19.93.013zm-3 2a1 1 0 0 1 1 1v8a1 1 0 0 1 -2 0v-8a1 1 0 0 1 1-1zm-14 0a1 1 0 0 1 1 1v8a1 1 0 0 1 -2 0v-8a1 1 0 0 1 1-1zm4-6 .052 2h5.948v-1.971z" fill="#282D37" style="fill: currentColor;fill: var(--db-icon-color, currentColor)" fill-rule="evenodd"/></svg>
