<svg id="icon" height="32" viewBox="0 0 32 32" width="32" xmlns="http://www.w3.org/2000/svg"><path d="m23.0321136 2c.70642 0 1.41284.19266 1.95871.73853l3.11468 3.11468c.61009.61009.89908 1.34403.89908 2.14679 0 .67431-.21119 1.43053-.73853 1.9633l-3.11468 3.14679c-.52733.53277-1.18807.88991-1.9266.88991h-7.19266v14h3.9678864c.54587 0 1.0091736.458716 1.0091736 1.0045872 0 .5137614-.4954136.9954128-1.0091736.9954128h-10.25c-.577981 0-1-.4174312-1-.9954128 0-.4816512.486239-1.0045872 1-1.0045872h4.2591736v-14h-8.0091736c-1.605505 0-3-1.24312-3-2.81651v-6.19725c0-1.5734 1.394496-2.98624 3-2.98624zm.12844 2h-17.1605536c-.545872 0-.97706442.37615-.97706442.8578v6.13303c0 .51376.353211 1.00917.866973 1.00917h17.14220502c.19266 0 .48165-.07798.67431-.27064l3.01835-3.01835c.22477-.22477.28899-.48165.28899-.70642s-.04653-.49758-.19266-.6422l-3.11468-3.08257c-.16138-.15972-.35321-.27982-.54587-.27982z" fill="var(--db-icon-color, currentColor)" fill-rule="evenodd"/></svg>
