<svg id="icon" height="24" viewBox="0 0 24 24" width="24" xmlns="http://www.w3.org/2000/svg"><path d="m13.528 2a3 3 0 0 1 1.13.22l.79.386a1 1 0 0 1 -.788 1.835l-.685-.335c-.138-.06-.463-.096-.975-.106v2h1.436c.945 0 1.512.118 2.012.385.5.268.9.666 1.167 1.167.262.49.367.962.383 1.78l.002 7.822c0 1.37-.134 2.063-.519 2.783a3.726 3.726 0 0 1 -1.544 1.544c-.672.36-1.32.5-2.518.517l-2.573.002c-1.37 0-2.063-.134-2.783-.519a3.726 3.726 0 0 1 -1.544-1.544c-.36-.672-.5-1.32-.517-2.518l-.002-7.855c0-.964.1-1.477.385-2.012.268-.5.666-.9 1.167-1.167.49-.262.962-.367 1.78-.383l1.668-.002v-2c-.425-.007-.714.013-.868.06l-.685.334a1 1 0 0 1 -.996-1.73l.68-.347a3.035 3.035 0 0 1 1.34-.317h3.056zm-1.528 13.248a36.7 36.7 0 0 1 -4-.247v.999h1a1 1 0 0 1 1 1c0 .513-.436 1.003-.994 1l-.98.003c.036.468.115.727.257.99.168.315.409.556.723.724.305.163.603.244 1.225.272l3.34.006c.76-.019 1.088-.098 1.423-.278.314-.168.555-.409.723-.723.142-.264.22-.523.258-.991l-.975-.003a1 1 0 0 1 -1-1c0-.513.436-1 .994-1h1.006v-.999a36.685 36.685 0 0 1 -4 .247zm3-7.23c0 .477-.447.984-1 .984l-4-.002a1 1 0 0 1 -1-.983c-.246.021-.375.062-.505.132a.818.818 0 0 0 -.346.346c-.094.155-.149.412-.148.9l.002 3.594c1.508.173 2.84.26 3.997.26 1.156 0 2.49-.087 3.997-.26.003-2.011.003-3.21.003-3.595-.002-.578-.067-.748-.148-.9a.818.818 0 0 0 -.346-.345c-.1-.054-.27-.098-.505-.132z" fill="#282D37" style="fill: currentColor;fill: var(--db-icon-color, currentColor)" fill-rule="evenodd"/></svg>