<svg id="icon" height="20" viewBox="0 0 20 20" width="20" xmlns="http://www.w3.org/2000/svg"><path d="m10.968 13.248a1.989 1.989 0 0 1 1.032 1.752c0 1.094-.875 2-2 2-.75 0-1.411-.411-1.753-1.032zm-.905-10.248c1.572 0 3.115.345 4.524.997l.706-.704a1 1 0 0 1 1.497 1.32l-.083.094-12 12a1 1 0 0 1 -1.414 0c-.36-.36-.421-.937 0-1.414l4.14-4.142c.022-.027 0-.07-.027-.07a.989.989 0 0 1 -.718.281c-.594 0-1-.532-1-1.002 0-.25.093-.532.312-.72 1.156-1.096 2.406-1.66 4.063-1.66.174 0 .347.008.519.023l2.491-2.49a8.622 8.622 0 0 0 -3.01-.54c-2.47 0-4.688.908-6.376 2.6-.187.188-.437.313-.687.313-.438 0-1-.345-1-1.002 0-.282.094-.501.281-.72 2.156-2.131 4.625-3.164 7.781-3.164z" fill="#282D37" style="fill: currentColor;fill: var(--db-icon-color, currentColor)" fill-rule="evenodd"/></svg>
