<svg id="icon" height="32" viewBox="0 0 32 32" width="32" xmlns="http://www.w3.org/2000/svg"><path d="m19.5 3a4 4 0 0 1 3.463 6.001l4.037-.001a3 3 0 0 1 3 3v14a3 3 0 0 1 -3 3h-22a3 3 0 0 1 -3-3v-14a3 3 0 0 1 3-3l4.036.001a4 4 0 1 1 6.966-3.937 3.991 3.991 0 0 1 3.498-2.064zm-4.5 14h-11v9a1 1 0 0 0 1 1h10zm13 0h-11v10h10a1 1 0 0 0 1-1zm-13-6h-10a1 1 0 0 0 -1 1v3h11zm12 0h-10v4h11v-3a1 1 0 0 0 -1-1zm-14.5-6a2 2 0 1 0 2 2c0-1.1-1-2-2-2zm7 0a2 2 0 1 0 0 4 2 2 0 0 0 0-4zm-7.5 17a1 1 0 0 1 0 2h-5a1 1 0 0 1 0-2z" fill="var(--db-icon-color, currentColor)" fill-rule="evenodd"/></svg>
