<svg id="icon" height="20" viewBox="0 0 20 20" width="20" xmlns="http://www.w3.org/2000/svg"><path d="m15.99 6c1.112 0 2.01.899 2.01 1.993v8.014a2.004 2.004 0 0 1 -2.01 1.993h-11.98a2.004 2.004 0 0 1 -2.01-1.993v-8.014c0-1.093.898-1.993 2.01-1.993zm-1.899 2.091c-2.452 0-3.681 1.473-3.681 4.055 0 2.195.888 3.704 3.4 3.704.534 0 1.307-.068 2.062-.338l-.216-1.655a4.18 4.18 0 0 1 -1.487.254c-1.535 0-1.886-.734-1.886-2.077 0-1.422.393-2.203 1.8-2.203.492 0 .996.1 1.517.297l.135-1.78a5.083 5.083 0 0 0 -1.644-.257zm-7.271.196h-2.908v7.407h2.849c1.795 0 2.966-.595 2.966-2.113 0-1.053-.564-1.607-1.659-1.815.847-.307 1.23-.704 1.23-1.568 0-1.392-.996-1.911-2.478-1.911zm1.112 5.076c0 .796-.74.843-1.188.845h-1.037v-1.66h1.093c.354 0 1.132 0 1.132.815zm-.371-2.96c0 .659-.625.659-.878.659h-.976v-1.29h1.015c.262 0 .839 0 .839.632zm8.439-8.4c1.054 0 1.911.802 1.995 1.85l.005.397a1 1 0 0 1 -1 1c-.513 0-1-.43-1-.968v-.28h-12v.248a1 1 0 0 1 -1 1 .99.99 0 0 1 -.993-1l-.007-.248c0-1.055.806-2 2-2h12z" fill="#282D37" style="fill: currentColor;fill: var(--db-icon-color, currentColor)" fill-rule="evenodd"/></svg>
