<svg id="icon" height="64" viewBox="0 0 64 64" width="64" xmlns="http://www.w3.org/2000/svg"><g fill="none" fill-rule="evenodd" transform="translate(8 8)"><path d="m13 21c0-.562.438-1 1-1h1c.562 0 1 .438 1 1s-.438 1-1 1h-1c-.562 0-1-.438-1-1zm-4.5 0c0-.562.438-1 1-1h1c.562 0 1 .438 1 1s-.438 1-1 1h-1c-.562 0-1-.438-1-1zm-4.5 0c0-.562.438-1 1-1h1c.562 0 1 .438 1 1s-.438 1-1 1h-1c-.562 0-1-.438-1-1zm13-19h-14c-.562 0-1 .438-1 1v22c0 .562.438 1 1 1h14c.562 0 1-.438 1-1v-22c0-.562-.438-1-1-1zm0-2c1.656 0 3 1.344 3 3v22c0 1.656-1.344 3-3 3h-14c-1.656 0-3-1.344-3-3v-22c0-1.656 1.344-3 3-3z" fill="var(--db-icon-pulse-color, #EC0016)"/><path d="m37.213 21.912h-2.718v-6.997a3.006 3.006 0 0 0 -3.003-3.003h-.768a3.006 3.006 0 0 0 -3.003 3.003v6.997h-2.718a3.007 3.007 0 0 0 -3.003 3.004v15.533a3.006 3.006 0 0 0 3.003 3.003h12.209a3.006 3.006 0 0 0 3.003-3.003v-15.533a3.007 3.007 0 0 0 -3.003-3.004zm-7.492-6.997c0-.553.45-1.003 1.003-1.003h.768c.553 0 1.003.45 1.003 1.003v6.997h-2.774zm8.494 25.534c0 .553-.45 1.003-1.003 1.003h-12.209c-.553 0-1.003-.45-1.003-1.003v-15.533c0-.554.45-1.004 1.003-1.004h12.209c.553 0 1.003.45 1.003 1.004zm-11.384 7.551c-.965 0-1.75-.785-1.75-1.75s.785-1.75 1.75-1.75 1.75.785 1.75 1.75-.785 1.75-1.75 1.75zm0-2a.25.25 0 0 0 -.25.25c0 .275.5.275.5 0a.25.25 0 0 0 -.25-.25zm8.553 2c-.965 0-1.75-.785-1.75-1.75s.785-1.75 1.75-1.75 1.75.785 1.75 1.75-.785 1.75-1.75 1.75zm0-2a.25.25 0 0 0 -.25.25c0 .275.5.275.5 0a.25.25 0 0 0 -.25-.25zm5.725-30.912a4.788 4.788 0 0 1 -4.782-4.782 4.788 4.788 0 0 1 4.782-4.782 4.788 4.788 0 0 1 4.782 4.782 4.788 4.788 0 0 1 -4.782 4.782zm0-7.565a2.785 2.785 0 0 0 -2.782 2.782 2.785 2.785 0 0 0 2.782 2.782 2.785 2.785 0 0 0 2.782-2.782 2.785 2.785 0 0 0 -2.782-2.782zm2.109 34.778a1 1 0 0 1 -1-1v-9.563a1 1 0 0 1 1-1h1.783c.551 0 1-.448 1-1v-10.909a.698.698 0 0 0 -.698-.697h-1.323c-1.65 1.238-4.09 1.239-5.739 0h-.744a1.001 1.001 0 0 1 .002-2.001h1.099c.246 0 .483.091.666.254 1.002.896 2.637.908 3.657.032a.996.996 0 0 1 .699-.286h1.683a2.7 2.7 0 0 1 2.698 2.697v10.909c0 1.654-1.346 3-3 3h-.783v8.563a1 1 0 0 1 -1 1z" fill="var(--db-icon-color, currentColor)" fill-rule="nonzero"/></g></svg>
