<svg id="icon" height="20" viewBox="0 0 20 20" width="20" xmlns="http://www.w3.org/2000/svg"><path d="m3.313 9.313a.886.886 0 0 0 -.313.687c0 .25.094.5.313.719l4.968 5c.188.187.469.281.719.281.563 0 1-.438 1-1a.97.97 0 0 0 -.281-.688l-3.313-3.312h9.594c.563 0 1-.438 1-1 0-.531-.438-1-1-1h-9.594l3.314-3.281c.186-.219.28-.469.28-.719 0-.531-.438-1-1-1a.975.975 0 0 0 -.633.226l-5.055 5.087z" fill="#282D37" style="fill: currentColor;fill: var(--db-icon-color, currentColor)" fill-rule="evenodd"/></svg>