<svg id="icon" height="20" viewBox="0 0 20 20" width="20" xmlns="http://www.w3.org/2000/svg"><path d="m2 5.531c0-1.875 1.5-3.375 3.375-3.375 1.844 0 3.375 1.5 3.375 3.344 0 1.75-1.344 3.406-3.375 3.406a3.361 3.361 0 0 1 -3.375-3.375zm4.938 10.063c0 1.25 1 2.25 2.25 2.25s2.25-1 2.25-2.25c0-1.219-1-2.25-2.25-2.25a2.26 2.26 0 0 0 -2.25 2.25zm2.406-6.688c0-2.375 1.937-4.312 4.344-4.312a4.321 4.321 0 0 1 4.312 4.312c0 2.406-1.938 4.344-4.313 4.344-2.374 0-4.343-1.938-4.343-4.344z" fill="var(--db-icon-color, currentColor)" fill-rule="evenodd"/></svg>
