<svg id="icon" height="64" viewBox="0 0 64 64" width="64" xmlns="http://www.w3.org/2000/svg"><g fill="none" fill-rule="evenodd" transform="translate(11 8)"><path d="m40 12a1 1 0 0 1 .117 1.993l-2.102.007c-1.223 0-2.248 1.04-2.328 2.382l-.005 27.124c0 2.395-1.791 4.374-4.071 4.489l-21.747.005c-2.455 0-4.433-2.035-4.541-4.56l-.005-26.946c0-1.328-.944-2.395-2.109-2.487l-2.209-.007a1 1 0 0 1 -.117-1.993l2.18-.007c2.298.013 4.144 1.918 4.25 4.279l.005 26.943c0 1.489 1.067 2.683 2.386 2.773l21.698.005c1.193 0 2.193-1.013 2.274-2.322l.006-27.127c0-2.428 1.817-4.433 4.127-4.546zm-26.555 6c.512 0 .935.39.993.892l.007 21.098c0 .558-.448 1.01-1 1.01-.513 0-.936-.39-.994-.892l-.006-21.098c0-.558.447-1.01 1-1.01zm7.055 0c.513 0 .936.39.993.892l.007 21.098c0 .558-.448 1.01-1 1.01-.513 0-.936-.39-.993-.892l-.007-21.098c0-.558.448-1.01 1-1.01zm7.109 0c.512 0 .935.39.993.892l.007 21.098c0 .558-.448 1.01-1 1.01-.513 0-.936-.39-.994-.892l-.006-.118v-20.98c0-.558.447-1.01 1-1.01zm-3.109-18a4 4 0 0 1 3.995 3.8l.005.2v4a1 1 0 0 1 -1.993.117l-.007-.117v-4a2 2 0 0 0 -1.85-1.995l-.15-.005h-8a2 2 0 0 0 -1.995 1.85l-.005.15v4a1 1 0 0 1 -1.993.117l-.007-.117v-4a4 4 0 0 1 3.8-3.995l.2-.005z" fill="#282D37" style="fill: currentColor;fill: var(--db-icon-color, currentColor)" fill-rule="nonzero"/><path d="m40.077 7.111a1 1 0 0 1 .117 1.993l-39.117.007a1 1 0 0 1 -.117-1.993z" fill="#EC0016" style="fill:#EC0016;fill: var(--db-icon-pulse-color, #EC0016)"/></g></svg>
