<svg id="icon" height="24" viewBox="0 0 24 24" width="24" xmlns="http://www.w3.org/2000/svg"><path d="m10 2c4.438 0 8.031 3.588 8.031 7.988a7.972 7.972 0 0 1 -1.687 4.93l5.375 5.335a.988.988 0 0 1 .281.717c0 .656-.531 1.03-1.031 1.03-.219 0-.469-.094-.688-.312l-5.343-5.367a8 8 0 0 1 -4.938 1.685c-4.406 0-8-3.588-8-8.018 0-4.4 3.594-7.988 8-7.988zm0 1.997c-3.313 0-6 2.683-6 5.99a6.003 6.003 0 0 0 6 6.022 6.01 6.01 0 0 0 6.031-6.021c0-3.308-2.687-5.991-6.031-5.991zm0 9.998c.563 0 1-.45 1-1.012v-1.983h2c.625 0 1-.468 1-.998s-.438-.999-1-.999l-2-.003v-2.07c0-.5-.469-.936-1-.936s-1 .437-1 .998v2.011h-2c-.625 0-1 .498-1 .997 0 .562.438 1 1 1h2v2.014c0 .53.438.981 1 .981z" fill="#282D37" style="fill: currentColor;fill: var(--db-icon-color, currentColor)" fill-rule="evenodd"/></svg>
