<svg id="icon" height="24" viewBox="0 0 24 24" width="24" xmlns="http://www.w3.org/2000/svg"><path d="m13.528 2.15c.369 0 .733.072 1.073.21l.78.38a.85.85 0 0 1 -.663 1.562l-.676-.33a1.15 1.15 0 0 0 -.38-.114l-.812-.008v2.15h1.586c1.044 0 1.512.118 2.012.385.5.268.9.666 1.167 1.167.262.49.367.962.383 1.78l.002 7.822c0 1.37-.134 2.063-.519 2.783a3.726 3.726 0 0 1 -1.544 1.544c-.672.36-1.32.5-2.518.517l-2.573.002c-1.37 0-2.063-.134-2.783-.519a3.726 3.726 0 0 1 -1.544-1.544c-.36-.672-.5-1.32-.517-2.518l-.002-7.855c0-.964.1-1.477.385-2.012.268-.5.666-.9 1.167-1.167.49-.262.962-.367 1.78-.383l1.818-.002v-2.15h-.678a1.15 1.15 0 0 0 -.392.069l-.7.341a.85.85 0 0 1 -.853-1.467l.67-.342c.33-.165.803-.301 1.275-.301zm-5.145 14.857a1 1 0 0 0 0 1.986h1.234a1 1 0 0 0 0-1.986zm6 0a1 1 0 0 0 0 1.986h1.234a1 1 0 0 0 0-1.986zm-4.76-9.307c-.669 0-.911.07-1.156.2a1.371 1.371 0 0 0 -.567.567c-.118.223-.187.443-.198.984l-.002 4.959a1 1 0 0 0 .945.999c1.078.06 2.197.09 3.355.09s2.277-.03 3.356-.09c.492-.027.944-.435.944-.998v-4.79c0-.668-.07-.91-.2-1.155a1.363 1.363 0 0 0 -.567-.567c-.223-.118-.443-.187-.984-.198zm4.377 1.2a.85.85 0 1 1 0 1.7h-4a.85.85 0 0 1 0-1.7z" fill="#282D37" style="fill: currentColor;fill: var(--db-icon-color, currentColor)" fill-rule="evenodd"/></svg>