<svg id="icon" height="32" viewBox="0 0 32 32" width="32" xmlns="http://www.w3.org/2000/svg"><path d="m26.41 24.464c.438.456.737.75.895.879.56.46 1.221.807 1.693.807a.85.85 0 1 1 0 1.7c-1.042 0-2.125-.538-3.248-1.613-1.152 1.075-2.234 1.613-3.248 1.613-1.013 0-2.097-.538-3.252-1.614-1.144 1.078-2.229 1.616-3.254 1.614-1.026-.001-2.108-.54-3.246-1.613-1.136 1.076-2.219 1.613-3.25 1.613-1.03 0-2.114-.538-3.25-1.614-1.145 1.076-2.228 1.614-3.25 1.614a.85.85 0 0 1 0-1.7c.46 0 1.073-.295 1.696-.807.158-.13.456-.422.894-.878a.85.85 0 0 1 1.32 0c.438.456.736.748.894.878.561.46 1.196.807 1.696.807s1.134-.346 1.695-.807c.158-.13.457-.423.895-.879a.85.85 0 0 1 1.32 0c.438.456.737.75.895.879.56.46 1.191.808 1.693.807s1.074-.296 1.697-.807c.158-.13.457-.423.895-.88a.85.85 0 0 1 1.242-.083c.49.512.815.833.974.963.558.457 1.2.808 1.696.807.496 0 1.07-.296 1.693-.807.158-.13.457-.423.895-.88a.85.85 0 0 1 1.32 0zm-6.41-19.314a.85.85 0 0 1 .789.533l.626 2.467-12.621.007a.85.85 0 0 0 0 1.686l13.047.007.828 3.3h5.331c.482 0 .87.4.85.881-.138 3.219-1.633 5.697-2.338 6.703s-.802 1.096-1.205 1.547c-.819.914-1.72 1.57-2.862 1.57-1.032 0-2.11-.674-3.231-2.021-1.107 1.349-2.19 2.022-3.247 2.02-1.058-.002-2.137-.675-3.239-2.02-1.073 1.347-2.149 2.02-3.227 2.02-1.08 0-2.165-.673-3.258-2.019-1.122 1.367-2.203 2.05-3.243 2.05a.859.859 0 0 1 -.85-.85v-9.681l17.457-.007a.85.85 0 0 0 0-1.686l-17.457-.007v-5.65c0-.47.38-.85.85-.85zm-3.75 10.85a1.25 1.25 0 1 0 0 2.5 1.25 1.25 0 0 0 0-2.5zm5 0a1.25 1.25 0 1 0 0 2.5 1.25 1.25 0 0 0 0-2.5zm-10 0a1.25 1.25 0 1 0 0 2.5 1.25 1.25 0 0 0 0-2.5zm-5 0a1.25 1.25 0 1 0 0 2.5 1.25 1.25 0 0 0 0-2.5z" fill="#282D37" style="fill: currentColor;fill: var(--db-icon-color, currentColor)" fill-rule="evenodd"/></svg>