<svg id="icon" height="32" viewBox="0 0 32 32" width="32" xmlns="http://www.w3.org/2000/svg"><path d="m16 5c2.09 0 4.178.085 6.267.253 1.27.1 2.397.899 2.778 2.08l1.487 5.701h2.5a.94.94 0 0 1 .962.85l.006 1.082c0 .513-.358.965-.851 1.027l-1.154.007c0 .59-.04 1.359-.12 2.307s-.176 1.87-.29 2.767c-.064.66-.279 1.22-.622 1.66.01.032.022.12.037.266v2.039c0 .497 0 1.908-2.096 1.959l-1.622.002c-2.125 0-2.258-1.38-2.278-1.782l-.003-.859c-.812.066-2.495.133-4.997.14a107.18 107.18 0 0 1 -5.004-.109l.001.65c0 .497 0 1.959-2.096 1.959l-1.623.001c-2.258 0-2.258-1.38-2.278-1.782l-.004-2.218c0-.053.016-.151.047-.295a2.957 2.957 0 0 1 -.597-1.385c-.101-.967-.2-1.893-.3-2.78-.148-1.329-.157-2.383-.148-2.54h-1.035c-.552 0-.967-.482-.967-1.034v-1c0-.553.415-.966.967-.966h2.509l1.425-5.478c.322-1.288 1.434-2.118 2.849-2.27a77.518 77.518 0 0 1 6.25-.252zm-9 18.813v1.187h2v-.808c-.416-.038-1.082-.165-2-.379zm17.999-.024a38.38 38.38 0 0 1 -1.999.346v.865h2l-.001-1.21zm-8.999-8.987c-2.805 0-5.61.065-8.414.198-.992.039-1.337.2-1.475.555-.077.197-.111.595-.103 1.194l2.116.259a1 1 0 0 1 -.131 1.992l-1.805-.219.221 2.1c.045.467.216.724.755.906 1.336.377 4.387.716 8.835.712 4.449-.004 6.445-.228 8.894-.729.404-.082.61-.29.685-.762l.237-2.227-1.691.211a1 1 0 0 1 -.363-1.963l2.24-.28c.001-.383-.037-.936-.116-1.154-.136-.372-.448-.544-1.281-.592-2.931-.134-5.8-.2-8.604-.201zm3.75 2.698a1 1 0 0 1 .96.718l.276 1.618a1 1 0 0 1 -1.947.442l-.137-.778h-5.805l-.11.664a1.01 1.01 0 0 1 -1.151.822 1 1 0 0 1 -.836-1.034l.263-1.616a1 1 0 0 1 .865-.829l7.621-.007zm-3.75-10.5a75.6 75.6 0 0 0 -6.081.244c-.535.058-.903.302-1.044.661l-1.333 5.095a180.569 180.569 0 0 1 16.915 0l-1.298-4.993c-.1-.401-.528-.719-1.031-.759a77.36 77.36 0 0 0 -6.128-.247z" fill="#282D37" style="fill: currentColor;fill: var(--db-icon-color, currentColor)" fill-rule="evenodd"/></svg>