<svg id="icon" height="24" viewBox="0 0 24 24" width="24" xmlns="http://www.w3.org/2000/svg"><path d="m17 4c.992 0 1.686.666 1.98 1.625l1.02 4.375h1.352c.336 0 .648.267.648.578v.733c0 .334-.261.69-.648.689h-.835c.033.162.05.38.05.536 0 .104-.13 1.262-.388 3.472a3 3 0 0 1 -.178.727l-.001 2.265a1 1 0 0 1 -1 1h-.6a1 1 0 0 1 -1-1v-.342a42.93 42.93 0 0 1 -10.8 0v.342a1 1 0 0 1 -1 1h-.6a1 1 0 0 1 -1-1v-2.262a2.994 2.994 0 0 1 -.152-.548l-.398-3.403a2.498 2.498 0 0 1 .033-.787h-.835c-.37 0-.648-.321-.648-.69v-.666a.63.63 0 0 1 .648-.644h1.352l.978-4.213c.23-.99 1.047-1.713 2.022-1.787zm-2.994 9.75-4.142.007a1 1 0 0 0 -.833.683l-.296 1.48a.987.987 0 0 0 .8 1.06.99.99 0 0 0 1.148-.67l.118-.561h2.385l.119.56a1 1 0 0 0 1.947-.39l-.296-1.48a1 1 0 0 0 -.95-.689zm-9.487.054a1 1 0 0 0 .672 1.147l1.479.296a1 1 0 0 0 .39-1.948l-1.48-.296a1 1 0 0 0 -1.06.8zm13.9-.8-1.478.295a1 1 0 0 0 .39 1.948l1.478-.296a1 1 0 0 0 -.39-1.948zm-11.254-7.311c-.208 0-.406.144-.498.375l-.922 3.932h12.51l-.886-3.827c-.06-.255-.239-.43-.442-.47l-9.763-.01z" fill="#282D37" style="fill: currentColor;fill: var(--db-icon-color, currentColor)" fill-rule="evenodd"/></svg>