<svg id="icon" height="24" viewBox="0 0 24 24" width="24" xmlns="http://www.w3.org/2000/svg"><path d="m16.0346825 13.6666667c1.5421224 0 3.0380667.5091392 4.2576032 1.4436636l1.350251 1.1234148c.4231909.3548632.4785814.9856007.1237182 1.4087916-.327566.3906377-.8901965.4678835-1.3076679.1983464l-1.211221-1.0054911c-.8310568-.6968757-2.0669404-1.1541011-2.9422981-1.1614132-.5835718-.0048748-1.3166326-.0073121-2.1991825-.0073121-.3849629 0-.7189291.2658271-.8052814.64098-.0288753.1254474.0494118.2505507.1748591.279426l2.5897738.1648719c.5512108.0344257.9701478.5091778.9357222 1.0603886-.0319667.5118386-.4460586.9352091-1.0021455.9352091l-2.5510259-.1482122c-.5687706-.0520032-1.0346993-.233193-1.7782763-.513191-.495718-.1866653-1.4956202-.5522293-2.99970645-1.0966919-.50346486-.1830781-1.06763434-.026515-1.40475185.3898337-.0868061.1072077-.07800697.3066107.0897691.3841065.11185071.0516638 1.26916063.5838215 3.4719298 1.5964731.8153215.3749036 1.694151.5891011 2.5884265.6320722l7.5848215.0080673c.5522847 0 1.0000235.4477153 1.0000235 1 0 .5128358-.4018616 1-1.0000235 1h-7.248838c-1.1682044 0-2.3239685-.2274198-3.4031522-.6682196-2.66648574-1.1961775-4.10134509-1.8784611-4.30457803-2.0468505-.94937564-.7866087-1.11462514-2.198556-.33273456-3.1642108.83253623-1.0282035 2.19909285-1.4453978 3.45510214-1.0727086l2.19174555.7899181c.3088475-1.2895245 1.5078929-2.1600912 2.5699356-2.1656766.7080285-.0037236 1.4104292-.0055853 2.107202-.0055853zm-6.67743536-2.1363605c.41421356 0 .74999996.3357865.74999996.75 0 .4142136-.3357864.75-.74999996.75s-.75-.3357864-.75-.75c0-.4142135.33578644-.75.75-.75zm3.49999996-.75c.4142136 0 .75.3357865.75.75 0 .4142136-.3357864.75-.75.75-.4142135 0-.75-.3357864-.75-.75 0-.4142135.3357865-.75.75-.75zm-7.00008574-.0338617c.41421356 0 .75.3357865.75.75 0 .4142136-.33578644.75-.75.75-.41421357 0-.75-.3357864-.75-.75 0-.4142135.33578643-.75.75-.75zm3.50008578-1.96613827c.41421356 0 .74999996.33578644.74999996.75s-.3357864.74999997-.74999996.74999997-.75-.33578641-.75-.74999997.33578644-.75.75-.75zm2.99999996-.5c.4142136 0 .75.33578644.75.75s-.3357864.75-.75.75c-.4142135 0-.75-.33578644-.75-.75s.3357865-.75.75-.75zm-5.99999996-.02154559c.41421356 0 .75.33578643.75.75 0 .41421356-.33578644.75-.75.75s-.75-.33578644-.75-.75c0-.41421357.33578644-.75.75-.75zm3.64275286-6.24883669c1.5976809 0 3 1.24664537 3 3v2.02038228h-5.97911891c-.55228475 0-1-.44771525-1-1 0-.51283584.33636605-1 1-1 1.98911183-.00341607 3.05964631 0 3.97911891-.00030623 0-.54438824-.2651642-1.02007605-1-1.02007605-2.32186014-.00220537-4.64402262-.00220537-6.96648744 0-.55228475 0-1-.44771525-1-1 0-.51283584.40415967-1 1-1 2.32186015-.00220537 4.64402263-.00220537 6.96648744 0z" fill="var(--db-icon-color, currentColor)" fill-rule="evenodd"/></svg>
