<svg id="icon" height="24" viewBox="0 0 24 24" width="24" xmlns="http://www.w3.org/2000/svg"><path d="m7.78025928 13.9688.7813-4.7813c.125-.8437.8437-1.4375 1.68750002-1.4375h3.5312c.8438 0 1.5625.5938 1.6875 1.4375l.75 4.7813c.1563 1.0624-.5625 2-1.7812 2v5.0637c0 .5313-.4375.9687-.9688.9687-.5312 0-.9687-.4374-.9687-.9687v-6.0637c0-.5313.4375-.9688.9687-.9688h.7813l-.6875-4.3125h-3.125l-.65630002 4.3125h.81250002c.5313 0 .9688.4375.9688.9688v6.0637c0 .5313-.4688.9687-1 .9687-.5 0-.96880002-.4374-.96880002-.9687v-5.0637c-1.1562 0-1.9687-.875-1.8125-2zm1.96974072-9.71878635c0 1.24270994 1.0074036 2.24998635 2.2499044 2.24998635 1.242692 0 2.2500956-1.00727641 2.2500956-2.24998635 0-1.24270993-1.0074036-2.25001365-2.2500956-2.25001365-1.2425008 0-2.2499044 1.00730372-2.2499044 2.25001365z" fill="var(--db-icon-color, currentColor)" fill-rule="evenodd"/></svg>
