<svg id="icon" height="32" viewBox="0 0 32 32" width="32" xmlns="http://www.w3.org/2000/svg"><path d="m2 28.016c0 .53.438.968.969.968h26.061a.974.974 0 0 0 .969-.968.98.98 0 0 0 -.969-1h-26.06a.98.98 0 0 0 -.969 1zm4.031-6.938a3.908 3.908 0 0 0 3.907 3.906h10.124c2.125 0 3.907-1.75 3.907-3.875v-2.28h1.125a3.908 3.908 0 0 0 3.906-3.908 3.888 3.888 0 0 0 -3.906-3.906h-19.064v10.062zm1.938.031v-8.125h14.031v8.125a1.947 1.947 0 0 1 -1.938 1.938h-10.124c-1.062 0-1.968-.875-1.968-1.938zm2.031-13.093a.98.98 0 0 0 1 .968.974.974 0 0 0 .969-.968v-4.032a.974.974 0 0 0 -.969-.968.98.98 0 0 0 -1 .968zm4 .03c0 .532.438.97.969.97a.974.974 0 0 0 .969-.97v-6.061a.974.974 0 0 0 -.97-.968.974.974 0 0 0 -.968.968v6.063zm4 .063c0 .532.438.97.969.97a.974.974 0 0 0 .968-.97v-4.125a.974.974 0 0 0 -.968-.968.974.974 0 0 0 -.969.968v4.126zm5.969 8.75v-3.875h1.125c1.093 0 1.968.875 1.968 1.938 0 1.062-.875 1.937-1.968 1.937z" fill="#282D37" style="fill: currentColor;fill: var(--db-icon-color, currentColor)" fill-rule="evenodd"/></svg>
