<svg id="icon" height="20" viewBox="0 0 20 20" width="20" xmlns="http://www.w3.org/2000/svg"><path d="m15.75 10.25c1.076551.0366604 2 .754654 2 1.75 0 .97227-.8907825 1.7249999-2 1.747v.7437962c0 .7927197-.0988085 1.3680571-.3557728 1.8397486-.2569643.4716916-.6070551.8194755-1.0636824 1.0636824-.4434091.2371378-.8804189.3371431-1.611351.353366l-1.20999.0024068c-.8719917 0-1.3519986-.0949212-1.83974865-.3557728-.45662728-.2442069-.8194754-.6070551-1.06368234-1.0636824-.23713779-.4434091-.33714308-.8804189-.35336604-1.611351l-.00240677-4.4691938zm-1.5001909 1.5h-4.50000004l.00167387 2.9225733c.00699864.3979886.02680814.5858217.10845728.8012211.08164915.2153993.32168869.4933058.51691319.597713.1419925.0759384.3892446.1770097.921578.1770097h1.3511047c.5697174 0 .8032195-.0858836.9736105-.1770097.1952245-.1044072.3439536-.2531363.4483608-.4483608.0892664-.1669136.1783017-.5106282.1783017-.8425314zm-7.09977-9.51790368c1.0510281.51433405 1.19086744 1.42527889.76531368 2.3483831l-.26525491.51741089c.25932216.15787113.3995301.44706103.36204781.74194175l-.15511465 1.22036395c.48021873-.06019601.87351771.24455253.90962578.65376273.03610808.40921021-.25560945.79818726-.69339402.83494812l-4.93913923.37292637c-.08978152 1.15784817.43744016 2.59482937.85739814 3.19598977l1.94701557-.9225593c.33849306-.1720213.70087941-.1029132.95619062.2412009.25531121.344114.11450368.8564431-.18899006 1.0438156l-.85094407.4396266c.21107843.5408018.77077817 1.1362506.93313011 1.2865999.30391172.2814437.32212567.755968.040682 1.0598797-.28144367.3039118-.75598103.322077-1.05987969.0406821-.22194896-.2055404-.4401725-.4429034-.61063623-.6626366-.28988735-.373674-.51039822-.735663-.66976321-1.1020333l-.38965166.1850629c-.29227742.1385633-.64046237.0741329-.8638026-.1598436-.61840511-.6478561-1.0676906-1.5169771-1.35709433-2.5970465-.28940373-1.08006941-.33487158-2.057393-.12324505-2.92765533.06824569-.28064373.30250252-.62130006 1.00489376-.59571919-.07180842-.59539396-.07497647-1.11174157-.00950413-1.54904282.13784579-.92069625.56244667-1.72231842 1.28649228-2.36079907.18844131-.16617203.44291422-.22382211.67780762-.16517287l.15128717-.28878621c.49865729-.95680041 1.19698477-1.38350342 2.2845293-.85129959zm4.3499609 4.76790368v2h-1.5v-2zm2.5-1v3h-1.5v-3zm-9.33486979-.94538835c-.26945455.45318559-.41345096.78522041-.45466199 1.27830377-.02747403.32872224-.01373702.63893971.04121103.93065239l2.08177377-.10428802.12962371-1.0229148z" fill="var(--db-icon-color, currentColor)" fill-rule="evenodd"/></svg>
