<svg id="icon" height="24" viewBox="0 0 24 24" width="24" xmlns="http://www.w3.org/2000/svg"><path d="m4.554 12.232.867.88c.327-.43.746-.46 1.036-.317l1.23.607c.114-.199.31-.359.546-.369.158-.007.676-.01 1.554-.007a.75.75 0 0 1 .102 1.493l-1.171.03-.954 5.102c1.925.515 3.751.44 5.28.026l-.417-2.003c-.075-.339.091-.748.491-.872.4-.125.877.062.98.561l.276 1.274c.427-.043 1.458-.322 2.065-.814a.75.75 0 0 1 .93 1.177c-.874.69-2.167 1.032-2.685 1.109a.751.751 0 0 1 -.437.713c-1.867.871-5.32 1.025-7.62 0-.292-.13-.532-.46-.386-1.005-2.013-.346-3.379-1.229-4.097-2.65-.144-.286-.13-.732.352-1.082l-.884-.898c-.77-.783-.832-2.044-.03-2.925.8-.882 2.172-.843 2.972-.03zm1.726 2.148-2.522 2.56c.305.438.726.744 1.253.987.352.162.81.294 1.373.395l.708-3.542-.812-.401zm11.55-11.17a2.994 2.994 0 0 1 2.12 3.674c.571.204 1.005.453 1.3.747.443.441.696.876.825 1.429.125.537.106 1.017-.086 1.799l-.547 2.052c-.25.931-.479 1.402-.894 1.845a2.817 2.817 0 0 1 -1.428.824c-.537.126-1.017.106-1.8-.086l-3.29-.879c-.538-.144-.845-.293-1.135-.564a1.909 1.909 0 0 1 -.557-.966c-.079-.338-.07-.64.03-1.072l1.788-6.666c.404-1.64 2.13-2.55 3.673-2.137zm-15.175 10.102a.586.586 0 0 0 .025.822l.868.882.82-.835-.884-.897c-.197-.2-.591-.258-.829.028zm12.914-5.532-1.285 4.824 3.684.988c.3.061.537.077.698.04.167-.04.554-.223.719-.809.165-.585.398-1.455.716-2.674.088-.39.05-.533.026-.636a.818.818 0 0 0 -.244-.423c-.058-.055-.179-.179-.564-.296a726.88 726.88 0 0 0 -3.75-1.014zm-5.606 1.604.966.26a1 1 0 1 1 -.517 1.931l-.966-.259a1 1 0 0 1 .517-1.932zm-.19-3.156 1.933.517a1 1 0 1 1 -.518 1.932l-1.932-.517a1 1 0 1 1 .518-1.932zm6.314-.38 1.94.52c.125-.635-.22-1.094-.715-1.226a.997.997 0 0 0 -1.225.707z" fill="var(--db-icon-color, currentColor)" fill-rule="evenodd" transform="matrix(.25881905 .96592583 -.96592583 .25881905 20.485979 -2.051848)"/></svg>
