<svg id="icon" height="32" viewBox="0 0 32 32" width="32" xmlns="http://www.w3.org/2000/svg"><path d="m16 2c7.719 0 14 6.281 14 14s-6.281 14-14 14-14-6.281-14-14 6.281-14 14-14zm0 2c-6.625 0-12 5.375-12 12s5.375 12 12 12 12-5.375 12-12-5.375-12-12-12zm-.6 9.12-.525.13h-1.625c-.563 0-1 .438-1 1 0 .563.438 1 1 1h1.75v5.75h-2c-.563 0-1 .438-1 1 0 .563.438 1 1 1h6c.563 0 1-.438 1-1 0-.563-.438-1-1-1h-2v-7c0-.566-.444-.985-1.003-.992-.183-.002-.39.062-.596.113zm.444-5.026c-.813 0-1.5.687-1.5 1.5a1.5 1.5 0 0 0 1.5 1.5c.844 0 1.5-.656 1.5-1.5a1.5 1.5 0 0 0 -1.5-1.5z" fill="var(--db-icon-color, currentColor)" fill-rule="evenodd"/></svg>
