<svg id="icon" height="32" viewBox="0 0 32 32" width="32" xmlns="http://www.w3.org/2000/svg"><path d="m7.281 5.281-5 5a1.102 1.102 0 0 0 -.281.719c0 .25.094.5.281.719l5 5c.203.187.461.281.719.281.59 0 1-.438 1-1a1.06 1.06 0 0 0 -.281-.719l-3.313-3.281h12.594c.563 0 1-.438 1-1 0-.563-.438-1-1-1h-12.594l3.314-3.281c.186-.203.28-.461.28-.719 0-.6-.454-1-1-1-.25 0-.5.094-.719.281zm17.439 10.004a1.102 1.102 0 0 0 -.719-.28c-.547 0-1 .4-1 1 0 .257.094.515.281.718l3.313 3.281h-12.595c-.563 0-1 .438-1 1 0 .563.438 1 1 1h12.594l-3.313 3.281a1.058 1.058 0 0 0 -.281.72c0 .56.41 1 1 1 .258 0 .516-.095.719-.282l5-5c.187-.219.281-.469.281-.719s-.094-.5-.281-.719l-5-5z" fill="var(--db-icon-color, currentColor)" fill-rule="evenodd"/></svg>
