<svg id="icon" height="24" viewBox="0 0 24 24" width="24" xmlns="http://www.w3.org/2000/svg"><path d="m12.003 3.997c-.563 0-1 .438-1 1v11.594l-4.283-4.281a.998.998 0 0 0 -.718-.313c-.438 0-1 .375-1 1.032 0 .25.093.5.28.687l6 6a.975.975 0 0 0 .612.276l.108.005c.25.032.515-.077.718-.28l6-6c.188-.188.282-.47.282-.688 0-.563-.47-1.032-1-1.032a.981.981 0 0 0 -.72.313l-4.28 4.281v-11.594c0-.562-.438-1-1-1z" fill="#282D37" style="fill: currentColor;fill: var(--db-icon-color, currentColor)" fill-rule="evenodd"/></svg>
