<svg id="icon" height="24" viewBox="0 0 24 24" width="24" xmlns="http://www.w3.org/2000/svg"><path d="m4 18c0-.531.469-1 1.031-1h13.939c.562 0 1.031.469 1.031 1 0 .563-.469 1-1.031 1h-13.94c-.56 0-1.03-.438-1.03-1zm0-6c0-.531.469-1 1.031-1h10.469c.531 0 1 .469 1 1s-.469 1-1 1h-10.469c-.561 0-1.031-.469-1.031-1zm0-6c0-.563.469-1 1.031-1h13.939c.56 0 1.03.438 1.03 1 0 .531-.469 1-1.031 1h-13.939c-.56 0-1.03-.469-1.03-1z" fill="#282D37" style="fill: currentColor;fill: var(--db-icon-color, currentColor)" fill-rule="evenodd"/></svg>
