<svg id="icon" height="24" viewBox="0 0 24 24" width="24" xmlns="http://www.w3.org/2000/svg"><path d="m5 15a.97.97 0 0 1 -.306.725 2.488 2.488 0 0 0 -.725 1.744 2.54 2.54 0 0 0 2.531 2.531c.656 0 1.3-.25 1.806-.756a.921.921 0 0 1 .663-.275c.562 0 1 .468 1 1 0 .25-.063.531-.25.718-.844.844-2 1.313-3.188 1.313a4.535 4.535 0 0 1 -4.531-4.531c0-1.157.469-2.25 1.25-3.157a.95.95 0 0 1 .719-.312c.561 0 1.031.438 1.031 1zm3.188-3.25 1.029 3.25h2.188c.781 0 1.253.374 1.531 1.063l1.844 4.562c.042.105.063.281.063.375a.98.98 0 0 1 -.969 1c-.469 0-.815-.311-.969-.688l-1.749-4.312h-2.75c-.469 0-.86-.276-1-.75l-1.187-4a1.006 1.006 0 0 1 .969-1.25c.468 0 .863.316 1 .75zm-1.376-5.75c.813 0 1.5.688 1.5 1.5a1.5 1.5 0 0 1 -1.5 1.5 1.48 1.48 0 0 1 -1.5-1.5 1.5 1.5 0 0 1 1.5-1.5zm3.68-2.258c0-.427.383-.697.743-.697.293 0 .596.177.675.54l.624 2.87.703-2.893c.082-.339.405-.517.697-.517.293 0 .615.171.697.517l.688 2.903.617-2.88c.082-.384.382-.54.675-.54.382 0 .742.27.742.697a.785.785 0 0 1 -.023.203l-1.304 5.015c-.094.36-.405.518-.697.518a.701.701 0 0 1 -.698-.518l-.72-2.541-.72 2.541c-.102.363-.404.518-.696.518a.712.712 0 0 1 -.698-.54l-1.282-4.993a.799.799 0 0 1 -.022-.203zm7.176 2.542c0-2.97 1.754-3.284 2.519-3.284.45 0 .922.09 1.35.292.314.135.45.383.45.63 0 .382-.293.765-.698.765a.693.693 0 0 1 -.293-.068 1.798 1.798 0 0 0 -.742-.18c-.315 0-1.147 0-1.147 1.845 0 1.777.742 1.777 1.147 1.777.27-.023.54-.09.787-.18.09-.023.18-.045.27-.045.405 0 .698.382.698.764 0 .27-.135.518-.473.653a5.314 5.314 0 0 1 -1.327.247c-.944 0-2.541-.427-2.541-3.216z" fill="#282D37" style="fill: currentColor;fill: var(--db-icon-color, currentColor)" fill-rule="evenodd"/></svg>
