<svg id="icon" height="20" viewBox="0 0 20 20" width="20" xmlns="http://www.w3.org/2000/svg"><path d="m16.002 15.341c.07.08.445.659.998.659a1 1 0 0 1 1 1c0 .513-.43 1.001-1.004 1-.548 0-1.13-.221-1.746-.663-.577.435-1.16.653-1.75.653s-1.173-.217-1.75-.652c-.583.435-1.168.655-1.753.662s-1.167-.214-1.747-.662c-.583.435-1.166.655-1.75.662s-1.167-.214-1.75-.662c-.574.435-1.158.655-1.75.662a1 1 0 0 1 0-2c.12 0 .598-.202.997-.658a1 1 0 0 1 1.506 0c.069.079.484.658.997.658s.929-.58.997-.659a1 1 0 0 1 1.505 0c.07.08.5.659.998.659.5 0 .929-.58.998-.659a1 1 0 0 1 1.504 0c.07.079.5.659.998.659.499 0 .929-.58.998-.659a1 1 0 0 1 1.504 0zm-4.002-13.341a1 1 0 0 1 .936.649l1.564 4.351h2.5a1 1 0 0 1 1 1.034c-.077 2.225-1.05 4.31-2.678 5.722a1 1 0 0 1 -1.31-1.512c.935-.81 1.485-1.733 1.865-3.244-4.261-.02-8.553-.02-12.877 0-.513 0-1-.487-1-1a1 1 0 0 1 .883-.993l9.554-.007-1.187-3h-8.25c-.513 0-1-.487-1-1a1 1 0 0 1 .883-.993zm0 8a1 1 0 1 1 0 2 1 1 0 0 1 0-2zm-4 0a1 1 0 1 1 0 2 1 1 0 0 1 0-2zm-4 0a1 1 0 1 1 0 2 1 1 0 0 1 0-2z" fill="var(--db-icon-color, currentColor)" fill-rule="evenodd"/></svg>
