<svg id="icon" height="24" viewBox="0 0 24 24" width="24" xmlns="http://www.w3.org/2000/svg"><path d="m13.046 2c2.171 0 3.428.756 4.4 2.04a7.55 7.55 0 0 1 1.512 4.049l.073 2.613c.04 1.553-.11 3.106-.444 4.623a43.494 43.494 0 0 1 -.562 2.256c-.202.689-.424 1.272-.983 2.045-.388.536-.779.87-1.303 1.105a.84.84 0 0 1 .111.419c0 .433-.351.85-.85.85h-6a.85.85 0 0 1 -.733-1.281c-.634-.291-.866-.533-1.289-1.087a5.935 5.935 0 0 1 -.926-1.778c-.164-.548-.124-.447-.504-1.946a19.06 19.06 0 0 1 -.585-4.583 50.42 50.42 0 0 1 .065-2.922 7.546 7.546 0 0 1 1.527-4.362c.927-1.227 2.185-2.041 4.445-2.036zm3.406 14.869-.992.66c-.635.407-1.79.59-3.463.59s-2.78-.155-3.457-.59l-.995-.66c.095.44.253.857.475 1.25.333.592.757 1.19 1.552 1.172.795-.016 4.168.009 4.909.009.74 0 1.098-.483 1.46-1.101.242-.412.412-.855.511-1.33zm-5.452-13.169c-1.52 0-2.369.413-3.089 1.366a5.848 5.848 0 0 0 -1.17 3.099l-.073 2.623c-.03 1.211.067 2.421.288 3.61l1.519 1.048.985.653c.152.097 1.187.32 2.537.32s2.238-.124 2.543-.32l1.45-.969 1.049-.726c.193-1.032.292-2.079.298-3.128l-.063-2.83a5.847 5.847 0 0 0 -1.184-3.38c-.688-.909-1.46-1.366-3.044-1.362zm3.88 9.04a.85.85 0 0 1 .422 1.042l-.542 1.098a.85.85 0 0 1 -1.562-.662l.542-1.098a.85.85 0 0 1 1.14-.38zm-4.673.287.553 1.093a.85.85 0 0 1 -1.467.853l-.553-1.093a.85.85 0 0 1 1.467-.853zm1.793-8.027c.803 0 1.492.093 2.068.278a2.5 2.5 0 0 1 1.681 2.89l-.274 1.318a2 2 0 0 1 -1.636 1.566c-.742.132-1.355.198-1.839.198s-1.097-.066-1.84-.198a2 2 0 0 1 -1.635-1.566l-.274-1.318a2.5 2.5 0 0 1 1.681-2.89c.576-.185 1.265-.278 2.068-.278zm0 1.7c-.636 0-1.153.07-1.547.196a.8.8 0 0 0 -.553.816c.13.672.218 1.095.26 1.269.065.26.1.365.275.393.175.029 1.038.173 1.565.176s1.115-.113 1.454-.156.339-.225.385-.413c.031-.126.113-.512.246-1.16a.8.8 0 0 0 -.538-.925c-.394-.126-.91-.196-1.547-.196z" fill="var(--db-icon-color, currentColor)" fill-rule="evenodd"/></svg>
