<svg id="icon" height="32" viewBox="0 0 32 32" width="32" xmlns="http://www.w3.org/2000/svg"><path d="m26.752 10c1.72 0 3.247 1.393 3.25 3.25 0 1.167 0 3.083-.002 5.75 0 .5 0 1-1 1h-3.06c.562 0 1 .438 1 1 0 .522-.44 1-1 1h-4.968c-.563 0-1-.438-1-1 0-.522.528-1 1-1h-9.999c.563 0 1 .438 1 1 0 .522-.473 1-1 1h-4.967c-.563 0-1-.438-1-1 0-.522.494-1 1-1a751.92 751.92 0 0 0 -3.006 0c-.5 0-1-.5-1-1-.002-1.167-.001-3.083.001-5.75 0-1.72 1.374-3.148 3.072-3.245l.183-.005zm0 2c-7.165-.002-14.33-.002-21.496 0-.645 0-1.256.5-1.25 1.25a95.8 95.8 0 0 1 -.006 2.75h24l.002-2.75c0-.645-.5-1.25-1.25-1.25z" fill="var(--db-icon-color, currentColor)" fill-rule="evenodd"/></svg>
