<svg id="icon" height="20" viewBox="0 0 20 20" width="20" xmlns="http://www.w3.org/2000/svg"><path d="m5.708 8.022c0 .512-.33.978-1 1h-.719l.904 3.6a.504.504 0 0 0 .485.378h2.174c.953 0 1.639.188 2.084 1.129.337.83.67 1.664 1 2.5a1 1 0 0 1 -.557 1.3c-.442.176-1.045-.033-1.258-.456a735.692 735.692 0 0 1 -.998-2.474l-2.445.001a2.5 2.5 0 0 1 -2.425-1.892c-.303-1.199-.604-2.399-.903-3.6-.27-1.071.58-2.486 1.94-2.486h.718c.666.298 1 .631 1 1zm9.796-5.022a1.5 1.5 0 0 1 1.5 1.5v.768c.552.32 1 .957 1 1.732v6c0 1.054-.88 2-2 2h-1c-1.055 0-2.072-.9-2-2-.002-2-.002-4 0-6a2 2 0 0 1 1-1.732v-.768a1.5 1.5 0 0 1 1.5-1.5zm-7.559 4.987c.499.122.872.635.734 1.209a54.3 54.3 0 0 1 -.195.796l1.23.008c.512-.003.994.385.994.979s-.487 1.006-.994 1.006c-.834.007-1.667.012-2.5.015a1.004 1.004 0 0 1 -.978-1.238l.5-2.042a1 1 0 0 1 1.21-.733zm.513-3.737a1.5 1.5 0 1 1 0 3 1.5 1.5 0 0 1 0-3zm-4.25-2.25a2 2 0 1 1 0 4 2 2 0 0 1 0-4z" fill="#282D37" style="fill: currentColor;fill: var(--db-icon-color, currentColor)" fill-rule="evenodd"/></svg>
