<svg id="icon" height="32" viewBox="0 0 32 32" width="32" xmlns="http://www.w3.org/2000/svg"><path d="m16 2c7.719 0 14 6.281 14 14s-6.281 14-14 14-14-6.281-14-14 6.281-14 14-14zm0 2c-6.625 0-12 5.375-12 12s5.375 12 12 12 12-5.375 12-12-5.375-12-12-12zm6.973 6.563c.566 0 1.046.474 1.046 1.008 0 .228-.093.472-.331.71l-9.438 9.439a.962.962 0 0 1 -.683.278c-.219 0-.44-.07-.63-.216l-.093-.062-4.5-4.5a1.014 1.014 0 0 1 -.305-.719c0-.561.47-1.015 1.022-1.015.225 0 .463.085.689.296l3.813 3.813 8.718-8.75a.972.972 0 0 1 .692-.281z" fill="#282D37" style="fill: currentColor;fill: var(--db-icon-color, currentColor)" fill-rule="evenodd"/></svg>
