<svg id="icon" height="24" viewBox="0 0 24 24" width="24" xmlns="http://www.w3.org/2000/svg"><path d="m5 3c1.625 0 3 1.344 3 3a2.98 2.98 0 0 1 -2 2.813v6.187c0 1.094.906 2 2 2h2.594l-1.314-1.281a.962.962 0 0 1 -.28-.719c0-.594.438-1 1-1 .25 0 .5.063.719.281l3 3a.962.962 0 0 1 .281.719c0 .25-.063.5-.281.719l-3 3a1.044 1.044 0 0 1 -.719.281c-.594 0-1-.438-1-1 0-.25.063-.531.281-.719l1.313-1.281h-2.594c-2.219 0-4-1.781-4-4v-6.188a2.98 2.98 0 0 1 -2-2.812 3 3 0 0 1 3-3zm0 2c-.563 0-1 .438-1 1 0 .563.438 1 1 1 .563 0 1-.438 1-1 0-.563-.438-1-1-1zm9-3c.594 0 1 .438 1 1 0 .25-.063.531-.281.719l-1.313 1.281h2.594c2.219 0 4 1.781 4 4v6.188c1.156.406 2 1.5 2 2.812a3 3 0 0 1 -3 3c-1.906 0-3-1.438-3-3a2.98 2.98 0 0 1 2-2.813v-6.187c0-1.094-.906-2-2-2h-2.594l1.313 1.281a.962.962 0 0 1 .281.719c0 .594-.438 1-1 1-.25 0-.5-.063-.719-.281l-3-3a.962.962 0 0 1 -.281-.719c0-.25.063-.5.281-.719l3-3a.962.962 0 0 1 .719-.281zm5 15c-.563 0-1 .438-1 1 0 .563.438 1 1 1 .563 0 1-.438 1-1 0-.563-.438-1-1-1z" fill="#282D37" style="fill: currentColor;fill: var(--db-icon-color, currentColor)" fill-rule="evenodd"/></svg>
