<svg id="icon" height="20" viewBox="0 0 20 20" width="20" xmlns="http://www.w3.org/2000/svg"><path d="m12.116 2c.842 0 1.275.071 1.74.283.437.2.802.502 1.08.897.268.38.417.755.56 1.444l.256 1.337.447.001c.552 0 1 .45 1 1.004v1.003c0 .554-.448 1.003-1 1.003l-.211-.001.001 5.883c0 .469-.06.882-.234 1.175-.139.26-.358.513-.619.662l.003.807a.5.5 0 0 1 -.5.502h-1a.5.5 0 0 1 -.5-.502l-.001-.506h-5.999v.506a.5.5 0 0 1 -.5.502h-1a.5.5 0 0 1 -.5-.502l-.001-.737a1.762 1.762 0 0 1 -.644-.582c-.161-.242-.302-.53-.321-1.134l-.004-6.075h-.209a1 1 0 0 1 -1-1.002v-1.002c0-.554.448-1.004 1-1.004h.445l.214-1.122c.144-.754.326-1.266.603-1.66a2.655 2.655 0 0 1 1.081-.897c.418-.19.81-.267 1.499-.28zm-6.159 12.077a.752.752 0 0 0 -.232 1.483l1.596.147a.752.752 0 0 0 .232-1.483zm6.87.131a.752.752 0 0 0 .028 1.501l1.596-.133a.752.752 0 0 0 -.028-1.5l-1.597.132zm1.461-6.274h-8.42l.001 4.97c1.92.08 3.298.119 4.131.119a83.55 83.55 0 0 0 4.288-.11v-4.98zm-1.998-4.228c-.377 0-1.945.003-4.705.01-.286.015-.43.052-.578.12a.954.954 0 0 0 -.396.328c-.079.111-.182.283-.288.825-.071.361-.15.775-.238 1.24h7.987c-.104-.557-.182-.97-.236-1.24-.08-.405-.184-.678-.288-.825a.954.954 0 0 0 -.396-.329c-.123-.056-.297-.129-.862-.129z" fill="#282D37" style="fill: currentColor;fill: var(--db-icon-color, currentColor)" fill-rule="evenodd"/></svg>
