<svg id="icon" height="32" viewBox="0 0 32 32" width="32" xmlns="http://www.w3.org/2000/svg"><path d="m22.4384472 5.18020111c.8834172.04280305 1.7523852.43051093 2.287138 1.149299.2802083.37664194.2020334.90912473-.1746086 1.189333-.3452551.25685759-.8904723.22091651-1.1893325-.174609-.1890289-.25408324-.516433-.4375975-.9231969-.464023-2.1253585-.08815318-4.2756136-.18553479-6.4134675-.18470981-2.1544438.00083138-4.317774.04885773-6.46342689.18970981-.48885698.037092-.98847964.37426552-1.11475375.89240901-.29896949 1.23939214-.74113584 2.97985548-1.32649906 5.22138988 3.9369383-.0952164 6.8968383-.1427335 8.8797-.1425513.6522741.00006 1.5136061.0206649 2.0018028.0385601.0553139-1.6082344 1.3764844-2.8950088 2.9981972-2.8950088 0-.5.5-1 1-1h3c.5 0 1 .5 1 1 1.6568542 0 3 1.3431458 3 3 .5 0 1 .5 1 1v1c0 .5-.5 1-1.0007.999.0004667.6673333.0007 3.3343333.0007 8.001 0 1.6568542-1.3431458 3-3 3h-5c-1.5528733 0-2.830178-1.1798494-2.9843842-2.6920183-.4530933.0273628-1.2120623.0410442-2.2769071.0410442s-3.3111755-.116342-6.7389923-.3490259l.0002836 1c0 .4457594-.55424063 1-1 1h-2c-.5 0-1-.5-1-1l-.0157996-2.299883c-.20423561-.3385872-.34216035-.7409146-.40802374-1.1939071l-.3573452-3.6543863c-.06467651-.9886737-.09026309-1.6063367-.07675971-1.8529889l-1.17477175.0010653c-.553 0-.967-.482-.967-1.034v-1c0-.553.414-.966.967-.966l2.403-.0009 1.42634669-5.63002517c.30276415-1.21105661 1.36494768-2.12180703 2.76490612-2.18377372 3.20766689-.10083818 4.85251379-.19867315 6.47449249-.18520111 1.5976896.0132703 3.8309879.09175432 6.4024019.18020111zm3.5615528 6.51979889c-1.5246667 0-3.1913333 0-5 0-.673097 0-1.3007.5706904-1.3007 1.3 0 1.4431694.0002333 5.1098361.0007 11 0 .673097.6291404 1.3 1.3 1.3h5c.673097 0 1.211074-.4457592 1.3-1.3 0-1.4429503 0-5.109617 0-11 0-.673097-.6147368-1.3-1.3-1.3zm-13.6397391 6.1262711c-.4274352.0712392-.763892.4523574-.6986957.9781739.0812549.5000712.1645882 1.0000712.25 1.5.0620999.3725998.4486957.7102609.8384348.7102609.6172571-.0004706 2.3670237-.0007059 5.2493-.0007059v-1.699l-4.5074031.0002791-.1534621-.7903123c-.0712392-.4274352-.5507388-.7699349-.9781739-.6986957zm-6.70480838-.0554743c-.04900343.4305514.22846439.8549537.74842486.9406701.62565804.0750572 1.24886818.1453398 2.5.2845388.47800946.0576076.89166666-.3178735.9406701-.7484249.04900343-.4305514-.23228117-.8597417-.74842486-.9406701-1.24807005-.1452429-1.24886911-.1453399-2.5-.2845388-.5021099-.0502587-.89166666.3178735-.9406701.7484249zm17.67372708-2.6060427c.1852419-.3704839.6357467-.5206521 1.0062306-.3354102.3396102.1698051.532909.6398819.3354102 1.0062306-.2919463.5961116-.6112198 1.2343082-.9578204 1.9145898h.7708197c.4814237 0 .9824592.5171408.6797646 1.0998823-.4531764.935635-.9507644 1.9308109-1.4927639 2.9855279-.1852419.3704839-.6357467.5206521-1.0062306.3354102-.3396102-.1698051-.5365781-.5979497-.3354102-1.0062306.3177524-.6406906.6366925-1.2788872.9568204-1.9145898-.2610537 0-.5176602 0-.7698197 0-.3782391 0-.9812901-.4497647-.6797646-1.0998823.201017-.4334118.698605-1.4285878 1.4927639-2.9855279z" fill="var(--db-icon-color, currentColor)" fill-rule="evenodd"/></svg>
