<svg id="icon" height="20" viewBox="0 0 20 20" width="20" xmlns="http://www.w3.org/2000/svg"><path d="m13 2.5v1.506h.705c.814.068 1.578.688 1.785 1.404.138.477.409 1.674.813 3.59h1.697v2.003l-1.105-.003c-.15 1.493-.25 2.37-.3 2.629-.075.39-.292.9-.595 1.197v2.674h-2.5v-1.759a23.875 23.875 0 0 1 -7 0v1.759h-2.5v-2.674c-.23-.223-.444-.616-.55-1.005-.07-.258-.186-1.199-.346-2.821l-1.104.003v-2.003h1.696l.761-3.432c.238-.805.882-1.41 1.677-1.541.17-.026.458-.032.866-.021v-1.506zm-1 8.65h-4v1.7h4zm3 0h-2v1.7h2zm-8 0h-2v1.7h2zm6.914-5.45h-7.828l-.643 3.3h9.113z" fill="#282D37" style="fill: currentColor;fill: var(--db-icon-color, currentColor)" fill-rule="evenodd"/></svg>
