<svg id="icon" height="24" viewBox="0 0 24 24" width="24" xmlns="http://www.w3.org/2000/svg"><path d="m18.001 11.5c-.113 0-.219.024-.329.033l-.561-1.684h1.89c.212 0 .416-.084.566-.234l1-1c.312-.312.312-.818 0-1.131-.312-.312-.819-.312-1.132 0l-.766.766h-2.092l-.818-2.453c-.109-.327-.415-.547-.759-.547h-2c-.442 0-.8.358-.8.8s.358.8.8.8h1.423l.685 2.055-3.399 4.534-2.271-5.589h.562c.442 0 .8-.358.8-.8s-.358-.8-.8-.8h-3c-.442 0-.8.358-.8.8s.358.8.8.8h.712l.863 2.125-1.24 1.772c-.422-.159-.87-.247-1.335-.247-2.095 0-3.8 1.704-3.8 3.8s1.705 3.8 3.8 3.8c1.907 0 3.475-1.416 3.744-3.25h1.756c.121 0 .232-.031.335-.079.031-.014.054-.038.083-.056.068-.043.13-.091.183-.152.011-.013.029-.019.039-.033l3.584-4.779.418 1.255c-1.153.653-1.942 1.877-1.942 3.294 0 2.096 1.705 3.8 3.8 3.8s3.8-1.704 3.8-3.8-1.705-3.8-3.8-3.8zm-7.688 2.75h-2.776l1.756-2.509 1.019 2.509zm-4.312 3.25c-1.213 0-2.2-.987-2.2-2.2s.987-2.2 2.2-2.2c.124 0 .247.01.367.03l-1.022 1.461c-.016.023-.019.051-.033.075-.026.047-.047.094-.064.146-.017.053-.027.105-.032.159-.003.027-.016.051-.016.078 0 .023.011.043.013.066.005.056.016.108.033.161.015.048.03.093.053.137.023.045.052.084.084.125.034.043.069.082.112.117.018.015.028.036.047.049.03.021.064.031.096.047.028.015.054.03.084.041.091.034.184.056.278.056h2.122c-.246.946-1.1 1.65-2.122 1.65zm12 0c-1.213 0-2.2-.987-2.2-2.2 0-.707.342-1.331.862-1.734l.579 1.737c.112.335.424.547.759.547.083 0 .169-.013.253-.041.419-.14.646-.593.506-1.012l-.559-1.677c1.118.103 2 1.036 2 2.18 0 1.213-.987 2.2-2.2 2.2z" fill="var(--db-icon-color, currentColor)" fill-rule="evenodd"/></svg>
