<svg id="icon" height="20" viewBox="0 0 20 20" width="20" xmlns="http://www.w3.org/2000/svg"><path d="m15 10.059c-.077 0-.15.016-.226.023l-.52-1.622h1.747a.7.7 0 0 0 .582-.311l.503-.75a.7.7 0 0 0 -1.163-.78l-.295.439h-1.822l-.649-2.027a.7.7 0 0 0 -.667-.486h-1.5a.7.7 0 1 0 0 1.4h.989l.596 1.862-2.535 3.26c-.014 0-.026-.008-.04-.008h-.582l-1.228-4.1h.06a.7.7 0 1 0 0-1.4h-2a.7.7 0 1 0 0 1.4h.479l.579 1.933-.93 1.557a2.668 2.668 0 0 0 -1.378-.391 2.703 2.703 0 0 0 -2.7 2.7c0 1.489 1.211 2.7 2.7 2.7a2.695 2.695 0 0 0 2.68-2.5h2.32a.7.7 0 0 0 .553-.271l2.54-3.266.361 1.128a2.696 2.696 0 0 0 -1.155 2.208c0 1.489 1.211 2.7 2.7 2.7s2.7-1.211 2.7-2.7-1.211-2.7-2.7-2.7zm-10 4a1.301 1.301 0 0 1 0-2.6 1.301 1.301 0 0 1 0 2.6zm10 0a1.301 1.301 0 0 1 0-2.6 1.301 1.301 0 0 1 0 2.6z" fill="#282D37" style="fill: currentColor;fill: var(--db-icon-color, currentColor)" fill-rule="evenodd"/></svg>
