<svg id="icon" height="32" viewBox="0 0 32 32" width="32" xmlns="http://www.w3.org/2000/svg"><path d="m7.101 22.83c.991 1.106 2.167 2.075 3.986 3.27l.57.36c.38.213.778.344 1.343.423a42.03 42.03 0 0 0 3 .117c.968.002 1.936-.033 2.905-.104.484-.061.848-.156 1.175-.303l.702-.4c2.037-1.331 3.057-2.18 4.113-3.358a88.927 88.927 0 0 1 -.548 2.032c-.205.676-.652 1.376-1.182 2.18a4.343 4.343 0 0 1 -2.196 1.708 1 1 0 0 1 -.853 1.238l-8.116.007a1 1 0 0 1 -.966-1.26 4.4 4.4 0 0 1 -2.02-1.474 10.859 10.859 0 0 1 -1.264-2.146c-.103-.238-.32-1.002-.649-2.292zm10.385-20.83c3.086 0 4.872 1.074 6.252 2.9a10.727 10.727 0 0 1 2.155 5.826l.016.373.082 3.266c.04 1.163-.02 2.468-.182 3.916a34.97 34.97 0 0 1 -1.203 1.71c-1.337 1.819-2.388 2.897-4.805 4.446-.394.252-.794.562-2.106.562h-3.42c-1.275 0-1.544-.222-2.076-.562-2.515-1.608-3.55-2.687-4.748-4.394-.8-1.138-1.22-1.728-1.262-1.77-.127-1.33-.19-2.397-.19-3.202.002-.805.033-2.129.093-3.972.056-2.24.815-4.407 2.17-6.199 1.331-1.76 3.116-2.9 6.318-2.896zm-4.892 16.04a1 1 0 0 0 -1.89.61l.97 3.009a1 1 0 0 0 1.89-.61l-.97-3.008zm6.7.027-.932 2.87a1 1 0 0 0 1.86.722l.933-2.87a1 1 0 0 0 -1.861-.722zm-3.294-13.067c-1.726 0-3.15.222-4.272.665-1.716.677-2.864 2.448-2.48 4.445.21 1.1.42 1.861.54 2.264a2.902 2.902 0 0 0 2.151 2.002l1.445.226c1.56.238 3.146.261 4.711.072l1.779-.263a2.902 2.902 0 0 0 2.344-2.038c.118-.391.271-.774.54-2.27.337-1.88-.72-3.675-2.29-4.355-1.377-.598-2.87-.748-4.468-.748z" fill="var(--db-icon-color, currentColor)" fill-rule="evenodd"/></svg>
