<svg id="icon" height="20" viewBox="0 0 20 20" width="20" xmlns="http://www.w3.org/2000/svg"><path d="m15.592115 14.9079034c-.4418086 1.2053697-1.4162518 2.1674223-2.6491026 2.6343635-.1648037-.4682015-.6550923-.7516656-1.1525415-.6450693-.7137457.1529455-1.3126009.2278024-1.7904709.2278024-.47786996 0-1.07672521-.0748569-1.79047091-.2278024-.49744924-.1065963-.98773775.1768678-1.15240585.6443302-1.2322997-.465942-2.20634397-1.427183-2.64849943-2.6316102.29570851.1336689 1.32909884.5506145 2.72349604.920278.34190875.0802256.29557668.0620964.72355637.1232629.31658737.0224052.59475816.0349524.83451237.0376414l2.78257031-.0038271c.1846236-.0051732.4072959-.0164396.6680171-.0337991.3416611-.0325447.5191401-.0739069.7236209-.1232643.9821425-.2724971 1.8913819-.5799324 2.7277181-.922306zm-4.142115-12.7579034c2.3486609 0 4.2831392 1.76559293 4.3949004 4.00513552l.0049414 6.91886448c-.7391704.4046799-1.4066327.7043523-2.0023869.8990172-.8936313.2919974-1.3313067.4171219-1.704912.4711278s-1.1265681.0540059-2.14054.0540059c-1.01397197 0-1.93049863-.0271237-2.14802749-.0540112-.48593333-.0600634-.81488786-.1644482-1.24464244-.3025851-.42975459-.138137-1.1328911-.4067204-1.52176884-.5712946-.25925183-.109716-.57182594-.2748027-.93772231-.49526l.00015818-6.715c0-2.26708072 1.86540005-4.0993525 4.18766556-4.20517205zm-4.42980287 9.3501496c-.42225247-.0105661-.79616468.2947376-.86071383.7232341-.06454914.4284965.20282797.8304047.60945432.9447017l1.21086525.182406c.42225247.0105661.79616468-.2947376.86071383-.7232341.06454914-.4284965-.20282797-.8304047-.60945432-.9447017zm4.74874047.182406c-.4066263.114297-.6740034.5162052-.6094543.9447017s.4384614.7338002.8607138.7232341l1.2108653-.182406c.4066263-.114297.6740034-.5162052.6094543-.9447017s-.4384614-.7338002-.8607138-.7232341zm-3.68299207-8.63328125c-1.05911109.13546564-1.82503601 1.07899014-1.7398889 2.143329l.31666765 3.95834564c.06978125.87226571.88693599 1.66194891 1.73841981 1.72696621.85148381.0650172 2.27949601.0701127 3.20333281-.0004293.9238369-.0705419 1.6589128-.8029615 1.7327988-1.72653691l.3166677-3.95834554c.0851473-1.06434007-.6807787-2.00786555-1.7398913-2.14332941-.2568299-.03284936-3.57127602-.03284926-3.82810657.00000031z" fill="var(--db-icon-color, currentColor)" fill-rule="evenodd"/></svg>
