<svg id="icon" height="32" viewBox="0 0 32 32" width="32" xmlns="http://www.w3.org/2000/svg"><path d="m18.61 2c3.9944658 0 7.2571346 3.10812128 7.3860436 7.00071736l.0039564 14.99928264c0 3.2302092-2.5523184 5.8638191-5.7499799 5.9950204-.0522029-.8413664-.7444552-1.2953107-1.4277938-1.197129-.9379049.1347577-1.8784968.2021086-2.8222263.2021086-.9373802 0-1.8783592-.0673787-2.8233617-.2022712-.6834284-.0975546-1.3362303.3549551-1.4261006 1.1972916-3.12384206-.1281501-5.63147589-2.6436711-5.74642054-5.7706489l-.00411716-14.9843715c0-3.92364767 3.1827795-7.11024191 7.1463756-7.23613622zm-7.61 21.8816013c-.6853066 0-1.125.5384997-1.125 1.1183987s.453638 1.125 1.125 1.1183987l2 .0066013c.666282 0 1.125-.545101 1.125-1.125s-.4438149-1.125-1.125-1.125zm8 0c-.6537132-.0066013-1.125.5384997-1.125 1.1183987s.4666798 1.1183987 1.125 1.125h2c.6632767-.0066013 1.125-.545101 1.125-1.125s-.4293199-1.1183987-1.125-1.125zm.3457302-18.8816013h-6.6903529c-1.4653921 0-2.6542298 1.20763626-2.6553773 2.69642217l.5898286 10.92863803c-.002295 1.3120297 1.0258897 2.3749398 2.2950546 2.3749398h6.1877355c1.2645748 0 2.2904644-1.0581649 2.2950545-2.3642631l.6323472-10.92507859c.0056775-1.49590361-1.1843081-2.71065831-2.6542902-2.71065831z" fill="var(--db-icon-color, currentColor)" fill-rule="evenodd"/></svg>
