<svg id="icon" height="20" viewBox="0 0 20 20" width="20" xmlns="http://www.w3.org/2000/svg"><path d="m4.5 14c.82842712 0 1.5.6715729 1.5 1.5s-.67157288 1.5-1.5 1.5-1.5-.6715729-1.5-1.5.67157288-1.5 1.5-1.5zm7 0c.8284271 0 1.5.6715729 1.5 1.5s-.6715729 1.5-1.5 1.5-1.5-.6715729-1.5-1.5.6715729-1.5 1.5-1.5zm-3 .65c.46944204 0 .85.380558.85.85 0 .4333311-.32648621.85-.85.85-.22957357 0-.5629069 0-1 0-.46944204 0-.85-.380558-.85-.85 0-.4333311.33977661-.85.85-.85zm5.5365593-11.5c1.367167 0 2.5324946.96874846 2.7952653 2.29379296l1.0165406 7.50006714c0 .3872598-.1560779.6593941-.4682336.816403-.3121788.1570089-.9788454.4903423-2 1-.4198818.2099409-.9304539.0397502-1.1403947-.3801315-.1937916-.3875832-.0812986-.9156031.3801315-1.1403947l1.4561316-.7287369-.8997852-6.66490022c-.0715343-.52972322-.5563464-.98968738-1.0177765-.98968738-.6245028 0-.9929692-.38697036-.9929692-.8564124 0-.43333111.3405407-.85.8710902-.85zm-1.0365593 4.85c.469442 0 .85.38055796.85.85 0 .43333111-.2847454.85-.85.85v1.8c-.0155715 1.0431375-.3798527 1.4890493-1.4542869 1.5h-7.02116203c-.74385803-.0075149-1.52455107-.2928382-1.52455107-1.5v-1.8c-.52320897 0-.85-.38055796-.85-.85 0-.43333111.34026489-.85.85-.85z" fill="var(--db-icon-color, currentColor)" fill-rule="evenodd"/></svg>
