<svg id="icon" height="24" viewBox="0 0 24 24" width="24" xmlns="http://www.w3.org/2000/svg"><path d="m3.067 17.823c.585.475 1.277.967 2.137 1.52.54.347 1.27.612 3.248.654v.904c0 .164.015.325.042.481l-.005.02c.007.033.02.064.02.1a.5.5 0 0 1 -.5.5l-.009-.002-2.004.002a1 1 0 0 1 -.923-1.386c-.364-.2-.729-.517-1.073-.982a5.865 5.865 0 0 1 -.932-1.811zm13.118-6.822h.143l1.521.001.57.002.176.001c.696.006 1.384.563 1.542 1.188.106.417.331 1.43.675 3.038l.192.665h.018c.554.057.982.523.982 1.088v.25c0 .518-.358.951-.839 1.067-.048.442-.084.723-.107.845-.012.06-.027.122-.045.187.003.032.004.066.004.099v1.467a1.1 1.1 0 0 1 -1.1 1.1h-.214a1.1 1.1 0 0 1 -1.1-1.1l-.113.035a19.446 19.446 0 0 1 -5.808 0l-.114-.043c0 .616-.493 1.108-1.1 1.108h-.214a1.1 1.1 0 0 1 -1.1-1.1v-1.467l.004-.096a.276.276 0 0 1 -.008-.027c-.029-.106-.074-.433-.137-.98l.086.003a1.097 1.097 0 0 1 -1.097-1.097v-.25c0-.606.491-1.097 1.097-1.097l.063.003.192-.661.631-2.904c.198-.681.782-1.326 1.731-1.326h3.47zm-.056 7.7h-1.094a.55.55 0 1 0 0 1.1h1.094a.55.55 0 1 0 0-1.1zm-4.729-1.296-.003.011a.604.604 0 0 0 .426.739l1.163.316a.607.607 0 0 0 .744-.43l.003-.011a.605.605 0 0 0 -.426-.739l-1.163-.316a.607.607 0 0 0 -.744.43zm7.623-.43-1.167.316a.605.605 0 0 0 -.426.739l.003.011a.605.605 0 0 0 .74.43l1.167-.316a.605.605 0 0 0 .426-.739l-.003-.011a.606.606 0 0 0 -.74-.43zm-9.018-14.975c2.01 0 3.44.756 4.406 2.041.885 1.177 1.48 2.785 1.52 4.362l.01.381c-.004.009 0 .014 0 .019a.5.5 0 0 1 -.5.5l-2.082-.001c.031-.073.076-.138.1-.215.074-.25.292-1.125.324-1.314.33-1.459-.642-3.02-1.986-3.396-1.164-.326-1.877-.37-2.513-.375h-.444c-.673 0-1.409.026-2.643.373-1.329.374-2.229 1.888-2.017 3.225.185.82.304 1.316.355 1.487a2.144 2.144 0 0 0 1.578 1.478c1.113.191 2.074.289 2.883.293.263.001.553-.023.837-.041a3.734 3.734 0 0 0 -.482 1.037l-.016.056-.012.056-.557 2.561a2.797 2.797 0 0 0 -1.466 2.459v.25c0 .254.041.498.106.733-.776-.078-1.06-.272-1.12-.311-1.835-1.18-2.759-1.989-3.57-3.016l-.528-.706c-.124-.865-.193-2.024-.187-3.191a59.28 59.28 0 0 1 .06-2.342 7.565 7.565 0 0 1 1.518-4.362c.918-1.22 2.27-1.964 4.12-2.035l2.305-.006zm8.695 10.501h-6.267l-.774 3.389h7.827zm-13.392-.483a1 1 0 0 0 -.655 1.156l.658 1.932a1 1 0 0 0 1.88-.64l-.658-1.932a1 1 0 0 0 -1.225-.516z" fill="var(--db-icon-color, currentColor)" fill-rule="evenodd"/></svg>
