<svg id="icon" height="20" viewBox="0 0 20 20" width="20" xmlns="http://www.w3.org/2000/svg"><path d="m8.58062024 2.00181725h2.83875956c1.1974031.01712394 1.8452236.15753789 2.5174876.51706861.6631574.35466044 1.1895863.88108936 1.5442467 1.54424673.3595308.67226399.4999447 1.32008449.5170687 2.51748765l.0018172 6.57355196c0 1.3701896-.1336744 2.0624124-.5188859 2.7826952-.3546604.6631574-.8810893 1.1895863-1.5442467 1.5442467-.672264.3595308-1.3200845.4999447-2.5174876.5170687l-2.573552.0018172c-1.37018965 0-2.06241236-.1336744-2.78269521-.5188859-.66315737-.3546604-1.18958629-.8810893-1.54424673-1.5442467-.35953072-.672264-.49994467-1.3200845-.51706861-2.5174876v-6.83875956c.01712394-1.19740316.15753789-1.84522366.51706861-2.51748765.35466044-.66315737.88108936-1.18958629 1.54424673-1.54424673.67226399-.35953072 1.32008449-.49994467 2.51748765-.51706861zm-1.33062024 12.49818275c-.55228475 0-1 .4477153-1 1 0 .5128358.38604019.9355072.88337887.9932723l.86662113.0067277c.55228475 0 1-.4477153 1-1 0-.5128358-.38604019-.9355072-.88337887-.9932723zm4.75 0c-.5522847 0-1 .4477153-1 1 0 .5128358.3860402.9355072.8833789.9932723l.8666211.0067277c.5522847 0 1-.4477153 1-1 0-.5128358-.3860402-.9355072-.8833789-.9932723zm.9132005-10.5-5.90944643.00345424c-.51106438.0425887-.9002168.46239636-.91648065.96281424l.56361264 6.84436432c.03527146.4232574.08891978.5736449.18036923.7242537.09144946.1506087.21782075.2668871.37550373.3455133.13797261.0687979.27337294.1087684.58959949.117686l4.26015159.0019142c.4247246 0 .5790479-.040974.7367309-.1196002s.2840543-.1949046.3755037-.3455133c.0800183-.1317827.1310951-.2633959.1662431-.5777896.3854751-4.61958611.5782127-6.93861841.5782127-6.9570969 0-.55228475-.4477153-1-1-1z" fill="var(--db-icon-color, currentColor)" fill-rule="evenodd"/></svg>
