<svg id="icon" height="24" viewBox="0 0 24 24" width="24" xmlns="http://www.w3.org/2000/svg"><path d="m15.837 2.15c.837 0 1.267.07 1.73.278.436.197.8.496 1.079.885.265.371.415.739.563 1.407l.368 1.834a.85.85 0 0 1 1.566.34l.007 3.106a.85.85 0 0 1 -1.3.721v6.715c0 .941-.095 1.431-.368 1.942a2.67 2.67 0 0 1 -.68.824l-.002.798a1 1 0 0 1 -1 1h-.6a1 1 0 0 1 -1-1l-.001-.15h-8.399v.15a1 1 0 0 1 -1 1h-.6a1 1 0 0 1 -1-1l-.002-.798a2.67 2.67 0 0 1 -.68-.824c-.25-.468-.351-.919-.366-1.716l-.002-6.941a.85.85 0 0 1 -1.294-.614l-.006-3.107a.85.85 0 0 1 1.573-.446l.32-1.6c.164-.82.316-1.229.611-1.641.279-.39.643-.688 1.08-.885.415-.187.805-.263 1.49-.276zm-8.854 14.65a1 1 0 0 0 -.198 1.977l2.232.223a1 1 0 0 0 .198-1.977zm7.802.223a1 1 0 0 0 .198 1.977l2.232-.223a1 1 0 0 0 -.198-1.977zm1.225-13.172c-.59 0-7.586-.006-8.02 0s-.997.103-1.19.363c-.193.259-.232.347-.39 1.074-.106.485-.293 1.417-.561 2.798v6.84c2.266.33 4.434.52 6.151.52 1.76 0 3.81-.173 6.148-.52l.001-6.845-.626-3.11c-.216-.8-.492-.92-.655-.993-.123-.055-.269-.127-.858-.127zm-.51 3.299a.85.85 0 0 1 0 1.7h-7a.85.85 0 1 1 0-1.7z" fill="#282D37" style="fill: currentColor;fill: var(--db-icon-color, currentColor)" fill-rule="evenodd"/></svg>
