<svg id="icon" height="20" viewBox="0 0 20 20" width="20" xmlns="http://www.w3.org/2000/svg"><path d="m3.012 15.202c.7.505 1.199.848 1.493 1.028.44.271.997.47 1.658.514h1.337v1.258h-1.996a1 1 0 0 1 -.975-.779c-.6-.426-1.118-1.069-1.517-2.021zm10.534-5.7.265.001h.736l.458.001h.243l.1.001.149.001c.577.005 1.147.461 1.278.972.088.341.274.669.559 1.985l.158.537h.508v2l-.38.002c-.04.346-.067.567-.086.664a1.4 1.4 0 0 1 -.034.139v2.195h-2v-.907l-.094.035a16.372 16.372 0 0 1 -4.812 0l-.094-.034v.906h-2v-2.189l-.003-.011a8.886 8.886 0 0 1 -.113-.799h-.384v-2h.508l.158-.538.523-1.876c.163-.557.648-1.085 1.434-1.085zm-6.067-7.501c3.684 0 5.474 2.503 5.52 6.006v.494h-1.964a25.54 25.54 0 0 0 .369-1.682c.128-.864-.673-2.063-1.333-2.365s-1.515-.453-2.567-.453c-1.154 0-2.072.182-2.754.546a2.272 2.272 0 0 0 -1.144 2.276c.196.947.32 1.511.374 1.692.159.546.596.962 1.14 1.099.97.174 1.765.262 2.384.266.279.002.593-.019.924-.051a2.675 2.675 0 0 0 -.196.475l-.482 1.728c-.43.112-.748.503-.748.968v2c0 .087.012.17.033.25h-.622c-.474 0-.946-.175-1.261-.386a53.604 53.604 0 0 1 -1.642-1.159 24.713 24.713 0 0 1 -1.142-.898c-.244-1.311-.366-2.244-.366-2.798v-2.002c0-3.504 1.708-6.006 5.477-6.006zm2.668 11.888a.5.5 0 0 0 -.258.966l.966.259a.5.5 0 0 0 .258-.966zm5.797-.015-.09.015-.965.259a.5.5 0 1 0 .258.966l.966-.259a.5.5 0 1 0 -.258-.966zm-11.177-3.084a.75.75 0 0 0 -.5.85l.564 1.693a.75.75 0 0 0 1.41-.47l-.564-1.693a.75.75 0 0 0 -.91-.38zm10.634.211h-4.8l-.59 2h5.989l-.6-2z" fill="var(--db-icon-color, currentColor)" fill-rule="evenodd"/></svg>
