<svg id="icon" height="32" viewBox="0 0 32 32" width="32" xmlns="http://www.w3.org/2000/svg"><path d="m24.376 13.999c-.24 0-.468.04-.7.071l-.703-2.311 2.906-.009c.231 0 .452-.093.616-.256l1-1c.342-.342.342-.896 0-1.238s-.896-.342-1.237 0l-.745.745-3.072.01-.728-2.391c-.112-.368-.452-.62-.837-.62h-3c-.483 0-.875.392-.875.875s.392.875.875.875h2.352l.613 2.015-5.635 6.834-2.615-7.844h.283.001c.482 0 .874-.391.875-.874 0-.482-.39-.875-.874-.876l-3-.005h-.001c-.482 0-.874.391-.875.874 0 .482.39.875.874.876h.871s1.01 3.032 1.01 3.032l-1.653 1.974c-.824-.489-1.75-.756-2.727-.756-2.964 0-5.375 2.411-5.375 5.375s2.411 5.375 5.375 5.375c2.664 0 4.865-1.953 5.287-4.5h2.213c.128 0 .247-.03.356-.079.031-.014.054-.039.083-.056.076-.045.147-.094.205-.159.009-.01.022-.013.031-.024l5.901-7.157.549 1.803c-1.77.88-3 2.69-3 4.797 0 2.964 2.411 5.375 5.375 5.375s5.375-2.411 5.375-5.375-2.411-5.375-5.375-5.375zm-10.714 4.5h-4.412l3.156-3.768zm-6.286 4.5c-1.999 0-3.625-1.626-3.625-3.625s1.626-3.625 3.625-3.625c.56 0 1.094.133 1.583.372l-2.254 2.691c-.026.031-.035.07-.056.104-.033.053-.067.103-.088.162-.021.058-.028.117-.036.178-.006.04-.024.076-.024.118 0 .013.007.024.008.038.003.062.021.12.036.18.014.052.021.104.043.151s.056.086.087.128c.036.051.069.102.115.144.01.009.014.021.024.03.042.035.09.052.136.078.037.021.069.047.109.062.102.04.209.064.317.064h3.506c-.394 1.575-1.81 2.75-3.506 2.75zm17 0c-1.999 0-3.625-1.626-3.625-3.625 0-1.318.714-2.462 1.768-3.097l1.02 3.352c.115.377.461.62.836.62.084 0 .17-.012.255-.038.462-.141.723-.629.582-1.092l-1.02-3.352c.062-.003.12-.018.183-.018 1.999 0 3.625 1.626 3.625 3.625s-1.626 3.625-3.625 3.625z" fill="var(--db-icon-color, currentColor)" fill-rule="evenodd"/></svg>
