<svg id="icon" height="24" viewBox="0 0 24 24" width="24" xmlns="http://www.w3.org/2000/svg"><path d="m12.982 2c1.668 0 2.55.174 3.443.652a4.634 4.634 0 0 1 1.923 1.923c.448.838.629 1.665.65 3.14l.002 8.267c0 1.668-.174 2.55-.652 3.443a4.634 4.634 0 0 1 -1.923 1.923c-.453.242-1.039.463-1.454.51-.181-.48-.727-.85-1.213-.728-.542.183-1.062.22-1.756.22s-1.213-.055-1.538-.15c-.66-.248-1.18-.024-1.434.657a5.175 5.175 0 0 1 -1.455-.51 4.634 4.634 0 0 1 -1.923-1.922c-.448-.838-.629-1.665-.65-3.14l-.002-8.267c0-1.668.174-2.55.652-3.443a4.634 4.634 0 0 1 1.923-1.923c.838-.448 1.665-.629 3.14-.65zm-4.099 16.007a1 1 0 0 0 0 1.986h1.234a1 1 0 0 0 0-1.986zm5.117-.007a1 1 0 0 0 -.117 1.993l1.117.007a1 1 0 0 0 .117-1.993zm.783-14-5.688.004a2 2 0 0 0 -1.878 1.97l.461 7.598c.045.727.338 1.474.338 1.474.18.307.434.546.752.708.239.12.474.199.94.23h4.584c.466-.031.701-.11.94-.23.318-.162.572-.4.752-.708.181-.308.278-.687.325-1.285.316-5.147.474-7.734.474-7.761a2 2 0 0 0 -2-2z" fill="#282D37" style="fill: currentColor;fill: var(--db-icon-color, currentColor)" fill-rule="evenodd"/></svg>
