<svg id="icon" height="24" viewBox="0 0 24 24" width="24" xmlns="http://www.w3.org/2000/svg"><path d="m18.546 18.654a5.533 5.533 0 0 1 -3.568 3.143 1 1 0 0 0 -1.188-.775c-.713.153-1.312.228-1.79.228s-1.077-.075-1.79-.228c-.502-.107-1.077.19-1.19.775a5.532 5.532 0 0 1 -3.565-3.142c1 .45 2.832 1.087 3.68 1.238.578.096 1.442.106 2.864.107 1.423.001 2.243-.014 2.846-.102.714-.15 1.716-.433 3.7-1.244zm-4.806-16.654c2.835 0 5.142 2.267 5.256 5.1v9.035c-1.346.952-4.08 1.711-4.452 1.788-.637.089-1.187.077-2.545.077-1.357 0-2.096.028-2.765-.122-1.745-.495-3.283-1.08-4.233-1.743l-.001-8.815c0-2.862 2.236-5.2 5.043-5.316zm-5.442 12.001a1 1 0 0 0 -.326 1.96l1.73.288a1 1 0 0 0 .326-1.96zm8.438.835a1 1 0 0 0 -1.034-.836l-1.73.288a1 1 0 0 0 .326 1.96l1.73-.288a1 1 0 0 0 .708-1.125zm-7.129-11.774a2.5 2.5 0 0 0 -2.174 2.678l.436 5.461a1.75 1.75 0 0 0 1.612 1.606c1.04.087 1.881.13 2.521.13s1.479-.043 2.517-.13a1.75 1.75 0 0 0 1.612-1.606l.436-5.461a2.5 2.5 0 0 0 -2.174-2.68c-.16-.02-.603-.06-2.393-.061-1.79 0-2.231.04-2.393.062z" fill="var(--db-icon-color, currentColor)" fill-rule="evenodd"/></svg>
