<svg id="icon" height="32" viewBox="0 0 32 32" width="32" xmlns="http://www.w3.org/2000/svg"><path d="m10 19c1.1045695 0 2 .8954305 2 2s-.8954305 2-2 2-2-.8954305-2-2 .8954305-2 2-2zm-2.05623816-12.24019824c.48375817.08303159 2.02360303.60491851 4.61953456 1.56566078 2.1127776.7379613 4.0590551 1.88582226 5.7271737 3.37772986 1.8007831 1.6105581 3.2975257 3.1685379 4.4902103 4.6764497.1945089.2459177.262416.5688275.183434.8722596-.3937264 1.6793638-.6430029 2.6078344-.7478296 2.7854119-.7200277 1.2197343-1.5845631 1.9626864-2.6584579 1.9626864l-5.6542499-.1230754c.573761-2.907701-1.7283986-4.8769246-3.903577-4.8769246-2.17517838 0-4.22513446 1.852614-3.97362503 4.4618465-.42620554-.0562643-.85023825-.1370335-1.26892041-.241704-1.03287385-.2582185-1.75746438-1.1862569-1.75746438-2.2509189-.01978919-1.9462589-.01169226-3.0090234.02429078-3.1882933.32933711-1.4715844.83208739-3.710772 1.50825086-6.71756285.35000342-1.55887197 1.85468674-2.55952821 3.41123002-2.30356569zm20.97003126 11.55054304c.5522848 0 1 .4477153 1 1 0 .5522848-.4477152 1-1 1-.3234267 0-.6258906.0479179-.9423119.1819732-.2109476.0893702-.8169452.385395-1.8179929.8880743-.3438704.1695398-.7163962.2712791-1.097265.3004828-.1175682.0058534-.3604473.0087801-.7286371.0087801-.5522847 0-1-.4477153-1-1 0-.5128359.4321184-.9715003.8833789-.9932723.1911335-.0044852.396433-.0067277.6158982-.0067277.1529067.0044851.3003094-.0298774.4422084-.1030877l1.6411778-.8091565c.6231988-.3072582 1.3087168-.4670662 2.0035436-.4670662zm-22.45628961-8.44288041-.65833054 2.91317361c-.12049886.5389791.21874641 1.0735917.75772551 1.1940905.50048059.1118918.99719612-.1726284 1.16208014-.6453819l.53010881-2.3373466 3.26336329 1.1467929c1.0477149.3679637 2.025898.9075338 2.8948981 1.5957651l1.4819346 1.2660442c.4183146.3605987 1.0497485.3138107 1.4103471-.1045039.3328603-.3861365.3185982-.9538658-.0145812-1.3225446l-1.2511777-1.0888363c-1.0322403-.8898195-2.2077446-1.5966446-3.4756128-2.0910207-2.1530256-.76889242-3.60230544-1.27667212-4.34783939-1.52333906-.76091167-.17011603-1.51602138.27063902-1.75291592.99710675z" fill="var(--db-icon-color, currentColor)" fill-rule="evenodd"/></svg>
