<svg id="icon" height="24" viewBox="0 0 24 24" width="24" xmlns="http://www.w3.org/2000/svg"><path d="m11.469493 4.3c-2.56463723 0-5.419493 1.62825076-5.419493 4.65537569 0 2.62295021 1.74858406 3.62578871 3.65613031 4.25353761 1.36145649.3889284 1.76394619.4595451 2.88120869.8500759 1.1172626.3905308 1.9258079.9069833 1.9258079 1.9408325 0 .8857382-1.1281076 1.7165553-2.5303104 1.7165553-2.19991884 0-4.46585201-1.3166522-5.81321237-3.2920387v3.0804308c1.31586538 1.221188 3.72707167 2.1952309 5.81321237 2.1952309 3.7442352 0 5.9671635-2.7616727 5.9671635-5.1345897 0-2.6229852-1.7141611-3.574068-3.6119823-4.1413614-1.4283593-.3946572-1.0709099-.2524991-2.4814196-.63564897-1.4105097-.38314986-2.50757275-.8834071-2.50757275-2.16028553 0-.8496626.75259175-1.57548337 2.06897725-1.57548337 2.2247826 0 4.4050202 1.24118013 5.6259747 2.76113422v-2.56621796c-1.521827-1.22172651-3.4368532-1.94754729-5.5744843-1.94754729z" fill="var(--db-icon-color, currentColor)" fill-rule="evenodd"/></svg>
