<svg id="icon" height="20" viewBox="0 0 20 20" width="20" xmlns="http://www.w3.org/2000/svg"><path d="m13.6307775 3c.8409311 0 1.640532.5942682 1.8591171 1.41010287.1457235.54388979.4167586 1.74052216.8131054 3.58989713h1.697v2h-1.105c-.1499677 1.3655971-.2499811 2.2419267-.3000404 2.628989-.0500592.3870622-.2480805.7857194-.5940641 1.1959716v2.2327551h-2.5008955v-1.3167157c-1.1666667.1726667-2.3333333.259-3.5.259-1.16666667 0-2.33333333-.0863333-3.5-.259l-.00672773 1.3167157h-2.49327227l-.00002139-2.2317779c-.35577897-.4064396-.56406842-.8712931-.62486834-1.3945602-.06079992-.5232672-.15117001-1.3337264-.27111027-2.4313776h-1.104v-2h1.696l.76116229-3.43162637c.23801091-.80507112.94283771-1.56164568 1.83736282-1.56164568s6.49532139-.00672795 7.33625239-.00672795zm-4.9936223 8.0084903c-.25838463.0391908-.47846821.2110269-.57915636.4521917l-.30364651 1.2078088c-.03654606.3304713.11747507.6306927.48552378.7814952s.82550027-.1052925.95261184-.4116918l.14251205-.5382942h1.329l.1397183.5289731c.136966.3431006.5098244.5407235.8781834.4486338.368359-.0920898.6043527-.4419258.563746-.8091161l-.3036465-1.2078088c-.1006882-.2411648-.3207718-.4130009-.5791564-.4521917zm-3.71895107-.655297c-.4035973-.0931778-.80631306.1584669-.89949084.5620642-.08541296.3699642.11892077.7391877.46444223.8699263l1.55917713.3669912c.40359729.0931777.80631306-.158467.89949084-.5620643.08541296-.3699642-.11892078-.7391876-.46444223-.8699263zm11.07361937.5620642c-.085413-.3699642-.4309238-.612246-.7987885-.5782865l-1.5622575.3536489c-.4035972.0931777-.655242.4958935-.5620642.8994908.085413.3699642.4309238.612246.7987885.5782865l1.5622574-.3536488c.4035973-.0931778.6552421-.4958936.5620643-.8994909zm-2.034082-6.2152575h-7.91448305l-.64325845 3.3h9.2z" fill="var(--db-icon-color, currentColor)" fill-rule="evenodd"/></svg>
