<svg id="icon" height="20" viewBox="0 0 20 20" width="20" xmlns="http://www.w3.org/2000/svg"><path d="m16.313 6.569-2.424.803.502 1.39c1.594-.518 2.702-.878 3.325-1.078.566 1.078.16 2.142-1.266 2.578l-3.309 1.037-2.608 4.768a.73.73 0 0 1 -.392.309l-.595.154c-.393.112-.785-.196-.785-.617l-.028-3.225-2.294.715a2.323 2.323 0 0 1 -2.944-1.402l-1.458-4.094c-.085-.281-.032-.527.241-.663l.483-.2c.2-.088.42-.024.615.148l1.588 1.57 7.504-2.342c1.408-.453 2.815-.3 3.845.149zm-9.596 3.164a.75.75 0 1 0 .86 1.23.75.75 0 0 0 -.86-1.23zm2.49-.75a.748.748 0 1 0 .859 1.229.75.75 0 1 0 -.858-1.229zm2.491-.764a.749.749 0 1 0 .858 1.23.749.749 0 1 0 -.858-1.23zm-4.006-5.008 2.695 2.539-3.207.983-1.324-2.546a.696.696 0 0 1 .462-.977l.654-.184a.753.753 0 0 1 .72.185z" fill="#282D37" style="fill: currentColor;fill: var(--db-icon-color, currentColor)" fill-rule="evenodd"/></svg>
