<svg id="icon" height="20" viewBox="0 0 20 20" width="20" xmlns="http://www.w3.org/2000/svg"><path d="m9.909 4.375c-1.873 0-3.959 1.19-3.959 3.4 0 1.968 1.346 2.688 2.783 3.144.615.191.97.278 1.797.52.916.294 1.602.668 1.602 1.483 0 .647-.824 1.254-1.848 1.254-1.59 0-3.297-.966-4.247-2.405v2.25c.962.892 2.723 1.604 4.247 1.604 2.735 0 4.36-2.017 4.36-3.75 0-1.909-1.242-2.606-2.621-3.02a81.703 81.703 0 0 0 -1.65-.423c-1.116-.287-2.013-.64-2.013-1.626 0-.62.55-1.15 1.511-1.15 1.6 0 3.144.877 4.11 2.016v-1.874a6.442 6.442 0 0 0 -4.071-1.423z" fill="#282D37" style="fill: currentColor;fill: var(--db-icon-color, currentColor)" fill-rule="evenodd"/></svg>
