<svg id="icon" height="32" viewBox="0 0 32 32" width="32" xmlns="http://www.w3.org/2000/svg"><path d="m22.5 5.17282646c1.241655.096724 2.3437459.81097305 2.7166158 1.98816059l1.4096842 5.83801295 2.3909.0009c.5125714 0 .9070153.3561071.9607493.8497423l.0062507 1.1162577c0 .5125714-.3578316.9647857-.8509125 1.0267726l-1.3069172.0059229c.0210483.3512826.0113543.7512798-.0225365 1.2373924-.0225938.324075-.1506883 1.6819954-.3842837 4.073761-.0423019.4372635-.1492211.8300648-.3188976 1.1695971l-.0006525 2.2387114c0 .4457594.0006525 1.2819426-1.281943 1.2819426h-1.536114c-1.2991511 0-1.281943-.8361832-1.281943-1.2819426l-.0007-.7730574c-2.3687188.1291536-4.7044021.1939786-7.00705.1944751-2.3026479.0004964-4.6052979-.0633286-6.90795-.1914751l.00035017.7700574c0 .4457594-.00035017 1.2819426-1.281943 1.2819426h-1.536114c-1.281943 0-1.281943-.8361832-1.281943-1.2819426l.00027475-2.01674c-.20038183-.3317958-.33703606-.7248698-.40454412-1.1669015-.27240206-2.8236647-.40860308-4.2354971-.40860308-4.2354971-.03756718-.5083504-.04998346-.9308685-.029651-1.3010866l-1.17482672.0020678c-.553 0-.967-.482-.967-1.034v-1c0-.553.414-.966.967-.966l2.406-.0009 1.4848995-5.55206594c.30276415-1.21105659 1.1457358-2.07312856 2.5876752-2.15330467 2.1725985-.12080293 4.394501-.29000159 6.5917515-.29100603 2.1541246-.00081849 4.2743973.06214636 6.4623738.1702031zm-9.8705636 12.33440634c-.3958802.0477851-.7266581.3279961-.8388754.710634l-.2894911 1.7338746c-.0228765.4616016.3054937.9373194.8345311 1.0346525.5290374.0973332.9969156-.263997 1.1249843-.7080666l.1364147-.7783273h4.805l.1374147.7783273c.1387411.4810754.6191261.7923763 1.1249843.7080666.5058581-.0843097.8593139-.5345841.8345311-1.0346525l-.2894911-1.7338746c-.1122173-.3826379-.4429952-.6628489-.8388754-.710634zm-6.14664447-.7571799c-.50061833.0079914-.92680005.3901526-.97782912.9004434-.05102907.5102907.2910379.9692768.78016055 1.0762423l2.73208471.2732085c.50061833-.0079914.92680005-.3901526.97782912-.9004434.05102911-.5102907-.2910379-.9692768-.78016055-1.0762423zm16.30233147.2732085c-.4891227.1069655-.8311897.5659516-.7801606 1.0762423.0510291.5102908.4772108.892452.9778291.9004434l2.7320847-.2732085c.4891227-.1069655.8311897-.5659516.7801606-1.0762423-.0510291-.5102908-.4772108-.892452-.9778291-.9004434zm-13.16201777-10.03510081c-.48227952.02426528-.91651143.30601447-1.08035565.7557499l-1.41644998 5.25508951c2.9351048-.1238405 5.8824581-.1857608 8.84206-.1857608 2.9560648 0 5.9243781.0619203 8.90494.1857608l-1.2576361-5.25508951c-.1181405-.47256189-.5017111-.84588635-.9952099-.86480265-2.2213706-.08514734-4.4128292-.1749591-6.6192439-.17603866-2.1260348-.00101423-4.2106491.17603866-6.37810447.28509141z" fill="var(--db-icon-color, currentColor)" fill-rule="evenodd"/></svg>
