<svg id="icon" height="24" viewBox="0 0 24 24" width="24" xmlns="http://www.w3.org/2000/svg"><path d="m12.5620092 17.7674381c.3137385.2656735.6587073.4821308.819077.5768382.4999924.2952739 1.1008233.5528841 1.6188007.5528005.5179774-.0000837 1.0996729-.2187867 1.6677574-.5533314.2682832-.1579918.4406168-.2649185.8227497-.5774933s.900599-.273349 1.208091.0881162c.1309767.1539666.3911289.4097524.735942.6651982.4796554.3553402 1.096131.6304335 1.565573.6304335s.85.380558.85.85-.380558.85-.85.85c-1.007183 0-2.015183-.4413333-3.024-1.324-1.1137441.7370637-2.117563 1.093739-3.0114567 1.070026-.8938937-.0237131-1.8870748-.4003884-2.9795433-1.130026-1.1371538.7541518-2.16015369 1.1312277-3.06899963 1.1312277-.90884595 0-1.88851274-.3554092-2.93900037-1.0662277-1.03136892.8793333-2.02370225 1.319-2.977 1.319-.46856327 0-.85010129-.380558-.85010129-.85 0-.4333311.35153562-.85.85010129-.85.46908569 0 .97597264-.2314414 1.52284774-.6327323.35315337-.2591401.62598604-.5192798.76742508-.6778802.31778499-.3563431.85350119-.3730104 1.21523845-.0548303.36173727.3181802.56591304.4427541.76873971.5673352.56096472.3445582 1.1426344.5451844 1.64174939.5451844s1.13773503-.2682548 1.66061173-.5619782c.1556282-.0874234.5627079-.323847.8849099-.5876516.3222021-.2638046.7867486-.2456824 1.1004872.0199911zm-1.7038915-11.6174381c1.2192159-.20768903 2.972037.65578606 3.9263294 1.81341781.3902545.47340932.6788023.94257986.8654343 1.34410274l6.1902933-1.14234449c.6592007-.12626397 1.1828865.51946406.9594254 1.12449113l-3.0199271 6.11735381c-.2180008.4842075-.8572952.665724-1.2422195.3614086-.2566163-.2028769-.4501007-.3736867-.5804535-.5124296-.9793625 1.0627229-1.9650292 1.5940843-2.957 1.5940843s-1.9919708-.5226948-3-1.5680843c-1.0353671 1.0451727-2.03517279 1.5678674-2.99941713 1.5680843-.96424433.0001045-1.96477196-.522257-3.00158287-1.5670843-1.02236479 1.0447229-2.02203145 1.5670843-2.999 1.5670843-.46160788 0-.85-.4134154-.84337729-.7434621l-.00662271-3.6066222c0-.3731331.23809891-.7243051.5898059-.8092541.23447132-.0566327 1.18146286-.2328508 2.84097463-.5286545.49445806-.346326.78691503-1.74701721.57690559-3.29804171-.05562313-.41080457.21405689-.85410804.68455504-.94928148zm8.6311078 5.1850374c-.0840982-.4250922-.4715953-.712958-.8929213-.6830721l-10.31861864 2.0413851c-.40096746.1327927-.64966476.54652-.5655666.9716122.08409815.4250922.47159523.712958.89292125.6830721l10.31861869-2.0413851c.4009674-.1327927.6496647-.54652.5655666-.9716122zm-11.5712255-2.8940374c.04664661.84866719-.0238198 1.672642-.20361874 2.3272141 4.11720464-.7593056 6.17580694-1.13895847 6.17580694-1.13895847-.8305236-1.3393217-2.0097772-1.90651226-2.867151-1.77725563z" fill="var(--db-icon-color, currentColor)" fill-rule="evenodd"/></svg>
