<svg id="icon" height="32" viewBox="0 0 32 32" width="32" xmlns="http://www.w3.org/2000/svg"><path d="m18.527864 2.15c.3687071 0 .7331946.07153716 1.0734636.2098904l.778804.37984649c.4198817.20994086.5900724.72051294.3801315 1.14039467-.1937916.38758312-.6437423.56241177-1.0420671.42189092l-.6760363-.33061375c-.1197628-.05988141-.2487485-.09823311-.3810744-.11366638l-1.8110853-.00774235v2.65l2.7863219.01379596c.9174432.03667015 1.6655177.17185526 2.3173695.52046945.6518519.34861418 1.163429.86019133 1.5120432 1.51204318s.4837993 1.39992632.5204694 2.31736951c.013796 1.2522114 0 11.5837336 0 13.7726438s-.1718552 2.6655177-.5204694 3.3173695c-.3486142.6518519-.8601913 1.163429-1.5120432 1.5120432-.6518518.3486142-1.4577394.5347951-2.8092074.5327259s-4.8599656.0020599-6.288968 0-2.1573556-.1841117-2.8092074-.5327259c-.65185186-.3486142-1.16342901-.8601913-1.51204319-1.5120432-.34861419-.6518518-.4837993-1.3999263-.52046945-2.3173695-.03667015-.9174431-.03667015-13.8552007 0-14.7726438.03667015-.91744319.17185526-1.66551766.52046945-2.31736951.34861418-.65185185.86019133-1.163429 1.51204319-1.51204318.6518518-.34861419 1.3999263-.4837993 2.3173695-.52046945l2.7863219-.01379596v-2.65h-1.677864c-.1338989 0-.2664187.02338136-.3916764.06875533l-.700328.34150778c-.4198818.20994086-.9304539.03975017-1.1403947-.38013155-.1937916-.38758313-.0636841-.85244089.2877275-1.08678825l.6701128-.3424608c.3297817-.16489083.8024228-.30088251 1.2745588-.30088251zm-7.674713 22.7c-.6488372 0-1.15.5572144-1.15 1.15s.4779195 1.143252 1.15 1.15h1.996849c.6963911 0 1.15-.5572144 1.15-1.15s-.4502797-1.143252-1.15-1.15zm8.296849.006748c-.6943918-.006748-1.15.5504664-1.15 1.143252s.4793963 1.15 1.144484 1.15h2.005516c.6682958 0 1.15-.5572144 1.15-1.15s-.4712629-1.15-1.15-1.15zm3.15-12.656748h-12.6v9.0343698c0 .4876431.4695349.9416423.9300977.9975557 1.7899674.125383 3.5799349.1880745 5.3699023.1880745 1.7899593 0 3.5799185-.0626909 5.3698778-.1880728.4864755-.0340763.8715104-.4121919.9240141-.8865234zm-9.3-3.55c-.5210856 0-.85.41666889-.85.85s.3484206.85.85.85h6c.509151 0 .85-.41666889.85-.85s-.3457947-.85-.85-.85z" fill="var(--db-icon-color, currentColor)" fill-rule="evenodd"/></svg>
