<svg id="icon" height="32" viewBox="0 0 32 32" width="32" xmlns="http://www.w3.org/2000/svg"><path d="m27.7453114 10.6397537c-1.0230442.3319198-2.0446065.6656409-3.0646869 1.0011632-.6397078.2784539-.7990847.7738169-.6397078 1.2612589.1593768.4874419.7140312.8334244 1.2612588.6397078 1.789105-.5817034 1.827908-.6383731 3.5743975-1.1690388.4732179 1.7942518-.5074351 3.5013175-2.183573 4.0294554l-5.45 1.715-4.242 7.788c-.136.25-.368.433-.643.507l-.568.154c-.661.178-1.311-.319-1.312-1.003l-.009-5.315-4.199 1.317c-2.265.668-4.212-.639-4.851-2.324l-2.367-6.711c-.165-.468.072-.981.535-1.16l.71-.275c.539-.208 1.148-.114 1.598.248l2.894 2.32 12.114-3.80499998c2.2343385-.71463932 5.1820838-.56991904 6.8423114.78145348zm-16.8315114 5.0061465c-.74.238-1.146 1.031-.908 1.771s1.031 1.146 1.771.908c.74-.239 1.146-1.031.908-1.771s-1.031-1.146-1.771-.908zm4.3755-1.4092c-.74.238-1.146 1.031-.908 1.77.238.741 1.031 1.147 1.771.909.74-.239 1.146-1.032.908-1.771-.238-.74-1.031-1.146-1.771-.908zm4.376-1.4091c-.74.238-1.146 1.031-.908 1.77.238.741 1.031 1.147 1.771.909.74-.239 1.146-1.032.908-1.771-.238-.74-1.031-1.146-1.771-.908zm-7.2925-7.48559998 3.754 3.805-4.252 1.44499998-1.958-3.85099998c-.27-.626.075-1.345.731-1.528l.615-.172c.397-.11.823.005 1.11.301z" fill="var(--db-icon-color, currentColor)" fill-rule="evenodd"/></svg>
