<svg id="icon" height="24" viewBox="0 0 24 24" width="24" xmlns="http://www.w3.org/2000/svg"><path d="m5 16c1.1045695 0 2 .8954305 2 2s-.8954305 2-2 2-2-.8954305-2-2 .8954305-2 2-2zm10 0c1.1045695 0 2 .8954305 2 2s-.8954305 2-2 2-2-.8954305-2-2 .8954305-2 2-2zm-3.6198684.7397369c.4198817.2099408.5900724.7205129.3801315 1.1403947-.1937916.3875831-.6437423.5624117-1.0420671.4218909-.2381997-.119875-.4645622-.1831601-.6790877-.1898551-.21452551-.0066951-.43418441.0426701-.65897674.1480957-.41988173.2099409-.93045381.0397502-1.14039467-.3801315-.20994086-.4198818-.03975017-.9304539.38013155-1.1403947.86881298-.4344065 1.89145016-.4344065 2.76026316 0zm6.6455094-12.5897369c1.0644038 0 1.9831338.72536479 2.2402911 1.74373081l1.5966179 8.95766419c.0784907.4420416-.1999391.864892-.6286922.9727455l-2.421207.9651836c-.4359316.1741821-.9305266-.0380077-1.1047087-.4739394-.1607836-.4023984 0-.9098366.4739393-1.1047088l1.8831186-.7536759-1.437855-8.10289271c-.0460299-.25922997-.2633144-.50410729-.601504-.50410729-.469442 0-.85-.38055796-.85-.85s.380558-.85.85-.85zm-1.025641 4.85c.469442 0 .85.38055796.85.85 0 .4333311-.3592048.85-.85.85v1.8c0 1.2482053-1.3041901 2.5-2.5 2.5h-9c-1.19580987 0-2.5-1.2517947-2.5-2.5v-1.8c-.46480476 0-.85-.380558-.85-.85 0-.43333111.35286865-.85.85-.85z" fill="var(--db-icon-color, currentColor)" fill-rule="evenodd"/></svg>
