<svg id="icon" height="24" viewBox="0 0 24 24" width="24" xmlns="http://www.w3.org/2000/svg"><path d="m16.807 5.15c.992 0 1.848.672 2.142 1.63l.991 4.22 1.413.001c.336 0 .641.265.641.546l.007.765c0 .334-.257.689-.589.689h-.894c.055.143.066.405.033.787l-.371 3.221a2.999 2.999 0 0 1 -1.379 2.193v1.798a1 1 0 0 1 -1 1h-.6a1 1 0 0 1 -1-1v-1.237a37.335 37.335 0 0 1 -8.401-.001v1.238a1 1 0 0 1 -1 1h-.6a1 1 0 0 1 -1-1v-1.799c-.695-.439-1.244-1.195-1.35-1.996-.07-.534-.203-1.674-.4-3.418a2.498 2.498 0 0 1 .033-.787h-.835c-.37 0-.648-.321-.648-.69v-.666a.63.63 0 0 1 .648-.644l1.412-.001.947-4.056c.23-.989 1.105-1.793 2.186-1.793zm-6.424 8.857a1 1 0 0 0 0 1.986h3.234a1 1 0 0 0 0-1.986zm-4.5 0a1 1 0 0 0 0 1.986h1.234a1 1 0 0 0 0-1.986zm11 0a1 1 0 0 0 0 1.986h1.234a1 1 0 0 0 0-1.986zm-9.69-7.157c-.208 0-.406.144-.498.375l-.889 3.774h12.387l-.856-3.67c-.06-.255-.25-.479-.53-.479zm6.807-4.7a.85.85 0 0 1 0 1.7h-4a.85.85 0 1 1 0-1.7z" fill="#282D37" style="fill: currentColor;fill: var(--db-icon-color, currentColor)" fill-rule="evenodd"/></svg>
