<svg id="icon" height="24" viewBox="0 0 24 24" width="24" xmlns="http://www.w3.org/2000/svg"><path d="m19.8076286 8.05611303c-.5526984.17766633-1.1039435.35705286-1.6537353.5381596-.5905801.19454283-.8004417.77241314-.6419207 1.26013406.158521.48772091.6931573.82480541 1.2601341.64192071.9807274-.3163447 1.9601709-.6345405 2.9383306-.95458751.0832723.13828692.151299.28241273.2021627.43196011.317.915-.212 2.254-1.797 2.747l-4.155 1.303-3.241 5.952c-.105.211-.281.352-.493.423l-.457.105c-.493.141-.987-.247-.987-.774v-4.051l-3.205.986c-1.725.564-3.275-.458-3.733-1.76l-1.796-5.143c-.141-.352.035-.739.388-.88l.563-.212c.344-.15644444.77254321-.1177284 1.08546502.0908642l2.33053498 1.8471358 9.298-2.888c1.2520012-.3527155 2.8298132-.19419179 4.0940286.33641303zm-11.3486286 3.65818697c-.645.2581-.79009384.8082647-.645 1.259.13357143.4132857.645.8490486 1.258.646.52304495-.1732521.815-.733.646-1.259-.169-.525-.74920269-.849998-1.259-.646zm3.1093-1.0009c-.5212059.1718662-.814.733-.645 1.259.1335714.4132857.645.8426057 1.2581.645.5245732-.169073.815-.733.646-1.258-.1207143-.3757143-.6008-.8630726-1.2591-.646zm3.1094-1.001c-.257779.08964376-.837087.4808105-.6658847 1.1604178.1671129.663374.8376729.8683147 1.2794847.7435822s.8724843-.6788617.6193432-1.3277299c-.1630352-.4179029-.742194-.74693021-1.2329432-.5762701zm-5.5147-5.4453 2.974 2.779-3.44 1.073-1.401-2.795c-.246-.458.035-1.021.564-1.162l.458-.141c.317-.07.633.036.845.246z" fill="var(--db-icon-color, currentColor)" fill-rule="evenodd"/></svg>
