<svg id="icon" height="20" viewBox="0 0 20 20" width="20" xmlns="http://www.w3.org/2000/svg"><path d="m12.1162367 2c.8419455 0 1.2746274.07119718 1.7391393.28292589.4380754.19967878.8030994.50252918 1.0808051.89671452.2676948.37997555.4167314.75582024.5602893 1.44429769l.2555296 1.33744121.4466354.00100314c.5522848 0 1 .44911874 1 1.00313479v1.0031348c0 .55401605-.4477152 1.00313479-1 1.00313479l-.2106354-.00100313.0009766 5.8828701c0 .469354-.0604793.8828269-.2340252 1.174896-.1386445.2600553-.3574599.5134424-.6187836.6623593l.0028088.8075235c0 .277008-.2238577.5015674-.5.5015674h-1c-.2761424 0-.5-.2245594-.5-.5015674l-.0009766-.5065831h-5.99902344v.5065831c0 .277008-.22385762.5015674-.5.5015674h-1c-.27614237 0-.5-.2245594-.5-.5015674l-.00097656-.7373041c-.26686567-.1426868-.48314808-.3394845-.64432192-.5818144s-.30131562-.5310922-.32109635-1.1345489l-.00358173-6.0739815-.209.00100313c-.55228475 0-1-.44911874-1-1.00313479v-1.0031348c0-.55401605.44771525-1.00313479 1-1.00313479l.445-.00100314.21414886-1.12120223c.14359395-.75417163.32559981-1.26635132.6033055-1.66053667.2777057-.39418534.64272962-.69703574 1.08080509-.89671452.41806065-.19055584.81033907-.26728114 1.49839241-.28072064zm-6.15903935 12.0772279c-.41263736-.0362143-.77641174.2699855-.81251283.6839164-.03309267.3794367.22063848.7176861.58099264.7993203l1.59507862.146883c.41263735.0362143.77641174-.2699855.81251283-.6839164.03309267-.3794367-.22063848-.7176861-.58099265-.7993203zm6.86926635.1311434c-.4126373.0362143-.7178803.401129-.6817792.8150599.0330927.3794366.3415219.6683493.7105328.6859722l1.5962721-.1331992c.4126373-.0362143.7178803-.401129.6817792-.8150599-.0330927-.3794366-.3415219-.6683493-.7105328-.6859722zm1.4615363-6.27482898h-8.42l.001 4.96952978c1.92066667.0799843 3.29766667.1199764 4.131.1199764 1.383 0 2.9049766-.0367209 4.288-.1101626zm-1.9978767-4.22717529c-.3767293 0-1.944981.00294353-4.70475489.00883059-.28598819.01596642-.43058128.05271447-.5788502.12029679-.1635148.07453153-.29210691.1812209-.39576255.3283534-.07832578.1111784-.18165297.28284053-.28815282.82511801-.0709999.36151832-.15020085.77460077-.23760284 1.23924735h7.987c-.1037963-.55595071-.1824521-.96903316-.2359674-1.23924735-.080273-.40532129-.1844972-.67798551-.2881528-.82511801-.1036557-.1471325-.2322478-.25382187-.3957626-.3283534-.1235574-.0563186-.2968999-.12912738-.8619939-.12912738z" fill="var(--db-icon-color, currentColor)" fill-rule="evenodd"/></svg>
