<svg id="icon" height="32" viewBox="0 0 32 32" width="32" xmlns="http://www.w3.org/2000/svg"><path d="m11.8471851 21.8410961c.0797211 2.2527072-1.7205431 4.0089039-3.8469851 4.0089039-2.05999072 0-3.74188419-1.6175188-3.84499082-3.6518667v-.3570372l-1.15500918.0089039c-.43333111 0-.79092668-.3242624-.84337729-.7433778l-.00662271-2.1066222c0-2.6060517 2.05576269-4.7322482 4.63397266-4.8452742l5.27202734-.0047258-.6576278-2.1943449c-.0138978-.0466567-.0595731-.1056551-.1423722-.1056551-.0551994 0-1.47386608 0-4.256 0-.46944204 0-.85-.380558-.85-.85 0-.4333311.36853663-.85.85-.85h4.256c.7659783 0 1.447779.4720332 1.7218688 1.1751329l2.6541312 8.8248671h2.976l5.542-6.466v-3.684c0-.5922541-.4490073-1.08074499-1.024794-1.14324487l-3.125206-.00675513c-.469442 0-.85-.38055796-.85-.85 0-.43333111.3393255-.85.85-.85h3c1.5172477 0 2.7584386 1.18700351 2.8451598 2.68259759l.0049901 4.16740241c0 .1623237-.0587407.373603-.2047818.5531727-.0973607.1197131-2.0973607 2.4530464-6 7-.1345707.1569991-.37109.3057312-.6453681.2968273-.182852-.005936-2.5671903-.0089039-7.1530149-.0089039zm14.1530149-3.6910961c2.126442 0 3.85 1.723558 3.85 3.85s-1.723558 3.85-3.85 3.85-3.85-1.723558-3.85-3.85 1.723558-3.85 3.85-3.85zm-20.15 3.7c0 1.4158627.96244204 2.3 2.15 2.3 1.13592501 0 2.2120639-.881294 2.15-2.3089039 0 .0059359-1.43333333.0089039-4.3.0089039zm20.15-2c-1.187558 0-2.15.962442-2.15 2.15s.962442 2.15 2.15 2.15 2.15-.962442 2.15-2.15-.962442-2.15-2.15-2.15z" fill="var(--db-icon-color, currentColor)" fill-rule="evenodd"/></svg>
