<svg id="icon" height="20" viewBox="0 0 20 20" width="20" xmlns="http://www.w3.org/2000/svg"><path d="m6.5 14.741-.00674912 1.256696h-2.49327227v-2.1717582c-.35577897-.4064396-.56406842-.8712931-.62486834-1.3945602l-.27111027-2.4313776h-1.104v-2h1.696l.76116229-3.43162637c.23801091-.80507112.94283771-1.56837363 1.83736282-1.56837363l4.35528889.001c.469442 0 .85.38055796.85.85s-.380558.85-.85.85l-4.60655555-.001-.64325845 3.3c2.39896868-.00066667 3.93230201-.001 4.6-.001.0028355-1.10575708.8980765-1.99307024 1.9994145-1.9968579.0005855-.55442685.4483008-1.0021421 1.0005855-1.0021421h2.0121117c.5128358 0 .9878883.47342086.999329 1.002 1.0542773.0001421 1.9942303.94576823 1.9942303 2.00013002l-.005671 7.99556598c0 1.1045695-.8954305 2-2 2h-3.9992302c-1.1045695 0-2-.8954305-2-2l-.0007698-.997696c-1.16666667 0-2.33333333-.0863333-3.5-.259zm9.5-7.01718092c-.2595406 0-1.5926174 0-3.9992302 0-.1420161 0-.3.10592876-.3.30002977v7.97384715c0 .1420161.1313673.2882328.3.3000346h3.9992302c.1420161 0 .3-.105429.3-.3000346 0-.3407028 0-2.9986518 0-7.97384715 0-.14201608-.1480446-.30002977-.3-.30002977zm-7.76012389 3.33486262c-.32715441.1340467-.55127093.477371-.48552378.7814953.0921917.3689418.1934072.7715447.30364651 1.2078088.08630413.2067126.33981148.4520142.57915636.4521916.37022184-.0001183.82450344-.0001774 1.3628448-.0001774v-1.492l-.665.0006677-.14251205-.5382942c-.10015379-.3026654-.58456313-.5624943-.95261184-.4116918zm6.38643609-1.98989135c.3463452.15560811.5582174.56000633.3767564.99149115-.180889.4006676-.3645785.7969071-.5510686 1.1887185l.3017979.001c.5101122 0 .9225938.527105.6840582 1.0575131-.2864533.6507559-.6463275 1.4073383-1.0796226 2.2697473-.1698348.3777949-.6137764.5463799-.9915714.3765451-.346312-.1556819-.5712911-.5827096-.3765451-.9915714.115186-.2796945.3164803-.6841058.603883-1.2132341l-.3002727.001c-.5100475 0-.912213-.5361476-.6841238-1.0573674.216112-.4906769.5578512-1.2397055 1.0252176-2.24708585.1697543-.37783112.6136599-.5465107.9914911-.3767564zm-10.60759891 1.84646715c.09317778-.4035973.49589354-.655242.89949084-.5620642l1.55917713.3669911c.34552145.1307387.54985519.4999621.46444223.8699263-.09317778.4035973-.49589355.655242-.89949084.5620643l-1.55917713-.3669912c-.34552146-.1307386-.54985519-.4999621-.46444223-.8699263z" fill="var(--db-icon-color, currentColor)" fill-rule="evenodd"/></svg>
