<svg id="icon" height="20" viewBox="0 0 20 20" width="20" xmlns="http://www.w3.org/2000/svg"><path d="m6.5 13a1.5 1.5 0 1 1 0 3 1.5 1.5 0 0 1 0-3zm-.26-7.065c.26.033 1.566.367 3.174 1.072 1.804 1.006 3.21 2.06 4.216 3.173a.85.85 0 0 1 .127.957l-1.21 2.413a.85.85 0 0 1 -.751.463c-1.314.005-2.106.005-2.377 0-.105-1.385-1.502-2.513-2.919-2.513a3 3 0 0 0 -2.69 1.669l-.65-.074a.85.85 0 0 1 -.746-.722c-.163-1.175-.244-1.864-.244-2.067 0-.204.142-.84.426-1.905a3.203 3.203 0 0 1 3.644-2.466zm11.735 6.456c.108.42-.136.93-.612 1.034l-2.152.55a.85.85 0 1 1 -.422-1.646l2.152-.55a.85.85 0 0 1 1.034.612zm-13.74-4.76-.545 1.599a.85.85 0 0 0 1.57.641l.308-.89c1.015.195 1.805.457 2.371.786l1.624.963a.85.85 0 0 0 .969-1.392l-1.415-.858a8.85 8.85 0 0 0 -2.439-1.002l-1.51-.311a.85.85 0 0 0 -.934.464z" fill="var(--db-icon-color, currentColor)" fill-rule="evenodd"/></svg>
