<svg id="icon" height="32" viewBox="0 0 32 32" width="32" xmlns="http://www.w3.org/2000/svg"><path clip-rule="evenodd" d="m16.7 10.4c-.3 2.6-.5 5.2-.8 7.7l3.6 3.6c.1.1.2.3.2.4.6 2.2 1.1 4.4 1.7 6.6.1.5-.2.9-.6 1s-.9-.1-1-.6c-.5-2.1-1.1-4.3-1.6-6.4l-3.6-3.6c-.3-.3-.4-.6-.4-1.1.2-2.1.4-4.2.7-6.3l-3.1 1.6-.5 2.7c-.1.4-.6.8-1 .7s-.8-.5-.7-1c.2-1 .4-2.1.6-3.1 0-.2.2-.5.4-.6 1.6-.8 3.2-1.7 4.8-2.5.7-.2 1.4.2 1.3.9zm-2.8 10.6c.4.2.6.6.4 1.1-1.1 2.4-2.2 4.9-3.2 7.3-.2.4-.7.6-1.1.4s-.6-.7-.4-1.1c1.1-2.4 2.2-4.9 3.2-7.3.2-.4.7-.6 1.1-.4zm5.1-8.8c.3.3.6.6.9.9l2.1 1.1c1 .5.3 2-.8 1.5-.7-.4-1.5-.8-2.2-1.1-.1 0-.2-.1-.2-.2-.3-.4-.7-.7-1-1.1-.3-.3-.3-.9 0-1.2.4-.2.9-.3 1.2.1zm-2.6-10c1.6 0 2.8 1.3 2.8 2.8s-1.2 2.8-2.8 2.8-2.8-1.3-2.8-2.8 1.3-2.8 2.8-2.8zm0 1.7c-.6 0-1.1.5-1.1 1.1s.5 1.1 1.1 1.1 1.1-.5 1.1-1.1-.4-1.1-1.1-1.1z" fill="var(--db-icon-color, currentColor)" fill-rule="evenodd"/></svg>
