<svg id="icon" height="32" viewBox="0 0 32 32" width="32" xmlns="http://www.w3.org/2000/svg"><path d="m22.317 12.01c-1.65-1.84-4.133-3.458-7.046-3.458-1.648 0-2.59.909-2.59 1.973 0 4.477 10.77 1.33 10.77 8.688 0 2.971-2.784 6.43-7.472 6.43-2.613 0-5.633-1.22-7.28-2.75v-3.857c1.562 2.328 4.41 4.123 7.28 4.123 1.756 0 3.168-1.04 3.168-2.15 0-4.189-10.598-1.595-10.598-8.822 0-3.79 3.575-5.83 6.787-5.83 2.677 0 5.075.91 6.98 2.44v3.213z" fill="var(--db-icon-color, currentColor)" fill-rule="evenodd"/></svg>
