<svg id="icon" height="20" viewBox="0 0 20 20" width="20" xmlns="http://www.w3.org/2000/svg"><path d="m13 2.5v1.506l.7054749.00072795c.8131614.06687297 1.5772823.68772974 1.7844197 1.40337492.1380917.4770968.4091268 1.67372917.8131054 3.58989713h1.697v2.003364l-1.105-.003364c-.1500149 1.4927406-.2500284 2.3690702-.3000404 2.628989-.0750179.3898781-.2919596.8997899-.5949596 1.1969488v2.6740622h-2.5v-1.759c-1.1666667.1726667-2.3333333.259-3.5.259-1.16666667 0-2.33333333-.0863333-3.5-.259v1.759h-2.5v-2.6740622c-.23008194-.2225935-.44438172-.6163212-.54999435-1.0045455-.07040841-.2588163-.18574363-1.1992803-.34600565-2.8213923l-1.104.003364v-2.003364h1.696l.76116229-3.43162637c.23801091-.80507112.88228221-1.41048063 1.67657904-1.54178708.16966886-.02509945.45842176-.03196163.86625867-.02058655v-1.506zm-1 8.65h-4v1.7h4zm3 0h-2v1.7h2zm-8 0h-2v1.7h2zm6.913742-5.45h-7.827484l-.643258 3.3h9.113z" fill="var(--db-icon-color, currentColor)" fill-rule="evenodd"/></svg>
