<svg id="icon" height="24" viewBox="0 0 24 24" width="24" xmlns="http://www.w3.org/2000/svg"><path d="m5.1648439 3.66647929 2.02027743.40371329c.67700892.13528711 1.13527175.75583377 1.08138462 1.42988129l-1.09945689 6.24326813c1.54973157 1.0710195 2.54871841 2.0729644 2.99583794 3.0542069.3508046.769871.5667516 1.605016.6492369 2.5019403l5.4666134.0009096c.3614172-1.1591731 1.4429308-2.0003988 2.7212627-2.0003988 1.5736658 0 2.85 1.2759816 2.85 2.85s-1.2763342 2.85-2.85 2.85c-1.277962 0-2.3592196-.8407389-2.7209487-1.9993927l-6.2786513-.0006073c-.46944204 0-.85-.380558-.85-.85 0-.987964-.17920561-1.8678643-.53448193-2.6475489-.24495035-.5375647-.84013919-1.1812471-1.78619309-1.9040484l-.38138927 2.0966131c.83889777.4960328 1.40166429 1.4098027 1.40166429 2.4549842 0 1.5740184-1.27633421 2.85-2.85 2.85-1.57424204 0-2.85-1.275758-2.85-2.85 0-1.5033671 1.16347041-2.7345215 2.63927932-2.8423315l1.72472068-9.6376685-1.68228202-.33647929c-.42492995-.08491401-.78023483-.54152852-.66695776-1.00008367s.50835074-.7643605 1.00008368-.66695775zm-.1648439 13.33352071c-.63535796 0-1.15.514642-1.15 1.15s.51464204 1.15 1.15 1.15c.63488684 0 1.15-.5149709 1.15-1.15s-.51511316-1.15-1.15-1.15zm14 0c-.635358 0-1.15.514642-1.15 1.15s.514642 1.15 1.15 1.15c.6348868 0 1.15-.5149709 1.15-1.15s-.5151132-1.15-1.15-1.15zm1.0002008-5.6999617c.469442 0 .85.380558.85.85 0 .4694421-.380558.85-.85.85-1.4898929 0-2.7774622.71963-3.2611065 1.5701624-.2320493.4080796-.7509763.5507804-1.1590559.3187311s-.5507804-.7509762-.3187311-1.1590558c.7915226-1.3919641 2.6484966-2.4298377 4.7388935-2.4298377z" fill="var(--db-icon-color, currentColor)" fill-rule="evenodd" transform="matrix(-1 0 0 1 24 0)"/></svg>
