<svg id="icon" height="24" viewBox="0 0 24 24" width="24" xmlns="http://www.w3.org/2000/svg"><path d="m18.5458199 18.653605c-.6545584 1.5222276-1.9626133 2.6914387-3.5674492 3.1432188-.116288-.5463783-.6478744-.8903459-1.1878998-.7746262-.7137457.1529455-1.3126009.2278024-1.7904709.2278024s-1.0767252-.0748569-1.7904709-.2278024c-.50145213-.107454-1.07615202.1892282-1.18860614.7743105-1.60377977-.4513659-2.91161422-1.6201658-3.56631469-3.1419077 1.00012515.4496975 2.83208851 1.0872457 3.68054831 1.2384341.57757037.0954878 1.44220342.1055922 2.86432852.1068736s2.2429381-.0139373 2.8456319-.1017286c.7139695-.149868 1.7157602-.4333053 3.7007029-1.2445745zm-4.8058199-16.653605c2.8353709 0 5.142056 2.26733109 5.2556182 5.10094171v9.03405829c-1.3453048.9519701-4.0805526 1.711451-4.4513674 1.7876169-.6376249.0889301-1.1871807.0773831-2.5447657.0773831-1.3575851 0-2.09642277.0275008-2.76509728-.1221432-1.74562464-.4953506-3.28349041-1.0792314-4.23384861-1.743013-.00035947-.0002142-.00053921-2.9384955-.00053921-8.8148438 0-2.86153221 2.23580088-5.20040161 5.0429654-5.31555662zm-5.44174141 12.0010699c-.50006839-.0247828-.95034282.328673-1.03465251.8345311-.0843097.5058582.22699126.9862432.7080666 1.1249843l1.73006873.2883448c.50006839.0247828.95034279-.328673 1.03465249-.8345311.0843097-.5058582-.2269912-.9862432-.7080666-1.1249843zm8.43813531.8345311c-.0843097-.5058581-.5345841-.8593139-1.0346525-.8345311l-1.7300687.2883448c-.4810754.1387411-.7923763.6191261-.7080666 1.1249843.0843097.5058581.5345841.8593139 1.0346525.8345311l1.7300687-.2883448c.4810754-.1387411.7923763-.6191261.7080666-1.1249843zm-7.12896199-11.77400807c-1.32388886.16933206-2.28129501 1.34873768-2.17486112 2.67916126l.43692081 5.46151011c.06870062.8587577.75218795 1.5397752 1.61118874 1.6053664 1.04125156.0874921 1.88168096.1312382 2.52128826.1312382.6396074 0 1.4787244-.0437461 2.5173511-.1312382.8590007-.0655912 1.5424881-.7466087 1.6111887-1.6053664l.4369208-5.46150998c.1064342-1.3304251-.8509734-2.50983194-2.1748641-2.67916177-.1596381-.02041822-.6020942-.06141196-2.3925651-.06167384-1.7904709 0-2.23116846.04103062-2.39256809.06167422z" fill="var(--db-icon-color, currentColor)" fill-rule="evenodd"/></svg>
