<svg id="icon" height="20" viewBox="0 0 20 20" width="20" xmlns="http://www.w3.org/2000/svg"><path d="m14.301 10c.988 0 1.535.112 2.094.423.522.29.934.72 1.21 1.257.267.52.376 1.027.393 1.887l.002 2.433a1 1 0 0 1 -2 0 536.79 536.79 0 0 1 -.005-2.538c-.015-.461-.065-.665-.17-.868a.981.981 0 0 0 -.403-.424c-.184-.102-.366-.15-.795-.165l-2.95-.005c-.652 0-.876.046-1.099.17a.981.981 0 0 0 -.403.424c-.104.202-.155.407-.17.856l-.005 2.55a1 1 0 0 1 -2 0c-.002-.737-.002-1.474 0-2.21 0-.99.105-1.545.395-2.11a2.98 2.98 0 0 1 1.21-1.257c.506-.282 1.006-.4 1.819-.42l2.876-.003zm-8.051 0a1 1 0 0 1 1 1c0 .513-.399 1-1 1l-.98.01c-.357.02-.521.068-.689.161a.985.985 0 0 0 -.406.424c-.086.167-.135.332-.158.648l-.017 2.757a1 1 0 0 1 -2 0v-2.151c0-1.05.102-1.598.397-2.17a2.986 2.986 0 0 1 1.214-1.257c.518-.287 1.019-.402 1.89-.42zm6.75-7a3 3 0 1 0 0 6 3 3 0 0 0 0-6zm0 2a1 1 0 1 1 0 2 1 1 0 0 1 0-2zm-6-2a3 3 0 0 1 .885.133 1 1 0 0 1 -.476 1.939c-.225-.056-.307-.072-.409-.072a1 1 0 1 0 .264 1.965 1 1 0 0 1 .526 1.93 3.002 3.002 0 0 1 -3.79-2.895 3 3 0 0 1 3-3z" fill="var(--db-icon-color, currentColor)" fill-rule="evenodd"/></svg>
