<svg id="icon" height="24" viewBox="0 0 24 24" width="24" xmlns="http://www.w3.org/2000/svg"><path d="m10.293 14.707-2-2a.999.999 0 1 1 1.414-1.414l1.293 1.293 3.293-3.293a.999.999 0 1 1 1.414 1.414l-4 4a.997.997 0 0 1 -1.414 0zm1.368-12.632-7.14 3.65c-.317.162-.521.517-.521.908v3.347c0 6.07 2.859 9.288 7.796 11.967a.429.429 0 0 0 .408 0c4.936-2.679 7.796-5.897 7.796-11.966v-3.348c0-.391-.204-.746-.52-.909l-7.141-3.65a.807.807 0 0 0 -.678 0zm6.339 5.157v2.751c0 4.617-1.638 7.384-6 10.017-4.362-2.633-6-5.4-6-10.017v-2.751l6-3.232z" fill="var(--db-icon-color, currentColor)" fill-rule="evenodd"/></svg>
