<svg id="icon" height="24" viewBox="0 0 24 24" width="24" xmlns="http://www.w3.org/2000/svg"><path d="m17.99 4.148a2.768 2.768 0 0 1 .105 3.782l-8.093 8.1a1 1 0 0 1 -1.492-1.327l8.055-8.065a.768.768 0 0 0 .003-1.083.75.75 0 0 0 -.984-.072l-9.117 9.106a2.509 2.509 0 0 0 -.004 3.544 2.491 2.491 0 0 0 3.403.12l7.58-7.572a1 1 0 0 1 1.492 1.327l-7.542 7.552a4.491 4.491 0 0 1 -6.351-.017 4.51 4.51 0 0 1 -.138-6.215l9.193-9.2a2.75 2.75 0 0 1 3.89.02z" fill="#282D37" style="fill: currentColor;fill: var(--db-icon-color, currentColor)" fill-rule="evenodd"/></svg>
