<svg id="icon" height="20" viewBox="0 0 20 20" width="20" xmlns="http://www.w3.org/2000/svg"><path d="m11.438 2.047c.906 0 1.624.719 1.656 1.625v1l.25.156.906-.531c.25-.156.531-.219.813-.219.562 0 1.124.281 1.406.813l1.312 2.187a1.7 1.7 0 0 1 .219.844c0 .5-.25 1.125-.844 1.437l-.906.5v.344l.875.531c.625.375.75.813.813 1.407 0 .312-.063.593-.22.843l-1.25 2.094a1.64 1.64 0 0 1 -1.405.813c-.313 0-.594-.063-.844-.22l-.906-.562-.313.188v1c0 .906-.75 1.656-1.656 1.656h-2.719c-.906 0-1.625-.75-1.625-1.656v-1l-.313-.188-.906.563a1.99 1.99 0 0 1 -.843.219 1.675 1.675 0 0 1 -1.407-.813l-1.25-2.094a1.622 1.622 0 0 1 -.219-.843c0-.594.282-1.094.813-1.407l.875-.53v-.345l-.906-.5a1.682 1.682 0 0 1 -.844-1.437 1.7 1.7 0 0 1 .219-.844l1.311-2.187a1.612 1.612 0 0 1 1.406-.813c.282 0 .563.063.813.219l.906.531.25-.156v-1c0-.906.75-1.625 1.657-1.625h2.874zm-.344 1.969h-2.188v1.78l-2.25 1.345-1.593-.938-.938 1.594 1.594.875.031 2.687-1.563.907.875 1.5 1.563-.938 2.375 1.282v1.844h2v-1.844l2.344-1.28 1.594.937.874-1.5-1.593-.907.062-2.687 1.594-.875-.938-1.594-1.624.938-2.22-1.344v-1.782zm-1.078 3.984c1.102 0 1.984.882 1.984 1.984 0 1.134-.882 2.016-1.984 2.016a1.99 1.99 0 0 1 -2.016-2.016c0-1.102.882-1.984 2.016-1.984z" fill="#282D37" style="fill: currentColor;fill: var(--db-icon-color, currentColor)" fill-rule="evenodd"/></svg>
