<svg id="icon" height="24" viewBox="0 0 24 24" width="24" xmlns="http://www.w3.org/2000/svg"><path d="m6.438 21.125c-.625 0-1.125-.625-1-1.156l1-5.688-4.158-4.031c-.186-.188-.28-.469-.28-.75 0-.469.375-.875.844-.938l5.719-.843 2.53-5.157c.189-.312.533-.562.907-.562s.719.219.906.563l2.531 5.156 5.72.843c.405.063.843.376.843.938 0 .281-.094.563-.281.75l-4.125 4.031.968 5.688c.125.625-.406 1.156-1 1.156a.882.882 0 0 1 -.468-.125l-5.094-2.656-5.094 2.656a.882.882 0 0 1 -.468.125z" fill="var(--db-icon-color, currentColor)" fill-rule="evenodd"/></svg>
