<svg id="icon" height="32" viewBox="0 0 32 32" width="32" xmlns="http://www.w3.org/2000/svg"><path d="m24.978 4.492a5.015 5.015 0 0 1 .137 6.922l-11.44 11.446a2.986 2.986 0 0 1 -4.222-.03 3.015 3.015 0 0 1 -.106-4.12l9.667-9.674a1 1 0 0 1 1.492 1.327l-9.624 9.633a1.015 1.015 0 0 0 -.005 1.43c.355.36.919.39 1.308.086l11.366-11.356a3.014 3.014 0 0 0 .008-4.255 2.986 2.986 0 0 0 -4.095-.135l-12.136 12.128a5.014 5.014 0 0 0 -.009 7.083 4.986 4.986 0 0 0 6.895.166l10.457-10.45a1 1 0 0 1 1.492 1.327l-10.383 10.39a6.986 6.986 0 0 1 -9.88-.023 7.014 7.014 0 0 1 -.155-9.735l12.18-12.186a4.986 4.986 0 0 1 7.052.025z" fill="var(--db-icon-color, currentColor)" fill-rule="evenodd"/></svg>
