<svg id="icon" height="24" viewBox="0 0 24 24" width="24" xmlns="http://www.w3.org/2000/svg"><path d="m12 16.995c.513 0 1 .415 1 1v1.384l.564-.283a1 1 0 0 1 1.342.446.992.992 0 0 1 -.445 1.342l-2.011 1.01a1.026 1.026 0 0 1 -.898 0l-2.01-1.01a1 1 0 0 1 -.445-1.342c.23-.458.791-.693 1.342-.445l.561.282v-1.384a1 1 0 0 1 1-1zm8-3.5c.538 0 1 .428 1 1l.002 2.488c0 .336-.2.712-.552.895l-2.557 1.283a1 1 0 0 1 -1.342-.445 1.015 1.015 0 0 1 .445-1.342l.911-.458-.282-.163a.875.875 0 0 1 -.32-1.196.885.885 0 0 1 1.195-.32l.501.29-.001-1.031c0-.55.46-1 1-1.001zm-16 0c.513 0 1 .43 1 1v1.03l.5-.288a.875.875 0 0 1 1.196.32c.223.387.111.954-.32 1.196l-.284.162.887.445c.507.254.683.869.445 1.342-.238.474-.788.694-1.337.446l-2.536-1.27a1.006 1.006 0 0 1 -.551-.883v-2.5a1 1 0 0 1 1-1zm11.068-4.872c1.258 0 1.887.553 1.887 1.66 0 .453-.111.8-.334 1.042-.165.175-.412.312-.74.41.218.115.4.319.543.61.382.791.67 1.383.861 1.776.113.23-.076.497-.507.497-.214 0-.588-.064-.726-.34l-.795-1.667c-.108-.227-.213-.38-.315-.46-.09-.07-.232-.104-.429-.104h-.403v1.944a.627.627 0 1 1 -1.254 0v-4.868a.5.5 0 0 1 .5-.5zm-5.593 0c.263 0 .5.152.599.412l1.907 5.058c.107.284.057.525-.448.525-.45 0-.617-.113-.73-.393l-.355-.88h-2.226l-.299.805c-.126.339-.3.468-.748.468-.449 0-.557-.223-.449-.506l1.945-5.077c.085-.221.28-.412.524-.412zm-.1 1.601-.795 2.226h1.59zm5.56-.659c.392 0 .632.112.719.336.042.105.063.273.063.502 0 .28-.052.476-.154.586-.123.137-.335.205-.637.205h-.819v-1.629zm-7.51-4.311c.228.46.063 1.061-.446 1.336l-.931.458.327.189a.875.875 0 0 1 .32 1.195.893.893 0 0 1 -1.195.32l-.5-.29v1.033c0 .577-.487 1-1 1s-1-.41-1-.994v-2.557c0-.339.206-.732.551-.897l2.536-1.248a1 1 0 0 1 1.339.455zm10.482-.455 2.537 1.248c.304.15.55.462.556.897v2.552a1 1 0 0 1 -1.999.005v-1.041l-.501.292a.875.875 0 0 1 -.875-1.516l.327-.19-.927-.457c-.558-.274-.664-.915-.455-1.34a1 1 0 0 1 1.337-.45zm-5.464-2.7 2.036 1.005a1 1 0 0 1 .454 1.34c-.227.46-.78.704-1.339.454l-.594-.294v1.39a1 1 0 0 1 -2 0v-1.39l-.543.27c-.518.264-1.112.005-1.339-.455s-.103-1.033.455-1.34l1.986-.98c.236-.132.652-.132.884 0z" fill="var(--db-icon-color, currentColor)" fill-rule="evenodd"/></svg>
