<svg id="icon" height="20" viewBox="0 0 20 20" width="20" xmlns="http://www.w3.org/2000/svg"><path d="m10.04 1.723c.6-.018 1.2.275 1.58.744l.593.731.955-.225a2.12 2.12 0 0 1 .487-.06c1.096 0 2.02.853 2.08 1.95l.052.934.898.375a2.118 2.118 0 0 1 1.315 1.94c0 .386-.12.772-.345 1.115l-.508.773.507.836c.206.34.326.727.326 1.134a2.05 2.05 0 0 1 -1.318 1.904l-.875.33-.08.975c-.084 1.012-.915 1.928-2.073 1.928a2.11 2.11 0 0 1 -.525-.062l-.896-.243-.64.739c-.445.512-.913.714-1.614.736-.6.018-1.2-.275-1.58-.744l-.592-.731-.955.225a2.12 2.12 0 0 1 -.487.06c-1.096 0-2.02-.853-2.08-1.95l-.052-.934-.899-.372c-.8-.332-1.314-1.071-1.314-1.922 0-.407.12-.793.345-1.136l.508-.773-.513-.854a2.178 2.178 0 0 1 -.32-1.116 2.05 2.05 0 0 1 1.318-1.904l.875-.33.102-.974c.04-1.096.974-1.929 2.05-1.929.183 0 .366.02.526.062l.896.243.636-.743c.433-.504.917-.71 1.618-.732zm-.02 1.983-.624.755a2.049 2.049 0 0 1 -2.138.67l-.892-.248-.061.04-.057.935a2.041 2.041 0 0 1 -1.323 1.808l-.874.324-.02.081.507.794c.205.322.325.709.325 1.094 0 .406-.12.793-.346 1.136l-.507.773.02.081.875.342a2.06 2.06 0 0 1 1.316 1.809l.043.935.06.041.893-.23a2.028 2.028 0 0 1 2.134.694l.588.734h.081l.589-.734a2.014 2.014 0 0 1 1.564-.748c.182 0 .384.025.57.076l.891.249.061-.04.057-.935a2.041 2.041 0 0 1 1.323-1.808l.874-.324.02-.081-.507-.794a2.06 2.06 0 0 1 -.325-1.094c0-.406.12-.793.346-1.136l.507-.773-.02-.081-.875-.342a2.06 2.06 0 0 1 -1.316-1.809l-.043-.935-.06-.041-.896.242a2.083 2.083 0 0 1 -2.127-.712l-.592-.728c0-.02-.02-.02-.04-.02zm-3.025 4.304a1.006 1.006 0 1 1 2.01 0 .996.996 0 0 1 -.995.995 1.001 1.001 0 0 1 -1.015-.995zm.101 3.492 4.406-4.426 1.422 1.422-4.426 4.406zm3.899.488c0-.548.447-.995.995-.995a1.006 1.006 0 1 1 -.995.995z" fill="var(--db-icon-color, currentColor)" fill-rule="evenodd"/></svg>
