<svg id="icon" height="20" viewBox="0 0 20 20" width="20" xmlns="http://www.w3.org/2000/svg"><path d="m15.653 8.561v3.566c0 1.11.123 1.418.658 1.843l.22.167c.313.214.469.526.469.839 0 .468-.35.995-.898.995h-4.1v.02a2.008 2.008 0 0 1 -2.012 2.009c-.958 0-1.866-.77-1.995-1.781l2.22-2.22 3.7.001-.074-.297c-.113-.497-.17-1.028-.179-1.877l-.001-1.273zm-5.663-6.561c1.91 0 3.461.789 4.454 2.141l.849-.848a1 1 0 0 1 1.414 0c.36.36.429 1.003 0 1.414a18618.23 18618.23 0 0 1 -12 12 1 1 0 0 1 -1.414 0c-.36-.36-.426-.922 0-1.414.172-.176.345-.35.52-.522l.039-.084c.29-.66.476-1.387.476-2.619v-3.57c0-3.883 2.206-6.498 5.662-6.498zm.02 2.01c-2.207 0-3.671 1.541-3.671 4.234v3.336c0 .243-.004.467-.013.679l6.654-6.654c-.622-1.035-1.646-1.595-2.97-1.595z" fill="var(--db-icon-color, currentColor)" fill-rule="evenodd"/></svg>
