<svg id="icon" height="32" viewBox="0 0 32 32" width="32" xmlns="http://www.w3.org/2000/svg"><path d="m12 2a9.99 9.99 0 0 1 10 10c0 2.406-.844 4.594-2.25 6.344l9.969 9.937a.99.99 0 0 1 .281.72c0 .562-.469 1-1.031 1a.94.94 0 0 1 -.688-.282l-9.937-9.969c-1.75 1.406-3.938 2.25-6.344 2.25a9.99 9.99 0 0 1 -10-10 9.99 9.99 0 0 1 10-10zm0 2c-4.406 0-8 3.594-8 8s3.594 8 8 8 8-3.594 8-8-3.594-8-8-8zm4 7c.531 0 1 .469 1 1s-.469 1-1 1h-8c-.531 0-1-.469-1-1s.469-1 1-1z" fill="var(--db-icon-color, currentColor)" fill-rule="evenodd"/></svg>
