<svg id="icon" height="24" viewBox="0 0 24 24" width="24" xmlns="http://www.w3.org/2000/svg"><path d="m17.349 7.632a9.825 9.825 0 0 1 4.151 6.77 3.067 3.067 0 0 1 -.606 2.285 3.062 3.062 0 0 1 -2.045 1.186 3.094 3.094 0 0 1 -3.47-2.648 3.634 3.634 0 0 0 -7.107-.477c-.382 1.4.16 3.627 2.231 5.45a1.03 1.03 0 0 1 -1.357 1.545c-2.926-2.573-3.368-5.668-2.857-7.537a5.648 5.648 0 0 1 2.668-3.443 5.692 5.692 0 0 1 8.464 4.188c.074.554.625.956 1.148.883a1.026 1.026 0 0 0 .892-1.157 7.76 7.76 0 0 0 -3.279-5.35 1.03 1.03 0 0 1 1.167-1.695zm-4.56 7.522a5.727 5.727 0 0 0 3.583 4.198 1.029 1.029 0 1 1 -.72 1.927 7.8 7.8 0 0 1 -4.88-5.715 1.03 1.03 0 0 1 2.017-.41zm.221-9.176c.563.071.962.587.89 1.15-.073.563-.585.97-1.152.89a7.76 7.76 0 0 0 -4.814.959 7.702 7.702 0 0 0 -3.632 4.688 7.868 7.868 0 0 0 -.249 1.395 1.03 1.03 0 0 1 -1.112.936 1.028 1.028 0 0 1 -.937-1.113 9.87 9.87 0 0 1 .313-1.76 9.75 9.75 0 0 1 4.597-5.933 9.79 9.79 0 0 1 6.096-1.212zm-7.393-.264a1.029 1.029 0 0 1 -.507-1.926 14.011 14.011 0 0 1 10.498-1.304c1.111.304 2.18.743 3.175 1.303a1.029 1.029 0 0 1 -1.009 1.793 11.887 11.887 0 0 0 -2.707-1.11 11.943 11.943 0 0 0 -8.947 1.11 1.03 1.03 0 0 1 -.503.134z" fill="var(--db-icon-color, currentColor)" fill-rule="evenodd"/></svg>
