<svg id="icon" height="32" viewBox="0 0 32 32" width="32" xmlns="http://www.w3.org/2000/svg"><path d="m4 11c0-.563.438-1 1-1h1.156a2.854 2.854 0 0 1 2.844 2.844v14.156c0 .563.469 1 1 1h12.156a.84.84 0 0 0 .844-.844v-14.281a2.867 2.867 0 0 1 2.875-2.875h1.125c.563 0 1 .438 1 1 0 .563-.438 1-1 1h-1.125a.894.894 0 0 0 -.875.875v14.281a2.854 2.854 0 0 1 -2.844 2.844h-12.156a3 3 0 0 1 -3-3v-14.156a.84.84 0 0 0 -.844-.844h-1.156c-.563 0-1-.438-1-1zm16-9c.563 0 1 .438 1 1v3h6c.563 0 1 .438 1 1 0 .563-.438 1-1 1h-22c-.563 0-1-.438-1-1 0-.563.438-1 1-1h6v-3c0-.563.469-1 1-1zm-1 2h-6v2h6zm-8 21v-11c0-.563.469-1 1-1 .563 0 1 .438 1 1v11c0 .563-.438 1-1 1-.531 0-1-.438-1-1zm4 0v-11c0-.563.438-1 1-1 .563 0 1 .438 1 1v11c0 .563-.438 1-1 1-.563 0-1-.438-1-1zm4 0v-11c0-.563.469-1 1-1 .563 0 1 .438 1 1v11c0 .563-.438 1-1 1-.531 0-1-.438-1-1z" fill="var(--db-icon-color, currentColor)" fill-rule="evenodd"/></svg>
