<svg id="icon" height="20" viewBox="0 0 20 20" width="20" xmlns="http://www.w3.org/2000/svg"><path d="m3 14a3 3 0 0 0 3 3h2c.563 0 1-.469 1-1 0-.563-.438-1-1-1h-2c-.531 0-1-.438-1-1v-8c0-.563.469-1 1-1h2c.563 0 1-.438 1-1 0-.531-.438-1-1-1h-2a3 3 0 0 0 -3 3zm5-4c0 .531.438 1 1 1h5.594l-1.281 1.281a.905.905 0 0 0 -.313.719c0 .563.438 1 1 1 .25 0 .5-.094.719-.281l3-3.031a.97.97 0 0 0 .281-.688c0-.25-.094-.5-.281-.719l-3-3a1.044 1.044 0 0 0 -.719-.281c-.531 0-1 .438-1 1 0 .25.094.531.313.719l1.279 1.281h-5.592c-.563 0-1 .438-1 1z" fill="var(--db-icon-color, currentColor)" fill-rule="evenodd"/></svg>
