<svg id="icon" height="20" viewBox="0 0 20 20" width="20" xmlns="http://www.w3.org/2000/svg"><path d="m17.784 9.147c.184.78.216 1.346.216 1.853 0 2.18-.877 4.222-2.403 5.716a1 1 0 0 1 -1.4-1.429 5.978 5.978 0 0 0 1.803-4.287c0-.382-.03-.82-.162-1.391a1 1 0 1 1 1.946-.462zm-7.784-6.147c.59 0 1.175.057 1.71.172a1 1 0 0 1 -.42 1.956 6.235 6.235 0 0 0 -1.29-.128 6 6 0 0 0 -4.198 10.287 1 1 0 0 1 -1.399 1.43 8 8 0 0 1 5.597-13.717zm5.207 2.793c.36.36.427.985 0 1.414-1.028 1.034-2.12 2.126-3.274 3.276a2.003 2.003 0 0 1 -1.933 2.517 2 2 0 1 1 .518-3.932l3.275-3.275a1 1 0 0 1 1.414 0z" fill="var(--db-icon-color, currentColor)" fill-rule="evenodd"/></svg>
