<svg id="icon" height="20" viewBox="0 0 20 20" width="20" xmlns="http://www.w3.org/2000/svg"><path d="m10.681 10.6a1 1 0 0 1 -.833-1.553c.337-.509.403-.729.403-.938a1.001 1.001 0 0 0 -1.69-.724.999.999 0 1 1 -1.384-1.443 2.985 2.985 0 0 1 2.074-.833c1.654 0 3 1.346 3 3 0 .773-.294 1.376-.735 2.042a.998.998 0 0 1 -.835.448zm1.587 4.158c.168-.729.634-1.377 1.174-2.128.848-1.179 1.81-2.515 1.81-4.52 0-3.31-2.692-6-6-6a5.972 5.972 0 0 0 -4.15 1.666.999.999 0 0 0 -.03 1.413.997.997 0 0 0 1.413.03 3.981 3.981 0 0 1 2.766-1.11c2.206 0 4 1.794 4 4 0 1.362-.696 2.33-1.432 3.354-.61.85-1.24 1.726-1.504 2.87-.249 1.206-1.532 2.005-2.719 1.712a1 1 0 0 0 -.476 1.943c.33.08.67.121 1.01.121 2 0 3.741-1.419 4.14-3.35h-.002zm4.558-10.04.902-.902a.999.999 0 1 0 -1.414-1.414l-.902.902a.999.999 0 1 0 1.414 1.414zm-13.096 13.098 4.335-4.336a.999.999 0 1 0 -1.414-1.414l-4.335 4.336a.999.999 0 1 0 1.414 1.414z" fill="var(--db-icon-color, currentColor)" fill-rule="evenodd"/></svg>
