<svg id="icon" height="48" viewBox="0 0 48 48" width="48" xmlns="http://www.w3.org/2000/svg"><path d="m17.281 9c.677 0 1.354.208 1.927.573l18.886 11.719a3.286 3.286 0 0 1 1.406 2.708c0 1.094-.52 2.083-1.406 2.708l-18.886 11.719a3.624 3.624 0 0 1 -1.927.573c-1.823 0-3.281-1.51-3.281-3.333v-23.334c0-1.823 1.458-3.333 3.281-3.333zm0 2c-.655 0-1.281.52-1.281 1.333-.002 7.778-.002 15.556 0 23.334 0 .738.583 1.333 1.281 1.333.235 0 .489-.06.852-.26a955.241 955.241 0 0 1 18.807-11.666c.36-.254.56-.637.56-1.074 0-.389-.2-.85-.546-1.063-2.718-1.735-8.991-5.627-18.82-11.677a1.626 1.626 0 0 0 -.853-.26z" fill="var(--db-icon-color, currentColor)" fill-rule="evenodd"/></svg>
