<svg id="icon" height="32" viewBox="0 0 32 32" width="32" xmlns="http://www.w3.org/2000/svg"><path d="m4 18.99c0-6.11 5.026-11.03 11.146-10.966l-1.32-1.318a.997.997 0 0 1 -.29-.708c0-.579.45-.997.998-.997a1 1 0 0 1 .709.29l3.157 3.149c.193.193.29.45.29.708a.997.997 0 0 1 -.29.708l-3.157 3.152a1 1 0 0 1 -.709.29.983.983 0 0 1 -.998-.998c0-.257.096-.515.29-.708l1.578-1.576c-4.993-.225-9.407 3.763-9.407 8.942a8.95 8.95 0 0 0 2.223 5.918.982.982 0 0 1 .226.643c0 .579-.42 1.03-1 1.03-.289 0-.579-.13-.74-.355-1.772-1.993-2.706-4.566-2.706-7.203z" fill="var(--db-icon-color, currentColor)" fill-rule="evenodd"/></svg>
