<svg id="icon" height="24" viewBox="0 0 24 24" width="24" xmlns="http://www.w3.org/2000/svg"><path d="m2 13.094c0-4.156 3.219-7.625 7.375-7.969l-.406-.406a.998.998 0 0 1 -.344-.75c0-.531.469-.969 1.031-.969.219 0 .469.063.656.219l2.282 2.312a.919.919 0 0 1 .281.688.99.99 0 0 1 -.281.718l-2.188 2.22c-.187.187-.437.28-.75.28-.531 0-.969-.468-.969-1 0-.25.094-.5.313-.687l.563-.625c-3.126.219-5.563 2.844-5.563 6 0 1.531.625 3.063 1.781 4.25a.97.97 0 0 1 .282.688c0 .562-.47 1-1 1a.97.97 0 0 1 -.688-.282 7.998 7.998 0 0 1 -2.375-5.687zm6 6.903c0-.534.435-1.004.995-1.004h.995v-4.008l-.467.282a1.042 1.042 0 0 1 -.528.157c-.56 0-.964-.47-.964-1.003 0-.314.124-.628.404-.847l1.99-1.317a1.013 1.013 0 0 1 1.554.847v5.889h1.026c.56 0 .995.47.995 1.004a.986.986 0 0 1 -.995 1.003h-4.01a.986.986 0 0 1 -.995-1.003zm10-7.997c1.781 0 3 1.348 3 3.355v2.29c0 2.007-1.219 3.355-3 3.355-1.813 0-3-1.348-3-3.324v-2.383c0-2.007 1.188-3.293 3-3.293zm0 2c-.625 0-1 .472-1 1.258v2.421c0 .85.375 1.321 1 1.321s1-.472 1-1.352v-2.296c0-.849-.375-1.352-1-1.352z" fill="var(--db-icon-color, currentColor)" fill-rule="evenodd"/></svg>
