<svg id="icon" height="32" viewBox="0 0 32 32" width="32" xmlns="http://www.w3.org/2000/svg"><path d="m22.225 2.126a3 3 0 0 1 3.773 1.94l.878 2.739a1.2 1.2 0 0 1 -.777 1.509l-14.67 4.704h15.406a1.2 1.2 0 0 1 1.2 1.2v12.8a3 3 0 0 1 -3 3h-18a3 3 0 0 1 -3-3v-12.844a1.28 1.28 0 0 1 -.013-.041l-.878-2.738a3 3 0 0 1 1.94-3.773zm3.81 12.892h-20v12a1 1 0 0 0 1 1h18a1 1 0 0 0 1-1zm-11.151 2.195 5.135 3.477a1 1 0 0 1 0 1.656l-5.135 3.477a1 1 0 0 1 -1.56-.828v-6.954a1 1 0 0 1 1.56-.828zm.44 2.712v3.185l2.351-1.592-2.352-1.593zm8.77-15.247a1 1 0 0 0 -1.258-.647l-17.14 5.496a1 1 0 0 0 -.647 1.258l.633 1.975 19.045-6.107z" fill="var(--db-icon-color, currentColor)" fill-rule="evenodd"/></svg>
