<svg id="icon" height="32" viewBox="0 0 32 32" width="32" xmlns="http://www.w3.org/2000/svg"><path d="m15 6c.5 0 1 .406 1 1v18c0 .594-.5 1-1 1a.955.955 0 0 1 -.625-.219l-5.75-4.781h-3.625c-1.594 0-3-1.25-3-2.813v-4.187a3 3 0 0 1 3-3h3.625l5.75-4.781a.955.955 0 0 1 .625-.219zm-1 3.125-4.375 3.656a1.051 1.051 0 0 1 -.625.219h-4c-.563 0-1 .438-1 1v4c0 .563.438 1 1 1h4c.219 0 .471.09.625.219l4.375 3.656zm6.656.375c2.532 1.438 3.969 3.719 3.969 6.531 0 2.782-1.438 5.094-3.969 6.532a.883.883 0 0 1 -.468.125.974.974 0 0 1 -.97-.97c0-.343.157-.655.5-.843 1.907-1.094 2.97-2.781 2.97-4.844 0-2.062-1.063-3.75-2.97-4.843a.958.958 0 0 1 -.5-.844c0-.438.345-1 .97-1 .156 0 .312.062.468.156zm-2.781 8.469c0-.969.969-.969.969-1.938-.032-.968-.938-.968-.969-1.937-.031-.5.469-.969.969-.969.968 0 1.937 1.438 1.937 2.906 0 1.469-.968 2.907-1.937 2.907-.5 0-.969-.47-.969-.97z" fill="#282D37" style="fill: currentColor;fill: var(--db-icon-color, currentColor)" fill-rule="evenodd"/></svg>
