<svg id="icon" height="48" viewBox="0 0 48 48" width="48" xmlns="http://www.w3.org/2000/svg"><path d="m39 12.333v23.334c0 1.823-1.458 3.333-3.281 3.333a3.621 3.621 0 0 1 -1.927-.573l-18.885-11.719a3.285 3.285 0 0 1 -1.407-2.708c0-1.094.521-2.083 1.407-2.708l18.885-11.719a3.621 3.621 0 0 1 1.927-.573c1.823 0 3.281 1.51 3.281 3.333zm-4.134-1.073c-9.829 6.05-16.102 9.942-18.819 11.677-.347.213-.547.674-.547 1.063 0 .437.2.82.56 1.074a956.079 956.079 0 0 1 18.807 11.666c.363.2.617.26.852.26.699 0 1.281-.595 1.281-1.333.003-7.778.003-15.556 0-23.334 0-.813-.626-1.333-1.281-1.333-.282 0-.589.092-.853.26zm-23.866-1.26v28a1 1 0 0 1 -2 0v-28a1 1 0 0 1 2 0z" fill="var(--db-icon-color, currentColor)" fill-rule="evenodd"/></svg>
