<svg id="icon" height="64" viewBox="0 0 64 64" width="64" xmlns="http://www.w3.org/2000/svg"><path d="m46.125 12.764-23.768 15.625a4.395 4.395 0 0 0 -1.857 3.611c0 1.458.688 2.778 1.857 3.611l23.768 15.625c.757.486 1.65.764 2.544.764 2.406 0 4.33-2.014 4.33-4.444v-31.112c.001-2.43-1.923-4.444-4.329-4.444-.894 0-1.787.278-2.544.764zm3.875 3.68v31.112c0 .808-.616 1.444-1.331 1.444-.248 0-.497-.019-.92-.286a770.061 770.061 0 0 1 -23.682-15.571c-.47-.317-.567-.715-.567-1.143s.098-.827.567-1.144l23.68-15.568c.242-.156.453-.288.922-.288.673 0 1.33.5 1.33 1.444zm-35-2.944v37a1.5 1.5 0 0 0 3 0v-37a1.5 1.5 0 0 0 -3 0z" fill="var(--db-icon-color, currentColor)" fill-rule="evenodd"/></svg>
