<svg id="icon" height="24" viewBox="0 0 24 24" width="24" xmlns="http://www.w3.org/2000/svg"><path d="m3.5 18.02c0 .55.453 1.003 1.003 1.003h5.52c1.65 0 2.977-1.36 2.977-3.01v-5.016c0-.55.453-1.004 1.036-1.004h4.598l-1.327 1.295a1.004 1.004 0 0 0 -.29.712c0 .259.096.518.29.712.195.194.454.291.712.291.26 0 .518-.097.712-.291l3.01-3.042a1.13 1.13 0 0 0 .259-.712c0-.259-.065-.486-.259-.68l-3.01-3.01a.931.931 0 0 0 -.68-.29h-.064a.932.932 0 0 0 -.68.29 1.004 1.004 0 0 0 -.29.713c0 .29.096.517.29.712l1.327 1.294h-4.598c-1.683 0-3.043 1.36-3.043 3.01v5.016c0 .55-.42 1.003-.97 1.003h-5.52a.988.988 0 0 0 -1.003 1.004zm0-9.043c0-.548.452-1 1-1s1 .452 1 1c0 .549-.452 1-1 1s-1-.451-1-1zm4 0c0-.548.476-1 1.016-1 .508 0 .984.452.984 1 0 .549-.476 1-.984 1-.54 0-1.016-.451-1.016-1z" fill="#282D37" style="fill: currentColor;fill: var(--db-icon-color, currentColor)" fill-rule="evenodd"/></svg>
