<svg id="icon" height="24" viewBox="0 0 24 24" width="24" xmlns="http://www.w3.org/2000/svg"><path d="m7 18c0-.563.438-1 1-1h2.969v-9.313l-2.469 1.313c-.156.063-.313.125-.5.125-.5 0-1-.406-1-1.063 0-.343.219-.656.531-.843l3.969-2.094a.881.881 0 0 1 .469-.125c.561 0 1.031.469 1.031 1v11h3c.563 0 1 .438 1 1 0 .563-.438 1-1 1h-8c-.563 0-1-.438-1-1zm12 0c0-.563.438-1 1-1 .563 0 1 .438 1 1 0 .563-.438 1-1 1-.563 0-1-.438-1-1z" fill="#282D37" style="fill: currentColor;fill: var(--db-icon-color, currentColor)" fill-rule="evenodd"/></svg>
