<svg id="icon" height="20" viewBox="0 0 20 20" width="20" xmlns="http://www.w3.org/2000/svg"><path d="m6.74206857 2.48543865c.73305929 1.21733798 1.46521974 2.43741543 2.19648133 3.66023237.8351365 1.41776602.28049877 2.84975187-1.26659159 2.84975187l-1.17195831.00457711v3.632c0 1.2130003-.63505755 2.0484235-1.830141 1.9968879l-.30606637.0031581c-.19028467-.0031581-.36379263.1851372-.359014.3797808l-.00477863 1.9881732c0 .5522847-.44771525 1-1 1-.51283584 0-1-.3412125-1-1v-1.9881732c0-1.221074.53054572-2.2804881 1.71364779-2.3736275l.78635221-.0061993-.01-3.63657711c0-.94571637.88451611-1.99542289 2.01-1.99542289h.619l-2.09183857-3.48543865c-.2638855-.43973292-.0968407-1.10812942.34289222-1.37201492s1.02729642-.154879 1.37201492.34289222zm4.94653303 5.60298328c.4931132.1408544.8463696.68688417.6868841 1.23619989l-.6224857 2.17508468.747.0002935c.1577205 0 .3126259.0372966.4523124.1081396l1.3486876.8891163 1.199.001c.1167871 0 .2340514.0162065.4484603.1061972l1 .5017441c.3832453.1922911.6348616.6591552.521951 1.1352609l-.4684113 1.8797978.0003593.8787441c0 .5128358-.4871642 1-1 1s-1-.478178-1-1v-1c.0019498-.0824865.0118128-.1629726.0295888-.2414581l.2851071-1.1480037c.0094724-.0381411.0353293-.1108468-.0550552-.1132823l-1.262.001c-.1577205 0-.3126259-.0372966-.4523124-.1081396l-1.2121492-.7988945c-.0465128-.0306553-.2329627-.0919244-.3263869-.0918829l-.8271515.0003676-.182.6375494v2.8627441c0 .5128358-.4871642.9932723-1 .9932723-.51283584 0-1-.4347723-1-.9932723v-2.8841168c.00448515-.186305.0304118-.3623724.07777995-.5282022l1.37462175-4.8123749c.1516893-.531045.7051549-.83857351 1.2361999-.68688417zm-8.6886016-4.08842193c.55229864 0 1 .44771935 1 1.00001159 0 .55226906-.44770136.99998841-1 .99998841s-1-.44771935-1-.99998841c0-.55229224.44770136-1.00001159 1-1.00001159zm7.925635-2c.813859 0 1.26223.43290088 1.26223 1.22283501 0 .81690244-.4629339 1.25519259-1.32078 1.25519259-.092238.00108775-.1913729-.02130166-.2568216-.03774684l.0003368 1.08168028c0 .26416193-.1926513.47803896-.4303001.47803896-.23764882 0-.4303001-.21387703-.4303001-.477709v-3.04836572c0-.26385397.19241351-.47392528.4352932-.47392528zm2.5215175.96857173c.1833982 0 .4072366.05178093.5468855.10076824.152528.0534527.250092.13811914.250092.30857386 0 .17041073-.1256998.34390104-.2779702.30857386-.2071155-.07665953-.3263164-.10120818-.4800134-.10120818-.2583742 0-.3717696.07043439-.3717696.2219277 0 .0974027.0310485.15688257.1086004.21095119l.0668039.03170582.1768568.05635009.1852722.05265888c.4965382.14610404.6933703.40038932.6933703.89274808 0 .61785163-.3511631.9439351-1.0346066.9468167-.295248 0-.5912886-.0680587-.7906964-.14889766-.1467027-.05945788-.1958414-.17729579-.1897387-.30633017.009273-.19676313.1689538-.33565216.3538974-.25963054.1095317.04500585.3532436.10890712.5582786.10890712.2868667 0 .3961804-.07041238.3961804-.25428527 0-.07580165-.0213-.12987027-.0744213-.17859361l-.0533216-.03027846-.0998316-.03507869-.2319116-.06994638c-.5544148-.18385089-.746967-.42194638-.746967-.93601617 0-.60597325.346269-.91971641 1.0150105-.91971641zm2.141128 0c.1833982 0 .4072366.05178093.5468855.10076824.152528.0534527.250092.13811914.250092.30857386 0 .17041073-.1256998.34390104-.2779702.30857386-.2071155-.07665953-.3263164-.10120818-.4800134-.10120818-.2583742 0-.3717696.07043439-.3717696.2219277 0 .0974027.0310485.15688257.1086004.21095119l.0668039.03170582.1768568.05635009.1852722.05265888c.4965382.14610404.6933703.40038932.6933703.89274808 0 .61785163-.3511631.9439351-1.0346066.9468167-.295248 0-.5912886-.0680587-.7906964-.14889766-.1467027-.05945788-.1958414-.17729579-.1897387-.30633017.009273-.19676313.1689538-.33565216.3538974-.25963054.1095317.04500585.3532436.10890712.5582786.10890712.2868667 0 .3961804-.07041238.3961804-.25428527 0-.07580165-.0213-.12987027-.0744213-.17859361l-.0533216-.03027846-.0998316-.03507869-.2319116-.06994638c-.5544148-.18385089-.746967-.42194638-.746967-.93601617 0-.60597325.346269-.91971641 1.0150105-.91971641zm1.8949057-.59088331c.1763217 0 .2783872.10315604.3039503.24170248l.006396.0719087v.36387431l.3877397-.00239768c.1498134-.00103386.2712731.13481959.2712731.30113888 0 .14255939-.0892211.26178221-.2090685.29311658l-.0622046.00804429-.3877397.00063792v1.44245302c0 .18897069.0530649.26670361.2111219.28318417l.0965666.00291365.1744361-.01909601c.1439868.00533062.2243427.14728961.2243427.27894163 0 .14975555-.089262.26614166-.2089384.30340457-.1119093.03486524-.2304762.04553378-.3610899.04553378-.6049074 0-.882959-.24981275-.917344-.84182891l-.003669-.13213209v-1.36337381l-.0756894-.00063792-.0621983-.00835597c-.1198391-.03174994-.2090748-.15024551-.2090748-.2928049 0-.14140926.0892357-.26054858.2090748-.29100987l.0621983-.00753336.131228.00024197.0954835-.33593813.0444044-.13567472c.049556-.123597.1215476-.20631258.2788012-.20631258zm-6.6355587.314887h-.2373644v1.10924252c.0542544.02157173.1138986.03235759.1789324.03235759.4045023 0 .565234-.16766111.565234-.58976147 0-.36397029-.0997033-.55168758-.506802-.55183864z" fill="var(--db-icon-color, currentColor)" fill-rule="evenodd"/></svg>
