<svg id="icon" height="20" viewBox="0 0 20 20" width="20" xmlns="http://www.w3.org/2000/svg"><path d="m15.569 2c1.371 0 2.431 1.132 2.431 2.498v8a2.509 2.509 0 0 1 -2.51 2.497h-8.863a.492.492 0 0 0 -.352.156l-2.569 2.556a.987.987 0 0 1 -.686.293c-.51 0-1.02-.41-1.02-1.015v-12.487c0-1.366 1.196-2.498 2.588-2.498h10.98zm-5.564 8c-.592 0-1.105.489-1.105 1.115s.513 1.135 1.105 1.135a1.14 1.14 0 0 0 1.145-1.135c0-.626-.513-1.115-1.145-1.115zm.995-6h-2v4.995h2z" fill="var(--db-icon-color, currentColor)" fill-rule="evenodd"/></svg>
