<svg id="icon" height="32" viewBox="0 0 32 32" width="32" xmlns="http://www.w3.org/2000/svg"><path d="m22.438 6a3 3 0 0 1 2.862 2.1l1.48 5.9h2.237a.94.94 0 0 1 .96.85l.007 1.117c0 .512-.358.965-.85 1.027l-1.155.006c.024.235.002.819-.067 1.752l-.343 3.573c-.06.599-.25 1.14-.569 1.622v2.772c0 .557 0 2.209-2.083 2.279l-1.635.002c-2.162 0-2.264-1.64-2.279-2.083l-.005-1.609c-.464.03-2.5.19-4.999.19s-4.29-.143-4.998-.188l-.001 1.408c0 .557 0 2.209-2.083 2.279l-1.635.003c-2.138 0-2.264-1.64-2.279-2.083l-.003-2.917c-.296-.406-.49-.905-.573-1.48l-.365-3.739c-.078-.854-.103-1.448-.075-1.782h-1.02c-.553.001-.967-.48-.967-1.032v-1c0-.553.414-.966.967-.966h2.251l1.433-5.728a2.992 2.992 0 0 1 2.91-2.273zm-15.438 19.004v1.996h2v-1.83zm18-.002-2 .166.007 1.832h1.993zm-17.43-9.002c-.986 0-1.332.192-1.473.578-.104.309-.134.783-.09 1.422h1.993a1 1 0 0 1 1 1c0 .513-.375 1-1 1h-1.812l.206 2.132c.053.547.216.786.528.86a83.64 83.64 0 0 0 9.07.506c2.967 0 5.98-.169 9.038-.508.304-.078.465-.28.531-.718l.222-2.272h-1.783a1 1 0 1 1 .023-2h1.94c.028-.688-.004-1.156-.094-1.405-.136-.372-.448-.568-1.28-.592zm12.43 3a1 1 0 0 1 0 2h-8a1 1 0 0 1 -1-1c0-.513.424-1.007 1-1zm-10.438-11a1 1 0 0 0 -.937.649l-1.345 5.35h17.438l-1.31-5.242a1 1 0 0 0 -.856-.75zm9.422-5a1 1 0 0 1 0 2h-6a1 1 0 0 1 -1-1c0-.513.44-1 1-1z" fill="#282D37" style="fill: currentColor;fill: var(--db-icon-color, currentColor)" fill-rule="evenodd"/></svg>
