<svg id="icon" height="20" viewBox="0 0 20 20" width="20" xmlns="http://www.w3.org/2000/svg"><g fill="none" fill-rule="evenodd"><path d="m14.893 7.062a2.6 2.6 0 0 1 .037.436v8.007c0 1.372-1.053 2.495-2.34 2.495h-5.848c-.736 0-1.386-.374-1.812-.942l.13-.14 1.17-1.173a.503.503 0 0 0 .341.252l.084.007h.935c.275 0 .497-.237.497-.53s-.222-.53-.497-.53h-.56l1.934-1.94h2.954c.647 0 1.186-.531 1.25-1.204l.007-.136v-2.881zm-8.356-5.06.127.002 5.953.018c.23 0 .467.069.673.2l.79.493a.642.642 0 0 1 .213.854.586.586 0 0 1 -.507.306.583.583 0 0 1 -.301-.088l-.79-.492c-.03-.013-.078-.025-.078-.025h-.46v1.727h.472c.655 0 1.251.293 1.682.755l-1.517 1.602a1.23 1.23 0 0 0 -.843-.349h-4.551c-.696 0-1.268.605-1.268 1.341v3.305c0 .736.572 1.341 1.268 1.341l.077-.006-3.003 3.18a2.634 2.634 0 0 1 -.1-.686v-7.988c0-1.372 1.062-2.495 2.36-2.495h.472v-1.746h-.549c-.018.006-.059.012-.089.031l-.725.493a.572.572 0 0 1 -.815-.187.646.646 0 0 1 .177-.86l.726-.494c.219-.15.478-.255.732-.23zm6.135 12.936h-.935c-.275 0-.498.237-.498.53s.223.53.498.53h.935c.275 0 .497-.237.497-.53s-.222-.53-.497-.53zm-1.695-11.675h-2.596v1.74h2.596z" fill="#282D37" style="fill: currentColor;fill: var(--db-icon-color, currentColor)"/><path d="m2.466 18a.463.463 0 0 1 -.33-.137.47.47 0 0 1 0-.661l14.986-15.024a.47.47 0 0 1 .66 0 .468.468 0 0 1 0 .661l-14.984 15.024a.463.463 0 0 1 -.33.137z" fill="#f9af42"/></g></svg>
