<svg id="icon" height="32" viewBox="0 0 32 32" width="32" xmlns="http://www.w3.org/2000/svg"><path d="m3 28c0-.546.449-1 1.015-1h7.746c4.839 0 5.239-.966 5.239-2 0-2.498-6.254-8-12.439-8h-.561a1 1 0 0 1 -1-1.005.991.991 0 0 1 1-.995h.561c6.83 0 14.439 5.98 14.439 10 0 2.813-2.4 4-7.239 4h-7.746a1.008 1.008 0 0 1 -1.015-1zm0-8.863v2.602c0 .635.48 1.092 1.142 1.095 3.994.019 5.46.236 7.536.896.352.113.71.029.972-.234l.496-.496c.215-.215.313-.507.293-.8a.972.972 0 0 0 -.43-.722c-3.162-2.22-5.717-3.278-8.954-3.278-.552 0-1.054.389-1.054.937zm12.544-14.535 5.029 2.675 5.674-1.759a.983.983 0 0 1 1.21.68 1.013 1.013 0 0 1 -.639 1.251l-12.864 3.988a.977.977 0 0 1 -.283.044.974.974 0 0 1 -.699-.298l-1.177-1.21a1.024 1.024 0 0 1 -.262-.98.997.997 0 0 1 .704-.715.971.971 0 0 1 .956.273l.759.78 3.93-1.22-3.275-1.742a1 1 0 0 1 .937-1.767z" fill="#282D37" style="fill: currentColor;fill: var(--db-icon-color, currentColor)" fill-rule="evenodd"/></svg>
