<svg id="icon" height="24" viewBox="0 0 24 24" width="24" xmlns="http://www.w3.org/2000/svg"><g fill="none" fill-rule="evenodd"><path d="m18.491 7.716.108.197c.251.487.401 1.037.401 1.626v8.908c0 1.953-1.57 3.553-3.483 3.553h-7.048c-1.078 0-2.039-.524-2.677-1.316l1.738-1.774c.066.022.14.045.213.045h.975a.63.63 0 0 0 .624-.636.622.622 0 0 0 -.61-.636l2.678-2.737h4.055c.792 0 1.445-.666 1.445-1.474v-4.022c0-.038-.007-.105-.007-.105zm-10.162-5.716 7.4.022c.272 0 .543.075.785.217l.983.591a.64.64 0 0 1 .22.868.61.61 0 0 1 -.851.224l-.983-.59a.316.316 0 0 0 -.154-.053h-1.144v2.715h.946c.858 0 1.636.337 2.244.868l-1.415 1.443a1.403 1.403 0 0 0 -.895-.329h-6.893c-.793 0-1.445.666-1.445 1.474v4.023c0 .808.652 1.474 1.445 1.474h1.268l-4.654 4.656c-.14-.381-.186-.713-.186-1.148v-8.908c0-1.952 1.57-3.553 3.483-3.553h.94v-2.737h-1.109c-.066.022-.11.022-.169.06l-.902.59a.61.61 0 0 1 -.858-.187.638.638 0 0 1 .183-.875l.902-.59c.265-.165.573-.255.86-.255zm7.95 15.684h-.975a.63.63 0 0 0 -.624.636.63.63 0 0 0 .624.636h.975a.63.63 0 0 0 .624-.636.63.63 0 0 0 -.624-.636zm-2.948-14.427h-2.67v2.73h2.67z" fill="#282D37" style="fill: currentColor;fill: var(--db-icon-color, currentColor)"/><path d="m2.562 22a.558.558 0 0 1 -.399-.165.565.565 0 0 1 0-.795l18.877-18.877a.568.568 0 0 1 .797 0 .565.565 0 0 1 0 .795l-18.877 18.877a.558.558 0 0 1 -.398.165z" fill="#f9af42"/></g></svg>
