<svg id="icon" height="20" viewBox="0 0 20 20" width="20" xmlns="http://www.w3.org/2000/svg"><path d="m14.778 5.013c1.205 0 2.217 1.103 2.217 2.227l.005 2.76a1 1 0 0 1 -.204.605l-4.078 4.122c-.156.158-.317.273-.71.273h-4.003c-.012 1.094-.93 2-2.005 2s-2-.885-1.994-2h-1.006c-.542 0-.993-.387-.993-.998l-.007-1.312c0-1.96 1.538-3.56 3.472-3.661l2.172-.005-.27-1.025h-2.384c-.597 0-.99-.487-.99-1 0-.512.374-.985.99-1h2.6c.69 0 1.393.532 1.633 1.19l1.546 5.834h.823l3.407-3.434.001-2.188c0-.213-.055-.402-.325-.402l-1.668-.01a.991.991 0 0 1 -.999-.99c0-.513.324-.986.999-.986zm1.222 7.987a2 2 0 1 1 0 4 2 2 0 0 1 0-4zm-7.822-1.994h-2.505c-.872 0-1.673.839-1.667 1.54-.004.137-.006.296-.006.476h4.7z" fill="#282D37" style="fill: currentColor;fill: var(--db-icon-color, currentColor)" fill-rule="evenodd"/></svg>
