<svg id="icon" height="24" viewBox="0 0 24 24" width="24" xmlns="http://www.w3.org/2000/svg"><path d="m10.883 7.546c.154-.092.339-.123.524-.123.709 0 1.202.462 1.14 1.263l-.308 4.839 2.65 2.62c.093.122.185.276.247.461l1.047 4.191a1.004 1.004 0 0 1 -.986 1.203c-.462 0-.832-.308-.955-.74l-.986-3.913-2.743-2.712c-.185-.185-.37-.4-.308-.801l.246-3.976-1.17.524-.278 1.788a.993.993 0 0 1 -.986.832c-.524 0-1.11-.462-.986-1.14l.339-2.343c.061-.338.308-.616.616-.77l2.897-1.202zm-1.15 8.466c.596 0 .987.442.987.986 0 .123 0 .277-.062.4l-1.747 3.986c-.124.37-.493.616-.925.616-.585 0-.986-.493-.986-1.017 0-.123.062-.277.092-.4l1.717-3.986c.185-.37.555-.585.925-.585zm5.242-6.268 1.67.853a.983.983 0 0 1 .555.863c0 .616-.493 1.017-1.017 1.017-.154 0-.277-.03-.431-.093l-1.671-.853a1.005 1.005 0 0 1 -.555-.894c0-.523.308-1.047.987-1.047a.83.83 0 0 1 .462.154zm-2.925-7.744c1.108 0 2 .892 2 2s-.892 2-2 2c-1.077 0-2-.892-2-2s.923-2 2-2z" fill="#282D37" style="fill: currentColor;fill: var(--db-icon-color, currentColor)" fill-rule="evenodd"/></svg>
