<svg id="icon" height="20" viewBox="0 0 20 20" width="20" xmlns="http://www.w3.org/2000/svg"><path d="m4.145 5.588c.112-.01.282.009.51.058.227.05 1.755.428 4.583 1.133a1 1 0 0 1 .247.097c1.818 1.013 3.237 2.077 4.255 3.203a1 1 0 0 1 .202 1l-1.203 2.376a1 1 0 0 1 -.883.545l-3.018-.075a2.377 2.377 0 0 1 -4.713-.358l-.953-.073a1 1 0 0 1 -.916-.873c-.168-1.267-.253-1.994-.256-2.18-.003-.188.057-1.179.178-2.973a2 2 0 0 1 1.967-1.88zm13.825 6.67c.125.497-.16 1.081-.727 1.212l-2 .5a1 1 0 0 1 -1.213-.727 1.007 1.007 0 0 1 .727-1.213l2-.5a1 1 0 0 1 1.213.727zm-14.058-4.153-.007 1.66a.85.85 0 0 0 1.694.107l.006-.613 2.565.539 1.358.908c.357.239.893.165 1.16-.2a.86.86 0 0 0 -.124-1.143l-1.585-1.068a1.75 1.75 0 0 0 -.298-.125l-3.75-.79a.85.85 0 0 0 -1.02.726z" fill="#282D37" style="fill: currentColor;fill: var(--db-icon-color, currentColor)" fill-rule="evenodd"/></svg>
