<svg id="icon" height="24" viewBox="0 0 24 24" width="24" xmlns="http://www.w3.org/2000/svg"><path d="m16.436 2c.964 0 1.477.1 2.012.385.5.268.9.666 1.167 1.167.262.49.367.962.383 1.78l.002.802a.995.995 0 0 1 .5-.134c.513 0 1 .433 1 1v3a1 1 0 0 1 -1.5.866v6.57c0 .964-.1 1.477-.385 2.012-.16.3-.366.561-.613.781l-.002.771a1 1 0 0 1 -1 1h-1a1 1 0 0 1 -1-1h-8a1 1 0 0 1 -1 1h-1a1 1 0 0 1 -1-1v-.77a2.826 2.826 0 0 1 -.615-.782c-.262-.49-.367-.962-.383-1.78v-6.802a.995.995 0 0 1 -.502.134c-.513 0-1-.426-1-1v-3a1 1 0 0 1 1.501-.866l-.001-.57c0-.964.1-1.477.385-2.012.268-.5.666-.9 1.167-1.167.49-.262 1.005-.385 1.842-.383zm-4.436 13.15c-1.76 0-3.758-.147-5.999-.441v2.897c.001.406 0 .763.299 1.076.298.312.7.317 1.094.317h9.212c.49 0 .87-.024 1.13-.317.262-.294.264-.722.263-1.076v-2.897c-2.24.294-4.24.441-5.999.441zm-4 .85a1 1 0 1 1 0 2 1 1 0 0 1 0-2zm8 0a1 1 0 1 1 0 2 1 1 0 0 1 0-2zm.606-11.999c-.395-.004-8.725.003-9.212 0-.486-.003-.79.034-1.066.265-.275.23-.326.581-.327 1.128l.001 7.297c2.265.306 4.265.459 5.998.459s3.733-.153 5.998-.459c.001-4.549.002-6.981.001-7.297-.001-.473.001-.759-.262-1.074s-.737-.315-1.131-.319zm-1.606.999a1 1 0 0 1 1 1c0 .513-.383 1-1 1h-6a1 1 0 0 1 -1-1c0-.513.424-1 1-.998z" fill="#282D37" style="fill: currentColor;fill: var(--db-icon-color, currentColor)" fill-rule="evenodd"/></svg>
