<svg id="icon" height="32" viewBox="0 0 32 32" width="32" xmlns="http://www.w3.org/2000/svg"><path d="m29 11a1 1 0 0 1 1 .89l.006.11v3.582c0 .482-.452 1.014-.995 1.014l-1.185-.001v1.41c0 .47-.384 1-1 1h-1.406v.58c0 .174-.001.452-.287.7-.351.365-.705.717-1.126 1.147.49 2.004.016 4.084-1.604 5.784-2.364 2.365-6.182 2.388-8.527.043-2.346-2.345-2.323-6.163.042-8.528 1.495-1.495 3.817-2.142 5.889-1.577.875-.895 2.697-2.81 5.465-5.745.124-.128.348-.378.728-.41h3zm-1.019 2h-1.458l-5.72 6c-.222.228-.52.385-1.09.23a4.063 4.063 0 0 0 -4.38.915c-1.588 1.588-1.603 4.14-.043 5.7s4.112 1.544 5.7-.043a4.064 4.064 0 0 0 .948-4.294 1.04 1.04 0 0 1 .223-1.05c.276-.283.696-.71 1.26-1.283l-.001-1.173c0-.47.385-.996 1-1 .469-.002.937-.002 1.406 0v-1.406c0-.47.404-.996 1-1 .385-.002.77-.003 1.155 0zm-11.981-8c2.09 0 4.178.085 6.267.253 1.333.106 2.51.98 2.83 2.261l.331 1.282a1 1 0 1 1 -1.936.5l-.333-1.289c-.1-.401-.528-.719-1.031-.759a77.34 77.34 0 0 0 -6.128-.247c-2.027 0-4.054.08-6.081.243-.535.058-.92.278-1.08.773-.434 1.66-.867 3.322-1.297 4.984 4.6-.12 7.42-.187 8.458-.2a51.114 51.114 0 0 1 3.116.057 1 1 0 0 1 -.054 2c-.552-.015-1.306-.058-3.062-.058a456.49 456.49 0 0 0 -8.414.2c-.986 0-1.352.186-1.474.578-.1.327-.134.743-.1 1.249l1.148.186a1 1 0 0 1 -.203 1.986l-.759-.116.211 1.999c.05.513.284.773.755.905.833.235 1.793.403 2.897.516-.098 1.742.295 3.263.62 3.894-.275.386-.842.78-1.681.8l-2 .003c-.997 0-2-.63-2-1.961v-2.396a2.981 2.981 0 0 1 -.554-1.35c-.082-.522-.435-4.334-.446-4.598a7.24 7.24 0 0 1 .002-.695h-1.035c-.552 0-.967-.482-.967-1.034v-1c0-.553.415-.966.967-.966h2.509l1.425-5.478c.322-1.288 1.434-2.118 2.849-2.27a77.518 77.518 0 0 1 6.25-.252zm-9 18.813v1.185h1.532l-.144-.843c-.563-.118-.846-.208-1.388-.342zm9.484 1.061a1.5 1.5 0 1 0 2.122-2.121 1.5 1.5 0 0 0 -2.122 2.121z" fill="#282D37" style="fill: currentColor;fill: var(--db-icon-color, currentColor)" fill-rule="evenodd"/></svg>
