<svg id="icon" height="32" viewBox="0 0 32 32" width="32" xmlns="http://www.w3.org/2000/svg"><path d="m10.98 2 10.09.03c.39 0 .79.11 1.14.32l1.34.79c.47.28.63.89.35 1.37a1.002 1.002 0 0 1 -1.37.35l-1.34-.79c-.04-.02-.13-.04-.13-.04h-1.02v1.97h1.53c2.47 0 4.5 2.03 4.5 4.5v15c0 2.48-2.03 4.5-4.5 4.5h-11.07c-2.47 0-4.5-2.03-4.5-4.5v-15c0-2.48 2.03-4.5 4.5-4.5h1.53v-2h-1.08c-.06-.03-.1.02-.15.05l-1.22.79c-.46.3-1.08.16-1.38-.3s-.16-1.08.3-1.38l1.23-.79c.38-.25.84-.37 1.25-.37zm10.6 6h-11.07a2.5 2.5 0 0 0 -2.5 2.5v15a2.5 2.5 0 0 0 2.5 2.5h11.07a2.5 2.5 0 0 0 2.5-2.5v-15a2.5 2.5 0 0 0 -2.5-2.5zm-8.54 16c.55 0 1 .45 1 1s-.45 1-1 1h-2c-.55 0-1-.45-1-1s.45-1 1-1zm8.05 0c.55 0 1 .45 1 1s-.45 1-1 1h-2c-.55 0-1-.45-1-1s.45-1 1-1zm-4.07-4c.55 0 1 .45 1 1s-.45 1-1 1h-2c-.55 0-1-.45-1-1s.45-1 1-1zm2.76-10c1.27 0 2.31 1.04 2.31 2.31v3.38c0 1.27-1.04 2.31-2.31 2.31h-7.43c-1.27 0-2.31-1.04-2.31-2.31v-3.38c0-1.27 1.04-2.31 2.31-2.31zm0 2h-7.43c-.17 0-.31.14-.31.31v3.38c0 .17.14.31.31.31h7.43c.17 0 .31-.14.31-.31v-3.38c0-.17-.14-.31-.31-.31zm-1.74-7.99h-4v1.99h4z" fill="#282D37" style="fill: currentColor;fill: var(--db-icon-color, currentColor)" fill-rule="evenodd"/></svg>
