<svg id="icon" height="24" viewBox="0 0 24 24" width="24" xmlns="http://www.w3.org/2000/svg"><path d="m5 16a2 2 0 1 1 0 4 2 2 0 0 1 0-4zm10 0a2 2 0 1 1 0 4 2 2 0 0 1 0-4zm-3.553.606a1 1 0 0 1 -.787 1.835 1.523 1.523 0 0 0 -.66-.171c-.205 0-.39.041-.553.124a1 1 0 0 1 -.894-1.788 3.236 3.236 0 0 1 2.894 0zm6.579-12.606a2.46 2.46 0 0 1 2.387 1.865l1.597 8.96c.104.569-.245.953-.733 1.143l-2.409.96a1 1 0 0 1 -.742-1.857l1.771-.708-1.418-7.983a.46.46 0 0 0 -.453-.38 1 1 0 0 1 0-2zm-1.026 5a1 1 0 0 1 1 1c0 .513-.349.993-1 1l-.005 1.71c-.074 1.2-.947 2.2-2.1 2.284h-9.887c-.993 0-2.002-1.203-2.002-2.284l-.006-1.717c-.57 0-1-.48-1-.993s.415-1 .999-1zm-2.001 2h-10c.001.787.002 1.287.001 1.499-.001.318.2.501.5.501h9.002a.518.518 0 0 0 .498-.501z" fill="#282D37" style="fill: currentColor;fill: var(--db-icon-color, currentColor)" fill-rule="evenodd"/></svg>
