<svg id="icon" height="64" viewBox="0 0 64 64" width="64" xmlns="http://www.w3.org/2000/svg"><g fill="none" fill-rule="evenodd" transform="translate(4 12.998)"><path d="m21.137 6.419 2.106 6.612 8.697 1.933 3.573-5.021a1 1 0 1 1 1.628 1.162 53953.99 53953.99 0 0 0 -10.327 14.478.97.97 0 0 1 -.812.419c-.457-.023-.775-.255-.955-.697l-1.633-5.135c-.46.16-1.183.43-2.172.812.49 1.245.758 2.6.758 4.02 0 6.075-4.925 11-11 11s-11-4.925-11-11 4.925-11 11-11a10.99 10.99 0 0 1 9.34 5.187 89.412 89.412 0 0 1 2.468-.926l-3.578-11.238a1 1 0 0 1 .65-1.256.994.994 0 0 1 1.256.65zm15.863-6.417c.391 0 .801.243.949.683 1.513 4.534 3.025 9.07 4.535 13.606.808-.19 1.65-.29 2.516-.29 6.075 0 11 4.926 11 11 0 6.076-4.925 11-11 11s-11-4.924-11-11c0-4.505 2.709-8.378 6.586-10.078l-4.306-12.921h-5.28a1 1 0 0 1 0-2c2-.003 4-.003 6 0zm-26 16a9 9 0 1 0 8.4 5.764c-1.552.685-4.182 2.05-7.89 4.096a1 1 0 1 1 -1.02-1.72c3.41-1.954 6.072-3.338 7.986-4.154a8.994 8.994 0 0 0 -7.476-3.986zm34 0a9.04 9.04 0 0 0 -1.881.197l2.83 8.486a1 1 0 0 1 -1.854.741l-.044-.108-2.829-8.488a9 9 0 1 0 3.778-.829zm-15.584 2.496c-2.011.482-3.378.834-4.099 1.055.167.521.51 1.601 1.03 3.24zm-5.472-3.262c.327 1.063.583 1.867.767 2.41 1.218-.348 2.782-.747 4.692-1.197zm-1.944-13.234a1 1 0 0 1 1 1c0 .512-.4 1-1 1-2.332.002-4.665.002-7 0a1 1 0 0 1 0-2c2.332-.003 4.665-.003 7 0z" fill="#282D37" style="fill: currentColor;fill: var(--db-icon-color, currentColor)" fill-rule="nonzero"/><path d="m2.577 4.636a1 1 0 0 1 1.063.932c.147 2.239 2.233 3.318 5.15 3.194 2.918-.124 5.365-.045 8.394 1.17.512.166.836.709.683 1.24-.154.53-.782.877-1.239.682-2.026-.866-4.518-1.436-7.752-1.093-4.167.296-7-1.528-7.232-5.062a1 1 0 0 1 .933-1.063z" fill="#EC0016" style="fill:#EC0016;fill: var(--db-icon-pulse-color, #EC0016)"/></g></svg>
