<svg id="icon" height="20" viewBox="0 0 20 20" width="20" xmlns="http://www.w3.org/2000/svg"><path d="m17.316 5.052-2.776-.926-1.833-1.833a.997.997 0 0 0 -1.012-.245.997.997 0 0 0 -.681.788l-.823 4.94-5.484-5.483a.999.999 0 1 0 -1.414 1.414l4.293 4.293h-3.408c-.057-.09-.178-.355-.178-1a1 1 0 1 0 -2 0c0 1.514.5 2.262 1 2.633v5.867c0 1.38 1.122 2.5 2.5 2.5s2.5-1.12 2.5-2.5v-1.11a5.138 5.138 0 0 0 2 0v1.11c0 1.38 1.122 2.5 2.5 2.5s2.5-1.12 2.5-2.5v-5.626c1.445-.357 3-1.508 3-3.874a.998.998 0 0 0 -.684-.948zm-9.869 7.054a1 1 0 0 0 -1.447.895v2.5a.5.5 0 0 1 -1 0v-5.5h4v2.5c-.616 0-1.332-.286-1.553-.395zm5.053 3.895a.5.5 0 0 1 -.5-.5v-2.5a1.002 1.002 0 0 0 -1-.999v-1.382l2 1v3.882a.5.5 0 0 1 -.5.5zm1.5-8a1 1 0 0 0 -1 1v.382l-.969-.485.636-3.816.626.626a1 1 0 0 0 .391.241l2.229.743c-.333 1.18-1.516 1.303-1.912 1.31h-.001z" fill="#282D37" style="fill: currentColor;fill: var(--db-icon-color, currentColor)" fill-rule="evenodd"/></svg>
