<svg id="icon" height="24" viewBox="0 0 24 24" width="24" xmlns="http://www.w3.org/2000/svg"><path d="m10 2c4.438 0 8.031 3.594 8.031 8a7.993 7.993 0 0 1 -1.687 4.938l5.375 5.343c.187.203.281.461.281.719 0 .578-.425.997-.992.997a1.03 1.03 0 0 1 -.633-.216l-5.438-5.437a7.992 7.992 0 0 1 -4.937 1.686c-4.406 0-8-3.593-8-8.031 0-4.406 3.594-8 8-8zm0 2c-3.313 0-6 2.688-6 6 0 3.344 2.688 6.031 6 6.031a6.015 6.015 0 0 0 6.031-6.031c0-3.313-2.687-6-6.031-6zm3 5h-6c-.563 0-1 .438-1 1 0 .563.438 1 1 1h6c.563 0 1.031-.438 1.031-1 0-.563-.469-1-1.031-1z" fill="#282D37" style="fill: currentColor;fill: var(--db-icon-color, currentColor)" fill-rule="evenodd"/></svg>
