<svg id="icon" height="24" viewBox="0 0 24 24" width="24" xmlns="http://www.w3.org/2000/svg"><path d="m12.9815923 2c1.6681941 0 2.5496427.17430624 3.443698.65245221.8261203.44181398 1.4804435 1.0961372 1.9222575 1.92225752.4482618.83817678.629477 1.66527357.6503779 3.13993607l.0020743 8.2669465c0 1.6681941-.1743062 2.5496427-.6524522 3.443698-.441814.8261203-1.0961372 1.4804435-1.9222575 1.9222575-.8381768.4482618-1.6652736.629477-3.1399361.6503779l-2.2669465.0020743c-1.66819407 0-2.54964274-.1743062-3.44369797-.6524522-.82612032-.441814-1.48044354-1.0961372-1.92225752-1.9222575-.44826185-.8381768-.62947706-1.6652736-.65037793-3.1399361l-.00207428-8.26694654c0-1.66819403.17430624-2.5496427.65245221-3.44369793.44181398-.82612032 1.0961372-1.48044354 1.92225752-1.92225752.83817678-.44826185 1.66527357-.62947706 3.13993607-.65037793zm-2.4392345 2.00541302c-1.03080041.02562348-1.5272088.1447379-2.02445035.41066559-.47758338.25541438-.84641446.62424546-1.10182884 1.10182884-.28492253.5327588-.40130941 1.06456117-.41474479 2.25371064l.0040792 8.68602411c.02562348 1.0308004.1447379 1.5272088.41066559 2.0244503.25541438.4775834.62424546.8464145 1.10182884 1.1018289.16871225.0902283.33732858.1635551.52675515.2220634.16207695-.5285838.70876806-.7974626 1.1947433-.6770024.4859752.1204603.982071.2210176 1.7630167.2210176.693511 0 1.1131672-.0255461 1.644359-.1855409.4967397-.1620888 1.0695352 0 1.3075569.641834.1898328-.0585589.3587453-.1319848.527754-.2223717.4775834-.2554144.8464145-.6242455 1.1018289-1.1018289.2454717-.4589922.3658481-.9172744.4030686-1.7958159.0248137-.5856943.027346-3.6336672.007597-9.14391883-.0256235-1.03080038-.1447379-1.52720877-.4106656-2.02445032-.2554144-.47758338-.6242455-.84641446-1.1018289-1.10182884-.5327588-.28492253-1.0645611-.40130941-2.2537106-.41474479zm-.2923578 11.99458698c.5522847 0 1 .4477153 1 1 0 .5128358-.4465589.9932723-.8833789.9932723l-1.1166211.0067277c-.55228475 0-1-.4477153-1-1 0-.5128358.43341603-1 1-1zm4.5 0c.566584.0067277 1 .4871642 1 1s-.433416 1-1 1l-1-.0067277c-.5679096 0-1-.4804365-1-.9932723s.4251931-.9932723 1-.9932723zm-.8078308-11.00003507c1.0543618 0 2.0811131.89864147 1.9968434 2.11235751-.0882605 1.5610138-.1955914 3.46911756-.3219925 5.72431146-.0302692.5381189-.1077384.8567325-.3004361 1.1871397-.1867245.3201653-.4557536.5744868-.7859002.7429356-.2981194.1521078-.5822689.2166402-1.0097157.2303966l-2.8495129.0028942c-.5389696 0-.86143114-.0594533-1.20213902-.2332908-.33014662-.1684488-.59917569-.4227703-.78590015-.7429356-.16861049-.2891063-.24899921-.5691831-.28673984-.9951827l-.33568883-5.91626846c-.05921425-1.05269771.7668207-2.06317719 1.89855158-2.11235751zm0 2.00003507h-3.8843384l.3441692 5.992h3.195z" fill="var(--db-icon-color, currentColor)" fill-rule="evenodd"/></svg>
