<svg id="icon" height="20" viewBox="0 0 20 20" width="20" xmlns="http://www.w3.org/2000/svg"><path d="m10 2a.75.75 0 0 1 .338.081l5.402 2.789c.158.079.26.26.26.46v2.67c0 4.498-1.937 7.852-5.81 9.952a.401.401 0 0 1 -.38 0c-3.873-2.1-5.81-5.454-5.81-9.952v-2.67c0-.2.102-.381.26-.46l5.402-2.789a.75.75 0 0 1 .338-.081zm1.662 5.293-2.47 2.293-.854-.793a1.135 1.135 0 0 0 -1.522 0 .95.95 0 0 0 0 1.414l1.615 1.5c.21.195.486.293.761.293.276 0 .552-.098.762-.293l3.23-3a.95.95 0 0 0 0-1.414 1.135 1.135 0 0 0 -1.522 0z" fill="#282D37" style="fill: currentColor;fill: var(--db-icon-color, currentColor)" fill-rule="evenodd"/></svg>
