<svg id="icon" height="20" viewBox="0 0 20 20" width="20" xmlns="http://www.w3.org/2000/svg"><path d="m15.923 4c1.147 0 2.077.93 2.077 2.077v1.923a1 1 0 0 1 -1 1 1 1 0 0 0 0 2 1 1 0 0 1 1 1v1.923c0 1.147-.93 2.077-2.077 2.077h-11.846a2.077 2.077 0 0 1 -2.077-2.077v-1.923a1 1 0 0 1 1-1 1 1 0 0 0 0-2 1 1 0 0 1 -1-1v-1.923c0-1.147.93-2.077 2.077-2.077zm0 2h-11.846a.077.077 0 0 0 -.077.077v1.093l.012.005a3.002 3.002 0 0 1 1.983 2.649l.005.176c0 1.302-.83 2.41-1.988 2.825l-.012.005v1.094c0 .032.02.06.047.071l.03.006h11.846a.077.077 0 0 0 .077-.077v-1.094l-.012-.004a3.002 3.002 0 0 1 -1.983-2.649l-.005-.177c0-1.302.83-2.41 1.988-2.825l.012-.005v-1.093c0-.032-.02-.06-.047-.071zm-3.933 4.995a1.006 1.006 0 1 1 .019 2.009 1.006 1.006 0 0 1 -.019-2.009zm-.488-3.919 1.422 1.422-4.426 4.406-1.402-1.402zm-3.492-.081c.548 0 .995.447.995 1.015a.996.996 0 0 1 -.995.995 1.001 1.001 0 0 1 -1.015-.995c0-.568.447-1.015 1.015-1.015z" fill="#282D37" style="fill: currentColor;fill: var(--db-icon-color, currentColor)" fill-rule="evenodd"/></svg>
