<svg id="icon" height="20" viewBox="0 0 20 20" width="20" xmlns="http://www.w3.org/2000/svg"><path d="m4.5 14a1.5 1.5 0 1 1 0 3 1.5 1.5 0 0 1 0-3zm7 0a1.5 1.5 0 1 1 0 3 1.5 1.5 0 0 1 0-3zm-2.856.75a.75.75 0 0 1 .75.75c0 .38-.315.75-.75.75h-1.144a.75.75 0 0 1 -.75-.75c0-.38.318-.75.75-.75zm5.393-11.75a3 3 0 0 1 2.943 2.422l1.011 7.444c.059.471-.203.848-.541 1.028l-2.003 1a1 1 0 0 1 -1.341-.447 1.01 1.01 0 0 1 .447-1.341l1.359-.681-.884-6.559c-.062-.458-.429-.866-1.028-.866a.986.986 0 0 1 -.985-1c0-.513.404-1 1.022-1zm-1.037 4a1 1 0 0 1 1 1c0 .513-.418.993-.985 1l-.015 2c.016 1.547-.47 2-2 1.998h-6.003c-1.57.002-1.998-.484-1.998-1.998v-2.007a.995.995 0 0 1 -.999-.993c0-.513.423-1 .999-1zm-2.001 2h-6l.001 2h6z" fill="#282D37" style="fill: currentColor;fill: var(--db-icon-color, currentColor)" fill-rule="evenodd"/></svg>