<svg id="icon" height="32" viewBox="0 0 32 32" width="32" xmlns="http://www.w3.org/2000/svg"><path d="m5.20422915 5.27090154 2.16117403.44893787c1.27611291.26508528 2.12480413 1.46118008 1.9748011 2.7372858l-1.46020428 7.89267419c1.66233393.9629738 2.9391829 1.9485893 3.8654029 2.984907.8322237.9311482 1.2531706 2.1631225 1.28819 3.6646094l10.0018383.0006708c.2425534-1.6963479 1.7010528-2.9999866 3.4645688-2.9999866 1.9325683 0 3.5 1.5669987 3.5 3.5s-1.5674317 3.5-3.5 3.5c-1.3959976 0-2.600863-.8168979-3.1627395-1.9988372-7.558307 0-11.3374605-.0003876-11.3374605-.0011628-.309706.0011628-1.0357039-.2375031-.9961664-1.0874783.1312555-1.4946823-.1343573-2.556842-.7494365-3.2450343-.6645066-.743495-1.5850364-1.4850045-2.76201856-2.2185046l-.36363477 1.9522773c1.11264589.5860361 1.87145623 1.7537951 1.87145623 3.0987399 0 1.9330013-1.56743169 3.5-3.5 3.5-1.93328475 0-3.5-1.5667153-3.5-3.5 0-1.8204246 1.38913289-3.3158292 3.16540593-3.484221l2.18312853-11.75691904c.04413698-.23771909-.08783979-.46803752-.30475736-.5551391l-2.24632165-.4746224c-.54074115-.11232746-.89123597-.6993133-.76876893-1.20570674.12246704-.50639343.61312688-.87066821 1.17554263-.75249018zm.29577085 16.72909846c-.82871525 0-1.5.6712847-1.5 1.5s.67128475 1.5 1.5 1.5c.82812249 0 1.5-.6716919 1.5-1.5s-.67187751-1.5-1.5-1.5zm21 0c-.8287153 0-1.5.6712847-1.5 1.5s.6712847 1.5 1.5 1.5c.8281225 0 1.5-.6716919 1.5-1.5s-.6718775-1.5-1.5-1.5zm1.4993839-5.9999449c.5522847 0 1 .4477152 1 1 0 .5522847-.4477153 1-1 1-3.0426689 0-4.3428275.5870291-5.0764032 2.3788752-.209247.5111107-.7932123.7558196-1.304323.5465726s-.7558196-.7932123-.5465726-1.304323c1.1019782-2.6917131 3.1604495-3.6211248 6.9272988-3.6211248z" fill="var(--db-icon-color, currentColor)" fill-rule="evenodd" transform="matrix(-1 0 0 1 32 0)"/></svg>
