<svg id="icon" height="20" viewBox="0 0 20 20" width="20" xmlns="http://www.w3.org/2000/svg"><path d="m11 2a1 1 0 0 1 1 1c0 .513-.42 1-1 1-1.48.002-2.96.002-4.44 0-.101 0-.169.077-.192.162-.043.186-.251 1.132-.625 2.838h3.35c.195-.53.795-1 1.407-1 .169-.002.336-.002.5 0-.007-.505.341-1 1-1h3c.5 0 1 .5.993 1.018l.507.002c.78 0 1.5.624 1.5 1.48v9c0 .78-.617 1.499-1.5 1.5-2 .002-4 .009-6 .02-.78 0-1.498-.64-1.5-1.5-.002-.852-.002-1.692 0-2.52a58.71 58.71 0 0 1 -3-.314v1.314h-2.5v-3.02a4.347 4.347 0 0 1 -.125-.549c-.092-.81-.183-1.62-.271-2.431h-.456c-.37 0-.648-.321-.648-.69v-.666a.63.63 0 0 1 .648-.644h1.048l.72-3.268c.206-.941.993-1.73 2.043-1.732 1.514-.002 3.027-.002 4.541 0zm5 6.019h-5v8h5zm-2.764 1.402a.75.75 0 0 1 1.01-.326.742.742 0 0 1 .325 1.01c-.147.29-.34.668-.581 1.135l.273-.001a.751.751 0 0 1 .66 1.118l-1.28 2.268a.75.75 0 0 1 -1.022.284.754.754 0 0 1 -.285-1.022l.642-1.139-.213.002a.747.747 0 0 1 -.674-1.091c.164-.315.545-1.06 1.145-2.238zm-7.316-.401a.75.75 0 0 0 -.435 1.432l1.559.367a.75.75 0 0 0 .435-1.432l-1.56-.367z" fill="#282D37" style="fill: currentColor;fill: var(--db-icon-color, currentColor)" fill-rule="evenodd"/></svg>