<svg id="icon" height="64" viewBox="0 0 64 64" width="64" xmlns="http://www.w3.org/2000/svg"><g fill="none" fill-rule="evenodd" transform="translate(4 10)"><path d="m49 6c1.598 0 3 1.308 2.995 3l.005 1.079c2.204.401 4 2.274 3.994 4.921l.006 24.118a4.88 4.88 0 0 1 -4.66 4.877l-10.461.005a4.881 4.881 0 0 1 -4.875-4.664l-.004-24.336c0-2.533 1.726-4.507 4.001-4.921v-1.079c0-1.685 1.4-3 3.003-3zm-8.12 6c-1.534 0-2.88 1.343-2.876 2.712l-.004 24.406c0 1.535 1.238 2.877 2.999 2.877l10.121.005a2.88 2.88 0 0 0 2.874-2.712l.004-24.406a2.88 2.88 0 0 0 -2.708-2.877zm-1.848-12c1.448 0 1.668 0 2.238.119 1.314.274 2.431 1.181 3.105 2.4a1 1 0 0 1 -1.75.968c-.405-.733-1.2-1.487-2.515-1.487h-24.342c-1.21 0-2.293.874-2.674 2.202l-2.698 9.97c.462-.139.756-.204 1.444-.283 1.343-.152 10.888-.389 16.143-.389 1.678 0 3.355.012 5.032.037a1 1 0 0 1 -.03 2 340.777 340.777 0 0 0 -5.002-.037 372.8 372.8 0 0 0 -15.674.36 5.534 5.534 0 0 0 -5.108 4.151l5.013.359c1.512.108 2.786 1.293 2.786 3.27 0 1.975-1.446 3.302-3 3.212-1.036-.06-2.545-.165-4.525-.316l.303 3.303c.15 1.535.92 2.389 2.279 2.665 1.358.276 2.196.392 4.94.753 2.746.361 8.24.743 13.011.743 1.687 0 3.337-.035 4.95-.103a1 1 0 1 1 .084 1.998c-1.64.069-3.32.105-5.034.105-4.352 0-8.378-.228-12.009-.617l.001 1.053c0 .964-.1 1.477-.385 2.012-.268.5-.666.9-1.167 1.167-.49.262-.962.367-1.78.383l-3.104.002c-.964 0-1.477-.1-2.012-.385a2.817 2.817 0 0 1 -1.167-1.167c-.262-.49-.367-.962-.383-1.78l-.002-5.522a5.991 5.991 0 0 1 -.185-.877l-.753-8.155a7.532 7.532 0 0 1 2.945-6.727l3.1-11.486c.503-2.186 2.281-3.893 4.392-3.893l23.534-.008zm-31.032 33.855v2.838c0 .372.071.667.149.812.081.152.189.27.346.346.305.149.755.149 1.069.149h2.745c.58 0 .9 0 1.196-.148a.779.779 0 0 0 .346-.346c.05-.093.148-.226.148-.9v-1.457c-2.12-.322-3.51-.542-4.172-.657-.993-.173-1.293-.309-1.827-.636zm25-10.855a1 1 0 0 1 1 1c0 .513-.45 1-1 1.001l-11.91.01c-.306.018-.835.064-.975.61-.41 1.892-.788 3.748-1.133 5.569a1 1 0 1 1 -1.964-.38c.585-2.919.946-4.689 1.082-5.31.204-.933.62-1.701 1.4-2.105s1.014-.377 1.832-.393zm-25.94-.994.23 2.512c2.823.204 4.393.316 4.71.334.476.028.96-.318 1-1.142.04-.825-.376-1.29-.819-1.331a639.89 639.89 0 0 0 -5.121-.373zm-1.06-9.006a1 1 0 0 1 1 1c0 .513-.45 1-1 1h-3.5c-.24 0-.497.151-.497.647 0 .495.166.765.442.949l1.002.51a1 1 0 1 1 -.913 1.78l-.876-.439c-.956-.477-1.658-1.44-1.658-2.8 0-1.51 1.024-2.642 2.336-2.642zm37-5c-.513 0-1 .4-1 1v1h8v-1c0-.513-.396-1-1-1z" fill="#282D37" style="fill: currentColor;fill: var(--db-icon-color, currentColor)" fill-rule="nonzero"/><path d="m51 35a1 1 0 0 1 1 1c0 .513-.45 1-1 .993l-10 .007a1 1 0 0 1 -1-1c0-.513.45-1 1-.993zm0-6a1 1 0 0 1 1 1c0 .513-.45 1-1 .993l-10 .007a1 1 0 0 1 -1-1c0-.513.45-1 1-.993zm0-6a1 1 0 0 1 1 1c0 .513-.45 1-1 .993l-10 .007a1 1 0 0 1 -1-1c0-.513.45-1 1-.993zm0-6a1 1 0 0 1 1 1c0 .513-.45 1-1 .993l-10 .007a1 1 0 0 1 -1-1c0-.513.45-1 1-.993z" fill="#EC0016" style="fill:#EC0016;fill: var(--db-icon-pulse-color, #EC0016)"/></g></svg>
