<svg id="icon" height="24" viewBox="0 0 24 24" width="24" xmlns="http://www.w3.org/2000/svg"><path d="m10.1576561 16c1.0426873 0 1.9566452.708062 2.1717844 1.7168146l.6488351 3.0618123c.1144933.5402868-.2306804 1.0710908-.7709672 1.1855841-.5402867.1144933-1.0710907-.2306804-1.185584-.7709672l-.6485643-3.0605383c-.0113771-.0533451-.0703733-.1327055-.215504-.1327055h-5.31111392c-.11723428 0-.20249686.0660072-.216451.1314315l-.65181555 3.0758769c-.11449329.5402868-.64529737.8854605-1.18558408.7709672s-.88546047-.6452973-.77096718-1.185584l.65208639-3.077151c.20299497-.9518062 1.09208012-1.7155406 2.17273142-1.7155406zm7.372414-3.3479645c.4683012.2923746.6108969.9091648.3181843 1.377294-.2927126.4681291-.9094935.610576-1.3779559.3180401-.4684623-.2925359-.6108968-.9091649-.3181842-1.377294.2925514-.4682904.9094935-.610576 1.3779558-.3180401zm-4.0278494-.5159766c.4775847.2779779.6397445.890077.3621798 1.367067-.2775647.4772183-.8894844.6388015-1.366841.3608236s-.6395165-.8900771-.3619517-1.3672953c.2773366-.47699.8892563-.6385732 1.3666129-.3605953zm8.3618891.3615896c.2777321.4773765.1161591 1.0893216-.3608006 1.3668979-.477188.2773482-1.0892483.1151816-1.3672086-.3621949-.2779603-.4776046-.1166155-1.0895497.3605725-1.3668979.4771879-.2773482 1.0894765-.1151816 1.3674367.3621949zm-14.34458347-5.5598485c1.93046565 0 3.48047367 1.55000802 3.48047367 3.4804737 0 1.9332075-1.55247447 3.5195263-3.48047367 3.5195263-1.93046565 0-3.51952633-1.5890607-3.51952633-3.5195263 0-1.92799923 1.58631885-3.4804737 3.51952633-3.4804737zm0 2c-.83817669 0-1.51952633.66681293-1.51952633 1.4804737 0 .8258961.69363018 1.5195263 1.51952633 1.5195263.81366074 0 1.48047367-.6813496 1.48047367-1.5195263 0-.82589618-.65457752-1.4804737-1.48047367-1.4804737zm10.01036007.71423097c.4686323.29237029.6110518.90901863.3183122 1.37717583-.2925784.4683184-.9095493.6106301-1.3780203.3180984-.4683097-.2923705-.6107292-.9090188-.3181508-1.37733723.2927396-.46815717.9097106-.61046888 1.3778589-.317937zm-3.0275349-.51598386c.4773765.27797091.6395431.89005459.3621949 1.36726089-.2775763.4772062-.8895214.6385571-1.3668979.3605862-.4773765-.2777427-.6395431-.89005464-.3621949-1.36703263.2773482-.47720622.8895214-.63878537 1.3668979-.36081446zm6.3615902.36153761c.2779767.47738081.1163942 1.08933148-.3605938 1.36691028-.4772163.2773507-1.0893128.1154107-1.3672896-.3621982-.2779767-.4773808-.1163942-1.08933142.3605938-1.36668215.4772163-.27757881 1.0893128-.11541074 1.3672896.36197007zm-3.8639417-7.49758472c.5128358 0 .9932723.41359909.9932723 1l.0073516 2.52944964c1.0817014.06367543 2.1625935.23057829 3.2419117.50040786.5357949.13394873.8615556.67688322.7276069 1.21267813-.1339487.5357949-.6768832.8615556-1.2126781.72760687-1.2546113-.31365281-2.5065288-.4701425-3.7574644-.4701425s-2.5028531.15648969-3.7574644.4701425c-.5357949.13394873-1.0787294-.19181197-1.2126781-.72760687-.1339487-.53579491.191812-1.0787294.7276069-1.21267813 1.0796506-.26991267 2.1608761-.43683523 3.2429111-.50046667l-.0003755-2.52939083c0-.55228475.4477153-1 1-1z" fill="var(--db-icon-color, currentColor)" fill-rule="evenodd"/></svg>
