<svg id="icon" height="24" viewBox="0 0 24 24" width="24" xmlns="http://www.w3.org/2000/svg"><path d="m4.55394036 12.2316227.86710313.8813029c.32741433-.4317351.74602593-.4612563 1.03622928-.3179244l1.22950471.6068385c.11418565-.1984548.30966972-.3585985.54613883-.3687606.15764607-.0067748.67575106-.0091757 1.55431496-.0072028.41421353 0 .75000003.3357865.75000003.75 0 .3796958-.2821539.693491-.64822948.7431534l-1.17114438.0300353-.95379467 5.1015952c1.92491515.5157794 3.75095383.4395142 5.28061773.0266231-.1372704-.6590187-.2766507-1.3268709-.4181409-2.0035566-.07441-.3382275.0914411-.7476874.491489-.8720811.400048-.1243937.8773864.0627246.9809018.5618023l.2751944 1.2738853c.4268801-.0430303 1.4575196-.3223581 2.0648264-.8141063.3248383-.2570076.7965177-.20202 1.0535253.1228184.2570077.3248383.20202.7965177-.1228183 1.0535253-.8746892.6909699-2.168043 1.0326477-2.6853931 1.1094026.0143664.3007633-.1583255.5833892-.4369648.7133144-1.867681.8708702-5.31996387 1.0252064-7.62070443 0-.29182608-.1300373-.5319254-.459921-.38576772-1.0053889-2.01288301-.3455307-3.37833525-1.2285507-4.09635671-2.6490599-.14420827-.286983-.12988554-.7333109.35157205-1.0829132l-.88388621-.8983562c-.77014483-.7825001-.83220218-2.0434215-.03081203-2.9247659.80139014-.8813443 2.17307073-.8425318 2.97259511-.0301808zm1.72568484 2.1481595-2.52128056 2.5614827c.30450827.4378898.72600947.7433041 1.25299079.9865958.35132088.1621945.80892828.2939413 1.3728222.3952403l.70820645-3.5418409zm11.5497585-11.16988951c1.5432412.41351024 2.5662554 2.00548763 2.1213203 3.67423462.5707489.20407624 1.0038695.45310127 1.299362.7470751.4432387.44096073.6957214.87595491.8246533 1.42834147.1253859.53719374.106108 1.01713282-.085845 1.79938472l-.5473629 2.0525395c-.2494449.9309413-.4781167 1.4012497-.8930193 1.8440333-.3878516.4139148-.8759549.6957213-1.4283415.8246533-.5371937.1253859-1.0171327.106108-1.7993847-.085845l-3.290801-.879154c-.538381-.1442588-.8449595-.2933223-1.1344869-.5646189-.2790616-.2614899-.4704333-.5929553-.5573593-.9653747-.0789128-.3380881-.0702515-.6406896.0297889-1.0717305l1.7883537-6.66669283c.4038546-1.63962858 2.1298811-2.55035632 3.6731224-2.13684608zm-15.17339794 10.10197331c-.23780672.2853949-.18377835.6101471.02523811.8225168l.86781962.8815428.82-.835-.88416973-.8971163c-.19657598-.1997296-.59108127-.2573382-.828888.0280567zm12.91305774-5.53094041-1.2852029 4.82445661 3.6841582.9871672c.29975.0616046.5369107.0774508.6975529.0399555.167482-.0390918.554202-.2223646.7190791-.8081387s.3979481-1.455607.7165874-2.6743408c.0875755-.39046243.0499555-.5326126.0258513-.63588258-.0390918-.16748196-.1190249-.3059302-.2445226-.42352566-.0580368-.05438234-.1780644-.17848993-.5636161-.29555342-1.1484486-.31417068-2.3984111-.65221673-3.7498873-1.01413815zm-5.60576715 1.60345944.96592585.25881905c.5334661.14294181.8500486.69127872.7071068 1.22474482-.1429419.5334662-.6912788.8500486-1.2247449.7071068l-.96592584-.258819c-.53346611-.1429418-.8500486-.6912788-.70710678-1.2247449.14294181-.53346609.69127876-.85004858 1.22474487-.70710677zm-.18946869-3.15659652 1.93185164.51763809c.5334661.14294181.8500486.69127877.7071068 1.22474487s-.6912788.85004859-1.2247449.70710678l-1.93185163-.51763809c-.53346611-.14294181-.8500486-.69127877-.70710678-1.22474487.14294181-.5334661.69127876-.85004859 1.22474487-.70710678zm6.31295104-.37900224 1.9405686.51997381c.1250953-.6356735-.2202203-1.09428405-.7155817-1.22701574-.4953614-.13273168-1.0709587.13220072-1.2249869.70704193z" fill="var(--db-icon-color, currentColor)" fill-rule="evenodd" transform="matrix(.25881905 .96592583 -.96592583 .25881905 20.485935 -2.052644)"/></svg>
