<svg id="icon" height="24" viewBox="0 0 24 24" width="24" xmlns="http://www.w3.org/2000/svg"><path d="m15 22h3.259676c.9602 0 1.740324-.7972328 1.740324-1.7585575v-7.9249722c0-.9612247-.194724-1.9225494-.569424-2.83701934l-1.0303-2.60254498c-.2811-.67999559-.3982-1.40684601-.3982-2.13369642v-.75027783c0-1.10198933-.8666-1.99293173-1.9438-1.99293173h-2.1312c-1.0539 0-1.927076.91436981-1.927076 1.99293173v.75027783c0 .72685041-.110424 1.45370083-.392024 2.12468588l-.3284.77510687c-.2581.63414195.2346 1.3857213.9384 1.3857213.3988 0 .7976-.25830222.9384-.63414195l.305-.77510687c.3753-.93949922.536-1.89141296.536-2.89969264v-.71978215h2.002624v.71978215c0 1.00827968.182676 1.96019342.558076 2.89969264l1.0323 2.58372291c.2711.6830993.4117 1.4099497.4117 2.1368001v7.6600022h-3.002076c-.5621 0-1 .4372416-1 1 0 .5392309.4379 1 1 1zm-10.01390356-11 7.02434506.0216862c.5376898 0 1.0519627.4220314.981812 1.1253838l-1.0286456 8.9869811c-.0466344.4914872-.490059.8659489-.980118.8659489h-4.94732397c-.51337616 0-.93338403-.3744617-.980118-.8659489l-1.05006948-9.0340511c-.07005114-.6085128.37337354-1.1.98011799-1.1zm1.12760788 2 .2241 2.0193h1.6425c.563 0 1.0087.4458 1.0087.9853 0 .5631-.4457 1.0088-1.0087 1.0088h-1.4077l.3608 3.0124h3.16159998l.8178-7.0241z" fill="var(--db-icon-color, currentColor)" fill-rule="evenodd"/></svg>
