<svg id="icon" height="20" viewBox="0 0 20 20" width="20" xmlns="http://www.w3.org/2000/svg"><path d="m10 2a8 8 0 1 1 0 16 8 8 0 0 1 0-16zm0 2a6 6 0 1 0 0 12 6 6 0 0 0 0-12zm-.276 2a4.58 4.58 0 0 1 2.896 1.012v1.333c-.684-.764-1.714-1.435-2.922-1.435-.684 0-1.075.378-1.075.819 0 .635.523.9 1.21 1.097l1.024.257c1.117.287 2.234.724 2.234 2.25 0 1.232-1.155 2.667-3.1 2.667-1.084 0-2.307-.506-2.99-1.14v-1.6c.647.965 1.8 1.71 2.99 1.71.729 0 1.315-.432 1.315-.892 0-.61-.543-.874-1.247-1.088l-.863-.244c-1.128-.323-2.287-.788-2.287-2.328.001-1.572 1.483-2.418 2.815-2.418z" fill="#282D37" style="fill: currentColor;fill: var(--db-icon-color, currentColor)" fill-rule="evenodd"/></svg>