<svg id="icon" height="32" viewBox="0 0 32 32" width="32" xmlns="http://www.w3.org/2000/svg"><path d="m16 1c8.284 0 15 6.716 15 15s-6.716 15-15 15c-8.285 0-15-6.716-15-15s6.715-15 15-15zm-.664 5.357c-3.212 0-6.787 2.04-6.787 5.83 0 7.227 10.598 4.633 10.598 8.822 0 1.11-1.412 2.15-3.168 2.15-2.87 0-5.718-1.795-7.28-4.123v3.858c1.647 1.529 4.667 2.749 7.28 2.749 4.688 0 7.472-3.459 7.472-6.43 0-7.358-10.77-4.21-10.77-8.688 0-1.064.942-1.973 2.59-1.973 2.913 0 5.396 1.618 7.046 3.458v-3.214a11.044 11.044 0 0 0 -6.981-2.439z" fill="#282D37" style="fill: currentColor;fill: var(--db-icon-color, currentColor)" fill-rule="evenodd"/></svg>