<svg id="icon" height="32" viewBox="0 0 32 32" width="32" xmlns="http://www.w3.org/2000/svg"><path d="m2 26c0-.563.438-1 1-1h16c6.406 0 9-1.188 9-4.031 0-2.594-2.906-6.282-7.156-9.188-3.938-2.719-9.064-4.781-14.157-4.781h-3.687c-.563 0-1-.438-1-1 0-.563.438-1 1-1h3.688c5.753 0 11.28 2.156 15.875 5.594 4.592 3.312 7.437 7.281 7.437 10.375 0 4.468-3.688 6.031-11 6.031h-16c-.563 0-1-.438-1-1zm0-11c0-.563.438-1 1-1h2.094c3.469 0 6.906.219 10.312.719l.938-.938c-3.125-1.844-6.719-2.781-10.344-2.781h-3c-.563 0-1-.438-1-1 0-.563.438-1 1-1h3c4.469 0 8.813 1.281 12.5 3.781.282.177.5.474.5.781 0 .289-.127.534-.344.75l-2.186 2.188c-.213.213-.543.33-.844.281-3.5-.531-7-.781-10.531-.781h-2.095c-.563 0-1-.438-1-1z" fill="#282D37" style="fill: currentColor;fill: var(--db-icon-color, currentColor)" fill-rule="evenodd"/></svg>