<svg id="icon" height="20" viewBox="0 0 20 20" width="20" xmlns="http://www.w3.org/2000/svg"><path d="m5 10.25a2.75 2.75 0 1 1 0 5.5 2.75 2.75 0 0 1 0-5.5zm8.385-5c.302 0 .57.18.688.451l1.221 4.55a2.75 2.75 0 1 1 -1.451.386l-.396-1.487-3.06 3.932a1 1 0 0 1 -1.704-.21l-.968-3.123-2.215.001c-1.2 0-2.082-.689-2.553-1.928a.75.75 0 1 1 1.403-.532c.24.633.558.915 1.029.955l1.874.004-.307-.999h-.446a.75.75 0 0 1 0-1.5h2a.75.75 0 0 1 .014 1.5l1.279 4.153 3.169-4.071-.155-.583-1.307.001c-.44 0-.75-.37-.75-.75s.32-.75.75-.75zm-8.385 6.5a1.25 1.25 0 1 0 0 2.5 1.25 1.25 0 0 0 0-2.5zm10.25 0a1.25 1.25 0 1 0 0 2.5 1.25 1.25 0 0 0 0-2.5z" fill="#282D37" style="fill: currentColor;fill: var(--db-icon-color, currentColor)" fill-rule="evenodd"/></svg>