<svg id="icon" height="24" viewBox="0 0 24 24" width="24" xmlns="http://www.w3.org/2000/svg"><path d="m2 19.999c0-.531.438-1 1-1h10.5c4.313 0 6.5-.655 6.5-2.78 0-3.594-8.063-10.219-15.719-10.219h-1.281c-.563 0-1-.469-1-1 0-.563.438-1 1-1h1.281c8.563 0 17.719 7.156 17.719 12.219 0 3.562-3.688 4.78-8.063 4.78h-10.937c-.563 0-1-.438-1-1zm0-6.999c0-.563.438-1 1-1h.125c3.531 0 6.156.25 7.875.813l.563-.532c-2.313-1.5-5-2.282-7.72-2.282h-.843c-.531 0-1-.469-1-1 0-.563.469-1 1-1h.844c3.562 0 7 1.189 9.844 3.314.25.156.437.468.437.843a.9.9 0 0 1 -.281.656l-1.875 1.876a.97.97 0 0 1 -.688.28c-.156 0-.281-.03-.406-.062-1.438-.594-4.063-.906-7.75-.906h-.125c-.563 0-1-.438-1-1z" fill="#282D37" style="fill: currentColor;fill: var(--db-icon-color, currentColor)" fill-rule="evenodd"/></svg>