<svg id="icon" height="24" viewBox="0 0 24 24" width="24" xmlns="http://www.w3.org/2000/svg"><path d="m11.47 4.3c-2.565 0-5.42 1.628-5.42 4.655 0 2.623 1.749 3.626 3.656 4.254 1.362.389 1.764.46 2.881.85 1.118.39 1.926.907 1.926 1.94 0 .887-1.128 1.717-2.53 1.717-2.2 0-4.466-1.316-5.813-3.292v3.08c1.315 1.222 3.727 2.196 5.813 2.196 3.744 0 5.967-2.762 5.967-5.135 0-2.623-1.714-3.574-3.612-4.141-1.428-.395-1.07-.252-2.481-.636-1.41-.383-2.508-.883-2.508-2.16 0-.85.753-1.575 2.069-1.575 2.225 0 4.405 1.24 5.626 2.76v-2.564a8.818 8.818 0 0 0 -5.575-1.949z" fill="#282D37" style="fill: currentColor;fill: var(--db-icon-color, currentColor)" fill-rule="evenodd"/></svg>