<svg id="icon" height="24" viewBox="0 0 24 24" width="24" xmlns="http://www.w3.org/2000/svg"><path d="m15.52 5.993h-.945v-2.714h1.143c.051 0 .103.022.154.052l.981.59a.61.61 0 0 0 .85-.224.64.64 0 0 0 -.22-.867l-.981-.59a1.55 1.55 0 0 0 -.784-.218l-7.392-.022c-.286 0-.593.09-.857.254l-.901.59a.638.638 0 0 0 -.183.876.61.61 0 0 0 .857.187l.9-.591c.06-.037.103-.037.17-.06h1.106v2.737h-.938c-1.912 0-3.48 1.6-3.48 3.55v8.906c0 1.951 1.568 3.551 3.48 3.551h7.04c1.912 0 3.48-1.6 3.48-3.551v-8.913c0-1.951-1.568-3.551-3.48-3.551zm-2.19 0h-2.667v-2.73h2.667zm-4.601 12.957h-.974a.629.629 0 0 1 -.623-.636c0-.351.278-.635.623-.635h.974c.344 0 .623.284.623.635a.629.629 0 0 1 -.623.636zm7.546 0h-.975a.629.629 0 0 1 -.622-.636c0-.351.278-.635.622-.635h.975c.344 0 .622.284.622.635a.629.629 0 0 1 -.622.636zm.63-5.473c0 .807-.652 1.473-1.443 1.473h-6.894c-.791 0-1.443-.666-1.443-1.473v-4.023c0-.807.652-1.473 1.443-1.473h6.886c.791 0 1.443.666 1.443 1.473v4.023z" fill="#282D37" style="fill: currentColor;fill: var(--db-icon-color, currentColor)" fill-rule="evenodd"/></svg>
