<svg id="icon" height="20" viewBox="0 0 20 20" width="20" xmlns="http://www.w3.org/2000/svg"><path d="m3 18a1 1 0 1 1 0-2v-6.405a3.24 3.24 0 0 1 -.883-3.211l.724-2.868c.196-.786.918-1.516 1.939-1.516h10.436c.866 0 1.703.578 1.941 1.516l.737 2.868c.07.273.105.562.105.866a3.24 3.24 0 0 1 -1 2.344v6.406a1 1 0 0 1 1 1c0 .513-.402 1-1 1zm12-4h-10v2h10zm-1.834-3.913a3.243 3.243 0 0 1 -3.166 0 3.2 3.2 0 0 1 -1.583.413c-.562 0-1.09-.138-1.584-.413a3.269 3.269 0 0 1 -1.833.404v1.509h10v-1.5c-.69.032-1.3-.105-1.834-.413zm2.05-6.087h-10.434l-.743 3.01c-.02.09-.038.145-.038.24 0 .69.56 1.25 1.25 1.25.502 0 1.03-.35 1.583-1.05.575.7 1.103 1.05 1.584 1.05.48 0 1.008-.35 1.583-1.05.596.7 1.124 1.05 1.583 1.05.46 0 .987-.35 1.582-1.05.583.7 1.111 1.05 1.585 1.05.69 0 1.25-.56 1.25-1.25 0-.104.001-.142-.023-.24l-.761-3.01z" fill="#282D37" style="fill: currentColor;fill: var(--db-icon-color, currentColor)" fill-rule="evenodd"/></svg>
