<svg id="icon" height="20" viewBox="0 0 20 20" width="20" xmlns="http://www.w3.org/2000/svg"><path d="m16.3134437 6.56881232-2.4248447.80319385.5027495 1.3900345c1.5934207-.51833435 2.7015016-.8776178 3.3242425-1.07785034.566561 1.07785034.160409 2.14185034-1.265591 2.57785037l-3.309 1.037-2.608 4.768c-.084.14-.224.252-.392.309l-.595.154c-.393.112-.785-.196-.785-.617l-.028-3.225-2.294.715c-1.374.448-2.58-.364-2.944-1.402l-1.458-4.09400003c-.085-.281-.032-.527.241-.663l.483-.2c.1995-.088375.4204375-.023625.61457813.14802539l1.58842187 1.56997461 7.504-2.342c1.4076572-.45287331 2.8149815-.29934198 3.8454437.14877165zm-9.59648525 3.16425453c-.339.23694599-.423.70483935-.186 1.04376205.237.3404224.7035.4229036 1.044.1859576.3405-.2369459.423-.7033396.186-1.04376203-.237-.34042241-.7035-.4229036-1.044-.18595762zm2.49063662-.74971778c-.339.2355-.423.7035-.186 1.04250003.237.3405.7035.4245 1.04400003.186.3405-.23550003.423-.70200003.186-1.04250003s-.70500003-.423-1.04400003-.186zm2.49063663-.76416095c-.339.2355-.423.705-.186 1.0425.237.3405.7035.4245 1.044.1875s.423-.7035.186-1.044-.705-.423-1.044-.186zm-4.0064317-5.00824745 2.695 2.539-3.207.983-1.324-2.546c-.187-.42.036-.864.462-.977l.654-.184c.257-.069.534.002.72.185z" fill="var(--db-icon-color, currentColor)" fill-rule="evenodd"/></svg>
