<svg id="icon" height="64" viewBox="0 0 64 64" width="64" xmlns="http://www.w3.org/2000/svg"><g fill="none" fill-rule="evenodd" transform="translate(4 3.999)"><path d="m25 .001c2.689 0 5 2.185 5 5v46c0 2.689-2.172 5-5 5-6.667.002-13.334.002-20 0-2.689 0-5-2.14-5-5-.002-15.333-.002-30.666 0-46 0-2.689 2-5 5-5h20zm-18 2h-2c-1.598 0-3 1.254-3 3-.002 15.333-.002 30.667 0 46 0 1.598 1.24 3 3 3 6.666.002 13.333.002 20 0 1.597 0 3-1.287 3-3v-46c0-1.598-1.275-3-3-3h-2v.209c0 .715-.696 2.79-2.966 2.79-3.356.003-6.712.003-10.069 0a2.966 2.966 0 0 1 -2.96-2.791l-.005-.209zm14 0h-12l.006.147a.967.967 0 0 0 .738.828l.109.019.112.006h10.07a.966.966 0 0 0 .956-.839l.009-.127zm.028 48a1 1 0 0 1 .117 1.993l-.117.007h-12a1 1 0 0 1 -.116-1.993l.116-.008h12zm21.47-44.001 10 .002c1.793 0 3.501 1.325 3.5 3.265.002 10.746.002 21.493.002 32.24 0 2.957-1.844 4.494-4.862 4.494-6.13.002-12.259.002-18.388 0-.575 0-1-.487-1-1a1 1 0 0 1 1-1h18.388c2.119 0 2.86-.803 2.862-2.494.002-10.748.001-21.495-.003-32.242 0-.682-.633-1.264-1.5-1.264-6.665.002-13.331.002-19.997 0a1 1 0 1 1 0-2h19.997zm5.002 32.001a1 1 0 0 1 .116 1.993l-.116.007h-12a1 1 0 0 1 -.117-1.993l.117-.008h12zm-12-5.011 15 .011a1 1 0 0 1 .115 1.994l-.115.005-15-.011a1 1 0 0 1 -.115-1.994l.116-.006zm4.167-11.99a1.831 1.831 0 0 1 1.833 1.83v3.34a1.832 1.832 0 0 1 -1.833 1.83h-3.339a1.831 1.831 0 0 1 -1.828-1.83v-3.34a1.831 1.831 0 0 1 1.828-1.83zm6.833 0a1 1 0 0 1 1 1v2h2a1 1 0 0 1 1 1v2a1 1 0 0 1 -1 1h-2a1 1 0 0 1 -1-1v-2h-2a1 1 0 0 1 -1-1v-2a1 1 0 0 1 1-1zm-7 2h-3v3h3zm9.17-11c1.01.001 1.829.82 1.83 1.83v3.34a1.832 1.832 0 0 1 -1.83 1.83h-3.34a1.831 1.831 0 0 1 -1.83-1.83v-3.34a1.831 1.831 0 0 1 1.83-1.83zm-9 0c1.01.001 1.828.82 1.83 1.83v3.341a1.832 1.832 0 0 1 -1.83 1.83h-3.34a1.832 1.832 0 0 1 -1.83-1.83v-3.341a1.832 1.832 0 0 1 1.83-1.829h3.34zm8.83 2h-3v3h3zm-9 0h-3v3h3z" fill="var(--db-icon-color, currentColor)" fill-rule="nonzero"/><path d="m24.028 23.001c.513 0 .998.37 1 1 .002.676.002 1.352 0 2.029a3.99 3.99 0 0 1 -4 4h-2.028a1 1 0 0 1 -1-1c0-.513.421-.999 1-1a228.49 228.49 0 0 1 2.028 0c1.055 0 1.997-.879 2-2 .002-.677.002-1.353 0-2.029a1 1 0 0 1 1-1zm-18 0a.995.995 0 0 1 1 1c.002.676.002 1.352 0 2.029a1.99 1.99 0 0 0 2 2c.657.001 1.315.001 1.972 0a1 1 0 0 1 1 1c0 .512-.42.998-1 1-.657.002-1.315.002-1.972 0-2.142 0-3.995-1.733-4-4v-2.03a1 1 0 0 1 1-1zm4.972-12.971a1 1 0 0 1 1 1c0 .512-.425.998-1 1-.657.002-1.315.002-1.972 0a2.01 2.01 0 0 0 -2 2 381.14 381.14 0 0 0 0 1.971 1 1 0 0 1 -1 1c-.513 0-.998-.421-1-.985a328.68 328.68 0 0 1 0-1.986 3.991 3.991 0 0 1 4-4c.657-.002 1.315-.002 1.972 0zm10.028 0c2.142 0 4.024 1.766 4 4.014-.007.657-.017 1.314-.028 1.972a1 1 0 0 1 -1.015.985 1.017 1.017 0 0 1 -.985-1.014c.007-.653.017-1.305.028-1.957a1.988 1.988 0 0 0 -2-2c-.676-.002-1.352-.002-2.028 0a1 1 0 1 1 0-2 228.49 228.49 0 0 1 2.028 0zm-6.028 4.97a5 5 0 1 1 0 10 5 5 0 0 1 0-10zm0 2a3 3 0 1 0 0 6 3 3 0 0 0 0-6z" fill="var(--db-icon-pulse-color, #EC0016)"/></g></svg>
