<svg id="icon" height="32" viewBox="0 0 32 32" width="32" xmlns="http://www.w3.org/2000/svg"><path d="m16 2c7.732 0 14 6.268 14 14s-6.268 14-14 14c-7.628 0-13.83-6.1-13.997-13.687l-.003-.313.003-.312c.167-7.588 6.37-13.688 13.997-13.688zm0 2c-6.526 0-11.834 5.208-11.996 11.695l-.004.305.004.305c.162 6.487 5.47 11.695 11.996 11.695 6.627 0 12-5.373 12-12s-5.373-12-12-12zm-.551 4c2.22 0 4.21.754 5.791 2.023v2.667c-1.368-1.527-3.428-2.87-5.845-2.87-1.367 0-2.15.755-2.15 1.638 0 1.176.897 1.718 2.121 2.103.795.246 1.354.351 2.571.663 2.157.577 4.245 1.49 4.245 4.441 0 2.466-2.31 5.335-6.2 5.335-2.167 0-4.672-1.012-6.04-2.28v-3.201c1.297 1.93 3.66 3.42 6.04 3.42 1.457 0 2.63-.863 2.63-1.783 0-1.178-1.011-1.71-2.347-2.131-.899-.27-1.25-.368-2.162-.617-2.16-.646-4.285-1.624-4.285-4.571-0-3.145 2.966-4.837 5.63-4.837z" fill="var(--db-icon-color, currentColor)" fill-rule="evenodd"/></svg>
