<svg id="icon" height="32" viewBox="0 0 32 32" width="32" xmlns="http://www.w3.org/2000/svg"><path d="m10.813 14.406 2.831 4.016c.169.24.254.434.315.72l.604 2.827c.122.572-.344 1.218-.97 1.218a.983.983 0 0 1 -.968-.78l-.656-2.938-2.781-3.875a.941.941 0 0 1 -.188-.594c0-.531.531-1 1.063-1 .25 0 .555.13.75.406zm2.124-6.406c.657-.012 1 .5 1 1s-.343 1-1 1c-4.968 0-9 4.031-9 9 0 5.969 4.626 8.938 9 8.938 4.376 0 8.844-3 9-8.938.018-.659.5-1 1-1s1 .344 1 1c0 6.063-4.937 11-11 11-7.28 0-10.937-5.656-10.937-11s3.969-10.875 10.938-11zm10.063-6c3.875 0 7 3.125 7 7s-3.125 7-7 7-7-3.125-7-7 3.125-7 7-7zm0 2c-2.75 0-5 2.25-5 5s2.25 5 5 5 5-2.25 5-5-2.25-5-5-5zm0 2.438-1.938 1.937c-.187.188-.312.438-.312.688 0 .28.125.53.313.687l1.937 1.969c.188.156.438.281.688.281a.97.97 0 0 0 .968-1 .97.97 0 0 0 -.281-.688l-1.25-1.25 1.25-1.25a.97.97 0 0 0 .281-.687.968.968 0 0 0 -.968-.969.97.97 0 0 0 -.688.282z" fill="var(--db-icon-color, currentColor)" fill-rule="evenodd"/></svg>
