<svg id="icon" height="32" viewBox="0 0 32 32" width="32" xmlns="http://www.w3.org/2000/svg"><path d="m2.031 29-.031-7.922c0-3.406 2.188-5.781 5.469-5.906.218 0 .375.031.562.125 1.25.75 2.594 1.187 4 1.187.5 0 1-.03 1.5-.125.719-.125 1.125.407 1.125.97 0 .405-.25.843-.781.968-.594.094-1.188.187-1.781.187a9.186 9.186 0 0 1 -4.813-1.343c-1.625.156-3.281 1.249-3.281 3.937v7.922c0 .563-.438 1-1 1a.98.98 0 0 1 -.969-1zm9.969-26.5c3.313 0 6 2.688 6 6 0 3.313-2.688 6-6 6-3.313 0-6-2.688-6-6 0-3.313 2.688-6 6-6zm-.016 2c-2.21 0-3.984 1.813-3.984 4.031a3.973 3.973 0 0 0 3.984 3.969c2.21 0 4.016-1.781 4.016-3.969 0-2.219-1.805-4.031-4.016-4.031zm15.11 10.484a2.92 2.92 0 0 1 2.906 2.907v9.187a2.92 2.92 0 0 1 -2.906 2.906h-7.188a2.92 2.92 0 0 1 -2.906-2.906v-9.187a2.92 2.92 0 0 1 2.906-2.907zm-.063 2h-7.061a.974.974 0 0 0 -.969.97v9.062c0 .53.438.968.969.968h7.062a.974.974 0 0 0 .969-.968v-9.063a.974.974 0 0 0 -.969-.969zm-6.031 9c-.5 0-1-.406-1-1 0-.562.438-1 1-1h.969c.593 0 1.031.438 1.031 1 0 .563-.438 1-1.031 1zm4 0c-.5 0-1-.406-1-1 0-.562.438-1 1-1h.969c.593 0 1.031.438 1.031 1 0 .563-.438 1-1.031 1z" fill="var(--db-icon-color, currentColor)" fill-rule="evenodd"/></svg>
