<svg id="icon" height="64" viewBox="0 0 64 64" width="64" xmlns="http://www.w3.org/2000/svg"><g fill="none" fill-rule="evenodd" transform="translate(4.3 16.088)"><path d="m19.454 33.911c.684-1.207 1.243-2.656 1.678-4.348a1 1 0 1 1 1.937.498c-.583 2.552-1.824 4.859-2.269 5.451a1 1 0 0 1 -.683.393l-4.817.007c-.613 0-1.39-.74-.784-1.62.697-.896 2.338-2.82 2.831-4.383.682-2.158.5-3.228-.547-4.743-.766-1.024-1.22-1.667-1.36-1.929-5.016.298-8.025-.615-10.803-3.757-1.213-1.223-1.988-1.64-3.554-1.668a1 1 0 0 1 -.973-.861l-.11-4.013a1 1 0 0 1 1.185-1.009c.944.177 1.655-.268 2.892-1.694 1.257-1.521 1.535-1.736 1.865-2.01-.895-.773-2.21-3.331-2.141-6.448a1 1 0 0 1 1.455-.855c.856.543 4.062 1.59 4.95 2.143.902.492 1.567 1 2.03 1.462 7.738-4.867 17.936-5.14 26.203-3.905 3.216.449 5.836 1.3 7.88 2.508a3.296 3.296 0 0 1 1.868-2.428c1.628-.74 3.452-.086 4.062 1.594a5.78 5.78 0 0 1 .281 2.042c.441-.375.755-.878.911-1.408a1 1 0 0 1 1.919.564c-.505 1.717-1.901 2.962-3.513 3.456a5.381 5.381 0 0 1 -.768 1.153c.488.855.922 1.776 1.376 3.707.716 3.037.162 5.774-2.053 9.427-2.215 3.654-2.093 5.857-2.494 8.578s-1.153 4.345-3.527 6.022a1 1 0 0 1 -.25.067l-4.73.008a1 1 0 0 1 -.76-1.65c3.184-3.715 3.26-5.789 3.26-6.65a1 1 0 0 1 2 0c0 2.047-.818 4.146-2.454 6.3h2.207c2.424-1.706 2.189-4.443 2.704-7.617.47-2.894 1.24-4.143 2.622-6.602 1.59-2.828 2.13-4.845 1.53-7.414-.412-1.77-.666-2.247-1.008-2.894a6.082 6.082 0 0 1 -1.716.61 1 1 0 1 1 -.372-1.965c.36-.068.69-.183.99-.334a12.967 12.967 0 0 0 -1.654-1.724.997.997 0 0 1 -.233-.29c-.695-.524-3.117-2.382-8.367-3.081-8.61-1.313-18.54-.681-25.518 4.087a1 1 0 0 1 -1.59-.491c-.722-.825-1.819-1.507-3.29-2.047-.715-.262-1.328-.5-1.838-.713.07.507.205 1.039.406 1.596.51 1.41 1.338 2.353 2.567 2.721a1 1 0 0 1 .671 1.246c-.159.529-.709 1.023-1.832.459-.309.115-.63.312-1.952 1.869-1.321 1.557-2.463 2.533-3.747 2.631l.05 1.92c1.816.216 2.979 1.1 4.734 2.956 1.992 1.96 3.988 2.687 9.09 2.382a1 1 0 0 1 .98.521c.179.333.489.833 1.4 2.058 1.52 2.108 1.895 3.82.973 6.717-.277.877-.912 2.01-1.907 3.398zm-10.454-22.199c.442 0 .8.403.8.9s-.358.9-.8.9c-.441 0-.8-.403-.8-.9s.359-.9.8-.9zm40.014-9.19c-.603.275-.904 1.017-.688 1.613.308.754 1.163 1.138 2.06 1.072.217-.816.209-1.568-.025-2.253-.186-.51-.738-.708-1.347-.431z" fill="var(--db-icon-color, currentColor)" fill-rule="nonzero"/><path d="m27.65 6.405c1.926.125 2.275 2.179 1.104 3.665.422 1.62.56 3.7 2.263 5.394 1.98.66 6.167-.15 9.319-1.383 1.649-.645 2.77-.607 3.331.241.484.73.558 4.69-.789 8.185-1.459 3.786-4.31 6.421-8.776 7.33.024 2.665-1.993 3.13-2.202 3.182l-.003.775a43.95 43.95 0 0 1 2.01.124 1 1 0 1 1 -.213 1.989c-1.65-.177-3.943-.16-5.49 0a1 1 0 1 1 -.207-1.99c.63-.065 1.27-.105 1.908-.125l-.004-.91c-.142-.057-1.874-.678-1.802-2.993-4.806-2.05-8.432-6.127-8.119-10.026l.324-3.639c.045-.51.507-.959 1.084-.908.511.045.973.52.908 1.084l-.303 3.433c-.38 3.111 3.139 6.823 7.458 8.443a1 1 0 0 1 .642.813l.007.923c0 .854.415 1.1 1 1.1.784 0 1.088-.479 1-1.664-.329-.738.213-1.348.76-1.426 4.27-.604 6.841-2.833 8.152-6.234.764-1.984 1.007-3.936.925-6.118a6.512 6.512 0 0 0 -.878.276c-3.464 1.332-7.842 2.264-10.517 1.465a.996.996 0 0 1 -.622-.266c-.88-.817-2.387-2.366-3.082-6.48l-.131-.544c-.08-.09-.143-.234-.19-.43-.15-.818-1.01-1.716-2.135-1.786-.693.005-1.398.388-2.115 1.15a1.793 1.793 0 0 1 -.181.131l-.545.302 1.01.865a1 1 0 0 1 .349.794c-.02.194-.125.837-.313 1.93a1 1 0 0 1 -1.151.822c-.506-.085-.925-.582-.822-1.151l.206-1.245-1.67-1.431a.994.994 0 0 1 .165-1.634l1.67-.928c.853-.876 1.777-1.398 2.772-1.565a3.336 3.336 0 0 1 2.228-1.069c.63-.033 1.631.198 1.665 1.529zm.33 14.274c2.702 2.505 5.606 2.9 8.47.173a1 1 0 0 1 1.501 1.32c-3.74 3.665-7.905 3.15-11.33-.026a1 1 0 1 1 1.36-1.467zm-3.48-11.667a.8.8 0 1 1 0 1.6.8.8 0 0 1 0-1.6z" fill="var(--db-icon-pulse-color, #EC0016)"/></g></svg>
