<svg id="icon" height="24" viewBox="0 0 24 24" width="24" xmlns="http://www.w3.org/2000/svg"><path d="m3.874 7.433a3.441 3.441 0 0 1 3.433-3.433c1.89 0 3.402 1.543 3.402 3.433a3.387 3.387 0 0 1 -3.402 3.402c-1.89 0-3.433-1.512-3.433-3.402zm5.008 10.268a2.292 2.292 0 0 0 2.3 2.299 2.312 2.312 0 0 0 2.298-2.3c0-1.26-1.04-2.298-2.299-2.298a2.292 2.292 0 0 0 -2.3 2.299zm2.462-6.857c-.005-2.435 1.947-4.387 4.404-4.387 2.394 0 4.378 1.952 4.378 4.378 0 2.456-1.984 4.41-4.378 4.41s-4.404-1.995-4.404-4.401z" fill="#282D37" style="fill: currentColor;fill: var(--db-icon-color, currentColor)" fill-rule="evenodd"/></svg>
