<svg id="icon" height="20" viewBox="0 0 20 20" width="20" xmlns="http://www.w3.org/2000/svg"><path d="m7.167 11a1.831 1.831 0 0 1 1.833 1.83v3.34a1.832 1.832 0 0 1 -1.833 1.83h-3.337a1.831 1.831 0 0 1 -1.83-1.83v-3.34a1.831 1.831 0 0 1 1.829-1.83zm-.167 2h-3v3h3zm9.17-11c1.01.001 1.829.82 1.83 1.83v3.34c0 1.01-.82 1.829-1.83 1.83h-3.34a1.831 1.831 0 0 1 -1.83-1.83v-3.34a1.831 1.831 0 0 1 1.83-1.83zm-.17 2h-3v3h3zm-8.83-2c1.01.001 1.83.82 1.83 1.83v3.34a1.832 1.832 0 0 1 -1.83 1.83h-3.34a1.832 1.832 0 0 1 -1.83-1.83v-3.34a1.832 1.832 0 0 1 1.83-1.83zm-.17 2h-3v3h3zm5 11a1 1 0 0 1 -1-1v-2a1 1 0 0 1 1-1h2a1 1 0 0 1 1 1v2h2a1 1 0 0 1 1 1v2a1 1 0 0 1 -1 1h-2a1 1 0 0 1 -1-1v-2z" fill="#282D37" style="fill: currentColor;fill: var(--db-icon-color, currentColor)" fill-rule="evenodd"/></svg>
