<svg id="icon" height="32" viewBox="0 0 32 32" width="32" xmlns="http://www.w3.org/2000/svg"><path d="m16 2c3.843 0 7.328 1.558 9.86 4.073.012.012.029.015.041.027l.027.041a13.959 13.959 0 0 1 4.072 9.859c0 3.842-1.558 7.326-4.072 9.858-.011.012-.015.029-.027.041s-.029.016-.041.027a13.951 13.951 0 0 1 -9.86 4.074 13.952 13.952 0 0 1 -9.868-4.081c-.01-.009-.021-.011-.03-.02s-.011-.02-.02-.029a13.954 13.954 0 0 1 -4.082-9.87c0-3.848 1.561-7.337 4.082-9.87.009-.009.011-.021.02-.03s.021-.011.03-.02a13.953 13.953 0 0 1 9.868-4.08zm1 2.05v.95a1 1 0 0 1 -2 0v-.95a11.944 11.944 0 0 0 -6.74 2.794l.67.67a.999.999 0 1 1 -1.414 1.414l-.67-.67a11.943 11.943 0 0 0 -2.796 6.742h.95a1 1 0 1 1 0 2h-.95a11.94 11.94 0 0 0 2.796 6.741l.67-.671a.999.999 0 1 1 1.414 1.414l-.67.671a11.935 11.935 0 0 0 6.74 2.794v-.949a1 1 0 1 1 2 0v.949a11.932 11.932 0 0 0 6.741-2.795l-.669-.67a1 1 0 0 1 1.415-1.414l.669.669a11.933 11.933 0 0 0 2.793-6.739h-.949a1 1 0 1 1 0-2h.949a11.935 11.935 0 0 0 -2.794-6.74l-.668.668a.997.997 0 0 1 -1.415 0 1 1 0 0 1 0-1.414l.669-.668a11.94 11.94 0 0 0 -6.741-2.796zm-4.198 12.57.116.012c.544.088.918.598.833 1.144l-.46 2.934 2.31-1.866a1 1 0 1 1 1.257 1.556l-4.33 3.496a.999.999 0 0 1 -1.617-.933l.864-5.498a1 1 0 0 1 1.143-.833zm2.123-1.242a1.25 1.25 0 0 1 2.165 1.25 1.25 1.25 0 0 1 -2.165-1.25zm5.674-7.328a1 1 0 0 1 .49 1.017l-.836 5.449a1 1 0 0 1 -1.977-.302l.446-2.912-2.298 1.842a1 1 0 0 1 -1.251-1.56l4.301-3.448a1 1 0 0 1 1.126-.086z" fill="#282D37" style="fill: currentColor;fill: var(--db-icon-color, currentColor)" fill-rule="evenodd"/></svg>
