<svg id="icon" height="20" viewBox="0 0 20 20" width="20" xmlns="http://www.w3.org/2000/svg"><path d="m10.626.217 6.317 6.24a1.05 1.05 0 0 1 -1.378 1.58l-.527-.51-2.48 2.456c.238.388.4.8.483 1.231.282 1.45-.302 2.872-1.394 4.23a9.727 9.727 0 0 1 -1.387 1.422 1.05 1.05 0 0 1 -1.3.017l-3.636-3.587-3.468 3.434a1.05 1.05 0 0 1 -1.565-1.394l3.54-3.518-3.52-3.483a1.05 1.05 0 0 1 -.07-1.416c.295-.357.79-.864 1.436-1.373 1.368-1.078 2.798-1.653 4.251-1.377.44.084.86.246 1.255.486l2.477-2.451-.412-.408a1.05 1.05 0 0 1 1.378-1.58z" fill="#282D37" style="fill: currentColor;fill: var(--db-icon-color, currentColor)" fill-rule="evenodd" transform="translate(1 1)"/></svg>
