<svg id="icon" height="20" viewBox="0 0 20 20" width="20" xmlns="http://www.w3.org/2000/svg"><path d="m15 3c1.054 0 2.006.93 2 2v10c0 1.054-.948 2.007-2 2h-10c-1.054 0-1.995-.9-2-2v-10c0-1.054.933-1.998 2-2zm-2 8.414-2.293 2.293a1 1 0 0 1 -.902.274l-2.728-.902-2.077 1.038v.883h10v-1.586zm2-6.414h-10v6.881l1.553-.775a1 1 0 0 1 .636-.088l2.54.837 2.564-2.562a1 1 0 0 1 1.414 0l1.293 1.292zm-7.5 1a1.5 1.5 0 1 1 0 3 1.5 1.5 0 0 1 0-3z" fill="#282D37" style="fill: currentColor;fill: var(--db-icon-color, currentColor)" fill-rule="evenodd"/></svg>
