<svg id="icon" height="64" viewBox="0 0 64 64" width="64" xmlns="http://www.w3.org/2000/svg"><g fill="none" fill-rule="evenodd" transform="translate(4 13)"><path d="m35 0a5 5 0 0 1 5 5v13a1 1 0 0 1 -2 0v-13a3 3 0 0 0 -3-3h-14a3 3 0 0 0 -3 3v33h4v-11a3 3 0 0 1 3-3h3a1 1 0 0 1 0 2h-3a1 1 0 0 0 -1 1v12a1 1 0 0 1 -.883.993l-.117.007h-22a1 1 0 0 1 -1-1v-14a5 5 0 0 1 5-5h11v-15a5 5 0 0 1 5-5zm-19.001 22h-10.999a3 3 0 0 0 -2.995 2.824l-.005.176v13h3v-10.972a3 3 0 0 1 3-3h2a3 3 0 0 1 3 3v10.972h2.999zm-5.882 4.028h-2.117a1 1 0 0 0 -1 1v10.972h4v-10.972c0-.513-.386-.943-.883-1zm19.883-7.028a1 1 0 0 1 0 2h-4a1 1 0 0 1 0-2zm-2-13a5 5 0 1 1 -.001 10.001 5 5 0 0 1 .001-10.001zm0 2a3 3 0 1 0 0 6 3 3 0 0 0 0-6z" fill="var(--db-icon-color, currentColor)" fill-rule="nonzero"/><path d="m50.075 22.78a1 1 0 0 1 -.756 1.197l-1.088.245 1.532 4.91c3.615-.442 6.237 2.413 6.237 5.45a5.5 5.5 0 1 1 -8.138-4.827l-.435-1.394-4.427 6.529a1.587 1.587 0 0 1 -1.315.693l-.815-.007a1 1 0 0 1 -.834-.682l-1.561-4.768-.759.925a5.478 5.478 0 0 1 1.284 3.532 5.5 5.5 0 1 1 -2.826-4.807l1.563-1.905-.913-2.871h-.824a1 1 0 0 1 0-2h4a1 1 0 0 1 0 2h-1.072l.615 1.964 6.946-1.613-.489-1.568c-.135-.432.043-1.117.734-1.273l2.144-.485a1 1 0 0 1 1.197.755zm.297 8.305.959 3.075c.08.253.11.922-.554 1.213-.664.292-1.226-.199-1.357-.615l-.944-3.031a3.5 3.5 0 1 0 5.524 2.856c0-1.933-1.558-3.532-3.628-3.498zm-16.872-.002a3.5 3.5 0 1 0 2.912 1.558l-2.012 2.452c-.287.341-.9.55-1.428.114s-.357-1.118-.12-1.384l2.02-2.461a3.489 3.489 0 0 0 -1.372-.28zm12.002-3.449-5.335 1.238 1.462 4.47z" fill="var(--db-icon-pulse-color, #EC0016)"/></g></svg>
