<svg id="icon" height="32" viewBox="0 0 32 32" width="32" xmlns="http://www.w3.org/2000/svg"><path d="m27 2a3 3 0 0 1 3 3v22a3 3 0 0 1 -3 3h-22a3 3 0 0 1 -3-3v-22a3 3 0 0 1 3-3zm0 2h-22a1 1 0 0 0 -.993.883l-.007.117v22a1 1 0 0 0 .883.993l.117.007h22a1 1 0 0 0 .993-.883l.007-.117v-22a1 1 0 0 0 -.883-.993zm-10.114 4.46c1.613 0 2.84.36 3.68 1.08s1.26 1.8 1.26 3.24c0 1.48-.437 2.597-1.31 3.35-.819.706-2.01 1.081-3.573 1.126-1.042.029-1.934-.018-2.677-.14v4.524a1.36 1.36 0 0 1 -1.36 1.36c-.707 0-1.36-.524-1.36-1.36-.002-3.893-.002-7.787 0-11.68 0-.78.603-1.5 1.5-1.5zm-2.62 2v4.759c.708.08 1.421.121 2.14.121.946 0 1.63-.193 2.05-.58s.63-1.02.63-1.9c0-.788-.152-1.37-.455-1.744s-1.063-.655-1.925-.656z" fill="var(--db-icon-color, currentColor)" fill-rule="evenodd"/></svg>
