<svg id="icon" height="32" viewBox="0 0 32 32" width="32" xmlns="http://www.w3.org/2000/svg"><path d="m11 24h15c.563 0 1-.437 1-1 0-.562-.438-1-1-1h-15c-.563 0-1 .438-1 1 0 .563.438 1 1 1zm-5 0h1c.563 0 1-.437 1-1 0-.562-.438-1-1-1h-1c-.563 0-1 .438-1 1 0 .563.438 1 1 1zm20-7c.563 0 1-.437 1-1 0-.562-.438-1-1-1h-15c-.563 0-1 .438-1 1 0 .563.438 1 1 1zm-19 0c.563 0 1-.437 1-1 0-.562-.438-1-1-1h-1c-.563 0-1 .438-1 1 0 .563.438 1 1 1zm19-7c.563 0 1-.437 1-1 0-.562-.438-1-1-1h-15c-.563 0-1 .438-1 1 0 .563.438 1 1 1zm-19 0c.563 0 1-.437 1-1 0-.562-.438-1-1-1h-1c-.563 0-1 .438-1 1 0 .563.438 1 1 1z" fill="#282D37" style="fill: currentColor;fill: var(--db-icon-color, currentColor)" fill-rule="evenodd"/></svg>
