<svg id="icon" height="24" viewBox="0 0 24 24" width="24" xmlns="http://www.w3.org/2000/svg"><path d="m16.507 4c1.062 0 1.977.72 2.288 1.745l.998 4.255h1.559c.336 0 .597.228.641.546l.007.765c0 .334-.23.63-.55.681l-.933.009c.033.161.05.328.05.499 0 .114-.13 1.283-.388 3.508a2.99 2.99 0 0 1 -.428 1.233l-.001 1.76a1 1 0 0 1 -1 1h-1a1 1 0 0 1 -1-1v-.285a321.214 321.214 0 0 1 -9.5-.002v.286a1 1 0 0 1 -1 1h-1a1 1 0 0 1 -1-1v-1.757a2.99 2.99 0 0 1 -.395-1.012c-.046-.244-.182-1.392-.405-3.444a2.498 2.498 0 0 1 .033-.787h-.835c-.37 0-.648-.321-.648-.69v-.666a.63.63 0 0 1 .648-.644h1.558l.955-4.091c.246-1.055 1.198-1.909 2.28-1.909zm-10.631 8.003a.5.5 0 0 0 -.442.464c-.01.158.01.358.061.601l1.17.196a1 1 0 0 1 -.213 1.985l-.718-.113.074.643a1 1 0 0 0 .786.864c2.27.236 4.073.355 5.406.357s3.097-.111 5.29-.34a1 1 0 0 0 .882-.766l.093-.758-.6.1a1 1 0 0 1 -.443-1.947l1.282-.221a2.2 2.2 0 0 0 .062-.54c.001-.3-.202-.52-.469-.52zm8.124 1.397a1 1 0 0 1 .797.396l.565.947a1 1 0 0 1 -1.659 1.111l-.276-.455h-2.855l-.21.358c-.26.442-.885.662-1.369.355-.484-.308-.61-.807-.408-1.265l.553-.954a1 1 0 0 1 .745-.486zm-6.507-7.4c-.143 0-.284.102-.355.272-.047.114-.34 1.357-.879 3.728h11.481l-.849-3.637c-.045-.193-.163-.363-.407-.363h-8.99z" fill="#282D37" style="fill: currentColor;fill: var(--db-icon-color, currentColor)" fill-rule="evenodd"/></svg>