<svg id="icon" height="24" viewBox="0 0 24 24" width="24" xmlns="http://www.w3.org/2000/svg"><path d="m5.165 3.666 2.02.404a1.35 1.35 0 0 1 1.082 1.43l-1.1 6.243c1.55 1.071 2.549 2.073 2.996 3.055.35.77.567 1.605.65 2.501l5.466.001a2.85 2.85 0 1 1 0 1.7h-6.279a.85.85 0 0 1 -.85-.85c0-.988-.179-1.868-.534-2.648-.245-.537-.84-1.18-1.786-1.904l-.382 2.097a2.849 2.849 0 0 1 -1.448 5.305 2.85 2.85 0 0 1 -.21-5.692l1.723-9.638-1.682-.336c-.425-.085-.78-.542-.667-1 .113-.46.508-.765 1-.668zm-.165 13.334a1.15 1.15 0 1 0 0 2.3 1.15 1.15 0 0 0 0-2.3zm14 0a1.15 1.15 0 1 0 0 2.3 1.15 1.15 0 0 0 0-2.3zm1-5.7a.85.85 0 0 1 0 1.7c-1.49 0-2.777.72-3.26 1.57a.85.85 0 0 1 -1.479-.84c.792-1.392 2.649-2.43 4.74-2.43z" fill="#282D37" style="fill: currentColor;fill: var(--db-icon-color, currentColor)" fill-rule="evenodd" transform="matrix(-1 0 0 1 24 0)"/></svg>