<svg id="icon" height="32" viewBox="0 0 32 32" width="32" xmlns="http://www.w3.org/2000/svg"><path d="m24 2a6 6 0 0 1 6 6 5.96 5.96 0 0 1 -2.097 4.555c.063.46.095.942.097 1.445 0 6.075-4.925 11-11 11-.501 0-.998-.034-1.489-.1a1 1 0 0 1 .268-1.982 9 9 0 0 0 10.221-8.918 10.9 10.9 0 0 0 -.28-2.328c1.675-.958 2.28-2.336 2.28-3.672a4 4 0 0 0 -4-4c-1.041 0-2.182.34-3.363 1.739-1.714-.64-2.594-.739-3.637-.739-.912 0-1.918.093-3.636.738-1.188-1.43-2.244-1.738-3.364-1.738-2.21 0-3.92 1.792-4 4-.082 2.275 1.966 3.466 2.28 3.67-.052.253-.28 1.33-.28 2.33s.092 1.35.207 2.045a5.5 5.5 0 0 1 3.55 8.937l.888 1.05a2 2 0 1 1 -1.528 1.293l-.886-1.05a5.5 5.5 0 1 1 -4.02-10.123 12.68 12.68 0 0 1 -.211-2.152c0-.754.04-.947.096-1.446-.76-.643-2.087-2.217-2.09-4.294-.006-3.7 2.68-6.26 5.994-6.26 1.398 0 2.645.417 3.902 1.444.927-.296 1.96-.444 3.098-.444.99 0 2.32.175 3.097.444 1.251-1.026 2.464-1.444 3.903-1.444zm-5.85 13a.85.85 0 0 1 0 1.7h-.3l.001.9c.287.207.547.3.785.3.263 0 .467-.112.677-.4a.85.85 0 1 1 1.374 1c-.518.712-1.223 1.1-2.05 1.1-.52 0-1.1-.171-1.637-.525-.505.33-.808.525-1.636.525s-1.533-.388-2.051-1.1a.85.85 0 1 1 1.374-1c.21.288.414.4.677.4.238 0 .498-.093.786-.3v-.9h-.3a.85.85 0 0 1 0-1.7zm-5.4-4.5a1.25 1.25 0 1 1 0 2.5 1.25 1.25 0 0 1 0-2.5zm9 0a1.25 1.25 0 1 1 0 2.5 1.25 1.25 0 0 1 0-2.5zm-10.984 9.74-.106.202c-1.004 1.828-2.808 3.295-4.916 4.088a3.5 3.5 0 0 0 5.023-4.29zm-3.266-2.24a3.5 3.5 0 0 0 -3.21 4.899c2.366-.64 4.375-2.327 5.007-4.325l.024-.064a3.484 3.484 0 0 0 -1.821-.51z" fill="#282D37" style="fill: currentColor;fill: var(--db-icon-color, currentColor)" fill-rule="evenodd"/></svg>
