<svg id="icon" height="24" viewBox="0 0 24 24" width="24" xmlns="http://www.w3.org/2000/svg"><path d="m21.416 9.246c.246 0 .499.186.5.5.003.59.003 1.18 0 1.77a.503.503 0 0 1 -.5.484 96.95 96.95 0 0 1 -1.415-.003v1.526a.5.5 0 0 1 -.5.48c-.49.002-.99.002-1.501 0v1.003c0 .111-.03.29-.13.384-.357.339-.716.676-1.076 1.012a4.001 4.001 0 0 1 -6.485 4.452 4 4 0 0 1 4.011-6.65l4.812-4.812a.552.552 0 0 1 .353-.146 310.73 310.73 0 0 1 1.931 0zm-8.85 7.783a1.509 1.509 0 1 0 0 3.018 1.509 1.509 0 0 0 0-3.018zm3.804-13.993c1.36-.003 2.195.88 2.423 1.8l.21.867.326 1.407c.128.558-.305 1.024-.696 1.135-.39.11-1.081-.017-1.249-.721l-.145-.626-.215-.942-.134-.555c-.065-.259-.236-.399-.436-.401h-8.961c-.143 0-.314.144-.384.4a936.195 936.195 0 0 0 -.849 3.637h8.734a1 1 0 0 1 1 1 .99.99 0 0 1 -1 1h-9.032c-.338.001-.526.258-.526.558.018.17.037.34.059.51l1.17.196a1 1 0 0 1 .821 1.15c-.084.507-.532.894-1.15.823a32.83 32.83 0 0 1 -.602-.1l.073.634a1 1 0 0 0 .788.864l.655.034v2.294a1 1 0 0 1 -1 1h-1a1 1 0 0 1 -1-1v-1.727a2.99 2.99 0 0 1 -.404-1.06l-.396-3.388a2.498 2.498 0 0 1 .033-.786h-.835c-.37 0-.648-.322-.648-.69v-.666a.63.63 0 0 1 .648-.644h1.558l.955-4.092c.246-1.054 1.175-1.908 2.332-1.908l8.878-.002z" fill="#282D37" style="fill: currentColor;fill: var(--db-icon-color, currentColor)" fill-rule="evenodd"/></svg>
