<svg id="icon" height="24" viewBox="0 0 24 24" width="24" xmlns="http://www.w3.org/2000/svg"><path d="m19.5 2a2.5 2.5 0 0 1 2.5 2.5v15a2.5 2.5 0 0 1 -2.5 2.5h-15a2.5 2.5 0 0 1 -2.5-2.5v-15a2.5 2.5 0 0 1 2.5-2.5zm0 2c-5-.003-10-.003-15 0a.5.5 0 0 0 -.5.5c-.003 5-.003 10 0 15 0 .245.205.5.5.5 5 .003 10 .003 15 0 .245 0 .5-.2.5-.5.003-5 .003-10 0-15a.5.5 0 0 0 -.5-.5zm-7.648 4.405h-1.512v2.983h1.526c.61 0 1.02-.146 1.24-.358.246-.238.37-.623.37-1.155 0-.55-.121-.933-.364-1.148-.216-.19-.6-.322-1.26-.322zm.136-1.54c1.204 0 2.1.24 2.688.721s.882 1.207.882 2.177c0 .69-.222 1.411-.595 1.771s-.907.668-1.591.837c.21.115.352.216.45.304.157.142.314.326.47.551l1.484 2.354c.263.42.149 1.055-.308 1.34-.456.284-.987.203-1.339-.31-.288-.494-.861-1.413-1.721-2.759a4.516 4.516 0 0 0 -.483-.665c-.102-.108-.316-.353-.911-.381l-.664-.004v3.242c0 .513-.47.97-1 1s-1.1-.367-1.1-1v-8.178c0-.513.417-.998 1-1a580.9 580.9 0 0 1 2.738 0z" fill="var(--db-icon-color, currentColor)" fill-rule="evenodd"/></svg>
