<svg id="icon" height="24" viewBox="0 0 24 24" width="24" xmlns="http://www.w3.org/2000/svg"><path d="m12 12.937c3.094 0 6.375 1.157 7.469 2.094h1.53c.563 0 1 .469 1 1 0 .563-.437 1-1 1h-1.28a8.18 8.18 0 0 1 -7.439 5.032h-.28c-3.375.062-6.438-1.938-7.719-5.032h-1.281c-.563 0-1-.437-1-1 0-.531.437-1 1-1h1.531c1.094-.937 4.375-2.094 7.469-2.094zm0 2c-2.031.032-4 .5-5.813 1.407a6.07 6.07 0 0 0 5.813 3.718c2.531.094 4.844-1.406 5.844-3.718a13.521 13.521 0 0 0 -5.844-1.407zm1.531 1.344c.563 0 1 .438 1 1 0 .938-1.125 1.219-2.531 1.219-1.313 0-2.531-.188-2.531-1.219 0-.531.437-1 .968-1 .125 0 .782.219 1.563.219.406 0 .844-.219 1.531-.219zm-1.531-14.281c4.75 0 8.594 3.844 8.594 8.625 0 .531-.438 1-1 1-.532 0-.97-.469-.97-1a6.628 6.628 0 0 0 -6.624-6.625 6.608 6.608 0 0 0 -6.625 6.625c0 .563-.469 1-1.031 1-.532 0-.969-.5-.969-1 .031-4.781 3.844-8.625 8.625-8.625z" fill="#282D37" style="fill: currentColor;fill: var(--db-icon-color, currentColor)" fill-rule="evenodd"/></svg>
