<svg id="icon" height="20" viewBox="0 0 20 20" width="20" xmlns="http://www.w3.org/2000/svg"><path d="m15.268 15.594c-.752 1.288-2.16 2.173-3.785 2.25l-2.733.006c-1.72 0-3.227-.905-4.016-2.251.561.242 2.39.86 3.109.903.72.044 1.08.044 2.157.044 1.078 0 1.392 0 2.156-.044.763-.043 2.204-.582 3.112-.908zm-3.818-13.444c2.349 0 4.283 1.766 4.395 4.005.003 4.982.004 7.473.001 7.473-.48.405-2.742 1.221-3.438 1.321s-.908.1-2.408.1-1.769 0-2.41-.1c-.64-.1-2.548-.723-3.436-1.322-.003 0-.004-2.422-.004-7.267 0-2.267 1.865-4.1 4.188-4.205zm-4.43 9.768a.85.85 0 0 0 -.251 1.668l1.21.182a.85.85 0 0 0 .252-1.668l-1.21-.182zm4.749.182a.85.85 0 0 0 .251 1.668l1.211-.182a.85.85 0 0 0 -.251-1.668zm-3.375-8.573a2 2 0 0 0 -1.804 2.15l.29 3.639c.07.864.756 1.55 1.62 1.62a19.26 19.26 0 0 0 3 0 1.765 1.765 0 0 0 1.62-1.62l.29-3.64a2 2 0 0 0 -1.804-2.149 95.175 95.175 0 0 0 -3.212 0z" fill="var(--db-icon-color, currentColor)" fill-rule="evenodd"/></svg>
