<svg id="icon" height="20" viewBox="0 0 20 20" width="20" xmlns="http://www.w3.org/2000/svg"><path d="m16 2c1.1045695 0 2 .8954305 2 2v12c0 1.1045695-.8954305 2-2 2h-12c-1.1045695 0-2-.8954305-2-2v-12c0-1.1045695.8954305-2 2-2zm-6.86759918 11.0599226-.00005673-2.1195c.41177036.0526666.80046433.079 1.16608191.079.968 0 1.705-.2163334 2.211-.649.506-.43266669.759-1.06333335.759-1.89200002 0-.79933333-.2438333-1.41166667-.7315-1.837s-1.1898333-.638-2.1065-.638h-2.429c-.41421356 0-.75.33578644-.75.75v6.30650002c0 .5194238.42107619.9405.9405.9405.5194099 0 .94047483-.4210649.94047483-.9404748 0-.0000084 0-.0000168-.00000001-.0000252zm1.00102508-3.25594715c-.20533332 0-.89287823-.04187785-1.0010819-.063 0-.71201854 0-1.47935187 0-2.302h1.1330819c.4190379 0 .7178712.088.8965.264.1796667.176.2695.46933334.2695.88 0 .43266667-.1008333.74433334-.3025.935-.2016667.19066667-.5335.286-.9955.286z" fill="var(--db-icon-color, currentColor)" fill-rule="evenodd"/></svg>
