<svg id="icon" height="32" viewBox="0 0 32 32" width="32" xmlns="http://www.w3.org/2000/svg"><path d="m15.984 21c1.634 0 3.016 1.375 3.016 3.031 0 1.625-1.382 2.969-3.016 2.969-1.633 0-2.984-1.344-2.984-2.969 0-1.656 1.35-3.031 2.984-3.031zm0 2c-.54 0-.984.468-.984 1.031 0 .532.444.969.984.969s1.016-.438 1.016-.969c0-.561-.476-1.031-1.016-1.031zm-13.984-9.25c0-.219.063-.415.19-.592 3.241-4.47 8.31-7.158 13.81-7.158s10.569 2.656 13.81 7.158c.128.177.19.373.19.592 0 .531-.406 1-.969 1-.312 0-.633-.156-.84-.44-2.887-3.966-7.378-6.31-12.191-6.31-4.844 0-9.304 2.344-12.191 6.31-.207.284-.528.44-.84.44-.563 0-.969-.469-.969-1zm3.75 3.219c0-.188.063-.412.19-.593 2.337-3.345 6.06-5.376 10.06-5.376 3.969 0 7.691 2.031 10.03 5.376.126.181.189.405.189.593 0 .562-.469 1-.969 1-.313 0-.636-.125-.839-.41-2.016-2.84-5.099-4.559-8.411-4.559-3.344 0-6.473 1.719-8.436 4.564-.193.28-.533.405-.845.405a.98.98 0 0 1 -.969-1zm3.719 3c0-.188.062-.36.183-.535 1.483-2.153 3.786-3.465 6.317-3.465 2.562 0 4.864 1.312 6.348 3.465.12.175.183.347.183.535 0 .312-.188.648-.466.847a.904.904 0 0 1 -.534.184c-.344 0-.653-.188-.845-.468-1.09-1.595-2.811-2.563-4.686-2.563-1.844 0-3.566.968-4.655 2.563-.192.28-.533.468-.845.468-.531 0-1-.469-1-1.031z" fill="#282D37" style="fill: currentColor;fill: var(--db-icon-color, currentColor)" fill-rule="evenodd"/></svg>
