<svg id="icon" height="20" viewBox="0 0 20 20" width="20" xmlns="http://www.w3.org/2000/svg"><path d="m15 2c1.598 0 3 1.257 3 3 .002 3.333.002 6.667 0 10 0 1.598-1.261 3-3 3h-10c-1.598 0-3-1.272-3-3-.002-3.333-.002-6.667 0-10a3.013 3.013 0 0 1 3-3h4v7.584l-.646-.647-.647-.644a1 1 0 0 0 -1.414 1.414l3 3c.455.414 1.054.36 1.414 0l3-3a.987.987 0 0 0 0-1.414c-.34-.333-1.028-.386-1.414 0-.433.429-.864.859-1.293 1.291v-7.584z" fill="#282D37" style="fill: currentColor;fill: var(--db-icon-color, currentColor)" fill-rule="evenodd"/></svg>
