<svg id="icon" height="24" viewBox="0 0 24 24" width="24" xmlns="http://www.w3.org/2000/svg"><path d="m9.031 21c-.5 0-1.031-.406-1.031-1.031v-3.969h-4c-.531 0-1-.469-1-1.031 0-.531.469-.969 1-.969h5a.98.98 0 0 1 1 .969v5c0 .561-.438 1.031-.969 1.031zm6.969-1.031c0 .625-.531 1.031-1.031 1.031-.531 0-.969-.469-.969-1.031v-5a.98.98 0 0 1 1-.969h5c.531 0 1 .438 1 .969 0 .561-.469 1.031-1 1.031h-4zm-1.031-16.969c.5 0 1.031.406 1.031 1.031v3.969h4c.531 0 1 .469 1 1.031 0 .531-.469.969-1 .969h-5a.98.98 0 0 1 -1-.969v-5c0-.561.438-1.031.969-1.031zm-6.969 1.031c0-.625.531-1.031 1.031-1.031.531 0 .969.469.969 1.031v5a.98.98 0 0 1 -1 .969h-5c-.531 0-1-.438-1-.969 0-.561.469-1.031 1-1.031h4z" fill="#282D37" style="fill: currentColor;fill: var(--db-icon-color, currentColor)" fill-rule="evenodd"/></svg>
