<svg id="icon" height="24" viewBox="0 0 24 24" width="24" xmlns="http://www.w3.org/2000/svg"><path d="m12 2c5.5312 0 10 4.4688 10 10s-4.4688 10-10 10-10-4.4688-10-10 4.4688-10 10-10zm0 2c-4.4062 0-8 3.5938-8 8s3.5938 8 8 8 8-3.5938 8-8-3.5938-8-8-8zm-.9998 9.0623-.0002-6.0623c0-.5625.4687-1 1.0312-1s.9688.4375.9688 1l-.0003 6.0623c.0003.5627-.406.9689-.9685.9689s-1.0312-.4374-1.031-.9689zm1.0248 4.7502c.625 0 1.125-.5 1.125-1.125s-.5-1.125-1.125-1.125-1.125.5-1.125 1.125.5 1.125 1.125 1.125z" fill="var(--db-icon-color, currentColor)" fill-rule="evenodd"/></svg>
