<svg id="icon" height="24" viewBox="0 0 24 24" width="24" xmlns="http://www.w3.org/2000/svg"><path d="m12 2c.657 0 1.3.426 1.721 1.213l8.029 16c.156.328.25.689.25.984 0 .983-.751 1.803-1.847 1.803h-16.306c-1.097 0-1.847-.82-1.847-1.803 0-.328.094-.656.25-.984l8.06-16c.43-.787 1.033-1.213 1.69-1.213zm-.016 14.721c-.563 0-1.001.46-1.001 1.05s.438 1.049 1.001 1.049c.564 0 1.002-.46 1.002-1.05s-.438-1.049-1.002-1.049zm.016-8.721c-.563 0-1 .41-1 1v5.623c0 .623.437 1.05 1 1.05s1.017-.394 1.017-1.05l-.017-5.623c0-.59-.468-1-1-1z" fill="var(--db-icon-color, currentColor)" fill-rule="evenodd"/></svg>
