<svg id="icon" height="24" viewBox="0 0 24 24" width="24" xmlns="http://www.w3.org/2000/svg"><path d="M2 12a9.99 9.99 0 0 1 10 -10a9.99 9.99 0 0 1 10 10a9.99 9.99 0 0 1 -10 10a9.99 9.99 0 0 1 -10 -10zm10.025 5.812c0.625 0 1.125 -0.5 1.125 -1.125s-0.5 -1.125 -1.125 -1.125s-1.125 0.5 -1.125 1.126s0.5 1.125 1.125 1.125l0 -0.001zm-1.025 -4.75l0.001 0c-0.001 0.532 0.468 0.97 1.03 0.97s0.969 -0.407 0.969 -0.97v-6.062c0 -0.562 -0.406 -1 -0.969 -1s-1.031 0.437 -1.031 1v6.062z" fill="var(--db-icon-color, currentColor)"/></svg>
