<svg id="icon" height="24" viewBox="0 0 24 24" width="24" xmlns="http://www.w3.org/2000/svg"><path d="m11 14.6230596v-5.6230596c0-.59016703.4366211-1 1-1 .53203 0 1 .40983297 1 1l.0171868 5.6230596c0 .6557411-.4538079 1.0490908-1.0171868 1.0490908s-1-.4261892-1-1.0490908zm-.6901366-11.4099906-8.05947279 16.0000836c-.15644405.3278706-.25039061.6557411-.25039061.9836117 0 .9836117.75117183 1.8032357 1.84668082 1.8032357h16.30663838c1.095509 0 1.8466808-.819624 1.8466808-1.8032357 0-.295136-.0939466-.6557411-.2503906-.9836117l-8.0281239-16.0000836c-.4214855-.78688937-1.0641601-1.213069-1.7214855-1.213069-.6572253 0-1.26.42617963-1.6901366 1.213069zm1.6745122 15.6066389c.5633789 0 1.0015625-.4590188 1.0015625-1.0491858 0-.5901671-.4381836-1.0491859-1.0015625-1.0491859-.5633788 0-1.0015624.4590188-1.0015624 1.0491859 0 .590167.4381836 1.0491858 1.0015624 1.0491858z" fill="var(--db-icon-color, currentColor)" fill-rule="evenodd"/></svg>
