<svg id="icon" height="48" viewBox="0 0 48 48" width="48" xmlns="http://www.w3.org/2000/svg"><path d="m41.553 9a4.384 4.384 0 0 1 4.447 4.353v22a4.463 4.463 0 0 1 -4.447 4.447h-35.153a4.416 4.416 0 0 1 -4.4-4.447v-22a4.338 4.338 0 0 1 4.4-4.353zm-35.153 3.143a1.163 1.163 0 0 0 -1.257 1.21v22.144a1.179 1.179 0 0 0 1.257 1.098h35.216a1.21 1.21 0 0 0 1.241-1.242l-.063-21.984a1.194 1.194 0 0 0 -1.241-1.226zm27.72 2.169c3.551 0 5.72 1.933 5.72 4.887a5.029 5.029 0 0 1 -3.52 4.714 4.824 4.824 0 0 1 4.227 4.887c0 4.007-2.734 5.673-7.747 5.673h-7.134v-20.161zm-18.653-.032c5.186 0 8.093 3.3 8.093 9.995 0 5.845-1.98 10.151-8.093 10.198h-7.433v-20.193zm17.113 11.755h-2.106v5.138h2.05c.815-.002 3.184-.076 3.199-2.593 0-1.1-.629-2.545-3.143-2.545zm-18.621-8.549h-1.085v13.687h1.697c2.609 0 4.102-2.027 4.102-6.458 0-4.055-.44-7.229-4.714-7.229zm18.008-.078h-1.493v4.887h1.886a2.404 2.404 0 0 0 2.64-2.467c0-1.682-.833-2.42-3.033-2.42z" fill="#282D37" style="fill: currentColor;fill: var(--db-icon-color, currentColor)" fill-rule="evenodd"/></svg>
