<svg id="icon" height="64" viewBox="0 0 64 64" width="64" xmlns="http://www.w3.org/2000/svg"><g fill="none" fill-rule="evenodd" transform="translate(4.999 4)"><path d="m40.624 0c2.928 0 5.606 2.287 5.947 5.207.657 4.909.655 4.91 1.31 9.818.119.975.119 1.655.119 1.995v30.98c0 1.014-.377 1.94-.999 2.645.002.761.001 1.546 0 2.355a2.994 2.994 0 0 1 -3 3h-4c-1.73 0-2.994-1.372-3-3a83.23 83.23 0 0 1 0-1h-20v1c0 1.598-1.288 2.998-3 3-1.334.002-2.667.002-4 0a2.99 2.99 0 0 1 -3-3c-.002-.808-.002-1.593 0-2.354a3.991 3.991 0 0 1 -1-2.646c-.003-10.31-.003-20.642-.001-30.998 0-.668.042-1.335.125-2.002.471-3.554.906-6.818 1.306-9.793.388-2.902 2.578-5.207 5.955-5.207zm-31.622 51.874v1.126c0 .513.5 1 1 1h4c.512 0 1-.5 1-1v-1h-5c-.346 0-.68-.044-1-.126zm36 0c-.24.062-.488.102-.743.118l-.259.008h-5c-.002.333-.002.667 0 1 0 .5.5 1 1 1 2 .003 2.001.003 4 0 .5 0 1-.5 1-1l.001-1.126zm-4.078-13.281c-3.772 1.15-6.016 1.447-8.919 1.447-1.934 0-3.771.004-5.51.012-3.948-.008-6.444-.03-7.488-.064-3.178-.184-4.96-1.103-6.013-1.41a532.63 532.63 0 0 1 -4.992-1.49l.001 2.9 5.075 1.586c1.098.422 1.923 1.455 1.917 2.8l.006.506a2.5 2.5 0 0 1 -2.5 2.5l-4.5-.339v.959c0 1.002.842 2 2 2 11.333.002 22.667.002 34 0 1.055 0 1.994-.86 2-2a76.59 76.59 0 0 0 0-.959l-4.5.34c-1.325 0-2.5-1.041-2.5-2.5v-.507c.064-1.38.705-2.314 1.923-2.8.89-.345 2.582-.868 5.077-1.569 0-.783-.01-.274-.008-2.917-2.141.624-3.288.961-5.069 1.505zm5.077 3.417c-1.668.475-3.12.951-4.359 1.43a.992.992 0 0 0 -.64.934c-.004.253 0 .292 0 .506.008.233.183.52.5.5l4.498-.345v-3.025zm-37.98 0-.021 2.99 4.5.38c.246 0 .5-.206.5-.5v-.506c0-.373-.214-.764-.64-.934-.423-.162-1.87-.64-4.34-1.43zm32.602-40.01h-27.244a4 4 0 0 0 -3.932 3.268l-.033.203-1.413 10.593.002 18.934c1.931.579 4.367 1.306 5.45 1.628s3.421 1.323 6.314 1.4c2.627.017 4.87.026 6.728.026h7.5c2.9-.095 5.279-1.01 6.447-1.38 1.167-.37 3.681-1.097 5.56-1.674v-18.926l-1.413-10.6a4 4 0 0 0 -3.555-3.451l-.204-.016-.206-.005zm10.377 13a3 3 0 0 1 3 3c.002 1.361.002 2.723 0 4.085a6.15 6.15 0 0 1 -2.985 5.272 1 1 0 0 1 -1.03-1.714 4.18 4.18 0 0 0 2.015-3.558c.002-1.362.002-2.723 0-4.085a.99.99 0 0 0 -1-1 22.915 22.915 0 0 0 -.5 0 1 1 0 1 1 0-2c.167-.002.334-.002.5 0zm-48 0c-1.597 0-2.998 1.256-3 3v4.085a6.15 6.15 0 0 0 2.986 5.272 1 1 0 1 0 1.029-1.714 4.137 4.137 0 0 1 -2.015-3.558l.001-4.085c0-.513.417-.994 1-1 .167-.002.334-.002.5 0a1 1 0 0 0 0-2 22.915 22.915 0 0 0 -.5 0z" fill="#282D37" style="fill: currentColor;fill: var(--db-icon-color, currentColor)" fill-rule="nonzero"/><path d="m43.251 15a1 1 0 0 1 1 1c0 .513-.397 1-1 1h-32.5a1 1 0 1 1 0-2c10.652-.002 21.485-.002 32.5 0z" fill="#EC0016" style="fill:#EC0016;fill: var(--db-icon-pulse-color, #EC0016)"/></g></svg>
