<svg id="icon" height="64" viewBox="0 0 64 64" width="64" xmlns="http://www.w3.org/2000/svg"><g fill="none" fill-rule="evenodd" transform="translate(11.501 8)"><path d="m28.6 10.005a1 1 0 0 1 .878.79c.088.421.005 1.69-.087 2.194l-5.716 5.716a13.62 13.62 0 0 1 -3.167.296c-2.937.025-5.191-.623-6.763-1.944-2.216-1.887-2.378-5.18-2.225-6.262a.995.995 0 0 1 .924-.794c1.35-.106 6.067-.212 8.048 3.4 1.942-3.567 6.68-3.527 8.109-3.396zm-1.107 1.961c-3.322.118-5.628 1.192-5.986 5.018 3.184-.234 5.72-1.231 5.986-5.018zm-13.988 0c.326 4.11 3.192 4.766 5.982 5.018-.345-3.424-2.149-4.894-5.982-5.018zm6.453-11.807a1 1 0 0 1 1.06-.014 8.6 8.6 0 0 1 1.594 1.292c1.041 1.06 1.687 2.247 1.687 3.563 0 1.274-.643 2.445-1.68 3.52a9.269 9.269 0 0 1 -1.58 1.321.995.995 0 0 1 -1.092-.007 9.635 9.635 0 0 1 -1.726-1.482c-.945-1.033-1.521-2.149-1.521-3.352 0-1.274.643-2.445 1.68-3.52a9.269 9.269 0 0 1 1.578-1.32zm.552 2.077c-1.183.986-1.787 1.908-1.81 2.764 0 .817.599 1.736 1.797 2.755 1.2-1.014 1.801-1.932 1.803-2.755-.017-.898-.613-1.82-1.789-2.764zm-.01 38.764c.513 0 1.034.422 1 1.05v4.95a1 1 0 1 1 -2 0v-5a1 1 0 0 1 1-1zm8.1-10.995c.437.045.841.38.894.907.281 7.339-5.844 8.254-8.996 8.089-1.066.052-5.072.138-7.446-2.62l1.427-1.427c.989 1.253 2.658 1.938 5.009 2.054-.196-2.23-1.096-3.684-2.7-4.362l1.49-1.491a5.696 5.696 0 0 1 2.22 2.26c1.689-3.148 5.623-3.6 8.102-3.41zm-1.11 1.961c-2.925.12-5.6.897-5.984 5.04 4.3-.205 5.734-2.18 5.983-5.04zm1.682-11.705c.267.287.343.378.339 1.257-.074 6.296-5.138 7.562-9.074 7.476l2.122-2.118c3.961-.622 4.75-2.641 4.927-4.932.561-.562 1.123-1.123 1.686-1.683zm-9.294 2.24-1.426 1.424c-.925-1.242-2.574-1.895-4.948-1.959.155 2.127 1.036 3.548 2.642 4.265l-1.482 1.481c-3.333-1.92-3.225-5.89-3.162-6.8a.994.994 0 0 1 .894-.907c.638-.06 5.154-.383 7.482 2.496z" fill="var(--db-icon-color, currentColor)" fill-rule="nonzero"/><path d="m38.438 3.94a1.5 1.5 0 0 1 2.121 2.12l-38 38a1.5 1.5 0 0 1 -2.121-2.12l38-38z" fill="var(--db-icon-pulse-color, #EC0016)"/></g></svg>
