<svg id="icon" height="20" viewBox="0 0 20 20" width="20" xmlns="http://www.w3.org/2000/svg"><path d="m4.79 2.293 2.064.624a1.5 1.5 0 0 1 1.059 1.588l-1.16 5.829c.957.617 1.777 1.372 2.297 2.066a4.71 4.71 0 0 1 .872 2.1h3.286a2.5 2.5 0 1 1 0 2h-4.208a1 1 0 0 1 -1-1c0-.793-.186-1.416-.55-1.9-.273-.365-.648-.736-1.126-1.112l-.22 1.094a2.5 2.5 0 1 1 -1.928-.561l1.665-8.321-1.63-.493c-.491-.148-.845-.734-.668-1.246s.696-.832 1.246-.668zm-.29 12.707a.5.5 0 1 0 0 1 .5.5 0 0 0 0-1zm11 0a.5.5 0 1 0 0 1 .5.5 0 0 0 0-1zm-3.194-3.72c1.15-1.11 2.447-1.496 3.855-1.267a1 1 0 0 1 -.32 1.974c-.797-.13-1.457.067-2.146.732a1 1 0 0 1 -1.39-1.438z" fill="var(--db-icon-color, currentColor)" fill-rule="evenodd" transform="matrix(-1 0 0 1 20 0)"/></svg>
