<svg id="icon" height="24" viewBox="0 0 24 24" width="24" xmlns="http://www.w3.org/2000/svg"><path d="m2 4.013a1 1 0 0 1 .99-1.013c1.812 0 3.01 1.272 3.01 3.25v2.663l1.63 8.127c.119.589.635.96 1.224.96h3.157c.542 0 .99.5.99 1.042 0 .566-.448.958-.99.958h-3.156c-1.555 0-2.873-1.052-3.18-2.56l-1.606-7.984a3.256 3.256 0 0 1 -.07-.66v-2.545c0-.872-.35-1.249-1.01-1.249a.995.995 0 0 1 -.989-.989zm6.384 6.007c0-.542.448-1.02.99-1.02h.989c.837 0 1.56.407 2.052 1.004h2.368a.996.996 0 0 1 1.022 1.005c0 .542-.448.99-1.022.991h-1.785v2h2.547c.495 0 .927.403.99.92l.73 5.983c.067.553-.286 1.097-.99 1.097-.518 0-.95-.344-1.012-.861l-.613-5.139h-2.65a.998.998 0 0 1 -.998-1v-3.352c0-.298-.21-.648-.634-.648h-.986c-.55-.005-.998-.415-.998-.98zm1.616-5.018a2 2 0 0 1 2.002-2.002 2 2 0 0 1 2.003 2.002 2 2 0 0 1 -2.003 2.003 2 2 0 0 1 -2.002-2.003zm6.982 6.007a1.02 1.02 0 0 1 1.013-1.013h.99c1.672 0 3.015 1.343 3.015 2.969v8.033a.997.997 0 0 1 -1.013 1.002.991.991 0 0 1 -.99-1.002v-8.01c0-.566-.447-.99-1.012-.99h-.99c-.565 0-1.013-.423-1.013-.989z" fill="#282D37" style="fill: currentColor;fill: var(--db-icon-color, currentColor)" fill-rule="evenodd"/></svg>
