<svg id="icon" height="64" viewBox="0 0 64 64" width="64" xmlns="http://www.w3.org/2000/svg"><g fill="none" fill-rule="evenodd" transform="translate(9 4)"><path d="m23 44c3.365 0 6 2.635 6 6s-2.635 6-6 6-6-2.635-6-6 2.635-6 6-6zm0 2c-2.26 0-4 1.74-4 4s1.74 4 4 4 4-1.74 4-4-1.74-4-4-4zm0 2c1.125 0 2 .875 2 2s-.875 2-2 2-2-.875-2-2 .875-2 2-2zm0-48c3.469 0 6 2.594 6 6 0 1.375-.625 2.906-1.75 4.563l-3.437 5a.942.942 0 0 1 -.813.437.942.942 0 0 1 -.812-.438l-3.438-5c-1.156-1.686-1.75-3.186-1.75-4.562 0-3.313 2.438-6 6-6zm0 2c-2.469 0-4 1.5-4 3.906 0 1.219.656 2.375 1.375 3.375l2.625 3.719 2.625-3.719c.688-1 1.375-2.156 1.375-3.375 0-2.406-1.53-3.906-4-3.906zm-2 4c0-1.094.906-2 2-2s2 .906 2 2-.906 2-2 2-2-.906-2-2z" fill="var(--db-icon-color, currentColor)" fill-rule="nonzero"/><path d="m19.291 21.294a1 1 0 0 0 1.418 1.411l1.292-1.298-.001 1.593a2 2 0 0 1 -2 2h-16a4 4 0 0 0 0 8h38.146a2 2 0 0 1 0 4h-16.146a4 4 0 0 0 -4 4 1 1 0 1 0 2 0 2 2 0 0 1 2-2h16.146a4 4 0 1 0 0-8h-38.146a2 2 0 0 1 0-4h16a4 4 0 0 0 4-4l.001-1.58 1.294 1.29c.361.36.903.39 1.32.08.417-.311.576-1.044.091-1.498l-3.015-3a1 1 0 0 0 -1.414.003l-2.986 3z" fill="var(--db-icon-pulse-color, #EC0016)"/></g></svg>
