<svg id="icon" height="24" viewBox="0 0 24 24" width="24" xmlns="http://www.w3.org/2000/svg"><path d="m7.227 21.784-4.281-3.392a2.483 2.483 0 0 1 -.93-1.672 2.5 2.5 0 0 1 4.035-2.247l1.949 1.544.002-3.617a5.51 5.51 0 0 1 -3.002-4.9c0-3.033 2.467-5.5 5.5-5.5a5.507 5.507 0 0 1 5.501 5.5 5.51 5.51 0 0 1 -3 4.899v.474c.88-.177 1.844.175 2.406.836.895-.432 2.109-.262 2.856.484.049.05.096.101.141.153a2.505 2.505 0 0 1 3.586 2.255v2.441c0 .847-.181 1.649-.537 2.386a.999.999 0 1 1 -1.8-.871c.224-.463.337-.973.338-1.516v-2.441a.501.501 0 0 0 -.852-.355.496.496 0 0 0 -.147.344v.017a1 1 0 0 1 -2-.009v-.032l.005-.612a.5.5 0 0 0 -1-.003v.017a1 1 0 0 1 -1 .992h-.004a1 1 0 0 1 -.996-1.001v-.032l.005-.609a.5.5 0 0 0 -1 .007 1 1 0 1 1 -2-.002l.002-3.555v-.049l.003-4.174a.498.498 0 0 0 -.5-.5.5.5 0 0 0 -.5.5l-.006 10.542a1 1 0 0 1 -1.621.783l-3.569-2.828a.5.5 0 1 0 -.621.783l4.281 3.392a1 1 0 1 1 -1.244 1.568zm-.225-14.284c0 .937.375 1.812 1.003 2.452v-2.41a2.492 2.492 0 0 1 .735-1.767 2.48 2.48 0 0 1 1.765-.731h.003c.667 0 1.294.261 1.767.733.472.473.732 1.101.731 1.769v2.4a3.508 3.508 0 0 0 .996-2.446c0-1.93-1.571-3.5-3.501-3.5a3.504 3.504 0 0 0 -3.499 3.5z" fill="var(--db-icon-color, currentColor)" fill-rule="evenodd"/></svg>
