<svg id="icon" height="32" viewBox="0 0 32 32" width="32" xmlns="http://www.w3.org/2000/svg"><path d="m15.707 22.293a.999.999 0 0 0 -1.414 0l-4.293 4.293v-18.586a1 1 0 1 0 -2 0v18.586l-4.293-4.293a.999.999 0 1 0 -1.414 1.414l6 6a.997.997 0 0 0 1.414 0l6-6a.999.999 0 0 0 0-1.414zm13.293-18.293h-16a1 1 0 1 1 0-2h16a1 1 0 1 1 0 2zm0 5h-11a1 1 0 1 1 0-2h11a1 1 0 1 1 0 2zm0 5h-6a1 1 0 1 1 0-2h6a1 1 0 1 1 0 2zm0 5h-2a1 1 0 1 1 0-2h2a1 1 0 1 1 0 2z" fill="var(--db-icon-color, currentColor)" fill-rule="evenodd"/></svg>
