<svg id="icon" height="32" viewBox="0 0 32 32" width="32" xmlns="http://www.w3.org/2000/svg"><path d="m16.666 2.031c.594 0 1.156.25 1.594.656l4.094 4.094c.437.438.656 1 .656 1.594v4.655c0 .563-.438 1-1 1-.563 0-1-.437-1-1v-2.999h-5c-.562 0-1-.438-1-1v-5h-9.75a.269.269 0 0 0 -.25.25v23.5c0 .125.125.25.25.25h9.75c.562 0 1 .437 1 1 0 .562-.438 1-1 1h-9.75c-1.25 0-2.25-1-2.25-2.25v-23.5c0-1.25 1-2.25 2.25-2.25zm5.344 14c3.875 0 7 3.125 7 7s-3.125 7-7 7-7-3.125-7-7 3.125-7 7-7zm0 2c-2.75 0-5 2.25-5 5s2.25 5 5 5 5-2.25 5-5-2.25-5-5-5zm-1.066 2.519 1.06 1.06 1.06-1.06a.987.987 0 0 1 1.415 0 .988.988 0 0 1 0 1.414l-1.06 1.06 1.06 1.061a.987.987 0 0 1 0 1.414.988.988 0 0 1 -1.414 0l-1.06-1.06-1.062 1.06a.988.988 0 0 1 -1.414 0 .987.987 0 0 1 0-1.414l1.061-1.061-1.06-1.06a.988.988 0 0 1 0-1.414.987.987 0 0 1 1.414 0zm-8.935 1.689c.562 0 1 .437 1 1 0 .562-.438 1-1 1h-4c-.562 0-1-.438-1-1 0-.563.438-1 1-1zm1-4c.562 0 1 .437 1 1a.986.986 0 0 1 -.881.993l-.119.007h-5c-.562 0-1-.438-1-1 0-.563.438-1 1-1zm2-4c.562 0 1 .437 1 1 0 .562-.438 1-1 1h-7c-.562 0-1-.438-1-1 0-.563.438-1 1-1zm2-9.989v3.781h3.782l-3.781-3.78z" fill="var(--db-icon-color, currentColor)" fill-rule="evenodd"/></svg>
