<svg id="icon" height="32" viewBox="0 0 32 32" width="32" xmlns="http://www.w3.org/2000/svg"><path d="m20.457 3.507-.157 2.26 2.417 1.38 1.883-1.224c.168-.11.345-.188.533-.188 1.524 0 4.457 5.48 4.457 6.968 0 .376-.213.734-.565.91l-2.009 1.004v2.762l2.01 1.004c.35.176.564.534.564.91 0 1.528-3.114 6.968-4.457 6.968-.188 0-.365-.079-.533-.188l-1.883-1.224-2.417 1.38.157 2.23c.092 1.305-2.406 1.537-4.457 1.537-1.937 0-4.551-.2-4.457-1.538l.157-2.228-2.417-1.381-1.883 1.224c-.168.11-.345.188-.533.188-1.415 0-4.457-5.46-4.457-6.999 0-.345.226-.709.565-.879l2.009-1.004v-2.762l-2.01-1.004a1.02 1.02 0 0 1 -.564-.91c0-1.485 3.016-6.968 4.457-6.968.188 0 .365.079.533.188l1.883 1.224 2.417-1.38-.125-2.26c-.07-1.245 2.173-1.492 4.221-1.506l.204-.001c1.94 0 4.547.212 4.457 1.507zm-4.457.47c-.785 0-1.6.094-2.385.251l.125 2.04a.994.994 0 0 1 -.502.91l-3.484 2.01a.949.949 0 0 1 -.502.125.934.934 0 0 1 -.534-.157l-1.694-1.13a12.043 12.043 0 0 0 -2.386 4.174l1.79.91c.337.173.564.503.564.88v4.017a.99.99 0 0 1 -.565.879l-1.82.91a12.197 12.197 0 0 0 2.417 4.143l1.694-1.099c.17-.11.346-.188.534-.188s.343.066.502.157l3.484 1.977c.318.18.525.566.502.942l-.125 2.04c.784.157 1.6.25 2.385.25s1.6-.093 2.385-.25l-.125-2.04a1.04 1.04 0 0 1 .502-.942l3.484-1.977c.159-.09.314-.157.502-.157s.364.08.534.188l1.726 1.099a12.654 12.654 0 0 0 2.385-4.143l-1.82-.91a.99.99 0 0 1 -.565-.88v-4.016a.99.99 0 0 1 .565-.878l1.82-.91a12.645 12.645 0 0 0 -2.417-4.175l-1.694 1.13a.934.934 0 0 1 -.534.157.949.949 0 0 1 -.502-.126l-3.484-2.008a.994.994 0 0 1 -.502-.91l.125-2.04a12.32 12.32 0 0 0 -2.385-.254zm0 7.023c2.767 0 5 2.233 5 5s-2.233 5-5 5-5-2.233-5-5 2.233-5 5-5zm0 2a3 3 0 1 0 .002 6.002 3 3 0 0 0 -.002-6.002z" fill="var(--db-icon-color, currentColor)" fill-rule="evenodd"/></svg>
