<svg id="icon" height="20" viewBox="0 0 20 20" width="20" xmlns="http://www.w3.org/2000/svg"><path d="m13 2.5v1.506h.705c.814.068 1.494.627 1.785 1.404.14.47.411 1.667.813 3.59h1.697v2.003l-1.105-.003a97.318 97.318 0 0 1 -.3 2.629c-.075.39-.292.874-.595 1.196v2.675h-2.5v-1.759a23.875 23.875 0 0 1 -7 0v1.759h-2.5v-2.675c-.24-.212-.463-.688-.55-1.004-.07-.243-.185-1.184-.346-2.821l-1.104.003v-2.003h1.696l.761-3.432c.238-.805.882-1.41 1.677-1.541.196-.025.485-.032.866-.021v-1.506zm2 8.65h-1.75v1.7h1.75zm-8.25 0h-1.75v1.7h1.75zm5.25 0h-4v1.7h4zm1.914-5.45h-7.828l-.643 3.3h9.113z" fill="#282D37" style="fill: currentColor;fill: var(--db-icon-color, currentColor)" fill-rule="evenodd"/></svg>
