<svg id="icon" height="64" viewBox="0 0 64 64" width="64" xmlns="http://www.w3.org/2000/svg"><g fill="none" fill-rule="evenodd" transform="translate(4 5)"><path d="m36.5 20a3.5 3.5 0 0 1 3.495 3.308l.005.192v27a3.5 3.5 0 0 1 -3.308 3.495l-.192.005h-17a3.5 3.5 0 0 1 -3.495-3.308l-.005-.192v-27a3.5 3.5 0 0 1 3.308-3.495l.192-.005zm-7.499 2h-9.501a1.5 1.5 0 0 0 -1.493 1.356l-.007.144v27a1.5 1.5 0 0 0 1.356 1.493l.144.007h17a1.5 1.5 0 0 0 1.493-1.356l.007-.144v-27a1.5 1.5 0 0 0 -1.356-1.493l-.144-.007h-.506l.006 6a1 1 0 0 1 -1.08.997l-5.116-1.016a1 1 0 0 1 -.797-.863l-.007-5.118zm5.999 24a1 1 0 0 1 .117 1.993l-14.117.007a1 1 0 0 1 -1-1c0-.513.48-.993 1-.993zm0-5a1 1 0 0 1 .117 1.993l-14.117.007a1 1 0 0 1 -.117-1.993zm-26.139-17 .215.007a3.135 3.135 0 0 1 2.918 2.942l.006.176v12.754a3.135 3.135 0 0 1 -2.976 3.117l-.178.004-.264-.003c-4.67-.126-8.423-3.875-8.577-8.53l-.005-.258v-1.42a8.825 8.825 0 0 1 8.601-8.786l.26-.002zm38.286 0 .271.003c4.67.126 8.423 3.875 8.577 8.53l.005.259v1.42c-.02 4.787-3.847 8.667-8.627 8.785l-.261.003-.188-.007a3.135 3.135 0 0 1 -2.918-2.942l-.006-.176v-12.754a3.134 3.134 0 0 1 2.97-3.117zm-38.529 2.003a6.824 6.824 0 0 0 -6.613 6.55l-.005.238v1.412c.015 3.608 2.832 6.563 6.382 6.783l.238.01.241.003a1.134 1.134 0 0 0 1.132-1.002l.007-.123v-12.745a1.135 1.135 0 0 0 -.912-1.111l-.11-.014zm38.762 0-.365.003a1.134 1.134 0 0 0 -1.008.996l-.007.123v12.746c.002.556.407 1.021.912 1.111l.11.014.125.004a6.824 6.824 0 0 0 6.848-6.557l.005-.235v-1.412c-.015-3.608-2.832-6.563-6.382-6.783zm-13.38-4.003h-3.006l.006 4.18 3 .6zm-6-22c12.218 0 20 6.911 20 20a1 1 0 0 1 -2 0c0-11.928-6.837-18-18-18s-18 6.072-18 18a1 1 0 0 1 -2 0c0-13.089 7.782-20 20-20z" fill="#282D37" style="fill: currentColor;fill: var(--db-icon-color, currentColor)" fill-rule="nonzero"/><path d="m35 36a1 1 0 0 1 .117 1.993l-14.117.007a1 1 0 0 1 -.117-1.993z" fill="#EC0016" style="fill:#EC0016;fill: var(--db-icon-pulse-color, #EC0016)"/></g></svg>
