<svg id="icon" height="64" viewBox="0 0 64 64" width="64" xmlns="http://www.w3.org/2000/svg"><g fill="none" fill-rule="evenodd" transform="translate(11 13)"><path d="m31.018 0c2.959 0 5.783 1.235 7.791 3.405 4.18 4.504 4.253 11.425.213 16.02l-.22.245-.79.834a1 1 0 0 1 -1.532-1.28l.08-.096.783-.826a9.95 9.95 0 0 0 0-13.538 8.617 8.617 0 0 0 -6.326-2.764 8.638 8.638 0 0 0 -6.136 2.568l-.22.23-2.96 2.914a1 1 0 0 1 -1.31.082l-.094-.082-2.992-2.948a8.617 8.617 0 0 0 -12.65.001c-3.472 3.742-3.54 9.489-.21 13.302l.204.227 17.075 18.018a1 1 0 0 1 -1.36 1.462l-.092-.086-17.082-18.026a11.949 11.949 0 0 1 0-16.256 10.617 10.617 0 0 1 7.792-3.406c2.849 0 5.574 1.145 7.537 3.139l.223.234 2.258 2.223 2.226-2.19a10.617 10.617 0 0 1 7.464-3.4z" fill="var(--db-icon-color, currentColor)" fill-rule="nonzero"/><path d="m33.923 21.91a1 1 0 0 1 1.532 1.28l-.08.096-13.65 14.402a1 1 0 0 1 -1.533-1.28l.08-.096 13.65-14.401z" fill="var(--db-icon-pulse-color, #EC0016)"/></g></svg>
