<svg id="icon" height="20" viewBox="0 0 20 20" width="20" xmlns="http://www.w3.org/2000/svg"><path d="m10 2c4.399 0 8 3.581 8 7.995 0 4.398-3.58 8.005-8 8.005s-8-3.608-8-8.005c0-4.403 3.59-7.995 8-7.995zm0 2a5.99 5.99 0 0 0 -5.99 5.995c0 3.3 2.663 6.005 5.99 6.005 3.328 0 5.99-2.707 5.99-6.005a5.99 5.99 0 0 0 -5.99-5.995zm-.37 10.498a.987.987 0 0 0 .994-.996c0-.546-.429-.975-.995-.975s-.995.43-.995.975c0 .547.43.996.995.996zm-.996-2.869h1.99v-1.014c0-.68 1.761-1.025 1.761-2.966 0-1.386-1.097-2.147-2.513-2.147-.898 0-1.883.307-2.307.65l.68 1.765c.43-.238.983-.424 1.461-.424.558 0 .704.253.704.535 0 .983-1.776.893-1.776 2.587z" fill="var(--db-icon-color, currentColor)" fill-rule="evenodd"/></svg>
