<svg id="icon" height="24" viewBox="0 0 24 24" width="24" xmlns="http://www.w3.org/2000/svg"><path d="m16.969 2c.561 0 1.031.438 1.031 1v9h3c.563 0 1 .438 1 1v8c0 .5-.5 1-1 1h-7c-.5 0-1-.5-1-1.031v-3.469c0-.25-.219-.5-.5-.5h-1.031c-.25 0-.469.25-.469.5v3.469c0 .561-.469 1.031-1 1.031h-7c-.563 0-1-.469-1-1.031v-7.969c0-.5.5-1 1-1h3v-9c0-.563.469-1 1-1zm-.969 2h-8v9c0 .563-.438 1-1 1h-3v6h5v-2.5c0-1.375 1.125-2.5 2.469-2.5h1.031c1.344 0 2.469 1.125 2.469 2.5v2.5h5.031v-6h-3a.97.97 0 0 1 -.688-.281 1.018 1.018 0 0 1 -.312-.719zm-6 4c0-1.094.906-2 2-2s2 .906 2 2c0 1.125-.906 2-2 2s-2-.875-2-2z" fill="#282D37" style="fill: currentColor;fill: var(--db-icon-color, currentColor)" fill-rule="evenodd"/></svg>
