<svg id="icon" height="24" viewBox="0 0 24 24" width="24" xmlns="http://www.w3.org/2000/svg"><path d="m19.5 2a2.5 2.5 0 0 1 2.5 2.5v15a2.5 2.5 0 0 1 -2.5 2.5h-15a2.5 2.5 0 0 1 -2.5-2.5v-15a2.5 2.5 0 0 1 2.5-2.5zm0 2c-5-.003-10-.003-15 0a.5.5 0 0 0 -.5.5c-.003 5-.003 10 0 15 0 .245.205.5.5.5 5 .003 10 .003 15 0 .245 0 .5-.2.5-.5.003-5 .003-10 0-15a.5.5 0 0 0 -.5-.5zm-4.222 3.015a.82.82 0 0 1 .476 1.056c-.153.401-.59.568-1.003.466-.744-.183-1.577-.328-2.053-.328-.784 0-1.407.145-1.869.434-.462.29-.791.712-.987 1.267-.196.556-.294 1.258-.294 2.107 0 .878.105 1.585.315 2.121.21.537.537.934.98 1.19.443.257 1.029.385 1.757.385.407 0 .787-.039 1.14-.117a.347.347 0 0 0 .274-.341c.002-.595.002-1.19 0-1.786 0-.066-.042-.15-.15-.15h-.795a.763.763 0 0 1 -.763-.763c0-.386.294-.763.763-.763h2.183c.38 0 .75.297.75.75.002 1.162.002 2.325 0 3.487 0 .324-.248.61-.515.712a7.015 7.015 0 0 1 -1.235.35 9.95 9.95 0 0 1 -1.722.161c-1.745 0-3.045-.438-3.899-1.316-.854-.877-1.281-2.184-1.281-3.92 0-1.166.205-2.151.616-2.954a4.103 4.103 0 0 1 1.806-1.82c.714-.37 1.6-.616 2.87-.616s2.213.228 2.636.388z" fill="#282D37" style="fill: currentColor;fill: var(--db-icon-color, currentColor)" fill-rule="evenodd"/></svg>
