<svg id="icon" height="24" viewBox="0 0 24 24" width="24" xmlns="http://www.w3.org/2000/svg"><path d="m19.978 5.002a2 2 0 0 1 2.022 1.986v10a2.03 2.03 0 0 1 -2.022 2.014h-15.978a2.007 2.007 0 0 1 -2-2.014v-10a1.978 1.978 0 0 1 2-1.956h15.978zm0 1.424h-15.978a.532.532 0 0 0 -.54.562v10.03a.532.532 0 0 0 .54.561h15.978a.547.547 0 0 0 .561-.562v-10.03a.547.547 0 0 0 -.561-.561zm-11.858.981c2.36 0 3.678 1.498 3.678 4.54 0 2.658-.9 4.621-3.678 4.636v.03h-3.378v-9.206zm8.48.022c1.617 0 2.599.907 2.599 2.248a2.247 2.247 0 0 1 -1.596 2.142l.06-.02.097.015a2.173 2.173 0 0 1 1.752 2.033l.001.16c0 1.827-1.273 2.576-3.52 2.576h-3.244v-9.154zm-9.2 1.469h-.464v6.217h.802c1.16-.03 1.843-.951 1.843-2.966v.03c0-1.843-.203-3.281-2.18-3.281zm8.503 3.842h-.967v2.345h.957c.388-.003 1.425-.054 1.425-1.184 0-.502-.277-1.16-1.415-1.16zm-.285-3.917h-.682v2.224h.862a1.101 1.101 0 0 0 1.206-1.123c0-.757-.382-1.101-1.386-1.101z" fill="var(--db-icon-color, currentColor)" fill-rule="evenodd"/></svg>
