<svg id="icon" height="24" viewBox="0 0 24 24" width="24" xmlns="http://www.w3.org/2000/svg"><path d="m19.9775309 5.00237265c.5317281-.00586248 1.0439506.20014922 1.4234605.57263119.37951.37248197.5950591.88076467.5990086 1.41251181v9.99998605c-.008202 1.1123465-.9100998 2.010904-2.0224691 2.0149785h-15.97750579c-.53242003-.001983-1.04224539-.2153896-1.41731842-.5932722s-.58466914-.8892863-.58269284-1.4217063v-9.99998605c.00594021-.5244831.21999119-1.02512664.59507085-1.39177754s.88045808-.56926981 1.40494041-.56327592h15.97750579zm0 1.42334603h-15.97750579c-.14769556-.00231611-.28970119.05689798-.39199765.16345679-.10229645.1065588-.1556675.25086209-.14732744.39834018v10.02994855c-.00834006.1474781.04503099.2917814.14732744.3983402.10229646.1065588.24430209.1657729.39199765.1634568h15.97750579c.1502391.0041757.2955734-.0536715.4018495-.1599476.106276-.106276.1641232-.2516103.1599475-.4018494v-10.02994855c.0041757-.15023906-.0536715-.29557336-.1599475-.40184944-.1062761-.10627608-.2516104-.16412328-.4018495-.15994753zm-11.85766135.98127204c2.35954725 0 3.67789745 1.49812525 3.67789745 4.53931948 0 2.6591723-.8988751 4.6217164-3.67789745 4.6366977v.0299625h-3.37827244v-9.20597968zm8.47938895.02247188c1.6179752 0 2.5992473.90636577 2.5992473 2.24718787-.0036474.98700443-.6509054 1.85609263-1.5955034 2.14231913l.0599976-.0207187.0970978.0155825c.9818327.1919052 1.7072319 1.0339372 1.7517117 2.0333594l.0013026.1590396c0 1.8277129-1.2734065 2.5767755-3.5205944 2.5767755h-3.2434411v-9.1535453zm-9.19848907 1.46816274h-.46441883v6.21721976h.80149701c1.16104707-.0299625 1.84269406-.9513095 1.84269406-2.966288v.0299625c0-1.842694-.20224691-3.28089426-2.17977224-3.28089426zm8.50186077 3.84269126h-.9662908v2.344566l.9571168-.0001111c.3874816-.0023342 1.4249024-.0536852 1.4249024-1.1834078 0-.501872-.2771532-1.1610471-1.4157284-1.1610471zm-.2846438-3.91759752h-.681647v2.22471602h.8614221c.3136889.0301108.6252463-.0756224.8558147-.2904376.2305683-.2148153.3580492-.518124.3501761-.83315636 0-.75655325-.382022-1.10112206-1.3857659-1.10112206z" fill="var(--db-icon-color, currentColor)" fill-rule="evenodd"/></svg>
