<svg id="icon" height="32" viewBox="0 0 32 32" width="32" xmlns="http://www.w3.org/2000/svg"><path d="m27.17 6a2.79 2.79 0 0 1 2.83 2.77v14a2.84 2.84 0 0 1 -2.83 2.83h-22.37a2.81 2.81 0 0 1 -2.8-2.83v-14a2.76 2.76 0 0 1 2.8-2.77zm-22.37 2a.74.74 0 0 0 -.8.77v14a.75.75 0 0 0 .8.79h22.41a.77.77 0 0 0 .79-.79l-.04-13.99a.76.76 0 0 0 -.79-.78zm17.64 1.38c2.26 0 3.64 1.23 3.64 3.11a3.2 3.2 0 0 1 -2.24 3 3.07 3.07 0 0 1 2.69 3.11c0 2.55-1.74 3.61-4.93 3.61h-4.54v-12.83zm-11.87-.02c3.3 0 5.15 2.1 5.15 6.36 0 3.72-1.26 6.46-5.15 6.49h-4.73v-12.85zm10.89 7.48h-1.34v3.27h1.317c.53-.002 2.013-.06 2.023-1.65 0-.7-.4-1.62-2-1.62zm-11.85-5.44h-.69v8.71h1.08c1.66 0 2.61-1.29 2.61-4.11 0-2.58-.28-4.6-3-4.6zm11.46-.05h-.95v3.11h1.2a1.53 1.53 0 0 0 1.68-1.57c0-1.07-.53-1.54-1.93-1.54z" fill="var(--db-icon-color, currentColor)" fill-rule="evenodd"/></svg>
