<svg id="icon" height="32" viewBox="0 0 32 32" width="32" xmlns="http://www.w3.org/2000/svg"><path d="m27.17 6.00029054c.7434053-.01067779 1.4603247.27580274 1.9916481.79586133s.833099 1.23067523.8383519 1.97413867v13.99999996c-.0054858 1.560688-1.2693121 2.8245143-2.83 2.83h-22.37c-.74700186-.0026394-1.46220948-.3026077-1.98760076-.8336282s-.81772068-1.2493842-.81247064-1.9963718v-13.99999996c-.00269023-.74071322.29239669-1.45144937.81897705-1.97238779.52658035-.52093842 1.24045385-.8083524 1.98109435-.79761221zm-22.37 2c-.2117591-.01743269-.4207948.05699982-.57388056.20434487-.15308577.14734505-.23544966.35338464-.22611944.56565513v13.99999996c-.0119715.2147384.06882082.4242829.22185296.5754021.15303215.1511192.36357629.2292695.57814704.2145979h22.41c.2111765.0055602.4153629-.0758849.564739-.225261s.2308212-.3535624.225261-.564739l-.04-13.98999996c.0057038-.21031994-.0760354-.4135938-.2257533-.56141654s-.3540165-.22696594-.5642467-.21858346zm17.64 1.38c2.26 0 3.64 1.22999996 3.64 3.10999996-.0227157 1.3780354-.9252006 2.5867205-2.24 3 1.5610284.1943772 2.7225514 1.5372532 2.69 3.11 0 2.55-1.74 3.61-4.93 3.61h-4.54v-12.82999996zm-11.87-.02c3.3 0 5.15 2.09999996 5.15 6.35999996 0 3.72-1.26 6.46-5.15 6.49h-4.73v-12.84999996zm10.89 7.47999996h-1.34v3.27l1.3167342-.0000838c.5296032-.0021795 2.0136362-.0610273 2.0232658-1.6499162 0-.7-.4-1.62-2-1.62zm-11.85-5.44h-.69v8.71h1.08c1.66 0 2.61-1.29 2.61-4.11 0-2.58-.28-4.6-3-4.6zm11.46-.05h-.95v3.11h1.2c.438134.0433761.8737187-.1040932 1.1953937-.4047061s.4982587-.7252296.4846063-1.1652939c0-1.07-.53-1.54-1.93-1.54z" fill="var(--db-icon-color, currentColor)" fill-rule="evenodd"/></svg>
