<svg id="icon" height="20" viewBox="0 0 20 20" width="20" xmlns="http://www.w3.org/2000/svg"><path d="m12.347 17.5a.934.934 0 0 1 -.477-.13c-2.156-1.268-3.56-3.123-4.059-5.365-.121-.547.204-1.094.728-1.221.525-.127 1.047.213 1.169.76.47 2.112 1.954 3.37 3.118 4.053.468.276.634.895.37 1.385a.967.967 0 0 1 -.849.518zm-6.387-.582a.965.965 0 0 1 -.837-.496c-.747-1.309-.987-2.42-.997-2.467a8.506 8.506 0 0 1 -.261-2.093c0-1.515.64-2.944 1.755-3.918a4.771 4.771 0 0 1 3.135-1.19c2.132 0 4.003 1.424 4.658 3.544.165.534-.117 1.107-.628 1.28-.513.172-1.06-.121-1.225-.656-.395-1.277-1.521-2.134-2.805-2.134-.687 0-1.357.254-1.886.716a3.125 3.125 0 0 0 -1.058 2.359c0 .537.071 1.093.204 1.607.012.052.203.9.78 1.911.275.482.124 1.106-.338 1.393a.94.94 0 0 1 -.498.145v-.001zm10.38-2.373a.942.942 0 0 1 -.224-.028c-.523-.128-.848-.675-.724-1.222.578-2.57-.248-5.25-2.156-6.995a1.049 1.049 0 0 1 -.091-1.435.945.945 0 0 1 1.374-.095c2.451 2.242 3.512 5.687 2.769 8.99a.983.983 0 0 1 -.947.784zm-13.367-7.357a.949.949 0 0 1 -.656-.265 1.05 1.05 0 0 1 -.062-1.437c1.465-1.676 3.463-2.72 5.624-2.942a8.49 8.49 0 0 1 3.04.24c.52.139.835.692.703 1.236-.133.544-.662.87-1.184.734a6.523 6.523 0 0 0 -2.369-.187c-1.681.172-3.236.985-4.377 2.29a.951.951 0 0 1 -.72.331z" fill="#282D37" style="fill: currentColor;fill: var(--db-icon-color, currentColor)" fill-rule="evenodd"/></svg>
