<svg id="icon" height="24" viewBox="0 0 24 24" width="24" xmlns="http://www.w3.org/2000/svg"><path d="m19.808 8.056c-.553.178-1.104.357-1.654.538-.59.195-.8.773-.642 1.26a.998.998 0 0 0 1.26.642c.98-.316 1.96-.634 2.938-.954.084.138.152.282.203.432.317.915-.212 2.254-1.797 2.747l-4.155 1.303-3.241 5.952a.832.832 0 0 1 -.493.423l-.457.105c-.493.14-.987-.247-.987-.774v-4.051l-3.205.986c-1.725.564-3.275-.458-3.733-1.76l-1.796-5.143a.675.675 0 0 1 .388-.88l.563-.212a1.148 1.148 0 0 1 1.085.09l2.33 1.848 9.299-2.888c1.252-.353 2.83-.194 4.094.336zm-11.349 3.658c-.645.258-.79.809-.645 1.26.134.413.645.848 1.258.645.523-.173.815-.733.646-1.259-.169-.525-.75-.85-1.259-.646zm3.11-1a1.005 1.005 0 0 0 -.646 1.258c.134.414.645.843 1.258.645a1 1 0 0 0 .646-1.258c-.12-.375-.6-.863-1.259-.646zm3.109-1.002c-.258.09-.837.481-.666 1.16.167.664.837.87 1.28.744a.995.995 0 0 0 .619-1.327c-.163-.418-.743-.747-1.233-.577zm-5.515-5.445 2.974 2.78-3.44 1.072-1.401-2.795c-.246-.458.035-1.02.564-1.162l.458-.14a.921.921 0 0 1 .845.245z" fill="var(--db-icon-color, currentColor)" fill-rule="evenodd"/></svg>
