<svg id="icon" height="24" viewBox="0 0 24 24" width="24" xmlns="http://www.w3.org/2000/svg"><path d="m15.943 2.10722c1.577-.50592 3.266.36296 3.772 1.94068l.414 1.28848c.202.63108-.146 1.30672-.777 1.50912l-8.388 2.6897h8.809c.662 0 1.2.5372 1.2 1.2v8.3016c0 1.6569-1.344 3-3 3h-11.403c-1.657 0-3-1.3431-3-3l.000125-8.324025.000875-.022275-.014-.0403-.413-1.2885c-.506-1.5777.363-3.2669 1.941-3.77278zm3.03 9.42798h-13.403v7.5016c0 .5523.448 1 1 1h11.403c.552 0 1-.4477 1-1zm-7.956 1.7508c.079 0 .149.0234.22.07l3.079 1.7806c.089.0611.162.1427.212.238.05.0952.077.2012.077.3089 0 .1076-.027.2134-.077.3085-.051.0951-.123.1767-.212.2377l-3.087 1.7872c-.06.0407-.13.0644-.203.0685-.072.0041-.144-.0116-.208-.0452-.064-.0337-.118-.0842-.156-.1461s-.058-.1328-.058-.2053v-3.9886c0-.2268.195-.4142.413-.4142zm6.794-8.6274c-.169-.52591-.732-.81554-1.258-.6469l-10.858 3.4817c-.525.1686-.815.7317-.646 1.2576l.168.5267 12.763-4.09242z" fill="var(--db-icon-color, currentColor)" fill-rule="evenodd"/></svg>
