<svg id="icon" height="24" viewBox="0 0 24 24" width="24" xmlns="http://www.w3.org/2000/svg"><path d="m19.016 10.009a2.988 2.988 0 0 1 2.984 2.981 2.993 2.993 0 0 1 -2.984 3.007h-1.01v.986a4.03 4.03 0 0 1 -4.021 4.017h-5.989c-2.211 0-3.996-1.808-3.996-4.016v-6.975zm-3.008 1.996h-10.01v4.979c0 1.104.892 1.996 1.997 1.996h5.992c1.104 0 2.02-.892 2.02-1.996v-4.98zm3.008 0h-1.01v1.995h1.01c.54 0 .987-.446.987-1.01a.993.993 0 0 0 -.987-.986zm-12.032-5.026a.998.998 0 1 0 1.997 0v-1.996a.993.993 0 0 0 -.986-.987.998.998 0 0 0 -1.01.987v1.996zm3.008 0a.998.998 0 1 0 1.997 0v-3.97c0-.54-.446-1.009-.986-1.009-.564 0-1.01.47-1.01 1.01v3.969zm3.008 0a.998.998 0 1 0 1.997 0v-1.973a.998.998 0 1 0 -1.997 0v1.974z" fill="var(--db-icon-color, currentColor)" fill-rule="evenodd"/></svg>
