<svg id="icon" height="24" viewBox="0 0 24 24" width="24" xmlns="http://www.w3.org/2000/svg"><path d="m5.635 12c1.529 0 2.639.99 2.639 2.354 0 .536-.156 1.01-.467 1.423.539.454.863 1.133.863 1.932 0 3.043-3.72 3.222-5.121 3.29l-.05.001a1 1 0 0 1 -.046-2c3.032-.146 3.205-.862 3.215-1.229v-.062c0-.131 0-.531-.6-.531-.324 0-.535.021-1.226.158a1 1 0 0 1 -.42-1.955c.555-.13 1.85-.49 1.85-1.027 0-.327-.487-.353-.637-.353-.46 0-.936.13-1.501.408a1 1 0 1 1 -.884-1.795c.85-.418 1.608-.614 2.385-.614zm8.91-9c.559 0 1.024.434 1.024.961a.99.99 0 0 1 -.341.745l-.403.403c4.124.341 7.319 3.783 7.319 7.908a7.937 7.937 0 0 1 -2.357 5.644.962.962 0 0 1 -.683.28 1 1 0 0 1 -.992-.993.96.96 0 0 1 .28-.683c1.147-1.178 1.767-2.698 1.767-4.217 0-3.132-2.42-5.737-5.52-5.954l.558.62a.88.88 0 0 1 .31.682c0 .527-.434.992-.961.992-.31 0-.559-.093-.745-.279l-2.17-2.202a.982.982 0 0 1 -.28-.713c0-.279.094-.496.28-.682l2.263-2.295a1.03 1.03 0 0 1 .652-.217zm-1.568 9c1.768 0 2.977 1.334 2.977 3.318v2.264c0 1.985-1.21 3.318-2.977 3.318-1.799 0-2.977-1.333-2.977-3.287v-2.357c0-1.984 1.178-3.256 2.977-3.256zm.023 2c-.625 0-1 .472-1 1.258v2.421c0 .85.375 1.321 1 1.321s1-.472 1-1.352v-2.296c0-.849-.375-1.352-1-1.352z" fill="#282D37" style="fill: currentColor;fill: var(--db-icon-color, currentColor)" fill-rule="evenodd"/></svg>
