<svg id="icon" height="32" viewBox="0 0 32 32" width="32" xmlns="http://www.w3.org/2000/svg"><path d="m22.994 22a3.997 3.997 0 0 1 3.994 4c0 2.21-1.788 4-3.994 4a3.997 3.997 0 0 1 -3.994-4c0-2.21 1.788-4 3.994-4zm-10.984 0a3.997 3.997 0 0 1 3.993 4c0 2.21-1.788 4-3.993 4a3.997 3.997 0 0 1 -3.994-4c0-2.21 1.788-4 3.994-4zm10.983 2a1.998 1.998 0 0 0 -1.997 2c0 1.105.894 2 1.997 2a1.998 1.998 0 0 0 1.997-2c0-1.105-.894-2-1.997-2zm-10.983 0a1.998 1.998 0 0 0 -1.997 2c0 1.105.894 2 1.997 2a1.998 1.998 0 0 0 1.997-2c0-1.105-.894-2-1.997-2zm7.987-21c5.88 0 9.865 3.769 9.999 9.407l.004.293a7.811 7.811 0 0 1 -.317 2.123 81.645 81.645 0 0 1 -1.313 3.677 3.927 3.927 0 0 1 -3.605 2.5h-14.55a3.866 3.866 0 0 1 -3.621-2.539l-1.344-4.153a1.001 1.001 0 0 1 .951-1.308h2.826l-2.26-3.539a.998.998 0 0 0 -.841-.461h-2.928a1 1 0 0 1 0-2h2.928a2.981 2.981 0 0 1 2.522 1.383l2.947 4.617h4.555l3.1-9.316a.999.999 0 0 1 .949-.684zm7.522 12h-19.946l.909 2.812a1.85 1.85 0 0 0 1.731 1.188h14.551a1.938 1.938 0 0 0 1.757-1.26c.127-.307.624-1.655.999-2.74zm-6.806-9.979-2.656 7.979h9.935c.007-.1.011-.205.011-.3 0-5.331-3.645-7.441-7.289-7.679z" fill="var(--db-icon-color, currentColor)" fill-rule="evenodd"/></svg>
