<svg id="icon" height="24" viewBox="0 0 24 24" width="24" xmlns="http://www.w3.org/2000/svg"><path d="m13.74 2c2.835 0 5.142 2.267 5.256 5.1l.004 9.337c0 2.997-2.343 5.445-5.284 5.56l-3.216.003c-2.968 0-5.383-2.377-5.496-5.345l-.004-9.335c0-2.862 2.236-5.2 5.043-5.316zm-6.579 15.508a3.548 3.548 0 0 0 2.055 2.245c.23-.288.61-.438.994-.356.713.153 1.312.228 1.79.228s1.077-.075 1.79-.228a1 1 0 0 1 .993.356 3.546 3.546 0 0 0 2.034-2.176c-1.049.34-1.771.57-2.166.69-.593.178-1.496.283-2.651.283-1.134 0-1.932-.096-2.537-.284-.403-.124-1.17-.377-2.302-.758zm9.44-11.782-.517 5.778c-.14 1.342-1.147 2.404-2.418 2.49l-3.192.006c-1.298 0-2.356-1.014-2.566-2.348l-.513-5.917a3.344 3.344 0 0 0 -.386 1.341l-.009 8.766c1.642.57 2.611.9 2.907.992.444.137 1.098.216 2.093.216 1.018 0 1.763-.089 2.207-.216a128.52 128.52 0 0 0 2.793-.904v-8.61a3.35 3.35 0 0 0 -.4-1.594zm-7.52 8.778 1.1.268a.75.75 0 0 1 -.263 1.474l-1.1-.268a.75.75 0 0 1 .264-1.474zm6.647.564a.75.75 0 0 1 -.449.878l-1.097.282a.75.75 0 0 1 -.461-1.424l1.097-.282a.75.75 0 0 1 .91.546zm-1.988-11.068c-.311-.01-1.471-.01-3.48 0a3.2 3.2 0 0 0 -.993.157l.61 7.135c.038.384.305.718.623.708h2.947c.293 0 .548-.225.627-.57l.658-7.273c-.25-.082-.525-.14-.992-.157z" fill="#282D37" style="fill: currentColor;fill: var(--db-icon-color, currentColor)" fill-rule="evenodd"/></svg>