<svg id="icon" height="20" viewBox="0 0 20 20" width="20" xmlns="http://www.w3.org/2000/svg"><path d="m15.343 13.071c.276.284.475.475.596.572.353.284.744.507 1.061.507a.85.85 0 0 1 0 1.7c-.742 0-1.515-.348-2.321-1.044-.802.696-1.584 1.044-2.346 1.044s-1.535-.348-2.321-1.044c-.806.695-1.583 1.042-2.332 1.042-.75 0-1.527-.347-2.334-1.042-.798.69-1.57 1.038-2.316 1.044a.85.85 0 0 1 -.88-.85c0-.433.362-.858.85-.85.294.005.686-.195 1.091-.513.282-.22.503-.442.618-.576a.85.85 0 0 1 1.301.011c.11.133.322.353.595.572.352.283.789.507 1.075.506s.674-.197 1.077-.513a4.6 4.6 0 0 0 .619-.577.85.85 0 0 1 1.3.012c.11.132.323.353.596.571.353.284.777.508 1.075.507s.675-.198 1.077-.513c.282-.22.503-.443.618-.577a.85.85 0 0 1 1.3.011zm-2.33-7.74a6.1 6.1 0 0 1 .674 1.142l3.234-.57a.85.85 0 0 1 .914 1.204l-2.23 3.506c-.216.34-.501.425-.772.394-.27-.03-.365-.136-.508-.136s-.842 1.443-2.042 1.443c-.8 0-1.579-.416-2.336-1.247-.873.831-1.688 1.247-2.446 1.247-.757 0-1.502-.352-2.233-1.056-.719.857-1.475 1.285-2.268 1.285-.433 0-.843-.32-.843-.743l-.007-1.744a1.85 1.85 0 0 1 1.376-1.788l1.303-.247c.361-.08.54-.639.41-1.967l-.08-.651c-.063-.428.187-.87.715-.965l3.991-.599c1.288-.207 2.341.413 3.148 1.493zm-2.749.174-3.326.492c.063.706.034 1.229-.037 1.67l5.032-.886c-.62-1.026-1.166-1.3-1.669-1.276z" fill="#282D37" style="fill: currentColor;fill: var(--db-icon-color, currentColor)" fill-rule="evenodd"/></svg>