<svg id="icon" height="32" viewBox="0 0 32 32" width="32" xmlns="http://www.w3.org/2000/svg"><g fill="var(--db-icon-color, currentColor)" fill-rule="evenodd"><path d="m25.777 9.33c.11.39.19.79.19 1.21v14.96c0 2.48-2.03 4.5-4.5 4.5h-11.07c-1.43 0-2.69-.68-3.52-1.73l2.66-2.67c-.08.13-.13.26-.13.42 0 .47.38.85.85.85h1.81a.85.85 0 1 0 0-1.7h-1.81c-.16 0-.29.06-.42.13l6.28-6.29h4.34c1.08 0 1.97-.89 1.97-1.97v-4.35zm-4.22 15.85h-1.81a.85.85 0 1 0 0 1.7h1.81a.85.85 0 1 0 0-1.7zm-10.699-23.18 10.09.03c.37 0 .74.11 1.07.3l1.34.79c.4.23.54.75.3 1.16a.835.835 0 0 1 -1.16.3l-1.34-.79a.352.352 0 0 0 -.21-.07h-1.17v2.33h1.69c1.362 0 2.589.627 3.415 1.6.071.084-2.57 2.656-2.634 2.517a1.965 1.965 0 0 0 -1.79-1.157h-9.06c-1.08 0-1.97.89-1.97 1.97v6.06c0 1.08.89 1.97 1.97 1.97h2.11c-3.677 3.837-5.988 6.232-6.933 7.184l-.138.139c-.232.232-.35.343-.352.333a4.249 4.249 0 0 1 -.178-1.176v-14.97c0-2.48 2.03-4.5 4.5-4.5h1.68v-2.34h-1.23c-.07 0-.15.03-.23.08l-1.23.79c-.39.26-.92.14-1.17-.25a.842.842 0 0 1 .25-1.17l1.23-.79c.35-.22.75-.34 1.15-.34zm5.94 19.19h-1.81a.85.85 0 1 0 0 1.7h1.81a.85.85 0 1 0 0-1.7zm1.28-17.49h-4.3v2.34h4.3v-2.34z"/><path d="m2.748 29.96c-.19 0-.38-.07-.53-.22a.754.754 0 0 1 0-1.06l26.4-26.46c.29-.29.77-.29 1.06 0s.29.77 0 1.06l-26.4 26.46c-.15.15-.34.22-.53.22z"/></g></svg>
