<svg id="icon" height="64" viewBox="0 0 64 64" width="64" xmlns="http://www.w3.org/2000/svg"><g fill="none" fill-rule="evenodd" transform="translate(17 4)"><path d="m25 0a5 5 0 0 1 4.995 4.783l.005 46.217a5 5 0 0 1 -4.783 4.995l-20.217.005a5 5 0 0 1 -4.995-4.783l-.005-46.217a5 5 0 0 1 4.783-4.995zm-2 2v.034a2.966 2.966 0 0 1 -2.752 2.958l-10.282.008c-1.58 0-2.87-1.443-2.961-3h-2.005a3 3 0 0 0 -2.995 2.824l-.005 46.176a3 3 0 0 0 2.824 2.995l20.176.005a3 3 0 0 0 2.995-2.824l.005-46.176a3 3 0 0 0 -2.824-2.995zm-2 0h-12v.034c0 .496.373.904.853.96l.113.006h10.068a.966.966 0 0 0 .958-.839l.008-.127z" fill="var(--db-icon-color, currentColor)" fill-rule="nonzero"/><path d="m21 50a1 1 0 0 1 .117 1.993l-.117.007h-12a1 1 0 0 1 -.117-1.993l.117-.007z" fill="var(--db-icon-pulse-color, #EC0016)"/></g></svg>
