<svg id="icon" height="24" viewBox="0 0 24 24" width="24" xmlns="http://www.w3.org/2000/svg"><path d="m12 2a9.99 9.99 0 0 1 10 10 9.99 9.99 0 0 1 -10 10 9.99 9.99 0 0 1 -10-10 9.99 9.99 0 0 1 10-10zm0 2c-4.406 0-8 3.594-8 8s3.594 8 8 8 8-3.594 8-8-3.594-8-8-8zm-1 9.062c0 .532.469.97 1.031.97.563 0 .969-.407.969-.97v-6.062c0-.563-.406-1-.969-1-.561 0-1.031.438-1.031 1zm1.025 4.75a1.12 1.12 0 0 1 -1.125-1.125c0-.625.5-1.125 1.125-1.125s1.125.5 1.125 1.126c0 .625-.5 1.125-1.125 1.125z" fill="var(--db-icon-color, currentColor)" fill-rule="evenodd"/></svg>
