<svg id="icon" height="32" viewBox="0 0 32 32" width="32" xmlns="http://www.w3.org/2000/svg"><path d="m5 22.563c0-1.782.625-3.5 1.781-4.844.188-.219.5-.344.782-.344.53 0 .968.469.968 1 0 .25-.062.469-.219.656a5.365 5.365 0 0 0 -1.312 3.532c0 2.967 2.438 5.437 5.406 5.437 1.969 0 3.813-1.125 4.75-2.875.188-.313.532-.5.875-.5.563 0 1 .438 1 1a.882.882 0 0 1 -.125.469c-1.281 2.375-3.781 3.906-6.5 3.906-4.094 0-7.406-3.344-7.406-7.438zm4.484-10.253c0-.937 1.25-1.312 2.25-1.312 1.47 0 2.594 1.031 3.032 2.437l.812 2.565h5.406c.563 0 1 .469 1 1 0 .562-.437 1-1 1h-6.124a.975.975 0 0 1 -.937-.688l-1.063-3.375c-.156-.594-.562-.937-1.156-.937-.5 0-.906.312-1.219.312-.562 0-1-.469-1-1zm4.907 8.69c0-.563.468-1 1-1h7.593c.407 0 .782.25.938.594l3 6.938c.062.125.094.25.094.375 0 .469-.328 1-1.016 1-.375 0-.766-.218-.922-.593l-2.75-6.314h-6.937c-.532 0-1-.438-1-1zm-2.625-18.5c1.78 0 3.218 1.438 3.218 3.25a3.214 3.214 0 0 1 -3.218 3.219c-1.813 0-3.25-1.438-3.25-3.219a3.228 3.228 0 0 1 3.25-3.25zm0 2c-.688 0-1.25.563-1.25 1.25 0 .688.562 1.219 1.25 1.219.687 0 1.25-.532 1.25-1.219 0-.688-.563-1.25-1.25-1.25z" fill="var(--db-icon-color, currentColor)" fill-rule="evenodd"/></svg>
