<svg id="icon" height="20" viewBox="0 0 20 20" width="20" xmlns="http://www.w3.org/2000/svg"><path d="m8 2a1 1 0 0 1 0 2l-2.992.01c-.277.017-.544.056-.769.364-.176.239-.222.566-.234.962l-.004 9.19c.002.479.079 1.165.534 1.351.24.098.491.117.76.121l2.705.002a1 1 0 0 1 0 2h-2.558c-.939 0-1.449-.109-1.975-.419a2.824 2.824 0 0 1 -1.112-1.219c-.242-.499-.339-.976-.353-1.816l-.002-8.854c0-.992.091-1.51.355-2.054.25-.517.629-.934 1.112-1.219.482-.284.951-.399 1.749-.417zm6.873 4.868c2.275.074 3.131 1.917 3.131 3.132a3.131 3.131 0 0 1 -6.054 1.125c-.53.015-.916.027-1.155.036-.155-.009-.17-.02-.292-.117a43.696 43.696 0 0 1 -.548-.558c-.269.272-.54.543-.812.812a.393.393 0 0 1 -.553 0c-.28-.276-.558-.554-.834-.834l-.412.412-.358.357c-.187.188-.417.136-.553 0-.333-.329-.664-.66-.993-.992-.082-.084-.224-.327 0-.554l.386-.389.18-.18.48-.477a.348.348 0 0 1 .277-.115c1.78.002 3.56.006 5.34.013.102-.218.264-.445.485-.68a3.12 3.12 0 0 1 2.285-.99zm-.235 2.264a1.181 1.181 0 1 0 1.67 1.67 1.181 1.181 0 0 0 -1.67-1.67z" fill="#282D37" style="fill: currentColor;fill: var(--db-icon-color, currentColor)" fill-rule="evenodd"/></svg>
