<svg id="icon" height="20" viewBox="0 0 20 20" width="20" xmlns="http://www.w3.org/2000/svg"><path d="m2 10c0-4.4118 3.58822-8 8.00002-8 1.3921 0 2.8235.1765 2.8235 1.2353 0 .4706-.4118 1-1 1-.1569 0-1.098-.2353-1.8235-.2353-3.3137 0-6 2.6863-6 6s2.6863 6 6 6c.7059 0 1.647-.2353 1.8235-.2353.549 0 1 .4706 1 1 0 .4314-.2941.8431-.7451.9608-.6667.1765-1.3725.2745-2.0784.2745-4.4118 0-8.00002-3.5882-8.00002-8zm5.00002-.3529c0-.5687.451-1 1-1 .2841.0072.5181.0852.7326.2998l2.0088 2.0087 5.6507-5.6615c.1765-.1961.4706-.2941.7255-.2941.5687 0 1 .451 1 1 0 .2549-.0588.4706-.2941.7059l-6.3725 6.3725c-.1961.1961-.451.2941-.7059.2941-.3334 0-.4902-.0784-.7059-.2941l-2.7451-2.7255c-.2157-.196-.2941-.4509-.2941-.7058z" fill="var(--db-icon-color, currentColor)" fill-rule="evenodd"/></svg>
