<svg id="icon" height="24" viewBox="0 0 24 24" width="24" xmlns="http://www.w3.org/2000/svg"><path d="m2 20.9984v-5.9781c0-2.3161 1.6901-4.0062 3.8906-4.0047901.1875 0 .4375.0313901.6563.1563901.625.3125 2.2812.8281 3.2187.8281.5313 0 .9688.4688.9688 1 0 .5625-.4375 1-.9688 1-1.0312 0-2.9375-.4844-4.0312-1.0156-.6045.0015-1.7626.4397-1.7626 2.0359v5.9781c0 .5634-.4382 1.0016-1.0015 1.0016-.5321 0-.9703-.4382-.9703-1.0016zm4-15.0453c-.00937301-2.2004 1.76411206-3.9531 3.98099369-3.9531 2.18521041 0 4.02213911 1.7527 4.01900631 3.9531 0 2.1563-1.8339982 3.9375-4.01576837 3.9375-2.21344131 0-3.98423163-1.7812-3.98423163-3.9375zm2 .06925378c0 1.08451567.89603745 1.97764622 1.98404227 1.97764622 1.11995373 0 2.01595773-.89313055 2.01595773-1.97764622 0-1.12779422-.8974376-2.02235378-2.01923455-2.02235378-1.08964322 0-1.9870808.89455956-1.98076545 2.02235378zm4.9859 13.50504622-.0015-7.043c0-1.375 1.125-2.4844 2.5-2.4844h4.043c1.3771 0 2.4726 1.108 2.4726 2.4851v7.0423c0 1.3771-1.0955 2.4726-2.4726 2.4726h-4.0376c-1.3771 0-2.5039-1.0955-2.5039-2.4726zm2.0031 0c0 .2817.2191.5008.5008.5008h4.0376c.2817 0 .5008-.2191.5008-.5008v-7.0423c0-.2817-.2191-.532-.5008-.532h-4.043c-.2813 0-.5.25-.5.5313zm1.001552-1.0410854-.006152-1.0046248c0-.2486449.2170073-.4972898.4961302-.4972898.2790236 0 .4961302.2486449.4961302.4972898l.0077396 1.0046248c0 .280173-.2174042.4980854-.496924.4980854-.2795197 0-.496924-.2179124-.496924-.4980854zm2.0030477.0295172-.0091997-1.0561853c0-.2535494.2163419-.4753544.5045999-.4674436.2786625 0 .4954001.2222107.4954001.4761657v1.0474632c0 .2856994-.2167376.4761657-.4954001.4761657-.2786626 0-.4954002-.1904663-.4954002-.4761657z" fill="var(--db-icon-color, currentColor)" fill-rule="evenodd"/></svg>
