<svg id="icon" height="32" viewBox="0 0 32 32" width="32" xmlns="http://www.w3.org/2000/svg"><path d="m18 5.99538311c1.6562 0 3 1.37341295 3 3.02770133v16.94921426c0 1.6542884-1.3438 3.0277013-3 3.0277013h-12c-1.6562 0-3-1.3734129-3-3.0277013v-16.94921426c0-1.65428838 1.3438-3.02770133 3-3.02770133zm0 1.99769156h-12c-.5625 0-1 .46815902-1 1.03000977v16.94921426c0 .5618507.4375.9988458 1 .9988458h12c.5625 0 1-.4369951 1-.9988458v-16.94921426c0-.56185075-.4375-1.03000977-1-1.03000977zm8-5.99307467c1.6562 0 3 1.37341295 3 3.02770132v16.94921428c0 1.6542883-1.3438 3.0277013-3 3.0277013h-1.9688c-.5624 0-1-.468159-1-1.0300098 0-.5306867.4376-.9988458 1-.9988458h1.9688c.5625 0 1-.436995 1-.9988457v-16.94921428c0-.56185075-.4375-.99884578-1-.99884578h-12c-.5625 0-1-.46815901-1-.99884577 0-.56185075.4375-1.03000977 1-1.03000977zm-18 19.9769156c.5625 0 1 .468159 1 1.0300097 0 .5306868-.4375.9988458-1 .9988458s-1-.468159-1-.9988458c0-.5618507.4375-1.0300097 1-1.0300097zm4 0c.5625 0 1 .468159 1 1.0300097 0 .5306868-.4375.9988458-1 .9988458s-1-.468159-1-.9988458c0-.5618507.4375-1.0300097 1-1.0300097zm4 0c.5625 0 1 .468159 1 1.0300097 0 .5306868-.4375.9988458-1 .9988458s-1-.468159-1-.9988458c0-.5618507.4375-1.0300097 1-1.0300097zm8-4.9942289c.5625 0 1 .468159 1 .9988458 0 .5618507-.4375.9988457-1 .9988457s-1-.436995-1-.9988457c0-.5306868.4375-.9988458 1-.9988458z" fill="var(--db-icon-color, currentColor)" fill-rule="evenodd"/></svg>
