<svg id="icon" height="24" viewBox="0 0 24 24" width="24" xmlns="http://www.w3.org/2000/svg"><path d="m8.5 13c1.375 0 2.5 1.125 2.5 2.5v3c0 1.375-1.125 2.5-2.5 2.5h-3a2.507 2.507 0 0 1 -2.5-2.5v-3c0-1.375 1.125-2.5 2.5-2.5zm0 2h-3c-.281 0-.5.219-.5.5v3c0 .281.219.5.5.5h3c.281 0 .5-.219.5-.5v-3c0-.281-.219-.5-.5-.5zm0-12c1.375 0 2.5 1.125 2.5 2.5v3c0 1.375-1.125 2.5-2.5 2.5h-3a2.507 2.507 0 0 1 -2.5-2.5v-3c0-1.375 1.125-2.5 2.5-2.5zm0 2h-3c-.281 0-.5.219-.5.5v3c0 .281.219.5.5.5h3c.281 0 .5-.219.5-.5v-3c0-.281-.219-.5-.5-.5zm8.5 8c.531 0 1 .469 1 1v2h2c.563 0 1 .438 1 1v3c0 .563-.438 1-1 1h-3c-.563 0-1-.438-1-1v-2h-2c-.531 0-1-.469-1-1v-3c0-.531.469-1 1-1zm1.5-10c1.375 0 2.5 1.125 2.5 2.5v3c0 1.375-1.125 2.5-2.5 2.5h-3a2.507 2.507 0 0 1 -2.5-2.5v-3c0-1.375 1.125-2.5 2.5-2.5zm0 2h-3c-.281 0-.5.219-.5.5v3c0 .281.219.5.5.5h3c.281 0 .5-.219.5-.5v-3c0-.281-.219-.5-.5-.5z" fill="#282D37" style="fill: currentColor;fill: var(--db-icon-color, currentColor)" fill-rule="evenodd"/></svg>
