<svg id="icon" height="20" viewBox="0 0 20 20" width="20" xmlns="http://www.w3.org/2000/svg"><path d="m3 16.375v-12.75c0-.906.719-1.625 1.625-1.625h1.375c.563 0 1 .438 1 1 0 .563-.438 1-1 1h-1v12h8v-2c0-.563.469-1 1-1 .563 0 1 .438 1 1v2.375c0 .906-.719 1.625-1.625 1.625h-8.75a1.614 1.614 0 0 1 -1.625-1.625zm4-3.375c0-.563.438-1 1-1h2c.563 0 1 .438 1 1 0 .563-.438 1-1 1h-2c-.563 0-1-.438-1-1zm5.5-11c2.469 0 4.5 2.031 4.5 4.5s-2.031 4.5-4.5 4.5-4.5-2.031-4.5-4.5 2.031-4.5 4.5-4.5zm.219 2.031v2.862l-2.439-1.518a2.601 2.601 0 0 0 -.28 1.125c0 1.375 1.125 2.5 2.5 2.5s2.5-1.125 2.5-2.5c0-1.313-1-2.375-2.281-2.469z" fill="#282D37" style="fill: currentColor;fill: var(--db-icon-color, currentColor)" fill-rule="evenodd"/></svg>
