<svg id="icon" height="32" viewBox="0 0 32 32" width="32" xmlns="http://www.w3.org/2000/svg"><path d="m16 23c.5128358 0 .9993333.4170445 1 1l-.0006667 1.719256 1.2352136-.6192049c.4935925-.2477595 1.0945772-.0484725 1.3423368.44512.2300625.458336.0674847 1.0651881-.44512 1.3423369l-2.6819538 1.346211c-.2419621.1214533-.59946.1434028-.8910067 0l-2.6866443-1.3454482c-.4935926-.2477596-.6928796-.8487443-.44512-1.3423369.2300625-.4583359.8378748-.7082592 1.3423368-.44512l1.2299576.6164421.0006667-1.717256c0-.5522847.4477153-1 1-1zm11.6666664-4.3326095.00242 3.3171224c.0002482.3664294-.2111266.7224648-.5514084.8944525l-3.4099087 1.7116092c-.4935926.2477596-1.0945773.0484726-1.3423368-.44512-.2300625-.458336-.0637079-1.0852594.44512-1.3423369l1.6137808-.8118617-.9823899-.6609529c-.4581119-.308467-.5794232-.929902-.2709562-1.3880139.2864336-.4253897.8708441-.5915209 1.3880139-.2709563l1.1083322.7459231-.0006664-1.7498655c-.0003987-.5507153.4661713-1.0007244.9992757-1.0007244s1.0007238.4408738 1.0007238 1.0007244zm-22.33333307-1.0007241c.51283584 0 .999.4112432 1 1.0007241l-.001 1.7488655 1.10913783-.7457411c.45811197-.308467 1.07954698-.1871557 1.38801394.2709563.28643361.4253896.20788367 1.0679587-.27095626 1.3880139l-.98319551.6617709 1.58048592.7937758c.5370609.2762548.67518247.8840009.44511999 1.3423369-.23006247.4583359-.77717484.7125426-1.3380549.44512l-3.37815943-1.6935233c-.30045968-.1508162-.55139158-.4895313-.55139158-.8944525v-3.3178465c0-.5522847.44771525-1 1-1zm14.51642897-5.9046684c1.5689104 0 2.3533657.6899941 2.3533657 2.0699821 0 .5648324-.138914.9980845-.4167419 1.2997563-.2059195.2182306-.5131644.3883222-.9217349.5102746.2712908.1444174.4968217.3979501.6765927.7605981.4764222.9872578.8343022 1.7256158 1.0736399 2.2150742.1404372.2872014-.0951647.6203378-.6323668.6203378-.2664348 0-.7332601-.0803894-.9053593-.4248082l-.9920588-2.0784439c-.1340111-.2824161-.2647537-.473368-.3922277-.5728555-.1111311-.0866504-.2892678-.1299756-.5344101-.1299756h-.5032818v2.4240615c0 .4318888-.3501145.7820217-.7820033.7820217-.4318887 0-.7820041-.3501329-.7820041-.7820217v-6.0710009c0-.3440737.2789271-.6230005.6230007-.6230005zm-.166697 1.1745944h-1.0312773v2.0314709h1.0214716c.3758848 0 .6406385-.0850458.794261-.2551374.1274739-.1379988.1912109-.3819036.1912109-.7317146 0-.2856254-.0261485-.4942283-.0784455-.6258085-.1078626-.2792069-.4069361-.4188104-.8972207-.4188104zm-10.08096401-5.11067772c.22687766.45992078.06799817 1.08463293-.44628204 1.33921694l-1.63948592.80312438 1.0426679.703077c.46416218.3192219.58302071.932369.24937848 1.4278692-.33364222.4955003-.9115749.5133466-1.36690855.2311008l-1.10913783-.747047.001 1.7500771c0 .5762778-.48716416 1-1 1s-1-.4114897-1-.9992936v-3.40235322c0-.35853548.22137014-.73843256.55760177-.89681872l3.37194924-1.66337337c.4952993-.24432979 1.09488715-.04087881 1.33921695.45442049zm14.12954611-.45442049 3.3798204 1.66337337c.3380834.17446577.5483864.4904982.5551986.89752512v3.40164682c-.0003901.5522846-.4484215.9996835-1.0007061.9993476-.5128357-.0004165-.998627-.4085559-.998627-.9993476v-1.7517835l-1.1088043.747229c-.458112.308467-1.079547.1871559-1.388014-.270956-.2864337-.4253897-.2266925-1.0338397.2714284-1.387196l1.0413899-.703077-1.6364824-.80700723c-.557825-.28636205-.7006785-.88497912-.4190932-1.4128215s.886-.56661812 1.3038897-.37693308zm-10.8560126 4.39050381c.3273742 0 .6237978.1890906.7463296.513952l2.3789396 6.3079121c.1331476.3530939.0699754.6541411-.5597285.6541411-.5597285 0-.7683838-.1407133-.9096056-.4905871l-.4431028-1.0980733h-2.7753922l-.3732022 1.0046139c-.1570708.4228889-.3731274.5840465-.9329306.5840465-.55972856 0-.69474521-.2784312-.55972856-.6307762l2.42558986-6.331277c.1057107-.2758851.3489052-.513952.6530291-.513952zm-.1247702 1.9968831-.9912436 2.7754669h1.9824123zm3.6927351-9.98644381 2.7141972 1.3389061c.4952993.2443298.6987503.84391765.4544205 1.33921695-.2268776.45992077-.8093731.7064951-1.3392169.45442048l-1.2736672-.62872482.0006667 1.223744c0 .55228475-.4477153 1-1 1-.5128358 0-1-.39352645-1-1l-.0006667-1.222744-1.2037125.59505947c-.574252.27227963-1.133132.00212061-1.3512625-.46452302-.2181306-.46664364-.1193761-1.02037415.4664661-1.32911441l2.6479788-1.30624075c.2916607-.13042374.5467724-.14260025.8847965 0z" fill="var(--db-icon-color, currentColor)" fill-rule="evenodd"/></svg>
