<svg id="icon" height="20" viewBox="0 0 20 20" width="20" xmlns="http://www.w3.org/2000/svg"><path d="m12 4c.6295146 0 1.2222912.29638831 1.6.8l.9 1.2h1.5c1.0543618 0 2 .96221924 2 2v6c0 1.1045695-.8954305 2-2 2h-12c-1.1045695 0-2-.8954305-2-2v-5.99405685c0-1.10225099.89181515-1.9967182 1.99406128-1.99999118l1.50493872-.00495197.901-1.201c.3433716-.4578288 1.02886639-.8 1.6-.8zm0 2h-4l-1.49888731 1.99851642-2.50111269.00742673v5.99405685h12v-6h-2.5zm-2 2.5c1.1045695 0 2 .8954305 2 2s-.8954305 2-2 2-2-.8954305-2-2 .8954305-2 2-2z" fill="var(--db-icon-color, currentColor)" fill-rule="evenodd"/></svg>
