<svg id="icon" height="32" viewBox="0 0 32 32" width="32" xmlns="http://www.w3.org/2000/svg"><path d="m16.4513203 11.4527958c.5522848 0 1 .4477152 1 1 0 .5128358-.3860401.9355072-.8833788.9932723l-.6151457.0067277c-2.1421954 0-3.8910789 1.6839685-3.9951047 3.8003597l-.0048953 8.1996403c0 2.209139 1.790861 4 4 4 2.1421954 0 3.8910789-1.6839685 3.9951047-3.8003597l.0048953-3.1996403c0-.5522848.4477152-1 1-1 .5128358 0 .9355072.3860402.9932723.8833789l.0067277 3.1166211c0 3.3137085-2.6862915 6-6 6-3.2383969 0-5.8775718-2.5655749-5.99586153-5.7750617l-.00413847-8.2249383c0-3.2383969 2.5655749-5.8775718 5.7750617-5.9958615zm-.4985245-11c3.2383969 0 5.8775718 2.56557488 5.9958615 5.77506173l.0041385 8.22493827c0 3.2383969-2.5655749 5.8775718-5.7750617 5.9958615l-.7264138.0041385c-.5522847 0-1-.4477153-1-1 0-.5128358.3860402-.9355072.8833789-.9932723l.6180966-.0067277c2.1421954 0 3.8910789-1.6839685 3.9951047-3.8003597l.0048953-8.1996403c0-2.209139-1.790861-4-4-4-2.1421954 0-3.8910789 1.68396847-3.9951047 3.80035965l-.0048953 3.19964035c0 .5522847-.4477153 1-1 1-.5128358 0-.9355072-.3860402-.99327227-.88337888l-.00672773-3.11662112c0-3.3137085 2.6862915-6 6-6z" fill="var(--db-icon-color, currentColor)" fill-rule="evenodd" transform="matrix(.70710678 .70710678 -.70710678 .70710678 15.952796 -6.607864)"/></svg>
