<svg id="icon" height="24" viewBox="0 0 24 24" width="24" xmlns="http://www.w3.org/2000/svg"><path d="m12.5192286.20660173 7.6842834 7.5956506c.3925029.38853562.395719 1.02169243.0071834 1.41419532-.3586483.36231035-.9257311.39292072-1.3195666.08989237l-.8141288-.79534002-3.3884895 3.3558513c.28831.4238358.4934448.8726212.6156789 1.3418686.4142607 1.7006953-.1147563 3.4300632-1.5870511 5.1881036-.6292745.7514052-1.2253346 1.3478974-1.651364 1.6930318-.3632224.2942532-.8760775.2947618-1.2381863.0164721l-4.609588-4.5523274-4.43216969 4.3878674c-.39250509.3885334-1.02566188.3853137-1.41419527-.0071914-.35864621-.3623124-.38349097-.9296772-.07647518-1.3204122l4.50084014-4.4672638-4.49949654-4.454178c-.33723122-.33381946-.38983927-.85296906-.14221469-1.24448095s1.16792332-1.25202689 1.7850263-1.73788958c1.61246849-1.26954221 3.28691871-1.94284885 4.96194069-1.62503899.57108058.10835383 1.11464155.33305559 1.62298258.67484153l3.38676166-3.35225401-.7041547-.69731058c-.3925029-.38853562-.395719-1.02169243-.0071833-1.41419532.3586482-.36231035.9257311-.39292073 1.3195666-.08989237zm-5.99079106 6.84375517c-1.15495836-.22660362-2.53143552.40994411-4.12943147 1.90964318l9.05900003 8.96800002c1.5060881-1.5826667 2.1530789-2.943274 1.9409721-4.0818218-.1134867-.7067396-.5114016-.9813568-.6142967-1.1731282l-4.89858756-4.85770226c-.43767267-.43332313-.88722873-.67269271-1.3576564-.76499094zm6.80456856-3.23535682-3.322 3.289 3.322 3.28800002 3.322-3.28800002z" fill="var(--db-icon-color, currentColor)" fill-rule="evenodd" transform="translate(2 2)"/></svg>
