<svg id="icon" height="20" viewBox="0 0 20 20" width="20" xmlns="http://www.w3.org/2000/svg"><path d="m15.511473 13.2589801.0357489.0835435 1.3274074 4c.0869744.2620879-.0549832.5450588-.3170711.6320331-.232967.0773106-.4824342-.0262634-.5960801-.234307l-.035953-.0827641-.3511437-1.057481h-1.144l-.407242 1.0773062c-.0870431.2295083-.3248173.3576677-.5579213.3145393l-.0868916-.0243388c-.2295083-.0870432-.3576677-.3248174-.3145393-.5579214l.0243389-.0868916 1.517037-4c.1557534-.4106779.7122895-.4265628.9063099-.0637182zm-3.669661-.2589755c.961627 0 1.5027096.5419763 1.5027096 1.5548683 0 .9584594-.4744805 1.4804673-1.3449944 1.53551l-.1577152.0048598-.6314306-.0002381.0008069 1.405c0 .2454599-.1768751.4496084-.4101244.4919443l-.0898756.0080557c-.2454599 0-.4496084-.1768752-.4919443-.4101244l-.0080557-.0898756v-4c0-.2454599.1768752-.4496084.4101244-.4919443l.0898756-.0080557zm-7.24611418 0c.4377918 0 .85862611.0985527 1.20734828.2668196.24870327.1200054.35303352.4189028.23302813.6676061-.12000538.2487033-.41890281.3530335-.66760608.2330281-.21476444-.103629-.48730554-.1674538-.77277033-.1674538-.26065729 0-.34058301.0712199-.34058301.2329391 0 .1884284.11574946.3390541.49878974.6082287l.27620269.1855022c.87375526.5687219 1.2033033.9074103 1.2033033 1.6024969 0 .8114147-.67385767 1.3708331-1.56756437 1.3708331-.47417296 0-.94944051-.1332802-1.32152993-.3547844-.23728092-.1412529-.31512703-.4481151-.17387415-.6853961.14125289-.2372809.44811516-.315127.68539608-.1738741.21879976.1302511.5176369.2140546.810008.2140546.37828687 0 .56756437-.1571331.56756437-.3708331 0-.1794081-.11370978-.3261731-.49019872-.5904945l-.27170242-.1824166c-.88309294-.5747873-1.21639459-.9180853-1.21639459-1.6233167 0-.7413426.55168873-1.2329391 1.34058301-1.2329391zm4.60616063 0c.27614238 0 .5.2238576.5.5 0 .2454599-.17687516.4496084-.41012437.4919443l-.08987563.0080557h-1.54647701v.904l1.17443598.0007734c.27614237 0 .5.2238577.5.5 0 .2454599-.17687516.4496084-.41012437.4919444l-.08987563.0080556-1.17443598-.0007734v1.096h1.63358465c.24545989 0 .44960837.1768751.49194433.4101243l.00805567.0898757c0 .2454599-.17687516.4496084-.41012436.4919443l-.08987564.0080557h-2.13333333c-.24545989 0-.44960837-.1768752-.49194433-.4101244l-.00805567-.0898756v-4c0-.2454599.17687516-.4496084.41012437-.4919443l.08987563-.0080557zm5.83852295 1.992-.231.608h.433zm-3.1985694-.992h-.6314306v1.095l.6314306.0002381c.4211783 0 .5027096-.0805485.5027096-.5403698 0-.4225616-.0787652-.5366705-.4069057-.5527541zm2.1445969-12.0000046c1.0935364 0 1.9996095.90607303 1.9996095 1.99960945v4.98070689c0 1.09353646-.9060731 1.99960946-1.9996095 1.99960946h-7.98679945c-1.09353642 0-1.99960945-.906073-1.99960945-1.99960946v-4.98070689c0-1.09353642.90607303-1.99960945 1.99960945-1.99960945zm-2.9867903 5h-5.00000004v2h5.00000004z" fill="var(--db-icon-color, currentColor)" fill-rule="evenodd"/></svg>
