<svg id="icon" height="32" viewBox="0 0 32 32" width="32" xmlns="http://www.w3.org/2000/svg"><path d="m26.3615906 13.6712802 3.06 1.425c.501.232.718.828.485 1.328-.17.364-.531.578-.907.578-.141 0-.285-.031-.421-.094l-2.629-1.224-1.949.944v1.778l1.504-.729c.271-.132.586-.134.858-.007l3.06 1.425c.501.232.718.828.485 1.328-.17.364-.531.578-.907.578-.141 0-.285-.031-.421-.094l-2.629-1.224-1.949.944-.001.696c0 .383-.038.756-.092 1.124l1.596-.773c.271-.131.586-.133.858-.006l3.06 1.425c.501.232.718.828.485 1.328-.234.501-.831.716-1.329.484l-2.63-1.224-2.959 1.434c-1.323 2.316-3.811 3.884-6.664 3.884h-.65c-2.852 0-5.341-1.568-6.66400005-3.884l-2.959-1.433-2.63 1.224c-.5.233-1.095.017-1.329-.484-.233-.5-.016-1.096.485-1.328l3.06-1.425c.273-.127.588-.125.858.006l1.596.773c-.055-.367-.092-.74-.092-1.123v-.698l-1.949-.944-2.629 1.224c-.136.064-.279.094-.421.094-.376 0-.737-.214-.907-.578-.233-.5-.016-1.096.485-1.328l3.06-1.425c.273-.127.588-.125.858.007l1.504.729v-1.778l-1.949-.944-2.629 1.224c-.136.064-.279.094-.421.094-.376 0-.737-.214-.907-.578-.233-.5-.016-1.096.485-1.328l3.06-1.425c.273-.127.588-.125.858.007l2.732 1.324h13.54100005l2.732-1.324c.271-.132.586-.134.858-.007zm-4.36 3.33h-12v4.324c0 3.13 2.546 5.676 5.675 5.676h.65c3.129 0 5.675-2.546 5.675-5.676zm-5 5.999c.552 0 1 .447 1 1s-.448 1-1 1h-2c-.552 0-1-.447-1-1s.448-1 1-1zm1.999-3.991c.552 0 1 .447 1 1s-.448 1-1 1h-6.014c-.552 0-1-.447-1-1s.448-1 1-1zm-7.714-15.18200003c.199 1.144.81 2.179 1.677 2.949.926-.494 1.96-.777 3.037-.777s2.111.283 3.037.777c.867-.771 1.478-1.806 1.677-2.949.095-.542.613-.905 1.157-.813.544.095.909.612.814 1.157-.253 1.449-.965 2.789-2.001 3.825 1.013 1.011 1.741 2.33700003 2.001 3.83100003.067.386.101.78.101 1.173 0 .553-.448 1-1 1h-11.572c-.55200005 0-1.00000005-.447-1.00000005-1 0-.393.034-.787.101-1.173.261-1.495.98800005-2.82100003 2.00100005-3.83100003-1.036-1.037-1.74900005-2.376-2.00100005-3.825-.095-.545.27-1.062.81400005-1.157.551-.092 1.062.27 1.157.813zm4.715 4.173c-2.181 0-4.205 1.743-4.681 4.00000003h9.362c-.476-2.25700003-2.5-4.00000003-4.681-4.00000003z" fill="var(--db-icon-color, currentColor)" fill-rule="evenodd"/></svg>
