<svg id="icon" height="32" viewBox="0 0 32 32" width="32" xmlns="http://www.w3.org/2000/svg"><path d="m16 2c3.843 0 7.328 1.558 9.86 4.073.012.012.029.015.041.027l.027.041c2.514 2.533 4.072 6.017 4.072 9.859s-1.558 7.326-4.072 9.858c-.011.012-.015.029-.027.041s-.029.016-.041.027c-2.532 2.516-6.017 4.074-9.86 4.074-3.847 0-7.336-1.561-9.868-4.081-.01-.009-.021-.011-.03-.02s-.011-.02-.02-.029c-2.521-2.533-4.082-6.022-4.082-9.87s1.561-7.337 4.082-9.87c.009-.009.011-.021.02-.03s.021-.011.03-.02c2.533-2.52 6.021-4.08 9.868-4.08zm1 2.05v.95c0 .552-.448 1-1 1-.553 0-1-.448-1-1v-.95c-2.557.213-4.888 1.226-6.74 2.794l.67.67c.391.391.391 1.024 0 1.414-.194.196-.451.293-.707.293s-.511-.097-.707-.293l-.67-.67c-1.569 1.852-2.583 4.184-2.796 6.742h.95c.552 0 1 .447 1 1 0 .552-.448 1-1 1h-.95c.213 2.558 1.227 4.889 2.796 6.741l.67-.671c.39-.391 1.024-.391 1.414 0 .391.391.391 1.023 0 1.414l-.67.671c1.852 1.568 4.182 2.582 6.74 2.794v-.949c0-.553.447-1 1-1 .552 0 1 .447 1 1v.949c2.558-.212 4.889-1.226 6.741-2.795l-.669-.67c-.39-.391-.39-1.024 0-1.414.391-.391 1.024-.391 1.415 0l.669.669c1.568-1.852 2.581-4.182 2.793-6.739h-.949c-.553 0-1-.448-1-1 0-.553.447-1 1-1h.949c-.212-2.558-1.226-4.888-2.794-6.74l-.668.668c-.196.196-.452.293-.708.293-.255 0-.511-.097-.707-.293-.39-.39-.39-1.023 0-1.414l.669-.668c-1.852-1.569-4.183-2.583-6.741-2.796zm-4.1981222 12.5708775.1163222.0113225c.544.088.918.598.833 1.144l-.461 2.934 2.311-1.866c.43-.347 1.06-.28 1.406.15.347.429.28 1.059-.149 1.406l-4.331 3.496c-.321.26-.77.295-1.128.088-.358-.206-.552-.613-.488-1.021l.864-5.498c.086-.546.597-.918 1.143-.833zm2.1227222-1.2427775c.345-.598 1.111-.803 1.708-.458.597.344.802 1.11.457 1.707s-1.11.803-1.707.458-.802-1.11-.458-1.707zm5.6745-7.3281c.357.206.551.61.489 1.017l-.835 5.449c-.076.495-.502.849-.987.849-.051 0-.102-.004-.153-.012-.546-.083-.921-.593-.837-1.139l.446-2.912-2.298 1.842c-.432.344-1.06.277-1.406-.154-.345-.432-.276-1.061.155-1.406l4.301-3.448c.322-.258.768-.292 1.125-.086z" fill="var(--db-icon-color, currentColor)" fill-rule="evenodd"/></svg>
