<svg id="icon" height="24" viewBox="0 0 24 24" width="24" xmlns="http://www.w3.org/2000/svg"><path d="m12 3c4.971 0 9 4.029 9 9s-4.029 9-9 9-9-4.029-9-9 4.029-9 9-9zm0 2c-3.86 0-7 3.14-7 7s3.14 7 7 7 7-3.14 7-7-3.14-7-7-7zm3 9c.5522847 0 1 .4477153 1 1s-.4477153 1-1 1h-6c-.55228475 0-1-.4477153-1-1s.44771525-1 1-1zm-5.7-5.5c.8284271 0 1.5.67157288 1.5 1.5 0 .8284271-.6715729 1.5-1.5 1.5-.82842712 0-1.5-.6715729-1.5-1.5 0-.82842712.67157288-1.5 1.5-1.5zm5.4 0c.8284271 0 1.5.67157288 1.5 1.5 0 .8284271-.6715729 1.5-1.5 1.5s-1.5-.6715729-1.5-1.5c0-.82842712.6715729-1.5 1.5-1.5z" fill="var(--db-icon-color, currentColor)" fill-rule="evenodd"/></svg>
