<svg id="icon" height="24" viewBox="0 0 24 24" width="24" xmlns="http://www.w3.org/2000/svg"><path d="m14.4049174 5c.6878155 0 1.3452467.28338063 1.8175206.78342812l1.304562 1.38257188 1.973.00066667c1.3254834 0 2.5 1.03335603 2.5 2.33562431v7.99770902c0 1.3807119-1.1192881 2.5-2.5 2.5h-15c-1.38071187 0-2.5-1.1192881-2.5-2.5v-7.83333333c0-1.38071188 1.11928813-2.5 2.5-2.5l2.004-.00066667 1.25768098-1.36138786c.43025431-.4662679 1.18782673-.80461214 1.83831902-.80461214zm-2.4049174 4.5c-1.9329966 0-3.5 1.5670034-3.5 3.5s1.5670034 3.5 3.5 3.5 3.5-1.5670034 3.5-3.5-1.5670034-3.5-3.5-3.5zm0 2c-.8284271 0-1.5.6715729-1.5 1.5s.6715729 1.5 1.5 1.5 1.5-.6715729 1.5-1.5-.6715729-1.5-1.5-1.5z" fill="var(--db-icon-color, currentColor)" fill-rule="evenodd"/></svg>
