<svg id="icon" height="32" viewBox="0 0 32 32" width="32" xmlns="http://www.w3.org/2000/svg"><path d="m19.1715729 6c.7956494 0 1.5587112.31607052 2.1213203.87867966l2.1221068 2.12132034 3.5880259.00403713c1.5965407.00161035 2.9969741 1.41814777 2.9969741 2.99999847v10.9935608c0 1.6568542-1.3431458 3-3 3h-22c-1.65685425 0-3-1.3431458-3-3v-10.9935608c0-1.6556727 1.34130223-2.99832848 2.99697406-2.99999847l3.58702594-.00403713 2.1231068-2.12132034c.515725-.51572504 1.4142135-.87867966 2.1228932-.87867966zm0 2h-6.3431458c-.2652165 0-.5195704.10535684-.7071068.29289322l-2.41421352 2.41421358c-.18728924.1872892-.44123128.2926255-.70609813.2928932l-4.0020173.0040361c-.55189061.0005567-.99899135.4481086-.99899135.9999995v10.9935608c0 .5522847.44771525 1 1 1h22c.5522847 0 1-.4477153 1-1v-10.9935608c0-.5518909-.4471007-.9994428-.9989914-.9999995l-4.0020172-.0040361c-.2648669-.0002677-.5188089-.105604-.7060982-.2928932l-2.4142135-2.41421358c-.1875364-.18753638-.4418903-.29289322-.7071068-.29289322zm-3.1715729 4c2.7614237 0 5 2.2385763 5 5s-2.2385763 5-5 5-5-2.2385763-5-5 2.2385763-5 5-5zm0 2c-1.6568542 0-3 1.3431458-3 3s1.3431458 3 3 3 3-1.3431458 3-3-1.3431458-3-3-3zm-8-1c.55228475 0 1 .4477153 1 1s-.44771525 1-1 1h-1c-.55228475 0-1-.4477153-1-1s.44771525-1 1-1z" fill="var(--db-icon-color, currentColor)" fill-rule="evenodd"/></svg>
