<svg id="icon" height="32" viewBox="0 0 32 32" width="32" xmlns="http://www.w3.org/2000/svg"><path d="m9.5 20c1.3254834 0 2.5 1.0557131 2.5 2.5v5c0 1.3254834-1.0487861 2.5-2.5 2.5h-5c-1.3254834 0-2.52834793-1.091839-2.5-2.5v-5c0-1.3254834 1.04799373-2.5 2.5-2.5zm-5 2c-.24545989 0-.5.203639-.5.5v5c0 .2454599.19718275.5.5.5h5c.24545989 0 .5-.1897946.5-.5v-5c0-.2369828-.18863719-.5-.5-.5zm22.5-20c1.5976809 0 3 1.28106005 3 3v18c0 1.5976809-1.2785691 3-3 3h-11c-.5522847 0-1-.4477153-1-1 0-.5128358.4175889-1 1-1h11c.5128358 0 1-.4350161 1-1v-18c0-.51283584-.3982264-1-1-1h-18c-.51283584 0-1 .4236321-1 1v11c0 .5522847-.44771525 1-1 1-.51283584 0-1-.4255496-1-1v-11c0-1.59768088 1.29322571-3 3-3zm-4 6c.5128358 0 .9999903.41880879.9999903 1v6c0 .5522847-.4477056 1-.9999903 1-.5128358 0-1-.416215-1-1v-3.586l-6.2928932 6.2931068c-.3905243.3905243-1.0236893.3905243-1.4142136 0-.3604839-.360484-.4227636-1.0087614 0-1.4142136l6.2911068-6.2928932h-3.584c-.5904567 0-1-.48716416-1-1s.4095433-1 1-1z" fill="var(--db-icon-color, currentColor)" fill-rule="evenodd"/></svg>
