<svg id="icon" height="20" viewBox="0 0 20 20" width="20" xmlns="http://www.w3.org/2000/svg"><path d="m12 2c-3.3137085 0-6 2.6862915-6 6 0 .81742239.13487102 1.23471617.20221356 1.546l-4.32933599 4.3308699c-.39050954.3905268-.39050253 1.0236797.00001565 1.4141979l2.82019531 2.8284454c.44055271.4148796 1.06194043.3604681 1.42242711 0l4.32469796-4.3255132c.4134565.1317469 1.1247875.206 1.5597864.206 3.3137085 0 6-2.6862915 6-6 0-.76081046-.159832-1.62520635-.4682397-2.31104522-.2725144-.57765956-1.1054109-.70683503-1.5847621-.22772414l-2.5387846 2.53676936-1.414-1.414 2.5344867-2.53473656c.5098862-.50991937.3288399-1.37549129-.342674-1.6383045-.6910003-.27043968-1.4295923-.41095894-2.1860263-.41095894zm-.2587864 2.009-1.86834338 1.86787725c-.39050261.39052801-.39049231 1.02367525.000023 1.41419056l2.80618778 2.82860439c.4724025.4089895 1.0757652.3603297 1.4362756 0l1.875857-1.8756722c-.1831062 2.1854307-1.9159618 3.756-3.9912136 3.756-.5092089 0-1.1001024-.128005-1.5367661-.3016362-.4087638-.1142612-.75252854-.0022087-1.00279863.2480485l-4.05222171 4.0515877-1.414-1.414 4.05508853-4.0553383c.28093563-.2809481.36890083-.70156196.22409827-1.07154692-.1798997-.45966164-.27340036-.95111625-.27340036-1.45711478 0-2.07525179 1.58211422-3.82890844 3.7412136-3.991z" fill="var(--db-icon-color, currentColor)" fill-rule="evenodd"/></svg>
