<svg id="icon" height="24" viewBox="0 0 24 24" width="24" xmlns="http://www.w3.org/2000/svg"><path d="m15.0346825 12.6666667c1.5421224 0 3.0380667.5091392 4.2576032 1.4436636l1.350251 1.1234148c.4231909.3548632.4785814.9856007.1237182 1.4087916-.327566.3906377-.8901965.4678835-1.3076679.1983464l-1.211221-1.0054911c-.8310568-.6968757-2.0669404-1.1541011-2.9422981-1.1614132-.5835718-.0048748-1.3166326-.0073121-2.1991825-.0073121-.3849629 0-.7189291.2658271-.8052814.64098-.0288753.1254474.0494118.2505507.1748591.279426l2.5897738.1648719c.5512108.0344257.9701478.5091778.9357222 1.0603886-.0319667.5118386-.4460586.9352091-1.0021455.9352091l-2.5510259-.1482122c-.5687706-.0520032-1.0346993-.233193-1.7782763-.513191-.495718-.1866653-1.49562019-.5522293-2.99970645-1.0966919-.50346486-.1830781-1.06763434-.026515-1.40475185.3898337-.0868061.1072077-.07800697.3066107.0897691.3841065.11185071.0516638 1.26916063.5838215 3.47192977 1.5964731.81532153.3749036 1.69415103.5891011 2.58842653.6320722l7.5848215.0080673c.5522847 0 1.0000235.4477153 1.0000235 1 0 .5128358-.4018616 1-1.0000235 1h-7.248838c-1.1682044 0-2.3239685-.2274198-3.40315219-.6682196-2.66648575-1.1961775-4.1013451-1.8784611-4.30457804-2.0468505-.94937564-.7866087-1.11462514-2.198556-.33273456-3.1642108.83253623-1.0282035 2.19909285-1.4453978 3.45510214-1.0727086l2.19174555.7899181c.3088475-1.2895245 1.5078929-2.1600912 2.5699356-2.1656766.7080285-.0037236 1.4104292-.0055853 2.107202-.0055853zm-6.8384714-2.4258007c.40675291 0 1.49994651-.24874766 1.5949116-.26850571.3098565-.06446749.6882923.13928711.8175384.47420271.250344.6487168-.3206015.9844283-.4909344 1.079824-.170333.0953957-.64276053.2593595-1.03518272.3450609s-.78709969.1285521-1.18403248.1285521c-.85701398 0-1.55841227-.1217862-2.10419486-.3653586-.54578258-.2435724-.96977898-.6156969-1.27198917-1.1163735s-.51195309-1.15245825-.62922869-1.95534503h-.89309878v-1.13667118h.85250338v-.89309878h-.85250338v-1.13667118h.89309878c.1533604-.82092918.38791159-1.47722147.70365359-1.96887686.31574199-.49165539.74875958-.85250338 1.29905277-1.08254398.55029319-.23004059 1.25845738-.34506089 2.12449256-.34506089.70745419 0 1.34645497.09261344 1.91700234.27784031.38005256.12980134.76088536.52471234.62914836 1.03346345-.1817701.60664909-.77994084.69148196-1.19298242.58319582s-.81448108-.16242921-1.20431848-.16242921c-.61344159 0-1.05548038.12855209-1.32611638.38565629-.27063599.25710419-.46008119.68335588-.56833559 1.27875507h2.50338295v1.13667118h-2.53044654v.89309878h2.53044654v1.13667118h-2.50338295c.0811908.63148399.2616148 1.06901218.54127199 1.31258457.2796572.24357236.73973839.36535856 1.38024358.36535856z" fill="var(--db-icon-color, currentColor)" fill-rule="evenodd"/></svg>
