<svg id="icon" height="24" viewBox="0 0 24 24" width="24" xmlns="http://www.w3.org/2000/svg"><path d="m9.6 5c-.63904915 0-1.40806471.33834424-1.83831902.80461214l-1.25768098 1.36138786-2.004.00066667c-1.38071187 0-2.5 1.11928812-2.5 2.5v7.83333333c0 1.3807119 1.11928813 2.5 2.5 2.5h15c1.3807119 0 2.5-1.1192881 2.5-2.5v-7.99770902c0-1.29129197-1.1745166-2.33562431-2.5-2.33562431l-1.973-.00066667-1.304562-1.38257188c-.4722739-.50004749-1.1297051-.78342812-1.8175206-.78342812zm4.8049174 2c.1375631 0 .2690494.05667613.3635041.15668562l1.6023768 1.6966098c.1889095.20001899.451882.31337125.7270082.31337125h2.4021935c.2761424 0 .5.22385762.5.5v7.83333333c0 .2761424-.2238576.5-.5.5h-15c-.27614237 0-.5-.2238576-.5-.5v-7.83333333c0-.27614238.22385763-.5.5-.5h2.44276132c.27915721 0 .54560687-.11668698.73491877-.32184486l1.55383843-1.68389938c.09465595-.10257894.22788078-.16092243.36745939-.16092243zm-2.4049174 2.5c-1.9329966 0-3.5 1.5670034-3.5 3.5s1.5670034 3.5 3.5 3.5 3.5-1.5670034 3.5-3.5-1.5670034-3.5-3.5-3.5zm0 2c.8284271 0 1.5.6715729 1.5 1.5s-.6715729 1.5-1.5 1.5-1.5-.6715729-1.5-1.5.6715729-1.5 1.5-1.5z" fill="var(--db-icon-color, currentColor)" fill-rule="evenodd"/></svg>
