<svg id="icon" height="24" viewBox="0 0 24 24" width="24" xmlns="http://www.w3.org/2000/svg"><path d="m12 11 .0752385.0027879.1254873.0174522.1114167.029498.111079.0439353.0974873.0523221.0921906.0637091.0462548.0383073.0479526.0448813 2.5 2.5c.3905243.3905243.3905243 1.0236893 0 1.4142136-.360484.3604839-.927715.3882135-1.3200062.0831886l-.0942074-.0831886-.7928932-.7921068v4.585c0 .5522847-.4477153 1-1 1-.5128358 0-.9355072-.3860402-.9932723-.8833789l-.0067277-.1166211v-4.586l-.7928932.7931068c-.36048398.3604839-.92771504.3882135-1.32000624.0831886l-.09420734-.0831886c-.36048396-.360484-.3882135-.927715-.08318861-1.3200062l.08318861-.0942074 2.49999998-2.5c.0353941-.035394.0727812-.0675802.1118002-.0965586l.1112445-.0716634.1127261-.0534457.105343-.0353804.1175261-.0248273.0584349-.0070198zm2-7c2.7864574 0 5.1539674 1.90740967 5.8159928 4.51948028l.0539552.23227492.034052.1792448.1443187.10584128c1.0835423.83276778 1.7897205 2.08145862 1.9271165 3.46602282l.0190496.2611297.0055152.2360062c0 2.5944935-1.9807252 4.7410671-4.5538725 4.9791087l-.2219739.0156955-.2271538-.0001492c-.5113956-.000336-.9327145-.3854035-.9902938-.8813598l-.006706-.1378084c0-.5001105.3764611-.9122938.861459-.9686256l.1140277-.0065607.1750605-.00399c1.5918829-.078245 2.8494528-1.3953555 2.8494528-2.9963105 0-1.0909163-.586372-2.0781138-1.5168708-2.6074274-.2834008-.1612123-.4704141-.45046302-.5011104-.77505995-.1931245-2.04219134-1.9150208-3.61751265-3.9820188-3.61751265-1.0236106 0-1.9845239.38472912-2.7189411 1.06622958-.2917104.27069187-.7161607.34265321-1.0807916.18323748-.37469488-.16381569-.78055453-.24946706-1.2002673-.24946706-1.65685425 0-3 1.34314575-3 3 0 .0840298.00343026.1652663.01023267.2429481.03658931.4178401-.19146565.8141117-.57112719.9923987-.87128498.4091509-1.43910548 1.2852919-1.43910548 2.2646532 0 1.2740904.95607423 2.333165 2.17455932 2.4811115l.16036397.0140731.16507671.0048154h.5035c.55035175 0 .9965.4461482.9965.9965 0 .5503852-.44611479.9965926-.99649998.9967068l-.74952988.0001556c-2.30847917-.1248277-4.1399679-1.9821086-4.24884741-4.2769761l-.00512273-.2163863c0-1.3866874.63322291-2.6590567 1.6667205-3.4967735l.18648962-.14325526.15278988-.10597124.01235298-.18541914c.20621477-2.41294306 2.12611375-4.33677559 4.53730608-4.54910677l.22745132-.01485458.21688962-.00461951c.29861594 0 .59387549.02629981.88309826.07790645l.28711124.06000546.2307905.06208809.1734959-.12679939c.9157437-.63799442 2.2846188-1.0193447 3.4255041-1.07320061z" fill="var(--db-icon-color, currentColor)" fill-rule="evenodd"/></svg>
