<svg id="icon" height="24" viewBox="0 0 24 24" width="24" xmlns="http://www.w3.org/2000/svg"><path d="m17.10025 2.01852014c.541.111.891.639.781 1.18-.236 1.165-.827 2.214-1.665 3.045.875.865 1.481 1.997 1.695 3.262h2.091c.265 0 .519.105.707.293l1 .99999996c.391.391.391 1.023 0 1.414-.195.195-.451.293-.707.293s-.512-.098-.707-.293l-.707-.707h-1.586v2h2c.265 0 .519.105.707.293l1 1c.391.391.391 1.023 0 1.414-.195.195-.451.293-.707.293s-.512-.098-.707-.293l-.707-.707h-1.586l-.002.495c0 .52-.073 1.022-.198 1.504h2.198c.265 0 .519.105.707.293l1 1c.391.391.391 1.023 0 1.414-.195.195-.451.293-.707.293s-.512-.098-.707-.293l-.707-.707h-2.586c-.043 0-.079-.019-.121-.024-1.089 1.523-2.868 2.521-4.879 2.521s-3.79-.998-4.879-2.521c-.042.006-.079.025-.122.025h-2.585l-.707.707c-.195.195-.451.293-.707.293s-.512-.098-.707-.293c-.391-.391-.391-1.023 0-1.414l1-1c.187-.188.442-.293.707-.293h2.198c-.125-.482-.198-.984-.198-1.504v-.496h-1.586l-.707.707c-.195.195-.451.293-.707.293s-.512-.098-.707-.293c-.391-.391-.391-1.023 0-1.414l1-1c.187-.188.442-.293.707-.293h2v-2h-1.586l-.707.707c-.195.195-.451.293-.707.293s-.512-.098-.707-.293c-.391-.391-.391-1.023 0-1.414l1-.99999996c.187-.188.442-.293.707-.293h2.091c.214-1.265.82-2.397 1.695-3.262-.838-.831-1.428-1.88-1.665-3.045-.11-.541.24-1.07.781-1.18.544-.104 1.069.24 1.179.781.182.898.677 1.695 1.385 2.278.771-.362 1.628-.57 2.535-.57s1.764.208 2.535.57c.708-.584 1.203-1.381 1.385-2.278.11-.541.637-.884 1.179-.781zm-1.098 9.48699996h-8v4.496c0 2.206 1.794 4 4 4s4-1.794 4-4zm-3 4.494c.552 0 1 .447 1 1s-.448 1-1 1h-2c-.552 0-1-.447-1-1s.448-1 1-1zm1-3c.552 0 1 .447 1 1s-.448 1-1 1h-4c-.552 0-1-.447-1-1s.448-1 1-1zm-2-6.49099996c-1.857 0-3.409 1.278-3.857 2.997h7.714c-.448-1.719-2-2.997-3.857-2.997z" fill="var(--db-icon-color, currentColor)" fill-rule="evenodd"/></svg>
