<svg id="icon" height="24" viewBox="0 0 24 24" width="24" xmlns="http://www.w3.org/2000/svg"><path d="m17.97325 2 3.106.008c.518.065.919.507.919 1.043l-.009 3.113c-.03.227-.134.44-.298.605l-.837.826c-.129.102-.281.172-.444.205l-1.171.233-.268 1.304c-.12.351-.418.616-.788.69l-1.174.235-.267 1.294c-.051.157-.138.3-.256.417l-2.083 2.086c.575 2.152-.02 4.478-1.634 6.092-2.464 2.464-6.458 2.464-8.922 0-2.463-2.464-2.463-6.458 0-8.921 1.616-1.616 3.944-2.21 6.094-1.634l7.393-7.379c.182-.14.407-.217.639-.217zm.404 2.001-7.839 7.825-1.114-.298c-.364-.097-.739-.147-1.115-.147-1.151 0-2.233.448-3.047 1.263-.814.814-1.262 1.896-1.262 3.047 0 1.15.448 2.232 1.262 3.046.813.813 1.896 1.261 3.046 1.261 1.151 0 2.233-.448 3.047-1.261 1.084-1.085 1.512-2.68 1.116-4.162l-.298-1.114 2.69-2.693.455-2.208 1.847-.368.384-1.861 2.178-.434.264-.26.004-1.632zm-8.9537 10.5741c.616.616.616 1.614 0 2.23s-1.614.616-2.23 0-.616-1.614 0-2.23 1.614-.616 2.23 0z" fill="var(--db-icon-color, currentColor)" fill-rule="evenodd"/></svg>
