<svg id="icon" height="32" viewBox="0 0 32 32" width="32" xmlns="http://www.w3.org/2000/svg"><path d="m21 2c-4.9705627 0-9 4.02943725-9 9 0 1.0747104.2023472 2.017522.429 2.75l-10.80997611 10.7986356c-.39777829.3973469-.38990458 1.0444179.01742451 1.4319679l4.50777443 4.2902457c.42664258.4299357 1.06205074.3542053 1.41620182 0l10.69557535-10.6988492c.8659652.2853333 1.7806318.428 2.744.428 4.9705627 0 9-4.0294373 9-9 0-1.17474927-.2438936-2.51993918-.7125718-3.49826492-.2738245-.57158537-1.1037383-.69499037-1.5799823-.21888216l-3.7224459 3.72014708-2.997-2.996 3.720846-3.71735502c.5065677-.50624458.332351-1.36527663-.331419-1.63417002-1.0640827-.43106011-2.2059946-.65547496-3.377427-.65547496zm1.084 2.084-3.2165732 3.21581361c-.390737.39048776-.390838 1.02382669-.0002256 1.41443907l4.3776947 4.38152152c.4322157.45809 1.0868165.389873 1.4473155.0294768l3.2207886-3.220251c.058.3217857.087.6867857.087 1.095 0 3.8659932-3.1340068 7-7 7-.9183664 0-1.5779581-.1230185-2.7129374-.5384989-.3651409-.1159127-.7440088-.003454-.9964512.2490271l-10.4556114 10.4564718-3.077-2.929 10.5338663-10.5215668c.284528-.2842193.3711095-.711232.2197586-1.0838306-.3364353-.8282428-.5116249-1.7174031-.5116249-2.6326026 0-3.86599325 3.1340068-7 7-7 .347901 0 .7092344.028 1.084.084z" fill="var(--db-icon-color, currentColor)" fill-rule="evenodd"/></svg>
