<svg id="icon" height="20" viewBox="0 0 20 20" width="20" xmlns="http://www.w3.org/2000/svg"><path d="m10 3.01716509c2.1421954 0 3.9949761 1.74256961 4 4l.0009891.55553405c.0000412.03703614.0000721.07175769.0000927.10416465v.16666667c-.0000206.0231486-.0000515.0439826-.0000927.06250202l-.0009891.11113261c1.1045695 0 2 .8954305 2 2.00000001v5.9828349c0 1.1045695-.8954305 2-2 2h-8c-1.1045695 0-2-.8954305-2-2v-5.9828349c0-1.10456951.8954305-2.00000001 2-2.00000001v-1c0-2.209139 1.790861-4 4-4zm0 7.98283491c-.55228475 0-1 .4477153-1 1v1.9950964l.00672773.1166212c.05776511.4973386.48043643.8833788.99327227.8833788.5522847 0 1-.4477152 1-1v-1.9950964l-.0067277-.1166211c-.0577651-.4973387-.4804365-.8833789-.9932723-.8833789zm0-5.98283491c-1.0543618 0-1.99702778.83551219-2 2-.00170151.66663541-.00170151.99996875 0 1h4v-1c0-1.1045695-.8954305-2-2-2z" fill="var(--db-icon-color, currentColor)" fill-rule="evenodd"/></svg>
