<svg id="icon" height="20" viewBox="0 0 20 20" width="20" xmlns="http://www.w3.org/2000/svg"><path d="m7 2c.531 0 1 .438 1 1 0 .563-.469 1-1 1h-3v12h8v-1.438c0-.53.438-1 1-1 .563 0 1 .47 1 1v1.438c0 1.094-.906 2-2 2h-8c-1.125 0-2-.906-2-2v-12c0-1.125.875-2 2-2zm6 0c2.75 0 5 2.25 5 5s-2.25 5-5 5-5-2.25-5-5 2.25-5 5-5zm1 2h-2v3.406l1.781 1.782 1.406-1.438-1.187-1.156zm-9 8.984c0-.508.426-.984.984-.984.59 0 1.016.476 1.016.984a1.01 1.01 0 0 1 -1.016 1.016c-.558 0-.984-.476-.984-1.016zm2.997 0c0-.508.451-.984 1-.984.548 0 1 .476 1 .984 0 .54-.452 1.016-1 1.016-.549 0-1-.476-1-1.016z" fill="#282D37" style="fill: currentColor;fill: var(--db-icon-color, currentColor)" fill-rule="evenodd"/></svg>
