<svg id="icon" height="64" viewBox="0 0 64 64" width="64" xmlns="http://www.w3.org/2000/svg"><g fill="none" fill-rule="evenodd" transform="translate(4 7)"><path d="m21.531 33.611h-16.531c-1.655 0-3-1.346-3-3v-25.611c0-1.655 1.345-3 3-3h39.594c1.654 0 3 1.345 3 3v9.005a1 1 0 0 0 2 0v-9.005c0-2.757-2.243-5-5-5h-39.594c-2.757 0-5 2.243-5 5v25.611c0 2.757 2.243 5 5 5h16.531a1 1 0 1 0 0-2" fill="var(--db-icon-color, currentColor)" fill-rule="nonzero"/><path d="m34.387 36.734c-1.166 2.814-3.666 5.426-6.425 6.792a4.884 4.884 0 0 0 2.116.495 4.94 4.94 0 0 0 4.934-4.933c0-.857-.239-1.651-.625-2.354m5.487 11.254a.78.78 0 1 0 1.561 0 .78.78 0 0 0 -1.56 0m-14.73-8.9c0 1.136.401 2.17 1.05 3.006 2.873-1.044 5.7-3.912 6.601-6.82.025-.08.074-.143.116-.212a4.89 4.89 0 0 0 -2.834-.908 4.939 4.939 0 0 0 -4.933 4.934m30.855-15.724a6.596 6.596 0 0 1 -3.563 5.884c-.13 6-5.053 10.84-11.084 10.84-.655 0-1.312-.058-1.953-.172a1 1 0 1 1 .35-1.97 9.259 9.259 0 0 0 1.603.142c5.011 0 9.087-4.076 9.087-9.087 0-.12-.002-.24-.006-.36l-.024-.704.656-.258a4.615 4.615 0 0 0 2.934-4.315 4.643 4.643 0 0 0 -4.637-4.638 4.642 4.642 0 0 0 -3.484 1.578l-.468.532-.657-.265a9.168 9.168 0 0 0 -6.8-.001l-.658.266-.469-.532a4.644 4.644 0 0 0 -3.485-1.578 4.643 4.643 0 0 0 -4.636 4.638 4.615 4.615 0 0 0 2.935 4.315l.661.26-.029.71a9.004 9.004 0 0 0 .857 4.222c2.296 1.13 3.883 3.489 3.883 6.217a6.879 6.879 0 0 1 -1.04 3.633l3.376 2.828c.391-.21.831-.341 1.306-.341a2.783 2.783 0 0 1 2.78 2.78 2.783 2.783 0 0 1 -2.78 2.78 2.783 2.783 0 0 1 -2.78-2.78c0-.325.067-.632.17-.922l-3.357-2.812a6.9 6.9 0 0 1 -4.609 1.767 6.94 6.94 0 0 1 -6.933-6.933c0-3.823 3.11-6.934 6.933-6.934.225 0 .447.013.667.034a11.015 11.015 0 0 1 -.478-2.94 6.599 6.599 0 0 1 -3.562-5.884c0-3.66 2.977-6.638 6.636-6.638 1.674 0 3.277.633 4.497 1.756a11.173 11.173 0 0 1 7.028 0 6.64 6.64 0 0 1 4.496-1.756 6.645 6.645 0 0 1 6.637 6.638m-14.647 11.09c.573.392 1.17.59 1.78.59.853 0 1.611-.307 2.19-.886a.999.999 0 1 0 -1.414-1.414c-.356.355-.886.482-1.556-.037v-.485a1 1 0 0 0 0-2h-2a1 1 0 1 0 0 2v.484c-.67.518-1.2.393-1.556.038a1 1 0 1 0 -1.415 1.414c.993.993 2.595 1.235 3.971.296m-2.46-7.233a1.54 1.54 0 0 0 -1.539-1.54 1.54 1.54 0 0 0 -1.539 1.54c0 .847.69 1.538 1.54 1.538a1.54 1.54 0 0 0 1.537-1.538m4.862 0c0-.848.69-1.54 1.538-1.54s1.54.692 1.54 1.54c0 .847-.692 1.538-1.54 1.538a1.54 1.54 0 0 1 -1.538-1.538" fill="var(--db-icon-pulse-color, #EC0016)"/></g></svg>
