<svg id="icon" height="20" viewBox="0 0 20 20" width="20" xmlns="http://www.w3.org/2000/svg"><path d="m11.436 2.15c.142 0 .565.092 1.27.275a.85.85 0 0 1 -.307 1.67l-1.051-.241-.498-.005v1.15l.586.001c.963 0 1.512.118 2.012.385.5.268.9.666 1.167 1.167.262.49.367.962.383 1.78l.002 6.354c0 .964-.1 1.477-.385 2.012-.268.5-.666.9-1.167 1.167-.49.262-.962.367-1.78.383l-3.104.002c-.964 0-1.477-.1-2.012-.385a2.817 2.817 0 0 1 -1.167-1.167c-.262-.49-.367-.962-.383-1.78l-.002-6.354c0-.964.1-1.477.385-2.012.268-.5.666-.9 1.167-1.167.49-.262.962-.367 1.78-.383l.818-.002v-1.15l-.505.001-.939.225a.859.859 0 0 1 -1.03-.619c-.111-.442.153-.886.516-.998.363-.113 1.116-.308 1.372-.308h2.872zm-4.038 12.357a.75.75 0 0 0 0 1.486h1.004a.75.75 0 0 0 0-1.486zm4.25 0a.75.75 0 0 0 0 1.486h1.004a.75.75 0 0 0 0-1.486zm-3.666-7.807c-.446 0-.607.046-.77.134a.909.909 0 0 0 -.378.378c-.077.142-.122.284-.132.616l-.002 5.202c1.2.075 2.3.113 3.3.113.833 0 2.172-.045 3.3-.113v-5.05c0-.445-.046-.606-.134-.77a.909.909 0 0 0 -.378-.377c-.142-.077-.284-.122-.616-.132zm3.018 1.3a.75.75 0 0 1 .75.75c0 .38-.294.75-.75.75h-2a.75.75 0 0 1 -.75-.75c0-.38.314-.75.75-.75z" fill="#282D37" style="fill: currentColor;fill: var(--db-icon-color, currentColor)" fill-rule="evenodd"/></svg>