<svg id="icon" height="32" viewBox="0 0 32 32" width="32" xmlns="http://www.w3.org/2000/svg"><path d="m11.847 21.841a3.85 3.85 0 0 1 -7.692.357v-.357l-1.155.009a.85.85 0 0 1 -.843-.743l-.007-2.107a4.85 4.85 0 0 1 4.634-4.845l5.272-.005-.657-2.194a.147.147 0 0 0 -.143-.106h-4.256a.85.85 0 0 1 -.85-.85c0-.433.369-.85.85-.85h4.256a1.85 1.85 0 0 1 1.722 1.175l2.654 8.825h2.976l5.542-6.466v-3.684c0-.592-.449-1.08-1.025-1.143l-3.125-.007a.85.85 0 0 1 -.85-.85c0-.433.34-.85.85-.85h3a2.85 2.85 0 0 1 2.845 2.683l.005 4.167a.904.904 0 0 1 -.204.553c-.098.12-2.098 2.453-6 7a.84.84 0 0 1 -.646.297c-.183-.006-2.567-.009-7.153-.009zm14.153-3.691a3.85 3.85 0 1 1 0 7.7 3.85 3.85 0 0 1 0-7.7zm-20.15 3.7c0 1.416.963 2.3 2.15 2.3 1.136 0 2.212-.881 2.15-2.309 0 .006-1.433.009-4.3.009zm20.15-2a2.15 2.15 0 1 0 0 4.3 2.15 2.15 0 0 0 0-4.3z" fill="#282D37" style="fill: currentColor;fill: var(--db-icon-color, currentColor)" fill-rule="evenodd"/></svg>