<svg id="icon" height="24" viewBox="0 0 24 24" width="24" xmlns="http://www.w3.org/2000/svg"><path d="m12 2c5.523 0 10 4.477 10 10s-4.477 10-10 10-10-4.477-10-10 4.477-10 10-10zm0 2a8 8 0 1 0 0 16 8 8 0 0 0 0-16zm-.379 2.5c1.527 0 2.895.518 3.982 1.391v1.833c-.94-1.05-2.357-1.972-4.019-1.972-.94 0-1.478.518-1.478 1.125 0 .905.771 1.264 1.766 1.536.882.242.882.21 1.69.43 1.397.401 2.688 1.066 2.688 2.99 0 1.694-1.588 3.667-4.262 3.667-1.49 0-3.213-.696-4.153-1.568v-2.2c.892 1.327 2.516 2.351 4.153 2.351 1.001 0 1.807-.593 1.807-1.226 0-.762-.616-1.131-1.454-1.413-.792-.249-1.372-.376-2.049-.604-1.335-.45-2.542-1.173-2.542-3.015 0-2.162 2.04-3.325 3.871-3.325z" fill="#282D37" style="fill: currentColor;fill: var(--db-icon-color, currentColor)" fill-rule="evenodd"/></svg>