<svg id="icon" height="32" viewBox="0 0 32 32" width="32" xmlns="http://www.w3.org/2000/svg"><path d="m6.99 30h14.02c1.64 0 2.99-1.349 2.99-3.018v-6.55a1 1 0 0 0 -.997-.996c-.546 0-.996.45-.996.995v6.55a1 1 0 0 1 -.997.996h-14.02c-.546 0-.997-.45-.997-.995v-21.964a1 1 0 0 1 .997-.995h7.492c.546 0 .997-.45.997-.995 0-.578-.45-1.028-.997-1.028h-7.492c-1.672 0-2.99 1.349-2.99 3.018v21.964c0 1.67 1.318 3.018 2.99 3.018zm1.994-6.005h.996c.547 0 .997-.45.997-.995a1 1 0 0 0 -.997-.995h-.996c-.547 0-.997.45-.997.995a1 1 0 0 0 .997.995zm4.501 0h.997c.546 0 .997-.45.997-.995a1 1 0 0 0 -.997-.995h-.997c-.547 0-.997.45-.997.995a1 1 0 0 0 .997.995zm4.501 0h.997c.547 0 .997-.45.997-.995a1 1 0 0 0 -.997-.995h-.997c-.546 0-.996.45-.996.995a1 1 0 0 0 .996.995zm4.598-21.995c.354 0 .708.16.9.45l.58.674c.289.385.771.546 1.221.417l.836-.224a1.11 1.11 0 0 1 .997.192c.29.193.482.514.482.867l.064.9c.033.449.322.866.74 1.027l.836.32c.321.13.579.386.707.74.097.32.065.706-.128.995l-.483.738c-.257.386-.257.9 0 1.285l.483.738c.193.29.225.675.128.996-.128.353-.386.61-.707.738l-.836.321c-.418.16-.707.578-.74 1.028l-.064.899c0 .353-.193.674-.482.867a1.11 1.11 0 0 1 -.997.193l-.836-.225a1.173 1.173 0 0 0 -1.222.385l-.578.707c-.193.289-.547.45-.9.45-.354 0-.676-.161-.901-.45l-.579-.707a1.173 1.173 0 0 0 -1.222-.385l-.835.225a1.11 1.11 0 0 1 -.997-.193 1.053 1.053 0 0 1 -.483-.867l-.064-.9c0-.449-.321-.866-.74-1.027l-.835-.32a1.237 1.237 0 0 1 -.708-.74 1.22 1.22 0 0 1 .161-.995l.482-.738c.225-.386.225-.9 0-1.285l-.482-.738c-.225-.29-.257-.675-.16-.996.128-.353.385-.61.707-.738l.836-.321c.418-.16.74-.578.74-1.06l.063-.867c0-.353.193-.674.483-.899.29-.193.643-.257.997-.16l.835.224c.45.097.933-.032 1.222-.417l.579-.674c.225-.29.547-.45.9-.45zm2.765 9.537c-.578 0-1.028.481-1.028 1.06 0 .577.45 1.059 1.028 1.059a1.07 1.07 0 0 0 1.062-1.06 1.07 1.07 0 0 0 -1.062-1.06zm-.482-4.913c-.354-.096-.675.032-.997.289l-4.18 4.206a.986.986 0 0 0 -.224 1.092.98.98 0 0 0 .932.61c.354 0 .45-.096.707-.289l4.18-4.174c.29-.257.386-.642.322-.996a1.07 1.07 0 0 0 -.74-.738zm-5.112-.61c-.547 0-.997.45-.997.995 0 .546.45.996.997.996.546 0 .997-.45.997-.996s-.45-.995-.997-.995z" fill="#282D37" style="fill: currentColor;fill: var(--db-icon-color, currentColor)" fill-rule="evenodd"/></svg>
