<svg id="icon" height="64" viewBox="0 0 64 64" width="64" xmlns="http://www.w3.org/2000/svg"><g fill="none" fill-rule="evenodd" transform="translate(10 5.996)"><path d="m23.084 34.02c.102.006 4.093.002 11.973-.014 2.138.123 4.055 1.481 4.899 3.704 1.254 4.108 2.587 8.441 4 13a1 1 0 0 1 -.662 1.25c-.49.151-1.009-.047-1.25-.661-.17-.56-1.499-4.88-3.987-12.96-.45-1.27-1.625-2.258-3.057-2.335-.338-.006-4.338-.006-12 0a1 1 0 0 1 -1-1c0-.512.436-.942 1.084-.984zm-3.341-15.5c.842 3.122 1.739 6.418 2.69 9.889.044.289.262.54.567.595h10a1 1 0 1 1 0 2c-.181-.005-3.54-.006-10.076-.003a2.704 2.704 0 0 1 -2.438-2.129l-2.665-9.797c-.45-1.476-1.963-2.426-3.602-2.095a1 1 0 0 1 -.438-1.951c2.51-.564 5.068.818 5.962 3.491zm-4.243-17.516a5.5 5.5 0 1 1 0 11 5.5 5.5 0 0 1 0-11zm0 2a3.5 3.5 0 1 0 0 7 3.5 3.5 0 0 0 0-7z" fill="var(--db-icon-color, currentColor)" fill-rule="nonzero"/><path d="m5.253 1.647a5.798 5.798 0 0 1 1.747 4.236v8.119c.004 1.584.199 3.527.691 5.268.328 1.161 2.247 8.107 5.756 20.839.376 1.04 1.402 1.895 2.553 1.895h13a1 1 0 0 1 1 1c0 .513-.404.958-1 1-.172-.014-4.518-.014-13.04 0-1.908-.076-3.59-1.257-4.335-3.076l-5.865-21.135a23.277 23.277 0 0 1 -.76-5.789v-8.14a3.795 3.795 0 0 0 -3.957-3.86 1 1 0 1 1 -.086-1.999 5.795 5.795 0 0 1 4.296 1.642z" fill="var(--db-icon-pulse-color, #EC0016)"/></g></svg>
