<svg id="icon" height="32" viewBox="0 0 32 32" width="32" xmlns="http://www.w3.org/2000/svg"><path d="m21.516 7.813c3.593 0 6.5 2.906 6.5 6.5 0 3.593-2.907 6.5-6.5 6.5-3.563 0-6.5-2.907-6.5-6.5 0-3.594 2.906-6.5 6.5-6.5zm-12.532-3.625c2.747 0 5 2.222 5 5 0 2.746-2.253 5-5 5a5 5 0 0 1 -5-5c0-2.778 2.223-5 5-5zm5.75 23.625a3.414 3.414 0 0 0 3.407-3.407 3.414 3.414 0 0 0 -3.407-3.406 3.394 3.394 0 0 0 -3.406 3.406c0 1.875 1.5 3.407 3.406 3.407z" fill="#282D37" style="fill: currentColor;fill: var(--db-icon-color, currentColor)" fill-rule="evenodd"/></svg>
