<svg id="icon" height="32" viewBox="0 0 32 32" width="32" xmlns="http://www.w3.org/2000/svg"><path d="m20.851 8.828c3.472-1.01 7.757-.253 8.949 3.14.782 2.228-.533 4.694-2.806 5.389-1.688.532-3.377 1.063-5.067 1.593l-4.047 7.43c-.206.383-.569.743-.915.87-.346.128-.486.185-.913.28-1.295.293-2.574-.573-2.574-1.966-.004-1.318-.006-2.637-.007-3.956l-2.917.916c-2.468.728-4.988-.382-6.078-2.95a1782.91 1782.91 0 0 1 -2.367-6.71 1.918 1.918 0 0 1 .977-2.366l.141-.061.71-.274a2.62 2.62 0 0 1 2.435.289l.15.11 2.476 1.987zm5.674 2.218c-1.278-.67-3.43-.883-5.323-.234-4.039 1.267-8.077 2.536-12.114 3.806a.99.99 0 0 1 -.925-.174 924.463 924.463 0 0 1 -2.894-2.322c-.147-.118-.343-.183-.612-.093-.213.08-.425.16-.636.244l2.333 6.614c.482 1.27 1.91 2.17 3.617 1.723a1139.2 1139.2 0 0 0 4.2-1.316c.605-.19 1.298.185 1.298.953.006 1.771.009 3.543.01 5.314 0 .018.016.046.051.04.174-.048.363-.1.569-.154l.023-.02 4.242-7.788c.103-.19.346-.408.578-.475 1.815-.574 3.632-1.146 5.45-1.715 1.158-.365 1.78-1.469 1.536-2.753-.863.276-1.74.558-2.63.847a1 1 0 0 1 -.613-1.904c.612-.2 1.225-.397 1.84-.593zm-13.84 5.508a1.408 1.408 0 1 1 -2.68.862 1.408 1.408 0 0 1 2.68-.862zm4.376-1.409a1.408 1.408 0 1 1 -2.681.862 1.408 1.408 0 0 1 2.68-.862zm4.375-1.41a1.407 1.407 0 1 1 -2.678.863 1.407 1.407 0 0 1 2.678-.863zm-8.356-9.102 2.712 2.7a1 1 0 1 1 -1.412 1.418c-.91-.903-1.818-1.808-2.724-2.714a.158.158 0 0 0 -.126-.031c-.204.054-.407.11-.61.17-.056.015-.105.06-.105.127.401.83.806 1.659 1.216 2.487a1 1 0 0 1 -.459 1.338c-.46.225-1.094.035-1.337-.46-.415-.843-.827-1.687-1.237-2.532a2.129 2.129 0 0 1 1.385-2.887c.202-.058.405-.115.61-.17.697-.196 1.463-.067 2.087.554z" fill="var(--db-icon-color, currentColor)" fill-rule="evenodd"/></svg>
