<svg id="icon" height="32" viewBox="0 0 32 32" width="32" xmlns="http://www.w3.org/2000/svg"><path d="m2.8134967 12c.7488 0 1.0378-.2155665 1.2479-.7812281l.4992-1.34378442h3.7124l.5927 1.46879692c.1889.4679956.468.6562156 1.2167.6562156.8423 0 .9268-.4026846.7487-.8749875l-3.1821-8.4375438c-.1639-.43453872-.5604-.6874687-.9983-.6874687h-.4679c-.4068 0-.7321.31844135-.8735.6874687l-3.2445 8.468797c-.1806.4713012 0 .8437343.7487.8437343zm23.9383358 5c1.7195127 0 3.2467883 1.3934307 3.249405 3.25.0016442 1.1666667.0012318 3.0833333-.0012375 5.75 0 .5 0 1-1 1-.2706749.0014118-1.2908478.0014118-3.0605187 0 .562307 0 .9998169.4375.9998169 1 0 .5223214-.4392982 1-.9998169 1-.6263209 0-2.2822676 0-4.9678403 0-.562397 0-.9998169-.4375-.9998169-1 0-.5223214.5281759-1 .9998169-1-.981094 0-4.313817 0-9.9981691 0 .562397 0 .9998169.4375.9998169 1 0 .5223214-.4732888 1-.9998169 1-.6489813 0-2.30492803 0-4.96784028 0-.56239701 0-.99981691-.4375-.99981691-1 0-.5223214.49418529-1 .99981691-1-.92558805-.0021103-1.92746525-.0021103-3.00563162 0-.5 0-1-.5-1-1-.00164995-1.1666624-.00123746-3.083329.00123746-5.75 0-1.7197793 1.3737317-3.148332 3.07144205-3.2448079l.18308943-.0051921zm-10.747382 1.9983885 10.747382.0016115c.7498627.0002249 1.2497711.6054688 1.2497711 1.25l-.0016036 2.75h-24c.01399483-.5833371.0159941-1.5000038.0059978-2.75-.0059978-.75.60535789-1.25 1.24977114-1.25 7.16622086-.0021487 14.33157546-.0021487 21.49606356 0zm-9.52064837-14.32733169 1.3258 3.7125h-2.6517zm7.48258767-2.67104837.0990282.00597572h2.8119851c1.8746567 0 3.1244278.72244839 3.1244278 2.51268918 0 1.06799341-.4061756 1.6961657-1.6247025 2.1357858 1.3122597.06291774 2.3120766 1.162169 2.2183438 2.48133081 0 1.94733415-1.4372368 2.85823415-3.7493134 2.85823415h-2.7807408c-.5311527.0627168-.9373284-.3769033-.9060841-.9109l-.0001203-8.29723719c.0274764-.45938278.4396232-.83843836.9062044-.77990275zm2.879769 5.53354837h-1.7184353v2.84379999h1.468481c1.3122597 0 1.9683896-.3438 1.9683896-1.46879999 0-.9062-.4686642-1.375-1.7184353-1.375zm-.0937329-3.9062h-1.6247024v2.2812h1.5622139c.8123512 0 1.4059925-.2812 1.4059925-1.1874 0-.7188-.3124428-1.0938-1.343504-1.0938zm10.654299 8.37499999c.6248856 0 1.2497711-.0940936 1.8434124-.2821804.4374199-.0939932.7498627-.5329628.6873741-1.0031298 0-.5955581-.343687-.81504289-.9685726-.658354-.4686642.1253912-.9685726.2194848-1.4684811.2194848-1.9996338 0-2.6245194-1.25391223-2.6245194-3.26017176 0-2.1629484.6561299-3.29146939 2.6557637-3.29146939.4686642 0 .9060841.0625953 1.343504.18798652.7811069.15678918.9998169-.15668887.9998169-.75234732.0312443-.47016692-.2811985-.90903619-.7498627-.9717318-.5311527-.12539123-1.0623055-.18808684-1.6247025-.18808684-3.0619393 0-4.6241532 1.88086831-4.6241532 5.07834444 0 3.13478055 1.4997254 4.92165555 4.5304204 4.92165555z" fill="var(--db-icon-color, currentColor)" fill-rule="evenodd"/></svg>
