<svg id="icon" height="32" viewBox="0 0 32 32" width="32" xmlns="http://www.w3.org/2000/svg"><path d="m9.34841629 28.9864253c0-.1266968.03172499-.2533936.09497195-.4118153l3.21950876-7.2397611c.1584207-.3800905.5385122-.6017593.9186027-.6017593.6017592 0 1.0135746.5067873 1.0135746 1.0135747 0 .1266968-.0317249.2533936-.0950733.3800905l-3.219406 7.239761c-.1584228.3800905-.5385132.6334842-.9186037.6334842-.60175942 0-1.01357501-.4750624-1.01357501-1.0135747zm.22166888-13.1764705.47516403-3.135696c.0633484-.3484669.2850172-.6334841.6334841-.760181l4.1142547-2.1154348c.3483656-.12669683.6334853-.190046.886878-.190046.760181 0 1.1402719.538512 1.108547 1.298693l-.6933384 7.1832077 3.6107543 3.6108598c.126707.1266968.2217702.2850172.2851287.4751638l1.6153238 6.5865122c.1584319.6334841-.3166407 1.2669683-.9818497 1.2352434-.4434288 0-.855153-.2850172-.9502162-.760181l-1.5837154-6.3331185-3.6742082-3.6424833c-.2216698-.2217701-.4118164-.6018606-.3483666-1.0452995l.6300907-6.2013576-2.7523143 1.5452997-.4117141 2.5655601c-.0634487.4751638-.4751628.8552543-.9819511.8552543-.60186063 0-1.07692338-.5702371-.98195133-1.1719963zm6.83263103-13.8099548c1.6563012 0 3 1.34369593 3 3.00007964 0 1.62496289-1.3436988 2.99997828-3 2.99997828-1.6563 0-3-1.34369593-3-2.99997828 0-1.65638371 1.3437-3.00007964 3-3.00007964zm.0271494 2.02714932c-.5624996 0-1 .43756018-1 1 0 .5313086.4375004.99998552 1 .99998552.5313005 0 1-.46867692 1-.99998552 0-.56243982-.4686995-1-1-1zm1.0352634 8.81389168c0-.5384109.4434391-.981951.98185-.981951.2851196 0 .5385108.0950728.728556.285118l.9421195.9417649 1.9954143.9819511c.3484771.1899439.5385122.5384108.5385122.9185013 0 .5384109-.4434389.9819512-.9818498.9819512-.1584217 0-.3168333-.0317249-.4751537-.0950733l-2.0905078-1.0769231c-.0949669-.0317249-.1900402-.094972-.2533876-.1584217l-1.0688111-1.0683604c-.1900452-.1901466-.316742-.4435398-.316742-.728557z" fill="var(--db-icon-color, currentColor)" fill-rule="evenodd"/></svg>
