<svg id="icon" height="24" viewBox="0 0 24 24" width="24" xmlns="http://www.w3.org/2000/svg"><path d="m21.4163031 9.24596389c.2454599 0 .4986387.18569954.5.5.002555.58990771.002555 1.17992961 0 1.77006591 0 .2454598-.2162177.4824487-.5.4839702-.4770666.0025578-.9488803.0016813-1.4154412-.0026297v1.5253434c0 .2147774-.1890751.4785041-.5.4800088-.4889302.0023662-.9892714.0023662-1.5010236 0v1.0030567c.0009202.1115132-.0303732.2894207-.13038.3843143-.3569312.3386822-.7154093.6758504-1.0754343 1.0115047.6514291 1.4681646.3752776 3.2482214-.8284545 4.4519536-1.5620972 1.5620971-4.0947571 1.5620971-5.6568543 0-1.56209714-1.5620972-1.56209714-4.0947571 0-5.6568543 1.0855594-1.0855594 2.6398401-1.4167232 4.0113784-.9934914l4.8117804-4.81079244c.0750154-.07501543.2208577-.14603845.3535565-.14644977.6435454-.00199476 1.2871696-.00199476 1.9308726 0zm-8.8511057 7.78284701c-.8333437 0-1.5089023.6755586-1.5089023 1.5089024 0 .8333437.6755586 1.5089023 1.5089023 1.5089023.8333438 0 1.5089023-.6755586 1.5089023-1.5089023 0-.8333438-.6755585-1.5089024-1.5089023-1.5089024zm3.8054133-13.99283198c1.3601716-.00284059 2.1956401.87932099 2.4233859 1.80057645l.2091374.8662176.326706 1.40694199c.127917.55821282-.3044596 1.02448197-.6956123 1.13492057-.3911528.1104386-1.081584-.01709298-1.249213-.72074214l-.1451001-.6256242-.2148509-.94211437-.1337924-.55522402c-.0655701-.2587738-.2362568-.39864163-.4359594-.4009308h-8.96222493c-.14279986 0-.31425007.14412713-.38435829.4009308-.28528919 1.21113675-.56819875 2.42299469-.84872868 3.63557382l8.7338628.001c.5522848 0 1 .44771525 1 .99999998 0 .5128359-.3950636 1-1 1l-9.03210665-.0004127c-.33815422.0011869-.5254315.2578771-.5254315.5577248.0172914.1704037.03684985.340633.05867535.5106879l1.16939899.1956061c.54477032.0907951.91278999.6060226.82199493 1.1507929-.08430969.5058582-.53278175.8928347-1.15079291.8219949-.20076818-.031589-.40130185-.0650537-.60160101-.1003939l.07302499.6340484c.0497981.4315835.37103638.7767873.78781341.8640652l.6551616.0344396v2.2926024c0 .5522848-.44771525 1-1 1h-1c-.55228475 0-1-.4477152-1-1l-.00060149-1.7266057c-.19713111-.3181408-.33659994-.6763325-.40382156-1.0603511l-.39607017-3.3876385c-.03108446-.2693986-.01811876-.533728.03318502-.7857861l-.83445986-.0007742c-.37003519 0-.64823194-.3213333-.64823194-.6893333v-.66666668c0-.36866666.27819675-.644.64823194-.644h1.55776806l.95504626-4.09103305c.24611152-1.05476365 1.17455475-1.90896695 2.33204071-1.90896695z" fill="var(--db-icon-color, currentColor)" fill-rule="evenodd"/></svg>
