<svg id="icon" height="32" viewBox="0 0 32 32" width="32" xmlns="http://www.w3.org/2000/svg"><path d="m10.143 2.002h11.714c1.092.015 1.681.129 2.306.425a3.71 3.71 0 0 1 1.523 1.32c.317.48.506.952.658 1.717l.656 4.536v13.436c0 .964-.1 1.477-.385 2.012-.16.3-.367.562-.614.782l-.001 1.488c0 .557 0 2.209-2.083 2.279l-1.635.003c-2.264 0-2.264-1.64-2.279-2.083l-.003-.917h-8v.718c0 .557 0 2.279-2.083 2.279l-1.635.003c-2.264 0-2.264-1.64-2.279-2.083l-.003-1.687a2.826 2.826 0 0 1 -.614-.782c-.262-.49-.367-.962-.383-1.78l-.003-13.668.529-3.772c.178-1.25.375-1.86.785-2.48a3.71 3.71 0 0 1 1.523-1.321c.625-.296 1.214-.41 2.306-.425zm-2.143 24.998.002 1h1.998v-1zm16.002 0h-2v1h2zm.998-5.884v-1.406c-3.188.443-6.188.665-9 .665s-5.811-.22-8.999-.662v1.404l3.123.39a1 1 0 0 1 .868 1.117c-.063.509-.529.953-1.116.868l-2.875-.359c0 .315.002.565.008.751.009.24.025.37.112.565a.797.797 0 0 0 .374.402c.18.106.477.148.9.148h15.21c.66 0 .758-.08.9-.148a.755.755 0 0 0 .346-.346c.074-.153.138-.258.145-.75.003-.213.004-.42.004-.622l-2.876.36a1 1 0 1 1 -.248-1.985zm-3.201-17.115h-11.599c-.667.001-1.17.079-1.507.233a1.76 1.76 0 0 0 -.841.841c-.148.313-.158.395-.224.717l-.63 4.279v7.62c2.918.48 6.233.684 9.001.684 3 0 6-.228 9-.684v-7.62l-.654-4.395c-.065-.288-.083-.393-.225-.652-.233-.423-.491-.634-.815-.79-.318-.153-.82-.23-1.507-.233zm7.2 2.999c.514 0 1 .405 1 1v4a1 1 0 0 1 -1 1c-.512 0-1-.403-1-1v-4a1 1 0 0 1 1-1zm-25.999 0c.514 0 1 .399 1 1v4a1 1 0 0 1 -1 1c-.512 0-1-.399-1-1v-4a1 1 0 0 1 1-1zm18.5 1a1 1 0 0 1 1 1c0 .513-.42 1-1 1h-11a1 1 0 0 1 -1-1c0-.513.42-1 1-1z" fill="#282D37" style="fill: currentColor;fill: var(--db-icon-color, currentColor)" fill-rule="evenodd"/></svg>
