<svg id="icon" height="20" viewBox="0 0 20 20" width="20" xmlns="http://www.w3.org/2000/svg"><path d="m10.0001906 2c4.4181403 0 7.9998094 3.58180378 7.9998094 8.0001906 0 4.418073-3.5817364 7.9998094-7.9998094 7.9998094-4.41864473 0-8.0001906-3.5815459-8.0001906-7.9998094 0-4.41857739 3.58147851-8.0001906 8.0001906-8.0001906zm0 2c-3.31412575 0-6.0001906 2.68616587-6.0001906 6.0001906 0 3.313694 2.68611537 5.9998094 6.0001906 5.9998094 3.3135035 0 5.9998094-2.6863059 5.9998094-5.9998094 0-3.31383415-2.6862554-6.0001906-5.9998094-6.0001906zm-.27577865 2c1.11045775 0 2.10527655.37704975 2.89583595 1.01171288v1.33310024c-.6841068-.76332996-1.7143197-1.43435544-2.9225842-1.43435544-.68383662 0-1.07479339.37704975-1.07479339.81843292 0 .63538448.52292144.900588 1.21097596 1.09673537l1.02304343.25706345c1.1170097.28726268 2.2340194.72389077 2.2340194 2.24999128 0 1.2326841-1.154768 2.6673193-3.09982518 2.6673193-1.08370948 0-2.30730386-.5059963-2.9908703-1.1403797v-1.6002238c.64817229.9655607 1.800438 1.71015 2.9908703 1.71015.72841708 0 1.31444688-.4315933 1.31444688-.8917171 0-.6104946-.5427307-.8736901-1.2468138-1.0882894l-.8623108-.243043c-1.1279911-.323591-2.28731529-.78878242-2.28731529-2.32812002 0-1.57253243 1.48304196-2.41837698 2.81532104-2.41837698z" fill="var(--db-icon-color, currentColor)" fill-rule="evenodd"/></svg>
