<svg id="icon" height="24" viewBox="0 0 24 24" width="24" xmlns="http://www.w3.org/2000/svg"><path d="m3.655 20.426c-.468-.186-.655-.538-.655-.912 0-.515.421-1.053.983-1.053.117 0 .21.046.327.07.585.21 1.217.304 1.849.304.96 0 2.106-.234 2.106-1.31 0-.656-.351-.89-1.615-1.451-1.146-.468-2.714-1.147-2.714-3.089 0-1.872 1.568-3.112 3.884-3.112.749 0 1.498.117 2.223.398.468.164.655.538.655.89 0 .514-.374 1.052-.96 1.052a1.03 1.03 0 0 1 -.35-.07 4.428 4.428 0 0 0 -1.568-.28c-.444 0-1.895.07-1.895 1.122 0 .562.35.772 1.497 1.287 1.124.468 2.832 1.217 2.832 3.253 0 1.989-1.615 3.276-4.095 3.276a8.329 8.329 0 0 1 -2.504-.375zm-.187-15.443c0-.562.445-.983.983-.983 8.447 0 17.549 7.09 17.549 12.074 0 4.47-5.288 4.727-7.98 4.727h-.42a.999.999 0 0 1 -1.006-1.007c0-.514.444-.959 1.006-.959 5.616 0 6.411-1.334 6.411-2.761 0-3.51-8.002-10.085-15.56-10.085-.538 0-.983-.468-.983-1.006z" fill="#282D37" style="fill: currentColor;fill: var(--db-icon-color, currentColor)" fill-rule="evenodd"/></svg>
