<svg id="icon" height="32" viewBox="0 0 32 32" width="32" xmlns="http://www.w3.org/2000/svg"><path d="m7.003 24.34c.337.47 1.074 1.655 2.497 1.66 1.494.007 2.074-1.138 2.474-1.63a1 1 0 0 1 1.552 0c.4.492.967 1.63 2.473 1.63 1.505 0 2.102-1.171 2.475-1.63a1 1 0 0 1 1.467-.093c.414.398 1.06 1.732 2.552 1.723s2.108-1.171 2.481-1.63a1 1 0 0 1 1.467-.093c.415.399 1.612 1.712 2.557 1.723.594.007 1.002.448 1.002 1 0 .513-.434 1-1 1-1.01 0-2.093-.52-3.25-1.558-1.07 1.033-2.156 1.55-3.257 1.55-1.102 0-2.183-.517-3.243-1.551-1.101 1.034-2.184 1.554-3.25 1.56-1.066.005-2.149-.515-3.25-1.559-1.133 1.039-2.216 1.558-3.25 1.558-1.032 0-2.116-.519-3.25-1.557-1.107 1.033-2.19 1.552-3.25 1.557a1 1 0 0 1 -.117-1.993c1.297-.138 2.171-1.14 2.59-1.637.42-.498 1.193-.498 1.53-.03zm10.51-21.34c1.261 0 2.474.814 2.873 2.136.79 2.62 1.579 5.242 2.365 7.864h5.25a1 1 0 0 1 .998 1.037 11.8 11.8 0 0 1 -4.37 8.74 1 1 0 1 1 -1.258-1.554c1.876-1.518 2.994-3.377 3.535-6.223h-22.906c-.513 0-1-.424-1-1s.419-1 1-1c5.554-.002 11.109-.002 16.663 0l-.903-3h-13.76a1 1 0 0 1 -.117-1.993l.117-.007h13.159l-.688-2.288a.993.993 0 0 0 -.958-.712h-13.513a1 1 0 1 1 0-2c4.504-.002 9.009-.002 13.513 0zm-2.013 14a1.5 1.5 0 1 1 0 3 1.5 1.5 0 0 1 0-3zm5 0a1.5 1.5 0 1 1 0 3 1.5 1.5 0 0 1 0-3zm-10 0a1.5 1.5 0 1 1 0 3 1.5 1.5 0 0 1 0-3zm-5 0a1.5 1.5 0 1 1 0 3 1.5 1.5 0 0 1 0-3z" fill="var(--db-icon-color, currentColor)" fill-rule="evenodd"/></svg>
