<svg id="icon" height="20" viewBox="0 0 20 20" width="20" xmlns="http://www.w3.org/2000/svg"><path d="m6.1974563 14.4967193c.38573096.6622923.80904155 1.5034757 1.46921037 1.5032807s1.08370628-.8424456 1.46956388-1.5038872c.38585759-.6614417 1.34155335-.6614942 1.72748355-.0000949s.7347458 1.5039954 1.4695771 1.5039821c.7348312-.0000133 1.0838829-.8429365 1.4696924-1.5040353.3858094-.6610987 1.3409858-.6613327 1.7271191-.000423s.9171674 1.5044583 1.4696747 1.5044583 1.0002226.4477153 1.0002226 1c0 .5128358-.4319952 1.0059378-1.0002226.9998853-.8398631-.0089459-1.617789-.4479076-2.3337774-1.3168853-.7422173.8727393-1.5197869 1.3117393-2.3327088 1.317s-1.5906857-.433406-2.3332912-1.316c-.78432485.8773333-1.56210263 1.316-2.33333333 1.316-.77123071 0-1.5491196-.4383333-2.33366667-1.315-.75671929.8766667-1.53438596 1.315-2.333 1.315-.55228475 0-1-.4477153-1-1s.44771525-1 1-1c.55446813 0 1.0834794-.8409884 1.46921036-1.5032807.38573096-.6622924 1.34251498-.6622924 1.72824594 0zm3.39618406-9.1956117c1.17700914.17689784 2.51246234 1.12625102 4.00635964 2.84805953l3.2150759-.60488219c.8030517-.15110987 1.4984687.70321103 1.0515017 1.48179514-.6647601 1.15796392-1.3314268 2.31561802-2 3.47296222-.2756135.4785976-.8870223.6431488-1.3656199.3675353-.4444121-.2559268-.6523287-.8665776-.3675353-1.3656199.302655-.5303412.6075142-1.060327.9145776-1.5899577l-11.048 2.089v1c0 .5522847-.44771525 1-1 1-.51283584 0-.99643518-.4083365-1-1-.00200826-.333316-.00200826-.6666493 0-1 0-1.0105423.51060286-1.7467554 1.67287203-1.9827528.28888452-.05315963.5772395-.10721475.86506493-.16216537.2955072-1.86720873.45829252-2.9326978.48835598-3.19646723.04509518-.39565413.35307809-.78193635.80703461-.86920565.89602944-.1722541 1.79352144-.34252076 2.69247599-.51079997.35008384-.05626134.69978205-.03281794 1.06783682.02249862zm-.72263188 1.94728145c-.25061899.04574423-.89895515.16861455-1.94500848.36861095l-.261 1.83716713 4.6169606-.86915904c-.9649798-.91126937-1.54811447-1.22098589-2.06346783-1.31939946-.10493564-.02003886-.18348779-.04235683-.34748429-.01721958z" fill="var(--db-icon-color, currentColor)" fill-rule="evenodd"/></svg>
