<svg id="icon" height="32" viewBox="0 0 32 32" width="32" xmlns="http://www.w3.org/2000/svg"><path d="m2.813 12c.75 0 1.038-.216 1.248-.781l.5-1.344h3.712l.593 1.469c.189.468.468.656 1.216.656.843 0 .927-.403.75-.875l-3.184-8.438a1.05 1.05 0 0 0 -.997-.687h-.468c-.407 0-.732.318-.874.687l-3.244 8.47c-.18.47 0 .843.748.843zm23.939 5c1.72 0 3.247 1.393 3.25 3.25 0 1.167 0 3.083-.002 5.75 0 .5 0 1-1 1h-3.06c.562 0 1 .438 1 1 0 .522-.44 1-1 1h-4.968c-.563 0-1-.438-1-1 0-.522.528-1 1-1h-9.999c.563 0 1 .438 1 1 0 .522-.473 1-1 1h-4.967c-.563 0-1-.438-1-1 0-.522.494-1 1-1a751.92 751.92 0 0 0 -3.006 0c-.5 0-1-.5-1-1-.002-1.167-.001-3.083.001-5.75 0-1.72 1.374-3.148 3.072-3.245l.183-.005zm-10.748 1.998 10.748.002c.75 0 1.25.605 1.25 1.25l-.002 2.75h-24a95.8 95.8 0 0 0 .006-2.75c-.006-.75.605-1.25 1.25-1.25 7.166-.002 14.331-.002 21.496 0zm-9.52-14.327 1.326 3.713h-2.652l1.326-3.714zm7.482-2.671.1.006h2.811c1.875 0 3.125.722 3.125 2.513 0 1.068-.406 1.696-1.625 2.135a2.312 2.312 0 0 1 2.218 2.482c0 1.947-1.437 2.858-3.749 2.858h-2.78c-.532.063-.938-.377-.907-.91v-8.299c.028-.46.44-.839.906-.78zm2.88 5.534h-1.718v2.843h1.468c1.312 0 1.969-.343 1.969-1.468 0-.907-.47-1.375-1.719-1.375zm-.094-3.907h-1.624v2.283h1.562c.812 0 1.406-.282 1.406-1.188 0-.719-.313-1.094-1.344-1.094zm10.655 8.375c.625 0 1.25-.094 1.843-.282a.906.906 0 0 0 .688-1.003c0-.596-.344-.815-.97-.658-.468.125-.968.22-1.468.22-2 0-2.624-1.255-2.624-3.261 0-2.163.656-3.291 2.656-3.291.468 0 .906.062 1.343.188.781.156 1-.157 1-.753.031-.47-.281-.909-.75-.972a6.982 6.982 0 0 0 -1.625-.188c-3.061 0-4.624 1.881-4.624 5.079 0 3.134 1.5 4.921 4.53 4.921z" fill="var(--db-icon-color, currentColor)" fill-rule="evenodd"/></svg>
