<svg id="icon" height="32" viewBox="0 0 32 32" width="32" xmlns="http://www.w3.org/2000/svg"><path d="m25 2c2.6887547 0 5 2.1640922 5 5v18c0 2.6887547-2.1625825 5-5 5h-18c-2.6887547 0-5-2.166273-5-5v-18c0-2.6887547 2.1632791-5 5-5zm-18 2c-1.59768088 0-3 1.2837401-3 3v18c0 1.5976809 1.34812986 3 3 3h18c1.5976809 0 3-1.2572651 3-3v-18c0-1.59768088-1.2877304-3-3-3zm6.1999846 4v9.8126321c0 1.7919699 1.2197945 2.9873679 2.799032 2.9873679 1.5228362 0 2.7123454-1.1115372 2.795368-2.7976812l.004632-10.0023188h4v10.1770369c0 4.2639117-3.1910076 5.8229631-6.8 5.8229631-3.5338051 0-6.66497422-1.4983695-6.79390583-5.5602054l-.00412736-10.4397946z" fill="var(--db-icon-color, currentColor)" fill-rule="evenodd"/></svg>
