<svg id="icon" height="32" viewBox="0 0 32 32" width="32" xmlns="http://www.w3.org/2000/svg"><path d="m23.883 14.037-.617-2.029 2.738-.008c.264 0 .518-.106.704-.293l1-1c.391-.391.391-1.023 0-1.414s-1.023-.391-1.414 0l-.708.708-2.927.01-.701-2.302c-.128-.421-.517-.709-.957-.709h-3c-.552 0-1 .447-1 1s.448 1 1 1h2.259l.567 1.863-5.449 6.608-2.488-7.466h.109c.553 0 1-.446 1.001-.998 0-.553-.446-1.001-.999-1.002l-1.422-.002-1.578-.003c-.553 0-1 .446-1.001.998 0 .553.446 1.001.999 1.002h.781s.96 2.881.96 2.881l-1.537 1.835c-.82-.466-1.739-.716-2.703-.716-3.033 0-5.5 2.468-5.5 5.5s2.467 5.5 5.5 5.5c2.691 0 4.932-1.944 5.404-4.5h2.096c.146 0 .282-.035.407-.091.034-.015.06-.043.092-.062.088-.052.17-.109.238-.185.01-.011.025-.015.034-.026l5.753-6.978.445 1.464c-1.762.918-2.97 2.758-2.97 4.878 0 3.032 2.467 5.5 5.5 5.5s5.5-2.468 5.5-5.5-2.467-5.5-5.5-5.5c-.207 0-.413.014-.616.037zm-10.27 4.463h-3.971l2.84-3.392zm-6.112 4.5c-1.93 0-3.5-1.57-3.5-3.5s1.57-3.5 3.5-3.5c.485 0 .948.108 1.381.294l-2.147 2.564c-.03.035-.04.079-.064.117-.038.061-.077.118-.102.187-.024.067-.031.134-.041.203-.007.046-.027.087-.027.135 0 .015.008.028.009.043.003.071.024.137.042.206.015.059.024.118.049.172.025.053.064.097.099.146.042.059.08.118.133.166.011.01.015.024.027.034.048.04.103.06.155.089.042.024.078.053.124.071.117.046.239.073.362.073h3.337c-.434 1.441-1.757 2.5-3.337 2.5zm17 0c-1.93 0-3.5-1.57-3.5-3.5 0-1.216.624-2.286 1.568-2.914l.975 3.205c.131.432.527.709.956.709.097 0 .195-.014.292-.043.528-.161.827-.72.666-1.248l-.976-3.207c.007 0 .013-.002.02-.002 1.93 0 3.5 1.57 3.5 3.5s-1.57 3.5-3.5 3.5z" fill="var(--db-icon-color, currentColor)" fill-rule="evenodd"/></svg>
