<svg id="icon" height="24" viewBox="0 0 24 24" width="24" xmlns="http://www.w3.org/2000/svg"><path d="m16.507 5c1.062 0 1.977.72 2.288 1.745l.998 4.255h1.559c.336 0 .597.228.641.546l.007.765c0 .334-.23.63-.55.681l-.933.009c.033.161.05.328.05.499 0 .114-.13 1.283-.388 3.508a2.998 2.998 0 0 1 -1.179 2.054v1.938a1 1 0 0 1 -1 1h-1a1 1 0 0 1 -1-1v-1.22a36.556 36.556 0 0 1 -8 0v1.22a1 1 0 0 1 -1 1h-1a1 1 0 0 1 -1-1v-1.937a2.998 2.998 0 0 1 -1.147-1.847l-.403-3.43a2.498 2.498 0 0 1 .033-.785l-.835-.001c-.37 0-.648-.321-.648-.69v-.666a.63.63 0 0 1 .648-.644h1.558l.955-4.091c.246-1.055 1.17-1.909 2.332-1.909zm-10.507 7.992c-.417.009-.59.306-.566.475l.053.533h.513a1 1 0 0 1 0 2h-.282l.09.779a1 1 0 0 0 .786.864c.487.079 3.483.354 5.406.357s4.847-.284 5.29-.34a1 1 0 0 0 .882-.766l.108-.894h-.28a1 1 0 0 1 0-2h.512l.055-.5c.02-.205-.127-.508-.567-.5zm8 1.008a.997.997 0 1 1 0 1.993l-4 .007a1 1 0 0 1 -1-1c0-.513.428-.993 1-.993zm-6.507-7c-.143 0-.284.102-.355.272l-.879 3.728h11.481l-.849-3.637c-.045-.193-.158-.363-.384-.363zm6.507-5a1 1 0 0 1 1 1c0 .513-.425 1-1 1h-4a1 1 0 0 1 -1-1c0-.513.391-1 1-1z" fill="var(--db-icon-color, currentColor)" fill-rule="evenodd"/></svg>
