<svg id="icon" height="24" viewBox="0 0 24 24" width="24" xmlns="http://www.w3.org/2000/svg"><path d="m18 11.25c-.095 0-.184.021-.277.028l-.509-1.528h1.786c.232 0 .455-.092.619-.256l1-1c.342-.342.342-.896 0-1.238s-.896-.342-1.237 0l-.744.744h-2.007l-.8-2.401c-.119-.357-.454-.599-.83-.599h-2c-.483 0-.875.392-.875.875s.392.875.875.875h1.369l.656 1.966-3.296 4.396-2.179-5.362h.45c.483 0 .875-.392.875-.875s-.392-.875-.875-.875h-1.735s-.004 0-.007 0h-1.258c-.483 0-.875.392-.875.875s.392.875.875.875h.661l.829 2.04-1.182 1.688c-.415-.149-.854-.229-1.309-.229-2.137 0-3.875 1.738-3.875 3.875s1.738 3.875 3.875 3.875c1.923 0 3.511-1.411 3.812-3.25h1.688c.132 0 .254-.034.366-.086.033-.016.059-.041.09-.061.076-.048.144-.1.202-.168.012-.014.031-.02.042-.035l3.498-4.664.353 1.059c-1.146.674-1.926 1.907-1.926 3.33 0 2.137 1.738 3.875 3.875 3.875s3.875-1.738 3.875-3.875-1.738-3.875-3.875-3.875zm-7.8 2.75h-2.52l1.594-2.278zm-4.2 3.25c-1.172 0-2.125-.953-2.125-2.125s.953-2.125 2.125-2.125c.078 0 .154.011.231.019l-.948 1.354c-.018.025-.021.055-.035.081-.029.052-.052.104-.071.162-.018.058-.029.113-.035.172-.003.03-.018.056-.018.087 0 .026.013.048.015.073.005.06.018.116.035.174.016.054.033.104.059.154.025.048.055.089.089.132.038.048.078.092.125.131.019.016.03.038.05.053.033.023.07.033.104.051.031.016.059.033.092.045.099.037.201.062.304.062h2.02c-.269.866-1.068 1.5-2.02 1.5zm12 0c-1.172 0-2.125-.953-2.125-2.125 0-.645.295-1.217.75-1.607l.545 1.633c.122.367.463.599.83.599.092 0 .185-.015.277-.045.458-.152.706-.648.553-1.106l-.523-1.568c1.025.151 1.817 1.027 1.817 2.094 0 1.172-.953 2.125-2.125 2.125z" fill="var(--db-icon-color, currentColor)" fill-rule="evenodd"/></svg>
