<svg id="icon" height="20" viewBox="0 0 20 20" width="20" xmlns="http://www.w3.org/2000/svg"><path d="m2 16c0-.546.449-1 1.015-1h7.746c4.839 0 5.239-.966 5.239-2 0-2.498-6.254-8-12.439-8h-.561a1 1 0 0 1 -1-1.005.991.991 0 0 1 1-.995h.561c6.83 0 14.439 5.98 14.439 10 0 2.813-2.4 4-7.239 4h-7.746a1.008 1.008 0 0 1 -1.015-1zm0-8.863v2.602c0 .635.48 1.092 1.142 1.095 3.994.019 5.46.236 7.536.896.352.113.71.029.972-.234l.496-.496c.215-.215.313-.507.293-.8a.972.972 0 0 0 -.43-.722 16.938 16.938 0 0 0 -8.954-3.278c-.548-.039-1.055.389-1.055.937z" fill="var(--db-icon-color, currentColor)" fill-rule="evenodd"/></svg>
