<svg id="icon" height="32" viewBox="0 0 32 32" width="32" xmlns="http://www.w3.org/2000/svg"><path d="m18.5 2c3.975 0 7.365 3.34 7.496 7.264l.004 13.144c0 4.118-3.342 7.461-7.504 7.588l-4.746.004c-4.193 0-7.616-3.264-7.746-7.35l-.004-13.15c0-3.946 3.311-7.364 7.262-7.496zm-10.114 22.426c.63 1.581 1.978 2.817 3.658 3.324a.997.997 0 0 1 1.097-.705 20.068 20.068 0 0 0 5.716 0 1 1 0 0 1 1.101.704c1.661-.501 2.999-1.716 3.636-3.274-1.922.465-3.24.775-3.955.928-1.073.23-2.146.356-3.639.356s-2.567-.127-3.638-.356c-.715-.153-2.04-.48-3.976-.977zm14.046-18.694-.37 9.199a3 3 0 0 1 -2.257 2.787l-1.117.22a14.307 14.307 0 0 1 -4.931.077l-1.386-.258a3 3 0 0 1 -2.421-2.646l-.382-9.38c-.902.94-1.49 2.178-1.561 3.503l-.007 12.943c.935.365 2.529.788 4.78 1.27.941.202 1.876.312 3.22.312s2.279-.11 3.22-.312c.94-.202 2.635-.562 4.78-1.166v-12.781c0-1.425-.606-2.766-1.568-3.768zm-11.048 13.552 2.086.441a1 1 0 0 1 -.304 1.974l-2.087-.442a1 1 0 0 1 .305-1.973zm10.356.786a1 1 0 0 1 -.655 1.156l-2.083.455a1 1 0 0 1 -.533-1.924l2.083-.455a1 1 0 0 1 1.188.768zm-8.24-16.07c-.692 0-1.362.142-1.983.397l.419 10.454c.047.452.254.792.7.914.561.139 1.952.42 3.36.427 1.41.006 2.747-.297 3.257-.4.512-.106.763-.448.8-.827l.43-10.568a5.237 5.237 0 0 0 -1.688-.388l-5.295-.01z" fill="var(--db-icon-color, currentColor)" fill-rule="evenodd"/></svg>
