<svg id="icon" height="32" viewBox="0 0 32 32" width="32" xmlns="http://www.w3.org/2000/svg"><path d="m20.8513217 8.82788082c3.4717143-1.00899682 7.7567549-.25257336 8.9487211 3.14075578.7822285 2.2268741-.5327575 4.6932487-2.806498 5.3879284-1.687813.5326229-3.3766612 1.0637679-5.0665448 1.593435l-4.0466676 7.4308117c-.2066.3825926-.5691071.74187-.9154586.869652-.3463514.1277821-.4853968.1841038-.9130597.2804332-1.2951956.2917376-2.5733857-.574136-2.5733857-1.9665404-.0041202-1.3187707-.0065964-2.6375562-.0074284-3.9563565l-2.9174215.915738c-2.46723847.7284124-4.98750469-.3816042-6.0772119-2.9494535-.65991821-1.8568923-1.44893205-4.0939316-2.36704153-6.7111178-.32742615-.9286996.10258036-1.9430575.97644495-2.3648645l.14162147-.061578.7094305-.27378c.81320082-.31439735 1.72655441-.20306203 2.43566849.2885656l.14871597.111153 2.47679355 1.9863372zm5.6739698 2.21774228c-1.2782653-.6696489-3.4308461-.8826789-5.323128-.2339382-4.0389984 1.2673574-8.0769984 2.536024-12.11400005 3.806-.27844336.0874818-.64762075.0609855-.92551598-.174022-.96705847-.7726715-1.93173343-1.5466127-2.89402486-2.3218234-.14631739-.1177042-.34246275-.1825316-.61116018-.0932381-.21354329.0798401-.42569743.1613062-.63646243.2443986l2.33344986 6.6140755c.4815132 1.2697179 1.90961244 2.1692107 3.61691289 1.7233543 1.40133205-.4363562 2.80099875-.8750229 4.19900005-1.316.6055696-.1897903 1.2990627.1844538 1.2990627.9525394.0051692 1.7713851.0081694 3.5427963.0090004 5.3142338.0000264.0181008.0161775.0454556.0519057.0388769.1735758-.0475702.3629918-.0985924.5682478-.1530667l.0236677-.019681 4.242-7.788c.10321-.189486.3459894-.4081663.5780621-.4755715 1.8149301-.5738405 3.6317938-1.1454643 5.4505912-1.7148713 1.1572046-.3646261 1.7795263-1.4685098 1.5348687-2.753115-.8630482.2760451-1.7397093.5584585-2.6299833.8472401-.5256932.1693078-1.0891028-.1195997-1.2584106-.6452929-.1572143-.4881436.0849005-1.0693877.6452929-1.2584105.6120261-.1996097 1.2255673-.3975057 1.8406234-.593688zm-13.8404645 5.5087397c.238.739-.168 1.532-.908 1.771-.74.238-1.533-.168-1.771-.909-.23800004-.739.168-1.532.908-1.77s1.533.168 1.771.908zm4.3759-1.4092c.238.739-.168 1.532-.908 1.771-.74.238-1.533-.168-1.771-.909-.238-.739.168-1.532.908-1.77s1.533.168 1.771.908zm4.3755-1.4102c.238.74-.168 1.533-.908 1.771-.74.239-1.532-.168-1.771-.908-.238-.74.168-1.533.908-1.771s1.533.169 1.771.908zm-8.3575317-9.10234223c.904931.89963156 1.808931 1.79996489 2.712 2.701.3913171.38972988.3926038 1.02289356.0028739 1.41421064-.3597506.36121577-.978198.42738117-1.4142106.00287388-.9100848-.90291248-1.8181744-1.80739058-2.7242688-2.7134343-.0209783-.02163617-.0838138-.04261846-.1258244-.03147753-.2041162.05413036-.4076343.11056982-.6105541.16931837-.0559494.01566921-.104319.06073203-.104319.1278022.4006052.82969628.8059385 1.65869628 1.216 2.487.2425905.49615348.0370372 1.09502383-.4591163 1.33761437-.460714.2252626-1.0946746.035416-1.3376144-.45911636-.41434262-.84344274-.82665313-1.6876708-1.23693152-2.53268421-.48572782-1.1345732.09143337-2.51821828 1.38505842-2.88719523.2025343-.05776828.4056519-.11409532.6093528-.1689811.6975913-.19630711 1.4634566-.06737336 2.087554.55306927z" fill="var(--db-icon-color, currentColor)" fill-rule="evenodd"/></svg>
