<svg id="icon" height="20" viewBox="0 0 20 20" width="20" xmlns="http://www.w3.org/2000/svg"><g fill="#282d37" fill-rule="evenodd" transform="translate(4 1)"><path d="m3.86088197.98226482c-.15652347 0-.31304693.04911598-.46957039.14734109-.07825809.07366712-.20869309.09822511-.31303964.09822511-.15652346 0-.31304693-.07366712-.41739347-.19645022-.15652347-.19645708-.10434655-.54024839.10434654-.68758949.31304693-.22100821.70435194-.34379131 1.09565696-.34379131h4.27827398c.39132689 0 .75655073.1227831 1.09567154.34379131.2086785.17189909.26088459.49113241.10433925.68758949-.07823621.1227831-.23478155.19645022-.41742993.19645022-.1304423 0-.23478155-.04910912-.31301776-.09822511-.1304423-.09822511-.28698764-.14734109-.4695631-.14734109z" fill-rule="nonzero"/><path d="m11.2956554 12.7448777c0 1.596201-1.35648327 2.9222502-3.0521602 2.9959654-.02610304-.4175133-.39132689-.6385216-.75655073-.5893781-.99127395.1227899-2.00866553.1227899-2.99997594 0-.36521655-.0491435-.70435194.1718648-.75652157.5893781-1.66957389-.0737152-2.97392393-1.3261179-3.05218202-2.8731754v-7.48976234c0-1.96452963 1.69565506-3.56071682 3.78261513-3.60982595h2.92172514c.34539137 0 .68101233.04133266 1.0011027.11896008 1.63807529.39729314 2.86834519 1.74520986 2.91194749 3.36808276zm-8.55651885.5157316c0 .2946548.23478155.5648064.6000054.5648064h1.06956849c.36521656 0 .59999811-.2701516.59999811-.5648064 0-.2947233-.23478155-.5648064-.59999811-.5648064h-1.06956849c-.36522385 0-.6000054.2700831-.6000054.5648064zm4.82611704-.5648064c-.3391208 0-.60000539.24558-.60000539.5648064 0 .2946548.23478155.5648064.60000539.5648064h1.0695685c.3391208 0 .6000054-.2455799.6000054-.5648064 0-.2947233-.23478155-.5648064-.6000054-.5648064zm1.61736781-8.07915415c0-.73669861-.65213856-1.35061412-1.43479234-1.35061412h-3.547819c-.78261003 0-1.40869659.61391551-1.40869659 1.35061412l.31304693 5.45155875c0 .6630246.54782118 1.1787562 1.22608467 1.1787562h3.28694169c.67831453 0 1.22611384-.5402347 1.22611384-1.1787562z"/><path d="m9.96527518 17.0177489h1.51302852c.2869148 0 .5216963.2210082.5216963.4911599 0 .270083-.2347815.4910912-.5216963.4910912h-10.95656222c-.28695847 0-.52174148-.2210082-.52174148-.4910912 0-.2701517.23478301-.4911599.52174148-.4911599h1.51305042v-.12279c0-.270083.23478155-.4910912.52174002-.4910912.28695118 0 .52174002.2210082.52174002.4910912v.12279h5.84346487v-.12279c0-.270083.23478155-.4910912.52176918-.4910912.28698764 0 .52176919.2210082.52176919.4910912z" fill-rule="nonzero"/></g></svg>
