<svg id="icon" height="20" viewBox="0 0 20 20" width="20" xmlns="http://www.w3.org/2000/svg"><path d="m6.29 15.996 2.462-4.89.224-2.694-.8.352-.192 1.376a.999.999 0 0 1 -.992.864c-.544 0-.992-.48-.992-.992v-.16l.32-1.92a.935.935 0 0 1 .544-.768l1.952-.896c.32-.128.864-.448 1.248-.448.352 0 .768.32.992.448l2.624 1.664c.256.192.448.512.448.864 0 .576-.48.992-.992.992-.224 0-.416-.064-.576-.16l-1.6-1.056-.178 2.56 1.784 1.6c.192.128.339.316.416.544l1.05 2.944c0 .096.032.192.032.288 0 .512-.448.992-.992.992a1 1 0 0 1 -.992-.736l-.954-2.592-1.174-1.187-1.966 4.003c-.192.32-.48.512-.864.512a.997.997 0 0 1 -.992-.992c0-.192.032-.352.16-.512zm2.462-12.496c0-.83.702-1.5 1.5-1.5.862 0 1.5.67 1.5 1.5 0 .798-.638 1.5-1.5 1.5-.798 0-1.5-.702-1.5-1.5z" fill="#282D37" style="fill: currentColor;fill: var(--db-icon-color, currentColor)" fill-rule="evenodd"/></svg>
