<svg id="icon" height="24" viewBox="0 0 24 24" width="24" xmlns="http://www.w3.org/2000/svg"><path d="m10.084 2c2.17 0 3.429.756 4.4 2.041a7.548 7.548 0 0 1 1.513 4.048l.027 1.039a.848.848 0 0 1 -1.696 0l-.015-.682a5.845 5.845 0 0 0 -1.184-3.38c-.688-.909-1.46-1.366-3.044-1.362l-2.046-.004c-1.52 0-2.37.413-3.09 1.366a5.844 5.844 0 0 0 -1.17 3.099l-.072 2.623a17.33 17.33 0 0 0 .287 3.61l1.519 1.048.985.653c.169.087.542.166.8.212a.848.848 0 0 1 .702.828.861.861 0 0 1 -.861.861c-.04 0-.133-.007-.144-.009-.6-.091-1.07-.238-1.417-.462l-.995-.659c.095.44.253.857.475 1.251.333.592.757 1.189 1.552 1.172.148-.003.384-.005.677-.005h1.01l.109.007a.857.857 0 0 1 .748.849l-.002.994a.856.856 0 0 1 -.856.862h-2.26a.85.85 0 0 1 -.732-1.281c-.634-.291-.866-.532-1.29-1.087a5.944 5.944 0 0 1 -.925-1.778c-.164-.548-.124-.447-.504-1.946-.38-1.5-.576-3.038-.584-4.583-.005-1.03.016-2.004.065-2.922a7.539 7.539 0 0 1 1.527-4.362c.927-1.226 2.185-2.041 4.445-2.036zm6.102 8.976h1.087l.124.001h.62l.579.003c.696.006 1.384.563 1.542 1.188.106.417.33 1.43.675 3.038l.192.665h.018c.554.057.982.523.982 1.088v.25c0 .518-.358.951-.84 1.067-.047.442-.083.723-.106.845-.012.06-.027.122-.045.187.003.032.004.066.004.099v1.467a1.1 1.1 0 0 1 -1.1 1.1h-.214a1.1 1.1 0 0 1 -1.1-1.1l-.113.035a19.446 19.446 0 0 1 -5.808 0l-.114-.043c0 .616-.493 1.108-1.1 1.108h-.214a1.1 1.1 0 0 1 -1.1-1.1v-1.467l.004-.096-.008-.027c-.03-.106-.074-.433-.137-.98l.086.003a1.097 1.097 0 0 1 -1.097-1.097v-.25c0-.606.49-1.097 1.097-1.097l.063.003.192-.661.63-2.904c.199-.681.783-1.326 1.732-1.326h3.469zm-.056 7.7h-1.094a.55.55 0 1 0 0 1.1h1.094a.55.55 0 1 0 0-1.1zm-4.73-1.296-.002.011a.604.604 0 0 0 .426.739l1.163.316a.607.607 0 0 0 .744-.43l.003-.011a.605.605 0 0 0 -.426-.739l-1.163-.316a.607.607 0 0 0 -.744.43zm7.624-.43-1.167.316a.605.605 0 0 0 -.426.739l.003.011a.605.605 0 0 0 .74.43l1.167-.316a.605.605 0 0 0 .426-.739l-.003-.011a.606.606 0 0 0 -.74-.43zm-.323-4.474h-6.267l-.774 3.389h7.827zm-12.543.265a.85.85 0 0 1 1.087.288l.554 1.092a.85.85 0 0 1 -1.467.852l-.554-1.092a.85.85 0 0 1 .38-1.14zm2.88-7.74c.804 0 1.493.093 2.069.278a2.5 2.5 0 0 1 1.68 2.89l-.274 1.318a1.999 1.999 0 0 1 -1.635 1.566c-.742.132-1.355.198-1.84.198-.483 0-1.096-.066-1.838-.198a2.001 2.001 0 0 1 -1.635-1.566l-.275-1.318a2.5 2.5 0 0 1 1.68-2.89c.577-.185 1.266-.278 2.069-.278zm0 1.701c-.636 0-1.153.069-1.547.196a.8.8 0 0 0 -.553.816c.13.671.218 1.094.26 1.268.064.262.099.366.274.395s1.038.172 1.565.176c.527.003 1.115-.113 1.454-.156.34-.043.34-.226.386-.414.03-.126.113-.512.246-1.16a.8.8 0 0 0 -.538-.925c-.394-.127-.911-.196-1.547-.196z" fill="var(--db-icon-color, currentColor)" fill-rule="evenodd"/></svg>
