<svg id="icon" height="20" viewBox="0 0 20 20" width="20" xmlns="http://www.w3.org/2000/svg"><path d="m13.436 2c.964 0 1.477.1 2.012.385.5.268.9.666 1.167 1.167.224.42.334.826.37 1.446l1.015.002v4h-1v5.718c0 .484-.058.913-.252 1.242-.194.33-.458.608-.748.764v1.276h-2.5v-1h-7v1h-2.5v-1.274a1.908 1.908 0 0 1 -.748-.766c-.164-.306-.234-.6-.249-1.043l-.003-5.917h-1v-4l1.015-.002c.036-.62.146-1.027.37-1.446.268-.5.666-.9 1.167-1.167.49-.262 1.034-.385 1.842-.383zm-6.956 10.75h-1.5v1.5h1.5zm8.608 0h-1.5v1.5h1.5zm-1.482-8.749h-7.212c-.321 0-.752 0-1.067.27-.316.268-.324.731-.326 1.123-.002.262 0 2.047.002 5.354 1.879.145 3.545.217 4.997.217s3.118-.072 4.997-.217l.002-5.354c0-.42-.008-.856-.32-1.124s-.702-.268-1.073-.269zm-.606.999v1.7h-6v-1.7z" fill="#282D37" style="fill: currentColor;fill: var(--db-icon-color, currentColor)" fill-rule="evenodd"/></svg>
