<svg id="icon" height="24" viewBox="0 0 24 24" width="24" xmlns="http://www.w3.org/2000/svg"><path d="m5.2740033 3.5193874 2.02027743.40371328c.75518207.1509085 1.2654029.84523142 1.20080779 1.59757079l-1.0924702 6.05382753c1.48530181 1.0462384 2.4514235 2.0326323 2.89716588 3.0108526.3401737.7465406.5558963 1.5526209.6485788 2.4147083l5.2226869-.0000619c.4117588-1.1652912 1.5229163-1.999998 2.8293501-1.999998 1.6564992 0 3 1.3431296 3 3s-1.3435008 3-3 3c-1.3064338 0-2.4175913-.8347068-2.8293501-1.999998l-6.1702499-.000002c-.55228475 0-1-.4477153-1-1 0-.9671208-.1748891-1.825827-.52097919-2.5853516-.21050336-.4619678-.70253973-1.0163234-1.47664518-1.6399669l-.3175651 1.7431163c.79350665.5398083 1.31478947 1.450139 1.31478947 2.4822022 0 1.6568704-1.34350077 3-3 3-1.65708475 0-3-1.3429153-3-3 0-1.5705359 1.20629887-2.8588632 2.74307123-2.9891564l1.67617565-9.2228436-1.53755643-.3073874c-.50289328-.10049347-.90523077-.6437962-.78465618-1.17656902.12057459-.53277283.6260525-.89559631 1.17656903-.78465618zm-.2736033 13.4806126c-.55251525 0-1 .4474847-1 1s.44748475 1 1 1c.55205341 0 1-.4478229 1-1s-.44794659-1-1-1zm14 0c-.5525153 0-1 .4474847-1 1s.4474847 1 1 1c.5520534 0 1-.4478229 1-1s-.4479466-1-1-1zm1.0001988-5.9999584c.5522847 0 1 .4477152 1 1 0 .5522847-.4477153 1-1 1-1.4369072 0-2.6742349.6915497-3.1307135 1.4943086-.2729992.4800937-.8835015.647977-1.3635952.3749779-.4800936-.2729992-.6479769-.8835015-.3749778-1.3635952.8186883-1.4397374 2.725904-2.5056913 4.8692865-2.5056913z" fill="var(--db-icon-color, currentColor)" fill-rule="evenodd" transform="matrix(-1 0 0 1 24.0008 0)"/></svg>
