<svg id="icon" height="32" viewBox="0 0 32 32" width="32" xmlns="http://www.w3.org/2000/svg"><path d="m7.00257962 24.3405858c.33703897.4684064 1.0741144 1.653065 2.49742038 1.6594742 1.4940413.0067277 2.0737403-1.1381268 2.4738993-1.630609s1.1519037-.4925286 1.5521235-.0000958.9672385 1.6307335 2.4725531 1.6307048c1.5053145-.0000287 2.1020702-1.1714211 2.4754449-1.6307585.3733748-.4593375 1.0526896-.4901402 1.4670767-.0922509.4143871.3978892 1.0592287 1.7315749 2.5514043 1.7230094s2.108-1.1712266 2.4815076-1.6307445c.3735077-.4595179 1.0531419-.4901525 1.4674664-.0919036.4143246.3982489 1.611946 1.71194 2.5565965 1.7226481.5935119.0067277 1.0019277.4477153 1.0019277 1 0 .5128358-.4342364 1-1 1-1.0091704 0-2.0925038-.5193533-3.25-1.55806-1.070057 1.0329112-2.1558897 1.5495172-3.2574982 1.5498181-1.1016085.0003008-2.1824424-.5166385-3.2425018-1.5508181-1.1010428 1.0338502-2.1843761 1.5535368-3.25 1.55906s-2.1489572-.5138302-3.25-1.55806c-1.1332544 1.0387067-2.2163771 1.55806-3.24936804 1.55806s-2.11653492-.51902-3.25063196-1.55706c-1.1069788 1.0325454-2.19031214 1.5515654-3.25 1.55706-.55192133.0028618-1-.4477153-1-1 0-.5128358.38604019-.9355072.88337887-.9932723 1.29686115-.1376955 2.17070852-1.1388392 2.59002276-1.6367237s1.19213901-.4978845 1.52917799-.0294782zm10.51051608-21.3405858c1.2609505 0 2.4743146.81402434 2.8728359 2.13581594.7902457 2.62103924 1.5786018 5.24243396 2.3650684 7.86418406h5.24906c.5666629 0 1.0201061.4703866.9993275 1.0366684-.1250622 3.4083339-1.7188182 6.5958222-4.370461 8.7408563-.4293819.3473466-1.0590447.2808437-1.4063912-.1485382-.3473466-.4293819-.2808437-1.0590447.1485382-1.4063912 1.8759344-1.5175286 2.9938513-3.3764646 3.5349265-6.2225953h-22.90606c-.51283584 0-1-.4243808-1-1s.41880282-.999767 1-1c5.55424493-.0022269 11.1085983-.0022269 16.66306 0l-.903-3h-13.76c-.55228475 0-1-.44771525-1-1 0-.51283584.38604019-.93550716.88337887-.99327227l.11662113-.00672773h13.159l-.6882923-2.28806135c-.1155735-.38420495-.4697504-.71193865-.957612-.71193865h-13.5131557c-.55228475 0-1-.44771525-1-1 0-.51283584.41298255-.99971025 1-1 4.50427702-.00222334 9.0086623-.00222334 13.5131557 0zm-2.0130957 14c.8284271 0 1.5.6715729 1.5 1.5s-.6715729 1.5-1.5 1.5-1.5-.6715729-1.5-1.5.6715729-1.5 1.5-1.5zm5 0c.8284271 0 1.5.6715729 1.5 1.5s-.6715729 1.5-1.5 1.5-1.5-.6715729-1.5-1.5.6715729-1.5 1.5-1.5zm-10 0c.8284271 0 1.5.6715729 1.5 1.5s-.6715729 1.5-1.5 1.5c-.82842712 0-1.5-.6715729-1.5-1.5s.67157288-1.5 1.5-1.5zm-5 0c.82842712 0 1.5.6715729 1.5 1.5s-.67157288 1.5-1.5 1.5-1.5-.6715729-1.5-1.5.67157288-1.5 1.5-1.5z" fill="var(--db-icon-color, currentColor)" fill-rule="evenodd"/></svg>
