<svg id="icon" height="24" viewBox="0 0 24 24" width="24" xmlns="http://www.w3.org/2000/svg"><path d="m2 21.2857143c0-.3902143 0-8.1846429 0-8.5748572 0-.3902857.32565-.7108571.75-.7108571h.42075c5.1219 0 10.82925 4.2717143 10.82925 7.1428571 0 2.0095715-1.8 2.8571429-5.42925 2.8571429h-5.8098c-.42435 0-.76095-.324-.76095-.7142857zm0-7.2717857v3.31c.2398-.0015238.525275-.0015238.856425 0 2.995875.0135 4.094475.1682857 5.652.6403571.264.0803572.532125.0203572.72945-.1676428l.37185-.3541429c.161025-.1532857.23415-.3623571.219525-.5714286-.014625-.209-.146325-.4041428-.3219-.5156428-1.961025-1.3797857-4.287825-2.1881429-6.717075-2.3415-.2732-.0185715-.536625-.0185715-.790275 0zm7.54364609-10.41193426 5.02935391 2.67500566 5.6737121-1.7585721c.5169627-.14854624 1.0551148.15320631 1.2107242.67887707.1556093.52567077-.12851 1.08207737-.6392062 1.25179288l-12.86470177 3.98763125c-.09159863.0284065-.18671804.0431785-.28243196.0438617-.26240376-.0001444-.51390057-.107396-.69868639-.2979569l-1.17704628-1.20997723c-.25338228-.25427218-.35350553-.6282701-.26211692-.97910507.09138861-.35083496.36016836-.62429844.70364993-.71591167.34348157-.09161322.70859263.01277924.95583977.27329346l.75931315.7796791 3.92995037-1.21961249-3.27510391-1.74200566c-.46858721-.26823411-.6398176-.85988341-.38692162-1.33692338s.83868078-.66736841 1.32367162-.43007662z" fill="var(--db-icon-color, currentColor)" fill-rule="evenodd"/></svg>
