<svg id="icon" height="20" viewBox="0 0 20 20" width="20" xmlns="http://www.w3.org/2000/svg"><path d="m13.63 4.007c.84.006 1.669.664 1.86 1.403.127.493.398 1.69.813 3.59h1.697v2h-1.105c-.15 1.493-.25 2.37-.3 2.629-.075.39-.292.91-.594 1.197v2.174h-2.501v-1.259a23.875 23.875 0 0 1 -7 0l-.007 1.259h-2.493v-2.174c-.235-.233-.463-.689-.55-1.005-.058-.21-.173-1.15-.346-2.821h-1.104v-2h1.696l.761-3.432c.238-.805.943-1.568 2.086-1.568 1.144 0 6.248 0 7.088.007zm-4.993 8.001a.75.75 0 0 0 -.579.453l-.304 1.207a.746.746 0 0 0 .58.815c.425.096.731-.138.858-.445l.143-.538h1.329l.14.529a.75.75 0 0 0 1.442-.36l-.304-1.208a.75.75 0 0 0 -.58-.453h-2.724zm-3.719-.655a.75.75 0 0 0 -.435 1.432l1.56.367a.75.75 0 0 0 .434-1.432zm11.074.562a.75.75 0 0 0 -.799-.578l-1.562.354a.75.75 0 0 0 .237 1.477l1.562-.353a.75.75 0 0 0 .562-.9zm-2.034-6.215h-7.915l-.643 3.3h9.2z" fill="var(--db-icon-color, currentColor)" fill-rule="evenodd"/></svg>
