<svg id="icon" height="32" viewBox="0 0 32 32" width="32" xmlns="http://www.w3.org/2000/svg"><path d="m26 18a4 4 0 1 1 0 8 4 4 0 0 1 0-8zm-14 4c0 2.211-1.79 4-4 4-2.142 0-4-1.752-4-4h-1a1 1 0 0 1 -.993-.883l-.007-2.117a5 5 0 0 1 4.783-4.995l5.072-.005-.6-2h-4.255c-.57 0-1-.487-1-1s.414-1 1-1h4.256a2 2 0 0 1 1.862 1.27l2.624 8.73h2.797l5.461-6.371v-3.629a.977.977 0 0 0 -1-.993l-3-.007a1 1 0 0 1 -1-1c0-.513.419-1 1-1h3a3 3 0 0 1 2.995 2.824l.005 4.176a1 1 0 0 1 -.156.536l-6.085 7.115a.931.931 0 0 1 -.759.349zm14-2a2 2 0 1 0 0 4 2 2 0 0 0 0-4zm-19.994 2c-.006 1.171.94 2 1.994 2a1.984 1.984 0 0 0 1.995-2h-3.99zm6.437-6h-5.443a3 3 0 0 0 -2.995 2.824l-.005 1.176h9.652z" fill="#282D37" style="fill: currentColor;fill: var(--db-icon-color, currentColor)" fill-rule="evenodd"/></svg>
