<svg id="icon" height="20" viewBox="0 0 20 20" width="20" xmlns="http://www.w3.org/2000/svg"><path d="m6.197 14.497c.386.662.81 1.503 1.47 1.503s1.083-.842 1.47-1.504a1 1 0 0 1 1.727 0c.386.661.734 1.504 1.47 1.504.734 0 1.083-.843 1.469-1.504a1 1 0 0 1 1.727 0c.386.66.917 1.504 1.47 1.504a1 1 0 0 1 1 1c0 .513-.432 1.006-1 1-.84-.01-1.618-.448-2.334-1.317-.742.873-1.52 1.312-2.333 1.317s-1.59-.433-2.333-1.316c-.784.877-1.562 1.316-2.333 1.316-.772 0-1.55-.438-2.334-1.315-.757.877-1.534 1.315-2.333 1.315a1 1 0 0 1 0-2c.554 0 1.083-.841 1.47-1.503a1 1 0 0 1 1.727 0zm3.397-9.197c1.177.177 2.512 1.126 4.006 2.848l3.215-.605c.803-.15 1.499.703 1.052 1.482a1481.57 1481.57 0 0 1 -2 3.473 1 1 0 0 1 -1.366.368 1.012 1.012 0 0 1 -.368-1.366c.303-.53.608-1.06.915-1.59l-11.048 2.09v1a1 1 0 0 1 -2 0 82.991 82.991 0 0 1 0-1c0-1.01.51-1.747 1.673-1.983.289-.053.577-.107.865-.162.295-1.867.458-2.933.488-3.196.045-.396.353-.782.807-.87.896-.172 1.794-.342 2.693-.51.35-.057.7-.033 1.068.022zm-.724 1.948c-.25.046-.899.169-1.945.369l-.261 1.837 4.617-.869c-.965-.911-1.548-1.221-2.064-1.32-.104-.02-.183-.042-.347-.017z" fill="#282D37" style="fill: currentColor;fill: var(--db-icon-color, currentColor)" fill-rule="evenodd"/></svg>
