<svg id="icon" height="32" viewBox="0 0 32 32" width="32" xmlns="http://www.w3.org/2000/svg"><path d="m7 21a3 3 0 1 1 0 6 3 3 0 0 1 0-6zm13 0a3 3 0 1 1 0 6 3 3 0 0 1 0-6zm-13 2a1 1 0 1 0 0 2 1 1 0 0 0 0-2zm13 0a1 1 0 1 0 0 2 1 1 0 0 0 0-2zm-4.445-.832a1 1 0 0 1 -1.009 1.723 1.853 1.853 0 0 0 -1.01-.336 1.637 1.637 0 0 0 -.981.277 1 1 0 1 1 -1.11-1.664 3.704 3.704 0 0 1 4.11 0zm9.445-18.168c1.356 0 2.516.95 2.795 2.261 1.397 9.31 2.129 14.173 2.194 14.59.098.628-.41 1.038-.746 1.12-.225.053-1.558.386-4 1a1 1 0 0 1 -1.213-.728 1.009 1.009 0 0 1 .727-1.213l3.119-.781-2.028-13.518a.863.863 0 0 0 -.848-.731 1 1 0 1 1 0-2zm-1 8a1 1 0 0 1 1 1c0 .513-.426 1-1.005 1v2.997c-.084 1.599-1.285 2.907-2.823 2.998h-15.344c-1.538-.091-2.74-1.4-2.823-2.998l-.005-2.997a1 1 0 0 1 -1-1c0-.513.433-1 1-1zm-2 2h-17l.006 2.95c.053.562.542.986.994 1.043h15.105c.452-.057.836-.481.889-1.043z" fill="var(--db-icon-color, currentColor)" fill-rule="evenodd"/></svg>
