<svg id="icon" height="32" viewBox="0 0 32 32" width="32" xmlns="http://www.w3.org/2000/svg"><path d="m25 2c2.689 0 5 2.164 5 5v18c0 2.689-2.163 5-5 5h-18c-2.689 0-5-2.166-5-5v-18c0-2.689 2.163-5 5-5zm-18 2c-1.598 0-3 1.284-3 3v18c0 1.598 1.348 3 3 3h18c1.598 0 3-1.257 3-3v-18c0-1.598-1.288-3-3-3zm6.2 4v9.813c0 1.792 1.22 2.987 2.799 2.987 1.523 0 2.712-1.112 2.795-2.798l.006-10.002h4v10.177c0 4.264-3.191 5.823-6.8 5.823-3.534 0-6.665-1.498-6.794-5.56l-.005-10.44z" fill="#282D37" style="fill: currentColor;fill: var(--db-icon-color, currentColor)" fill-rule="evenodd"/></svg>
