<svg id="icon" height="20" viewBox="0 0 20 20" width="20" xmlns="http://www.w3.org/2000/svg"><path d="m16.0024462 15.3413462c.0689172.0787311.4447271.6586538.9972828.6586538s1.000271.4477153 1.000271 1c0 .5128358-.4304508 1.0010505-1.0039223 1-.5476933 0-1.1297192-.221-1.7460777-.663-.5770642.4351422-1.1603072.6528378-1.749729.6530867s-1.1728455-.2171133-1.750271-.6520867c-.5834859.4347016-1.1677851.6553683-1.75289767.662-.5851126.0066317-1.16748004-.214035-1.74710233-.662-.58302787.4347245-1.16637761.6553912-1.75004923.662-.58367161.0066088-1.16698854-.2140578-1.74995077-.662-.57427025.4347245-1.15760358.6553912-1.75.662-.55228475 0-1-.4477153-1-1s.44771525-1 1-1c.11956178 0 .59844257-.2018104.99691108-.6579188.39846852-.4561083 1.10770932-.4561083 1.50617784 0 .06861267.0785378.48430836.6580197.99686185.6579188.5125535-.0001009.92862455-.5798246.99748659-.6585207.39837662-.4552679 1.10660941-.4553122 1.50504294-.0000941.06890107.0787209.49903597.658628.9978157.6586148.4987797-.0000132.9283469-.5799328.9972699-.6586675.3982476-.4549414 1.1059996-.4551387 1.5045008-.0004195.0690972.078845.4995015.6589787.9982043.659087s.9283656-.5799227.9972828-.6586538c.3983966-.4551283 1.1064958-.4551283 1.5048924 0zm-4.0024462-13.3413462c.4206287 0 .791778.26241654.9364381.64904458l1.5635619 4.35095542h2.5c.5657017 0 1.0187763.46885664.9994141 1.03422687-.0761803 2.22444153-1.049526 4.31016153-2.677815 5.72144033-.4173435.3617221-1.048901.316632-1.410623-.1007115-.3617221-.4173435-.316632-1.0489009.1007115-1.4106229.9357411-.8110303 1.4849808-1.733335 1.8653124-3.2443328-4.2611424-.02021709-8.55347568-.02021709-12.877 0-.51283584 0-1-.48716416-1-1s.38604019-.93550716.88337887-.99327227l9.55362113-.00672773-1.187-3h-8.25c-.51283584 0-1-.48716416-1-1s.38604019-.93550716.88337887-.99327227zm0 8c.5522847 0 1 .4477153 1 1s-.4477153 1-1 1-1-.4477153-1-1 .4477153-1 1-1zm-4 0c.55228475 0 1 .4477153 1 1s-.44771525 1-1 1-1-.4477153-1-1 .44771525-1 1-1zm-4 0c.55228475 0 1 .4477153 1 1s-.44771525 1-1 1-1-.4477153-1-1 .44771525-1 1-1z" fill="var(--db-icon-color, currentColor)" fill-rule="evenodd"/></svg>
