<svg id="icon" height="24" viewBox="0 0 24 24" width="24" xmlns="http://www.w3.org/2000/svg"><path d="m2 19.9988c0-.5313.4375-1 1-1h10.5c4.3125 0 6.5-.655 6.5-2.78 0-3.5938-8.0625-10.2188-15.7188-10.2188h-1.2812c-.5625 0-1-.4687-1-1 0-.5625.4375-1 1-1h1.2812c8.5626 0 17.7188 7.1563 17.7188 12.2188 0 3.5625-3.6875 4.78-8.0625 4.78h-10.9375c-.5625 0-1-.4375-1-1zm0-6.9988c0-.5625.4375-1 1-1h.125c3.5312 0 6.1562.25 7.875.8125l.5625-.5312c-2.3125-1.5-5-2.2825-7.7187-2.2825h-.8438c-.5312 0-1-.4688-1-1 0-.5625.4688-1 1-1h.8438c3.5624 0 7 1.1887 9.8437 3.3137.25.1563.4375.4688.4375.8438 0 .25-.0938.4687-.2812.6562l-1.875 1.875c-.1876.1875-.4376.2813-.6876.2813-.1562 0-.2812-.0313-.4062-.0625-1.4375-.5938-4.0625-.9063-7.75-.9063h-.125c-.5625 0-1-.4375-1-1z" fill="var(--db-icon-color, currentColor)" fill-rule="evenodd"/></svg>
