<svg id="icon" height="24" viewBox="0 0 24 24" width="24" xmlns="http://www.w3.org/2000/svg"><path d="m18 2c2.209139 0 4 1.790861 4 4v12c0 2.209139-1.790861 4-4 4h-12c-2.209139 0-4-1.790861-4-4v-12c0-2.209139 1.790861-4 4-4zm-12 2c-1.0543618 0-1.99451426.84837224-1.99451426 2l-.00548574 12c0 1.0543618.86314326 2 2 2h12c1.0543618 0 2-.8468879 2-2v-12c0-1.0543618-.8624379-2-2-2zm3.85714286 2v7.3594741c0 1.3439774.95861344 2.0690973 2.14304154 2.0690973 1.1329312 0 2.0589196-.6634367 2.1372986-1.8973143l.0053741-7.5312571h3v7.6327776c0 3.1979338-2.4359284 4.3672224-5.1426727 4.3672224-2.63734061 0-5.01792541-1.1127687-5.13827273-4.12542l-.00476881-7.87458z" fill="var(--db-icon-color, currentColor)" fill-rule="evenodd"/></svg>
