<svg id="icon" height="24" viewBox="0 0 24 24" width="24" xmlns="http://www.w3.org/2000/svg"><path d="m8.974 2.002h6.052c1.044.014 1.608.12 2.21.391.611.275 1.12.692 1.509 1.236.357.5.567.995.77 1.88l.184.892a.998.998 0 0 1 .801-.401c.513 0 1 .4 1 1v3a1 1 0 0 1 -1.5.866v6.57c0 .964-.1 1.477-.385 2.012-.16.3-.366.561-.613.781l-.002.771a1 1 0 0 1 -1 1h-1a1 1 0 0 1 -1-1h-8a1 1 0 0 1 -1 1h-1a1 1 0 0 1 -1-1v-.77a2.826 2.826 0 0 1 -.615-.782c-.262-.49-.367-.962-.383-1.78v-6.802a.999.999 0 0 1 -1.502-.866l-.001-3a1 1 0 0 1 1.8-.6l.185-.891c.203-.885.413-1.38.77-1.88a3.72 3.72 0 0 1 1.508-1.236c.603-.271 1.167-.377 2.21-.391zm3.026 13.293c-1.76 0-3.758-.147-5.999-.44l-.001.973 2.083.174a1 1 0 0 1 -.166 1.994l-1.91-.16c.01.305.058.528.142.668.126.21.267.497 1.245.494.979-.003 8.352.003 9.212 0s1.117-.235 1.245-.494c.098-.199.146-.448.143-.747l-1.87.234a1 1 0 1 1 -.248-1.984l2.124-.257-.001-.896c-2.24.294-4.24.441-5.999.441zm2.966-11.294h-5.932c-.834 0-1.174.092-1.449.216-.288.13-.519.319-.703.576-.153.214-.258.431-.368.837l-.514 2.466.002 4.74c2.265.307 4.265.46 5.998.46s3.733-.153 5.998-.46l.002-4.734-.466-2.284c-.101-.418-.232-.767-.416-1.024a1.704 1.704 0 0 0 -.703-.576c-.24-.109-.539-.216-1.449-.216zm.034 1.999a1 1 0 0 1 1 1c0 .513-.401 1-1 1h-6a1 1 0 1 1 0-2z" fill="var(--db-icon-color, currentColor)" fill-rule="evenodd"/></svg>
