<svg id="icon" height="20" viewBox="0 0 20 20" width="20" xmlns="http://www.w3.org/2000/svg"><path d="m11.2537887 2.15c.1553475 0 .310304.01270131.4633294.03791431l.9890372.23746456c.4554257.11385642.7323222.57535074.6184658 1.03077641-.1050982.42039293-.5064086.6886664-.9257314.63790056-.6592666-.15674375-1.0096902-.23681761-1.0512709-.24022159l-.4978082-.00383425v1.3h.5863042c.8627086 0 1.4675358.11406456 1.9415899.36759149.4740542.25352692.8511769.63064965 1.1047038 1.10470378.2502077.46784767.3505802.91863329.3655715 1.71543013l.00202 6.3483894c0 .9411366-.0946377 1.4312107-.3675915 1.9415899-.2535269.4740542-.6306496.8511769-1.1047038 1.1047038-.4678476.2502077-.9186333.3505802-1.7154301.3655715l-3.0983894.00202c-.94113663 0-1.43121066-.0946377-1.94158993-.3675915-.47405413-.2535269-.85117686-.6306496-1.10470378-1.1047038-.25020768-.4678476-.35058024-.9186333-.36557145-1.7154301-.00999414-.5311979-.01066748-2.6473277-.00202004-6.3483894 0-.94113663.09463766-1.43121066.36759149-1.94158993.25352692-.47405413.63064965-.85117686 1.10470378-1.10470378.46784767-.25020768.91863329-.35058024 1.71543013-.36557145l.81208521-.00202004v-1.3c-.35253982.00341673-.5493921.00851631-.59055682.01529876l-.85309851.20932237c-.45542567.11385641-.91691999-.16304018-1.03077641-.61846585-.10509823-.42039293.12275285-.84595677.51663337-.99849176l.86297248-.22256965c.15070915-.03767728.42904013-.08509387.69122653-.08509387zm-3.0037887 12.2586488h-1.5v1.7h1.5zm5 0h-1.5v1.7h1.5zm-4.86175127-7.55754448c-.54980477.00745317-.75475444.05353796-.9642354.1655696-.17779773.09508727-.31225214.22954168-.40733941.40733941-.10082848.18853286-.14824.37339538-.16214739.80929023l-.00407476 4.86091964c1.04998819.1061487 2.0998022.1592143 3.14954823.1592143.7788116 0 2.0667784-.0324585 3.1454735-.1592143v-4.86091964c-.0139074-.43589485-.0613189-.62075737-.1621474-.80929023-.0950873-.17779773-.2295417-.31225214-.4073394-.40733941-.1885329-.10082848-.3733954-.14824-.8092903-.16214739zm2.61175127 1.04394184c.4142136 0 .75.33578644.75.75 0 .37969577-.3138852.75-.75.75h-2c-.41421356 0-.75-.33578644-.75-.75 0-.37969576.30925379-.75.75-.75z" fill="var(--db-icon-color, currentColor)" fill-rule="evenodd"/></svg>
