<svg id="icon" height="24" viewBox="0 0 24 24" width="24" xmlns="http://www.w3.org/2000/svg"><path d="m7.5 14a2.5 2.5 0 1 1 0 5 2.5 2.5 0 0 1 0-5zm-5.163-4.757c.543-2.163 2.705-3.528 4.909-3.098.27.051.97.288 2.098.709a17 17 0 0 1 5.274 3.27 21.67 21.67 0 0 1 2.154 2.24 1 1 0 0 1 .193.897c-.116.428-.35.976-.704 1.656l-.903 1.597a1 1 0 0 1 -.728.477l-2.63.002c-.51.007-.97-.424-.97-.993 0-.57.46-.993.97-.993l1.93-.008.934-1.79c-.727-.767-1.258-1.302-1.592-1.607a15 15 0 0 0 -4.623-2.872c-.828-.35-1.479-.566-1.952-.65a2.211 2.211 0 0 0 -2.409 1.607c-.192.745-.288 1.217-.288 1.413v3.162c.473.16.751.736.601 1.226a1.006 1.006 0 0 1 -1.248.664c-.844-.235-1.353-.946-1.353-1.889v-3.263c0-.218.112-.804.337-1.757zm18.663 4.757a1 1 0 0 1 1 1c0 .513-.419 1-1 1-.187 0-.364.045-.531.136l-.91.497c-.447.235-.922.367-1.559.367a1 1 0 0 1 -1-1c0-.513.393-1 1-1 .256 0 .456-.04.6-.122l.91-.497c.457-.25.97-.381 1.49-.381zm-13.5 2a.5.5 0 1 0 0 1 .5.5 0 0 0 0-1zm-.792-6.795c.13 0 .302.036.515.107l2.784 1.123a5 5 0 0 1 .93.563l1.554 1.33a1 1 0 0 1 -1.29 1.507l-1.505-1.269a3 3 0 0 0 -.503-.304l-2.11-.852-.112.829a1 1 0 0 1 -1.971-.246l.202-1.617c.156-.699.765-1.17 1.506-1.17z" fill="#282D37" style="fill: currentColor;fill: var(--db-icon-color, currentColor)" fill-rule="evenodd"/></svg>
