<svg id="icon" height="24" viewBox="0 0 24 24" width="24" xmlns="http://www.w3.org/2000/svg"><path d="m13.74 2c2.8353709 0 5.142056 2.26733109 5.2556182 5.10094171l.0043818 9.33536599c0 2.9967083-2.3434472 5.444609-5.2838114 5.5594769l-3.2161886.0042154c-2.96844319 0-5.38256759-2.3765505-5.4958431-5.3454263l-.0041569-9.3345737c0-2.86153221 2.23580088-5.20040161 5.0429654-5.31555662zm-6.57897342 15.5083575c.31766621 1.0271093 1.07967124 1.8523137 2.05510357 2.2441592.22991622-.287557.60952549-.4375777.99339895-.3553191.7137457.1529455 1.3126009.2278024 1.7904709.2278024s1.0767252-.0748569 1.7904709-.2278024c.3838735-.0822586.7634827.0677621.9924847.3553694.9544822-.3831126 1.7040836-1.1803239 2.0339891-2.1754482-1.0488857.3403484-1.7709181.5701151-2.1660972.6893001-.5927687.1787776-1.495492.2835811-2.6508475.2835811-1.1341507 0-1.9321248-.0962943-2.53665708-.2835981-.40302149-.1248693-1.17046027-.3775507-2.30231634-.7580444zm9.43915902-11.78279563-.516264 5.77822703c-.1400747 1.3418485-1.1464611 2.4043479-2.4177143 2.4905599l-3.1923873.0056512c-1.2980099 0-2.35553534-1.0141138-2.56578571-2.3481611l-.51313084-5.91712744c-.21578923.40354809-.35178721.8579058-.38623992 1.3412827l-.00866353 8.76600584c1.64232252.5693986 2.61141331.8999313 2.90727238.9915981.44378862.1375002 1.09763332.2164019 2.09272762.2164019 1.017719 0 1.7632089-.0885376 2.2070282-.2164189.2958795-.0852543 1.2268701-.3861146 2.7929718-.9025811v-8.611c0-.57824406-.1450118-1.12148339-.3998144-1.59443813zm-7.51867637 8.77879043 1.10039247.2680408c.4018462.1004616.6461667.5076624.5457052.9095086-.0920898.368359-.4419258.6043527-.80911613.563746l-1.10039249-.2680408c-.40184618-.1004616-.6461667-.5076624-.54570516-.9095086.09208975-.368359.44192574-.6043527.80911611-.563746zm6.64609767.563746c.0920897.368359-.1055332.7412174-.4486338.8781834l-1.0970714.2813252c-.4018462.1004615-.809047-.143859-.9095086-.5457052-.0920897-.368359.1055332-.7412174.4486338-.8781834l1.0970714-.2813252c.4018462-.1004615.809047.143859.9095086.5457052zm-1.9876069-11.0680983c-.3113521-.01090977-1.4713521-.01090977-3.48 0-.34616261 0-.67992005.05503585-.99320848.15703023l.61011526 7.13475107c.03828321.3843404.30499492.7183964.62309322.7082187h2.9472997c.2927003 0 .5476963-.225458.6263198-.5698916l.6585933-7.27340214c-.2503999-.08142956-.5251846-.1403416-.9922128-.15670626z" fill="var(--db-icon-color, currentColor)" fill-rule="evenodd"/></svg>
