<svg id="icon" height="24" viewBox="0 0 24 24" width="24" xmlns="http://www.w3.org/2000/svg"><path d="m19.398 13a2.585 2.585 0 0 1 2.602 2.575v4.425c0 .5-.5 1-1 1l-1-.001a1 1 0 0 1 -1 1h-3c-.55 0-1-.45-1-1h-6c0 .55-.45 1-1 1h-3.012a.997.997 0 0 1 -.988-1.011l-1 .012c-.5 0-1-.5-1-1v-4.425a2.585 2.585 0 0 1 2.602-2.575zm.01 1.994h-.033l-.231.001h-.119l-.468.001h-.192l-.919.001h-.264l-2.491.001h-7.877l-.98-.002h-.876l-.299-.002h-.057c-.375 0-.602.315-.602.662v2.344h16v-2.425a.578.578 0 0 0 -.592-.58zm-14.087-12.994a.75.75 0 0 1 .713.49l2.273 6.016c.127.336.067.623-.535.623-.535 0-.734-.134-.869-.467l-.423-1.048h-2.651l-.357.958c-.15.404-.356.557-.891.557s-.664-.265-.535-.601l2.317-6.038c.101-.263.334-.49.624-.49zm14.981-.002a5 5 0 0 1 1.16.134c.335.045.559.357.536.692 0 .424-.156.647-.714.536a3.436 3.436 0 0 0 -.96-.134c-1.427 0-1.896.803-1.896 2.343 0 1.428.446 2.321 1.874 2.321a4.14 4.14 0 0 0 1.05-.156c.445-.112.69.045.69.469a.645.645 0 0 1 -.49.714c-.424.134-.87.2-1.317.2-2.164.001-3.235-1.271-3.235-3.502 0-2.277 1.116-3.616 3.302-3.616zm-9.742.002.088.004h2.009c1.338 0 2.23.514 2.23 1.786 0 .759-.29 1.205-1.16 1.517a1.646 1.646 0 0 1 1.585 1.763c0 1.384-1.027 2.031-2.678 2.031h-1.986c-.379.045-.67-.268-.647-.647v-5.825c-.022-.357.29-.67.647-.625zm2.085 3.948h-1.227v2.032h1.048c.938 0 1.406-.245 1.406-1.049 0-.647-.334-.982-1.227-.982zm-7.4-2.044-.947 2.651h1.892l-.946-2.65zm7.333-.745h-1.16v1.629h1.115c.58 0 1.005-.2 1.005-.848 0-.513-.224-.781-.96-.781z" fill="#282D37" style="fill: currentColor;fill: var(--db-icon-color, currentColor)" fill-rule="evenodd"/></svg>
