<svg id="icon" height="32" viewBox="0 0 32 32" width="32" xmlns="http://www.w3.org/2000/svg"><path d="m9.58062024 2.00181725h12.83875956c1.1974031.01712394 1.8452236.15753789 2.5174876.51706861.6631574.35466044 1.1895863.88108936 1.5442467 1.54424673.3595308.67226399.4999447 1.32008449.5170687 2.51748765l.0018172 16.85549456c0 .9637813-.0991552 1.477249-.3853195 2.0123298-.1597611.2987272-.3662564.561195-.6132301.7811475l-.0014504 1.4884653c0 .557373 0 2.2954992-2.2819426 2.2821765-.5219533-.0032568-1.0006582-.0032568-1.4361148 0-2.2638698 0-2.2638698-1.6408884-2.2787998-2.0831343l-.0033428-.9170996h-8l.0002.7180574c0 .557373-.0002 2.2821765-2.2819426 2.2821765-.45507312 0-.93377806 0-1.4361148 0-2.28259932 0-2.2819426-1.5988864-2.2819426-2.2821765 0-.3622067-.00021891-.8581262-.00065672-1.4877587-.24732505-.220097-.45409161-.482807-.61402377-.7818541-.2623173-.4904907-.36749497-.9628204-.38320294-1.7804929l-.00211657-16.8221239c0-1.37018965.13367437-2.06241236.51888586-2.78269521.35466044-.66315737.88108936-1.18958629 1.54424673-1.54424673.67226399-.35953072 1.32008449-.49994467 2.51748765-.51706861zm-1.57428994 24.99818275-.0059091 1h1.9995788v-1zm15.9956456 0h-2.0001759v1h2.0001759zm.9980241-3.5638852c.0001566-.3759235.0002349-1.4919572.0002349-3.3481011-3.2180964.5081205-5.7811784.6619863-9.0002349.6619863-2.9998938 0-5.9995733-.2206925-8.99866079-.6619863.00429626 2.2261149.00384986 3.4194276-.00133921 3.579938-.0077836.2407657-.00340657.6999503.28251225 1.0155047s.67808875.3155544 1.46132498.3155544h14.86171927c.3964194 0 .8513893-.0109387 1.1231727-.3155544.2717835-.3046156.2710393-.6834564.2712708-1.2473416zm-14.75-1.9361148c.6908333 0 1.25.56 1.25 1.25 0 .6908333-.5591667 1.25-1.25 1.25-.69 0-1.25-.5591667-1.25-1.25 0-.69.56-1.25 1.25-1.25zm11.5 0c.6908333 0 1.25.56 1.25 1.25 0 .6908333-.5591667 1.25-1.25 1.25-.69 0-1.25-.5591667-1.25-1.25 0-.69.56-1.25 1.25-1.25zm-12.32191513-17.49532231c-.75939339.01907337-1.08667201.09863045-1.42175457.27783456-.31462041.16826084-.55555721.40919764-.72381805.72381805-.17920411.33508256-.25876119.66236118-.27783456 1.42175457v11.63743853c2.84115011.4676102 6.22707621.6844766 8.99532231.6844766 2.9997104 0 5.9996496-.2281253 9.0002349-.6844766l-.0109637-11.81853907c-.0269738-.63289348-.107513-.93349501-.2717835-1.24065403-.1682608-.31462041-.4091976-.55555721-.723818-.72381805-.3350826-.17920411-.6623612-.25876119-1.4217546-.27783456zm19.57171513 3.01062231c.5128358 0 1 .4405655 1 1v4c0 .5522847-.4477153 1-1 1-.5128358 0-1-.4230687-1-1v-4c0-.55228475.4477153-1 1-1zm-26 0c.51283584 0 1 .41057942 1 .9847v4.0153c0 .5522847-.44771525 1-1 1-.51283584 0-1-.4243612-1-1v-4c0-.55228475.44771525-1 1-1zm18.0002-1.0153c.5522847 0 1 .44771525 1 1 0 .51283584-.4115787 1-1 1h-10c-.5522847 0-1-.44771525-1-1 0-.51283584.4243456-1 1-1z" fill="var(--db-icon-color, currentColor)" fill-rule="evenodd"/></svg>
