<svg id="icon" height="20" viewBox="0 0 20 20" width="20" xmlns="http://www.w3.org/2000/svg"><path d="m8.81 3.487c.918.911 1.834 1.824 2.75 2.737l.308-.096c2.356-.758 5.115.045 5.933 1.896.59 1.333-.165 2.779-1.655 3.317l-2.698.849-2.112 3.86c-.15.247-.32.434-.65.596-1.492.735-2.535-.277-2.535-1.3-.006-.495-.01-.99-.014-1.485l-.936.289c-1.529.5-3.256-.197-3.833-1.843-.433-1.213-.865-2.426-1.295-3.64-.193-.648 0-1.392.75-1.773.075-.038.15-.073.228-.105.595-.265 1.202-.09 1.624.307l.987.976 1.319-.413-1.137-2.323c-.364-.85.08-1.95 1.047-2.183.11-.032.22-.063.33-.092a1.563 1.563 0 0 1 1.59.426zm3.663 4.547c-2.264.708-4.526 1.417-6.786 2.127-.314.099-.8.099-1.071-.311.12.369.333.965.637 1.79.152.43.67.863 1.344.603.746-.228 1.491-.457 2.236-.688a.997.997 0 0 1 1.294.948c.006.522.01 1.045.012 1.567l1.747-3.193c.083-.151.165-.31.579-.474.655-.21 1.624-.514 2.906-.91.54-.167.675-.368.587-.679-.088-.31-.57-.623-1.1-.795-.654-.212-1.655-.212-2.385.015z" fill="var(--db-icon-color, currentColor)" fill-rule="evenodd"/></svg>
