<svg id="icon" height="20" viewBox="0 0 20 20" width="20" xmlns="http://www.w3.org/2000/svg"><path d="m4.5 14c.82842712 0 1.5.6715729 1.5 1.5s-.67157288 1.5-1.5 1.5-1.5-.6715729-1.5-1.5.67157288-1.5 1.5-1.5zm7 0c.8284271 0 1.5.6715729 1.5 1.5s-.6715729 1.5-1.5 1.5-1.5-.6715729-1.5-1.5.6715729-1.5 1.5-1.5zm-2.85580875.75c.41421356 0 .75.3357864.75.75 0 .3796958-.31483426.75-.75.75h-1.14419125c-.41421356 0-.75-.3357864-.75-.75 0-.3796958.31832665-.75.75-.75zm5.39236805-11.75c1.4416259 0 2.6700498 1.02328521 2.9438191 2.42179944.6676293 4.91741136 1.0045048 7.39886946 1.0106264 7.44437426.0586168.4709387-.2029799.8474951-.5414069 1.0273622l-2.0023843 1.0008913c-.4939785.2469892-1.0946515.0467649-1.3416408-.4472136-.2293472-.4586943-.0715152-1.0703978.4472136-1.3416408l1.3592136-.6805728-.8844359-6.55882628c-.0618357-.45790327-.4284125-.86736391-1.0275641-.86736391-.5522847 0-.9845309-.44652506-.9845309-.99880981 0-.51283584.4031863-1 1.0210902-1zm-1.0365593 4c.5522847 0 1 .44771525 1 1 0 .51283584-.4175085.99327227-.9845309 1.00010953l-.0164691 1.99989047c.0164691 1.5469739-.4691232 2-2 1.9979724h-6.00243548c-1.57005422.0020276-1.99756452-.4843468-1.99756452-1.9979724v-2.00672773c-.58846839 0-.999-.48043643-.999-.99327227s.42324944-1 .999-1zm-2.001 2h-6l.001 2h6z" fill="var(--db-icon-color, currentColor)" fill-rule="evenodd"/></svg>
