<svg id="icon" height="20" viewBox="0 0 20 20" width="20" xmlns="http://www.w3.org/2000/svg"><path d="m11.442 7c.812 0 1.5.563 1.594 1.344l.718 3.656a1.64 1.64 0 0 1 -1.312 1.906v3.094a.98.98 0 0 1 -.969 1c-.562 0-1-.438-1-1v-4.063c0-.562.438-1 1-1h.25l-.562-2.968h-2.282l-.593 2.969h.218c.563 0 1 .437 1 1v4.062c0 .563-.437 1-1 1a.98.98 0 0 1 -.968-1v-3.094a1.588 1.588 0 0 1 -1.282-1.906l.75-3.688c.094-.78.782-1.312 1.563-1.312zm-1.438-1.094a1.947 1.947 0 0 0 1.938-1.937c0-1.094-.875-1.969-1.938-1.969a1.96 1.96 0 0 0 -1.968 1.969c0 1.062.875 1.937 1.968 1.937z" fill="var(--db-icon-color, currentColor)" fill-rule="evenodd"/></svg>
