<svg id="icon" height="64" viewBox="0 0 64 64" width="64" xmlns="http://www.w3.org/2000/svg"><g fill="none" fill-rule="evenodd" transform="translate(10 9)"><path d="m43.104 41.968v-6.093c0-.238-.013-.474-.039-.692a6.292 6.292 0 0 0 -6.282-5.671.999.999 0 0 0 -.519.145 9.42 9.42 0 0 1 -4.785 1.373 9.432 9.432 0 0 1 -4.805-1.373 1.014 1.014 0 0 0 -.52-.145 6.275 6.275 0 0 0 -4.464 1.849 6.282 6.282 0 0 0 -.81.995 1 1 0 0 0 1.67 1.099 4.31 4.31 0 0 1 .554-.68 4.282 4.282 0 0 1 2.791-1.255c1.692.969 3.61 1.49 5.584 1.51a11.441 11.441 0 0 0 5.564-1.51 4.304 4.304 0 0 1 4.035 3.875c.017.159.026.319.026.48v6.093a1 1 0 1 0 2 0zm-20.164-7.063a1.558 1.558 0 0 1 1.573 1.385l.01.14v.475h2.004a1.51 1.51 0 0 1 1.501 1.369l.006.137v6.988a1.51 1.51 0 0 1 -1.37 1.5l-.137.006h-10.985a1.51 1.51 0 0 1 -1.502-1.37l-.006-.136v-6.989a1.508 1.508 0 0 1 1.371-1.5l.137-.006h1.98v-.475a1.555 1.555 0 0 1 1.44-1.521l.141-.004h3.837zm-6.906 10.002h10v-6h-10zm15.436-28.134a5.079 5.079 0 0 0 -5.074 5.073 5.08 5.08 0 0 0 5.074 5.074 5.079 5.079 0 0 0 5.073-5.074 5.078 5.078 0 0 0 -5.073-5.073zm0 12.147c-3.9 0-7.074-3.174-7.074-7.074s3.173-7.073 7.074-7.073c3.9 0 7.073 3.173 7.073 7.073s-3.173 7.074-7.073 7.074z" fill="var(--db-icon-color, currentColor)" fill-rule="nonzero"/><path d="m17 0c1.656 0 3 1.344 3 3v22c0 1.656-1.344 3-3 3h-14c-1.656 0-3-1.344-3-3v-22c0-1.656 1.344-3 3-3zm0 2h-14c-.563 0-1 .438-1 1v22c0 .562.437 1 1 1h14c.562 0 1-.438 1-1v-22c0-.562-.438-1-1-1zm-13 19c0-.563.437-1 1-1h1c.562 0 1 .437 1 1 0 .562-.438 1-1 1h-1c-.563 0-1-.438-1-1zm4.5 0c0-.563.437-1 1-1h1c.563 0 1 .437 1 1 0 .562-.437 1-1 1h-1c-.563 0-1-.438-1-1zm4.5 0c0-.563.437-1 1-1h1c.563 0 1 .437 1 1 0 .562-.437 1-1 1h-1c-.563 0-1-.438-1-1z" fill="var(--db-icon-pulse-color, #EC0016)"/></g></svg>
