<svg id="icon" height="20" viewBox="0 0 20 20" width="20" xmlns="http://www.w3.org/2000/svg"><path d="m16.6875 10.6875c.2187-.1875.3125-.4375.3125-.6875s-.0938-.5-.3125-.7188l-4.9687-5c-.1876-.1874-.4688-.2812-.7188-.2812-.5625 0-1 .4375-1 1 0 .25.0938.5.2812.6875l3.3126 3.3125h-9.5938c-.5625 0-1 .4375-1 1 0 .5312.4375 1 1 1h9.5938l-3.3126 3.2812c-.1874.2188-.2812.4688-.2812.7188 0 .5312.4375 1 1 1 .25 0 .5312-.0938.7188-.3125z" fill="var(--db-icon-color, currentColor)" fill-rule="evenodd"/></svg>
