<svg id="icon" height="20" viewBox="0 0 20 20" width="20" xmlns="http://www.w3.org/2000/svg"><path d="m16.001 11.002a.998.998 0 0 1 .999 1v4.006a1 1 0 0 1 -.999.997h-4.002a1 1 0 0 1 -.999-1v-4.003a1 1 0 0 1 .999-1zm-8 0a.998.998 0 0 1 .999 1v4.006a1 1 0 0 1 -1.002.997h-3.999a1 1 0 0 1 -.999-1v-4.003a1 1 0 0 1 .999-1zm-1.001 2h-2v2.003h2zm8 0h-2v2.003h2zm1.001-10.007a1 1 0 0 1 .999 1v4.001a.999.999 0 0 1 -.999 1h-4.002a.999.999 0 0 1 -.999-1v-4.002a.999.999 0 0 1 .999-.999zm-8 0a1 1 0 0 1 .999 1v4.001a.999.999 0 0 1 -1.002 1h-3.999a.999.999 0 0 1 -.999-1v-4.002a1 1 0 0 1 .999-.999zm6.999 2.005h-2v2h2zm-8 0h-2v2h2z" fill="var(--db-icon-color, currentColor)" fill-rule="evenodd"/></svg>
