<svg id="icon" height="24" viewBox="0 0 24 24" width="24" xmlns="http://www.w3.org/2000/svg"><path d="m12 2a9.99 9.99 0 0 1 10 10 9.99 9.99 0 0 1 -10 10 9.99 9.99 0 0 1 -10-10 9.99 9.99 0 0 1 10-10zm3.5 5.5c-.25 0-.469.094-.719.313l-2.781 2.779-2.781-2.81c-.188-.187-.5-.281-.719-.281-.469 0-1 .375-1 1 0 .219.063.469.281.719l2.813 2.78-2.814 2.813a1.026 1.026 0 0 0 -.281.687c0 .469.375 1 1 1 .219 0 .469-.094.688-.281l2.813-2.813 2.781 2.813c.188.187.5.281.719.281.469 0 1-.375 1-1a.94.94 0 0 0 -.281-.688l-2.813-2.812 2.781-2.781a.999.999 0 0 0 .313-.719c0-.531-.438-1-1-1z" fill="var(--db-icon-color, currentColor)" fill-rule="evenodd"/></svg>
