<svg id="icon" height="32" viewBox="0 0 32 32" width="32" xmlns="http://www.w3.org/2000/svg"><path d="m16 2c7.719 0 14 6.281 14 14s-6.281 14-14 14-14-6.281-14-14 6.281-14 14-14zm5.563 7.5a.994.994 0 0 0 -.712.289l-4.851 4.836-4.914-4.899c-.172-.171-.399-.226-.617-.226-.531 0-.969.406-.969.938 0 .25.086.507.289.71l4.836 4.852-4.899 4.914c-.171.172-.226.398-.226.617 0 .532.406.969.938.969a.99.99 0 0 0 .71-.289l4.852-4.836 4.914 4.899c.172.171.398.226.617.226.532 0 .969-.406.969-.938a.994.994 0 0 0 -.289-.71l-4.836-4.852 4.899-4.914c.171-.172.226-.399.226-.617 0-.531-.406-.969-.938-.969z" fill="var(--db-icon-color, currentColor)" fill-rule="evenodd"/></svg>
