<svg id="icon" height="32" viewBox="0 0 32 32" width="32" xmlns="http://www.w3.org/2000/svg"><path d="m6 16.0001c0 .5625.4375 1 .9999 1h15.5938l-6.3125 6.2812c-.2188.2188-.2815.4688-.2814.7187.0001.5626.4064 1.0001 1 1.0003.2501-.0002.5001-.0627.7189-.2815l8-7.9999c.2187-.2188.2813-.4688.2813-.7188s-.0626-.5-.2813-.7187l-8-8c-.2188-.2187-.4688-.2812-.7189-.2814-.5936.0002-.9999.4689-.9999 1.0002 0 .25.0625.5.2813.7187l6.3125 6.2812h-15.5938c-.5624 0-.9999.4375-.9999 1z" fill="var(--db-icon-color, currentColor)" fill-rule="evenodd"/></svg>
