<svg id="icon" height="32" viewBox="0 0 32 32" width="32" xmlns="http://www.w3.org/2000/svg"><path d="m3 28v-7c0-.595.406-1 1-1s1 .4 1 1v6h6c.563 0 1 .406 1 1 0 .563-.375 1-1 1h-7c-.594 0-1-.405-1-1zm26 0c0 .595-.406 1-1 1h-7c-.625 0-1-.438-1-1 0-.594.438-1 1-1h6v-6c0-.6.406-1 1-1s1 .405 1 1zm0-24v7c0 .595-.406 1-1 1s-1-.4-1-1v-6h-6c-.563 0-1-.406-1-1 0-.563.375-1 1-1h7c.594 0 1 .405 1 1zm-26 0c0-.595.406-1 1-1h7c.625 0 1 .438 1 1 0 .594-.438 1-1 1h-6v6c0 .6-.406 1-1 1s-1-.405-1-1z" fill="#282D37" style="fill: currentColor;fill: var(--db-icon-color, currentColor)" fill-rule="evenodd"/></svg>
