<svg id="icon" height="24" viewBox="0 0 24 24" width="24" xmlns="http://www.w3.org/2000/svg"><path d="m7.375 18c-.25 0-.438-.094-.625-.25-1.813-1.531-2.75-3.75-2.75-6.094 0-3.344 2.25-6.25 5.5-7l-1.281-.75c-.313-.219-.5-.562-.5-.875 0-.562.437-1.031 1-1.031.187 0 .375.063.5.156l3.469 2.063c.312.187.5.562.5.875 0 .156-.063.343-.157.5l-2.061 3.436c-.188.313-.531.5-.875.5-.563 0-.969-.469-.969-1 0-.187.031-.375.125-.531l.875-1.438c-2.439.471-4.126 2.595-4.126 5.096 0 1.75.688 3.406 2.031 4.563.219.187.313.5.313.781 0 .625-.438 1-.969 1zm9.25-12c.25 0 .438.094.625.25 1.813 1.531 2.75 3.75 2.75 6.094 0 3.344-2.25 6.25-5.5 7l1.281.75c.344.187.5.562.5.875 0 .562-.437 1.031-1 1.031a.865.865 0 0 1 -.5-.156l-3.469-2.063a1.077 1.077 0 0 1 -.5-.875c0-.156.063-.343.157-.5l2.062-3.437c.188-.313.531-.5.875-.5.563 0 .969.469.969 1 0 .187-.031.375-.125.531l-.875 1.438c2.438-.47 4.125-2.594 4.125-5.094 0-1.75-.688-3.406-2.031-4.563-.219-.187-.313-.5-.313-.781 0-.625.438-1 .969-1z" fill="#282D37" style="fill: currentColor;fill: var(--db-icon-color, currentColor)" fill-rule="evenodd"/></svg>
