<svg id="icon" height="24" viewBox="0 0 24 24" width="24" xmlns="http://www.w3.org/2000/svg"><path d="m4 14c.469 0 1 .406 1 1.031v3.969h4.031c.531 0 .969.469.969 1a.98.98 0 0 1 -.969 1h-5.031c-.563 0-1-.438-1-1v-4.969c0-.594.438-1.031 1-1.031zm16 0c.563 0 1 .469 1 1.031v4.969c0 .563-.438 1-1 1h-5.031a.98.98 0 0 1 -.969-1c0-.531.438-1 .969-1h4.031v-3.969c0-.562.438-1.031 1-1.031zm0-11c.563 0 1 .438 1 1v5c0 .594-.438 1-1 1-.563 0-1-.438-1-1v-4h-4.031a.98.98 0 0 1 -.969-1c0-.531.438-1 .969-1zm-10.969 0c.531 0 .969.469.969 1a.98.98 0 0 1 -.969 1h-4.031v4c0 .594-.438 1-1 1-.563 0-1-.438-1-1v-5c0-.563.438-1 1-1z" fill="#282D37" style="fill: currentColor;fill: var(--db-icon-color, currentColor)" fill-rule="evenodd"/></svg>