<svg id="icon" height="20" viewBox="0 0 20 20" width="20" xmlns="http://www.w3.org/2000/svg"><path d="m3 9.949c0-2.683 1.734-4.743 4.416-5.463l-.981-.621a1.097 1.097 0 0 1 -.426-.884c0-.556.426-.981.982-.981.196 0 .392.065.556.163l3.01 2.029c.228.13.457.425.457.817a1.1 1.1 0 0 1 -.163.556l-2.029 3.01a1.043 1.043 0 0 1 -.883.458.957.957 0 0 1 -.948-.982c0-.229.065-.425.163-.588l.687-1.014c-1.668.327-2.846 1.799-2.846 3.5 0 1.275.622 2.486 1.603 3.27a.994.994 0 0 1 .393.818.984.984 0 0 1 -.982.982c-.229 0-.458-.066-.621-.197-1.505-1.21-2.388-2.976-2.388-4.872zm14.014.154c0 2.682-1.734 4.743-4.416 5.462l.981.622c.295.229.458.556.458.883 0 .556-.458.981-1.014.981-.196 0-.392-.065-.556-.163l-3.01-2.028a.948.948 0 0 1 -.457-.818c0-.229.065-.392.164-.556l2.028-3.01c.196-.294.523-.457.883-.457.49 0 .981.392.981.981 0 .196-.098.425-.196.589l-.687 1.014c1.668-.327 2.846-1.8 2.846-3.5 0-1.276-.622-2.486-1.603-3.304-.262-.163-.393-.49-.393-.785 0-.49.393-1.014 1.014-1.014.197 0 .426.098.59.229 1.536 1.21 2.387 2.977 2.387 4.874z" fill="var(--db-icon-color, currentColor)" fill-rule="evenodd"/></svg>
