<svg id="icon" height="20" viewBox="0 0 20 20" width="20" xmlns="http://www.w3.org/2000/svg"><path d="m9.3125 16.6875c.1875.2187.4375.3125.6875.3125s.5-.0938.7188-.3125l5-4.9687c.1874-.1876.2812-.4688.2812-.7188 0-.5625-.4375-1-1-1-.25 0-.5.0938-.6875.2812l-3.3125 3.3126v-9.5938c0-.5625-.4375-1-1-1-.5312 0-1 .4375-1 1v9.5938l-3.2812-3.3126c-.2188-.1874-.4688-.2812-.7188-.2812-.5312 0-1 .4375-1 1 0 .2142857.06891429.4514939.2263277.6330332z" fill="var(--db-icon-color, currentColor)" fill-rule="evenodd"/></svg>
