<svg id="icon" height="32" viewBox="0 0 32 32" width="32" xmlns="http://www.w3.org/2000/svg"><path d="m29 23a1 1 0 0 1 1 1 .99.99 0 0 1 -1 1 9.13 9.13 0 0 1 -.331 0l.319 2.017a1 1 0 0 1 -.832 1.143 1.023 1.023 0 0 1 -1.144-.832c-.124-.776-.247-1.552-.367-2.328h-21.291l-.366 2.328a1 1 0 0 1 -1.144.832c-.506-.08-.922-.617-.832-1.143.104-.672.21-1.345.318-2.017h-.33a1 1 0 0 1 -1-1c0-.513.42-1 1-1 8.665-.002 17.331-.002 26 0zm-23-7a3 3 0 1 1 0 6 3 3 0 0 1 0-6zm7.59 1.478 13.41 1.022c1.365 0 2.715.905 2.982 2.313a1 1 0 0 1 -1.936.487l-.028-.113c-.065-.34-.45-.632-1.094-.69l-13.508-1.027c-.651-.063-1.265.43-1.44 1.25a1 1 0 1 1 -1.952-.44c.36-1.596 1.734-2.984 3.565-2.802zm-7.59.522a1 1 0 1 0 0 2 1 1 0 0 0 0-2zm8.747-7.635c.205 0 .37.205.37.392a1 1 0 0 1 -.217.623l-1.496 1.878h1.343a.371.371 0 1 1 0 .742h-2.082c-.205 0-.37-.234-.37-.398 0-.246.076-.44.218-.618l1.5-1.877h-1.354a.371.371 0 0 1 0-.742zm5.047-2.454c.274 0 .496.305.496.64 0 .22-.074.446-.209.62l-2.19 2.838h1.923a.496.496 0 1 1 0 .991h-3.069a.49.49 0 0 1 -.495-.496c0-.404.075-.591.214-.767l2.233-2.835h-1.743a.496.496 0 1 1 0-.991zm6.112-2.454c.312 0 .565.324.565.796a1 1 0 0 1 -.199.6l-2.943 3.934h2.562a.606.606 0 1 1 0 1.213h-3.96c-.334 0-.606-.256-.606-.87a1 1 0 0 1 .21-.614l2.99-3.842h-2.323a.609.609 0 0 1 0-1.217z" fill="#282D37" style="fill: currentColor;fill: var(--db-icon-color, currentColor)" fill-rule="evenodd"/></svg>
