<svg id="icon" height="32" viewBox="0 0 32 32" width="32" xmlns="http://www.w3.org/2000/svg"><path d="m16 15a1 1 0 0 1 .993.883l.007.117v10.084l1.793-1.791a1 1 0 0 1 1.32-.083l.094.083a1 1 0 0 1 .083 1.32l-.083.094-3.5 3.5a1 1 0 0 1 -1.32.083l-.094-.083-3.5-3.5a1 1 0 0 1 1.32-1.497l.094.083 1.793 1.791v-10.084a1 1 0 0 1 1-1zm3.5-12c4.14 0 7.5 3.358 7.5 7.5l-.008.647c1.683 1.1 2.818 2.884 2.986 4.84l.017.255.005.258c0 3.441-2.87 6.242-6.509 6.484l-.244.012h-1.247a1 1 0 0 1 -.993-.883l-.007-.116a1 1 0 0 1 1-1h1.196c2.618-.09 4.683-1.984 4.799-4.292l.005-.205c0-1.637-.984-3.131-2.558-3.927a1 1 0 0 1 -.533-1.073 5.5 5.5 0 0 0 -10.281-3.557 1 1 0 0 1 -1.293.447 4.5 4.5 0 0 0 -6.288 3.459 1 1 0 0 1 -.53.745c-1.552.802-2.517 2.284-2.517 3.906 0 2.396 2.098 4.387 4.77 4.495l.23.005h1a1 1 0 0 1 .993.881l.007.117a1 1 0 0 1 -1 1.002h-1c-3.766 0-6.866-2.768-6.996-6.27l-.004-.23c0-2.138 1.118-4.084 2.92-5.284l.22-.14.069-.214a6.503 6.503 0 0 1 5.787-4.843l.262-.015.242-.004c.493 0 .98.055 1.451.163l.351.09.136-.172c1.337-1.831 3.73-3.081 6.062-3.081z" fill="#282D37" style="fill: currentColor;fill: var(--db-icon-color, currentColor)" fill-rule="evenodd"/></svg>
