<svg id="icon" height="64" viewBox="0 0 64 64" width="64" xmlns="http://www.w3.org/2000/svg"><g fill="none" fill-rule="evenodd" transform="translate(8 9.998)"><path d="m10 29.002a6 6 0 1 1 0 12 6 6 0 0 1 0-12zm21 0a6 6 0 1 1 0 12 6 6 0 0 1 0-12zm-21 2a4 4 0 1 0 0 8 4 4 0 0 0 0-8zm21 0a4 4 0 1 0 0 8 4 4 0 0 0 0-8zm-21 2.85a1.15 1.15 0 1 1 0 2.3 1.15 1.15 0 0 1 0-2.3zm21 0a1.15 1.15 0 1 1 0 2.3 1.15 1.15 0 0 1 0-2.3zm-9.014-4.333c.464.183.926.368 1.385.554a1 1 0 0 1 -.632 1.894l-1.496-.591a2 2 0 0 0 -1.305-.063l-1.567.617a1 1 0 0 1 -1.3-.557c-.19-.476 0-1.121.558-1.3.459-.186.92-.37 1.385-.554.88-.352 1.924-.398 2.972 0zm26.5-.182a1 1 0 0 1 -.708 1.125l-9.114 1.526a1 1 0 0 1 -.328-1.973 6272.45 6272.45 0 0 1 9-1.5 1 1 0 0 1 1.15.822zm-7.486-15.335a1 1 0 1 1 0 2c-.005 1.01.002 3 0 6a4.992 4.992 0 0 1 -5 5c-15 .002-15 .002-30 0a5.002 5.002 0 0 1 -5-5c-.002-2-.002-4 0-6a1 1 0 0 1 -1-1c0-.513.397-1 1-1 13.333-.003 26.666-.003 40 0zm-2 2h-36c-.002 2-.002 4 0 6a3 3 0 0 0 3 3c15 .002 15 .002 30 0a2.98 2.98 0 0 0 3-3c.002-2 .002-4 0-6z" fill="#282D37" style="fill: currentColor;fill: var(--db-icon-color, currentColor)" fill-rule="nonzero"/><path d="m41.291.002c1.415 0 2.721 1 2.963 2.532 1.413 8.934 2.824 17.872 4.234 26.812a1 1 0 0 1 -.832 1.143c-.507.08-1.058-.289-1.144-.831-1.413-8.934-2.824-17.872-4.233-26.812a.994.994 0 0 0 -.988-.844c-.43-.002-.86-.002-1.291 0a1 1 0 0 1 0-2c.43-.003.86-.003 1.291 0z" fill="#EC0016" style="fill:#EC0016;fill: var(--db-icon-pulse-color, #EC0016)"/></g></svg>
