<svg id="icon" height="24" viewBox="0 0 24 24" width="24" xmlns="http://www.w3.org/2000/svg"><path d="m18.29 11.044a.999.999 0 0 1 .652 1.253l-.91 2.885a2.073 2.073 0 0 1 -2.798 1.281l-2.813-1.212c-.41-.177-.921-.248-1.421-.248-2.136.006-4.273.006-6.411 0-.274-.008-.587.248-.585.581l-.004 5.416a1 1 0 0 1 -1 1 1 1 0 0 1 -.994-1.005v-5.411a2.583 2.583 0 0 1 2.58-2.58l6.414-.004c.718-.001 1.552.131 2.211.417.344.155.7.313 1.069.474l1.144.488.6.25c.053.02.089-.008.103-.048.315-.975.619-1.937.91-2.886a.999.999 0 0 1 1.253-.651zm-6.254 5.956a1 1 0 0 1 1 1v2.974a1 1 0 0 1 -1.998 0v-2.974a1 1 0 0 1 .998-.999zm-3.183-12.739a3.503 3.503 0 1 1 -2.681 6.472 3.503 3.503 0 0 1 2.681-6.472zm9.644-2.265a1 1 0 0 1 1 .999l-.001.93 1.407 2.422.934 1.461a1 1 0 0 1 -.842 1.537h-5.005a1 1 0 0 1 -.856-1.514l2.364-3.93v-.906a1 1 0 0 1 1-1zm-10.984 3.997a1.504 1.504 0 1 0 0 3.008 1.504 1.504 0 0 0 0-3.008zm10.965.156-.721 1.198h1.417z" fill="#282D37" style="fill: currentColor;fill: var(--db-icon-color, currentColor)" fill-rule="evenodd"/></svg>
