<svg id="icon" height="24" viewBox="0 0 24 24" width="24" xmlns="http://www.w3.org/2000/svg"><path d="m20.387 2.21c.374-.343.96-.278 1.32.083.36.36.413.966.083 1.32l-9.376 9.386 7.8.001c.625 0 1.072.095 1.49.319.419.223.754.558.977.977.198.37.319.705.319 1.705 0 .999-.092 1.28-.319 1.703a2.363 2.363 0 0 1 -.977.977c-.37.198-.753.294-1.263.315l-14.027.003-2.801 2.791c-.366.278-.96.278-1.32-.083-.36-.36-.402-1-.083-1.32zm-13.301 10.79-2.002 2a8.58 8.58 0 0 0 -.424 0c-.19.006-.336.005-.48.133-.145.128-.172.298-.178.526a7.455 7.455 0 0 0 -.001.424l-1.659 1.66-.023-.04c-.199-.369-.319-.703-.319-1.702 0-1 .092-1.282.319-1.705.223-.419.558-.754.977-.977.37-.198.838-.319 1.49-.319zm3.326 2-1.998 2 11.8.001c.173 0 .428.05.625-.14.198-.19.161-.519.161-.86 0-.34.04-.653-.137-.842-.177-.19-.476-.152-.648-.156h-9.803zm-7.447-12.815a1 1 0 0 1 1.406.153c1.13 1.404 1.178 2.999.177 4.545l-.234.35c-.38.625-.38 1.216-.135 1.794.045.105.138.267.281.485a1 1 0 0 1 -1.631 1.15 3.686 3.686 0 0 1 -.492-.856c-.488-1.155-.475-2.44.308-3.677l.243-.362c.525-.821.49-1.472-.075-2.176a1 1 0 0 1 .152-1.406z" fill="#282D37" style="fill: currentColor;fill: var(--db-icon-color, currentColor)" fill-rule="evenodd"/></svg>
