<svg id="icon" height="32" viewBox="0 0 32 32" width="32" xmlns="http://www.w3.org/2000/svg"><path d="m20.267 23.304c.414 0 .808.047 1.182.14.721.203.465 1.344-.237 1.154a3.963 3.963 0 0 0 -.9-.106c-.396 0-.713.075-.95.225s-.41.39-.517.72c-.108.33-.162.768-.162 1.314 0 .78.126 1.341.378 1.683s.666.513 1.242.513a4.044 4.044 0 0 0 .92-.104c.277-.07.51-.003.61.163.14.237.107.704-.216.875-.394.21-.93.254-1.404.254-1.056 0-1.854-.288-2.394-.864s-.81-1.413-.81-2.511c0-1.11.28-1.963.841-2.56.561-.598 1.367-.896 2.417-.896zm-6.94.144c.358 0 .68.22.807.555l1.932 5.037a.78.78 0 0 1 -.453 1.01.763.763 0 0 1 -.984-.445l-.374-.991h-2.25l-.395 1.076a.6.6 0 0 1 -.783.352.617.617 0 0 1 -.35-.797l2.041-5.243a.869.869 0 0 1 .81-.554zm-.197 2.025-.756 2.106h1.512zm2.87-23.348c.446 0 .883.366.875.875v1.744l1.078-1.077a.875.875 0 0 1 1.237 0 .887.887 0 0 1 0 1.237l-2.315 2.316v3.265l3.042-1.756.79-2.948a.875.875 0 0 1 1.072-.619.868.868 0 0 1 .618 1.072l-.337 1.258 1.297-.749a.875.875 0 0 1 1.195.32.89.89 0 0 1 -.262 1.16l-1.627.941 1.687.452a.875.875 0 0 1 .619 1.072c-.115.428-.553.73-1 .638l-3.45-.925-2.77 1.6 3.199 1.846 2.95-.79a.875.875 0 0 1 1.07.62c.115.427-.128.944-.618 1.071l-1.258.337 1.14.658a.875.875 0 1 1 -.875 1.516l-1.412-.816.452 1.687a.875.875 0 1 1 -1.69.453l-.905-3.377-2.927-1.69v3.627l2.315 2.316a.875.875 0 0 1 -1.237 1.237l-1.078-1.078v1.382a.871.871 0 1 1 -1.743 0l-.007-1.383-1.078 1.078a.875.875 0 1 1 -1.237-1.237l2.315-2.316v-3.627l-2.927 1.69-.905 3.377a.875.875 0 0 1 -1.071.62c-.428-.116-.754-.58-.619-1.073l.452-1.687-1.412.816a.875.875 0 0 1 -.875-1.516l1.139-.658-1.257-.337a.875.875 0 1 1 .453-1.69l2.949.789 3.199-1.847-2.771-1.599-3.377.906a.875.875 0 1 1 -.453-1.69l1.687-.453-1.569-.905a.875.875 0 0 1 .875-1.516l1.297.749-.337-1.258a.875.875 0 0 1 .619-1.072c.428-.114.904.092 1.071.62l.79 2.947 3.042 1.756v-3.265l-2.315-2.315a.875.875 0 0 1 0-1.237c.313-.313.808-.365 1.215-.027l1.1 1.104v-1.744c0-.483.392-.875.875-.875z" fill="#282D37" style="fill: currentColor;fill: var(--db-icon-color, currentColor)" fill-rule="evenodd"/></svg>