<svg id="icon" height="32" viewBox="0 0 32 32" width="32" xmlns="http://www.w3.org/2000/svg"><path d="m17.7338649 10.9983845c1.4065278-.000242 2.5770971 1.2096703 2.4153526 2.6177382l-.503599 4.9590349c1.1353315-.1217056 2.1287016.5713414 2.498 1.419 1.4642597-.2919829 2.1568211.5041189 2.824 1.363 1.8341008-.3597613 3.1219058 1.0711357 3.0364866 2.4134345l-.1990395 2.0600635-.1074307 3.2010442c-.0185249.551974-.4810056.98442-1.0329796.9658951-.5125473-.0172017-.965895-.4455944-.965895-1.0329796.0349452-1.0875481.0720781-2.1750759.1113985-3.2625835l.1898636-1.9878027c.0193693-.2026501-.1535954-.3987705-.4182597-.4200772-.22067-.0177654-.4097822.1278876-.5350161.4875073-.1227273 1.2830326-2.0800445 1.1855078-1.9909041-.1905275.0375841-.4132618.0771219-.8262708.1186134-1.2390271.0193712-.2026704-.1535894-.3987956-.4182341-.4201006-.2451928-.0197398-.4943671.1289849-.5242095.3743704-.028124.2695532-.053984.5397277-.07758.8105235-.1227092 1.2833275-2.0806922 1.2305894-1.9909768-.1897666.0598536-.6475045.1217416-1.2947469.185664-1.941727.0193707-.2026651-.1535896-.3987879-.4182341-.4201006-.2452017-.0197405-.4989271.1187692-.5242669.3728539-.0535912.5054438-.1048888 1.0115534-.1538929 1.5183287-.1300379 1.2823123-2.0965451 1.1850324-1.9897866-.2018642l.8959146-8.8345046c.0172139-.180161-.173113-.4003671-.4182852-.4201122-.2451722-.0197452-.5245717.1548033-.5245717.3783713-.4069653 4.0597157-.8115732 8.1200839-1.2138237 12.1811046l.40229 3.3183247c.0664684.5482704-.3241092 1.0466146-.8723796 1.113083-.5091082.0617206-1.0284031-.2943904-1.113083-.8723797-.0908003-.7369742-.2265075-1.9949097-.4071216-3.7738066l1.2135972-12.1607745c.1213596-1.2697161 1.2091163-2.1851846 2.5083889-2.1855436zm-6.8747928-8.51392713 3.0041733 5.00615298c1.0211219 1.73350339.5171383 3.50777415-1.621263 3.50531205h-1.2403639l-.001.5872352.7037818.7035945c.5338273.544024.8007409 1.0481074.8007409 1.5122504 0 .4780592-.2631588.8742039-.8235227 1.1891551.5726241.3209391.8235227.6950984.8235227 1.181625 0 .5742276-.2508986.9956581-.6669399 1.4045589l-.8375828.7948161.001 1.629c0 2.0945309-1.1551868 2.9456255-3.64850592 2.9950985l-1.34077776.0023001c-.44871672-.0022642-1.01071635.437558-1.01071635 1.0026014v3c0 .5522847-.44771525.9999943-1 .9999943-.51283584 0-1.00161847-.4513844-1-.9999943-.00215796-.9996765-.00215796-1.9996765 0-3-.00161847-1.3138935 1-2.9967668 2.56199963-3.0031356h1.74173364c1.04521799.0074371 1.69626673-.337946 1.70493389-.9968644l-.00866716-2c0-.4241608.37066667-.9411608 1.11200003-1.551-.53016728-.2803822-.69563729-.9706845-.69738156-1.4387486s.07082024-1.1358667.71138156-1.4692514l-.83327383-.8340603c-.15619517-.156269-.25534714-.3588988-.28405904-.5755356l-.00866716-1.1314041c0-1.08022306.78142541-2.00223516 2.00000003-2.00223516l1.3729419.0045118-3.23039553-5.48685428c-.28418435-.47355855-.13066624-1.08783054.34289231-1.3720149.43973293-.26388547 1.03607662-.16397546 1.37201492.34289231zm9.0917285.51456129c.9824747 0 1.5237388.47072677 1.5237388 1.32968354 0 .8882815-.5588446 1.36486844-1.5944195 1.36486844-.1881951 0-.4353745-.01760441-.6118253-.04104508l.0004067 1.17619504c0 .28724379-.2325649.51980864-.5194499.51980864s-.5194499-.23256485-.5194499-.51944986v-3.31472493c0-.28690892.2322779-.51533579.5254775-.51533579zm5.9210396 1.05320332c.2213946 0 .4916081.05630542.6601895.10957313.1841288.05812328.3019062.15018767.3019062.33553634 0 .18530083-.1517425.37395032-.3355603.33553634-.2500258-.08335787-.3939227-.11005152-.5794627-.11005152-.3119044 0-.448793.07658878-.448793.24131923 0 .10591352.0374811.17059062.1311002.22938362l.0476468.02159163.0876961.03067746.3824566.10074103c.5994112.15887029.837023.43537443.837023.97075437 0 .67183809-.4239172 1.02641399-1.2489568 1.02954738-.3564176 0-.7137921-.07400552-.9545133-.161908-.1770966-.06465318-.2364158-.19278749-.2290488-.3330966.0111941-.21395584.2039577-.36498068.427218-.28231647.1322245.04893837.4264288.11842319.673943.11842319.3462999 0 .4782613-.07656486.4782613-.27650414 0-.08242503-.025713-.14121803-.0898399-.19419872l-.0417753-.022984-.0514255-.0204602-.2542297-.07209823c-.0346969-.00935484-.0736218-.01981543-.1174122-.0315836-.6692788-.19991536-.901724-.45881509-.901724-1.01780313 0-.6589218.4180092-1.00007911 1.2253008-1.00007911zm-2.8267765 0c.2214186 0 .4875897.05503771.6602135.10957313.1841288.05812328.3018822.15018767.3018822.33553634 0 .18530083-.1517663.37395032-.3355602.33553634-.2500258-.08335787-.3939228-.11005152-.5794628-.11005152-.3119043 0-.4487691.07658878-.4487691.24131923 0 .10591352.0374572.17059062.1310525.22938362l.100104.04118783.1383151.039873.2793803.07194929c.5994352.15887029.8370469.43537443.8370469.97075437 0 .67183809-.4239172 1.02641399-1.2489328 1.02954738-.3564655 0-.7138399-.07400552-.9545373-.161908-.1770966-.06462926-.2364158-.19276357-.2290727-.3330966.011242-.21395584.2040056-.36498068.427242-.28231647.1322245.04893837.4264287.11842319.673919.11842319.3462999 0 .4782852-.07656486.4782852-.27650414 0-.08242503-.0257129-.14121803-.0898399-.19419872l-.0417752-.022984-.0514256-.0204602-.3716419-.10368183c-.6692787-.19991536-.901724-.45881509-.901724-1.01780313 0-.6589218.4179853-1.00007911 1.2253008-1.00007911zm5.2242779-.64251334c.2172865 0 .3411584.11689199.3687313.2722871l.0059126.0687267v.39566881l.4680718-.00260718c.1808519-.00112419.3274756.14659982.3274756.3274517 0 .1582454-.1122405.29004681-.2614732.32073288l-.0660024.00674275-.4680718.00069365v1.56849126c0 .23483716.0836689.31168905.3445778.31168905l.0560237-.00221384.1022725-.01206583c.2232604-.04561361.3499595.1326311.3499595.29623735 0 .16284085-.1077553.28939651-.2522263.32991537-.1350947.03791168-.2782263.04951242-.4359006.04951242-.7334924 0-1.0688799-.2740716-1.1079382-.92402984l-.0038907-.13503364v-1.4825023l-.0913708-.00069365c-.1808518-.00138731-.3274756-.14662374-.3274756-.32747563 0-.15696872.1122588-.2887021.2614801-.31838161l.0659955-.00624764.1584159.00026311.1152658-.36529163c.0669255-.21197056.1370561-.37186936.3901675-.37186936zm-21.76772313.58844894c.82844796 0 1.5.67157902 1.5 1.50001738 0 .8284036-.67155204 1.49998262-1.5 1.49998262-.82844795 0-1.5-.67157902-1.5-1.49998262 0-.82843836.67155205-1.50001738 1.5-1.50001738zm13.35501293-.24604784h-.5883368v1.20616559c.1471261.02344067.3411574.03518492.5177995.03518492.4883073 0 .6823385-.18231095.6823385-.64129347 0-.43535051-.1705906-.60005704-.6118012-.60005704z" fill="var(--db-icon-color, currentColor)" fill-rule="evenodd"/></svg>
