<svg id="icon" height="24" viewBox="0 0 24 24" width="24" xmlns="http://www.w3.org/2000/svg"><path d="m10.033 9c1.1543 0 2.0962.934 2.331 2.1786l.5166 2.825 3.6541.0047c.4476 0 .8481.3063.9659.7539l1.5076 5.987c.1414.6125-.3298 1.2486-.9658 1.2486-.4711 0-.8952-.3298-.9894-.7539l-1.2956-5.2432h-3.7221c-.4947 0-.8951-.3534-.9864-.8329l-.6575-3.6604c-.047-.2349-.2349-.5074-.5636-.5074h-.4227c-.5401 0-.9976-.4347-.9976-1 0-.5418.4476-1 .9894-1zm-7.0436-6c1.8139 0 3.0118 1.2721 3.0118 3.2509v2.6619l1.629 8.1272c.1194.5886.636.96 1.2249.96h4.1567c.5418 0 .9894.5006.9894 1.0424 0 .5654-.4476.9576-.9894.9576h-4.1567c-1.5547 0-2.8733-1.0519-3.1802-2.5595l-1.6054-7.9858c-.0479-.2355-.0707-.4476-.0707-.6596v-2.5442c0-.8716-.3498-1.2485-1.0094-1.2485-.5418 0-.9894-.4476-.9894-.9894 0-.5654.4476-1.013.9894-1.013zm17.998835-1c.56472 0 1.011765.44646134 1.011765 1.01044413 0 .54045847-.447045.98691981-1.011765.98691981h-4.494105c-.28236 0-.4940548.23504288-.4940548.49350996v4.04177651c0 .25846708.2116948.49340985.4940548.49340985h4.494105c.56472 0 1.011765.44646135 1.011765.98701994 0 .5404585-.447045.9869198-1.011765.9869198h-4.494105c-1.3646899 0-2.49413-1.10444126-2.49413-2.46734959v-4.04177651c0-1.36290834 1.1294401-2.4908739 2.49413-2.4908739zm-10.985935 1c1.1072 0 2.0024.8952 2.0024 2.0024s-.8952 2.0024-2.0024 2.0024-2.0023-.8952-2.0023-2.0024.8951-2.0024 2.0023-2.0024z" fill="var(--db-icon-color, currentColor)" fill-rule="evenodd"/></svg>
