<svg id="icon" height="24" viewBox="0 0 24 24" width="24" xmlns="http://www.w3.org/2000/svg"><path d="m14.75 4a1 1 0 0 1 1 1c0 .513-.402 1-1 1-2.419.002-4.838.002-7.257 0-.143 0-.313.132-.358.292l-.875 3.708h6.74c0-1 1-2 2-2-.006-.537.5-1 .993-1h3.007c.446 0 1 .5 1 1 1 0 2 1 2 2v10c0 1-1 2-2 2h-5c-1 0-2-1-2-2v-1.024a13.23 13.23 0 0 1 -1 .024c-.936 0-2.52-.095-4.75-.286v.286a1 1 0 0 1 -1 1h-1a1 1 0 0 1 -1-1v-1.757a2.99 2.99 0 0 1 -.395-1.012l-.034-.223-.371-3.221a2.498 2.498 0 0 1 .033-.787h-.835c-.37 0-.648-.321-.648-.69v-.666a.63.63 0 0 1 .648-.644h1.558l.955-4.091c.246-1.055 1.098-1.909 2.332-1.909 2.419-.002 4.838-.002 7.257 0zm4.75 6h-4c-.245 0-.5.27-.5.5-.003 3-.003 6 0 9 0 .245.197.5.5.5 1.333.003 2.667.003 4 0 .297 0 .5-.254.5-.5v-9c0-.245-.215-.5-.5-.5zm-2.196 2.39a.75.75 0 0 1 1.363.619l-.669 1.254h.245c.534.002.93.574.655 1.112l-1.226 2.234a.75.75 0 0 1 -1.019.296.757.757 0 0 1 -.296-1.018c.165-.3.371-.675.617-1.127h-.232a.753.753 0 0 1 -.658-1.106c.405-.757.812-1.512 1.22-2.264zm-4.304-.39h-7.096l-.028.003a.5.5 0 0 0 -.442.464l.002.09.059.511 1.17.196a1 1 0 0 1 -.213 1.985l-.116-.013-.602-.1.074.643a1 1 0 0 0 .786.864l.115.017.426.039 1.193.102 1.063.082.935.06.804.038.464.014.406.005.406-.005.464-.014.13-.006v-.967h-3.145l-.117-.006a1 1 0 0 1 -.68-.39 21.927 21.927 0 0 1 -.42-.705.994.994 0 0 1 .258-1.304c.369-.279 1.086-.309 1.401.193l.135.216 2.568-.002z" fill="var(--db-icon-color, currentColor)" fill-rule="evenodd"/></svg>
