<svg id="icon" height="24" viewBox="0 0 24 24" width="24" xmlns="http://www.w3.org/2000/svg"><path d="m2 21.286v-8.576c0-.39.326-.711.75-.711h.42c5.124.001 10.83 4.273 10.83 7.144 0 2.01-1.8 2.857-5.43 2.857h-5.81c-.423 0-.76-.324-.76-.714zm0-7.272v3.31c.24-.002.525-.002.856 0 2.996.013 4.095.168 5.652.64a.73.73 0 0 0 .73-.167l.372-.355a.713.713 0 0 0 .22-.57.69.69 0 0 0 -.323-.517 13.1 13.1 0 0 0 -6.717-2.341 5.61 5.61 0 0 0 -.79 0zm7.544-10.412 5.029 2.675 5.674-1.759a.983.983 0 0 1 1.21.68 1.013 1.013 0 0 1 -.639 1.251l-12.864 3.988a.977.977 0 0 1 -.283.044.974.974 0 0 1 -.699-.298l-1.177-1.21a1.024 1.024 0 0 1 -.262-.98.997.997 0 0 1 .704-.715.971.971 0 0 1 .956.273l.759.78 3.93-1.22-3.275-1.742a1 1 0 0 1 .937-1.767z" fill="var(--db-icon-color, currentColor)" fill-rule="evenodd"/></svg>
