<svg id="icon" height="32" viewBox="0 0 32 32" width="32" xmlns="http://www.w3.org/2000/svg"><path d="m5.204 5.27 2.161.45a2.5 2.5 0 0 1 1.975 2.737l-1.46 7.893c1.662.963 2.94 1.948 3.865 2.985.833.93 1.254 2.163 1.289 3.664l10.001.001a3.5 3.5 0 1 1 .302 2.001l-11.337-.001c-.31.001-1.036-.238-.996-1.087.13-1.495-.135-2.557-.75-3.246-.664-.743-1.585-1.485-2.762-2.218l-.363 1.952a3.5 3.5 0 1 1 -1.964-.385l2.185-11.757a.5.5 0 0 0 -.305-.555l-2.247-.475c-.54-.112-.89-.7-.768-1.206a.994.994 0 0 1 1.175-.752zm.296 16.73a1.5 1.5 0 1 0 0 3 1.5 1.5 0 0 0 0-3zm21 0a1.5 1.5 0 1 0 0 3 1.5 1.5 0 0 0 0-3zm1.5-6a1 1 0 1 1 0 2c-3.043 0-4.343.587-5.077 2.379a1 1 0 0 1 -1.85-.758c1.101-2.692 3.16-3.62 6.926-3.62z" fill="var(--db-icon-color, currentColor)" fill-rule="evenodd" transform="matrix(-1 0 0 1 32 0)"/></svg>
