<svg id="icon" height="20" viewBox="0 0 20 20" width="20" xmlns="http://www.w3.org/2000/svg"><path d="m14.647 5.735a40.59 40.59 0 0 1 -.684.137l1.305 4.178a2.75 2.75 0 1 1 -1.447.4l-.328-1.052-3.182 3.358a1 1 0 0 1 -.348.237c-.474.194-1.05 0-1.304-.547-.24-.583-.48-1.167-.716-1.751l-.57.714a2.75 2.75 0 1 1 -1.088-1.04l1.009-1.263-.841-2.056h-.453a.75.75 0 0 1 0-1.5c.665-.002 1.33-.002 1.995 0a.75.75 0 0 1 .75.75c0 .38-.314.745-.674.745.122.321.256.648.4.98l4.2-1.26-.387-1.242a.74.74 0 0 1 .569-.958c.64-.13 1.094-.22 1.5-.3.294-.059.751.073.865.52.16.616-.343.908-.57.95zm-9.647 5.815a1.25 1.25 0 1 0 0 2.5 1.25 1.25 0 0 0 0-2.5zm10.25 0a1.25 1.25 0 1 0 0 2.5 1.25 1.25 0 0 0 0-2.5zm-2.907-3.12-3.301.99.712 1.741z" fill="var(--db-icon-color, currentColor)" fill-rule="evenodd"/></svg>
