<svg id="icon" height="64" viewBox="0 0 64 64" width="64" xmlns="http://www.w3.org/2000/svg"><g fill="none" fill-rule="evenodd" transform="translate(4 5)"><path d="m28.407 37 4.141.001h2.509a5.527 5.527 0 0 1 4.813 3.479l4.086 13.226a1 1 0 0 1 -.662 1.25c-.522.13-1.042-.063-1.25-.662l-3.987-12.96c-.45-1.269-1.542-2.204-3.057-2.334l-.393-.001h-7.999l-3.608.001c-.552 0-1-.427-1-1s.478-1 1-1zm-23.154-32.357a5.79 5.79 0 0 1 1.745 3.957l.002 8.397c-.001 1.654.23 3.41.691 5.269l5.756 20.838c.583 1.586 2.078 1.906 2.553 1.896h13a.999.999 0 1 1 0 2l-.19-.001h-12.848c-1.91-.075-3.591-1.256-4.336-3.076l-.082-.212-5.784-20.923c-.467-1.714-.72-3.643-.76-5.788v-8.14a3.795 3.795 0 0 0 -3.957-3.86 1 1 0 0 1 -.086-2 5.795 5.795 0 0 1 4.296 1.643zm14.417 16.656 2.763 10.105c.043.29.258.518.482.58l10.074.01c.553 0 1.01.454 1.01 1.006a.995.995 0 0 1 -1.01.995l-.094.002-.098.001-.21.001h-.182l-.104.001h-.233l-.13.001h-.6l-.172.001h-4.213l-.323-.002h-.674l-.35-.001h-.724l-.374-.001-.775-.001h-.81a2.704 2.704 0 0 1 -2.437-2.13l-2.658-9.79a3.195 3.195 0 0 0 -.802-1.314 3.013 3.013 0 0 0 -1.339-.753 3.016 3.016 0 0 0 -1.468-.035 1 1 0 0 1 -.438-1.952 5.07 5.07 0 0 1 5.89 3.275zm31.83-21.299a2.5 2.5 0 0 1 2.5 2.5v15a2.5 2.5 0 0 1 -2.5 2.5h-15a2.5 2.5 0 0 1 -2.5-2.5v-15a2.5 2.5 0 0 1 2.5-2.5zm-15 2a.5.5 0 0 0 -.5.5c-.003 5-.003 10 0 15 0 .245.205.5.5.5 5 .003 10 .003 15 0 .245 0 .5-.2.5-.5.003-5 .003-10 0-15a.5.5 0 0 0 -.5-.5c-5-.003-10-.003-15 0zm-21 2a5.5 5.5 0 1 1 0 11 5.5 5.5 0 0 1 0-11zm0 2a3.5 3.5 0 1 0 0 7 3.5 3.5 0 0 0 0-7z" fill="var(--db-icon-color, currentColor)" fill-rule="nonzero"/><path d="m41.938 7.369c-.142.069-.641.216-.885-.24-.18-.426.127-.84.394-.958 1.447-.688 2.218-1.05 2.315-1.087a1.26 1.26 0 0 1 .454-.084c.231 0 .413.077.545.232a.82.82 0 0 1 .198.55v8.408h1.087c.165 0 .588.14.588.588 0 .465-.423.587-.588.587h-4.351c-.165 0-.587-.122-.587-.587s.422-.588.587-.588l1.218-.007.002-7.231z" fill="var(--db-icon-pulse-color, #EC0016)"/></g></svg>
