<svg id="icon" height="24" viewBox="0 0 24 24" width="24" xmlns="http://www.w3.org/2000/svg"><path d="m13.527864 2.15c.3687071 0 .7331946.07153716 1.0734636.2098904l.778804.37984649c.4198817.20994086.5900724.72051294.3801315 1.14039467-.1937916.38758312-.6437423.56241177-1.0420671.42189092l-.6760363-.33061375c-.1197628-.05988141-.2487485-.09823311-.3810744-.11366638l-.8110853-.00774235v2.15h1.5861148c1.0438282 0 1.5121354.11781261 2.0123298.38531951.5001944.26750689.898729.66604153 1.1662359 1.16623593.2623173.4904907.367495.96282039.3832029 1.78049286l.0021166 7.8221239c0 1.3701896-.1336744 2.0624124-.5188859 2.7826952-.3546604.6631574-.8810893 1.1895863-1.5442467 1.5442467-.672264.3595308-1.3200845.4999447-2.5174876.5170687l-2.573552.0018172c-1.37018965 0-2.06241236-.1336744-2.78269521-.5188859-.66315737-.3546604-1.18958629-.8810893-1.54424673-1.5442467-.35953072-.672264-.49994467-1.3200845-.51706861-2.5174876l-.00181725-7.8554946c0-.96378133.09915518-1.47724899.38531951-2.01232976.26750689-.5001944.66604153-.89872904 1.16623593-1.16623593.4904907-.2623173.96282039-.36749497 1.78049286-.38320294l1.8179517-.00211657v-2.15h-.677864c-.1338989 0-.2664187.02338136-.3916764.06875533l-.70032804.34150778c-.41988173.20994086-.93045381.03975017-1.14039467-.38013155-.19379157-.38758313-.06368405-.85244089.28772753-1.08678825l.67011279-.3424608c.32978165-.16489083.80242279-.30088251 1.27455879-.30088251zm-5.14448513 14.8567277c-.49733868.0577651-.88337887.4804365-.88337887.9932723s.38604019.9355072.88337887.9932723h1.23324226c.49733867-.0577651.88337887-.4804365.88337887-.9932723s-.3860402-.9355072-.88337887-.9932723zm6.00000003 0c-.4973387.0577651-.8833789.4804365-.8833789.9932723s.3860402.9355072.8833789.9932723h1.2332422c.4973387-.0577651.8833789-.4804365.8833789-.9932723s-.3860402-.9355072-.8833789-.9932723zm-4.760465-9.3067277c-.66863905 0-.91110373.06961921-1.15554818.20034953-.24444444.13073032-.43628587.32257175-.56701619.56701619-.11884575.22222222-.18718644.44280828-.19862983.9834367l-.0017197 4.96074298c0 .5307351.41459677.969032.94451558.9984569 1.07874581.0599985 2.19724062.0899977 3.35548442.0899977 1.1582608 0 2.2767714-.0300001 3.3555318-.0900004.4920233-.0273661.9444682-.4354592.9444682-.9984214v-4.7886643c0-.66863905-.0696192-.91110373-.2003495-1.15554818-.1307303-.24444444-.3225718-.43628587-.5670162-.56701619-.2222222-.11884575-.4428083-.18718644-.9834367-.19862983zm4.3770861 1.2c.469442 0 .85.38055796.85.85 0 .4333311-.3547839.85-.85.85h-4c-.46944204 0-.85-.380558-.85-.85 0-.43333111.34976859-.85.85-.85z" fill="var(--db-icon-color, currentColor)" fill-rule="evenodd"/></svg>
