<svg id="icon" height="20" viewBox="0 0 20 20" width="20" xmlns="http://www.w3.org/2000/svg"><path d="m15 10.059c-.077 0-.15.016-.226.023l-.52-1.622h1.747c.233 0 .451-.116.582-.311l.503-.75c.215-.321.129-.756-.192-.971-.321-.218-.755-.129-.971.191l-.295.439h-1.822l-.649-2.027c-.093-.289-.362-.486-.667-.486h-1.5c-.387 0-.7.313-.7.7s.313.7.7.7h.989l.596 1.862-2.535 3.26c-.014 0-.026-.008-.04-.008h-.582l-1.228-4.1h.06c.387 0 .7-.313.7-.7s-.313-.7-.7-.7h-2c-.387 0-.7.313-.7.7s.313.7.7.7h.479l.579 1.933-.93 1.557c-.405-.243-.873-.391-1.378-.391-1.489 0-2.7 1.211-2.7 2.7s1.211 2.7 2.7 2.7c1.42 0 2.576-1.106 2.68-2.5h2.32c.216 0 .42-.1.553-.271l2.54-3.266.361 1.128c-.696.489-1.155 1.294-1.155 2.208 0 1.489 1.211 2.7 2.7 2.7s2.7-1.211 2.7-2.7-1.211-2.7-2.7-2.7zm-10 4c-.717 0-1.3-.583-1.3-1.3s.583-1.3 1.3-1.3 1.3.583 1.3 1.3-.583 1.3-1.3 1.3zm10 0c-.717 0-1.3-.583-1.3-1.3s.583-1.3 1.3-1.3 1.3.583 1.3 1.3-.583 1.3-1.3 1.3z" fill="var(--db-icon-color, currentColor)" fill-rule="evenodd"/></svg>
