<svg id="icon" height="24" viewBox="0 0 24 24" width="24" xmlns="http://www.w3.org/2000/svg"><path d="m16.6721245 6.17261749c1.1600403 0 2.0984787.92215571 2.1778891 2.07591401l.0054443 2.7514685c0 .2017212-.1002091.4385611-.216191.5663799-.0773213.0852125-1.5666761 1.7518791-4.4680645 5-.1343831.1503818-.3490779.2836201-.6338089.2836201-.1898208 0-1.4192186 0-3.6881935 0 .0747428 1.7060059-1.2750913 3-2.8492 3-1.51789054 0-2.90484533-1.2357942-2.8508-3h-1.149c-.43333111 0-.79092668-.3242624-.84337729-.7433778l-.00662271-1.7363278c0-1.5861716 1.08087372-2.8039145 2.66957754-2.840842l4.33442246-.0048349-.4612-1.5986175-2.6928.00092308c-.48538791 0-.85-.41666889-.85-.85s.34264187-.85.85-.85h2.83733333c.63258146 0 1.18867637.39739433 1.41195207.98009177l1.7225146 5.94298515h1.184l3.999-4.475.0004579-2.26776712c0-.26834962-.1770688-.48204541-.3984834-.5262204l-2.08485-.00839499c-.469442 0-.85-.38055796-.85-.85 0-.43333111.3490779-.85.85-.85zm2.3278755 7.97738251c1.5741087 0 2.85 1.2758913 2.85 2.85s-1.2758913 2.85-2.85 2.85-2.85-1.2758913-2.85-2.85 1.2758913-2.85 2.85-2.85zm-13.1508 2.6915229c-.03789685.7944937.4772799 1.3084771 1.1508 1.3084771s1.19932427-.5139834 1.15-1.3084771zm13.1508-.9915229c-.6352246 0-1.15.5147754-1.15 1.15s.5147754 1.15 1.15 1.15 1.15-.5147754 1.15-1.15-.5147754-1.15-1.15-1.15z" fill="var(--db-icon-color, currentColor)" fill-rule="evenodd"/></svg>
