<svg id="icon" height="24" viewBox="0 0 24 24" width="24" xmlns="http://www.w3.org/2000/svg"><path d="m9.73369079 16.0867806c.49733451 0 1.14068251.5769944.85742051 1.2782585-.87408476 1.99482-.87542023 1.9933073-1.74915757 3.9885296-.17225079.4240916-.49564062.5714313-.85581659.5714313-.51652308 0-1.16044204-.5714313-.82088388-1.3242971.85473096-1.977209.966156-2.2410298 1.7128144-3.9736536.16261112-.3621345.54273477-.5402687.85562313-.5402687zm2.73854931-7.40606286c-.1015858 1.61319056-.2043314 3.22623286-.3082368 4.83912676.8953717.883043 1.7861606 1.7755872 2.6723668 2.6776327.0516829.0526066.2138801.3762837.2281065.4325088.5284545 2.0885361.5286148 2.0901161 1.0461605 4.1855892.1176669.582008-.3672022 1.1087176-.9133763 1.1087176-.3762306 0-.6956759-.17443-.8831559-.6851781-.331748-1.3013493-.6602557-2.6051816-.9855232-3.9114969l-2.8480415-2.8369485c-.1557746-.1751199-.2231426-.3259488-.212967-.536096.1454097-2.311283.2316637-3.6754398.2587619-4.09247059.003282-.08919202-.0503576-.09256969-.1054826-.07310414-.1543237.04873609-.54466949.22335753-1.17103742.52386433-.10469657.6160017-.21165887 1.2307893-.3208869 1.8443628-.09879065.484986-.49373282.768522-.91202398.768522-.50941416 0-1.02713378-.4444303-.91234624-1.0518615.16833213-1.172848.16443703-1.1750626.33946934-2.3447531.04825271-.42299373.42763729-.64838969.57563213-.71394115.99926448-.42241737 1.99945257-.84000643 3.00056447-1.25276716 1.0176068-.40111249 1.4976301.34651607 1.4520162 1.11829295zm2.3946601 1.08366557c.603083.31230329 1.1846138.61211889 1.7445923.89944669.3319792.1500065.5139074.5096076.5139074.7961401 0 .5426687-.5139074 1.1394368-1.3455761.8548334-.5576341-.2798059-1.1466743-.5831459-1.7671206-.9100203-.5169015-.3315873-.5496114-.8858583-.4573592-1.1440708.1528724-.4278879.7272015-.77137136 1.3115562-.49632909zm-2.8159901-7.68939461c1.0663143 0 1.925.85867966 1.925 1.92499109 0 1.06626645-.8587418 1.92508083-1.925 1.92508083-1.0463305 0-1.925-.86950607-1.925-1.92508083-.0113752-1.21708178.8519808-1.9166294 1.925-1.92499109z" fill="var(--db-icon-color, currentColor)" fill-rule="evenodd"/></svg>
