<svg id="icon" height="20" viewBox="0 0 20 20" width="20" xmlns="http://www.w3.org/2000/svg"><path d="m6.5 13c.82842712 0 1.5.6715729 1.5 1.5s-.67157288 1.5-1.5 1.5-1.5-.6715729-1.5-1.5.67157288-1.5 1.5-1.5zm-.2602485-7.06528775c.2602485.03378718 1.5659866.36765034 3.17381193 1.07268856 1.80472727 1.00511123 3.21071757 2.05960398 4.21693507 3.17255199.2366926.2617989.2869808.6426274.1263568.9568916l-1.2105397 2.4133794c-.1442304.2821899-.4334707.460709-.750374.4631308-1.3138802.0051082-2.10624428.0051082-2.37709228 0-.10445096-1.3854394-1.50159275-2.5133546-2.91884932-2.5133546-1.17863684 0-2.19852224.6796958-2.6890719 1.668503l-.65163465-.0739057c-.38357456-.0434549-.68970077-.3399304-.74541627-.7219167-.1624176-1.1742714-.2436264-1.863286-.2436264-2.0670438 0-.2037579.1420637-.83877299.42619109-1.90504536.3707233-1.66723207 1.97862751-2.73950851 3.64330963-2.46587919zm11.7357104 6.45635305c.1074178.4198062-.1362931.9298485-.612765 1.0341755l-2.1519917.5506403c-.4547901.1163693-.9178062-.157975-1.0341755-.6127651-.1074178-.4198062.124114-.901343.6127651-1.0341755l2.1519916-.5506402c.4547901-.1163693.9178063.1579749 1.0341755.612765zm-13.7412115-4.75994958-.54438412 1.59786875c-.14967774.44494089.08968033.92697453.53462123 1.07665233.41071467.138164.853035-.055158 1.03637962-.4356755l.30663591-.8899613c1.01501624.19482491 1.80552468.45696246 2.37152533.78641265l1.62435648.96281865c.40274334.2411921.92475615.110229 1.16594825-.2925144.2210928-.3691814.1294717-.83858225-.1975487-1.1000313l-1.41505497-.85648271c-.75883709-.45444702-1.58089197-.79219854-2.4385519-1.00258668l-1.51107485-.31104929c-.38459629-.07706429-.76674418.11895431-.93285228.4645488z" fill="var(--db-icon-color, currentColor)" fill-rule="evenodd"/></svg>
