<svg id="icon" height="24" viewBox="0 0 24 24" width="24" xmlns="http://www.w3.org/2000/svg"><path d="m17.9293233 17.8196705c-.2057277.644858-.5103417 1.2469169-.9138421 1.8061767-.3049682.4226921-.6545539.7662115-1.0879263 1.0023637.0467649.1132473.0724451.2395192.0724451.3717891 0 .5128358-.3860402.9355072-.8833789.9932723l-6.1166211.0067277c-.55228475 0-1-.4477153-1-1 0-.1369109.02751389-.2673956.07731405-.3862265-.36404179-.199489-.72834202-.5164845-1.07279367-.9819538-.43747596-.5911763-.74811087-1.1947991-.93190473-1.8108685.58433246.475421 1.27606685.9668807 2.13653719 1.5201697.587854.3779946 1.38283576.6628862 3.79087226.6629074 2.4080365.0000213 3.1606676-.2578234 3.790718-.6628405.8615-.5538005 1.5538385-1.0456542 2.1385802-1.5215173zm-4.9189162-15.8196705c2.0093802 0 3.44021.75606464 4.4065218 2.04074074.8855107 1.17725381 1.4808397 2.78557601 1.5193461 4.36234925l.0576432 2.29850121c.0272265 1.0856789-.0370234 2.1705433-.1914921 3.2432355l-.5237188.6981952c-.8107847 1.0271206-1.7348311 1.8364369-3.5694504 3.0157903-.0502257.0322867-.5252617.3444395-1.7693241.3444395-1.2921745 0-.4800856 0-.9357972 0-.4557115 0-.2966111 0-.91306 0-1.31148881 0-1.72495775-.295973-1.80022844-.3443726-1.83438411-1.179523-2.75863718-1.9890155-3.56946326-3.0159377l-.52830145-.706433c-.12370111-.8646084-.19281549-2.0236623-.18710796-3.1911072.00380503-.77829657.02331118-1.55906698.05851847-2.34231121.03937859-1.57620186.57037147-3.10099658 1.51913983-4.36234925.91799626-1.2204423 2.26885964-1.96381275 4.11865531-2.03509869zm1.0840711 11.5743002-.5432358 1.609695c-.1745246.5239843.1087684 1.0902377.6327528 1.2647624.4865569.1620586 1.00956-.0706338 1.2215266-.5242336l.5432358-1.6096949c.1745246-.5239844-.1087684-1.0902378-.6327528-1.2647624-.4865569-.1620586-1.00956.0706337-1.2215266.5242335zm-4.20328611-.0061715c-.21505801-.4521423-.73963745-.681259-1.22507673-.5158828-.48543928.1653763-.76104285.6670941-.65534324 1.1564918l.58662518 1.7219578c.215058.4521423.73963745.6812591 1.22507673.5158828.48543927-.1653762.76104287-.667094.65534327-1.1564918zm2.10887461-9.56814449c-.7168331 0-1.4680096 0-2.79700357.37429443-1.32899402.37427865-2.22851423 1.88764647-2.01803543 3.2250825.18557017.82024981.30393224 1.31588811.35508623 1.48691489.22278198.74484295.82879574 1.30675457 1.57846013 1.47813697 1.11293014.1913076 2.07389424.2891251 2.88289224.2934525.8089981.0043274 1.7163097-.0834965 2.7219348-.2634717.8239244-.1227101 1.5025758-.71079552 1.7412505-1.50888297.0745313-.24921762.2930691-1.12499091.3247616-1.31364514.3286402-1.45853251-.6416961-3.01928592-1.9861758-3.3955363-1.3444797-.37625037-2.0863377-.37634518-2.8031707-.37634518z" fill="var(--db-icon-color, currentColor)" fill-rule="evenodd"/></svg>
