<svg id="icon" height="20" viewBox="0 0 20 20" width="20" xmlns="http://www.w3.org/2000/svg"><path d="m9.90904522 4.375c-1.87351747 0-3.95904522 1.1894689-3.95904522 3.40084263 0 1.96721268 1.34640973 2.68693927 2.7825801 3.14341137.61497983.1910498.97011736.278053 1.7970448.5193102.915925.294002 1.6028687.6689014 1.6028687 1.4833835 0 .647049-.8241045 1.2539771-1.8484409 1.2539771-1.59034318 0-3.29680201-.9655537-4.24666495-2.4048984v2.2503146c.9612653.8921017 2.72269847 1.603659 4.24666495 1.603659 2.7352367 0 4.3591291-2.0174557 4.3591291-3.7509178 0-1.90762561-1.2411219-2.60472633-2.6201462-3.0198029-.6946095-.18367085-1.2447483-.32438563-1.6504163-.42214433-1.11590645-.28731476-2.01261702-.63920378-2.01261702-1.62588257 0-.62069508.54978296-1.15092129 1.51142821-1.15092129 1.59917351 0 3.14392171.87717774 4.10988411 2.01706234v-1.87467222c-1.1117242-.89249501-2.5106882-1.42272123-4.07226938-1.42272123z" fill="var(--db-icon-color, currentColor)" fill-rule="evenodd"/></svg>
