<svg id="icon" height="20" viewBox="0 0 20 20" width="20" xmlns="http://www.w3.org/2000/svg"><path d="m12 18h-4c-.47617977 0-.87462379-.3328263-.97539303-.7785399-.5997502-.4256908-1.11827167-1.0688272-1.5170668-2.0210153.70156082.5050433 1.19928139.847759 1.49316173 1.0281471.44082051.2705822.99688903.4691461 1.65831841.5131395l2.68201119-.0000008c.5787493-.0384977 1.170267-.2161111 1.6597816-.5131387.3263431-.1980184.9035721-.5993639 1.7316871-1.2040365-.415951 1.0031362-1.0164424 1.7828798-1.7733761 2.259354-.1479689.4773937-.4676769.7160906-.9591241.7160906zm-2.02607268-16c3.68365568 0 5.47394148 2.50241681 5.51990268 6.00580035l.0031773 2.00772475c0 .779773-.0362405 1.7453218-.1471978 2.6123798-.3643044.3163789-.815965.6757986-1.3549818 1.0782592-.5390169.4024605-1.0863092.7889157-1.641877 1.1593656-.3190719.2158843-.782118.3864703-1.2608493.3864703h-2.18416954c-.47410839 0-.94573737-.1751733-1.26085673-.3864528-.31511936-.2112796-1.06081842-.7298989-1.64188819-1.1593723-.38737986-.2863156-.76803525-.5857147-1.14196618-.8981973-.24414233-1.3115788-.3662135-2.2443267-.3662135-2.7982438 0-.11465822 0-.78196937 0-2.00193345 0-3.50338354 1.70759797-6.00580035 5.47692006-6.00580035zm-1.80109279 9.1684462c-.16287717-.3315851-.54979432-.500029-.91000535-.3799587-.36021104.1200704-.5686784.4869758-.50002906.8499702l.56436535 1.6930961c.16287717.3315851.54979432.500029.91000535.3799587.36021104-.1200704.5686784-.4869758.50002906-.8499702zm4.56433627-.3799587c-.360211-.1200703-.7471282.0483736-.9100053.3799587l-.5643654 1.6930961c-.0686493.3629944.139818.7298998.5000291.8499702.360211.1200703.7471282-.0483736.9100053-.3799587l.5643654-1.6930961c.0686493-.3629944-.139818-.7298998-.5000291-.8499702zm-2.7371175-6.7884875c-1.1538922 0-2.07180625.18198215-2.75374211.54594646-.77294452.41253765-1.27911759 1.35044636-1.14406898 2.27565499.19638644.94710721.32102349 1.51122541.37391113 1.69235459.15946524.54613529.59623659.96232757 1.14120936 1.09951653.96913667.17325251 1.7633887.26173884 2.3827561.26545901s1.3686542-.07549505 2.2478603-.23764567c.6083019-.09706784 1.106317-.53577338 1.2793432-1.12697158.0775544-.2650062.3283512-1.3957043.3727975-1.69592836.1279031-.8639539-.6736265-2.0626165-1.3332281-2.36492429-.6596015-.30230779-1.5152143-.45346168-2.5668384-.45346168z" fill="var(--db-icon-color, currentColor)" fill-rule="evenodd"/></svg>
