<svg id="icon" height="32" viewBox="0 0 32 32" width="32" xmlns="http://www.w3.org/2000/svg"><path d="m22.3166691 12.0098173c-1.649186-1.8401704-4.1327351-3.45782112-7.0455155-3.45782112-1.6485347 0-2.5910198.90895923-2.5910198 1.97300792 0 4.4773659 10.7711649 1.3297238 10.7711649 8.6877082 0 2.9716494-2.7838156 6.4301448-7.4727928 6.4301448-2.6125139 0-5.6321137-1.2198125-7.27999702-2.7491296v-3.8576823c1.56255822 2.3276908 4.41020482 4.122683 7.27999702 4.122683 1.7560053 0 3.1687559-1.0404481 3.1687559-2.1496751 0-4.1887646-10.5985605-1.5953987-10.5985605-8.8218943 0-3.7909264 3.5751904-5.83001594 6.7869347-5.83001594 2.6769963 0 5.0752202.90895922 6.9810331 2.43895068z" fill="var(--db-icon-color, currentColor)" fill-rule="evenodd"/></svg>
