<svg id="icon" height="24" viewBox="0 0 24 24" width="24" xmlns="http://www.w3.org/2000/svg"><path d="m21.5 9c.2454599 0 .5.20209522.5.50972943.0025696.66864937.0064683 1.33741607.0116959 2.00630037 0 .2454598-.2036582.5070034-.5.4839702-.5088662.0025673-1.0125539.0052254-1.5110633.0079741v1.4795213c0 .2147774-.1530058.5147387-.4984995.5147387-.4889326.0023662-.9919508.0023662-1.5090545 0l.0086607.9994842c.0009202.1115133-.0536283.2670326-.1575029.3684162-.1599733.1683391-.3120734.3428247-.4563003.5234566-.3655462.4099706-.5480992.6154947-.5476589.6165722.5910734 1.4465609.2995042 3.1691766-.8747077 4.3433885-1.5620972 1.5620971-4.0947571 1.5620971-5.6568543 0-1.56209714-1.5620972-1.56209714-4.0947571 0-5.6568543 1.0855594-1.0855594 2.6398401-1.4167232 4.0113784-.9934914l4.9071732-5.04702689c.0750154-.07501543.2325298-.15617921.3727332-.15617921.643547-.00199477 1.2768804-.00199477 1.9 0zm-8.9348026 8.0288109c.8333438 0 1.5089023.6755586 1.5089023 1.5089024 0 .8333437-.6755585 1.5089023-1.5089023 1.5089023-.8333437 0-1.5089023-.6755586-1.5089023-1.5089023 0-.8333438.6755586-1.5089024 1.5089023-1.5089024zm4.4348026-14.0288109c.9917596 0 1.6864918.66621055 1.9809494 1.62458164.1147554.46524946.2195512.92087172.3143876 1.36686678.1005807.45385257-.1625053.97835504-.5663227 1.06759637-.4620633.14843461-.9475651-.08924133-1.0771859-.66412757-.062801-.27149664-.1570026-.6787416-.2826047-1.22173488-.0595355-.25515205-.2112957-.47023148-.4421095-.47070527l-4.6287504-.00755691-5.13440108-.00107956c-.20822573 0-.40607717.14373798-.49786834.37502321l-.92109438 3.93113619h10.844c-.9659756 1.0631534-1.9529756 2.0781534-2.961 3.045-2.0921328-.1145073-3.5107569.5147425-4.73349833 1.7374839-1.09108508 1.0910851-1.67410673 2.4978403-1.74906497 3.9262823l-.5454367-.0507662v.342c0 .5522847-.44771525 1-1 1h-.6c-.55228475 0-1-.4477153-1-1l-.00028537-2.2621851c-.06701737-.1750296-.11821156-.3580762-.15183108-.5474276l-.39837677-3.403827c-.03108446-.2693986-.01811876-.533728.03318502-.7857861l-.83445986-.0007742c-.37003519 0-.64823194-.3213333-.64823194-.6893333v-.6666667c0-.36866667.27819675-.644.64823194-.644h1.35176806l.97799769-4.21310801c.2307565-.98895642 1.04340314-1.78689199 2.02200231-1.78689199zm-12.48058068 9.8038839c-.10057538.5028769.19507551.9930489.67142754 1.1472284l1.47871284.2957426c.49900938.0408928.96044559-.2978619 1.06102098-.8007388.10057538-.5028769-.19507551-.9930489-.67142754-1.1472284l-1.47871284-.2957426c-.49900938-.0408928-.96044559.2978619-1.06102098.8007388z" fill="var(--db-icon-color, currentColor)" fill-rule="evenodd"/></svg>
