<svg id="icon" height="32" viewBox="0 0 32 32" width="32" xmlns="http://www.w3.org/2000/svg"><path d="m26.409592 24.4639272c.4388048.4562593.7372724.7492544.8954029.8789852.5605856.4599063 1.2211179.8071476 1.6927825.8071476s.8522226.380558.8522226.85c0 .4333311-.3502463.8500306-.8522226.8500306-1.0418902 0-2.1244827-.5376969-3.2477774-1.6130906-1.1517486 1.0753937-2.2343411 1.6130906-3.2477774 1.6130906s-2.0975105-.5380302-3.2522226-1.6140906c-1.1438501 1.0775328-2.2285538 1.615563-3.2541112 1.6140906-1.0255574-.0015132-2.1075203-.5392101-3.2458888-1.6130906-1.1355909 1.0755319-2.2187242 1.6132288-3.24939984 1.6130906-1.03067563-.000179-2.11420902-.5382092-3.25060016-1.6140906-1.14481845 1.0760604-2.22815179 1.6140906-3.25 1.6140906-.46944204 0-.85-.3805886-.85-.8500306 0-.4333311.35280595-.85.85-.85.46036783 0 1.07257493-.2951833 1.69599354-.806974.15796069-.1296766.45592664-.4225175.89389785-.8785226.34017735-.4193379.98003987-.4193379 1.32021722 0 .43797121.4560051.73593716.748846.89389785.8785226.56107675.4606116 1.19599354.806995 1.69599354.806974s1.1338309-.3465251 1.6951843-.8071162c.1580997-.129721.4564764-.4226881.8951301-.8789014.3401352-.4186099.9791182-.4186493 1.319305-.0000815.4387605.4562459.7372015.7492328.895323.8789607.5608104.4601069 1.1913334.80821 1.6934156.8071384s1.0738438-.2962224 1.6966286-.8071509c.1581337-.1297318.4566107-.4227298.8954311-.8789939.3157493-.3884448.8889009-.4163424 1.2416064-.0835614.4908057.5118747.8153239.8326934.9735547.9624561.5580967.4576871 1.2010461.8082268 1.6966438.8072501s1.0699096-.2961406 1.6927825-.8071476c.1581305-.1297308.4565981-.4227259.8954029-.8789852.3401588-.4184896.9790252-.4184896 1.319184 0zm-6.409592-19.3139272c.3508066 0 .6611524.21474415.7888504.53330719l.6261496 2.46669281-12.62134428.00662271c-.4191154.05245061-.74337781.41004618-.74337781.84337729s.32426241.79092668.74337781.84337729l13.04734428.00662271.828 3.3h5.33106c.4816634 0 .870028.3998861.8494284.8811681-.137771 3.2188319-1.6328523 5.6967453-2.337737 6.7029714s-.8012751 1.0958605-1.2046817 1.5466307c-.8186052.9147169-1.7209856 1.5692898-2.8617238 1.5692898-1.0325582 0-2.1096735-.6733533-3.2313459-2.02006-1.1071956 1.3487123-2.1895457 2.0220657-3.2470502 2.02006-1.0575046-.0020057-2.1371545-.675359-3.2389498-2.02006-1.0727747 1.3467067-2.1485746 2.02006-3.22739984 2.02006s-2.16469196-.67302-3.25760016-2.01906c-1.12169579 1.3670651-2.20269579 2.0505976-3.243 2.0505976-.43333111 0-.85-.3588223-.85-.85v-9.6815976l17.4566222-.0066227c.4191154-.0524506.7433778-.4100462.7433778-.8433773s-.3242624-.7909267-.7433778-.8433773l-17.4566222-.0066227v-5.65c0-.46944204.38055796-.85.85-.85zm-3.75 10.85c-.6903559 0-1.25.5596441-1.25 1.25s.5596441 1.25 1.25 1.25 1.25-.5596441 1.25-1.25-.5596441-1.25-1.25-1.25zm5 0c-.6903559 0-1.25.5596441-1.25 1.25s.5596441 1.25 1.25 1.25 1.25-.5596441 1.25-1.25-.5596441-1.25-1.25-1.25zm-10 0c-.6903559 0-1.25.5596441-1.25 1.25s.5596441 1.25 1.25 1.25 1.25-.5596441 1.25-1.25-.5596441-1.25-1.25-1.25zm-5 0c-.69035594 0-1.25.5596441-1.25 1.25s.55964406 1.25 1.25 1.25 1.25-.5596441 1.25-1.25-.55964406-1.25-1.25-1.25z" fill="var(--db-icon-color, currentColor)" fill-rule="evenodd"/></svg>
