<svg id="icon" height="24" viewBox="0 0 24 24" width="24" xmlns="http://www.w3.org/2000/svg"><path d="m16.806913 5.15c.9917596 0 1.8477031.67236995 2.1421607 1.63074104l.9899263 4.21825896 1.4127681.001c.3363956 0 .6414745.2649226.6414745.5459053l.0067574.7647614c0 .3345454-.2574454.6888988-.5890039.6888988h-.8941225c.0549629.1432108.0661695.4055424.0336196.7869948l-.3717438 3.2217796c-.1069104.9263489-.6307155 1.7202095-1.3782883 2.1927922l-.0004611 1.7988679c0 .5522847-.4477153 1-1 1h-.6c-.5522847 0-1-.4477153-1-1v-1.237c-1.3996542.1581667-2.7996542.2371667-4.2.237s-2.80067914-.0795-4.201-.238l.001 1.238c0 .5522847-.44771525 1-1 1h-.6c-.55228475 0-1-.4477153-1-1l-.0004849-1.798878c-.69418118-.4388357-1.24384219-1.1955606-1.34905475-1.9964224-.0701417-.5339079-.2037929-1.6732876-.40095357-3.4181393-.03112504-.2697503-.01808483-.5344182.03338614-.7867732l-.83466098.0002129c-.37003519 0-.64823194-.3213333-.64823194-.6893333v-.6666667c0-.3686667.27819675-.644.64823194-.644l1.41176806-.001.94712197-4.05594861c.2307565-.98895643 1.10451133-1.79305139 2.18596503-1.79305139zm-6.4235341 8.8567277c-.49733871.0577651-.8833789.4804365-.8833789.9932723s.38604019.9355072.8833789.9932723h3.2332422c.4973387-.0577651.8833789-.4804365.8833789-.9932723s-.3860402-.9355072-.8833789-.9932723zm-4.50000003 0c-.49733868.0577651-.88337887.4804365-.88337887.9932723s.38604019.9355072.88337887.9932723h1.23324226c.49733868-.0577651.88337887-.4804365.88337887-.9932723s-.38604019-.9355072-.88337887-.9932723zm11.00000003 0c-.4973387.0577651-.8833789.4804365-.8833789.9932723s.3860402.9355072.8833789.9932723h1.2332422c.4973387-.0577651.8833789-.4804365.8833789-.9932723s-.3860402-.9355072-.8833789-.9932723zm-9.6902919-7.1567277c-.20822573 0-.40607717.14373798-.49786833.3750232l-.88921867 3.7739768h12.387l-.855652-3.66965826c-.0595355-.25515205-.2496044-.47934174-.530435-.47934174zm6.806913-4.7c.469442 0 .85.38055796.85.85 0 .43333111-.35.85-.85.85h-4c-.46944204 0-.85-.38055796-.85-.85 0-.43333111.35-.85.85-.85z" fill="var(--db-icon-color, currentColor)" fill-rule="evenodd"/></svg>
