<svg id="icon" height="32" viewBox="0 0 32 32" width="32" xmlns="http://www.w3.org/2000/svg"><path d="m23.9792045 7.8131315c.0952658.42272955-.1424477.84286402-.5397783.98617197l-1.3994262.32169653c1.0960004 3.3938898 1.6440006 5.0908347 1.6440006 5.0908347 3.6644178-.4706735 6.1659994 2.3334419 6.1659994 5.2881653s-2.3952766 5.35-5.35 5.35-5.35-2.3952766-5.35-5.35c0-2.078632 1.1854336-3.8803912 2.9171332-4.7661099l-.5851332-1.8110745-4.6581611 6.9634277c-.054217.0810399-.3016248.4609861-1.0330089.5281596l-.8187057.0069241c-.331691 0-.6293728-.1923754-.7683683-.4864508l-1.670756-5.1350606-.9945437 1.1910204c.7719978.8876819 1.3115437 2.1322586 1.3115437 3.509164 0 2.9547234-2.3952766 5.35-5.35 5.35-2.95472341 0-5.35-2.3952766-5.35-5.35s2.39527659-5.35 5.35-5.35c.99887911 0 1.9338214.2737461 2.7338984.7503097l1.6801016-2.0124941-.985-3.03800003-.929.00018443c-.46944204 0-.85-.38055796-.85-.85 0-.43333111.35245714-.85.85-.85h4c.469442 0 .85.38055796.85.85 0 .43333111-.3685857.84981557-.85.84981557h-1.283l.734 2.26600003 7.239-1.643-.5532979-1.71473525c-.1426841-.44169449.0954427-.90861391.5206245-1.06105123l2.3058049-.52623366c.457957-.10320462.9128684.18437902 1.016073.64233604zm-16.4792045 8.0368685c-2.01583934 0-3.65 1.6341607-3.65 3.65s1.63416066 3.65 3.65 3.65 3.65-1.6341607 3.65-3.65c0-.816847-.268327-1.5710228-.7216462-2.1791928l-2.27594844 2.7240481c-.27201803.3228284-.83696037.4048868-1.19726061.1075501-.33028741-.275839-.44470304-.8114196-.10755011-1.1972607l2.27605135-2.7250316c-.48903158-.2432947-1.04036096-.3801131-1.62364599-.3801131zm16.7171744.0107953s.36389 1.1259724 1.0916698 3.3779173c.1332046.4123498-.0886816.9136928-.5025082 1.0603215-.4138266.1466288-.9467718-.037296-1.1151802-.5377467l-1.0914015-3.3782415c-1.0493578.6411082-1.7497543 1.7972379-1.7497543 3.1169541 0 2.0158393 1.6341607 3.65 3.65 3.65s3.65-1.6341607 3.65-3.65-1.6493925-3.7698569-3.9328256-3.6392047zm-4.4481744-3.4359797-5.792 1.315 1.602 4.9481844z" fill="var(--db-icon-color, currentColor)" fill-rule="evenodd"/></svg>
