<svg id="icon" height="24" viewBox="0 0 24 24" width="24" xmlns="http://www.w3.org/2000/svg"><path d="m16.4361148 2.15c.9411366 0 1.4312107.09463766 1.9415899.36759149.4740542.25352692.8511769.63064965 1.1047038 1.10470378.2502077.46784767.3505802.91863329.3655715 1.71543013l.0005942.94192337c.1308043-.08214464.2855675-.12964877.4514258-.12964877.4333311 0 .8751749.35166558.85.85v3c0 .469442-.380558.85-.85.85-.1658583 0-.3206215-.0475041-.4514258-.1296488l.0014258 6.7157636c0 .9411366-.0946377 1.4312107-.3675915 1.9415899-.1724477.3224492-.4020788.6000516-.6805021.8244159l-.0019064.7978794c0 .5522847-.4477153 1-1 1h-.6c-.5522847 0-1-.3826031-1-1.15h-8.4c0 .7527149-.44771525 1.15-1 1.15h-.6c-.55228475 0-1-.4477153-1-1l-.00190643-.7978794c-.27842324-.2243643-.50805439-.5019667-.68050208-.8244159-.25020768-.4678476-.35058024-.9186333-.36557145-1.7154301l-.00158816-6.9413002c-.1305941.0817617-.28499345.1290256-.45043188.1290256-.43333111 0-.85-.3589386-.85-.85v-3c0-.46944204.38055796-.85.85-.85.16543843 0 .31983778.04726391.45043188.12902556l-.00043188-.71514036c0-.94113663.09463766-1.43121066.36759149-1.94158993.25352692-.47405413.63064965-.85117686 1.10470378-1.10470378.46784767-.25020768.91863329-.35058024 1.71543013-.36557145zm-9.5611148 14.75c-.62132034 0-1.125.5036797-1.125 1.125s.50367966 1.125 1.125 1.125 1.125-.5036797 1.125-1.125-.50367966-1.125-1.125-1.125zm10.25 0c-.6213203 0-1.125.5036797-1.125 1.125s.5036797 1.125 1.125 1.125 1.125-.5036797 1.125-1.125-.5036797-1.125-1.125-1.125zm1.024-10.9h-12.3v8.63c2.32392072.3550549 4.433958.52 6.151.52 1.7605684 0 3.8108441-.1724225 6.1481883-.5185138zm-9.149-2.75c-.43284625 0-.75.37030423-.75.75s.29571755.75.75.75h6c.4711572-.00684662.75-.37030423.75-.75s-.3609095-.75-.75-.75z" fill="var(--db-icon-color, currentColor)" fill-rule="evenodd"/></svg>
