<svg id="icon" height="20" viewBox="0 0 20 20" width="20" xmlns="http://www.w3.org/2000/svg"><path d="m16.25 13.5c.9664983 0 1.75.7835017 1.75 1.75s-.7835017 1.75-1.75 1.75-1.75-.7835017-1.75-1.75.7835017-1.75 1.75-1.75zm-8.4907259 1.3726175c.31290507 1.2123631-.74277579 2.1273825-1.7092741 2.1273825s-1.96952346-.8328328-1.7092741-2.1273825c0 0-.44684196 0-1.3405259 0-.43333111 0-.79092668-.3242624-.84337729-.7433778l-.00662271-.4399555c0-1.8773871 1.5832363-3.5166873 3.3239372-3.5114629l2.4740628-.0052244-.4452-1.4735969-2.503.001c-.4912625 0-.85-.39938058-.85-.85s.3587375-.85.85-.85h2.59974979c.62337063 0 1.26685921.48520262 1.48268793 1.0583493l1.54756228 5.1136507h1.024l3.496-3.523v-2.2482993c0-.254079-.129126-.53016004-.3716869-.53016004l-1.8325304-.00794373c-.4694421 0-.85-.38055796-.85-.85 0-.43333111.3668594-.85.85-.85h1.8325304c1.1188296 0 1.992746.93768922 2.0666237 2.08099299l.0050632 2.75641008c0 .1869115-.061564.3675097-.1735115.514654l-4.0647113 4.1066725c-.1329925.1340264-.3645935.251291-.6033635.251291s-4.2491396 0-4.2491396 0z" fill="var(--db-icon-color, currentColor)" fill-rule="evenodd"/></svg>
