<svg id="icon" height="32" viewBox="0 0 32 32" width="32" xmlns="http://www.w3.org/2000/svg"><path d="m11.1473207 2.15163688h9.7053586c1.0725839.01434203 1.6425323.12494427 2.2458043.41076895.6012693.28487575 1.0951613.71322604 1.4622062 1.26816467.3059453.46256162.488919.91945789.6372009 1.66850466.0988546.49936451.3162244 1.99967279.6521093 4.50092484v13.4361148c0 .9411366-.0946377 1.4312107-.3675915 1.9415899-.1294044.2419652-.2910085.4586772-.4812668.6465905l-.0011417 1.9757048c0 .5522847-.4477153 1-1 1h-2c-.5522847 0-1-.4477153-1-1l-.0002-1.15h-10l.0002 1.15c0 .5522847-.4477153 1-1 1h-2c-.55228475 0-1-.4477153-1-1l-.00017074-1.9747463c-.19067945-.1881347-.35261333-.4051723-.48223777-.647549-.25020768-.4678476-.35058024-.9186333-.36557145-1.7154301l-.00202004-13.6622746c.29762866-2.2210122.49891059-3.63435009.60384579-4.24001367.1574028-.90849538.34552514-1.41545847.68546442-1.92941583.36704491-.55493863.86093694-.98328892 1.46220614-1.26816467.60327205-.28582468 1.17322045-.39642692 2.24580435-.41076895zm8.5909495 19.98475882c-.5496719.1389304-.9177187.6727688-.8370258 1.2470262.0807189.5742536.5816548.9859644 1.1483278.9680028l3.3621576-.4725204c.5496719-.1389304.9177187-.6727688.8370258-1.2470262-.0807189-.5742536-.5816548-.9859644-1.1483278-.9680028zm-10.83867959-.4801678c-.56667296-.0179617-1.06760806.3937493-1.1483144.9680047-.08070634.5742555.28734047 1.1080938.83701238 1.2470242l3.36212081.4725153c.5666729.0179617 1.067608-.3937493 1.1483144-.9680047.0807063-.5742555-.2873405-1.1080938-.8370124-1.2470242zm11.90354739-17.80522841c-6.2732236-.01010831-9.6048737-.00695051-9.9949502.00947341-.5851147.02463588-.87705115.0952624-1.17879106.23822396-.32097013.15207266-.45481387.26531456-.77217383.66970282-.21157331.26959217-.36720029.77515273-.46688094 1.51668169l-.54034197 3.77191863.00033333 8.5062361c.91436272.539345 1.66751093.8536142 2.25944467.9428078.8879005.1337902 3.5502492.2000004 5.890022.2000004s5.0361029-.0539319 5.8887122-.1998101c.5684063-.0972522 1.3223015-.4116481 2.2616856-.943188l-.0001978-8.4990462-.540342-3.77891863c-.0884226-.66952612-.2276507-1.14929783-.4176841-1.43931514-.2850502-.43502597-.4486113-.51181635-.8213706-.74706937-.2485063-.15683534-.7709947-.23940113-1.5674653-.24769737zm7.196662 4.31430051c.4333311 0 .85.35102095.85.85v4c0 .469442-.380558.85-.85.85-.4333311 0-.85-.3530093-.85-.85v-4c0-.46944204.380558-.85.85-.85zm-24 0c.43333111 0 .85.36707423.85.85v4c0 .469442-.38055796.85-.85.85-.43333111 0-.85-.3542528-.85-.85v-4c0-.46944204.38055796-.85.85-.85zm17.5002.4847c.469442 0 .85.38055796.85.85 0 .43333111-.35.85-.85.85h-11c-.469442 0-.85-.38055796-.85-.85 0-.43333111.35-.85.85-.85z" fill="var(--db-icon-color, currentColor)" fill-rule="evenodd"/></svg>
