<svg id="icon" height="64" viewBox="0 0 64 64" width="64" xmlns="http://www.w3.org/2000/svg"><g fill="none" fill-rule="evenodd" transform="translate(12 4.001)"><path d="m24.5.004c.277 0 1.281.043 3.014.128 2.533.212 4.154.698 5.819 1.588a11.906 11.906 0 0 1 4.946 4.946c.89 1.664 1.375 3.286 1.588 5.818.067.943.1 1.54.101 1.79.013 8.578-.081 17.16.013 25.734a55.961 55.961 0 0 1 -.114 3.955c-.213 2.532-.698 4.154-1.588 5.82a11.905 11.905 0 0 1 -4.946 4.945c-1.59.85-3.025 1.292-5.227 1.527-.592.064-1.282-.45-1.072-1.254.229-.829.616-2.428.639-2.946a185.15 185.15 0 0 1 -7.673.194c-2.082 0-6.548-.121-7.681-.195-.024 0 .2 1.022.671 3.062.125.736-.546 1.198-1.095 1.14-2.203-.236-3.64-.678-5.228-1.528a11.9 11.9 0 0 1 -4.946-4.946c-.89-1.665-1.375-3.287-1.588-5.82-.089-2.302-.133-3.602-.133-3.895 0-12.285.002-24.284.005-24.57l.128-3.012c.213-2.533.698-4.155 1.588-5.819a11.9 11.9 0 0 1 4.946-4.946c1.663-.89 3.285-1.376 5.818-1.588 1.914-.085 2.918-.127 3.013-.128.143-.002 4.502-.007 9.003 0zm-.461 1.996c-4.039-.004-4.039-.022-8.078 0a59.95 59.95 0 0 0 -2.243.054c-2.46.118-4.19.378-6.107 1.43a9.9 9.9 0 0 0 -4.126 4.125c-.834 1.56-1.257 3.079-1.413 5.778a50.148 50.148 0 0 0 -.07 2.572c-.033 12.264-.005 12.265 0 24.529 0 .142.017.89.053 2.242.14 2.908.563 4.486 1.43 6.11a9.9 9.9 0 0 0 4.126 4.125c.988.529 1.886.866 3.05 1.091-.287-1.218-.399-2.062-.41-3.045a1 1 0 0 1 1.052-1.011c3.073.165 5.957.249 8.696.249s5.623-.084 8.696-.249a1 1 0 0 1 1.054 1.02c0 .762-.139 1.775-.416 3.037a10.207 10.207 0 0 0 3.055-1.092 9.905 9.905 0 0 0 4.126-4.126c.834-1.56 1.257-3.08 1.413-5.78.037-1.157.06-2.018.067-2.582.002-.092 0-8.531-.005-25.319l-.045-1.441c-.14-2.908-.563-4.486-1.43-6.108a9.906 9.906 0 0 0 -4.126-4.126c-1.372-.734-3.306-1.303-5.46-1.392a106.97 106.97 0 0 0 -2.888-.091zm-12.039 38.999a3 3 0 0 1 3 3c0 1.597-1.34 2.994-3 2.994l-3 .007a3 3 0 0 1 -3-3c0-1.598 1.34-3 3-3h3zm19.001 0a3 3 0 0 1 3 3c0 1.597-1.341 3-2.824 2.994l-3.176.007a3 3 0 0 1 -3-3c0-1.598 1.339-3 3-2.995l3-.005zm-22.001 2a1 1 0 0 0 -1 1c0 .512.447.993 1 .993l3 .007a1 1 0 0 0 1-1c0-.513-.45-.994-1-.994l-3-.005zm19.001 0a1 1 0 0 0 -1 1c0 .512.381 1 1 .993l3 .007a1 1 0 0 0 1-1 .99.99 0 0 0 -1-.994zm-1.414-38a7 7 0 0 1 7 7l-1.13 17.15c-.17 2.263-.468 3.375-1.143 4.514-.64 1.082-1.527 1.973-2.666 2.494-1.134.518-2.136.84-4.912.842h-7.472c-2.546 0-3.868-.309-4.912-.842a6.478 6.478 0 0 1 -2.666-2.494c-.675-1.14-.973-2.25-1.144-4.514l-1.112-16.685c-.258-3.857 2.764-7.464 6.983-7.464 4.391-.005 8.783-.005 13.174 0zm0 2c-4.391-.002-8.783-.002-13.174 0-3.007 0-5.21 2.582-4.989 5.332.543 8.177 1.027 15.678 1.09 16.353.054.739.136 1.473.248 2.204.301 1.939 1.71 3.088 2.492 3.484.602.305 1.53.64 3.414.622 4.332.007 4.332.017 8.664 0 1.755 0 2.757-.29 3.414-.622.782-.396 2.09-1.386 2.435-3.215.142-.818.244-1.643.304-2.473.1-1.236 1.102-16.575 1.102-16.685 0-2.69-2.101-4.99-5-5z" fill="#282D37" style="fill: currentColor;fill: var(--db-icon-color, currentColor)" fill-rule="nonzero"/><path d="m23.853 54.01a1 1 0 0 1 .294 1.978 28.27 28.27 0 0 1 -4.147.31c-1.366 0-2.748-.103-4.147-.31a1 1 0 0 1 .294-1.979 26.25 26.25 0 0 0 3.853.29 26.25 26.25 0 0 0 3.853-.29z" fill="#EC0016" style="fill:#EC0016;fill: var(--db-icon-pulse-color, #EC0016)"/></g></svg>
