<svg id="icon" height="32" viewBox="0 0 32 32" width="32" xmlns="http://www.w3.org/2000/svg"><path d="m27 6c1.65625 0 3 1.3438 3 3v14c0 1.6562-1.34375 3-3 3h-22c-1.656243 0-3-1.3438-3-3v-14c0-1.6562 1.343757-3 3-3zm-.000001 2h-22c-.562492 0-1 .4375-1 1v14c0 .5625.437508 1 1 1h22c.562501 0 1-.4375 1-1v-14c0-.5625-.437499-1-1-1zm-16.156244 1.875c2.437495 0 4.124995.875 4.124995 3.1563 0 1.375-.59059 2.1031-1.875 2.5312l-.1875.0625c1.84375.375 2.75 1.2812 2.75 3.0625 0 2.4687-1.9375 3.5-4.937495 3.5h-3.718755c-.562494 0-1-.4375-1-1v-10.3125c0-.5642.437506-1 1-1zm-.0625 7.0625h-1.781249v2.7812h1.562499c1.40625 0 2.093745-.3437 2.093745-1.4375 0-.9687-.625-1.3437-1.874995-1.3437zm-.125-4.625h-1.656249v2.1563h1.593749c.906251 0 1.468745-.2188 1.468745-1.0938 0-.7187-.437495-1.0625-1.406245-1.0625zm6.124995 3.875c0-4.1562 2.0625-6.625 6.125-6.625.6875 0 1.3125.0625 1.96875.2188.5625.125 1.03125.6562 1.0625 1.25 0 1-.75 1.6875-1.6875 1.5312-.5-.0937-.84375-.125-1.25-.125-2.46875 0-3.09375 1.3125-3.09375 3.625 0 2.2187.59375 3.5 3.0625 3.5.46875 0 .875-.0313 1.40625-.125.8125-.125 1.59375.4375 1.625 1.25 0 .7187-.34375 1.25-.96875 1.4375-.6875.2187-1.3125.3125-1.90625.3125-4.71875.0312-6.34375-2.4063-6.34375-6.25z" fill="var(--db-icon-color, currentColor)" fill-rule="evenodd"/></svg>
