<svg id="icon" height="64" viewBox="0 0 64 64" width="64" xmlns="http://www.w3.org/2000/svg"><g fill="none" fill-rule="evenodd" transform="translate(9 7)"><path d="m27.879 25.61c5.014.286 6.014 4.419 6.014 6.014v6.376a1 1 0 0 1 -2 0v-6.376c0-1.065-.603-3.679-3.76-4.006-.843.522-3.276 1.42-5.107 1.42a10.87 10.87 0 0 1 -5.432-1.42c-2.073.152-3.656 1.815-3.753 3.805l-.005 6.577a1 1 0 0 1 -2 0v-6.376a6.014 6.014 0 0 1 6.014-6.014 1 1 0 0 1 .52.145 8.837 8.837 0 0 0 4.484 1.288 8.853 8.853 0 0 0 4.505-1.288.913.913 0 0 1 .52-.145zm13.321-2.082a4.799 4.799 0 0 1 4.8 4.8v4.672a1 1 0 0 1 -2 0v-4.67c0-.744-.443-2.518-2.553-2.789-.947.555-2.475 1.074-4.057 1.074-1.583 0-3.01-.441-4.31-1.231a1 1 0 0 1 1.04-1.709 6.449 6.449 0 0 0 3.27.94 6.463 6.463 0 0 0 3.29-.94 1 1 0 0 1 .52-.146zm-27.946.48a1 1 0 0 1 -.334 1.375 8.48 8.48 0 0 1 -4.33 1.231c-1.51-.04-2.856-.398-4.038-1.074a2.69 2.69 0 0 0 -1.584.671c-.645.575-.968 1.28-.968 2.117v4.672a1 1 0 0 1 -2 0v-4.67a4.799 4.799 0 0 1 4.8-4.8 1 1 0 0 1 .52.145 6.449 6.449 0 0 0 3.27.94 6.463 6.463 0 0 0 3.29-.94 1 1 0 0 1 1.374.335zm9.61-12.008a6.73 6.73 0 1 1 0 13.461 6.731 6.731 0 0 1 0-13.461zm0 2a4.73 4.73 0 1 0 4.731 4.73 4.73 4.73 0 0 0 -4.73-4.73zm14.536-1.786a5.344 5.344 0 1 1 -.001 10.687 5.344 5.344 0 0 1 .001-10.687zm-28.8 0a5.344 5.344 0 1 1 -.001 10.686 5.344 5.344 0 0 1 .001-10.686zm28.8 2a3.344 3.344 0 1 0 .001 6.687 3.344 3.344 0 0 0 -.001-6.687zm-28.8 0a3.344 3.344 0 1 0 .001 6.687 3.344 3.344 0 0 0 -.001-6.687z" fill="var(--db-icon-color, currentColor)" fill-rule="nonzero"/><path d="m2.837 38.06a1 1 0 0 1 1.394.237c.246.346 6.474 9.703 18.769 9.703s18.376-9.157 18.669-9.563a1 1 0 0 1 1.622 1.17c-.318.441-6.84 10.393-20.291 10.393-13.45 0-20.133-10.169-20.4-10.545a1 1 0 0 1 .237-1.394zm20.163-38.06c10.824 0 17.317 6.957 17.782 7.428a1 1 0 1 1 -1.422 1.405c-.428-.433-6.674-6.87-16.355-6.87-9.68 0-15.714 6.226-16.142 6.649a1 1 0 1 1 -1.404-1.425c.466-.46 6.717-7.187 17.541-7.187z" fill="var(--db-icon-pulse-color, #EC0016)"/></g></svg>
