<svg id="icon" height="24" viewBox="0 0 24 24" width="24" xmlns="http://www.w3.org/2000/svg"><path d="m17.306 3c.684 0 1.306.218 1.773.685l2.768 2.679c.466.436.653 1.028.653 1.62 0 .53-.187 1.152-.653 1.588l-2.768 2.679c-.498.498-1.09.749-1.773.749h-4.306v7h3.033c.528 0 .964.474.964.941 0 .623-.436 1.059-.964 1.059h-8.337c-.53 0-.934-.436-.934-1.059 0-.467.405-.941.934-.941h3.298l.006-7h-5.418c-1.462 0-2.582-1.123-2.582-2.556v-4.921c0-1.402 1.12-2.523 2.582-2.523zm-.156 2h-11.195c-.622 0-.933.305-.933.897v4.173c0 .592.31.935.933.935h11.195c.498 0 .84-.125 1.15-.467l1.867-1.9c.218-.218.333-.436.333-.686 0-.218-.115-.436-.333-.654l-1.866-1.837c-.342-.343-.653-.461-1.151-.461z" fill="#282D37" style="fill: currentColor;fill: var(--db-icon-color, currentColor)" fill-rule="evenodd"/></svg>