<svg id="icon" height="32" viewBox="0 0 32 32" width="32" xmlns="http://www.w3.org/2000/svg"><path d="m12.0625 17c1.625 0 2.9375 1.34375 2.9375 2.96875v6.09375c0 1.625-1.3125 2.9375-2.9375 2.9375h-6.09375c-1.625 0-2.96875-1.3125-2.96875-2.9375v-6.09375c.03125-1.625 1.34375-2.96875 2.96875-2.96875zm0 2h-6.09375c-.53125 0-.96875.4375-.96875.96875v6.0625c0 .53125.4375.96875.96875.96875h6.09375c.53125 0 .9375-.4375.9375-.96875v-6.0625c0-.53125-.40625-.96875-.9375-.96875zm0-16c1.632985 0 2.9375 1.33457 2.9375 2.96875v6.09375c0 1.625-1.3125 2.9375-2.9375 2.9375h-6.125c-1.625 0-2.9375-1.3125-2.9375-2.9375v-6.09375c0-1.625 1.3125-2.96875 2.9375-2.96875zm0 2h-6.09375c-.53125 0-.96875.4375-.96875.96875v6.09375c0 .53125.4375.9375.96875.96875h6.09375c.53125-.03125.9375-.4375.9375-.96875v-6.09375c0-.53125-.40625-.9375-.9375-.96875zm9.9375 12c1 0 2 1 2 2v3h3c1 0 2 .625 2 2v3c0 1-1 2-2 2h-3c-1 0-2-1-2-2v-3h-3c-1 0-2-1-2-2v-3c0-1 1-2 2-2zm4.5 7h-2c-.25 0-.5.21875-.5.5v2.125c0 .25.21875.4375.4375.4375h2.15625c.21875 0 .40625-.1875.40625-.4375v-2.125c0-.25-.25-.5-.5-.5zm-4.90625-5h-2.15625c-.21875 0-.4375.21875-.4375.4375v2.125c0 .25.21875.4375.4375.4375h2.0625c.28125 0 .5-.21875.5-.5v-2.0625c0-.21875-.1875-.4375-.40625-.4375zm4.46875-16c1.625 0 2.9375 1.34375 2.9375 2.96875v6.09375c0 1.625-1.3125 2.9375-2.9375 2.9375h-6.09375c-1.625 0-2.96875-1.3125-2.96875-2.9375v-6.09375c0-1.625 1.34375-2.96875 2.96875-2.96875zm0 2h-6.09375c-.53125 0-.96875.4375-.96875.96875v6.09375c0 .53125.4375.9375.96875.96875h6.09375c.53125-.03125.9375-.4375.9375-.96875v-6.09375c0-.53125-.40625-.9375-.9375-.96875zm-19.0625 19v-2c0-.53125.46875-1 1-1h2c.5625 0 1 .46875 1 1v2c0 .5625-.4375 1-1 1h-2c-.53125 0-1-.4375-1-1zm0-14v-2c0-.53125.46875-1 1-1h2c.5625 0 1 .46875 1 1v2c0 .5625-.4375 1-1 1h-2c-.53125 0-1-.4375-1-1zm14 0v-2c0-.53125.46875-1 1-1h2c.5625 0 1 .46875 1 1v2c0 .5625-.4375 1-1 1h-2c-.53125 0-1-.4375-1-1z" fill="var(--db-icon-color, currentColor)" fill-rule="evenodd"/></svg>
