<svg id="icon" height="32" viewBox="0 0 32 32" width="32" xmlns="http://www.w3.org/2000/svg"><path d="m7.10132614 22.8294749c.99106972 1.1063351 2.16650395 2.0753228 3.98534396 3.2696653l.5712462.3617397c.3787644.2123746.7771838.3430997 1.342159.4225094 1.0315416.0756623 2.0313839.1145325 2.9995267.1166107.9681429.0020782 1.9366338-.0325668 2.9054726-.103935.4838498-.061208.8476733-.156529 1.1752368-.3032486l.7014712-.3996069c2.0376628-1.331419 3.0567467-2.1804819 4.1132513-3.35816-.2947318 1.1205997-.477566 1.7980743-.5485023 2.032424-.2045802.6758637-.6513333 1.3754749-1.1815585 2.179783-.5302251.8043081-1.3068641 1.3976697-2.1957393 1.708095.0202254.0776262.0307662.1599064.0307662.2446485 0 .5128358-.3860402.9355072-.8833789.9932723l-8.1166211.0067277c-.5522847 0-1-.4477153-1-1 0-.0902211.0119479-.1776517.0343478-.2607957-.7943999-.283207-1.4994522-.7914359-2.02016018-1.4736333-.52070798-.6821973-.98227072-1.4923537-1.26412771-2.1444434-.10300337-.2383033-.31924796-1.0021875-.64873377-2.2916527zm10.38499186-20.8294749c3.0852912 0 4.8717064 1.07440764 6.2521519 2.9 1.2800749 1.69285558 2.0278902 3.71958788 2.1545995 5.8264474l.0158949.3725789.0823474 3.2663928c.0401968 1.1621892-.0205434 2.467349-.1822207 3.9154795-.2375629.3727591-.6386943.9430216-1.203394 1.7107877-1.3371493 1.8179889-2.387278 2.895939-4.8046075 4.4452882-.3938687.2524439-.7945789.5615638-2.1060124.5615638-.5215934 0-1.8883961 0-3.4201542 0-1.2748476 0-1.5438679-.221436-2.0757915-.5614811-2.51469808-1.6075823-3.54943603-2.6873847-4.74813427-4.3944068-.79913217-1.1380148-1.21990649-1.7279796-1.26232297-1.7698947-.12680056-1.3298353-.18972259-2.3971837-.18876612-3.202045.00112957-.8048613.03187116-2.1287222.09222476-3.9715828.05625513-2.23986582.81481639-4.40667938 2.17019975-6.1991279 1.33114389-1.76039263 3.11539555-2.9 6.31684665-2.89590347zm-4.8921637 16.0408104c-.2075924-.4556182-.7283326-.6933319-1.2164262-.5359621-.4880936.1573697-.7719117.6544867-.6742757 1.1455568l.9700157 3.0085735c.2075924.4556182.7283325.6933318 1.2164261.5359621s.7719118-.6544867.6742757-1.1455568zm6.6996241.026277-.9321601 2.8692374c-.1694751.5256393.119253 1.0891408.6448923 1.2586159.4880936.1573697 1.0088337-.0803439 1.2164262-.5359621l.93216-2.8692374c.1694751-.5256392-.119253-1.0891408-.6448923-1.2586159-.4880936-.1573697-1.0088337.0803439-1.2164261.5359621zm-3.2936851-13.06709113c-1.7256523 0-3.1497194.22150567-4.2722015.66450955-1.7159832.67723773-2.86429125 2.44804446-2.48056038 4.44507618.21132277 1.0997766.42040057 1.8615659.54068727 2.2641803.30252231 1.0125793 1.12923281 1.7754128 2.15095101 2.0023072l1.4446451.2262969c1.5608699.2372183 3.1459357.2609436 4.7116457.071176l1.7786167-.2622677c1.1098707-.1686706 2.0229332-.9622936 2.3445418-2.0378542.1171901-.3919135.2707559-.7747378.5392387-2.2695734.3377109-1.88027876-.7189983-3.6755112-2.2895593-4.3562779-1.3768569-.59680479-2.8710213-.74757293-4.4680051-.74757293z" fill="var(--db-icon-color, currentColor)" fill-rule="evenodd"/></svg>
