<svg id="icon" height="32" viewBox="0 0 32 32" width="32" xmlns="http://www.w3.org/2000/svg"><path d="m9.58515933 3.15175578h12.82968137c1.1761726.01654444 1.8020776.15220114 2.4512869.49940206.6370171.34068047 1.1420341.84569748 1.4827146 1.48271457.3472009.64920928.4828576 1.27511434.499402 2.45128692l.0017558 16.49192677c0 .7379325-.0773781 1.138629-.3008083 1.5564072-.1394035.2606619-.3243165.4863197-.5477636.6699979l-.0014281 1.6965088c0 .5522847-.4477153 1-1 1h-2c-.5522847 0-1-.4477153-1-1l-.0002-1.15h-12l.0002 1.15c0 .5522847-.44771525 1-1 1h-2c-.55228475 0-1-.4477153-1-1l-.00107291-1.6962169c-.22360633-.183731-.40864141-.4094898-.54811878-.6702898-.20108722-.3760004-.28387218-.7381646-.29841829-1.3447902l-.00063424-16.70354377c.01654444-1.17617258.15220114-1.80207764.49940206-2.45128692.34068047-.63701709.84569748-1.1420341 1.48271457-1.48271457.64920928-.34720092 1.27511434-.48285762 2.45128692-.49940206zm-1.23515933 18.59824422c-.828 0-1.5.672-1.5 1.5 0 .829.672 1.5 1.5 1.5.829 0 1.5-.671 1.5-1.5 0-.828-.671-1.5-1.5-1.5zm15.3 0c-.828 0-1.5.672-1.5 1.5 0 .829.672 1.5 1.5 1.5.829 0 1.5-.671 1.5-1.5 0-.828-.671-1.5-1.5-1.5zm1.4998-13.75h-18.299l-.0008 11.0425336c3.1498.4936922 6.3817539.7074664 9.15.7074664 3.0496667 0 6.09957-.2357869 9.1501481-.7074664zm3.85 1.1653c.4333311 0 .85.35084488.8433773.85l.0066227 3c0 .469442-.380558.85-.85.85-.4333311 0-.8433773-.3442789-.8433773-.85l-.0066227-3c0-.46944204.380558-.85.85-.85zm-26 0c.43333111 0 .85.33742579.85.85v3c0 .469442-.38055796.85-.85.85-.43333111 0-.85-.3544002-.85-.85v-3c0-.46944204.38055796-.85.85-.85zm8.0002-5.0153c-.5030606.00662271-.85.41666889-.85.85s.3415998.85.85.85l10.0122744-.00662271c.4803025.00662271.8377256-.41004618.8377256-.84337729s-.339679-.85-.8377256-.84337729z" fill="var(--db-icon-color, currentColor)" fill-rule="evenodd"/></svg>
