<svg id="icon" height="20" viewBox="0 0 20 20" width="20" xmlns="http://www.w3.org/2000/svg"><path d="m13.4361148 2.15c.9411366 0 1.4312107.09463766 1.9415899.36759149.4740542.25352692.8511769.63064965 1.1047038 1.10470378.2122581.3968882.3166859.78149753.3526329 1.37548701l.9649586.00221772v4l-.95-.001v5.7190574c0 .4678873-.0460282.7647268-.1740391 1.0494692-.128011.2847425-.4150814.6533261-.6759609.7804734v1.452h-2.5v-1.15h-7.001l.001 1.15h-2.5l-.00152323-1.4493249c-.25906585-.163491-.46859764-.38867-.61445164-.6613932-.15216833-.2845301-.21721757-.5584499-.23110225-.9807103-.00925646-.2815069-.01023075-2.2513641-.00292288-5.9095716l-.95.001v-4l.96495863-.00221772c.03594694-.59398948.14037472-.97859881.35263286-1.37548701.25352692-.47405413.63064965-.85117686 1.10470378-1.10470378.46784767-.25020768.91863329-.35058024 1.71543013-.36557145zm-7.5861148 11.1c-.55228475 0-1 .4477153-1 1s.44771525 1 1 1 1-.4477153 1-1-.44771525-1-1-1zm8.1935495 0c-.5522847 0-1 .4477153-1 1s.4477153 1 1 1c.5522848 0 1-.4477153 1-1s-.4477152-1-1-1zm1.1064505-7.501h-10.3l.001 5.8829084c1.71633333.2577124 3.43266667.3865686 5.149.3865686 1.7166667 0 3.4333333-.1289062 5.15-.3867188zm-2.15-2.499h-6v1.5h6z" fill="var(--db-icon-color, currentColor)" fill-rule="evenodd"/></svg>
