<svg id="icon" height="64" viewBox="0 0 64 64" width="64" xmlns="http://www.w3.org/2000/svg"><g fill="none" fill-rule="evenodd" transform="translate(10 7)"><path d="m11.337 33.021a1.706 1.706 0 0 1 1.702 1.708v1.296h3.361c.934.006 1.659.766 1.655 1.697v9.62a1.65 1.65 0 0 1 -1.655 1.676h-14.712c-.935-.007-1.692-.744-1.688-1.676v-9.62a1.696 1.696 0 0 1 1.688-1.697h3.327v-1.296a1.707 1.707 0 0 1 1.702-1.708zm-9.33 13.997h14.042v-9h-14.042zm3.528-6.877a1 1 0 0 1 .493.889v3.004a1.004 1.004 0 0 1 -2.006 0v-3.004a1 1 0 0 1 .493-.889 1.007 1.007 0 0 1 1.02 0zm8.035 0a1 1 0 0 1 .493.889v3.004a1.002 1.002 0 0 1 -2.006 0v-3.004a1 1 0 0 1 .493-.889 1.007 1.007 0 0 1 1.02 0zm-6.549-4.116h4.012v-1.003h-4.012zm33.287-4.541c-.853 0-1.634.57-1.86 1.43-.234.885-.171 2.266.338 3.043.219.335.49.516.853.572 1.595.24 2.3-1.768 2.531-2.645a1.91 1.91 0 0 0 -1.372-2.337 1.921 1.921 0 0 0 -.49-.063zm-.397 7.066c-.189 0-.382-.014-.577-.045-.923-.142-1.692-.644-2.221-1.452-.894-1.364-.937-3.366-.599-4.649.549-2.088 2.702-3.337 4.791-2.792a3.902 3.902 0 0 1 2.395 1.816c.526.903.67 1.956.404 2.966-.689 2.616-2.266 4.156-4.193 4.156zm-36.9-5.528v-6.876c0-1.615.631-3.134 1.777-4.276a6.042 6.042 0 0 1 4.03-1.768 14.952 14.952 0 0 0 7.346 2.009 14.846 14.846 0 0 0 6.054-1.352 1 1 0 1 0 -.832-1.818 12.85 12.85 0 0 1 -5.222 1.17 12.926 12.926 0 0 1 -6.563-1.87.999.999 0 0 0 -.519-.145 8.028 8.028 0 0 0 -5.706 2.358 7.985 7.985 0 0 0 -2.365 5.692v6.876a1 1 0 1 0 2 0zm13.143-31.022c-3.905 0-7.082 3.166-7.082 7.056 0 3.891 3.177 7.057 7.082 7.057 3.904 0 7.081-3.166 7.081-7.057 0-3.89-3.177-7.056-7.081-7.056zm0 16.113c-5.008 0-9.082-4.063-9.082-9.057s4.074-9.056 9.082-9.056c5.007 0 9.081 4.062 9.081 9.056s-4.074 9.057-9.081 9.057z" fill="var(--db-icon-color, currentColor)" fill-rule="nonzero"/><path d="m43.192 36.526c-.5.788-1.118 1.37-1.83 1.698v5.857a1 1 0 1 0 2 0v-6.093a6.428 6.428 0 0 0 -.171-1.462m-6.677-4.122c.069-.263.165-.513.282-.748a.968.968 0 0 0 -.288.114 9.488 9.488 0 0 1 -4.802 1.374 9.498 9.498 0 0 1 -4.822-1.374.999.999 0 0 0 -.52-.145c-1.69 0-3.278.656-4.474 1.849a6.184 6.184 0 0 0 -.812.993 1 1 0 1 0 1.668 1.103c.163-.246.35-.475.556-.68a4.303 4.303 0 0 1 2.804-1.257 11.527 11.527 0 0 0 5.6 1.51 11.5 11.5 0 0 0 4.615-1.038 6.518 6.518 0 0 1 .193-1.701m-4.818-13.518c-2.808 0-5.092 2.275-5.092 5.073s2.284 5.074 5.092 5.074c2.807 0 5.092-2.276 5.092-5.074s-2.285-5.073-5.092-5.073m0 12.147c-3.911 0-7.092-3.174-7.092-7.074s3.18-7.073 7.092-7.073c3.91 0 7.092 3.173 7.092 7.073s-3.182 7.074-7.092 7.074" fill="var(--db-icon-pulse-color, #EC0016)"/></g></svg>
