<svg id="icon" height="32" viewBox="0 0 32 32" width="32" xmlns="http://www.w3.org/2000/svg"><path d="m16 2c5 0 9 4 9 8.938 0 1.906-.78 3.656-1.625 5.374l-6.445 13.122a1.005 1.005 0 0 1 -.899.566c-.375 0-.726-.215-.899-.566l-6.475-13.124c-.846-1.715-1.657-3.466-1.657-5.372 0-4.97 4.031-8.938 9-8.938zm.031 2.031c-3.875 0-7.031 3.125-7.031 7 0 1.594.745 3.096 1.44 4.524l5.591 11.476 5.56-11.474c.694-1.43 1.409-2.932 1.409-4.495 0-3.906-3.094-7.03-6.969-7.03zm-3.031 6.969a3 3 0 1 1 6.002.002 3 3 0 0 1 -6.002-.002z" fill="#282D37" style="fill: currentColor;fill: var(--db-icon-color, currentColor)" fill-rule="evenodd"/></svg>