<svg id="icon" height="64" viewBox="0 0 64 64" width="64" xmlns="http://www.w3.org/2000/svg"><g fill="none" fill-rule="evenodd" transform="translate(8 8)"><path d="m9.544 14.706a1 1 0 0 1 1.52-.531l.095.072 3.559 3.115.714-.236a34.406 34.406 0 0 1 9.224-1.604l.672-.018.672-.004c11.937 0 21.784 6.18 21.996 14.234l.004.266v.293c0 3.816-1.943 7.244-5.474 9.864l-.325.236-.372.256-2.387 6.687a1 1 0 0 1 -.695.633l-.122.023-.125.008h-4.5a1 1 0 0 1 -.993-.883l-.007-.117v-2.735l-.103.023a32.197 32.197 0 0 1 -5.543.688l-.706.019-.708.003a30.08 30.08 0 0 1 -4.163-.545l-.685-.147-.092-.023v2.717a1 1 0 0 1 -.77.974l-.113.02-.117.006h-4.5a1 1 0 0 1 -.917-.6l-.04-.113-1.342-4.469-.187-.055a15.135 15.135 0 0 1 -8.3-6.282l-.211-.338-.164-.277-3.582-.896a1 1 0 0 1 -.73-.736l-.02-.12-.007-.114v-6a1 1 0 0 1 .576-.906l.108-.043 2.58-.86.158-.328a13.606 13.606 0 0 1 3.828-4.688l.394-.296zm1.458 2.062-1.546 5.026a1 1 0 0 1 -.392.532 11.606 11.606 0 0 0 -4.143 5.063 1 1 0 0 1 -.491.514l-.114.046-2.316.771v4.499l3.243.81a1 1 0 0 1 .5.302l.074.093.063.101a13.134 13.134 0 0 0 8.363 6.505 1 1 0 0 1 .675.573l.04.11 1.285 4.287h2.757v-3a1 1 0 0 1 1.043-1l.111.012.113.024a28.06 28.06 0 0 0 5.738.964 30.216 30.216 0 0 0 7.744-.968 1 1 0 0 1 1.245.854l.006.114v3h2.795l2.263-6.336a1 1 0 0 1 .2-.334l.093-.09.105-.079c3.505-2.275 5.426-5.253 5.539-8.558l.005-.31v-.293c0-4.764-4.316-8.955-10.687-11.06l-.356-.115-.652-.196c-2.527-.724-5.339-1.129-8.308-1.129a32.41 32.41 0 0 0 -11.156 1.94 1 1 0 0 1 -.892-.105l-.108-.082zm.498 7.232a1.5 1.5 0 1 1 0 3 1.5 1.5 0 0 1 0-3zm20.686-3.983a1 1 0 1 1 -.372 1.966 31.285 31.285 0 0 0 -11.628 0 1 1 0 1 1 -.372-1.966 33.285 33.285 0 0 1 12.372 0z" fill="#282D37" style="fill: currentColor;fill: var(--db-icon-color, currentColor)" fill-rule="nonzero"/><path d="m26 0a6 6 0 1 0 0 12 6 6 0 0 0 0-12zm0 2a4 4 0 1 1 0 8 4 4 0 0 1 0-8z" fill="#EC0016" style="fill:#EC0016;fill: var(--db-icon-pulse-color, #EC0016)"/></g></svg>
