<svg id="icon" height="64" viewBox="0 0 64 64" width="64" xmlns="http://www.w3.org/2000/svg"><g fill="none" fill-rule="evenodd" transform="translate(12 12)"><path d="m20 0c11.046 0 20 8.954 20 20s-8.954 20-20 20-20-8.954-20-20 8.954-20 20-20zm0 2c-9.941 0-18 8.059-18 18s8.059 18 18 18 18-8.059 18-18-8.059-18-18-18zm.994 13.965.006.113v9.48a1 1 0 0 1 -1.993.117l-.007-.115v-8.201l-.372.094a1 1 0 0 1 -.12.022l-.123.008h-1.385a1 1 0 0 1 -.117-1.994l.117-.006 1.262-.001 1.495-.373a1 1 0 0 1 1.237.857zm-1.094-5.415c.78 0 1.42.593 1.493 1.352l.007.144a1.5 1.5 0 0 1 -2.993.152l-.007-.144a1.5 1.5 0 0 1 1.5-1.504z" fill="var(--db-icon-color, currentColor)" fill-rule="nonzero"/><path d="m23.844 28.001a1 1 0 0 1 .117 1.993l-.117.007h-7.692a1 1 0 0 1 -.117-1.993l.117-.007z" fill="var(--db-icon-pulse-color, #EC0016)"/></g></svg>
