<svg id="icon" height="64" viewBox="0 0 64 64" width="64" xmlns="http://www.w3.org/2000/svg"><g fill="none" fill-rule="evenodd" transform="translate(9 7.11)"><path d="m42.427 21.645c1.382 2.833.146 6.266-2.741 7.674l-14.465 7.055a5.945 5.945 0 0 1 -1.22.44l-.001 9.83c0 1.574-.406 2.855-1.218 3.872a1 1 0 0 1 -1.563-1.249c.515-.644.781-1.484.781-2.623l.001-9.7a5.732 5.732 0 0 1 -3.219-1.42l-1.782 1.782v4.587c0 2.702-1.276 4.592-2.716 5.578-1.44.987-2.352 1.27-3.105 1.406a1.001 1.001 0 0 1 -1.163-.806 1.008 1.008 0 0 1 .806-1.162c.929-.189 1.642-.606 2.11-.93 1.305-.9 2.068-2.206 2.068-4.086v-5a1 1 0 0 1 .293-.707l5.999-5.999c1.065-1.07 1.065-2.519.001-3.588-1.067-1.068-2.519-1.068-3.586.001l-8 8a1 1 0 0 1 -1.414-1.414l6.051-6.053-.632-1.06c-1.381-2.834-.146-6.266 2.742-7.675l.66-.323c-1.122-.394-2.752.226-4.952 2.067l-8.454 7.458c-1.111 1.112-1.708 2.63-1.708 4.293v18a1 1 0 1 1 -2 0v-18c0-2.182.798-4.209 2.339-5.75l8.519-7.517c3.18-2.662 5.856-3.412 7.916-1.914.145.106.254.244.323.397l11.821-5.765c2.888-1.409 6.353-.269 7.735 2.564zm-4.626-4.92-15.934 7.781c.295.19.577.416.842.681 1.842 1.85 1.842 4.561-.002 6.413l-2.507 2.508c1.118.94 2.746 1.151 4.144.47l14.465-7.056c1.905-.93 2.712-3.17 1.82-5zm.694 8.516-7.186 3.515a1 1 0 0 1 -.879-1.796l7.294-3.56a1 1 0 0 1 .771 1.841zm-21.165-5.045c-1.905.93-2.712 3.171-1.861 4.924l.333.555.491-.489c.659-.66 1.43-1.085 2.232-1.274l18.4-8.985-.07-.142c-.892-1.829-3.155-2.573-5.06-1.644z" fill="var(--db-icon-color, currentColor)" fill-rule="nonzero"/><path d="m29.365 6.59c0 .399.399.939 1.056.939.282 0 .587-.18.775-.446 1.291-1.831 3.38-2.982 5.61-2.982 2.278 0 4.372 1.15 5.655 2.983.196.28.495.445.8.445.447 0 1.01-.352 1.01-.986 0-.235-.07-.435-.191-.608-1.655-2.373-4.362-3.829-7.274-3.829-2.864 0-5.571 1.456-7.226 3.829a1.273 1.273 0 0 0 -.215.655zm2.629 2.558c0 .564.423 1.01.986 1.01.352 0 .68-.188.845-.446a3.533 3.533 0 0 1 2.981-1.643c1.22 0 2.344.61 3.007 1.641a.983.983 0 0 0 .843.448c.587 0 .986-.517.986-1.01 0-.187-.07-.382-.19-.562a5.59 5.59 0 0 0 -4.646-2.513 5.567 5.567 0 0 0 -4.625 2.511c-.14.215-.187.377-.187.564z" fill="var(--db-icon-pulse-color, #EC0016)" transform="matrix(.95105652 .30901699 -.30901699 .95105652 3.696893 -11.077266)"/></g></svg>
