<svg id="icon" height="64" viewBox="0 0 64 64" width="64" xmlns="http://www.w3.org/2000/svg"><g fill="none" fill-rule="evenodd" transform="translate(8 8.494)"><path d="m3 22.506c.635 0 1 .524 1 1v18.083c0 1.01.802 1.917 1.887 1.917h15.113a1 1 0 0 1 1 1c0 .513-.42 1-1 1h-15.113c-2.167 0-3.887-1.766-3.887-3.917v-18.083a1 1 0 0 1 1-1zm42 0a1 1 0 0 1 .993.883l.007 18.201c0 2.085-1.614 3.806-3.685 3.912l-15.315.004c-.58 0-1-.487-1-1a1 1 0 0 1 .883-.993l15.23-.007c1.033 0 1.81-.822 1.882-1.773l.005-18.227c0-.476.365-1 1-1zm-1.538-13c2.51 0 4.426 1.925 4.533 4.29l.005 4.71c0 1.553-1.398 2.9-2.84 2.995l-18.16.005c-.577 0-1-.487-1-1a1 1 0 0 1 .883-.993l18.117-.007c.443 0 .926-.504.992-.909l.008-4.591c0-1.422-1.079-2.418-2.375-2.495l-39.087-.005c-1.368 0-2.538 1.019-2.538 2.5v4.5c0 .386.45.917.897.991l18.103.009a1 1 0 0 1 1 1c0 .476-.365.93-.879.993l-18.121.007c-1.497 0-3-1.39-3-3v-4.5a4.482 4.482 0 0 1 4.319-4.496l19.681-.004z" fill="var(--db-icon-color, currentColor)" fill-rule="nonzero"/><path d="m35.288 1.886c1.706 2.183 1.254 5.366-.983 7.113-1.95 1.524-6.17 2.412-9.305 2.41v34.097a1 1 0 0 1 -1.993.116l-.007-34.212c-3.138.006-7.376-.882-9.332-2.41-2.237-1.748-2.69-4.931-.984-7.114s4.904-2.514 7.14-.767c1.613 1.26 3.194 3.668 4.162 6.441.968-2.773 2.548-5.18 4.161-6.44 2.237-1.748 5.435-1.417 7.14.766zm-5.909.81c-1.605 1.254-3.334 4.379-3.942 6.81 2.627-.106 5.822-.815 7.456-1.95s1.834-3.14.82-4.439c-1.015-1.299-2.954-1.5-4.334-.422zm-15.118.421c-1.014 1.299-.815 3.304.82 4.439 1.633 1.135 4.83 1.844 7.456 1.95-.609-2.431-2.337-5.556-3.943-6.81-1.38-1.078-3.318-.878-4.333.421z" fill="var(--db-icon-pulse-color, #EC0016)"/></g></svg>
