<svg id="icon" height="64" viewBox="0 0 64 64" width="64" xmlns="http://www.w3.org/2000/svg"><g fill="none" fill-rule="evenodd" transform="translate(10 10)"><path d="m36.5 0a3.5 3.5 0 0 1 3.5 3.5v14.5a1 1 0 0 1 -2 0v-14.5a1.5 1.5 0 0 0 -1.5-1.5h-32.998a1.5 1.5 0 0 0 -1.5 1.502l-.002 35.636c.001 2.022.84 2.862 2.862 2.862h31.638a1.5 1.5 0 0 0 1.5-1.5v-4.247a1 1 0 1 1 2 0v4.247a3.5 3.5 0 0 1 -3.5 3.5h-31.638c-3.126 0-4.86-1.735-4.862-4.861l.002-35.636a3.5 3.5 0 0 1 3.5-3.503zm-21.293 33.293 2.292 2.292 1.294-1.292a1 1 0 0 1 1.204-.16l1.608 1.196 1.448-.723a1 1 0 0 1 .636-.088l1.627.533a1 1 0 1 1 -.632 1.898l-1.107-.37-1.63.815a1 1 0 0 1 -.942-.025l-1.411-1.049-1.387 1.387a1 1 0 0 1 -1.32.083l-2.279-2.267-.808 1.077c-.306.408-.958.531-1.4.2a1 1 0 0 1 -.2-1.4l1.5-2a1 1 0 0 1 1.507-.107zm28.26-15.293a2.04 2.04 0 0 1 1.504.634l2.301 2.278c.446.47.728 1.057.728 1.69 0 .564-.211 1.151-.728 1.668l-11.741 11.764c-.282.282-.634.54-.963.588-.106.023-.277.065-.495.12l-.36.09-1.607.41-.501.127c-1.251.319-2.438.615-2.579.615a.937.937 0 0 1 -.704-.306c-.212-.211-.376-.516-.305-.798l1.291-5.237c.094-.399.282-.751.54-1.033l11.882-11.882a2.475 2.475 0 0 1 1.738-.728zm-12.068 13.831-.07.07c-.016.016-.33 1.245-.94 3.687 2.411-.579 3.632-.884 3.663-.915l.094-.094zm9.017-8.947-7.561 7.562 2.7 2.724 7.585-7.585-2.724-2.7zm-15.416 4.116a1 1 0 0 1 0 2h-18a1 1 0 0 1 0-2zm0-4a1 1 0 0 1 0 2h-18a1 1 0 0 1 0-2zm18.14-2.84-1.316 1.315 2.748 2.748 1.315-1.339c.093-.08.173-.337-.047-.54l-2.184-2.184c-.071-.117-.349-.205-.517 0z" fill="var(--db-icon-color, currentColor)" fill-rule="nonzero"/><path d="m15.11 15.56v-1.96h2.145c.603 0 .69-.465.69-.679 0-.217-.087-.682-.69-.682h-2.145v-1.798h2.86c.65 0 .729-.494.729-.72 0-.227-.08-.72-.73-.72h-3.786c-.307 0-.542.08-.704.241-.162.162-.243.4-.243.707v6.102c0 .307.08.542.243.704.162.162.397.243.704.243h4.056c.655 0 .729-.492.729-.718 0-.227-.071-.72-.73-.72zm-4.995-3.28c-.492-.208-1.292-.533-1.507-.825-.214-.292-.214-.777.148-1.03.742-.489 2.2.06 2.238.079a.68.68 0 0 0 .918-.663c-.024-.258-.065-.512-.624-.701a5.248 5.248 0 0 0 -1.79-.31c-.867 0-1.543.21-2.026.63-.483.422-.724 1.015-.724 1.779 0 .41.072.758.217 1.042.144.283.284.447.63.72.347.275 2 .979 2.165 1.075.167.096.505.311.505.754 0 .835-.868.934-1.27.934-.5 0-1.04-.11-1.622-.33-.149-.048-.496-.106-.744.23-.077.14-.122.21-.129.429 0 .472.371.624.572.705.266.114.574.2.925.26 1.763.265 2.813-.115 3.315-.527.535-.388 1.078-1.623.535-2.894a2.048 2.048 0 0 0 -.622-.742c-.269-.201-.639-.405-1.11-.614zm12.866.463c-.31 0-.647-.04-.996-.1v-2.28h1.13c.423 0 1.177 0 1.177 1.148 0 .307-.044.55-.133.73-.246.502-.861.502-1.178.502zm-1.936-3.742c-.3 0-.531.08-.693.241-.161.16-.242.392-.242.694v6.258c0 .846.636.935.932.935.304 0 .943-.092.943-.935v-2.282c.428.048.963.09 1.18.09.95 0 1.677-.212 2.18-.635.504-.424.755-1.054.755-1.89 0-.803-.243-1.416-.73-1.84-.485-.424-1.17-.636-2.056-.636h-2.27zm8.888 2.367.964 2.7h-1.936zm1.208-1.704c-.103-.27-.224-.473-.365-.607-.14-.135-.347-.202-.619-.202a.97.97 0 0 0 -.47.102.799.799 0 0 0 -.29.268 2.305 2.305 0 0 0 -.21.44l-2.482 6.428c-.084.212-.188.662.181.916.37.253.776.055.913-.073.136-.128.252-.334.35-.62l.373-1.044h2.812l.36.995c.105.3.225.48.417.657.193.175.82.352 1.217.04.386-.302.308-.758.246-.928z" fill="var(--db-icon-pulse-color, #EC0016)"/></g></svg>
