<svg id="icon" height="64" viewBox="0 0 64 64" width="64" xmlns="http://www.w3.org/2000/svg"><g fill="none" fill-rule="evenodd" transform="translate(11 8.993)"><path d="m41 25.007a1 1 0 0 1 1 1v9a5 5 0 0 1 -5 5h-32a5 5 0 0 1 -5-5v-9a1 1 0 0 1 2 0v9a3 3 0 0 0 3 3h32a3 3 0 0 0 3-3v-9a1 1 0 0 1 1-1zm-4 9a1 1 0 0 1 0 2h-32a1 1 0 1 1 0-2zm0-4a1 1 0 0 1 0 2h-32a1 1 0 1 1 0-2z" fill="var(--db-icon-color, currentColor)" fill-rule="nonzero"/><path d="m20 1.007v19.593l-6.281-6.312a.961.961 0 0 0 -.719-.281c-.562 0-1 .406-1 1 0 .25.063.5.281.718l8 8a1.05 1.05 0 0 0 1.438 0l8-8a.963.963 0 0 0 .281-.718c0-.594-.469-1-1-1-.25 0-.5.062-.719.281l-6.28 6.312v-19.593c0-1.343-2-1.343-2 0z" fill="var(--db-icon-pulse-color, #EC0016)"/></g></svg>
