<svg id="icon" height="64" viewBox="0 0 64 64" width="64" xmlns="http://www.w3.org/2000/svg"><g fill="none" fill-rule="evenodd" transform="translate(4.162 4.044)"><path d="m53.637 17.058a27.914 27.914 0 0 1 2.2 10.9c-.017 14.336-10.891 26.328-25.157 27.744a28.19 28.19 0 0 1 -2.37.135.996.996 0 0 1 -.948-.001 27.903 27.903 0 0 1 -18.797-7.796.968.968 0 0 1 -.3-.292 27.83 27.83 0 0 1 -7.71-14.301c-2.837-14.053 5.43-27.97 19.129-32.2 13.698-4.229 28.373 2.605 33.952 15.81zm-24.8-15.041v1.94a1 1 0 0 1 -1.993.116l-.006-.117v-1.933a25.93 25.93 0 0 0 -6.563 1.136 25.827 25.827 0 0 0 -10.277 6.038l1.227 1.226a1 1 0 0 1 -1.327 1.492l-.087-.077-1.202-1.203a25.943 25.943 0 0 0 -6.605 16.815h1.34a1 1 0 0 1 .116 1.993l-.116.006h-1.297c.071 1.195.227 2.397.47 3.601a25.824 25.824 0 0 0 6.599 12.707l.695-.695a1 1 0 0 1 1.492 1.327l-.078.087-.677.678a25.896 25.896 0 0 0 16.29 6.664v-.875a1 1 0 0 1 1.993-.116l.007.116v.88c.545-.02 1.093-.057 1.644-.112a25.832 25.832 0 0 0 14.725-6.48l-.757-.755a1 1 0 0 1 1.327-1.492l.088.078.779.78a25.86 25.86 0 0 0 7.15-16.393h-1.462a1 1 0 0 1 -.117-1.993l.117-.007h1.501a25.914 25.914 0 0 0 -1.817-9.074l-.221-.54-.158-.366a25.858 25.858 0 0 0 -4.48-6.924l-1.292 1.292a1 1 0 0 1 -1.492-1.327l.077-.088 1.308-1.308a25.984 25.984 0 0 0 -16.92-7.098zm-6.806 25.958a1 1 0 0 1 .804 1.06l-.016.115-2.4 12.161 9.736-9.086a1 1 0 0 1 1.322-.037l.092.086a1 1 0 0 1 .037 1.322l-.086.091-12 11.2c-.682.637-1.764.075-1.68-.816l.017-.108 3-15.2a1 1 0 0 1 1.174-.788zm5.041-1.866a2 2 0 1 1 1.531 3.695 2 2 0 0 1 -1.53-3.695z" fill="#282D37" style="fill: currentColor;fill: var(--db-icon-color, currentColor)" fill-rule="nonzero"/><path d="m36.048 11.222c.676-.626 1.744-.08 1.677.8l-.014.112-2.89 16a1 1 0 0 1 -1.982-.24l.015-.115 2.356-13.059-9.694 8.97a1 1 0 0 1 -1.322.031l-.091-.087a1 1 0 0 1 -.032-1.322l.087-.09 11.889-11z" fill="#EC0016" style="fill:#EC0016;fill: var(--db-icon-pulse-color, #EC0016)"/></g></svg>
