<svg id="icon" height="64" viewBox="0 0 64 64" width="64" xmlns="http://www.w3.org/2000/svg"><g fill="none" fill-rule="evenodd" transform="translate(4 11)"><path d="m50 0a5 5 0 0 1 4.995 4.783l.005.217v32a5 5 0 0 1 -4.783 4.995l-.217.005h-41a5 5 0 0 1 -4.995-4.783l-.005-.217v-3h-1a3 3 0 0 1 -2.995-2.824l-.005-.176a3 3 0 0 1 2.824-2.995l.176-.005h1v-14h-1a3 3 0 0 1 -2.995-2.824l-.005-.176a3 3 0 0 1 2.824-2.995l.176-.005h1v-3a5 5 0 0 1 4.783-4.995l.217-.005zm0 2h-41a3 3 0 0 0 -2.995 2.824l-.005.176v3h1a3 3 0 0 1 .176 5.995l-.176.005h-1v14h1a3 3 0 0 1 2.995 2.824l.005.176a3 3 0 0 1 -2.824 2.995l-.176.005h-1v3a3 3 0 0 0 2.824 2.995l.176.005h41a3 3 0 0 0 2.995-2.824l.005-.176v-32a3 3 0 0 0 -2.824-2.995zm-43 28h-4a1 1 0 0 0 -.117 1.993l.117.007h4a1 1 0 0 0 .117-1.993zm0-20h-4a1 1 0 0 0 -.117 1.993l.117.007h4a1 1 0 0 0 .117-1.993zm37 21a1 1 0 0 1 0 2h-11a1 1 0 0 1 0-2zm-7-4a1 1 0 0 1 0 2h-4a1 1 0 0 1 0-2zm10 0a1 1 0 0 1 0 2h-7a1 1 0 0 1 0-2zm-22.992-7c1.643 0 2.992 1.35 2.992 3.011v1.995c0 .567-.45.997-.997.997a.989.989 0 0 1 -.997-.997v-1.996c0-.567-.45-1.017-.998-1.017h-8.016c-.548 0-.997.45-.997 1.017v1.995a.99.99 0 0 1 -.998.997.989.989 0 0 1 -.997-.997v-1.995c0-1.66 1.35-3.01 2.992-3.01zm22.992 3a1 1 0 0 1 0 2h-14a1 1 0 0 1 0-2zm-27-13c2.21 0 4.008 1.78 4.008 3.989a4.014 4.014 0 0 1 -4.008 4.008c-2.21 0-3.989-1.799-3.989-4.008a3.98 3.98 0 0 1 3.99-3.989zm.006 2c-1.098 0-2 .902-2 2 0 1.118.902 2 2 2 1.117 0 2-.882 2-2 0-1.098-.883-2-2-2z" fill="#282D37" style="fill: currentColor;fill: var(--db-icon-color, currentColor)" fill-rule="nonzero"/><path d="m47 11a1 1 0 0 1 0 2h-14a1 1 0 0 1 0-2zm-4 4a1 1 0 0 1 0 2h-10a1 1 0 0 1 0-2z" fill="#EC0016" style="fill:#EC0016;fill: var(--db-icon-pulse-color, #EC0016)"/></g></svg>
