<svg id="icon" height="64" viewBox="0 0 64 64" width="64" xmlns="http://www.w3.org/2000/svg"><g fill="none" fill-rule="evenodd" transform="translate(13.5 7)"><path d="m34.39 22.745.093.38.824 3.084.733 2.805.347 1.385.09.384c.125.565.268 1.015.434 1.402.059.138.12.266.189.398l.146.27.282.503c.268.505.415.959.468 1.555.151 1.7-.44 3.449-1.789 4.796a1 1 0 1 1 -1.414-1.414c.918-.917 1.311-2.08 1.211-3.204a1.867 1.867 0 0 0 -.243-.796l-.298-.532a8.236 8.236 0 0 1 -.39-.789 9.34 9.34 0 0 1 -.47-1.423l-.242-1.018-.262-1.037-.726-2.773-.882-3.31c-.211-1.03-.808-1.46-1.448-1.344-.62.113-1.01.687-.848 1.557l.47 2.39.164.89.057.34c.704 3.645-1.96 6.634-5.658 6.752l-.228.004h-17a1 1 0 0 0 -.116 1.993l.116.007h15a3 3 0 0 1 2.995 2.824l.005.176c0 .913-.404 1.73-1.043 2.28.343.486.543 1.08.543 1.72 0 .535-.14 1.037-.385 1.471a2.997 2.997 0 0 1 1.263 3.38l-.049.149h1.671c1.61 0 3.061-.508 4.531-1.44l.295-.192c.274-.184.544-.378.842-.604l.724-.559.102-.068a1 1 0 0 1 1.216.158l.083.095a1 1 0 0 1 -.183 1.402l-.736.567a20 20 0 0 1 -.934.67c-1.764 1.183-3.55 1.885-5.56 1.964l-.38.007h-8.012a3 3 0 0 1 -2.994-2.806l-.006-.188c-.003-.36.059-.705.173-1.025a3 3 0 0 1 -2.115-4.706 2.989 2.989 0 0 1 -1.046-2.275c0-.35.06-.687.17-1h-6.17a3 3 0 0 1 -.176-5.995l.176-.005h17c2.536 0 4.295-1.84 3.95-4.215l-.178-1.017-.18-.947-.36-1.815c-.368-1.968.737-3.595 2.454-3.907 1.677-.304 3.23.763 3.703 2.646zm-10.89 23.255h-3.53a.988.988 0 0 0 -.976.879l-.006.127a1 1 0 0 0 .884.987l.116.007h3.512a1 1 0 0 0 .117-1.993zm-6.003-4a1 1 0 0 0 -.113 1.993l.116.007h5a1 1 0 0 0 .123-1.993l-4.208.001zm-.497-4a1 1 0 0 0 -.116 1.993l.116.007h5.5c.068 0 .136.002.203.007h.3a1 1 0 0 0 .99-.883l.007-.117c0-.52-.386-.942-.883-1l-.117-.007zm.513-38a3 3 0 0 1 2.993 2.806l.007.188c.002.36-.06.705-.174 1.025a3 3 0 0 1 2.116 4.706 2.989 2.989 0 0 1 1.045 2.275c0 .35-.06.687-.17 1h6.17a3 3 0 0 1 .176 5.995l-.176.005h-17c-2.536 0-4.295 1.84-3.95 4.215l.179 1.017.18.947.36 1.815c.367 1.968-.738 3.595-2.455 3.907-1.676.304-3.229-.763-3.703-2.647l-.08-.331-3.007-11.206a1 1 0 0 1 1.92-.546l3.052 11.357.014.06c.21 1.031.807 1.461 1.447 1.345.62-.113 1.01-.687.848-1.557l-.47-2.39-.164-.89-.057-.34c-.703-3.645 1.961-6.634 5.659-6.752l.227-.004h17a1 1 0 0 0 .117-1.993l-.117-.007h-14.5a1 1 0 0 1 -.116-1.993l.116-.007h5.5a1 1 0 0 0 .117-1.993l-.117-.007h-5a1 1 0 0 1 -.116-1.993l.116-.007h4.5a1 1 0 0 0 .117-1.993l-.117-.007h-4.5l-.062-.002-.091-.007a1 1 0 0 1 .037-1.996l.193.005h1.954a.988.988 0 0 0 .976-.879l.006-.127a1 1 0 0 0 -.884-.987l-.116-.007h-8.013c-1.717 0-3.254.578-4.825 1.632-.275.184-.545.378-.843.604l-.724.559-.102.068a1 1 0 0 1 -1.215-.158l-.083-.095a1 1 0 0 1 .182-1.402l.736-.567a20 20 0 0 1 .935-.67c1.764-1.183 3.549-1.885 5.559-1.964l.38-.007h8.012z" fill="var(--db-icon-color, currentColor)" fill-rule="nonzero"/><path d="m19 21a4 4 0 1 1 0 8 4 4 0 0 1 0-8zm0 2a2 2 0 1 0 0 4 2 2 0 0 0 0-4z" fill="var(--db-icon-pulse-color, #EC0016)"/></g></svg>
