<svg id="icon" height="64" viewBox="0 0 64 64" width="64" xmlns="http://www.w3.org/2000/svg"><g fill="none" fill-rule="evenodd" transform="translate(10 6)"><path d="m32.5 37c3.059 0 5.99 1.265 8.146 3.511 2.066 2.152 3.26 5.037 3.349 8.063l.005.364v2.062a1 1 0 0 1 -1.993.117l-.007-.117v-2.063c0-2.644-1.007-5.177-2.797-7.04-1.633-1.702-3.795-2.718-6.078-2.875l-.35-.018-.158.099a21.028 21.028 0 0 1 -10.14 3.011l-.488.01a21.003 21.003 0 0 1 -10.606-3.021l-.161-.1-.26.013c-4.9.286-8.82 4.46-8.958 9.638l-.004.283v2.063a1 1 0 0 1 -1.993.117l-.007-.117v-2.063c0-6.582 5.14-11.937 11.5-11.937a1 1 0 0 1 .535.155 19.004 19.004 0 0 0 9.954 2.97 19.02 19.02 0 0 0 9.976-2.97 1 1 0 0 1 .535-.155zm-10.5-37c1.71 0 2.929.345 4.448 1.107a1 1 0 0 1 .552.87l-.005.124-.012.121c6.053 1.692 9.15 5.583 9.082 11.497a3 3 0 0 0 .475 1.654l.125.18 1.735 2.314a3 3 0 0 1 .592 1.584l.008.216v.333a2 2 0 0 1 -1.85 1.995l-.15.005-2.038-.001c.025.332.038.666.038 1.001 0 7.18-5.82 13-13 13s-13-5.82-13-13c0-.335.013-.669.038-1h-2.038a2 2 0 0 1 -1.995-1.85l-.005-.15v-.333a3 3 0 0 1 .477-1.623l.123-.177 1.735-2.314a3 3 0 0 0 .6-1.834c-.067-5.915 3.03-9.806 9.084-11.497l-.011-.122a1 1 0 0 1 .546-.993c1.52-.762 2.737-1.107 4.446-1.107zm10.957 22.017-.086.009-1.066.139-1.52.187-.962.112-1.364.149-.857.085-1.207.108-.753.06-.711.047-.67.038-.629.027-.587.016-.278.005h-.535l-.714-.016-.78-.032-.669-.038-.711-.048-.753-.059-1.207-.108-.857-.085-.9-.096-1.425-.165-1.521-.188-1.066-.138-.086-.009c-.029.326-.043.653-.043.983 0 6.075 4.925 11 11 11s11-4.925 11-11c0-.33-.014-.658-.043-.983zm-10.957-20.017c-1.049 0-1.837.155-2.72.514l-.212.09.927 9.297a1 1 0 0 1 -.78 1.076l-.116.018a1 1 0 0 1 -1.076-.78l-.018-.116-.784-7.854c-4.978 1.49-7.342 4.585-7.286 9.451a5 5 0 0 1 -.841 2.833l-.159.224-1.735 2.314a1 1 0 0 0 -.192.47l-.008.13v.333h3.735a5 5 0 0 1 .656.043l1.557.2.986.121.944.11.902.1.86.09 1.21.113.755.063 1.052.075.65.037.606.026.564.016.523.006.523-.006.564-.016.607-.026.65-.037 1.052-.075.755-.063 1.21-.114.86-.089.902-.1 1.432-.169 2.055-.262a5 5 0 0 1 .436-.038l.22-.005h3.734v-.333a1 1 0 0 0 -.13-.492l-.07-.108-1.735-2.314a5 5 0 0 1 -1-3.057c.056-4.865-2.308-7.961-7.285-9.451l-.79 7.855a1 1 0 0 1 -1.995-.083l.005-.117.933-9.296-.21-.09a6.59 6.59 0 0 0 -2.416-.51z" fill="var(--db-icon-color, currentColor)" fill-rule="nonzero"/><path d="m14.042 17.221a1 1 0 0 1 1.24-.681l.113.028.17.035.367.061.32.045.385.048.27.029.577.054.626.047.676.04.356.016.752.028.395.01.829.014.882.005.882-.005.83-.014.777-.023.37-.015.7-.035.332-.02.626-.048.577-.054.654-.077.32-.045.366-.06.234-.05.05-.014a1 1 0 0 1 .559 1.92l-.176.046-.23.05-.29.051-.349.054-.41.055-.23.027a28.63 28.63 0 0 1 -.584.061l-.633.054-.681.045-.731.038-.385.015-.807.024-.86.015-.911.005-.911-.005-.86-.015-.806-.024-.757-.033a46.732 46.732 0 0 1 -.359-.02l-.681-.045-.633-.054-.584-.06-.23-.028-.41-.055-.35-.054-.289-.052a7.457 7.457 0 0 1 -.122-.025l-.204-.048a1 1 0 0 1 -.762-1.261z" fill="var(--db-icon-pulse-color, #EC0016)"/></g></svg>
