<svg id="icon" height="64" viewBox="0 0 64 64" width="64" xmlns="http://www.w3.org/2000/svg"><g fill="none" fill-rule="evenodd" transform="translate(7.986 10.003)"><path d="m25.444 2.825c6.58-2.26 12.7-1.314 17.692 3.625 6.688 6.617 6.32 16.058.014 22.547a1 1 0 1 1 -1.434-1.394c5.57-5.731 5.889-13.918.013-19.731-4.408-4.362-9.729-5.184-15.635-3.155-4.56 1.566-9.217 4.816-12.527 8.27a2.035 2.035 0 0 0 -.288 2.399 1.854 1.854 0 0 0 1.986.93l.155-.038 10.04-3.088a1 1 0 0 1 .697 1.87l-.11.041-10.05 3.092a3.852 3.852 0 0 1 -4.467-1.837 4.034 4.034 0 0 1 .587-4.748c3.522-3.673 8.435-7.102 13.327-8.783z" fill="var(--db-icon-pulse-color, #EC0016)"/><path d="m5.086 5.68c4.618-4.754 11.17-6.903 16.277-4.978a1 1 0 1 1 -.705 1.871c-4.281-1.613-10.03.272-14.138 4.5-5.704 5.869-6.291 13.724-.122 20.301l.26.273 17.224 17.724a2.033 2.033 0 0 0 2.804.124l.134-.128.063-.065a2.25 2.25 0 0 0 .13-2.971l-.117-.134-6.938-7.22c-.896-.932.432-2.263 1.356-1.467l.085.081 8.081 8.399a2.034 2.034 0 0 0 2.811.13l.135-.128.039-.04a2.25 2.25 0 0 0 .122-2.98l-.112-.128-7.93-8.156-.078-.088c-.741-.92.527-2.153 1.426-1.387l.086.08 8.867 9.121c.34.355.797.573 1.283.617l.183.008a2.03 2.03 0 0 0 1.337-.502l.135-.128.06-.063a2.25 2.25 0 0 0 .13-2.972l-.118-.134-8.625-8.959c-.894-.929.426-2.26 1.352-1.47l.086.08 7.948 8.172a2.033 2.033 0 0 0 2.932 0c.838-.87.839-2.248.005-3.115l-13.144-13.526a1 1 0 0 1 1.434-1.394l13.15 13.531a4.25 4.25 0 0 1 -.003 5.892 4.033 4.033 0 0 1 -2.441 1.21l-.225.02.02.068a4.254 4.254 0 0 1 -.909 3.821l-.152.167-.061.063a4.033 4.033 0 0 1 -4.057 1.074l-.097-.033-.024.189a4.241 4.241 0 0 1 -.988 2.145l-.153.169-.039.04a4.034 4.034 0 0 1 -4.29.996l-.106-.043-.007.052a4.24 4.24 0 0 1 -.987 2.136l-.152.167-.063.065a4.033 4.033 0 0 1 -5.649.168l-.166-.164-17.22-17.719c-7.243-7.452-6.64-16.674-.139-23.362z" fill="var(--db-icon-color, currentColor)" fill-rule="nonzero"/></g></svg>
