<svg id="icon" height="64" viewBox="0 0 64 64" width="64" xmlns="http://www.w3.org/2000/svg"><g fill="none" fill-rule="evenodd" transform="translate(10 10)"><path d="m22 0c12.15 0 22 9.85 22 22s-9.85 22-22 22-22-9.85-22-22 9.85-22 22-22zm1 2.025v1.975a1 1 0 0 1 -1.993.117l-.007-.117v-1.975a19.896 19.896 0 0 0 -8.41 2.322l.637 1.069a1 1 0 0 1 -1.653 1.12l-.065-.096-.634-1.063a20.107 20.107 0 0 0 -5.848 6.038l1.154.619a1 1 0 0 1 -.838 1.812l-.106-.05-1.184-.633a19.89 19.89 0 0 0 -2.028 7.837h1.975a1 1 0 0 1 .117 1.993l-.117.007h-1.975a19.887 19.887 0 0 0 2.312 8.39l1.07-.641a1 1 0 0 1 1.126 1.65l-.097.065-1.071.643a20.107 20.107 0 0 0 6.058 5.87l.589-1.064a1 1 0 0 1 1.8.864l-.05.105-.592 1.068a19.89 19.89 0 0 0 7.83 2.025v-1.975a1 1 0 0 1 1.993-.117l.007.117v1.975a19.888 19.888 0 0 0 8.326-2.278l-.664-1.113a1 1 0 0 1 1.653-1.12l.065.096.666 1.116a20.107 20.107 0 0 0 5.856-5.978l-1.107-.632a1 1 0 0 1 .887-1.789l.104.052 1.1.629a19.89 19.89 0 0 0 2.091-7.958h-1.977a1 1 0 0 1 -.117-1.993l.117-.007h1.975a19.886 19.886 0 0 0 -2.339-8.44l-1.154.691a1 1 0 0 1 -1.125-1.65l.096-.065 1.15-.69a20.107 20.107 0 0 0 -5.977-5.793l-.64 1.15a1 1 0 0 1 -1.797-.87l.05-.105.643-1.152a19.878 19.878 0 0 0 -7.355-2.019zm-8.618 14.59.105.05 8.06 4.498.081.059.102.094.07.083.053.079 7.01 12.018a1 1 0 0 1 -1.662 1.105l-.065-.097-6.861-11.763-7.762-4.33a1 1 0 0 1 .869-1.797z" fill="#282D37" style="fill: currentColor;fill: var(--db-icon-color, currentColor)" fill-rule="nonzero"/><path d="m24 11a1 1 0 0 1 .117 1.993l-.117.007h-4a1 1 0 0 1 -.117-1.993l.117-.007z" fill="#EC0016" style="fill:#EC0016;fill: var(--db-icon-pulse-color, #EC0016)"/></g></svg>
