<svg id="icon" height="64" viewBox="0 0 64 64" width="64" xmlns="http://www.w3.org/2000/svg"><g fill="none" fill-rule="evenodd" transform="translate(4 6)"><path d="m41.946 0c1.65 0 2.988 1.354 2.988 3.023v7.393h7.966c1.71.001 3.096 1.402 3.099 3.132v24.204c-.002 1.732-1.388 3.134-3.1 3.137h-7.966v8.088c0 1.67-1.338 3.023-2.988 3.023h-27.883c-1.65 0-2.988-1.354-2.988-3.023v-8.088h-7.967a3.085 3.085 0 0 1 -2.195-.917 3.16 3.16 0 0 1 -.912-2.22v-24.204c.002-.832.33-1.63.913-2.217a3.083 3.083 0 0 1 2.194-.915h7.967v-7.393c0-1.67 1.338-3.023 2.988-3.023zm0 31.817h-27.884c-.55 0-.996.45-.996 1.007v16.153c0 .556.446 1.007.996 1.007h27.884c.55 0 .996-.45.996-1.007v-16.153c0-.556-.446-1.007-.996-1.007zm10.955-19.147h-49.794a.884.884 0 0 0 -.868.877v24.204c0 .486.388.88.868.881h7.967v-5.809c0-1.67 1.338-3.023 2.988-3.023h27.892c1.65 0 2.988 1.354 2.988 3.023v5.813h7.967a.878.878 0 0 0 .868-.88l-.008-24.209a.874.874 0 0 0 -.868-.877zm-10.955-10.654h-27.884c-.55 0-.996.45-.996 1.007v7.393h29.876v-7.393c0-.556-.446-1.007-.996-1.007zm-3.983 40.7h-19.918c-.55 0-.996.452-.996 1.008 0 .557.446 1.008.996 1.008h19.918c.55 0 .996-.451.996-1.008 0-.556-.446-1.007-.996-1.007zm0-6.046h-19.918c-.55 0-.996.451-.996 1.008 0 .556.446 1.008.996 1.008h19.918c.55 0 .996-.452.996-1.008 0-.557-.446-1.008-.996-1.008z" fill="var(--db-icon-color, currentColor)" fill-rule="nonzero"/><path d="m15.058 18.964h-4.382c-.55 0-.996.451-.996 1.008 0 .556.446 1.007.996 1.007h4.382a1 1 0 0 0 .995-1.007c0-.557-.445-1.008-.995-1.008zm7.95 0h-4.381c-.55 0-.996.451-.996 1.008 0 .556.446 1.007.996 1.007h4.382c.55 0 .996-.45.996-1.007s-.446-1.008-.996-1.008z" fill="var(--db-icon-pulse-color, #EC0016)"/></g></svg>
