<svg id="icon" height="32" viewBox="0 0 32 32" width="32" xmlns="http://www.w3.org/2000/svg"><path d="m5 21v-7c0-.563.438-1 1-1 .563 0 1 .438 1 1v7a3 3 0 0 0 3 3h6.594l-2.313-2.281a1.032 1.032 0 0 1 -.281-.719c0-.576.413-1 1-1 .25 0 .531.094.719.281l4 4a.962.962 0 0 1 .281.719c0 .25-.094.531-.281.719l-4 4a.962.962 0 0 1 -.719.281c-.576 0-1-.413-1-1 0-.25.076-.516.281-.719l2.313-2.281h-6.594c-2.75 0-5-2.25-5-5zm1-18c2.219 0 4 1.781 4 4s-1.781 4-4 4-4-1.781-4-4 1.781-4 4-4zm0 2c-1.094 0-2 .906-2 2s.906 2 2 2 2-.906 2-2-.906-2-2-2zm6.281 2.719a.962.962 0 0 1 -.281-.719c0-.25.094-.531.281-.719l4-4a.962.962 0 0 1 .719-.281c.563 0 1 .438 1 1 0 .25-.076.516-.281.719l-2.313 2.281h6.594c2.75 0 5 2.25 5 5v7c0 .563-.438 1-1 1-.563 0-1-.438-1-1v-7a3 3 0 0 0 -3-3h-6.594l2.313 2.281a.991.991 0 0 1 .281.719c0 .563-.438 1-1 1-.25 0-.5-.063-.719-.281zm13.719 13.281c2.219 0 4 1.781 4 4s-1.781 4-4 4-4-1.781-4-4 1.781-4 4-4zm0 2c-1.094 0-2 .906-2 2s.906 2 2 2 2-.906 2-2-.906-2-2-2z" fill="var(--db-icon-color, currentColor)" fill-rule="evenodd"/></svg>
