<svg id="icon" height="20" viewBox="0 0 20 20" width="20" xmlns="http://www.w3.org/2000/svg"><path d="m2.492 13.992c0-.553.423-.992 1.008-.992h3.5a1 1 0 0 0 1-1v-2c0-1.655 1.345-3 3-3h3.6l-1.29-1.268a.98.98 0 0 1 -.286-.724c0-.52.423-1.008.976-1.008.346 0 .52.13.715.293l3.025 3.024a.97.97 0 0 1 .26.65c0 .26-.098.52-.293.716l-3.015 2.997c-.195.195-.465.32-.692.32a1 1 0 0 1 -1-1c0-.227.115-.498.31-.693l1.275-1.299-3.58.001a.998.998 0 0 0 -1.005.991v2c0 1.622-1.341 3-3 3h-3.5a.993.993 0 0 1 -1.008-1.008zm.008-5.96c0-.585.423-1.04 1.008-1.04.553 0 1.008.455 1.008 1.04 0 .52-.455.976-1.008.976a.986.986 0 0 1 -1.008-.975zm2.992 0c0-.585.455-1.04 1.017-1.035.551 0 1.006.455 1.006 1.039 0 .519-.455.973-1.006.973-.562 0-1.017-.456-1.017-.976z" fill="var(--db-icon-color, currentColor)" fill-rule="evenodd"/></svg>
