<svg id="icon" height="24" viewBox="0 0 24 24" width="24" xmlns="http://www.w3.org/2000/svg"><path d="m17.984 8c.25 0 .542.088.73.275l2.973 3.005c.22.188.313.47.313.72s-.094.532-.313.72l-2.973 3.005c-.188.187-.48.275-.73.275-.593 0-1-.5-1-1 0-.25.094-.5.313-.719l1.291-1.28-10.728-.001a3.038 3.038 0 0 1 -2.854 1.973c-1.661 0-3.006-1.313-3.006-2.973 0-1.659 1.346-2.973 3.005-2.973a3.038 3.038 0 0 1 2.854 1.973l10.73-.002-1.292-1.31a.933.933 0 0 1 -.313-.688c0-.531.375-1 1-1zm-12.98 2.998a.989.989 0 0 0 -1 1.002.989.989 0 0 0 1 1.002.997.997 0 0 0 1.013-1.002.997.997 0 0 0 -1.011-1.002z" fill="var(--db-icon-color, currentColor)" fill-rule="evenodd"/></svg>
