<svg id="icon" height="32" viewBox="0 0 32 32" width="32" xmlns="http://www.w3.org/2000/svg"><path d="m16 2c7.7188 0 14 6.2813 14 14s-6.2812 14-14 14c-7.7187 0-14-6.2813-14-14s6.2813-14 14-14zm0 6c.5625 0 1 .4366 1 1v8.75c0 .5634-.4375 1-1 1-.5312 0-1-.4056-1-1v-8.75c0-.5634.4375-1 1-1zm0 15.3437c.75 0 1.3438-.625 1.3438-1.3437 0-.75-.5938-1.3438-1.3438-1.3438-.7187 0-1.3437.5938-1.3437 1.3438 0 .7187.625 1.3437 1.3437 1.3437z" fill="var(--db-icon-color, currentColor)" fill-rule="evenodd"/></svg>
