<svg id="icon" height="64" viewBox="0 0 64 64" width="64" xmlns="http://www.w3.org/2000/svg"><g fill="none" fill-rule="evenodd" transform="translate(4 12)"><path d="m1 40a1 1 0 0 1 -.993-.883l-.007-.117v-14a5 5 0 0 1 4.783-4.995l.217-.005h11v-15a5 5 0 0 1 4.783-4.995l.217-.005h14a5 5 0 0 1 4.995 4.783l.005.217v5a1 1 0 0 1 -1.993.117l-.007-.117v-5a3 3 0 0 0 -2.824-2.995l-.176-.005h-14a3 3 0 0 0 -2.995 2.824l-.005.176v33h4v-11a3 3 0 0 1 2.824-2.995l.176-.005h6a1 1 0 0 1 .117 1.993l-.117.007h-6a1 1 0 0 0 -.993.883l-.007.117v12a1 1 0 0 1 -.883.993l-.117.007zm48.003-26.668a10 10 0 0 1 4.991 8.322l.006.346v3.011a27.687 27.687 0 0 1 -.712 6.258c-.109.466-.218.909-.33 1.329l-.17.613c-1.436 4.974-3.315 6.515-7.47 6.754l-.51.023c-.173.005-.35.009-.532.01l-.275.002c-.277 0-.546-.004-.807-.012l-.51-.023-.246-.016-.477-.042c-3.111-.322-4.837-1.561-6.113-4.806l-.188-.502c-.124-.345-.243-.71-.36-1.097l-.171-.597-.21-.794-.21-.864a27.682 27.682 0 0 1 -.7-5.547l-.01-.702.001-3 .005-.321a10 10 0 0 1 14.998-8.345zm-33.004 8.668h-10.999a3 3 0 0 0 -2.995 2.824l-.005.176-.001 13h3.001v-10.972a3 3 0 0 1 2.824-2.995l.176-.005h2a3 3 0 0 1 2.995 2.824l.005.176v10.972h2.999zm-5.999 4.028h-2a1 1 0 0 0 -.993.883l-.007.117v10.972h4v-10.972a1 1 0 0 0 -.77-.974l-.113-.02zm27.916 8.907.103.223c.8 1.666 1.814 2.394 3.48 2.68l.363.053.383.042.51.037.544.022.462.007h.48l.463-.007.438-.016a14.3 14.3 0 0 0 .616-.043l.383-.041c1.83-.235 2.92-.908 3.767-2.58l.164-.345c-3.48 1.537-8.153 1.569-11.751.137zm6.084-20.944-.296.005a8 8 0 0 0 -7.699 7.718l-.005.286v3a25.678 25.678 0 0 0 .52 5.161l.142.651.149.625.172.677.062.036.06.04c3.573 2.594 10.308 2.628 13.774.012.045-.034.092-.064.14-.09l.024-.083.222-.895.075-.317c.39-1.692.61-3.419.652-5.154l.008-.663v-3.001a8 8 0 0 0 -7.704-8.003zm-4.743 14.009.113.002c.372.03.705.27.847.627l.037.111.542 2.026a1 1 0 0 1 -.707 1.224l-.114.024-.114.01a1 1 0 0 1 -.96-.63l-.037-.11-.542-2.026a1 1 0 0 1 .935-1.258zm9.486 0 .114.01a1 1 0 0 1 .845 1.134l-.024.114-.543 2.025a1 1 0 0 1 -.884.738l-.112.003a1.003 1.003 0 0 1 -.96-1.144l.024-.114.543-2.026a1 1 0 0 1 .884-.738l.113-.003zm-4.813-11 .258.003c3.082.073 5.613 1.417 5.8 3.758l.01.197v1.007a6.018 6.018 0 0 1 -5.68 5.998l-.259.009a5.998 5.998 0 0 1 -2.049-.332 5.94 5.94 0 0 1 -4.009-5.431l-.001-.246v-1.154c.076-2.375 2.575-3.737 5.67-3.807zm-.001 2-.238.003c-2.12.054-3.607.847-3.689 1.864l-.003.114v.993a3.943 3.943 0 0 0 2.664 3.776c.46.16.939.232 1.413.22l.237-.012a4.016 4.016 0 0 0 3.68-3.767l.006-.228-.001-.972-.007-.1c-.127-.982-1.573-1.77-3.588-1.879l-.234-.01zm-15.929-13a5 5 0 1 1 0 10 5 5 0 0 1 0-10zm0 2a3 3 0 1 0 0 6 3 3 0 0 0 0-6z" fill="#282D37" style="fill: currentColor;fill: var(--db-icon-color, currentColor)" fill-rule="nonzero"/><path d="m55 42a1 1 0 0 1 .117 1.993l-.117.007h-22a1 1 0 0 1 -.117-1.993l.117-.007zm-25-23a1 1 0 0 1 .117 1.993l-.117.007h-4a1 1 0 0 1 -.117-1.993l.117-.007z" fill="#EC0016" style="fill:#EC0016;fill: var(--db-icon-pulse-color, #EC0016)"/></g></svg>
