<svg id="icon" height="32" viewBox="0 0 32 32" width="32" xmlns="http://www.w3.org/2000/svg"><path d="m2 20.025a1 1 0 0 1 1-1l1.433.001c1.262-1.361 6.382-4.004 11.577-4.004 5.194 0 10.299 2.644 11.56 4.004l1.43-.001a1 1 0 1 1 0 2l-1.31.001a12.62 12.62 0 0 1 -11.682 7.974 12.63 12.63 0 0 1 -11.693-7.974l-1.315-.001a1 1 0 0 1 -1-1zm2.008-5.033c0-6.623 5.369-11.992 11.992-11.992s11.992 5.369 11.992 11.992a1 1 0 1 1 -2 0c0-5.518-4.474-9.992-9.992-9.992s-9.992 4.474-9.992 9.992a1 1 0 1 1 -2 0zm2.124 5.164a10.536 10.536 0 0 0 19.736 0 18.17 18.17 0 0 0 -9.86-3.135 18.243 18.243 0 0 0 -9.876 3.135zm5.576 1.15c-.487-.15-.697-.532-.697-.92 0-.517.372-1.043.957-1.043.103 0 .213.016.328.052a12.67 12.67 0 0 0 7.413 0c.113-.035.22-.051.321-.051.585 0 .966.53.966 1.049 0 .385-.21.763-.7.913a14.58 14.58 0 0 1 -8.588 0zm2.145 3.935c-.569-.094-.828-.527-.828-.966 0-.55.407-1.106 1.122-1.012a12.763 12.763 0 0 0 3.707 0c.731-.124 1.148.445 1.148 1.005 0 .45-.267.894-.855.973a14.57 14.57 0 0 1 -4.294 0z" fill="#282D37" style="fill: currentColor;fill: var(--db-icon-color, currentColor)" fill-rule="evenodd"/></svg>