<svg id="icon" height="32" viewBox="0 0 32 32" width="32" xmlns="http://www.w3.org/2000/svg"><path d="m16 7a4 4 0 0 1 4 4c0 1.85-1.272 2.797-1.93 3.26-.657.462-.998.462-1.05 1.25l-.02.783 11.136 3.844a2.5 2.5 0 0 1 1.546 3.18c-.329.951-1.2 1.646-2.328 1.683h-22.673a2.5 2.5 0 0 1 -.982-4.8l11.302-3.908c0-1.9.274-2.7 1.491-3.402 1.085-.645 1.508-1.164 1.508-1.89a2 2 0 0 0 -2-2c-1.054 0-1.946.8-2 2a1 1 0 0 1 -2 0 4 4 0 0 1 4-4zm0 11.118c-.122 0-.313.046-.57.138l-10.913 3.771a.5.5 0 0 0 .074.965l22.728.008a.5.5 0 0 0 .473-.337c.08-.232 0-.565-.438-.678l-10.784-3.73c-.257-.091-.448-.137-.57-.137z" fill="var(--db-icon-color, currentColor)" fill-rule="evenodd"/></svg>
