<svg id="icon" height="32" viewBox="0 0 32 32" width="32" xmlns="http://www.w3.org/2000/svg"><path d="m2 24.969c0 .562.437 1.03 1 1.03h8c.563 0 1-.468 1-1.03v-6.937c0-1.657-1.344-3.032-3-3.032h-4c-1.656 0-3 1.375-3 3.032zm5-18.97c1.937 0 3.5 1.595 3.5 3.5 0 1.939-1.563 3.5-3.5 3.5a3.494 3.494 0 0 1 -3.5-3.5c0-1.904 1.563-3.499 3.5-3.499zm8 20h5c.562 0 1-.469 1-1.031v-6.999c0-1.625-1.344-2.969-3-2.969h-3c-.562 0-1 .438-1 1v9.02c0 .518.488.98 1 .98zm4.375-16.5c0 1.939-1.562 3.5-3.5 3.5a3.494 3.494 0 0 1 -3.5-3.5c0-1.905 1.563-3.5 3.5-3.5 1.938 0 3.5 1.595 3.5 3.5zm9.625 16.501c.562 0 1-.469 1-1.031v-6.999c0-1.626-1.344-2.97-3-2.97h-3c-.563 0-1 .438-1 1v9c0 .515.438.999 1 .999h5zm-.5-16.5c0 1.939-1.563 3.5-3.5 3.5a3.494 3.494 0 0 1 -3.5-3.5c0-1.905 1.562-3.5 3.5-3.5 1.937 0 3.5 1.595 3.5 3.5z" fill="#282D37" style="fill: currentColor;fill: var(--db-icon-color, currentColor)" fill-rule="evenodd"/></svg>