<svg id="icon" height="32" viewBox="0 0 32 32" width="32" xmlns="http://www.w3.org/2000/svg"><path d="m10.5 18a3.5 3.5 0 1 1 0 7 3.5 3.5 0 0 1 0-7zm0 2a1.5 1.5 0 1 0 0 3 1.5 1.5 0 0 0 0-3zm-6.42-9.158a5 5 0 0 1 5.88-3.638c.576.11 1.753.56 3.531 1.352a17 17 0 0 1 4.404 2.797c1.978 1.736 3.606 3.41 4.885 5.027a1 1 0 0 1 .208.74c-.032.264-.63 2.685-.773 2.917-.703 1.143-1.589 1.948-2.471 1.955-.588.005-1.709.006-3.362.001-.48 0-.883-.48-.883-.993s.42-.993.883-.993c1.93 0 2.965-.004 3.108-.013.254.016.548-.303.82-.695.182-.261.38-.948.593-2.06-1.54-1.796-2.983-3.257-4.327-4.382-1.183-.99-2.45-1.837-3.85-2.453s-2.809-1.18-3.356-1.276a3 3 0 0 0 -3.343 2.17l-1.027 4.808v2.864a.3.3 0 0 0 .243.31 1 1 0 1 1 -.486 1.941c-.975-.245-1.757-1.145-1.757-2.219v-3.002c0-.16.36-1.88 1.08-5.158zm24.834 7.468a1 1 0 1 1 0 2 2.53 2.53 0 0 0 -.943.182l-1.818.888c-.343.17-.781.292-1.097.3-.21.007-.453.01-.728.01a1 1 0 0 1 -1-1c0-.513.415-1 1-.994l.499-.006a1 1 0 0 0 .337-.059c.071-.025.654-.31 1.746-.854a4.53 4.53 0 0 1 2.004-.467zm-21.121-6.212c.228-.729.99-1.211 1.752-1.05 1.238.508 2.268.956 3.088 1.343a12 12 0 0 1 3.323 2.323c.363.367.647.668.852.904.308.354.25.967-.121 1.317a1 1 0 0 1 -1.322.045 42.403 42.403 0 0 0 -.865-.892c-.704-.715-1.677-1.388-2.658-1.859l-2.254-.981-.44 2.047c-.099.41-.595.783-1.155.659s-.856-.66-.79-1.07c.058-.312.254-1.24.59-2.786z" fill="var(--db-icon-color, currentColor)" fill-rule="evenodd"/></svg>
