<svg id="icon" height="64" viewBox="0 0 64 64" width="64" xmlns="http://www.w3.org/2000/svg"><g fill="none" fill-rule="evenodd" transform="translate(13.03 12)"><path d="m18.77 0c.856 0 1.876.325 2.747 1.236.367.383.778 1.449.743 2.411l3.05-1.18a1 1 0 0 1 1.311.625c.177.547.4 1.801-.017 3.045-.397 1.184-1.279 2.104-2.613 2.605l-7.4 2.898 2.158 1.482c.778.49 1.904.835 3.378 1.031 7.038 1.032 12.443 6.262 12.443 12.947 0 7.252-3.754 11.414-13.1 13h-8.1a1 1 0 0 1 -.972-.765 4.04 4.04 0 0 1 .081-2.096c.394-1.225 1.402-2.045 2.945-2.213.511-.055.978-.079 1.4-.07-3.45-6.208-3.497-10.415-1.25-12.9 1.939-2.144 5.22-2.023 6.955-1.743a1 1 0 1 1 -.318 1.974c-3.354-.54-4.802.722-5.153 1.11-1.34 1.482-1.53 4.05.245 8.072.82 1.858 1.927 3.625 2.107 3.99.133.268.17.375.159.594a1 1 0 0 1 -1.052.946c-1.062-.056-1.776-.06-2.683-.001-.928.06-1.43.427-1.506 1.102h7.046c8.05-1.46 11.194-4.66 11.196-11 .001-5.237-4.025-9.479-9.546-10.745-.65-.153-.55-.075-2.174-.392a9.391 9.391 0 0 1 -3.135-1.13c-2.196-1.492-3.41-2.33-3.64-2.514-.674-.252-.938-1.429.029-1.85l8.958-3.52c.772-.25 1.688-.748 1.774-2.155l-12.419 4.8c-.476.239-1.276.328-2.036.305-2.652.073-4.075.969-4.486 1.282-1.734 1.397-2.719 2.177-2.956 2.341-1.093.757-1.405 2.661.17 3.602.71.451 3.365 1.518 3.432 1.548.67.197 1.179.183 1.654.049.31-.624 1.43-.844 1.857.208a1 1 0 0 1 -.289 1.276c-.346 1.063-.482 2.361-.396 3.524.028.385.105 1.04.233 1.965.452 3.229.428 4.97-.488 7.297-.82 2.7-3.367 4.196-3.988 4.545-.148.23.044.362.146.364h1.109c1.3-.08 1.919-.702 2.158-.98.7-.754 1.753-2.356 3.159-4.806a1 1 0 1 1 1.748.972c-.268.482-2.015 3.574-3.289 5.025-1.114 1.387-2.736 1.771-3.773 1.79l-1.112-.001c-1.175 0-2.2-.968-2.2-2.2 0-.709.343-1.41.907-1.806 1.517-.816 2.766-2.1 3.17-3.379.717-1.72.952-3.128.523-6.172-.225-1.623-.278-2.192-.297-2.47-.08-1.08-.008-2.104.175-3.054a5 5 0 0 1 -1.243-.138c-.674-.139-3.328-1.326-4.178-1.812-2.998-1.783-2.506-5.323-.503-6.863.51-.373 1.523-1.174 3.04-2.401 1.264-.964 2.829-1.317 3.184-1.398 1.382-1.126 10.137-7.864 10.312-8a1 1 0 0 1 .61-.207zm-10.3 12.2a1.1 1.1 0 1 1 0 2.2 1.1 1.1 0 0 1 0-2.2zm10.593-10.163-7.38 5.701 8.465-3.274c.21-.903.123-1.44-.14-1.897-.174-.232-.489-.408-.945-.53z" fill="#282D37" style="fill: currentColor;fill: var(--db-icon-color, currentColor)" fill-rule="nonzero"/><path d="m35.537 30.826a1 1 0 0 1 1.407.14c1.323 1.617 1.323 3.9-.328 5.297-1.638 1.387-4.32 1.359-5.953-.256l-.4-.4a1 1 0 0 1 1.414-1.414l.4.4c.836.836 2.348.904 3.247.144.75-.634.75-1.676.072-2.504a1 1 0 0 1 .14-1.407z" fill="#EC0016" style="fill:#EC0016;fill: var(--db-icon-pulse-color, #EC0016)"/></g></svg>
