<svg id="icon" height="64" viewBox="0 0 64 64" width="64" xmlns="http://www.w3.org/2000/svg"><g fill="none" fill-rule="evenodd" transform="translate(5.985 11)"><path d="m15.103 3.544c.119.754.087 1.767-.058 2.508 2.8 1.751 16.603.887 17.383.846.57-.01 9.846-.698 10.487-.698 2.788 0 5.185 1.116 6.422 2.772 1.985 2.43 2.76 4.376 2.472 7.639-.167 1.585-.165 3.401.005 5.447.41 4.466.099 5.938-.113 7.207a1 1 0 0 1 -1.972-.33c.194-1.166.412-2.411.155-5.85-.005-.469-.436-3.433-.063-6.71-.41 1.61-1.34 4.523-1.78 6.554-.44 2.032-.446 3.296-.044 4.555.555 1.477.598 3.448.415 6.105-.075 1.573-.346 3.768-.812 6.586a1 1 0 0 1 -.865.818l-4.72.007a1 1 0 0 1 -.894-1.447c.474-.95 1.248-3.022 1.275-7.495-3.533.98-5.96-1.192-6.617-3.298-5.168 1.34-9.54.518-11.543.09-.283.328-.546 1.29-.521 2.326.064 2.712-.037 5.682-.304 8.91a1 1 0 0 1 -.878.907l-4.718.007a1 1 0 0 1 -.938-1.345c.52-1.411 1.247-2.73 1.142-7.049-.113-3.467-.602-5.42-.735-5.66-.04-.024-1.636-1.196-3.516-4.216s-3.426-5.613-5.031-7.095c-.84-.776-2.304-1.052-3.65-.672-2.248.633-4.141-.282-4.84-2.06-.637-1.619-.018-3.392 1.585-3.972.486-.176.92-.88 1.328-1.672 1.04-2.109 1.63-3.239 3.384-3.544a1 1 0 0 1 1.156.814.995.995 0 0 1 -.814 1.156c-.71.124-1.071.74-1.823 2.244-.862 1.855-1.864 2.717-2.423 2.846-.568.13-.8.716-.532 1.397.303.77 1.153 1.232 2.432.867 1.93-.552 4.096-.218 5.56 1.132 2.12 1.958 3.339 4.387 5.308 7.41.584.916 1.903 2.808 2.737 3.475.68.177 1.115 1.571 1.39 2.925a28.36 28.36 0 0 1 .497 4.72c.058 2.656-.207 4.755-.796 6.298h2.253c.21-3.466.285-6.1.226-7.899 0-1.31.213-2.162.642-3.014.41-.71 2.124-2.944 1.769-5.34a1 1 0 0 1 1.978-.292c.232 1.567-.093 3.054-.823 4.568 6.513 1.271 10.778-.424 11.734-.739s1.78-.507 2.793-.605c-.584-.95-.995-1.919-1.176-2.896a1 1 0 0 1 1.966-.364c.427 2.303 2.688 4.449 2.795 4.547a1 1 0 0 1 .247.354c.857 2.083 1.004 5.045.335 9.563-.151 1.02-.31 1.725-.475 2.117h2.266c.474-3.019.72-5.55.734-7.591.01-1.28-.059-2.301-.33-3.08-.632-1.818-.637-3.426-.029-6.081.23-1.001.772-2.975 1.63-5.923.445-1.711.644-2.934.644-4.124-.131-3.053-3.412-4-5.5-4-.439 0-8.073.56-9.52.646-2.31.13-15.343 1.028-19.087-.93a3.626 3.626 0 0 1 -1.866 1.43 1 1 0 0 1 -1.272-.619.986.986 0 0 1 .618-1.272c1.342-.464 1.358-2.257 1.38-2.53-1.211.373-1.634.717-1.787.971-.236.602-.825.838-1.337.633a1 1 0 0 1 -.558-1.3c.368-.918 1.446-2.035 4.501-2.52a1 1 0 0 1 1.116.835zm26.137 24.06c-1.423.025-2.38.175-3.549.564.423 1.307 1.648 2.132 3.024 2.132.581 0 1.025-.075 1.556-.35-.08-.565-.225-1.212-.408-1.683a18.324 18.324 0 0 1 -.623-.663zm-33.625-19.804a.7.7 0 1 1 0 1.4.7.7 0 0 1 0-1.4z" fill="#282D37" style="fill: currentColor;fill: var(--db-icon-color, currentColor)" fill-rule="nonzero"/><path d="m6.643.764a1 1 0 0 1 1.208-.735c3.408 1.008 4.068 3.62 3.536 5.808a1 1 0 1 1 -1.944-.473c.327-1.345.027-2.686-2.064-3.392a1 1 0 0 1 -.736-1.208z" fill="#EC0016" style="fill:#EC0016;fill: var(--db-icon-pulse-color, #EC0016)"/></g></svg>
