<svg id="icon" height="20" viewBox="0 0 20 20" width="20" xmlns="http://www.w3.org/2000/svg"><path d="m3.01171939 15.202c.701.505 1.199.848 1.493 1.028.44.271.997.47 1.658.514h1.338v1.258h-1.997c-.476 0-.874-.333-.975-.779-.6-.426-1.118-1.069-1.517-2.021zm10.66725001-5.699125.13175.000125 1.052625.00075c.0491562.000125.096375.00025.1414609.000375l.2433594.00075c.1073203.000375.1919297.00075.2485547.001125.577.005 1.147.461 1.278.972.088.341.274.669.559 1.985l.158.537h.509v2l-.38.002c-.039.346-.067.567-.086.664-.008.044-.02.091-.034.139v2.195h-2v-.907l-.094.035c-.802.119-1.604.179-2.406.179s-1.604-.059-2.406-.179l-.094-.034v.906h-2.00000001v-2.189c-.001-.003-.002-.007-.003-.011-.023-.086-.061-.353-.113-.799h-.384v-2h.508l.158-.538.523-1.876c.163-.557.648-1.085 1.43400001-1.085zm-6.20025001-7.501875c3.68400001 0 5.47400001 2.503 5.52000001 6.006v.494h-1.964c.081-.284.325-1.386.369-1.682.128-.864-.673-2.063-1.333-2.365-.66000001-.302-1.51500001-.453-2.56700001-.453-1.154 0-2.072.182-2.754.546-.773.413-1.279 1.351-1.144 2.276.196.947.321 1.511.374 1.692.159.546.596.962 1.141 1.099.969.174 1.764.262 2.383.266.279.002.593-.019.924-.051-.077.149-.146.305-.196.475l-.482 1.728c-.43.112-.748.503-.748.968v2c0 .087.012.17.033.25h-.622c-.474 0-.946-.175-1.261-.386s-1.061-.73-1.642-1.159c-.387-.286-.768-.586-1.142-.898-.244-1.311-.366-2.244-.366-2.798v-2.002c0-3.504 1.708-6.006 5.477-6.006zm2.66800001 11.888c-.26600001-.071-.54100001.088-.61200001.354s.087.541.354.612l.96600001.259c.266.071.541-.087.612-.354.071-.266-.087-.541-.354-.612zm5.7969712-.0153498-.0889712.0153498-.966.259c-.267.071-.425.345-.354.612s.345.425.612.354l.966-.259c.267-.071.425-.345.354-.612s-.345-.425-.612-.354zm-11.17697121-3.0836502c-.36.12-.569.487-.5.85l.564 1.693c.163.332.55.5.91.38s.569-.487.5-.85l-.564-1.693c-.163-.332-.55-.5-.91-.38zm10.63400001.211h-4.8l-.59 2h5.99z" fill="var(--db-icon-color, currentColor)" fill-rule="evenodd"/></svg>
