<svg id="icon" height="20" viewBox="0 0 20 20" width="20" xmlns="http://www.w3.org/2000/svg"><path d="m13.6307775 4.00672795c.8393294.00672796 1.6682377.66472733 1.8591171 1.40337492.127253.49243173.3982881 1.68906411.8131054 3.58989713h1.697v2h-1.105c-.1500149 1.4927406-.2500284 2.3690702-.3000404 2.628989-.0750179.3898781-.2919596.9102181-.5940641 1.1969488v2.1740622h-2.5008955v-1.259c-1.1666667.1726667-2.3333333.259-3.5.259-1.16666667 0-2.33333333-.0863333-3.5-.259l-.00672773 1.259h-2.49327227l-.00067544-2.1740622c-.23401362-.2329458-.46226132-.688957-.54931891-1.0045455-.05803838-.2103923-.1733736-1.1508564-.34600565-2.8213923h-1.104v-2h1.696l.76116229-3.43162637c.23801091-.80507112.94283771-1.56837363 2.08623288-1.56837363s6.24805303 0 7.08738233.00672795zm-4.9936223 8.00176235c-.25838463.0391908-.47846821.2110269-.57915636.4521917l-.30364651 1.2078088c-.03654606.3304713.15553763.7181771.57989528.8144517.42435765.0962745.73112877-.138249.85824034-.4446483l.14251205-.5382942h1.329l.1397183.5289731c.136966.3431006.5098244.5407235.8781834.4486338.368359-.0920898.6043527-.4419258.563746-.8091161l-.3036465-1.2078088c-.1006882-.2411648-.3207718-.4130009-.5791564-.4521917zm-3.71895107-.655297c-.4035973-.0931778-.80631306.1584669-.89949084.5620642-.08541296.3699642.11892077.7391877.46444223.8699263l1.55917713.3669912c.40359729.0931777.80631306-.158467.89949084-.5620643.08541296-.3699642-.11892078-.7391876-.46444223-.8699263zm11.07361937.5620642c-.085413-.3699642-.4309238-.612246-.7987885-.5782865l-1.5622575.3536489c-.4035972.0931777-.655242.4958935-.5620642.8994908.085413.3699642.4309238.612246.7987885.5782865l1.5622574-.3536488c.4035973-.0931778.6552421-.4958936.5620643-.8994909zm-2.034082-6.2152575h-7.91448305l-.64325845 3.3h9.2z" fill="var(--db-icon-color, currentColor)" fill-rule="evenodd"/></svg>
