<svg id="icon" height="32" viewBox="0 0 32 32" width="32" xmlns="http://www.w3.org/2000/svg"><path d="m18.527864 2c.3881128 0 .7717838.07530227 1.1299617.22093726l.7893879.38463555c.4939785.24698925.6942028.84766229.4472136 1.34164079-.2293472.45869431-.7636564.66410062-1.234323.49335068l-.6850266-.33499147c-.1041415-.05207079-.1947431-.09884033-.4186201-.09884033-.1492513 0-.6680705-.00224416-1.5564575-.00673248v2.001l2.4193798.00081725c1.1052952.01580672 1.8543303.16240817 2.5174876.51706861.6631574.35466044 1.1895863.88108936 1.5442467 1.54424673.3595308.67226399.4999447 1.32008449.5170687 2.51748761l.0018172 13.2916094c0 1.776598-.1681936 2.6475757-.6524522 3.5530607-.441814.8261203-1.0961372 1.4804435-1.9222575 1.9222575-.8522212.4557728-1.6738754.6315711-3.248753.6506761l-4.0487669.0017761c-1.776598 0-2.6475757-.1681936-3.5530607-.6524522-.82612029-.441814-1.48044351-1.0961372-1.92225749-1.9222575-.45577284-.8522212-.63157108-1.6738754-.65067616-3.248753v-13.5959171c.01716514-1.19740312.15757909-1.84522362.51710981-2.51748761.35466044-.66315737.88108936-1.18958629 1.54424674-1.54424673.672264-.35953072 1.3200845-.49994467 2.5174876-.51706861l2.4193798-.00181725v-2h-1.527864c-.1164339 0-.2316684.02033161-.3405882.05978724l-.6843342.33463995c-.4939785.24698925-1.0946515.0467649-1.3416408-.44721359-.2293472-.45869432-.0730867-1.00938547.3459132-1.28346877l.6790092-.3470264c.3471386-.1735693.7239805-.27779979 1.1094745-.30772191.256996-.01994809 2.0196275-.02294693 5.2878943-.00899652zm-2.527864 19.5c-1.7522824 0-3.7512401-.1619531-5.9990646-.4848212l-.0009354 1.9848212h2c.5522847 0 1 .4477153 1 1 0 .5128358-.4193798.999-1 .999l-1.9665316.0031642c.052098.6909858.1694604 1.0813728.3826102 1.4799283.2554144.4775834.6242455.8464145 1.1018289 1.1018289.3614944.1933293.6871634.3276556 1.522569.3857155.8354056.05806 5.2013354.0504576 5.919047 0 .7177116-.0504575 1.1158878-.16822 1.522569-.3857155.4775834-.2554144.8464145-.6242455 1.1018289-1.1018289.1933293-.3614944.3583261-.8847277.3820786-1.4799283l-1.7534-.0031642c-.5522847 0-1-.4477153-1-1 0-.5128358.4452257-1 1-1h1.787457v-1.9839637c-2.2482285.322963-4.2475167.4849637-6.000057.4849637zm-3.3728098-13.49885324c-.9040065.01003677-1.2578538.0872277-1.6208599.28136549-.3146204.16826084-.5555572.40919764-.723818.72381805-.1792042.33508256-.2587612.66236118-.2778346 1.4217546l-.0024899 8.5660692c2.2752253.3376223 4.2753229.5058459 5.9978122.5058459 1.7227421 0 3.7231738-.168273 5.9988138-.5059945l-.0034915-8.5659206c-.0190734-.75939342-.0986304-1.08667204-.2778346-1.4217546-.1682608-.31462041-.4091976-.55555721-.723818-.72381805-.3350826-.17920411-.6623612-.25876119-1.4217546-.27783456zm6.3728098.99885324c.5522847 0 1 .44771525 1 1 0 .5128358-.4472136 1-1 1h-6c-.5522847 0-1-.4477153-1-1 0-.51283584.4472136-1 1-1z" fill="var(--db-icon-color, currentColor)" fill-rule="evenodd"/></svg>
