<svg id="icon" height="32" viewBox="0 0 32 32" width="32" xmlns="http://www.w3.org/2000/svg"><path d="m13.4877194 2.002c3.085 0 4.872 1.074 6.252 2.9 1.28 1.692 2.028 3.719 2.155 5.826l.008.277c-.002.55-.448.996-.998.996-.529 0-.951-.415-.984-.936-.001-.001-.039-.505-.07-.754-.186-1.52-.771-2.97-1.704-4.204-1.068-1.413-2.231-2.103-4.657-2.103l-2.907-.004c-2.28900001 0-3.61900001.647-4.72200001 2.106-1.035 1.368-1.642 3.002-1.751 4.702l-.099 3.669c-.052 2.08.137 4.232.662 6.38.775.43 1.446.814 2.014 1.152.852.507 1.167.725 1.759 1.077.106.063.883.308.886.313.435.12.76800001.522.76800001.995 0 .567-.46000001 1.027-1.02700001 1.027-.108 0-.714-.183-.812-.214-.008 0-.063-.01-.084-.017-.009-.004-.017-.007-.025-.011-.172-.062-.337-.129-.492-.216-.23315385-.1303077-.6828935-.4131243-1.15734502-.7107501l-.40824943-.255523c-.27023396-.1684843-.53063632-.3289577-.74540555-.4557269.086.424.221.811.404 1.163s.44.763.771 1.234c.412.611 1.233 1.062 1.853 1.055l1.372.002c.55500001 0 1.00300001.448 1.00300001 1l-.001 1.006c0 .552-.448 1-1.00000001 1h-1.75c-.552 0-1-.448-1-1 0-.091.012-.179.035-.262-.799-.283-1.508-.796-2.029-1.484s-.724-1.004-.997-1.526c-.182-.348-.388-.936-.618-1.765l-.559-2.199c-.557-2.197-.836-4.454-.83106603-6.718l.09206603-3.946c.056-2.24.815-4.407 2.17-6.199 1.331-1.76 3.197-2.9 6.31700001-2.9zm11.52 11.999c1.062 0 1.977.721 2.288 1.745l.998 4.255h1.059c.336 0 .596.228.641.546l.007.765c0 .335-.23.631-.55.682l-.433.008c.033.161.05.328.05.499 0 .114-.129 1.283-.388 3.508-.052.45-.202.868-.429 1.233v1.759c0 .552-.448 1-1 1h-1c-.552 0-1-.448-1-1v-.284c-1.583.023-3.167.034-4.75.034s-3.167-.012-4.75-.036v.286c0 .552-.448 1-1 1h-1c-.552 0-1-.448-1-1v-1.757c-.189-.305-.325-.646-.395-1.012-.047-.244-.182-1.392-.406-3.444-.031-.27-.018-.534.033-.787h-.334c-.37 0-.648-.321-.648-.689v-.667c0-.369.278-.644.648-.644h1.058l.955-4.091c.246-1.055 1.198-1.909 2.281-1.909zm-10.629 8.003c-.244.028-.427.227-.442.464-.01.158.01.358.061.601l1.169.196c.545.091.913.606.822 1.151-.085.506-.535.86-1.035.835l-.718-.113.074.643c.05.431.37.776.786.864 2.271.236 4.073.355 5.406.3570261 1.334.0019739 3.097-.1110261 5.291-.3400261.432-.04.784-.352.881-.766l.093-.758-.601.1c-.545.091-1.06-.277-1.151-.822-.084-.506.227-.986.708-1.125l1.282-.221c.044-.16.0650037-.34.0650037-.54.0009963-.301-.2020037-.521-.4690037-.521l-2.1575391-.0009283c-.0620837-.0000271-.1255034-.0000547-.1902593-.0000829l-2.073074-.0008877c-.0888053-.0000374-.1789465-.0000753-.2704239-.0001136l-2.117428-.0008732c-.1101824-.0000447-.221701-.0000899-.3345555-.0001355l-2.1756791-.0008647c-.1288875-.0000505-.2591111-.0001013-.3906707-.0001525l-2.0736009-.000796zm8.122 1.397c.315 0 .609.149.797.396l.565.947c.28.476.121 1.089-.355 1.369-.442.26-1.002.141-1.304-.258l-.276-.455h-2.855l-.21.358c-.26.442-.885.662-1.369.355s-.61-.807-.408-1.265l.553-.954c.16-.271.437-.45.745-.486zm-15.12200001-6.397c.488-.157 1.008.08 1.216.536l.009.027.178.548.753 2.321c.169.526-.119 1.09-.645 1.259-.488.157-1.008-.08-1.216-.536 0 0-.17769377-.547259-.37856498-1.1658996l-.18287005-.5632008c-.20087121-.6186406-.37856497-1.1658996-.37856497-1.1658996-.043-.133-.056-.267-.045-.396.035-.388.296-.737.69-.864zm17.60600001-1.002h-8.991c-.143 0-.284.101-.355.272-.00188.00456-.0041536.0109264-.0068208.0190991l-.0207264.070712c-.0933152.3387521-.3771328 1.5517089-.8514528 3.6381889h11.481l-.849-3.637c-.045-.193-.163-.363-.407-.363zm-12.984-10.001c2.105 0 3.69.433 4.757 1.298s1.252 1.756 1.143 2.713c-.047.42-.179 1.278-.18 1.281-.075.521-.545.911-1.076.867-.552-.046-.962-.53-.916-1.081.003-.037.15-.982.185-1.292.032-.279.02-.557-.416-.934-.592-.512-1.812-.851-3.497-.851-1.805 0-2.98700001.357-3.62500001.963-.196.186-.307.442-.313.695-.004.168.123.92.381 2.255.082.351.346.627.681.728.764.144 2.52400001.35 2.53000001.35.557.074.949.586.874 1.143-.004.031-.009.061-.016.091-.11.485-.559.81-1.057.779-.002 0-1.71600001-.2-2.55200001-.365-1.229-.243-2.132-1.099-2.407-2.27-.202-.93-.339-1.707-.412-2.333-.11-.938.229-1.873.914-2.524 1.062-1.009 2.73-1.513 5.00200001-1.513z" fill="var(--db-icon-color, currentColor)" fill-rule="evenodd"/></svg>
