<svg id="icon" height="24" viewBox="0 0 24 24" width="24" xmlns="http://www.w3.org/2000/svg"><path d="m16.506913 4c1.0623181 0 1.9770926.7208172 2.2880299 1.74482312l.9980571 4.25517688h1.5587681c.3363956 0 .5968917.2275482.6414745.5459053l.0067574.7647614c0 .3345454-.2299147.6305234-.5497303.6815727l-.9331914.0083346c.0327182.1613771.0498926.3283959.0498926.499426 0 .1140201-.1294072 1.2834667-.3882215 3.5083399-.0518463.4492336-.2017367.8673091-.4276453 1.2326949l-.0011041 1.7590885c0 .5522848-.4477153 1-1 1h-1c-.5522847 0-1-.4477152-1-1v-.2841233c-1.5833032.0230822-3.1666365.0344566-4.75.0341233s-3.1666968-.0123744-4.75-.0361233v.2861233c0 .5522848-.44771525 1-1 1h-1c-.55228475 0-1-.4477152-1-1l.00011242-1.75711c-.18883209-.3048903-.32470597-.6465327-.39480427-1.012398-.04673219-.2439101-.18199932-1.3919285-.40580137-3.444055-.03108446-.2693986-.01811876-.533728.03318502-.7857861l-.83445986-.0007742c-.37003519 0-.64823194-.3213333-.64823194-.6893333v-.6666667c0-.3686667.27819675-.644.64823194-.644h1.55776806l.95504626-4.09103305c.24611152-1.05476366 1.19796253-1.90896695 2.28063465-1.90896695zm-10.63119594 8.0032955c-.24384205.0281357-.42637081.2272454-.44169175.4638099-.01021396.1577097.01011094.3580079.06097469.6008946l1.16939899.1956061c.54477032.090795.91278999.6060226.82199493 1.1507929-.08430969.5058581-.53458412.8593139-1.03465251.8345311l-.71774141-.1129301.07406266.6430415c.04970601.4307854.36988686.7756188.78574025.8636274 2.27079806.2360385 4.07286379.3551592 5.40619709.357362 1.3333333.0021616 3.0968453-.1111234 5.290536-.3398551.4317957-.0398999.783819-.3521577.8812654-.7658869l.0931986-.7582889-.600601.1003939c-.5447703.0907951-1.0599979-.2772246-1.1507929-.8219949-.0843097-.5058582.2269912-.9862432.7080666-1.1249843l1.2823273-.2214147c.0408812-.1591614.0616314-.3389269.0622508-.5392966.0007201-.3005546-.202045-.5206477-.4687941-.5206477-.1778327 0-4.2517459-.0015867-12.22173964-.0047602zm8.12428294 1.3967045c.3149905 0 .609071.1481807.7967213.3956291l.5652129.9473508c.2800195.4760331.121119 1.0889348-.3549141 1.3689543-.4420307.2600181-1.0020757.1415797-1.3040262-.2578054l-.2759939-.4551288h-2.855l-.2100658.3580201c-.2600181.4420308-.88487774.6623595-1.36895433.3549141-.48407658-.3074453-.61061548-.8070622-.40824448-1.2650235l.55333039-.9539308c.15970651-.2715011.43653325-.4498486.74495998-.4861295zm-6.50691303-7.4c-.14279986 0-.2845759.10153668-.35526313.27237885-.04712481.11389478-.34006609 1.35643517-.87882384 3.72762115h11.481l-.8487287-3.63657382c-.0450447-.19304869-.1630914-.36342618-.4073463-.36342618-.1628367 0-3.1597827 0-8.99083803 0z" fill="var(--db-icon-color, currentColor)" fill-rule="evenodd"/></svg>
