<svg id="icon" height="24" viewBox="0 0 24 24" width="24" xmlns="http://www.w3.org/2000/svg"><path d="m22.144 13.017c0-4.125-3.195-7.567-7.32-7.908l.404-.403a.99.99 0 0 0 .341-.745c0-.527-.465-.961-1.023-.961a1.03 1.03 0 0 0 -.652.217l-2.263 2.295a.912.912 0 0 0 -.28.682c0 .28.094.527.28.713l2.169 2.203c.186.186.435.28.745.28.527 0 .961-.466.961-.993a.88.88 0 0 0 -.31-.682l-.558-.62c3.1.217 5.52 2.822 5.52 5.954 0 1.52-.62 3.039-1.768 4.217a.962.962 0 0 0 -.279.683 1 1 0 0 0 .992.992.962.962 0 0 0 .683-.279 7.937 7.937 0 0 0 2.357-5.644zm-19.144 6.99a1 1 0 0 1 .992-.992h.993v-3.962l-.465.279a1.046 1.046 0 0 1 -.528.155c-.558 0-.96-.465-.96-.993 0-.31.123-.62.402-.837l1.985-1.302c.155-.093.341-.155.527-.155.558 0 1.024.434 1.024.992v5.823h1.023a1 1 0 0 1 .992.993.98.98 0 0 1 -.992.992h-4a.98.98 0 0 1 -.993-.992zm9.977-8.007c1.768 0 2.977 1.334 2.977 3.318v2.264c0 1.985-1.21 3.318-2.977 3.318-1.799 0-2.977-1.333-2.977-3.287v-2.357c0-1.984 1.178-3.256 2.977-3.256zm.023 2c-.625 0-1 .472-1 1.258v2.421c0 .85.375 1.321 1 1.321s1-.472 1-1.352v-2.296c0-.849-.375-1.352-1-1.352z" fill="var(--db-icon-color, currentColor)" fill-rule="evenodd"/></svg>
