<svg id="icon" height="20" viewBox="0 0 20 20" width="20" xmlns="http://www.w3.org/2000/svg"><path d="m12.538 10c1.732.016 3.411.65 4.683 1.816l.486.477a1 1 0 0 1 -1.32 1.497l-.36-.349c-.864-.864-2.031-1.414-3.228-1.455-1.196-.04-1.463.004-1.806 0-.342-.002-.648.207-.729.54-.024.1.038.21.167.232.085.015.972.097 2.661.247a1 1 0 0 1 .904 1.088c-.048.51-.455.937-.971.907a104.69 104.69 0 0 1 -2.779-.25c-.496-.052-.93-.209-1.452-.374-.348-.11-1.445-.452-3.29-1.026a1.377 1.377 0 0 0 -1.477.45c-.058.07-.055.206.112.271l3.84 1.47a7 7 0 0 0 2.176.452l6.845.007a1 1 0 0 1 1 1c0 .513-.427 1-1 1h-6.526c-.974 0-2.09-.177-2.864-.468-.516-.194-1.924-.728-4.226-1.604a2.166 2.166 0 0 1 -.912-3.387 3.377 3.377 0 0 1 3.423-1.157l2.41.739c.316-1.247 1.311-2.06 2.51-2.123zm-6.288-2.25a.75.75 0 1 1 0 1.5.75.75 0 0 1 0-1.5zm3.5-.75a.75.75 0 1 1 0 1.5.75.75 0 0 1 0-1.5zm-7-.034a.75.75 0 1 1 0 1.5.75.75 0 0 1 0-1.5zm3.5-1.966a.75.75 0 1 1 0 1.5.75.75 0 0 1 0-1.5zm3-.5a.75.75 0 1 1 0 1.5.75.75 0 0 1 0-1.5zm-6-.022a.75.75 0 1 1 0 1.5.75.75 0 0 1 0-1.5zm3-2.228a.75.75 0 1 1 0 1.5.75.75 0 0 1 0-1.5zm-2.51-.25a.75.75 0 1 1 0 1.5.75.75 0 0 1 0-1.5zm5.01 0a.75.75 0 1 1 0 1.5.75.75 0 0 1 0-1.5z" fill="#282D37" style="fill: currentColor;fill: var(--db-icon-color, currentColor)" fill-rule="evenodd"/></svg>
