<svg id="icon" height="32" viewBox="0 0 32 32" width="32" xmlns="http://www.w3.org/2000/svg"><path d="m24.075 7.78a1 1 0 0 1 -.756 1.197l-1.088.245 1.532 4.91a5.5 5.5 0 1 1 -1.9.624l-.436-1.395-4.427 6.529a1.587 1.587 0 0 1 -1.315.693l-.815-.007a1 1 0 0 1 -.834-.682l-1.561-4.768-.759.925a5.478 5.478 0 0 1 1.284 3.532 5.5 5.5 0 1 1 -2.826-4.807l1.563-1.905-.913-2.871h-.824a1 1 0 1 1 0-2h4a1 1 0 0 1 0 2h-1.072l.615 1.964 6.946-1.613-.489-1.568c-.135-.432.043-1.117.734-1.273l2.144-.485a1 1 0 0 1 1.197.755zm.425 8.303-.128.002.959 3.075a1 1 0 0 1 -1.911.598l-.944-3.031a3.5 3.5 0 1 0 2.024-.644zm-17 0a3.5 3.5 0 1 0 2.912 1.558l-2.012 2.452a1 1 0 1 1 -1.548-1.27l2.02-2.461a3.489 3.489 0 0 0 -1.372-.28zm12.002-3.449-5.335 1.238 1.462 4.47z" fill="#282D37" style="fill: currentColor;fill: var(--db-icon-color, currentColor)" fill-rule="evenodd"/></svg>