<svg id="icon" height="64" viewBox="0 0 64 64" width="64" xmlns="http://www.w3.org/2000/svg"><g fill="none" fill-rule="evenodd" transform="translate(12 10)"><path d="m36 0a4 4 0 0 1 4 4v36a4 4 0 0 1 -4 4h-32a4 4 0 0 1 -4-4v-36a4 4 0 0 1 4-4zm0 2h-32a2 2 0 0 0 -2 2v36a2 2 0 0 0 2 2h32a2 2 0 0 0 2-2v-36a2 2 0 0 0 -2-2zm-17 32a1 1 0 0 1 0 2h-13a1 1 0 0 1 0-2zm14-15a2 2 0 0 1 2 2v11a2 2 0 0 1 -2 2h-9a2 2 0 0 1 -2-2v-11a2 2 0 0 1 2-2zm0 2h-9v11h9zm-14 8a1 1 0 0 1 0 2h-13a1 1 0 0 1 0-2zm-5-5a1 1 0 0 1 0 2h-8a1 1 0 0 1 0-2zm5-5a1 1 0 0 1 0 2h-13a1 1 0 0 1 0-2zm9.006-10.965c.483 0 .543.378.543.553l-.001 1.545s.332-.34.538-.44c.215-.104.439-.173.688-.173.44 0 .773.17 1 .51.228.338.34.814.34 1.425v.017c0 .63-.126 1.114-.38 1.455-.253.341-.615.512-1.085.512-.257 0-.498-.07-.721-.212a1.83 1.83 0 0 1 -.263-.202l-.12-.117s.003.217-.14.36c-.093.096-.227.142-.4.142-.174 0-.31-.048-.405-.144s-.142-.234-.142-.413v-4.265c0-.175.065-.553.548-.553zm-3.064 1.46c.599 0 1.06.172 1.383.516.323.343.484.828.484 1.455v.026c0 .619-.163 1.098-.487 1.437-.325.34-.785.51-1.38.51-.602 0-1.064-.171-1.386-.514s-.483-.828-.483-1.456v-.022c0-.621.163-1.102.49-1.442.326-.34.786-.51 1.379-.51zm7.366-.004c.5.007.546.376.546.553v2.821c0 .177-.027.545-.546.546-.506.001-.546-.369-.546-.546v-2.821c0-.177.063-.553.546-.553zm-14.76.002c.176 0 .308.049.404.142.178.173.139.539.139.539s.276-.311.61-.5c.215-.122.803-.281 1.149.031.136.123.226.277.308.49l.045-.037c.112-.1.406-.358.566-.439.236-.12.462-.196.696-.196.313 0 .555.102.726.306.171.203.257.489.257.857v2.171c0 .178-.042.55-.543.553-.468.003-.539-.32-.547-.509l-.001-2.003c.002-.459-.267-.485-.404-.489-.25-.007-.464.103-.582.172l-.104.059v2.217c0 .178-.053.556-.543.553-.502-.003-.548-.38-.548-.553v-1.963c0-.323-.132-.485-.395-.485-.129 0-.323.022-.625.197l-.065.039v2.212c0 .178-.046.556-.543.553-.495-.003-.548-.375-.548-.553v-2.811c0-.179.047-.316.141-.411.093-.095.229-.142.407-.142zm16.684-1.458c.173 0 .307.048.4.144.096.096.143.232.143.409v4.269c0 .179-.047.316-.14.411-.092.095-.227.142-.403.142-.18 0-.316-.047-.41-.142-.091-.095-.138-.232-.138-.411v-4.269c0-.177.047-.313.142-.409.094-.096.229-.144.406-.144zm-9.28 2.224a.73.73 0 0 0 -.524.201c-.25.241-.221 1.004-.221 1.004v.17c.007.485.1.748.28.901.108.091.233.14.463.14.308 0 .474-.1.575-.3.1-.201.15-.5.15-.897 0 0 .013-.628-.15-.918-.111-.195-.292-.301-.573-.301zm4.327.082c-.324 0-.537.155-.646.224l-.085.055v1.75l.082.057c.069.046.28.191.61.191.296 0 .495-.103.597-.308.103-.205.154-.504.154-.897 0 0 0-.6-.16-.825-.113-.16-.29-.247-.552-.247zm3.029-2.341a.565.565 0 0 1 .58.574.568.568 0 0 1 -.163.417.568.568 0 0 1 -.417.164.554.554 0 0 1 -.574-.588c0-.159.055-.293.164-.402a.557.557 0 0 1 .41-.165z" fill="var(--db-icon-color, currentColor)" fill-rule="nonzero"/><path d="m13.867 7c.544 0 .985.448.985 1v4.993a.998.998 0 0 1 -.985 1.007h-7.877a.998.998 0 0 1 -.99-1v-5c0-.266.104-.521.29-.709a.978.978 0 0 1 .7-.291zm0 .71h-7.877a.27.27 0 0 0 -.197.086.278.278 0 0 0 -.073.204v4.993a.278.278 0 0 0 .076.201.27.27 0 0 0 .195.085h7.877a.27.27 0 0 0 .192-.086.278.278 0 0 0 .074-.2v-4.993a.278.278 0 0 0 -.073-.202.27.27 0 0 0 -.193-.088zm-5.854.499c1.167 0 1.813.742 1.813 2.27.002 1.326-.437 2.301-1.813 2.312h-1.657v-4.582zm4.171.002c1.27 0 1.289 1.021 1.289 1.116a1.124 1.124 0 0 1 -.788 1.067c.821.181.951.787.951 1.109 0 1.288-1.317 1.288-1.74 1.288h-1.596v-4.58zm-4.524.719h-.22v3.118h.386c.574 0 .908-.466.908-1.474 0-.923-.099-1.644-1.074-1.644zm4.19 1.941h-.475v1.177h.445c.176 0 .73 0 .73-.588 0-.256-.138-.589-.7-.589zm-.134-1.954h-.34v1.106h.428c.378 0 .591-.254.591-.554 0-.38-.193-.552-.679-.552z" fill="var(--db-icon-pulse-color, #EC0016)"/></g></svg>
