<svg id="icon" height="64" viewBox="0 0 64 64" width="64" xmlns="http://www.w3.org/2000/svg"><g fill="none" fill-rule="evenodd" transform="translate(3 10)"><path d="m50.61 18c3.994 0 7.257 3.108 7.386 7l.004 15a6 6 0 0 1 -5.775 5.996l-8.225.004a6 6 0 0 1 -5.996-5.775l-.004-14.985c0-3.924 3.183-7.11 7.146-7.236zm-5.22 2c-2.907 0-5.27 2.236-5.386 5.024l-.004 14.976c0 2.142 1.678 3.974 4 4 .012-.638.595-1.033 1.141-.955a20.068 20.068 0 0 0 5.716 0c.547-.078 1.13.315 1.141.955a4 4 0 0 0 3.997-3.8l.005-14.96c0-2.816-2.29-5.122-5.167-5.236zm-.39 19a1 1 0 0 1 1 1c0 .513-.438 1-1 1h-2a1 1 0 0 1 -1-1c0-.513.407-1 1-.993zm8 0a1 1 0 0 1 1 1c0 .513-.424 1-1 1h-2a1 1 0 0 1 0-2zm-21-2a1 1 0 1 1 0 2h-25a1 1 0 0 1 0-2zm18.684-15a3.303 3.303 0 0 1 3.31 3.162c-.303 4.774-.485 7.723-.546 8.849-.091 1.688-1.254 2.893-2.826 2.984l-5.105.005c-1.601 0-2.909-1.25-2.996-2.773l-.521-8.955c.001-1.749 1.39-3.17 3.129-3.267zm-5.367 2c-.685 0-1.243.505-1.312 1.095v.063c.01.546.182 3.532.516 8.958a1 1 0 0 0 .879.877l5.046.007c.515 0 .94-.389.998-.936l.556-8.784c.003-.66-.512-1.208-1.18-1.274zm-30.558 9a1 1 0 0 1 0 2h-7.759a1 1 0 0 1 0-2zm11.207 0a1 1 0 1 1 0 2h-7.76a1 1 0 1 1 0-2zm12.034-27a3 3 0 0 1 3 3v5.946a1 1 0 1 1 -2 0v-5.946a1 1 0 0 0 -1-1h-22a1 1 0 0 0 -1 1v16a1 1 0 0 0 1 1h18.108a1 1 0 0 1 0 2h-18.108a3 3 0 0 1 -3-3v-16a3 3 0 0 1 3-3zm-12.47 7.154 4.8 3a1 1 0 0 1 0 1.696l-4.8 3a1 1 0 0 1 -1.53-.848v-6a1 1 0 0 1 1.53-.848zm.47 2.65v2.394l1.914-1.198-1.914-1.195z" fill="var(--db-icon-color, currentColor)" fill-rule="nonzero"/><path d="m49 0a5 5 0 0 1 5 5v9.946a1 1 0 1 1 -2 0v-9.946a3 3 0 0 0 -3-3h-44a3 3 0 0 0 -3 3v34a3 3 0 0 0 3 3h29.16a1 1 0 0 1 0 2h-29.16a5 5 0 0 1 -5-5v-34a5 5 0 0 1 5-5z" fill="var(--db-icon-pulse-color, #EC0016)"/></g></svg>
