<svg id="icon" height="32" viewBox="0 0 32 32" width="32" xmlns="http://www.w3.org/2000/svg"><path d="m23.9999875 12.246v14.754c0 1.6568542-1.3431458 3-3 3h-10c-1.24733109-.0050316-2.36002217-.7851118-2.79000001-1.956l1.79-1.801v.757c0 .5522847.44771521 1 1.00000001 1h10c.5522847 0 1-.4477153 1-1v-12.754zm-3.012288-10.246c1.6568543 0 3.012288 1.34314575 3.012288 3v1.586l2.280712-2.293c.2510745-.25995658.6228779-.3642126.9725073-.27269716.3496295.09151544.6226744.3645604.7141899.71418984.0915154.34962943-.0127406.72143285-.2726972.97250732l-21.99999999 22c-.39237888.3789722-1.01608477.3735524-1.40181857-.0121814s-.39115364-1.0094397-.01218143-1.4018186l3.71928798-3.707v-17.586c0-1.65685425 1.33085777-3 2.98771201-3zm-2.987712 22c.5522847 0 1 .4477153 1 1s-.4477153 1-1 1h-4c-.5522848 0-1-.4477153-1-1s.4477152-1 1-1zm-6-20h-1c-.5522848 0-1.00000001.44771525-1.00000001 1v15.586l12.00000001-12v-3.586c0-.55228475-.4477153-1-1-1h-1c0 .55228475-.4477153 1-1 1h-6c-.5522848 0-1-.44771525-1-1z" fill="var(--db-icon-color, currentColor)" fill-rule="evenodd"/></svg>
