<svg id="icon" height="64" viewBox="0 0 64 64" width="64" xmlns="http://www.w3.org/2000/svg"><g fill="none" fill-rule="evenodd" transform="translate(3.764 8.002)"><path d="m41.242 0c2.227.067 3.294.329 4.396.918a6.452 6.452 0 0 1 2.679 2.678c.554 1.037.845 2.081.905 4.437v.183l.001.052.001.884v1.357l.001.184.001 1.705v.242l.001 1.882v2.204l.001.34v2.185l.001.387.001 2.46v2.695l.001.472v2.46l.001.512.001 2.656v2.821l.001.584.001 3.017v3.182l.001.656c0 1.37-.134 2.062-.519 2.782a3.83 3.83 0 0 1 -.485.705l.004 1.795c0 .963-.099 1.477-.385 2.012-.268.5-.666.899-1.166 1.166-.49.263-.963.368-1.78.383l-3.105.004c-.964 0-1.477-.1-2.012-.386a2.817 2.817 0 0 1 -1.167-1.166c-.262-.49-.367-.963-.383-1.78l-.002-.668h-20v.436c0 .963-.099 1.477-.385 2.012-.268.5-.666.899-1.166 1.166-.442.236-.993.372-1.752.386h-.39l-.087-.001h-2.656c-.964 0-1.477-.099-2.012-.385a2.817 2.817 0 0 1 -1.167-1.166c-.262-.49-.367-.963-.383-1.78l.003-2.027a3.782 3.782 0 0 1 -.486-.705c-.36-.672-.5-1.32-.517-2.517v-33.386c.055-2.276.328-3.335.918-4.437a6.452 6.452 0 0 1 2.678-2.678c1.037-.555 2.171-.85 4.4-.918zm-31.006 45.839v1.16c0 .5.5 1 1 1h4c.5 0 1-.5 1-1v-1h-4.374c-.8 0-1.148-.046-1.626-.16zm36 0c-.418.1-.5.16-1.846.16h-4.154l.01.997c-.01.393.3 1.002.988 1.002h4.002c.5 0 1-.5 1-1v-1.16zm1.001-14.84c-2.35 1.391-4.543 1.999-8 2h-22c-3.042 0-5.715-.662-8-1.989v10.99c0 1.054.986 2 2 2h34c1.053 0 2-.959 2-2v-11zm-5.5 4a3.5 3.5 0 1 1 0 7 3.5 3.5 0 0 1 0-7zm-27 0a3.5 3.5 0 1 1 0 7 3.5 3.5 0 0 1 0-7zm26.986 2a1.5 1.5 0 1 0 0 3 1.5 1.5 0 0 0 0-3zm-26.987 0a1.5 1.5 0 1 0 0 3 1.5 1.5 0 0 0 0-3zm38.5-28c1.54 0 2.95 1.205 3 2.819v5.18c0 1.598-1.305 3-3 3h-1.25a1 1 0 0 1 -1-1c0-.512.573-.997 1-1 .417-.002.833-.002 1.25 0 .649.007 1-.503 1-1v-5c0-.512-.5-1-1-1h-1.25a1 1 0 0 1 -1-1c0-.512.422-1 1-1 .417-.002.833-.002 1.25 0zm-49.61-.002.624.002c.579 0 1 .487 1 1a1 1 0 0 1 -1 1h-1.25c-.5 0-1 .487-1 1v5c0 .496.351 1.006 1 1 .417-.003.833-.003 1.25 0 .427.002 1 .487 1 1a1 1 0 0 1 -1 1h-1.25c-1.695 0-3-1.403-3-3v-5.181c.05-1.614 1.46-2.82 3-2.82.417-.002.833-.002 1.25 0zm37.616-6.998h-25.98c-5.026 0-6.026 3-6.026 6.034v20.549c3.097 2.006 5.02 2.417 9 2.417 2.02.007 9.02.007 21 0 3.64 0 6-.61 8-2.417.125-1.661.125-8.51 0-20.549-0-4.437-2.332-6.033-5.994-6.033z" fill="var(--db-icon-color, currentColor)" fill-rule="nonzero"/><path d="m35.236 3.999a1 1 0 0 1 .117 1.993l-.117.007h-14a1 1 0 0 1 -.117-1.994l.117-.005h14z" fill="var(--db-icon-pulse-color, #EC0016)"/></g></svg>
