<svg id="icon" height="20" viewBox="0 0 20 20" width="20" xmlns="http://www.w3.org/2000/svg"><path d="m2 10.015a.99.99 0 0 0 1 .985c.545 0 1-.43 1-.985 0-.553-.455-1.015-1-1.015s-1 .462-1 1.015zm4-.015c0 .594.469 1 1.063 1h7.562l-.281.281c-.094.125-.313.375-.313.719 0 .438.281 1 1 1 .25 0 .531-.063.719-.281l1.906-1.938c.219-.219.344-.5.344-.781s-.094-.531-.344-.781l-1.906-1.939a.953.953 0 0 0 -.656-.28c-.469 0-1.063.344-1.063 1 0 .281.094.469.313.719l.281.281h-7.563c-.592 0-1.062.375-1.062 1z" fill="var(--db-icon-color, currentColor)" fill-rule="evenodd"/></svg>
