<svg id="icon" height="24" viewBox="0 0 24 24" width="24" xmlns="http://www.w3.org/2000/svg"><path d="m2 6.963c0-.56.528-.932 1.056-.932.404 0 .776.217.9.745l1.522 6.553 1.708-6.584c.125-.465.528-.683.932-.683.435 0 .839.218.963.714l1.646 6.522 1.552-6.522c.125-.528.497-.745.901-.745.497 0 1.025.404 1.025.994 0 .062 0 .155-.031.248l-2.453 9.441a.98.98 0 0 1 -.963.746.951.951 0 0 1 -.932-.715l-1.708-6.708-1.74 6.708a1.012 1.012 0 0 1 -.962.715.947.947 0 0 1 -.932-.746l-2.422-9.44a1.106 1.106 0 0 1 -.062-.312zm12.267 4.844c0-5.247 3.261-5.807 4.659-5.807.807 0 1.645.186 2.39.528.436.155.622.497.622.87 0 .496-.404 1.024-.963 1.024a1.07 1.07 0 0 1 -.404-.093 4.107 4.107 0 0 0 -1.77-.373c-.776 0-2.546.187-2.546 3.851 0 3.292 1.428 3.727 2.702 3.727.559 0 1.118-.124 1.645-.31.156-.063.28-.094.435-.094.56 0 .963.528.963 1.025 0 .342-.186.684-.59.87a6.622 6.622 0 0 1 -2.453.466c-1.74 0-4.69-.715-4.69-5.684z" fill="var(--db-icon-color, currentColor)" fill-rule="evenodd"/></svg>
