<svg id="icon" height="32" viewBox="0 0 32 32" width="32" xmlns="http://www.w3.org/2000/svg"><path d="m18.528 2a3 3 0 0 1 1.13.22l.79.386a1 1 0 0 1 -.788 1.835l-.685-.335c-.104-.052-.195-.1-.419-.1l-1.556-.006v2.001h2.42c1.105.017 1.854.163 2.517.518s1.19.881 1.544 1.544c.36.672.5 1.32.517 2.518l.002 13.291c0 1.777-.168 2.648-.652 3.553a4.634 4.634 0 0 1 -1.923 1.923c-.852.455-1.674.631-3.248.65l-4.05.002c-1.776 0-2.647-.168-3.552-.652a4.634 4.634 0 0 1 -1.923-1.923c-.455-.852-.631-1.674-.65-3.248v-13.597c.017-1.198.157-1.846.517-2.518a3.726 3.726 0 0 1 1.544-1.544c.672-.36 1.32-.5 2.518-.517l2.419-.001v-2h-1.528a1 1 0 0 0 -.34.06l-.685.334a1 1 0 0 1 -.996-1.73l.68-.347a3 3 0 0 1 1.109-.308c.257-.02 2.02-.023 5.288-.009zm-2.528 19.5c-1.752 0-3.751-.162-6-.485v1.985h2a1 1 0 0 1 1 1c0 .513-.42.999-1 .999l-1.967.003c.053.691.17 1.082.383 1.48.255.478.624.847 1.102 1.102.361.193.687.328 1.522.386.836.058 5.202.05 5.92 0 .717-.05 1.115-.169 1.522-.386a2.635 2.635 0 0 0 1.102-1.102 3.52 3.52 0 0 0 .382-1.48l-1.753-.002a1 1 0 0 1 -1-1c0-.513.445-1 1-1h1.787v-1.984c-2.248.323-4.247.485-6 .485zm-3.373-13.499c-.904.01-1.258.087-1.62.282a1.723 1.723 0 0 0 -.724.723c-.18.335-.26.663-.278 1.422l-.003 8.566c2.275.338 4.276.506 5.998.506 1.723 0 3.723-.168 5.999-.506l-.004-8.566c-.019-.76-.098-1.087-.278-1.422a1.726 1.726 0 0 0 -.723-.723c-.335-.18-.663-.26-1.422-.278l-6.945-.005zm6.373.999a1 1 0 0 1 1 1c0 .513-.447 1-1 1h-6a1 1 0 0 1 -1-1c0-.513.447-1 1-1z" fill="#282D37" style="fill: currentColor;fill: var(--db-icon-color, currentColor)" fill-rule="evenodd"/></svg>
