<svg id="icon" height="32" viewBox="0 0 32 32" width="32" xmlns="http://www.w3.org/2000/svg"><path d="m26 3c1.598 0 3.011 1.405 3 3v20c0 1.598-1.437 3.003-3 3h-20c-1.598 0-2.997-1.416-3-3v-20c0-1.598 1.41-2.987 3-3zm-3.944 14.47-5.297 6.18a1 1 0 0 1 -1.092.292l-5.667-2.799-5 3.022v1.835c0 .513.492 1.006 1 1h20c.513 0 1.003-.543 1-1v-3.586l-4.944-4.943zm-16.056-12.47c-.53-.003-.996.503-1 1v15.834l4.486-2.691c.256-.154.709-.162.964-.003l5.298 2.616 5.493-6.407a1 1 0 0 1 1.374-.138l4.385 4.374v-13.585c0-.513-.474-.988-1-1zm5 2a4 4 0 1 1 0 8 4 4 0 0 1 0-8zm0 2a2 2 0 1 0 0 4 2 2 0 0 0 0-4z" fill="#282D37" style="fill: currentColor;fill: var(--db-icon-color, currentColor)" fill-rule="evenodd"/></svg>
