<svg id="icon" height="32" viewBox="0 0 32 32" width="32" xmlns="http://www.w3.org/2000/svg"><path d="m19.172 6a3 3 0 0 1 2.12.879l2.124 2.121 3.588.004c1.596.002 2.996 1.516 2.996 2.996v10.998a3 3 0 0 1 -3 3h-22a3 3 0 0 1 -3-3v-10.994a3 3 0 0 1 2.997-3l3.587-.004 2.123-2.121c.516-.516 1.355-.879 2.123-.879zm-3.172 6a5 5 0 1 0 0 10 5 5 0 0 0 0-10zm0 2a3 3 0 1 1 0 6 3 3 0 0 1 0-6zm-8-1h-1a1 1 0 0 0 0 2h1a1 1 0 0 0 0-2z" fill="#282D37" style="fill: currentColor;fill: var(--db-icon-color, currentColor)" fill-rule="evenodd"/></svg>
