<svg id="icon" height="20" viewBox="0 0 20 20" width="20" xmlns="http://www.w3.org/2000/svg"><path d="m6.129 13.021c-1.299-1.3-1.299-3.414 0-4.714.391-.391 1.023-.391 1.414 0s.391 1.023 0 1.414c-.52.52-.52 1.366 0 1.886.446.447 1.152.519 1.676.172.461-.302 1.082-.175 1.385.284.304.461.177 1.081-.284 1.386-.557.367-1.194.547-1.829.547-.863 0-1.72-.332-2.363-.975zm3.158-7.847c.708 0 1.282-.574 1.282-1.283s-.574-1.282-1.282-1.282-1.283.574-1.283 1.282.574 1.283 1.283 1.283zm4.933 8.752c.513-.206.761-.789.555-1.301l-1.341-3.333c-.152-.379-.52-.627-.928-.627h-1.589l-.567-1.946c-.154-.531-.711-.834-1.24-.681-.53.154-.835.709-.68 1.239l.777 2.667c.124.427.516.721.96.721h1.664l1.089 2.706c.157.391.532.627.928.627.124 0 .25-.023.373-.072zm-3.525 2.072h-7.695c-.552 0-1 .447-1 1s.448 1 1 1h7.694c.552 0 1-.447 1-1s-.448-1-1-1zm6.305 0h-2.305c-.552 0-1 .447-1 1s.448 1 1 1h2.305c.552 0 1-.447 1-1s-.448-1-1-1z" fill="var(--db-icon-color, currentColor)" fill-rule="evenodd"/></svg>
