<svg id="icon" height="32" viewBox="0 0 32 32" width="32" xmlns="http://www.w3.org/2000/svg"><path d="m26.64 24.432a8.7 8.7 0 0 0 .829.942c.486.445 1.107.722 1.531.772.503.059.85.385.85.854 0 .47-.38.85-.85.85-1.02 0-2.035-.526-3.042-1.58-1.164 1.054-2.317 1.58-3.458 1.58s-2.248-.448-3.321-1.343c-1.091.895-2.15 1.343-3.179 1.343-1.028 0-2.108-.456-3.24-1.37-1.166.914-2.252 1.37-3.26 1.37s-2.126-.456-3.355-1.368c-1.084.912-2.132 1.368-3.145 1.368a.85.85 0 0 1 0-1.7c.72-.163 1.276-.385 1.665-.666.373-.269.658-.538.805-.703a.853.853 0 0 1 1.214-.055c.352.322.712.57.966.732.573.367 1.275.686 1.85.688.575.001 1.14-.255 1.767-.677.238-.16.531-.376.894-.72s.855-.342 1.212.005.644.558.879.717c.629.43 1.24.679 1.748.679.506 0 1.108-.248 1.724-.675.23-.16.511-.349.859-.714a.85.85 0 0 1 1.26.034c.135.156.41.419.786.683.606.424 1.242.672 1.871.672.604 0 1.273-.301 1.939-.82.247-.193.574-.452.908-.865s.999-.412 1.293-.033zm-6.234-11.333a9.89 9.89 0 0 1 1.042 1.364l7.405-1.3a.85.85 0 0 1 .917 1.197l-2.51 4.027a347.264 347.264 0 0 1 -2.91 4.613c-.75 1.15-1.85 1-1.85 1-.984-.001-2.067-.668-3.25-2-1.193 1.333-2.276 2-3.25 2s-2.057-.667-3.25-2c-1.185 1.333-2.268 2-3.25 2s-2.065-.667-3.25-2c-1.18 1.333-2.264 2-3.25 2a.857.857 0 0 1 -.85-.85l.005-3.095c-.005-1.316.951-2.347 2.129-2.582l4.214-.739a4.344 4.344 0 0 0 .676-3.545.849.849 0 0 1 .688-1.041l6-.987c1.719-.282 3.243.509 4.544 1.938zm-11.741 5.563a.85.85 0 0 0 .26 1.666l16.21-2.533a.85.85 0 0 0 -.26-1.666zm7.656-5.846-5.348.87a5.916 5.916 0 0 1 -.367 2.678l8.993-1.578c-1.24-1.597-2.302-2.054-3.278-1.97z" fill="#282D37" style="fill: currentColor;fill: var(--db-icon-color, currentColor)" fill-rule="evenodd"/></svg>
