<svg id="icon" height="32" viewBox="0 0 32 32" width="32" xmlns="http://www.w3.org/2000/svg"><path d="m11.356 4.5a.986.986 0 0 1 .938.768l4.08 17.462 3.84-12.528a.984.984 0 0 1 .928-.702.983.983 0 0 1 .94.684l1.738 5.316h4.199a.99.99 0 0 1 .981 1c0 .552-.44 1-.981 1h-4.906a.983.983 0 0 1 -.93-.684l-1.002-3.062-4 13.044a.983.983 0 0 1 -.97.701.986.986 0 0 1 -.92-.767l-4.016-17.19-1.932 7.221a.984.984 0 0 1 -.947.737h-4.415a.99.99 0 0 1 -.981-1c0-.552.44-1 .981-1h3.666l2.746-10.263a.984.984 0 0 1 .963-.737z" fill="var(--db-icon-color, currentColor)" fill-rule="evenodd"/></svg>
