<svg id="icon" height="32" viewBox="0 0 32 32" width="32" xmlns="http://www.w3.org/2000/svg"><path d="m22.2674513 5.25312572c.8596588.0681297 1.6785429.46477122 2.2287358 1.1068325.3593674.41937276.3107234 1.0506664-.1086493 1.41003381-.3871133.33172376-1.0023902.33172376-1.4100338-.10864929-.1964235-.22922133-.5223016-.38706631-.8495428-.41317368-2.0906248-.16544604-4.2999452-.24816906-6.6279612-.24816906-1.6666667 0-3.527045.08140846-5.581135.24422539-.53439962.05768058-.918865.25577461-1.07978015.7723592-.43441704 1.6607364-.86677865 3.32187491-1.29708485 4.98341541 3.1386847-.1005638 5.3474978-.1618269 6.6264391-.1837895 1.2789414-.0219625 2.5583437-.0206005 3.8382067.0040861-.0066458-1.3202966 1.5532872-2.8202966 2.9933542-2.8202966 0-.57351429.501151-1 1-1h3c.5 0 1 .5.9916459 1.000126 1.4544843-.0001215 3.0083541 1.499874 3.0083541 2.999874.5 0 .99995.5.99995 1v1c0 .5-.49995 1-1.00095 1 .0006667 1.6666667.001 4.6666667.001 9 0 1.566077-1.5 3.0001044-3 3.0001044h-5c-1.4395 0-3-1.5001044-3-3.0001044l.001342-.5099735c-1.0007736.021202-2.0012209.0245265-3.001342.0099735-1 0-2.5 0-4.0005885-.1118601.0003923.0745734.0005885.278391.0005885.6114529 0 1.3627306-.8930624 2.0004072-2 2.0004072h-2c-1.07947815 0-2.00065248-.666214-2.00065248-2.0004072 0-.8894622 0-1.6748407 0-2.3561355-.27847362-.3702109-.46827239-.8180439-.55106542-1.3346519-.28992418-1.8778637-.43856883-3.6477622-.44593394-5.3096953l-1.00234816.0008899c-.552 0-1-.448-1-1v-1c0-.553.448-1 1-1h2.476l1.4251255-5.47760663c.32211711-1.28846845 1.43420954-2.11886552 2.84869943-2.27048637 1.57803137-.16809304 3.49475647-.25206204 5.75017507-.251907 3.3860936-.00023256 3.3919417-.01439023 6.7674513.25312572zm-2.2679513 19.80605478c0 .4824671.3631297.8801407.8304301.9344896l.1095699.0063299h5.121c.4814691 0 .8784293-.3629097.9326814-.8310391l.0063186-.1097804.0005-12.0591805c0-.4483071-.4311224-.9263183-.8930394-.9923183l-.1069606-.0077159h-5c-.4181612 0-.8637507.3766723-.9741592.8030713l-.0192209.0980499-.0066201.1222337zm-12.99959312-1.2457952.00009312 1.1796147.18368136.0065928 1.71187709-.0012417.10444155-.0053511-.00080156-.8012971c-.57387125-.0780693-1.1126906-.1733718-1.62238709-.2883534zm9.53077402-9.0117394-1.341071.0020521-.9167056.0111208-1.762889.0350626-1.6233492.0429585-3.30079359.1071601c-.9861539 0-1.33257131.1916545-1.47358387.5784775-.02332351.0639805-.04299561.130212-.05907769.2017887l-.02143827.1117608-.02216113.1877515-.00662432.1050466-.00443322.2373307.00215225.1342421.00729374.1926021.11603473.0087221 2 .25c.54801994.0685025.93674564.5682927.86824315 1.1163126-.06360946.5088757-.49909453.8804007-.99975758.8760325l-.11655503-.0077893-1.68796527-.2112779.22120643 2.1007064c.0451574.4667759.242725.7238216.63207474.8663121l.12259776.0394057c1.33629188.3762319 2.96734547.5780813 5.03753197.6612896l.6725953.0226168.6584709.0149204 1.266884.0119587 2.1281813.0009196 1.0714576-.0101293v-1.489h-5.749c-.4481026 0-.836-.2969651-.959439-.7178668l-.0269549-.1177342-.25-1.5c-.0907951-.5447703.2772246-1.0599979.8219949-1.1507929.5058582-.0843097.9862432.2269912 1.1249843.7080666l.0258086.1139283.1106061.664399h4.902v-4.181l-.2702856-.0041774zm6.5748919.7511405c.2469893-.4939785.8476623-.6942028 1.3416408-.4472136.4586943.2293472.7238754.7922275.4472136 1.3416408-.257586.5198616-.516395 1.0374571-.7764272 1.5527864h.382c.7042567 0 1.246307.7402115.8944272 1.4472136l-1.5 3c-.2469893.4939785-.8476623.6942028-1.3416408.4472136-.4586943-.2293472-.7074034-.815885-.4472136-1.3416408.2572618-.5198393.5157376-1.0374348.7754272-1.5527864h-.381c-.7042567 0-1.2414352-.75-.8944272-1.4472136z" fill="var(--db-icon-color, currentColor)" fill-rule="evenodd"/></svg>
