<svg id="icon" height="32" viewBox="0 0 32 32" width="32" xmlns="http://www.w3.org/2000/svg"><path d="m6.942 24.278c.415.399 1.6 1.731 2.558 1.722.958-.01 2.074-1.138 2.474-1.63a1 1 0 0 1 1.552 0c.4.492 1.527 1.64 2.476 1.63.95-.01 2.099-1.171 2.472-1.63a1 1 0 0 1 1.467-.093c.414.398 1.585 1.725 2.56 1.723.977-.002 2.1-1.171 2.473-1.63a1 1 0 0 1 1.467-.093c.415.399 1.568 1.73 2.559 1.723a1 1 0 0 1 1 1 .994.994 0 0 1 -1.006 1c-1.032-.006-2.113-.525-3.244-1.558-1.14 1.046-2.223 1.566-3.248 1.558s-2.109-.528-3.252-1.559c-1.09 1.035-2.171 1.552-3.246 1.55-1.075 0-2.16-.517-3.254-1.549-1.146 1.039-2.229 1.558-3.25 1.558-1.02 0-2.104-.519-3.25-1.557-1.127 1.038-2.21 1.557-3.25 1.557a1 1 0 0 1 0-2c.595 0 2.1-1.17 2.473-1.63a1 1 0 0 1 1.47-.092zm13.575-11.28c.412.453.748.904 1.004 1.3l7.306-1.283c.816-.143 1.425.702 1.075 1.418l-5.054 8.097a1 1 0 0 1 -1.752-.958l1.379-2.213-15.306 2.627a1 1 0 0 1 -.452-1.945l17.175-2.954 1.072-1.716-22.23 3.902c-.427.06-.691.308-.73.838l-.004 2.889a1 1 0 0 1 -1.993.117l-.002-3.072c.079-1.482 1.007-2.47 2.245-2.718l4.16-.73c.675-.98.904-2.207.619-3.373a1 1 0 0 1 .697-1.199l6.112-1.012c1.778-.292 3.348.522 4.68 1.985zm-4.171-.034-5.21.863a6.195 6.195 0 0 1 -.303 2.345l8.494-1.49a7.557 7.557 0 0 0 -.289-.337c-.865-.95-1.775-1.454-2.692-1.38z" fill="#282D37" style="fill: currentColor;fill: var(--db-icon-color, currentColor)" fill-rule="evenodd"/></svg>
