<svg id="icon" height="32" viewBox="0 0 32 32" width="32" xmlns="http://www.w3.org/2000/svg"><path d="m27 3a3 3 0 0 1 3 3v4c0 .769-.29 1.47-.765 2 .429.478.765 1.16.765 2v4c0 .769-.29 1.47-.765 2 .429.478.792 1.217.765 2v4c0 1.598-1.286 3-3 3h-22c-1.598 0-3-1.294-3-3v-4c0-.768.289-1.47.764-2a3.013 3.013 0 0 1 -.764-2v-4c0-.768.289-1.47.764-2a3.022 3.022 0 0 1 -.764-2v-4c0-1.598 1.28-3 3-3zm-22 18a1 1 0 0 0 -1 1v4c0 .513.412 1 1 1h22c.513 0 1-.426 1-1v-4c0-.513-.415-1-1-1zm2 2a1 1 0 1 1 0 2 1 1 0 0 1 0-2zm18 0a1 1 0 0 1 1 1c0 .513-.449 1-1 1h-4a1 1 0 0 1 -1-1c0-.513.424-1 1-1zm-20-10a.991.991 0 0 0 -.993 1l-.007 4c0 .513.432 1 1 1h22c.513 0 1-.43 1-1v-4a.99.99 0 0 0 -1-1zm2 2a1 1 0 1 1 0 2 1 1 0 0 1 0-2zm18 0a1 1 0 0 1 0 2h-4a1 1 0 0 1 -1-1c0-.513.424-1 1-1zm-20-10c-.513 0-.993.42-1 1v4c0 .513.437 1 1 1h22c.513 0 1-.435 1-.974v-4.026c0-.513-.415-1-1-1zm2 2a1 1 0 1 1 0 2 1 1 0 0 1 0-2zm18 0a1 1 0 0 1 .117 1.993l-4.117.007a1 1 0 0 1 0-2z" fill="#282D37" style="fill: currentColor;fill: var(--db-icon-color, currentColor)" fill-rule="evenodd"/></svg>
