<svg id="icon" height="20" viewBox="0 0 20 20" width="20" xmlns="http://www.w3.org/2000/svg"><path d="m3 15.9688c0 .5625.5 1.0312 1.0312 1.0312.25 0 .4688-.0937.6876-.3125l12-12c.2187-.1875.2812-.4375.2812-.6875 0-.5312-.4062-1.0312-.9688-1.0312-.2812 0-.5312.125-.7187.3125l-.3125.2812c-.0312-.875-.7188-1.5625-1.5938-1.5625h-6.75c-.9062 0-1.6562.7188-1.6562 1.5938v9.9687l-1.6875 1.7188c-.2187.2187-.3125.4687-.3125.6875zm3.25 2h7.1562c.9063 0 1.5938-.7188 1.5938-1.5938v-7.1562l-2 2v4.7812h-4.75zm.75-6.4063v-7.5625h1v1h4v-1h1v1.5625zm2.25 3.4375h1.7812v-1.7812z" fill="var(--db-icon-color, currentColor)" fill-rule="evenodd"/></svg>
