<svg id="icon" height="32" viewBox="0 0 32 32" width="32" xmlns="http://www.w3.org/2000/svg"><path d="m4 26.625v-21.25c0-1.875 1.344-3.375 3-3.375h6c.563 0 1 .438 1 1 0 .563-.438 1-1 1h-6c-.531 0-1 .625-1 1.375v21.25c0 .75.469 1.375 1 1.375h14c.531 0 1-.625 1-1.375v-7.625c0-.563.438-1 1-1 .563 0 1 .438 1 1v7.625c0 1.875-1.344 3.375-3 3.375h-14c-1.656 0-3-1.5-3-3.375zm4-3.625c0-.563.438-1 1-1h10c.563 0 1 .438 1 1 0 .563-.438 1-1 1h-10c-.563 0-1-.438-1-1zm0-4c0-.563.438-1 1-1h10c.563 0 1 .438 1 1 0 .563-.438 1-1 1h-10c-.563 0-1-.438-1-1zm0-4c0-.563.438-1 1-1h2c.563 0 1 .438 1 1 0 .563-.438 1-1 1h-2c-.563 0-1-.438-1-1zm0-4c0-.563.438-1 1-1h2c.563 0 1 .438 1 1 0 .563-.438 1-1 1h-2c-.563 0-1-.438-1-1zm0-4c0-.563.438-1 1-1h2c.563 0 1 .438 1 1 0 .563-.438 1-1 1h-2c-.563 0-1-.438-1-1zm13-5c3.875 0 7 3.156 7 7s-3.125 7-7 7-7-3.156-7-7 3.125-7 7-7zm.938 2.125.03 4.906c0 .531-.437 1-1 1-.15 0-.3-.04-.433-.104l-.098-.052-4.125-2.594a4.598 4.598 0 0 0 -.343 1.75c0 2.75 2.25 5 5 5s5-2.25 5-5c0-2.437-1.75-4.437-4.032-4.906zm-2 0c-1 .219-1.875.75-2.563 1.469l2.594 1.625-.032-3.094z" fill="#282D37" style="fill: currentColor;fill: var(--db-icon-color, currentColor)" fill-rule="evenodd"/></svg>
