<svg id="icon" height="24" viewBox="0 0 24 24" width="24" xmlns="http://www.w3.org/2000/svg"><path d="m16.035 13.667a7 7 0 0 1 4.257 1.443l1.35 1.124a1 1 0 0 1 -1.183 1.607l-1.212-1.006c-.83-.696-2.067-1.154-2.942-1.161-.584-.005-1.317-.007-2.2-.007a.826.826 0 0 0 -.804.64.232.232 0 0 0 .174.28l2.59.165a1 1 0 0 1 -.065 1.996l-2.551-.149c-.569-.052-1.035-.233-1.778-.513a312.28 312.28 0 0 0 -3-1.097 1.255 1.255 0 0 0 -1.405.39c-.087.107-.078.307.09.384l3.472 1.597a7 7 0 0 0 2.588.632l7.584.008a1 1 0 0 1 1 1c0 .513-.402 1-1 1h-7.249a9 9 0 0 1 -3.403-.668c-2.666-1.196-4.101-1.879-4.305-2.047-.949-.787-1.114-2.199-.332-3.164a3.256 3.256 0 0 1 3.455-1.073l2.192.79c.308-1.29 1.507-2.16 2.57-2.166a400.7 400.7 0 0 1 2.107-.005zm-6.678-2.137a.75.75 0 1 1 0 1.5.75.75 0 0 1 0-1.5zm3.5-.75a.75.75 0 1 1 0 1.5.75.75 0 0 1 0-1.5zm-7-.034a.75.75 0 1 1 0 1.5.75.75 0 0 1 0-1.5zm3.5-1.966a.75.75 0 1 1 0 1.5.75.75 0 0 1 0-1.5zm3-.5a.75.75 0 1 1 0 1.5.75.75 0 0 1 0-1.5zm-6-.021a.75.75 0 1 1 0 1.5.75.75 0 0 1 0-1.5zm3.643-6.25c1.598 0 3 1.248 3 3v2.021h-5.98a1 1 0 0 1 -1-1c0-.513.337-1 1-1 1.99-.003 3.06 0 3.98 0 0-.544-.265-1.02-1-1.02a3667.71 3667.71 0 0 0 -6.966 0 1 1 0 1 1 0-2c2.321-.002 4.644-.002 6.966 0z" fill="#282D37" style="fill: currentColor;fill: var(--db-icon-color, currentColor)" fill-rule="evenodd"/></svg>
