<svg id="icon" height="24" viewBox="0 0 24 24" width="24" xmlns="http://www.w3.org/2000/svg"><path d="M2 12a9.99 9.99 0 0 1 10 -10a9.99 9.99 0 0 1 10 10a9.99 9.99 0 0 1 -10 10a9.99 9.99 0 0 1 -10 -10zm7.502 -4.469c-0.032 0.531 0.375 0.938 0.875 0.969s1.125 -0.344 1.906 -0.344s1.125 0.219 1.125 0.844c0 1.75 -2.625 1.406 -2.625 4.062a0.973 0.973 0 0 0 0.969 0.969c0.625 0 0.968 -0.5 0.968 -0.968c0 -1.344 2.625 -1.157 2.625 -4.063c0 -1.688 -1.312 -2.781 -3.125 -2.781c-1.25 0 -2.718 0.312 -2.718 1.312zm1.048 9.25c0 0.719 0.594 1.282 1.281 1.282s1.282 -0.563 1.282 -1.282s-0.594 -1.25 -1.282 -1.25s-1.281 0.563 -1.281 1.25z" fill="var(--db-icon-color, currentColor)"/></svg>
