<svg id="icon" height="32" viewBox="0 0 32 32" width="32" xmlns="http://www.w3.org/2000/svg"><path d="M16 2c7.719 0 14 6.281 14 14s-6.281 14 -14 14s-14 -6.281 -14 -14s6.281 -14 14 -14zm-0.6 11.12l0.001 0l-0.526 0.13h-1.625c-0.562 0 -1 0.437 -1 1s0.437 1 1 1h1.75v5.75h-2c-0.562 0 -1 0.437 -1 1s0.437 1 1 1h6c0.562 0 1 -0.437 1 -1s-0.437 -1 -1 -1h-2v-7c0 -0.566 -0.444 -0.985 -1.003 -0.992c-0.183 -0.002 -0.389 0.062 -0.597 0.112zm0.444 -5.026c-0.813 0 -1.5 0.687 -1.5 1.5a1.5 1.5 0 0 0 1.5 1.5c0.843 0 1.5 -0.656 1.5 -1.5a1.5 1.5 0 0 0 -1.5 -1.5z" fill="var(--db-icon-color, currentColor)"/></svg>
