<svg id="icon" height="32" viewBox="0 0 32 32" width="32" xmlns="http://www.w3.org/2000/svg"><path d="M2 16c0 -7.72 6.28 -14 14 -14s14 6.28 14 14s-6.28 14 -14 14s-14 -6.28 -14 -14zm12.493 1.567a0.998 0.998 0 1 0 1.996 0c0 -1.996 3.631 -1.626 3.631 -5.571c0 -1.994 -1.611 -3.496 -3.748 -3.496c-1.525 0 -3.622 0.307 -3.622 1.489c0 0.543 0.448 0.997 0.998 0.997c0.931 0 1.147 -0.49 2.624 -0.49c0.872 0 1.753 0.464 1.753 1.5c0 2.815 -3.632 2.168 -3.632 5.571zm2.406 4.308a1.375 1.375 0 1 0 -2.75 0a1.375 1.375 0 0 0 2.75 0z" fill="var(--db-icon-color, currentColor)"/></svg>
