<svg id="icon" height="32" viewBox="0 0 32 32" width="32" xmlns="http://www.w3.org/2000/svg"><path d="m5.174 5.418 2.16.449a2.35 2.35 0 0 1 1.858 2.573l-1.478 8.137c1.653.922 3.006 1.984 3.92 3.008.834.932 1.243 2.18 1.253 3.715h10.282a3.35 3.35 0 1 1 .265 1.7h-11.434c-.284.001-.9-.234-.847-.924.135-1.533-.14-2.636-.787-3.358-.71-.794-1.703-1.583-2.98-2.361l-.426 2.277a3.35 3.35 0 1 1 -1.668-.328l2.204-12.02a.65.65 0 0 0 -.416-.729l-2.252-.475a.85.85 0 0 1 -.66-1.005.86.86 0 0 1 1.006-.66zm.326 16.582a1.65 1.65 0 1 0 0 3.3 1.65 1.65 0 0 0 0-3.3zm21 0a1.65 1.65 0 1 0 0 3.3 1.65 1.65 0 0 0 0-3.3zm1.5-5.7a.85.85 0 0 1 0 1.7c-3.097 0-4.454.613-5.216 2.472a.85.85 0 1 1 -1.573-.644c1.074-2.624 3.076-3.528 6.789-3.528z" fill="#282D37" style="fill: currentColor;fill: var(--db-icon-color, currentColor)" fill-rule="evenodd" transform="matrix(-1 0 0 1 32 0)"/></svg>