<svg id="icon" height="64" viewBox="0 0 64 64" width="64" xmlns="http://www.w3.org/2000/svg"><path d="m55.936 11a5.979 5.979 0 0 1 6.064 5.936v30a6.086 6.086 0 0 1 -6.064 6.064h-47.936a6.021 6.021 0 0 1 -6-6.064v-30a5.915 5.915 0 0 1 6-5.936zm-47.936 4.286a1.586 1.586 0 0 0 -1.714 1.65v30a1.607 1.607 0 0 0 1.714 1.693h48.021a1.65 1.65 0 0 0 1.693-1.693l-.085-29.978a1.629 1.629 0 0 0 -1.693-1.672zm37.8 2.957c4.843 0 7.8 2.636 7.8 6.664a6.857 6.857 0 0 1 -4.8 6.429 6.579 6.579 0 0 1 5.764 6.664c0 5.465-3.728 7.736-10.564 7.736h-9.728v-27.493zm-25.436-.043c7.072 0 11.036 4.5 11.036 13.629 0 7.971-2.7 13.843-11.036 13.907h-10.134v-27.536h10.135zm23.336 16.03h-2.87v7.007h2.77c1.089-.002 4.364-.08 4.385-3.536 0-1.5-.857-3.471-4.286-3.471zm-25.393-11.658h-1.477v18.664h2.314c3.557 0 5.593-2.764 5.593-8.807 0-5.529-.6-9.857-6.429-9.857zm24.557-.107h-2.034v6.664h2.57a3.279 3.279 0 0 0 3.6-3.364c0-2.293-1.136-3.3-4.136-3.3z" fill="#282D37" style="fill: currentColor;fill: var(--db-icon-color, currentColor)" fill-rule="evenodd"/></svg>