<svg id="icon" height="64" viewBox="0 0 64 64" width="64" xmlns="http://www.w3.org/2000/svg"><path d="m23.331 12a4.75 4.75 0 0 1 2.544.764l23.769 15.625a4.395 4.395 0 0 1 1.856 3.611 4.395 4.395 0 0 1 -1.856 3.611l-23.769 15.625a4.75 4.75 0 0 1 -2.544.764c-2.406 0-4.331-2.014-4.331-4.444v-31.112c0-2.43 1.925-4.444 4.331-4.444zm0 3c-.671 0-1.331.5-1.331 1.444v31.112c0 .808.616 1.444 1.331 1.444.248 0 .497-.02.92-.286a768.918 768.918 0 0 0 23.682-15.571c.47-.317.567-.715.567-1.143s-.098-.827-.567-1.144l-23.68-15.568c-.243-.156-.453-.288-.923-.288z" fill="var(--db-icon-color, currentColor)" fill-rule="evenodd"/></svg>
