<svg id="icon" height="20" viewBox="0 0 20 20" width="20" xmlns="http://www.w3.org/2000/svg"><path d="m12.205 7c.937 0 1.75.781 1.562 1.844l-.843 4.312c-.032.25-.22.5-.47.656v3.188a.98.98 0 0 1 -.968 1c-.562 0-1-.438-1-1v-4.063c0-.406.25-.78.656-.906l.594-3.062h-3.469l.625 3.062c.407.125.657.5.657.906v4.063c0 .563-.438 1-1 1a.98.98 0 0 1 -.97-1v-3.188c-.25-.156-.437-.406-.468-.656l-.875-4.281c-.186-.875.5-1.875 1.594-1.875zm-2.19-1.094a1.947 1.947 0 0 0 1.938-1.937c0-1.094-.875-1.969-1.937-1.969a1.96 1.96 0 0 0 -1.97 1.969c0 1.062.876 1.937 1.97 1.937z" fill="#282D37" style="fill: currentColor;fill: var(--db-icon-color, currentColor)" fill-rule="evenodd"/></svg>
