<svg id="icon" height="32" viewBox="0 0 32 32" width="32" xmlns="http://www.w3.org/2000/svg"><path d="m13.488 2.002c3.085 0 4.872 1.074 6.252 2.9a10.726 10.726 0 0 1 2.155 5.826l.008.277a1 1 0 0 1 -.998.996.99.99 0 0 1 -.984-.936c-.001-.001-.04-.505-.07-.754a8.727 8.727 0 0 0 -1.704-4.204c-1.068-1.413-2.231-2.103-4.657-2.103l-2.907-.004c-2.29 0-3.62.647-4.722 2.106a8.716 8.716 0 0 0 -1.751 4.702l-.1 3.669c-.051 2.08.138 4.232.663 6.38.775.43 1.446.814 2.014 1.152.852.507 1.167.725 1.759 1.077.106.063.883.308.886.313.435.12.768.522.768.995 0 .567-.46 1.027-1.027 1.027-.108 0-.714-.183-.812-.214a.564.564 0 0 1 -.084-.017l-.025-.011a3.243 3.243 0 0 1 -.492-.216c-.233-.13-.683-.413-1.158-.71l-.408-.256c-.27-.169-.53-.33-.745-.456.086.424.22.811.404 1.163.183.352.44.763.77 1.234.413.611 1.234 1.062 1.854 1.055l1.372.002c.555 0 1.003.448 1.003 1l-.001 1.006a1 1 0 0 1 -1 1h-1.751a1 1 0 0 1 -.965-1.262 4.382 4.382 0 0 1 -2.03-1.484c-.52-.688-.723-1.004-.996-1.526-.182-.348-.388-.936-.618-1.765l-.56-2.199a27.096 27.096 0 0 1 -.83-6.718l.092-3.946c.056-2.24.815-4.407 2.17-6.199 1.33-1.76 3.197-2.9 6.317-2.9h2.907zm11.52 11.999c1.062 0 1.977.721 2.288 1.745l.998 4.255h1.059a.63.63 0 0 1 .64.546l.008.765c0 .335-.23.631-.55.682l-.433.008c.033.161.05.328.05.499 0 .114-.13 1.283-.388 3.508-.052.45-.202.868-.43 1.233v1.759a1 1 0 0 1 -1 1h-1a1 1 0 0 1 -1-1v-.284a327.022 327.022 0 0 1 -9.5-.002v.286a1 1 0 0 1 -1 1h-1a1 1 0 0 1 -1-1v-1.757a2.982 2.982 0 0 1 -.394-1.012c-.047-.244-.182-1.392-.406-3.444a2.518 2.518 0 0 1 .033-.787h-.334c-.37 0-.648-.321-.648-.689v-.667a.63.63 0 0 1 .648-.644h1.058l.955-4.091c.246-1.055 1.198-1.909 2.28-1.909zm-10.63 8.003a.5.5 0 0 0 -.441.464c-.01.158.01.358.06.601l1.17.196a1 1 0 0 1 -.213 1.986l-.718-.113.074.643a1 1 0 0 0 .786.864c2.27.236 4.073.355 5.406.357 1.334.002 3.097-.111 5.29-.34a.999.999 0 0 0 .882-.766l.093-.758-.601.1a1 1 0 0 1 -.443-1.947l1.282-.221c.044-.16.065-.34.065-.54 0-.301-.202-.521-.47-.521h-2.157l-.19-.001h-2.073l-.27-.001h-2.118l-.335-.001h-2.175l-.39-.001h-2.075l-.438-.001zm8.123 1.397c.315 0 .609.149.797.396l.565.947a1 1 0 0 1 -1.66 1.111l-.275-.455h-2.855l-.21.358c-.26.442-.885.662-1.37.355-.483-.307-.61-.807-.407-1.265l.553-.954c.16-.271.437-.45.745-.486zm-15.122-6.397a1 1 0 0 1 1.216.536l.009.027.178.548.753 2.321a1 1 0 0 1 -1.861.723l-.379-1.166-.183-.563-.378-1.166a1.002 1.002 0 0 1 .645-1.26zm17.606-1.002h-8.991c-.143 0-.284.101-.355.272a.284.284 0 0 0 -.007.02l-.02.07c-.094.339-.378 1.552-.852 3.638h11.48l-.848-3.637c-.045-.193-.163-.363-.407-.363zm-12.985-10.001c2.105 0 3.69.433 4.757 1.298s1.252 1.756 1.143 2.713c-.047.42-.18 1.278-.18 1.281a1.013 1.013 0 0 1 -1.076.867 1.002 1.002 0 0 1 -.916-1.081c.003-.037.15-.982.185-1.292.032-.279.02-.557-.416-.934-.592-.512-1.812-.851-3.497-.851-1.805 0-2.987.357-3.625.963a1.002 1.002 0 0 0 -.313.695c-.004.168.123.92.38 2.255a.998.998 0 0 0 .682.728c.764.144 2.524.35 2.53.35a1.017 1.017 0 0 1 .858 1.234c-.11.485-.56.81-1.057.779-.002 0-1.716-.2-2.552-.365-1.23-.243-2.132-1.099-2.407-2.27a24.978 24.978 0 0 1 -.412-2.333 3 3 0 0 1 .914-2.524c1.062-1.009 2.731-1.513 5.002-1.513z" fill="var(--db-icon-color, currentColor)" fill-rule="evenodd"/></svg>
