<svg id="icon" height="24" viewBox="0 0 24 24" width="24" xmlns="http://www.w3.org/2000/svg"><path d="m20.0052824 12c0-.5625-.4375-1-1-1h-11.59369997l4.28119997-4.2812c.2188-.2188.3125-.4688.3125-.7188 0-.4375-.375-1-1.0312-1-.25 0-.5.0938-.6875.2812l-5.99999997 6c-.17468572.1746857-.2565796.3943347-.27641283.6109609l-.00488717.1078391c-.0312.25.0775.515.2813.7188l5.99999997 6c.1875.1874.4687.2812.6875.2812.5625 0 1.0312-.4688 1.0312-1 0-.2812-.1087-.515-.3125-.7188l-4.28119997-4.2812h11.59369997c.5625 0 1-.4375 1-1z" fill="var(--db-icon-color, currentColor)" fill-rule="evenodd"/></svg>
