<svg id="icon" height="32" viewBox="0 0 32 32" width="32" xmlns="http://www.w3.org/2000/svg"><path d="m16.00005 6.00015c-.5625 0-1 .4375-1 .9999v15.5938l-6.2812-6.3125c-.2188-.2188-.4688-.2815-.7187-.2814-.5626.0001-1.0001.4064-1.0003 1 .0002.2501.0627.5001.2815.7189l7.9999 8c.2188.2187.4688.2813.7188.2813s.5-.0626.7187-.2813l8-8c.2187-.2188.2812-.4688.2814-.7189-.0002-.5936-.4689-.9999-1.0002-.9999-.25 0-.5.0625-.7187.2813l-6.2812 6.3125v-15.5938c0-.5624-.4375-.9999-1-.9999z" fill="var(--db-icon-color, currentColor)" fill-rule="evenodd"/></svg>
