<svg id="icon" height="32" viewBox="0 0 32 32" width="32" xmlns="http://www.w3.org/2000/svg"><path d="m16 2c7.7188 0 14 6.2813 14 14s-6.2812 14-14 14c-7.7187 0-14-6.2813-14-14s6.2813-14 14-14zm0 2c-6.625 0-12 5.375-12 12s5.375 12 12 12 12-5.375 12-12-5.375-12-12-12zm0 5c.4375 0 1 .2494 1 1v7.75c0 .5634-.4375 1-1 1-.5312 0-1-.4056-1-1v-7.75c0-.5634.4375-1 1-1zm0 14.3437c.75 0 1.3438-.625 1.3438-1.3437 0-.75-.5938-1.3438-1.3438-1.3438-.7187 0-1.3437.5938-1.3437 1.3438 0 .7187.625 1.3437 1.3437 1.3437z" fill="var(--db-icon-color, currentColor)" fill-rule="evenodd"/></svg>
