<svg id="icon" height="32" viewBox="0 0 32 32" width="32" xmlns="http://www.w3.org/2000/svg"><path d="m2 26c0-.5173.1027-.9992.3469-1.4524l10.9429-20.9327c.5402-1.0026 1.5786-1.6149 2.7102-1.6149s2.1699.6124 2.71 1.6149l10.9431 20.9327c.2442.4532.3469.9351.3469 1.4524 0 1.7348-1.2701 3-3 3h-21.8568c-1.7343 0-3.1432-1.2692-3.1432-3zm12.6097-2.4042c0 .7437.6467 1.3903 1.3903 1.3903.776 0 1.3903-.6466 1.3903-1.3903 0-.776-.6143-1.3903-1.3903-1.3903-.7436 0-1.3903.6143-1.3903 1.3903zm.3903-4.3611242v-9.7346758c0-.582.418-1.07759233 1-1.07759233s1 .49559233 1 1.07759233v9.7346758c0 .5819-.418.9985242-1 .9985242s-1-.4166242-1-.9985242z" fill="var(--db-icon-color, currentColor)" fill-rule="evenodd"/></svg>
