<svg id="icon" height="20" viewBox="0 0 20 20" width="20" xmlns="http://www.w3.org/2000/svg"><path d="m10 2c.7718304 0 1.3966048.4362336 1.7322016 1.0738464l5.9064192 12.0477984c.1342176.302016.2013792.604032.2013792.8725728 0 1.1074272-.7661536 2.0057824-1.84 2.0057824h-12c-1.0738464 0-2-.8983552-2-2.0057824 0-.302016.0671616-.6041376.2013792-.8725728l5.9735808-11.9806368c.302016-.6711936 1.0866848-1.141008 1.82504-1.141008zm0 2-6 12h12zm-1 8v-4h2v4zm1 1.0074272c.5484166 0 1 .4516064 1 1.0000508 0 .5483428-.4515834.9999492-1 .9999492-.54841657 0-1-.4516064-1-.9999492 0-.5484444.45158343-1.0000508 1-1.0000508z" fill="var(--db-icon-color, currentColor)" fill-rule="evenodd"/></svg>
