<svg id="icon" height="24" viewBox="0 0 24 24" width="24" xmlns="http://www.w3.org/2000/svg"><path d="m11.9987343 2.125c.4460761 0 .8831361.36641347.875.875l-.0006382 1.744 1.0783486-1.07700415c.3417088-.34170875.8957281-.34170875 1.2374369 0 .313233.31323303.3560555.85189453 0 1.23743687l-2.3157855 2.31456728v3.265l3.042-1.756.790446-2.94792277c.1250741-.46678284.604869-.74379252 1.0716518-.61871844.4278843.11465125.7480441.54179673.6187184 1.07165177l-.3378162 1.25798944 1.2973673-.74877223c.4185061-.24162458.9536477-.09823382 1.1952722.32027223.2230381.38631327.1070555.90322876-.262375 1.15977478l-1.6272645.94072522 1.6875264.45220373c.4667828.12507408.7437925.60486897.6187184 1.07165177-.1146512.4278843-.5528359.7305639-.9989419.6382635l-3.4503029-.925119-2.771 1.6 3.199 1.846 2.949593-.7891371c.4667829-.125074.9465777.1519356 1.0716518.6187185.1146512.4278842-.1289467.9448562-.6187184 1.0716517l-1.2585264.3367669 1.1403673.6582278c.4185061.2416245.5618968.7767662.3202722 1.1952722-.223038.3863133-.7344667.578949-1.1952722.3202722l-1.4123673-.8157722.4528162 1.6874263c.1250741.4667829-.1519356.9465777-.6187184 1.0716518-.4278843.1146512-.931857-.1155526-1.0716518-.6187185l-.905446-3.3773596-2.927-1.69v3.627l2.3157855 2.3160041c.3417087.3417088.3417087.8957282 0 1.2374369-.313233.313233-.8503959.3714383-1.2374369 0l-1.0783486-1.078441.0006382 1.383c0 .4832492-.3917509.875-.875.875-.4460762 0-.8681825-.3583679-.8681825-.875l-.0074557-1.383-1.0770717 1.078441c-.34170872.3417088-.89572808.3417088-1.23743683 0-.31323303-.313233-.3676696-.8672702 0-1.2374369l2.31450853-2.3160041v-3.627l-2.92700004 1.69-.90416916 3.3773596c-.12507408.4667829-.60486892.7437926-1.07165176.6187185-.42788427-.1146513-.75395129-.5796792-.61871843-1.0716518l.45153935-1.6874263-1.41108992.8157722c-.41850604.2416246-.95364765.0982338-1.19527223-.3202722-.22303807-.3863133-.13273855-.9186859.32027223-1.1952722l1.13808992-.6582278-1.25624949-.3367669c-.46678284-.125074-.74379252-.6048689-.61871844-1.0716517.11465125-.4278843.5747913-.7511429 1.07165177-.6187185l2.94831616.7891371 3.19900004-1.847-2.77100004-1.599-3.37631616.9055739c-.46678284.1250741-.94657768-.1519356-1.07165177-.6187184-.11465124-.4278843.09612309-.9128992.61871844-1.07165177l1.68624949-.45220373-1.56808992-.90522777c-.41850604-.24162458-.5618968-.77676618-.32027223-1.19527223.22303808-.38631327.72120432-.57351685 1.19527223-.32027223l1.29608992.74877223-.33653935-1.25798944c-.12507409-.46678284.15193559-.94657768.61871843-1.07165177.42788427-.11465124.9039314.09128098 1.07165176.61871844l.78916916 2.94792277 3.04200004 1.756v-3.265l-2.31450853-2.31456728c-.34170876-.34170876-.34170876-.89572811 0-1.23743687.31323302-.31323302.8084626-.36458191 1.21484993-.02707275l1.0996586 1.1040769.0006382-1.744c0-.48324916.3917508-.875.875-.875z" fill="var(--db-icon-color, currentColor)" fill-rule="evenodd"/></svg>
