<svg id="icon" height="20" viewBox="0 0 20 20" width="20" xmlns="http://www.w3.org/2000/svg"><path d="m14.267 2.73c1.004-.32195 2.079.23097 2.401 1.23497.184.57373-.132 1.18793-.706 1.37193l-5.56 1.7831h5.486c.663 0 1.2.5373 1.2 1.2v6.0417c0 1.6569-1.343 3-3 3h-8.088c-1.657 0-3-1.3431-3-3v-6.2169c.008-1.2953.354-1.9153 1.297-2.2177zm.821 6.39h-10.088v5.2417c0 .5523.448 1 1 1h8.088c.552 0 1-.4477 1-1zm-5.945 1.1209c.065 0 .124.0195.183.0584l2.566 1.4838c.074.0509.134.1189.176.1983s.064.1677.065.2574c-.001.0897-.023.1779-.065.2571-.042.0793-.102.1472-.176.1981l-2.573 1.4894c-.05.0339-.108.0536-.169.057-.06.0034-.12-.0096-.173-.0377-.054-.0281-.099-.0701-.13-.1217-.02133333-.0343333-.03555556-.0720889-.04296296-.1113407l-.00603704-.0597593v-3.3238c0-.189.163-.3452.345-.3452z" fill="var(--db-icon-color, currentColor)" fill-rule="evenodd"/></svg>
