<svg id="icon" height="64" viewBox="0 0 64 64" width="64" xmlns="http://www.w3.org/2000/svg"><g fill="none" fill-rule="evenodd" transform="translate(9 4)"><path d="m21.236 5.479 1.764-.937 1.764.937-.338-1.983 1.428-1.405-1.972-.288-.882-1.803-.882 1.803-1.972.288 1.428 1.405zm7 3.028 1.764-.937 1.764.937-.338-1.983 1.428-1.405-1.972-.288-.882-1.803-.882 1.803-1.972.288 1.428 1.405zm-14 0 1.764-.937 1.764.937-.338-1.983 1.428-1.405-1.972-.288-.882-1.803-.882 1.803-1.972.288 1.428 1.405zm-10.236 7.138c.552 0 1 .452 1 1.01v35.325h9c.552 0 1 .452 1 1.01 0 .557-.448 1.009-1 1.009h-12c-.552 0-1-.452-1-1.01 0-.557.448-1.009 1-1.009h1v-35.326c0-.557.448-1.01 1-1.01zm18.999 26.242.224.005c3.21.12 5.775 2.783 5.775 6.052v5.047c0 .557-.448 1.009-1 1.009h-9.998a.995.995 0 0 1 -.39-.079 1.008 1.008 0 0 1 -.61-.93v-5.047c0-3.269 2.565-5.933 5.775-6.052zm.001 2.02c-2.206 0-4 1.81-4 4.037v4.037h8v-4.037c0-2.227-1.794-4.037-4-4.037zm-7-4.038c.552 0 1 .452 1 1.01 0 .557-.448 1.009-1 1.009h-4c-.552 0-1-.452-1-1.01 0-.557.448-1.009 1-1.009zm0-4.037c.552 0 1 .452 1 1.01 0 .556-.448 1.008-1 1.008h-4c-.552 0-1-.452-1-1.009s.448-1.01 1-1.01h4zm9 0c.552 0 1 .452 1 1.01 0 .556-.448 1.008-1 1.008h-4c-.552 0-1-.452-1-1.009s.448-1.01 1-1.01zm-9-4.038c.552 0 1 .453 1 1.01s-.448 1.01-1 1.01h-4c-.552 0-1-.453-1-1.01s.448-1.01 1-1.01zm9 0c.552 0 1 .453 1 1.01s-.448 1.01-1 1.01h-4c-.552 0-1-.453-1-1.01s.448-1.01 1-1.01zm-9-4.037c.552 0 1 .452 1 1.01 0 .557-.448 1.009-1 1.009h-4c-.552 0-1-.452-1-1.01 0-.557.448-1.009 1-1.009zm9 0c.552 0 1 .452 1 1.01 0 .557-.448 1.009-1 1.009h-4c-.552 0-1-.452-1-1.01 0-.557.448-1.009 1-1.009zm-9-4.037c.552 0 1 .452 1 1.009s-.448 1.01-1 1.01h-4c-.552 0-1-.453-1-1.01s.448-1.01 1-1.01h4zm9 0c.552 0 1 .452 1 1.009s-.448 1.01-1 1.01h-4c-.552 0-1-.453-1-1.01s.448-1.01 1-1.01zm-9-4.038c.552 0 1 .452 1 1.01 0 .557-.448 1.009-1 1.009h-4c-.552 0-1-.452-1-1.01 0-.557.448-1.009 1-1.009zm9 0c.552 0 1 .452 1 1.01 0 .557-.448 1.009-1 1.009h-4c-.552 0-1-.452-1-1.01 0-.557.448-1.009 1-1.009zm.164-11.103a.84.84 0 0 1 .834.842v6.349a.839.839 0 0 1 -.834.842.839.839 0 0 1 -.834-.842v-2.624h-2.662v2.624a.839.839 0 0 1 -.834.842.839.839 0 0 1 -.834-.842v-6.349a.84.84 0 0 1 .834-.842.84.84 0 0 1 .834.842v2.45h2.662v-2.45a.84.84 0 0 1 .834-.842zm16.836 7.066c.552 0 1 .452 1 1.01v35.325h1c.552 0 1 .452 1 1.01 0 .557-.448 1.009-1 1.009h-12c-.552 0-1-.452-1-1.01 0-.557.448-1.009 1-1.009h9v-35.326c0-.557.448-1.01 1-1.01zm-8 24.224c.552 0 1 .452 1 1.01 0 .557-.448 1.009-1 1.009h-4c-.552 0-1-.452-1-1.01 0-.557.448-1.009 1-1.009zm0-4.037c.552 0 1 .452 1 1.01 0 .556-.448 1.008-1 1.008h-4c-.552 0-1-.452-1-1.009s.448-1.01 1-1.01zm0-4.038c.552 0 1 .453 1 1.01s-.448 1.01-1 1.01h-4c-.552 0-1-.453-1-1.01s.448-1.01 1-1.01zm0-4.037c.552 0 1 .452 1 1.01 0 .557-.448 1.009-1 1.009h-4c-.552 0-1-.452-1-1.01 0-.557.448-1.009 1-1.009zm0-4.037c.552 0 1 .452 1 1.009s-.448 1.01-1 1.01h-4c-.552 0-1-.453-1-1.01s.448-1.01 1-1.01zm0-4.038c.552 0 1 .452 1 1.01 0 .557-.448 1.009-1 1.009h-4c-.552 0-1-.452-1-1.01 0-.557.448-1.009 1-1.009z" fill="var(--db-icon-color, currentColor)" fill-rule="nonzero"/><path d="m17 11.607h-16c-.552 0-1 .453-1 1.01s.448 1.01 1 1.01h16c.552 0 1-.453 1-1.01s-.448-1.01-1-1.01zm28 0h-16c-.552 0-1 .453-1 1.01s.448 1.01 1 1.01h16c.552 0 1-.453 1-1.01s-.448-1.01-1-1.01z" fill="var(--db-icon-pulse-color, #EC0016)"/></g></svg>
