<svg id="icon" height="24" viewBox="0 0 24 24" width="24" xmlns="http://www.w3.org/2000/svg"><path d="m2 6.96268323c0-.55890683.528-.93157764 1.05590062-.93157764.40367702 0 .77634783.21734161.90057143.74534161l1.52178882 6.5527453 1.70802484-6.58385089c.12422361-.46578881.528-.68322981.9317764-.68322981.43468323 0 .83845963.217441.96268323.7143354l1.64601246 6.5216398 1.5526956-6.5216398c.1242236-.528.4968944-.74534161.9006708-.74534161.4968944 0 1.0248944.40367702 1.0248944.99378882 0 .06201242 0 .15522981-.0311056.2484472l-2.4533664 9.44099379c-.1242236.4968944-.5591056.7453416-.9627826.7453416s-.80745344-.2484472-.93167704-.7143354l-1.70802485-6.7080745-1.73913043 6.7080745c-.1553292.4658882-.55910559.7143354-.96278261.7143354s-.80745342-.2484472-.93167702-.7453416l-2.42236025-9.44099379c-.03100621-.09321739-.0621118-.21744099-.0621118-.31065838zm12.2670311 4.84472047c0-5.24839749 3.2609192-5.8074037 4.6584844-5.8074037.8073541 0 1.6459131.1863354 2.3912547.528.4347826.15522981.621118.49689441.621118.86956522 0 .49689441-.403677 1.02479503-.9627826 1.02479503-.1242236 0-.2484472-.03100621-.403677-.09321739-.5590062-.24844721-1.0870062-.37267081-1.7701367-.37267081-.7764472 0-2.5466832.18643478-2.5466832 3.85093165 0 3.2920249 1.4286708 3.7267081 2.701913 3.7267081.5590063 0 1.1180125-.1242236 1.6459131-.3104596.1553292-.0622112.2795528-.0932174.434882-.0932174.5589068 0 .9626832.5279006.9626832 1.024795 0 .3416646-.1863354.6833292-.5900124.8695652-.7764472.3106584-1.6149069.4658882-2.4534659.4658882-1.7391304 0-4.6894906-.7143354-4.6894906-5.6832795z" fill="var(--db-icon-color, currentColor)" fill-rule="evenodd"/></svg>
