<svg id="icon" height="64" viewBox="0 0 64 64" width="64" xmlns="http://www.w3.org/2000/svg"><g fill="none" fill-rule="evenodd" transform="translate(4 12)"><path d="m52.5 17a2.5 2.5 0 0 1 2.5 2.5v15a2.5 2.5 0 0 1 -2.5 2.5h-6.5v6h2.5a1 1 0 0 1 0 2h-7a1 1 0 0 1 0-2h2.5v-6h-6.5a2.5 2.5 0 0 1 -2.5-2.5v-15a2.5 2.5 0 0 1 2.5-2.5zm-17.5-17a5 5 0 0 1 5 5v8.996a1 1 0 0 1 -2 0v-8.996a3 3 0 0 0 -3-3h-14a3 3 0 0 0 -3 3v33h4v-11a3 3 0 0 1 3-3h7.046a1 1 0 0 1 0 2h-7.046a1 1 0 0 0 -1 1v12c0 .513-.419 1-1 1h-22a1 1 0 0 1 -1-1v-14a5 5 0 0 1 5-5h11v-15a5 5 0 0 1 5-5zm-19.001 22h-10.999c-1.598 0-3 1.27-3 3v13h3v-10.972a3 3 0 0 1 3-3h2a3 3 0 0 1 3 3v10.972h2.999zm-5.999 4.028h-2a1 1 0 0 0 -1 1v10.972h4v-10.972c0-.513-.388-1-1-1zm27-6.528c-.003 5-.003 10 0 15 0 .245.205.5.5.5h7.5l.039.002 7.461-.002c.245 0 .5-.201.5-.5.003-5 .003-10 0-15a.5.5 0 0 0 -.5-.5c-5-.003-10-.003-15 0a.5.5 0 0 0 -.5.5zm-7-.5a1 1 0 0 1 0 2h-4a1 1 0 0 1 0-2zm3-8a5 5 0 1 1 -10.001-.001 5 5 0 0 1 10.001.001zm-8 0a3 3 0 1 0 6 0 3 3 0 0 0 -6 0z" fill="var(--db-icon-color, currentColor)" fill-rule="nonzero"/><path d="m42.66 32.14c-.32 0-.569-.09-.75-.273-.18-.182-.27-.433-.27-.753v-8.266c0-.332.09-.586.268-.762s.43-.264.759-.264h2.874c1.081 0 1.918.26 2.511.779s.89 1.282.89 2.29c0 1.06-.313 1.848-.938 2.363s-1.533.773-2.723.773a11.6 11.6 0 0 1 -1.023-.05 12.77 12.77 0 0 1 -1.097-.14l.533-.527v3.804c0 .32-.09.57-.27.753-.18.182-.435.273-.763.273zm.504-5.735a9.225 9.225 0 0 0 1.934.221c.442 0 .796-.053 1.062-.158.266-.106.462-.282.59-.529.126-.246.19-.584.19-1.012 0-.574-.126-.985-.377-1.233s-.665-.372-1.242-.372h-2.571l.944-.944v4.776l-.53-.75z" fill="var(--db-icon-pulse-color, #EC0016)"/></g></svg>
