<svg id="icon" height="24" viewBox="0 0 24 24" width="24" xmlns="http://www.w3.org/2000/svg"><path d="m19.615 5a2.385 2.385 0 0 1 2.385 2.385v2.615a1 1 0 0 1 -1 1c-.603 0-1.077.456-1.077 1s.474 1 1.077 1a1 1 0 0 1 1 1v2.615a2.385 2.385 0 0 1 -2.385 2.385h-15.23a2.385 2.385 0 0 1 -2.385-2.385v-2.615a1 1 0 0 1 1-1c.603 0 1.077-.456 1.077-1s-.474-1-1.077-1a1 1 0 0 1 -1-1v-2.615a2.385 2.385 0 0 1 2.385-2.385zm0 2h-15.23a.385.385 0 0 0 -.385.385v1.777l.034.012c1.133.394 1.964 1.418 2.038 2.649l.005.177c0 1.309-.856 2.413-2.043 2.826l-.034.011v1.778c0 .186.132.341.307.377l.078.008h15.23a.385.385 0 0 0 .385-.385v-1.778l-.034-.011c-1.133-.394-1.964-1.418-2.038-2.649l-.005-.177c0-1.309.856-2.413 2.043-2.826l.034-.012v-1.777a.385.385 0 0 0 -.307-.377zm-4.604 6.02c.559 0 .996.437.996.996a.985.985 0 0 1 -.996.995.985.985 0 0 1 -.995-.995c0-.559.437-.996.995-.996zm-1.02-4.031a1 1 0 0 1 1.02 1.02c0 .242-.097.51-.291.704l-4.007 4.007a1.028 1.028 0 0 1 -.729.291.996.996 0 0 1 -.995-1.02c0-.242.097-.51.291-.704l4.007-4.007c.194-.194.462-.291.704-.291zm-4.978-.073c.583 0 1.044.485 1.044 1.044 0 .583-.461 1.044-1.044 1.044a1.037 1.037 0 0 1 -1.044-1.044c0-.559.461-1.044 1.044-1.044z" fill="var(--db-icon-color, currentColor)" fill-rule="evenodd"/></svg>
