<svg id="icon" height="64" viewBox="0 0 64 64" width="64" xmlns="http://www.w3.org/2000/svg"><g fill="none" fill-rule="evenodd" transform="translate(8 8)"><path d="m24 0c1.256 0 2.462.481 3.368 1.335l.177.176 20.173 20.793a1 1 0 0 1 -1.343 1.477l-.093-.085-3.282-3.384v24.688a3 3 0 0 1 -2.823 2.995l-.177.005h-9a2 2 0 0 1 -1.995-1.85l-.005-.15v-12a1 1 0 0 0 -.883-.993l-.117-.007h-8a1 1 0 0 0 -.993.883l-.007.117v12a2 2 0 0 1 -1.85 1.995l-.15.005h-9a3 3 0 0 1 -2.995-2.824l-.005-.176v-24.688l-3.282 3.384a1 1 0 0 1 -1.518-1.296l.081-.095 7.719-7.957v-8.348a2 2 0 0 1 1.85-1.995l.15-.005h3a2 2 0 0 1 1.995 1.85l.005.15v1.133l5.45-5.618a4.914 4.914 0 0 1 3.55-1.515zm0 2c-.729 0-1.428.273-1.966.764l-.143.14-14.891 15.346v26.75a1 1 0 0 0 .883.993l.117.007h9v-12a3 3 0 0 1 2.824-2.995l.176-.005h8a3 3 0 0 1 2.995 2.824l.005.176v12h9a1 1 0 0 0 .993-.883l.007-.117-.001-26.749-14.894-15.352a2.914 2.914 0 0 0 -2.105-.899zm-11 4h-3v6.286l3-3.092z" fill="var(--db-icon-color, currentColor)" fill-rule="nonzero"/><path d="m24 13.089a4 4 0 1 0 0 8 4 4 0 0 0 0-8zm0 2a2 2 0 1 1 0 4 2 2 0 0 1 0-4z" fill="var(--db-icon-pulse-color, #EC0016)"/></g></svg>
