<svg id="icon" height="64" viewBox="0 0 64 64" width="64" xmlns="http://www.w3.org/2000/svg"><g fill="none" fill-rule="evenodd" transform="translate(4 21)"><path d="m8.527 26.214c.4.493 1.446 1.508 1.965 1.934 1.335 1.096 2.778 1.85 4.008 1.85 1.281 0 2.67-.754 4.006-1.85.52-.426 1.568-1.442 1.968-1.935a1 1 0 0 1 1.552 0c.4.493 1.449 1.509 1.968 1.935 1.335 1.095 2.82 1.852 4.013 1.85 1.193-.003 2.582-.688 3.999-1.85.519-.426 1.568-1.443 1.968-1.935a1 1 0 0 1 1.552 0c.4.492 1.45 1.509 1.97 1.935 1.322 1.084 2.817 1.852 4.01 1.85 1.193-.003 2.582-.687 4-1.85.519-.426 1.568-1.443 1.968-1.935a1 1 0 0 1 1.552 0c.4.492 1.449 1.509 1.968 1.935 1.334 1.094 3.441 1.85 4 1.85.558 0 1.006.447 1.006 1 0 .513-.365 1-1.01 1-1.754-.004-3.523-.876-5.264-2.304-.471-.386-1.372-1.198-1.476-1.364-.114.164-.68.712-1.476 1.364-1.644 1.349-3.57 2.317-5.313 2.304-1.744-.014-3.502-.884-5.234-2.304-.701-.575-1.412-1.274-1.477-1.364-.06.086-.665.699-1.476 1.364-1.644 1.349-3.526 2.306-5.281 2.304-1.756-.003-3.526-.875-5.268-2.304-.47-.386-1.182-1.028-1.475-1.364-.181.223-.673.678-1.475 1.364-1.652 1.355-3.494 2.303-5.275 2.304-1.825 0-3.625-.948-5.277-2.304-.47-.387-1.262-1.095-1.473-1.363-.135.171-.626.625-1.473 1.363-1.743 1.43-3.517 2.304-5.277 2.304a1 1 0 0 1 0-2c1.197 0 2.59-.685 4.008-1.85.519-.426 1.39-1.242 1.965-1.934a1 1 0 0 1 1.554 0zm26.769-22.331c.482.545 1.235 1.591 2.257 3.137l17.28-2.92a1 1 0 0 1 1.015 1.517c-3.331 5.333-6.665 10.667-10 16a1 1 0 0 1 -1.752-.958l.056-.102 8.821-14.113-48.529 8.2c-1.414.192-2.442 1.017-2.444 2.942-.002 1.833-.002 3.667 0 5.5a1 1 0 0 1 -1.993.117l-.007-.116v-5.5c0-2.734 1.64-4.498 4.142-4.92 15.644-2.643 28.444-4.793 31.285-5.288-.542-.935-1.113-1.587-1.63-2.171-1.975-2.234-3.982-3.575-6.633-3.135-5.525.918-7.887 1.302-11.045 1.84.11 1.136.065 2.418-.137 3.846a1 1 0 1 1 -1.967-.361c.242-1.318.238-2.713-.001-4.147-.085-.505.19-1.045.822-1.15 3.999-.67 8-1.336 12.003-2.001 3.161-.517 6 1.005 8.457 3.783z" fill="#282D37" style="fill: currentColor;fill: var(--db-icon-color, currentColor)" fill-rule="nonzero"/><path d="m43.806 12.992a1 1 0 0 1 .434 1.949l-.114.025-30.966 5.022a1 1 0 0 1 -.434-1.95l.114-.024z" fill="#EC0016" style="fill:#EC0016;fill: var(--db-icon-pulse-color, #EC0016)"/></g></svg>
