<svg id="icon" height="64" viewBox="0 0 64 64" width="64" xmlns="http://www.w3.org/2000/svg"><g fill="none" fill-rule="evenodd" transform="translate(3.891 12)"><path d="m44.109 26a7 7 0 1 1 0 14 7 7 0 0 1 0-14zm-32.034 0a7 7 0 1 1 0 14 7 7 0 0 1 0-14zm32.034 2a5 5 0 1 0 0 10 5 5 0 0 0 0-10zm-32.034 0a5 5 0 1 0 0 10 5 5 0 0 0 0-10zm36.615-28a4.268 4.268 0 0 1 4.176 3.516l.032.21 3.068 22.977.023.113a2.738 2.738 0 0 1 -.524 2.107l-.12.147a2.738 2.738 0 0 1 -2.338.918 1 1 0 0 1 .088-1.995l.116.005a.738.738 0 0 0 .811-.805l-.035-.199-3.073-23.01a2.268 2.268 0 0 0 -2.07-1.977l-.16-.007h-41.117a2.27 2.27 0 0 0 -2.207 1.807l-.027.159-3.323 23.02a.895.895 0 0 0 .868 1.026l.118-.006a1 1 0 1 1 .225 1.988 2.895 2.895 0 0 1 -3.213-3.094l.023-.205 3.321-23.01a4.27 4.27 0 0 1 3.998-3.678l.21-.007zm-2.827 6a2 2 0 0 1 1.99 1.806l.01.154.23 11.494a1.995 1.995 0 0 1 -1.475 1.975 76.932 76.932 0 0 1 -17.51 2.545l.002 5.026a1 1 0 0 1 -1.993.117l-.008-.117-.001-5.015-.174-.005-.707-.036-.755-.052-.395-.032-.405-.036-.842-.084-.435-.047-.9-.105-.935-.119-.968-.131-.998-.144-1.024-.155-1.583-.252-1.08-.18-1.099-.189-1.113-.197-2.26-.416-1.714-.328a1.994 1.994 0 0 1 -1.607-1.804l-.005-.157v-11.516a2 2 0 0 1 1.85-1.995l.151-.005h35.754zm-18.755 1.999-16.999.001-.001 11.515 1.662.318 1.67.31 1.103.197 1.09.19 1.603.27 1.559.25 1.009.152.981.142.951.13.918.118.881.104.842.09.8.075.383.032.371.028.707.044.472.02-.002-13.985zm18.755.001-16.755-.001v13.975a74.858 74.858 0 0 0 15.995-2.22l.991-.256-.23-11.498z" fill="#282D37" style="fill: currentColor;fill: var(--db-icon-color, currentColor)" fill-rule="nonzero"/><path d="m34.109 32a1 1 0 0 1 .117 1.993l-.117.007h-12a1 1 0 0 1 -.117-1.993l.118-.007h12z" fill="#EC0016" style="fill:#EC0016;fill: var(--db-icon-pulse-color, #EC0016)"/></g></svg>
