<svg id="icon" height="20" viewBox="0 0 20 20" width="20" xmlns="http://www.w3.org/2000/svg"><path d="m10 2a4 4 0 0 1 3.933 3.27 1 1 0 0 1 -1.94.476l-.027-.113a2 2 0 0 0 -3.96.217l-.005.15v2.017h5.999a2 2 0 0 1 2 2v5.983a2 2 0 0 1 -2 2h-8a2 2 0 0 1 -2-2v-5.983a2 2 0 0 1 2-2v-2.017a4 4 0 0 1 4-4zm0 9a1 1 0 0 0 -.993.883l-.007.117v1.995l.007.117a1 1 0 0 0 1.986 0l.007-.117v-1.995l-.007-.117a1 1 0 0 0 -.993-.883z" fill="#282D37" style="fill: currentColor;fill: var(--db-icon-color, currentColor)" fill-rule="evenodd"/></svg>
