<svg id="icon" height="32" viewBox="0 0 32 32" width="32" xmlns="http://www.w3.org/2000/svg"><path d="m8.454 16.3c1.82 0 3.14 1.164 3.14 2.768 0 .803-.3 1.428-.743 1.916.78.528 1.26 1.409 1.26 2.466 0 3.68-4.648 3.905-6.397 3.989h-.049a1 1 0 0 1 -.047-1.998c3.96-.19 4.492-1.113 4.492-1.991 0-.646-.387-1.001-1.09-1.001-.447 0-.735.029-1.662.213a1 1 0 0 1 -.42-1.955c1.211-.281 2.655-.792 2.655-1.64 0-.711-.872-.767-1.139-.767-.649 0-1.315.18-2.095.565a1 1 0 0 1 -.886-1.793c1.066-.527 2.013-.772 2.981-.772zm9.711-11.3c.548 0 .999.418.999.997a.997.997 0 0 1 -.29.708l-1.32 1.318c6.12-.064 11.145 4.857 11.145 10.968 0 2.637-.934 5.21-2.706 7.204l-.076.091a.946.946 0 0 1 -.665.263c-.58 0-.998-.45-.998-1.029 0-.225.064-.45.225-.643a8.95 8.95 0 0 0 2.223-5.918c0-5.179-4.413-9.167-9.407-8.942l1.579 1.576c.193.193.29.45.29.708a.983.983 0 0 1 -.999.997 1 1 0 0 1 -.709-.29l-3.156-3.15a.997.997 0 0 1 -.29-.708 1 1 0 0 1 .29-.708l3.157-3.152a1 1 0 0 1 .71-.289zm-.15 11c2.32 0 3.994 1.5 3.994 4.02v2.927c0 2.553-1.74 4.02-3.994 4.053-2.255.032-3.963-1.5-3.963-3.989v-3.087c0-2.424 1.772-3.924 3.963-3.924zm0 1.994c-1.385 0-1.998.611-1.998 1.93v3.087c0 1.448.58 2.027 1.998 2.027 1.385 0 2.03-.676 2.03-2.091v-2.927c0-1.447-.58-2.026-2.03-2.026z" fill="#282D37" style="fill: currentColor;fill: var(--db-icon-color, currentColor)" fill-rule="evenodd"/></svg>
