<svg id="icon" height="24" viewBox="0 0 24 24" width="24" xmlns="http://www.w3.org/2000/svg"><path d="m7 17.998a.98.98 0 0 1 .387-.807l.645-.484c3.549-2.613 5.65-4.895 5.645-7.19 0-2.162-1.612-2.485-2.58-2.485-.742 0-1.549.194-2.258.452-.484.193-.613.258-.742.258-.516 0-1-.42-1-1.032 0-.355.193-.71.548-.904a8.08 8.08 0 0 1 3.452-.806c2.806 0 4.58 1.774 4.58 4.516 0 2.839-2.129 5.288-4.774 7.482h4.678c.58 0 1.032.451 1.032 1 0 .548-.452 1-1.032 1h-7.581c-.548 0-1-.42-1-1zm12 0c0-.546.455-1 1-1 .546 0 1 .454 1 1 0 .545-.454 1-1 1-.545 0-1-.455-1-1z" fill="#282D37" style="fill: currentColor;fill: var(--db-icon-color, currentColor)" fill-rule="evenodd"/></svg>