<svg id="icon" height="64" viewBox="0 0 64 64" width="64" xmlns="http://www.w3.org/2000/svg"><g fill="none" fill-rule="evenodd" transform="translate(12 12)"><path d="m11.606.293a1 1 0 0 1 .083 1.32l-2.209 2.21 3.541 3.541 1.414-1.415a1 1 0 0 1 1.32-.083l9.947 9.935a1 1 0 0 1 -1.32 1.498l-9.242-9.229-7.07 7.071 4.247 4.247 2.118-2.125a1 1 0 0 1 1.497 1.32l-2.206 2.213 2.127 2.128 2.825-2.833a1 1 0 0 1 1.498 1.32l-2.914 2.922 2.126 2.126 2.118-2.125a1 1 0 0 1 1.497 1.32l-2.206 2.214 4.245 4.244a4.999 4.999 0 0 0 6.89.172 1.063 1.063 0 0 1 1.5-.255l5.752 5.74a1 1 0 0 1 -1.32 1.497l-5.095-5.083c-2.638 2.014-6.463 1.838-8.952-.475l-17.867-17.86a1 1 0 0 1 -.084-1.32l1.502-1.504-3.541-3.541-2.12 2.123a1 1 0 0 1 -1.497-1.32l9.982-9.993a1 1 0 0 1 1.414 0zm-3.536 4.947-2.828 2.83 3.535 3.536 2.829-2.829-3.536-3.536z" fill="#282D37" style="fill: currentColor;fill: var(--db-icon-color, currentColor)" fill-rule="nonzero"/><path d="m34 14c4.406 0 8 3.594 8 8s-3.594 8-8 8-8-3.594-8-8 3.594-8 8-8zm0 2a6 6 0 0 0 0 12c3.312 0 6-2.687 6-6s-2.688-6-6-6zm3.766 3.531a.992.992 0 0 1 0 1.404l-4.544 4.532a.5.5 0 0 1 -.704.003l-2.31-2.274a.985.985 0 0 1 -.006-1.398l.002-.002a1 1 0 0 1 1.407-.008l1.238 1.211 3.508-3.472a.999.999 0 0 1 1.409.004z" fill="#EC0016" style="fill:#EC0016;fill: var(--db-icon-pulse-color, #EC0016)"/></g></svg>
