<svg id="icon" height="20" viewBox="0 0 20 20" width="20" xmlns="http://www.w3.org/2000/svg"><path d="m2 17v-3.625c0-1.313 1.031-2.375 2.344-2.375h2.656c.563 0 1 .438 1 1 0 .563-.438 1-1 1h-2.656c-.188 0-.344.156-.344.375v3.625c0 .563-.438 1-1 1-.563 0-1-.438-1-1zm1.5-11.5c0-1.938 1.594-3.5 3.5-3.5 1.938 0 3.5 1.563 3.5 3.5 0 1.906-1.563 3.5-3.5 3.5-1.906 0-3.5-1.594-3.5-3.5zm2 0c0 .813.688 1.5 1.5 1.5a1.5 1.5 0 0 0 1.5-1.5c0-.844-.656-1.5-1.5-1.5a1.5 1.5 0 0 0 -1.5 1.5zm4.5 10.875v-5.719c0-.906.719-1.656 1.625-1.656h4.75c.906 0 1.625.75 1.625 1.656v5.719c0 .875-.719 1.625-1.625 1.625h-4.75c-.906 0-1.625-.75-1.625-1.625zm2-.375h4v-5h-4z" fill="var(--db-icon-color, currentColor)" fill-rule="evenodd"/></svg>
