<svg id="icon" height="32" viewBox="0 0 32 32" width="32" xmlns="http://www.w3.org/2000/svg"><path d="m18.528 2.15c.369 0 .733.072 1.073.21l.78.38a.85.85 0 0 1 -.663 1.562l-.676-.33a1.15 1.15 0 0 0 -.38-.114l-1.812-.008v2.65l2.786.014c.918.036 1.666.172 2.318.52.652.349 1.163.86 1.512 1.512.348.652.484 1.4.52 2.318.014 1.252 0 11.583 0 13.772 0 2.19-.172 2.666-.52 3.318a3.635 3.635 0 0 1 -1.512 1.512c-.652.348-1.458.535-2.81.532-1.351-.002-4.86.003-6.288 0-1.43-.002-2.158-.184-2.81-.532a3.635 3.635 0 0 1 -1.512-1.512c-.348-.652-.484-1.4-.52-2.318-.037-.917-.037-13.855 0-14.772.036-.918.172-1.666.52-2.318a3.635 3.635 0 0 1 1.512-1.512c.652-.348 1.4-.484 2.318-.52l2.786-.014v-2.65h-1.678a1.15 1.15 0 0 0 -.392.069l-.7.341a.85.85 0 0 1 -.853-1.467l.67-.342c.33-.165.803-.301 1.275-.301zm-7.675 22.7c-.649 0-1.15.557-1.15 1.15s.478 1.143 1.15 1.15h1.997c.696 0 1.15-.557 1.15-1.15a1.14 1.14 0 0 0 -1.15-1.15zm8.297.007c-.694-.007-1.15.55-1.15 1.143s.48 1.15 1.144 1.15h2.006c.668 0 1.15-.557 1.15-1.15s-.471-1.15-1.15-1.15zm3.15-12.657h-12.6v9.034c0 .488.47.942.93.998a76.825 76.825 0 0 0 10.74 0 1 1 0 0 0 .924-.887zm-9.3-3.55a.84.84 0 0 0 -.85.85c0 .433.348.85.85.85h6a.85.85 0 0 0 0-1.7z" fill="#282D37" style="fill: currentColor;fill: var(--db-icon-color, currentColor)" fill-rule="evenodd"/></svg>
