<svg id="icon" height="20" viewBox="0 0 20 20" width="20" xmlns="http://www.w3.org/2000/svg"><path d="m2 15c0 .55.45 1 1 1s1-.45 1-1v-4h2l.016 4.012c0 .518.433.988.984.988.583 0 1.024-.47 1.024-.988l-.024-4.012c0-1.037-.964-2-2-2h-2c-1.069 0-2 .996-2 2zm7.514-5c0 .55.421 1 1.004 1h.486l-.004 4c0 .518.45 1 1 1s1-.482 1-1v-4c0-1.134-.862-2-1.996-2h-.486a.985.985 0 0 0 -1.004 1zm-4.498-3c.82 0 1.484-.663 1.484-1.516 0-.82-.663-1.484-1.484-1.484s-1.516.663-1.516 1.484c0 .853.695 1.516 1.516 1.516zm5.5 0c.82 0 1.484-.663 1.484-1.516 0-.82-.663-1.484-1.484-1.484s-1.516.663-1.516 1.484c0 .853.695 1.516 1.516 1.516z" fill="#282D37" style="fill: currentColor;fill: var(--db-icon-color, currentColor)" fill-rule="evenodd"/></svg>
