<svg id="icon" height="32" viewBox="0 0 32 32" width="32" xmlns="http://www.w3.org/2000/svg"><path d="m2 24.969c0 .562.437 1.03 1 1.03.562 0 1-.468 1-1.03v-6.937c0-.563.438-1.032 1-1.032h4c.562 0 1 .469 1 1.032v6.937c0 .562.438 1.03 1 1.03.563 0 1-.468 1-1.03v-6.937c0-1.657-1.344-3.032-3-3.032h-4c-1.656 0-3 1.375-3 3.032zm5-18.97c1.937 0 3.5 1.595 3.5 3.5 0 1.939-1.563 3.5-3.5 3.5a3.494 3.494 0 0 1 -3.5-3.5c0-1.904 1.563-3.499 3.5-3.499zm0 2c-.813 0-1.5.689-1.5 1.5a1.5 1.5 0 1 0 3 0c0-.81-.688-1.499-1.5-1.499z" fill="#282D37" style="fill: currentColor;fill: var(--db-icon-color, currentColor)" fill-rule="evenodd"/></svg>
