<svg id="icon" height="20" viewBox="0 0 20 20" width="20" xmlns="http://www.w3.org/2000/svg"><path d="m17 14c.571 0 1 .429 1 1 0 .543-.429 1-1 1-.543 0-1-.457-1-1 0-.571.457-1 1-1zm-7.916-10c2.182 0 3.959 1.59 3.959 3.74s-1.029 4.047-3.553 6.26h3.272c.593 0 1.06.408 1.06.97 0 .56-.467 1.028-1.06 1.028h-6.232c-.561 0-1.029-.499-1.029-1.029 0-.343.125-.654.405-.841l.624-.468c2.774-2.088 4.457-3.894 4.457-5.702 0-1.558-1.06-1.87-1.902-1.87-.56 0-1.215.156-1.745.406-.28.124-.499.218-.717.218a1.043 1.043 0 0 1 -1.028-1.06c0-.343.187-.717.56-.904.935-.436 1.902-.748 2.93-.748z" fill="#282D37" style="fill: currentColor;fill: var(--db-icon-color, currentColor)" fill-rule="evenodd"/></svg>