<svg id="icon" height="20" viewBox="0 0 20 20" width="20" xmlns="http://www.w3.org/2000/svg"><path d="m6 14.973c0-.533.469-.973 1-.973h2v-7.156l-1.344.718a.99.99 0 0 1 -.5.125c-.562 0-1-.468-1-1.062 0-.344.219-.656.563-.813l2.812-1.53c.125-.095.281-.126.469-.126.469 0 1 .407 1 1v8.844h2c.344 0 .688.191.875.504a.916.916 0 0 1 .125.5.99.99 0 0 1 -.125.5c-.188.312-.531.5-.875.5h-6c-.531 0-1-.469-1-1.032zm10 .03c0-.562.469-1 1-1 .563 0 1 .438 1 1 0 .563-.438 1-1 1-.531 0-1-.437-1-1z" fill="var(--db-icon-color, currentColor)" fill-rule="evenodd"/></svg>
