<svg id="icon" height="20" viewBox="0 0 20 20" width="20" xmlns="http://www.w3.org/2000/svg"><path d="m16.707 3.293a1 1 0 0 1 .042 1.371l-12.042 12.043a.996.996 0 0 1 -1.414 0 .995.995 0 0 1 -.293-.707c-.508-.002-1.008-.513-1-1v-4.1c0-.956.9-1.9 2-1.9h2c1.1 0 1.82.71 1.992 1.595l7.301-7.302a1 1 0 0 1 1.414 0zm-3.696 7.95v3.775c0 .518-.453.972-1.003.972-.512 0-1.008-.39-1.004-.972.002-.345.002-.934 0-1.767l2.008-2.008zm2.989-2.243c1 0 1.992 1 2 2 .005.667.005 2.006-.001 4.018 0 .518-.453.972-1.004.972-.484 0-.995-.39-.995-.99v-4h-.518a.984.984 0 0 1 -.982-.996c0-.121.023-.234.07-.337l.615-.616c.063-.02.148-.043.297-.051zm-10 2h-2l.008 3.577 1.998-1.998zm4.515-7c.822 0 1.485.663 1.485 1.484 0 .853-.663 1.516-1.485 1.516-.82 0-1.515-.663-1.515-1.516 0-.82.695-1.484 1.515-1.484zm-5.499 0c.821 0 1.485.663 1.485 1.484-.001.853-.664 1.516-1.485 1.516-.82 0-1.515-.663-1.515-1.516 0-.82.695-1.484 1.515-1.484z" fill="var(--db-icon-color, currentColor)" fill-rule="evenodd"/></svg>
