<svg id="icon" height="20" viewBox="0 0 20 20" width="20" xmlns="http://www.w3.org/2000/svg"><path d="m3 13c0 1.594 1.25 3 2.813 3h3.78l-.312.281a1.043 1.043 0 0 0 -.281.719c0 .531.313.969 1.031.969.25 0 .531-.094.688-.25l1.906-1.907c.156-.156.375-.468.375-.812 0-.219-.125-.5-.312-.688l-1.97-2.03c-.186-.221-.468-.282-.718-.282-.625 0-1 .5-1 1 0 .219.063.438.25.625l.344.375h-3.594c-.438 0-1-.25-1-1v-4c0-.438-.313-1-1-1-.563 0-1 .438-1 1zm0-8c0 .563.438 1 1 1 .563 0 1-.438 1-1 0-.563-.438-1-1-1-.563 0-1 .438-1 1zm4 0c0 .25.031.469.281.719l2 2a.962.962 0 0 0 .719.281c.438 0 1-.281 1-1 0-.313-.094-.531-.281-.719l-.313-.281h3.594c.531 0 1 .438 1 1v4c0 .5.437 1 1 1 .562 0 1-.438 1-1v-4c0-1.594-1.25-3-2.813-3h-3.78l.312-.281c.187-.189.281-.469.281-.719 0-.469-.344-1-1-1-.25 0-.5.063-.719.281l-2 2c-.187.157-.281.439-.281.719zm8 10c0 .563.438 1 1 1 .563 0 1-.438 1-1 0-.563-.438-1-1-1-.563 0-1 .438-1 1z" fill="var(--db-icon-color, currentColor)" fill-rule="evenodd"/></svg>
