<svg id="icon" height="24" viewBox="0 0 24 24" width="24" xmlns="http://www.w3.org/2000/svg"><path d="m7 2c1.719 0 3.41 1.187 3.844 3h4.156c2.187 0 3.969 1.781 3.969 4 0 2.188-1.782 4-3.969 4h-5c-1.125 0-2 .906-2 2 0 1.156.875 2 2 2h7.563l-1.282-1.281c-.187-.188-.281-.438-.281-.75a.978.978 0 0 1 1-.969.9.9 0 0 1 .656.281l3.032 3c.187.188.312.438.312.719 0 .25-.125.5-.313.688l-3.03 3.03a.851.851 0 0 1 -.657.282c-.469 0-1-.375-1-1 0-.25.094-.531.281-.719l1.282-1.281h-7.563c-2.219 0-4-1.75-4-4 0-2.188 1.781-4 4-4h5c1.125 0 2-.906 2-2 0-1.031-.844-2-2-2h-4.156a3.958 3.958 0 0 1 -3.844 2.969c-2.156 0-4-1.719-4-3.969 0-2.188 1.656-4 4-4zm0 2c-1.094 0-2 .875-2 2 0 1.063.906 1.969 2 1.969a1.98 1.98 0 0 0 1.969-1.969c0-1.125-.906-2-1.969-2z" fill="var(--db-icon-color, currentColor)" fill-rule="evenodd"/></svg>
