<svg id="icon" height="32" viewBox="0 0 32 32" width="32" xmlns="http://www.w3.org/2000/svg"><path d="m9 24.031c0-.562.438-1 1-1h5v-14.343l-4.002 2.161a1.08 1.08 0 0 1 -.498.12c-.563 0-1-.438-1-.938 0-.375.187-.75.53-.936l5.503-2.976a.96.96 0 0 1 .467-.119c.531 0 1 .5 1 1v16.031h4.969c.562 0 1.031.438 1.031 1 0 .532-.469 1-1.031 1h-11.969c-.563 0-1-.468-1-1zm17 0c0-.562.438-1 1-1 .531 0 1 .438 1 1 0 .532-.469 1-1 1-.563 0-1-.468-1-1z" fill="var(--db-icon-color, currentColor)" fill-rule="evenodd"/></svg>
