<svg id="icon" height="32" viewBox="0 0 32 32" width="32" xmlns="http://www.w3.org/2000/svg"><path d="m9 24.031c0-.312.155-.595.406-.781l.719-.531c5.127-3.79 8.156-7 8.156-10.407 0-2.468-1.437-3.874-3.968-3.874-1.25 0-2.563.312-3.75.874a1.103 1.103 0 0 1 -.438.094c-.596 0-1-.496-1-1 0-.344.219-.719.563-.875 1.406-.656 3.093-1.062 4.625-1.062 3.593 0 5.937 2.281 5.937 5.843 0 3.782-2.781 7.032-7.375 10.75h7.656a.98.98 0 0 1 1 .97.98.98 0 0 1 -1 .968h-10.531a.98.98 0 0 1 -1-.969zm16.031-.031c0-.594.469-1.094 1.063-1.094s1.094.5 1.094 1.094-.5 1.063-1.094 1.063a1.054 1.054 0 0 1 -1.064-1.063z" fill="var(--db-icon-color, currentColor)" fill-rule="evenodd"/></svg>
