<svg id="icon" height="20" viewBox="0 0 20 20" width="20" xmlns="http://www.w3.org/2000/svg"><path d="m9.05555556 4c.22646671 0 .44444444 0 .72032021.30635831.38554853.39642709.76858993.79430765 1.14912423 1.19364169h4.075c1.0543618 0 2 .84967481 2 2 .001663.49998281.001663.99998281 0 1.5.591606 0 1.1211995.52275743.9805807 1.1961161-.2775871 1.3989121-.5573282 2.7976175-.8392233 4.1961162-.1765824.8829123-.9811202 1.6077677-1.9611613 1.6077677-3.4533938.0020226-6.90685786.0020226-10.3603922 0-.90039748 0-1.8198039-.7031915-1.96116135-1.6077677-.28171212-1.3984611-.5614532-2.7971664-.83922323-4.1961162-.11602348-.5801174.32142388-1.1961161.98058068-1.1961161 0-.96354707 0-1.96354707 0-3 0-1.0543618.86896518-2 2-2 1.35179427-.00176359 2.70364612-.00176359 4.05555556 0zm6.72444444 7h-11.561l.6008039 3h10.3603922zm-7.149-5h-3.631l-.00033978 3h9.99999998l.0003398-1.5h-4.5c-.2264667 0-.5005-.08069384-.72032021-.30635831-.38649891-.39754573-.76939217-.79542629-1.14867979-1.19364169z" fill="var(--db-icon-color, currentColor)" fill-rule="evenodd"/></svg>
