<svg id="icon" height="32" viewBox="0 0 32 32" width="32" xmlns="http://www.w3.org/2000/svg"><path d="m29.980451 12.3802936c.3925192.3885192.3957619 1.0216759.0072428 1.4141951-.3586331.3623254-.9257147.3929595-1.3195629.0899477l-1.4911309-1.4639186-5.6125355 5.5575218c4.3513323 5.2951586-3.1844291 11.5193684-3.5476525 11.8135612s-.8760314.2946753-1.2381113.016405l-7.0857007-7.002488-6.8682335 6.799564c-.39250898.3885295-1.02566574.3853034-1.41419521-.0072056-.35864258-.3623159-.38348166-.9296809-.07646197-1.3204129l6.93789068-6.8789455-6.97549322-6.9048954c-.33722737-.3338125-.38984223-.8529517-.14223097-1.2444636 1.23904476-1.5240879 6.866078-7.34538163 11.99069219-3.59765979l5.617032-5.56098118-1.3790352-1.36528104c-.3925192-.38851915-.3957619-1.02167583-.0072427-1.41419502.0667804-.06746792.6997062-.664806 1.3862779 0 1.3770904 1.33343386 5.1165741 5.02318449 11.218451 11.06925183z" fill="var(--db-icon-color, currentColor)" fill-rule="evenodd"/></svg>
