<svg id="icon" height="32" viewBox="0 0 32 32" width="32" xmlns="http://www.w3.org/2000/svg"><path d="m16 4c6.627 0 12 5.373 12 12s-5.373 12-12 12-12-5.373-12-12 5.373-12 12-12zm0 1.693c-5.683 0-10.307 4.624-10.307 10.307s4.624 10.307 10.307 10.307 10.307-4.624 10.307-10.307-4.624-10.307-10.307-10.307zm4.961 12.307c.254 0 .509.097.704.29.392.389.395 1.021.006 1.414-.093.094-2.315 2.296-5.671 2.296s-5.578-2.202-5.671-2.296c-.389-.393-.386-1.025.006-1.414.391-.389 1.025-.386 1.414.006.017.016 1.719 1.704 4.251 1.704 2.502 0 4.237-1.69 4.251-1.704.195-.197.453-.296.71-.296zm-8.461-7c1.1045695 0 2 .8954305 2 2s-.8954305 2-2 2-2-.8954305-2-2 .8954305-2 2-2zm7 0c1.1045695 0 2 .8954305 2 2s-.8954305 2-2 2-2-.8954305-2-2 .8954305-2 2-2z" fill="var(--db-icon-color, currentColor)" fill-rule="evenodd"/></svg>
