<svg id="icon" height="24" viewBox="0 0 24 24" width="24" xmlns="http://www.w3.org/2000/svg"><path d="m6.321 2c-.729 0-1.321.597-1.321 1.333v17.5536687c0 .5527794.50311675 1.1015593 1.08936339 1.1133433.14794652 0 .48932433 0 .92021568-.224499 1.10898243-.5865585 2.77245607-1.4663961 4.99042093-2.639513 2.2226842 1.1753826 3.8896973 2.0569195 5.0010394 2.6446108.3585488.189605.4833292.2194012.8907527.2194012.5031145 0 1.1082079-.5319009 1.1082079-1.1133433v-17.5536687c0-.736-.592-1.333-1.321-1.333-5.679 0-5.679 0-11.358 0z" fill="var(--db-icon-color, currentColor)" fill-rule="evenodd"/></svg>
