<svg id="icon" height="20" viewBox="0 0 20 20" width="20" xmlns="http://www.w3.org/2000/svg"><path d="m14.2047852 3.78820456c1.0335325 1.04113924 1.0688655 2.6983614.1081395 3.78161595l-5.51031498 5.51741779c-.39052429.3905243-1.02368927.3905243-1.41421356 0-.3626297-.3626297-.38853182-.9344751-.07770636-1.3269928l5.4727481-5.48226255c.2982022-.29820213.2990819-.78141132.0019675-1.08069728-.2684883-.27045072-.6913508-.29444653-.9872171-.0709629l-5.53735878 5.52710773c-.98111684.9811168-.98256821 2.5713733-.00324385 3.5542794.93657219.9399975 2.434445.9802632 3.41907804.1188355l4.79185869-4.78389951c.3905243-.39052429 1.0236893-.39052429 1.4142136 0 .3626297.3626297.3885318.93447511.0777064 1.32699271l-4.7518153 4.7613298c-1.76164235 1.7552123-4.61261638 1.7500084-6.36784485-.0116179-1.70770223-1.7139695-1.7540355-4.4567463-.14081595-6.22655035l5.6118235-5.61875712c1.0789374-1.07108298 2.8218733-1.06473666 3.8929954.01416153z" fill="var(--db-icon-color, currentColor)" fill-rule="evenodd"/></svg>
