<svg id="icon" height="64" viewBox="0 0 64 64" width="64" xmlns="http://www.w3.org/2000/svg"><g fill="none" fill-rule="evenodd" transform="translate(7 11)"><path d="m43.887 28h-38a1 1 0 1 1 0-2h38a1 1 0 1 1 0 2z" fill="var(--db-icon-pulse-color, #EC0016)"/><path d="m47 0h-44c-1.654 0-3 1.346-3 3v28c0 1.654 1.346 3 3 3h16.383l-.778 7h-8.605a1 1 0 1 0 0 2h29.999a1 1 0 1 0 0-2h-8.605l-.778-7h16.383c1.654 0 3-1.346 3-3v-28c0-1.654-1.346-3-3-3zm-17.617 41h-8.766l.778-7h7.21zm18.617-10c0 .552-.449 1-1 1h-44c-.551 0-1-.448-1-1v-28c0-.552.449-1 1-1h44c.551 0 1 .448 1 1z" fill="var(--db-icon-color, currentColor)" fill-rule="nonzero"/></g></svg>
