<svg id="icon" height="24" viewBox="0 0 24 24" width="24" xmlns="http://www.w3.org/2000/svg"><path d="m11 5c.563 0 1 .469 1 1v12c0 .563-.438 1-1 1-.188 0-.406-.031-.563-.156l-4.25-2.875h-1.687a2.487 2.487 0 0 1 -2.5-2.5v-2.969c0-1.406 1.125-2.5 2.5-2.5h1.688l4.25-2.844c.186-.093.374-.156.562-.156zm4 2c.188 0 .406.063.563.188 1.562 1.062 2.437 2.906 2.437 4.78 0 1.938-.875 3.782-2.438 4.845a.936.936 0 0 1 -.562.187c-.563 0-1-.469-1-1 0-.313.156-.625.438-.844 1.029-.719 1.562-1.906 1.562-3.156 0-1.281-.531-2.469-1.563-3.188a.982.982 0 0 1 -.437-.812c0-.563.469-1 1-1zm-5 .875-2.938 1.938a.936.936 0 0 1 -.562.187h-2c-.281 0-.5.219-.5.469v3c0 .281.219.5.5.5h2c.188 0 .406.094.563.187l2.937 1.969z" fill="#282D37" style="fill: currentColor;fill: var(--db-icon-color, currentColor)" fill-rule="evenodd"/></svg>
