<svg id="icon" height="24" viewBox="0 0 24 24" width="24" xmlns="http://www.w3.org/2000/svg"><path d="m10.033 9c1.154 0 2.096.934 2.331 2.179l.517 2.825 3.654.004c.447 0 .848.307.966.754l1.507 5.987c.142.613-.33 1.249-.966 1.249-.47 0-.895-.33-.989-.754l-1.296-5.244h-3.722c-.494 0-.895-.354-.986-.833l-.658-3.66c-.047-.235-.235-.508-.563-.508h-.423a.997.997 0 0 1 -.997-1c0-.542.447-1 .989-1h.636zm-8.033-4.987a1 1 0 0 1 .99-1.013c1.812 0 3.01 1.272 3.01 3.25v2.663l1.63 8.127c.119.589.635.96 1.224.96h4.157c.542 0 .99.5.99 1.042 0 .566-.448.958-.99.958h-4.156c-1.555 0-2.873-1.052-3.18-2.56l-1.606-7.984a3.256 3.256 0 0 1 -.07-.66v-2.545c0-.872-.35-1.249-1.01-1.249a.995.995 0 0 1 -.989-.989zm8.002-1.013a2 2 0 0 1 2.003 2.002 2 2 0 0 1 -2.003 2.003 2 2 0 0 1 -2.002-2.003 2 2 0 0 1 2.002-2.002zm11.016 7c.565 0 .982.435.982 1v3.005a.98.98 0 0 1 -1 .995.99.99 0 0 1 -.995-.995v-2.003h-3.005a1 1 0 0 1 -1-1.002c0-.565.435-1 1-1z" fill="var(--db-icon-color, currentColor)" fill-rule="evenodd"/></svg>
