<svg id="icon" height="32" viewBox="0 0 32 32" width="32" xmlns="http://www.w3.org/2000/svg"><path d="m16 2c1.1316 0 2.1699.6124 2.71 1.6149l10.9431 20.9327c.2442.4532.3469.9351.3469 1.4524 0 1.7348-1.2701 3-3 3h-21.8568c-1.7343 0-3.1432-1.2692-3.1432-3 0-.5173.1027-.9992.3469-1.4524l10.9429-20.9327c.5402-1.0026 1.5786-1.6149 2.7102-1.6149zm0 1.8429c-.3557 0-.6459.2591-.9057.7423l-10.991 20.8998c-.0819.1524-.1379.3187-.1379.4803 0 .4313.388 1.0347 1.0346 1.0347l21.9654.0347c.5523 0 1.0346-.5143 1.0346-1.0347 0-.1616-.056-.3279-.1379-.4803l-10.9564-20.9343c-.2599-.4834-.55-.7425-.9057-.7425zm-1.3903 19.7529c0 .7437.6467 1.3903 1.3903 1.3903.776 0 1.3903-.6466 1.3903-1.3903 0-.776-.6143-1.3903-1.3903-1.3903-.7436 0-1.3903.6143-1.3903 1.3903zm.3903-4.4295v-9.1478c0-.582.418-1.0185 1-1.0185s1 .4365 1 1.0185v9.1478c0 .5819-.418 1.0379894-1 1.0379894s-1-.4560894-1-1.0379894z" fill="var(--db-icon-color, currentColor)" fill-rule="evenodd"/></svg>
