<svg id="icon" height="24" viewBox="0 0 24 24" width="24" xmlns="http://www.w3.org/2000/svg"><path d="m2 20.998v-5.978c0-2.316 1.69-4.006 3.89-4.004.188 0 .438.03.657.156.625.312 2.281.828 3.219.828.53 0 .968.469.968 1a.98.98 0 0 1 -.968 1c-1.032 0-2.938-.484-4.032-1.016-.604.002-1.762.44-1.762 2.036v5.978a.989.989 0 0 1 -1.002 1.002.982.982 0 0 1 -.97-1.002zm4-15.045c-.01-2.2 1.764-3.953 3.981-3.953 2.185 0 4.022 1.753 4.019 3.953 0 2.156-1.834 3.938-4.016 3.938-2.213-.001-3.984-1.782-3.984-3.938zm2 .07a1.99 1.99 0 0 0 1.984 1.977c1.12 0 2.016-.893 2.016-1.978a2.01 2.01 0 0 0 -2.02-2.022c-1.088 0-1.985.895-1.98 2.022zm4.986 13.504-.002-7.043a2.494 2.494 0 0 1 2.5-2.484h4.043a2.469 2.469 0 0 1 2.473 2.485v7.042a2.458 2.458 0 0 1 -2.473 2.473h-4.037c-1.377 0-2.504-1.096-2.504-2.473zm2.003 0c0 .282.22.501.5.501h4.038a.494.494 0 0 0 .501-.5v-7.043c0-.282-.219-.532-.5-.532h-4.044c-.28 0-.5.25-.5.531zm1.002-1.04-.007-1.005a.51.51 0 0 1 .497-.498.51.51 0 0 1 .496.498l.007 1.004a.49.49 0 0 1 -.497.498.491.491 0 0 1 -.496-.498zm2.003.029-.01-1.056a.48.48 0 0 1 .505-.468c.279 0 .495.222.495.476v1.048c0 .286-.216.476-.495.476s-.495-.19-.495-.476z" fill="var(--db-icon-color, currentColor)" fill-rule="evenodd"/></svg>
