<svg id="icon" height="20" viewBox="0 0 20 20" width="20" xmlns="http://www.w3.org/2000/svg"><path d="m2 10c0-4.412 3.588-8 8-8 1.392 0 2.824.176 2.824 1.235 0 .47-.412 1-1 1-.157 0-1.098-.235-1.824-.235a6 6 0 0 0 0 12c.706 0 1.647-.235 1.824-.235.549 0 1 .47 1 1a1 1 0 0 1 -.746.96 8.167 8.167 0 0 1 -2.078.275c-4.412 0-8-3.588-8-8zm5-.353c0-.569.451-1 1-1 .284.007.518.085.733.3l2.008 2.009 5.651-5.662c.177-.196.47-.294.726-.294.568 0 1 .451 1 1a.91.91 0 0 1 -.294.706l-6.373 6.372a.995.995 0 0 1 -.706.295c-.333 0-.49-.079-.706-.295l-2.745-2.725a.92.92 0 0 1 -.294-.706z" fill="var(--db-icon-color, currentColor)" fill-rule="evenodd"/></svg>
