<svg id="icon" height="24" viewBox="0 0 24 24" width="24" xmlns="http://www.w3.org/2000/svg"><path d="m13 21c.75 0 1.563-.094 2.313-.313a.976.976 0 0 0 .718-.968c0-.532-.437-1-.968-1-.25 0-1.126.281-2.063.281-3.875 0-7-3.125-7-7s3.125-7 7-7c1 0 1.875.281 2.063.281.53 0 .968-.468.968-1a.976.976 0 0 0 -.718-.968 8.415 8.415 0 0 0 -2.313-.313c-5 0-9 4.031-9 9s4 9 9 9zm0-6c.25 0 .469-.031.688-.281l7-7.031a.97.97 0 0 0 .28-.688.98.98 0 0 0 -.968-1 .99.99 0 0 0 -.719.281l-6.281 6.344-2.281-2.281a1.091 1.091 0 0 0 -.75-.313c-.531 0-.969.469-.969 1 0 .25.094.5.313.719l2.968 2.969a.99.99 0 0 0 .719.281z" fill="var(--db-icon-color, currentColor)" fill-rule="evenodd"/></svg>
