<svg id="icon" height="64" viewBox="0 0 64 64" width="64" xmlns="http://www.w3.org/2000/svg"><g fill="none" fill-rule="evenodd" transform="translate(3.998 3.999)"><path d="m48.001.001c2.69 0 5 2.14 5 5 .002 15.333.002 30.667 0 46 0 2.671-2.137 5-5 5-10.046.002-20.092.002-30.138 0a1 1 0 1 1 0-2c10.046-.002 20.092-.002 30.138 0 1.598 0 3-1.275 3-3 .002-15.333.002-30.666 0-46 0-1.598-1.28-3-3-3h-31.998a3 3 0 0 0 -2.994 2.824l-.006.175-.001 29.58 3.292-3.291c1.848-1.85 4.566-1.85 6.416 0 1.785 1.793 1.934 4.476-.001 6.414a5517.838 5517.838 0 0 1 -5.707 5.706v4.587c0 2.471-1.28 4.623-2.787 5.622-1.505 1-2.42 1.205-3.035 1.361-.614.157-1.064-.261-1.162-.805a1 1 0 0 1 .691-1.135 6.15 6.15 0 0 0 2.224-.957c1.242-.853 2.067-2.133 2.069-4.086v-5a.97.97 0 0 1 .293-.708c1.997-2.001 3.997-4 5.998-5.998 1.066-1.07 1.066-2.519.001-3.588-1.023-1.023-2.49-1.094-3.585 0-2.668 2.666-5.335 5.333-8 8a1 1 0 0 1 -1.414-1.414c.901-.905 1.805-1.81 2.71-2.711l-.003-9.308-7.292 6.433c-1.157 1.16-1.708 2.496-1.708 4.294-.002 6-.002 11.666 0 17a1 1 0 0 1 -1 1c-.513 0-1-.4-1-1-.003-6-.003-11.667 0-17 0-2.073.75-4.171 2.338-5.75 2.828-2.507 5.715-5.06 8.661-7.657l.002-19.589c0-2.688 2.196-4.998 5-4.999h31.998zm-23 6a2 2 0 0 1 2 2v12a2 2 0 0 1 -2 2h-6a2 2 0 0 1 -2-2v-12a2 2 0 0 1 2-2zm0 2h-6v12h6zm21.25 29a1 1 0 0 1 1 1 .99.99 0 0 1 -1 1c-5.993.002-12.16.002-18.5 0a1 1 0 0 1 -1-1c0-.513.425-1 1-1 5.995-.002 12.161-.002 18.5 0zm0 11a1 1 0 0 1 .117 1.993l-.116.007h-2.5a1 1 0 0 1 -.117-1.993l.117-.007h2.5zm-5.986 0a1 1 0 0 1 1 1c0 .513-.364 1-1 1-1.633.002-3.469.002-5.507 0a1 1 0 0 1 -1-1c0-.513.31-.999 1-1 1.633-.002 3.469-.002 5.507 0zm5.987-17a1 1 0 1 1 0 2c-5.473.002-10.968.002-16.487 0a1 1 0 1 1 0-2c5.473-.002 10.968-.002 16.487 0zm0-6a1 1 0 0 1 1 1c0 .513-.434 1-1 1-9.155.002-18.738.002-28.75 0a1 1 0 0 1 -1-1c0-.513.366-1 1-1 9.154-.002 18.738-.002 28.75 0z" fill="#282D37" style="fill: currentColor;fill: var(--db-icon-color, currentColor)" fill-rule="nonzero"/><path d="m36.17 15.001a1.831 1.831 0 0 1 1.832 1.83v3.34a1.832 1.832 0 0 1 -1.833 1.83h-3.339a1.831 1.831 0 0 1 -1.828-1.83v-3.34a1.831 1.831 0 0 1 1.828-1.831h3.34zm-.168 2h-3v3h3zm9.17-11c1.01.001 1.829.82 1.83 1.83v3.34a1.832 1.832 0 0 1 -1.83 1.829h-3.34a1.831 1.831 0 0 1 -1.83-1.83v-3.34a1.831 1.831 0 0 1 1.83-1.83h3.34zm-.17 2h-3v3h3zm-8.83-2c1.01.001 1.828.82 1.83 1.83v3.341a1.832 1.832 0 0 1 -1.83 1.83h-3.34a1.832 1.832 0 0 1 -1.83-1.83v-3.342a1.832 1.832 0 0 1 1.83-1.829zm-.17 2h-3v3h3zm5 11a1 1 0 0 1 -1-1v-2a1 1 0 0 1 1-1h2a1 1 0 0 1 1 1v2h2a1 1 0 0 1 1 1v2a1 1 0 0 1 -1 1h-2a1 1 0 0 1 -1-1v-2z" fill="#EC0016" style="fill:#EC0016;fill: var(--db-icon-pulse-color, #EC0016)"/></g></svg>
