<svg id="icon" height="32" viewBox="0 0 32 32" width="32" xmlns="http://www.w3.org/2000/svg"><path d="m15 6c.5 0 1 .406 1 1v18c0 .594-.5 1-1 1a.955.955 0 0 1 -.625-.219l-5.75-4.781h-3.625c-1.594 0-3-1.249-3-2.813v-4.187a3 3 0 0 1 3-3h3.625l5.75-4.781a.955.955 0 0 1 .625-.219zm-1 3.125-4.375 3.656a1.05 1.05 0 0 1 -.625.219h-4c-.563 0-1 .438-1 1v4c0 .563.438 1 1 1h4c.219 0 .472.09.625.219l4.375 3.656zm6.406 13.75c.157 0 .344-.063.5-.156 2.564-1.469 4.094-3.813 4.094-6.719s-1.531-5.25-4.094-6.719a1.038 1.038 0 0 0 -.5-.156c-.531 0-1 .469-1 1 0 .375.188.688.5.875 2 1.125 3.094 2.875 3.094 5s-1.094 3.875-3.094 5a1.007 1.007 0 0 0 .5 1.875zm2.814 4.125a.881.881 0 0 0 .468-.125 12.489 12.489 0 0 0 6.312-10.875c0-4.563-2.438-8.656-6.313-10.875a.881.881 0 0 0 -.467-.125c-.563 0-1 .438-1 1 0 .344.156.688.5.875 3.249 1.844 5.28 5.313 5.28 9.125 0 3.813-2.031 7.281-5.281 9.125-.344.188-.5.531-.5.875 0 .531.437 1 1 1z" fill="#282D37" style="fill: currentColor;fill: var(--db-icon-color, currentColor)" fill-rule="evenodd"/></svg>
