<svg id="icon" height="32" viewBox="0 0 32 32" width="32" xmlns="http://www.w3.org/2000/svg"><path d="m4 18.99c0-6.11 5.026-11.03 11.146-10.966l-1.32-1.318a.997.997 0 0 1 -.29-.708c0-.579.45-.997.998-.997a1 1 0 0 1 .709.29l3.157 3.149c.193.193.29.45.29.708a.997.997 0 0 1 -.29.708l-3.157 3.152a1 1 0 0 1 -.709.29.983.983 0 0 1 -.998-.998c0-.257.096-.515.29-.708l1.578-1.576c-4.993-.225-9.407 3.763-9.407 8.942a8.95 8.95 0 0 0 2.223 5.918.982.982 0 0 1 .226.643c0 .579-.42 1.03-1 1.03-.289 0-.579-.13-.74-.355-1.772-1.993-2.706-4.566-2.706-7.203zm6.99-.214c0-.353.226-.74.548-.9l2.932-1.48a.993.993 0 0 1 .419-.096c.45 0 1.03.321 1.03.997v7.708h2.094c.548 0 1 .419 1 .997 0 .547-.452.998-1 .998h-5.992c-.547 0-.998-.45-.998-.998 0-.578.45-.997.998-.997h1.901v-6.068l-1.482.74a.994.994 0 0 1 -.419.096c-.547 0-1.03-.482-1.03-.997zm13.016-2.776c2.319 0 3.994 1.5 3.994 4.02v2.927c0 2.553-1.74 4.02-3.995 4.053-2.255.032-3.962-1.5-3.962-3.989v-3.087c0-2.424 1.772-3.924 3.962-3.924zm0 1.994c-1.385 0-1.997.611-1.997 1.93v3.087c0 1.448.58 2.027 1.997 2.027 1.386 0 2.03-.676 2.03-2.091v-2.927c0-1.447-.58-2.026-2.03-2.026z" fill="#282D37" style="fill: currentColor;fill: var(--db-icon-color, currentColor)" fill-rule="evenodd"/></svg>
