<svg id="icon" height="24" viewBox="0 0 24 24" width="24" xmlns="http://www.w3.org/2000/svg"><path d="m19.5 2c1.3807119 0 2.5 1.11928813 2.5 2.5v15c0 1.3807119-1.1192881 2.5-2.5 2.5h-15c-1.38071187 0-2.5-1.1192881-2.5-2.5v-15c0-1.38071187 1.11928813-2.5 2.5-2.5zm0 2c-4.9998806-.00266917-9.99988059-.00266917-15 0-.24545989 0-.49983661.1939429-.5.5-.00266917 4.99988062-.00266917 9.9998806 0 15 0 .2454599.20452444.4998423.5.5 4.99988062.0026692 9.9998806.0026692 15 0 .2454599 0 .4998402-.2006972.5-.5.0026692-4.9998806.0026692-9.99988059 0-15 0-.24545989-.1928579-.49983603-.5-.5zm-4.2220054 3.01482621c.4228398.16019975.6357516.63284669.4755519 1.05568649-.1522322.40180972-.5891538.56830886-1.0025948.4665412-.7437338-.18306859-1.5769517-.32773526-2.0529517-.32773526-.784 0-1.407.14466667-1.869.434-.462.28933334-.791.71166667-.987 1.267-.196.55533336-.294 1.25766666-.294 2.10699996 0 .8773334.105 1.5843334.315 2.121.21.5366667.5366667.9333334.98 1.19.4433333.2566667 1.029.385 1.757.385.406896 0 .7867311-.0389694 1.1395051-.1169084.1374599-.0303692.273783-.1507695.2744804-.3418236.0021715-.5949289.0021715-1.1900182 0-1.785268 0-.0662741-.0421497-.15-.15-.15-.1629895 0-.4279846 0-.7949855 0-.4213933 0-.763-.3416067-.763-.763 0-.3862771.294-.763.763-.763h2.183c.3796958 0 .7491343.2962525.75.75.0022173 1.1621224.0022173 2.324357 0 3.4867039 0 .3237021-.2484535.6106073-.5150923.7122521s-.735956.2627544-1.2349077.350044c-.551987.096568-1.1246667.161-1.722.161-1.7453333 0-3.045-.4386666-3.899-1.316-.854-.8773333-1.281-2.184-1.281-3.92 0-1.1666666.20533333-2.15133329.616-2.95399996.41066667-.80266666 1.01266667-1.40933333 1.806-1.82.714-.3696 1.6006029-.616 2.87-.616s2.2131548.22730781 2.6359946.38750757z" fill="var(--db-icon-color, currentColor)" fill-rule="evenodd"/></svg>
