<svg id="icon" height="20" viewBox="0 0 20 20" width="20" xmlns="http://www.w3.org/2000/svg"><path d="m16.3871006 2.20970461c.3121227-.30423535.9595222-.27729535 1.3200062.08318861.3604839.36048396.4037759.98084973.0831886 1.32000622l-8.3762954 8.38670656 7.3313981.000394c.4129505 0 .5800618.0464128.7430248.1335664.1629629.0871535.2908572.2150478.3780107.3780107.0423148.0791217.1317001.278917.1335664.9490328s-.0887275.9439717-.1335664 1.027813c-.0871535.1629629-.2150478.2908572-.3780107.3780107-.162963.0871536-.3300743.1335664-.7430248.1335664l-10.3313981-.000394-2.80110056 2.7906894c-.35829752.3042643-.95952226.2772953-1.32000622-.0831886-.36048396-.360484-.40967769-.958784-.08318861-1.3200062zm-11.5011006 9.78990139-2.64599045 2.64704c-.24000955-.3482508-.24000955-.4371401-.24000955-1.146646s.04641281-.8254599.13356635-.9884229c.08715355-.1629629.21504784-.2908572.3780108-.3780107.16296296-.0871536.33007422-.1335664.74302477-.1335664zm-2.03499634-9.769446c.40286369-.37778207 1.03570212-.35744939 1.41348419.0454143 1.2044756 1.28444288 1.28794869 2.78900289.25509344 4.18604348l-.22243325.29128245c-.1509799.21856533-.34220511.57891969-.16185607 1.10884267.05038972.14806105.17190498.34520874.36454578.59144308.29227003.40188407.24633944.96793211-.12553474 1.31665402-.40286369.3777821-1.03570211.3574494-1.41348418-.0454143-.15480646-.16508433-.3470559-.42385664-.52300451-.76991894-.54410587-1.07016783-.55474311-2.27867361.26142877-3.40594862l.23147148-.30119913c.44583672-.60751592.40268422-1.04086319-.12512521-1.60371482-.37778206-.40286369-.35744939-1.03570212.0454143-1.41348419z" fill="var(--db-icon-color, currentColor)" fill-rule="evenodd"/></svg>
