<svg id="icon" height="32" viewBox="0 0 32 32" width="32" xmlns="http://www.w3.org/2000/svg"><path d="m19.695 26.999c0 .553-.448 1-1 1h-14.694c-.552 0-1-.447-1-1s.448-1 1-1h14.695c.552 0 1 .447 1 1zm-5.642-3c1.603 0 3.109-.624 4.242-1.757.204-.203.39-.418.558-.642.332-.441.243-1.068-.199-1.4-.442-.331-1.069-.242-1.4.199-.112.149-.236.292-.373.428-1.512 1.512-4.146 1.512-5.657 0-1.458-1.458-1.575-3.759-.274-5.353.349-.429.285-1.059-.143-1.407-.427-.349-1.058-.285-1.407.142-1.953 2.393-1.777 5.846.41 8.032 1.133 1.134 2.64 1.758 4.243 1.758zm-.5-15.41c1.105 0 2-.895 2-2s-.895-2-2-2-2 .895-2 2 .895 2 2 2zm9.394 15.41c.123 0 .249-.022.37-.071.513-.204.763-.786.558-1.299l-2.394-6c-.151-.381-.52-.63-.929-.63h-3.478l-.58-2h1.969c.552 0 1-.447 1-1s-.448-1-1-1h-2.549l-.063-.218c-.314-1.049-1.299-1.782-2.395-1.782h-.897c-.552 0-1 .447-1 1s.448 1 1 1h.897c.219 0 .416.146.477.348l1.431 4.931c.124.428.516.722.96.722h3.551l2.143 5.37c.156.392.532.63.929.63zm5.054 2h-5.305c-.552 0-1 .447-1 1s.448 1 1 1h5.305c.552 0 1-.447 1-1s-.448-1-1-1z" fill="var(--db-icon-color, currentColor)" fill-rule="evenodd"/></svg>
