<svg id="icon" height="24" viewBox="0 0 24 24" width="24" xmlns="http://www.w3.org/2000/svg"><path d="m15.411 3.403-.096 1.339 1.371.797 1.148-.766a.983.983 0 0 1 .574-.159c1.179 0 3.379 3.832 3.379 5.133 0 .35-.183.717-.542.892l-1.243.606v1.53l1.243.606a.987.987 0 0 1 .542.892c0 1.218-2.149 5.133-3.38 5.133a.983.983 0 0 1 -.573-.16l-1.148-.765-1.37.766.095 1.37c.08 1.137-1.642 1.403-3.411 1.403-1.593 0-3.494-.207-3.411-1.403l.096-1.37-1.371-.766-1.148.766a.983.983 0 0 1 -.574.159c-1.179 0-3.379-3.832-3.379-5.133 0-.35.183-.717.542-.892l1.243-.606v-1.53l-1.243-.606a.987.987 0 0 1 -.542-.892c0-1.338 2.212-5.133 3.411-5.133.16 0 .35.032.542.16l1.148.765 1.37-.797-.095-1.34c-.08-1.115 1.576-1.383 3.228-1.401l.183-.001c1.594 0 3.496.208 3.411 1.403zm-3.411.605c-.446 0-.893.032-1.37.128l.095 1.116c.032.38-.188.738-.51.924l-2.423 1.404c-.16.064-.319.127-.51.127s-.386-.058-.542-.16l-.988-.637c-.574.67-1.02 1.467-1.34 2.296l1.02.51c.358.178.575.542.575.892v2.774c0 .382-.23.72-.574.892l-1.02.51c.319.861.765 1.658 1.339 2.328l.988-.638c.156-.1.35-.16.542-.16.191 0 .35.035.51.128l2.423 1.403c.322.186.542.543.51.924l-.096 1.116c.478.096.925.128 1.371.128s.893-.032 1.37-.128l-.095-1.116c-.032-.38.188-.738.51-.924l2.423-1.403a.961.961 0 0 1 .51-.127c.191 0 .386.058.542.16l.988.637a7.651 7.651 0 0 0 1.34-2.327l-1.02-.479a1.02 1.02 0 0 1 -.575-.924v-2.742c0-.382.217-.746.574-.924l1.02-.51c-.319-.83-.765-1.626-1.339-2.296l-.988.638c-.156.1-.35.16-.542.16-.191 0-.35-.064-.51-.128l-2.423-1.403c-.322-.186-.542-.543-.51-.924l.096-1.116a6.865 6.865 0 0 0 -1.371-.129zm-.015 3.992a4.02 4.02 0 0 1 4.017 4.017c0 2.2-1.786 3.985-4.017 3.985a3.986 3.986 0 0 1 -3.985-3.985c0-2.2 1.785-4.017 3.985-4.017zm.015 2.002a2.02 2.02 0 0 0 -2.008 2.008c0 1.084.924 2.008 2.008 2.008a2.02 2.02 0 0 0 2.008-2.008 2 2 0 0 0 -2.008-2.008z" fill="var(--db-icon-color, currentColor)" fill-rule="evenodd"/></svg>
