<svg id="icon" height="24" viewBox="0 0 24 24" width="24" xmlns="http://www.w3.org/2000/svg"><path d="m7.547 9.156a5.248 5.248 0 0 0 -3.25 4.875c0 3.313 2.687 5.25 5.375 5.25 1.906 0 3.875-1 4.781-3.218.188-.438.531-.594.844-.594.5 0 1 .375 1 .937 0 .125-.031.25-.094.375-1.125 2.688-3.719 4.438-6.625 4.438-4.531 0-7.156-3.688-7.156-7.282 0-2.656 1.375-5.25 4.406-6.53a.942.942 0 0 1 .375-.095c.563 0 .938.47.938.97 0 .343-.157.687-.594.874zm1.375 2.313 1.312 1.844c.125.187.188.343.25.53l.344 1.438c.125.469-.25 1.188-.937 1.188a.96.96 0 0 1 -.907-.75l-.312-1.313-1.313-1.812a1.008 1.008 0 0 1 -.187-.563c0-.531.469-.969.969-.969.312 0 .562.157.78.407zm6.844-9.469c3.187 0 5.812 2.594 5.812 5.813 0 3.187-2.625 5.78-5.812 5.78a5.788 5.788 0 0 1 -5.782-5.78c0-3.221 2.594-5.813 5.782-5.813zm.88 2.469c-.25 0-.468.125-.655.312l-2.125 2.125c-.25.219-.344.438-.344.688 0 .218.094.468.344.687l2.125 2.094c.156.188.406.281.656.281.562 0 1-.406 1-1a.9.9 0 0 0 -.281-.656l-1.407-1.406 1.407-1.438a.919.919 0 0 0 .28-.687c0-.532-.437-1-1-1z" fill="var(--db-icon-color, currentColor)" fill-rule="evenodd"/></svg>
