<svg id="icon" height="64" viewBox="0 0 64 64" width="64" xmlns="http://www.w3.org/2000/svg"><g fill="none" fill-rule="evenodd" transform="translate(12 6)"><path d="m13.5 52c-7.444 0-13.5-6.056-13.5-13.5 0-5.189 2.896-9.836 7.556-12.124a1 1 0 1 1 .882 1.795 11.435 11.435 0 0 0 -6.438 10.329c0 6.341 5.159 11.5 11.5 11.5 4.939 0 9.319-3.142 10.898-7.817a.995.995 0 0 1 1.267-.627 1 1 0 0 1 .627 1.267 13.49 13.49 0 0 1 -12.792 9.177" fill="var(--db-icon-pulse-color, #EC0016)"/><path d="m16 5.5c0 1.93-1.57 3.5-3.5 3.5s-3.5-1.57-3.5-3.5 1.57-3.5 3.5-3.5 3.5 1.57 3.5 3.5m2 0c0-3.032-2.467-5.5-5.5-5.5a5.506 5.506 0 0 0 -5.5 5.5c0 3.032 2.467 5.5 5.5 5.5s5.5-2.468 5.5-5.5m12.999 22.5a1 1 0 0 0 -1-1l-9.923.003a.701.701 0 0 1 -.642-.599 1.136 1.136 0 0 0 -.024-.116l-2.676-9.802c-.77-2.517-3.381-4.034-5.953-3.462a1.001 1.001 0 0 0 .438 1.952c1.552-.349 3.137.571 3.594 2.066l2.653 9.722c.212 1.224 1.215 2.138 2.534 2.236h9.999a1 1 0 0 0 1-1m9.001 21a1 1 0 0 1 -.956-.706l-4-13c-.461-1.297-1.684-2.214-3.102-2.296l-11.942.002a1 1 0 1 1 0-2h12c2.28.13 4.198 1.567 4.942 3.665l4.014 13.041a1.001 1.001 0 0 1 -.956 1.294" fill="var(--db-icon-color, currentColor)" fill-rule="nonzero"/></g></svg>
