<svg id="icon" height="20" viewBox="0 0 20 20" width="20" xmlns="http://www.w3.org/2000/svg"><path d="m13.63 3c.842 0 1.641.594 1.86 1.41.146.544.417 1.74.813 3.59h1.697v2h-1.105c-.15 1.366-.25 2.242-.3 2.629s-.248.786-.594 1.196v2.233h-2.501v-1.318a23.875 23.875 0 0 1 -7 0l-.007 1.317h-2.493v-2.232a2.515 2.515 0 0 1 -.625-1.395c-.06-.523-.151-1.333-.271-2.431h-1.104v-1.999h1.696l.761-3.432c.238-.805.943-1.561 1.838-1.561zm-4.993 8.008a.75.75 0 0 0 -.579.453l-.304 1.207c-.036.331.118.631.486.782.368.15.825-.105.952-.412l.143-.538h1.329l.14.529a.75.75 0 0 0 1.442-.36l-.304-1.208a.75.75 0 0 0 -.58-.453h-2.724zm-3.719-.655a.75.75 0 0 0 -.435 1.432l1.56.367a.75.75 0 0 0 .434-1.432zm11.074.562a.75.75 0 0 0 -.799-.578l-1.562.354a.75.75 0 0 0 .237 1.477l1.562-.353a.75.75 0 0 0 .562-.9zm-2.034-6.215h-7.915l-.643 3.3h9.2z" fill="#282D37" style="fill: currentColor;fill: var(--db-icon-color, currentColor)" fill-rule="evenodd"/></svg>
