<svg id="icon" height="20" viewBox="0 0 20 20" width="20" xmlns="http://www.w3.org/2000/svg"><path d="m10 3c3.866 0 7 3.134 7 7s-3.134 7-7 7-7-3.134-7-7 3.134-7 7-7zm0 2c-2.757 0-5 2.243-5 5s2.243 5 5 5 5-2.243 5-5-2.243-5-5-5zm2 6c.5522847 0 1 .4477153 1 1s-.4477153 1-1 1h-4c-.55228475 0-1-.4477153-1-1s.44771525-1 1-1zm-4-4c.69035594 0 1.25.55964406 1.25 1.25s-.55964406 1.25-1.25 1.25-1.25-.55964406-1.25-1.25.55964406-1.25 1.25-1.25zm4 0c.6903559 0 1.25.55964406 1.25 1.25s-.5596441 1.25-1.25 1.25-1.25-.55964406-1.25-1.25.5596441-1.25 1.25-1.25z" fill="var(--db-icon-color, currentColor)" fill-rule="evenodd"/></svg>
