<svg id="icon" height="20" viewBox="0 0 20 20" width="20" xmlns="http://www.w3.org/2000/svg"><path d="m10 3c3.8659932 0 7 3.13400675 7 7 0 3.8659932-3.1340068 7-7 7-3.86599325 0-7-3.1340068-7-7 0-3.86599325 3.13400675-7 7-7zm-5 7c0 2.7614237 2.23857625 5 5 5 1.0191072 0 1.9670032-.3048917 2.7574478-.8284349l-6.9290129-6.92901291c-.52354324.79044463-.8284349 1.73834059-.8284349 2.75744781zm5-5c-1.01910722 0-1.96700318.30489166-2.75744781.8284349l6.92901291 6.9290129c.5235432-.7904446.8284349-1.7383406.8284349-2.7574478 0-2.76142375-2.2385763-5-5-5z" fill="var(--db-icon-color, currentColor)" fill-rule="evenodd"/></svg>
