<svg id="icon" height="24" viewBox="0 0 24 24" width="24" xmlns="http://www.w3.org/2000/svg"><path d="m17.3488333 7.63185497c2.2700759 1.56328134 3.782431 4.03166093 4.1512604 6.77010393.1095686.8186779-.1057105 1.6288681-.6064852 2.2847364-.5000032.6558683-1.2268595 1.0771672-2.0447659 1.1859642-.1273156.017747-.2723782.0285495-.4166692.0285495-1.5347318 0-2.8464684-1.1504701-3.0524882-2.6767142-.1944456-1.4513979-1.2330323-2.6389053-2.6458498-3.0247102-.9321045-.2530879-1.9213082-.1273156-2.7577332.3503109-.84336945.4807128-1.44753988 1.2615819-1.70371431 2.1975445-.38271844 1.3997001.1589516 3.6273374 2.23072381 5.4498796.4267001.3750024.4683671 1.0246978.0933647 1.4521696-.2037049.2314829-.4876573.3487676-.77315293.3495392-.23997063.0007716-.48225609-.0833339-.67747335-.2561744-2.92594415-2.5733185-3.36807653-5.6682452-2.85727088-7.537084.39969384-1.4668301 1.34800222-2.6898316 2.66822649-3.4429227 1.30479207-.745375 2.86421537-.94676515 4.31947137-.5478429 2.2129767.6041704 3.8395301 2.4629783 4.1443159 4.735369.0740745.5547874.6250039.9567961 1.1481553.8834931.2816376-.0370372.5231514-.1766986.6898191-.3958358.1666677-.2191371.2384274-.4892005.2021618-.7615788-.2908969-2.1651369-1.4861204-4.1149947-3.2785698-5.34957033-.4675955-.32253287-.5864234-.96296896-.2638906-1.43133607.3225329-.46759551.962969-.58410858 1.4305645-.26389053zm-4.559442 7.52242343c.3888913 1.9105057 1.7615851 3.519312 3.5825841 4.197557.5324107.1983037.8032457.7901283.604942 1.3233107-.1543219.4135828-.5470713.6697572-.9645122.6697572-.1203711 0-.2415138-.0208334-.3603417-.0655868-2.4807254-.9243885-4.3503358-3.1142169-4.87966-5.7153134-.1134267-.5571022.2461435-1.1003155.8032457-1.2129705.5563306-.112655 1.1003155.2461435 1.2137421.8032458zm.2206804-9.17675472c.5632751.0717597.9621974.58796662.889666 1.15124173-.0725313.56250351-.5848801.96914184-1.1512417.88889443-1.666677-.21064946-3.35573077.12808722-4.81407318.95911091-1.79707909 1.02701255-3.08721058 2.69137475-3.63273867 4.68830085-.12422917.4560213-.20833463.92516-.24845834 1.3950704-.04629659.5354971-.49537346.9413639-1.02392613.9413639-.02854956-.0007717-.05864234-.0023149-.08873512-.0054013-.56558994-.0478398-.98534564-.5462997-.93673423-1.1126613.05092624-.5925962.15663678-1.1844209.31327356-1.7608134.69059072-2.5262503 2.32331693-4.63351651 4.59725085-5.93290732 1.8449189-1.05093247 3.98690756-1.48534875 6.09571696-1.2121989zm-7.39356455-.26389054c-.35957014 0-.70833774-.18904438-.89738213-.52469462-.27932273-.49537346-.10416732-1.12269218.39120614-1.4012433 3.16977282-1.78473333 6.97843854-2.26081654 10.49775054-1.30324885 1.111118.30401424 2.1797975.74228857 3.1751741 1.30247724.4953735.27855112.6705289.90664145.3919778 1.4012433-.2793228.49383023-.9058699.66975726-1.4012433.39197775-.8487707-.47839804-1.7592702-.85185716-2.706807-1.11034642-2.9977039-.81404828-6.24309445-.41203961-8.94681499 1.11111803-.15972321.08950673-.33333541.13271687-.50386116.13271687z" fill="var(--db-icon-color, currentColor)" fill-rule="evenodd"/></svg>
