<svg id="icon" height="32" viewBox="0 0 32 32" width="32" xmlns="http://www.w3.org/2000/svg"><path d="m28.9200041 12.6080914c.7079639 1.6619425 1.0799959 3.5149915 1.0799959 5.3919086 0 3.6618348-1.4132578 7.1039301-3.89832 9.6931184-.38243.3984542-1.0154618.4114443-1.4139159.0290142-.3984542-.38243-.4114443-1.0154617-.0290142-1.4139159 2.1310853-2.2203794 3.3412501-5.1678266 3.3412501-8.3082167 0-1.609691-.3184846-3.1960264-.9200041-4.6080914-.2164452-.5081042.0199912-1.0954676.5280955-1.3119127.5081042-.2164452 1.0954676.0199912 1.3119127.5280955zm-12.9200041-8.6080914c1.8750068 0 3.7002071.36931653 5.3946128 1.07742317.5095764.21295631.7500344.79868476.5370781 1.30826111s-.7986848.7500344-1.3082611.53707809c-1.4511874-.6064636-3.0143685-.92276237-4.6234298-.92276237-6.627417 0-12 5.372583-12 12 0 3.1403901 1.21016476 6.0878373 3.34125013 8.3082167.38243004.3984542.36943993 1.0314859-.02901422 1.4139159-.39845415.3824301-1.03148587.36944-1.4139159-.0290142-2.48506226-2.5891883-3.89832001-6.0312836-3.89832001-9.6931184 0-7.7319865 6.2680135-14 14-14zm7.0731758 19.6568542c.3905243.3905243.3905243 1.0236893 0 1.4142136s-1.0236893.3905243-1.4142136 0-.3905243-1.0236893 0-1.4142136c.3905243-.3905242 1.0236893-.3905242 1.4142136 0zm-12.7279221 0c.3905243.3905243.3905243 1.0236893 0 1.4142136-.39052429.3905243-1.02368927.3905243-1.41421356 0s-.39052429-1.0236893 0-1.4142136c.39052429-.3905242 1.02368927-.3905242 1.41421356 0zm14.6090057-4.2934086c.5334661.1429418.8500486.6912787.7071068 1.2247449-.1429418.5334661-.6912788.8500485-1.2247449.7071067s-.8500486-.6912787-.7071067-1.2247448c.1429418-.5334661.6912787-.8500486 1.2247448-.7071068zm-16.67955806.7071068c.14294181.5334661-.17364068 1.081803-.70710678 1.2247448-.53346611.1429418-1.08180306-.1736406-1.22474487-.7071067-.14294181-.5334662.17364067-1.0818031.70710678-1.2247449.5334661-.1429418 1.08180306.1736407 1.22474487.7071068zm16.43240546-10.77765918c.3905243.39052429.3916844 1.02052008 0 1.41421358l-6.7725277 6.7773769c.0442559.1648024.0675288.3374415.0675288.5155163 0 1.1045695-.8954305 2-2 2-1.1045694 0-2-.8954305-2-2s.8954306-2 2-2c.1780749 0 .350714.0232729.5150418.0669431l6.7757435-6.77404988c.3905243-.39052429 1.0236893-.39052429 1.4142136 0zm.9542594 6.11891628c.1429418.5334662-.1736407 1.0818031-.7071068 1.2247449s-1.081803-.1736407-1.2247448-.7071068c-.1429419-.5334661.1736406-1.081803.7071067-1.2247448s1.0818031.1736406 1.2247449.7071067zm-18.09377164-.7071067c.5334661.1429418.85004859.6912787.70710678 1.2247448s-.69127877.8500486-1.22474487.7071068c-.53346611-.1429418-.85004859-.6912787-.70710678-1.2247449.14294181-.5334661.69127876-.8500485 1.22474487-.7071067zm2.77765914-3.7757706c.3905243.3905243.3905243 1.0236893 0 1.4142136-.39052429.3905242-1.02368927.3905242-1.41421356 0-.39052429-.3905243-.39052429-1.0236893 0-1.4142136s1.02368927-.3905243 1.41421356 0zm8.2450447-2.58819046c.5334661.14294181.8500486.69127877.7071068 1.22474487-.1429418.53346609-.6912788.85004859-1.2247449.70710679s-.8500486-.69127878-.7071068-1.22474488c.1429418-.53346611.6912788-.85004859 1.2247449-.70710678zm-3.951636.70710678c.1429418.5334661-.1736407 1.08180308-.7071068 1.22474488s-1.0818031-.1736407-1.2247449-.70710679c-.1429418-.5334661.1736407-1.08180306.7071068-1.22474487s1.0818031.17364067 1.2247449.70710678z" fill="var(--db-icon-color, currentColor)" fill-rule="evenodd"/></svg>
