<svg id="icon" height="32" viewBox="0 0 32 32" width="32" xmlns="http://www.w3.org/2000/svg"><path d="m14.5 5c.2171583 0 .4820318.06651163.7372618.31903553l3.6777382 3.68096447h6.085c1.5976809 0 3.0008721 1.2907304 3.0008721 3.0265336v1.2996392c.9723681.4962209 1.8488393 1.6805549 1.5946921 3.1670242l-1.3306366 8c-.2310484 1.3862904-1.3773365 2.4153506-2.7912839 2.506803h-18.77938952c-1.40541257 0-2.69425418-1-2.95918177-2.506803l-1.33333334-8c-.22061109-1.3236666.46169182-2.589195 1.59733522-3.1671826l.00092571-5.3260144c0-1.59768088 1.28969913-3 3-3zm-9.17742825 10.0067277c-.63077545.0430232-1.03123775.5263726-.94421006 1.2043664l1.32949856 7.9533049c.07366761.4420056.43036215.7758046.86583029.8283682l18.73205526.0072328c.4481026 0 .9014314-.3280434.9863939-.835601l1.3273881-7.9533049c.0913229-.7254765-.3645744-1.1442442-.9193611-1.2043664zm8.76242825-8.0067277h-7.085c-.51283584 0-1.00054729.4060737-1.00054729 1v5h19.99999999l.0005473-1c0-.5128358-.425164-.9634483-1-1h-6.5c-.2210137 0-.5164928-.0955377-.7071068-.2928932z" fill="var(--db-icon-color, currentColor)" fill-rule="evenodd"/></svg>
