<svg id="icon" height="32" viewBox="0 0 32 32" width="32" xmlns="http://www.w3.org/2000/svg"><path d="m13 30c-.5522847 0-1-.4477153-1-1 0-.5128358.45-1 1-1h2v-4l.0032994-.0545647c-4.5015389-.4959437-8.0032994-4.3117495-8.0032994-8.9454353 0-.5522847.44771525-1 1-1s1 .4477153 1 1c0 3.8659932 3.1340068 7 7 7s7-3.1340068 7-7c0-.5522847.4477153-1 1-1s1 .4477153 1 1c0 4.6333431-3.5012426 8.4489272-8.0023006 8.9453252l.0023006.0546748v4h2c.5522847 0 1 .4477153 1 1 0 .5128358-.45 1-1 1zm3-28c2.6887547 0 4.8864376 2.33919633 5 5v8c0 2.7614237-2.2385763 5-5 5-2.6887547 0-4.8864376-2.3391963-5-5v-8c0-2.76142375 2.2385763-5 5-5zm0 2c-1.5976809 0-2.9087536 1.42519275-3 3v8c0 1.6568542 1.3431458 3 3 3 1.5976809 0 2.9087536-1.4251928 3-3v-8c0-1.65685425-1.3431458-3-3-3z" fill="var(--db-icon-color, currentColor)" fill-rule="evenodd"/></svg>
