<svg id="icon" height="20" viewBox="0 0 20 20" width="20" xmlns="http://www.w3.org/2000/svg"><path d="m16.388 4a1.587 1.587 0 0 1 1.612 1.581v7.994a1.619 1.619 0 0 1 -1.612 1.625h-12.788a1.612 1.612 0 0 1 -1.6-1.625v-7.994a1.581 1.581 0 0 1 1.6-1.58zm0 1.138h-12.788a.419.419 0 0 0 -.431.443v7.994a.425.425 0 0 0 .431.45h12.794a.437.437 0 0 0 .45-.45l-.006-7.994a.438.438 0 0 0 -.45-.443zm-2.688.806c1.294 0 2.081.706 2.081 1.775a1.831 1.831 0 0 1 -1.28 1.712l.004-.002.122.021a1.744 1.744 0 0 1 1.37 1.603l.003.147c0 1.438-.994 2.063-2.819 2.063h-2.587v-7.32zm-6.8-.025c1.875 0 2.944 1.2 2.944 3.631 0 2.15-.719 3.7-2.944 3.713h-2.706v-7.344zm-.55 1.169h-.394v5h.625c.944-.025 1.513-.763 1.513-2.375 0-1.475-.163-2.625-1.744-2.625zm6.775 3.1h-.769v1.875h.785c.301-.003 1.115-.053 1.115-.95 0-.4-.218-.925-1.13-.925zm-.206-3.125h-.544v1.775h.688a.869.869 0 0 0 .956-.894c0-.613-.3-.881-1.1-.881z" fill="var(--db-icon-color, currentColor)" fill-rule="evenodd"/></svg>
