<svg id="icon" height="20" viewBox="0 0 20 20" width="20" xmlns="http://www.w3.org/2000/svg"><path d="m3.997 18.003c.548 0 .997-.43.997-.997v-1.996c0-.567.45-1.017.998-1.017h8.016c.548 0 .998.45.998 1.017v1.995c0 .567.45.997.997.997s.997-.43.997-.997v-1.995c0-1.66-1.35-3.01-2.992-3.01h-8.016c-1.643 0-2.992 1.35-2.992 3.011v1.995c0 .567.45.997.997.997zm6.003-16.003c2.21 0 4.008 1.78 4.008 3.989a4.014 4.014 0 0 1 -4.008 4.008c-2.21 0-3.989-1.799-3.989-4.008a3.98 3.98 0 0 1 3.989-3.989zm.006 2c-1.098 0-2 .902-2 2 0 1.118.902 2 2 2 1.117 0 2-.882 2-2 0-1.098-.883-2-2-2z" fill="#282D37" style="fill: currentColor;fill: var(--db-icon-color, currentColor)" fill-rule="evenodd"/></svg>
