<svg id="icon" height="32" viewBox="0 0 32 32" width="32" xmlns="http://www.w3.org/2000/svg"><path d="m15.825 3c3.18 0 5.915 1.86 7.199 4.563l3.769-3.77a1 1 0 0 1 1.414 0c.36.36.418 1.007 0 1.414a77318.602 77318.602 0 0 1 -24.5 24.5 1 1 0 1 1 -1.414-1.414c.72-.724 1.44-1.446 2.164-2.166l-2.425-12.734c-.213-1.19.643-2.352 1.97-2.352 1.283-.002 2.564-.002 3.846 0 0-4.418 3.56-8.041 7.977-8.041zm9.35 8.04h2.441a1.994 1.994 0 0 1 1.992 2.208l-.021.145-2.48 13.189c-.242 1.307-1.3 2.352-2.587 2.44l-.177.007h-16.844c-.1 0-.2-.005-.297-.015l1.988-1.988h14.994c.437 0 .82-.293.955-.71l.03-.116 2.447-13.189h-4.412zm-7.601 1.97-13.571.001 2.169 11.401zm-1.749-8.008c-3.23 0-5.853 2.58-5.97 5.812l-.004.227 9.693-.001 1.939-1.937c-.801-2.371-3.028-4.1-5.658-4.1z" fill="#282D37" style="fill: currentColor;fill: var(--db-icon-color, currentColor)" fill-rule="evenodd"/></svg>
