<svg id="icon" height="24" viewBox="0 0 24 24" width="24" xmlns="http://www.w3.org/2000/svg"><path d="m12 2c3.875 0 7 2.844 7 6.375 0 1.406-.469 2.75-1.156 3.969l-4.969 9.125a1.013 1.013 0 0 1 -1.781 0l-4.906-9.125c-.658-1.219-1.188-2.564-1.188-3.969 0-3.531 3.125-6.375 7-6.375zm0 2c-2.75 0-5 1.969-5 4.406 0 1.063.438 2.125.938 3.063l4.062 7.531 4.063-7.563c.5-.906.937-1.968.937-3.03 0-2.439-2.25-4.407-5-4.407zm-2 5c0-1.094.906-2 2-2s2 .906 2 2-.906 2-2 2-2-.906-2-2z" fill="var(--db-icon-color, currentColor)" fill-rule="evenodd"/></svg>
