<svg id="icon" height="24" viewBox="0 0 24 24" width="24" xmlns="http://www.w3.org/2000/svg"><path d="m2 19v-10a3 3 0 0 1 3-3h7a3 3 0 0 1 3 3v10a3 3 0 0 1 -3 3h-7a3 3 0 0 1 -3-3zm2 0c0 .531.469 1 1 1h7c.531 0 1-.469 1-1v-10c0-.563-.469-1-1-1h-7c-.531 0-1 .438-1 1zm2-2c0 .531.469 1 1 1 .563 0 1-.469 1-1 0-.563-.438-1-1-1-.531 0-1 .438-1 1zm3 0c0 .531.438 1 1 1 .531 0 1-.469 1-1 0-.563-.469-1-1-1-.563 0-1 .438-1 1zm2-14c0-.563.469-1 1-1h7a3 3 0 0 1 3 3v10c0 1.563-1.281 3-3 3h-1c-.531 0-.969-.469-.969-1 0-.563.438-1 .969-1h1c.531 0 1-.438 1-1v-10c0-.531-.469-1-1-1h-7c-.531 0-1-.438-1-1z" fill="var(--db-icon-color, currentColor)" fill-rule="evenodd"/></svg>
