<svg id="icon" height="20" viewBox="0 0 20 20" width="20" xmlns="http://www.w3.org/2000/svg"><path d="m6.29029539 9.88710056c.30502489.39229124.27729535.95952224-.08318861 1.32000624-.36048396.3604839-.92771502.3882135-1.32000622.0831886l-2.67739595-2.67739596c-.27960615-.35960027-.27960615-.86619861 0-1.22579888l2.67739595-2.67739595c.35960027-.27960615.91098454-.32583307 1.32000622.08318861s.36279476.96040595.08318861 1.32000622l-.87629539.88710056h8.086c2.4852814 0 4.5 2.01471863 4.5 4.5 0 2.4142733-1.9012365 4.3844891-4.2881643 4.495102l-7.52850237.004898c-.55228475 0-1-.4477153-1-1 0-.5128358.38604019-.9355072.88337888-.9932723l7.43328779-.0067277c1.3807119 0 2.5-1.1192881 2.5-2.5 0-1.3254834-1.0315359-2.41003867-2.3356243-2.49468232l-8.2493757-.00531768z" fill="var(--db-icon-color, currentColor)" fill-rule="evenodd"/></svg>
