<svg id="icon" height="20" viewBox="0 0 20 20" width="20" xmlns="http://www.w3.org/2000/svg"><path d="m12.5483962 10c1.7320635.0160649 3.4113825.6508241 4.6830638 1.8163233l.4859576.4765699c.3905243.3905243.3905243 1.0236893 0 1.4142136-.360484.3604839-.927715.3882135-1.3200062.0831886l-.3598543-.3488356c-.8645693-.8645693-2.0315057-1.4142136-3.2280092-1.4550062s-1.4633947.0036645-1.8057645.000489-.6481907.2057382-.7292291.5383941c-.0247298.1015139.0379761.2110594.1663647.2331543.0855924.01473.9727895.096879 2.6615913.246447.5499323.0509203.9544614.5380077.9035411 1.08794-.0472832.5106514-.4550914.9370193-.9711953.9075944-.516104-.0294248-2.2821266-.1983591-2.778336-.2505003-.49620927-.0521412-.93083048-.2084797-1.45235445-.3735558-.34768264-.1100506-1.44448412-.4521258-3.29040442-1.0262254-.53779751-.1660344-1.12250823.0118764-1.47668663.4493135-.05771612.0712838-.0546186.2069057.11239638.2714642.11134333.043039 1.39133334.5328048 3.83997004 1.4692973.69712653.2659397 1.43163678.4184688 2.17562718.4524458l6.8452426.0072883c.5522848 0 1 .4477153 1 1 0 .5128358-.4266938 1-1 1h-6.5258905c-.97453656 0-2.09076158-.1774831-2.8641291-.4678977-.51557835-.1936098-1.92430834-.7283698-4.22618996-1.6042799-.21373386-.0815351-.41320272-.1964127-.59099111-.3403621-.92974464-.7527836-1.07319997-2.1167421-.32041644-3.0464868.82507225-1.0190267 2.16032676-1.4637054 3.42245963-1.1565536l2.4102296.7381854c.31623806-1.24624 1.31113013-2.0587398 2.50970928-2.1226053zm-5.91104843-2.23139378c.28472703 0 1.04996256-.17412338 1.11643812-.18795402.21689955-.04512724.48180461.097501.57227688.33194192.1752408.45410173-.22442104.68909978-.34365411.75587679-.11923307.066777-.44993234.18155164-.72462788.24154262-.27469553.05999098-.55096977.08998647-.82882273.08998647-.59990979 0-1.09088859-.08525034-1.4729364-.25575101-.38204781-.17050068-.67884529-.43098783-.89039242-.78146144-.21154714-.35047361-.35836716-.80672079-.44046008-1.36874154h-.62516915v-.79566983h.59675237v-.62516914h-.59675237v-.79566983h.62516915c.10735228-.57465043.27153811-1.03405503.49255751-1.3782138.22101939-.34415877.52413171-.59675237.90933694-.75778078.38520523-.16102842.88092016-.24154263 1.48714479-.24154263.49521793 0 .94251848.06482941 1.34190163.19448822.2660368.09086094.53261978.36729864.44040386.72342441-.12723907.42465436-.54595859.48403737-.83508769.40823707-.28912911-.07580029-.57013676-.11370044-.84302294-.11370044-.42940911 0-.73883627.08998646-.92828146.2699594-.1894452.17997294-.32205684.47834912-.39783492.89512855h1.75236807v.79566983h-1.77131259v.62516914h1.77131259v.79566983h-1.75236807c.05683356.44203879.18313036.74830852.3788904.9188092.19576003.17050068.51781687.25575101.9661705.25575101z" fill="var(--db-icon-color, currentColor)" fill-rule="evenodd"/></svg>
