<svg id="icon" height="64" viewBox="0 0 64 64" width="64" xmlns="http://www.w3.org/2000/svg"><g fill="none" transform="translate(4.043 14.61)"><path d="m55.455 18.523a1 1 0 0 1 .333 1.422c-1.636 2.451-4.343 5.156-6.002 6.592-7.27 6.295-15.516 8.682-24.24 4.765a1 1 0 0 1 .82-1.824c7.492 3.496 17.684 2.152 27.122-9.77-9.98-5.563-17.93-6.884-23.613-4.875-3.764 1.331-6.239 4.129-7.108 6.792 9.176-3.792 19.054-3.304 20.249-3.233a1 1 0 0 1 -.119 1.996c-5.095-.223-19.91.259-26.816 8.248-1.235 1.42-2.422 3.176-3.594 5.247a1 1 0 1 1 -1.74-.986c1.232-2.178 2.492-4.04 3.823-5.57 1.587-1.837 3.577-3.365 5.91-4.613.473-3.79 3.607-7.83 8.395-9.644 6.528-2.473 15.457-.945 26.58 5.453zm-46.889-18.247c1.255 1.195 2.68 3.107 3.422 4.245 3.698 5.664 5.152 12.222.787 18.443a1 1 0 0 1 -1.637-1.148c3.78-5.388 2.505-11.102-.824-16.202a26.67 26.67 0 0 0 -2.394-3.118c-5.921 7.116-6.38 12.002-5.647 14.836.733 2.835 3.032 4.92 5.235 5.468a1 1 0 1 1 -.483 1.94c-2.884-.717-5.762-3.327-6.688-6.907-1.22-4.72.835-10.6 6.783-17.487a1 1 0 0 1 1.446-.07z" fill="var(--db-icon-color, currentColor)"/><path d="m6.95 13.506c-.26 3.284.07 6.034.567 7.868.728 2.788 2.024 4.917 3.98 6.175a1 1 0 0 1 -1.082 1.682c-2.434-1.566-3.99-4.12-4.833-7.352-.695-2.666-.909-6.123-.619-8.605a1 1 0 0 1 .993-.884.992.992 0 0 1 .994 1.116z" fill="var(--db-icon-pulse-color, #78be14)"/></g></svg>
