<svg id="icon" height="20" viewBox="0 0 20 20" width="20" xmlns="http://www.w3.org/2000/svg"><path d="m3.64 14.825c.644 0 1.034-.546 1.034-.956 0-.469-.741-1.6-.741-2.87 0-2.694 2.05-4.724 4.548-4.958l-.683.644c-.156.195-.293.449-.293.703 0 .507.468.956.996.956.253 0 .532-.092.716-.278l2.178-2.196c.185-.186.268-.454.268-.708a.89.89 0 0 0 -.273-.644l-2.207-2.225a.942.942 0 0 0 -.682-.293 1 1 0 0 0 -.996.995.95.95 0 0 0 .293.684l.449.449a6.878 6.878 0 0 0 -6.247 6.871c0 1.386.527 3.826 1.64 3.826zm4.275 1.875h1.933c.566 0 .956-.468.956-.976a.979.979 0 0 0 -.976-.976v-3.845a.946.946 0 0 0 -1.487-.786l-1.009.673a.952.952 0 0 0 -.432.796c0 .566.468.995 1.015.976v2.186c-.547 0-.957.45-.957.996 0 .507.41.956.957.956zm6.579-6.852c1.6 0 2.694 1.133 2.694 2.87v1.093c0 1.757-1.133 2.89-2.792 2.89-1.503 0-2.596-1.152-2.596-2.85v-1.211c0-1.66 1.132-2.791 2.694-2.791zm.046 1.948h-.066c-.43.011-.722.122-.722.825v1.23c0 .683.215.892.742.882.468-.01.722-.239.722-.941v-1.093c0-.82-.39-.912-.742-.903z" fill="#282D37" style="fill: currentColor;fill: var(--db-icon-color, currentColor)" fill-rule="evenodd"/></svg>
