<svg id="icon" height="20" viewBox="0 0 20 20" width="20" xmlns="http://www.w3.org/2000/svg"><path d="m16 2a2 2 0 0 1 2 2v12a2 2 0 0 1 -2 2h-12a2 2 0 0 1 -2-2v-12a2 2 0 0 1 2-2zm0 2h-12v12h12zm-4.618 2.292c.465.091.786.18.965.265a.64.64 0 0 1 .34.74c-.078.265-.407.468-.663.395-.18-.048-.456-.112-.832-.191a5.123 5.123 0 0 0 -.802-.066c-.553 0-.988.098-1.305.295a1.607 1.607 0 0 0 -.675.865c-.133.38-.2.87-.2 1.47 0 .613.07 1.103.21 1.47s.363.637.67.81.72.26 1.22.26c.26 0 .507-.024.74-.07.093-.02.2-.12.2-.245v-1.125a.15.15 0 0 0 -.15-.15 15.273 15.273 0 0 0 -.46 0 .59.59 0 0 1 -.59-.59c0-.293.21-.588.59-.59.547-.002 1.093-.002 1.64 0 .245 0 .5.165.5.5v2.243a1 1 0 0 1 -.713.958 6.334 6.334 0 0 1 -1.807.259c-1.28 0-2.227-.31-2.84-.93s-.92-1.557-.92-2.81c0-.84.15-1.547.45-2.12s.735-1.005 1.305-1.295 1.72-.586 3.127-.348z" fill="var(--db-icon-color, currentColor)" fill-rule="evenodd"/></svg>
