<svg id="icon" height="32" viewBox="0 0 32 32" width="32" xmlns="http://www.w3.org/2000/svg"><path d="m15.983 4.45a1 1 0 0 0 -.986-1.412c-6.748.516-11.997 6.156-11.997 12.962 0 7.18 5.82 13 13 13a13 13 0 0 0 11.838-7.621 1 1 0 0 0 -.987-1.411c-.282.021-.566.032-.851.032-6.075 0-11-4.925-11-11 0-1.592.338-3.134.983-4.55zm-2.441.825c-.04.132-.622 1.986-.538 4.032.155 6.732 5.456 12.259 12.231 12.669-2.15 3.213-5.502 5.024-9.235 5.024-6.075 0-11-4.925-11-11 0-5.173 3.315-9.229 8.542-10.725z" fill="var(--db-icon-color, currentColor)" fill-rule="evenodd"/></svg>
