<svg id="icon" height="24" viewBox="0 0 24 24" width="24" xmlns="http://www.w3.org/2000/svg"><path d="m19.29 16.609 1.72.06a1 1 0 1 1 -.07 1.999c-.573-.018-1.146-.038-1.72-.06a1.064 1.064 0 0 0 -.275.028l-13.587 3.374a2.942 2.942 0 0 1 -.828.087l-1.719-.06a1 1 0 0 1 .07-1.999c.573.018 1.146.038 1.719.06.09.003.182-.006.276-.029l13.587-3.374c.272-.067.548-.096.828-.086zm-12.82-6.217a.952.952 0 0 1 -.075.667l-.06.108a2.488 2.488 0 0 0 -.315 1.863 2.54 2.54 0 0 0 3.036 1.897 2.532 2.532 0 0 0 1.59-1.144.921.921 0 0 1 .584-.417 1.007 1.007 0 0 1 1.199.75c.056.243.058.531-.082.756a4.519 4.519 0 0 1 -2.81 1.996 4.535 4.535 0 0 1 -5.437-3.396c-.26-1.126-.05-2.297.508-3.356a.95.95 0 0 1 .63-.466c.548-.127 1.103.194 1.23.742zm2.144-3.945 1.836 2.873 2.113-.567c.755-.202 1.307.037 1.754.63l2.962 3.93c.068.09.133.256.158.346a.98.98 0 0 1 -.677 1.217c-.453.121-.868-.09-1.114-.413l-2.806-3.713-2.657.712a1.012 1.012 0 0 1 -1.16-.466l-2.182-3.556a1.006 1.006 0 0 1 .612-1.458c.453-.122.916.081 1.16.465zm-2.564-4.335a1.52 1.52 0 0 1 1.837 1.06 1.5 1.5 0 0 1 -1.06 1.838 1.48 1.48 0 0 1 -1.838-1.06 1.5 1.5 0 0 1 1.06-1.838z" fill="var(--db-icon-color, currentColor)" fill-rule="evenodd"/></svg>
