<svg id="icon" height="32" viewBox="0 0 32 32" width="32" xmlns="http://www.w3.org/2000/svg"><path d="m16 2c7.719 0 14 6.281 14 14s-6.281 14-14 14-14-6.281-14-14 6.281-14 14-14zm0 2c-6.625 0-12 5.375-12 12s5.375 12 12 12 12-5.375 12-12-5.375-12-12-12zm-6 7c0-.563.406-1 1-1 .281 0 .5.063.719.281l4.281 4.281 4.281-4.28a.961.961 0 0 1 .719-.282c.563 0 1 .406 1 1 0 .281-.063.5-.281.719l-4.282 4.281 4.282 4.281c.187.188.281.469.281.719 0 .563-.406 1-1 1-.281 0-.469-.031-.719-.281l-4.281-4.282-4.281 4.282a.961.961 0 0 1 -.719.281c-.562 0-1-.406-1-1 0-.25.031-.469.281-.719l4.281-4.281-4.28-4.281a.962.962 0 0 1 -.282-.719z" fill="#282D37" style="fill: currentColor;fill: var(--db-icon-color, currentColor)" fill-rule="evenodd"/></svg>