<svg id="icon" height="20" viewBox="0 0 20 20" width="20" xmlns="http://www.w3.org/2000/svg"><path d="m10 2c.563 0 1 .438 1 1v1.031a6.114 6.114 0 0 1 4.969 4.969h1.031c.594 0 1 .438 1 1 0 .531-.406 1-1 1h-1.031c-.438 2.531-2.438 4.531-4.969 4.938v1.062c0 .563-.438 1-1 1-.563 0-1-.438-1-1v-1.063c-2.531-.406-4.531-2.406-4.969-4.937h-1.031c-.469 0-1-.344-1-1 0-.563.469-1 1-1h1.031a6.114 6.114 0 0 1 4.969-4.969v-1.031c0-.563.438-1 1-1zm0 4c-2.219 0-4 1.781-4 4s1.781 4 4 4 4-1.781 4-4-1.781-4-4-4zm-2 4c0 1.094.906 2 2 2s2-.906 2-2-.906-2-2-2-2 .906-2 2z" fill="var(--db-icon-color, currentColor)" fill-rule="evenodd"/></svg>
