<svg id="icon" height="32" viewBox="0 0 32 32" width="32" xmlns="http://www.w3.org/2000/svg"><path d="m23.032 2c.707 0 1.413.193 1.959.739l3.115 3.114c.61.61.899 1.344.899 2.147 0 .674-.212 1.43-.739 1.963l-3.115 3.147c-.527.533-1.188.89-1.926.89h-7.193v14h3.968c.546 0 1.01.459 1.01 1.005 0 .513-.496.995-1.01.995h-10.25c-.578 0-1-.417-1-.995 0-.482.486-1.005 1-1.005h4.26v-14h-8.01c-1.606 0-3-1.243-3-2.817v-6.197c0-1.573 1.394-2.986 3-2.986zm.129 2h-17.161c-.546 0-.977.376-.977.858v6.133c0 .514.353 1.009.867 1.009h17.142c.193 0 .482-.078.674-.27l3.019-3.019a.966.966 0 0 0 .289-.706c0-.225-.047-.498-.193-.643l-3.115-3.082c-.161-.16-.353-.28-.545-.28z" fill="var(--db-icon-color, currentColor)" fill-rule="evenodd"/></svg>
