<svg id="icon" height="64" viewBox="0 0 64 64" width="64" xmlns="http://www.w3.org/2000/svg"><g fill="none" fill-rule="evenodd" transform="translate(3.999 3.999)"><path d="m38.485.234c4.836 1.294 9.672 2.59 14.507 3.887 2.064.553 3.408 2.7 2.822 4.888-3.02 11.276-6.04 22.55-9.064 33.825a3.991 3.991 0 0 1 -4.694 2.869l-1.056-.279.001 5.577c0 1.853-.384 3.348-1.16 4.544a1 1 0 1 1 -1.679-1.088c.512-.79.838-1.878.84-3.456v-6.111l-5-1.339v3.451c0 2.472-1.025 4.322-2.717 5.578-1.157.821-2.192 1.29-3.105 1.406a1 1 0 0 1 -.471-1.94 6.792 6.792 0 0 0 2.224-.957c1.254-.813 2.066-2.139 2.067-4.089.002-1.667.002-3.333 0-5 0-.221.09-.523.293-.707 1.998-2.002 3.998-4.002 5.999-5.999 1.065-1.07 1.065-2.518 0-3.587-1.022-1.024-2.46-1.103-3.585 0a16887.19 16887.19 0 0 0 -9.095 9.074 4.004 4.004 0 0 1 -1.079-3.9c.881-3.296 1.763-6.59 2.647-9.885l-6.472 5.71c-.94.813-1.708 2.588-1.708 4.294-.002 6-.002 12 0 18a1 1 0 0 1 -1 1 .99.99 0 0 1 -1-1c-.002-6-.002-12 0-18 0-2.072.879-4.534 2.339-5.75l.487-.431.485-.43c3.876-3.432 7.5-6.61 7.788-6.872l.018-.017 5.48-20.445c.553-2.063 2.709-3.404 4.888-2.821zm2.39 2.71-.13.484a.516.516 0 0 0 .238.563l.077.042.087.03 7.626 2.043a.57.57 0 0 0 .428-.05.495.495 0 0 0 .211-.226l.026-.073.13-.483-8.694-2.33zm-5.346.63c-2.989 11.148-5.977 22.296-8.963 33.446l6.728-6.726c1.847-1.85 4.566-1.85 6.416.001 1.785 1.793 1.84 4.393.166 6.237l-1.87 1.878 2.503.672a1 1 0 0 1 .707 1.224c-.133.496-.707.877-1.225.707-1.206-.32-2.413-.644-3.619-.97l-1.633 1.633 7.641 2.048c1.014.272 2.1-.272 2.439-1.408a112765 112765 0 0 0 9.063-33.825 1.982 1.982 0 0 0 -1.408-2.438c-.324-.089-.65-.176-.974-.261l-.13.483c-.35 1.304-1.712 2.138-3.115 1.763-2.542-.678-5.084-1.36-7.626-2.043-1.301-.349-2.18-1.683-1.816-3.085.042-.162.085-.323.13-.483l-.975-.261c-1.014-.272-2.131.261-2.439 1.408zm7.403 14.423.114.024 2.174.582a1 1 0 0 1 -.404 1.956l-.114-.024-2.173-.582a1 1 0 0 1 .403-1.956zm-6.578-5.91 3.864 1.035a1 1 0 0 1 .707 1.224l-1.035 3.864a1 1 0 0 1 -1.225.707l-3.864-1.035a1 1 0 0 1 -.707-1.225l1.036-3.863a1 1 0 0 1 1.224-.708zm.236 1.823-.672 2.511 2.51.673.674-2.511zm-17.589-13.91c1.598 0 3 1.284 3 3v2.065a1 1 0 0 1 -1 1c-.513 0-1-.397-1-1v-2.065c0-.513-.34-1-1-1h-16c-.513 0-1 .405-1 1-.002 5.334-.002 10.667 0 16 0 .513.39 1 1 1h16a1 1 0 0 1 1 1c0 .513-.443 1-1 1-5.333.002-10.666.002-16 0-1.597 0-3-1.29-3-3v-16c0-1.597 1.29-3 3-3zm24.725 14.07.114.023 5.313 1.424a1 1 0 0 1 -.403 1.955l-.115-.023-5.312-1.424a1 1 0 0 1 .403-1.955zm-32.204-8.07a6.2 6.2 0 0 1 1.917.278c.38.13.76.525.629 1.034-.182.606-.78.691-1.193.583a4.74 4.74 0 0 0 -1.205-.163c-.613 0-1.055.129-1.326.386-.27.257-.46.683-.568 1.279h2.503v1.136h-2.529v.894h2.53v1.136h-2.504c.081.632.262 1.07.541 1.313.28.243.74.365 1.38.365.407 0 1.5-.249 1.595-.268.31-.065.689.139.818.474.25.649-.32.984-.491 1.08-.17.095-.643.259-1.035.345a5.534 5.534 0 0 1 -1.184.128c-.857 0-1.559-.122-2.104-.365a2.764 2.764 0 0 1 -1.272-1.116c-.303-.501-.512-1.153-.63-1.956h-.893v-1.136h.853v-.894h-.854v-1.135h.893c.154-.821.388-1.477.704-1.97a2.78 2.78 0 0 1 1.3-1.082c.55-.23 1.258-.345 2.124-.345z" fill="var(--db-icon-color, currentColor)" fill-rule="nonzero"/><path d="m17.266 13.718c0 .399.399.939 1.056.939.282 0 .587-.18.775-.446 1.29-1.831 3.38-2.981 5.61-2.981 2.278 0 4.372 1.15 5.655 2.983.196.28.495.444.8.444.447 0 1.01-.352 1.01-.986 0-.235-.07-.434-.191-.608-1.655-2.373-4.362-3.829-7.274-3.829-2.864 0-5.572 1.456-7.226 3.83a1.273 1.273 0 0 0 -.215.654zm2.629 2.559c0 .563.422 1.009.986 1.009.352 0 .68-.188.845-.446a3.533 3.533 0 0 1 2.981-1.643c1.22 0 2.344.61 3.007 1.642a.983.983 0 0 0 .843.447c.587 0 .986-.516.986-1.01 0-.187-.07-.381-.19-.561a5.59 5.59 0 0 0 -4.646-2.513 5.567 5.567 0 0 0 -4.625 2.51c-.14.215-.187.377-.187.565z" fill="var(--db-icon-pulse-color, #EC0016)" transform="matrix(.25881905 -.96592583 .96592583 .25881905 5.513076 33.70478)"/></g></svg>
