<svg id="icon" height="64" viewBox="0 0 64 64" width="64" xmlns="http://www.w3.org/2000/svg"><g fill="none" fill-rule="evenodd" transform="translate(7 7)"><path d="m49.418 19.61c-.544-2.476-1.476-4.79-2.69-6.918a.972.972 0 0 0 -.22-.382c-4.418-7.422-12.548-12.31-21.508-12.31-9.139 0-17.128 4.946-21.488 12.288a.995.995 0 0 0 -.234.384 24.812 24.812 0 0 0 0 24.655.995.995 0 0 0 .234.384c4.36 7.342 12.349 12.288 21.489 12.288a1 1 0 0 0 0-2c-2.764 0-5.646-3.744-7.382-10h3.381a1 1 0 0 0 0-2h-3.876c-.642-2.918-1.04-6.286-1.102-10h4.886a1 1 0 0 0 0-2h-4.886c.062-3.714.46-7.081 1.102-10h15.742c.222 1.003.414 2.049.576 3.137a1.01 1.01 0 0 0 1.134.844c.546-.082.924-.59.844-1.136a48.234 48.234 0 0 0 -.513-2.844h10.269a22.526 22.526 0 0 1 2.29 6.04c.118.54.648.871 1.192.761.54-.12.88-.652.762-1.192h-.002zm-29.293-17.079c-1.902 2.092-3.478 5.378-4.556 9.47h-9.525c3.266-4.748 8.267-8.208 14.083-9.47zm0 44.937c-5.814-1.26-10.815-4.72-14.083-9.47h9.527c1.078 4.09 2.654 7.378 4.556 9.47zm-5.028-11.47h-10.29c-1.637-2.992-2.603-6.394-2.759-10h11.97c.06 3.6.439 6.974 1.077 10zm-1.077-11.998h-11.972c.156-3.606 1.12-7.007 2.758-10h10.29c-.637 3.027-1.015 6.4-1.075 10zm3.596-12c1.736-6.255 4.62-10 7.382-10 2.9 0 5.68 3.929 7.364 10h-14.745zm19.664 8.04 12.001 3.532a1 1 0 0 1 .718.96v10.192a22.35 22.35 0 0 1 -.124 2.2c-.542 5.34-2.952 9.304-6.584 12.056a18.283 18.283 0 0 1 -4.002 2.296c-.858.358-1.562.58-2.047.694l-.128.024a.95.95 0 0 1 -.336-.018 6.718 6.718 0 0 1 -.458-.12l-.384-.12a9.046 9.046 0 0 1 -.214-.072l-.466-.17a18.144 18.144 0 0 1 -4.876-2.77c-3.456-2.748-5.734-6.636-6.258-11.802-.08-.79-.122-1.508-.122-2.2v-10.192a.997.997 0 0 1 .716-.96l12-3.532a1.02 1.02 0 0 1 .564.002zm-.28 2.001-11 3.236.004 9.442c0 .62.038 1.272.112 2 .468 4.608 2.464 8.014 5.514 10.44a16.306 16.306 0 0 0 3.882 2.282c.462.192.888.344 1.268.46l.224.066.07-.018.346-.106c.25-.082.539-.186.859-.312l.244-.1a16.255 16.255 0 0 0 3.564-2.046c3.208-2.43 5.32-5.904 5.802-10.664.074-.728.112-1.38.112-1.998v-9.442l-5.5-1.618-.61-.18-4.889-1.438zm-7.045-19.471c5.696 1.276 10.693 4.692 13.977 9.43h-9.495c-1.074-4.118-2.624-7.362-4.482-9.43z" fill="var(--db-icon-color, currentColor)" fill-rule="nonzero"/><path d="m42.5 31.375c.562 0 1.032.468 1.032.968 0 .25-.062.5-.312.75l-6.377 6.344a1.016 1.016 0 0 1 -.718.312c-.25 0-.468-.094-.688-.312l-2.718-2.718a1.04 1.04 0 0 1 -.282-.718c0-.562.468-1 1-1 .282 0 .468.094.688.312l2.032 2 5.657-5.656a.97.97 0 0 1 .688-.282z" fill="var(--db-icon-pulse-color, #EC0016)"/></g></svg>
