<svg id="icon" height="20" viewBox="0 0 20 20" width="20" xmlns="http://www.w3.org/2000/svg"><path d="m8.5 14a2.5 2.5 0 0 1 2.495 2.336l.005.164v.5a1 1 0 0 1 -1 1 .983.983 0 0 1 -1-1 23.625 23.625 0 0 1 0-.5c0-.245-.182-.5-.5-.5-1.333-.002-2.666-.002-4 0a.492.492 0 0 0 -.5.5c-.002.167-.002.333 0 .5a1 1 0 1 1 -2 0 22.913 22.913 0 0 1 0-.5c0-1.326 1.053-2.5 2.5-2.5 1.333-.002 2.667-.002 4 0zm-1.978-7.25a2.714 2.714 0 0 1 2.728 2.728 2.754 2.754 0 0 1 -2.728 2.772 2.791 2.791 0 0 1 -2.772-2.772 2.754 2.754 0 0 1 2.772-2.728zm7.56 3.255a.75.75 0 1 1 .336 1.462.75.75 0 0 1 -.337-1.462zm2.79-.403a.75.75 0 1 1 .754 1.298.75.75 0 0 1 -.753-1.298zm-6.27.269a.75.75 0 1 1 1.295.754.75.75 0 0 1 -1.295-.754zm3.48-2.175a.75.75 0 1 1 .336 1.462.75.75 0 0 1 -.337-1.462zm-2.73-.073a.75.75 0 1 1 1.295.753.75.75 0 0 1 -1.295-.753zm4.77-.271a.75.75 0 1 1 .754 1.297.75.75 0 0 1 -.754-1.297zm-1.872-5.352c.513 0 1 .429 1 1v1.324l.414.05.981.137a1 1 0 1 1 -.29 1.978l-1.266-.17a5.089 5.089 0 0 0 -1.678 0l-1.266.17a1 1 0 1 1 -.29-1.978l.981-.136.414-.049v-1.326a1 1 0 0 1 1-1z" fill="var(--db-icon-color, currentColor)" fill-rule="evenodd"/></svg>
