<svg id="icon" height="32" viewBox="0 0 32 32" width="32" xmlns="http://www.w3.org/2000/svg"><path d="m25.9688 9c1.125 0 2.25.25 3.3124.7187.4376.1875.625.5313.625.9063 0 .5-.4062 1.0312-.9687 1.0312-.125 0-.2813-.0312-.4063-.0938-.8437-.375-1.6874-.5624-2.6874-.5624-1.1563 0-4.1563.1874-4.1563 5.9687 0 5.2187 2.4687 5.8125 4.3437 5.8125.8438-.0312 1.7188-.1875 2.5313-.5.1563-.0625.3125-.0938.4687-.0938.5626 0 .9688.5313.9688 1.0626 0 .3437-.1875.6562-.5938.8437-1.0937.4375-2.2187.6563-3.375.6875-2.9062 0-6.3437-1.3438-6.3437-7.8125 0-6.9375 3.9375-7.9687 6.2813-7.9687zm-23.9376 1.25c-.0312-.0938-.0312-.1876-.0312-.2813 0-.5937.5312-.9687 1.0312-.9687.4063 0 .8126.2187.9376.75l2.5624 10.0624 2.9063-10.0937c.125-.4687.5313-.7187.9375-.7187.4375 0 .8438.25.9688.7187l2.8124 10.0937 2.6563-10.0624c.125-.5313.5313-.75.9375-.75.5 0 1.0312.375 1.0312.9687 0 .0625-.0312.1875-.0624.2813l-3.5626 13.625c-.125.5-.5312.75-.9687.75-.4063 0-.8125-.25-.9375-.7188l-2.875-10.25-2.9375 10.25c-.125.5-.5313.7188-.9375.7188-.4375 0-.8438-.25-.9688-.75z" fill="var(--db-icon-color, currentColor)" fill-rule="evenodd"/></svg>
