<svg id="icon" height="32" viewBox="0 0 32 32" width="32" xmlns="http://www.w3.org/2000/svg"><path d="m10.2821184 11.7819c-.1758-1.1846.7499-2.2809 1.9684-2.2809h7.53c1.1873 0 2.1137 1.0919 1.9372 2.2809l-1.1873 8.4986c-.1207.813-.7499 1.4685-1.5622 1.656v7.0926c0 .5311-.4375.9686-.9999.9686-.5311 0-.9685-.4375-.9685-.9686v-8.0612c0-.5311.4374-.9686.9685-.9686h.5937l1.2185-8.5299h-7.53l1.1561 8.5299h.6249c.5624 0 .9998.4375.9998.9686v8.0612c0 .5311-.4374.9686-.9998.9686-.5312 0-.9686-.4375-.9686-.9686v-7.0613h-.4999c-.4687 0-.8994-.3759-.9686-.8437zm5.5464218-9.7796c1.6165633 0 2.9844782 1.36789214 2.9844782 3.01557136s-1.3679149 2.98442864-2.9844782 2.98442864c-1.6787502 0-3.0155218-1.33694841-3.0155218-2.98442864 0-1.64767922 1.3367716-3.01557136 3.0155218-3.01557136zm.0151782 2.031c-.5624 0-.9998.4374-.9998.9998s.4374.9998.9998.9998c.5312 0 .9998-.4374.9998-.9998s-.4686-.9998-.9998-.9998z" fill="var(--db-icon-color, currentColor)" fill-rule="evenodd"/></svg>
