<svg id="icon" height="32" viewBox="0 0 32 32" width="32" xmlns="http://www.w3.org/2000/svg"><path d="m10.3422401 19.6244 1.5935-8.5299c.1801-.9076.9998-1.5935 1.9059-1.5935h4.3118c.9374 0 1.7252.686 1.9059 1.5935l1.5935 8.4986c.253 1.2698-.6874 2.3747-1.9371 2.3747h-.7812v7.0613c0 .5311-.4374.9686-.9686.9686-.5311 0-.9998-.4375-.9998-.9686v-8.0612c0-.5311.4687-.9686.9998-.9686h1.7498l-1.5623-8.5299h-4.3118l-1.5622 8.5299h1.7497c.5624 0 .9998.4375.9998.9686v8.0612c0 .5311-.4374.9686-.9998.9686-.5312 0-.9686-.4375-.9686-.9686v-7.0613h-.7811c-1.2498 0-2.1711-1.1644-1.9372-2.3434zm5.6553-17.6221c1.656 0 2.9995 1.36789214 2.9995 3.01557136s-1.3435 2.98442864-2.9995 2.98442864c-1.6559 0-2.9995-1.33674942-2.9995-2.98442864s1.3436-3.01557136 2.9995-3.01557136zm0 2.031c-.5624 0-.9998.4374-.9998.9998s.4374.9998.9998.9998.9999-.4374.9999-.9998-.4375-.9998-.9999-.9998z" fill="var(--db-icon-color, currentColor)" fill-rule="evenodd"/></svg>
