<svg id="icon" height="32" viewBox="0 0 32 32" width="32" xmlns="http://www.w3.org/2000/svg"><path d="m10.342 19.624 1.594-8.53c.18-.907 1-1.593 1.906-1.593h4.311c.938 0 1.726.686 1.906 1.594l1.594 8.498a1.96 1.96 0 0 1 -1.937 2.375h-.781v7.061a.973.973 0 0 1 -.97.969c-.53 0-.999-.438-.999-.969v-8.061c0-.531.469-.969 1-.969h1.75l-1.563-8.53h-4.311l-1.563 8.531h1.75a.98.98 0 0 1 1 .969v8.061a.98.98 0 0 1 -1 .969.973.973 0 0 1 -.968-.969v-7.061h-.782c-1.25 0-2.17-1.165-1.937-2.344zm5.656-17.622c1.656 0 2.999 1.368 2.999 3.016a2.993 2.993 0 0 1 -3 2.984c-1.655 0-2.999-1.336-2.999-2.984s1.344-3.016 3-3.016zm0 2.031c-.563 0-1 .438-1 1 0 .563.437 1 1 1 .562 0 1-.438 1-1s-.438-1-1-1z" fill="var(--db-icon-color, currentColor)" fill-rule="evenodd"/></svg>
