<svg id="icon" height="32" viewBox="0 0 32 32" width="32" xmlns="http://www.w3.org/2000/svg"><path d="m3.03642739 19.6244 1.5935-8.5299c.1801-.9076.9998-1.5935 1.9059-1.5935h4.31180001c.9374 0 1.7252.686 1.9059 1.5935l1.5935 8.4986c.253 1.2698-.6874 2.3747-1.9371 2.3747h-.7812v7.0613c0 .5311-.4374.9686-.9686.9686-.5311 0-.99980001-.4375-.99980001-.9686v-8.0612c0-.5311.46870001-.9686.99980001-.9686h1.7498l-1.5623-8.5299h-4.31180001l-1.5622 8.5299h1.7497c.5624 0 .9998.4375.9998.9686v8.0612c0 .5311-.4374.9686-.9998.9686-.5312 0-.9686-.4375-.9686-.9686v-7.0613h-.7811c-1.2498 0-2.1711-1.1644-1.9372-2.3434zm5.6553-17.6221c1.65600001 0 2.99950001 1.36789214 2.99950001 3.01557136s-1.3435 2.98442864-2.99950001 2.98442864c-1.6559 0-2.9995-1.33674942-2.9995-2.98442864s1.3436-3.01557136 2.9995-3.01557136zm0 2.031c-.5624 0-.9998.4374-.9998.9998s.4374.9998.9998.9998.9999-.4374.9999-.9998-.4375-.9998-.9999-.9998zm9.02990001 7.7486c-.1758-1.1846.7499-2.2809 1.9684-2.2809h7.53c1.1873 0 2.1137 1.0919 1.9372 2.2809l-1.1873 8.4986c-.1207.813-.7499 1.4685-1.5622 1.656v7.0926c0 .5311-.4375.9686-.9999.9686-.5311 0-.9685-.4375-.9685-.9686v-8.0612c0-.5311.4374-.9686.9685-.9686h.5937l1.2185-8.5299h-7.53l1.1561 8.5299h.6249c.5624 0 .9998.4375.9998.9686v8.0612c0 .5311-.4374.9686-.9998.9686-.5312 0-.9686-.4375-.9686-.9686v-7.0613h-.4999c-.4687 0-.8994-.3759-.9686-.8437zm5.5464219-9.7796c1.6165633 0 2.9844781 1.36789214 2.9844781 3.01557136s-1.3679148 2.98442864-2.9844781 2.98442864c-1.6787503 0-3.0155219-1.33694841-3.0155219-2.98442864 0-1.64767922 1.3367716-3.01557136 3.0155219-3.01557136zm.0151781 2.031c-.5624 0-.9998.4374-.9998.9998s.4374.9998.9998.9998c.5312 0 .9998-.4374.9998-.9998s-.4686-.9998-.9998-.9998z" fill="var(--db-icon-color, currentColor)" fill-rule="evenodd"/></svg>
