<svg id="icon" height="24" viewBox="0 0 24 24" width="24" xmlns="http://www.w3.org/2000/svg"><path d="m7.73863557 9.7188c-.1875-1.0312.5938-1.9688 1.6563-1.9688h5.18750003c1.0312 0 1.8437.9063 1.6875 1.9063l-.75 5.3437c-.0938.5938-.4688 1.0938-1.0625 1.3126v4.7187c0 .5313-.4375.9687-.9688.9687-.5312 0-.9687-.4374-.9687-.9687v-5.5937c0-.5313.3437-.9688 1.125-.9688l.6562-4.7812h-4.59370003l.68750003 4.7812c.75 0 1.1562.4062 1.1562.9688v5.5937c0 .5313-.4375.9687-.9687.9687-.5313 0-.96880003-.4374-.96880003-.9687v-4.7187c-.5625-.2188-1-.7188-1.0937-1.2813zm2.01136443-5.46878635c0 1.24270994 1.0074036 2.24998635 2.2499044 2.24998635 1.242692 0 2.2500956-1.00727641 2.2500956-2.24998635 0-1.24270993-1.0074036-2.25001365-2.2500956-2.25001365-1.2425008 0-2.2499044 1.00730372-2.2499044 2.25001365z" fill="var(--db-icon-color, currentColor)" fill-rule="evenodd"/></svg>
