<svg id="icon" height="20" viewBox="0 0 20 20" width="20" xmlns="http://www.w3.org/2000/svg"><path d="m6.522 6.75a2.714 2.714 0 0 1 2.728 2.728 2.754 2.754 0 0 1 -2.728 2.772 2.791 2.791 0 0 1 -2.772-2.772 2.754 2.754 0 0 1 2.772-2.728zm7.56 3.255a.75.75 0 1 1 .336 1.462.75.75 0 0 1 -.337-1.462zm2.79-.403a.75.75 0 1 1 .754 1.298.75.75 0 0 1 -.753-1.298zm-6.27.269a.75.75 0 1 1 1.295.754.75.75 0 0 1 -1.295-.754zm3.48-2.175a.75.75 0 1 1 .336 1.462.75.75 0 0 1 -.337-1.462zm-2.73-.073a.75.75 0 1 1 1.295.753.75.75 0 0 1 -1.295-.753zm4.77-.271a.75.75 0 1 1 .754 1.297.75.75 0 0 1 -.754-1.297zm-1.872-5.352c.513 0 1 .429 1 1v1.324l.414.05.981.137a1 1 0 1 1 -.29 1.978l-1.266-.17a5.089 5.089 0 0 0 -1.678 0l-1.266.17a1 1 0 1 1 -.29-1.978l.981-.136.414-.049v-1.326a1 1 0 0 1 1-1zm-4.974 12c1.224 0 1.72 1.185 1.402 2.032-.162.434-.326.867-.493 1.3a1 1 0 0 1 -1.29.581 1.019 1.019 0 0 1 -.58-1.29c.076-.208.155-.415.235-.623h-4.107l.243.649a.995.995 0 0 1 -.585 1.287 1.012 1.012 0 0 1 -1.287-.585c-.168-.441-.334-.883-.497-1.324-.437-1.164.543-2.027 1.403-2.027 1.852-.002 3.703-.002 5.555 0z" fill="var(--db-icon-color, currentColor)" fill-rule="evenodd"/></svg>
