<svg id="icon" height="24" viewBox="0 0 24 24" width="24" xmlns="http://www.w3.org/2000/svg"><path d="m17.5 2a4.5 4.5 0 0 1 3.357 7.494 8.002 8.002 0 0 1 -5.058 9.002 1 1 0 0 1 -.7-1.873 6.002 6.002 0 0 0 3.901-5.623c0-.428 0-1-.372-2.18 1.053-.82 1.372-1.574 1.372-2.32a2.5 2.5 0 0 0 -2.5-2.5c-.684 0-1.555.26-2.318 1.372-.946-.244-1.182-.372-2.182-.372-.667 0-1.393.124-2.18.372-.62-.915-1.394-1.372-2.32-1.372a2.5 2.5 0 0 0 -2.5 2.5c0 .613.147 1.382 1.372 2.318a6.184 6.184 0 0 0 -.307 1.296 5.008 5.008 0 0 1 3.63 3.163c.12.03.233.095.335.193.39.39.859.343 1.083.053a.867.867 0 0 0 .132-.41v-.363h-.245a.75.75 0 1 1 0-1.5c.667-.002 1.333-.002 2 0a.75.75 0 0 1 .75.75c0 .226-.183.75-.75.75h-.246v.364a.858.858 0 0 0 .147.43c.21.25.776.219 1.069-.074a.75.75 0 0 1 1.06 1.06c-.901.902-2.19.97-3.03.245-.56.512-1.337.61-2.004.395-.039.825-.236 1.558-.592 2.199l.905.754a2 2 0 1 1 -1.28 1.538l-.906-.756a5 5 0 1 1 -4.072-8.815c.02-.166.053-.385.092-.596-.636-.676-1.143-1.788-1.143-2.994a4.5 4.5 0 0 1 4.5-4.5c1.09 0 2.098.344 2.994 1.142a8.904 8.904 0 0 1 1.506-.142c.475 0 .996.039 1.505.143.87-.751 1.868-1.143 2.995-1.143zm-1.5 6a1 1 0 1 1 0 2 1 1 0 0 1 0-2zm-6 0a1 1 0 1 1 0 2 1 1 0 0 1 0-2zm-4 4a3 3 0 1 0 0 6 3 3 0 0 0 0-6z" fill="var(--db-icon-color, currentColor)" fill-rule="evenodd"/></svg>
