<svg id="icon" height="20" viewBox="0 0 20 20" width="20" xmlns="http://www.w3.org/2000/svg"><path d="m2 7.031c0-.594.531-.969 1.031-.969.406 0 .828.247.938.75l.867 3.988.976-4.019c.115-.471.563-.719.97-.719.405 0 .854.239.968.72l.955 4.033.857-4.003c.115-.533.532-.75.938-.75.531 0 1.031.375 1.031.97 0 .093-.006.185-.031.28l-1.813 6.97c-.13.498-.562.718-.968.718s-.829-.223-.969-.719l-1-3.531-1 3.531c-.143.504-.563.719-.969.719a.99.99 0 0 1 -.968-.75l-1.783-6.938a1.11 1.11 0 0 1 -.03-.28zm9.969 3.531c0-4.125 2.437-4.562 3.5-4.562.625 0 1.281.125 1.875.406.437.188.625.531.625.875 0 .531-.407 1.063-.969 1.063a.963.963 0 0 1 -.406-.094c-.344-.156-.688-.25-1.032-.25-.437 0-1.593 0-1.593 2.562 0 2.47 1.031 2.47 1.594 2.47.374-.032.75-.126 1.093-.25.125-.032.25-.063.375-.063.563 0 .969.531.969 1.062 0 .375-.188.719-.656.906a7.383 7.383 0 0 1 -1.844.344c-1.313 0-3.531-.594-3.531-4.469z" fill="var(--db-icon-color, currentColor)" fill-rule="evenodd"/></svg>
