<svg id="icon" height="32" viewBox="0 0 32 32" width="32" xmlns="http://www.w3.org/2000/svg"><path d="m13 23.02c2.142 0 4.067 1.835 4 4v1.98a1 1 0 0 1 -2 0 326.7 326.7 0 0 1 0-1.98c0-1.054-.922-2-2-2h-5.986c-1.055 0-2.014.825-2 2a326.7 326.7 0 0 0 0 1.98 1 1 0 0 1 -2 0 326.7 326.7 0 0 1 0-1.98c0-2.142 1.724-4 4-4zm-3-12.02a5 5 0 1 1 0 10 5 5 0 0 1 0-10zm0 2a3 3 0 1 0 0 6 3 3 0 0 0 0-6zm13.152 4.47a1 1 0 1 1 1.696 1.06 1 1 0 0 1 -1.696-1.06zm-5.016-.973a.999.999 0 1 1 1.728 1.006 1 1 0 1 1 -1.728-1.006zm10 0a.999.999 0 1 1 1.728 1.006 1 1 0 1 1 -1.728-1.006zm-4.984-2.027a1 1 0 1 1 1.696 1.06 1 1 0 0 1 -1.696-1.06zm-4.016-.973a.999.999 0 1 1 1.728 1.006 1 1 0 1 1 -1.728-1.006zm8.36-.362a1 1 0 0 1 1.007 1.73 1 1 0 0 1 -1.006-1.73zm-4.344-1.665a1 1 0 1 1 1.696 1.06 1 1 0 0 1 -1.696-1.06zm-3.017-.973a1 1 0 1 1 1.728 1.005 1 1 0 0 1 -1.728-1.005zm6.362-.361a1 1 0 1 1 1.005 1.73 1 1 0 0 1 -1.005-1.73zm-2.497-8.136a1 1 0 0 1 1 1v2.543c1.121.096 2.238.353 3.351.77a1 1 0 1 1 -.702 1.873c-1.223-.458-2.439-.686-3.649-.686-1.211 0-2.426.228-3.649.686a1 1 0 1 1 -.702-1.872 12.577 12.577 0 0 1 3.351-.771v-2.543a1 1 0 0 1 1-1z" fill="var(--db-icon-color, currentColor)" fill-rule="evenodd"/></svg>
