<svg id="icon" height="20" viewBox="0 0 20 20" width="20" xmlns="http://www.w3.org/2000/svg"><path d="m11.4418038 7c.8124 0 1.5.5625 1.5937 1.3438l.7187 3.6562c.1563.9062-.4374 1.75-1.3124 1.9062v3.0938c0 .5938-.4688 1-.9688 1-.5625 0-1-.4375-1-1v-4.0625c0-.5625.4375-1 1-1h.25l-.5625-2.9687h-2.28130005l-.5937 2.9687h.2187c.5626 0 1 .4375 1 1v4.0625c0 .5625-.4374 1-1 1-.5312 0-.9687-.4375-.9687-1v-3.0938c-.8437-.1562-1.4687-.9374-1.2813-1.9062l.75-3.6875c.0938-.7813.7813-1.3125 1.5626-1.3125zm-1.4376-1.0938c1.0626 0 1.9376-.875 1.9376-1.9374 0-1.0938-.875-1.9688-1.9376-1.9688-1.09370005 0-1.96870005.875-1.96870005 1.9688 0 1.0624.875 1.9374 1.96870005 1.9374z" fill="var(--db-icon-color, currentColor)" fill-rule="evenodd"/></svg>
