<svg id="icon" height="24" viewBox="0 0 24 24" width="24" xmlns="http://www.w3.org/2000/svg"><path d="m7.78 13.969.782-4.781a1.686 1.686 0 0 1 1.687-1.438h3.531c.844 0 1.563.594 1.688 1.438l.75 4.78c.156 1.063-.563 2-1.781 2v5.064a.974.974 0 0 1 -.97.97.974.974 0 0 1 -.968-.97v-6.062c0-.531.438-.969.969-.969h.781l-.687-4.313h-3.125l-.657 4.312h.813c.531 0 .969.438.969.969v6.063c0 .532-.47.97-1 .97-.5 0-.97-.438-.97-.97v-5.062c-1.155 0-1.968-.875-1.812-2zm1.97-9.719a2.25 2.25 0 1 0 4.5 0 2.25 2.25 0 0 0 -4.5 0z" fill="var(--db-icon-color, currentColor)" fill-rule="evenodd"/></svg>
