<svg id="icon" height="32" viewBox="0 0 32 32" width="32" xmlns="http://www.w3.org/2000/svg"><path d="m16 2c7.732 0 14 6.268 14 14s-6.268 14-14 14-14-6.268-14-14 6.268-14 14-14zm-9.163 6.251a11.952 11.952 0 0 0 -2.837 7.749c0 6.627 5.373 12 12 12 2.954 0 5.658-1.067 7.749-2.837zm9.163-4.251a11.952 11.952 0 0 0 -7.749 2.837l16.912 16.912a11.952 11.952 0 0 0 2.837-7.749c0-6.627-5.373-12-12-12z" fill="#282D37" style="fill: currentColor;fill: var(--db-icon-color, currentColor)" fill-rule="evenodd"/></svg>
