<svg id="icon" height="24" viewBox="0 0 24 24" width="24" xmlns="http://www.w3.org/2000/svg"><path d="m16.563 3.5c3.03 0 5.437 2.469 5.437 5.469 0 1.375-.467 2.783-1.563 3.844l-7.75 7.5a.919.919 0 0 1 -.687.28.97.97 0 0 1 -.688-.28l-7.718-7.5c-1.062-1.033-1.594-2.439-1.594-3.844 0-3 2.438-5.469 5.438-5.469 1.437 0 2.827.578 3.843 1.594l.719.718.719-.718a5.485 5.485 0 0 1 3.844-1.594zm0 2c-.875 0-1.782.375-2.438 1.031l-1.406 1.407a1.077 1.077 0 0 1 -.719.312c-.25 0-.5-.125-.688-.313l-1.436-1.437a3.506 3.506 0 0 0 -2.438-1c-1.906 0-3.438 1.563-3.438 3.469 0 .875.319 1.743 1 2.406l7 6.813 7-6.813a3.404 3.404 0 0 0 1.031-2.438c0-1.874-1.562-3.437-3.468-3.437z" fill="#282D37" style="fill: currentColor;fill: var(--db-icon-color, currentColor)" fill-rule="evenodd"/></svg>
