<svg id="icon" height="20" viewBox="0 0 20 20" width="20" xmlns="http://www.w3.org/2000/svg"><path d="m14.27 2c.487 0 .973.162 1.33.487l1.818 1.818c.357.357.552.941.552 1.493a2.21 2.21 0 0 1 -.552 1.461l-9.186 9.123c-.324.292-.584.39-1.103.52l-3.929 1.004c-.097.033-.195.033-.292.033-.26 0-.487-.097-.617-.26a1.012 1.012 0 0 1 -.291-.681v-.162l.974-3.928c.195-.714.292-.844.617-1.169l9.153-9.122a2.134 2.134 0 0 1 1.526-.617zm-2.857 4.805-5.842 5.745 1.785 1.818 5.843-5.779-1.786-1.785zm2.824-2.857-1.427 1.428 1.818 1.818 1.428-1.428-1.818-1.818z" fill="#282D37" style="fill: currentColor;fill: var(--db-icon-color, currentColor)" fill-rule="evenodd"/></svg>
