<svg id="icon" height="20" viewBox="0 0 20 20" width="20" xmlns="http://www.w3.org/2000/svg"><path d="m12 2a6 6 0 0 0 -6 6c0 .817.135 1.235.202 1.546l-4.33 4.33a1 1 0 0 0 0 1.415l2.821 2.829c.44.414 1.062.36 1.423 0l4.324-4.326c.414.132 1.125.206 1.56.206a6 6 0 0 0 6-6c0-.76-.16-1.625-.468-2.311-.273-.578-1.106-.707-1.585-.228l-2.539 2.537-1.414-1.414 2.535-2.535a1 1 0 0 0 -.343-1.638 5.987 5.987 0 0 0 -2.186-.411zm-.259 2.009-1.868 1.868a1 1 0 0 0 0 1.414l2.806 2.829c.472.409 1.076.36 1.436 0l1.876-1.876c-.183 2.185-1.916 3.756-3.991 3.756-.51 0-1.1-.128-1.537-.302-.409-.114-.752-.002-1.003.248l-4.052 4.052-1.414-1.414 4.055-4.055a1 1 0 0 0 .224-1.072 3.987 3.987 0 0 1 -.273-1.457c0-2.075 1.582-3.829 3.741-3.991z" fill="#282D37" style="fill: currentColor;fill: var(--db-icon-color, currentColor)" fill-rule="evenodd"/></svg>
