<svg id="icon" height="24" viewBox="0 0 24 24" width="24" xmlns="http://www.w3.org/2000/svg"><path d="m9.138 16.224a3.002 3.002 0 0 1 1.862 2.778 2.984 2.984 0 0 1 -2.956 3.001 3.003 3.003 0 0 1 -2.181-5.108 2.999 2.999 0 0 1 3.275-.67zm8 0a3.002 3.002 0 0 1 1.862 2.778 2.985 2.985 0 0 1 -2.956 3.001 3.003 3.003 0 0 1 -2.18-5.109 2.999 2.999 0 0 1 3.274-.67zm-9.09 1.777a1 1 0 1 0 .952.999.977.977 0 0 0 -.952-1zm7.998 0a1 1 0 1 0 .954 1 .978.978 0 0 0 -.954-1zm-2.123-16.001c4.235 0 7.08 2.846 7.08 7a.962.962 0 0 1 -.007.148c0 .523-.066 1.055-.213 1.557-.077.245-.183.555-.294.876l-.136.386a43.79 43.79 0 0 1 -.47 1.273c-.441 1.137-1.52 1.746-2.728 1.76h-10.47c-1.227-.002-2.323-.634-2.745-1.8l-.891-2.752a1.01 1.01 0 0 1 .14-.9.99.99 0 0 1 .811-.4l1.744-.001-.96-1.556a1.226 1.226 0 0 0 -1.048-.589h-.743a.996.996 0 0 1 -.99-1 .996.996 0 0 1 .99-1.002h.743a3.188 3.188 0 0 1 2.729 1.532l1.611 2.615h3.151l1.742-6.41a.992.992 0 0 1 .954-.737zm4.617 9h-13.19l.455 1.41c.143.36.49.596.874.594h10.472a.988.988 0 0 0 .898-.664 40.3 40.3 0 0 0 .491-1.34zm-3.873-6.958-1.387 5.105 5.75.001a.962.962 0 0 1 -.005-.148c0-3.279-2.133-4.714-4.357-4.958z" fill="#282D37" style="fill: currentColor;fill: var(--db-icon-color, currentColor)" fill-rule="evenodd"/></svg>
