<svg id="icon" height="24" viewBox="0 0 24 24" width="24" xmlns="http://www.w3.org/2000/svg"><path d="m19.248 3.75a.94.94 0 0 1 .938.939c0 .305-.14.54-.328.727l-14.854 14.807a.97.97 0 0 1 -.634.258c-.516 0-.939-.445-.939-.962 0-.281.118-.516.329-.727l2.628-2.652-.211-.14h-1.69a2.474 2.474 0 0 1 -2.487-2.489v-2.98a2.46 2.46 0 0 1 2.487-2.488h1.69l4.247-2.84a.985.985 0 0 1 .564-.163c.563 0 .985.469.985 1.009v4.529l1.76-1.737a1.009 1.009 0 0 1 -.258-.657c0-.54.446-.962.962-.962.258 0 .54.164.657.258l1.103-1.103-.328-.211a1.015 1.015 0 0 1 -.493-.845c0-.54.446-.938.962-.938.164 0 .328.023.47.117l.774.493 1.009-.986a.867.867 0 0 1 .657-.258zm-9.27 4.154-2.932 1.946a1.011 1.011 0 0 1 -.563.188h-1.996a.476.476 0 0 0 -.492.47v3.003c0 .258.21.493.492.493h1.995c.188 0 .399.07.563.188l.775.516 2.159-2.136v-4.67zm-.351 10.419.797.54c.141.117.376.163.564.163.563 0 .985-.445.985-1.009v-2.041l-2.347 2.347zm5.725-5.68c-.164.963-.657 1.808-1.455 2.37a1.013 1.013 0 0 0 -.422.799c0 .516.422.962.962.962.188 0 .376-.07.54-.165 1.525-1.032 2.346-2.792 2.346-4.622a6.96 6.96 0 0 0 -.117-1.22l-1.854 1.877zm4.74-4.74a8.807 8.807 0 0 1 1.033 4.107 8.66 8.66 0 0 1 -4.318 7.486.846.846 0 0 1 -.47.14.982.982 0 0 1 -.961-.962c0-.328.188-.657.493-.82 2.065-1.221 3.355-3.45 3.355-5.844 0-.938-.188-1.854-.563-2.698l1.431-1.408z" fill="#282D37" style="fill: currentColor;fill: var(--db-icon-color, currentColor)" fill-rule="evenodd"/></svg>