<svg id="icon" height="32" viewBox="0 0 32 32" width="32" xmlns="http://www.w3.org/2000/svg"><path d="m27 6c1.625 0 3 1.188 3 3v14c0 1.625-1.188 3-3 3h-22c-1.594 0-3-1.25-3-2.813v-14.187c0-1.594 1.188-3 3-3zm0 2h-22c-.563 0-1 .375-1 1v14c0 .5.375 1 .875 1h22.125c.5 0 1-.313 1-1v-14c0-.5-.313-1-1-1zm-20 12c0-.469.436-.984 1-.985l11-.015c.563 0 1 .438 1 1 0 .5-.313 1-1 1h-11c-.563 0-1-.438-1-1zm0-4c0-.5.375-1 1-1h8c.563 0 1 .438 1 1 0 .5-.438 1-1 1h-8c-.563 0-1-.438-1-1zm12 0c0-.5.313-1 1-1h4c.563 0 1 .438 1 1 0 .5-.313 1-1 1h-4c-.563 0-1-.438-1-1zm3 4c0-.5.438-1 1-1h1c.563 0 1 .438 1 1 0 .5-.438 1-1 1h-1c-.563 0-1-.438-1-1z" fill="#282D37" style="fill: currentColor;fill: var(--db-icon-color, currentColor)" fill-rule="evenodd"/></svg>