<svg id="icon" height="20" viewBox="0 0 20 20" width="20" xmlns="http://www.w3.org/2000/svg"><path d="m9 2c3.878 0 7 3.117 7 7a7.032 7.032 0 0 1 -1.39 4.182l3.085 3.09c.203.203.305.468.305.711 0 .57-.467 1.017-.975 1.017-.264 0-.537-.071-.75-.285l-3.087-3.09c-1.178.835-2.625 1.375-4.188 1.375-3.858 0-7-3.137-7-7 0-3.883 3.142-7 7-7zm-.006 2.013c-2.765 0-4.961 2.216-4.961 4.98 0 2.766 2.196 5.002 4.96 5.002 2.766 0 5.022-2.236 5.022-5.001s-2.255-4.981-5.021-4.981zm3.006 3.987v2h-6v-2z" fill="#282D37" style="fill: currentColor;fill: var(--db-icon-color, currentColor)" fill-rule="evenodd"/></svg>
