<svg id="icon" height="32" viewBox="0 0 32 32" width="32" xmlns="http://www.w3.org/2000/svg"><path d="m19.172 6a3 3 0 0 1 2.12.879l2.124 2.121 3.588.004c1.597.002 2.997 1.418 2.997 3v10.994a3 3 0 0 1 -3 3h-22.001a3 3 0 0 1 -3-3v-10.994a3 3 0 0 1 2.997-3l3.587-.004 2.123-2.121c.516-.516 1.414-.879 2.123-.879zm0 2h-6.344a1 1 0 0 0 -.707.293l-2.414 2.414a1 1 0 0 1 -.706.293l-4.002.004a1 1 0 0 0 -.999 1v10.994a1 1 0 0 0 1 1h22a1 1 0 0 0 1-1v-10.994a1 1 0 0 0 -.999-1l-4.002-.004a1 1 0 0 1 -.706-.293l-2.414-2.414a1 1 0 0 0 -.707-.293zm-3.172 4a5 5 0 1 1 0 10 5 5 0 0 1 0-10zm0 2a3 3 0 1 0 0 6 3 3 0 0 0 0-6zm-8-1a1 1 0 0 1 0 2h-1a1 1 0 0 1 0-2z" fill="#282D37" style="fill: currentColor;fill: var(--db-icon-color, currentColor)" fill-rule="evenodd"/></svg>
