<svg id="icon" height="24" viewBox="0 0 24 24" width="24" xmlns="http://www.w3.org/2000/svg"><path d="m12 20.594a.97.97 0 0 1 -.688-.282l-7.718-7.5c-1.062-1.031-1.594-2.436-1.594-3.842 0-3 2.438-5.469 5.438-5.469 1.437 0 2.827.578 3.843 1.594l.719.718.719-.718a5.485 5.485 0 0 1 3.844-1.595c3.03 0 5.437 2.469 5.437 5.469 0 1.375-.467 2.783-1.563 3.844l-7.75 7.5a.919.919 0 0 1 -.687.28z" fill="#282D37" style="fill: currentColor;fill: var(--db-icon-color, currentColor)" fill-rule="evenodd"/></svg>
