<svg id="icon" height="32" viewBox="0 0 32 32" width="32" xmlns="http://www.w3.org/2000/svg"><path d="m18 4a3 3 0 0 1 3 3v4h4a3 3 0 0 1 3 3v4a3 3 0 0 1 -3 3h-4v4a3 3 0 0 1 -3 3h-4a3 3 0 0 1 -3-3v-4h-4a3 3 0 0 1 -3-3v-4a3 3 0 0 1 3-3h4v-4a3 3 0 0 1 3-3zm0 2h-4a1 1 0 0 0 -.993.883l-.007.117v6h-6a1 1 0 0 0 -.993.883l-.007.117v4a1 1 0 0 0 .883.993l.117.007h6v6a1 1 0 0 0 .883.993l.117.007h4a1 1 0 0 0 .993-.883l.007-.117v-6h6a1 1 0 0 0 .993-.883l.007-.117v-4a1 1 0 0 0 -.883-.993l-.117-.007h-6v-6a1 1 0 0 0 -.883-.993z" fill="#282D37" style="fill: currentColor;fill: var(--db-icon-color, currentColor)" fill-rule="evenodd"/></svg>
