<svg id="icon" height="32" viewBox="0 0 32 32" width="32" xmlns="http://www.w3.org/2000/svg"><path d="m10 19a2 2 0 1 1 0 4 2 2 0 0 1 0-4zm-2.056-12.24c.484.083 2.023.605 4.62 1.565a17 17 0 0 1 5.726 3.378c1.801 1.61 3.298 3.169 4.49 4.677a1 1 0 0 1 .184.872c-.394 1.68-.643 2.608-.748 2.785-.72 1.22-1.584 1.963-2.658 1.963l-5.654-.123c.573-2.908-1.729-4.877-3.904-4.877a4.015 4.015 0 0 0 -3.974 4.462 11.37 11.37 0 0 1 -1.269-.242 2.32 2.32 0 0 1 -1.757-2.25c-.02-1.947-.012-3.01.024-3.19.33-1.47.832-3.71 1.509-6.717a3 3 0 0 1 3.41-2.303zm20.97 11.55a1 1 0 1 1 0 2c-.324 0-.626.048-.943.182-.21.09-.816.386-1.818.888a3 3 0 0 1 -1.097.3c-.117.007-.36.01-.728.01a1 1 0 0 1 -1-1c0-.513.432-.972.883-.994.191-.004.396-.006.616-.006a.9.9 0 0 0 .442-.103l1.641-.81a4.53 4.53 0 0 1 2.004-.467zm-22.456-8.443-.659 2.914a1 1 0 0 0 1.92.548l.53-2.337 3.263 1.147a10 10 0 0 1 2.895 1.596l1.483 1.265a1 1 0 0 0 1.396-1.427l-1.251-1.09a12 12 0 0 0 -3.476-2.09 242.341 242.341 0 0 0 -4.349-1.523 1.5 1.5 0 0 0 -1.752.997z" fill="#282D37" style="fill: currentColor;fill: var(--db-icon-color, currentColor)" fill-rule="evenodd"/></svg>
