<svg id="icon" height="24" viewBox="0 0 24 24" width="24" xmlns="http://www.w3.org/2000/svg"><path d="m18.988 6a.998.998 0 0 1 1.008 1.023c1.129 0 2.004.977 2.004 1.977v10c0 1-1 2-2 2h-5c-1 0-2-1-2-2l-.001-1.03c-.333.02-.666.03-.999.03-1.667 0-3.467-.107-5.4-.321v.321a1 1 0 0 1 -1 1h-.6a1 1 0 0 1 -1-1v-1.757c-.367-.532-.55-2.017-.55-4.456a2.498 2.498 0 0 1 .033-.787h-.835c-.37 0-.648-.321-.648-.69v-.666a.63.63 0 0 1 .648-.644h1.412l.947-4.207c.23-.989 1.118-1.793 1.994-1.793h8.484c.522 0 .825.429.825.803 0 .373-.303.896-.804.896l-8.313.001c-.208 0-.44.146-.53.48l-.858 3.82h7.194c.001-.872.762-1.997 2.001-1.977 0-.751.646-1.023 1.007-1.023zm1.008 2.72-4.994.007c-.137 0-.302.085-.302.314v9.963c0 .158.12.296.302.296h4.994c.18 0 .304-.151.304-.296v-9.97c0-.156-.09-.315-.304-.315zm-10.46 4.05c-.503.1-.883.624-.785 1.176.081.417.165.834.25 1.25a.992.992 0 0 0 .999.804h2.999v-1.999h-2.198l-.089-.447c-.1-.503-.673-.885-1.176-.784zm-5.017.034c-.11.502.185 1.027.785 1.177.771.153 1.188.237 1.25.25a1.008 1.008 0 0 0 1.177-.785 1.014 1.014 0 0 0 -.785-1.177l-1.133-.216c-.693-.14-1.157.132-1.294.75zm12.785-1.408a.75.75 0 0 1 1.363.619l-.669 1.254h.245c.534.002.93.575.655 1.112a783.47 783.47 0 0 0 -1.226 2.234.75.75 0 0 1 -1.019.297.757.757 0 0 1 -.296-1.019c.165-.299.371-.675.617-1.127h-.232a.753.753 0 0 1 -.658-1.105c.405-.758.812-1.513 1.22-2.265z" fill="#282D37" style="fill: currentColor;fill: var(--db-icon-color, currentColor)" fill-rule="evenodd"/></svg>
