<svg id="icon" height="64" viewBox="0 0 64 64" width="64" xmlns="http://www.w3.org/2000/svg"><g fill="none" fill-rule="evenodd" transform="translate(4 4)"><path d="m28 0c15.464 0 28 12.536 28 28s-12.536 28-28 28-28-12.536-28-28 12.536-28 28-28zm19.04 10.294-36.663 36.823a25.907 25.907 0 0 0 17.623 6.883c14.36 0 26-11.64 26-26 0-6.84-2.642-13.064-6.96-17.706zm-19.04-8.294c-14.36 0-26 11.64-26 26 0 6.84 2.642 13.064 6.96 17.706l36.663-36.823a25.907 25.907 0 0 0 -17.623-6.883z" fill="var(--db-icon-color, currentColor)" fill-rule="nonzero"/><path d="m13.427 15.896c4.541-4.673 11.161-5.934 15.244-2.251l.082.076.13-.046c5.047-1.714 9.753-1.054 13.576 2.553l.259.251c5.104 5.05 4.908 12.232.243 17.25l.035.051a3.474 3.474 0 0 1 -.247 4.187l-.138.153c-.48.499-1.1.83-1.77.957l-.139.021.028.164a3.475 3.475 0 0 1 -.803 2.729l-.183.198a3.308 3.308 0 0 1 -3 .96l-.137-.031-.004.03a3.467 3.467 0 0 1 -.768 1.586l-.167.182a3.308 3.308 0 0 1 -3.212.912l-.123-.035-.022.099c-.128.5-.37.976-.723 1.39l-.138.153-.047.048a3.308 3.308 0 0 1 -4.622.148l-.147-.144-13.102-13.482c-5.606-5.768-5.137-12.931-.105-18.109zm13.108-1.371c-3.235-2.065-8.116-.897-11.674 2.765-4.242 4.366-4.689 10.176-.13 15.073l.236.248 13.106 13.487a1.308 1.308 0 0 0 1.778.1l.113-.105.047-.048c.51-.53.545-1.346.11-1.914l-.1-.117-5.28-5.493c-.895-.932.433-2.264 1.357-1.467l.085.08 6.15 6.392a1.308 1.308 0 0 0 1.798.093l.098-.093.029-.03c.514-.534.546-1.36.1-1.927l-.092-.104-6.033-6.207-.078-.088c-.741-.92.527-2.153 1.426-1.386l.086.08 6.747 6.94a1.308 1.308 0 0 0 1.779.1l.113-.104.045-.047c.51-.53.545-1.347.11-1.915l-.101-.117-6.562-6.817c-.895-.929.425-2.26 1.351-1.47l.086.08 6.049 6.219a1.308 1.308 0 0 0 1.886 0c.514-.534.547-1.36.1-1.928l-.095-.11-10.692-11.002a.867.867 0 0 0 -.755-.257l-.117.026-7.906 2.374a3.169 3.169 0 0 1 -3.675-1.51 3.309 3.309 0 0 1 .483-3.895c2.062-2.15 4.82-4.22 7.728-5.654l.39-.188zm14.775 3.375c-4.104-4.06-9.647-3.862-14.814-1.124l-.552.303c-2.11 1.198-4.147 2.814-5.983 4.73a1.31 1.31 0 0 0 -.183 1.546c.244.447.746.68 1.234.592l.121-.028 7.904-2.374a2.866 2.866 0 0 1 2.74.618l.143.139 9.674 9.955.125-.137c3.67-4.162 3.807-9.835-.183-13.99z" fill="var(--db-icon-pulse-color, #EC0016)"/></g></svg>
