<svg id="icon" height="64" viewBox="0 0 64 64" width="64" xmlns="http://www.w3.org/2000/svg"><g fill="none" fill-rule="evenodd" transform="translate(11 13)"><path d="m31.018 0a10.5 10.5 0 0 1 7.792 3.406 11.951 11.951 0 0 1 1.395 14.43 1 1 0 1 1 -1.699-1.056 9.952 9.952 0 0 0 -1.163-12.015 8.618 8.618 0 0 0 -6.325-2.765 8.637 8.637 0 0 0 -6.136 2.569l-3.18 3.144a1 1 0 0 1 -1.31.081l-3.085-3.029a8.618 8.618 0 0 0 -12.65.001c-3.473 3.742-3.541 9.489-.211 13.302l16.552 17.478 2.77-2.921a.993.993 0 0 1 1.366-.07c.424.356.46.95.166 1.35l-3.576 3.783a1 1 0 0 1 -1.356.089l-17.177-18.115a11.949 11.949 0 0 1 -.001-16.255 10.618 10.618 0 0 1 15.33-.267l2.48 2.456 2.226-2.19a10.675 10.675 0 0 1 7.792-3.406z" fill="var(--db-icon-color, currentColor)" fill-rule="nonzero"/><path d="m33 18c4.406 0 8 3.594 8 8s-3.594 8-8 8-8-3.594-8-8 3.594-8 8-8zm0 2c-3.312 0-6 2.687-6 6s2.688 6 6 6a6 6 0 0 0 0-12zm3.766 3.531a.992.992 0 0 1 0 1.404l-4.544 4.532a.5.5 0 0 1 -.704.003l-2.31-2.274a.985.985 0 0 1 -.006-1.398l.003-.002a1 1 0 0 1 1.406-.008l1.238 1.211 3.508-3.472a.999.999 0 0 1 1.41.004z" fill="var(--db-icon-pulse-color, #EC0016)"/></g></svg>
