<svg id="icon" height="32" viewBox="0 0 32 32" width="32" xmlns="http://www.w3.org/2000/svg"><path d="m20 5a.98.98 0 0 1 1 .969v1.031h3a3 3 0 0 1 3 3v14a3 3 0 0 1 -3 3h-16a3 3 0 0 1 -3-3v-14a3 3 0 0 1 3-3h3v-1.031a.98.98 0 0 1 1-.969.98.98 0 0 1 1 .969v1.031h6v-1.031a.98.98 0 0 1 1-.969zm5 10h-18v9c0 .563.438 1 1 1h16c.563 0 1-.438 1-1zm-14-6h-3c-.563 0-1 .438-1 1v3h18v-3c0-.563-.438-1-1-1h-3v1.031a.98.98 0 0 1 -1 .969.98.98 0 0 1 -1-.969v-1.031h-6v1.031a.98.98 0 0 1 -1 .969.98.98 0 0 1 -1-.969zm-2 13c0-.563.438-1 1-1 .563 0 1 .438 1 1 0 .563-.438 1-1 1-.563 0-1-.438-1-1zm0-4c0-.563.438-1 1-1 .563 0 1 .438 1 1 0 .563-.438 1-1 1-.563 0-1-.438-1-1zm4 4c0-.563.438-1 1-1 .563 0 1 .438 1 1 0 .563-.438 1-1 1-.563 0-1-.438-1-1zm0-4c0-.563.438-1 1-1 .563 0 1 .438 1 1 0 .563-.438 1-1 1-.563 0-1-.438-1-1zm4 4c0-.563.438-1 1-1 .563 0 1 .438 1 1 0 .563-.438 1-1 1-.563 0-1-.438-1-1zm0-4c0-.563.438-1 1-1 .563 0 1 .438 1 1 0 .563-.438 1-1 1-.563 0-1-.438-1-1zm4 4c0-.563.438-1 1-1 .563 0 1 .438 1 1 0 .563-.438 1-1 1-.563 0-1-.438-1-1zm0-4c0-.563.438-1 1-1 .563 0 1 .438 1 1 0 .563-.438 1-1 1-.563 0-1-.438-1-1z" fill="#282D37" style="fill: currentColor;fill: var(--db-icon-color, currentColor)" fill-rule="evenodd"/></svg>