<svg id="icon" height="24" viewBox="0 0 24 24" width="24" xmlns="http://www.w3.org/2000/svg"><path d="m12.982 2c1.668 0 2.55.174 3.443.652a4.634 4.634 0 0 1 1.923 1.923c.448.838.629 1.665.65 3.14l.002 8.267c0 1.668-.174 2.55-.652 3.443a4.634 4.634 0 0 1 -1.923 1.923c-.838.448-1.665.629-3.14.65l-2.267.002c-1.668 0-2.55-.174-3.443-.652a4.634 4.634 0 0 1 -1.923-1.923c-.448-.838-.629-1.665-.65-3.14l-.002-8.267c0-1.668.174-2.55.652-3.443a4.634 4.634 0 0 1 1.923-1.923c.838-.448 1.665-.629 3.14-.65zm-2.44 2.005c-1.03.026-1.527.145-2.024.411a2.635 2.635 0 0 0 -1.102 1.102c-.285.533-.401 1.064-.415 2.254l.004 8.686c.026 1.03.145 1.527.411 2.024.255.478.624.847 1.102 1.102.169.09.337.163.527.222a1.003 1.003 0 0 1 1.194-.677c.486.12.982.221 1.763.221.694 0 1.114-.026 1.645-.186.497-.162 1.07 0 1.307.642.19-.058.36-.132.528-.222a2.635 2.635 0 0 0 1.102-1.102c.245-.459.366-.917.403-1.796.025-.585.027-3.633.008-9.144-.026-1.03-.145-1.527-.411-2.024a2.635 2.635 0 0 0 -1.102-1.102c-.533-.285-1.064-.401-2.254-.415zm-.292 11.995a1 1 0 0 1 1 1c0 .513-.447.993-.883.993l-1.117.007a1 1 0 0 1 -1-1c0-.513.433-1 1-1zm4.5 0c.567.007 1 .487 1 1s-.433 1-1 1l-1-.007c-.568 0-1-.48-1-.993s.425-.993 1-.993zm-.808-11c1.055 0 2.081.899 1.997 2.112l-.322 5.725c-.03.538-.108.856-.3 1.187-.187.32-.456.574-.786.743-.298.152-.583.216-1.01.23l-2.85.003c-.539 0-.861-.06-1.202-.233a1.914 1.914 0 0 1 -.786-.743c-.168-.29-.249-.57-.286-.995l-.337-5.917c-.059-1.052.768-2.062 1.9-2.112zm0 2h-3.884l.344 5.992h3.195z" fill="var(--db-icon-color, currentColor)" fill-rule="evenodd"/></svg>
