<svg id="icon" height="24" viewBox="0 0 24 24" width="24" xmlns="http://www.w3.org/2000/svg"><path d="m20.503 3.471a1.002 1.002 0 0 1 .001 1.418l-15.807 15.82a.999.999 0 0 1 -1.418 0 1.002 1.002 0 0 1 0-1.417l4.721-4.72v-1.452c0-.047-.038-.118-.117-.118h-3.763a.12.12 0 0 0 -.12.118v4.88a.993.993 0 0 1 -.997.988c-.522 0-1.006-.428-1.003-.988.004-.663.005-2.329.003-4.998 0-1.015.997-2.002 1.996-2.002h4.001c1.022 0 1.789.66 1.956 1.609l6.345-6.352c.19-.817.842-1.48 1.68-1.68l1.104-1.105a1.002 1.002 0 0 1 1.418 0zm-.503 7.539c1.074 0 2 .921 1.997 1.995v4.99a.987.987 0 0 1 -1 1.002c-.492 0-.93-.378-.99-.883l-.007-.119v-4.888c0-.024-.056-.107-.12-.103h-.876a1.026 1.026 0 0 1 -1.001-.999c0-.523.457-1.005 1-1.005.332 0 .664.003.997.009zm-4.117 1.34c.068.205.113.422.113.653l.004 4.997a.98.98 0 0 1 -1.002.988.994.994 0 0 1 -.998-.988v-3.768l1.883-1.883zm-3.614-7.833c1.224 0 2.23 1.023 2.23 2.23 0 1.24-1.006 2.263-2.23 2.263a2.264 2.264 0 0 1 -2.263-2.263c0-1.207 1.005-2.23 2.263-2.23zm-6.24 0a2.251 2.251 0 0 1 2.23 2.23c0 1.24-1.005 2.263-2.23 2.263a2.264 2.264 0 0 1 -2.263-2.263c0-1.207 1.005-2.23 2.262-2.23z" fill="#282D37" style="fill: currentColor;fill: var(--db-icon-color, currentColor)" fill-rule="evenodd"/></svg>
