<svg id="icon" height="32" viewBox="0 0 32 32" width="32" xmlns="http://www.w3.org/2000/svg"><path d="m7 21.15a2.85 2.85 0 1 1 0 5.7 2.85 2.85 0 0 1 0-5.7zm13 0a2.85 2.85 0 1 1 0 5.7 2.85 2.85 0 0 1 0-5.7zm-13 1.7a1.15 1.15 0 1 0 0 2.3 1.15 1.15 0 0 0 0-2.3zm13 0a1.15 1.15 0 1 0 0 2.3 1.15 1.15 0 0 0 0-2.3zm-4.529-.557a.85.85 0 0 1 -.942 1.414 1.854 1.854 0 0 0 -2.058 0 .85.85 0 0 1 -.942-1.414 3.554 3.554 0 0 1 3.942 0zm9.529-18.143c1.282 0 2.38.897 2.647 2.135l2.197 14.615c.074.482-.14.79-.638.926-.439.105-1.772.438-4 1a.85.85 0 0 1 -.514-1.617l3.352-.846-2.047-13.654a1.002 1.002 0 0 0 -.997-.859.85.85 0 0 1 0-1.7zm-1 8.85c.47 0 .85.38.85.85 0 .433-.34.85-.85.85v2.3c0 1.659-1.409 3-3 3h-15c-1.591 0-3-1.341-3-3v-2.3a.86.86 0 0 1 -.85-.85c0-.433.348-.85.85-.85z" fill="#282D37" style="fill: currentColor;fill: var(--db-icon-color, currentColor)" fill-rule="evenodd"/></svg>
