<svg id="icon" height="64" viewBox="0 0 64 64" width="64" xmlns="http://www.w3.org/2000/svg"><g fill="none" fill-rule="evenodd" transform="translate(8.003 8.001)"><path d="m30.616 42.438c-.293.099-.57.253-.837.444.05-.42.154-.779.339-1.044.216-.309.522-.541.918-.701s.918-.285 1.566-.373c.312-.039.55-.152.714-.336a.823.823 0 0 0 .222-.623.891.891 0 0 0 -.372-.686c-.232-.176-.552-.24-.96-.191-1.048.137-1.94.35-2.676.643-.736.291-1.34.779-1.812 1.463-.472.686-.708 1.627-.708 2.826 0 1.352.308 2.381.924 3.084.616.705 1.556 1.057 2.82 1.057.736 0 1.372-.127 1.908-.379a2.76 2.76 0 0 0 1.23-1.086c.284-.471.426-1.031.426-1.68 0-.84-.214-1.482-.642-1.926-.428-.443-1.046-.666-1.854-.666-.456 0-.858.059-1.206.174zm.15 3.894c-.312 0-.542-.102-.69-.307a1.496 1.496 0 0 1 -.27-.725 9.615 9.615 0 0 1 -.048-1.057v-.085a2.08 2.08 0 0 1 .372-.179c.168-.057.368-.084.6-.084.352 0 .594.078.726.232.132.156.198.443.198.859 0 .488-.066.834-.198 1.037-.132.207-.362.309-.69.309zm6.611-4.015.168-1.398h2.425a.886.886 0 0 0 .654-.258.888.888 0 0 0 .258-.654.888.888 0 0 0 -.258-.654.886.886 0 0 0 -.654-.258h-3.144c-.648 0-1.008.316-1.08.947l-.372 3.037c-.04.32.004.541.132.666.128.123.356.186.684.186h.108c.712-.023 1.254.014 1.626.113.372.102.558.344.558.727 0 .281-.126.516-.378.709-.252.191-.59.344-1.014.455-.424.113-.92.197-1.488.252-.336.033-.578.127-.726.283-.148.154-.222.365-.222.629 0 .359.114.605.342.738s.598.178 1.11.139c1.44-.121 2.598-.418 3.474-.895s1.314-1.299 1.314-2.467c0-.768-.216-1.35-.648-1.746-.432-.395-1.064-.594-1.896-.594-.304.001-.633.018-.973.043zm10.387.937a.762.762 0 0 0 -.558-.234h-1.284v-1.309a.878.878 0 0 0 -.27-.641.877.877 0 0 0 -.642-.27c-.248 0-.46.09-.636.27a.888.888 0 0 0 -.264.641v1.309h-1.272a.762.762 0 0 0 -.558.234.762.762 0 0 0 -.234.559c0 .215.078.4.234.557a.762.762 0 0 0 .558.234h1.272v1.309c0 .248.09.461.27.643.18.18.394.27.642.27s.46-.09.636-.27a.892.892 0 0 0 .264-.643v-1.309h1.284a.762.762 0 0 0 .558-.234.761.761 0 0 0 .234-.557.764.764 0 0 0 -.234-.559z" fill="var(--db-icon-pulse-color, #EC0016)"/><path d="m9.749 6.371c.195-.328.317-.703.317-1.112a2.193 2.193 0 0 0 -4.386 0c0 .405.12.777.311 1.103a4.488 4.488 0 0 0 -2.276 2.363 4.486 4.486 0 0 0 .976 4.904 4.487 4.487 0 0 0 4.904.975 4.486 4.486 0 0 0 2.778-4.157c0-1.81-1.08-3.363-2.624-4.077zm-.919 6.387a2.493 2.493 0 0 1 -2.724-.542 2.491 2.491 0 0 1 -.542-2.725 2.492 2.492 0 0 1 2.31-1.543c1.378 0 2.5 1.121 2.5 2.5a2.494 2.494 0 0 1 -1.543 2.31zm.918 30.241a1 1 0 0 1 -1-1v-6.052a1 1 0 0 1 1-1h2.5c.806 0 1.466-.64 1.499-1.438l-1.988-13.921c-.254-1.154-.758-1.49-1.125-1.591-1.578 1.233-3.948 1.229-5.521.002-.367.105-.874.456-1.136 1.66l-1.976 13.85a1.502 1.502 0 0 0 1.499 1.438h2.5a1 1 0 0 1 1 1v6.052a1 1 0 1 1 -2 0v-5.052h-1.5c-1.93 0-3.5-1.57-3.5-3.5 0-.047.003-.095.01-.142l2-14c.457-2.112 1.691-3.308 3.397-3.352.264-.023.53.095.723.283.938.915 2.539.918 3.484 0 .193-.187.452-.279.721-.283 1.709.04 2.945 1.235 3.391 3.28l2.013 14.071c.007.047.01.095.01.142 0 1.93-1.57 3.5-3.5 3.5h-1.5v5.052a1 1 0 0 1 -1 1zm19.337-38.977h-.936l-.902-3.287a.999.999 0 0 0 -.964-.735h-4.559a1 1 0 0 0 -.964.735l-.902 3.287h-.936a1 1 0 1 0 0 2h.599a4.481 4.481 0 0 0 1.302 3.506 4.49 4.49 0 0 0 4.904.975 4.487 4.487 0 0 0 2.778-4.158c0-.108-.013-.216-.021-.323h.603a1 1 0 1 0 0-2zm-6.598-2.022h3.033l.451 1.643h-3.936l.451-1.643zm4.016 4.346a2.495 2.495 0 0 1 -1.543 2.311 2.49 2.49 0 0 1 -3.425-2.634h4.927c.014.108.041.212.041.323zm-4.958 36.653a1 1 0 0 1 -1-1v-9.087a3.507 3.507 0 0 1 -3-3.465l-.998-13.929c-.002-2.001 1.568-3.571 3.498-3.571h1.63c.246 0 .483.091.667.255a2.511 2.511 0 0 0 2.618.454c.249-.104.486-.256.706-.453a1 1 0 0 1 .668-.256h1.711c1.93 0 3.5 1.57 3.5 3.5l-1.002 14.071c.002 1.695-1.304 3.15-2.998 3.394v4.861a1 1 0 1 1 -2 0v-5.826a1 1 0 0 1 1-1h.5c.827 0 1.5-.673 1.5-1.5l1.002-14.071c-.002-.756-.675-1.429-1.502-1.429h-1.354a4.393 4.393 0 0 1 -.966.557 4.52 4.52 0 0 1 -4.406-.557h-1.275c-.827 0-1.5.673-1.5 1.5l.998 13.929c.002.898.675 1.571 1.502 1.571h.5a1 1 0 0 1 1 1v10.052a1 1 0 0 1 -1 1z" fill="var(--db-icon-color, currentColor)" fill-rule="nonzero"/></g></svg>
