<svg id="icon" height="64" viewBox="0 0 64 64" width="64" xmlns="http://www.w3.org/2000/svg"><g fill="none" fill-rule="evenodd" transform="translate(8 15.002)"><path d="m47 29.998a1 1 0 0 1 .117 1.993l-.117.007h-46a1 1 0 0 1 -.117-1.994l.117-.006zm-2.152-28.488a1 1 0 0 1 -1.671 1.093l-.064-.098c-.173-.3-.39-.436-.964-.484l-.292-.016-.35-.005-.946.009h-32.608c-1.57 0-2.858 1.245-2.948 2.82l-.005.176v17.986c0 1.598 1.231 2.9 2.78 2.992l.173.005 33.027.003.525.005.356-.006c.758-.026 1.035-.138 1.232-.435l.041-.067a1 1 0 1 1 1.732 1.001c-.73 1.26-1.59 1.516-3.56 1.507l-.58-.008h-32.774c-2.666 0-4.836-2.123-4.948-4.78l-.004-.218v-17.985c0-2.684 2.1-4.878 4.738-4.992l.215-.003 32.867-.003.241-.004c2.125-.035 3.031.19 3.787 1.507zm-30.19 9.488c.415 0 .807.293.807.758a.855.855 0 0 1 -.025.22l-1.42 5.459c-.1.39-.44.563-.758.563s-.649-.175-.759-.563l-.783-2.766-.783 2.766c-.112.394-.44.563-.759.563a.775.775 0 0 1 -.758-.588l-1.396-5.433a.87.87 0 0 1 -.024-.22c0-.466.416-.76.808-.76.318 0 .648.194.734.588l.679 3.123.765-3.147c.09-.37.44-.563.759-.563.318 0 .669.186.758.563l.749 3.158.671-3.134c.09-.418.416-.587.734-.587zm8.464 0c.416 0 .808.293.808.758a.855.855 0 0 1 -.025.22l-1.42 5.459c-.1.39-.44.563-.758.563s-.649-.175-.759-.563l-.783-2.766-.783 2.766c-.112.394-.44.563-.759.563a.775.775 0 0 1 -.759-.588l-1.395-5.433a.87.87 0 0 1 -.024-.22c0-.466.416-.76.808-.76.318 0 .648.194.734.588l.679 3.123.765-3.147c.09-.37.44-.563.759-.563.318 0 .669.186.758.563l.749 3.158.67-3.134c.09-.418.417-.587.735-.587zm8.465 0c.416 0 .808.293.808.758a.855.855 0 0 1 -.025.22l-1.42 5.459c-.1.39-.44.563-.758.563s-.649-.175-.759-.563l-.783-2.766-.783 2.766c-.112.394-.44.563-.759.563a.775.775 0 0 1 -.759-.588l-1.395-5.433a.87.87 0 0 1 -.024-.22c0-.466.416-.76.807-.76.319 0 .649.194.735.588l.679 3.123.765-3.147c.09-.37.44-.563.758-.563.319 0 .67.186.76.563l.748 3.158.67-3.134c.09-.418.417-.587.735-.587z" fill="var(--db-icon-color, currentColor)" fill-rule="nonzero"/><path d="m38 21.998h8c1.094 0 2-.907 2-2v-12c0-1.125-.906-2-2-2h-8c-1.094 0-2 .875-2 2v12c0 1.093.906 2 2 2zm0-2v-12h8v12zm1-3.016c0-.508.426-.984.984-.984.59 0 1.016.476 1.016.984a1.01 1.01 0 0 1 -1.016 1.016c-.558 0-.984-.477-.984-1.016zm3.997 0c0-.508.451-.984 1-.984.548 0 1 .476 1 .984 0 .54-.452 1.016-1 1.016-.549 0-1-.477-1-1.016z" fill="var(--db-icon-pulse-color, #EC0016)"/></g></svg>
