<svg id="icon" height="64" viewBox="0 0 64 64" width="64" xmlns="http://www.w3.org/2000/svg"><g fill="none" fill-rule="evenodd" transform="translate(16 7)"><path d="m11 3a1 1 0 0 1 0 2h-6.56a2.44 2.44 0 0 0 -2.44 2.44v37.12a2.44 2.44 0 0 0 2.44 2.44h21.12a2.44 2.44 0 0 0 2.44-2.44v-13.574a1 1 0 0 1 2 0v13.574a4.44 4.44 0 0 1 -4.44 4.44h-21.12a4.44 4.44 0 0 1 -4.44-4.44v-37.12a4.44 4.44 0 0 1 4.44-4.44zm14-3c7.719 0 14 6.281 14 14s-6.281 14-14 14-14-6.281-14-14 6.281-14 14-14zm0 2c-6.625 0-12 5.375-12 12s5.375 12 12 12 12-5.375 12-12-5.375-12-12-12zm-.003 9.008c.559.007 1.003.426 1.003.992v7h2c.563 0 1 .438 1 1 0 .563-.438 1-1 1h-6c-.563 0-1-.438-1-1 0-.563.438-1 1-1h2v-5.75h-1.75c-.563 0-1-.438-1-1 0-.563.438-1 1-1h1.625l.526-.13c.207-.05.413-.114.596-.112zm-.153-4.914a1.5 1.5 0 0 1 1.5 1.5c0 .843-.657 1.5-1.5 1.5a1.5 1.5 0 0 1 -1.5-1.5c0-.813.687-1.5 1.5-1.5z" fill="var(--db-icon-color, currentColor)" fill-rule="nonzero"/><path d="m23.92 40a1 1 0 0 1 0 2h-2.92a1 1 0 0 1 0-2zm-13.92 0a1 1 0 0 1 0 2h-3a1 1 0 0 1 0-2zm7 0a1 1 0 0 1 0 2h-3a1 1 0 0 1 0-2z" fill="var(--db-icon-pulse-color, #EC0016)"/></g></svg>
