<svg id="icon" height="64" viewBox="0 0 64 64" width="64" xmlns="http://www.w3.org/2000/svg"><g fill="none" fill-rule="evenodd" transform="translate(16 7)"><path d="m13 3a1 1 0 0 1 0 2h-8.56a2.44 2.44 0 0 0 -2.44 2.44v37.12a2.44 2.44 0 0 0 2.44 2.44h21.12a2.44 2.44 0 0 0 2.44-2.44v-14.56a1 1 0 0 1 2 0v14.56a4.44 4.44 0 0 1 -4.44 4.44h-21.12a4.44 4.44 0 0 1 -4.44-4.44v-37.12a4.44 4.44 0 0 1 4.44-4.44zm16.892 2.018a1 1 0 0 1 1.402-.184c2.489 1.912 4.049 4.97 4.049 8.142 0 4.944-3.239 8.82-7.896 9.776l2.324 1.39c.44.263.628.898.345 1.372a1.001 1.001 0 0 1 -1.372.345l-4.41-2.64a.999.999 0 0 1 -.346-1.37l2.551-4.28a1 1 0 1 1 1.718 1.025l-1.324 2.22c3.805-.73 6.41-3.823 6.41-7.838 0-2.54-1.263-5.017-3.267-6.555a1 1 0 0 1 -.184-1.403zm-9.615-4.543c.29-.47.906-.616 1.376-.327l4.28 2.64a1 1 0 0 1 .33 1.37l-2.551 4.194a1 1 0 0 1 -1.71-1.04l1.38-2.269c-3.667.811-6.412 4.063-6.381 7.925.02 2.75 1.18 5.008 3.23 6.618a1 1 0 1 1 -1.234 1.573c-2.52-1.978-3.971-4.804-3.996-8.176-.038-4.743 3.262-8.738 7.705-9.836l-2.102-1.296a1 1 0 0 1 -.384-1.273z" fill="var(--db-icon-color, currentColor)" fill-rule="nonzero"/><path d="m23.92 40a1 1 0 0 1 0 2h-2.92a1 1 0 0 1 0-2zm-13.92 0a1 1 0 0 1 0 2h-3a1 1 0 0 1 0-2zm7 0a1 1 0 0 1 0 2h-3a1 1 0 0 1 0-2z" fill="var(--db-icon-pulse-color, #EC0016)"/></g></svg>
