<svg id="icon" height="64" viewBox="0 0 64 64" width="64" xmlns="http://www.w3.org/2000/svg"><g fill="none" fill-rule="evenodd" transform="translate(13 8)"><path d="m18.72.056.199.04 15.99 3.557a3.954 3.954 0 0 1 3.035 4.518l-.04.2-6.113 27.533a3.948 3.948 0 0 1 -4.51 3.04l-.2-.039-3.082-.686.001 4.78c0 1.854-.385 3.348-1.161 4.545a1 1 0 0 1 -1.678-1.089c.512-.789.797-1.809.835-3.142l.004-.313-.001-5.226-5-1.113.001 2.339c0 2.472-1.025 4.322-2.717 5.578l-.215.154c-1.072.741-2.137 1.115-2.89 1.252a1 1 0 0 1 -.47-1.94l.258-.06.212-.06.272-.09a6.27 6.27 0 0 0 1.482-.748c1.24-.856 1.99-2.076 2.062-3.809l.006-.277v-5a1 1 0 0 1 .206-.608l.087-.1 5.998-5.998c1.066-1.07 1.066-2.519.002-3.588-1.023-1.023-2.399-1.066-3.45-.127l-.136.128-8 8a1 1 0 0 1 -1.594-1.17l2.685-12.086-7.09 6.255c-1.046 1.048-1.636 2.453-1.702 4.002l-.006.292v18a1 1 0 0 1 -1.993.116l-.007-.116v-18c0-2.073.72-4.006 2.113-5.515l.225-.235 8.5-7.5a.996.996 0 0 1 .615-.25l2.755-12.405a3.948 3.948 0 0 1 4.512-3.039zm-2.52 3.325-.04.148-5.393 24.289 5.525-5.525c1.848-1.85 4.567-1.85 6.417.001 1.785 1.792 1.84 4.392.166 6.237l-.168.176-5.707 5.706-.001.199 10.517 2.341a1.947 1.947 0 0 0 2.283-1.335l.04-.147 6.113-27.534a1.954 1.954 0 0 0 -1.33-2.293l-.148-.039-15.99-3.558c-1-.222-1.99.368-2.285 1.334z" fill="var(--db-icon-color, currentColor)" fill-rule="nonzero"/><path d="m29.79 10.057.115.02 1.316.298a1 1 0 0 1 -.328 1.97l-.115-.02-1.316-.298a1 1 0 0 1 .214-1.976zm-5.316-1.206.115.02 1.314.298a1 1 0 0 1 -.328 1.97l-.115-.02-1.314-.298a1 1 0 0 1 .214-1.976zm-5.383-1.197.115.018 1.326.28a1 1 0 0 1 -.298 1.974l-.115-.017-1.326-.28a1 1 0 0 1 .183-1.979z" fill="var(--db-icon-pulse-color, #EC0016)"/></g></svg>
