<svg id="icon" height="64" viewBox="0 0 64 64" width="64" xmlns="http://www.w3.org/2000/svg"><g fill="none" fill-rule="evenodd" transform="translate(16 7.375)"><path d="m11 2.625a1 1 0 0 1 0 2h-6.56a2.44 2.44 0 0 0 -2.44 2.44v37.12a2.44 2.44 0 0 0 2.44 2.44h21.12a2.44 2.44 0 0 0 2.44-2.44v-15.06a1 1 0 0 1 2 0v15.06a4.44 4.44 0 0 1 -4.44 4.44h-21.12a4.44 4.44 0 0 1 -4.44-4.44v-37.12a4.44 4.44 0 0 1 4.44-4.44zm14-2.625c.637 0 1.295.233 1.72.75l1.721 2.094c.057.069.185.104.282.077l2.586-.702c.186-.051.382-.063.573-.063 1.078 0 2.125.769 2.198 2.031l.16 2.72c.003.062.06.13.127.155l2.581.97a2.16 2.16 0 0 1 1.402 2c0 .405-.126.844-.35 1.187l-1.499 2.281a.22.22 0 0 0 0 .219l1.497 2.25c.242.363.351.781.351 1.187 0 .875-.573 1.72-1.402 2.032l-2.58.968c-.07.026-.126.12-.132.219l-.156 2.656c-.067 1.159-.998 2.032-2.198 2.032a3.5 3.5 0 0 1 -.75-.111l-2.438-.663c-.128-.034-.202-.007-.265.07l-1.708 2.078a2.224 2.224 0 0 1 -1.72.813c-.669 0-1.312-.277-1.72-.781l-1.721-2.125c-.056-.07-.126-.09-.223-.063l-2.497.679a3.54 3.54 0 0 1 -.721.102c-1.205 0-2.131-.878-2.198-2.03l-.158-2.688a.207.207 0 0 0 -.13-.188l-2.58-.968c-.74-.278-1.402-1.062-1.402-2.032 0-.406.109-.824.35-1.187l1.47-2.207c.067-.101.024-.268-.038-.363l-1.432-2.179a2.23 2.23 0 0 1 -.351-1.188c0-.886.565-1.686 1.402-2l2.553-.958c.095-.036.152-.104.157-.198l.158-2.688c.068-1.174 1.024-2.03 2.198-2.03.191 0 .387.011.573.062l2.586.702c.097.027.211.009.282-.077l1.721-2.095c.413-.502 1.084-.75 1.721-.75zm-.16 2-1.72 2.094c-.412.501-1.083.781-1.72.781-.192 0-.379-.012-.574-.063l-2.616-.672c-.118-.03-.276.07-.282.173l-.161 2.687c-.05.843-.6 1.605-1.402 1.906l-2.58.969c-.136.051-.163.179-.096.281l1.498 2.281c.248.38.35.75.35 1.157 0 .406-.102.808-.35 1.187l-1.498 2.281a.186.186 0 0 0 .096.282l2.58.968a2.188 2.188 0 0 1 1.402 1.907l.154 2.594c.012.196.134.32.41.248l2.376-.624a3.7 3.7 0 0 1 .852-.125c.578 0 1.137.297 1.561.813l1.72 2.094c.1.121.22.121.32 0l1.72-2.094c.412-.502 1.083-.813 1.53-.813.286 0 .589.05.764.094l2.646.68c.154.04.245-.037.253-.18l.16-2.687c.05-.843.6-1.608 1.402-1.907l2.517-.937c.14-.052.195-.24.127-.344l-1.466-2.25c-.247-.38-.35-.75-.35-1.156s.1-.81.35-1.188l1.428-2.161c.12-.181.122-.346-.081-.422l-2.525-.948a2.188 2.188 0 0 1 -1.402-1.906l-.16-2.688c-.007-.115-.135-.21-.282-.172l-2.617.673c-.195.05-.382.062-.574.062-.637 0-1.308-.28-1.72-.781l-1.72-2.094c-.1-.122-.22-.122-.32 0zm4.175 6.688c.432 0 .987.382.987 1 0 .25-.095.5-.287.687l-7.997 7.844a1.03 1.03 0 0 1 -.733.281.977.977 0 0 1 -.987-.969c0-.25.095-.5.287-.687l8.029-7.844c.191-.187.446-.313.7-.313zm-.096 5.874c1.115 0 2.007.907 2.007 1.97 0 1.093-.892 1.968-2.007 1.968s-2.007-.875-2.007-1.969c0-1.062.892-1.968 2.007-1.968zm-7.36-5.874c1.115 0 2.007.874 2.007 1.968s-.892 1.969-2.007 1.969-2.007-.875-2.007-1.969.892-1.969 2.007-1.969z" fill="var(--db-icon-color, currentColor)" fill-rule="nonzero"/><path d="m23.92 39.625a1 1 0 0 1 0 2h-2.92a1 1 0 0 1 0-2zm-13.92 0a1 1 0 0 1 0 2h-3a1 1 0 0 1 0-2zm7 0a1 1 0 0 1 0 2h-3a1 1 0 0 1 0-2z" fill="var(--db-icon-pulse-color, #EC0016)"/></g></svg>
