<svg id="icon" height="20" viewBox="0 0 20 20" width="20" xmlns="http://www.w3.org/2000/svg"><path d="m2 14c0 1.0938.875 2 2 2h12c1.125 0 2-.9062 2-2v-8c0-1.0938-.875-2-2-2h-12c-1.125 0-2 .9062-2 2zm3.4375-6.6562c0-1.125.90625-2 2-2 1.0625 0 2 .8124 2 1.9687 0 1.125-.875 2.0313-2 2.0313-1.09375 0-2-.9063-2-2zm2.90625 6c0-.8126.625-1.375 1.375-1.375s1.34375.625 1.34375 1.3437c0 .75-.625 1.3437-1.34375 1.3437-.6875 0-1.375-.5312-1.375-1.3124zm1.46875-4c0-1.4063 1.15625-2.5626 2.5625-2.5626s2.5625 1.1563 2.5625 2.5626c0 1.3437-1.09375 2.5624-2.5625 2.5624-1.40625 0-2.5625-1.1562-2.5625-2.5624z" fill="var(--db-icon-color, currentColor)" fill-rule="evenodd"/></svg>
