<svg id="icon" height="20" viewBox="0 0 20 20" width="20" xmlns="http://www.w3.org/2000/svg"><path d="m4.78917416 2.2927235 2.06519797.62385516c.69353613.20950345 1.13144306.88084322 1.05855539 1.58832698l-1.15992752 5.82883036c.9567168.6172223 1.77655249 1.3718006 2.29739693 2.0662599.4535069.6046694.74292507 1.308378.87194111 2.0993283l3.28582756.0002148c.3858261-.8827671 1.2666965-1.499539 2.2918344-1.499539 1.3804302 0 2.5 1.1192606 2.5 2.5s-1.1195698 2.5-2.5 2.5c-1.0249666 0-1.9057138-.6165657-2.2916409-1.4990963l-4.2079591-.0009037c-.55228475 0-1-.4477153-1-1 .000008-.7931953-.18672827-1.4156429-.55-1.9-.2734425-.36459-.64860265-.7363365-1.12635775-1.1119438l-.22037416 1.0940777c.5478468.4585908.89633191 1.1475336.89633191 1.9178661 0 1.3807394-1.11956985 2.5-2.5 2.5-1.38088475 0-2.5-1.1191153-2.5-2.5 0-1.2711001.94824262-2.3203991 2.17604069-2.4792099l1.66495931-8.3207901-1.63017416-.4927235c-.4909257-.14829887-.84527899-.73423322-.66810234-1.24645066.17717664-.51221744.6966869-.83195011 1.24645066-.66810234zm-.28917416 12.7072765c-.27631525 0-.5.2236847-.5.5s.22368475.5.5.5c.27598433 0 .5-.2239538.5-.5s-.22401567-.5-.5-.5zm11 0c-.2763153 0-.5.2236847-.5.5s.2236847.5.5.5c.2759843 0 .5-.2239538.5-.5s-.2240157-.5-.5-.5zm-3.1941279-3.7194708c1.1502348-1.1105066 2.4467338-1.49646235 3.8549649-1.2676318.5451346.0885817.9152438.6023103.8266621 1.1474449-.0885816.5451346-.6023102.9152438-1.1474448.8266622-.7957102-.129299-1.4561967.0673217-2.1450351.7323682-.3973257.3836023-1.0303929.3724774-1.4139953-.0248482-.3836024-.3973257-.3724774-1.0303929.0248482-1.4139953z" fill="var(--db-icon-color, currentColor)" fill-rule="evenodd" transform="matrix(-1 0 0 1 20 0)"/></svg>
