<svg id="icon" height="32" viewBox="0 0 32 32" width="32" xmlns="http://www.w3.org/2000/svg"><path d="m6.94206463 24.2779141c.41447851.3990562 1.60060033 1.7313613 2.55814326 1.7220859.95754291-.0092754 2.07353241-1.1381268 2.47369141-1.630609s1.1519037-.4925286 1.5521235-.0000958 1.526495 1.6399802 2.4760825 1.6307048c.9495876-.0092754 2.0985408-1.1714211 2.4719155-1.6307585.3733748-.4593375 1.0526896-.4901402 1.4670767-.0922509.4143871.3978892 1.5845407 1.7249332 2.5608302 1.7230094.9762894-.0019238 2.0985741-1.1712266 2.4720817-1.6307445.3735077-.4595179 1.0531419-.4901525 1.4674664-.0919036.4143246.3982489 1.5677029 1.7293758 2.5585242 1.7226481.5522847 0 1 .4477153 1 1 0 .5128358-.3982082 1.0011982-1.0058598 1-1.0319036-.0057955-2.1132836-.5251288-3.2441402-1.558-1.1406113 1.0464452-2.2233021 1.5657495-3.2480723 1.5579128s-2.1087461-.5274743-3.2519277-1.5589128c-1.0892639 1.0353746-2.1712532 1.5522797-3.2459678 1.5507153-1.0747146-.0015645-2.159392-.5181362-3.2540322-1.5497153-1.1456112 1.0386667-2.2287338 1.558-3.24936804 1.558-1.02063419 0-2.10417818-.519-3.25063196-1.557-1.12684477 1.038-2.2101781 1.557-3.25 1.557-.55228475 0-1-.4477153-1-1 0-.5128358.40476409-1 1-1s2.09987356-1.1695466 2.47340163-1.629996 1.05418448-.491146 1.468663-.0920899zm13.57525037-11.2794293c.4119585.4527025.7473856.9031787 1.0036085 1.2995906l7.3062414-1.2830262c.8154392-.1430898 1.4246104.702104 1.0745809 1.4182047l-5.0537475 8.096745c-.2927103.4683366-.9096607.6107097-1.3779972.3179994-.434884-.2718024-.5887076-.8231792-.3741034-1.275537l1.3791023-2.2131841-15.30591144 2.6263237c-.54433233.093385-1.06130439-.27218-1.15468942-.8165123-.08671467-.5054515.22229798-.9873117.702708-1.1283393l17.17489286-2.9534721 1.072-1.7162772-22.23027097 3.9018853c-.42690868.0606603-.69086749.307868-.72895045.8384968l-.00477858 2.8886179c0 .5522847-.44771525 1-1 1-.51283584 0-.93550716-.3860402-.99327227-.8833789l-.00135772-3.0716701c.07838767-1.4814941 1.00674772-2.4708247 2.24423183-2.717991l4.16047031-.7294744c.67469185-.9805962.90366492-2.2073577.61855285-3.3732143-.1291578-.5281414.18686419-1.0545706.69692432-1.1992711l6.11239808-1.0117823c1.7783281-.292043 3.3475618.5217415 4.6793676 1.9852669zm-4.171466-.0341328-5.2095951.8630726c.0506959.7969366-.0535509 1.5930227-.3030334 2.344659l8.4933518-1.4908829c-.0925501-.1145436-.1887826-.2270896-.2884691-.3366355-.8646839-.9502037-1.7748092-1.4535448-2.6922542-1.3802132z" fill="var(--db-icon-color, currentColor)" fill-rule="evenodd"/></svg>
