<svg id="icon" height="20" viewBox="0 0 20 20" width="20" xmlns="http://www.w3.org/2000/svg"><path d="m15 2c1.6568542 0 3 1.34314575 3 3v10c0 1.6568542-1.3431458 3-3 3h-10c-1.65685425 0-3-1.3431458-3-3v-10c0-1.65685425 1.34314575-3 3-3zm-10 2c-.51283584 0-.93550716.38604019-.99327227.88337887l-.00672773 10.11662113c0 .5128358.38604019.9355072.88337887.9932723l10.11662113.0067277c.5128358 0 .9355072-.3860402.9932723-.8833789l.0067277-10.1166211c0-.51283584-.3860402-.93550716-.8833789-.99327227zm3.66666667 2v4.906316c0 .895985.5438375 1.4270173 1.33345623 1.4270173.7431706 0 1.2684072-.4703954 1.3276282-1.2727245l.0055822-5.0606088h2v5.0885184c0 2.1319559-1.5287142 2.9114816-3.3332104 2.9114816-1.7443463 0-3.23121941-.7301787-3.32840612-2.7029484l-.00505011-5.2970516z" fill="var(--db-icon-color, currentColor)" fill-rule="evenodd"/></svg>
