<svg id="icon" height="64" viewBox="0 0 64 64" width="64" xmlns="http://www.w3.org/2000/svg"><g fill="none" fill-rule="evenodd" transform="translate(13.163 13.211)"><path d="m4.257 4.46a1 1 0 0 1 1.32-.084l.094.083 7.913 7.913a1 1 0 0 1 -1.32 1.497l-.094-.083-7.913-7.913a1 1 0 0 1 0-1.414zm10.65-3.144a1 1 0 0 1 1.132.698l.027.113 1.285 7.289a1 1 0 0 1 -1.943.461l-.027-.114-1.285-7.288a1 1 0 0 1 .811-1.159zm-12.656 13.004 7.289 1.285a1 1 0 0 1 -.232 1.983l-.116-.014-7.288-1.285a1 1 0 0 1 .231-1.983zm5.865 8.483-7.273 10.386a4.66 4.66 0 0 0 1.145 6.49l2.194 1.537a4.66 4.66 0 0 0 6.491-1.144l7.272-10.386a4.66 4.66 0 0 0 -1.144-6.49l-2.195-1.538a4.66 4.66 0 0 0 -6.49 1.145zm-5.634 11.533 7.272-10.386a2.66 2.66 0 0 1 3.705-.653l2.195 1.536a2.66 2.66 0 0 1 .653 3.706l-7.272 10.386a2.66 2.66 0 0 1 -3.706.653l-2.194-1.536a2.66 2.66 0 0 1 -.653-3.706zm27.252-16.39 10.386-7.273a4.66 4.66 0 0 0 1.145-6.49l-1.537-2.195a4.66 4.66 0 0 0 -6.49-1.145l-10.386 7.273a4.66 4.66 0 0 0 -1.145 6.49l1.537 2.195a4.66 4.66 0 0 0 6.49 1.144zm9.24-8.911-10.387 7.272a2.66 2.66 0 0 1 -3.705-.653l-1.537-2.195a2.66 2.66 0 0 1 .655-3.705l10.386-7.272a2.66 2.66 0 0 1 3.705.653l1.537 2.194a2.66 2.66 0 0 1 -.654 3.706z" fill="var(--db-icon-color, currentColor)" fill-rule="nonzero"/><path d="m16.032 20.215a1 1 0 0 1 1.703 1.04l-.065.107-7.457 10.65a1 1 0 0 1 -1.704-1.04l.066-.108zm14.88-11.64a1 1 0 0 1 1.246 1.56l-.098.078-10.65 7.457a1 1 0 0 1 -1.245-1.56l.099-.078 10.649-7.457z" fill="var(--db-icon-pulse-color, #EC0016)"/></g></svg>
