<svg id="icon" height="20" viewBox="0 0 20 20" width="20" xmlns="http://www.w3.org/2000/svg"><path d="m16.3875964 4.00019731c.4242644-.00668525.8335478.15675401 1.1365066.45384152.3029588.2970875.4743755.70309444.4760055 1.12740848v7.99374999c.0016487.4293202-.167307.8417159-.4697101 1.1464632s-.7134818.4768824-1.142802.4785368h-12.78750003c-.42766563-.0033024-.83650185-.1763656-1.13656282-.4811151-.30006097-.3047494-.46676527-.7162195-.46348607-1.1438849v-7.99374999c0-.42264253.16918606-.82770747.46979565-1.12479429s.70764042-.46146729 1.13025324-.45645571zm0 1.1375h-12.78750003c-.11768423-.0037283-.23150058.04226101-.31355989.12669884-.0820593.08443784-.1247786.19952145-.11769011.31705116v7.99374999c-.0069738.1180769.03557529.2337186.11741569.3191173.0818404.0853986.19556766.1328279.31383431.1308827h12.79375003c.1203839.0034916.236883-.0427968.3220431-.1279569.08516-.08516.1314485-.2016592.1279569-.3220431l-.00625-7.99374999c.0017537-.11931126-.0453016-.23416209-.1302644-.31794492-.0849629-.08378283-.2004606-.12922723-.3197356-.12580508zm-2.6875.80625c1.29375 0 2.08125.70625 2.08125 1.775-.0147429.78684049-.5305613 1.47627593-1.28125 1.7125l.0049036-.00244731.1218569.02130927c.7638547.1651446 1.325916.82203933 1.3709346 1.60224453l.0023049.1476435c0 1.4375-.99375 2.0625-2.81875 2.0625h-2.5875v-7.31874999zm-6.80000003-.025c1.875 0 2.94375 1.2 2.94375 3.63125 0 2.14999999-.71875 3.69999999-2.94375 3.71249999h-2.70625v-7.34374999zm-.55 1.16875h-.39375v4.99999999h.625c.94375-.025 1.5125-.7625 1.5125-2.37499999 0-1.475-.1625-2.625-1.74375-2.625zm6.77500003 3.09999999h-.76875v1.875l.7850308-.0001629c.3010417-.0027692 1.1149692-.0526149 1.1149692-.9498371 0-.4-.21875-.925-1.13125-.925zm-.20625-3.12499999h-.54375v1.775h.6875c.2495672.02541058.497936-.05829863.6812071-.22959128.1832712-.17129264.2835521-.41344559.2750429-.66415872 0-.6125-.3-.88125-1.1-.88125z" fill="var(--db-icon-color, currentColor)" fill-rule="evenodd"/></svg>
