<svg id="icon" height="64" viewBox="0 0 64 64" width="64" xmlns="http://www.w3.org/2000/svg"><path d="m55.9357448 11.000417c1.5930034-.0228809 3.1292515.5910029 4.2677959 1.7054085 1.1385444 1.1144057 1.7852031 2.637148 1.7964593 4.2302759v29.999849c-.0117552 3.3443144-2.7199408 6.0525-6.0642552 6.0642552h-47.93547304c-1.60071022-.0056559-3.13329026-.6484419-4.25912305-1.7863372-1.1258328-1.1378953-1.75224978-2.6772384-1.74099976-4.277918v-29.999849c-.00576475-1.5872346.62656119-3.110233 1.75494198-4.226524 1.1283808-1.116291 2.65810202-1.732175 4.24518083-1.7091604zm-47.93547304 4.2856927c-.45376722-.0373556-.9016986.1221419-1.22973788.4378797-.32803927.3157378-.50453243.7572489-.48453921 1.212112v29.999849c-.02565309.4601512.14747244.9091729.47539681 1.2329982.32792438.3238254.77908812.4912893 1.23888028.4598504h48.02118694c.4525188.0119147.8900588-.1626097 1.2101488-.4826997s.4946144-.7576301.4826998-1.2101489l-.0857139-29.9784205c.0122224-.4506834-.1629321-.886268-.4837546-1.2030294-.3208224-.3167615-.7586029-.4863532-1.209094-.4683908zm37.79980974 2.957128c4.8428328 0 7.7999608 2.635701 7.7999608 6.6642521-.0486764 2.9529182-1.9825627 5.5429445-4.7999759 6.4285391 3.3450441.4165203 5.8340095 3.2940974 5.7642567 6.6642522 0 5.4642582-3.7285526 7.7356754-10.5642325 7.7356754h-9.7285225v-27.4927188zm-25.4355863-.042857c7.071393 0 11.0356588 4.4999774 11.0356588 13.6285029 0 7.9713884-2.6999864 13.8427875-11.0356588 13.9070729h-10.1356632v-27.5355758zm23.3355969 16.0284908h-2.8714141v7.0071076l2.7723386-.0000415c1.0888691-.0017848 4.3638268-.0803152 4.3847682-3.535655 0-1.4999924-.8571385-3.4714111-4.2856927-3.4714111zm-25.3927294-11.6570842h-1.4785639v18.6641918h2.314274c3.557125 0 5.592829-2.7642718 5.592829-8.8070985 0-5.5285436-.599997-9.8570933-6.4285391-9.8570933zm24.5570193-.1071423h-2.035704v6.6642522h2.5714156c.9388539.0929481 1.872245-.2230557 2.561545-.8672231.6893001-.6441673 1.0676919-1.5540557 1.0384369-2.4970457 0-2.2928456-1.1357086-3.2999834-4.1356935-3.2999834z" fill="var(--db-icon-color, currentColor)" fill-rule="evenodd"/></svg>
