<svg id="icon" height="64" viewBox="0 0 64 64" width="64" xmlns="http://www.w3.org/2000/svg"><g fill="none" fill-rule="evenodd" transform="translate(10.5 16.095)"><path d="m12.5 15.905a7 7 0 1 1 0 14 7 7 0 0 1 0-14zm0 2a5 5 0 1 0 0 10 5 5 0 0 0 0-10zm0 3.85a1.15 1.15 0 1 1 0 2.3 1.15 1.15 0 0 1 0-2.3zm-4.437-21.55c2.75.808 5.498 1.618 8.245 2.43a17 17 0 0 1 7.852 5.293c2.303 2.898 4.51 5.683 6.623 8.356a.989.989 0 0 1 .212.704c-.093 1.166-.094 1.166-.194 2.332a5.017 5.017 0 0 1 -4.983 4.585h-.853l-.117.001h-2.607l-.242-.001c-.581-.001-1-.487-1-1s.419-1 1-1l.6-.001h1.565l.088.001h1.566a2.999 2.999 0 0 0 2.99-2.751c.056-.646.11-1.292.162-1.938l-6.356-8.02a15 15 0 0 0 -6.869-4.64 8194.76 8194.76 0 0 0 -8.245-2.433c-1.89-.525-3.507.715-3.8 2.35-.566 3.162-1.131 6.324-1.694 9.487l.43 6.35a1 1 0 0 0 .434.653l.678.355a1 1 0 0 1 -.888 1.776l-.757-.378a3 3 0 0 1 -1.457-2.191c-.158-2.249-.306-4.435-.446-6.555a1.31 1.31 0 0 1 .014-.242c.855-4.802.856-4.802 1.716-9.605.498-2.78 3.343-4.787 6.333-3.918zm.08 4.53.12.026.118.034 6.67 2.122.363.122a12 12 0 0 1 5.217 3.63l.254.316 1.405 1.806.07.104a1 1 0 0 1 -1.566 1.218l-.083-.094-1.404-1.806-.224-.277a10 10 0 0 0 -4.3-3l-.338-.113-6.67-2.123-1.292 6.888-.028.113a1 1 0 0 1 -1.952-.366l.015-.115 1.291-6.889.033-.146a2 2 0 0 1 2.302-1.451z" fill="var(--db-icon-color, currentColor)" fill-rule="nonzero"/><path d="m46.749 19.908a1 1 0 0 1 0 2c-.34.002-.93.002-1.771 0-.156 0-.461.026-.694.082-2.855.516-6.13 1.128-9.824 1.833-.23.051-.577.081-.694.082h-1.516a1 1 0 0 1 -1-1c0-.513.443-.998 1-1 .505-.002 1.01-.002 1.516 0a1.03 1.03 0 0 0 .231-.027 1882.26 1882.26 0 0 1 9.824-1.834c.284-.068 1.01-.135 1.157-.136.34-.002.93-.002 1.77 0z" fill="var(--db-icon-pulse-color, #EC0016)"/></g></svg>
