<svg id="icon" height="64" viewBox="0 0 64 64" width="64" xmlns="http://www.w3.org/2000/svg"><g fill="none" fill-rule="evenodd" transform="translate(6.165 11.463)"><path d="m17.262.811c.063.473-.193.955-.803 1.05-.318.045-.637.088-.957.128l1.568 4.901a4.235 4.235 0 1 1 -1.782.569l-.315-.988-3.704 4.119a1.21 1.21 0 0 1 -1.953-.215l-1.1-2.543-.605.719a4.235 4.235 0 1 1 -1.43-1.205l1.21-1.439-1.258-2.937h-.797a.935.935 0 0 1 -.935-.935c0-.477.367-.935.935-.935a541.27 541.27 0 0 1 2.75 0 .935.935 0 0 1 .08 1.865c.253.595.511 1.2.777 1.813l4.917-1.788-.477-1.495a.93.93 0 0 1 .767-1.212c.686-.093 1.374-.185 2.061-.275a.935.935 0 0 1 1.05.803zm-13.027 7.934a2.365 2.365 0 1 0 2.114 1.304l-1.399 1.663a.944.944 0 0 1 -1.317.113c-.362-.305-.48-.902-.113-1.317.464-.556.93-1.11 1.398-1.663a2.365 2.365 0 0 0 -.683-.1zm13.43.011.66 2.07a.937.937 0 0 1 -.605 1.174.94.94 0 0 1 -1.175-.606 550.52 550.52 0 0 1 -.662-2.069 2.365 2.365 0 1 0 1.782-.57zm-3.893-3.745-4.092 1.489.888 2.072 3.204-3.56zm31.79 21.046c.55-.111 1.056.251 1.176.784s-.281 1.076-.784 1.177l-1.538.307 1.676 9.223a3 3 0 1 1 -1.942.507l-.317-1.743c-.774.624-1.267 1.178-1.477 1.64-.346.76-.521 1.618-.521 2.585a1 1 0 0 1 -1 1h-6.17a3 3 0 1 1 0-2h5.222a7.796 7.796 0 0 1 .649-2.414c.446-.979 1.412-1.965 2.897-3.011l-1.092-6.054a1.5 1.5 0 0 1 1.2-1.598zm.273 13.48a1 1 0 1 0 0 2 1 1 0 0 0 0-2zm-14 0a1 1 0 1 0 0 2 1 1 0 0 0 0-2zm-1-6c2.144 0 4.05 1.066 4.87 2.506a1 1 0 0 1 -1.74.989c-.456-.803-1.693-1.495-3.13-1.495a1 1 0 0 1 0-2zm-4-8c1.094 0 2 .875 2 2 0 1.094-.875 2-2 2-1.094 0-2-.875-2-2 0-1.094.875-2 2-2zm.063-5.02c1.53 0 2.968.595 4.062 1.66.219.22.281.47.281.72 0 .47-.312 1.003-1 1.003-.25 0-.5-.094-.687-.282-.719-.69-1.656-1.096-2.656-1.096s-2 .407-2.657 1.096a.989.989 0 0 1 -.718.282c-.594 0-1-.533-1-1.003 0-.25.093-.532.312-.72 1.156-1.096 2.406-1.66 4.063-1.66zm0-4.98c2.843 0 5.593 1.128 7.625 3.164.187.187.312.47.312.72 0 .595-.438 1.002-1 1.002a1.1 1.1 0 0 1 -.719-.282 8.668 8.668 0 0 0 -6.218-2.63c-2.47 0-4.688.908-6.375 2.599-.188.188-.438.313-.688.313-.438 0-1-.344-1-1.002 0-.282.094-.501.281-.72 2.157-2.13 4.625-3.164 7.782-3.164z" fill="var(--db-icon-color, currentColor)" fill-rule="nonzero"/><path d="m8.812 16.091c.17-.476.745-.803 1.268-.625.523.177.791.737.626 1.268-.854 2.737-1.976 7.823 1.346 13.61 3.178 5.535 8.896 7.896 12.914 8.137.55.033.96.528.915 1.079a1 1 0 0 1 -1.079.915c-6.72-.56-11.888-4.576-14.592-9.35-3.441-6.074-2.434-12.328-1.398-15.034zm36.023 5.946a1 1 0 1 1 -2 0c0-9.112-7.952-18.016-19.37-16.251a1.007 1.007 0 0 1 -1.157-.813.993.993 0 0 1 .812-1.157c12.592-1.976 21.715 8.004 21.715 18.221z" fill="var(--db-icon-pulse-color, #EC0016)" transform="matrix(.9998477 -.01745241 .01745241 .9998477 -.380309 .462911)"/></g></svg>
