<svg id="icon" height="32" viewBox="0 0 32 32" width="32" xmlns="http://www.w3.org/2000/svg"><path d="m14.759 23c1.382 0 2.418 1.26 2.216 2.637l-.49 3.508a1 1 0 0 1 -1.978-.29l.489-3.508c.025-.168-.07-.347-.27-.347h-9.484c-.138 0-.266.154-.238.346l.485 3.512a1 1 0 0 1 -1.957.399l-.508-3.628c-.205-1.378.873-2.624 2.066-2.624zm-4.759-12a5 5 0 1 1 0 10 5 5 0 0 1 0-10zm0 2a3 3 0 1 0 0 6 3 3 0 0 0 0-6zm13.152 4.47a1 1 0 1 1 1.696 1.06 1 1 0 0 1 -1.696-1.06zm-5.016-.973a.999.999 0 1 1 1.728 1.006 1 1 0 1 1 -1.728-1.006zm10 0a.999.999 0 1 1 1.728 1.006 1 1 0 1 1 -1.728-1.006zm-4.984-2.027a1 1 0 1 1 1.696 1.06 1 1 0 0 1 -1.696-1.06zm-4.016-.973a.999.999 0 1 1 1.728 1.006 1 1 0 1 1 -1.728-1.006zm8.36-.362a1 1 0 0 1 1.007 1.73 1 1 0 0 1 -1.006-1.73zm-4.344-1.665a1 1 0 1 1 1.696 1.06 1 1 0 0 1 -1.696-1.06zm-3.017-.973a1 1 0 1 1 1.728 1.005 1 1 0 0 1 -1.728-1.005zm6.362-.361a1 1 0 1 1 1.005 1.73 1 1 0 0 1 -1.005-1.73zm-2.497-8.136a1 1 0 0 1 1 1v2.543c1.121.096 2.238.353 3.351.77a1 1 0 1 1 -.702 1.873c-1.223-.458-2.439-.686-3.649-.686-1.211 0-2.426.228-3.649.686a1 1 0 1 1 -.702-1.872 12.577 12.577 0 0 1 3.351-.771v-2.543a1 1 0 0 1 1-1z" fill="var(--db-icon-color, currentColor)" fill-rule="evenodd"/></svg>
