<svg id="icon" height="20" viewBox="0 0 20 20" width="20" xmlns="http://www.w3.org/2000/svg"><path d="m9.66152344 4.09179688c.15586942 0 .28222656.16389465.28222656.31860351 0 .20236206-.06097675.32423579-.17328756.46861239l-1.18804056 1.52723722h1.09570312c.16395954 0 .296875.13291546.296875.296875s-.13291546.296875-.296875.296875h-1.78125c-.16395954 0-.296875-.15551758-.296875-.33744812 0-.19105275.0453843-.29846651.12994209-.41584981l1.24505791-1.56115519h-.96289062c-.16395954 0-.296875-.13291547-.296875-.296875 0-.16395954.13291546-.296875.296875-.296875zm3.79761356-1.09179688c.2049494 0 .3710937.20515756.3710937.39249595 0 .22640581-.076829.44611084-.2179202.62317826l-1.495947 1.8773922h1.3427735c.2049494 0 .3710937.16614433.3710937.37109375s-.1661443.37109375-.3710937.37109375h-2.081306c-.2049494 0-.3710937-.23402291-.3710937-.39831543 0-.24580384.0771517-.44042126.2187852-.61766443l1.4999648-1.87708655h-1.3543936c-.2049494 0-.3710937-.16614433-.3710937-.37109375s.1661443-.37109375.3710937-.37109375zm4.1495636-1c.2299157 0 .4162992.23891048.4162992.45707016 0 .26365453-.0861881.51950586-.2444665.72570476l-1.6781782 2.18626444h1.5063455c.2299157 0 .4162992.19347872.4162992.43214682s-.1863835.43214682-.4162992.43214682h-2.3348435c-.2299156 0-.4162991-.27252481-.4162991-.46384706 0-.28624397.08655-.51288023.2454369-.71928379l1.6826853-2.18590851h-1.5193811c-.2299156 0-.4162991-.19347872-.4162991-.43214682s.1863835-.43214682.4162991-.43214682zm-14.6087006 6.48240631c.51283584 0 1 .40202299 1 1 .00206013.43917687.00206013.87837479 0 1.31759369 0 1.1621992.93252765 2.2 2.2 2.2 3.59990991.0018148 7.1999099.0018148 10.8 0 .5522847 0 1 .4477153 1 1 0 .4915404-.3546453.900249-.8220185.9842082l.3084124 1.8513928c.0907951.5447703-.2772246 1.0599979-.8219949 1.1507929-.5058582.0843097-1.0521157-.2488719-1.1507929-.8219949-.1227388-.7215168-.24336-1.443181-.3618636-2.1649927l-8.9517425.0005937c-.53209369 0-1.04107707-.098947-1.50955391-.2794448l-.72892214 2.5541659c-.15172429.531035-.70521007.8385271-1.23624508.6868028-.49310394-.1408868-.84599867-.6868028-.68680282-1.236245.3065931-1.0824514.61536877-2.1647061.92632701-3.2467641-.56098234-.6768136-.96506052-1.771143-.96480306-2.6785148-.00147816-.4391915-.00147816-.87838938 0-1.31759369 0-.55228475.44771525-1 1-1zm3.49706871.51759369c.82842712 0 1.5.67157288 1.5 1.5 0 .8284271-.67157288 1.5-1.5 1.5-.82842713 0-1.5-.6715729-1.5-1.5 0-.82842712.67157287-1.5 1.5-1.5zm4.51623899.13882854c2.0459618.28672227 4.0886663.57712959 6.1281137.87122196.546734.0781049.926633.5846368.8485281 1.1313709-.0725259.5076815-.5486241.9138857-1.1313709.8485281-2.9389864-.4165945-3.0465215-.4775118-5.8715786-.8389495-.1238489.5378981-.4554202.8208882-.99471392.8489702-.55226832-.0042602-.99651661-.4554158-.99240405-1.0076841.0081279-1.03448556.90081282-1.95924391 2.01342567-1.85345756z" fill="var(--db-icon-color, currentColor)" fill-rule="evenodd"/></svg>
