<svg id="icon" height="32" viewBox="0 0 32 32" width="32" xmlns="http://www.w3.org/2000/svg"><path d="m2 6.003a1.01 1.01 0 0 1 1.003-1.003c2.13 0 3.997 1.66 3.997 4.01v2.85l2.3 11.562c.183.91 1.034 1.579 1.974 1.579h5.726c.564 0 1 .436 1 1s-.436 1-1 1h-5.727a3.976 3.976 0 0 1 -3.916-3.203l-2.33-11.56a3.11 3.11 0 0 1 -.03-.376v-2.852a1.995 1.995 0 0 0 -1.995-2.01.985.985 0 0 1 -1.002-.997zm9 8.709c0-.846 1.034-1.097 1.754-1.097 1.786 0 3.246 1.285 3.246 3.04v.345h2.957c.533 0 1.003.467 1.003 1a1.01 1.01 0 0 1 -1.003 1.002h-2.957v1.998h5.088c.47 0 .89.35.97.823l1.191 7.018c.086.503-.25 1.159-.97 1.159-.502 0-.925-.347-1.003-.815l-1.034-6.203h-5.17a.99.99 0 0 1 -1.002-1.002v-5.326c0-.613-.489-1.065-1.253-1.065-.26 0-.553.125-.846.125-.532 0-.971-.407-.971-1.002zm5.266-9.712c1.79 0 3.234 1.469 3.234 3.25s-1.444 3.25-3.234 3.25a3.255 3.255 0 0 1 -3.266-3.25 3.255 3.255 0 0 1 3.266-3.25zm-.016 2c-.688 0-1.25.563-1.25 1.25 0 .688.563 1.25 1.25 1.25.688 0 1.25-.562 1.25-1.25 0-.687-.563-1.25-1.25-1.25zm5.75 11.597a2.988 2.988 0 0 1 3.008-3.008 2.989 2.989 0 0 1 2.992 2.976l.015 10.435c0 .533-.451 1-1.015 1-.533 0-.99-.467-.99-1l-.01-10.403a.988.988 0 0 0 -1-1.003c-.564 0-1 .47-1 1.003 0 .532-.467 1.002-1 1.002-.564 0-1-.439-1-1.002z" fill="var(--db-icon-color, currentColor)" fill-rule="evenodd"/></svg>
