<svg id="icon" height="24" viewBox="0 0 24 24" width="24" xmlns="http://www.w3.org/2000/svg"><path d="m3 10c.5 0 .999.422 1 1 .002 1 .002 2 0 3 0 1.598 1.284 3 3 3 4.667.002 9.333.002 14 0a1 1 0 0 1 0 2c-.204.002-.409.002-.613 0l.562 1.684a1 1 0 0 1 -.633 1.265c-.486.162-1.123-.091-1.265-.633-.26-.772-.517-1.544-.772-2.316h-11.279c-.84 0-1.631-.207-2.326-.573l-.704 2.816a1 1 0 0 1 -1.213.727 1.01 1.01 0 0 1 -.727-1.213c.313-1.262.63-2.525.947-3.787a4.981 4.981 0 0 1 -.977-2.97v-3a1 1 0 0 1 1-1zm11.077 2.515c2.693.167 4.714.334 6.062.502.981.063 1.861.97 1.861 1.994v.332c0 .552-.448.883-1 .883a1 1 0 0 1 -.993-.883l-.007-.333-6.092-.505c-.37-.031-.841.274-.91.67a1 1 0 1 1 -1.972-.326c.22-1.33 1.572-2.438 3.05-2.335zm-6.512-1.515a2.5 2.5 0 1 1 0 5 2.5 2.5 0 0 1 0-5zm0 2a.5.5 0 1 0 0 1 .5.5 0 0 0 0-1zm5.097-5.908c.155 0 .282.164.282.318a.686.686 0 0 1 -.174.469l-1.188 1.527h1.096a.297.297 0 0 1 0 .594h-1.781c-.164 0-.297-.156-.297-.337 0-.23.065-.339.185-.489l1.19-1.488h-.963a.297.297 0 1 1 0-.594zm3.797-1.727c.205 0 .371.205.371.392a1 1 0 0 1 -.218.623l-1.496 1.878h1.343a.371.371 0 0 1 0 .742h-2.081c-.205 0-.371-.234-.371-.398 0-.246.077-.44.219-.618l1.5-1.877h-1.356a.371.371 0 0 1 0-.742h2.088zm5.085-2.454c.274 0 .496.305.496.64 0 .22-.073.446-.209.62l-2.19 2.838h1.924a.496.496 0 0 1 0 .991h-3.07a.49.49 0 0 1 -.495-.496c0-.404.076-.591.214-.767l2.233-2.835h-1.743a.496.496 0 1 1 0-.991z" fill="var(--db-icon-color, currentColor)" fill-rule="evenodd"/></svg>
