<svg id="icon" height="20" viewBox="0 0 20 20" width="20" xmlns="http://www.w3.org/2000/svg"><path d="m17.207 2.793a1 1 0 0 1 .083 1.32l-.083.094-6.792 6.793 2.124.001c.463 0 .885.35.987.793l1.129 4.897c.027.12.04.222.04.323 0 .604-.463.987-.987.987a.999.999 0 0 1 -.967-.786l-.988-4.215-3.337-.002-1.993 1.995.025.003 3.532.002c.544 0 1.007.463 1.007.987 0 .544-.483 1.015-1.007 1.015h-3.567c-.551 0-1.065-.2-1.462-.536l-1.244 1.243a1 1 0 0 1 -1.497-1.32l.083-.094 13.5-13.5a1 1 0 0 1 1.414 0zm-14.207-.793c.544 0 .995.456.995 1v2.587l1.196 5.062-1.669 1.669-1.482-6.308a1.371 1.371 0 0 1 -.04-.302v-2.708c0-.544.436-1 1-1zm4.481 4.997c.358 0 .688.193.87.494l-1.631 1.628-.187-.791a1.515 1.515 0 0 1 -.04-.323c0-.564.463-1.008.987-1.008zm.019-4.997c.81 0 1.5.669 1.5 1.5s-.69 1.5-1.5 1.5-1.5-.669-1.5-1.5.69-1.5 1.5-1.5z" fill="var(--db-icon-color, currentColor)" fill-rule="evenodd"/></svg>
