<svg id="icon" height="24" viewBox="0 0 24 24" width="24" xmlns="http://www.w3.org/2000/svg"><path d="m9.148 2a2 2 0 1 1 0 3.999 2 2 0 0 1 0-3.999zm7.167 0a2 2 0 1 1 0 3.999 2 2 0 0 1 0-3.999zm-2 5.248c-1.025 0-2 .946-2 2v4.25c0 1.285.948 2.206 1.998 2.448.008 1.814 0 4.202 0 5.052.007.576.487 1 1 1a1 1 0 0 0 1-1v-5.996c.057-.505-.487-1-1-1h-.5c-.27 0-.5-.261-.5-.504 0-2.166.003-3.582.007-4.25h2.994c.522 0 1-.487 1-1a1 1 0 0 0 -1-1 749.5 749.5 0 0 0 -3 0zm2.68 5.751h.989c.565 0 1.013.423 1.013.989v7.009a.991.991 0 0 0 .989 1.002.997.997 0 0 0 1.013-1.002v-7.033c0-1.626-1.343-2.968-3.015-2.968h-.99a1.02 1.02 0 0 0 -1.012 1.013c0 .565.448.99 1.013.99zm-6.495-.837v-3.662a1 1 0 1 0 -2 0v2.662h-1a1 1 0 1 0 0 2h2a1 1 0 0 0 1-1zm-.5 8.838v-5c0-1.103-.897-2-2-2h-1c-1.023 0-1.898-.723-1.99-1.646a1.84 1.84 0 0 1 .962-1.814 1.001 1.001 0 0 0 -.944-1.764 3.836 3.836 0 0 0 -2.008 3.777c.193 1.933 1.942 3.446 3.98 3.446h1v5a1 1 0 0 0 2 .001z" fill="var(--db-icon-color, currentColor)" fill-rule="evenodd"/></svg>
