<svg id="icon" height="20" viewBox="0 0 20 20" width="20" xmlns="http://www.w3.org/2000/svg"><path d="m15.0013062 8c1.0543618 0 2 .8640095 2 2v3c0 1.0543618-.8419994 2-2 2v2c-.0001561.6139598-.4871641 1-1 1-.5128358 0-1-.3837158-1-1-.0021578-.9996132-.0021578-1.9996132 0-3 0-.5128358.4124328-1 1-1 .3333241-.0020083.6666574-.0020083 1 0v-3h-1c-.5522847 0-1-.44771525-1-1 0-.51283584.3751185-1 1-1zm-4.5 5c.8284272 0 1.5.6715729 1.5 1.5 0 .6547067-.4151705 1.211446-1 1.4161517v1.0838483c0 .5522847-.4477152 1-1 1-.55228472 0-.99999997-.4477153-.99999997-1v-1l.00427737-.0838483c-.58482945-.2047057-1.00427737-.761445-1.00427737-1.4161517 0-.8284271.67157288-1.5 1.5-1.5zm-3.49999997-6c.55228475 0 1 .44771525 1 1 0 .51283584-.41869368 1-1 1h-2v3h1c.51283584 0 1 .3364997 1 1v4c0 .5522847-.44771525 1-1 1-.51283584 0-1-.3734005-1-1v-3c-1.05436179 0-2-.8091107-2-2-.00174164-.9998453-.00174164-1.9998453 0-3 0-1.0543618.83130235-2 2-2zm2.99993347 2c.8284499 0 1.5000665.67150847 1.5000665 1.4999889 0 .8284583-.6716166 1.5000111-1.5000665 1.5000111-.82831682 0-1.49993347-.6715528-1.49993347-1.5000111 0-.82848043.67161665-1.4999889 1.49993347-1.4999889zm3.9999816-6c1.1046151 0 2.0000849.89538109 2.0000849 2.00001214s-.8954698 1.99998786-2.0000849 1.99998786c-1.1044452 0-1.9999151-.89535681-1.9999151-1.99998786s.8954699-2.00001214 1.9999151-2.00001214zm-7.00001065-1c1.1045938 0 2.00009558.89536989 2.00009558 2.00001062s-.89550178 1.99998938-2.00009558 1.99998938c-1.10442388 0-1.99990442-.89534865-1.99990442-1.99998938s.89548054-2.00001062 1.99990442-2.00001062z" fill="var(--db-icon-color, currentColor)" fill-rule="evenodd"/></svg>
