<svg id="icon" height="32" viewBox="0 0 32 32" width="32" xmlns="http://www.w3.org/2000/svg"><path d="m16.4070367 19.9999833c1.5929633 0 2.5929633.9992014 2.5929633 2.7852934v1.4294466c0 1.3598979-.6005667 2.430032-2.0025162 2.7186737l.0025162.066603v2c0 .5522847-.4477153 1-1 1s-1-.4477153-1-1v-2l.0025162-.066603c-1.5919579-.35803-2.0025162-1.5303998-2.0025162-2.7186737v-1.4294466c0-1.7852767 1-2.7867532 2.5588844-2.7808668zm-2.9070367-10.4999833c1.3923438 0 2.5 1.1076562 2.5 2.5 0 .5522847-.4477153 1-1 1-.5128358 0-1-.4174121-.9932723-.883379.0051388-.3559134-.1553102-.6159622-.5067277-.616621-1.3333124-.0024995-2.6666458-.0024995-4 0-.24175536 0-.47744309.2016403-.5.539994v7.460006c0 .2418746.18808971.5.53964852.5h.46035148c.5128358 0 .9995154.4153992 1 1 .0022101 2.6663531.0022101 5.3330198 0 8 0 .5522847-.4477153 1-1 1-.51283584 0-.99934476-.3916578-1-1-.00380055-3.5285306.05034017-3.6311492-.001-7.058-1.02378737 0-1.999-1.2121368-1.99354978-2.2762504l-.00545022-7.6257556c0-1.3364626.98454017-2.53801068 2.5-2.539994 1.3333333-.00174496 2.6666667-.00174496 4 0zm9.2148515 2c1.2151866 0 2.2851485 1.0349164 2.2851485 2.349275v6.650725c0 1.135077-.8620951 2.162999-2.001 2.423-.0015176.3017276-.0025966.6718353-.0032368 1.1103231l.00008 2.4347604c.0007885.7508993.0021741 1.5948714.0041568 2.5319165 0 .5128358-.4871642 1-1 1s-1-.4355858-1-1v-7c0-.5128358.4149584-1 1-1h.3884649c.3263866 0 .6115351-.2587222.6115351-.5569849v-6.5937401c0-.1595198-.0772019-.349275-.2851485-.349275h-3.7044199c-.5522848 0-1-.4477153-1-1 0-.5128358.3982101-.9989404 1-1 1.2347972-.0021741 2.4696038-.0021741 3.7044199 0zm-6.3750501 10.5015762h-.6796028c-.421234 0-.6586224.3117913-.6586224.6586224v1.6796028c0 .3829065.1998855.6586378.6586224.6586378h.6796028c.3373272.0015608.6601986-.2374038.6601986-.6586378v-1.6796028c0-.3376117-.2389646-.6586224-.6601986-.6586224zm-.3398679-7.0015762c1.104608 0 2.0000665.8953819 2.0000665 1.9999889 0 1.1045933-.8954669 2.0000111-2.0000665 2.0000111-1.104494 0-1.9999335-.8954452-1.9999335-2.0000111 0-1.1045796.8954311-1.9999889 1.9999335-1.9999889zm4.9999815-11c1.6569068 0 3.000085 1.34310324 3.000085 3.00001214 0 1.65690802-1.3431773 2.99998786-3.000085 2.99998786-1.6567771 0-2.999915-1.34311925-2.999915-2.99998786 0-1.65686949 1.3431388-3.00001214 2.999915-3.00001214zm-9.0000106-2c1.6568942 0 3.0000956 1.34310079 3.0000956 3.00001062 0 1.65690906-1.3432006 2.99998938-3.0000956 2.99998938-1.6567637 0-2.9999044-1.34311896-2.9999044-2.99998938 0-1.65687118 1.3431415-3.00001062 2.9999044-3.00001062zm9.0000106 4c-.5522054 0-.999915.44771086-.999915 1.00001214 0 .55229289.4477012.99998786.999915.99998786.5523707 0 1.000085-.44768184 1.000085-.99998786 0-.55231441-.4477227-1.00001214-1.000085-1.00001214zm-9.0000106-2c-.5521941 0-.9999044.44770962-.9999044 1.00001062 0 .55229366.447703.99998938.9999044.99998938.5523656 0 1.0000956-.44768992 1.0000956-.99998938 0-.5523068-.4477374-1.00001062-1.0000956-1.00001062z" fill="var(--db-icon-color, currentColor)" fill-rule="evenodd"/></svg>
