<svg id="icon" height="24" viewBox="0 0 24 24" width="24" xmlns="http://www.w3.org/2000/svg"><path d="m20.2071068 3.79289322c.3604839.36048396.4057426 1.01078982 0 1.41421356-2.5161638 2.51972361-5.0341994 5.03768802-7.5541068 7.55389322l.2276 1.2426 3.6541.0047c.4476 0 .8481.3063.9659.7539l1.5076 5.987c.1414.6125-.3298 1.2486-.9658 1.2486-.4711 0-.8952-.3298-.9894-.7539l-1.2956-5.2432h-3.7221c-.4947 0-.8951-.3534-.9864-.8329l-.1229-.6798-3.05843495 3.0595353c.23197696.286255.59357804.4524647.98753495.4524647h4.1567c.5418 0 .9894.5006.9894 1.0424 0 .5654-.4476.9576-.9894.9576h-4.1567c-.94728233 0-1.80691269-.3905172-2.40344797-1.0366892l-2.74454525 2.743796c-.39052429.3905243-1.02368927.3905243-1.41421356 0-.36048396-.360484-.42214939-1.0437784 0-1.4142136 5.49811723-5.5017704 10.99811728-11.00177045 16.49999998-16.49999998.3905243-.39052429 1.0236893-.39052429 1.4142136 0zm-17.2177068-.79289322c1.8139 0 3.0118 1.2721 3.0118 3.2509v2.6619l.8098 4.0392-1.698 1.697-1.0435-5.1943c-.0479-.2355-.0707-.4476-.0707-.6596v-2.5442c0-.8716-.3498-1.2485-1.0094-1.2485-.5418 0-.9894-.4476-.9894-.9894 0-.5654.4476-1.013.9894-1.013zm7.0436 6c.2198667 0 .4320272.03388662.6330629.09735173l-1.76557003 1.76556257c-.29237363-.171498-.49299287-.4885713-.49299287-.8629143 0-.5418.4476-1 .9894-1zm-.0307-6c1.1072 0 2.0024.8952 2.0024 2.0024s-.8952 2.0024-2.0024 2.0024-2.0023-.8952-2.0023-2.0024.8951-2.0024 2.0023-2.0024z" fill="var(--db-icon-color, currentColor)" fill-rule="evenodd"/></svg>
