<svg id="icon" height="24" viewBox="0 0 24 24" width="24" xmlns="http://www.w3.org/2000/svg"><path d="m21 17a1 1 0 0 1 0 2 8.534 8.534 0 0 1 -.32 0l.306 1.836a1 1 0 0 1 -.822 1.15 1.007 1.007 0 0 1 -1.15-.822 325.39 325.39 0 0 1 -.362-2.164h-13.305l-.36 2.164a1 1 0 0 1 -1.987-.212l.32-1.952h-.32a1 1 0 0 1 0-2 27000 27000 0 0 1 18 0zm-8.936-4.498c2.693.167 5.385.338 8.075.515.981.063 1.861.97 1.861 1.994v.332c0 .552-.448.883-1 .883a1 1 0 0 1 -.993-.883l-.007-.333-8.105-.518c-.371-.031-.842.274-.91.67a1 1 0 1 1 -1.973-.326c.22-1.33 1.573-2.439 3.05-2.335zm-6.564-1.502a2.5 2.5 0 1 1 0 5 2.5 2.5 0 0 1 0-5zm0 2a.5.5 0 1 0 0 1 .5.5 0 0 0 0-1z" fill="var(--db-icon-color, currentColor)" fill-rule="evenodd"/></svg>
