<svg id="icon" height="24" viewBox="0 0 24 24" width="24" xmlns="http://www.w3.org/2000/svg"><path d="m21 17a1 1 0 0 1 0 2 8.534 8.534 0 0 1 -.32 0l.306 1.836a1 1 0 0 1 -.822 1.15 1.007 1.007 0 0 1 -1.15-.822 325.39 325.39 0 0 1 -.362-2.164h-13.305l-.36 2.164a1 1 0 0 1 -1.987-.212l.32-1.952h-.32a1 1 0 0 1 0-2 27000 27000 0 0 1 18 0zm-8.936-4.498c2.693.167 5.385.338 8.075.515.981.063 1.861.97 1.861 1.994v.332c0 .552-.448.883-1 .883a1 1 0 0 1 -.993-.883l-.007-.333-8.105-.518c-.371-.031-.842.274-.91.67a1 1 0 1 1 -1.973-.326c.22-1.33 1.573-2.439 3.05-2.335zm-6.564-1.502a2.5 2.5 0 1 1 0 5 2.5 2.5 0 0 1 0-5zm0 2a.5.5 0 1 0 0 1 .5.5 0 0 0 0-1zm7.162-5.908c.155 0 .282.164.282.318a.686.686 0 0 1 -.174.469l-1.188 1.527h1.096a.297.297 0 0 1 0 .594h-1.781c-.164 0-.297-.156-.297-.337 0-.23.065-.339.185-.489l1.19-1.488h-.963a.297.297 0 1 1 0-.594zm3.797-1.727c.205 0 .371.205.371.392a1 1 0 0 1 -.218.623l-1.496 1.878h1.343a.371.371 0 0 1 0 .742h-2.081c-.205 0-.371-.234-.371-.398 0-.246.077-.44.219-.618l1.5-1.877h-1.356a.371.371 0 0 1 0-.742h2.088zm5.085-2.454c.274 0 .496.305.496.64 0 .22-.073.446-.209.62l-2.19 2.838h1.924a.496.496 0 0 1 0 .991h-3.07a.49.49 0 0 1 -.495-.496c0-.404.076-.591.214-.767l2.233-2.835h-1.743a.496.496 0 1 1 0-.991z" fill="var(--db-icon-color, currentColor)" fill-rule="evenodd"/></svg>
