<svg id="icon" height="20" viewBox="0 0 20 20" width="20" xmlns="http://www.w3.org/2000/svg"><path d="m17 13a1 1 0 0 1 .178 1.984l.308 1.852a1 1 0 0 1 -1.947.442l-.025-.114-.362-2.164h-10.305l-.36 2.164a1 1 0 0 1 -1.986-.212l.013-.116.308-1.852a1 1 0 0 1 .061-1.977l.117-.007zm-7.872-3.992c2.668.33 5.333.664 7.996 1a1 1 0 0 1 .868 1.116c-.063.509-.507.876-1.116.868-3.748-.465-7.478-.937-7.828-.98-.16.562-.367.956-1.056.988a1 1 0 0 1 -.992-1.008c.008-1 .992-2.113 2.128-1.984zm-4.628 2.992a1.5 1.5 0 1 0 0-3 1.5 1.5 0 0 0 0 3z" fill="var(--db-icon-color, currentColor)" fill-rule="evenodd"/></svg>
