<svg id="icon" height="24" viewBox="0 0 24 24" width="24" xmlns="http://www.w3.org/2000/svg"><path d="m6.89372821 7.99881662c.00060688.51283548-.41770674 1.00118336-.99881591 1.00118336-.55023577.00274562-1.10050786.00339658-1.65081625.00195287-.14055879-.00881928-.2645951.12684742-.24223368.31065813.5238718 2.10358402 1.04982202 4.20648582 1.57785068 6.30870562.04870575.1947398.24182496.3786834.48505904.3786834 1.10959561.002322 2.21924788.002322 3.32895682 0 1.09891389 0 1.67591079.3318756 2.42977209 1.5338546.4951556 1.0052692.9851457 2.0154505 1.4699703 3.0305441.2410289.496914.0335931 1.0951349-.4633209 1.3361638-.4614201.2238126-1.0101917.0609387-1.2792146-.361328l-1.5366568-3.1580047c-.08340984-.152869-.24596584-.3808842-.53355209-.3796744l-3.41595482-.0015554c-1.08972158 0-2.0466186-.7045081-2.37820739-1.7290446l-1.62493853-6.473078c-.3015059-1.20550822.51569198-2.79788934 2.18010311-2.79592315l1.65081625-.00196619c.55228436-.00064092 1.00052912.44654419 1.00118268.99882856zm11.60627179-3.99881662c.8284271 0 1.5.67157288 1.5 1.5l.0010375.83730867c1.1228186.53384678 1.9978893 1.71177803 1.9989625 3.16269133v8c0 1.3254834-.9895522 2.4470239-2.5 2.5h-2c-1.3254834 0-2.4100387-1.0315359-2.4946823-2.3356243l-.0053177-8.1643757c0-1.39618488.817511-2.60142984 1.9999667-3.16316861l.0000333-.83683139c0-.82842712.6715729-1.5 1.5-1.5zm0 4c-.7796961 0-1.4939722.56856139-1.4939722 1.4671316l-.0060278.5328684h1c.5522847 0 1 .4477153 1 1s-.4477153 1-1 1h-1v2h1c.5522847 0 1 .4477153 1 1s-.4477153 1-1 1h-1v1.5c0 .2454599.2699193.5.5.5.6666563.0025697 1.333323.0025697 2 0 .2454599 0 .5-.1245479.5-.5 0-.4060046 0-3.0836273 0-8.0328684 0-.82842712-.6715729-1.4671316-1.5-1.4671316zm-9.43468258 1.19091418 2.21233838.87987852c.513187.2041018.76375.7855793.5596482 1.2987663-.1895231.4765308-.7044364.7266154-1.1879147.5964952l-1.41766039-.5570542-.19 1.591h2.85199999c.5957942 0 1 .4871642 1 1s-.4042058 1-1 1c-1.3260361.0021786-2.65213675.0021786-3.97830191 0-.55939817 0-1.00152518-.4561259-1.00018321-1.0007938l.44696663-3.795195c.07684287-.64263076.67361253-1.34464202 1.70310701-1.01309702zm.32836716-3.94091418c.82845132 0 1.50004432.67153899 1.50004432 1.5 0 .82843938-.6716009 1.5-1.50004432 1.5-.8283753 0-1.49995567-.67158118-1.49995567-1.5 0-.82844045.67157245-1.5 1.49995567-1.5zm-4.00002735-3.25c1.10460201 0 2.00007168.89539933 2.00007168 2 0 1.10461192-.89546499 2-2.00007168 2-1.10450413 0-1.99992832-.89541296-1.99992832-2 0-1.10457579.89542887-2 1.99992832-2z" fill="var(--db-icon-color, currentColor)" fill-rule="evenodd"/></svg>
