<svg id="icon" height="24" viewBox="0 0 24 24" width="24" xmlns="http://www.w3.org/2000/svg"><path d="m4 16.1487c0-1.3669.4796-2.7338 1.4149-3.813.2158-.2398.4796-.3357.7434-.3357.5995 0 1.0072.4556 1.0072 1.0072 0 .2158-.072.4316-.2159.6235-.5995.6954-.9592 1.6067-.9592 2.518 0 2.1103 1.6786 3.8513 3.789 3.8513 1.2709 0 2.446-.5899 3.1894-1.5971.2158-.2878.5276-.4317.8154-.4317.5275 0 1.0311.4077 1.0311 1.0072 0 .2158-.0719.4317-.2158.5995-1.1271 1.5108-2.8777 2.4221-4.8201 2.4221-3.1175 0-5.7794-2.5659-5.7794-5.8513zm3.5012-7.1463c0-.5516.4556-1.0072 1.0072-1.0072h.7194c1.1511 0 2.1583.6235 2.494 1.6787l.0959.3261h3.4293c.5515 0 1.0072.4412 1.0072.9928s-.4557 1.0072-1.0072 1.0072h-2.8298l.5996 2h3.5012c.4316 0 .7674.2542.9352.6619l2.1823 5.1798c.0479.0959.0719.2159.0719.3358 0 .4796-.3837.9832-1.0072.9832-.4316 0-.7674-.2398-.9352-.6475l-1.9425-4.5084h-3.5491c-.4317 0-.8394-.2878-.9593-.7194l-1.4388-4.8681c-.0959-.3118-.2158-.4317-.6475-.4317h-.7194c-.5516 0-1.0072-.4316-1.0072-.9832zm0-4.988c0-1.1031.9113-2.0144 2.0144-2.0144s1.9904.9113 1.9904 2.0144-.8873 1.9904-1.9904 1.9904-2.0144-.8873-2.0144-1.9904z" fill="var(--db-icon-color, currentColor)" fill-rule="evenodd"/></svg>
