<svg id="icon" height="32" viewBox="0 0 32 32" width="32" xmlns="http://www.w3.org/2000/svg"><path d="m29 23a1 1 0 0 1 1 1 .99.99 0 0 1 -1 1 9.13 9.13 0 0 1 -.331 0l.319 2.017a1 1 0 0 1 -.832 1.143 1.023 1.023 0 0 1 -1.144-.832c-.124-.776-.247-1.552-.367-2.328h-21.291l-.366 2.328a1 1 0 0 1 -1.144.832c-.506-.08-.922-.617-.832-1.143.104-.672.21-1.345.318-2.017h-.33a1 1 0 0 1 -1-1c0-.513.42-1 1-1 8.665-.002 17.331-.002 26 0zm-23-7a3 3 0 1 1 0 6 3 3 0 0 1 0-6zm7.59 1.478 13.41 1.022c1.365 0 2.715.905 2.982 2.313a1 1 0 0 1 -1.936.487l-.028-.113c-.065-.34-.45-.632-1.094-.69l-13.508-1.027c-.651-.063-1.265.43-1.44 1.25a1 1 0 1 1 -1.952-.44c.36-1.596 1.734-2.984 3.565-2.802zm-7.59.522a1 1 0 1 0 0 2 1 1 0 0 0 0-2z" fill="var(--db-icon-color, currentColor)" fill-rule="evenodd"/></svg>
