<svg id="icon" height="16" viewBox="0 0 16 16" width="16" xmlns="http://www.w3.org/2000/svg"><path d="m8.75474747 3.755c.39052429-.39052429 1.02368927-.39052429 1.41421353 0l3.5355339 3.53553391.0777064.08722081c.3108255.39251765.2849233.96436305-.0777064 1.32699275l-3.5355339 3.53553393c-.39052426.3905243-1.02368924.3905243-1.41421353 0s-.39052429-1.0236893 0-1.4142136l1.82835933-1.82896102-7.58100002.00028138c-.55228475 0-1-.44771525-1-1s.44771525-1 1-1l7.58100002-.00028138-1.82835933-1.82789322c-.36048396-.36048396-.3882135-.92771502-.08318861-1.32000622z" fill="var(--db-icon-color, currentColor)" fill-rule="evenodd" transform="matrix(0 1 -1 0 15.997388 -.002106)"/></svg>
