<svg id="icon" height="24" viewBox="0 0 24 24" width="24" xmlns="http://www.w3.org/2000/svg"><path d="m5.274 3.52 2.02.403a1.5 1.5 0 0 1 1.201 1.598l-1.092 6.053c1.485 1.047 2.451 2.033 2.897 3.011.34.747.556 1.553.648 2.415h5.223a3 3 0 1 1 0 2h-6.17a1 1 0 0 1 -1-1c0-.967-.175-1.826-.521-2.585-.21-.462-.703-1.017-1.477-1.64l-.317 1.743a3 3 0 1 1 -1.942-.507l1.676-9.223-1.538-.307c-.503-.1-.905-.644-.785-1.177.121-.533.626-.896 1.177-.785zm-.274 13.48a1 1 0 1 0 0 2 1 1 0 0 0 0-2zm14 0a1 1 0 1 0 0 2 1 1 0 0 0 0-2zm1-6a1 1 0 1 1 0 2c-1.436 0-2.674.692-3.13 1.494a1 1 0 0 1 -1.739-.988c.819-1.44 2.726-2.506 4.87-2.506z" fill="#282D37" style="fill: currentColor;fill: var(--db-icon-color, currentColor)" fill-rule="evenodd" transform="matrix(-1 0 0 1 24 0)"/></svg>