<svg id="icon" height="20" viewBox="0 0 20 20" width="20" xmlns="http://www.w3.org/2000/svg"><path d="m5 10.15a2.85 2.85 0 1 1 0 5.7 2.85 2.85 0 0 1 0-5.7zm8.385-5a.85.85 0 0 1 .784.523l1.202 4.48a2.85 2.85 0 1 1 -1.643.437l-.325-1.22-2.937 3.773a1.1 1.1 0 0 1 -1.878-.24l-.995-3.21h-2.093c-1.243 0-2.162-.715-2.646-1.991a.85.85 0 0 1 1.59-.604c.227.6.513.856.945.891l1.681.004-.198-.643h-.372a.85.85 0 1 1 0-1.7h2a.85.85 0 0 1 .147 1.687l1.185 3.852 3.021-3.881-.122-.458h-1.231a.855.855 0 0 1 -.85-.85c0-.433.353-.85.85-.85zm-8.385 6.7a1.15 1.15 0 1 0 0 2.3 1.15 1.15 0 0 0 0-2.3zm10.25 0a1.15 1.15 0 1 0 0 2.3 1.15 1.15 0 0 0 0-2.3z" fill="#282D37" style="fill: currentColor;fill: var(--db-icon-color, currentColor)" fill-rule="evenodd"/></svg>