<svg id="icon" height="20" viewBox="0 0 20 20" width="20" xmlns="http://www.w3.org/2000/svg"><path d="m4 15.003v-9.987c0-.508.39-.996 1.016-1.016.196 0 .391.059.567.176l6.204 4.456c.45.313.723.82.723 1.368 0 .528-.274 1.055-.723 1.348l-6.243 4.496a1.05 1.05 0 0 1 -.547.156.988.988 0 0 1 -.997-.997zm10.007-.996v-8.014a1 1 0 0 1 .996-.996c.547 0 .997.45.997.997v8.013a1 1 0 0 1 -.997.996 1 1 0 0 1 -.996-.996z" fill="#282D37" style="fill: currentColor;fill: var(--db-icon-color, currentColor)" fill-rule="evenodd"/></svg>