<svg id="icon" height="64" viewBox="0 0 64 64" width="64" xmlns="http://www.w3.org/2000/svg"><g fill="none" fill-rule="evenodd" transform="translate(7 8)"><path d="m29.5 20a1.5 1.5 0 1 1 0 3 1.5 1.5 0 0 1 0-3zm9 0a1.5 1.5 0 1 1 0 3 1.5 1.5 0 0 1 0-3zm9 0a1.5 1.5 0 1 1 0 3 1.5 1.5 0 0 1 0-3zm-16-6a1.5 1.5 0 1 1 0 3 1.5 1.5 0 0 1 0-3zm7 0a1.5 1.5 0 1 1 0 3 1.5 1.5 0 0 1 0-3zm7 0a1.5 1.5 0 1 1 0 3 1.5 1.5 0 0 1 0-3zm-12-6a1.5 1.5 0 1 1 0 3 1.5 1.5 0 0 1 0-3zm5 0a1.5 1.5 0 1 1 0 3 1.5 1.5 0 0 1 0-3zm5 0a1.5 1.5 0 1 1 0 3 1.5 1.5 0 0 1 0-3zm-5-8c3.013 0 5.5 2.21 5.5 5a1 1 0 0 1 -2 0c0-1.629-1.543-3-3.5-3-1.89 0-3.393 1.278-3.495 2.832l-.005.168a1 1 0 0 1 -2 0c0-2.79 2.487-5 5.5-5z" fill="#282D37" style="fill: currentColor;fill: var(--db-icon-color, currentColor)" fill-rule="nonzero"/><path d="m17.651 16.711a4.008 4.008 0 0 1 5.418.806l.127.168.12.18c1.072 1.702.7 3.937-.827 5.173l-.168.128-3.498 2.833 14.162.001c1.81.012 3.285 1.305 3.474 3.04l.015.188.005.191-.01.27a3.61 3.61 0 0 1 -.206.977l-.092.227-.05.106.379.001c1.815 0 3.29 1.315 3.48 3.062l.015.19.005.191-.005.21c-.096 1.79-1.519 3.246-3.303 3.342l-.192.005h-.343l.015.03c.138.307.233.637.278.985l.024.264.005.192a3.51 3.51 0 0 1 -3.322 3.499l-.192.005-.748.002a.997.997 0 0 1 -.1.016l-.117.007h-1.516l.028.056c.136.305.23.633.274.975l.023.259.005.188-.005.211a3.51 3.51 0 0 1 -3.32 3.306l-.192.005h-13.681c-8.23 0-13.616-5.34-13.616-12.503 0-4.293 1.498-6.983 5.337-10.12l.316-.256.585-.457.617-.465.322-.236.33-.24.684-.485.72-.498 1.675-1.14zm3.814 2.003a2.009 2.009 0 0 0 -2.53-.45l-.146.092-6.806 4.71-2.297 1.568-.681.477-.645.464-.31.227-.59.446-.557.435-.521.427c-3.2 2.68-4.382 4.924-4.382 8.387 0 5.958 4.345 10.361 11.278 10.5l.338.003h13.681c.792 0 1.441-.602 1.51-1.366l.007-.137-.007-.16a1.505 1.505 0 0 0 -1.144-1.322l-.084-.015h-7.579a1 1 0 0 1 -.116-1.993l.116-.007h7.33l.088-.01.091-.004 5.454-.01a1.51 1.51 0 0 0 1.516-1.504c0-.78-.57-1.394-1.335-1.464l-.144-.008h-13a1 1 0 0 1 -.116-1.993l.116-.007h16.501c.73.001 1.347-.547 1.475-1.264l.018-.136.006-.14-.007-.159c-.065-.698-.615-1.23-1.345-1.295l-.148-.006h-16.5a1 1 0 0 1 -.116-1.993l.116-.007h13l.133-.006c.702-.069 1.275-.672 1.34-1.42l.006-.142-.007-.152c-.065-.684-.613-1.206-1.345-1.273l-.149-.007h-16.978c-.903 0-1.326-1.087-.715-1.7l.086-.077 5.735-4.644a1.97 1.97 0 0 0 .545-2.602l-.087-.135z" fill="#EC0016" style="fill:#EC0016;fill: var(--db-icon-pulse-color, #EC0016)"/></g></svg>
