<svg id="icon" height="24" viewBox="0 0 24 24" width="24" xmlns="http://www.w3.org/2000/svg"><path d="m6.894 7.999c0 .513-.418 1.001-1 1.001-.55.003-1.1.003-1.65.002-.14-.009-.264.127-.242.31.524 2.104 1.05 4.207 1.578 6.31a.513.513 0 0 0 .485.378c1.11.002 2.219.002 3.329 0 1.099 0 1.676.332 2.43 1.534.495 1.005.985 2.015 1.47 3.03a1 1 0 0 1 -1.743.975l-1.537-3.158c-.083-.153-.246-.38-.533-.38l-3.416-.001a2.5 2.5 0 0 1 -2.378-1.729l-1.625-6.473c-.302-1.206.515-2.798 2.18-2.796l1.65-.002a1 1 0 0 1 1.002.999zm11.606-3.999a1.5 1.5 0 0 1 1.5 1.5l.001.837a3.51 3.51 0 0 1 1.999 3.163v8c0 1.325-.99 2.447-2.5 2.5h-2a2.5 2.5 0 0 1 -2.495-2.336l-.005-8.164a3.5 3.5 0 0 1 2-3.163v-.837a1.5 1.5 0 0 1 1.5-1.5zm0 4c-.78 0-1.494.569-1.494 1.467l-.006.533h1a1 1 0 0 1 0 2h-1v2h1a1 1 0 0 1 0 2h-1v1.5c0 .245.27.5.5.5.667.003 1.333.003 2 0 .245 0 .5-.125.5-.5v-8.033c0-.827-.672-1.467-1.5-1.467zm-9.435 1.19 2.213.88a1 1 0 0 1 -.629 1.896l-1.417-.557-.19 1.591h2.852c.596 0 1 .487 1 1s-.404 1-1 1c-1.326.002-2.652.002-3.979 0a1 1 0 0 1 -1-1l.447-3.796c.077-.643.674-1.345 1.703-1.013zm.329-3.94a1.5 1.5 0 1 1 0 3 1.5 1.5 0 0 1 0-3zm-4-3.25a2 2 0 1 1 0 4 2 2 0 0 1 0-4z" fill="var(--db-icon-color, currentColor)" fill-rule="evenodd"/></svg>
