<svg id="icon" height="24" viewBox="0 0 24 24" width="24" xmlns="http://www.w3.org/2000/svg"><path d="m16.956 5a2.06 2.06 0 0 1 2.044 2.044v9.912c0 1.175-.987 2.044-2.02 2.044-.423 0-.822-.14-1.175-.376l-6.453-4.956c-.54-.376-.845-1.01-.845-1.668s.305-1.292.845-1.668l6.453-4.956c.353-.235.752-.376 1.151-.376zm.044 2-6.5 5 6.5 5zm-10.003 10.003v-10.03a.993.993 0 0 0 -.987-.986c-.54 0-1.01.446-1.01.986v10.03c0 .54.446.987 1.01.987.54 0 .987-.446.987-.987z" fill="#282D37" style="fill: currentColor;fill: var(--db-icon-color, currentColor)" fill-rule="evenodd"/></svg>
