<svg id="icon" height="32" viewBox="0 0 32 32" width="32" xmlns="http://www.w3.org/2000/svg"><path d="m8.969 7c.406 0 .812.125 1.156.344l10.031 7.031c.532.375.844.969.844 1.625s-.313 1.25-.844 1.625l-10.031 7.031c-.344.219-.75.344-1.156.344-1.094 0-1.969-.906-1.969-2v-14c0-1.094.906-2 1.969-2zm.031 2 .031 14 9.969-7zm14 14v-14c0-.563.438-1 1-1 .563 0 1 .438 1 1v14c0 .563-.438 1-1 1-.563 0-1-.438-1-1z" fill="#282D37" style="fill: currentColor;fill: var(--db-icon-color, currentColor)" fill-rule="evenodd"/></svg>
