<svg id="icon" height="32" viewBox="0 0 32 32" width="32" xmlns="http://www.w3.org/2000/svg"><path d="m28.7 18.99c0-6.11-5.026-11.031-11.147-10.967l1.32-1.318a.997.997 0 0 0 .29-.708.983.983 0 0 0 -.998-.997 1 1 0 0 0 -.709.29l-3.156 3.15a.997.997 0 0 0 -.29.708 1 1 0 0 0 .29.708l3.157 3.152a1 1 0 0 0 .71.29c.58 0 .998-.451.998-.998a.997.997 0 0 0 -.29-.708l-1.579-1.576c4.994-.225 9.407 3.763 9.407 8.942a8.95 8.95 0 0 1 -2.223 5.918.982.982 0 0 0 -.225.643c0 .579.419 1.03.998 1.03a.946.946 0 0 0 .665-.264l.076-.09c1.771-1.995 2.706-4.568 2.706-7.205zm-23.7-.213c0-.353.226-.74.548-.9l2.931-1.48a.993.993 0 0 1 .419-.096c.451 0 1.03.321 1.03.997v7.708h2.095c.548 0 .999.419.999.997 0 .547-.451.998-1 .998h-5.99c-.548 0-.999-.45-.999-.998 0-.578.451-.997.999-.997h1.9v-6.068l-1.481.74a.994.994 0 0 1 -.42.096c-.547 0-1.03-.482-1.03-.997zm13.015-2.777c2.32 0 3.994 1.5 3.994 4.02v2.927c0 2.553-1.74 4.02-3.994 4.053-2.255.032-3.963-1.5-3.963-3.989v-3.087c0-2.424 1.772-3.924 3.963-3.924zm0 1.994c-1.385 0-1.998.611-1.998 1.93v3.087c0 1.448.58 2.027 1.998 2.027 1.385 0 2.03-.676 2.03-2.091v-2.927c0-1.447-.58-2.026-2.03-2.026z" fill="#282D37" style="fill: currentColor;fill: var(--db-icon-color, currentColor)" fill-rule="evenodd"/></svg>
