<svg id="icon" height="32" viewBox="0 0 32 32" width="32" xmlns="http://www.w3.org/2000/svg"><path d="m7.869 2.5c.967 0 1.966.374 2.715 1.122l3.153 3.056a3.828 3.828 0 0 1 1.122 2.705c0 .998-.375 1.997-1.125 2.715l-1.5 1.467c1.25 1.623 4.72 5.12 6.25 6.212l1.657-1.654c.625-.625 1.53-.906 2.437-.906 1.031 0 2.053.342 2.802 1.09l3.027 3.087c.75.748 1.093 1.683 1.093 2.681 0 .904-.312 1.87-.999 2.619-1.81 2.12-3.246 2.806-5.306 2.806-3.59 0-8.24-2.525-13.242-7.476-4.956-4.994-7.453-9.64-7.453-13.194 0-2.245.812-3.648 2.934-5.456a3.767 3.767 0 0 1 2.436-.874zm.031 1.964c-.5 0-.999.187-1.342.5-1.686 1.496-2.154 2.336-2.154 3.864 0 2.962 2.31 7.171 6.924 11.853 4.625 4.609 8.87 6.885 11.867 6.885 1.467 0 2.372-.436 3.87-2.151.344-.437.5-.904.5-1.34 0-.5-.188-.967-.53-1.342l-3.02-3.05a1.8 1.8 0 0 0 -1.312-.563 1.83 1.83 0 0 0 -1.25.469l-2.187 2.153a.97.97 0 0 1 -.688.281 1.05 1.05 0 0 1 -.531-.156c-1.563-1.061-2.969-2.247-4.313-3.558a29.324 29.324 0 0 1 -3.562-4.308 1.077 1.077 0 0 1 -.156-.562c0-.25.093-.499.28-.686l2.063-1.998c.407-.375.594-.874.594-1.373 0-.469-.187-.968-.594-1.343l-3.086-3.014a1.938 1.938 0 0 0 -1.373-.56z" fill="#282D37" style="fill: currentColor;fill: var(--db-icon-color, currentColor)" fill-rule="evenodd"/></svg>
