<svg id="icon" height="20" viewBox="0 0 20 20" width="20" xmlns="http://www.w3.org/2000/svg"><path d="m10 2c3.469 0 6 2.594 6 6 0 1.375-.625 2.906-1.75 4.563l-3.438 5a.942.942 0 0 1 -.812.437.942.942 0 0 1 -.813-.438l-3.437-5c-1.156-1.686-1.75-3.186-1.75-4.562 0-3.313 2.438-6 6-6zm0 2c-2.469 0-4 1.5-4 3.906 0 1.219.656 2.375 1.375 3.375l2.625 3.719 2.625-3.719c.688-1 1.375-2.156 1.375-3.375 0-2.406-1.531-3.906-4-3.906zm-2 4c0-1.094.906-2 2-2s2 .906 2 2-.906 2-2 2-2-.906-2-2z" fill="#282D37" style="fill: currentColor;fill: var(--db-icon-color, currentColor)" fill-rule="evenodd"/></svg>