<svg id="icon" height="24" viewBox="0 0 24 24" width="24" xmlns="http://www.w3.org/2000/svg"><path d="m11.52 22c-4.299 0-7.54-3.27-7.54-7.607 0-1.709.701-3.59 2.085-5.592 0 0 2.79-4.156 4.063-6.065a1.65 1.65 0 0 1 1.371-.736h.003c.55 0 1.061.272 1.37.73l.001.004c1.274 1.91 4.072 6.074 4.072 6.075 1.376 1.99 2.077 3.872 2.077 5.581 0 4.339-3.226 7.61-7.503 7.61zm-.018-17.725c-1.365 2.042-3.788 5.65-3.788 5.65-1.155 1.673-1.738 3.173-1.738 4.468 0 3.252 2.332 5.61 5.543 5.61 3.192 0 5.507-2.36 5.507-5.613 0-1.295-.582-2.795-1.73-4.457-.007-.01-2.428-3.614-3.793-5.658z" fill="#282D37" style="fill: currentColor;fill: var(--db-icon-color, currentColor)" fill-rule="evenodd"/></svg>
