<svg id="icon" height="32" viewBox="0 0 32 32" width="32" xmlns="http://www.w3.org/2000/svg"><path d="m29 27c.5522847 0 1 .4477153 1 1s-.4477153 1-1 1h-26c-.55228475 0-1-.4477153-1-1s.44771525-1 1-1zm-9.929-24c1.0921559.02944854 1.9547411.9367504 1.929 2.029v1.971h5.07c1.0880946.0245915 1.9512187.92483441 1.93 2.013v13.981c.0212187 1.0881656-.8419054 1.9884085-1.93 2.013l-20.07-.007c-1.08809459-.0245915-2.02121869-.9178344-2-2.006v-13.981c-.02121869-1.08816559.84190541-1.9884085 1.93-2.013h5.07v-1.971c-.0257411-1.0922496.8368441-1.99955146 1.929-2.029zm6.929 6h-20l.06951341 13.9870065 19.93048659.0129935zm-3 2c.5522847 0 1 .4477153 1 1v8c0 .5522847-.4477153 1-1 1s-1-.4477153-1-1v-8c0-.5522847.4477153-1 1-1zm-14 0c.55228475 0 1 .4477153 1 1v8c0 .5522847-.44771525 1-1 1s-1-.4477153-1-1v-8c0-.5522847.44771525-1 1-1zm4-6 .0523802 2h5.9476198v-1.971z" fill="var(--db-icon-color, currentColor)" fill-rule="evenodd"/></svg>
