<svg id="icon" height="32" viewBox="0 0 32 32" width="32" xmlns="http://www.w3.org/2000/svg"><path d="m3 27v-22a3 3 0 0 1 3-3h7.5c.531 0 1 .438 1 1 0 .563-.469 1-1 1h-7.5c-.563 0-1 .438-1 1v22c0 .563.438 1 1 1h14c.563 0 1-.438 1-1v-8c0-.563.438-1 1-1 .563 0 1 .438 1 1v8a3 3 0 0 1 -3 3h-14a3 3 0 0 1 -3-3zm4-4c0-.563.438-1 1-1h1c.563 0 1 .438 1 1 0 .563-.438 1-1 1h-1c-.563 0-1-.438-1-1zm4.5 0c0-.563.438-1 1-1h1c.563 0 1 .438 1 1 0 .563-.438 1-1 1h-1c-.563 0-1-.438-1-1zm4.5 0c0-.563.438-1 1-1h1c.563 0 1 .438 1 1 0 .563-.438 1-1 1h-1c-.563 0-1-.438-1-1zm6-21c3.875 0 7 3.125 7 7s-3.125 7-7 7-7-3.125-7-7 3.125-7 7-7zm0 2c-2.75 0-5 2.25-5 5s2.25 5 5 5 5-2.25 5-5-2.25-5-5-5zm-.028 2.44-1.946 1.945a.973.973 0 0 0 0 1.378l1.963 1.945a.973.973 0 0 0 1.37-1.384l-1.266-1.254 1.255-1.255a.974.974 0 0 0 -1.376-1.375z" fill="var(--db-icon-color, currentColor)" fill-rule="evenodd"/></svg>
