<svg id="icon" height="20" viewBox="0 0 20 20" width="20" xmlns="http://www.w3.org/2000/svg"><path d="m18.004 8.391c.002.468.002.936 0 1.405 0 .192-.126.391-.392.39l-1.088.001c.003.393.003.786 0 1.18 0 .171-.135.39-.39.39-.384.003-.766.003-1.15 0 .005.277.007.538.007.783-.016.153-.02.173-.123.288-.176.164-.456.428-.842.792.203.461.29.94.264 1.437a3.131 3.131 0 0 1 -5.341 2.048c-.859-.859-1.557-2.767 0-4.428a3.123 3.123 0 0 1 2.316-.916c.323.01.598.057.824.138 1.254-1.264 2.51-2.525 3.767-3.784a.347.347 0 0 1 .277-.115c.74-.002.74-.004 1.48 0 .318.002.39.274.39.391zm-7.288 5.72a1.181 1.181 0 1 0 0 2.363 1.181 1.181 0 0 0 0-2.363zm2.914-12.111c.84 0 1.64.594 1.859 1.41.29 1.048.517 2.05.681 3.008-.575-.054-1.13.31-1.313.463l-.133.12a152.172 152.172 0 0 1 -3.176 3.175 4.698 4.698 0 0 0 -3.731 1.37c-.632.631-1.444 1.78-1.383 3.511h-2.434v-2.231a2.515 2.515 0 0 1 -.625-1.395l-.271-2.431h-1.104v-2h1.696l.761-3.432c.238-.805.943-1.561 1.838-1.561zm-9.611 7.915a.75.75 0 0 0 .464.87l1.56.367a.75.75 0 0 0 .434-1.432l-1.559-.367a.75.75 0 0 0 -.9.562zm9.939-6.215h-7.915l-.643 3.3h9.2z" fill="var(--db-icon-color, currentColor)" fill-rule="evenodd"/></svg>
