<?xml version="1.0" encoding="UTF-8"?><svg id="a" xmlns="http://www.w3.org/2000/svg" viewBox="0 0 70 55"><defs><style>.b{letter-spacing:0em;}.c{font-family:DBSans-Bold, DB Sans;font-size:12px;}</style></defs><path d="M61.29,12c1.22,0,2.21,.99,2.21,2.21v26.57c0,1.22-.99,2.21-2.21,2.21H8.71c-1.22,0-2.21-.99-2.21-2.21V14.21c0-1.22,.99-2.21,2.21-2.21H61.29m0-2H8.71c-2.33,0-4.21,1.89-4.21,4.21v26.57c0,2.33,1.89,4.21,4.21,4.21H61.29c2.33,0,4.21-1.89,4.21-4.21V14.21c0-2.33-1.89-4.21-4.21-4.21h0Z"/><text class="c" transform="translate(14.84 31.32)"><tspan class="b" x="0" y="0">B</tspan><tspan x="8.19" y="0">utton</tspan></text></svg>