<svg id="icon" height="20" viewBox="0 0 20 20" width="20" xmlns="http://www.w3.org/2000/svg"><path d="m15.412 2c1.51 0 2.588 1.132 2.588 2.499v8.003a2.509 2.509 0 0 1 -2.51 2.498h-8.647c-.294 0-.549.079-.725.274l-2.412 2.44c-.627.624-1.706.156-1.706-.722v-12.493c0-1.367 1.137-2.499 2.53-2.499zm.588 2h-12v10.6l.727-.685c.53-.508 1.217-.876 1.944-.915h9.329zm-7.075 7.093c0 .625.51 1.093 1.098 1.093s1.098-.468 1.098-1.093a1.12 1.12 0 0 0 -1.098-1.093c-.588 0-1.098.508-1.098 1.093zm.075-2.091v-4.002h2v4.002z" fill="var(--db-icon-color, currentColor)" fill-rule="evenodd"/></svg>
