<svg id="icon" height="64" viewBox="0 0 64 64" width="64" xmlns="http://www.w3.org/2000/svg"><g fill="none" fill-rule="evenodd" transform="translate(5 15)"><path d="m45.289 0a3.716 3.716 0 0 1 3.711 3.712v12.045a1 1 0 1 1 -2 0v-12.045c0-.619-.332-1.156-.824-1.457l-13.695 12.629 3.414 2.717a1 1 0 0 1 -1.246 1.565l-3.656-2.911-4.527 4.174a2.762 2.762 0 0 1 -1.957.796 2.835 2.835 0 0 1 -2.002-.821l-4.503-4.147-15.394 12.253c.299.254.68.412 1.101.412h27.455a1 1 0 0 1 0 2h-27.455a3.715 3.715 0 0 1 -3.711-3.71v-23.5a3.716 3.716 0 0 1 3.711-3.712zm-42.481 2.264a1.707 1.707 0 0 0 -.808 1.448v22.729l14.516-11.554zm40.695-.264h-38.03l18.416 16.959c.343.339.879.339 1.195.025z" fill="var(--db-icon-color, currentColor)" fill-rule="nonzero"/><path d="m49.531 25.344c0 .25-.062.5-.312.75l-6.375 6.344a1.02 1.02 0 0 1 -.719.312c-.25 0-.469-.094-.688-.312l-2.719-2.72a1.046 1.046 0 0 1 -.281-.718c0-.562.469-1 1-1 .281 0 .469.094.688.313l2.031 2 5.656-5.657a.973.973 0 0 1 .688-.281c.562 0 1.031.469 1.031.969m-5.531 10.656c-4.438 0-8-3.562-8-8 0-4.437 3.562-8 8-8 4.437 0 8 3.563 8 8 0 4.438-3.563 8-8 8m0-18c-5.532 0-10 4.469-10 10 0 5.53 4.468 10 10 10a9.99 9.99 0 0 0 10-10 9.99 9.99 0 0 0 -10-10" fill="var(--db-icon-pulse-color, #EC0016)"/></g></svg>
