<svg id="icon" height="64" viewBox="0 0 64 64" width="64" xmlns="http://www.w3.org/2000/svg"><g fill="none" fill-rule="evenodd" transform="translate(4 16.947)"><path d="m38.957.765c4.312.686 7.491 1.974 9.687 3.823a1 1 0 1 1 -1.288 1.53c-1.891-1.593-4.736-2.745-8.705-3.376-8.71-1.314-15.824-.45-21.395 1.78-1.474.59-2.837 1.3-4.09 2.132-.517.777-1.352.507-1.658.11-.561-.761-1.312-1.233-2-1.597-1.021-.559-2.198-.861-3.408-1.458.278 2.108 1.3 3.851 3.002 4.39a1 1 0 0 1 .651 1.256c-.167.527-.718 1.034-1.92.396-.43.203-1.083.827-1.96 1.871-1.389 1.597-2.506 2.557-3.846 2.68l.049 1.918c2.187.33 2.73.96 4.882 2.942 2.151 1.982 4.392 2.762 9.173 2.409.584-.075 1.015.03 1.294.317 2.456 3.249 2.553 4.893 1.629 7.666-.3.948-.935 2.08-1.907 3.399h2.105a20.121 20.121 0 0 0 2.078-5.742c.07-.28.17-.55.3-.821l2.357-3.774a29.153 29.153 0 0 0 -.561-3.238 1 1 0 0 1 1.948-.45c.307 1.329.507 2.472.601 3.431 3.53.76 8.131.758 12.118-.205a13.225 13.225 0 0 1 -1.321-2.53 1 1 0 0 1 1.856-.742c1.12 2.799 2.214 3.408 3.635 4.91 1.42 1.504 1.685 3.03.79 5.862-.311.987-.947 2.12-1.906 3.399h2.314c1.455-1.103 2.012-2.27 2.31-4.475.297-2.206.324-5.486 2.386-8.535 3.012-4.03 3.542-5.972 3.153-8.646a1 1 0 0 1 1.98-.288c.458 3.154 0 5.313-3.318 9.824-1.828 2.484-1.825 5.02-2.22 7.916-.397 2.897-1.132 4.352-3.355 6.006a1 1 0 0 1 -.469.19l-4.828.008a1 1 0 0 1 -.76-1.65c1.585-1.873 2.57-3.488 2.956-4.847.49-1.726.348-2.457-.383-3.277a290.75 290.75 0 0 1 -1.45-1.44c-4.421 1.333-10.289 1.314-14.127.426l-1.904 2.995a2.263 2.263 0 0 0 -.153.398c-.825 3.94-2.231 6.28-2.67 6.883a1 1 0 0 1 -.69.405l-4.819.007a1 1 0 0 1 -.76-1.65c1.546-1.873 2.483-3.328 2.811-4.366.688-2.062.674-3.152-.985-5.365-6.79.561-9.208-1.684-10.969-3.321-1.675-1.674-2.571-2.071-4.114-2.098a1 1 0 0 1 -.973-.861l-.11-4.013a1 1 0 0 1 1.068-1.024c.95.16 1.543-.121 2.483-1.062.869-.895 1.935-2.263 2.541-2.686-2.096-2.214-2.13-5.771-2.09-6.506a1 1 0 0 1 1.454-.838c.885.466 1.945.948 3.178 1.448 2.404.88 3.31 1.708 3.774 2.14.919-.635 2.709-1.527 4.105-2.086 5.898-2.36 13.371-3.268 22.444-1.9zm-29.757 11.288c.442 0 .8.403.8.9s-.358.9-.8.9-.8-.403-.8-.9.358-.9.8-.9z" fill="#282D37" style="fill: currentColor;fill: var(--db-icon-color, currentColor)" fill-rule="nonzero"/><path d="m48.153.359c1.73-.865 3.698-.115 4.305 1.707a6.54 6.54 0 0 1 .258 2.345c.672-.47 1.115-1.053 1.328-1.75a1 1 0 1 1 1.912.584c-.553 1.811-2.043 3.082-3.888 3.652-.724 1.554-2.221 2.99-4.476 3.438-.519.12-1.068-.248-1.173-.79a1 1 0 0 1 .79-1.173c.911-.178 1.768-.649 2.317-1.275-1.31-.163-2.71-1.032-3.175-2.428-.564-1.691.175-3.497 1.802-4.31zm2.398 2.31c-.204-.612-.839-.854-1.504-.521-.733.366-1.049 1.138-.812 1.85.318.84 1.233 1.23 2.345 1.155.243-.887.175-1.872-.029-2.484z" fill="#EC0016" style="fill:#EC0016;fill: var(--db-icon-pulse-color, #EC0016)"/></g></svg>
