<svg id="icon" height="20" viewBox="0 0 20 20" width="20" xmlns="http://www.w3.org/2000/svg"><path d="m9.99579595 3c1.65917605 0 3.00420405 1.34502797 3.00420405 3.00420405 0 1.20420806-.6452659 1.99655639-1.8231603 2.69677223-.0622925.03703068-.1454066.11710844-.1697834.28473578l5.5437645 2.40749074c1.2164684.5322081 1.771171 1.9497904 1.238963 3.1662588-.3589261.8203976-1.1412439 1.3686479-2.0246725 1.4339745l-11.35228423.0065639c-1.32779543 0-2.4041863-1.0763909-2.4041863-2.4041863 0-.8954776.49697545-1.71133 1.28014999-2.1252759 3.80834499-1.6565505 5.71251748-2.48570259 5.71251748-2.4874563.01224615-.34284405.07493189-.65759858.25054274-1.02057474.19271153-.39832217.49292488-.73692368.90300382-.98070084.6350653-.37752351.8451452-.63548919.8451452-.97760187 0-.55460658-.4495975-1.00420405-1.00420405-1.00420405-.42752212 0-.90892425.31887466-1.0305748.76458779-.14438642.53307692-.69357898.84817283-1.2266559.7037864s-.84817283-.69357898-.7037864-1.2266559c.35145523-1.29757816 1.59426692-2.24171829 2.9610171-2.24171829zm-.39158892 7.89138-5.35338623 2.3341358c-.14711827.0643646-.24218003.2097159-.24218003.3702979 0 .1953227.11637449.3672448.37972593.4041863h11.1988062c.1605821 0 .3059333-.0950618.3702979-.24218.0782894-.1789462.016677-.3837787-.136955-.4921312l-5.3495137-2.3450345c-.1865193-.0779322-.3449214-.1168984-.47520615-.1168984-.11667362 0-.24720326.029208-.39158892.0876241z" fill="var(--db-icon-color, currentColor)" fill-rule="evenodd"/></svg>
