<svg id="icon" height="24" viewBox="0 0 24 24" width="24" xmlns="http://www.w3.org/2000/svg"><path d="m19.111 9.162c.771 0 1.182.08 1.61.308.4.214.719.533.933.933.21.393.294.77.306 1.425l.002 7.283c0 .77-.08 1.182-.308 1.61-.214.4-.533.719-.933.933-.392.21-.77.294-1.424.306l-2.976.002c-.771 0-1.182-.08-1.61-.308a2.255 2.255 0 0 1 -.933-.933c-.21-.393-.294-.77-.306-1.425l-.002-7.283c0-.77.08-1.182.308-1.61.214-.4.533-.72.933-.933.392-.21.77-.294 1.424-.306zm-3.795 10a.6.6 0 0 0 -.081 1.195l1.081.005a.602.602 0 0 0 .602-.56.601.601 0 0 0 -.521-.635zm3.8 0a.6.6 0 0 0 -.081 1.195l1.081.005a.602.602 0 0 0 .602-.56.601.601 0 0 0 -.521-.635zm-8.106-1.177a1 1 0 0 1 0 2h-6.04a1 1 0 1 1 0-2zm8.548-7.223-3.74.002a.799.799 0 0 0 -.743.76l.38 5.475c.044.429.12.96.914.96l2.575.003c.893 0 .995-.476 1.024-.845l.39-5.555a.8.8 0 0 0 -.8-.8zm-3.539-6.762a2.984 2.984 0 0 1 2.984 2.985 1 1 0 1 1 -2 0 .985.985 0 0 0 -.984-.985h-11.019a1 1 0 0 0 -1 1v6.019a1 1 0 0 0 1 1h5.965a1 1 0 0 1 0 2h-5.965a3 3 0 0 1 -3-3v-6.019a3 3 0 0 1 3-3zm-7.105 3.61c.079 0 .149.024.22.07l3.078 1.78a.663.663 0 0 1 0 1.093l-3.086 1.787a.402.402 0 0 1 -.567-.123.411.411 0 0 1 -.058-.205v-3.988c0-.226.195-.414.413-.414z" fill="var(--db-icon-color, currentColor)" fill-rule="evenodd"/></svg>
