<svg id="icon" height="24" viewBox="0 0 24 24" width="24" xmlns="http://www.w3.org/2000/svg"><path d="m21 4h-10a1 1 0 1 1 0-2h10a1 1 0 1 1 0 2zm0 4h-6a1 1 0 1 1 0-2h6a1 1 0 1 1 0 2zm0 4h-2a1 1 0 1 1 0-2h2a1 1 0 1 1 0 2zm-9.293 4.293a.999.999 0 0 0 -1.414 0l-2.293 2.293v-11.586a1 1 0 1 0 -2 0v11.586l-2.293-2.293a.999.999 0 1 0 -1.414 1.414l4 4a.997.997 0 0 0 1.414 0l4-4a.999.999 0 0 0 0-1.414z" fill="#282D37" style="fill: currentColor;fill: var(--db-icon-color, currentColor)" fill-rule="evenodd"/></svg>
