<svg id="icon" height="32" viewBox="0 0 32 32" width="32" xmlns="http://www.w3.org/2000/svg"><path d="m6.387 21c.706 0 1.384.181 1.945.49.391.216.545.73.344 1.148s-.681.583-1.072.368a2.56 2.56 0 0 0 -1.217-.302c-.408 0-.547.142-.547.485 0 .402.207.696.907 1.245l.352.267c1.379 1.025 1.901 1.639 1.901 2.859 0 1.43-1.066 2.44-2.501 2.44a3.858 3.858 0 0 1 -2.13-.652c-.37-.252-.48-.778-.245-1.176a.768.768 0 0 1 1.004-.318l.095.056c.346.235.817.386 1.276.386.596 0 .909-.297.909-.736 0-.303-.126-.545-.513-.896l-.239-.204-.295-.231-.191-.144c-1.394-1.036-1.922-1.657-1.922-2.896 0-1.304.87-2.189 2.139-2.189zm12.215 0c1.548 0 2.398.974 2.398 2.776 0 1.734-.771 2.673-2.214 2.745l-.184.005h-1.01v2.622c0 .434-.304.793-.696.845l-.1.007c-.406 0-.74-.325-.79-.745l-.006-.107v-7.296c0-.434.304-.793.696-.845l.1-.007zm-4.537 0c.44 0 .796.381.796.852 0 .434-.304.793-.696.845l-.1.007h-2.475v1.77h1.88c.44 0 .796.382.796.852 0 .435-.304.793-.697.846l-.1.006h-1.879v2.117h2.613c.406 0 .74.326.79.746l.006.107c0 .434-.304.793-.696.845l-.1.007h-3.408c-.406 0-.74-.325-.79-.745l-.005-.107v-7.296c0-.434.304-.793.696-.845l.1-.007zm11.365.377.062.105.048.117 2.419 7.296c.149.449-.119.927-.598 1.066-.442.13-.91-.075-1.096-.46l-.04-.1-.648-1.955h-2.06l-.753 1.987c-.154.407-.603.635-1.041.549l-.119-.031c-.433-.145-.677-.566-.585-.977l.034-.112 2.764-7.295c.262-.69 1.227-.746 1.613-.19zm-.815 3.17-.453 1.195h.85l-.397-1.196zm-7.023-1.843v2.117h1.01c.663 0 .806-.16.806-1.045 0-.834-.144-1.048-.697-1.07l-.109-.002zm8.408-20.704c1.656 0 3 1.375 3 3v10.985c0 1.656-1.375 3-3 3h-20c-1.656 0-3-1.375-3-3v-10.985c0-1.656 1.344-3 3-3zm0 2h-20a1 1 0 0 0 -1 1v11a1 1 0 0 0 1 1h20a1 1 0 0 0 1-1v-11a1 1 0 0 0 -1-1zm-8 9a1 1 0 0 1 0 2h-10a1 1 0 0 1 0-2zm6-7a1 1 0 0 1 1 1v1a1 1 0 0 1 -1 1h-1a1 1 0 0 1 -1-1v-1a1 1 0 0 1 1-1z" fill="#282D37" style="fill: currentColor;fill: var(--db-icon-color, currentColor)" fill-rule="evenodd"/></svg>
