<svg id="icon" height="24" viewBox="0 0 24 24" width="24" xmlns="http://www.w3.org/2000/svg"><path d="m12 2a5 5 0 0 1 4.842 3.755 1 1 0 0 1 -1.937.496 3 3 0 0 0 -5.903.747c-.002.667-.002 1.335 0 2.002h7.998a2 2 0 0 1 2 2v8.001a2 2 0 0 1 -2 2h-10.001a2 2 0 0 1 -2-2v-8.001c0-1.054.83-2 2.003-2a322.45 322.45 0 0 1 0-2.002 4.998 4.998 0 0 1 4.998-4.998zm5 17.001v-8.001h-10.001v8.001zm-5-6.001c.513 0 .998.417 1 1 .002.666.002 1.333 0 2a1 1 0 0 1 -2 0c-.002-.666-.002-1.333 0-2a1 1 0 0 1 1-1z" fill="#282D37" style="fill: currentColor;fill: var(--db-icon-color, currentColor)" fill-rule="evenodd"/></svg>
