<svg id="icon" height="32" viewBox="0 0 32 32" width="32" xmlns="http://www.w3.org/2000/svg"><path d="m22.333 19a9 9 0 0 1 5.122 1.6c1.002.693 1.717 1.226 2.145 1.6a1 1 0 0 1 .2 1.4c-.306.408-.919.538-1.295.269-.25-.18-.908-.669-1.972-1.469a7 7 0 0 0 -3.897-1.393l-3.574-.007a1.64 1.64 0 0 0 -1.592 1.243.618.618 0 0 0 .517.757h4.013a1 1 0 0 1 1 1c0 .513-.414.995-1 1h-3.94c-.861-.012-1.202-.185-3.178-1-.54-.223-1.513-.61-2.917-1.16a3.492 3.492 0 0 0 -3.365.46c-.156.117-.232.48.091.615.21.086 2.651.974 7.326 2.664a7 7 0 0 0 2.043.412l5.148.009a9 9 0 0 1 1.415.112l4.573.907a1 1 0 0 1 .785 1.177 1.008 1.008 0 0 1 -1.177.785l-4.223-.845a7 7 0 0 0 -1.028-.127l-5.143-.009a9 9 0 0 1 -2.703-.416l-7.698-2.79a2.353 2.353 0 0 1 -.609-4.094 5.492 5.492 0 0 1 5.05-.81l3.022 1.174c.234-1.75 1.878-3.064 3.528-3.064zm-11.333-2a1 1 0 1 1 0 2 1 1 0 0 1 0-2zm3.75-.75a1 1 0 1 1 0 2 1 1 0 0 1 0-2zm-7.5 0a1 1 0 1 1 0 2 1 1 0 0 1 0-2zm3.75-2.25a1 1 0 1 1 0 2 1 1 0 0 1 0-2zm3-1a1 1 0 1 1 0 2 1 1 0 0 1 0-2zm-6 0a1 1 0 1 1 0 2 1 1 0 0 1 0-2zm2.5-10a4.5 4.5 0 0 1 4.495 4.288l.005 2.712c0 1.054-.824 2-2 2h-4a2 2 0 0 1 -1.995-1.85l-.005-.6c0-.3-.191-.55-.5-.55h-3.5a1 1 0 1 1 0-2h3.5a2.5 2.5 0 0 1 2.495 2.336l.005.664h4v-2.5a2.5 2.5 0 0 0 -2.336-2.495l-7.664-.005a1 1 0 0 1 -1-1c0-.513.445-1 1-1z" fill="var(--db-icon-color, currentColor)" fill-rule="evenodd"/></svg>
