<svg id="icon" height="32" viewBox="0 0 32 32" width="32" xmlns="http://www.w3.org/2000/svg"><path d="m9.58 2.002h12.84c1.197.017 1.845.157 2.517.517.663.355 1.19.881 1.544 1.544.36.672.5 1.32.517 2.518l.002 16.855c0 .964-.1 1.477-.385 2.012-.16.3-.367.562-.614.782l-.001 1.488c0 .557 0 2.296-2.282 2.282-.522-.003-1-.003-1.436 0-2.264 0-2.264-1.64-2.279-2.083l-.003-.917h-8v.718c0 .557 0 2.282-2.282 2.282h-1.436c-2.283 0-2.282-1.599-2.282-2.282v-1.488a2.826 2.826 0 0 1 -.615-.782c-.262-.49-.367-.962-.383-1.78l-.002-16.822c0-1.37.134-2.063.519-2.783a3.726 3.726 0 0 1 1.544-1.543c.672-.36 1.32-.5 2.518-.517zm-1.573 24.998-.007 1h2v-1h-1.994zm15.996 0h-2v1h2zm.997-3.564v-3.348c-3.218.508-5.78.662-9 .662-3 0-6-.22-8.999-.662.005 2.226.004 3.42-.001 3.58-.008.24-.003.7.283 1.015.285.316.678.316 1.46.316h14.863c.396 0 .85-.01 1.123-.316.272-.304.27-.683.271-1.247zm-14.75-1.936a1.25 1.25 0 1 1 0 2.5 1.25 1.25 0 0 1 0-2.5zm11.5 0a1.25 1.25 0 1 1 0 2.5 1.25 1.25 0 0 1 0-2.5zm-12.322-17.495c-.76.019-1.087.098-1.422.278a1.727 1.727 0 0 0 -.723.723c-.18.335-.26.663-.278 1.422v11.638c2.84.467 6.227.684 8.995.684 3 0 6-.228 9-.684l-.01-11.819c-.028-.633-.108-.934-.273-1.24a1.726 1.726 0 0 0 -.723-.724c-.335-.18-.663-.26-1.422-.278zm19.572 3.01c.513 0 1 .44 1 1v4a1 1 0 0 1 -1 1c-.513 0-1-.423-1-1v-4a1 1 0 0 1 1-1zm-26 0c.513 0 1 .41 1 .985v4.015a1 1 0 0 1 -1 1c-.513 0-1-.424-1-1v-4a1 1 0 0 1 1-1zm18-1.015a1 1 0 0 1 0 2h-10a1 1 0 0 1 -1-1c0-.513.424-1 1-1z" fill="#282D37" style="fill: currentColor;fill: var(--db-icon-color, currentColor)" fill-rule="evenodd"/></svg>