<svg id="icon" height="32" viewBox="0 0 32 32" width="32" xmlns="http://www.w3.org/2000/svg"><path d="m13.348 28.986c0-.126.032-.253.095-.411l3.22-7.24a.997.997 0 0 1 .918-.602 1.02 1.02 0 0 1 1.014 1.014.843.843 0 0 1 -.095.38l-3.22 7.24c-.158.38-.538.633-.918.633a1 1 0 0 1 -1.014-1.014zm.222-13.176.475-3.136a.972.972 0 0 1 .634-.76l4.114-2.114c.348-.127.633-.19.887-.19.76 0 1.14.538 1.108 1.298l-.693 7.183 3.61 3.611c.128.127.223.285.286.476l1.615 6.586c.159.634-.316 1.267-.982 1.235-.443 0-.855-.285-.95-.76l-1.583-6.333-3.675-3.643a1.245 1.245 0 0 1 -.348-1.045l.63-6.201-2.752 1.545-.412 2.566a.992.992 0 0 1 -.982.855c-.602 0-1.077-.57-.982-1.172zm-10.57.19h7a1 1 0 0 1 0 2h-7a1 1 0 0 1 0-2zm2.286 4h7a1 1 0 0 1 0 2h-7a1 1 0 0 1 0-2zm15.117-18a3 3 0 0 1 3 3c0 1.625-1.344 3-3 3a3 3 0 0 1 0-6zm.027 2.027c-.563 0-1 .438-1 1 0 .531.437 1 1 1 .531 0 1-.469 1-1 0-.562-.469-1-1-1zm1.035 8.814c0-.538.444-.982.982-.982.285 0 .538.095.729.285l.942.942 1.995.982c.349.19.539.538.539.918a.987.987 0 0 1 -.982.982 1.27 1.27 0 0 1 -.475-.095l-2.09-1.077a.69.69 0 0 1 -.254-.158l-1.07-1.068a1.031 1.031 0 0 1 -.316-.729z" fill="var(--db-icon-color, currentColor)" fill-rule="evenodd"/></svg>
