<svg id="icon" height="20" viewBox="0 0 20 20" width="20" xmlns="http://www.w3.org/2000/svg"><path d="m7.21409962 2.0018337 5.34548568-.0018337c.7910823 0 1.2011638.05905242 1.6506269.23927985.4319201.17319293.8022189.44008918 1.1031092.79507611.2818004.33246474.4603984.66570561.6756682 1.27613382l.2320104.68951022h1.279v4h-1v5.7180574c0 .4877014-.0494869.8049284-.1872125 1.1110062-.1377257.3060778-.2165532.3804048-.3112286.4890194l-.0015589 1.681917h-2.5v-1h-7v1h-2.5l-.00070044-1.6809329c-.09503417-.1088749-.17800249-.2290096-.24754641-.3590454-.16372752-.3061438-.23368039-.6006762-.24861036-1.0429221l-.00314279-5.9170996h-1v-4h1.278l.15970371-.47538879c.22514596-.67543788.44808449-1.13526831.74897485-1.49025525.30089036-.35498693.67118912-.62188318 1.10310919-.79507611.40451683-.16220468.77713452-.22625762 1.42431187-.23744615zm-1.68990671 11.8105564c-.48141025-.042118-.9058137.3139988-.94793164.7954091-.03887809.4443786.26156807.8401835.6866628.931574l1.35398966.1253023c.48141025.0421179.9058137-.3139989.94793164-.7954091.0388781-.4443787-.26156806-.8401836-.68666279-.931574zm7.70747749.1089447c-.4814103.0421179-.8375271.4665213-.7954091.9479316.0388781.4443787.4034906.7819984.8379969.7981836l1.3551781-.1117192c.4814102-.0421179.837527-.4665214.7954091-.9479316-.0388781-.4443787-.4034906-.7819985-.837997-.7981836zm1.2683296-6.1713348h-9l.00284553 4.3538996c1.52159081.1487178 3.3833132.2497565 4.49715447.2497565 1.1138413 0 2.3817845-.0617276 3.8027483-.1855136l.6962517-.0661425zm-1.7842583-3.74923695c-.5159287-.00097793-5.50160639.00097793-5.50160639.00097793-.28734714.00097794-.52414002.00752175-.80141306.15813528-.18484869.10040901-.36069772.38350531-.52754709.84928889l-.38517516 1.24083485h8.999c-.1925252-.66829831-.3356-1.12445593-.4292245-1.36847286-.1404368-.36602538-.2882222-.6071647-.4845617-.72386802-.1963394-.11670332-.3535434-.15591814-.8694721-.15689607z" fill="var(--db-icon-color, currentColor)" fill-rule="evenodd"/></svg>
