<svg id="icon" height="32" viewBox="0 0 32 32" width="32" xmlns="http://www.w3.org/2000/svg"><path d="m8 20.5c0-3 2.469-5.5 5.469-5.5h7c1.875 0 3.375-1.625 3.375-3.5s-1.5-3.5-3.375-3.5h-3.469c-.563 0-1-.438-1-1 0-.531.437-1 1-1h3.469c3.031 0 5.5 2.469 5.5 5.5 0 2.938-2.188 5.5-5.5 5.5h-7c-1.969 0-3.656 1.5-3.656 3.5 0 1.969 1.687 3.5 3.656 3.5h11.125l-2.313-2.281a1.051 1.051 0 0 1 -.281-.719c0-.562.406-1 1-1 .25 0 .5.094.688.281l4.03 4.032a.97.97 0 0 1 .282.687c0 .25-.094.531-.281.719l-4.031 4a.97.97 0 0 1 -.688.281c-.469 0-1-.344-1-1 0-.25.063-.5.281-.719l2.313-2.281h-11.125c-3 0-5.469-2.469-5.469-5.5zm1-18.5c2.75 0 5 2.25 5 5 0 2.781-2.219 5.031-5 5.031s-5-2.281-5-5.031 2.219-5 5-5zm0 2a3 3 0 0 0 -3 3c0 1.656 1.344 3.031 3 3.031s3-1.344 3-3.031a3 3 0 0 0 -3-3z" fill="#282D37" style="fill: currentColor;fill: var(--db-icon-color, currentColor)" fill-rule="evenodd"/></svg>
