<svg id="icon" height="32" viewBox="0 0 32 32" width="32" xmlns="http://www.w3.org/2000/svg"><path d="m26.307 16c0 5.683-4.624 10.307-10.307 10.307s-10.307-4.624-10.307-10.307 4.624-10.307 10.307-10.307 10.307 4.624 10.307 10.307zm-22.307 0c0 6.627 5.373 12 12 12s12-5.373 12-12-5.373-12-12-12-12 5.373-12 12zm6.064 2.222a1 1 0 0 1 1.359-1.145c.022.01 2.258.924 4.577.924s4.555-.914 4.577-.924a1 1 0 0 1 1.359 1.145c-.376 1.653-2.102 4.778-5.936 4.778s-5.56-3.125-5.936-4.778zm2.922 1.416c.607.715 1.559 1.362 3.014 1.362s2.406-.647 3.014-1.362c-.878.199-1.929.362-3.014.362s-2.135-.163-3.014-.362zm.435-5.863a.998.998 0 1 0 1.217-1.586 4.002 4.002 0 0 0 -5.609.738 1 1 0 1 0 1.587 1.216 2.007 2.007 0 0 1 2.805-.368zm9.589-.847a3.97 3.97 0 0 0 -2.651-1.531 3.967 3.967 0 0 0 -2.957.793 1 1 0 1 0 1.217 1.586 1.98 1.98 0 0 1 1.479-.396c.529.069 1 .341 1.325.765a.998.998 0 0 0 1.402.185 1 1 0 0 0 .185-1.402z" fill="var(--db-icon-color, currentColor)" fill-rule="evenodd"/></svg>
