<svg id="icon" height="32" viewBox="0 0 32 32" width="32" xmlns="http://www.w3.org/2000/svg"><path d="m19.5 6c-2.333 0-4.725 1.249-6.062 3.081l-.136.172a6.504 6.504 0 0 0 -1.802-.253l-.242.004a6.503 6.503 0 0 0 -6.05 4.858l-.068.214c-1.93 1.184-3.14 3.2-3.14 5.424 0 3.61 3.152 6.5 7 6.5l14.247-.004c3.754-.13 6.753-2.978 6.753-6.496l-.005-.258c-.087-2.055-1.246-3.946-3.003-5.095l.008-.647c0-4.142-3.36-7.5-7.5-7.5zm0 2a5.5 5.5 0 0 1 5.41 6.5 1 1 0 0 0 .532 1.073c1.574.797 2.558 2.29 2.558 3.927 0 2.4-2.11 4.403-4.804 4.497l-14.196.003c-2.78 0-5-2.035-5-4.5 0-1.622.965-3.104 2.517-3.906a1 1 0 0 0 .53-.745 4.5 4.5 0 0 1 6.288-3.46 1 1 0 0 0 1.293-.446 5.5 5.5 0 0 1 4.872-2.943z" fill="var(--db-icon-color, currentColor)" fill-rule="evenodd"/></svg>
