<svg id="icon" height="64" viewBox="0 0 64 64" width="64" xmlns="http://www.w3.org/2000/svg"><g fill="none" fill-rule="evenodd" transform="translate(13.5 7)"><path d="m34.39 22.745.093.38.824 3.084.733 2.805.347 1.385.09.384c.125.565.268 1.015.434 1.402.059.138.12.266.189.398l.146.27.282.503c.268.505.415.959.468 1.555.151 1.7-.44 3.449-1.789 4.796a1 1 0 1 1-1.414-1.414c.918-.917 1.311-2.08 1.211-3.204a1.867 1.867 0 0 0-.243-.796l-.298-.532a8.236 8.236 0 0 1-.39-.789 9.34 9.34 0 0 1-.47-1.423l-.242-1.018-.262-1.037-.726-2.773-.882-3.31c-.211-1.03-.808-1.46-1.448-1.344-.62.113-1.01.687-.848 1.557l.47 2.39.164.89.057.34c.704 3.645-1.96 6.634-5.658 6.752L25 34H8a1 1 0 0 0-.116 1.993L8 36h15a3 3 0 0 1 2.995 2.824L26 39c0 .913-.404 1.73-1.043 2.28.343.486.543 1.08.543 1.72 0 .535-.14 1.037-.385 1.471a2.997 2.997 0 0 1 1.263 3.38l-.049.149H28c1.61 0 3.061-.508 4.531-1.44l.295-.192c.274-.184.544-.378.842-.604l.724-.559.102-.068a1 1 0 0 1 1.216.158l.083.095a1 1 0 0 1-.183 1.402l-.736.567a20 20 0 0 1-.934.67c-1.764 1.183-3.55 1.885-5.56 1.964L28 50h-8.012a3 3 0 0 1-2.994-2.806l-.006-.188c-.003-.36.059-.705.173-1.025a3 3 0 0 1-2.115-4.706A2.989 2.989 0 0 1 14 39c0-.35.06-.687.17-1H8a3 3 0 0 1-.176-5.995L8 32h17c2.536 0 4.295-1.84 3.95-4.215l-.178-1.017-.18-.947-.36-1.815c-.368-1.968.737-3.595 2.454-3.907 1.677-.304 3.23.763 3.703 2.646ZM23.5 46h-3.53a.988.988 0 0 0-.976.879l-.006.127a1 1 0 0 0 .884.987l.116.007H23.5a1 1 0 0 0 .117-1.993L23.5 46Zm-6.003-4a1 1 0 0 0-.113 1.993L17.5 44h5a1 1 0 0 0 .123-1.993l-4.208.001-.918-.008ZM17 38a1 1 0 0 0-.116 1.993L17 40h5.5c.068 0 .136.002.203.007h.3a1 1 0 0 0 .99-.883l.007-.117c0-.52-.386-.942-.883-1L23 38h-6Zm.513-38a3 3 0 0 1 2.993 2.806l.007.188c.002.36-.06.705-.174 1.025a3 3 0 0 1 2.116 4.706A2.989 2.989 0 0 1 23.5 11c0 .35-.06.687-.17 1h6.17a3 3 0 0 1 .176 5.995L29.5 18h-17c-2.536 0-4.295 1.84-3.95 4.215l.179 1.017.18.947.36 1.815c.367 1.968-.738 3.595-2.455 3.907-1.676.304-3.229-.763-3.703-2.647l-.08-.331L.024 15.717a1 1 0 0 1 1.92-.546l3.052 11.357.014.06c.21 1.031.807 1.461 1.447 1.345.62-.113 1.01-.687.848-1.557l-.47-2.39-.164-.89-.057-.34c-.703-3.645 1.961-6.634 5.659-6.752L12.5 16h17a1 1 0 0 0 .117-1.993L29.5 14H15a1 1 0 0 1-.116-1.993L15 12h5.5a1 1 0 0 0 .117-1.993L20.5 10h-5a1 1 0 0 1-.116-1.993L15.5 8H20a1 1 0 0 0 .117-1.993L20 6h-4.5l-.062-.002-.091-.007a1 1 0 0 1 .037-1.996l.193.005h1.954a.988.988 0 0 0 .976-.879l.006-.127a1 1 0 0 0-.884-.987L17.513 2H9.5c-1.717 0-3.254.578-4.825 1.632-.275.184-.545.378-.843.604l-.724.559-.102.068a1 1 0 0 1-1.215-.158l-.083-.095a1 1 0 0 1 .182-1.402l.736-.567a20 20 0 0 1 .935-.67C5.325.788 7.11.086 9.12.007L9.5 0h8.012Z" fill="var(--db-icon-color, currentColor)" fill-rule="nonzero"/><path d="M19 21a4 4 0 1 1 0 8 4 4 0 0 1 0-8Zm0 2a2 2 0 1 0 0 4 2 2 0 0 0 0-4Z" fill="var(--db-icon-pulse-color, #EC0016)"/></g></svg>
