<svg id="icon" height="24" viewBox="0 0 24 24" width="24" xmlns="http://www.w3.org/2000/svg"><path d="m21 17c.5522847 0 1 .4477153 1 1 0 .5128358-.4018848.9907839-1 1-.1059232.0016321-.2125899.0016321-.32 0l.3063939 1.835601c.0907951.5447703-.2772246 1.0599979-.8219949 1.1507929-.5058582.0843097-1.0530939-.2474419-1.1507929-.8219949-.1226762-.72144-.2432115-1.4429063-.3616061-2.164399h-13.305l-.36060608 2.164399c-.09079505.5447703-.60602259.91279-1.15079291.8219949-.50585815-.0843097-.85931396-.5345841-.83453114-1.0346525l.31793013-1.9517414h-.319c-.55228475 0-1-.4477153-1-1 0-.5128358.41387406-.9997823 1-1 5.99898526-.0022278 11.9989853-.0022278 18 0zm-8.9363591-4.4979729c2.6930139.1666744 5.3849502.3383397 8.075809.5149959.9807485.0625425 1.8605501.9700172 1.8605501 1.993977v.3319037c0 .5522847-.4477153.8833788-1 .8833788-.5128358 0-.9355072-.3860402-.9932723-.8833788l-.0057277-.3319037-8.1054788-.518397c-.3704882-.0310401-.8410638.2740694-.9089142.6705124-.0900862.544888-.6048344.9135778-1.14972243.8234916-.54488799-.0900862-.91357773-.6048344-.82349156-1.1497224.21997065-1.330497 1.57264289-2.4384298 3.05024789-2.3348575zm-6.5636409-1.5020271c1.38071187 0 2.5 1.1192881 2.5 2.5s-1.11928813 2.5-2.5 2.5-2.5-1.1192881-2.5-2.5 1.11928813-2.5 2.5-2.5zm0 2c-.27614237 0-.5.2238576-.5.5s.22385763.5.5.5.5-.2238576.5-.5-.22385763-.5-.5-.5zm7.1615234-5.90820312c.1558695 0 .2822266.16389465.2822266.31860351 0 .20236206-.0609768.32423579-.1732876.46861239l-1.1880405 1.52723722h1.0957031c.1639595 0 .296875.13291546.296875.296875s-.1329155.296875-.296875.296875h-1.78125c-.1639595 0-.296875-.15551758-.296875-.33744812 0-.22926331.0653534-.33808645.1853279-.488225l1.1896721-1.48878h-.9628906c-.1639596 0-.296875-.13291547-.296875-.296875 0-.16395954.1329154-.296875.296875-.296875zm3.7976136-1.72705079c.2049494 0 .3710937.20515756.3710937.39249596 0 .2264058-.076829.44611084-.2179202.62317825l-1.495947 1.8773922h1.3427735c.2049494 0 .3710937.16614433.3710937.37109375s-.1661443.37109375-.3710937.37109375h-2.081306c-.2049494 0-.3710937-.23402291-.3710937-.39831543 0-.24580383.0771517-.44042126.2187852-.61766443l1.4999648-1.87708655h-1.3543936c-.2049494 0-.3710937-.16614433-.3710937-.37109375s.1661443-.37109375.3710937-.37109375zm5.0852966-2.45410156c.2737153 0 .4956055.3057409.4956055.63969288 0 .2211987-.0733407.44648479-.2085427.62155411l-2.1908714 2.83689754h1.9243164c.2737153 0 .4956055.22189013.4956055.49560547s-.2218902.49560547-.4956055.49560547h-3.0693359c-.2737154 0-.4956055-.21176781-.4956055-.49560547 0-.40437317.0755294-.59149402.214432-.76783821l2.2328336-2.83470085h-1.743164c-.2737154 0-.4956055-.22189013-.4956055-.49560547s.2218901-.49560547.4956055-.49560547z" fill="var(--db-icon-color, currentColor)" fill-rule="evenodd"/></svg>
