<svg id="icon" height="64" viewBox="0 0 64 64" width="64" xmlns="http://www.w3.org/2000/svg"><g fill="none" fill-rule="evenodd" transform="translate(8 7)"><path d="m14 0a4 4 0 0 1 3.995 3.8l.005.234a1 1 0 0 1 -1.994.116l-.006-.15a2 2 0 0 0 -3.995-.15l-.005.15v9.769l.65 1.172.795-1.427a1 1 0 0 1 1.679-.107l.069.108.793 1.426.795-1.427a1 1 0 0 1 1.678-.109l.07.108.798 1.433.8-1.433c.022-.04.047-.078.073-.114l.055-.067.1-.096.12-.088.086-.046.081-.036.093-.03.14-.028.13-.008.109.007.112.019.115.034.104.045.1.057.078.056.069.06.049.05.068.084.07.112.052.112.045.148.017.098.006.071-.001.11-.02.14-.014.063-9.965 29.894v4.09a1 1 0 0 1 -1.993.117l-.006-.117v-4.087l-9.966-29.9-.023-.111-.009-.079-.002-.109.007-.09.013-.073.034-.125.04-.101.06-.11.067-.093.072-.08.045-.043.056-.045.12-.078a.913.913 0 0 1 .143-.065l.086-.027.103-.022.114-.012h.077l.09.007.13.026.097.03.106.048.088.052.08.058.097.088.058.067.066.093.816 1.47.792-1.426a1 1 0 0 1 1.68-.107l.07.109.786 1.419.786-1.42a1 1 0 0 1 1.68-.109l.069.108.792 1.426.68-1.229v-9.71a4 4 0 0 1 4-4zm12 13a5 5 0 0 1 4.995 4.783l.005.217v1h11a5 5 0 0 1 4.995 4.783l.005.217v20a5 5 0 0 1 -4.784 4.995l-.216.005h-27a1 1 0 0 1 -.117-1.993l.117-.007h27a3 3 0 0 0 2.995-2.824l.005-.176v-20a3 3 0 0 0 -2.824-2.995l-.176-.005h-18.625a1 1 0 0 1 -.117-1.993l.117-.007h5.624v-1a3 3 0 0 0 -2.823-2.995l-.176-.005h-1a1 1 0 0 1 -.117-1.993l.117-.007zm-8.345 3.055-.184.331a1.7 1.7 0 0 1 -.526.577l-.134.083a1.7 1.7 0 0 1 -2.23-.53l-.082-.131-.181-.327-.181.327a1.7 1.7 0 0 1 -.526.577l-.134.083a1.7 1.7 0 0 1 -2.231-.528l-.081-.132-.18-.325-.18.322a1.7 1.7 0 0 1 -.526.579l-.134.083a1.7 1.7 0 0 1 -2.23-.529l-.082-.131-.18-.323-.174.317a1.7 1.7 0 0 1 -.529.58l-.135.084a1.7 1.7 0 0 1 -2.23-.532l-.08-.132-.176-.317-.179.323a1.7 1.7 0 0 1 -.526.577l-.135.083c-.12.067-.244.117-.37.152l7.88 23.643 7.88-23.637a1.695 1.695 0 0 1 -.956-.68l-.081-.132zm20.295-4.055a1.375 1.375 0 1 1 -.002 2.75 1.375 1.375 0 0 1 .002-2.75zm.847-12c2.137 0 3.748 1.502 3.748 3.496 0 1.82-.773 2.722-1.606 3.362l-.28.204-.677.461c-.557.386-1 .769-1.06 1.395l-.008.149a.998.998 0 1 1 -1.996 0c0-1.547.75-2.257 1.57-2.836l.656-.448c.753-.522 1.406-1.093 1.406-2.287 0-1.036-.88-1.5-1.753-1.5-.646 0-1.05.094-1.38.2l-.52.176a2.317 2.317 0 0 1 -.724.114c-.55 0-.998-.454-.998-.997 0-1.013 1.54-1.383 2.941-1.469l.347-.015.334-.005z" fill="#282D37" style="fill: currentColor;fill: var(--db-icon-color, currentColor)" fill-rule="nonzero"/><path d="m38 22.875a1 1 0 0 1 .993.883l.007.117v20.25a1 1 0 0 1 -1.994.117l-.006-.117v-20.25a1 1 0 0 1 1-1z" fill="#EC0016" style="fill:#EC0016;fill: var(--db-icon-pulse-color, #EC0016)"/></g></svg>
