<svg id="icon" height="64" viewBox="0 0 64 64" width="64" xmlns="http://www.w3.org/2000/svg"><g fill="none" fill-rule="evenodd" transform="translate(8 6)"><path d="m24 0a1 1 0 0 1 .993.883l.007.117v8h3v-4a1 1 0 0 1 1.993-.117l.007.117v4h.136a1.867 1.867 0 0 1 1.835 1.737l.003.144v4.119h12.026a1 1 0 0 1 .117 1.993l-.117.007h-1v5a1 1 0 0 1 -1.993.117l-.007-.117v-5h-10.026a1 1 0 0 1 -.993-.883l-.007-.117v-5l-11.975-.001.001 5.001a1 1 0 0 1 -.464.844l-.096.054a.993.993 0 0 1 -.323.095l-.117.007h-10v5a1 1 0 0 1 -.883.993l-.117.007h-1v7h38v-8a1 1 0 0 1 1.993-.117l.007.117v28h2a1 1 0 0 1 .117 1.993l-.117.007h-46a1 1 0 0 1 -.117-1.993l.117-.007h2v-27h-2a1 1 0 0 1 -.117-1.993l.117-.007h4v-4h-1.803a1 1 0 0 1 -.116-1.993l.116-.007h12.803v-4.104a1.87 1.87 0 0 1 1.706-1.888l.148-.008h.146v-4a1 1 0 0 1 1.993-.117l.007.117v4h3v-8a1 1 0 0 1 1-1zm5 32h-10v18h10zm-19 0h-5v18h5zm7 0h-5v18h5zm26 0h-5v18h5zm-7 0h-5v18h5z" fill="#282D37" style="fill: currentColor;fill: var(--db-icon-color, currentColor)" fill-rule="nonzero"/><path d="m47 21a1 1 0 0 1 .117 1.993l-.117.007h-35a1 1 0 0 1 -.117-1.993l.117-.007z" fill="#EC0016" style="fill:#EC0016;fill: var(--db-icon-pulse-color, #EC0016)"/></g></svg>
