<svg id="icon" height="24" viewBox="0 0 24 24" width="24" xmlns="http://www.w3.org/2000/svg"><path d="m19.5 2a2.5 2.5 0 0 1 2.5 2.5v15a2.5 2.5 0 0 1 -2.5 2.5h-15a2.5 2.5 0 0 1 -2.5-2.5v-15a2.5 2.5 0 0 1 2.5-2.5zm0 2c-5-.003-10-.003-15 0a.5.5 0 0 0 -.5.5c-.003 5-.003 10 0 15 0 .245.205.5.5.5 5 .003 10 .003 15 0 .245 0 .5-.2.5-.5.003-5 .003-10 0-15a.5.5 0 0 0 -.5-.5zm-8.493 4.405v3.166c.74.055 1.207.082 1.4.082.634 0 1.092-.128 1.372-.385.28-.256.42-.683.42-1.28 0-.507-.096-.884-.288-1.132-.273-.3-.647-.45-1.122-.446zm1.764-1.54c1.138 0 2.009.26 2.61.777.603.518.904 1.286.904 2.303 0 1.036-.313 1.823-.938 2.36-.577.495-1.484.804-2.758.804-.407.011-.934-.022-1.582-.099v2.983a1.05 1.05 0 1 1 -2.1 0v-8.128c0-.513.414-.998 1-1 .954-.002 1.91-.002 2.864 0z" fill="#282D37" style="fill: currentColor;fill: var(--db-icon-color, currentColor)" fill-rule="evenodd"/></svg>