<svg id="icon" height="64" viewBox="0 0 64 64" width="64" xmlns="http://www.w3.org/2000/svg"><g fill="none" fill-rule="evenodd" transform="translate(5 15)"><path d="m50 0a4 4 0 0 1 4 4v26a4 4 0 0 1 -4 4h-46a4 4 0 0 1 -4-4v-26a4 4 0 0 1 4-4zm0 2h-46a2 2 0 0 0 -1.995 1.85l-.005.15v26a2 2 0 0 0 1.85 1.995l.15.005h46a2 2 0 0 0 1.995-1.85l.005-.15v-26a2 2 0 0 0 -1.85-1.995zm-3.17 25c.646 0 1.169.449 1.169 1s-.523 1-1.17 1h-17.659c-.647 0-1.17-.449-1.17-1s.523-1 1.17-1zm0-4c.646 0 1.169.449 1.169 1s-.523 1-1.17 1h-17.659c-.647 0-1.17-.449-1.17-1s.523-1 1.17-1zm0-4c.646 0 1.169.449 1.169 1s-.523 1-1.17 1h-17.659c-.647 0-1.17-.449-1.17-1s.523-1 1.17-1z" fill="#282D37" style="fill: currentColor;fill: var(--db-icon-color, currentColor)" fill-rule="nonzero"/><path d="m46.17 5c1.01.001 1.829.82 1.83 1.83v6.34a1.832 1.832 0 0 1 -1.83 1.83h-4.34a1.832 1.832 0 0 1 -1.83-1.83v-6.34a1.832 1.832 0 0 1 1.83-1.83zm-.17 2h-4v6h4z" fill="#EC0016" style="fill:#EC0016;fill: var(--db-icon-pulse-color, #EC0016)"/></g></svg>
