<svg id="icon" height="20" viewBox="0 0 20 20" width="20" xmlns="http://www.w3.org/2000/svg"><path d="m10 15c.5522847 0 1 .4477153 1 1v1c0 .5522847-.4477153 1-1 1-.55228475 0-1-.4477153-1-1v-1c0-.5522847.44771525-1 1-1zm4.9497475-1.4644661.7071067.7071068c.3905243.3905243.3905243 1.0236893 0 1.4142135-.3905242.3905243-1.0236892.3905243-1.4142135 0l-.7071068-.7071067c-.3905243-.3905243-.3905243-1.0236893 0-1.4142136s1.0236893-.3905243 1.4142136 0zm-8.48528141 0c.3905243.3905243.3905243 1.0236893 0 1.4142136l-.70710678.7071067c-.15020165.1502017-.33629689.2426335-.53067527.2772954l-.11740012.0138648h-.11806277c-.23590466-.0138648-.46783342-.1109182-.6480754-.2911602-.39052429-.3905242-.39052429-1.0236892 0-1.4142135l.70710678-.7071068c.39052429-.3905243 1.02368927-.3905243 1.41421356 0zm3.53553391-7.5355339c2.209139 0 4 1.790861 4 4s-1.790861 4-4 4-4-1.790861-4-4 1.790861-4 4-4zm7 3c.5522847 0 1 .44771525 1 1 0 .5522847-.4477153 1-1 1h-1c-.5522847 0-1-.4477153-1-1 0-.55228475.4477153-1 1-1zm-13 0c.55228475 0 1 .44771525 1 1 0 .5522847-.44771525 1-1 1h-1c-.55228475 0-1-.4477153-1-1 0-.55228475.44771525-1 1-1zm1.75735931-4.65685425.70710678.70710678c.3905243.39052429.3905243 1.02368927 0 1.41421356-.39052429.3905243-1.02368927.3905243-1.41421356 0l-.70710678-.70710678c-.39052429-.39052429-.39052429-1.02368927 0-1.41421356s1.02368927-.39052429 1.41421356 0zm9.89949489 0c.3905243.39052429.3905243 1.02368927 0 1.41421356l-.7071067.70710678c-.1502017.15020165-.3362969.24263344-.5306753.27729536l-.1174001.01386477h-.1180628c-.2359047-.01386477-.4678334-.11091815-.6480754-.29116013-.3905243-.39052429-.3905243-1.02368927 0-1.41421356l.7071068-.70710678c.3905243-.39052429 1.0236893-.39052429 1.4142135 0zm-5.6568542-2.34314575c.5522847 0 1 .44771525 1 1v1c0 .55228475-.4477153 1-1 1-.55228475 0-1-.44771525-1-1v-1c0-.55228475.44771525-1 1-1z" fill="var(--db-icon-color, currentColor)" fill-rule="evenodd"/></svg>
