<svg id="icon" height="64" viewBox="0 0 64 64" width="64" xmlns="http://www.w3.org/2000/svg"><g fill="none" fill-rule="evenodd" transform="translate(13.998 11.9)"><path d="m18.202 0c2.178 0 4.267.378 6.208 1.07 2.282-.17 5.372-.03 6.955.365 1.71.467 2.837 1.447 2.837 3.065 0 1.101-.578 2.06-1.433 2.608a18.41 18.41 0 0 1 3.933 11.392c0 8.553-5.84 15.92-13.94 17.949-1.56 3.492-5.082 4.072-7.172 3.457-.779-.223-.865-.62-.952-1.089-.204-1.4.119-2.673.937-3.815-1.448-.49-2.61-1.55-3.192-2.908-.218-.508-.107-.991.406-1.391 2.95-2.298 5.747-2.43 8.395-.395 3.01-1.872 3.439-5.61 2.163-8.078-.489.641-1.215 1.09-2.055 1.166-1.558.142-2.976-.831-3.539-2.38a24.553 24.553 0 0 1 -.604-2.132c-.21.02-.417.05-.616.089-7.188 1.711-11.516 1.16-16.16-2.595-.253-.205-.428-.517-.357-1.044 1.468-8.8 9.151-15.334 18.186-15.334zm0 2c-7.888 0-14.599 5.552-16.123 13.173 2.957 2.256 5.771 3.03 9.73 2.619 1.432-1.135 2.14-3.354 1.804-5.54-.341-2.221-1.603-4.065-3.117-4.738a1 1 0 0 1 .812-1.828c2.176.967 3.842 3.402 4.282 6.262.296 1.922-.04 3.863-.854 5.378 1.461-.382 3.064-.724 5.114-.195a8.18 8.18 0 0 1 5.925 10c-.523 2.197-1.844 3.86-3.986 5.203-.505.41-1.08.297-1.42-.054-1.104-1.189-3.506-2.263-5.768-.322.617.811 1.632 1.342 2.8 1.342 1.682.283 1.263 1.62.767 1.924-1.06.729-1.63 1.845-1.573 2.853 1.632.301 3.811-.71 4.421-2.641a.998.998 0 0 1 .773-.813c7.468-1.628 12.913-8.323 12.913-16.123 0-7.003-5.22-16.156-16.5-16.5zm1.44 18.358c.253.696.846 1.103 1.47 1.046.424-.039.802-.447.882-.926-.742-.662-1.657-1.14-2.744-1.434.122.46.258.912.392 1.314zm-13.54-10.258a1 1 0 1 1 0 2 1 1 0 0 1 0-2zm22.277-7.045c1.225.83 2.233 1.663 3.026 2.498.452-.132.797-.554.797-1.053 0-.511-.421-.878-1.343-1.13-.531-.133-1.358-.238-2.48-.315z" fill="#282D37" style="fill: currentColor;fill: var(--db-icon-color, currentColor)" fill-rule="nonzero"/><path d="m19.816 5.326c1.385-.77 3.192-.294 3.96 1.088.71 1.277.372 2.928-.918 3.758a2.813 2.813 0 0 1 -1.015 3.61c-1.45.926-3.396.445-4.236-1.235a1 1 0 0 1 1.731-.996l.138.263c.222.4.805.553 1.24.312.377-.21.555-.667.318-1.13l-.4-.7a1.001 1.001 0 0 1 .372-1.364l.71-.406c.411-.229.547-.717.312-1.14-.205-.37-.761-.565-1.227-.32l-3.3 1.9a1 1 0 0 1 -1.366-.367.992.992 0 0 1 .368-1.366z" fill="#EC0016" style="fill:#EC0016;fill: var(--db-icon-pulse-color, #EC0016)"/></g></svg>
