<svg id="icon" height="24" viewBox="0 0 24 24" width="24" xmlns="http://www.w3.org/2000/svg"><path d="m12 2c5.516 0 10 4.484 10 10s-4.484 10-10 10-10-4.484-10-10 4.484-10 10-10zm0 2.019a7.975 7.975 0 0 0 -7.981 7.981 7.975 7.975 0 0 0 7.981 7.981 7.975 7.975 0 0 0 7.981-7.981 7.975 7.975 0 0 0 -7.981-7.981zm-1 8.098v-5.117c0-.516.5-1 1-1s1 .5 1 1l.01 4.6 2.699 2.677c.203.19.31.449.31.71 0 .487-.387.964-1.042.964-.27 0-.534-.089-.7-.266l-2.948-2.957a1.05 1.05 0 0 1 -.329-.61z" fill="#282D37" style="fill: currentColor;fill: var(--db-icon-color, currentColor)" fill-rule="evenodd"/></svg>
