<svg id="icon" height="32" viewBox="0 0 32 32" width="32" xmlns="http://www.w3.org/2000/svg"><path d="m22.267 5.253c.86.068 1.679.465 2.23 1.107a1 1 0 0 1 -.11 1.41c-.387.332-1.002.332-1.41-.109a1.285 1.285 0 0 0 -.849-.413c-2.09-.165-4.3-.248-6.628-.248-1.667 0-3.527.081-5.581.244-.535.058-.919.256-1.08.773-.434 1.66-.867 3.321-1.297 4.983 3.139-.1 5.347-.162 6.626-.184 1.28-.022 2.559-.02 3.839.004-.007-1.32 1.553-2.82 2.993-2.82 0-.574.501-1 1-1h3c.5 0 1 .5.992 1 1.454 0 3.008 1.5 3.008 3 .5 0 1 .5 1 1v1c0 .5-.5 1-1.001 1l.001 9c0 1.566-1.5 3-3 3h-5c-1.44 0-3-1.5-3-3l.001-.51c-1 .021-2 .025-3.001.01-1 0-2.5 0-4-.112v.612c0 1.362-.893 2-2 2h-2c-1.08 0-2-.666-2-2v-2.357a2.977 2.977 0 0 1 -.552-1.334 36.007 36.007 0 0 1 -.446-5.31l-1.002.001a1 1 0 0 1 -1-1v-1a1 1 0 0 1 1-1h2.476l1.425-5.478c.322-1.288 1.434-2.118 2.849-2.27 1.578-.168 3.495-.252 5.75-.252 3.386 0 3.392-.014 6.767.253zm-2.267 19.807c0 .483.363.88.83.935l.11.006h5.12a.94.94 0 0 0 .933-.831l.007-.11v-12.06c0-.448-.431-.926-.893-.992l-.107-.008h-5c-.418 0-.864.377-.974.803l-.02.098-.006.122zm-13-1.247v1.18l.184.007 1.712-.002.104-.005v-.801a19.022 19.022 0 0 1 -1.623-.289zm9.53-9.011-1.34.002-.917.01-1.763.036-1.623.043-3.301.107c-.986 0-1.333.192-1.474.578-.023.064-.043.13-.059.202l-.021.112-.022.188-.007.105-.004.237.002.134.007.193.116.009 2 .25a1 1 0 0 1 -.131 1.992l-.117-.008-1.688-.211.221 2.1c.045.467.243.725.632.867l.123.04c1.336.376 2.967.578 5.037.66l.673.023.658.015 1.267.012 2.129.001 1.071-.01v-1.489h-5.749a1 1 0 0 1 -.96-.718l-.026-.118-.25-1.5a1 1 0 0 1 1.947-.442l.025.114.111.664h4.902v-4.181l-.27-.004-1.198-.013zm6.576.75a1 1 0 0 1 1.341-.446c.459.229.724.792.447 1.341-.257.52-.516 1.038-.776 1.553h.382c.704 0 1.246.74.894 1.447l-1.5 3a1 1 0 0 1 -1.788-.894c.257-.52.515-1.038.775-1.553h-.381c-.704 0-1.241-.75-.894-1.447l1.5-3z" fill="var(--db-icon-color, currentColor)" fill-rule="evenodd"/></svg>
