<svg id="icon" height="24" viewBox="0 0 24 24" width="24" xmlns="http://www.w3.org/2000/svg"><path d="m10.8829128 7.54619302c.1541334-.09244666.3389357-.12326221.5239351-.12326221.7087365 0 1.2018045.46223327 1.1401714 1.26353864l-.3081677 4.83814255 2.6502415 2.619524c.0925002.1232622.1849014.2772389.2465345.4621322l1.0477702 4.191117c.1232703.6472276-.3698008 1.2019076-.986137 1.2019076-.462202 0-.8320028-.3081556-.95527-.7395733l-.986136-3.913777-2.7427427-2.7119706c-.1849004-.1848933-.3698008-.4005012-.3081677-.8012044l.2465345-3.97530711-1.17103738.52386441-.27740058 1.787403c-.09240119.4930488-.49306802.8320199-.98613674.8320199-.52383597 0-1.1094038-.4622333-.98613674-1.1402765l.3390335-2.3420829c.06163416-.33887003.30816764-.61631103.61633618-.77028775zm-1.14922201 8.46558758c.59543321 0 .98613601.4422285.98613601.9860977 0 .1232622 0 .277441-.0616341.4007032l-1.74755295 3.9851075c-.12326726.3697866-.49306781.616311-.92450261.616311-.58556808 0-.98613714-.4930488-.98613714-1.0168122 0-.1232622.06163353-.277441.0924996-.4007032l1.71668727-3.9851075c.18490139-.3697866.55470215-.5855965.92450392-.5855965zm5.24105841-6.26788309 1.6708495.85313609c.3390307.1540778.5548012.5238644.5548012.8629365 0 .616311-.4930711 1.0169132-1.0170021 1.0169132-.1541333 0-.2773996-.0308156-.4314349-.0924467l-1.6709495-.8532371c-.3698008-.1848933-.5546021-.5546799-.5546021-.893752 0-.5237634.3080686-1.04772878.986136-1.04772878.1540343 0 .3389357.0616311.4622019.15417879zm-2.9238391-7.74389751c1.1077251 0 2 .8922365 2 1.99997979 0 1.10764226-.8922749 2.00008083-2 2.00008083-1.0769974 0-2-.89243857-2-2.00008083 0-1.10774329.9230026-1.99997979 2-1.99997979z" fill="var(--db-icon-color, currentColor)" fill-rule="evenodd"/></svg>
