<svg id="icon" height="20" viewBox="0 0 20 20" width="20" xmlns="http://www.w3.org/2000/svg"><path d="m10 2.25a.74.74 0 0 1 .743.75l.006 1.189.72-.72c.267-.266.73-.308 1.028-.036.299.271.368.719.033 1.097l-1.78 1.78v2.391l2.252-1.301.603-2.249a.75.75 0 0 1 .919-.53.735.735 0 0 1 .53.919l-.215.799.847-.489a.75.75 0 0 1 .75 1.3l-1.079.622 1.167.313c.393.088.63.518.53.919-.1.4-.457.642-.918.53l-2.617-.701-2.02 1.166 2.388 1.379 2.249-.601a.75.75 0 1 1 .388 1.448l-.8.214.712.411a.75.75 0 0 1 .275 1.025.744.744 0 0 1 -1.025.275l-.945-.547.313 1.168c.098.364-.103.795-.478.918a.777.777 0 0 1 -.97-.53l-.703-2.617-2.155-1.244v2.702l1.781 1.78a.75.75 0 0 1 0 1.061.76.76 0 0 1 -1.03.04l-.75-.761v.88a.75.75 0 0 1 -.75.75c-.38 0-.75-.29-.75-.75v-.879l-.72.72a.754.754 0 0 1 -1.06 0c-.27-.266-.311-.72 0-1.06l1.781-1.781v-2.701l-2.156 1.244-.7 2.616a.75.75 0 0 1 -.919.53c-.363-.097-.645-.494-.552-.88l.334-1.205-.944.546a.75.75 0 0 1 -1.025-.275c-.19-.329-.13-.78.233-.99l.753-.446-.799-.214c-.363-.097-.665-.496-.53-.918s.509-.625.919-.53l2.247.601 2.39-1.379-2.022-1.167-2.615.702a.758.758 0 0 1 -.919-.53c-.096-.383.096-.807.497-.919l1.2-.313-1.08-.622a.75.75 0 0 1 -.274-1.025.758.758 0 0 1 1.025-.275l.845.488-.213-.798c-.097-.364.06-.803.503-.919.443-.115.826.116.946.53l.601 2.249 2.255 1.3v-2.39l-1.78-1.78a.75.75 0 0 1 0-1.06.76.76 0 0 1 1.031-.037l.75.755v-1.188a.75.75 0 0 1 .75-.75z" fill="var(--db-icon-color, currentColor)" fill-rule="evenodd"/></svg>
