<svg id="icon" height="32" viewBox="0 0 32 32" width="32" xmlns="http://www.w3.org/2000/svg"><path d="m25.976 6.005c.36.361.36 1.054 0 1.415-4.063 4.067-7.552 7.561-10.465 10.483l.614 3.097h5.618c.471 0 .88.386.974.857l1.38 6.968a1.005 1.005 0 0 1 -.972 1.193c-.503 0-.91-.345-1.005-.816l-1.192-6.202h-5.65c-.47 0-.879-.296-.973-.767l-.516-2.608-4.303 4.303a2.05 2.05 0 0 0 1.792 1.072h5.726c.564 0 1 .436 1 1s-.436 1-1 1h-5.726a3.975 3.975 0 0 1 -3.23-1.635l-2.34 2.342a1 1 0 1 1 -1.415-1.414 55384.9 55384.9 0 0 1 20.27-20.288 1 1 0 0 1 1.413 0zm-22.969-1.005c2.13 0 3.999 1.66 3.999 4.01v2.85l1.482 7.461-1.688 1.689-1.768-8.773-.031-.376v-2.851a1.995 1.995 0 0 0 -1.994-2.01.985.985 0 0 1 -1.002-.997 1.01 1.01 0 0 1 1.001-1.003zm9.038 9a3.7 3.7 0 0 1 1.478.287l-1.74 1.738c-.269.038-.505.244-.868.244-.534 0-.91-.47-.91-1.036 0-.847 1.16-1.233 2.04-1.233zm.22-8.247c1.789 0 3.233 1.476 3.233 3.265 0 1.79-1.444 3.264-3.233 3.264a3.262 3.262 0 0 1 -3.265-3.263 3.262 3.262 0 0 1 3.265-3.265zm0 2.01a1.26 1.26 0 0 0 -1.256 1.255c0 .69.565 1.256 1.256 1.256a1.26 1.26 0 0 0 1.255-1.256 1.26 1.26 0 0 0 -1.255-1.256z" fill="var(--db-icon-color, currentColor)" fill-rule="evenodd"/></svg>
