<svg id="icon" height="32" viewBox="0 0 32 32" width="32" xmlns="http://www.w3.org/2000/svg"><path d="m21 2a3 3 0 1 0 -.001 6 3 3 0 0 0 0-6zm0 4a1 1 0 1 1 0-2 1 1 0 0 1 0 2zm1.5 3.5c1.391 0 2.5 1.108 2.5 2.5a1 1 0 0 1 -1 1c-.514 0-1-.417-.994-.883.005-.356-.155-.616-.507-.617a888.89 888.89 0 0 0 -4 0c-.242 0-.477.202-.5.54v7.46c0 .242.188.5.54.5h.461c.513 0 1 .415 1 1 .002 2.666.002 5.333 0 8a1 1 0 0 1 -1 1 .99.99 0 0 1 -1-1c-.004-3.529.05-3.631 0-7.058-1.025 0-2-1.212-1.995-2.276l-.005-7.626c0-1.336.985-2.538 2.5-2.54 1.333-.002 2.667-.002 4 0zm-.516 9.097a2.989 2.989 0 0 1 3.008-3.008 2.988 2.988 0 0 1 2.992 2.976l.016 10.435c0 .533-.45 1-1.015 1-.533 0-.99-.467-.99-1l-.01-10.403a.988.988 0 0 0 -1-1.003c-.564 0-1 .47-1 1.003s-.467 1.002-1 1.002c-.564 0-1-.439-1-1.002zm-10.55-16.597a3 3 0 1 0 0 6 3 3 0 0 0 0-6zm0 4a1 1 0 1 1 .001-2 1 1 0 0 1 0 2zm-1 24a1 1 0 0 1 -1-1v-7.506a.495.495 0 0 0 -.148-.355c-.056-.055-.21-.164-.357-.145l-.174.003c-2.493.044-4.614-1.872-4.748-4.239a4.476 4.476 0 0 1 3.842-4.71.993.993 0 0 1 1.133.846 1 1 0 0 1 -.846 1.133 2.487 2.487 0 0 0 -2.132 2.62c.073 1.303 1.276 2.351 2.688 2.351h.034l.174-.003c.675-.027 1.312.248 1.792.722a2.48 2.48 0 0 1 .743 1.778v7.506a1 1 0 0 1 -1 1v-.001zm2.566-13.607v-5.894a1 1 0 1 0 -2 0v4.894h-2.37a1 1 0 1 0 0 2h3.37a1 1 0 0 0 1-1z" fill="var(--db-icon-color, currentColor)" fill-rule="evenodd"/></svg>
