<svg id="icon" height="20" viewBox="0 0 20 20" width="20" xmlns="http://www.w3.org/2000/svg"><path d="m10 3.017c2.142 0 3.995 1.743 4 4v1a2 2 0 0 1 2 2v5.983a2 2 0 0 1 -2 2h-8a2 2 0 0 1 -2-2v-5.983a2 2 0 0 1 2-2v-1a4 4 0 0 1 4-4zm4 7h-8v5.983h8zm-4 .983a1 1 0 0 1 .993.883l.007.117v1.995a1 1 0 0 1 -1.993.117l-.007-.117v-1.995a1 1 0 0 1 1-1zm0-5.983a2.004 2.004 0 0 0 -2 2c-.002.667-.002 1 0 1h4v-1a2 2 0 0 0 -2-2z" fill="#282D37" style="fill: currentColor;fill: var(--db-icon-color, currentColor)" fill-rule="evenodd"/></svg>
