<svg id="icon" height="64" viewBox="0 0 64 64" width="64" xmlns="http://www.w3.org/2000/svg"><g fill="none" fill-rule="evenodd" transform="translate(9 4)"><path d="m25 0a5 5 0 0 1 4.995 4.783l.005.217v5.548a1 1 0 0 1 -1.993.117l-.007-.117v-5.548a3 3 0 0 0 -2.824-2.995l-.176-.005h-2v.034c0 .715-.258 1.404-.723 1.94l-.146.157a2.966 2.966 0 0 1 -1.883.861l-.214.008h-10.068a2.966 2.966 0 0 1 -2.961-2.791l-.005-.209h-2a3 3 0 0 0 -2.995 2.824l-.005.176v46a3 3 0 0 0 2.824 2.995l.176.005h20a3 3 0 0 0 2.995-2.824l.005-.176v-9.51a1 1 0 0 1 1.993-.116l.007.116v9.51a5 5 0 0 1 -4.783 4.995l-.217.005h-20a5 5 0 0 1 -4.995-4.783l-.005-.217v-46a5 5 0 0 1 4.783-4.995l.217-.005zm-4 50a1 1 0 0 1 .117 1.993l-.117.007h-12a1 1 0 0 1 -.117-1.993l.117-.007zm22.108-37a2.848 2.848 0 0 1 2.884 2.646l.008.168v20.389a2.844 2.844 0 0 1 -2.704 2.795l-.171.002h-12.15a2.848 2.848 0 0 1 -2.885-2.646l-.007-.168v-20.389a2.846 2.846 0 0 1 2.718-2.795l.173-.002zm.017 2h-12.183a.846.846 0 0 0 -.85.712l-.01.102v20.356c.008.43.336.78.767.826l.11.005h12.181c.43.007.792-.31.85-.712l.009-.102v-20.357a.846.846 0 0 0 -.766-.826l-.11-.005zm-2.125 17a1 1 0 0 1 .117 1.993l-.117.007a1 1 0 0 1 -.119-1.993l.12-.007zm-4 0a1 1 0 0 1 .117 1.993l-.117.007a1 1 0 0 1 -.119-1.993l.12-.007zm-4 0a1 1 0 0 1 .117 1.993l-.117.007a1 1 0 0 1 -.119-1.993l.12-.007zm4-14a1 1 0 0 1 .117 1.993l-.117.007h-4a1 1 0 0 1 -.117-1.993l.117-.007zm-16-16h-12l.006.147a.967.967 0 0 0 .738.827l.11.02.112.006h10.068a.966.966 0 0 0 .958-.839l.008-.127z" fill="var(--db-icon-color, currentColor)" fill-rule="nonzero"/><path d="m12 24a2 2 0 0 1 2 2v5a2 2 0 0 1 -2 2h-5a2 2 0 0 1 -2-2v-5a2 2 0 0 1 2-2zm8 0a1 1 0 0 1 1 1v3h3a1 1 0 0 1 1 1v3a1 1 0 0 1 -1 1h-3a1 1 0 0 1 -1-1v-3h-3a1 1 0 0 1 -1-1v-3a1 1 0 0 1 1-1zm-8 1.5h-5a.5.5 0 0 0 -.492.41l-.008.09v5a.5.5 0 0 0 .41.492l.09.008h5a.5.5 0 0 0 .492-.41l.008-.09v-5a.5.5 0 0 0 -.41-.492zm11.5 4h-2v2h2zm-12.945-2.54a.5.5 0 0 1 .5.5v2a.5.5 0 0 1 -.5.5h-2a.5.5 0 0 1 -.5-.5v-2a.5.5 0 0 1 .5-.5zm8.945-1.46h-2v2h2zm-7.5-12.5a2 2 0 0 1 2 2v5a2 2 0 0 1 -2 2h-5a2 2 0 0 1 -2-2v-5a2 2 0 0 1 2-2zm11 0a2 2 0 0 1 2 2v5a2 2 0 0 1 -2 2h-5a2 2 0 0 1 -2-2v-5a2 2 0 0 1 2-2zm-11 1.5h-5a.5.5 0 0 0 -.492.41l-.008.09v5a.5.5 0 0 0 .41.492l.09.008h5a.5.5 0 0 0 .492-.41l.008-.09v-5a.5.5 0 0 0 -.41-.492zm11 0h-5a.5.5 0 0 0 -.492.41l-.008.09v5a.5.5 0 0 0 .41.492l.09.008h5a.5.5 0 0 0 .492-.41l.008-.09v-5a.5.5 0 0 0 -.41-.492zm-12.445 1.5a.5.5 0 0 1 .5.5v2a.5.5 0 0 1 -.5.5h-2a.5.5 0 0 1 -.5-.5v-2a.5.5 0 0 1 .5-.5zm10.884 0a.5.5 0 0 1 .5.5v2a.5.5 0 0 1 -.5.5h-2a.5.5 0 0 1 -.5-.5v-2a.5.5 0 0 1 .5-.5z" fill="var(--db-icon-pulse-color, #EC0016)"/></g></svg>
