<svg id="icon" height="64" viewBox="0 0 64 64" width="64" xmlns="http://www.w3.org/2000/svg"><g fill="none" fill-rule="evenodd" transform="translate(7 8)"><path d="m44 18a1 1 0 0 1 .993.883l.007.117v23.681c.092 2.765-2.014 5.095-4.78 5.307l-.22.012h-30.035c-2.765-.1-4.944-2.36-4.967-5.07l.002-.217v-23.713a1 1 0 0 1 1.993-.117l.007.117v23.748c-.056 1.676 1.208 3.09 2.826 3.24l.174.012h29.965c1.675-.06 3-1.418 3.036-3.104v-23.896a1 1 0 0 1 1-1zm-8.714 1c1.475 0 2.626 1.258 2.71 2.789l.004.178v10.033a1 1 0 0 1 -1.993.117l-.007-.117v-10.033c0-.52-.3-.904-.63-.96l-.085-.007h-20.571c-.333 0-.66.345-.708.84l-.006.127v10.033a1 1 0 0 1 -1.993.117l-.007-.117v-10.033c0-1.551 1.097-2.866 2.546-2.961l.168-.006zm10.332-19a1 1 0 0 1 .896.55l.05.115 3.378 9.5c.055.154.07.313.05.464.005.043.008.087.008.131 0 2.981-3.17 5.24-6.949 5.24-2.511 0-4.753-.998-5.974-2.542-1.222 1.544-3.464 2.542-5.977 2.542-2.524 0-4.775-1.008-5.993-2.565-1.215 1.557-3.467 2.565-5.992 2.565-2.588 0-4.89-1.06-6.083-2.685-1.194 1.625-3.496 2.685-6.085 2.685-3.777 0-6.947-2.26-6.947-5.24 0-.044.003-.088.009-.13a.986.986 0 0 1 .017-.357l.033-.112 3.381-9.387a1 1 0 0 1 .813-.653l.124-.008zm-.703 2.001-39.833.109-3.084 8.576.002.074c0 1.703 2.157 3.24 4.947 3.24 2.708 0 4.818-1.446 4.944-3.086l.006-.154a1 1 0 0 1 1.136-.99 1 1 0 0 1 1.129.874l.006.116c0 1.703 2.156 3.24 4.947 3.24 2.707 0 4.818-1.446 4.943-3.086l.006-.154a1 1 0 0 1 1-1h.09a1 1 0 0 1 .993.884l.007.116c0 1.703 2.156 3.24 4.947 3.24 2.707 0 4.818-1.446 4.943-3.086l.006-.154a1 1 0 0 1 .884-.993l.17-.007a1 1 0 0 1 .993.884l.007.116c0 1.703 2.156 3.24 4.947 3.24 2.707 0 4.818-1.446 4.943-3.086l.01-.231z" fill="var(--db-icon-color, currentColor)" fill-rule="nonzero"/><path d="m39 35a1 1 0 0 1 .117 1.993l-.117.007h-28a1 1 0 0 1 -.116-1.993l.116-.007z" fill="var(--db-icon-pulse-color, #EC0016)"/></g></svg>
