<svg id="icon" height="20" viewBox="0 0 20 20" width="20" xmlns="http://www.w3.org/2000/svg"><path d="m16 6.002c1.054 0 1.995.84 1.995 2l.005 7.998c0 1.054-.868 2-2 2h-12a2.01 2.01 0 0 1 -1.995-2l-.005-7.998a1.98 1.98 0 0 1 2-1.995zm0 2h-12v7.998h12zm-2.493.998c.332 0 .744.055 1.464.193l-.13 1.685a5.23 5.23 0 0 0 -1.295-.197c-.956 0-1.287.371-1.287 1.466 0 1.055.35 1.426 1.307 1.426.257 0 .706-.038 1.237-.188l.22 1.574c-.565.237-1.343.295-1.594.295-1.912 0-3.005-.977-3.005-3.088 0-2.072 1.113-3.166 3.083-3.166zm-6.01.137c1.405 0 2.108.547 2.108 1.563 0 .665-.273 1.017-.976 1.27.937.196 1.308.626 1.308 1.447 0 1.134-.84 1.72-2.517 1.72h-2.42v-6h2.498zm-.019 3.479h-.82v1.075h.762c.565 0 .819-.157.819-.528 0-.41-.215-.547-.761-.547zm-.078-2.033h-.741v.82h.721c.39 0 .586-.142.586-.429 0-.26-.176-.39-.566-.39zm8.6-8.581c1.054 0 1.911.802 1.995 1.85l.005.398a1 1 0 0 1 -1 1c-.513 0-1-.43-1-.968v-.28h-12v.248a1 1 0 0 1 -1 1 .99.99 0 0 1 -.993-1l-.007-.248c0-1.055.806-2 2-2z" fill="#282D37" style="fill: currentColor;fill: var(--db-icon-color, currentColor)" fill-rule="evenodd"/></svg>
