<svg id="icon" height="24" viewBox="0 0 24 24" width="24" xmlns="http://www.w3.org/2000/svg"><path d="m14.781 2c1.938 0 3.531 1.591 3.531 3.494 0 .562-.156 1.03-.375 1.529h1.563c1.375 0 2.5 1.123 2.5 2.465v9.016a2.505 2.505 0 0 1 -2.5 2.496h-15a2.505 2.505 0 0 1 -2.5-2.496v-9.016c0-1.342 1.125-2.465 2.5-2.465h1.531c-.218-.5-.343-.967-.343-1.529a3.511 3.511 0 0 1 3.5-3.494 3.39 3.39 0 0 1 2.78 1.435c.658-.873 1.689-1.435 2.814-1.435zm-3.781 10.982h-7v5.522c0 .25.219.5.5.5h6.5zm9 0h-7v6.021h6.5c.281 0 .5-.25.5-.499zm-9-3.993h-6.5c-.281 0-.5.218-.5.499v1.497h7v-1.995zm8.5 0h-6.5v1.996h7v-1.497c0-.281-.219-.5-.5-.5zm-10.313-4.992a1.5 1.5 0 0 0 -1.5 1.497c0 .843.657 1.529 1.5 1.529.813 0 1.5-.686 1.5-1.529a1.52 1.52 0 0 0 -1.5-1.497zm5.594 0c-.812 0-1.5.686-1.5 1.497 0 .843.688 1.529 1.5 1.529.844 0 1.531-.686 1.531-1.529 0-.81-.687-1.497-1.53-1.497z" fill="#282D37" style="fill: currentColor;fill: var(--db-icon-color, currentColor)" fill-rule="evenodd"/></svg>
