<svg id="icon" height="24" viewBox="0 0 24 24" width="24" xmlns="http://www.w3.org/2000/svg"><path d="m14 2c.281 0 .531.094.719.313l4 4a.919.919 0 0 1 .281.687v14c0 .563-.438 1-1 1h-12c-.563 0-1-.438-1-1v-18c0-.563.438-1 1-1zm-2 2h-5v16h10v-11h-4c-.563 0-1-.469-1-1zm2 .406v2.594h2.594zm0 11.594h-4c-.563 0-1 .438-1 1 0 .563.438 1 1 1h4c.563 0 1-.438 1-1 0-.563-.438-1-1-1zm0-4h-4c-.563 0-1 .438-1 1 0 .563.438 1 1 1h4c.563 0 1-.438 1-1 0-.563-.438-1-1-1z" fill="#282D37" style="fill: currentColor;fill: var(--db-icon-color, currentColor)" fill-rule="evenodd"/></svg>