<svg id="icon" height="32" viewBox="0 0 32 32" width="32" xmlns="http://www.w3.org/2000/svg"><path d="m28.217 3.79c.258.29.355.709.226 1.096l-9.1 23.324a1.993 1.993 0 0 1 -1.87 1.29 1.989 1.989 0 0 1 -1.905-1.323l-3.194-8.548-8.551-3.194c-.807-.323-1.323-1.065-1.323-1.903 0-.84.484-1.581 1.29-1.904l23.33-9.065c.387-.129.807-.064 1.097.226zm-3.42 4.838-10.455 10.452 3.13 8.388zm-1.452-1.42-18.812 7.325 8.357 3.129 10.455-10.453z" fill="#282D37" style="fill: currentColor;fill: var(--db-icon-color, currentColor)" fill-rule="evenodd"/></svg>
