<svg id="icon" height="20" viewBox="0 0 20 20" width="20" xmlns="http://www.w3.org/2000/svg"><path d="m14.937 2c1.46 0 2.698 1.175 2.698 2.667 0 .952-.508 1.81-1.27 2.317.413.92.635 1.937.635 2.984 0 1.651-.54 3.143-1.46 4.35l1.301 2.095c.098.157.159.349.159.54 0 .57-.413 1.015-.984 1.015-.318 0-.625-.164-.825-.476l-1.143-1.778a7.07 7.07 0 0 1 -4.032 1.27 7.29 7.29 0 0 1 -4.032-1.238l-1.143 1.778c-.2.311-.508.476-.793.476-.857 0-1.271-.89-.857-1.556l1.301-2.095a7.406 7.406 0 0 1 -1.46-4.38c0-1.017.222-2.032.635-2.953-.794-.508-1.302-1.397-1.302-2.318 0-1.492 1.238-2.698 2.667-2.698 1.047 0 2.032.603 2.476 1.492.825-.35 1.587-.476 2.508-.476.889 0 1.682.095 2.508.38a2.749 2.749 0 0 1 2.413-1.396zm-4.89 2.984a5.057 5.057 0 0 0 -5.047 5.046 5.057 5.057 0 0 0 5.046 5.047 5.057 5.057 0 0 0 5.046-5.047 5.057 5.057 0 0 0 -5.046-5.046zm.953 2.016v2h2v2h-2v2h-2v-2h-2v-2h2v-2z" fill="#282D37" style="fill: currentColor;fill: var(--db-icon-color, currentColor)" fill-rule="evenodd"/></svg>
