<svg id="icon" height="32" viewBox="0 0 32 32" width="32" xmlns="http://www.w3.org/2000/svg"><path d="m10.282 11.782a1.997 1.997 0 0 1 1.969-2.282h7.53c1.187 0 2.113 1.092 1.937 2.28l-1.188 8.5c-.12.813-.75 1.468-1.562 1.655v7.093a.98.98 0 0 1 -1 .969.973.973 0 0 1 -.968-.969v-8.061c0-.531.437-.969.968-.969h.594l1.219-8.53h-7.53l1.156 8.532h.625a.98.98 0 0 1 1 .969v8.061a.98.98 0 0 1 -1 .969.973.973 0 0 1 -.97-.969v-7.061h-.499c-.469 0-.9-.376-.969-.844l-1.312-9.342zm5.547-9.78c1.616 0 2.984 1.368 2.984 3.016s-1.368 2.984-2.984 2.984a2.992 2.992 0 0 1 -3.016-2.984 3.018 3.018 0 0 1 3.016-3.016zm.015 2.031c-.563 0-1 .438-1 1 0 .563.437 1 1 1 .53 0 1-.438 1-1s-.47-1-1-1z" fill="var(--db-icon-color, currentColor)" fill-rule="evenodd"/></svg>
