<svg id="icon" height="64" viewBox="0 0 64 64" width="64" xmlns="http://www.w3.org/2000/svg"><g fill="none" fill-rule="evenodd" transform="translate(7 8)"><path d="M39 24c7.719 0 14 6.281 14 14s-6.281 14-14 14-14-6.281-14-14 6.281-14 14-14Zm0 2c-6.625 0-12 5.375-12 12s5.375 12 12 12 12-5.375 12-12-5.375-12-12-12Zm0-26a3 3 0 0 1 3 3v1h3a5 5 0 0 1 4.995 4.783L50 9v15a1 1 0 0 1-1.993.117L48 24V9a3 3 0 0 0-2.824-2.995L45 6h-3v1a3 3 0 0 1-2.824 2.995L39 10a3 3 0 0 1-3-3V6H14v1a3 3 0 0 1-2.824 2.995L11 10a3 3 0 0 1-3-3V6H5a3 3 0 0 0-2.995 2.824L2 9v33a3 3 0 0 0 2.824 2.995L5 45h18.928a1 1 0 0 1 .117 1.993l-.117.007H5a5 5 0 0 1-4.995-4.783L0 42V9a5 5 0 0 1 4.783-4.995L5 4h3V3A3 3 0 0 1 10.824.005L11 0a3 3 0 0 1 3 3v1h22V3A3 3 0 0 1 38.824.005Zm0 29c.5 0 1 .438 1 1v7.594l3.719 3.687a.81.81 0 0 1 .266.61c0 .448-.39 1.132-1.008 1.132a.998.998 0 0 1-.696-.304l-4-4a1.056 1.056 0 0 1-.281-.594V30c0-.563.438-1 1-1ZM8.5 35a3.5 3.5 0 1 1 0 7 3.5 3.5 0 0 1 0-7Zm11 0a3.5 3.5 0 1 1 0 7 3.5 3.5 0 0 1 0-7Zm-11 2a1.5 1.5 0 1 0 0 3 1.5 1.5 0 0 0 0-3Zm11 0a1.5 1.5 0 1 0 0 3 1.5 1.5 0 0 0 0-3Zm-11-11a3.5 3.5 0 1 1 0 7 3.5 3.5 0 0 1 0-7Zm11 0a3.5 3.5 0 1 1 0 7 3.5 3.5 0 0 1 0-7Zm-11 2a1.5 1.5 0 1 0 0 3 1.5 1.5 0 0 0 0-3Zm11 0a1.5 1.5 0 1 0 0 3 1.5 1.5 0 0 0 0-3Zm-11-11a3.5 3.5 0 1 1 0 7 3.5 3.5 0 0 1 0-7Zm11 0a3.5 3.5 0 1 1 0 7 3.5 3.5 0 0 1 0-7Zm11 0a3.5 3.5 0 1 1 0 7 3.5 3.5 0 0 1 0-7Zm11 0a3.5 3.5 0 0 1 3.244 4.815 1 1 0 0 1-1.89-.641l.037-.11a1.5 1.5 0 1 0-2.884-.708L40 20.5a1 1 0 0 1-2 0 3.5 3.5 0 0 1 3.5-3.5Zm-33 2a1.5 1.5 0 1 0 0 3 1.5 1.5 0 0 0 0-3Zm11 0a1.5 1.5 0 1 0 0 3 1.5 1.5 0 0 0 0-3Zm11 0a1.5 1.5 0 1 0 0 3 1.5 1.5 0 0 0 0-3ZM12 6h-2v1a1 1 0 0 0 .883.993L11 8a1 1 0 0 0 1-1V6Zm28 0h-2v1a1 1 0 0 0 .883.993L39 8a1 1 0 0 0 1-1V6Zm-1-4a1 1 0 0 0-1 1v1h2V3a1 1 0 0 0-.883-.993ZM11 2a1 1 0 0 0-1 1v1h2V3a1 1 0 0 0-.883-.993Z" fill="var(--db-icon-color, currentColor)" fill-rule="nonzero"/><rect width="40" height="2" x="5" y="12" fill="var(--db-icon-pulse-color, #EC0016)" rx="1"/></g></svg>
