<svg id="icon" height="24" viewBox="0 0 24 24" width="24" xmlns="http://www.w3.org/2000/svg"><path d="m16.125 13.031c2.75 0 4.875 2.063 4.875 5.094v2.875c0 .563-.438 1-1 1-.563 0-1-.438-1-1v-2.875c0-2.531-1.875-3.094-2.781-3.094-1.25.625-2.688.969-4.219.969s-2.969-.344-4.219-.969c-.937 0-2.781.563-2.781 3.094v2.875c0 .563-.438 1-1 1-.563 0-1-.438-1-1v-2.875c0-2.906 2.094-5.094 4.719-5.094.312 0 .718.063.937.188.969.531 2.094.781 3.344.781s2.375-.25 3.344-.781c.25-.125.531-.188.781-.188zm-4.125-11.031c2.75 0 5 2.25 5 5s-2.25 5-5 5-5-2.25-5-5 2.25-5 5-5zm0 2a3 3 0 1 0 .002 6.002 3 3 0 0 0 -.002-6.002z" fill="#282D37" style="fill: currentColor;fill: var(--db-icon-color, currentColor)" fill-rule="evenodd"/></svg>
