<svg id="icon" height="24" viewBox="0 0 24 24" width="24" xmlns="http://www.w3.org/2000/svg"><path d="m12 2a9.99 9.99 0 0 1 10 10 9.99 9.99 0 0 1 -10 10 9.99 9.99 0 0 1 -10-10 9.99 9.99 0 0 1 10-10zm4.5 6.375c.563 0 1.031.469 1.031.969 0 .25-.062.5-.312.75l-6.375 6.344a1.017 1.017 0 0 1 -.719.312c-.25 0-.469-.094-.688-.313l-2.717-2.717a1.043 1.043 0 0 1 -.283-.72c0-.563.47-1 1-1 .282 0 .47.094.688.313l2.031 2 5.656-5.657a.97.97 0 0 1 .688-.281z" fill="#282D37" style="fill: currentColor;fill: var(--db-icon-color, currentColor)" fill-rule="evenodd"/></svg>
