<svg id="icon" height="24" viewBox="0 0 24 24" width="24" xmlns="http://www.w3.org/2000/svg"><path d="m12 2c5.5 0 10 4.5 10 10a9.99 9.99 0 0 1 -10 10 9.99 9.99 0 0 1 -10-10 9.99 9.99 0 0 1 10-10zm-4 11h-3.938c.438 3.563 3.25 6.438 6.938 6.938-1.25-1.595-2.313-4.063-3-6.938zm6.563 0h-4.5c1.124 4.688 3.124 6.813 3.75 6.656.437-.093 1-1.406 1-3.75 0-.844-.094-1.812-.25-2.906zm5.374 0h-3.375c.157 1 .22 1.969.22 2.875 0 1-.095 1.938-.282 2.719 1.969-1.375 3.031-3.063 3.438-5.594zm-12.249-7.719c-2.125 1.407-3.312 3.407-3.625 5.719h3.563a20.26 20.26 0 0 1 -.219-3c0-1 .094-1.906.282-2.719zm2.72-1.031c-.438 0-1.032 1.313-1.032 3.75 0 .875.063 1.875.25 3h4.531c-1.125-4.625-3.031-6.75-3.75-6.75zm2.874-.156c1.28 1.75 2.28 4.156 2.938 6.906h3.718c-.5-3.563-3.156-6.313-6.656-6.906z" fill="#282D37" style="fill: currentColor;fill: var(--db-icon-color, currentColor)" fill-rule="evenodd"/></svg>