<svg id="icon" height="20" viewBox="0 0 20 20" width="20" xmlns="http://www.w3.org/2000/svg"><path d="m15.75 4a2.26 2.26 0 0 1 2.25 2.25v7.5c0 1.219-1 2.25-2.25 2.25h-11.5a2.26 2.26 0 0 1 -2.25-2.25v-7.5c0-1.219 1-2.25 2.25-2.25zm-9.188 2h-2.562v8h4.875c-.25-.25-.406-.563-.406-.906 0-.688.594-1.25 1.281-1.25.688 0 1.25.562 1.25 1.25 0 .344-.125.656-.375.906h5.375v-8h-7.281c.5.344.781.938.781 1.531a1.86 1.86 0 0 1 -1.875 1.875c-1 0-1.875-.812-1.875-1.875 0-.593.313-1.187.813-1.531zm5.657 1a2.407 2.407 0 0 1 2.406 2.406c0 1.281-1.094 2.375-2.406 2.375-1.313 0-2.406-1.094-2.406-2.375a2.407 2.407 0 0 1 2.406-2.406z" fill="var(--db-icon-color, currentColor)" fill-rule="evenodd"/></svg>
