<svg id="icon" height="24" viewBox="0 0 24 24" width="24" xmlns="http://www.w3.org/2000/svg"><path d="m17.9893195 4.14790115c1.0319592 1.04250192 1.0660889 2.6992649.1053676 3.78239188l-8.0929247 8.10002027c-.39052432.3905243-1.0236893.3905243-1.41421359 0-.3626297-.3626297-.38853182-.934475-.07770637-1.3269927l8.05536376-8.06487825c.2988811-.29888103.3001055-.78308396.0027399-1.08347278-.2672252-.26994202-.6886657-.29445605-.9838764-.0721237l-9.11681278 9.10638493c-.9780334.9780334-.98004805 2.5631164-.00450398 3.5436328.93155417.9363023 2.42244528.9774495 3.40312226.1207229l7.5803735-7.5722796c.3905243-.3905243 1.0236892-.3905243 1.4142135 0 .3626297.3626297.3885319.934475.0777064 1.3269927l-7.5418192 7.5513336c-1.75835661 1.7494193-4.60197084 1.7421908-6.35141087-.016145-1.70310269-1.7118044-1.74834636-4.4489-.13825761-6.2151919l9.19314928-9.20006592c1.0794959-1.06858196 2.820857-1.05977482 3.8894893.01967077z" fill="var(--db-icon-color, currentColor)" fill-rule="evenodd"/></svg>
