<svg id="icon" height="24" viewBox="0 0 24 24" width="24" xmlns="http://www.w3.org/2000/svg"><path d="m10.158 16c1.042 0 1.956.708 2.171 1.717l.65 3.062a1 1 0 1 1 -1.957.414l-.649-3.06c-.011-.054-.07-.133-.215-.133h-5.311c-.118 0-.203.066-.217.131l-.652 3.076a1 1 0 1 1 -1.956-.414l.652-3.077c.203-.952 1.092-1.716 2.173-1.716h5.31zm7.372-3.348a1 1 0 1 1 -1.058 1.695 1 1 0 0 1 1.058-1.695zm-4.028-.516a1 1 0 1 1 -1.005 1.73 1 1 0 0 1 1.005-1.73zm8.362.362a1 1 0 1 1 -1.728 1.006 1 1 0 0 1 1.728-1.006zm-14.344-5.56a3.47 3.47 0 0 1 3.48 3.48c0 1.933-1.552 3.52-3.48 3.52-1.93 0-3.52-1.59-3.52-3.52 0-1.928 1.586-3.48 3.52-3.48zm0 2c-.839 0-1.52.667-1.52 1.48 0 .826.694 1.52 1.52 1.52.813 0 1.48-.682 1.48-1.52a1.47 1.47 0 0 0 -1.48-1.48zm10.01.714a.999.999 0 1 1 -1.06 1.695 1 1 0 1 1 1.06-1.695zm-3.028-.516a1 1 0 1 1 -1.003 1.73 1 1 0 0 1 1.003-1.73zm6.362.362a1 1 0 1 1 -1.727 1.006 1 1 0 0 1 1.727-1.006zm-3.864-7.498c.513 0 .993.414.993 1l.008 2.53a17.61 17.61 0 0 1 3.242.5 1 1 0 0 1 -.486 1.94 15.438 15.438 0 0 0 -3.757-.47c-1.25 0-2.503.156-3.757.47a1 1 0 1 1 -.486-1.94 17.61 17.61 0 0 1 3.243-.5v-2.53a1 1 0 0 1 1-1z" fill="var(--db-icon-color, currentColor)" fill-rule="evenodd"/></svg>
