<svg id="icon" height="20" viewBox="0 0 20 20" width="20" xmlns="http://www.w3.org/2000/svg"><path d="m6.084 2c.533 0 1.065.178 1.46.592l2.386 2.407c.316.315.454.69.454 1.085 0 .434-.178.868-.494 1.183l-.808.81c.987 1.286 1.298 1.66 2.525 2.564l.868-.868c.316-.316.73-.434 1.105-.434.394 0 .77.158 1.085.454l2.367 2.406c.414.415.592.947.592 1.48 0 1.46-2.269 3.748-4.084 3.748-4.744 0-11.166-6.419-11.166-10.968.001-2.084 1.93-4.459 3.71-4.459zm-.022 1.918c-.037-.004-.096.015-.156.055-.828.394-1.598 1.558-1.598 2.486 0 3.386 5.692 9.015 8.898 9.015 1.026 0 1.558-.453 2.407-1.499.158-.237.118-.335.059-.434l-2.091-2.11-1.184 1.143c-.197.158-.414.296-.69.296-1.07 0-4.834-3.754-4.834-4.912 0-.257.079-.474.276-.651l1.145-1.184-2.111-2.15a.151.151 0 0 0 -.121-.055z" fill="#282D37" style="fill: currentColor;fill: var(--db-icon-color, currentColor)" fill-rule="evenodd"/></svg>
