<svg id="icon" height="20" viewBox="0 0 20 20" width="20" xmlns="http://www.w3.org/2000/svg"><path d="m9.07726288 3.99999991c.32208919 0 .58246898.17709121.69861289.3063584l1.14912423 1.1936416h4.075c1.0543618 0 2.0054857.84395847 2 2v1.5c.591606 0 1.1136694.54841337.98 1.19611619l-.8386426 4.1961162c-.1765824.8829123-.9579286 1.6077676-1.9611613 1.6077676h-10.3603922c-.8965741 0-1.75077337-.6110204-1.96116135-1.6077676l-.83922323-4.1961162c-.11602348-.5801174.31117474-1.19611619.98058068-1.19611619v-3c0-1.05436171.8343153-2 1.99966022-2zm-.44626288 2.00000009h-3.631l-.00033978 3h9.99999998l.0003398-1.5h-4.5c-.2327633 0-.5-.07952547-.72032021-.30635831z" fill="var(--db-icon-color, currentColor)" fill-rule="evenodd"/></svg>
