<svg id="icon" height="20" viewBox="0 0 20 20" width="20" xmlns="http://www.w3.org/2000/svg"><path d="m11.9886513 4c.5984315 0 1.1654192.26797277 1.5453168.7303559l1.0480319 1.2766441 1.4118314-.0039014c1.0543568-.00325198 1.9206724.80995769 2.000213 1.84457714l.0059556.14924472v6.00307954c0 1.1045695-.8954305 2-2 2h-12c-1.1045695 0-2-.8954305-2-2v-5.99109188c0-1.1045695.8954305-2 2-2l1.441-.00090812 1.01247385-1.25998823c.34164262-.4255989.84046543-.69100931 1.37887926-.73983541l.18077631-.00817636zm-1.9886513 4.5c-1.1045695 0-2 .8954305-2 2s.8954305 2 2 2 2-.8954305 2-2-.8954305-2-2-2z" fill="var(--db-icon-color, currentColor)" fill-rule="evenodd"/></svg>
