<svg id="icon" height="24" viewBox="0 0 24 24" width="24" xmlns="http://www.w3.org/2000/svg"><path d="m12 16.9948134c.5128358 0 1 .4154101 1 1v1.3839422l.563758-.2823358c.4935926-.2477596 1.0945773-.0484726 1.3423369.44512.2300625.458336.0968693 1.0621306-.44512 1.3423368l-2.0114654 1.0096583c-.241962.1214533-.5977465.1534109-.8972168 0l-2.01032564-1.0090862c-.49359258-.2477595-.69287959-.8487442-.44512-1.3423368.23006248-.458336.79119596-.6928077 1.34233684-.44512l.5608161.2817637v-1.3839422c0-.5522848.4477153-1 1-1zm7.9992759-3.5000408c.5386452-.000349 1.0007238.4279663 1.0007238 1.0000408l.0018296 2.4882038c.0002162.3364185-.200229.7118137-.5514187.895175l-2.5574315 1.2829844c-.4935926.2477596-1.0945773.0484726-1.3423369-.44512-.2300624-.458336-.0630505-1.0856133.44512-1.3423368l.9112378-.4579642-.2823222-.16317c-.418506-.2416246-.5618968-.7767662-.3202722-1.1952722.2230381-.3863133.7362345-.5665915 1.1952722-.3202723l.5013222.2897145-.0009997-1.0312182c-.0003977-.5492102.4606304-1.0003343.9992756-1.0007648zm-15.9992759.0000408c.51283584 0 1 .430815 1 1.000724v1.0302182l.50032217-.2887145c.41850605-.2416245.95364765-.0982338 1.19527223.3202723.22303807.3863132.1116752.9532194-.32027223 1.1952722l-.28332217.16217.88701654.4453997c.50725378.2539337.68292227.8685815.44512 1.3423369-.23780228.4737553-.78780315.6939843-1.33757284.44512l-2.53517212-1.2701425c-.30045968-.1508162-.54466385-.4710414-.55139158-.8826563v-2.5c0-.5522848.44771525-1 1-1zm11.0678335-4.87175563c1.258106 0 1.887159.55330479 1.887159 1.65991433 0 .4529379-.1113948.8003619-.3341844 1.0422719-.1651264.1749987-.4115055.3113948-.7391373.4091882.2175475.1158079.3984003.3191153.5425582.609922.382042.79168.6690253 1.3837677.8609497 1.7762634.1126163.2303062-.0763124.4974476-.5070936.4974476-.2136536 0-.5879998-.0644641-.7260058-.3406529l-.7955299-1.6666998c-.1074633-.2264689-.2123054-.3795928-.3145265-.4593716-.0891159-.0694848-.2319633-.1042272-.4285424-.1042272h-.4035807v1.9438499c0 .3463307-.2807561.6271016-.6270868.6271016s-.6270875-.2807709-.6270875-.6271016v-4.86832307c0-.27591194.2236711-.49958276.499583-.49958276zm-5.59253845 0c.26252075 0 .50022222.15163135.59848015.41213701l1.9076668 5.05830172c.1067708.2831452.0561131.5245544-.4488452.5245544-.4488451 0-.6161654-.1128378-.7294108-.3934008l-.3553232-.8805428h-2.22558126l-.29927005.8055979c-.12595481.3391137-.29921011.4683457-.74811519.4683457-.44884514 0-.55711471-.2232734-.44884514-.5058182l1.94507552-5.07703792c.0847692-.22123164.27978632-.41213701.52366264-.41213701zm-.10005296 1.60129633-.79487614 2.2256412h1.58969235zm5.55891741-.65939149c.3931582 0 .6329846.11194771.7194794.33584314.0419369.10551395.0629053.27279215.0629053.50183455 0 .2805127-.0511105.4760995-.1533317.5867605-.1231895.136396-.3354949.2045941-.6369161.2045941h-.8191161v-1.62903229zm-7.50837886-4.3113126c.22687767.45992078.06173997 1.06168842-.4467641 1.33630481l-.93101654.45780074.32732217.18928557c.41850605.24162458.56189681.77676619.32027223 1.19527223-.22303807.38631327-.75393757.5625-1.19527223.32027223l-.50032217-.28983003v1.0320578c0 .57751364-.48716416 1.00000004-1 1.00000004s-1-.4093264-1-.99340623v-2.5578289c0-.33840854.20591736-.73169338.55139158-.89681872l2.53517212-1.24753002c.4952993-.2443298 1.09488715-.04087882 1.33921694.45442048zm10.48121936-.45442048 2.5372004 1.24753002c.3036941.14981149.5489872.46209836.5557994.89752512v2.55123509c-.0003902.55228464-.4484216.99968344-1.0007062.99934084-.5128357-.0004098-.9982936-.4123276-.9982936-.99424431v-1.03886073l-.5013222.29083003c-.418506.24162458-.9536476.09823382-1.1952722-.32027223-.2230381-.38631327-.1287909-.92891411.3202722-1.19527223l.3273222-.18928557-.9274614-.45780074c-.5578249-.27367683-.663846-.91467469-.4544205-1.33921695.2094256-.42454225.7639465-.71978405 1.3368819-.45150834zm-5.4637007-2.69929268 2.035648 1.00417958c.4952993.24432979.6987502.84391764.4544204 1.33921694-.2268776.45992078-.7809088.70447092-1.3392169.45442049l-.5941508-.2939983v1.3910578c0 .55228475-.4477153 1-1 1-.5128358 0-1-.40485854-1-1v-1.3900578l-.5426848.26849928c-.51846697.26509333-1.1123393.00550029-1.33921696-.45442049-.22687767-.45992077-.10340446-1.03244809.45442048-1.33921694l1.98598418-.97968056c.2368022-.13324913.6529481-.13324913.8847964 0z" fill="var(--db-icon-color, currentColor)" fill-rule="evenodd"/></svg>
