<svg id="icon" height="20" viewBox="0 0 20 20" width="20" xmlns="http://www.w3.org/2000/svg"><path d="m10.3452472 7.99342412c.1059395.50177427-.1767848 1.04784711-.65913882 1.15433273-.97818294.21594602-1.61709646.94428575-1.689644 1.82143695l-.00684395 3.2842338c0 1.1045695.8954305 2 2 2 1.05436177 0 1.92149877-.8156775 1.99999997-2 .0364549-.549983.4477153-1 1-1 .5522848 0 1 .4477153 1 1 0 2.209139-1.790861 4-3.99999997 4-2.14219539 0-3.89107887-1.6839684-3.99510469-3.8003596l-.00489531-3.3178005c0-1.89970731 1.33397056-3.52592654 3.1706203-3.91369808.54037229-.11408871 1.07091777.23148241 1.18500647.7718547zm-.35562677-6.34091173c2.14219537 0 3.89107887 1.68396847 3.99510467 3.80035966l.0048953 3.3178005c0 1.89970725-1.3339705 3.52592655-3.1706203 3.91369805-.5403723.1140887-1.07091772-.2314824-1.18500643-.7718547-.1140887-.5403723.23148242-1.0709178.77185473-1.1850065.8623629-.1820705 1.5043805-.91361196 1.5769281-1.79076322l.0068439-3.28423379c0-1.1045695-.8954305-2-1.99999997-2-1.05436179 0-1.91809109.81801156-2 2-.03809774.5497704-.44771525 1-1 1s-1-.44771525-1-1c0-2.209139 1.790861-4 4-4z" fill="var(--db-icon-color, currentColor)" fill-rule="evenodd" transform="matrix(.70710678 .70710678 -.70710678 .70710678 9.963705 -4.148571)"/></svg>
