<svg id="icon" height="32" viewBox="0 0 32 32" width="32" xmlns="http://www.w3.org/2000/svg"><path d="m9.5 20c1.325 0 2.5 1.056 2.5 2.5v5a2.49 2.49 0 0 1 -2.5 2.5h-5c-1.325 0-2.528-1.092-2.5-2.5v-5a2.49 2.49 0 0 1 2.5-2.5zm-5 2c-.245 0-.5.204-.5.5v5c0 .245.197.5.5.5h5c.245 0 .5-.19.5-.5v-5c0-.237-.189-.5-.5-.5zm22.5-20c1.598 0 3 1.281 3 3v18c0 1.598-1.279 3-3 3h-11a1 1 0 0 1 0-2h11c.513 0 1-.435 1-1v-18c0-.513-.398-1-1-1h-18c-.513 0-1 .424-1 1v11a1 1 0 0 1 -1 1c-.513 0-1-.426-1-1v-11c0-1.598 1.293-3 3-3zm-4 6c.513 0 1 .419 1 1v6a1 1 0 1 1 -2 0v-3.586l-6.293 6.293a1 1 0 0 1 -1.414 0c-.36-.36-.423-1.009 0-1.414l6.291-6.293h-3.584a1 1 0 0 1 0-2z" fill="var(--db-icon-color, currentColor)" fill-rule="evenodd"/></svg>
