<svg id="icon" height="32" viewBox="0 0 32 32" width="32" xmlns="http://www.w3.org/2000/svg"><path d="m17.734 10.998c1.406 0 2.577 1.21 2.415 2.618l-.503 4.96c1.135-.123 2.128.57 2.498 1.418 1.464-.292 2.156.504 2.824 1.363 1.834-.36 3.122 1.071 3.036 2.414l-.199 2.06-.107 3.2a1 1 0 0 1 -1.033.967 1.015 1.015 0 0 1 -.966-1.033c.035-1.088.072-2.175.111-3.263l.19-1.988c.02-.202-.154-.399-.418-.42-.22-.018-.41.128-.535.488-.123 1.283-2.08 1.185-1.991-.19.037-.414.077-.827.118-1.24.02-.203-.153-.399-.418-.42-.245-.02-.494.129-.524.374-.028.27-.054.54-.078.81-.122 1.284-2.08 1.231-1.99-.189.06-.647.121-1.295.185-1.942.02-.202-.153-.398-.418-.42-.245-.02-.499.12-.524.373a165.25 165.25 0 0 0 -.154 1.518c-.13 1.283-2.097 1.186-1.99-.201l.896-8.835c.017-.18-.173-.4-.418-.42-.246-.02-.525.155-.525.378-.407 4.06-.812 8.12-1.214 12.181l.402 3.319a1 1 0 0 1 -.872 1.113 1.014 1.014 0 0 1 -1.113-.872c-.09-.737-.227-1.995-.407-3.774l1.213-12.161c.122-1.27 1.21-2.185 2.509-2.186zm-6.875-8.514 3.004 5.007c1.021 1.733.517 3.507-1.621 3.505h-1.24l-.001.587.703.704c.534.544.801 1.048.801 1.512 0 .478-.263.874-.823 1.19.572.32.823.694.823 1.18 0 .575-.25.996-.667 1.405l-.837.795v1.631c0 2.094-1.155 2.945-3.648 2.994l-1.34.003c-.45-.003-1.011.437-1.011 1.002v3a1 1 0 0 1 -1 1c-.513 0-1.002-.451-1-1-.003-1-.003-2 0-3-.002-1.314 1-2.997 2.562-3.003h1.741c1.046.007 1.697-.338 1.705-.997l-.008-2c0-.424.37-.941 1.112-1.55-.53-.281-.696-.972-.698-1.44s.071-1.135.712-1.469l-.834-.834a1 1 0 0 1 -.284-.575l-.008-1.132c0-1.08.781-2.002 2-2.002l1.373.003-3.23-5.486a1 1 0 0 1 .342-1.372c.44-.264 1.036-.164 1.372.342zm9.092.516c.982 0 1.524.47 1.524 1.33 0 .888-.56 1.365-1.595 1.365-.188 0-.435-.018-.612-.041v1.176a.52.52 0 1 1 -1.038 0v-3.316c0-.287.232-.515.525-.515h1.196zm5.92 1.053c.222 0 .492.057.661.11.184.058.302.15.302.335 0 .186-.152.374-.336.336a1.657 1.657 0 0 0 -.58-.11c-.311 0-.448.076-.448.241 0 .106.038.17.131.23l.048.021.088.03.382.102c.6.158.837.435.837.97 0 .672-.424 1.027-1.249 1.03a2.95 2.95 0 0 1 -.954-.162c-.178-.065-.237-.193-.23-.333.012-.214.204-.365.428-.282.132.048.426.118.674.118.346 0 .478-.077.478-.277a.23.23 0 0 0 -.09-.194l-.042-.023-.051-.02-.254-.072-.118-.032c-.669-.2-.901-.459-.901-1.018 0-.659.418-1 1.225-1zm-2.826 0c.221 0 .488.055.66.11.184.058.302.15.302.335 0 .186-.152.374-.335.336a1.657 1.657 0 0 0 -.58-.11c-.312 0-.449.076-.449.241 0 .106.038.17.131.23l.1.04.139.04.28.073c.599.158.836.435.836.97 0 .672-.424 1.027-1.249 1.03a2.95 2.95 0 0 1 -.954-.162c-.177-.065-.237-.193-.23-.333.012-.214.205-.365.428-.282.132.048.426.118.674.118.346 0 .478-.077.478-.277a.23.23 0 0 0 -.09-.194l-.041-.023-.052-.02-.372-.104c-.669-.2-.901-.459-.901-1.018 0-.659.418-1 1.225-1zm5.224-.642c.218 0 .341.117.37.272l.005.069v.395l.468-.002a.327.327 0 0 1 .066.648l-.066.007h-.468v1.569c0 .235.084.312.345.312l.056-.003.102-.012c.223-.045.35.133.35.297a.34.34 0 0 1 -.252.33 1.646 1.646 0 0 1 -.436.049c-.734 0-1.07-.274-1.108-.924l-.004-.135v-1.484h-.092a.325.325 0 0 1 -.066-.646l.066-.006h.159l.115-.365c.067-.212.137-.372.39-.372zm-21.767.588a1.5 1.5 0 1 1 0 3 1.5 1.5 0 0 1 0-3zm13.355-.246h-.589v1.206c.147.024.341.035.518.035.488 0 .682-.182.682-.64 0-.436-.17-.6-.611-.6z" fill="#282D37" style="fill: currentColor;fill: var(--db-icon-color, currentColor)" fill-rule="evenodd"/></svg>
