<svg id="icon" height="64" viewBox="0 0 64 64" width="64" xmlns="http://www.w3.org/2000/svg"><g fill="none" fill-rule="evenodd" transform="translate(6.67 4)"><path d="m38.028.221a4.893 4.893 0 0 1 6.055 3.016l.07.207 2.107 6.787a1 1 0 0 1 -.55 1.21l-.109.041-37.094 11.518h38.822a1 1 0 0 1 .994.884l.006.116v27a5 5 0 0 1 -4.783 4.996l-.216.004h-36a5 5 0 0 1 -4.995-4.783l-.006-.217v-27l.007-.109-.007-.02-2.109-6.785a4.893 4.893 0 0 1 3.016-6.055l.207-.07zm8.301 24.78h-42v26a3 3 0 0 0 2.824 2.994l.177.005h36a3 3 0 0 0 2.995-2.823l.005-.177v-26zm-22.967 14.217a1.945 1.945 0 0 1 1.821.016l.15.09 6.144 4.09c.532.354.852.948.852 1.585 0 .585-.27 1.132-.724 1.492l-.128.093-6.144 4.09a1.944 1.944 0 0 1 -1.97.107 1.91 1.91 0 0 1 -1.027-1.528l-.007-.164v-8.18c0-.712.4-1.363 1.033-1.691zm.966 1.84v7.882l5.921-3.94-5.92-3.943zm-13.444-13.89a1 1 0 0 1 .337 1.285l-.06.101-2 3a1 1 0 0 1 -1.723-1.009l.06-.1 2-3a1 1 0 0 1 1.386-.278zm8 0a1 1 0 0 1 .337 1.285l-.06.101-2 3a1 1 0 0 1 -1.723-1.009l.06-.1 2-3a1 1 0 0 1 1.386-.278zm8 0a1 1 0 0 1 .337 1.285l-.06.101-2 3a1 1 0 0 1 -1.723-1.009l.06-.1 2-3a1 1 0 0 1 1.386-.278zm8 0a1 1 0 0 1 .337 1.285l-.06.101-2 3a1 1 0 0 1 -1.723-1.009l.06-.1 2-3a1 1 0 0 1 1.386-.278zm8 0a1 1 0 0 1 .337 1.285l-.06.101-2 3a1 1 0 0 1 -1.723-1.009l.06-.1 2-3a1 1 0 0 1 1.386-.278zm-.642-23.132a2.894 2.894 0 0 0 -3.287-1.988l-.17.037-.164.045-34.584 10.74a2.893 2.893 0 0 0 -1.953 3.45l.047.17 1.81 5.833 40.111-12.454-1.81-5.832zm-35.731 10.521.102.074 2.8 2.272a1 1 0 0 1 -1.158 1.626l-.102-.073-2.8-2.272a1 1 0 0 1 1.158-1.626zm7.64-2.372.102.073 2.8 2.272a1 1 0 0 1 -1.158 1.626l-.102-.073-2.8-2.272a1 1 0 0 1 1.158-1.626zm7.64-2.372.103.073 2.8 2.272a1 1 0 0 1 -1.159 1.626l-.102-.073-2.8-2.272a1 1 0 0 1 1.158-1.626zm7.64-2.372.103.073 2.8 2.272a1 1 0 0 1 -1.159 1.626l-.102-.073-2.8-2.272a1 1 0 0 1 1.158-1.626zm7.64-2.373.103.073 2.8 2.272a1 1 0 0 1 -1.158 1.626l-.103-.073-2.8-2.272a1 1 0 0 1 1.159-1.626z" fill="var(--db-icon-color, currentColor)" fill-rule="nonzero"/><path d="m42.33 34a1 1 0 0 1 .116 1.994l-.117.006h-34a1 1 0 0 1 -.116-1.993l.116-.007h34z" fill="var(--db-icon-pulse-color, #EC0016)"/></g></svg>
