<svg id="icon" height="20" viewBox="0 0 20 20" width="20" xmlns="http://www.w3.org/2000/svg"><path d="m10 2c4.418278 0 8 3.581722 8 8s-3.581722 8-8 8-8-3.581722-8-8 3.581722-8 8-8zm2.5135 4.0015c-.519451 0-.9405752.42104902-.9406679.94049999l-.0004019 2.25050001h-3.14600002l.00040187-2.25050001c.00008612-.48223598-.42090824-.94049999-.94033205-.94049999s-.9405.42107619-.9405.9405v6.116c0 .5194238.42107619.9405.9405.9405.51933645 0 .94034183-.4210054.94034183-.9403418l-.00041165-2.4476582h3.14600002l.0004116 2.4475c.0000874.5194494.4212088.9405.9406582.9405.5194238 0 .9405-.4210762.9405-.9405v-6.116c0-.51942381-.4210762-.9405-.9405-.9405z" fill="var(--db-icon-color, currentColor)" fill-rule="evenodd"/></svg>
