<svg id="icon" height="24" viewBox="0 0 24 24" width="24" xmlns="http://www.w3.org/2000/svg"><path d="m8 14c1.054 0 2 .844 2 2v4c0 1.054-.818 2-2 2h-4c-1.054 0-2-.827-2-2v-4c0-1.054.853-2 2-2zm0 2h-4v4h4zm11.5-14c1.325 0 2.5 1.076 2.5 2.5v12c0 1.325-1.063 2.5-2.5 2.5h-6.5a1 1 0 0 1 0-2h6.5c.228 0 .5-.187.5-.5v-12a.5.5 0 0 0 -.5-.5h-12c-.245 0-.5.2-.5.5v6.5a1 1 0 0 1 -2 0v-6.5c0-1.325 1.075-2.5 2.5-2.5zm-6.5 4h4a.994.994 0 0 1 1 1v4a1 1 0 0 1 -1 1c-.513 0-1-.383-1-1v-1.586l-3.293 3.293a1 1 0 0 1 -1.414 0c-.36-.36-.426-1 0-1.414l3.291-3.293h-1.584c-.513 0-1-.416-1-1s.484-1 1-1z" fill="#282D37" style="fill: currentColor;fill: var(--db-icon-color, currentColor)" fill-rule="evenodd"/></svg>
