<svg id="icon" height="24" viewBox="0 0 24 24" width="24" xmlns="http://www.w3.org/2000/svg"><path d="m10.2931067 14.7070122-1.99987503-1.9999167c-.39097556-.3909837-.39097556-1.0229573 0-1.413941.39097557-.3909838 1.02293607-.3909838 1.41391163 0l1.2929192 1.2929461 3.2927942-3.29286282c.3909756-.39098371 1.0229361-.39098371 1.4139116 0 .3909756.39098371.3909756 1.02295742 0 1.41394112l-3.99975 3.9998333c-.1949878.1949919-.4509718.2929878-.7069558.2929878s-.511968-.0979959-.7069558-.2929878zm1.3682266-12.63219177-7.14044441 3.64924182c-.31733333.16260974-.52088889.51775738-.52088889.90881884v3.34796488c0 6.06943333 2.85866667 9.28770953 7.7964444 11.96727853.0622223.0339186.1333334.0518755.2035556.0518755s.1413333-.0179569.2035556-.0518755c4.9377777-2.679569 7.7964444-5.8978452 7.7964444-11.96727853v-3.34796488c0-.39106146-.2035556-.7462091-.5208889-.90881884l-7.1404444-3.64924182c-.1084445-.04988029-.2231111-.07482043-.3386667-.07482043s-.2302222.02494014-.3386667.07482043zm6.3386667 5.15722622v2.7513469c0 4.61634025-1.638 7.38391325-6 10.01660645-4.362-2.6326932-6-5.4002662-6-10.01660645v-2.7513469l6-3.23204665z" fill="var(--db-icon-color, currentColor)" fill-rule="evenodd"/></svg>
