<svg id="icon" width="64" height="64" viewBox="0 0 64 64" xmlns="http://www.w3.org/2000/svg"><g fill="none" fill-rule="evenodd" transform="translate(8 8)"><path d="M37.5 19a3.5 3.5 0 0 1 3.493 3.287L41 22.5v10a3.5 3.5 0 0 1-2.866 3.442l-.134.021V47a1 1 0 0 1-.883.993L37 48a1 1 0 0 1-.993-.883L36 47V35a1 1 0 0 1 .883-.993L37 34h.5a1.5 1.5 0 0 0 1.493-1.352L39 32.5v-10a1.5 1.5 0 0 0-1.352-1.493L37.5 21h-6a1.5 1.5 0 0 0-1.493 1.356L30 22.5v10a1.5 1.5 0 0 0 1.356 1.493L31.5 34h.5a1 1 0 0 1 .993.883L33 35v12a1 1 0 0 1-1.993.117L31 47V35.963l-.068-.009a3.501 3.501 0 0 1-2.927-3.262L28 32.5v-10a3.5 3.5 0 0 1 3.308-3.495L31.5 19h6ZM42 0a5 5 0 0 1 4.995 4.783L47 5v42a1 1 0 0 1-1.993.117L45 47V5a3 3 0 0 0-2.824-2.995L42 2H27a3 3 0 0 0-2.995 2.824L24 5v22a1 1 0 0 1-1.993.117L22 27V5A5 5 0 0 1 26.783.005L27 0h15ZM9.5 19a3.5 3.5 0 0 1 3.495 3.308L13 22.5V28a1 1 0 0 1-1.993.117L11 28v-5.5a1.5 1.5 0 0 0-1.356-1.493L9.5 21h-6a1.5 1.5 0 0 0-1.493 1.356L2 22.5v10a1.5 1.5 0 0 0 1.356 1.493L3.5 34H4a1 1 0 0 1 .993.883L5 35v7a1 1 0 0 1-1.993.117L3 42v-6.037l-.068-.009a3.501 3.501 0 0 1-2.927-3.262L0 32.5v-10a3.5 3.5 0 0 1 3.308-3.495L3.5 19h6Zm-3-10a4 4 0 1 1 0 8 4 4 0 0 1 0-8Zm28 0a4 4 0 1 1 0 8 4 4 0 0 1 0-8Zm-28 2a2 2 0 1 0 0 4 2 2 0 0 0 0-4Zm28 0a2 2 0 1 0 0 4 2 2 0 0 0 0-4Z" fill="#282D37" style="fill: currentColor;fill: var(--db-icon-color, currentColor)" fill-rule="nonzero"/><path d="M17.029 27.26a2 2 0 0 1 1.661.886l.087.142 9.3 16.74a2 2 0 0 1-1.585 2.965l-.163.007H7.73a2 2 0 0 1-1.83-2.814l.079-.157 9.3-16.741a2 2 0 0 1 1.749-1.029Zm0 2L7.729 46h18.6l-9.3-16.74ZM17 42a1 1 0 1 1 0 2 1 1 0 0 1 0-2Zm0-7.903a1 1 0 0 1 .993.883l.007.117v3.806a1 1 0 0 1-1.993.117L16 38.903v-3.806a1 1 0 0 1 1-1Z" fill="#EC0016" style="fill:#EC0016;fill: var(--db-icon-pulse-color, #EC0016)"/></g></svg>
