<svg id="icon" height="20" viewBox="0 0 20 20" width="20" xmlns="http://www.w3.org/2000/svg"><path d="m4.01 11.01 3.99-.01c.553 0 .99.465.99 1.019l.01 3.981a1 1 0 1 1 -2 0v-3h-3c-.554 0-1-.447-1-1s.456-.99 1.01-.99zm11.99-.01a1 1 0 0 1 1 1c0 .553-.48 1-1 1h-3v3a1 1 0 1 1 -2 0l.01-3.981c0-.554.437-1.019.99-1.019zm.005-2h-4.005a1 1 0 0 1 -1-1l.01-3.99c0-.554.418-1 .971-1 .554 0 1.019.474 1.019 1.027v2.963h2.995c.521 0 1.005.447 1.005 1s-.442 1-.995 1zm-11.996-.01a.999.999 0 0 1 -1.009-.99c0-.553.446-1 1-1h3v-2.963c0-.553.428-1.037.981-1.037.554 0 1.01.456 1.01 1.01l.009 3.99a1 1 0 0 1 -1 1l-3.99-.01z" fill="#282D37" style="fill: currentColor;fill: var(--db-icon-color, currentColor)" fill-rule="evenodd"/></svg>
