<svg id="icon" height="24" viewBox="0 0 24 24" width="24" xmlns="http://www.w3.org/2000/svg"><path d="m10.5744959 6.07320061-.1734959.12679939-.2307905-.06208809c-.37986725-.09115669-.77205491-.13791191-1.1702095-.13791191l-.21688962.00461951c-2.51697645.10742387-4.55209841 2.07561382-4.7647574 4.56396139l-.01235298.1854191-.15278988.1059712c-1.14329932.8316772-1.85321012 2.1717716-1.85321012 3.6400288 0 2.3934819 1.873351 4.3646339 4.25397014 4.4933624l10.97018346.0014418c2.68032-.1314414 4.7758464-2.3261823 4.7758464-4.9948042l-.0055152-.2360062c-.0696474-1.4879828-.7949024-2.8423368-1.9461661-3.7271525l-.1443187-.1058413-.034052-.1792448c-.5770777-2.73049496-3.001536-4.7517552-5.869948-4.7517552-1.1408853.05385591-2.5097604.43520619-3.4255041 1.07320061z" fill="var(--db-icon-color, currentColor)" fill-rule="evenodd"/></svg>
