<svg id="icon" height="24" viewBox="0 0 24 24" width="24" xmlns="http://www.w3.org/2000/svg"><path d="m12 3c4.971 0 9 4.029 9 9s-4.029 9-9 9-9-4.029-9-9 4.029-9 9-9zm0 2c-3.86 0-7 3.14-7 7s3.14 7 7 7 7-3.14 7-7-3.14-7-7-7zm-.001 8c2.31 0 3.857 1.153 3.922 1.202.44.334.526.961.192 1.401-.1688571.222-.4126531.3543673-.6690437.387656l-.1289563.007344-.123784-.006736c-.166016-.020704-.329216-.083264-.473216-.191264-.023-.017-1.116-.8-2.719-.8-1.613 0-2.708.792-2.719.8-.442.327-1.068.236-1.397-.205-.329-.439-.244-1.061.194-1.393.064-.049 1.612-1.202 3.922-1.202zm-2.699-4.5c.8284271 0 1.5.67157288 1.5 1.5 0 .8284271-.6715729 1.5-1.5 1.5-.82842712 0-1.5-.6715729-1.5-1.5 0-.82842712.67157288-1.5 1.5-1.5zm5.4 0c.8284271 0 1.5.67157288 1.5 1.5 0 .8284271-.6715729 1.5-1.5 1.5s-1.5-.6715729-1.5-1.5c0-.82842712.6715729-1.5 1.5-1.5z" fill="var(--db-icon-color, currentColor)" fill-rule="evenodd"/></svg>
