<svg id="icon" height="32" viewBox="0 0 32 32" width="32" xmlns="http://www.w3.org/2000/svg"><path d="m24.9777876 4.49186315c1.8950831 1.90871662 1.9395947 4.95974934.1374965 6.92213665l-11.4394641 11.4458766c-1.1744087 1.1577485-3.0649956 1.1442427-4.22274404-.0301659-1.12139607-1.1375332-1.15514558-2.9420746-.1058699-4.1197755l9.66681104-9.6739785c.3905242-.39052429 1.0236892-.39052429 1.4142135 0 .3626297.3626297.3885318.9344751.0777064 1.3269928l-9.6234745 9.6329889c-.3942203.3942203-.3965008 1.0326709-.0051066 1.4296972.3549921.3601006.9186389.3896674 1.3078436.0859638l11.3657085-11.3551301c1.1742385-1.17423855 1.1776369-3.07700462.0076004-4.25543011-1.1203823-1.12841521-2.918299-1.17499517-4.094546-.13509898l-12.13613424 12.12805289c-1.95491816 1.9549182-1.95869085 5.1233013-.00843378 7.0828695 1.89129617 1.9003257 4.93389672 1.9574616 6.89434842.1660887l10.4572658-10.450003c.3905243-.3905243 1.0236893-.3905243 1.4142136 0 .3626297.3626297.3885318.9344751.0777063 1.3269927l-10.3817899 10.3913044c-2.7346064 2.7215846-7.15772304 2.7110512-9.87933597-.0235269-2.67128123-2.6840634-2.72187338-6.9893496-.15554986-9.7348436l12.18046453-12.18619806c1.9540644-1.94010905 5.1109158-1.92883244 7.0510703.02518651z" fill="var(--db-icon-color, currentColor)" fill-rule="evenodd"/></svg>
