<svg id="icon" height="24" viewBox="0 0 24 24" width="24" xmlns="http://www.w3.org/2000/svg"><path d="m6.79029539 11.3871006c.30502489.3922912.27729535.9595222-.08318861 1.3200062-.36048396.3604839-.92771502.3882135-1.32000622.0831886l-3.17739595-3.17739596c-.27960615-.35960027-.27960615-.86619861 0-1.22579888l3.17739595-3.17739595c.35960027-.27960615.99475247-.25064242 1.32289944.08318861.32814697.33383102.35990154.96040595.08029539 1.32000622l-1.37529539 1.38710056h11.085c3.0375661 0 5.5 2.4624339 5.5 5.5 0 2.9634791-2.34378 5.3795391-5.2787929 5.4956328l-8.7212071.0043672c-.55228475 0-1-.4477153-1-1 0-.5128358.38604019-.9355072.88337887-.9932723l8.61662113-.0067277c1.9329966 0 3.5-1.5670034 3.5-3.5 0-1.8685634-1.4642776-3.3951264-3.3079648-3.4948211l-11.2770352-.0051789z" fill="var(--db-icon-color, currentColor)" fill-rule="evenodd"/></svg>
