<svg id="icon" height="20" viewBox="0 0 20 20" width="20" xmlns="http://www.w3.org/2000/svg"><path d="m8.18244688 5.77204274-.18244688.22795726-.20364988.00513286c-1.48535397.07500781-2.78553422.96605639-3.40907165 2.27515877l-.03327847.07370837-.07391124.03360089c-1.36835438.651417-2.28008876 2.04298051-2.28008876 3.61239911 0 2.209139 1.790861 4 4 4l8.2051517-.0055098c2.138442-.1234832 3.7948483-1.8727181 3.7948483-3.9944902l-.0069569-.2370941c-.0508446-.8646831-.3784842-1.6748527-.920215-2.3238347l-.0858281-.0960712c.0086667-.16221375.013-.27654708.013-.343 0-2.76142375-2.2385763-5-5-5-1.4086393.06632501-2.93428708.725796-3.81755312 1.77204274zm3.81755312.22795726c1.6568542 0 3 1.34314575 3 3 0 .18071224-.0158642.35892154-.0471097.53343l-.101594.5674105.4400833.3722937c.4469824.3781302.7086204.9300399.7086204 1.5268658 0 1.0606575-.8284768 1.935564-1.8815715 1.9965817l-8.1184285.0034183c-1.1045695 0-2-.8954305-2-2 0-.8870752.58293728-1.6610199 1.41827591-1.9143594l.51138216-.15509077.15525762-.51133154c.25389149-.83617624 1.0279355-1.41921829 1.91508431-1.41921829.11621579 0 .23073574.00980658.34291584.02911929l.69655718.11991794.34549425-.61660842c.52631002-.93931285 1.51785043-1.53242881 2.61503273-1.53242881z" fill="var(--db-icon-color, currentColor)" fill-rule="evenodd"/></svg>
