<svg id="icon" height="32" viewBox="0 0 32 32" width="32" xmlns="http://www.w3.org/2000/svg"><path d="m26 9c1.5385075 0 3 1.2220678 3.0225277 3l-.0225277 12c0 1.5976809-1.2470939 2.9722887-3 3h-20c-1.59768088 0-3-1.2768764-3-3v-16c0-1.59768088 1.29051399-3.00020573 3-3.00020573h6.5c.2210137 0 .5146694.09287641.7071068.29309895l3.7078932 3.70710678zm-21 2v13c0 .5128358.41837739 1 1 1h20c.5128358 0 1-.4094726 1-1v-12c0-.5128358-.4067202-.9932723-1-.9932723zm7.085-4h-6.085c-.51283584 0-1 .41080952-1 1v1h9.085z" fill="var(--db-icon-color, currentColor)" fill-rule="evenodd"/></svg>
