<svg id="icon" height="24" viewBox="0 0 24 24" width="24" xmlns="http://www.w3.org/2000/svg"><path d="m12 11 .075.003.126.017.111.03.111.044.098.052.092.064.046.038.048.045 2.5 2.5a1 1 0 0 1 -1.32 1.497l-.094-.083-.793-.792v4.585a1 1 0 0 1 -1.993.117l-.007-.117v-4.586l-.793.793a1 1 0 0 1 -1.32.083l-.094-.083a1 1 0 0 1 -.083-1.32l.083-.094 2.5-2.5a.927.927 0 0 1 .112-.097l.11-.071.114-.054.105-.035.118-.025.058-.007zm2-7a6.003 6.003 0 0 1 5.816 4.52l.054.232.034.179.144.106a4.993 4.993 0 0 1 1.927 3.466l.02.261.005.236a5.004 5.004 0 0 1 -4.554 4.98l-.222.015h-.227a.998.998 0 0 1 -.99-.882l-.007-.138c0-.5.376-.912.861-.968l.114-.007.176-.004a3 3 0 0 0 1.332-5.603 1 1 0 0 1 -.501-.775 4 4 0 0 0 -6.7-2.552 1 1 0 0 1 -1.082.183 3 3 0 0 0 -4.19 2.993 1 1 0 0 1 -.57.993 2.5 2.5 0 0 0 -1.44 2.265c0 1.274.956 2.333 2.175 2.481l.16.014.165.005h.503a.996.996 0 1 1 0 1.993h-.749a4.5 4.5 0 0 1 -4.249-4.277l-.005-.216c0-1.387.633-2.66 1.667-3.497l.186-.143.153-.106.012-.185a5.001 5.001 0 0 1 4.538-4.55l.227-.014.217-.005c.299 0 .594.026.883.078l.287.06.231.062.173-.127c.916-.638 2.286-1.02 3.426-1.073z" fill="var(--db-icon-color, currentColor)" fill-rule="evenodd"/></svg>
