<svg id="icon" height="20" viewBox="0 0 20 20" width="20" xmlns="http://www.w3.org/2000/svg"><path d="m12 3a5 5 0 0 1 5 5l-.013.343.086.096c.487.584.802 1.299.897 2.066l.023.258.007.237a4.004 4.004 0 0 1 -3.59 3.978l-.205.016h-.205a1 1 0 0 1 0-1.998h.12a2 2 0 0 0 1.875-1.846l.005-.15a1.99 1.99 0 0 0 -.58-1.408l-.129-.119-.44-.372.102-.568a3 3 0 0 0 -5.464-2.173l-.104.172-.346.617-.696-.12a2.003 2.003 0 0 0 -2.204 1.236l-.054.154-.155.512-.512.155a2.001 2.001 0 0 0 .433 3.909l.149.005a1 1 0 0 1 0 2 4 4 0 0 1 -3.995-3.8l-.005-.2a4 4 0 0 1 2.096-3.519l.184-.093.074-.034.033-.074a4.004 4.004 0 0 1 3.188-2.258l.221-.017.204-.005.182-.228c.884-1.046 2.41-1.706 3.818-1.772zm-2 6 .075.003.126.017.111.03.111.044.098.052.104.074.082.073 1.5 1.5a1 1 0 0 1 -1.207 1.573v3.134a1 1 0 0 1 -1.993.12l-.007-.12v-3.134a1 1 0 0 1 -1.113-.076l-.094-.083a1 1 0 0 1 -.083-1.32l.083-.094 1.5-1.5a.927.927 0 0 1 .112-.097l.11-.071.114-.054.105-.035.118-.025.058-.007z" fill="#282D37" style="fill: currentColor;fill: var(--db-icon-color, currentColor)" fill-rule="evenodd"/></svg>
