<svg id="icon" height="32" viewBox="0 0 32 32" width="32" xmlns="http://www.w3.org/2000/svg"><path d="m18.35725 17.43425c-.194 0-.391-.057-.563-.175-.456-.312-.573-.934-.261-1.39.871-1.273 1.343-2.188 1.343-3.366 0-2.363-1.922-4.285-4.286-4.285-1.11 0-2.163.423-2.963 1.189-.398.384-1.032.37-1.414-.03-.382-.398-.369-1.031.03-1.413 1.175-1.126 2.719-1.746 4.347-1.746 3.466 0 6.286 2.819 6.286 6.285 0 1.689-.621 2.928-1.692 4.495-.194.283-.507.436-.827.436zm1.001 7.226c.351-1.521 1.307-2.851 2.32-4.259 1.499-2.084 3.198-4.445 3.198-7.897 0-5.671-4.614-10.285-10.286-10.285-2.665 0-5.191 1.015-7.114 2.857-.399.382-.412 1.015-.03 1.413.383.399 1.016.415 1.414.03 1.549-1.483 3.584-2.301 5.73-2.301 4.569 0 8.286 3.717 8.286 8.285 0 2.808-1.371 4.713-2.821 6.729-1.083 1.507-2.204 3.064-2.65 5.001-.475 2.309-2.535 3.984-4.897 3.984-.721 0-1.417-.15-2.07-.446-.501-.229-1.095-.007-1.324.497-.228.502-.006 1.095.497 1.323.914.415 1.889.626 2.897.626 3.307 0 6.19-2.348 6.851-5.559zm6.643-17.116 3.728-3.728c.391-.391.391-1.023 0-1.414s-1.023-.391-1.414 0l-3.728 3.728c-.391.391-.391 1.023 0 1.414.195.195.451.293.707.293s.512-.098.707-.293zm-22.272 22.272 7-7c.391-.391.391-1.023 0-1.414s-1.023-.391-1.414 0l-7 7c-.391.391-.391 1.023 0 1.414.195.195.451.293.707.293s.512-.098.707-.293z" fill="var(--db-icon-color, currentColor)" fill-rule="evenodd"/></svg>
