<svg id="icon" height="20" viewBox="0 0 20 20" width="20" xmlns="http://www.w3.org/2000/svg"><path d="m8.67083058 14.8857227 1.32916942.6422773 1.3271108-.6412823c.4867227-.2278855.9744596.0054085 1.168578.4070327.1941183.4016242.0573562.9174169-.4001915 1.167583l-1.7147247.8264719c-.2061746.0996511-.46317244.1303539-.76154518 0l-1.709942-.8264719c-.43509287-.2102949-.61732764-.7334851-.40703275-1.1685779.17794183-.3681556.65417133-.6339233 1.16857791-.4070328zm-4.67083058-4.2607227c.44607614 0 .875.3627063.875.875v1.551l1.11924918.5410417c.46019489.2195866.60115112.7669537.40703276 1.1685779s-.68444709.6315492-1.16857791.4070328l-1.61347661-.7798471c-.26863234-.1298389-.49422742-.4209726-.49422742-.7878053v-2.1c0-.4832492.39175084-.875.875-.875zm12 0c.4460761 0 .875.3564758.8681825.875l.0068175 2.1c0 .2983647-.1517164.5733543-.3976838.7333684l-1.6814925.8204956c-.4350929.2102948-.958283.0280601-1.1685779-.4070328-.1941184-.4016242-.0481414-.9431112.4070327-1.1685779l1.0897215-.5272533.001-1.551c0-.5185242.4289239-.875.875-.875zm-3.5626023-3.23117874c1.0175582 0 1.5263374.44751383 1.5263374 1.34254148 0 .3663369-.0900963.64733395-.2702889.84299116-.1335546.14153925-.3328264.25185661-.5978155.33095208.1759528.09366572.3222268.25810102.438822.49330592.3089962.6403121.5411087 1.1191936.6963375 1.4366447.0910842.1862721-.0617216.4023365-.4101382.4023365-.1728033 0-.4755752-.0521387-.5871947-.2755206l-.6434259-1.3480295c-.0869164-.1831685-.1717129-.3070153-.2543895-.3715406-.0720771-.0561994-.1876123-.0842991-.3466058-.0842991h-.3264167v1.572189c0 .2801129-.227076.5072008-.5071888.5072008-.2801129 0-.5071894-.2270879-.5071894-.5072008v-3.93750768c0-.22315803.1809055-.40406336.4040635-.40406336zm-4.52325425 0c.21232721 0 .40458056.12263968.48405174.33333709l1.542924 4.09116275c.08635641.2290083.0453844.4242604-.36302668.4242604-.36302668 0-.49835558-.0912633-.58994866-.3181832l-.28738602-.7121844h-1.80005376l-.24205011.6515689c-.10187246.2742757-.24200163.3787987-.6050768.3787987-.36302668 0-.45059529-.1805839-.36302668-.4091065l1.57318027-4.10631665c.06856147-.17893251.22629164-.33333709.42353921-.33333709zm-.080923 1.29513114-.64289712 1.8001022h1.28574576zm4.49606155-.53331696c.317987 0 .511959.0905435.5819161.27163049.0339186.08533984.0508779.22063472.0508779.40588463 0 .2268791-.0413383.38507003-.1240149.4745728-.0996359.11031736-.2713488.16547604-.5151388.16547604h-.6625024v-1.31756396zm-5.95752988-2.9322177c.19139201.40293055.02952982.96654123-.4149431 1.16579253l-1.08180902.51278973v1.598c0 .51714073-.42892386.875-.875.875s-.86800053-.35785927-.875-.875v-2.15c0-.30026814.15363686-.57669699.40207998-.73621187l1.67887961-.80531349c.43650809-.20734134.95845119-.02156499 1.16579253.4149431zm8.32619328-.45745681 1.6774793.79367125c.2712255.12883209.4549985.3862125.4924885.67906652l.0070868 2.2613013c0 .48324916-.3917508.875-.875.875-.4460761 0-.8141892-.33379954-.8681825-.76524186l-.0078175-1.70775814-1.1306604-.53646911c-.4029305-.19139201-.6384924-.68465633-.4220445-1.14211315.2164479-.45745681.6769545-.64089909 1.1266503-.45745681zm-4.4441292-2.10334663 1.7715131.83072258c.4365081.20734134.6222845.72928443.4149431 1.16579253-.191392.40293054-.650847.59221985-1.0637253.45587749l-1.3775471-.6470069-1.31055476.62368307c-.40293055.19139201-.89973164.08483682-1.1470634-.36804525s-.03912917-1.01350904.41214352-1.23030094l1.67104993-.7837047c.19797002-.09403576.42243821-.10970838.62924091-.04701788z" fill="var(--db-icon-color, currentColor)" fill-rule="evenodd"/></svg>
