<svg id="icon" height="20" viewBox="0 0 20 20" width="20" xmlns="http://www.w3.org/2000/svg"><path d="m6 2v2c0 .51283584.5 1 1 1h4c.5128358 0 1-.5 1-1v-2h1.5857864c.2652165 0 .5195704.10535684.7071068.29289322l3.4142136 3.41421356c.1875364.18753638.2928932.44189029.2928932.70710678v10.58578644c0 .5522847-.4477153 1-1 1h-14c-.55228475 0-1-.4477153-1-1v-14c0-.55228475.44771525-1 1-1zm1 9c-.51283584 0-.93550716.3860402-.99327227.8833789l-.00672773.1166211v4h8v-4c0-.5128358-.4865665-.9932723-.9912646-.9932723z" fill="var(--db-icon-color, currentColor)" fill-rule="evenodd"/></svg>
