<svg id="icon" height="32" viewBox="0 0 32 32" width="32" xmlns="http://www.w3.org/2000/svg"><path d="m16 4c6.627 0 12 5.373 12 12s-5.373 12-12 12-12-5.373-12-12 5.373-12 12-12zm0 1.693c-5.683 0-10.307 4.624-10.307 10.307s4.624 10.307 10.307 10.307 10.307-4.624 10.307-10.307-4.624-10.307-10.307-10.307zm0 11.807c3.356 0 5.578 2.202 5.671 2.296a1 1 0 1 1 -1.42 1.408c-.014-.014-1.749-1.704-4.251-1.704-2.532 0-4.234 1.688-4.251 1.704a1 1 0 1 1 -1.42-1.408c.093-.094 2.315-2.296 5.671-2.296zm-3.5-6.5a2 2 0 1 1 0 4 2 2 0 0 1 0-4zm7 0a2 2 0 1 1 0 4 2 2 0 0 1 0-4z" fill="#282D37" style="fill: currentColor;fill: var(--db-icon-color, currentColor)" fill-rule="evenodd"/></svg>
