<svg id="icon" height="20" viewBox="0 0 20 20" width="20" xmlns="http://www.w3.org/2000/svg"><path d="m8.243 15.993c.161.21.257.473.257.757 0 .688-.563 1.25-1.25 1.25a1.25 1.25 0 0 1 -.762-.25zm5.757-.493c.688 0 1.25.563 1.25 1.25 0 .688-.562 1.25-1.25 1.25-.687 0-1.25-.563-1.25-1.25 0-.688.563-1.25 1.25-1.25zm-10.094-13.5c.938 0 1.688.656 1.906 1.594l.095.406h8.675l1.234-1.234.484-.478a1 1 0 0 1 1.415.01c.358.363.423 1.01-.01 1.414l-12.996 12.998a1 1 0 1 1 -1.414-1.414c.734-.74 1.47-1.477 2.209-2.213l-1.629-9.083h-.875c-.563 0-1-.469-1-1s.469-1 1-1zm10.594 11c.563 0 1 .438 1 1 0 .469-.438 1-1 1h-5.264l2-2zm2.498-5.761-.592 2.542c-.187.75-.75 1.469-1.75 1.563l-1.946.182zm-4.416-1.239h-6.332l.75 4.063 1.686-.164z" fill="#282D37" style="fill: currentColor;fill: var(--db-icon-color, currentColor)" fill-rule="evenodd"/></svg>
