<svg id="icon" height="32" viewBox="0 0 32 32" width="32" xmlns="http://www.w3.org/2000/svg"><path d="m23.98 7.813a.85.85 0 0 1 -.54.986l-1.4.322 1.644 5.09c3.664-.47 6.166 2.334 6.166 5.289a5.35 5.35 0 1 1 -7.783-4.766l-.585-1.811-4.658 6.963c-.054.081-.302.461-1.033.528l-.819.007a.85.85 0 0 1 -.768-.486l-1.671-5.135-.995 1.19a5.391 5.391 0 0 1 1.312 3.51 5.35 5.35 0 1 1 -2.616-4.6l1.68-2.012-.985-3.038h-.929a.85.85 0 1 1 0-1.7h4c.47 0 .85.38.85.85 0 .433-.369.85-.85.85h-1.283l.734 2.266 7.239-1.643-.553-1.715a.85.85 0 0 1 .52-1.061l2.306-.526a.85.85 0 0 1 1.016.642zm-16.48 8.037a3.65 3.65 0 1 0 2.928 1.47l-2.276 2.725c-.272.323-.837.405-1.197.107-.33-.275-.445-.811-.107-1.197l2.276-2.725a3.635 3.635 0 0 0 -1.624-.38zm16.717.01 1.092 3.379c.133.412-.089.913-.503 1.06a.87.87 0 0 1 -1.115-.538l-1.091-3.378a3.65 3.65 0 1 0 5.55 3.117c0-2.016-1.65-3.77-3.933-3.64zm-4.448-3.435-5.792 1.315 1.602 4.948z" fill="var(--db-icon-color, currentColor)" fill-rule="evenodd"/></svg>
