<svg id="icon" height="32" viewBox="0 0 32 32" width="32" xmlns="http://www.w3.org/2000/svg"><path d="m2 20.025c0-.5523.4477155-1.0005 1-1l1.433021.0013c1.262134-1.3616 6.381945-4.0043 11.576979-4.0043 5.19426 0 10.29881 2.6438 11.56052 4.004l1.42948-.001c.55228-.0004 1 .4477 1 1s-.44772.9995-1 1l-1.31019.0011c-1.88793 4.7727-6.50212 7.9526-11.68181 7.9739-5.182948-.0195-9.801336-3.1992-11.693039-7.9739l-1.314961-.0011c-.5522845-.0005-1-.4477-1-1zm2.008-5.033c0-6.623 5.369001-11.992 11.992-11.992 6.623 0 11.992 5.369 11.992 11.992 0 .5616-.44892 1-1 1-.55228 0-1-.4477-1-1 0-5.5184-4.47357-9.992-9.992-9.992-5.518429 0-9.992 4.4736-9.992 9.992 0 .5523-.447715 1-1 1s-1-.4477-1-1zm2.124 5.164c1.539971 4.1162 5.473167 6.8441 9.868 6.8441 4.39483 0 8.32803-2.7279 9.868-6.8441-2.91343-1.9784-6.33898-3.0676-9.86-3.135-3.52581.0685-6.956201 1.1574-9.876 3.135zm5.576 1.1505c-.486719-.1497-.696651-.5326-.696651-.921 0-.5165.371337-1.0428.956737-1.0428.102964 0 .212554.0163.327914.0518 1.20788.3695 2.45719.5542 3.7065.5542s2.49863-.1847 3.7065-.5542c.11261-.0346.22-.0505.32126-.0505.58513 0 .96557.5303.96557 1.0489 0 .3848-.20936.763-.69983.9136-1.3891.4282-2.83441.6463-4.288.647-1.45755-.0004-2.90688-.2184-4.3-.647zm2.145 3.9345c-.56881-.0941-.82789-.5275-.82789-.9657 0-.5495.40724-1.1065 1.12189-1.0123.61454.0902 1.23402.1354 1.8535.1354s1.23896-.0452 1.8535-.1354c.73131-.1236 1.14834.4449 1.14834 1.0055 0 .4491-.26752.8931-.85534.9725-.70846.1055-1.42373.1587-2.14.159-.72093 0-1.44088-.0531-2.154-.159z" fill="var(--db-icon-color, currentColor)" fill-rule="evenodd"/></svg>
