<svg id="icon" height="20" viewBox="0 0 20 20" width="20" xmlns="http://www.w3.org/2000/svg"><path d="m13 8c-.347 0-.703-.173-.885-.469a1 1 0 0 1 -.04-.975l1.44-2.85-.015-.706c0-.552.463-1.018 1.015-1.018s.985.466.985 1.018l.015.712 1.41 2.852a1 1 0 0 1 -.047.971c-.182.295-.532.465-.878.465zm-6.525.995a2.48 2.48 0 1 0 0-4.959 2.48 2.48 0 0 0 0 4.959zm8.288.821a1 1 0 0 1 .178.988l-.718 2.021a1.81 1.81 0 0 1 -2.25 1.127l-2.496-.778a4.613 4.613 0 0 0 -1.261-.187l-3.888.014a.315.315 0 0 0 -.323.32v4.687c0 .6-.523 1-1 1-.476 0-1-.382-1-1v-4.688a2.322 2.322 0 0 1 2.32-2.318l3.883-.014a5.62 5.62 0 0 1 1.86.275l2.33.726.659-1.854a1 1 0 0 1 1.706-.319zm-5.757 4.694a1 1 0 0 1 1 1v2.482c-.006.509-.411 1-1 1s-1-.735-1-1v-2.482a1 1 0 0 1 1-1z" fill="#282D37" style="fill: currentColor;fill: var(--db-icon-color, currentColor)" fill-rule="evenodd"/></svg>
