<svg id="icon" height="32" viewBox="0 0 32 32" width="32" xmlns="http://www.w3.org/2000/svg"><path d="m1.9998 24.9687c0 .562.437 1.031 1 1.031h8c.563 0 1-.469 1-1.031v-6.937c0-1.657-1.344-3.032-3-3.032h-4c-1.656 0-3 1.375-3 3.032zm5-18.969c1.937 0 3.5 1.594 3.5 3.5 0 1.938-1.563 3.5-3.5 3.5s-3.5-1.562-3.5-3.5c0-1.906 1.563-3.5 3.5-3.5zm8 19.9998677c2.9733938-.0003785 4.6619809-.0005677 5-.0005677.562 0 1-.469 1-1.031v-6.999c0-1.625-1.344-2.969-3-2.969h-3c-.562 0-1 .438-1 1v9.0201971c0 .5176676.4885911.9793706 1 .9793706zm4.375-16.4998677c0 1.938-1.562 3.5-3.5 3.5-1.937 0-3.5-1.562-3.5-3.5 0-1.906 1.563-3.5 3.5-3.5 1.938 0 3.5 1.594 3.5 3.5zm9.625 16.4993c.562 0 1-.469 1-1.031v-6.999c0-1.625-1.344-2.969-3-2.969h-3c-.563 0-1 .438-1 1v9c0 .5147226.4386417.999 1 .999zm-.5-16.4993c0 1.938-1.563 3.5-3.5 3.5-1.938 0-3.5-1.562-3.5-3.5 0-1.906 1.562-3.5 3.5-3.5 1.937 0 3.5 1.594 3.5 3.5z" fill="var(--db-icon-color, currentColor)" fill-rule="evenodd"/></svg>
