<svg id="icon" height="20" viewBox="0 0 20 20" width="20" xmlns="http://www.w3.org/2000/svg"><path d="m1.75007519 15c0 .5506.4494 1 1 1h4c.583 0 1.0243-.4696 1.0243-.9879l-.0243-4.0121c0-1.0365-.9636-2-2-2h-2c-1.0688 0-2 .996-2 2zm7.5142-5c0 .3670667-.00473334 2.3670667-.0142 6h2.50000001c.5506 0 1-.4817 1-1v-4c0-1.1336-.8623-2-1.996-2h-.4858c-.58300001 0-1.00400001.4494-1.00400001 1zm4.98780001 0c0 .2080349-.0006667 2.2080349-.002 6 1.5049393-.0108 2.3369393-.0162 2.496-.0162.5506 0 1.004-.4655 1.004-.9838v-4c0-1.1336-.8664-2-2-2h-.5263c-.5506 0-.9717.4494-.9717 1zm-9.48625364-3c.82115115 0 1.48425363-.66310247 1.48425363-1.51574637 0-.82105366-.66310248-1.48425363-1.48425363-1.48425363-.82105366 0-1.51574637.66319997-1.51574637 1.48425363 0 .8526439.69469271 1.51574637 1.51574637 1.51574637zm5.50000004 0c.8210536 0 1.4842536-.66310247 1.4842536-1.51574637 0-.82105366-.6632-1.48425363-1.4842536-1.48425363-.8210537 0-1.51574641.66319997-1.51574641 1.48425363 0 .8526439.69469271 1.51574637 1.51574641 1.51574637zm4.9685072 0c.8526439 0 1.5157464-.66310247 1.5157464-1.51574637 0-.82105366-.6631025-1.48425363-1.5157464-1.48425363-.8210536 0-1.4842536.66319997-1.4842536 1.48425363 0 .8526439.6632 1.51574637 1.4842536 1.51574637z" fill="var(--db-icon-color, currentColor)" fill-rule="evenodd"/></svg>
