<svg id="icon" height="24" viewBox="0 0 24 24" width="24" xmlns="http://www.w3.org/2000/svg"><path d="m17.143 9.714a1 1 0 0 0 -1 1v8.357a.93.93 0 0 1 -1.857 0v-3.213a1.002 1.002 0 0 0 -1.499-.867c-.011.006-1.082.607-2.073.607-.993 0-2.064-.603-2.072-.607a1 1 0 0 0 -1.499.867v3.213a.93.93 0 0 1 -1.857 0v-7.356h8a1 1 0 0 0 .986-.836l.966-5.798 1.198 1.197c.11.11.244.193.391.242l3.112 1.038c-.376 2.015-2.369 2.15-2.796 2.156m4.173-3.805-3.633-1.212-2.405-2.404a.997.997 0 0 0 -1.012-.245.997.997 0 0 0 -.681.788l-1.147 6.879h-8.055c-.104-.071-.383-.461-.383-1.571a1 1 0 1 0 -2 0c0 1.952.67 2.835 1.286 3.236v7.69a2.932 2.932 0 0 0 2.928 2.93 2.932 2.932 0 0 0 2.929-2.93v-1.718c.942.279 2.2.279 3.143 0v1.719a2.932 2.932 0 0 0 2.928 2.929 2.932 2.932 0 0 0 2.929-2.93v-7.46c1.699-.34 3.857-1.586 3.857-4.752a1 1 0 0 0 -.684-.95" fill="var(--db-icon-color, currentColor)" fill-rule="evenodd"/></svg>
