<svg id="icon" height="24" viewBox="0 0 24 24" width="24" xmlns="http://www.w3.org/2000/svg"><path d="m11.839 7.625c.529 0 .833.307 1.038.77l4.733 12.297a.999.999 0 0 1 -1.64 1.066l-4.131-4.13-4.132 4.131a1 1 0 0 1 -1.64-1.066l4.7-12.17c.126-.349.494-.898 1.072-.898zm.007 3.658-2.206 5.713 2.199-2.199 2.209 2.21zm-.007-9.283c.513 0 1 .31 1 1v2.248a1 1 0 0 1 -1 1 1.01 1.01 0 0 1 -1-1l-.001-.492v-1.758a1 1 0 0 1 1-1z" fill="#282D37" style="fill: currentColor;fill: var(--db-icon-color, currentColor)" fill-rule="evenodd"/></svg>
