<svg id="icon" height="24" viewBox="0 0 24 24" width="24" xmlns="http://www.w3.org/2000/svg"><path d="m15.993 2a3.011 3.011 0 0 1 3.007 3.005v13.99a3.011 3.011 0 0 1 -3.007 3.005h-7.986a3.011 3.011 0 0 1 -3.007-3.005v-13.99a3.011 3.011 0 0 1 3.007-3.005zm0 2.019h-8.01a.997.997 0 0 0 -.986 1.01v13.99c0 .54.446.986.986.986h8.01a.997.997 0 0 0 1.01-.986v-13.99c0-.564-.446-1.01-1.01-1.01zm-7.986 12.981c0 .54.446.986 1.01.986.54 0 .986-.446.986-.986a.997.997 0 1 0 -1.996 0zm2.983 0c0 .54.446.986 1.01.986.54 0 .987-.446.987-.986a.997.997 0 1 0 -1.997 0zm3.007 0c0 .54.446.986.986.986a.997.997 0 1 0 0-1.995.997.997 0 0 0 -.986 1.01z" fill="#282D37" style="fill: currentColor;fill: var(--db-icon-color, currentColor)" fill-rule="evenodd"/></svg>
