<svg id="icon" height="24" viewBox="0 0 24 24" width="24" xmlns="http://www.w3.org/2000/svg"><path d="m8.738 19.5h.012c.688 0 1.25.563 1.25 1.25 0 .688-.563 1.25-1.25 1.25-.645 0-1.18-.494-1.244-1.123l-.005-.138zm8.512 0c.688 0 1.25.563 1.25 1.25 0 .688-.563 1.25-1.25 1.25-.688 0-1.25-.563-1.25-1.25 0-.688.563-1.25 1.25-1.25zm3.953-16.706c.36.36.425.987 0 1.414a31003.715 31003.715 0 0 1 -15.496 15.499 1 1 0 0 1 -1.414 0 1.006 1.006 0 0 1 0-1.414 887.6 887.6 0 0 1 2.579-2.581l-1.747-9.868a.975.975 0 0 0 -.969-.844h-1.156c-.563 0-1-.438-1-1 0-.531.438-1 1-1h1.156c1.314 0 2.532.5 2.844 2.094l10.488-.001 2.3-2.299a1 1 0 0 1 1.415 0zm-8.998 13.236h5.42c.563 0 1.031.438 1.031 1 0 .532-.468.969-1.031.969h-7.387zm9.296-9.3c.007.14-.003.282-.032.425l-.969 4a2.524 2.524 0 0 1 -2.188 2l-3.633.4 2.289-2.291.97-.109a.51.51 0 0 0 .418-.327l.306-1.259 2.84-2.838zm-5.949.299-8.27.001.968 5.219 2.349-.266z" fill="#282D37" style="fill: currentColor;fill: var(--db-icon-color, currentColor)" fill-rule="evenodd"/></svg>
