<svg id="icon" height="64" viewBox="0 0 64 64" width="64" xmlns="http://www.w3.org/2000/svg"><g fill="none" fill-rule="evenodd" transform="translate(4.999 11.999)"><path d="m50.001 7.001c2.689 0 5 2.165 5 5 .002 7 .002 14 0 21 0 2.674-2.162 5-5 5-12.666.002-25.333.002-38 0-2.689 0-5.1-2.178-5-5v-21c0-2.689 2.115-5 5-5h38zm0 2c-12.666-.002-25.333-.002-38 0-1.597 0-3 1.293-3 3v21c0 1.598 1.312 3 3 3 12.667.002 25.333.002 38 0 1.598 0 3-1.286 3-3 .002-7 .002-14 0-21 0-1.598-1.28-3-3-3zm-26 22a1 1 0 1 1 0 2h-10.986a1 1 0 1 1 0-2zm25 0a1 1 0 1 1 0 2h-11.986a1 1 0 1 1 0-2zm-7-31a4 4 0 0 1 4 4 1 1 0 0 1 -1 1c-.513 0-1-.381-1-1a2 2 0 0 0 -2-2c-12.333-.002-24.666-.002-37 0-1.597 0-3 1.289-3 3v21c0 1.055.859 2 2 2a1 1 0 0 1 0 2c-2.142 0-4-1.8-4-4v-21c0-2.689 2.142-5 5-5zm-4.01 27a1 1 0 1 1 0 2h-24.976a1 1 0 1 1 0-2zm11.01 0a1 1 0 1 1 0 2h-6a1 1 0 1 1 0-2z" fill="var(--db-icon-color, currentColor)" fill-rule="nonzero"/><path d="m16.291 21.223c-.235.202-.61.303-1.126.303h-1.249v-2.49h1.337c1.327 0 1.39.794 1.39 1.223 0 .441-.117.762-.352.964m-.082-4.472c0 .352-.062 1.048-1.054 1.048h-1.239v-2.045h1.26c.355 0 .616.08.783.24.167.158.25.411.25.757zm1.152 1.33c.286-.169.494-.377.625-.626.13-.249.195-.563.195-.942 0-.727-.244-1.28-.73-1.663-.489-.382-1.199-.572-2.133-.572h-2.427c-.924 0-1.02.69-1.02 1.02v6.684c0 .884.692 1.02 1.02 1.02h2.334c1.142 0 2.003-.21 2.584-.628.58-.418.871-1.036.871-1.853 0-.69-.199-1.212-.598-1.566-.309-.275-.769-.47-1.37-.59.252-.09.478-.184.65-.285zm7.477 3.354a4.087 4.087 0 0 1 -.614.147c-.236.04-1.784.326-2.408-.683-.623-1.009-.574-2.79-.31-3.889s1.237-1.471 1.938-1.406c.36-.028 1.057.112 1.255.167.784.14.987-.46.987-.706 0-.175-.098-.637-.673-.767-.232-.068-1.005-.23-1.583-.207-1.38 0-2.435.397-3.165 1.193-.73.795-1.095 1.926-1.095 3.393s.352 2.583 1.056 3.345c.703.762 1.72 1.142 3.047 1.142 1.06 0 1.708-.203 1.928-.298.578-.258.578-.52.607-.78s-.19-.797-.97-.65z" fill="var(--db-icon-pulse-color, #EC0016)"/></g></svg>
