<svg id="icon" height="20" viewBox="0 0 20 20" width="20" xmlns="http://www.w3.org/2000/svg"><path d="m16 15.003v-9.987c0-.508-.39-.997-1.016-1.016a1.02 1.02 0 0 0 -.567.176l-6.204 4.456a1.67 1.67 0 0 0 -.723 1.368c0 .528.274 1.055.723 1.348l6.243 4.496c.156.097.352.156.547.156.567 0 .997-.45.997-.997zm-10.006-.996v-8.014a1 1 0 0 0 -.997-.996c-.548 0-.997.45-.997.997v8.013a1 1 0 0 0 .997.996c.547 0 .997-.45.997-.996z" fill="#282D37" style="fill: currentColor;fill: var(--db-icon-color, currentColor)" fill-rule="evenodd"/></svg>
