<svg id="icon" height="20" viewBox="0 0 20 20" width="20" xmlns="http://www.w3.org/2000/svg"><path d="m12 18h-4a1 1 0 0 1 -.975-.779c-.6-.425-1.119-1.068-1.517-2.02.701.504 1.199.847 1.493 1.028.44.27.997.469 1.658.513h2.682a3.732 3.732 0 0 0 1.66-.513c.326-.198.903-.6 1.732-1.204-.416 1.003-1.017 1.782-1.774 2.259-.148.477-.468.716-.959.716zm-2.026-16c3.684 0 5.474 2.502 5.52 6.006l.003 2.008c0 .78-.036 1.745-.147 2.612-.364.316-.816.676-1.355 1.078-.54.403-1.086.79-1.642 1.16a2.34 2.34 0 0 1 -1.26.386h-2.186c-.474 0-.946-.175-1.26-.386a52.545 52.545 0 0 1 -1.643-1.16 24.367 24.367 0 0 1 -1.142-.898c-.244-1.312-.366-2.244-.366-2.798v-2.002c.001-3.504 1.709-6.006 5.478-6.006zm-1.801 9.168a.75.75 0 0 0 -1.41.47l.564 1.694a.75.75 0 0 0 1.41-.47zm4.564-.38a.75.75 0 0 0 -.91.38l-.564 1.694a.75.75 0 0 0 1.41.47l.564-1.694a.75.75 0 0 0 -.5-.85zm-2.737-6.788c-1.154 0-2.072.182-2.754.546a2.271 2.271 0 0 0 -1.144 2.276c.197.947.321 1.51.374 1.692.16.546.596.962 1.141 1.1.97.173 1.764.261 2.383.265.62.004 1.369-.076 2.248-.238a1.595 1.595 0 0 0 1.28-1.127 25.16 25.16 0 0 0 .372-1.696c.128-.864-.674-2.062-1.333-2.365-.66-.302-1.515-.453-2.567-.453z" fill="#282D37" style="fill: currentColor;fill: var(--db-icon-color, currentColor)" fill-rule="evenodd"/></svg>