<svg id="icon" height="20" viewBox="0 0 20 20" width="20" xmlns="http://www.w3.org/2000/svg"><path d="m2.464 7.7c.428 0 .593-.123.713-.446l.285-.766h2.12l.338.837c.108.267.267.375.694.375.481 0 .53-.23.428-.5l-1.817-4.807a.6.6 0 0 0 -.57-.393h-.267c-.232 0-.418.181-.499.392l-1.852 4.827c-.103.268 0 .48.427.48zm13.897 2.3c.917 0 1.639.76 1.639 1.658v4.342c0 .5-.5 1-1 1h-.432l-.363.001h-.205a1 1 0 0 1 -1.005.995h-1.99a1 1 0 0 1 -1.005-.994l-.57-.003-3.161-.005-.269.008c-.01.546-.45.994-1.005.994h-1.99a.988.988 0 0 1 -.995-.996h-1.01c-.5 0-1-.5-1-1v-4.342c0-.898.722-1.658 1.639-1.658zm-.361 2h-12v2h12zm-7.15-9.999.086.002h1.61c1.074 0 1.79.412 1.79 1.433 0 .608-.232.966-.93 1.217a1.32 1.32 0 0 1 1.27 1.414c0 1.11-.823 1.63-2.147 1.63h-1.593c-.305.035-.537-.215-.52-.52v-4.672a.475.475 0 0 1 .52-.502zm7.754-.005c.321 0 .624.036.928.107.267.036.446.286.428.554 0 .34-.125.519-.571.43-.25-.072-.5-.108-.767-.108-1.142 0-1.516.643-1.516 1.876 0 1.144.356 1.858 1.498 1.858.285 0 .57-.053.838-.125.357-.089.553.036.553.376a.516.516 0 0 1 -.392.571 3.474 3.474 0 0 1 -1.052.161c-1.73 0-2.587-1.018-2.587-2.805 0-1.823.892-2.895 2.64-2.895zm-6.083 3.158h-.98v1.624h.838c.749 0 1.123-.197 1.123-.839 0-.517-.267-.785-.98-.785zm-5.916-1.634.757 2.12h-1.514zm5.863-.596h-.928v1.302h.892c.464 0 .803-.16.803-.678 0-.41-.179-.624-.767-.624z" fill="#282D37" style="fill: currentColor;fill: var(--db-icon-color, currentColor)" fill-rule="evenodd"/></svg>
