<svg id="icon" height="24" viewBox="0 0 24 24" width="24" xmlns="http://www.w3.org/2000/svg"><path d="m8.198 2 7.465.022c.289 0 .585.082.844.237l.991.584a.739.739 0 0 1 -.37 1.377.762.762 0 0 1 -.377-.104l-.992-.584c-.037-.023-.096-.037-.096-.037h-1.02v2.655h.843a3.527 3.527 0 0 1 3.514 3.515v8.82a3.527 3.527 0 0 1 -3.514 3.514h-7.11a3.527 3.527 0 0 1 -3.515-3.514v-8.812a3.527 3.527 0 0 1 3.514-3.515h.836v-2.678h-1.028c-.03-.008-.074.015-.111.037l-.91.584a.741.741 0 0 1 -1.021-.222.741.741 0 0 1 .222-1.02l.91-.585c.281-.185.614-.274.925-.274zm7.28 5.63h-7.11a2.038 2.038 0 0 0 -2.035 2.035v8.812c0 1.125.918 2.035 2.035 2.035h7.118a2.038 2.038 0 0 0 2.034-2.035l-.007-8.812a2.038 2.038 0 0 0 -2.035-2.034zm-.34 9.893c.407 0 .74.333.74.74s-.333.74-.74.74h-.984a.742.742 0 0 1 -.74-.74c0-.407.333-.74.74-.74zm-5.416-.03c.407 0 .74.333.74.74s-.333.74-.74.74h-.984a.742.742 0 0 1 -.74-.74c0-.407.333-.74.74-.74zm4.432-8.36c.94 0 1.702.762 1.702 1.701v2.464c0 .94-.763 1.702-1.702 1.702h-4.454c-.94 0-1.702-.762-1.702-1.702v-2.464c0-.94.762-1.701 1.702-1.701zm0 1.48h-4.454a.223.223 0 0 0 -.222.221v2.464c0 .119.096.222.222.222h4.454a.223.223 0 0 0 .222-.222v-2.464a.223.223 0 0 0 -.222-.222zm-.992-7.126h-2.47v2.664h2.47z" fill="#282D37" style="fill: currentColor;fill: var(--db-icon-color, currentColor)" fill-rule="evenodd"/></svg>
