<svg id="icon" height="20" viewBox="0 0 20 20" width="20" xmlns="http://www.w3.org/2000/svg"><path d="m17.0997545 4.85310179c.579968.10029658 1.0189603.67653638.8657897 1.24483301-1.268196 4.7052855-3.3036701 7.5617158-5.8437312 8.6852024-1.8640292.824473-3.8999639.5935859-5.19952284-.3291013-1.41773817.4885933-2.8371284.4925114-4.25817069.0117541-1.22004511-.4448713-.54009103-2.3353152.67176106-1.8838091 1.87286951.6977846 4.65147756-.1652367 7.47775417-3.22081456 1.117474-1.01822179 2.2875616.38560752 1.5386898 1.27766736-.9800633 1.0819649-1.9910669 1.9608926-3.03301083 2.6367831.61568573.076831 1.31986613-.007681 1.99348843-.3215508 1.9116464-.890719 3.373379-2.9692376 4.3851979-6.23555579-3.6190385-.09888365-6.11845844.94109616-7.49825969 3.11993943-.88564749 1.48876506-2.50694482.37323366-1.82617004-.81835796 1.10087964-1.84086649 2.75026711-3.05385491 4.81922933-3.73616695 1.7051331-.56232676 3.6270175-.7054143 5.9069549-.43082294z" fill="var(--db-icon-color, currentColor)" fill-rule="evenodd"/></svg>
