<svg id="icon" height="20" viewBox="0 0 20 20" width="20" xmlns="http://www.w3.org/2000/svg"><path d="m2 17v-14c0-.5658.4342-1 1-1h14c.5658 0 1 .4342 1 1v3.9951c0 .5659-.4342 1.0049-1 1.0049-.5464 0-1-.439-1-1.0049v-2.9951h-12v12h4c.5463 0 1.0049.4536 1.0049 1 0 .5658-.4586 1-1.0049 1h-5c-.5658 0-1-.4342-1-1zm3.0049-6.9805c0-2.7707 2.2244-5.0146 4.9756-5.0146 1.4244 0 2.8097.6049 3.7658 1.6975.1757.1952.2537.4293.2537.6439 0 .5464-.4683 1.0147-.9951 1.0147-.2927 0-.5659-.1171-.761-.3512-.5659-.6439-1.3854-1.0147-2.2244-1.0147-1.678 0-3.0244 1.3659-3.0244 3.0244 0 .839.3708 1.6585 1.0147 2.2244.2146.1951.3512.4683.3512.761 0 .5853-.4683.9951-.9951.9951-.2537 0-.4879-.0976-.6635-.2537-1.0928-.9562-1.6975-2.3219-1.6975-3.7268zm2.9951-.0146c0-.54899005.43131344-1 1-1 .54899005 0 1 .45100995 1 1 0 .5489901-.45100995 1-1 1-.56868656 0-1-.4510099-1-1zm4.6341-.961c.2537 0 .5074.0976.7025.2927l.6634.6634.3902-.3707c.1952-.1952.4488-.2732.7025-.2732.2536 0 .5073.078.7024.2732l1.1708 1.1512c.6829.7024 1.0146 1.6195 1.0146 2.5561 0 .839-.2927 1.6975-.8781 2.3805l.5854.5463c.1951.1951.3122.4683.3122.7415 0 .5658-.4488.9951-1.0146.9951-.2342 0-.4878-.0976-.683-.2732l-.6048-.5853c-.7025.5658-1.561.839-2.4781.839-.8975 0-1.7756-.3707-2.4195-1.0146l-1.1707-1.1708c-.1952-.1756-.2927-.4292-.2927-.7024s.0975-.5268.2927-.7025l.3707-.3707-.7024-.7024c-.2147-.1951-.3317-.4488-.3317-.7415 0-.5463.4487-.9951.9951-.9951.2731 0 .5463.0975.7414.3122l.7025.7024 1.1902-1.1707-.6829-.6829c-.1951-.1952-.2927-.4488-.2927-.7025 0-.2536.0976-.5073.2927-.7024s.4488-.2927.7219-.2927zm2.4586 2.6927-3.3561 3.3561.4683.4488c.3122.3122.7219.4487 1.1317.4487.4683 0 .9366-.1756 1.2683-.5463l.839-.839c.3707-.3512.5463-.8.5463-1.2683 0-.4098-.1365-.8195-.4292-1.1317z" fill="var(--db-icon-color, currentColor)" fill-rule="evenodd"/></svg>
