<svg id="icon" height="20" viewBox="0 0 20 20" width="20" xmlns="http://www.w3.org/2000/svg"><path d="m6.65476799 5c.828 0 1.5-.672 1.5-1.5s-.672-1.5-1.5-1.5-1.5.672-1.5 1.5.672 1.5 1.5 1.5zm1.317 5.099c.198.229.477.347.757.347.231 0 .464-.08.653-.243.418-.36.464-.992.104-1.41l-2.21-2.561c-.065-.091-.141-.175-.236-.241-.309-.214-.711-.237-1.043-.06l-2.787 1.494c-.232.124-.407.336-.484.589l-.682 2.23c-.161.528.136 1.087.664 1.248.528.164 1.087-.135 1.249-.664l.561-1.836.694-.372-.351 2.568-2.23 5.432c-.209.511.035 1.095.545 1.305.125.052.253.075.379.075.394 0 .767-.233.926-.62l1.601-3.899.465.634 1.079 3.204c.141.417.53.681.948.681.105 0 .213-.017.319-.053.523-.176.805-.743.629-1.267l-1.128-3.351c-.033-.097-.081-.188-.141-.271l-1.372-1.872.278-2.031.814.943zm3.53400001.721c-.416-.366-1.046-.326-1.412.089-.36500001.414-.32600001 1.046.088 1.411l3.913 3.451c.19.168.426.25.661.25.277 0 .553-.114.75-.339.365-.414.326-1.046-.088-1.411l-3.914-3.451zm5.495 5.18c-.517 0-1 .483-1 1s.483 1 1 1 1-.483 1-1-.483-1-1-1z" fill="var(--db-icon-color, currentColor)" fill-rule="evenodd"/></svg>
