<svg id="icon" height="32" viewBox="0 0 32 32" width="32" xmlns="http://www.w3.org/2000/svg"><path d="m25.421721 13.2741304c.2452809.2618111.3315045.634961.225949.9778396l-1.84912 6.15332c-.1887633.6279875-.6288944 1.1499157-1.2159996 1.44199-.5871052.2920742-1.268878.3282729-1.8836104.10001l-3.55225-1.7939c-.2262003-.1137781-.475797-.1732944-.729-.17383l-10.29102.02539c-.61398215.0000601-1.11192384.4973485-1.11279 1.11133v7.9082c-.01388.47552-.46124987.9999328-.99996.9999328s-1.01392-.5244128-1-1.0000028l.00572609-.8583052-.00572609-7.0498948c.00166383-1.7172679 1.39308267-3.1091252 3.11035-3.11133l10.29342.0226469c.5712301-.007456 1.1266561.0787167 1.63334.3425931l3.38281 1.71388c.1939888.0493118.392355-.0631152.44971-.25488l1.84912-6.15332c.101167-.344199.3789775-.6078212.7280027-.6908222.3490252-.0830009.7157674.0273416.9610483.2891526zm-8.4217218 8.7258696c.5522855 0 1 .4477153 1 1v6c0 .5-.5 1-1 1s-1-.5-1-1v-6c0-.5522847.4477161-1 1-1zm-6.4999992-15c2.4852814 0 4.5 2.01471863 4.5 4.5-.0027061 2.4841596-2.0158404 4.4972939-4.5 4.5-2.48528137 0-4.5-2.0147186-4.5-4.5 0-2.48528137 2.01471863-4.5 4.5-4.5zm0 2c-1.38071187 0-2.50707 1.1124481-2.50707 2.49316s1.12635813 2.50684 2.50707 2.50684c1.3807119 0 2.49293-1.1261281 2.49293-2.50684-.0014496-1.380111-1.112819-2.49171041-2.49293-2.49316zm15.49-7.01758c.5522847 0 1 .44771525 1 1l-.0005827 1.71 2.8672727 4.7568c.1965508.30783173.2096359.6983361.0341326 1.0186347-.1755032.3202986-.5116731.5194453-.8769026.5194453h-6.04639c-.3605267 0-.6931648-.1939862-.8706077-.5078229-.177443-.3138368-.1722171-.69889153.0136777-1.0077971l2.8788173-4.78526.0005827-1.704c0-.55228475.4477153-1 1-1zm-.01368 4.94531-1.23974 2.05957h2.45215z" fill="var(--db-icon-color, currentColor)" fill-rule="evenodd"/></svg>
