<svg id="icon" height="24" viewBox="0 0 24 24" width="24" xmlns="http://www.w3.org/2000/svg"><path d="m19.5 2c1.3807119 0 2.5 1.11928813 2.5 2.5v15c0 1.3807119-1.1192881 2.5-2.5 2.5h-15c-1.38071187 0-2.5-1.1192881-2.5-2.5v-15c0-1.38071187 1.11928813-2.5 2.5-2.5zm0 2c-4.9998806-.00266917-9.99988059-.00266917-15 0-.24545989 0-.49983661.1939429-.5.5-.00266917 4.99988062-.00266917 9.9998806 0 15 0 .2454599.20452444.4998423.5.5 4.99988062.0026692 9.9998806.0026692 15 0 .2454599 0 .4998402-.2006972.5-.5.0026692-4.9998806.0026692-9.99988059 0-15 0-.24545989-.1928579-.49983603-.5-.5zm-7.6479368 4.40531864c-.477115 0-.9811361 0-1.5120632 0v2.98299996c.5643756 0 1.0730633-.0003333 1.5260632-.001.6097066.001 1.0191482-.1454444 1.239-.357.2473334-.238.371-.623.371-1.15499996 0-.55066666-.1213333-.93333333-.364-1.148-.2157037-.19081481-.6005142-.322-1.26-.322zm.1359368-1.54c1.204 0 2.1.24033334 2.688.721.588.48066667.882 1.20633334.882 2.177 0 .68879996-.2219316 1.41112636-.595 1.77099996-.3730684.3598737-.9067525.667211-1.5910632.837.2106107.1144262.3520632.2153334.4500632.304.1568.1418667.3136.3255467.4704.55104l1.4836791 2.3535873c.2632751.4209323.1484971 1.0551006-.3075902 1.3396245-.4560873.2845238-.9870276.2030758-1.3394641-.3094683-.2875918-.4940057-.8612668-1.4136002-1.7210248-2.7587835-.1866667-.2986666-.3476667-.5203333-.483-.665-.1015-.1085-.3161745-.3530691-.9114-.38164l-.6636632-.00336.0000632 3.242015c0 .5128358-.47081622.9705067-1 .999985s-1.1-.3674643-1.1-1c0-.7658885 0-3.4918885 0-8.17799996 0-.51283584.41671516-.99862532 1-1 .9126316-.00215087 1.8252982-.00215087 2.738 0z" fill="var(--db-icon-color, currentColor)" fill-rule="evenodd"/></svg>
