<svg id="icon" height="32" viewBox="0 0 32 32" width="32" xmlns="http://www.w3.org/2000/svg"><path d="m16 7c2.209139 0 4 1.790861 4 4 0 1.8508911-1.2719884 2.7965518-1.9295065 3.2592508-.6575182.4626989-.9989039.4626989-1.0502421 1.2506784l-.0197349.7830708 11.1357414 3.8441882c1.3049449.4510921 1.9971294 1.8746413 1.5460373 3.1795862-.3288929.9514405-1.1996631 1.6461116-2.328076 1.6832256h-22.67370266c-1.38071187 0-2.5-1.1192881-2.5-2.5 0-1.0066824.60281302-1.9088022 1.5184536-2.2992951l11.30228506-3.9087049c0-1.9009331.2737415-2.699963 1.490721-3.4015852 1.0854531-.6452628 1.5080238-1.1641546 1.5080238-1.8904148 0-1.1045695-.8954305-2-2-2-1.0543618 0-1.9462658.80046182-2 2 0 .546985-.4477153 1-1 1s-1-.4477153-1-1c0-2.209139 1.790861-4 4-4zm0 11.11771c-.1224976 0-.312654.0459714-.5704693.1379141l-10.91236905 3.7718135c-.2014815.069648-.33664511.2593826-.33664511.4725624 0 .2454599.17687516.4496084.41012437.4919443l22.72884259.0080557c.2131798 0 .4029144-.1351636.4725623-.3366451.0801942-.2319902 0-.5656681-.4378266-.6783238l-10.7837499-3.729407c-.2578153-.0919427-.4479717-.1379141-.5704693-.1379141z" fill="var(--db-icon-color, currentColor)" fill-rule="evenodd"/></svg>
