<svg id="icon" height="24" viewBox="0 0 24 24" width="24" xmlns="http://www.w3.org/2000/svg"><path d="m2 16.9688v-11.9688c0-1.6562 1.3438-3 3-3h11.9688c1.6874 0 3.0312 1.3438 3.0312 3v6c0 .6562-.5312 1.0625-1.0312 1.0625s-.9688-.3437-.9688-1.0625v-6c0-.5312-.4688-1-1.0312-1h-11.9688c-.5625 0-1 .4688-1 1v11.9688c0 .5624.4375 1.0312 1 1.0312h5.4688c.5624 0 1 .4375 1 .9688 0 .5624-.4376 1.0312-1 1.0312h-5.4688c-1.6562 0-3-1.3438-3-3.0312zm8.9841015-10.9688c2.7619696 0 5.0158985 2.21518987 5.0158985 5 0 2.7848101-2.2539289 5-5.0158985 5-2.79366498 0-4.9841015-2.2151899-4.9841015-5 0-2.78481013 2.19043652-5 4.9841015-5zm.0314178 2c-1.67877039 0-3.0155193 1.3438-3.0155193 3s1.33674891 3 3.0155193 3c1.6165937 0 2.9844807-1.3438 2.9844807-3-.0310386-1.6562-1.367887-3-2.9844807-3zm-2.2343193 3c0-.5625.4376-1 1-1 .5626 0 1 .4375 1 1s-.4374 1-1 1c-.5624 0-1-.4375-1-1zm2.4063 0c0-.5625.4375-1 1-1 .5313 0 1 .4375 1 1s-.4687 1-1 1c-.5625 0-1-.4375-1-1zm5.5937 2.5c.25 0 .4688.0625.7188.2812l.5938.5938.3124-.3125c.1876-.1875.4376-.2813.6876-.2813s.5312.0938.7187.2813l1.0937 1.0937c.6563.625 1 1.5 1 2.375 0 .7813-.2812 1.5626-.7812 2.1876l.5938.5624c.1874.1876.2812.4376.2812.6563 0 .5625-.4688 1.0625-1 1.0625-.25 0-.4688-.0625-.6875-.2812l-.5937-.5626c-.625.5313-1.375.8438-2.1876.8438-1.0312 0-1.875-.3438-2.5-.9688l-1.0937-1.125c-.1875-.1874-.2813-.4062-.2813-.6874 0-.25.0938-.5313.2813-.7188l.3125-.2812-.5938-.5938c-.2187-.2188-.3124-.4688-.3124-.6875 0-.5313.5-1 1.0312-1 .2188 0 .4688.0625.6875.25l.5937.5937 1.0313-1-.5937-.5624c-.2188-.2188-.3126-.4376-.3126-.6876 0-.5312.4688-1.0312 1-1.0312zm2.3126 2.6875-3.0313 3.0313.375.4062c.25.25.5937.375.9375.375.4688 0 .9062-.1875 1.2188-.5l.7812-.7812c.3125-.3126.5-.7188.5-1.1563 0-.3437-.1562-.6875-.4062-.9687z" fill="var(--db-icon-color, currentColor)" fill-rule="evenodd"/></svg>
