<svg id="icon" height="32" viewBox="0 0 32 32" width="32" xmlns="http://www.w3.org/2000/svg"><path d="m2 21.0312v-16.0312c0-1.5937 1.3125-3 2.90625-3h16.12375c1.625 0 2.97 1.4063 2.97 3v8.0362c0 .5313-.47.9688-1.0325.9688-.53125 0-.96875-.4375-.96875-.9688v-8.0362c0-.5312-.4375-1-.96875-1h-16.12375c-.53125 0-.90625.4688-.90625 1v16.0312c0 .5312.46875.9688 1 .9688h8.0325c.53125 0 .96875.4674.96875.9987 0 .5625-.4375 1-.96875 1l-8.0325.0013c-1.59375 0-3-1.3438-3-2.9688zm11-15.0312c3.853211 0 7 3.11473028 7 7.0001028 0 3.853211-3.146789 6.9998972-7 6.9998972-3.8853211 0-7-3.1466862-7-6.9998972 0-3.88537252 3.1146789-7.0001028 7-7.0001028zm0 2c-2.7564103 0-5 2.2434872-5 5 0 2.7563077 2.2435897 5 5 5s5-2.2436923 5-5c0-2.7565128-2.2435897-5-5-5zm-2.015873 4c.5714286 0 1.015873.4193032 1.015873 1.0000516 0 .5483355-.4444444.9999484-1.015873.9999484-.5396826 0-.984127-.4516129-.984127-.9999484 0-.5807484.4444444-1.0000516.984127-1.0000516zm4.015873 0c.5483871 0 1 .4193032 1 1.0000516 0 .5483355-.4516129.9999484-1 .9999484s-1-.4516129-1-.9999484c0-.5807484.4516129-1.0000516 1-1.0000516zm6.96875 4.875c.21875 0 .4375.0625.59375.2188l1.78125 1.7812.6875-.6875c.21875-.2187.46875-.3125.6875-.3125s.4375.0625.59375.2188l1.96875 1.9374c1 .9688 1.53125 2.25 1.53125 3.5626 0 1.1874-.4375 2.4062-1.34375 3.5l1.25 1.25c.1875.1874.28125.4374.28125.6874 0 .5313-.4375.9688-.9375.9688-.21875 0-.46875-.0938-.71875-.2812l-1.25-1.25c-.90625.875-2.125 1.3437-3.375 1.3437s-2.5-.4375-3.5-1.375l-2.03125-2.0313c-.1875-.1874-.28125-.4374-.28125-.6874 0-.2188.0625-.4063.1875-.5938l.75-.75-1.6875-1.6875c-.1875-.2187-.28125-.4687-.28125-.6875 0-.5625.4375-.9688.96875-.9688.21875 0 .4375.0626.59375.1876l1.78125 1.7812 2.75-2.75-1.6875-1.7188c-.1875-.1874-.28125-.4374-.28125-.6874 0-.5.46875-.9688.96875-.9688zm3.78125 3.3438-5.5 5.5 1.15625 1.1874c.625.5938 1.46875.9688 2.34375.9688.6875 0 1.375-.2188 1.9375-.7188l1.34375-1.3437c.5625-.625.84375-1.375.84375-2.1563 0-.7812-.28125-1.5312-.84375-2.125z" fill="var(--db-icon-color, currentColor)" fill-rule="evenodd"/></svg>
