<svg id="icon" height="32" viewBox="0 0 32 32" width="32" xmlns="http://www.w3.org/2000/svg"><path d="m27 2c1.6568542 0 3 1.34314575 3 3v22c0 1.6568542-1.3431458 3-3 3h-22c-1.65685425 0-3-1.3431458-3-3v-22c0-1.65685425 1.34314575-3 3-3zm0 2h-22c-.51283584 0-.93550716.38604019-.99327227.88337887l-.00672773.11662113v22c0 .5128358.38604019.9355072.88337887.9932723l.11662113.0067277h22c.5128358 0 .9355072-.3860402.9932723-.8833789l.0067277-.1166211v-22c0-.51283584-.3860402-.93550716-.8833789-.99327227zm-10.824236 4.46c1.72 0 3 .34333333 3.84 1.03.84.6866667 1.26 1.7233333 1.26 3.11 0 1.0092308-.2307992 1.7912631-.85 2.53-.4128005.4924913-1.1704972.8911579-2.27309 1.196.4635578.2105682.9112544.6311608 1.34309 1.2617778l2.050172 3.2796123c.3804737.6109719.2154333 1.5038052-.448184 1.9184182s-1.4619878.2141917-1.906109-.4475094c-.359703-.558851-1.164996-1.858284-2.415879-3.8982989-.2666667-.4266667-.4966667-.7433333-.69-.95-.1546667-.1653333-.3250192-.5055049-1.1520001-.5452l-.9480903-.0048.000068 4.5600224c0 .8284147-.6715629 1.4999776-1.4999777 1.4999776-.7796961 0-1.5-.6617011-1.5-1.5v-11.54c0-.77969612.6186917-1.49848121 1.5-1.5l.9506084-.00124078h1.845c.3012537.00027573.5993843.00068932.8943917.00124078zm-.18 2.2h-2.0100904v4.26h2.0300904c.8569311.007767 1.4487879-.2009091 1.77-.51.3533333-.34.53-.89.53-1.65 0-.7866667-.1733333-1.3333333-.52-1.64-.3151515-.2787879-1.02-.46-1.8-.46z" fill="var(--db-icon-color, currentColor)" fill-rule="evenodd"/></svg>
