<svg id="icon" height="24" viewBox="0 0 24 24" width="24" xmlns="http://www.w3.org/2000/svg"><path d="m10 2c.5522847 0 1 .44771525 1 1 0 .51283584-.4135284 1-1 .99327227l-3.5814864.00672773c-.78789773 0-1.26675592.05991898-1.57814421.23998583s-.45968008.34274014-.59996307.60832536c-.1504201.28477689-.21840834.56372689-.23576756 1.21711825v11.86914116c.01735922.6533913.08534746.9323413.23576756 1.2171182.14028299.2655852.30936121.4425626.59996307.6083254s.66516993.2212131 1.18958802.2353648l3.97004259.004621c.5522847 0 1 .4477153 1 1 0 .5128358-.4082857 1-1 1h-3.5814864c-1.23635914 0-1.87074598-.1240371-2.53047153-.4812725-.60866113-.3295844-1.09155859-.8185181-1.41609451-1.4329329-.32544786-.6161413-.45342693-1.2092817-.4700492-2.2890035l-.00189836-11.33554608c0-1.24664168.12146525-1.88350287.47194756-2.54703961.32453592-.61441478.80743338-1.10334846 1.41609451-1.43293294.61260229-.33171858 1.20335642-.4623631 2.27452268-.47933416zm7.5 5.65c2.3902773 0 4.35 1.93747114 4.35 4.35 0 2.4125289-1.9627501 4.35-4.35 4.35-1.2844249 0-2.723348-.5528768-3.6995556-2.07-.216664 0-.9703032 0-1.2136273 0l-1.0142072.6770629c-.2730722.1821986-.6229475.1891304-.9003648.0270139l-.82742803-.6470768-.71473876.5757201c-.32371113.2599874-.78217537.2454317-1.08811771-.0195518l-2.07944146-2.328459c-.27181834-.3057957-.27630749-.8291516-.04500883-1.0744518l1.02691763-1.0384882 1.05234836-1.05281006c.13283827-.13283827.35331432-.24158767.59587816-.24158767l5.61945424-.00737157c.7878913-.92360079 2.0038749-1.5 3.2878913-1.5zm0 1.70693098c-.7277617 0-1.2827542.23510951-1.8006786.68399322-.5098755.5295837-.9323263.8090758-1.2205225.8090758h-5.52898183l-1.184 1.184.93 1.046.61484184-.4927201c.15592357-.1252295.34504758-.1876832.53409637-.1872779.1488639.000319.29768112.0396141.43020482.1179259l.868857.6800721.5277129-.4844503h2.3488667c.6433953 0 1.1134155.5369447 1.2720496.7542623.158634.2173176.2739925.3716423.4609151.5281941.3642438.3050622.8805481.6496555 1.7466386.6496555 1.5754293 0 2.65-1.1921972 2.65-2.6456616s-1.0745434-2.64306902-2.65-2.64306902zm0 1.39306902c.6903559 0 1.25.5596441 1.25 1.25s-.5596441 1.25-1.25 1.25-1.25-.5596441-1.25-1.25.5596441-1.25 1.25-1.25z" fill="var(--db-icon-color, currentColor)" fill-rule="evenodd"/></svg>
