<svg id="icon" height="20" viewBox="0 0 20 20" width="20" xmlns="http://www.w3.org/2000/svg"><path d="m16 2c1.1045695 0 2 .8954305 2 2v12c0 1.1045695-.8954305 2-2 2h-12c-1.1045695 0-2-.8954305-2-2v-12c0-1.1045695.8954305-2 2-2zm-5.6408707 3.93902455c-.87747031 0-1.62117991.15516243-2.23112879.4654873-.60994889.31032487-1.07543619.77224523-1.39646192 1.38576106s-.48153859 1.36970977-.48153859 2.26858179c0 1.3411742.32815963 2.3434878.9844789 3.006941.65631926.6634532 1.66933378.9951798 3.0390436.9951798.643656 0 1.566006-.1651557 1.9873095-.2931474.4213036-.1279917.7093066-.5164965.7093066-.956813v-2.4875793c0-.2761423-.2238577-.49999995-.5-.49999995h-1.7899836c-.3486853 0-.6313506.28266525-.6313506.63135055 0 .3486854.2826653.6313506.6313506.6313506h.5027236c.0828427 0 .15.0671573.15.15v1.227997c-.0000718.1184929-.0832777.2206997-.1993076.2447333-.2533189.0524707-.522167.0787061-.8065443.0787061-.53448116 0-.97734495-.0927408-1.30550459-.2782223-.32815963-.1854815-.56714545-.4744047-.71695745-.8667695-.14981201-.3923647-.22471801-.9167068-.22471801-1.573026 0-.64205148.07133905-1.1663935.21401715-1.57302609s.38344739-.71517398.72230788-.92562418.8043478-.3156753 1.39646192-.3156753c.5921141 0 1.3429793.16192163 1.6533648.25533319.3103856.09341155.7122867-.08797831.8044053-.40257263.0921185-.31459432-.0776569-.65532632-.3640205-.79243533s-1.2697836-.37653071-2.1472539-.37653071z" fill="var(--db-icon-color, currentColor)" fill-rule="evenodd"/></svg>
