<svg id="icon" height="20" viewBox="0 0 20 20" width="20" xmlns="http://www.w3.org/2000/svg"><path d="m13 8.00000318c-.3472992 0-.7028176-.17296471-.8847663-.46878799s-.1973369-.66487824-.0406462-.97482144l1.4404125-2.84973125-.015-.7066625c0-.55231925.4627432-1.01788746 1.0150625-1.01788746s.9849375.46556821.9849375 1.01788746l.015125.71155 1.4099125 2.85278125c.1533487.30989604.1356498.67703643-.0467971.97074462-.182447.29370819-.5324784.46506786-.8782404.46492731zm-6.5253625.99503432c1.36940039 0 2.47951875-1.11011836 2.47951875-2.47951875s-1.11011836-2.47951875-2.47951875-2.47951875-2.47951875 1.11011836-2.47951875 2.47951875 1.11011836 2.47951875 2.47951875 2.47951875zm8.2887458.82102233c.2322348.27347407.300169.65040177.178023.98774647l-.7180813 2.0214875c-.3238213.9208852-1.3193821 1.4192724-2.2506687 1.1267062l-2.4960313-.778175c-.4095635-.1202761-.83383771-.1831298-1.26068125-.1867625l-3.8876375.0140375c-.19313174-.0014441-.3222062.1490753-.322875.3192125v4.6875c.00001128.5995459-.5236316.9996014-1.0000625.9997573-.4764309.0001538-1.00005625-.3815412-1.00005625-.9997573v-4.6875c.00151595-1.2802087 1.0391222-2.3175549 2.31933125-2.31875l3.88305625-.0140375c.63120596-.0130876 1.26011189.0801738 1.8603563.275875l2.3297125.7257125.6588687-1.85425c.1178557-.33886739.4082151-.58862923.7608925-.65450576s.7136185.06222902.9458533.33570309zm-5.75733955 4.69290897c.55231927 0 1.00006245.4477432 1.00006245 1.0000625v2.4816937c-.0061062.509275-.41148719.9995649-1.00006245.9997601-.58857526.0001875-1.0000625-.7345537-1.0000625-.9997601v-2.4816937c0-.5523193.44774323-1.0000625 1.0000625-1.0000625z" fill="var(--db-icon-color, currentColor)" fill-rule="evenodd"/></svg>
