<svg id="icon" height="24" viewBox="0 0 24 24" width="24" xmlns="http://www.w3.org/2000/svg"><path d="m21.02625 19.998375c.5525609 0 .97375.4736891.97375 1.02625s-.4211891.97375-.97375.97375h-18.0225c-.55256089 0-1.0005-.4211891-1.0005-.97375s.44793911-1.02625 1.0005-1.02625zm-6.72375-17.99675c.9399213.00372102 1.6993259.76782361 1.69725 1.70775v1.296h3.35025c.931466.00660582 1.6541579.76576987 1.6500531 1.69725v9.62025c.0041048.9314801-.7185871 1.6688942-1.6500531 1.6755h-14.66775c-.93134589-.006606-1.68682274-.7441419-1.68237116-1.6755v-9.62025c-.00445158-.93135809.75102527-1.69064404 1.68237116-1.69725h3.31725v-1.296c-.00207587-.93992639.75732868-1.70402898 1.69725-1.70775zm4.6975 4.99675h-14v9h14zm-10.48223803 2.12325284c.31353913.18485766.50195252.52540675.49198803.88924716v3.00375c.00019901.2652801-.10504363.5197632-.2925547.7074149s-.44191512.2930851-.7071953.2930851c-.55256089 0-1.0005-.4479391-1.0005-1.0005v-3.00375c-.00996449-.36384041.1784489-.7043895.49198803-.88924716.31353912-.18485766.70273482-.18485766 1.01627394 0zm8.01075003 0c.3135391.18485766.5019525.52540675.491988.88924716v3.00375c0 .5525609-.4479391 1.0005-1.0005 1.0005-.2652802 0-.5196842-.1054334-.7071953-.2930851s-.2927537-.4421348-.2925547-.7074149v-3.00375c-.0099645-.36384041.1784489-.7043895.491988-.88924716.3135392-.18485766.7027348-.18485766 1.016274 0zm-2.529012-5.11900284h-3.99975v1.00275h3.99975z" fill="var(--db-icon-color, currentColor)" fill-rule="evenodd"/></svg>
