<svg id="icon" height="24" viewBox="0 0 24 24" width="24" xmlns="http://www.w3.org/2000/svg"><path d="m11.5020577 2c.5495738 0 1.0610139.27216988 1.3690743.72977419.4269479.64079557 1.0208863 1.52808933 1.6240467 2.42803892l.2784539.41539489c.9728017 1.45097155 1.9054298 2.8395897 2.1233867 3.16438107l.042244.06298475c1.3812481 1.99933648 2.082609 3.88059858 2.082609 5.58988528 0 4.3382683-3.2256617 7.6095409-7.5033647 7.6095409-4.29714376-.0007477-7.5385076-3.2705249-7.5385076-7.6072977 0-1.6136202.62559656-3.3819721 1.86041242-5.25970332l.22422942-.33249053.00543274-.00808896.04215414-.06276878c.02071379-.0308447.04789625-.07132335.08096612-.12057245l.11629064-.17319514c.59755684-.89000771 2.16216405-3.22105731 3.26374233-4.86862259l.23659206-.35401135c.11390384-.17051679.22078353-.33065264.31867723-.47749324.306565-.45984746.8187528-.73500822 1.3705697-.73575594zm0 2.27456258c-1.1064227 1.65629964-2.90889629 4.34143722-3.55131164 5.29815203l-.11246566.16748036c-.07991526.11900066-.12416944.18488354-.12416944.18488354-1.15522656 1.67264839-1.73770001 3.17257369-1.73770001 4.46837149 0 3.2510842 2.33138926 5.6101391 5.54284435 5.6101391 3.1912666 0 5.5069538-2.3605504 5.5069538-5.61313 0-1.2957978-.5824735-2.795723-1.7302229-4.45790339-.0045469-.00707303-1.1113519-1.65439075-2.2499682-3.35254373l-.2733306-.40771898c-.4547421-.67844576-.9008723-1.34468073-1.269882-1.8969827z" fill="var(--db-icon-color, currentColor)" fill-rule="evenodd"/></svg>
