<svg id="icon" height="20" viewBox="0 0 20 20" width="20" xmlns="http://www.w3.org/2000/svg"><path d="m16 2c1.1045695 0 2 .8954305 2 2v12c0 1.1045695-.8954305 2-2 2h-12c-1.1045695 0-2-.8954305-2-2v-12c0-1.1045695.8954305-2 2-2zm0 2h-12v12h12zm-6.07375583 3.56185441c-.34973515 0-.70594354 0-1.06862517 0v2.11623105h1.07910156c.41207134 0 .70715644-.08381113.88525504-.25143339.1780987-.16762226.267148-.44350057.267148-.82763492 0-.39111861-.0855572-.66175872-.2566716-.81192033-.1497251-.1313914-.4436084-.22524241-.90620783-.22524241zm.08381063-1.24669057c.9219225 0 1.6116182.18159079 2.0690873.54477235.4574691.36318157.6862037.91493818.6862037 1.65526983 0 .48889826-.1833369 1.05747734-.4347703 1.30431072-.2514334.24683336-.6008813.48094086-1.1691985.63067876.1163212.0568344.2001323.0921922.3468018.2283853s.2933389.31953.4400084.5500106l.7466564 1.2318502c.164917.276357.1391007.8480805-.242851 1.0855806-.4031822.2349634-.8699377.1247565-1.064962-.1990266l-1.062684-1.7726833c-.132701-.2095278-.2496874-.3684198-.35095914-.4766758-.07595383-.0811921-.28408779-.2881008-.74906198-.2881008-.11479722 0-.23703287 0-.36670694 0l.00002331 2.0025475c0 .4715496-.38226643.853816-.85381596.853816-.43528155 0-.85382589-.3189036-.85382589-.8538259 0-.5603894 0-2.4760259 0-5.74690946 0-.37969576.29987044-.75.75-.75.70330858-.00217706 1.40666019-.00217706 2.1100548 0z" fill="var(--db-icon-color, currentColor)" fill-rule="evenodd"/></svg>
