<svg id="icon" height="32" viewBox="0 0 32 32" width="32" xmlns="http://www.w3.org/2000/svg"><path d="m15.975 2c.646 0 1.248.32 1.609.857.864 1.285 2.275 3.376 3.504 5.196.309.458.189 1.079-.269 1.389-.458.308-1.079.188-1.388-.27-1.23-1.82-2.642-3.913-3.506-5.199-.62712.99612-1.5520608 2.41344-2.4791167 3.81959885l-.3086913.46771315c-1.2991995 1.9664167-2.5376072 3.8157607-2.8928909 4.3456724l-.0640807.0955504c-.0244376.036427-.0372204.0554652-.0372204.0554652-1.716 2.486-2.583 4.737-2.583 6.699 0 4.951 3.549 8.544 8.438 8.544s8.438-3.593 8.438-8.544c0-1.871-.798-4.018-2.373-6.379-.306-.459-.182-1.08.277-1.387.459-.306 1.08-.182 1.387.277 1.797 2.696 2.709 5.216 2.709 7.488 0 6.011-4.487 10.5440013-10.438 10.5440013-5.951.0019987-10.438-4.5310013-10.438-10.5420013 0-2.376.986-5.009 2.93-7.825l.04057724-.0604527c.24853871-.3702919 1.60173776-2.38659898 3.02944146-4.51800222l.3067014-.45793303c.6653638-.99358756 1.3309264-1.98841346 1.8935876-2.83126027l.2520078-.37765689c.1219752-.18287482.2376257-.35640077.3456845-.51869489.36-.541.962-.866 1.611-.868zm3.862 17.407c.468 0 .831.119 1.079.353.25.235.377.58.377 1.024 0 .292-.06.559-.178.795-.125.246-.287.469-.479.665l-.078.079c-.127.127-.275.268-.442.422h.944c.016 0 .032 0 .047.003.246.026.424.248.398.493-.029.268-.254.471-.524.471h-2.058c-.081.002-.161-.019-.231-.059-.109-.062-.188-.162-.221-.283-.034-.121-.018-.247.044-.357.047-.081.109-.157.186-.226l.193-.174c.308-.282.539-.509.705-.691.151-.161.277-.342.375-.538.081-.169.122-.354.122-.549 0-.162-.034-.279-.101-.347s-.182-.102-.343-.102c-.141 0-.279.022-.41.064l-.03.01c-.047.015-.092.023-.138.023-.181 0-.343-.115-.403-.286l-.008-.023c-.079-.229.029-.478.25-.579.087-.041.179-.076.272-.104.202-.056.42-.084.652-.084zm-2.904-5.863c.473 0 .857.384.857.857v6.457c0 .473-.384.857-.857.857s-.857-.384-.857-.857v-2.669h-2.732v2.669c0 .473-.384.857-.857.857s-.857-.384-.857-.857v-6.457c0-.473.384-.857.857-.857s.857.384.857.857v2.493h2.732v-2.493c0-.473.384-.857.857-.857z" fill="var(--db-icon-color, currentColor)" fill-rule="evenodd"/></svg>
