<svg id="icon" height="20" viewBox="0 0 20 20" width="20" xmlns="http://www.w3.org/2000/svg"><path d="m10.5733801 3.43508967.355234-.75172059c.1179838-.24966867.011232-.54770985-.2384367-.66569359-.0738934-.0349192-.1552203-.05119235-.2368608-.04739484l-.83053152.03863216c-4.2578026.19805161-7.62278508 3.71361652-7.62278508 7.99124379 0 4.418278 3.581722 8 8 8 3.1232564 0 5.9203912-1.806516 7.2335536-4.5798373l.356061-.7519799c.1181748-.2495783.0116513-.5477011-.237927-.6658759-.0739622-.035021-.1553897-.0513527-.2371363-.0475618l-.8311243.0385421c-.0941475.004366-.1886379.0065562-.283427.0065562-3.3137085 0-6-2.6862915-6-6 0-.89955466.1974373-1.76936735.5733801-2.56491033zm-2.3873801.84291033-.06110542.30698477c-.08271295.4632502-.12489458.93630692-.12489458 1.41501523l.00380682.24917933c.11381308 3.71997385 2.76720168 6.80083067 6.28498448 7.56738927l.2912087.0574314-.0880705.1051891c-1.1154707 1.2589452-2.7346696 2.0209675-4.4919295 2.0209675-3.3137085 0-6-2.6862915-6-6 0-2.67332586 1.75277899-4.95009575 4.186-5.7221566z" fill="var(--db-icon-color, currentColor)" fill-rule="evenodd"/></svg>
