<svg id="icon" height="20" viewBox="0 0 20 20" width="20" xmlns="http://www.w3.org/2000/svg"><path d="m15.894 14.772c.423.458.82.727 1.106.727a.85.85 0 0 1 0 1.7c-.603 0-1.183-.233-1.741-.697-.604.464-1.211.697-1.82.697-.608 0-1.209-.24-1.801-.72-.629.48-1.233.72-1.813.72s-1.167-.226-1.761-.678c-.509.452-1.052.678-1.632.678-.579 0-1.197-.24-1.853-.722-.484.381-1.01.572-1.579.572a.85.85 0 0 1 0-1.7c.26 0 .554-.176.88-.527a.85.85 0 0 1 1.265-.077c.094.093.794.754 1.22.754.274 0 .587-.212.936-.634a.85.85 0 0 1 1.315-.102c.086.09.762.736 1.209.736.414 0 1.117-.645 1.202-.734a.85.85 0 0 1 1.243.008c.081.088.74.726 1.198.726.282 0 .696-.223 1.187-.737a.85.85 0 0 1 1.239.01zm-3.144-12.622a.85.85 0 0 1 .79.534l.343 1.346-6.902.007c-.418 0-.79.41-.79.843 0 .434.424.85.79.85h7.327l.355 1.42h2.539a.85.85 0 0 1 .844.952c-.06.49-1.331 3.082-2.29 4.037-.335.373-.645.648-.928.827a2.63 2.63 0 0 1 -1.411.427c-.547 0-1.126-.223-1.739-.667-.577.596-1.165.903-1.763.923s-1.213-.248-1.845-.803c-.513.537-1.058.806-1.638.806-.579 0-1.166-.272-1.762-.816-.527.544-1.084.816-1.67.816-.433 0-.85-.358-.85-.806v-9.846c0-.433.324-.85.85-.85zm.287 5.341a1 1 0 1 0 0 2 1 1 0 0 0 0-2zm-4 0a1 1 0 1 0 0 2 1 1 0 0 0 0-2zm-4 0a1 1 0 1 0 0 2 1 1 0 0 0 0-2z" fill="var(--db-icon-color, currentColor)" fill-rule="evenodd"/></svg>
