<svg id="icon" height="32" viewBox="0 0 32 32" width="32" xmlns="http://www.w3.org/2000/svg"><path d="m24.3653 1.9993 4.348.012c.726.091 1.288.71 1.288 1.461l-.013 4.357c-.042.319-.188.617-.418.847l-1.171 1.157c-.181.143-.394.241-.622.287l-1.639.327-.377 1.825c-.167.491-.584.863-1.102.967l-1.644.329-.373 1.811c-.072.219-.195.42-.359.584l-2.917 2.92c.806 3.013-.027 6.27-2.288 8.531-3.449 3.449-9.042 3.449-12.491 0-3.45-3.45-3.45-9.042 0-12.492 2.263-2.263 5.522-3.093 8.532-2.287l10.351-10.332c.255-.196.57-.304.895-.304zm.236 2.001-10.885 10.865-1.114-.298c-.577-.155-1.172-.233-1.769-.233-1.825 0-3.541.711-4.832 2.002-2.664 2.664-2.664 6.999 0 9.663 1.291 1.291 3.007 2.002 4.832 2.002 1.824 0 3.54-.711 4.831-2.002 1.721-1.719 2.398-4.249 1.77-6.599l-.298-1.115 3.609-3.613.578-2.807 2.587-.515.537-2.605 2.765-.551.777-.768.011-3.417zm-12.2071 15.6064c.862.862.862 2.261 0 3.123s-2.261.862-3.123 0-.862-2.261 0-3.123 2.261-.862 3.123 0z" fill="var(--db-icon-color, currentColor)" fill-rule="evenodd"/></svg>
