<svg id="icon" height="64" viewBox="0 0 64 64" width="64" xmlns="http://www.w3.org/2000/svg"><g fill="none" fill-rule="evenodd" transform="translate(11 4)"><path d="m25 0a5 5 0 0 1 5 5v8.036a1 1 0 0 1 -2 0v-8.036a3 3 0 0 0 -3-3h-2c.071.838-.625 2.924-2.966 3h-10.068a2.966 2.966 0 0 1 -2.966-2.966v-.034h-2a3 3 0 0 0 -3 3v46a3 3 0 0 0 3 3h20a3 3 0 0 0 3-3v-9a1 1 0 0 1 2 0v9a5 5 0 0 1 -5 5h-20a5 5 0 0 1 -5-5v-46a5 5 0 0 1 5-5zm-4 50a1 1 0 0 1 0 2h-12a1 1 0 0 1 0-2zm1.422-33.558c1.634-.943 3.171-.36 4.213 1.447l3.492 6.05c1.068-1.181 2.27-1.266 2.89-1.123.257-.607.762-1.165 1.505-1.64.68-.394 1.345-.506 1.964-.364.257-.606.761-1.163 1.502-1.639 1.586-.914 3.012-.267 4.05 1.53 1.439 2.363 2.44 4.098 3 5.197.677 1.171 1.008 2.876 1.036 5.116.099 2.921-1.797 6.295-5.06 8.178-2.438 1.408-5.452 1.646-8.591.748-.214-.104-3.797-1.693-10.751-4.766-2.377-1.05-3.242-2.862-2.258-5.138.914-1.666 2.527-2.039 4.427-1.173l2.479.893c-2.675-4.628-4.362-7.55-5.06-8.766-.83-2.103-.416-3.639 1.162-4.55zm2.481 2.447c-.53-.919-.953-1.074-1.665-.598-.475.317-.543.91-.203 1.78l6.371 11.03c.446.772-.262 1.677-1.094 1.474l-5.157-1.822c-1.101-.547-1.608-.445-1.946.161-.481 1.12-.156 1.802 1.272 2.433 4.04 1.787 7.598 3.364 10.676 4.733 2.677.743 4.962.537 6.857-.618 2.626-1.516 4.135-4.2 4.061-6.399-.025-1.949-.296-3.344-.794-4.208-.556-1.09-1.536-2.788-2.963-5.132-.556-.96-.85-1.095-1.29-.843-.86.553-.948.951-.415 1.703.32.451.22 1.03-.236 1.395s-1.184.171-1.46-.307c-.534-.925-.875-1.065-1.355-.788-.864.554-.952.953-.419 1.704.32.451.206 1.114-.236 1.394-.59.375-1.186.168-1.46-.307-.534-.925-.908-1.171-1.578-.64-1.022.69-.252 1.405-.195 1.556a1 1 0 0 1 -1.631 1.158c-.074-.087-1.787-3.04-5.14-8.859zm-13.903 3.111a3 3 0 0 1 3 3v4a3 3 0 0 1 -3 3h-4a3 3 0 0 1 -3-3v-4a3 3 0 0 1 3-3zm0 2h-4a1 1 0 0 0 -1 1v4a1 1 0 0 0 1 1h4a1 1 0 0 0 1-1v-4a1 1 0 0 0 -1-1zm0-14a3 3 0 0 1 3 3v4a3 3 0 0 1 -3 3h-4a3 3 0 0 1 -3-3v-4a3 3 0 0 1 3-3zm0 2h-4a1 1 0 0 0 -1 1v4a1 1 0 0 0 1 1h4a1 1 0 0 0 1-1v-4a1 1 0 0 0 -1-1zm10-10h-12c0 .595.322.929.966 1h10.068c.256 0 .966-.179.966-1z" fill="var(--db-icon-color, currentColor)" fill-rule="nonzero"/><path d="m22.6 10a3.4 3.4 0 0 1 3.355 2.85 1 1 0 0 1 -1.973.321 1.4 1.4 0 0 0 -1.382-1.171h-3.2a1.4 1.4 0 0 0 -1.4 1.4v3.2c0 .495.193.915.505 1.16a1 1 0 1 1 -1.235 1.574c-.808-.635-1.27-1.64-1.27-2.734v-3.2a3.4 3.4 0 0 1 3.4-3.4z" fill="var(--db-icon-pulse-color, #EC0016)"/></g></svg>
