<svg id="icon" height="20" viewBox="0 0 20 20" width="20" xmlns="http://www.w3.org/2000/svg"><path d="m14.4497859 7.3964608s-2.1750849-3.23762647-3.1657486-4.72455955c-.0631275-.09375367-.1387555-.17375679-.2231337-.23875933-.279386-.27501074-.6569007-.43314192-1.0569163-.43314192h-.0031252c-.50376964.00125005-.9712879.25250986-1.25129884.67190125-.98941364 1.48443298-3.15887339 4.71393413-3.15824836 4.71393413-1.10191805 1.59506231-1.6613149 3.10074612-1.6613149 4.47579982 0 3.5001367 2.61697723 6.1383648 6.0871128 6.1383648 3.4701355 0 6.0871128-2.6388531 6.0871128-6.1383648 0-1.3750537-.5593969-2.88073751-1.6538146-4.46579943zm-3.5045119 5.9977343c0 .2956365-.2400093.5356459-.5356459.5356459-.2956365 0-.53564591-.2400094-.53564591-.5356459v-1.6681902h-1.70756671v1.6681902c0 .2956365-.24000937.5356459-.53564592.5356459s-.53564592-.2400094-.53564592-.5356459v-4.03578266c0-.29563655.24000937-.53564593.53564592-.53564593s.53564592.24000938.53564592.53564593v1.55818586h1.70756671v-1.55818586c0-.29563655.24000941-.53564593.53564591-.53564593.2956366 0 .5356459.24000938.5356459.53564593zm1.995078 1.7850697h-1.2863003c-.050627 0-.1006289-.0131255-.1443806-.0381265-.0681277-.0387515-.1175046-.1012539-.1381304-.1768819-.0212508-.0756279-.0112505-.154381.0275011-.2231337.0293761-.050627.0681276-.0981288.1162545-.1412555l.1206297-.1087543c.1925075-.1768819.3368882-.3181374.4406422-.4318918.0943787-.100629.1731318-.2137584.2343842-.3362632.050627-.1056291.076253-.2212586.076253-.3431384 0-.1012539-.0212509-.1743818-.0631275-.2168834-.0418766-.0425017-.1137544-.0637525-.2143834-.0637525-.0881284 0-.1743818.0137505-.25626.0400015l-.0187507.0062503h-.0018751c-.0275011.0093753-.0556272.0143755-.0843783.0143755-.1131294 0-.2143834-.0718778-.2518848-.178757l-.0050002-.0143755c-.049377-.1431306.0181257-.2987617.1562561-.3618892.0543771-.025626.1118793-.0475018.1700066-.0650025.1262549-.0350014.2625103-.052502.4075159-.052502.2925115 0 .5193953.0743779.6744014.2206336.1562561.1468807.2356342.3625141.2356342.640025 0 .1825071-.0375015.3493886-.1112544.4968944-.078128.153756-.179382.2931364-.2993867.4156412l-.0487519.049377c-.0793781.0793781-.1718817.1675065-.2762608.2637603h.5900231c.0100004 0 .0200008 0 .0293761.001875.153756.0162507.2650104.1550061.2487598.3081371-.0181257.1675065-.1587562.2943865-.3275128.2943865z" fill="var(--db-icon-color, currentColor)" fill-rule="evenodd"/></svg>
