<svg id="icon" height="32" viewBox="0 0 32 32" width="32" xmlns="http://www.w3.org/2000/svg"><path d="m22.9937596 22c2.2057516 0 3.9938665 1.790861 3.9938665 4s-1.7881149 4-3.9938665 4-3.9938666-1.790861-3.9938666-4 1.788115-4 3.9938666-4zm-10.9831331 0c2.2057516 0 3.9938666 1.790861 3.9938666 4s-1.788115 4-3.9938666 4c-2.20575156 0-3.99386652-1.790861-3.99386652-4s1.78811496-4 3.99386652-4zm10.9831331 2c-1.1028758 0-1.9969333.8954305-1.9969333 2s.8940575 2 1.9969333 2 1.9969333-.8954305 1.9969333-2-.8940575-2-1.9969333-2zm-10.9831331 0c-1.1028758 0-1.9969332.8954305-1.9969332 2s.8940574 2 1.9969332 2 1.9969333-.8954305 1.9969333-2-.8940575-2-1.9969333-2zm7.9877332-21.00000003c5.8804269 0 9.8648114 3.76891701 9.9981859 9.40673193l.0034544.2932681c-.0073113.718894-.1138243 1.4333241-.3165139 2.123-.3654388 1.141-1.1422459 3.256-1.3149806 3.677-.5819153 1.4900443-2.0070936 2.4785256-3.6044646 2.5h-14.5506543c-1.61849148-.0039002-3.06325069-1.017104-3.62044005-2.539l-1.34193917-4.153c-.0983623-.3042995-.0454507-.6373628.14235143-.8960615.18780213-.2586986.48783234-.4118149.80719035-.4119385h2.82645084l-2.26032026-3.539c-.18346152-.2871392-.50033502-.46089576-.84070891-.461h-2.92750419c-.5514379 0-.99846664-.44771525-.99846664-1s.44702874-1.00001289.99846664-1.00001289h2.92750419c1.02174329-.00211241 1.97345811.51975731 2.52212673 1.38301289l2.94690244 4.617h4.555l3.1008148-9.316c.1358633-.40854275.5175977-.68400003.9475449-.68400003zm7.5214492 12.00000003h-19.94636811l.90860464 2.812c.27557638.7170436.96419329 1.1895541 1.73134117 1.188h14.5506543c.786924-.0235357 1.4814367-.5215073 1.7573013-1.26.1268053-.307.6240417-1.655.9984667-2.74zm-6.8055487-9.979-2.6572602 7.979h9.9350836c.0069893-.1.0109831-.205.0109831-.3 0-5.331-3.6454017-7.441-7.2888065-7.679z" fill="var(--db-icon-color, currentColor)" fill-rule="evenodd"/></svg>
