<svg id="icon" height="24" viewBox="0 0 24 24" width="24" xmlns="http://www.w3.org/2000/svg"><path d="m8.94 6a2 2 0 1 0 .002-3.999 2 2 0 0 0 -.002 3.999zm-.246 1.044.12.006c.037.003.07.003.106.011.106.024.21.059.307.118l.008.007c.017.01.029.026.045.037.085.06.156.13.217.21.01.014.025.02.035.034l2.545 3.696a1 1 0 0 1 -1.648 1.135l-1.08-1.569-.388 2.84 1.775 2.422a.991.991 0 0 1 .142.274l1.474 4.418a.998.998 0 0 1 -.948 1.317c-.42 0-.81-.265-.95-.684l-1.425-4.27-1.922-2.621a1.003 1.003 0 0 1 -.184-.727l.482-3.524-.69.486-.754 2.617a1 1 0 1 1 -1.922-.554l.852-2.955a.998.998 0 0 1 .385-.54l2.854-2.011.009-.006c.006-.005.014-.005.02-.009a1 1 0 0 1 .655-.152zm-2.87 9.775a.999.999 0 1 1 1.818.836l-1.732 3.763a1.001 1.001 0 0 1 -1.327.49.999.999 0 0 1 -.49-1.326zm8.25-3.717a1 1 0 0 0 -1.333 1.49l5.555 4.974a.999.999 0 1 0 1.335-1.49l-5.555-4.974h-.001zm6.927 6.897c-.517 0-1 .483-1 1s.483 1 1 1 1-.483 1-1-.483-1-1-1z" fill="#282D37" style="fill: currentColor;fill: var(--db-icon-color, currentColor)" fill-rule="evenodd"/></svg>
