<svg id="icon" height="32" viewBox="0 0 32 32" width="32" xmlns="http://www.w3.org/2000/svg"><path d="m27 2c1.6568542 0 3 1.34314575 3 3v22c0 1.6568542-1.3431458 3-3 3h-22c-1.65685425 0-3-1.3431458-3-3v-22c0-1.65685425 1.34314575-3 3-3zm0 2c-1.331114 0-8.6644473 0-22 0-.51283584 0-1 .45084998-1 1v22c0 .5128358.41609086.9998224 1 1 7.333269.0022307 14.6666024.0022307 22 0 .5128358 0 .9998211-.4118993 1-1 .0022307-7.333269.0022307-14.6666024 0-22 0-.51283584-.4563274-1-1-1zm-10.29 4.41c1.767302 0 3.1986654.34307536 3.793615.55352404.5949496.21044867.9066492.86335299.6962005 1.45830256-.1985294.5612533-.8007465.8698444-1.3722684.7031655-.326277-.0951415-1.5172966-.4549921-3.0375471-.4549921-1.12 0-2.01.2066667-2.67.62s-1.13 1.0166667-1.41 1.81-.42 1.7966667-.42 3.01c0 1.2533333.15 2.2633333.45 3.03s.7666667 1.3333333 1.4 1.7 1.47.55 2.51.55c.4133333 0 .7933333-.0266667 1.14-.08.1896351-.0291746.3926841-.0696746.6091472-.1215.1359651-.0315652.270832-.1524238.270832-.3410112.0021611-.8756713.0021611-1.7515009 0-2.6274888 0-.1183467-.0849177-.2491261-.25-.25-.3965797-.0020993-.7932395-.0020993-1.1899792 0-.5522847 0-1-.5366571-1-1.0889419 0-.5154657.42-1.0898553 1-1.0910581 1.0932849-.0022672 2.1866182-.0022672 3.28 0 .5128358 0 .999237.4086214 1 1 .0021923 1.6991223.0021923 3.3983398 0 5.0976526 0 .4332077-.2794151.78868-.6909294.9510235-.4115143.1623434-1.0224039.3679906-1.8090706.5213239s-1.6066667.23-2.46.23c-2.4933333 0-4.35-.6266667-5.57-1.88s-1.83-3.12-1.83-5.6c0-1.6666667.29333333-3.0733333.88-4.22.5866667-1.1466667 1.4466667-2.01333333 2.58-2.6s2.5-.88 4.1-.88z" fill="var(--db-icon-color, currentColor)" fill-rule="evenodd"/></svg>
