<svg id="icon" height="24" viewBox="0 0 24 24" width="24" xmlns="http://www.w3.org/2000/svg"><path d="m18.2901498 11.0435581c.526015.1660453.8178281.7270711.6517828 1.2530861l-.9103596 2.8857903c-.1761769.5592628-.5809698 1.0177493-1.1140913 1.2618696s-1.1446927.2510343-1.6831971.0190292l-2.8137453-1.2121123c-.4092689-.1771997-.9205393-.2487116-1.4205393-.2487116-2.1362663.0062168-4.27337991.0062168-6.41134082 0-.27385583-.0077511-.58701599.2487116-.58483896.5815505l-.00382022 5.4159401c-.00005786.5517153-.44828478.999785-1 1-.55170936-.000244-.99398502-.4533093-.99398502-1.0050187v-5.4109438c.00145712-1.424164 1.15549921-2.5783703 2.57966292-2.58003l6.4143221-.0040075c.7180836-.0010019 1.5522625.1313753 2.2112809.4165768.3436584.1555795.6998807.3135732 1.068667.4739811l1.1440503.4884662c.196957.0826181.397055.1658398.6002939.249665.0524107.0209354.0887562-.0079985.102412-.0475505.3156936-.9747261.6191468-1.9366586.9103596-2.8857978.1660453-.526015.7270711-.8178281 1.2530861-.6517827zm-6.2537004 5.9577677c.5516642 0 .9988764.4472122.9988764.9988764v2.9743296c-.0000371.5517095-.447167.999007-.9988764.999251-.5517076-.0002482-.9988351-.4475433-.9988764-.999251v-2.9743296c0-.5516642.4472122-.9988764.9988764-.9988764zm-3.18344828-12.74062335c1.30899308.54224365 2.16241328 1.81965897 2.16226478 3.23651852-.0022451 1.93328249-1.56881511 3.50001333-3.50209736 3.50245713-1.41685953.0002937-2.69436246-.8529953-3.23674049-2.16193271-.54237803-1.30893739-.24280338-2.81571239.7590162-3.81763482 1.00181957-1.00192243 2.50856381-1.30165177 3.81755687-.75940812zm9.64448948-2.26478485c.5516642 0 .9988764.4472122.9988764.99887641l-.0005635.93112359 1.4076122 2.4206442.9334008 1.46155056c.1962263.30759406.2092365.697677.0339415 1.01766219-.1752951.31998519-.5110346.51901525-.8758891.51923669h-5.0053558c-.3600723-.00023019-.6921808-.19414623-.8693569-.50761195s-.172022-.69800822.0134917-1.00661277l2.3641556-3.92986892.0008107-.90612359c0-.55166421.4472122-.99887641.9988764-.99887641zm-10.98432206 3.99659176c-.83077878 0-1.50427697.67344348-1.50434452 1.50422226-.00006755.83077877.67332112 1.50433174 1.50409988 1.5044669.83077877.00013509 1.50438651-.67319879 1.50458921-1.50397755-.00080073-.8305541-.67379069-1.50370825-1.50434457-1.50471161zm10.96456926.15655431-.7208988 1.19744569h1.4172958z" fill="var(--db-icon-color, currentColor)" fill-rule="evenodd"/></svg>
