<svg id="icon" height="20" viewBox="0 0 20 20" width="20" xmlns="http://www.w3.org/2000/svg"><path d="m7 14c1.1045695 0 2 .8954305 2 2s-.8954305 2-2 2-2-.8954305-2-2 .8954305-2 2-2zm6 0c1.1045695 0 2 .8954305 2 2s-.8954305 2-2 2-2-.8954305-2-2 .8954305-2 2-2zm-1.0421925-11.99c2.7054342.18014663 4.8120133 2.35251013 4.9652805 5.00265433.0105529.18425233.0117963.36773783.0034695.55297067 0 .04433639-.0028853.08799887-.0084784.13080991-.0085396.29934482-.0316768.60329185-.0974179.82464914-.0511111.15916667-.2327232.69120562-.4289451 1.2580356l-.148095.42636325c-.0490709.1407739-.0972442.2784396-.1427089.4077148l-.126458.3573712c-.076474.2144229-.1348709.3741533-.1607042.4369311-.3755029.9520688-1.2903626 1.5817453-2.31375 1.5925h-7.220625c-1.0415375-.00248-1.97131118-.6534214-2.33-1.63125l-.88183878-2.99141595c-.11917676-.30762252-.07896435-.65423002.10747776-.92639551s.49512117-.43486471.82502224-.43485449l1.15628184-.00022653-.52675-.79335752c-.09293416-.1392931-.24942583-.22281789-.416875-.22250431h-.224375c-.55228475 0-1-.44771094-1-1 0-.55228044.44771525-1 1-1h.224375c.83866015-.00109737 1.62176769.41922122 2.084375 1.11875431l1.25725 1.89710752h2.155l1.17411444-4.27710752c.1303415-.473957.5858145-.782905 1.074375-.72875zm2.570818 7.00422245-9.0286255.00076018.50469421 1.59638997c.06525584.2408099.24785876.4046272.45503179.4082197h7.1724931c.2109601-.0161044.3932358-.1862108.4618603-.4310253.0434546-.1337927.2396211-.84760704.4345461-1.57434455zm-1.963318-4.84609745-.7819894 2.84773252 3.1144785-.00039995c-.1979363-1.82235216-1.3788227-2.55398457-2.3324891-2.84733257z" fill="var(--db-icon-color, currentColor)" fill-rule="evenodd"/></svg>
