<svg id="icon" height="20" viewBox="0 0 20 20" width="20" xmlns="http://www.w3.org/2000/svg"><path d="m8.91977642 5c.862 0 1.49999998-.702 1.49999998-1.5 0-.83-.63799998-1.5-1.49999998-1.5-.798 0-1.5.67-1.5 1.5 0 .798.702 1.5 1.5 1.5zm-1.69 1.01575.104.00225c.059.001.116-.004.174.007.074.015.141.049.21.08.043.019.089.023.13.049l2.146 1.354c.46699998.295.60699998.912.31199998 1.379-.19.302-.51499998.467-.84699998.467-.183 0-.367-.05-.533-.154l-1.551-.979c-.658.664-.726 1.498-.72 1.861l2.162 3.331c.104.16.16.347.161.538l.022 3.042c.004.552-.441 1.003-.993 1.007-.556 0-1.003-.443-1.007-.993l-.02-2.749-.785-1.21-.212 1.136c-.008.045-.02.089-.034.133l-1 3c-.14.419-.53.684-.949.684-.104 0-.211-.017-.316-.052-.524-.174-.807-.741-.632-1.265l.979-2.935.635-3.396c-.04-.651-.004-2.851 2.072-4.169l.011-.007.04-.028c.01533333-.00966667.03144444-.01677778.04792592-.0227037l.10007408-.0322963c.063-.026.122-.057.189-.07zm3.77199998 9.98425c.5522848 0 1 .4477153 1 1s-.4477152 1-1 1c-.5522847 0-1-.4477153-1-1s.4477153-1 1-1zm4 0c.5522848 0 1 .4477153 1 1s-.4477152 1-1 1c-.5522847 0-1-.4477153-1-1s.4477153-1 1-1zm-2.106-6.447.724 1.447h1.382c.366 0 .704.201.879.523.175.323.159.715-.041 1.023l-1.871 2.871c-.192.294-.512.454-.839.454-.187 0-.377-.053-.545-.162-.463-.302-.593-.921-.292-1.384l.639-.981-.637-.637c-.004-.004-.005-.009-.009-.013-.071-.072-.132-.153-.179-.246l-1-2c-.247-.494-.047-1.095.447-1.342.496-.246 1.095-.047 1.342.447z" fill="var(--db-icon-color, currentColor)" fill-rule="evenodd"/></svg>
