<svg id="icon" height="20" viewBox="0 0 20 20" width="20" xmlns="http://www.w3.org/2000/svg"><path d="m15 3c1.6568542 0 3 1.34314575 3 3 0 .76830698-.2888179 1.46915694-.7638055 1.99990166.4746316.53007778.7638055 1.23131797.7638055 2.00009834 0 .7687804-.2891739 1.4700206-.7646837 2.0008825.4758658.5299606.7646837 1.2308105.7646837 1.9991175 0 1.5976809-1.2852941 3-3 3.026253l-10-.026253c-1.65685425 0-3-1.3431458-3-3 0-.768307.28881789-1.4691569.76380548-1.9999017-.47463157-.5300777-.76380548-1.2313179-.76380548-2.0000983 0-.76830698.28881789-1.46915694.76380548-1.99990166-.47463157-.53007778-.76380548-1.23131797-.76380548-2.00009834 0-1.59768088 1.27994166-3 3-3zm-10 10c-.55228475 0-1 .4477153-1 1 0 .5128358.41623487 1 1 1h10c.5522847 0 1-.4477153 1-1 0-.5128358-.4027096-1-1-1zm0-4c-.55228475 0-1 .44771525-1 1 0 .5128358.42717745 1 1 1h10c.5522847 0 1-.4477153 1-1 0-.51283584-.382062-.96816728-1-1zm0-4c-.55228475 0-1 .44771525-1 1 0 .51283584.42913733 1 1 1h10c.5522847 0 1-.44771525 1-1 0-.51283584-.416745-1-1-1z" fill="var(--db-icon-color, currentColor)" fill-rule="evenodd"/></svg>
