<svg id="icon" height="24" viewBox="0 0 24 24" width="24" xmlns="http://www.w3.org/2000/svg"><path d="m19.5 2c1.3254834 0 2.4913951 1.05156267 2.5 2.5v3c0 .56323916-.1862608 1.08297478-.5005469 1.50097133.2752644.36478425.5005469.87464188.5005469 1.49902867v3c0 .5632392-.1862608 1.0829748-.5005469 1.5009713.2752644.3647843.5005469.8739796.5005469 1.4990287v3c0 1.3254834-1.058239 2.5-2.5 2.5h-15.00000005c-1.32548335 0-2.49138421-1.0588484-2.5-2.5v-3c0-.5627827.18595909-1.0821324.49978311-1.4999549-.27433198-.3649365-.49978311-.9031651-.49978311-1.5000451v-3c0-.56278272.18595909-1.08213239.49978311-1.49995493-.27433198-.36493651-.49978311-.89167834-.49978311-1.50004507v-3c0-1.3254834 1.07075219-2.5 2.5-2.5zm0 14h-15c-.24545989 0-.5.1900351-.5.5v3c0 .2454599.20639229.5.5.5h15c.2454599 0 .5-.2091558.5-.5v-3c0-.2761424-.2238576-.5-.5-.5zm-13.5 1c.55228475 0 1 .4477153 1 1s-.44771525 1-1 1-1-.4477153-1-1 .44771525-1 1-1zm13.5-7h-15c-.24545989 0-.49194433.1933391-.5.5v3c0 .2454599.20849991.5.5.5h15c.2454599 0 .5-.2069395.5-.5v-3c0-.2761424-.2238576-.5-.5-.5zm-13.5 1c.55228475 0 1 .4477153 1 1s-.44771525 1-1 1-1-.4477153-1-1 .44771525-1 1-1zm13.5-7h-15c-.24545989 0-.49194433.19629622-.5.5v3c0 .24545989.21810532.5.5.5h15c.2454599 0 .5-.20350194.5-.5v-3c0-.27614237-.2238576-.5-.5-.5zm-13.5 1c.55228475 0 1 .44771525 1 1s-.44771525 1-1 1-1-.44771525-1-1 .44771525-1 1-1z" fill="var(--db-icon-color, currentColor)" fill-rule="evenodd"/></svg>
