<svg id="icon" height="32" viewBox="0 0 32 32" width="32" xmlns="http://www.w3.org/2000/svg"><path d="m27 3c1.5976809 0 2.9914372 1.27682805 3 3v4c0 .7687804-.2891739 1.4700206-.7646837 2.0008825.4282792.4769645.7646837 1.1581832.7646837 1.9991175v4c0 .7687804-.2891739 1.4700206-.7646837 2.0008825.4282792.4769645.7914562 1.2157682.7646837 1.9991175v4c0 1.5976809-1.2858429 3-3 3h-22c-1.59768088 0-3-1.2935047-3-3v-4c0-.768307.28881789-1.4691569.76380548-1.9999017-.42716841-.47707-.76380548-1.1774691-.76380548-2.0000983v-4c0-.768307.28881789-1.4691569.76380548-1.9999017-.42716841-.47707-.76380548-1.1815487-.76380548-2.0000983v-4c0-1.59768088 1.2798605-3 3-3zm-22 18c-.51283584 0-.99327227.403041-1 1v4c0 .5128358.41190338 1 1 1h22c.5128358 0 1-.4261568 1-1v-4c0-.5128358-.4151125-1-1-1zm2 2c.55228475 0 1 .4477153 1 1s-.44771525 1-1 1-1-.4477153-1-1 .44771525-1 1-1zm18 0c.5522847 0 1 .4477153 1 1 0 .5128358-.4489739 1-1 1h-4c-.5522847 0-1-.4477153-1-1 0-.5128358.4238554-1 1-1zm-20-10c-.51283584 0-.99327227.4042112-.99327227 1l-.00672773 4c0 .5128358.43238258 1 1 1h22c.5128358 0 1-.4295189 1-1v-4c0-.5128358-.393481-1-1-1zm2 2c.55228475 0 1 .4477153 1 1s-.44771525 1-1 1-1-.4477153-1-1 .44771525-1 1-1zm18 0c.5522847 0 1 .4477153 1 1 0 .5128358-.4060275 1-1 1h-4c-.5522847 0-1-.4477153-1-1 0-.5128358.4240815-1 1-1zm-20-10c-.51283584 0-.99327227.42063856-1 1v4c0 .5128358.4371891 1 1 1h22c.5128358 0 1-.435204 1-.9741338v-4.0258662c0-.51283584-.4151535-1-1-1zm2 2c.55228475 0 1 .44771525 1 1s-.44771525 1-1 1-1-.44771525-1-1 .44771525-1 1-1zm18 0c.5522847 0 1 .44771525 1 1 0 .51283584-.3860402.93550716-.8833789.99327227l-4.1166211.00672773c-.5522847 0-1-.44771525-1-1 0-.51283584.4149006-1 1-1z" fill="var(--db-icon-color, currentColor)" fill-rule="evenodd"/></svg>
