<svg id="icon" height="64" viewBox="0 0 64 64" width="64" xmlns="http://www.w3.org/2000/svg"><g fill="none" fill-rule="evenodd" transform="translate(8.001 7.999)"><path d="m12.778 11.111a1 1 0 0 1 1-1h20.441a1 1 0 1 1 0 2h-20.441a1 1 0 0 1 -1-1zm1 6.11h20.441a1 1 0 1 0 0-2h-20.441a1 1 0 1 0 0 2zm0 5.11h20.441a1 1 0 1 0 0-2h-20.441a1 1 0 1 0 0 2zm34.221-4.834v26.941a3.566 3.566 0 0 1 -3.562 3.562h-40.875a3.566 3.566 0 0 1 -3.562-3.562v-26.899c-.001-1.158.575-1.727.92-2.065.417-.417 4.835-3.901 6.747-5.405v-6.507a3.566 3.566 0 0 1 3.562-3.562h25.539a3.566 3.566 0 0 1 3.562 3.562v6.466c1.912 1.503 6.327 4.983 6.689 5.345.438.438.98.98.98 2.124zm-2 26.941v-25.366l-5.963 5.643-7.554 7.149 13.475 12.919c.025-.111.041-.226.041-.345zm-43.957.345 13.473-12.918-7.553-7.148-.003-.003-5.96-5.641v25.365c.001.119.017.234.043.345zm1.62 1.217h40.675l-19.625-18.813c-.4-.4-1.042-.385-1.412-.015zm36.667-33.426v9.111l5.223-4.943c-.441-.385-2.979-2.399-5.223-4.168zm-30.662-9.012v20.015l7.293 6.903 4.94-4.737c1.094-1.096 3.084-1.11 4.21.015l4.925 4.721 7.293-6.902v-20.014c0-.861-.701-1.562-1.562-1.562h-25.539c-.861 0-1.562.7-1.562 1.562zm-2 9.053c-2.196 1.733-4.677 3.701-5.198 4.149l5.198 4.92z" fill="var(--db-icon-color, currentColor)" fill-rule="nonzero"/><path d="m34.219 7.001h-20.441a1 1 0 1 1 0-2h20.441a1 1 0 1 1 0 2z" fill="var(--db-icon-pulse-color, #EC0016)"/></g></svg>
