<svg id="icon" height="20" viewBox="0 0 20 20" width="20" xmlns="http://www.w3.org/2000/svg"><path d="m4.5 14a1.5 1.5 0 1 1 0 3 1.5 1.5 0 0 1 0-3zm7 0a1.5 1.5 0 1 1 0 3 1.5 1.5 0 0 1 0-3zm-3 .65c.47 0 .85.38.85.85 0 .433-.326.85-.85.85h-1a.85.85 0 0 1 0-1.7zm5.537-11.5a2.85 2.85 0 0 1 2.795 2.294l1.016 7.5c0 .387-.156.66-.468.816l-2 1a.85.85 0 0 1 -1.14-.38.841.841 0 0 1 .38-1.14l1.456-.729-.9-6.665c-.071-.53-.556-.99-1.018-.99-.624 0-.993-.387-.993-.856 0-.433.341-.85.872-.85zm-1.037 4.85c.47 0 .85.38.85.85 0 .433-.285.85-.85.85v1.8c-.016 1.043-.38 1.489-1.454 1.5h-7.021c-.745-.008-1.525-.293-1.525-1.5v-1.8c-.523 0-.85-.38-.85-.85 0-.433.34-.85.85-.85z" fill="var(--db-icon-color, currentColor)" fill-rule="evenodd"/></svg>
