<svg id="icon" height="32" viewBox="0 0 32 32" width="32" xmlns="http://www.w3.org/2000/svg"><path d="m4 21c0-.563.438-1 1-1 .563 0 1 .437 1 1v6c0 .562.438 1 1 1h18c.562 0 1-.438 1-1v-6c0-.563.437-1 1-1 .562 0 1 .437 1 1v6a3 3 0 0 1 -3 3h-18a3 3 0 0 1 -3-3zm5.281-5.313a.97.97 0 0 1 -.28-.687c0-.5.343-1 1-1 .25 0 .5.094.718.281l4.281 4.312v-15.593c0-.563.438-1 1-1 .563 0 1 .438 1 1v15.593l4.281-4.312a1.1 1.1 0 0 1 .719-.281c.594 0 1 .437 1 1 0 .25-.094.5-.281.719l-6 6a1.1 1.1 0 0 1 -.719.28.97.97 0 0 1 -.688-.28l-6.03-6.032z" fill="#282D37" style="fill: currentColor;fill: var(--db-icon-color, currentColor)" fill-rule="evenodd"/></svg>