<svg id="icon" height="32" viewBox="0 0 32 32" width="32" xmlns="http://www.w3.org/2000/svg"><path d="m12 2a9.99 9.99 0 0 1 10 10 9.912 9.912 0 0 1 -2.25 6.313l9.969 9.968c.187.188.281.469.281.719 0 .594-.438 1-1 1-.25 0-.5-.063-.719-.281l-9.968-9.969a9.912 9.912 0 0 1 -6.313 2.25 9.99 9.99 0 0 1 -10-10 9.99 9.99 0 0 1 10-10zm0 2c-4.406 0-8 3.594-8 8s3.594 8 8 8 8-3.594 8-8-3.594-8-8-8z" fill="#282D37" style="fill: currentColor;fill: var(--db-icon-color, currentColor)" fill-rule="evenodd"/></svg>