<svg id="icon" height="64" viewBox="0 0 64 64" width="64" xmlns="http://www.w3.org/2000/svg"><g fill="none" fill-rule="evenodd" transform="translate(8 10)"><path d="m44.5 0a3.5 3.5 0 0 1 3.495 3.308l.005.192v37a3.5 3.5 0 0 1 -3.308 3.495l-.192.005h-39.638a4.862 4.862 0 0 1 -4.862-4.862v-26.138a1 1 0 0 1 1.993-.117l.007.117v26.138a2.862 2.862 0 0 0 2.655 2.855l.483.007a2.862 2.862 0 0 0 2.857-2.693l.007-35.804a3.5 3.5 0 0 1 3.288-3.496l.212-.007zm0 2h-32.998a1.5 1.5 0 0 0 -1.493 1.354l-.007.148-.002 35.638a4.84 4.84 0 0 1 -.845 2.739l-.087.121h35.432a1.5 1.5 0 0 0 1.493-1.356l.007-.144v-37a1.5 1.5 0 0 0 -1.356-1.493zm-3.5 34a1 1 0 0 1 .116 1.993l-.116.007h-26a1 1 0 0 1 -.117-1.993l.117-.007zm-16-23a2 2 0 0 1 1.994 1.85l.006.15v14a2 2 0 0 1 -1.851 1.995l-.15.005h-9a2 2 0 0 1 -1.994-1.85l-.005-.15v-14a2 2 0 0 1 1.85-1.995l.15-.005zm16 15a1 1 0 0 1 .116 1.994l-.116.006h-9a1 1 0 0 1 -.117-1.993l.117-.007zm-16-13h-9v14h9zm15.891 6a1 1 0 0 1 .117 1.993l-.117.007h-8.891a1 1 0 0 1 -.117-1.993l.117-.007zm.109-7a1 1 0 0 1 .116 1.993l-.116.007h-9a1 1 0 0 1 -.117-1.993l.117-.007z" fill="var(--db-icon-color, currentColor)" fill-rule="nonzero"/><path d="m41.37 5.988a1 1 0 0 1 .116 1.994l-.116.006h-26.37a1 1 0 0 1 -.117-1.993l.117-.007z" fill="var(--db-icon-pulse-color, #EC0016)"/></g></svg>
