<svg id="icon" height="64" viewBox="0 0 64 64" width="64" xmlns="http://www.w3.org/2000/svg"><g fill="none" fill-rule="evenodd" transform="translate(5 10)"><path d="m52.9 31.1h-.9v-4c0-.1 0-.2-.1-.3-.1-.2-3-5.1-3-5.1-.2-.3-.5-.5-.9-.5h-3v-3.7c.6-.5.9-1.2.9-2.3 0-2.2-1.6-3.8-3.8-4.1.1-.1.2-.3.2-.5 0-.5-.4-.9-.9-.9s-.9.4-.9.9c0 .2.1.4.2.5-2.3.3-3.8 1.9-3.8 4.1 0 1.1.4 1.8.9 2.3v3.7h-3v-3.7c.6-.5.9-1.2.9-2.3 0-2.2-1.6-3.8-3.8-4.1.1-.1.2-.3.2-.5 0-.5-.4-.9-.9-.9s-.9.4-.9.9c0 .2.1.4.2.5-1.9.3-3.5 1.9-3.5 4.1 0 1.1.4 1.8.9 2.3v13.6h-.9c-.6 0-1 .4-1 1s.4 1 1 1h26c.6 0 1-.4 1-1s-.4-1-1.1-1zm-11.3-18c1.2 0 2.5.7 2.5 2.1 0 .6 0 1.3-2.5 1.3s-2.5-.6-2.5-1.3c0-1.5 1.2-2.1 2.5-2.1zm1.5 5.3v2.8h-3.1v-2.8c.6.1 1.2.1 1.6.1s.9 0 1.5-.1zm-7.7 4.8h12.1l1.7 2.8h-15.5zm-6.4-8c0-1.5 1.3-2.1 2.5-2.1s2.5.7 2.5 2.1c0 .6 0 1.3-2.5 1.3s-2.5-.7-2.5-1.3zm.9 15.9v-12.7c.6.1 1.2.1 1.6.1s.9 0 1.6-.1v4.9l-2.1 3.6c-.1.1-.1.2-.1.3v3.9zm6.7-31.1c1.9 0 3.5 1.4 3.5 3.3v3.7c0 .6-.4 1-1 1s-1-.4-1-1v-3.5c0-.8-.6-1.5-1.4-1.5h-33.3c-.8 0-1.4.7-1.4 1.5v37.1c0 .9.7 1.4 1.5 1.4h33c.8 0 1.5-.5 1.5-1.4v-3.6c0-.6.4-1 1-1 .5 0 1 .4 1 1v3.5c0 1.9-1.5 3.5-3.3 3.5h-33.4c-1.8 0-3.3-1.6-3.3-3.5v-37.2c0-1.9 1.7-3.3 3.6-3.3zm-3.2 36c.6 0 1 .4 1 1 0 .5-.4 1-.9 1h-26.5c-.6 0-1-.4-1-1 0-.5.4-1 .9-1zm-14.4-4.9c.6 0 1 .4 1 1 0 .5-.4 1-.9 1h-12.1c-.6 0-1-.4-1-1 0-.5.4-1 .9-1zm30.9-3v3h-17v-3zm-34.4-18.1c5.3 0 9.5 4.2 9.5 9.5 0 5.2-4.2 9.5-9.5 9.5s-9.5-4.2-9.5-9.5 4.2-9.5 9.5-9.5zm.18 3.589-.28.011c-1.1 0-2 .3-2.8.9-.9.6-1.4 1.6-1.4 2.7 0 2.1 1.5 2.8 3 3.3.3.1 1.5.4 1.8.5.8.3 1.7.6 1.7 1.6 0 .7-.9 1.4-1.9 1.4-1.9-.2-3.5-1.1-4.5-2.7v2.3c1.3 1.1 2.8 1.7 4.4 1.7 1.3 0 2.4-.4 3.4-1.3.7-.7 1.2-1.7 1.3-2.6 0-1.95-1.207-2.607-2.42-3.09l-.28-.11c-1.2-.3-4-1-4-2.1 0-.7.6-1.3 1.6-1.3 1.7.2 3.2.9 4.3 2.2v-1.9c-1.2-1.1-2.6-1.6-4.2-1.5z" fill="var(--db-icon-color, currentColor)" fill-rule="nonzero"/><path d="m34.4 7c0-.6-.4-1-1-1h-26.5c-.5 0-.9.5-.9 1 0 .6.4 1 1 1h26.5c.5 0 .9-.5.9-1z" fill="var(--db-icon-pulse-color, #EC0016)"/></g></svg>
