<svg id="icon" height="32" viewBox="0 0 32 32" width="32" xmlns="http://www.w3.org/2000/svg"><path d="m12.938 8c.656-.012 1 .5 1 1s-.344 1-1 1c-4.97 0-9 4.031-9 9 0 5.969 4.624 8.938 9 8.938 4.374 0 8.843-3 9-8.938.017-.659.5-1 1-1s1 .344 1 1c0 6.063-4.938 11-11 11-7.283 0-10.938-5.656-10.938-11s3.969-10.875 10.938-11zm-2.876 6c.25 0 .556.13.75.406l2.832 4.016c.169.24.254.434.315.72l.604 2.827c.122.572-.344 1.218-.97 1.218a.983.983 0 0 1 -.968-.78l-.656-2.938-2.781-3.875a.941.941 0 0 1 -.188-.594c0-.531.531-1 1.063-1zm12.938-12c3.875 0 7 3.125 7 7s-3.125 7-7 7-7-3.125-7-7 3.125-7 7-7zm0 2c-2.75 0-5 2.25-5 5s2.25 5 5 5 5-2.25 5-5-2.25-5-5-5zm-.781 2.156c.25 0 .5.094.687.282l1.938 1.937c.187.188.312.438.312.688a.896.896 0 0 1 -.312.687l-1.938 1.969c-.187.156-.437.281-.687.281a.971.971 0 0 1 -.969-1c0-.25.094-.5.281-.688l1.25-1.25-1.25-1.25a.97.97 0 0 1 -.281-.687c0-.541.438-.969.969-.969z" fill="var(--db-icon-color, currentColor)" fill-rule="evenodd"/></svg>
