<svg id="icon" height="24" viewBox="0 0 24 24" width="24" xmlns="http://www.w3.org/2000/svg"><path d="m9 2c.188 0 .406.094.531.156l5.469 2.75 5.188-2.593c.337-.17.687-.282.968-.282.5 0 .844.438.844.875v14.064c0 .375-.125.718-.531.906l-5.969 3a.927.927 0 0 1 -.469.125c-.25 0-.375-.063-.469-.125l-5.53-2.781-5.282 2.655c-.25.094-.594.25-.875.25-.438 0-.875-.313-.875-.906v-14.064c0-.343.15-.699.438-.843l6.03-3.032c.09-.043.314-.155.532-.155zm-.969 2.625-4.031 2.031v11.719l4.031-2.031zm2 0v11.719l3.969 2.031v-11.719zm9.969 0-4 2.031v11.719l4-2.031z" fill="#282D37" style="fill: currentColor;fill: var(--db-icon-color, currentColor)" fill-rule="evenodd"/></svg>
