<svg id="icon" height="64" viewBox="0 0 64 64" width="64" xmlns="http://www.w3.org/2000/svg"><g fill="none" fill-rule="evenodd" transform="translate(11.007 14)"><path d="m14.102 33.448-2.454-4.921-.178-.314c-.655-1.123-1.248-1.825-2.026-2.377a5.947 5.947 0 0 0 -2.153-.987l-.322 1.554a5.001 5.001 0 0 1 -1.969 9.598 5 5 0 0 1 -.217-9.996l.226-.004 4.621-22.323c.1-.488-.185-1.045-.737-1.173-.712-.18-1.425-.358-2.138-.534a1 1 0 1 1 .484-1.941c.713.176 1.426.354 2.138.534 1.503.376 2.579 1.846 2.21 3.518a36027.87000000001 36027.87000000001 0 0 1 -3.89 18.807 7.934 7.934 0 0 1 2.904 1.314c1.036.735 1.81 1.65 2.597 3.002l.292.52 2.126 4.275h11.784a15 15 0 0 0 3.39-.388l1.215-.317a5 5 0 1 1 .515 1.934l-.74.197a17 17 0 0 1 -3.826.565l-.554.009h-12.4a1 1 0 0 1 -.898-.553zm-9.512-5.42a3 3 0 1 0 1.959.403l-.573 2.772a1 1 0 0 1 -1.182.777c-.502-.104-.883-.558-.777-1.182.19-.923.38-1.847.573-2.77zm32.407-.027a3 3 0 0 0 -2.991 2.762l2.733-.728a1 1 0 0 1 1.224.708c.132.496-.157 1.114-.709 1.224-.91.245-1.822.488-2.733.729a3 3 0 1 0 2.476-4.696z" fill="#282D37" style="fill: currentColor;fill: var(--db-icon-color, currentColor)" fill-rule="nonzero" transform="matrix(-1 0 0 1 41.997 0)"/><path d="m13.811 22.536a1 1 0 0 1 -.855 1.126l-3.37.461c-3.103.426-5.383 2.758-5.87 5.384a1 1 0 1 1 -1.966-.365c.64-3.447 3.577-6.453 7.563-7l3.372-.461a1 1 0 0 1 1.126.855z" fill="#EC0016" style="fill:#EC0016;fill: var(--db-icon-pulse-color, #EC0016)" transform="matrix(-1 0 0 1 15.553 0)"/></g></svg>
