<svg id="icon" height="64" viewBox="0 0 64 64" width="64" xmlns="http://www.w3.org/2000/svg"><g fill="none" fill-rule="evenodd" transform="translate(6 10)"><path d="m38 10a2 2 0 0 1 1.99 2.204l-.513 5a2 2 0 0 1 -1.99 1.796h-1.95a2 2 0 0 1 -1.99-1.787l-.535-5a2 2 0 0 1 1.988-2.213zm0 2h-3l.537 5h1.95z" fill="var(--db-icon-pulse-color, #EC0016)"/><path d="m13.081 0c.364-.014.708.17.897.483 2.884 4.779 3.294 7.906.435 8.878-1.623.55-3.318 1.127-3.436 1.167l3.93 12.472h14.439c3.426 0 5.654 1.148 5.654 4.714 0 3.87-2.069 6.414-5.736 7.26a.999.999 0 1 1 -.449-1.948c2.768-.64 4.185-2.382 4.185-5.312 0-2.102-1.188-2.714-3.654-2.714h-15.138c-.458 0-.845-.31-.963-.73.001-.012-1.489-4.703-4.471-14.073a.999.999 0 0 1 .632-1.247l1.409-.48.231-.078 2.724-.925c.97-.33.803-1.988-1.184-5.41l-.021-.034-10.565.43v17.193c.245.817 1.556 5.13 2.914 9.638l.263.875.263.874c1.31 4.36 2.54 8.505 2.77 9.447.412 1.533 1.733 2.466 3.054 2.52h16.736v-5.877c0-.512.448-1 1-1a1 1 0 0 1 1 1v6.877a1 1 0 0 1 -1 1h-3.12l-14.656-.001c-2.182-.087-4.091-1.511-4.853-3.666-.21-.909-1.58-5.52-2.994-10.219l-.235-.783c-1.533-5.091-3.043-10.051-3.107-10.288a1 1 0 0 1 -.035-.261v-18.288a1 1 0 0 1 .959-1zm38.92 17a1 1 0 0 1 0 2h-10.001v22.512a1 1 0 1 1 -2 0v-22.512h-10a1 1 0 0 1 0-2z" fill="var(--db-icon-color, currentColor)" fill-rule="nonzero"/></g></svg>
