<svg id="icon" height="24" viewBox="0 0 24 24" width="24" xmlns="http://www.w3.org/2000/svg"><path d="m19 2c.5522847 0 1 .44771525 1 1v18c0 .5522847-.4477153 1-1 1h-12c-.55228475 0-1-.4477153-1-1v-4h-1c-.55228475 0-1-.4477153-1-1s.44771525-1 1-1h1v-6h-1c-.55228475 0-1-.44771525-1-1s.44771525-1 1-1h1v-4c0-.51283584.38604019-.93550716.88337887-.99327227l.11662113-.00672773zm-1 2h-10v16h10zm-3 9c.5522847 0 1 .4477153 1 1s-.4477153 1-1 1h-4c-.5522847 0-1-.4477153-1-1s.4477153-1 1-1zm0-4c.5522847 0 1 .44771525 1 1 0 .5522847-.4477153 1-1 1h-4c-.5522847 0-1-.4477153-1-1 0-.55228475.4477153-1 1-1z" fill="var(--db-icon-color, currentColor)" fill-rule="evenodd"/></svg>
