<svg id="icon" height="20" viewBox="0 0 20 20" width="20" xmlns="http://www.w3.org/2000/svg"><path d="m5.132 2c-.625 0-1.132.477-1.132 1.065v13.9402278c.0104726.6178835.50117292.9948274 1.00645807.9948274.36223682 0 .44354193-.0330552.62054193-.1340552l4.373-2.158 4.373 2.158c.177.101.4561568.1340552.6246511.1340552.724498-.0144773.9920817-.3890639 1.0023489-.9948274v-13.9402278c0-.588-.507-1.065-1.132-1.065zm8.868 13.452-3.115-1.537c-.279-.138-.582-.207-.885-.207s-.606.069-.885.207l-3.115 1.537v-11.452h8z" fill="var(--db-icon-color, currentColor)" fill-rule="evenodd"/></svg>
