<svg id="icon" height="64" viewBox="0 0 64 64" width="64" xmlns="http://www.w3.org/2000/svg"><g fill="none" fill-rule="evenodd" transform="translate(11 10.1)"><path d="m41 41.9a1 1 0 0 1 .117 1.993l-.117.007h-40a1 1 0 0 1 -.117-1.993l.117-.007zm-34-26.98 29.335.001a5.905 5.905 0 0 1 5.665 5.9c0 3.092-2.382 5.647-5.478 5.887l-.228.013h-1.234v4.179a9 9 0 0 1 -8.735 8.996l-.265.004h-12.06a9 9 0 0 1 -8.995-8.69l-.005-.31v-13.98a2 2 0 0 1 1.851-1.994l.15-.005zm26.06 2h-26.06v13.98a7 7 0 0 0 6.691 6.993l.31.007h12.058a7 7 0 0 0 6.996-6.76l.004-.24v-13.98zm1.999 7.801 1.195.001a3.905 3.905 0 0 0 3.746-3.901c0-2.027-1.548-3.705-3.508-3.888l-.197-.013h-1.236zm-10.544-21.867c1.11 1.117 1 3.108.267 4.612l-.095.186c-.5.934-.583 1.892-.245 2.357l.073.086a1 1 0 1 1 -1.419 1.41c-1.183-1.192-1.073-3.116-.172-4.798.448-.836.547-2.067.172-2.443a1 1 0 1 1 1.419-1.41zm-6.52-2.559c1.377 1.387 1.224 3.954.276 5.874l-.104.203c-.752 1.403-.867 2.874-.263 3.621l.09.102a1 1 0 1 1 -1.418 1.41c-1.416-1.426-1.335-3.755-.288-5.854l.116-.224c.64-1.195.803-2.909.255-3.627l-.083-.095a1 1 0 0 1 1.419-1.41z" fill="#282D37" style="fill: currentColor;fill: var(--db-icon-color, currentColor)" fill-rule="nonzero"/><path d="m30 19.9a1 1 0 0 1 .117 1.993l-.117.007h-20a1 1 0 0 1 -.117-1.993l.117-.007z" fill="#EC0016" style="fill:#EC0016;fill: var(--db-icon-pulse-color, #EC0016)"/></g></svg>
