<svg id="icon" height="20" viewBox="0 0 20 20" width="20" xmlns="http://www.w3.org/2000/svg"><path d="m9.006 6.072c.507 0 .926.341.983.818l.007.112h1.458c.546 0 .99.444.99.99a.992.992 0 0 1 -.874.983l-.116.007h-1.458v2.018h2.226c.56 0 .9.182 1.024.686l.027.132.788 5.03c.006.04 0 .102 0 .162 0 .546-.445.99-.99.99a.988.988 0 0 1 -.948-.743l-.022-.106-.667-4.172h-2.428c-.6 0-.94-.296-.985-.856l-.005-.134v-4.927c0-.545.445-.99.99-.99zm6.489.93c1.414 0 2.545 1.232 2.545 2.707v7.301c0 .546-.444.99-.99.99a.992.992 0 0 1 -.99-.99v-7.28c0-.424-.262-.747-.565-.747h-.505a.992.992 0 0 1 -.99-.99c0-.546.444-.99.99-.99zm-12.497-5.002c.538 0 1.002.464 1.002 1.008v2.58l2.11 9.134c.033.143.16.282.319.282h2.573c.54 0 .998.464.998 1.008 0 .524-.479.988-.998.988h-2.632a2.242 2.242 0 0 1 -2.175-1.734l-2.155-9.254a1.387 1.387 0 0 1 -.04-.302v-2.702c0-.544.439-1.008.998-1.008zm7.002 0c.81 0 1.5.669 1.5 1.5s-.69 1.5-1.5 1.5-1.5-.669-1.5-1.5.69-1.5 1.5-1.5z" fill="#282D37" style="fill: currentColor;fill: var(--db-icon-color, currentColor)" fill-rule="evenodd"/></svg>
