<svg id="icon" height="64" viewBox="0 0 64 64" width="64" xmlns="http://www.w3.org/2000/svg"><g fill="none" fill-rule="evenodd" transform="translate(5 9)"><path d="m49 16.006h-8a1 1 0 1 1 0-2h8a1 1 0 1 1 0 2zm1-7a1 1 0 0 0 -1-1h-8a1 1 0 1 0 0 2h8a1 1 0 0 0 1-1zm-6.1 16.964a1 1 0 1 0 -2 0 1 1 0 0 0 2 0zm4.4 0a1 1 0 1 0 -2 0 1 1 0 0 0 2 0z" fill="var(--db-icon-pulse-color, #EC0016)"/><path d="m51 42h-12c-1.654 0-3-1.346-3-3v-36c0-1.654 1.346-3 3-3h12c1.654 0 3 1.346 3 3v36c0 1.654-1.346 3-3 3zm-12-40c-.551 0-1 .448-1 1v36c0 .552.449 1 1 1h12c.551 0 1-.448 1-1v-36c0-.552-.449-1-1-1zm-33.724 24.75a1 1 0 1 0 0 2h27.724a1 1 0 1 0 0-2zm28.724 13.125h-6.293l-.653-5.875h5.945a1 1 0 1 0 0-2h-27.999c-1.654 0-3-1.346-3-3v-20c0-1.654 1.346-3 3-3h29a1 1 0 1 0 0-2h-29c-2.757 0-5 2.243-5 5v20c0 2.757 2.243 5 5 5h11.945l-.653 5.875h-7.418a1 1 0 1 0 0 2h25.125a1 1 0 1 0 0-2zm-15.043-5.875h6.085l.653 5.875h-7.391z" fill="var(--db-icon-color, currentColor)" fill-rule="nonzero"/></g></svg>
