<svg id="icon" height="64" viewBox="0 0 64 64" width="64" xmlns="http://www.w3.org/2000/svg"><g fill="none" fill-rule="evenodd" transform="translate(9 15)"><path d="m36.667 0c5.523 0 10 4.477 10 10s-4.477 10-10 10h-26.667c-5.523 0-10-4.477-10-10s4.477-10 10-10zm-26.667 2a8 8 0 0 0 -8 8c0 4.335 3.308 7.853 8 7.996l26.667.004a8 8 0 0 0 8-8c0-4.335-3.33-7.857-8-8zm-5.425 28.241v-3.511a1 1 0 0 1 1-1h.133a1 1 0 0 1 1 1v3.498c0 .439.11 1.357 1.202 1.357s1.147-.82 1.147-1.25v-3.691a.913.913 0 0 1 1.826 0v3.593c0 .726-.135 1.302-.405 1.729-.501.79-1.42 1.186-2.754 1.186-1.39 0-2.32-.403-2.793-1.21-.237-.401-.356-.967-.356-1.7zm7.168 1.94v-.371a.5.5 0 0 1 .65-.479c.571.178 1.012.268 1.322.268.778 0 1.167-.212 1.167-.635 0-.208-.09-.366-.346-.498-.258-.132-1.472-.524-1.783-.723-.27-.161-.374-.247-.517-.4-.345-.365-.518-.855-.518-1.47 0-.72.228-1.28.684-1.68.478-.423 1.181-.634 2.11-.634.374 0 .813.059 1.317.178a.75.75 0 0 1 .577.731v.366a.5.5 0 0 1 -.63.483c-.495-.137-.866-.206-1.113-.206-.742 0-1.016.256-1.016.552 0 .615.992.72 1.582.977.566.229.89.389 1.138.63.355.348.532.852.532 1.513 0 .755-.228 1.333-.684 1.734-.478.423-1.251.634-2.319.634-.5 0-1.04-.085-1.618-.256a.749.749 0 0 1 -.535-.715zm9.052.819h-2.204a.75.75 0 0 1 -.75-.75v-5.77a.75.75 0 0 1 .75-.75h2.302c1.71 0 2.564.631 2.564 1.894 0 1.127-.762 1.392-1.202 1.548.31.062 1.602.268 1.602 1.758 0 1.035-.571 1.488-1.08 1.72-.507.234-1.168.35-1.982.35zm-.922-3.184v1.68h.913c.348 0 .996-.035.996-.879 0-.762-.598-.8-.933-.8h-.976zm0-2.578v1.353h.864c.478 0 .718-.223.718-.67 0-.455-.232-.683-.694-.683zm6.596 5.323v-.276a.5.5 0 0 1 .443-.498 10.956 10.956 0 0 0 1.632-.296c.372-.117 1.04-.312 1.04-1.07 0-.605-.483-.64-.869-.649-.1-.002-.26.01-.479.037a.569.569 0 0 1 -.639-.564c0-.371.26-.692.624-.767.36-.074.633-.158.819-.25.231-.116.344-.322.344-.6 0-.468-.384-.59-.869-.59-.225 0-.589.084-1.09.251a.5.5 0 0 1 -.658-.472v-.24a.75.75 0 0 1 .514-.712 5.654 5.654 0 0 1 1.771-.297c1.816 0 2.368.74 2.368 1.68 0 1.17-.971 1.449-1.362 1.611.521.097 1.621.153 1.621 1.573 0 .927-.393 1.607-1.179 2.038-.463.254-1.564.496-3.305.727a.642.642 0 0 1 -.726-.636zm7.041-1.456c.822.016 1.02.788 1.02 1.021s-.103 1.02-1.015 1.02-1.025-.817-1.025-1.035c0-.278.198-1.02 1.02-1.006zm1.817-1.25v-.981c0-.967.236-1.73.708-2.29.573-.677 1.393-1.016 2.46-1.016 1.003 0 1.783.29 2.34.87.556.579.834 1.391.834 2.436v.981c0 .964-.236 1.727-.708 2.29-.572.674-1.394 1.011-2.465 1.011-1.425 0-2.254-.674-2.62-1.213s-.55-1.235-.55-2.088zm4.155.25v-1.48c0-.55 0-1.587-.986-1.587-.778 0-.982.669-.982 1.587v1.48c0 .55-.005 1.582.982 1.582.986 0 .986-1.036.986-1.583z" fill="var(--db-icon-color, currentColor)" fill-rule="nonzero"/><path d="m35 9a1 1 0 0 1 1 1c0 .513-.438 1-1 1h-24a1 1 0 0 1 0-2z" fill="var(--db-icon-pulse-color, #EC0016)"/></g></svg>
