<svg id="icon" height="64" viewBox="0 0 64 64" width="64" xmlns="http://www.w3.org/2000/svg"><g fill="none" fill-rule="evenodd" transform="translate(5 12)"><path d="m8.575 36.241v-3.511a1 1 0 0 1 1-1h.133a1 1 0 0 1 1 1v3.498c0 .439.067.756.2.952.19.27.523.405 1.002.405.397 0 .687-.1.871-.303.184-.202.276-.517.276-.947v-3.691a.913.913 0 0 1 1.826 0v3.593c0 .726-.135 1.302-.405 1.729-.501.79-1.42 1.186-2.754 1.186-1.39 0-2.32-.403-2.793-1.21-.237-.401-.356-.967-.356-1.7zm7.168 1.933v-.364a.5.5 0 0 1 .65-.479c.571.178 1.012.268 1.322.268.778 0 1.167-.212 1.167-.635 0-.208-.14-.398-.346-.498-.207-.1-.633-.25-.972-.371a5.318 5.318 0 0 1 -.81-.352 2.15 2.15 0 0 1 -.518-.4c-.345-.365-.518-.855-.518-1.47 0-.72.228-1.28.684-1.68.478-.423 1.181-.634 2.11-.634.37 0 .808.059 1.313.178.34.078.581.382.58.731v.366a.5.5 0 0 1 -.63.483c-.494-.137-.865-.206-1.112-.206-.855 0-1.016.27-1.016.552 0 .349.302.481.455.556l1.127.42c.511.18.89.39 1.138.63.355.349.532.853.532 1.514 0 .755-.228 1.333-.684 1.734-.478.423-1.251.64-2.319.634a5.906 5.906 0 0 1 -1.613-.257.75.75 0 0 1 -.54-.72zm9.052.826h-2.204a.75.75 0 0 1 -.75-.75v-5.77a.75.75 0 0 1 .75-.75h2.302c1.71 0 2.564.631 2.564 1.894 0 1.124-.762 1.392-1.202 1.548.31.062.869.193 1.187.557.267.305.415.653.415 1.2 0 1.036-.571 1.49-1.08 1.722-.507.233-1.168.349-1.982.349zm-.922-3.184v1.68h.913c.996 0 .996-.566.996-.879 0-.376-.081-.8-.933-.8h-.976zm0-2.578v1.353h.864c.478 0 .718-.223.718-.67 0-.455-.232-.683-.694-.683zm6.596 5.323v-.054a.75.75 0 0 1 .658-.744c.67-.081 1.142-.172 1.417-.272.369-.134 1.04-.312 1.04-1.07 0-.517-.38-.649-.869-.649-.133 0-.295.012-.485.035a.565.565 0 0 1 -.633-.562v-.039a.75.75 0 0 1 .597-.736c.412-.086.694-.168.846-.243.231-.115.344-.321.344-.598 0-.463-.384-.59-.869-.59-.225 0-.589.083-1.09.25a.5.5 0 0 1 -.658-.472v-.247a.75.75 0 0 1 .52-.71 5.706 5.706 0 0 1 1.765-.292c1.83 0 2.368.74 2.368 1.68 0 1.174-.971 1.449-1.362 1.611.52.084 1.621.178 1.621 1.573 0 .927-.393 1.607-1.179 2.038-.463.254-1.564.496-3.305.727a.642.642 0 0 1 -.726-.636zm7.041-1.456c.865 0 1.02.76 1.02 1.021a.991.991 0 0 1 -1.015 1.02c-.484 0-1.025-.355-1.025-1.035 0-.362.221-1.006 1.02-1.006zm1.817-1.25v-.981c0-.967.236-1.73.708-2.29.573-.677 1.393-1.016 2.46-1.016 1.003 0 1.783.29 2.34.87.556.579.834 1.391.834 2.436v.981c0 .964-.236 1.727-.708 2.29-.572.674-1.394 1.011-2.465 1.011-1.437 0-2.254-.674-2.62-1.213s-.55-1.235-.55-2.088zm4.155.25v-1.48c0-.55 0-1.587-.986-1.587-.799 0-.982.669-.982 1.587v1.48c0 .55-.005 1.582.982 1.582.986 0 .986-1.036.986-1.583zm-9.482-36.105a4 4 0 1 1 -3.874 5h-3.286a3 3 0 0 0 -2.073.832c-.322.334-2.194 2.39-5.617 6.172l2.984.002a5.046 5.046 0 0 1 3.568 1.5l5.93 6.673c.508.504 1.167.825 1.894.825h3.474v-1.004a2 2 0 0 1 2-2h4a2 2 0 0 1 2 2v4a2 2 0 0 1 -2 2h-4a2 2 0 0 1 -2-2v-.999h-3.515c-1.333-.029-2.436-.558-3.316-1.455l-5.93-6.673c-.508-.503-1.16-.873-2.106-.873h-10.216a6.002 6.002 0 0 1 -11.917-1 6 6 0 0 1 11.917-1h3.206c.776 0 1.574-.294 2.221-.983l5.794-6.379c.889-.978 2.317-1.638 3.438-1.631l3.55-.007c.444-1.725 2.01-3 3.874-3zm9 20h-4v4h4zm-37-11a4 4 0 1 0 0 8 4 4 0 0 0 0-8zm28-7a2 2 0 1 0 0 4 2 2 0 0 0 0-4z" fill="var(--db-icon-color, currentColor)" fill-rule="nonzero"/><path d="m49.66 9.221 3.76 2.997c.468.411.502 1.132 0 1.563l-3.76 3.01a1 1 0 0 1 -1.405-.157 1.026 1.026 0 0 1 .156-1.405l1.534-1.23-20.945.001a1 1 0 0 1 0-2h20.935l-1.522-1.215c-.4-.317-.505-.979-.16-1.405.347-.426.924-.5 1.408-.159z" fill="var(--db-icon-pulse-color, #EC0016)"/></g></svg>
