<svg id="icon" height="64" viewBox="0 0 64 64" width="64" xmlns="http://www.w3.org/2000/svg"><g fill="none" fill-rule="evenodd" transform="translate(4 12)"><path d="m34 0c11.046 0 20 8.954 20 20s-8.954 20-20.005 20a20.415 20.415 0 0 1 -16.41-8.41 1 1 0 0 1 .637-1.574l.143-.015.114-.002.116.012 8.113 1.298c.314.05.57.241.715.499l.057.08 3.612 5.756a.99.99 0 0 1 .064.12c.932.151 1.883.231 2.844.236a18.1 18.1 0 0 0 3.196-.283l.039-.072 3.762-6.017-2.627-3.844-.044-.073-.041-.083-.027-.069-.033-.118-.018-.112-.003-.041-.001-.088.013-.135.006-.03a1.02 1.02 0 0 1 .05-.172l3.418-8.717-7.541-5.683-7.519 5.678 1.784 4.432a1 1 0 0 1 -.448 1.251l-.106.05a1 1 0 0 1 -1.251-.449l-.05-.105-1.891-4.697-3.937-1.186-4.612 6.162a1 1 0 0 1 -1.766-.337 10.387 10.387 0 0 1 -.353-3.262c0-11.046 8.954-20 20-20zm-13.127 32.401a18.422 18.422 0 0 0 7.512 4.691l-2.436-3.88-5.076-.81zm26.818-.714-4.8.686-2.875 4.597a18.03 18.03 0 0 0 7.675-5.283zm-.086-14.24-3.954 1.177-3.325 8.478 2.252 3.295 6.756-.965a17.891 17.891 0 0 0 2.258-5.603zm-37.605 3.553a1 1 0 0 1 .117 1.993l-.117.007h-9a1 1 0 0 1 -.117-1.993l.117-.007zm39.814-9.604-.72 4.661 2.893 4.63a17.92 17.92 0 0 0 -2.173-9.292zm-31.306-.552a18.006 18.006 0 0 0 -2.491 8.392l-.015.485-.003.332-.013.386 3.298-4.407zm-8.508 5.156a1 1 0 0 1 .117 1.993l-.117.007h-4a1 1 0 0 1 -.117-1.993l.117-.007zm30.676-12.721-5.529 2.134-.008 5.291 7.958 5.998 4.061-1.209 1.017-6.588a18.052 18.052 0 0 0 -7.499-5.626zm-13.172-.07-.077.03a18.022 18.022 0 0 0 -7.25 5.24l1.049 7.018 3.994 1.204 7.919-5.982.008-5.307-5.504-2.136a1.008 1.008 0 0 1 -.139-.067zm6.496-1.209c-1.136 0-2.247.105-3.325.307l3.474 1.348 3.387-1.308a18.086 18.086 0 0 0 -3.536-.347z" fill="var(--db-icon-color, currentColor)" fill-rule="nonzero"/><path d="m39.251 26a1 1 0 0 1 .117 1.993l-.118.007h-32.25a1 1 0 0 1 -.117-1.993l.117-.007z" fill="var(--db-icon-pulse-color, #EC0016)"/></g></svg>
