<svg id="icon" width="64" height="64" viewBox="0 0 64 64" xmlns="http://www.w3.org/2000/svg"><g fill="none" fill-rule="evenodd" transform="translate(14 8)"><path d="M32 0H4a4 4 0 0 0-4 4v40a4 4 0 0 0 4 4h28a4 4 0 0 0 4-4V4a4 4 0 0 0-4-4ZM4 2h28a2 2 0 0 1 2 2v40a2 2 0 0 1-2 2H4a2 2 0 0 1-2-2V4a2 2 0 0 1 2-2Zm26 38a1 1 0 0 1 .117 1.993L30 42H6a1 1 0 0 1-.117-1.993L6 40h24Zm0-6a1 1 0 0 1 .117 1.994L30 36h-9a1 1 0 0 1-.117-1.993L21 34h9Zm-.108-7a1 1 0 0 1 .116 1.993l-.116.007H21a1 1 0 0 1-.117-1.993L21 27h8.892ZM30 20a1 1 0 0 1 .117 1.993L30 22h-9a1 1 0 0 1-.117-1.993L21 20h9Zm-14-1a2 2 0 0 1 1.995 1.85L18 21v14a2 2 0 0 1-1.85 1.995L16 37H7a2 2 0 0 1-1.995-1.85L5 35V21a2 2 0 0 1 1.85-1.995L7 19h9Zm0 2H7v14h9V21Z" fill="#282D37" style="fill: currentColor;fill: var(--db-icon-color, currentColor)" fill-rule="nonzero"/><path d="M29 5a1 1 0 0 1 .117 1.993L29 7h-3v2.05h2.9a1 1 0 0 1 .117 1.993l-.117.007H26V14a1 1 0 0 1-.883.993L25 15a1 1 0 0 1-.993-.883L24 14V6a1 1 0 0 1 .883-.993L25 5h4ZM18.4 5H16a1 1 0 0 0-1 1v8a1 1 0 0 0 1 1h2.4c3.017 0 4.6-1.715 4.6-5s-1.583-5-4.6-5ZM17 13V7h1.4c1.875 0 2.6.785 2.6 3s-.725 3-2.6 3H17Zm-6.35-8C12.777 5 14 6.046 14 8.11c0 1.997-1.12 3.01-3.131 3.077l-.22.003H9V14a1 1 0 0 1-.883.993L8 15a1 1 0 0 1-.993-.883L7 14V6a1 1 0 0 1 .883-.993L8 5h2.65ZM9 9.19h1.65l.308-.006C11.808 9.144 12 8.903 12 8.11c0-.837-.237-1.084-1.185-1.108L9 7v2.19Z" fill="#EC0016" style="fill:#EC0016;fill: var(--db-icon-pulse-color, #EC0016)"/></g></svg>
