<svg id="icon" height="20" viewBox="0 0 20 20" width="20" xmlns="http://www.w3.org/2000/svg"><path d="m14.984 4a1.02 1.02 0 0 1 1.016 1.016v9.987c0 .547-.43.997-.997.997a1.05 1.05 0 0 1 -.547-.156l-6.243-4.495a1.634 1.634 0 0 1 -.723-1.349c0-.547.274-1.055.723-1.368l6.204-4.456a1.02 1.02 0 0 1 .567-.176zm-.977 2.853-4.223 3.147 4.223 3.147zm-8.014 7.154v-8.014a1 1 0 0 0 -.996-.996c-.548 0-.997.45-.997.997v8.013a1 1 0 0 0 .997.996c.547 0 .997-.45.997-.996z" fill="#282D37" style="fill: currentColor;fill: var(--db-icon-color, currentColor)" fill-rule="evenodd"/></svg>
