<svg id="icon" height="32" viewBox="0 0 32 32" width="32" xmlns="http://www.w3.org/2000/svg"><path d="m29.1 6.599c.586.075.948.677.795 1.245-2.281 8.465-5.89 13.53-10.318 15.488-3.197 1.414-6.674 1.002-8.826-.562-1.633.458-3.326.67-5.022.498a11.803 11.803 0 0 1 -3.013-.693c-1.217-.546-.548-2.3.709-1.87a9.468 9.468 0 0 0 2.487.571c4.287.402 8.54-1.94 11.86-4.425 1.586-1.176 3.182-2.612 4.788-4.307.81-.903 2.268.155 1.569 1.225 0 0-1.73 1.958-3.765 3.583-2.041 1.678-4.354 3.306-7.068 4.498 1.58.537 6.077 1.166 10.227-4.414 1.633-2.295 3.008-5.294 4.125-8.998-2.197-.16-4.168-.097-5.915.191-4.089.713-8.877 2.659-10.983 8.306-.392 1.037-2.215.807-1.869-.711 1.26-3.346 3.715-6.464 7.978-8.273 3.168-1.328 7.51-2.011 12.241-1.351z" fill="var(--db-icon-color, currentColor)" fill-rule="evenodd"/></svg>
