<svg id="icon" height="64" viewBox="0 0 64 64" width="64" xmlns="http://www.w3.org/2000/svg"><g fill="none" fill-rule="evenodd" transform="translate(4 11)"><path d="M50 0a5 5 0 0 1 4.995 4.783L55 5v32a5 5 0 0 1-4.783 4.995L50 42H9a5 5 0 0 1-4.995-4.783L4 37v-3H3a3 3 0 0 1-2.995-2.824L0 31a3 3 0 0 1 2.824-2.995L3 28h1V14H3a3 3 0 0 1-2.995-2.824L0 11a3 3 0 0 1 2.824-2.995L3 8h1V5A5 5 0 0 1 8.783.005L9 0h41Zm0 2H9a3 3 0 0 0-2.995 2.824L6 5v3h1a3 3 0 0 1 .176 5.995L7 14H6v14h1a3 3 0 0 1 2.995 2.824L10 31a3 3 0 0 1-2.824 2.995L7 34H6v3a3 3 0 0 0 2.824 2.995L9 40h41a3 3 0 0 0 2.995-2.824L53 37V5a3 3 0 0 0-2.824-2.995L50 2Zm-6 29a1 1 0 0 1 0 2H33a1 1 0 0 1 0-2h11ZM7 30H3a1 1 0 0 0-.117 1.993L3 32h4a1 1 0 0 0 .117-1.993L7 30Zm30-3a1 1 0 0 1 0 2h-4a1 1 0 0 1 0-2h4Zm10 0a1 1 0 0 1 0 2h-7a1 1 0 0 1 0-2h7Zm-22.992-7C25.651 20 27 21.35 27 23.011v1.995c0 .567-.45.997-.997.997a.989.989 0 0 1-.997-.997V23.01c0-.567-.45-1.017-.998-1.017h-8.016c-.548 0-.997.45-.997 1.017v1.995a.99.99 0 0 1-.998.997.989.989 0 0 1-.997-.997V23.01c0-1.66 1.35-3.01 2.992-3.01h8.016ZM47 23a1 1 0 0 1 0 2H33a1 1 0 0 1 0-2h14ZM20 10c2.21 0 4.008 1.78 4.008 3.989A4.014 4.014 0 0 1 20 17.997c-2.21 0-3.989-1.799-3.989-4.008A3.98 3.98 0 0 1 20.001 10Zm.006 2c-1.098 0-2 .902-2 2 0 1.118.902 2 2 2 1.117 0 2-.882 2-2 0-1.098-.883-2-2-2ZM7 10H3a1 1 0 0 0-.117 1.993L3 12h4a1 1 0 0 0 .117-1.993L7 10Z" fill="var(--db-icon-color, currentColor)" fill-rule="nonzero"/><path d="M47 11a1 1 0 0 1 0 2H33a1 1 0 0 1 0-2h14Zm-4 4a1 1 0 0 1 0 2H33a1 1 0 0 1 0-2h10Z" fill="var(--db-icon-pulse-color, #EC0016)"/></g></svg>
