<svg id="icon" height="24" viewBox="0 0 24 24" width="24" xmlns="http://www.w3.org/2000/svg"><path d="m9.734 16.087c.497 0 1.14.577.857 1.278-.874 1.995-.875 1.993-1.749 3.989-.172.424-.496.571-.856.571-.516 0-1.16-.571-.82-1.324.854-1.978.965-2.241 1.712-3.974.163-.362.543-.54.856-.54zm2.738-7.406c-.101 1.613-.204 3.226-.308 4.839.895.883 1.786 1.775 2.672 2.677.052.053.214.377.228.433.529 2.089.53 2.09 1.047 4.186.117.582-.368 1.108-.914 1.108-.376 0-.695-.174-.883-.685a723.41 723.41 0 0 1 -.985-3.911l-2.849-2.838c-.156-.175-.224-.326-.213-.536l.258-4.093c.004-.09-.05-.092-.105-.073-.154.049-.545.223-1.171.524-.105.616-.212 1.23-.321 1.844a.93.93 0 0 1 -.912.769c-.51 0-1.027-.445-.912-1.052.168-1.173.164-1.175.339-2.345.048-.423.428-.648.576-.714.999-.422 2-.84 3-1.253 1.018-.4 1.498.347 1.452 1.119zm2.395 1.083c.603.313 1.185.613 1.744.9.332.15.514.51.514.796 0 .543-.514 1.14-1.345.855a98.205 98.205 0 0 1 -1.767-.91c-.517-.332-.55-.886-.458-1.144.153-.428.728-.772 1.312-.497zm-2.817-7.689c1.066 0 1.925.859 1.925 1.925a1.921 1.921 0 0 1 -1.925 1.925 1.94 1.94 0 0 1 -1.924-1.925c-.011-1.217.852-1.917 1.925-1.925z" fill="#282D37" style="fill: currentColor;fill: var(--db-icon-color, currentColor)" fill-rule="evenodd"/></svg>
