<svg id="icon" height="24" viewBox="0 0 24 24" width="24" xmlns="http://www.w3.org/2000/svg"><path d="m15 22h3.26c.96 0 1.74-.797 1.74-1.759v-7.925c0-.96-.195-1.922-.57-2.837l-1.03-2.602a5.565 5.565 0 0 1 -.398-2.134v-.75c0-1.103-.867-1.993-1.944-1.993h-2.13c-1.056 0-1.928.914-1.928 1.993v.75c0 .727-.11 1.454-.392 2.125l-.328.775c-.259.634.234 1.386.938 1.386.399 0 .798-.259.938-.634l.305-.776c.376-.939.536-1.89.536-2.9v-.719h2.003v.72a7.7 7.7 0 0 0 .558 2.9l1.032 2.583c.271.683.412 1.41.412 2.137v7.66h-3.002c-.562 0-1 .437-1 1 0 .54.438 1 1 1zm-10.014-11 7.024.022c.538 0 1.052.422.982 1.125l-1.028 8.987c-.047.492-.49.866-.98.866h-4.949a.969.969 0 0 1 -.98-.866l-1.049-9.034a.966.966 0 0 1 .98-1.1zm1.128 2 .224 2.02h1.642a.996.996 0 1 1 0 1.993h-1.407l.36 3.013h3.162l.818-7.024-4.8-.002z" fill="#282D37" style="fill: currentColor;fill: var(--db-icon-color, currentColor)" fill-rule="evenodd"/></svg>
