<svg id="icon" height="20" viewBox="0 0 20 20" width="20" xmlns="http://www.w3.org/2000/svg"><path d="m4 7c0 1.125.906 2 2 2 1.031 0 2-.875 2-2v-4c0-.563.469-1 1-1 .563 0 1 .469 1 1v4.031a3.958 3.958 0 0 1 -3 3.844v6.125c0 .563-.469 1-1 1-.563 0-1-.438-1-1v-6.125c-1.719-.438-3-1.969-3-3.844v-4.031c0-.563.438-1 1-1 .563 0 1 .438 1 1zm2-5c.531 0 1 .438 1 1v3.5a1 1 0 1 1 -2 0v-3.5c0-.563.438-1 1-1zm11 0c.563 0 1 .438 1 1v14c0 .563-.438 1-1 1-.563 0-1-.438-1-1v-3h-4v-6.938c0-2.686 2.188-5.062 4.875-5.062zm-1 2c-1.188.375-2 1.75-2 3v5h2z" fill="#282D37" style="fill: currentColor;fill: var(--db-icon-color, currentColor)" fill-rule="evenodd"/></svg>
