<svg id="icon" height="64" viewBox="0 0 64 64" width="64" xmlns="http://www.w3.org/2000/svg"><g fill="none" fill-rule="evenodd" transform="translate(12 12)"><path d="m14 0c7.732 0 14 6.268 14 14 0 3.506-1.289 6.711-3.418 9.167l15.125 15.126a1 1 0 0 1 -1.32 1.497l-.094-.083-15.126-15.125a13.946 13.946 0 0 1 -9.167 3.418c-7.732 0-14-6.268-14-14s6.268-14 14-14zm0 2c-6.627 0-12 5.373-12 12s5.373 12 12 12 12-5.373 12-12-5.373-12-12-12z" fill="var(--db-icon-color, currentColor)" fill-rule="nonzero"/><path d="m6.929 6.929a1 1 0 0 1 1.414 1.414 8 8 0 0 0 0 11.314 1 1 0 0 1 -1.413 1.413c-3.905-3.905-3.905-10.237 0-14.142z" fill="var(--db-icon-pulse-color, #EC0016)"/></g></svg>
