<svg id="icon" height="20" viewBox="0 0 20 20" width="20" xmlns="http://www.w3.org/2000/svg"><path d="m17 13a1 1 0 0 1 .178 1.984l.308 1.852a1 1 0 0 1 -1.947.442l-.025-.114-.362-2.164h-10.305l-.36 2.164a1 1 0 0 1 -1.986-.212l.013-.116.308-1.852a1 1 0 0 1 .061-1.977l.117-.007zm-7.872-3.992c2.668.33 5.333.664 7.996 1a1 1 0 0 1 .868 1.116c-.063.509-.507.876-1.116.868-3.748-.465-7.478-.937-7.828-.98-.16.562-.367.956-1.056.988a1 1 0 0 1 -.992-1.008c.008-1 .992-2.113 2.128-1.984zm-4.628 2.992a1.5 1.5 0 1 0 0-3 1.5 1.5 0 0 0 0 3zm5.162-7.908c.155 0 .282.164.282.318a.686.686 0 0 1 -.174.469l-1.188 1.527h1.096a.297.297 0 1 1 0 .594h-1.781c-.164 0-.297-.156-.297-.337 0-.192.045-.299.13-.416l1.245-1.561h-.963a.297.297 0 0 1 0-.594zm3.797-1.092c.205 0 .371.205.371.392a1 1 0 0 1 -.218.624l-1.496 1.877h1.343a.371.371 0 0 1 0 .742h-2.081c-.205 0-.371-.234-.371-.398 0-.246.077-.44.219-.618l1.5-1.877h-1.356a.371.371 0 0 1 0-.742h2.088zm4.15-1c.23 0 .416.239.416.457 0 .264-.086.52-.244.726l-1.679 2.186h1.507c.23 0 .416.194.416.432a.424.424 0 0 1 -.416.432h-2.335c-.23 0-.416-.272-.416-.464 0-.286.086-.512.245-.719l1.683-2.186h-1.52a.424.424 0 0 1 -.416-.432c0-.239.186-.432.416-.432z" fill="#282D37" style="fill: currentColor;fill: var(--db-icon-color, currentColor)" fill-rule="evenodd"/></svg>
