<svg id="icon" height="32" viewBox="0 0 32 32" width="32" xmlns="http://www.w3.org/2000/svg"><path d="m22.438 5.18c.884.043 1.753.43 2.288 1.15a.85.85 0 0 1 -.175 1.189.86.86 0 0 1 -1.19-.175c-.188-.254-.516-.437-.923-.464-2.125-.088-4.275-.185-6.413-.185-2.154.001-4.318.05-6.463.19-.49.037-.989.374-1.115.893a307.3 307.3 0 0 1 -1.327 5.221c3.937-.095 6.897-.143 8.88-.143.652 0 1.514.021 2.002.039a3 3 0 0 1 2.998-2.895c0-.5.5-1 1-1h3c.5 0 1 .5 1 1a3 3 0 0 1 3 3c.5 0 1 .5 1 1v1c0 .5-.5 1-1 .999v8.001a3 3 0 0 1 -3 3h-5a3 3 0 0 1 -2.984-2.692 43.22 43.22 0 0 1 -2.277.041c-1.065 0-3.311-.116-6.74-.349l.001 1c0 .446-.554 1-1 1h-2c-.5 0-1-.5-1-1l-.016-2.3a3.187 3.187 0 0 1 -.408-1.194l-.357-3.654c-.065-.989-.09-1.607-.077-1.853h-1.175c-.553.001-.967-.48-.967-1.032v-1c0-.553.414-.966.967-.966l2.403-.001 1.427-5.63c.302-1.211 1.365-2.122 2.765-2.184 3.207-.1 4.852-.198 6.474-.185 1.598.013 3.831.092 6.402.18zm3.562 6.52h-5c-.673 0-1.3.57-1.3 1.3v11c0 .673.63 1.3 1.3 1.3h5c.673 0 1.211-.446 1.3-1.3v-11c0-.673-.615-1.3-1.3-1.3zm-13.64 6.126c-.427.072-.764.453-.698.978.08.5.164 1 .25 1.5.062.373.448.71.838.71h5.25v-1.699h-4.508l-.154-.79c-.07-.427-.55-.77-.978-.699zm-6.705-.055c-.049.43.229.855.749.94.626.076 1.249.146 2.5.285.478.058.892-.318.94-.748.05-.431-.232-.86-.748-.941-1.248-.145-1.249-.145-2.5-.285a.854.854 0 0 0 -.94.749zm17.674-2.606a.75.75 0 0 1 1.006-.336c.34.17.533.64.336 1.007-.292.596-.611 1.234-.958 1.914h.77c.482 0 .983.517.68 1.1-.453.936-.95 1.93-1.492 2.986a.75.75 0 1 1 -1.342-.671c.318-.64.637-1.28.957-1.915h-.77c-.378 0-.981-.45-.68-1.1.201-.433.699-1.428 1.493-2.985z" fill="#282D37" style="fill: currentColor;fill: var(--db-icon-color, currentColor)" fill-rule="evenodd"/></svg>
