<svg id="icon" height="32" viewBox="0 0 32 32" width="32" xmlns="http://www.w3.org/2000/svg"><path d="m11.007 22.007h-6.007a1 1 0 0 1 0-2h2.015v-7.634l-1.53.5a1 1 0 1 1 -.619-1.9l2.84-.924a1 1 0 0 1 1.309.95v9.012h1.992a1 1 0 1 1 0 2zm9.994.016a1 1 0 0 1 -.674-1.74l.5-.45c2.253-2.036 4.581-4.143 4.581-6.068a1.615 1.615 0 0 0 -1.64-1.765 3.243 3.243 0 0 0 -1.93.66 1 1 0 0 1 -1.21-1.593 5.256 5.256 0 0 1 3.136-1.067 3.582 3.582 0 0 1 3.641 3.764c0 2.3-1.775 4.324-3.828 6.258h3.3a1 1 0 0 1 0 2h-5.876zm-5.001 4.977a1 1 0 0 1 -1-1v-20a1 1 0 0 1 2 0v20a1 1 0 0 1 -1 1z" fill="#282D37" style="fill: currentColor;fill: var(--db-icon-color, currentColor)" fill-rule="evenodd"/></svg>