<svg id="icon" height="64" viewBox="0 0 64 64" width="64" xmlns="http://www.w3.org/2000/svg"><g fill="none" fill-rule="evenodd" transform="translate(5 9)"><path d="m51.987 45.114h-49.986a1.993 1.993 0 0 1 -1.85-1.242 1.995 1.995 0 0 1 .447-2.184l3.338-3.287a.957.957 0 0 1 .058-.053v-23.234c0-1.654 1.346-3 3-3h2a1 1 0 1 1 0 2h-2c-.55 0-1 .448-1 1v23h42v-23c0-.552-.449-1-1-1h-2a1 1 0 1 1 0-2h2c1.654 0 3 1.346 3 3v23.234c.02.017.04.034.058.053l3.338 3.287c.581.572.757 1.43.447 2.185a1.992 1.992 0 0 1 -1.85 1.241zm-46.94-5-3.046 3h49.986l-3.046-3h-43.894z" fill="var(--db-icon-color, currentColor)" fill-rule="nonzero"/><path d="m27.367 0c-8.865 0-16.367 8.407-16.367 18.719a15.34 15.34 0 0 0 5.64 11.751l.122.144 2.828 5.04a.759.759 0 0 0 .613.344h3.078c.34 0 .944-.344.733-1.08-.064-.176-.233-.8-.233-.8s.532.16.999.272c.848.154 1.708.232 2.57.232.864.01 1.725-.071 2.571-.24.33-.071.655-.16.975-.264l-.21.8c-.121.45.07 1.08.807 1.08h3.126a.517.517 0 0 0 .5-.264l2.78-5.264.105-.136a15.15 15.15 0 0 0 4.996-10.983c-.04-9.368-6.463-19.223-15.633-19.351zm9.227 29.534-2.418 4.568c-.105.192-.113.296-.298.296h-1.298l.194-.752.572-2.136a15.637 15.637 0 0 1 -5.98 1.496c-2.143 0-6.124-1.56-6.1-1.48l.629 2.136.21.752h-1.266c-.193 0-.201-.072-.33-.296l-2.418-4.344-.129-.152a14.36 14.36 0 0 1 -5.366-11.015c0-8.08 5.503-17.015 14.722-17.015h.049c7.897 0 14.054 9.447 14.021 17.783a13.861 13.861 0 0 1 -4.69 10.015zm2.659-8.503c.435.352.362.88.08 1.512-1.004 1.922-3.493 5.384-8.179 6.783a14.434 14.434 0 0 1 -10.299-.488c-.934-.424-.99-1.184-.709-1.6.282-.416.589-.464 1.378-.144a13.176 13.176 0 0 0 10.186 0c3.965-1.6 5.174-4.167 6.197-5.92.153-.205.757-.649 1.346-.143zm-24.29-6.842c1.229-6.2 7.886-11.372 13.994-10.485 2.876.418 5.703 2.19 7.396 4.535a11.122 11.122 0 0 1 1.957 8.376c-.815 5.7-7.372 9.108-14.148 8.387-7.22-.77-10.428-4.602-9.198-10.813zm13.75-8.903c-5.22-.768-11.115 3.895-12.168 9.211-1.039 5.246 1.469 8.24 7.789 8.914 6.101.65 11.782-2.236 12.427-7.323a9.546 9.546 0 0 0 -1.718-6.917c-1.503-2.081-3.776-3.51-6.33-3.885zm-6.397 7.11c1.21-.333 2.76 1.445 3.464 3.97.703 2.526.292 4.842-.918 5.174s-2.76-1.446-3.463-3.971c-.703-2.526-.292-4.842.917-5.174zm6.827-1.024c1.253-.08 2.407 1.992 2.579 4.628.172 2.637-.704 4.84-1.957 4.92-1.252.08-2.407-1.992-2.578-4.628-.172-2.637.704-4.84 1.956-4.92z" fill="var(--db-icon-pulse-color, #EC0016)"/></g></svg>
