<svg id="icon" height="64" viewBox="0 0 64 64" width="64" xmlns="http://www.w3.org/2000/svg"><g fill="none" fill-rule="evenodd" transform="translate(7 8)"><path d="M39 0a3 3 0 0 1 2.995 2.824L42 3v1h3a5 5 0 0 1 4.995 4.783L50 9v33a5 5 0 0 1-4.783 4.995L45 47H5a5 5 0 0 1-4.995-4.783L0 42V9a5 5 0 0 1 4.783-4.995L5 4h3V3A3 3 0 0 1 10.824.005L11 0a3 3 0 0 1 2.995 2.824L14 3v1h22V3A3 3 0 0 1 38.824.005L39 0ZM8 6H5a3 3 0 0 0-2.995 2.824L2 9v33a3 3 0 0 0 2.824 2.995L5 45h40a3 3 0 0 0 2.995-2.824L48 42V9a3 3 0 0 0-2.824-2.995L45 6h-3v1a3 3 0 0 1-5.995.176L36 7V6H14v1a3 3 0 0 1-2.824 2.995L11 10a3 3 0 0 1-2.995-2.824L8 7V6Zm33.5 29a3.5 3.5 0 1 1 0 7 3.5 3.5 0 0 1 0-7Zm-11 0a3.5 3.5 0 1 1 0 7 3.5 3.5 0 0 1 0-7Zm-11 0a3.5 3.5 0 1 1 0 7 3.5 3.5 0 0 1 0-7Zm-11 0a3.5 3.5 0 1 1 0 7 3.5 3.5 0 0 1 0-7Zm33 2a1.5 1.5 0 1 0 0 3 1.5 1.5 0 0 0 0-3Zm-33 0a1.5 1.5 0 1 0 0 3 1.5 1.5 0 0 0 0-3Zm11 0a1.5 1.5 0 1 0 0 3 1.5 1.5 0 0 0 0-3Zm11 0a1.5 1.5 0 1 0 0 3 1.5 1.5 0 0 0 0-3Zm-22-11a3.5 3.5 0 1 1 0 7 3.5 3.5 0 0 1 0-7Zm11 0a3.5 3.5 0 1 1 0 7 3.5 3.5 0 0 1 0-7Zm11 0a3.5 3.5 0 1 1 0 7 3.5 3.5 0 0 1 0-7Zm11 0a3.5 3.5 0 1 1 0 7 3.5 3.5 0 0 1 0-7Zm-22 2a1.5 1.5 0 1 0 0 3 1.5 1.5 0 0 0 0-3Zm11 0a1.5 1.5 0 1 0 0 3 1.5 1.5 0 0 0 0-3Zm11 0a1.5 1.5 0 1 0 0 3 1.5 1.5 0 0 0 0-3Zm-33 0a1.5 1.5 0 1 0 0 3 1.5 1.5 0 0 0 0-3Zm0-11a3.5 3.5 0 1 1 0 7 3.5 3.5 0 0 1 0-7Zm11 0a3.5 3.5 0 1 1 0 7 3.5 3.5 0 0 1 0-7Zm11 0a3.5 3.5 0 1 1 0 7 3.5 3.5 0 0 1 0-7Zm11 0a3.5 3.5 0 1 1 0 7 3.5 3.5 0 0 1 0-7Zm-33 2a1.5 1.5 0 1 0 0 3 1.5 1.5 0 0 0 0-3Zm11 0a1.5 1.5 0 1 0 0 3 1.5 1.5 0 0 0 0-3Zm11 0a1.5 1.5 0 1 0 0 3 1.5 1.5 0 0 0 0-3Zm11 0a1.5 1.5 0 1 0 0 3 1.5 1.5 0 0 0 0-3ZM11 2a1 1 0 0 0-.993.883L10 3v4a1 1 0 0 0 1.993.117L12 7V3a1 1 0 0 0-1-1Zm28 0a1 1 0 0 0-.993.883L38 3v4a1 1 0 0 0 1.993.117L40 7V3a1 1 0 0 0-1-1Z" fill="var(--db-icon-color, currentColor)" fill-rule="nonzero"/><rect fill="var(--db-icon-pulse-color, #EC0016)" x="5" y="12" width="40" height="2" rx="1"/></g></svg>
