<svg id="icon" height="24" viewBox="0 0 24 24" width="24" xmlns="http://www.w3.org/2000/svg"><path d="m2 13.094c0-4.156 3.219-7.625 7.375-7.969l-.406-.406a.998.998 0 0 1 -.344-.75c0-.531.469-.969 1.031-.969.219 0 .469.063.656.219l2.282 2.312a.919.919 0 0 1 .281.688.99.99 0 0 1 -.281.718l-2.188 2.22c-.187.187-.437.28-.75.28-.531 0-.969-.468-.969-1 0-.25.094-.5.313-.687l.563-.625c-3.126.219-5.563 2.844-5.563 6 0 1.531.625 3.063 1.781 4.25a.97.97 0 0 1 .282.688c0 .562-.47 1-1 1a.97.97 0 0 1 -.688-.282 7.998 7.998 0 0 1 -2.375-5.687z" fill="var(--db-icon-color, currentColor)" fill-rule="evenodd"/></svg>
