<svg id="icon" height="32" viewBox="0 0 32 32" width="32" xmlns="http://www.w3.org/2000/svg"><path d="m13 30a1 1 0 0 1 -1-1c0-.513.45-1 1-1h2v-4l.003-.055a9.001 9.001 0 0 1 -8.003-8.945 1 1 0 0 1 2 0 7 7 0 0 0 14 0 1 1 0 0 1 2 0 9.001 9.001 0 0 1 -8.002 8.945l.002.055v4h2a1 1 0 0 1 1 1c0 .513-.45 1-1 1zm3-28c2.689 0 4.886 2.34 5 5v8a5 5 0 0 1 -5 5c-2.689 0-4.886-2.34-5-5v-8a5 5 0 0 1 5-5zm0 2c-1.598 0-2.909 1.425-3 3v8a3 3 0 0 0 3 3c1.598 0 2.909-1.425 3-3v-8a3 3 0 0 0 -3-3z" fill="var(--db-icon-color, currentColor)" fill-rule="evenodd"/></svg>
