<svg id="icon" height="20" viewBox="0 0 20 20" width="20" xmlns="http://www.w3.org/2000/svg"><path d="m13.454 6.083c1.043.655 2.086 1.313 3.129 1.974a.85.85 0 0 1 .265 1.172.86.86 0 0 1 -1.172.266c-.615-.385-1.228-.772-1.841-1.162l-.24 2.814c.055.024.203.124.246.165.873.833 1.744 1.673 1.744 1.673.07.068.194.28.211.327.35.968.697 1.938 1.043 2.909a.85.85 0 0 1 -.514 1.087c-.408.146-.893-.047-1.087-.514a655.71 655.71 0 0 1 -.975-2.721l-1.314-1.261-2.063 4.075a.85.85 0 0 1 -1.142.374c-.387-.195-.614-.753-.375-1.142.839-1.66 1.678-3.32 2.52-4.978l.256-3.003-1.057.493-.252 1.51c-.071.427-.551.769-.978.697a.85.85 0 0 1 -.71-.872l.338-2.056c.04-.237.21-.53.479-.63.891-.419 1.783-.835 2.676-1.248a.906.906 0 0 1 .813.05zm-10.604 2.917h4.014a.85.85 0 1 1 0 1.7h-4.014a.85.85 0 0 1 0-1.7zm2 3h3.3a.85.85 0 0 1 0 1.7h-3.3a.85.85 0 0 1 0-1.7zm8.424-9.846a1.35 1.35 0 1 1 0 2.7 1.35 1.35 0 0 1 0-2.7z" fill="var(--db-icon-color, currentColor)" fill-rule="evenodd"/></svg>
