<svg id="icon" height="24" viewBox="0 0 24 24" width="24" xmlns="http://www.w3.org/2000/svg"><path d="m17.037 8.49-.028 9.064 2.267-2.268a.992.992 0 0 1 .73-.299c.53 0 .994.431.994.995 0 .266-.1.531-.298.697l-4.083 4.089a.936.936 0 0 1 -.619.219c-.232 0-.497-.1-.696-.299l-4.006-4.01a1.035 1.035 0 0 1 -.298-.696c0-.564.464-.995.994-.995.266 0 .53.1.73.299l2.285 2.287.028-9.089c.006-1.854-1.43-3.484-3.484-3.484-2.053 0-3.553 1.577-3.553 3.513v3.48a1 1 0 0 1 -2 0v-3.48c0-2.963 2.502-5.513 5.553-5.513a5.473 5.473 0 0 1 5.484 5.49z" fill="var(--db-icon-color, currentColor)" fill-rule="evenodd"/></svg>
