<svg id="icon" height="20" viewBox="0 0 20 20" width="20" xmlns="http://www.w3.org/2000/svg"><path d="m12.778 4.999h-.445v-1.73h.434s.044.012.072.024l.744.494a.525.525 0 0 0 .284.087.548.548 0 0 0 .477-.306c.156-.3.067-.68-.2-.856l-.744-.492a1.144 1.144 0 0 0 -.639-.2l-5.605-.02a1.17 1.17 0 0 0 -.69.231l-.683.494c-.255.187-.333.574-.166.862.166.287.51.375.766.187l.684-.493c.027-.019.066-.056.083-.031h.517v1.749h-.445c-1.222 0-2.222 1.124-2.222 2.499v8.002c0 1.375 1 2.5 2.222 2.5h5.556c1.222 0 2.222-1.125 2.222-2.499v-8.003c0-1.375-1-2.5-2.222-2.5zm-1.556 0h-2.444v-1.743h2.444zm-3.189 11.008h-.889c-.26 0-.472-.237-.472-.531s.211-.531.472-.531h.89c.26 0 .472.237.472.531s-.212.531-.473.531zm4.828 0h-.889c-.26 0-.472-.237-.472-.531s.211-.531.472-.531h.89c.26 0 .471.237.471.531s-.21.531-.472.531zm.478-4.348c0 .737-.539 1.343-1.195 1.343h-4.283c-.655 0-1.194-.606-1.194-1.343v-3.311c0-.738.539-1.344 1.194-1.344h4.283c.656 0 1.195.606 1.195 1.344v3.31z" fill="var(--db-icon-color, currentColor)" fill-rule="evenodd"/></svg>
