<svg id="icon" height="64" viewBox="0 0 64 64" width="64" xmlns="http://www.w3.org/2000/svg"><g fill="none" fill-rule="evenodd" transform="translate(4.999 11.999)"><path d="m50.001 7.001c2.689 0 5 2.165 5 5 .002 7 .002 14 0 21 0 2.674-2.162 5-5 5-12.666.002-25.333.002-38 0-2.689 0-5.1-2.178-5-5v-21c0-2.689 2.115-5 5-5h38zm0 2c-12.666-.002-25.333-.002-38 0-1.597 0-3 1.293-3 3v21c0 1.598 1.312 3 3 3 12.667.002 25.333.002 38 0 1.598 0 3-1.286 3-3 .002-7 .002-14 0-21 0-1.598-1.28-3-3-3zm-8-9a4 4 0 0 1 4 4 1 1 0 0 1 -1 1c-.513 0-1-.381-1-1a2 2 0 0 0 -2-2c-12.333-.002-24.666-.002-37 0-1.597 0-3 1.289-3 3v21c0 1.055.859 2 2 2a1 1 0 0 1 0 2c-2.142 0-4-1.8-4-4v-21c0-2.689 2.142-5 5-5zm6 23a1 1 0 0 1 .117 1.993l-.117.007h-14a1 1 0 0 1 -.116-1.993l.115-.008h14zm-2-5a1 1 0 0 1 .117 1.993l-.117.007h-4a1 1 0 0 1 -.116-1.993l.115-.008h4zm-8 0a1 1 0 0 1 .117 1.993l-.117.007h-4a1 1 0 0 1 -.116-1.993l.115-.008h4zm-12.875 6.031c2.75 0 4.875 2.063 4.875 5.094v.875c0 .563-.437 1-1 1-.562 0-1-.437-1-1v-.875c0-2.531-1.875-3.094-2.781-3.094a9.416 9.416 0 0 1 -4.219.97 9.416 9.416 0 0 1 -4.219-.97c-.937 0-2.78.563-2.78 3.094v.875c0 .563-.438 1-1 1-.563 0-1-.437-1-1v-.875c0-2.906 2.093-5.094 4.718-5.094.312 0 .719.063.937.188.97.531 2.094.781 3.344.781s2.375-.25 3.344-.781c.25-.125.531-.188.781-.188zm-4.125-11.03c2.75 0 5 2.25 5 5s-2.25 5-5 5-5-2.25-5-5 2.25-5 5-5zm0 2a3 3 0 1 0 .002 6 3 3 0 0 0 -.002-6zm27-2a1 1 0 0 1 .117 1.992l-.117.007h-14a1 1 0 0 1 -.116-1.993l.115-.008h14z" fill="#282D37" style="fill: currentColor;fill: var(--db-icon-color, currentColor)" fill-rule="nonzero"/><path d="m36.208 27.294a774.5 774.5 0 0 1 2.293 2.292l1.293-1.292c.323-.323.862-.437 1.307-.093.505.376 1.007.752 1.505 1.13l1.448-.724a.95.95 0 0 1 .763-.055c.504.166 1.004.332 1.5.5a1 1 0 0 1 -.632 1.898c-.372-.122-.74-.245-1.107-.37l-1.63.816c-.3.15-.717.15-1.047-.095-.438-.326-.874-.653-1.306-.98l-1.387 1.387c-.36.36-.974.438-1.414 0-.731-.727-1.46-1.455-2.185-2.184l-.808 1.077a1.024 1.024 0 0 1 -1.4.2.995.995 0 0 1 -.2-1.4c.497-.667.997-1.333 1.5-2 .341-.454 1.018-.56 1.507-.107z" fill="#EC0016" style="fill:#EC0016;fill: var(--db-icon-pulse-color, #EC0016)"/></g></svg>
