<svg id="icon" height="64" viewBox="0 0 64 64" width="64" xmlns="http://www.w3.org/2000/svg"><g fill="none" fill-rule="evenodd" transform="translate(4 4)"><path d="m23 38 12.057.002a5.527 5.527 0 0 1 4.813 3.478l.086.226 4 13a1 1 0 0 1 -1.871.698l-.04-.11-3.988-12.96c-.45-1.27-1.586-2.166-2.864-2.317l-.193-.017h-12a1 1 0 0 1 -.117-1.993zm-17.747-32.357a5.79 5.79 0 0 1 1.745 3.957l.002.28v8.118c.004 1.584.19 3.162.548 4.696l.143.573 5.756 20.838a2.873 2.873 0 0 0 2.366 1.882l.187.013h13a1 1 0 0 1 .117 1.993l-.117.007h-13.04c-1.908-.076-3.59-1.257-4.335-3.077l-.082-.212-5.783-20.923c-.449-1.7-.7-3.444-.75-5.202l-.01-.586v-8.14a3.795 3.795 0 0 0 -3.957-3.86 1 1 0 1 1 -.086-2 5.795 5.795 0 0 1 4.296 1.643zm14.417 16.656.072.217 2.666 9.773.025.116c.043.288.258.517.482.58l.085.015h10a1 1 0 0 1 .116 1.993l-.117.007-10.075-.003a2.704 2.704 0 0 1 -2.438-2.13l-.015-.081-2.65-9.715a3.065 3.065 0 0 0 -3.428-2.13l-.174.035a1 1 0 0 1 -.438-1.952 5.07 5.07 0 0 1 5.89 3.275zm24.71-22.299c.964 0 1.924.118 2.86.353a1 1 0 0 1 -.488 1.94 9.684 9.684 0 0 0 -2.361-.293 9.5 9.5 0 0 0 -9.391 9.5c0 5.204 4.187 9.44 9.38 9.5.798 0 1.594-.102 2.366-.305a1 1 0 0 1 .508 1.935c-.938.246-1.905.37-2.886.37-6.3-.073-11.368-5.2-11.368-11.5s5.068-11.427 11.379-11.5zm-28.88 5a5.5 5.5 0 1 1 0 11 5.5 5.5 0 0 1 0-11zm0 2a3.5 3.5 0 1 0 0 7 3.5 3.5 0 0 0 0-7z" fill="#282D37" style="fill: currentColor;fill: var(--db-icon-color, currentColor)" fill-rule="nonzero"/><path d="m54.305 4.281a1 1 0 0 1 1.475 1.345l-.085.093-10.712 10.357a1 1 0 0 1 -1.315.066l-.093-.084-4.288-4.357a1 1 0 0 1 1.332-1.486l.094.084 3.592 3.65z" fill="#EC0016" style="fill:#EC0016;fill: var(--db-icon-pulse-color, #EC0016)"/></g></svg>
