<svg id="icon" height="64" viewBox="0 0 64 64" width="64" xmlns="http://www.w3.org/2000/svg"><g fill="none" fill-rule="evenodd" transform="translate(8 8.001)"><path d="m27.793 42.265c-.456 0-.858.058-1.206.174-.293.098-.57.253-.837.443.05-.42.154-.779.339-1.044.216-.308.522-.541.918-.701s.918-.284 1.566-.372c.312-.04.55-.152.714-.336a.825.825 0 0 0 .222-.624.89.89 0 0 0 -.372-.685c-.232-.176-.552-.24-.96-.191-1.048.136-1.94.35-2.676.642a3.93 3.93 0 0 0 -1.812 1.464c-.472.685-.708 1.626-.708 2.826 0 1.352.308 2.38.924 3.084s1.556 1.056 2.82 1.056c.736 0 1.372-.126 1.908-.378a2.76 2.76 0 0 0 1.23-1.086c.284-.472.426-1.032.426-1.68 0-.84-.214-1.482-.642-1.926s-1.046-.666-1.854-.666zm-.366 3.761c-.132.204-.362.306-.69.306-.312 0-.542-.102-.69-.306a1.503 1.503 0 0 1 -.27-.726 9.602 9.602 0 0 1 -.048-1.057v-.084a2.08 2.08 0 0 1 .372-.179c.168-.056.368-.084.6-.084.352 0 .594.078.726.233.132.156.198.442.198.858 0 .488-.066.834-.198 1.038zm6.258-2.856c.152.148.228.358.228.631 0 .279-.076.493-.228.642s-.368.222-.648.222h-1.272c-.28 0-.496-.073-.648-.222-.152-.148-.228-.362-.228-.642 0-.272.076-.482.228-.631.152-.147.368-.222.648-.222h1.272c.28 0 .496.074.648.222zm6.048 3.498a.655.655 0 0 1 .192.48.649.649 0 0 1 -.192.479.647.647 0 0 1 -.48.192h-3.876a.647.647 0 0 1 -.48-.192.65.65 0 0 1 -.192-.479.654.654 0 0 1 .672-.671h.756v-5.23l-.336.166a1.026 1.026 0 0 1 -.534.114.655.655 0 0 1 -.444-.198c-.116-.12-.174-.288-.174-.504 0-.168.046-.328.138-.479.092-.152.23-.276.414-.372l.984-.54a9.94 9.94 0 0 1 .87-.414c.212-.084.434-.126.666-.126.296 0 .526.098.69.294s.246.43.246.702v6.588h.6a.65.65 0 0 1 .48.191zm8.268-1.212a.79.79 0 0 1 -.234.582.79.79 0 0 1 -.582.234h-.276v.516c0 .353-.114.643-.342.87a1.16 1.16 0 0 1 -.858.342 1.16 1.16 0 0 1 -.858-.342c-.228-.228-.342-.518-.342-.87v-.516h-3.348c-.312 0-.554-.076-.726-.229-.172-.151-.258-.367-.258-.647 0-.216.056-.444.168-.685.112-.239.288-.535.528-.888l2.568-3.828c.176-.264.314-.46.414-.588s.24-.246.42-.354.398-.162.654-.162c.288 0 .514.071.678.216a.719.719 0 0 1 .24.582c-.004.244-.102.506-.294.786l-2.798 4.176h1.754v-.648c0-.352.114-.642.342-.869a1.16 1.16 0 0 1 .858-.343c.344 0 .63.114.858.343.228.228.342.518.342.869v.648h.276c.232 0 .426.076.582.228a.772.772 0 0 1 .234.576z" fill="var(--db-icon-pulse-color, #EC0016)"/><path d="m27.134 9.564a4.788 4.788 0 0 1 -4.782-4.782 4.788 4.788 0 0 1 4.782-4.782 4.788 4.788 0 0 1 4.782 4.782 4.788 4.788 0 0 1 -4.782 4.782zm0-7.564a2.785 2.785 0 0 0 -2.782 2.782 2.785 2.785 0 0 0 2.782 2.782 2.785 2.785 0 0 0 2.782-2.782 2.785 2.785 0 0 0 -2.782-2.782zm-2.109 35.777a1 1 0 0 1 -1-1v-9.564h-.783c-1.654 0-3-1.346-3-3v-10.909a2.7 2.7 0 0 1 2.698-2.698h1.683c.282 0 .536.116.718.304 1.01.853 2.607.843 3.607-.02a.999.999 0 0 1 .697-.284h1.681a2.7 2.7 0 0 1 2.698 2.698v10.909c0 1.654-1.346 3-3 3h-.783v7.564a1 1 0 1 1 -2 0v-8.564a1 1 0 0 1 1-1h1.783c.551 0 1-.448 1-1v-10.909a.699.699 0 0 0 -.698-.698h-1.321c-1.65 1.24-4.092 1.24-5.743 0h-1.322a.699.699 0 0 0 -.698.698v10.909a1 1 0 0 0 1 1h1.783a1 1 0 0 1 1 1v10.564a1 1 0 0 1 -1 1zm-9.64-21.306h-2.718v-6.997a3.006 3.006 0 0 0 -3.003-3.003h-.94a3.006 3.006 0 0 0 -3.003 3.003v6.997h-2.718a3.007 3.007 0 0 0 -3.003 3.004v15.533a3.006 3.006 0 0 0 3.003 3.003h12.381a3.006 3.006 0 0 0 3.003-3.003v-15.533a3.007 3.007 0 0 0 -3.003-3.004zm-7.663-6.997c0-.553.45-1.003 1.003-1.003h.94c.553 0 1.003.45 1.003 1.003v6.997h-2.946zm8.666 25.534c0 .553-.45 1.003-1.003 1.003h-12.381c-.553 0-1.003-.45-1.003-1.003v-15.533c0-.554.45-1.004 1.003-1.004h12.381c.553 0 1.003.45 1.003 1.004zm-11.556 7.551c-.965 0-1.75-.785-1.75-1.75s.785-1.75 1.75-1.75 1.75.785 1.75 1.75-.785 1.75-1.75 1.75zm0-2a.25.25 0 0 0 -.25.25c0 .275.5.275.5 0a.25.25 0 0 0 -.25-.25zm8.725 2c-.965 0-1.75-.785-1.75-1.75s.785-1.75 1.75-1.75 1.75.785 1.75 1.75-.785 1.75-1.75 1.75zm0-2a.25.25 0 0 0 -.25.25c0 .275.5.275.5 0a.25.25 0 0 0 -.25-.25z" fill="var(--db-icon-color, currentColor)" fill-rule="nonzero"/></g></svg>
