<svg id="icon" height="64" viewBox="0 0 64 64" width="64" xmlns="http://www.w3.org/2000/svg"><g fill="none" fill-rule="evenodd" transform="translate(7 7)"><path d="m11.727 20.112a5.135 5.135 0 0 0 -5.13 5.13 5.135 5.135 0 0 0 5.13 5.13 5.135 5.135 0 0 0 5.129-5.13 5.135 5.135 0 0 0 -5.129-5.13m0 12.26a7.137 7.137 0 0 1 -7.13-7.13 7.137 7.137 0 0 1 7.13-7.13c3.931 0 7.129 3.198 7.129 7.13s-3.198 7.13-7.129 7.13m11.653 2.137a3.625 3.625 0 0 0 -3.621 3.622 3.625 3.625 0 0 0 3.621 3.621 3.624 3.624 0 0 0 3.62-3.621 3.625 3.625 0 0 0 -3.62-3.622m0 9.243a5.627 5.627 0 0 1 -5.621-5.621c0-3.1 2.521-5.622 5.621-5.622a5.627 5.627 0 0 1 5.62 5.622 5.627 5.627 0 0 1 -5.62 5.621m-22.38 6.375a1 1 0 0 1 -1-1v-10.093c0-1.7.662-3.298 1.864-4.5a6.322 6.322 0 0 1 4.499-1.864c.183 0 .363.05.52.145a9.546 9.546 0 0 0 4.855 1.388 9.458 9.458 0 0 0 3.856-.869 1 1 0 1 1 .834 1.818 11.479 11.479 0 0 1 -4.69 1.051 11.579 11.579 0 0 1 -5.635-1.526 4.333 4.333 0 0 0 -2.825 1.271 4.336 4.336 0 0 0 -1.278 3.086v10.093a1 1 0 0 1 -1 1m14.314 0a1 1 0 0 1 -.996-1.1 5.05 5.05 0 0 1 1.452-3.065 5.006 5.006 0 0 1 3.566-1.478c.183 0 .363.051.52.146a6.945 6.945 0 0 0 3.534 1.009 6.924 6.924 0 0 0 3.513-1.009c.157-.095.337-.146.52-.146a5.026 5.026 0 0 1 5.017 4.529 1 1 0 1 1 -1.99.202 3.029 3.029 0 0 0 -2.774-2.72 8.945 8.945 0 0 1 -4.286 1.144 8.975 8.975 0 0 1 -4.307-1.144 3.05 3.05 0 0 0 -2.775 2.731 1 1 0 0 1 -.994.901" fill="var(--db-icon-color, currentColor)" fill-rule="nonzero"/><path d="m34.932 30.498a1.794 1.794 0 0 1 -2.982.009 1 1 0 0 0 -1.658 1.121 3.795 3.795 0 0 0 6.305-.023.999.999 0 1 0 -1.665-1.107zm1.326-20.5a1 1 0 0 0 -.871 1.801 4.506 4.506 0 0 1 2.228 2.389 1 1 0 1 0 1.858-.742 6.513 6.513 0 0 0 -3.215-3.448zm4.976 5.854c0-4.301-3.498-7.8-7.8-7.8-4.3 0-7.8 3.499-7.8 7.8 0 2.877 1.24 4.25 2.44 5.578.706.78 1.431 1.582 1.773 2.62l2.587-.003v-2.67l-1.261-1.737a1.003 1.003 0 0 1 .22-1.398 1.002 1.002 0 0 1 1.398.222l.644.886.642-.886a1 1 0 1 1 1.618 1.176l-1.26 1.737v2.668l2.59-.004c.343-1.033 1.066-1.833 1.769-2.61 1.2-1.33 2.44-2.701 2.44-5.58zm2 0c0 3.648-1.64 5.462-2.956 6.919-.77.85-1.377 1.522-1.451 2.359a1 1 0 0 1 -.995.91l-4.368.006c-.01 0-.02.006-.03.006s-.018-.006-.028-.006l-4.365.006h-.003a1 1 0 0 1 -.995-.914c-.072-.842-.681-1.515-1.453-2.368-1.317-1.457-2.956-3.27-2.956-6.918 0-5.404 4.396-9.8 9.8-9.8 5.405 0 9.8 4.396 9.8 9.8zm-6.41 11.2h-6.778a1 1 0 1 0 0 2h6.778a1 1 0 0 0 0-2zm12.349-9.45-2.956-.522a.994.994 0 0 0 -1.158.81 1 1 0 0 0 .81 1.159l2.956.52a1 1 0 0 0 .348-1.968zm-1.193-10.16a1 1 0 0 0 -1.365-.365l-2.6 1.5a1 1 0 0 0 1 1.734l2.6-1.501c.477-.277.642-.888.365-1.367zm-10.512-2.682a.999.999 0 0 0 1.281-.598l1.027-2.82a1 1 0 0 0 -1.879-.684l-1.027 2.82a1.001 1.001 0 0 0 .598 1.282zm-9.35-.598a1.001 1.001 0 0 0 1.88-.684l-1.025-2.821a1 1 0 0 0 -1.88.685l1.027 2.818zm-4.897 5.783a1.001 1.001 0 0 1 -1.367.367l-2.6-1.501a1.002 1.002 0 0 1 1-1.733l2.6 1.5c.477.277.642.889.367 1.367z" fill="var(--db-icon-pulse-color, #EC0016)"/></g></svg>
