<svg id="icon" height="64" viewBox="0 0 64 64" width="64" xmlns="http://www.w3.org/2000/svg"><g fill="none" fill-rule="evenodd" transform="translate(8 8.001)"><path d="m34.132 16.691c.97.154 1.582.998 1.43 1.95-.154.97-.997 1.581-1.95 1.429-.986-.156-1.583-.979-1.423-1.983.149-.936.992-1.547 1.943-1.396zm2.334-5.842c.113-.71-.228-1.138-1.268-1.303a5.245 5.245 0 0 0 -1.164-.043c-.845.062-1.417-.58-1.282-1.429.086-.537.5-.915 1.102-1.015a8.556 8.556 0 0 1 2.664-.002c2.719.433 3.95 1.836 3.62 3.914-.268 1.68-1.157 2.585-2.91 3.336-.515.22-.856.36-1.091.501-.534.341-.614.843-1.1.996-1.646.52-3.307-1.751.05-3.436.887-.444 1.257-.759 1.378-1.521v.002z" fill="var(--db-icon-pulse-color, #EC0016)"/><path d="m29.306 3.059c-.05-.587-.404-.861-1.265-.789-.33.027-.614.094-.938.193-.662.215-1.244-.186-1.302-.889-.037-.445.219-.827.68-1.025a6.998 6.998 0 0 1 2.125-.524c2.254-.188 3.512.689 3.656 2.412.117 1.393-.415 2.29-1.666 3.233-.367.275-.612.454-.772.613-.358.377-.324.793-.682 1.011-1.21.736-2.982-.748-.635-2.751.62-.529.854-.852.8-1.484zm-.713 5.119c.804-.067 1.458.485 1.523 1.276.067.804-.485 1.455-1.275 1.521-.818.068-1.456-.471-1.526-1.303-.065-.776.488-1.429 1.277-1.495v.001zm13.902 6.488c.664.28.953.988.677 1.641-.28.665-.99.954-1.642.679-.676-.285-.957-.979-.667-1.666a1.223 1.223 0 0 1 1.632-.653zm2.688-3.757c.206-.488.038-.852-.674-1.152a3.844 3.844 0 0 0 -.824-.235c-.613-.104-.908-.663-.663-1.243.155-.369.517-.565.964-.53a6.23 6.23 0 0 1 1.9.466c1.863.785 2.496 2.003 1.895 3.427-.485 1.151-1.28 1.642-2.661 1.869-.405.065-.674.106-.866.165-.44.148-.586.494-.96.518-1.263.082-2.05-1.83.639-2.441.712-.162 1.03-.32 1.25-.842zm-19.576 19.08a8.426 8.426 0 0 0 -6-2.485c-.183 0-.363.051-.52.146a13.735 13.735 0 0 1 -3.305 1.451l-.496 2.185a15.703 15.703 0 0 0 4.587-1.776 6.433 6.433 0 0 1 4.32 1.895 6.443 6.443 0 0 1 1.899 4.586v11.011a1 1 0 1 0 2 0v-11.011a8.428 8.428 0 0 0 -2.485-6zm-13.487-22.802c-5.27 0-9.555 4.286-9.555 9.555 0 4.648 3.337 8.526 7.74 9.377l.443-1.953c-3.512-.648-6.183-3.727-6.183-7.424 0-4.166 3.389-7.555 7.555-7.555s7.555 3.389 7.555 7.555a7.524 7.524 0 0 1 -2.382 5.491c-.011.149-.021.298-.055.448l-.557 2.455c2.973-1.622 4.995-4.776 4.995-8.394 0-5.269-4.286-9.555-9.555-9.555h-.001zm-1.651 34.413a.998.998 0 0 0 .584-.699l4.235-18.663a1 1 0 1 0 -1.95-.443l-3.928 17.311-7.891-4.781a1 1 0 0 0 -1.037 1.711l9.077 5.5a.999.999 0 0 0 .909.066v-.002z" fill="var(--db-icon-color, currentColor)" fill-rule="nonzero"/></g></svg>
