<svg id="icon" height="64" viewBox="0 0 64 64" width="64" xmlns="http://www.w3.org/2000/svg"><g fill="none" fill-rule="evenodd"><path d="m17 30.5h-3.999a1 1 0 1 1 0-2h3.999a1 1 0 1 1 0 2zm1 4a1 1 0 0 0 -1-1h-7.999a1 1 0 1 0 0 2h7.999a1 1 0 0 0 1-1zm0 5a1 1 0 0 0 -1-1h-12a1 1 0 1 0 0 2h12a1 1 0 0 0 1-1z" fill="var(--db-icon-pulse-color, #EC0016)"/><path d="m52 26.5v16a1 1 0 1 1 -2 0v-16a1 1 0 1 1 2 0zm-21-1a1 1 0 0 0 -1 1v16a1 1 0 1 0 2 0v-16a1 1 0 0 0 -1-1zm29-.496v18.992a5.01 5.01 0 0 1 -5.003 5.004h-27.993a5.01 5.01 0 0 1 -5.003-5.004v-18.992a5.01 5.01 0 0 1 5.003-5.004h6.997v-2c0-2.206 1.794-4 4-4h6c2.206 0 4 1.794 4 4v2h6.997a5.01 5.01 0 0 1 5.003 5.004zm-24-5.004h10v-2c0-1.103-.897-2-2-2h-6c-1.103 0-2 .897-2 2zm22 5.004a3.007 3.007 0 0 0 -3.003-3.004h-27.993a3.007 3.007 0 0 0 -3.003 3.004v18.992a3.007 3.007 0 0 0 3.003 3.004h27.993a3.007 3.007 0 0 0 3.003-3.004z" fill="var(--db-icon-color, currentColor)" fill-rule="nonzero"/></g></svg>
