<svg id="icon" height="64" viewBox="0 0 64 64" width="64" xmlns="http://www.w3.org/2000/svg"><g fill="none" fill-rule="evenodd" transform="translate(7 8)"><path d="m39 24c7.719 0 14 6.281 14 14s-6.281 14-14 14-14-6.281-14-14 6.281-14 14-14zm0 2c-6.625 0-12 5.375-12 12s5.375 12 12 12 12-5.375 12-12-5.375-12-12-12zm0-26a3 3 0 0 1 3 3v1h3a5 5 0 0 1 4.995 4.783l.005.217v15a1 1 0 0 1 -1.993.117l-.007-.117v-15a3 3 0 0 0 -2.824-2.995l-.176-.005h-3v1a3 3 0 0 1 -2.824 2.995l-.176.005a3 3 0 0 1 -3-3v-1h-22v1a3 3 0 0 1 -2.824 2.995l-.176.005a3 3 0 0 1 -3-3v-1h-3a3 3 0 0 0 -2.995 2.824l-.005.176v33a3 3 0 0 0 2.824 2.995l.176.005h18.928a1 1 0 0 1 .117 1.993l-.117.007h-18.928a5 5 0 0 1 -4.995-4.783l-.005-.217v-33a5 5 0 0 1 4.783-4.995l.217-.005h3v-1a3 3 0 0 1 2.824-2.995l.176-.005a3 3 0 0 1 3 3v1h22v-1a3 3 0 0 1 2.824-2.995zm0 29c.5 0 1 .438 1 1v7.594l3.719 3.687a.81.81 0 0 1 .266.61c0 .448-.39 1.132-1.008 1.132a.998.998 0 0 1 -.696-.304l-4-4a1.056 1.056 0 0 1 -.281-.594v-8.125c0-.563.438-1 1-1zm-30.5 6a3.5 3.5 0 1 1 0 7 3.5 3.5 0 0 1 0-7zm11 0a3.5 3.5 0 1 1 0 7 3.5 3.5 0 0 1 0-7zm-11 2a1.5 1.5 0 1 0 0 3 1.5 1.5 0 0 0 0-3zm11 0a1.5 1.5 0 1 0 0 3 1.5 1.5 0 0 0 0-3zm-11-11a3.5 3.5 0 1 1 0 7 3.5 3.5 0 0 1 0-7zm11 0a3.5 3.5 0 1 1 0 7 3.5 3.5 0 0 1 0-7zm-11 2a1.5 1.5 0 1 0 0 3 1.5 1.5 0 0 0 0-3zm11 0a1.5 1.5 0 1 0 0 3 1.5 1.5 0 0 0 0-3zm11-11a3.5 3.5 0 1 1 0 7 3.5 3.5 0 0 1 0-7zm-22 0a3.5 3.5 0 1 1 0 7 3.5 3.5 0 0 1 0-7zm11 0a3.5 3.5 0 1 1 0 7 3.5 3.5 0 0 1 0-7zm22 0a3.5 3.5 0 0 1 3.244 4.815 1 1 0 0 1 -1.89-.641l.037-.11a1.5 1.5 0 1 0 -2.884-.708l-.007.144a1 1 0 0 1 -2 0 3.5 3.5 0 0 1 3.5-3.5zm-11 2a1.5 1.5 0 1 0 0 3 1.5 1.5 0 0 0 0-3zm-22 0a1.5 1.5 0 1 0 0 3 1.5 1.5 0 0 0 0-3zm11 0a1.5 1.5 0 1 0 0 3 1.5 1.5 0 0 0 0-3zm-7.5-13h-2v1a1 1 0 0 0 .883.993l.117.007a1 1 0 0 0 1-1zm28 0h-2v1a1 1 0 0 0 .883.993l.117.007a1 1 0 0 0 1-1zm-1-4a1 1 0 0 0 -1 1v1h2v-1a1 1 0 0 0 -.883-.993zm-28 0a1 1 0 0 0 -1 1v1h2v-1a1 1 0 0 0 -.883-.993z" fill="var(--db-icon-color, currentColor)" fill-rule="nonzero"/><rect fill="var(--db-icon-pulse-color, #EC0016)" height="2" rx="1" width="40" x="5" y="12"/></g></svg>
