<svg id="icon" height="64" viewBox="0 0 64 64" width="64" xmlns="http://www.w3.org/2000/svg"><g fill="none" fill-rule="evenodd" transform="translate(6 7)"><path d="m26.755 36.51c-1.536.552-4.022 1.154-7.567 1.154-3.532 0-6.013-.597-7.55-1.149l2.262 11.241h10.685l2.17-11.247zm-12.674-1.372a20.13 20.13 0 0 0 2.071.352v-3.504h-2.071zm4.071-4.152v4.66a26.664 26.664 0 0 0 2.072 0v-7.933h-2.072zm4.072-.813v5.316a19.879 19.879 0 0 0 2.071-.35v-4.966zm6.864 4.802-2.696 13.971a1 1 0 0 1 -.982.81h-12.329a1 1 0 0 1 -.98-.803l-2.811-13.97c-.08-.4.089-.807.428-1.032.34-.222.782-.219 1.117.01.008.004.417.266 1.246.582v-3.557a1 1 0 0 1 1-1h3.071v-3.274a1 1 0 0 1 1-1h4.072a1 1 0 0 1 1 1v1.461h3.071a1 1 0 0 1 1 1v5.37c.831-.317 1.242-.58 1.252-.587a1.008 1.008 0 0 1 1.11 0 .998.998 0 0 1 .431 1.02zm21.451-29.29c-.426-.703-1.113-1.185-1.886-1.32l-24.518-4.325c-.772-.14-1.583.081-2.224.596a3.304 3.304 0 0 0 -1.166 2.012l-3.375 19.132a1 1 0 0 0 1.97.347l3.374-19.132c.057-.324.221-.615.45-.799a.793.793 0 0 1 .624-.186l24.518 4.323c.281.05.448.264.522.387.153.252.207.582.15.905l-5.54 31.42a1.334 1.334 0 0 1 -.451.8c-.112.091-.346.234-.623.185l-10.738-1.893a1 1 0 1 0 -.348 1.969l10.739 1.894c.157.03.314.042.469.042a2.79 2.79 0 0 0 1.754-.637 3.307 3.307 0 0 0 1.167-2.01l5.541-31.42a3.307 3.307 0 0 0 -.409-2.289zm-41.269 39.86a1 1 0 0 1 -1 1h-5.62c-1.436 0-2.65-1.213-2.65-2.65v-14.064c0-1.942.469-3.924 1.32-5.58l2.529-5.005c.722-1.392 1.101-3.023 1.101-4.727v-2.216a2.622 2.622 0 0 1 2.65-2.65h3.301a2.622 2.622 0 0 1 2.65 2.65v2.216c0 1.704.382 3.341 1.104 4.734l.251.446a1 1 0 0 1 -1.786.902l-.245-.436c-.865-1.667-1.324-3.622-1.324-5.646v-2.216c0-.37-.28-.65-.65-.65h-3.301a.635.635 0 0 0 -.65.65v2.216c0 2.024-.457 3.974-1.321 5.64l-2.527 5c-.711 1.385-1.102 3.041-1.102 4.672v14.064c0 .34.31.65.65.65h5.62a1 1 0 0 1 1 1z" fill="var(--db-icon-color, currentColor)" fill-rule="nonzero"/><path d="m33.695 8c-4.71 0-8.695 4.67-8.695 10.4.019 2.529 1.116 4.92 2.997 6.528l.064.08 1.503 2.8a.4.4 0 0 0 .325.19h1.635c.18 0 .502-.19.39-.6a10.327 10.327 0 0 1 -.124-.444s.282.09.53.152c.451.085.908.128 1.366.128.459.006.916-.039 1.366-.133.175-.04.348-.088.518-.147l-.111.445c-.065.25.036.6.428.6h1.66a.272.272 0 0 0 .266-.147l1.477-2.924.056-.076c1.657-1.567 2.617-3.775 2.654-6.102-.021-5.204-3.433-10.679-8.305-10.75zm4.902 16.408-1.285 2.538c-.055.106-.06.164-.158.164h-.69l.103-.418.304-1.186a8.016 8.016 0 0 1 -3.176.83c-1.139 0-3.254-.866-3.241-.821l.334 1.186.111.418h-.672c-.103 0-.107-.04-.175-.165l-1.285-2.413-.068-.084c-1.78-1.499-2.825-3.741-2.851-6.12 0-4.488 2.924-9.453 7.821-9.453h.026c4.195 0 7.466 5.249 7.449 9.88-.055 2.132-.957 4.146-2.492 5.564zm1.412-4.724c.231.195.193.489.043.84-.534 1.068-1.856 2.991-4.345 3.768a7.357 7.357 0 0 1 -5.471-.27c-.497-.236-.527-.658-.377-.89.15-.23.312-.257.732-.08a6.718 6.718 0 0 0 5.411 0c2.107-.888 2.749-2.315 3.292-3.288.081-.114.402-.361.715-.08zm-12.903-3.801c.652-3.445 4.189-6.318 7.434-5.825 1.527.232 3.03 1.217 3.929 2.52a6.4 6.4 0 0 1 1.04 4.652c-.434 3.167-3.917 5.06-7.517 4.66-3.835-.428-5.54-2.557-4.886-6.007zm7.304-4.947c-2.774-.426-5.905 2.165-6.464 5.118-.552 2.914.78 4.578 4.138 4.952 3.241.36 6.259-1.242 6.602-4.068a5.49 5.49 0 0 0 -.913-3.843c-.799-1.156-2.006-1.95-3.363-2.159zm-3.398 3.95c.642-.184 1.466.804 1.84 2.207.373 1.402.155 2.69-.488 2.874-.642.184-1.466-.804-1.84-2.207-.373-1.403-.155-2.69.488-2.874zm3.627-.568c.665-.045 1.278 1.106 1.37 2.571.09 1.465-.375 2.688-1.04 2.733s-1.279-1.106-1.37-2.571.374-2.688 1.04-2.733z" fill="var(--db-icon-pulse-color, #EC0016)" transform="matrix(.98480775 .17364818 -.17364818 .98480775 3.634607 -5.543754)"/></g></svg>
