<svg id="icon" height="20" viewBox="0 0 20 20" width="20" xmlns="http://www.w3.org/2000/svg"><path d="m9.9986849 2c.7957731 0 1.4939682.42211419 1.8160594 1.07074886l5.9785891 12.04033924c.1409345.2838229.2040364.5858503.2040364.8686388 0 1.1111916-.9182158 2.0202731-2.0199913 2.0202731h-11.95738722c-1.10177543 0-2.01999128-.9090815-2.01999128-2.0202731 0-.3029582.06999711-.6014687.20403636-.8686388l6.0194382-11.99999997c.33285194-.66352917 1.02018179-1.11108813 1.77521034-1.11108813zm.0013151 11.9393877c-.57136449 0-1.04065856.4646255-1.04065856 1.0303061 0 .5655772.46929407 1.0303062 1.04065856 1.0303062.5713645 0 1.0406586-.464729 1.0406586-1.0303062 0-.5656806-.4692941-1.0303061-1.0406586-1.0303061zm1-7.9393877h-2v6h2z" fill="var(--db-icon-color, currentColor)" fill-rule="evenodd"/></svg>
