<svg id="icon" height="20" viewBox="0 0 20 20" width="20" xmlns="http://www.w3.org/2000/svg"><path d="m17.904 14.237c.12.498-.172 1.07-.74 1.205-4.264 1.028-8.534 2.051-12.807 3.075a1 1 0 0 1 -1.206-.74c-.12-.498.154-1.045.74-1.205 4.266-1.026 8.535-2.051 12.808-3.074a1 1 0 0 1 1.206.739zm-11.88-5.571c.375.346.445.999.057 1.413a1.5 1.5 0 0 0 1.258 2.51c.376-.04.715-.193 1.057-.61a1 1 0 1 1 1.617 1.177 3.5 3.5 0 1 1 -5.402-4.434 1 1 0 0 1 1.414-.056zm2.378-2.599 1.345 2.207 2.14-.455c.764-.163 1.303.105 1.719.72l1.88 2.696c.063.093.12.262.14.353a.98.98 0 0 1 -.74 1.18c-.46.098-.863-.135-1.091-.471l-1.737-2.47-2.69.572a1.012 1.012 0 0 1 -1.134-.526l-1.653-2.907a1.006 1.006 0 0 1 .688-1.424c.458-.098.91.13 1.133.525zm-2.435-4.055a1.52 1.52 0 0 1 1.78 1.155 1.5 1.5 0 0 1 -1.156 1.78 1.48 1.48 0 0 1 -1.78-1.156 1.5 1.5 0 0 1 1.156-1.78z" fill="#282D37" style="fill: currentColor;fill: var(--db-icon-color, currentColor)" fill-rule="evenodd"/></svg>