<svg id="icon" height="24" viewBox="0 0 24 24" width="24" xmlns="http://www.w3.org/2000/svg"><path d="m17.93 17.82a6.39 6.39 0 0 1 -.915 1.806c-.304.423-.654.766-1.087 1.002a1 1 0 0 1 -.81 1.365l-6.119.007a1 1 0 0 1 -.923-1.386c-.364-.2-.728-.517-1.072-.982a5.872 5.872 0 0 1 -.932-1.811c.584.475 1.276.967 2.136 1.52.588.378 1.383.663 3.791.663s3.16-.258 3.79-.663a23.564 23.564 0 0 0 2.14-1.521zm-4.92-15.82c2.01 0 3.44.756 4.407 2.04.885 1.178 1.48 2.786 1.52 4.363l.057 2.299a19.35 19.35 0 0 1 -.192 3.243l-.523.698c-.811 1.027-1.735 1.836-3.57 3.016-.05.032-.525.344-1.77.344h-1.848c-1.311 0-1.725-.296-1.8-.344-1.835-1.18-2.759-1.99-3.57-3.016l-.528-.706c-.124-.865-.193-2.024-.187-3.192.004-.778.023-1.559.058-2.342a7.571 7.571 0 0 1 1.52-4.362c.918-1.22 2.268-1.964 4.118-2.035zm1.084 11.574-.543 1.61a1 1 0 0 0 1.855.74l.543-1.61a1 1 0 0 0 -1.855-.74zm-4.203-.006a1 1 0 0 0 -1.88.64l.586 1.723a1 1 0 0 0 1.88-.64zm2.11-9.568c-.718 0-1.469 0-2.798.374-1.329.376-2.228 1.888-2.018 3.226.186.82.304 1.316.355 1.487a2.148 2.148 0 0 0 1.579 1.478c1.113.192 2.073.29 2.882.294.81.004 1.717-.084 2.722-.264a2.148 2.148 0 0 0 1.742-1.508c.074-.25.293-1.125.324-1.314.33-1.459-.641-3.02-1.986-3.396-1.343-.377-2.086-.377-2.803-.377z" fill="#282D37" style="fill: currentColor;fill: var(--db-icon-color, currentColor)" fill-rule="evenodd"/></svg>