<svg id="icon" height="24" viewBox="0 0 24 24" width="24" xmlns="http://www.w3.org/2000/svg"><path d="m19.414 19.252.129.105.186.134c.07.048.15.098.234.149.331.196.649.32.91.352l.127.008a1 1 0 0 1 .117 1.993l-.121.007c-.701-.001-1.386-.245-2.052-.64l-.194-.12-.194.12c-.592.351-1.199.583-1.819.63l-.253.01c-.697-.004-1.377-.247-2.04-.64l-.194-.12-.194.12c-.592.351-1.199.583-1.818.63l-.241.01c-.702 0-1.387-.245-2.054-.64l-.193-.12-.193.12c-.594.352-1.202.584-1.823.631l-.234.009c-.703 0-1.39-.244-2.058-.64l-.192-.119-.192.12c-.668.394-1.355.639-2.058.639a1 1 0 0 1 -.117-1.993l.117-.007c.282 0 .651-.131 1.038-.36.127-.076.24-.15.333-.218l.158-.121.056-.048a1 1 0 0 1 1.231-.077l.227.182c.106.081.25.181.42.282.33.196.649.32.91.352l.127.008.126-.008c.261-.031.58-.156.911-.352.085-.05.163-.1.234-.149l.186-.133.129-.105a1 1 0 0 1 1.328 0l.129.105.186.133c.07.048.15.098.234.149.331.196.65.32.91.352l.128.008c.282 0 .65-.131 1.036-.36.085-.05.163-.1.234-.149l.186-.134.129-.105a1 1 0 0 1 1.23-.077l.227.182.186.134c.07.048.15.098.234.149.33.195.646.319.907.351l.13.009c.282 0 .65-.131 1.036-.36.085-.05.163-.1.234-.149l.186-.134.129-.105a1 1 0 0 1 1.328 0zm-6.15-17.252a2 2 0 0 1 1.855 1.25l.055.153 2.061 6.597h3.765a1 1 0 0 1 1 1.037 9.1 9.1 0 0 1 -3.371 6.74 1 1 0 0 1 -1.258-1.554 7.1 7.1 0 0 0 2.502-4.157l.011-.066h-16.884a1 1 0 0 1 -.993-.883l-.007-.117a1 1 0 0 1 .883-.993l.117-.007h12.139l-.625-2h-9.514a1 1 0 0 1 -.117-1.993l.117-.007h8.889l-.624-2h-10.265a1 1 0 0 1 -.117-1.993l.117-.007h10.265zm-2.014 11.75a1.25 1.25 0 1 1 0 2.5 1.25 1.25 0 0 1 0-2.5zm4 0a1.25 1.25 0 1 1 0 2.5 1.25 1.25 0 0 1 0-2.5zm-8 0a1.25 1.25 0 1 1 0 2.5 1.25 1.25 0 0 1 0-2.5zm-4 0a1.25 1.25 0 1 1 0 2.5 1.25 1.25 0 0 1 0-2.5z" fill="#282D37" style="fill: currentColor;fill: var(--db-icon-color, currentColor)" fill-rule="evenodd"/></svg>