<svg id="icon" height="32" viewBox="0 0 32 32" width="32" xmlns="http://www.w3.org/2000/svg"><path d="m9.585 3.152h12.83c1.176.016 1.802.152 2.451.5.637.34 1.142.845 1.483 1.482.347.65.483 1.275.5 2.451l.001 16.492c0 .738-.077 1.139-.3 1.556-.14.261-.325.487-.549.67l-.001 1.697a1 1 0 0 1 -1 1h-2a1 1 0 0 1 -1-1v-1.15h-12v1.15a1 1 0 0 1 -1 1h-2a1 1 0 0 1 -1-1l-.001-1.696a2.215 2.215 0 0 1 -.548-.67c-.201-.377-.284-.739-.299-1.345v-16.704c.016-1.176.152-1.802.5-2.451a3.576 3.576 0 0 1 1.481-1.484c.65-.347 1.275-.483 2.451-.5zm-1.235 18.598a1.5 1.5 0 1 0 .001 3.001 1.5 1.5 0 0 0 -.001-3.001zm15.3 0a1.5 1.5 0 1 0 .001 3.001 1.5 1.5 0 0 0 -.001-3.001zm1.5-13.75h-18.3v11.043c3.15.493 6.382.707 9.15.707 3.05 0 6.1-.236 9.15-.707zm3.85 1.165c.433 0 .85.351.843.85l.007 3c0 .47-.38.85-.85.85a.844.844 0 0 1 -.844-.85l-.006-3c0-.47.38-.85.85-.85zm-26 0c.433 0 .85.338.85.85v3a.85.85 0 0 1 -1.7 0v-3c0-.47.38-.85.85-.85zm8-5.015a.855.855 0 0 0 -.85.85c0 .433.342.85.85.85l10.012-.007c.48.007.838-.41.838-.843s-.34-.85-.838-.843z" fill="#282D37" style="fill: currentColor;fill: var(--db-icon-color, currentColor)" fill-rule="evenodd"/></svg>