<svg id="icon" height="16" viewBox="0 0 16 16" width="16" xmlns="http://www.w3.org/2000/svg"><path d="m11.7139 2c1.263 0 2.286 1.023 2.286 2.285v7.429c0 1.262-1.023 2.286-2.286 2.286h-7.428c-1.263 0-2.286-1.024-2.286-2.286v-7.429c0-1.262 1.023-2.285 2.286-2.285zm0 2h-7.428c-.158 0-.286.128-.286.285v7.429c0 .158.128.286.286.286h7.428c.158 0 .286-.128.286-.286v-7.429c0-.157-.128-.285-.286-.285zm-6.01978644 1.75321356c.389-.393 1.023-.392 1.415-.002l.87378644.86578644.87278644-.86578644c.392-.389 1.024-.391 1.41499996.002.39.392.389 1.024-.002 1.414l-.8697864.86178644.8697864.86178644c.391.389.392 1.022.002 1.41399996-.195.196-.45199996.294-.70799996.294s-.511-.098-.707-.292l-.87278644-.8657864-.87378644.8657864c-.196.194-.451.292-.70600192.292-.25699808 0-.51299808-.098-.70899808-.294-.389-.39199996-.388-1.02499996.003-1.41399996l.86878644-.86178644-.86878644-.86178644c-.391-.39-.392-1.022-.003-1.414z" fill="var(--db-icon-color, #55b9e6)" fill-rule="evenodd"/></svg>
