<svg id="icon" height="20" viewBox="0 0 20 20" width="20" xmlns="http://www.w3.org/2000/svg"><path d="m16.25 13.5a1.75 1.75 0 1 1 0 3.5 1.75 1.75 0 0 1 0-3.5zm-8.49 1.373c.311 1.212-.745 2.127-1.71 2.127s-1.97-.833-1.71-2.127h-1.34a.85.85 0 0 1 -.843-.744l-.007-.44c0-1.877 1.583-3.516 3.324-3.511l2.474-.005-.445-1.474-2.503.001c-.491 0-.85-.4-.85-.85s.359-.85.85-.85h2.6c.623 0 1.267.485 1.482 1.058l1.548 5.114h1.024l3.496-3.523v-2.248c0-.254-.13-.53-.372-.53l-1.832-.008a.85.85 0 0 1 -.85-.85c0-.434.367-.85.85-.85h1.832c1.12 0 1.993.937 2.067 2.08l.005 2.757a.85.85 0 0 1 -.174.515l-4.064 4.106a.895.895 0 0 1 -.604.252z" fill="var(--db-icon-color, currentColor)" fill-rule="evenodd"/></svg>
