<svg id="icon" height="32" viewBox="0 0 32 32" width="32" xmlns="http://www.w3.org/2000/svg"><path d="m11.147 2.152h9.706c1.072.014 1.642.125 2.245.41a3.56 3.56 0 0 1 1.463 1.269c.306.462.489.919.637 1.668.099.5.316 2 .652 4.501v13.436c0 .941-.095 1.431-.368 1.942-.129.242-.29.458-.48.646l-.002 1.976a1 1 0 0 1 -1 1h-2a1 1 0 0 1 -1-1v-1.15h-10v1.15a1 1 0 0 1 -1 1h-2a1 1 0 0 1 -1-1v-1.975a2.686 2.686 0 0 1 -.482-.647c-.25-.468-.351-.919-.366-1.716l-.002-13.662c.298-2.221.499-3.634.604-4.24.157-.909.345-1.415.685-1.93a3.56 3.56 0 0 1 1.463-1.268c.603-.285 1.173-.396 2.245-.41zm8.591 19.984a1.125 1.125 0 0 0 .312 2.215l3.362-.472a1.125 1.125 0 0 0 -.312-2.215zm-10.838-.48a1.125 1.125 0 0 0 -.312 2.215l3.362.473a1.125 1.125 0 0 0 .312-2.215zm11.903-17.805c-6.273-.01-9.605-.007-9.995.01-.585.024-.877.095-1.179.238-.32.152-.454.265-.772.67-.211.269-.367.775-.467 1.516l-.54 3.772v8.506c.915.54 1.668.854 2.26.943.888.134 3.55.2 5.89.2s5.036-.054 5.889-.2c.568-.097 1.322-.411 2.261-.943v-8.499l-.54-3.779c-.089-.67-.228-1.15-.418-1.44-.285-.434-.449-.511-.821-.746-.249-.157-.771-.24-1.568-.248zm7.197 4.314c.433 0 .85.351.85.85v4a.85.85 0 0 1 -1.7 0v-4c0-.47.38-.85.85-.85zm-24 0c.433 0 .85.367.85.85v4a.85.85 0 0 1 -1.7 0v-4c0-.47.38-.85.85-.85zm17.5.485a.85.85 0 0 1 0 1.7h-11a.85.85 0 0 1 0-1.7z" fill="var(--db-icon-color, currentColor)" fill-rule="evenodd"/></svg>
