<svg id="icon" height="64" viewBox="0 0 64 64" width="64" xmlns="http://www.w3.org/2000/svg"><g fill="none" fill-rule="evenodd" transform="translate(4 5.999)"><path d="m40.877 6.001c2.218 0 4.284 1.525 4.85 3.788 1.058 4.222 2.115 8.445 3.169 12.669 1.262.74 1.86 2.376 1.986 4.85a35.867 35.867 0 0 1 -.139 4.319l-.57 6.427c-.113 1.176-.524 2.169-1.174 2.92l.001 5.464c0 2.221-.939 3.563-3.564 3.564h-2.872c-1.892 0-3.563-.706-3.564-3.564v-2.95c-3.362.326-7.046.514-11 .514s-7.638-.188-11.002-.514l.002 2.95c0 2.089-.86 3.562-3.564 3.564h-2.872c-2.657-.001-3.564-1.408-3.564-3.565 0-1.825 0-3.65.002-5.476-.6-.709-1.071-1.832-1.17-2.942-.211-2.361-.42-4.723-.627-7.085-.073-2.128-.103-3.338-.09-3.631.14-2.925.806-4.18 1.991-4.859l3.166-12.654a5.01 5.01 0 0 1 4.851-3.79h25.754zm-31.877 36.295v4.712c.018.637.533.991 1.012.992 1.606.004 2.379.004 3.984 0 .58-.001.997-.493 1.002-.992.012-1.244.012-2.489-.001-3.735-2.96-.353-4.959-.679-5.998-.977zm38-.008c-.376.163-2.376.49-6 .983a765.33 765.33 0 0 0 0 3.729c0 .62.535 1.001 1.003 1.001h3.997c.454 0 1.001-.46 1-1v-4.714zm0-18.288h-38c-1.07 0-1.679.95-1.852 3.007-.03.535-.046.866-.048.993h4.9a2.988 2.988 0 0 1 3 3v1c0 1.598-1.275 2.868-3 3a2003.6 2003.6 0 0 1 -4.43 0l.253 2.834c.15 1.552 1.003 2.5 2.31 2.675 1.866.24 7.289 1.491 17.867 1.491s16.584-1.25 17.847-1.488 2.11-1.032 2.31-2.439l.278-3.073h-4.435a3.017 3.017 0 0 1 -3-3v-1c0-1.597 1.296-2.998 3-3h4.897c-.06-2.627-.632-4-1.897-4zm-12.316 5c2.265 0 3.303 1.552 3.316 3v1c0 2-1.552 3-3.316 3-4.456.002-9.012.002-13.67 0a3.017 3.017 0 0 1 -3.014-3v-1a3.003 3.003 0 0 1 3.014-3c4.456-.002 9.013-.002 13.67 0zm.296 2h-13.966c-.553 0-1.014.5-1.014 1l.003 1c-.003.516.365 1 1.011 1h13.966c.411 0 1.017-.494 1.02-1v-1c0-.582-.47-1-1.02-1zm13.876-1h-4.856c-.513 0-.997.43-1 1-.003.5 0 1 0 1 0 .513.42 1 1 1 2.305.004 3.498 0 4.611 0 .097-1 .177-1.857.245-3zm-36.856 0c-1.617-.002-3.235-.002-4.853 0l.246 3h4.607c.513 0 1-.5 1-1v-1a.991.991 0 0 0 -1-1zm41-8c1.688 0 3 1.403 3 3a3 3 0 0 1 -3 3 1 1 0 0 1 -1-1c0-.513.43-1 1.006-1s.994-.487.994-1-.41-.996-1-1c-.5-.003-.5.003-1 0a.987.987 0 0 1 -1-1 .987.987 0 0 1 1-1c.5-.003.584.007 1 0zm-49 0a1 1 0 0 1 1 1 .994.994 0 0 1 -1 1c-.333.002-.667.002-1 0a1 1 0 0 0 -1 1c0 .513.448 1 1 1a1 1 0 1 1 0 2 3 3 0 0 1 -3-3 3.01 3.01 0 0 1 3-3zm36.877-14h-25.754a3.006 3.006 0 0 0 -2.91 2.273c-.98 3.909-1.957 7.818-2.933 11.727h37.44l-2.933-11.727a2.982 2.982 0 0 0 -2.91-2.273z" fill="#282D37" style="fill: currentColor;fill: var(--db-icon-color, currentColor)" fill-rule="nonzero"/><path d="m33.5.001c1.325 0 2.489 1.1 2.5 2.5v.5a1 1 0 0 1 -1 1c-.513 0-.993-.369-1-1a22.915 22.915 0 0 1 0-.5c0-.245-.206-.5-.5-.5-3.665-.002-7.331-.002-11 0-.245 0-.5.214-.5.5-.002.167-.002.334 0 .5a1 1 0 0 1 -2 0 22.915 22.915 0 0 1 0-.5c0-1.325 1-2.499 2.5-2.5h11z" fill="#EC0016" style="fill:#EC0016;fill: var(--db-icon-pulse-color, #EC0016)"/></g></svg>
