<svg id="icon" height="64" viewBox="0 0 64 64" width="64" xmlns="http://www.w3.org/2000/svg"><g fill="none" fill-rule="evenodd" transform="translate(4 8)"><path d="m47 22c4.412 0 8 3.588 8 8v17a1 1 0 0 1 -2 0v-17a6.006 6.006 0 0 0 -5.71-5.992c-.968.69-2.852 2.604-6.48 7.636-.375.52-1.245.52-1.621 0-3.63-5.03-5.514-6.944-6.48-7.636a5.951 5.951 0 0 0 -3.954 1.748 5.963 5.963 0 0 0 -1.756 4.244v17a1 1 0 0 1 -2 0v-17c0-2.138.83-4.148 2.342-5.658a7.956 7.956 0 0 1 5.658-2.342c.184 0 .364.05.52.144 1.412.858 3.536 3.224 6.48 7.216 2.941-3.992 5.067-6.356 6.48-7.216.155-.094.335-.144.52-.144zm-21.163-17a1 1 0 0 1 0 2h-12.545a2.181 2.181 0 0 0 -2.122 1.642l-2.27 9.024h19.145a.997.997 0 0 1 1 .998 1 1 0 0 1 -1 1h-19.63c-.383 0-.555.136-.675.266-.366.404-.57 1.242-.618 2.484h3.676c1.434 0 2.6 1.166 2.6 2.6v.758a2.604 2.604 0 0 1 -2.6 2.602h-3.3l.182 2.042c.106 1.106.676 1.75 1.686 1.906.008.002.014.008.022.008h.022c.056.012 5.677 1.126 12.153 1.372a1 1 0 0 1 -.038 2h-.04a85.176 85.176 0 0 1 -6.496-.51v2.026c0 .796-.086 1.238-.332 1.696a2.44 2.44 0 0 1 -1.017 1.008c-.45.242-.894.328-1.692.328h-2.288c-.798 0-1.242-.086-1.7-.332a2.431 2.431 0 0 1 -1.01-1.004c-.246-.458-.332-.902-.332-1.696v-4.292c-.502-.616-.842-1.39-.932-2.322l-.428-4.812c-.374-3.864-.076-6.02 1-7.204.138-.152.288-.284.45-.4l2.524-10.034a4.173 4.173 0 0 1 4.06-3.154zm-17.22 29.16-.001 3.058c0 .572.052.67.094.746a.427.427 0 0 0 .188.188c.084.046.182.098.76.098h2.288c.578 0 .676-.052.754-.094a.44.44 0 0 0 .194-.192c.042-.076.094-.174.094-.746v-2.28a72.735 72.735 0 0 1 -3.974-.646c-.022-.004-.04-.02-.062-.026-.12-.02-.218-.076-.334-.106zm14.22-10.91a1 1 0 0 1 0 2h-1.992c-.568 0-.658.052-.73.094a.512.512 0 0 0 -.21.23c-.01.06-.196.824-.922 4.854a1.003 1.003 0 0 1 -1.162.806 1 1 0 0 1 -.806-1.162c.86-4.776.996-5.174 1.09-5.368l.012-.024a2.533 2.533 0 0 1 1.004-1.07c.456-.264.91-.36 1.726-.36zm-12.041 1.166h-3.64c.024.378.054.772.094 1.192l.068.768h3.478c.33 0 .6-.27.6-.602v-.758a.6.6 0 0 0 -.6-.6zm29.203-24.416c2.705 0 5.413.54 8.12 1.618a2.979 2.979 0 0 1 1.88 2.762v.848c0 1.264-.859 2.318-2.023 2.652a8.85 8.85 0 0 1 1.022 4.12 9 9 0 0 1 -18 0 8.85 8.85 0 0 1 1.023-4.12c-1.164-.334-2.022-1.388-2.022-2.652v-.848c0-1.216.744-2.308 1.88-2.762 2.706-1.078 5.414-1.618 8.12-1.618zm-35 15.25a1 1 0 0 1 0 2l-2.875.002-.124.232a.6.6 0 0 0 .346.542l.678.318a1 1 0 0 1 -.85 1.812l-.678-.318a2.613 2.613 0 0 1 -1.496-2.356c0-1.278.952-2.232 2.124-2.232h2.876zm41.537-5.622a7.984 7.984 0 0 1 -6.536 3.372 7.981 7.981 0 0 1 -6.538-3.372c-.276.744-.462 1.53-.462 2.372a7 7 0 1 0 14 0c0-.842-.187-1.628-.463-2.372zm-1.284-1.628h-10.507a6.037 6.037 0 0 0 5.254 3.028 6.037 6.037 0 0 0 5.253-3.028zm-5.255-6.008c-2.44 0-4.924.496-7.382 1.476a.983.983 0 0 0 -.624.912l-.004.846c0 .43.36.78.802.78h14.411c.442 0 .802-.35.802-.78v-.848a.982.982 0 0 0 -.626-.912c-2.456-.978-4.94-1.474-7.38-1.474z" fill="#282D37" style="fill: currentColor;fill: var(--db-icon-color, currentColor)" fill-rule="nonzero"/><path d="m49.998 32h-5a1 1 0 0 0 0 2h5a1 1 0 0 0 0-2z" fill="#EC0016" style="fill:#EC0016;fill: var(--db-icon-pulse-color, #EC0016)"/></g></svg>
