<svg id="icon" height="24" viewBox="0 0 24 24" width="24" xmlns="http://www.w3.org/2000/svg"><path d="m7.739 9.719a1.666 1.666 0 0 1 1.656-1.969h5.187c1.032 0 1.844.906 1.688 1.906l-.75 5.344a1.64 1.64 0 0 1 -1.063 1.313v4.718a.974.974 0 0 1 -.968.969.974.974 0 0 1 -.97-.969v-5.593c0-.532.345-.97 1.126-.97l.656-4.78h-4.594l.688 4.78c.75 0 1.156.407 1.156.97v5.593a.974.974 0 0 1 -.969.969.974.974 0 0 1 -.968-.969v-4.718c-.563-.22-1-.72-1.094-1.282l-.781-5.311zm2.011-5.469a2.25 2.25 0 1 0 4.5 0 2.25 2.25 0 0 0 -4.5 0z" fill="#282D37" style="fill: currentColor;fill: var(--db-icon-color, currentColor)" fill-rule="evenodd"/></svg>
