<svg id="icon" height="32" viewBox="0 0 32 32" width="32" xmlns="http://www.w3.org/2000/svg"><path d="m26.0002 18c2.2092847 0 4 1.7907153 4 4s-1.7907153 4-4 4-4-1.7907153-4-4 1.7907153-4 4-4zm-14 4c0 2.2110144-1.7907153 4-4 4-2.14233673 0-4-1.7524437-4-4-.32477611 0-.65810944 0-1 0-.51283584 0-.93550716-.3860402-.99327227-.8833789l-.00672773-2.1166211c0-2.6886194 2.12243849-4.881811 4.78312078-4.9953802l5.07187922-.0046198-.6-2h-4.255c-.56985437 0-1-.4871642-1-1s.41417113-1 1-1h4.256c.8281469 0 1.5652429.510314 1.8615488 1.2703928l2.6244512 8.7296072h2.797l5.461-6.371v-3.629c0-.51230702-.3805022-.99326417-1-.99326417-.4129985 0-1.4129985-.00224528-3-.00673583-.5522847 0-1-.44771525-1-1 0-.51283584.4188024-1 1-1h3c1.5971317 0 2.9036217 1.24944951 2.9949052 2.82378395l.0050948 4.17621605c0 .190969-.054651.3768985-.1560512.536428l-6.0846922 7.1143634c-.1628419.1899822-.3838937.3492086-.7592566.3492086-.250242 0-2.5835753 0-7 0zm14-2c-1.1047153 0-2 .8952847-2 2s.8952847 2 2 2 2-.8952847 2-2-.8952847-2-2-2zm-19.99453887 2c-.00546113 1.1713636.94003795 2 1.99453887 2s1.99451513-.8287404 1.99451513-2zm6.43753887-6h-5.443c-1.59754685 0-2.90365131 1.2490492-2.99490679 2.8237411l-.00509321 1.1762589h9.652z" fill="var(--db-icon-color, currentColor)" fill-rule="evenodd"/></svg>
