<svg id="icon" height="24" viewBox="0 0 24 24" width="24" xmlns="http://www.w3.org/2000/svg"><path d="m14.934 2c.282 0 .54.117.728.305l4.014 3.967c.211.212.305.47.305.728v8.052c1.409.962 2.019 2.065 2.019 3.756 0 1.854-1.033 3.145-2.7 3.145h-2.535c-1.455 0-2.652-1.197-2.652-2.676a11.523 11.523 0 0 0 -2.113-.164c-.751 0-1.573.07-2.113.164 0 1.479-1.197 2.676-2.652 2.676h-2.536c-1.596 0-2.699-1.22-2.699-3.145 0-1.69.61-2.817 2.042-3.78v-11.08c0-1.08.869-1.948 1.925-1.948zm-2.91 13.122c-3.991 0-8.005 1.127-8.005 3.686 0 .61.094 1.15.68 1.15h2.536c.352 0 .633-.305.633-.681v-.822c0-.962 1.221-1.338 4.132-1.338 2.559 0 4.131.352 4.131 1.338v.822c0 .376.282.68.634.68h2.535c.54 0 .681-.445.681-1.15 0-2.652-3.427-3.685-7.958-3.685zm-6.024-11.127v10.095c1.526-.657 3.404-.962 5.962-.962 2.653 0 4.653.356 6.038.967v-5.095h-3.99c-.518 0-1.01-.413-1.01-1v-4zm9.005.47v2.535h2.582z" fill="#282D37" style="fill: currentColor;fill: var(--db-icon-color, currentColor)" fill-rule="evenodd"/></svg>
