<svg id="icon" height="24" viewBox="0 0 24 24" width="24" xmlns="http://www.w3.org/2000/svg"><path d="m21.026 19.998c.553 0 .974.474.974 1.027a.955.955 0 0 1 -.974.973h-18.022c-.553 0-1-.42-1-.973s.447-1.027 1-1.027zm-6.723-17.996c.94.003 1.699.767 1.697 1.707v1.296h3.35c.931.007 1.654.766 1.65 1.698v9.62a1.648 1.648 0 0 1 -1.65 1.675h-14.668a1.674 1.674 0 0 1 -1.682-1.675v-9.62a1.694 1.694 0 0 1 1.682-1.698h3.318v-1.295a1.704 1.704 0 0 1 1.698-1.707zm4.697 4.996h-14v9h14zm-10.482 2.124a1 1 0 0 1 .492.889v3.004a1 1 0 1 1 -2 0v-3.005a1 1 0 0 1 1.508-.89zm8.01 0a1 1 0 0 1 .492.889v3.004a1 1 0 1 1 -2 0v-3.005a1 1 0 0 1 1.509-.89zm-2.528-5.12h-4v1.003h4v-1.002z" fill="#282D37" style="fill: currentColor;fill: var(--db-icon-color, currentColor)" fill-rule="evenodd"/></svg>
