<svg id="icon" height="32" viewBox="0 0 32 32" width="32" xmlns="http://www.w3.org/2000/svg"><path d="m12.41 8.16a3.084 3.084 0 0 0 3.08-3.08 3.084 3.084 0 0 0 -3.08-3.08 3.085 3.085 0 0 0 -3.08 3.08 3.084 3.084 0 0 0 3.08 3.08zm0-4.16a1.08 1.08 0 1 1 0 2.161 1.08 1.08 0 0 1 0-2.161zm-1.98 5.937 2.692 2.653 2.247.577c.535.139.857.684.72 1.219a1 1 0 0 1 -1.218.72l-2.507-.645a1.002 1.002 0 0 1 -.453-.257l-2.12-2.089c-.938 1.218-2.423 3.667-1.068 5.637l3.804 3.845c.146.147.242.337.276.541l1.098 6.701a1 1 0 0 1 -1.974.324l-1.046-6.387-3.638-3.677a1.031 1.031 0 0 1 -.101-.118c-2.96-4.106 1.679-8.839 1.878-9.038a1 1 0 0 1 1.41-.006zm7.07 17.063a1.5 1.5 0 1 1 0 3 1.5 1.5 0 0 1 0-3zm8.999 0a1.5 1.5 0 1 1 0 3 1.5 1.5 0 0 1 0-3zm-19.331-6.242a1 1 0 0 1 .713 1.221l-1.913 7.275a1.001 1.001 0 0 1 -1.935-.508l1.913-7.275a.998.998 0 0 1 1.222-.713zm12.832-6.758a1 1 0 0 1 .97.758l.81 3.242h4.22a1 1 0 0 1 .754 1.657l-2.213 2.539.81 3.244a1 1 0 1 1 -1.94.485l-.472-1.891-2.258 2.591a.997.997 0 0 1 -1.411.097 1 1 0 0 1 -.097-1.411l4.63-5.311h-2.803a1 1 0 0 1 -.97-.758l-.81-3.242h-1.22a1 1 0 1 1 0-2z" fill="#282D37" style="fill: currentColor;fill: var(--db-icon-color, currentColor)" fill-rule="evenodd"/></svg>
