<svg id="icon" height="32" viewBox="0 0 32 32" width="32" xmlns="http://www.w3.org/2000/svg"><path d="m23.5 2c1.5 0 2.5 1 2.5 2.5v24c0 .633-.56 1.5-1.645 1.5-.444.008-.856-.078-1.353-.322l-7.002-3.678a446.893 446.893 0 0 0 -6.994 3.583c-.593.314-.853.42-1.436.417-.787 0-1.554-.52-1.57-1.565v-23.935c0-1.5 1-2.5 2.5-2.5zm0 2h-15c-.317 0-.5.254-.5.5v23.352l7.065-3.63a2.16 2.16 0 0 1 .935-.222c.312 0 .623.074.934.223l7.066 3.629v-23.352a.5.5 0 0 0 -.5-.5z" fill="#282D37" style="fill: currentColor;fill: var(--db-icon-color, currentColor)" fill-rule="evenodd"/></svg>
