<svg id="icon" height="20" viewBox="0 0 20 20" width="20" xmlns="http://www.w3.org/2000/svg"><path d="m7.214 2.002 5.346-.002c.79 0 1.2.06 1.65.24.432.172.802.44 1.103.794.282.333.46.666.676 1.276l.232.69h1.279v4h-1v5.718c0 .488-.05.805-.187 1.111-.138.306-.217.38-.311.49l-.002 1.681h-2.5v-1h-7v1h-2.5v-1.68a1.927 1.927 0 0 1 -.248-.36c-.164-.306-.234-.6-.249-1.043l-.003-5.917h-1v-4h1.278l.16-.475c.225-.676.448-1.136.749-1.49.3-.356.67-.623 1.103-.796.404-.162.777-.226 1.424-.237zm-1.69 11.81a.875.875 0 0 0 -.261 1.727l1.354.126a.875.875 0 0 0 .261-1.727zm7.708.11a.875.875 0 0 0 .042 1.745l1.355-.111a.875.875 0 0 0 -.042-1.746l-1.355.111zm1.268-6.172h-9l.003 4.354c1.521.149 3.383.25 4.497.25s2.382-.062 3.803-.186l.696-.066zm-1.784-3.75-5.502.002c-.287 0-.524.007-.801.158-.185.1-.361.383-.528.85l-.385 1.24h8.999a19.948 19.948 0 0 0 -.43-1.368c-.14-.366-.287-.608-.484-.724-.196-.117-.353-.156-.87-.157z" fill="#282D37" style="fill: currentColor;fill: var(--db-icon-color, currentColor)" fill-rule="evenodd"/></svg>
