<svg id="icon" height="64" viewBox="0 0 64 64" width="64" xmlns="http://www.w3.org/2000/svg"><g fill="none" fill-rule="evenodd" transform="translate(9.238 8.5)"><path d="m22.762 3.5a1 1 0 0 1 .993.883l.007.117v1l-.002.026c10.03.519 18.002 8.815 18.002 18.974 0 5.943-2.729 11.248-7.001 14.732l3.869 6.772a1 1 0 0 1 -1.673 1.09l-.064-.098-3.758-6.575a18.911 18.911 0 0 1 -10.373 3.079 18.911 18.911 0 0 1 -10.374-3.08l-3.758 6.577a1 1 0 0 1 -1.789-.888l.052-.104 3.87-6.771c-4.273-3.485-7.001-8.791-7.001-14.734 0-10.159 7.972-18.455 18.002-18.974l-.002-.026v-1a1 1 0 0 1 1-1zm0 4c-9.39 0-17 7.611-17 17s7.61 17 17 17c9.388 0 17-7.611 17-17s-7.612-17-17-17zm-9.105-3.22a1 1 0 1 1 -1.414 1.414 6 6 0 1 0 -8.486 8.485 1 1 0 1 1 -1.414 1.414 8 8 0 1 1 11.314-11.313zm29.231-.407a8 8 0 0 1 .006 11.308 1 1 0 1 1 -1.416-1.413 6 6 0 0 0 -8.485-8.485 1 1 0 0 1 -1.413-1.415 8 8 0 0 1 11.308.005zm-20.126-3.873c1.208 0 2.397.397 3.554 1.168a1 1 0 1 1 -1.11 1.664c-.841-.562-1.651-.832-2.443-.832s-1.603.27-2.446.832a1 1 0 1 1 -1.11-1.664c1.158-.771 2.348-1.168 3.556-1.168z" fill="#282D37" style="fill: currentColor;fill: var(--db-icon-color, currentColor)" fill-rule="nonzero"/><path d="m32.247 17.643a1 1 0 0 1 1.126 1.649l-.097.065-10 6a1 1 0 0 1 -.89.07l-.12-.059-7-4a1 1 0 0 1 .887-1.788l.105.052 6.492 3.708z" fill="#EC0016" style="fill:#EC0016;fill: var(--db-icon-pulse-color, #EC0016)"/></g></svg>
