<svg id="icon" height="64" viewBox="0 0 64 64" width="64" xmlns="http://www.w3.org/2000/svg"><g fill="none" fill-rule="evenodd" transform="translate(9 8)"><path d="m41 0a5 5 0 0 1 4.995 4.783l.005.217v16a5 5 0 0 1 -4.783 4.995l-.217.005h-3v2h3a5 5 0 0 1 4.995 4.783l.005.217v3a5 5 0 0 1 -4.783 4.995l-.217.005h-3v6a1 1 0 0 1 -1.993.117l-.007-.117v-6h-26v6a1 1 0 0 1 -1.993.117l-.007-.117v-6h-3a5 5 0 0 1 -4.995-4.783l-.005-.217v-3a5 5 0 0 1 4.783-4.995l.217-.005h3v-2h-3a5 5 0 0 1 -4.995-4.783l-.005-.217v-16a5 5 0 0 1 4.783-4.995l.217-.005zm0 30h-36a3 3 0 0 0 -2.995 2.824l-.005.176v3a3 3 0 0 0 2.824 2.995l.176.005h36a3 3 0 0 0 2.995-2.824l.005-.176v-3a3 3 0 0 0 -3-3zm-32.445 2.168a1 1 0 0 1 .336 1.286l-.059.1-2 3a1 1 0 0 1 -1.723-1.008l.059-.1 2-3a1 1 0 0 1 1.387-.278zm8 0a1 1 0 0 1 .336 1.286l-.059.1-2 3a1 1 0 0 1 -1.723-1.008l.059-.1 2-3a1 1 0 0 1 1.387-.278zm8 0a1 1 0 0 1 .336 1.286l-.059.1-2 3a1 1 0 0 1 -1.723-1.008l.059-.1 2-3a1 1 0 0 1 1.387-.278zm8 0a1 1 0 0 1 .336 1.286l-.059.1-2 3a1 1 0 0 1 -1.723-1.008l.059-.1 2-3a1 1 0 0 1 1.387-.278zm8 0a1 1 0 0 1 .336 1.286l-.059.1-2 3a1 1 0 0 1 -1.723-1.008l.059-.1 2-3a1 1 0 0 1 1.387-.278zm-4.555-6.168h-26v2h26zm5-24h-36a3 3 0 0 0 -2.995 2.824l-.005.176v16a3 3 0 0 0 2.824 2.995l.176.005h36a3 3 0 0 0 2.995-2.824l.005-.176v-16a3 3 0 0 0 -3-3z" fill="#282D37" style="fill: currentColor;fill: var(--db-icon-color, currentColor)" fill-rule="nonzero"/><path d="m23.08 5c.78 0 1.412.44 1.75 1.085l5.967 12.17c.135.304.203.61.203.88 0 1.12-.774 2.027-1.859 2.027h-12.12a2.044 2.044 0 0 1 -2.021-2.026c0-.305.068-.61.203-.882l6.034-12.101c.305-.678 1.098-1.153 1.844-1.153zm0 2.02-6.06 12.121h12.121l-6.06-12.12zm-1.01 8.081v-4.04h2.02v4.04zm1.01 1.018c.555 0 1.01.456 1.01 1.01s-.455 1.01-1.01 1.01c-.553 0-1.01-.456-1.01-1.01s.457-1.01 1.01-1.01z" fill="#EC0016" style="fill:#EC0016;fill: var(--db-icon-pulse-color, #EC0016)"/></g></svg>
