<svg id="icon" height="24" viewBox="0 0 24 24" width="24" xmlns="http://www.w3.org/2000/svg"><path d="m20.207 3.793c.36.36.406 1.01 0 1.414a6724.93 6724.93 0 0 1 -7.554 7.554l.228 1.243 3.654.004c.447 0 .848.307.966.754l1.507 5.987c.142.613-.33 1.249-.966 1.249-.47 0-.895-.33-.989-.754l-1.296-5.244h-3.722c-.494 0-.895-.354-.986-.833l-.123-.68-3.058 3.06c.232.286.593.452.987.452h4.157c.542 0 .99.5.99 1.042 0 .566-.448.958-.99.958h-4.157a3.25 3.25 0 0 1 -2.403-1.037l-2.745 2.744a1 1 0 0 1 -1.414 0c-.36-.36-.422-1.044 0-1.414a35131.1 35131.1 0 0 1 16.5-16.5 1 1 0 0 1 1.414 0zm-17.217-.793c1.814 0 3.012 1.272 3.012 3.25v2.663l.81 4.039-1.698 1.697-1.044-5.194a3.256 3.256 0 0 1 -.07-.66v-2.544c0-.872-.35-1.249-1.01-1.249a.995.995 0 0 1 -.99-.989 1 1 0 0 1 .99-1.013zm7.044 6c.22 0 .432.034.633.097l-1.767 1.766a.995.995 0 0 1 -.492-.863c0-.542.447-1 .989-1h.636zm-.03-6a2 2 0 0 1 2.002 2.002 2 2 0 0 1 -2.003 2.003 2 2 0 0 1 -2.003-2.003 2 2 0 0 1 2.002-2.002z" fill="var(--db-icon-color, currentColor)" fill-rule="evenodd"/></svg>
