<svg id="icon" height="20" viewBox="0 0 20 20" width="20" xmlns="http://www.w3.org/2000/svg"><path d="m9.014 16h7.005c.523 0 .981-.459.981-1.016 0-.525-.458-.984-.981-.984h-7.005c-.556 0-1.014.459-1.014.984a1.02 1.02 0 0 0 1.014 1.016zm-4.992 0h.989c.527 0 .989-.459.989-1.016 0-.525-.462-.984-.989-.984h-.989c-.56 0-1.022.459-1.022.984 0 .556.462 1.016 1.022 1.016zm4.992-5h7.005c.523 0 .981-.452.981-1s-.458-1-.981-1h-7.005c-.556 0-1.014.452-1.014 1s.458 1 1.014 1zm-4.992 0h.989c.527 0 .989-.452.989-1s-.462-1-.989-1h-.989c-.56 0-1.022.452-1.022 1s.462 1 1.022 1zm4.992-5h7.005c.523 0 .981-.459.981-1.016 0-.525-.458-.984-.981-.984h-7.005c-.556 0-1.014.459-1.014.984a1.02 1.02 0 0 0 1.014 1.016zm-4.992 0h.989c.527 0 .989-.459.989-1.016 0-.525-.462-.984-.989-.984h-.989c-.56 0-1.022.459-1.022.984 0 .556.462 1.016 1.022 1.016z" fill="#282D37" style="fill: currentColor;fill: var(--db-icon-color, currentColor)" fill-rule="evenodd"/></svg>
