<svg id="icon" height="20" viewBox="0 0 20 20" width="20" xmlns="http://www.w3.org/2000/svg"><path d="m9.999 2c.795 0 1.494.422 1.816 1.07l5.978 12.041c.141.284.204.586.204.869 0 1.11-.918 2.02-2.02 2.02h-11.957c-1.102 0-2.02-.91-2.02-2.02 0-.303.07-.602.204-.869l6.02-12a2.006 2.006 0 0 1 1.774-1.111zm.001 11.94a1.04 1.04 0 0 0 -1.04 1.03 1.04 1.04 0 0 0 2.081 0c0-.566-.47-1.03-1.041-1.03zm1-7.94h-2v6h2z" fill="#282D37" style="fill: currentColor;fill: var(--db-icon-color, currentColor)" fill-rule="evenodd"/></svg>
