<svg id="icon" height="64" viewBox="0 0 64 64" width="64" xmlns="http://www.w3.org/2000/svg"><g fill="none" fill-rule="evenodd" transform="translate(7.8 12)"><path d="m13 16a1 1 0 0 1 0 2h-7.8a1 1 0 0 1 0-2zm34 0a1 1 0 0 1 0 2h-7.8a1 1 0 0 1 0-2z" fill="var(--db-icon-pulse-color, #EC0016)"/><path d="m41.2 0a1 1 0 0 1 0 2h-16.001v36h15.001a1 1 0 0 1 1 1c0 .513-.403 1-1 1h-32a1 1 0 0 1 0-2h14.999v-36h-15.999a1 1 0 1 1 0-2zm.847 4.468c.76 1.17 2.412 4.099 3.087 5.377.53 1.004 3.166 5.89 3.166 8.555 0 4.09-2.945 6.6-7.1 6.6s-7.1-2.51-7.1-6.6c0-2.657 2.578-7.442 3.166-8.555.506-.959 1.941-3.555 3.087-5.377a1 1 0 0 1 1.694 0zm-33.997.006c.927 1.473 2.373 4.099 3.037 5.378.38.73 3.113 5.778 3.113 8.548 0 4.09-2.945 6.6-7.1 6.6s-7.1-2.51-7.1-6.6c0-2.757 2.839-7.852 3.219-8.56.515-.96 1.891-3.427 3.138-5.379.374-.584 1.274-.653 1.693.013zm-.865 2.452c-3.298 5.45-5.185 9.747-5.185 11.474 0 2.909 1.985 4.6 5.1 4.6s5.1-1.691 5.1-4.6c0-.122-.009-.255-.025-.399h.825c.582 0 1-.488 1-1.001s-.409-.993-1-1h-1.34c-.637-1.892-2.337-5.434-4.475-9.074zm34.015 0c-.738 1.208-5.1 8.71-5.1 11.474 0 2.909 1.985 4.6 5.1 4.6s5.1-1.691 5.1-4.6c0-.122-.009-.254-.026-.398h.726c.57 0 1-.49 1-1.002a1 1 0 0 0 -1-1h-1.249c-.89-2.441-2.407-5.466-4.551-9.074z" fill="var(--db-icon-color, currentColor)" fill-rule="nonzero"/></g></svg>
