<svg id="icon" height="24" viewBox="0 0 24 24" width="24" xmlns="http://www.w3.org/2000/svg"><path d="m20.005 12c0-.563-.437-1-1-1h-11.593l4.28-4.281a.998.998 0 0 0 .314-.719c0-.438-.375-1-1.03-1a.97.97 0 0 0 -.688.281l-6 6a.975.975 0 0 0 -.277.611l-.006.108c-.03.25.078.515.282.719l6 6c.187.187.468.281.687.281.563 0 1.031-.469 1.031-1a.981.981 0 0 0 -.312-.719l-4.281-4.281h11.593c.563 0 1-.438 1-1z" fill="#282D37" style="fill: currentColor;fill: var(--db-icon-color, currentColor)" fill-rule="evenodd"/></svg>
