<svg id="icon" height="20" viewBox="0 0 20 20" width="20" xmlns="http://www.w3.org/2000/svg"><path d="m4 12c.563 0 1.031.438 1.031 1v2h1.969c.563 0 1 .438 1 1 0 .531-.438 1-1 1h-3c-.531 0-1-.469-1-1v-3c0-.563.469-1 1-1zm11.969.031c.562 0 1 .438 1 1v2.969c0 .531-.438 1-1 1h-3c-.563 0-1-.469-1-1 0-.563.437-1 1-1h2v-1.969c0-.562.469-1 1-1zm.031-9.031c.531 0 1 .469 1 1v3c0 .563-.469 1-1 1-.563 0-1.031-.438-1.031-1v-2h-1.969c-.563 0-1-.438-1-1 0-.531.438-1 1-1zm-9 0c.563 0 1 .469 1 1 0 .563-.438 1-1 1h-2v2c0 .563-.438 1-1 1-.531 0-1-.438-1-1v-3c0-.531.469-1 1-1z" fill="#282D37" style="fill: currentColor;fill: var(--db-icon-color, currentColor)" fill-rule="evenodd"/></svg>
