<svg id="icon" height="20" viewBox="0 0 20 20" width="20" xmlns="http://www.w3.org/2000/svg"><path d="m11.744 2c.964 0 1.477.1 2.012.385.5.268.899.666 1.166 1.167.263.49.368.962.384 1.78l.002 9.104c0 .964-.1 1.477-.386 2.012-.267.5-.666.9-1.166 1.167-.49.262-.963.367-1.78.383l-3.72.002c-.964 0-1.477-.1-2.012-.385a2.817 2.817 0 0 1 -1.166-1.167c-.263-.49-.368-.962-.384-1.78l-.002-9.104c0-.964.1-1.477.386-2.012.267-.5.666-.9 1.166-1.167.49-.262.963-.367 1.78-.383zm-4.744 12.5a.75.75 0 0 0 -.102 1.493l1.352.007a.75.75 0 0 0 .102-1.493zm4.75 0a.75.75 0 0 0 -.102 1.493l1.352.007a.75.75 0 0 0 .102-1.493zm.552-10.5-4.674.002a1 1 0 0 0 -.93.951l.475 6.843c.055.536.151 1.202 1.143 1.202l3.22.002c1.115 0 1.243-.595 1.278-1.056.326-4.614.488-6.928.488-6.944a1 1 0 0 0 -1-1z" fill="#282D37" style="fill: currentColor;fill: var(--db-icon-color, currentColor)" fill-rule="evenodd"/></svg>
