<svg id="icon" height="20" viewBox="0 0 20 20" width="20" xmlns="http://www.w3.org/2000/svg"><path d="m8 2a1 1 0 1 1 0 2l-2.992.01c-.277.017-.544.056-.77.364-.175.239-.221.566-.233.962l-.005 9.19c.002.48.079 1.165.534 1.35.24.1.49.118.76.122l2.706.002a1 1 0 0 1 0 2h-2.558c-.939 0-1.45-.109-1.975-.42a2.829 2.829 0 0 1 -1.112-1.218c-.242-.499-.339-.976-.353-1.816l-.002-8.854c0-.992.09-1.51.355-2.054.25-.517.629-.934 1.112-1.219.482-.284.951-.4 1.749-.417zm7 5a3 3 0 1 1 -2.829 4h-1.171a1 1 0 0 1 -1 1c-.552 0-1-.5-1-1.001h-1v.501c0 .513-.487 1-1 1s-1-.384-1-1c-.002-.5-.002-1 0-1.5 0-.513.42-1 1-1 1.723-.002 3.447-.002 5.17 0a3.001 3.001 0 0 1 2.83-2zm0 2a1 1 0 1 0 0 2 1 1 0 0 0 0-2z" fill="#282D37" style="fill: currentColor;fill: var(--db-icon-color, currentColor)" fill-rule="evenodd"/></svg>
