<svg id="icon" height="64" viewBox="0 0 64 64" width="64" xmlns="http://www.w3.org/2000/svg"><g fill="none" fill-rule="evenodd" transform="translate(4 20)"><path d="m48 19a5 5 0 1 1 -10.001 0 5 5 0 0 1 10.001 0zm-32 0a5 5 0 1 1 -10.001 0 5 5 0 0 1 10.001 0zm24 0a3 3 0 1 0 6 0 3 3 0 0 0 -6 0zm-32 0a3 3 0 1 0 6 0 3 3 0 0 0 -6 0zm27-1a1 1 0 0 1 0 2h-16a1 1 0 0 1 0-2zm-9.572-18c6.346.14 14.017 5.177 15.691 6.307.095.065.203.11.32.135l6.005 1.285c5.281.851 7.699 2.152 8.356 4.252.178.377.244 1.453.199 3.228.041 1.107-.53 2.102-1.504 2.66-.946.36-2.641.897-3.165 1.071s-1.104-.098-1.279-.622a1.001 1.001 0 0 1 .633-1.265 222.31 222.31 0 0 0 2.942-.987.958.958 0 0 0 .371-.7c.035-1.656 0-2.586-.106-2.788-.365-1.167-2.159-2.132-6.816-2.884l-6.051-1.294a2.913 2.913 0 0 1 -1.025-.433c-1.602-1.083-9.335-5.965-14.571-5.965h-11.579a8.047 8.047 0 0 0 -5.356 1.976l-6.218 6.168a.928.928 0 0 0 -.275.66v5.066c0 .314.177.601.458.741l.989.495a1 1 0 1 1 -.894 1.788l-.99-.494a2.829 2.829 0 0 1 -1.563-2.53v-5.067c0-.78.312-1.529.866-2.079l6.262-6.209a10.072 10.072 0 0 1 6.728-2.515zm-11.462 9.668 4.142.34a.999.999 0 1 1 -.166 1.992l-4.025-.336a1.001 1.001 0 0 1 -.914-1.079 1.01 1.01 0 0 1 .963-.917z" fill="var(--db-icon-color, currentColor)" fill-rule="nonzero"/><path d="m37.004 11.581a1 1 0 0 1 -.166 1.994l-15.423-1.286a1 1 0 1 1 .166-1.993z" fill="var(--db-icon-pulse-color, #EC0016)"/></g></svg>
