<svg id="icon" height="64" viewBox="0 0 64 64" width="64" xmlns="http://www.w3.org/2000/svg"><g fill="none" fill-rule="evenodd" transform="translate(3.99 14)"><path d="m43.97.757a1 1 0 0 1 -.616 1.178l-.111.035-3 .751 2.853 10.475a11.089 11.089 0 0 1 1.915-.166c6.075 0 11 4.925 11 11s-4.925 11-11 11c-6.076 0-11-4.925-11-11 0-4.723 2.976-8.75 7.155-10.31l-3.12-11.457a1 1 0 0 1 .616-1.2l.105-.033 3.99-1a1 1 0 0 1 1.213.727zm-23.063 5.8.045.107 1.056 2.957 13.75-3.588a1 1 0 0 1 .616 1.899l-.11.036-13.58 3.545 3.268 9.15a1 1 0 0 1 -1.838.781l-.045-.107-2.969-8.312-2.459 3.062a10.967 10.967 0 0 1 3.355 7.625l.004.288c0 6.075-4.925 11-11 11s-11-4.925-11-11 4.925-11 11-11c2.249 0 4.34.675 6.082 1.833l3.228-4.019-1.241-3.477a1 1 0 0 1 1.838-.78zm24.103 8.473c-.472 0-.935.036-1.387.106l2.351 8.631a1 1 0 0 1 -.59 1.191l-.112.037a1 1 0 0 1 -1.19-.591l-.037-.111-2.352-8.632a9 9 0 1 0 3.316-.63zm-34.01-.03a9 9 0 1 0 6.382 2.654l-5.602 6.973a1 1 0 0 1 -1.632-1.15l.072-.103 5.603-6.974a8.958 8.958 0 0 0 -4.823-1.4zm26.56-4.835a1 1 0 0 1 .344 1.284l-.058.101-8.863 13.462a2.223 2.223 0 0 1 -1.665.96l-.168.006h-2.14a1 1 0 0 1 -.116-1.994l.117-.006h2.139c.055 0 .107-.02.143-.05l.03-.031 8.852-13.447a1 1 0 0 1 1.386-.285z" fill="var(--db-icon-color, currentColor)" fill-rule="nonzero"/><path d="m22.01 2a1 1 0 0 1 .117 1.994l-.116.006h-6a1 1 0 0 1 -.117-1.993l.117-.007h6z" fill="var(--db-icon-pulse-color, #EC0016)"/></g></svg>
