<svg id="icon" height="64" viewBox="0 0 64 64" width="64" xmlns="http://www.w3.org/2000/svg"><g fill="none" fill-rule="evenodd" transform="translate(4 12.057)"><path d="m40.233.001c2.148 0 3.995 1.432 4.652 3.85 1.025 3.777 2.052 7.553 3.08 11.33l.01.05c1.968 1.445 3.21 3.712 3.059 6.712l-.86 8.052a6.205 6.205 0 0 1 -.173.976l-.001 5.472c0 .964-.116 3.5-3.5 3.5h-3c-3.097 0-3.5-2.001-3.5-3.5 0-.35 0-.723.002-1.116-3.629.388-7.652.616-12.002.616s-8.372-.228-12-.616v1.116c0 2.326-1.211 3.498-3.5 3.5h-3c-2.555 0-3.5-1.33-3.5-3.5l.001-5.514c-.06-.232-.158-.844-.17-.965-.242-2.642-.484-5.283-.723-7.925a7.544 7.544 0 0 1 2.875-6.68c.005-.003 1.046-3.827 3.123-11.47.508-2.197 2.368-3.888 4.661-3.889h24.466zm-32.233 33.77.001 2.778.01.392c-.01.448.45 1.001 1.008 1.001h3.982c.499.001.999-.499.999-.999.028-.032.028-.649-.001-1.851l-4.355-.693a4.58 4.58 0 0 1 -1.644-.628zm34 1.32c-.002.747-.002 1.364.001 1.85-.001.502.499 1.002 1.003 1.001l3.996.001c.5 0 1-.5 1-1v-3.176c-.447.277-.954.48-1.512.602l-4.488.721zm-14-19.68c-5.211 0-14.546.267-15.909.38a5.55 5.55 0 0 0 -4.85 4.165l4.973.356a3 3 0 0 1 2.781 2.819l.005.663a3 3 0 0 1 -3 3l-4.478-.313.301 3.294c.15 1.553.909 2.405 2.31 2.676 5.917 1.181 13.097 1.492 17.867 1.492s12.05-.354 17.847-1.488c1.302-.255 2.11-1.032 2.312-2.455l.379-3.522-4.538.317c-1.575.107-3-1.382-3-3 0-.26.003-.45.003-.679 0-1.115 1.039-2.654 2.783-2.803 1.11-.083 2.811-.204 5.105-.364a5.546 5.546 0 0 0 -5.116-4.17 339.616 339.616 0 0 0 -15.775-.367zm7.013 7.531c.754 0 2.215.07 2.798 2.151.029.138.42 2.024 1.17 5.66a1 1 0 1 1 -1.963.379 679.546 679.546 0 0 0 -1.155-5.657c-.082-.325-.446-.532-.85-.532h-14.006c-.338 0-.782.1-.892.62-.196.919-.389 1.838-.58 2.758l-.553 2.81a1 1 0 1 1 -1.964-.379 622.19 622.19 0 0 1 1.17-5.659c.28-1.237.838-2.11 2.82-2.149zm-27.905-.99.23 2.511c3.092.22 4.646.331 4.662.331a1 1 0 0 0 .993-.883l.007-.607c0-.487-.39-.958-.929-.997-1.653-.12-3.308-.238-4.963-.355zm41.917-.01c-1.96.139-3.659.26-5.096.365-.499.05-.932.45-.929.997-.002.164 0 .366.007.607 0 .41.46.883.993.883l4.755-.338zm4.475-9c1.448 0 2.414 1.086 2.495 2.336l-.002.627a3 3 0 0 1 -1.476 2.39c-.456.231-.812.412-1.07.541a.998.998 0 0 1 -1.341-.447c-.23-.458-.074-1.041.447-1.341.5-.258.761-.35 1.002-.51a.952.952 0 0 0 .445-.832v-.264c0-.245-.191-.5-.5-.5-1.344.003-1.75.003-3.5 0-.568 0-1-.487-1-1s.432-1 1-1c1.75-.003 2.277 0 3.5 0zm-47.5 0a1 1 0 0 1 1 1c0 .513-.425 1-1 1-1.167.002-2.333.002-3.5 0a.5.5 0 0 0 -.492.41l-.008.355a1 1 0 0 0 .445.832l1.002.51a1 1 0 0 1 -.787 1.835l-1.002-.494a3 3 0 0 1 -1.651-2.484l-.007-.463c0-1.325 1.055-2.5 2.5-2.5 1.167-.002 2.333-.002 3.5 0zm34.011-11h-24.009c-1.467 0-2.464.62-2.957 2.433-.88 3.241-1.762 6.483-2.645 9.724.48-.147 1.75-.32 1.875-.325a341.546 341.546 0 0 1 31.592.006 7.565 7.565 0 0 1 1.722.28l-2.644-9.72c-.306-1.327-1.537-2.396-2.934-2.396z" fill="var(--db-icon-color, currentColor)" fill-rule="nonzero"/><path d="m33 26.943a1 1 0 0 1 1 1c0 .513-.34 1-1 1-3.331.002-6.664.002-10 0a1 1 0 0 1 0-2c3.331-.002 6.664-.002 10 0z" fill="var(--db-icon-pulse-color, #EC0016)"/></g></svg>
