<svg id="icon" height="64" viewBox="0 0 64 64" width="64" xmlns="http://www.w3.org/2000/svg"><g fill="none" fill-rule="evenodd" transform="translate(4 15)"><path d="m25 23a1 1 0 0 1 0 2h-14a1 1 0 0 1 0-2zm-14-10c1.137 0 2.251.173 3.315.509a1 1 0 0 1 -.602 1.907 8.995 8.995 0 0 0 -2.713-.416 9 9 0 1 0 9 9 1 1 0 0 1 2 0c0 6.075-4.925 11-11 11s-11-4.925-11-11 4.925-11 11-11zm34 0c6.075 0 11 4.925 11 11s-4.925 11-11 11-11-4.925-11-11c0-3.258 1.426-6.286 3.853-8.362a1 1 0 1 1 1.3 1.52 8.976 8.976 0 0 0 -3.153 6.842 9 9 0 1 0 9-9c-.967 0-1.912.152-2.81.447a1 1 0 0 1 -.624-1.9 10.99 10.99 0 0 1 3.434-.547zm-23-11a1 1 0 0 1 0 2h-7a1 1 0 0 1 0-2zm17-2a1 1 0 0 1 .949 1.315l-.889 2.676 6.884 19.679a1 1 0 0 1 -.506 1.229l-.108.045a1 1 0 0 1 -1.274-.614l-6.997-20a1 1 0 0 1 -.005-.645l.56-1.685h-4.614a1 1 0 0 1 -.993-.883l-.007-.117a1 1 0 0 1 1-1zm-20.333 6.057a1 1 0 0 1 1.276.61l5.764 16.333h.744a3 3 0 0 0 2.632-1.559l.087-.172 5.924-12.692a1 1 0 0 1 1.812.846l-5.924 12.692a5 5 0 0 1 -4.53 2.885h-1.452a1 1 0 0 1 -.943-.667l-6-17a1 1 0 0 1 .61-1.276zm1.115 5.843a1 1 0 1 1 1.536 1.28l-9.55 11.46a1 1 0 1 1 -1.536-1.28z" fill="var(--db-icon-color, currentColor)" fill-rule="nonzero"/><path d="m42.149 4.064a1 1 0 0 1 1.287.585l1.257 3.351h5.188l1.225-2.447a1 1 0 0 1 1.234-.494l.107.047a1 1 0 0 1 .447 1.341l-1.5 3a1 1 0 0 1 -.894.553h-6.5a1 1 0 0 1 -.936-.649l-1.5-4a1 1 0 0 1 .585-1.287z" fill="var(--db-icon-pulse-color, #EC0016)"/></g></svg>
