<svg id="icon" height="64" viewBox="0 0 64 64" width="64" xmlns="http://www.w3.org/2000/svg"><g fill="none" fill-rule="evenodd" transform="translate(5.998 14)"><path d="m16.002 30a1 1 0 0 1 1 1c0 3.375-2.927 6.077-6.5 6.077s-6.5-2.702-6.5-6.077a1 1 0 0 1 2 0c0 2.233 1.997 4.077 4.5 4.077 2.502 0 4.5-1.844 4.5-4.077a1 1 0 0 1 1-1zm28.5-6a6.5 6.5 0 1 1 0 13 6.5 6.5 0 1 1 0-13zm0 2a4.5 4.5 0 1 0 -.001 9 4.5 4.5 0 0 0 0-9zm-7.943-26a5 5 0 0 1 4.944 4.254l2.486 16.085a1 1 0 0 1 -.7 1.119c-4.073 1.222-6.207 3.462-7.339 6.858a1 1 0 0 1 -.832.677l-.116.007h-7.935a4.993 4.993 0 0 1 -4.828-3.7c-.836-3.1-1.671-6.2-2.504-9.3h-10.733c-3.786 0-7 3.015-7 7v3h17.55c.513 0 .995.41 1 1 0 .513-.39 1-1 1-6.183.002-12.367.002-18.55 0-.513 0-1-.415-1-1a888.89 888.89 0 0 1 0-4c0-4.882 3.92-9 9-9h11.5c.41 0 .839.29.965.74a7082.46 7082.46 0 0 1 2.703 10.04 2.977 2.977 0 0 0 2.897 2.22h7.233c1.234-3.311 3.79-5.926 7.578-7.185-.293-1.85-1.077-6.937-2.352-15.263a3 3 0 0 0 -2.79-2.547l-.176-.005h-3.557a1 1 0 0 1 -.117-1.993l.116-.007zm-20.307 20a1 1 0 0 1 1 1c0 .513-.402 1-1 1-3.165.002-6.332.002-9.5 0a1 1 0 0 1 -1-1c0-.513.442-1 1-1 3.164-.002 6.33-.002 9.5 0zm29.715-14.26.024.113.74 5a1 1 0 0 1 -1.954.408l-.024-.114-.74-5a1 1 0 0 1 1.954-.408z" fill="#282D37" style="fill: currentColor;fill: var(--db-icon-color, currentColor)" fill-rule="nonzero"/><path d="m20.334 10.516c.07.216.127.4.173.553a1 1 0 0 1 -.657 1.253c-.49.153-1.125-.119-1.252-.657a27.19 27.19 0 0 1 -.173-.553 3 3 0 0 0 -2.869-2.106l-7.335.008a1 1 0 0 1 -1-1 .992.992 0 0 1 1-1c2.444-.005 4.887-.008 7.331-.008 2.116-.004 4.064 1.366 4.782 3.51z" fill="#EC0016" style="fill:#EC0016;fill: var(--db-icon-pulse-color, #EC0016)"/></g></svg>
