<svg id="icon" height="64" viewBox="0 0 64 64" width="64" xmlns="http://www.w3.org/2000/svg"><g fill="none" fill-rule="evenodd" transform="translate(14 8.999)"><path d="m29.334.001c3.63 0 6.666 3.21 6.667 7.273v29.363c0 5.059-3.72 9.446-8.556 9.364h-18.889c-4.664 0-8.554-4.069-8.555-9.364v-29.363c-.001-3.912 2.904-7.272 6.667-7.274a61132.7 61132.7 0 0 1 22.666 0zm-11.333 21c-1.225 0-2.103.291-2.901.83-.064.042-.35.26-.86.653-.459.351-.782.52-1.246.517l-1.385-.013c-3.983-.004-7.186-.26-9.608-.77v14.42c-.001 4.002 2.854 7.362 6.555 7.362h18.89c3.522 0 6.654-3.348 6.555-7.364v-14.462c-2.922.537-5.964.806-9.124.808-.584.004-1.208.01-1.87.019-.407.002-.705-.127-1.08-.394a37.77 37.77 0 0 0 -1.025-.777c-.798-.538-1.675-.829-2.901-.829zm-8 13a3 3 0 0 1 3 3 2.99 2.99 0 0 1 -3 3 750 750 0 0 1 -3 0 3 3 0 0 1 -3-3 3.007 3.007 0 0 1 3-3c1-.002 2-.002 3 0zm18 0a3 3 0 0 1 3 3c0 1.598-1.306 2.997-3 3a750 750 0 0 1 -3 0 3 3 0 1 1 0-6c1-.002 2-.002 3 0zm-18 2a750 750 0 0 0 -3 0 1 1 0 0 0 -1 1c0 .513.397.999 1 1 1 .002 2 .002 3 0a1 1 0 0 0 1-1 .988.988 0 0 0 -1-1zm18 0a750 750 0 0 0 -3 0 1 1 0 0 0 -1 1 .99.99 0 0 0 1 1c1 .002 2 .002 3 0a1 1 0 1 0 0-2zm-10-13a3 3 0 1 1 0 6 3 3 0 0 1 0-6zm0 1.75c-.704 0-1.25.498-1.25 1.25s.546 1.25 1.25 1.25 1.25-.498 1.25-1.25-.546-1.25-1.25-1.25zm11.333-22.75h-22.666c-2.486 0-4.668 2.222-4.668 5.273v12.905c2.517.548 5.593.816 9.229.803l1.649.018a36.6 36.6 0 0 1 1.103-.828c1.116-.753 2.378-1.17 4.019-1.17 1.642 0 2.903.417 4.02 1.17.082.056.45.332 1.1.828l1.27-.01c3.074.007 6.277-.274 9.61-.844v-12.872c0-2.857-1.953-5.274-4.666-5.274z" fill="var(--db-icon-color, currentColor)" fill-rule="nonzero"/><path d="m26 4.001a1 1 0 0 1 .118 1.993l-.118.007h-16a1 1 0 0 1 -.117-1.993l.118-.008h16z" fill="var(--db-icon-pulse-color, #EC0016)"/></g></svg>
