<svg id="icon" height="32" viewBox="0 0 32 32" width="32" xmlns="http://www.w3.org/2000/svg"><path d="m27 2a3 3 0 0 1 3 3v22a3 3 0 0 1 -3 3h-22a3 3 0 0 1 -3-3v-22a3 3 0 0 1 3-3zm0 2h-22c-.513 0-1 .45-1 1v22c0 .513.416 1 1 1 7.333.002 14.667.002 22 0 .513 0 1-.412 1-1 .002-7.333.002-14.667 0-22 0-.513-.456-1-1-1zm-10.29 4.41c1.767 0 3.199.343 3.794.554.595.21.906.863.696 1.458-.199.561-.8.87-1.372.703-.327-.095-1.518-.455-3.038-.455-1.12 0-2.01.207-2.67.62s-1.13 1.017-1.41 1.81-.42 1.797-.42 3.01c0 1.253.15 2.263.45 3.03s.767 1.333 1.4 1.7 1.47.55 2.51.55a7.52 7.52 0 0 0 1.14-.08c.19-.03.393-.07.61-.121a.347.347 0 0 0 .27-.342c.002-.875.002-1.751 0-2.627a.245.245 0 0 0 -.25-.25 118.01 118.01 0 0 0 -1.19 0c-.552 0-1-.537-1-1.089 0-.515.42-1.09 1-1.091 1.093-.002 2.187-.002 3.28 0a1 1 0 0 1 1 1c.002 1.7.002 3.398 0 5.098 0 .433-.28.788-.69.95a10.23 10.23 0 0 1 -1.81.522c-.787.153-1.607.23-2.46.23-2.493 0-4.35-.627-5.57-1.88s-1.83-3.12-1.83-5.6c0-1.667.293-3.073.88-4.22a5.862 5.862 0 0 1 2.58-2.6c1.133-.587 2.5-.88 4.1-.88z" fill="#282D37" style="fill: currentColor;fill: var(--db-icon-color, currentColor)" fill-rule="evenodd"/></svg>
