<svg id="icon" height="24" viewBox="0 0 24 24" width="24" xmlns="http://www.w3.org/2000/svg"><path d="m12.0026412 20.0026412c.5625 0 1-.4375 1-1v-11.59369999l4.2812 4.28119999c.2188.2188.4688.3125.7188.3125.4375 0 1-.375 1-1.0312 0-.25-.0938-.5-.2812-.6875l-6-5.99999999c-.1746857-.17468571-.3943347-.25657959-.6109609-.27641283l-.1078391-.00488717c-.25-.0312-.515.0775-.7188.2813l-5.99999999 5.99999999c-.1874.1875-.2812.4687-.2812.6875 0 .5625.4688 1.0312 1 1.0312.2812 0 .515-.1087.7188-.3125l4.28119999-4.28119999v11.59369999c0 .5625.4375 1 1 1z" fill="var(--db-icon-color, currentColor)" fill-rule="evenodd"/></svg>
