<svg id="icon" height="32" viewBox="0 0 32 32" width="32" xmlns="http://www.w3.org/2000/svg"><path d="m18.61 2c3.994 0 7.257 3.108 7.386 7l.004 15a6 6 0 0 1 -5.75 5.995c-.052-.841-.744-1.295-1.428-1.197a19.818 19.818 0 0 1 -5.645 0c-.684-.098-1.337.355-1.426 1.197a6 6 0 0 1 -5.747-5.77l-.004-14.985c0-3.924 3.183-7.11 7.146-7.236zm-7.61 21.882c-.685 0-1.125.538-1.125 1.118s.454 1.125 1.125 1.118l2 .007c.666 0 1.125-.545 1.125-1.125s-.444-1.125-1.125-1.125zm8 0a1.12 1.12 0 0 0 -1.125 1.118c0 .58.467 1.118 1.125 1.125h2a1.128 1.128 0 0 0 1.125-1.125c0-.58-.43-1.118-1.125-1.125zm.346-18.882h-6.69c-1.466 0-2.656 1.208-2.656 2.696l.59 10.93c-.002 1.31 1.026 2.374 2.295 2.374h6.188c1.264 0 2.29-1.058 2.295-2.364l.632-10.926c.006-1.495-1.184-2.71-2.654-2.71z" fill="#282D37" style="fill: currentColor;fill: var(--db-icon-color, currentColor)" fill-rule="evenodd"/></svg>
