<svg id="icon" height="32" viewBox="0 0 32 32" width="32" xmlns="http://www.w3.org/2000/svg"><path d="m3.102 22.828c.991 1.107 2.166 2.076 3.985 3.27l.571.362c.379.213.777.344 1.342.423.44.033.851.031 1.28.05.008.028.012.056.02.083v1.984c0 .142.017.28.034.417a.5.5 0 0 1 -.492.582h-1.841a1 1 0 0 1 -.966-1.261 4.411 4.411 0 0 1 -2.02-1.474 10.845 10.845 0 0 1 -1.264-2.144c-.103-.239-.319-1.003-.649-2.292zm21.9-8.829c.99.001 1.684.667 1.979 1.626l1.019 4.375h1.352c.336 0 .648.267.648.578v.733c0 .335-.261.69-.648.689h-.835c.033.162.05.38.05.536 0 .104-.129 1.262-.388 3.472-.029.253-.09.497-.177.726v2.265c-.001.552-.449 1-1.001 1h-.6a1 1 0 0 1 -1-1v-.342a42.93 42.93 0 0 1 -10.8 0v.342a1 1 0 0 1 -1 1h-.6a1 1 0 0 1 -1-1v-2.262a3.03 3.03 0 0 1 -.152-.547l-.398-3.404a2.511 2.511 0 0 1 .033-.786h-.834c-.37 0-.648-.322-.648-.69v-.667a.63.63 0 0 1 .648-.644h1.352l.978-4.213c.231-.989 1.047-1.713 2.022-1.787zm-2.995 9.751-4.142.007a1 1 0 0 0 -.833.683l-.296 1.48a.987.987 0 0 0 .801 1.061.99.99 0 0 0 1.147-.671l.118-.56h2.385l.119.56a1 1 0 0 0 1.948-.39l-.296-1.48a1.001 1.001 0 0 0 -.951-.69zm4.413-.747-1.479.296a1 1 0 0 0 .39 1.948l1.479-.296a1 1 0 0 0 -.39-1.948zm-13.9.801a1 1 0 0 0 .671 1.147l1.479.296a1 1 0 0 0 .39-1.948l-1.479-.296a1 1 0 0 0 -1.061.801zm.966-21.804c3.085 0 4.872 1.074 6.252 2.9a10.726 10.726 0 0 1 2.155 5.826l.016.373.017.701a.5.5 0 0 1 -.5.5h-3.186c.115-.371.265-.793.517-2.196.337-1.88-.719-3.675-2.29-4.356-1.377-.597-2.871-.748-4.468-.748-1.725 0-3.15.222-4.272.665-1.716.677-2.865 2.448-2.481 4.445.212 1.1.421 1.861.541 2.264a2.904 2.904 0 0 0 2.151 2.002l1.445.226c.707.108 1.42.165 2.133.185-.08.196-.146.401-.195.613l-.673 2.899c-.694 0-1.303.29-1.729.752l-.326-1.011a1 1 0 0 0 -1.89.61l.97 3.009c.329.87 1.548 1.659 2.154 1.89l.169 1.443c-1.031-.032-1.308-.242-1.797-.555-2.515-1.607-3.549-2.687-4.748-4.394-.799-1.138-1.22-1.728-1.262-1.77-.127-1.33-.189-2.397-.189-3.202.001-.805.032-2.129.092-3.972.056-2.24.815-4.407 2.17-6.199 1.331-1.76 3.116-2.9 6.317-2.896zm1.678 13.693c-.208.001-.406.145-.498.376l-.921 3.931h12.51l-.886-3.827c-.06-.255-.239-.431-.442-.471z" fill="#282D37" style="fill: currentColor;fill: var(--db-icon-color, currentColor)" fill-rule="evenodd"/></svg>
