<svg id="icon" height="24" viewBox="0 0 24 24" width="24" xmlns="http://www.w3.org/2000/svg"><path d="m16.6721245 6c1.2428675 0 2.2465121 1.01108594 2.3279914 2.24496189l.005342 2.75503811c0 .2048512-.062878.4037217-.1786279.5703971l-4.5437789 5.0959322c-.1626149.1819746-.3722924.3336707-.7456576.3336707-.2489102 0-1.4280414 0-3.5373935 0 0 1.6569514-1.34304858 3-3 3-1.59777458 0-2.99368094-1.288178-3-3h-.9998c-.51283584 0-.93550716-.3860402-.99327227-.8833789l-.00672773-1.4499544c0-1.9596485 1.57198529-3.6670492 3.66688891-3.6666667l3.23291109-.0003825-.2662-.9956976-2.6336.0009231c-.55538054 0-.99458515-.49180585-.99458515-1.00464169s.47440664-.97758382.99438515-.97758382l2.83753333.00749108c.6957604 0 1.30681057.43663198 1.55190137 1.07604848l1.6106653 5.89384295h1.005l3.9999-4.383.0004579-2.20976712c0-.19275444-.0755256-.40909563-.3333334-.40909563-.5478148 0-1.2144815 0-2 0-.5522847 0-1-.42323501-1-.97551976 0-.51283583.4515187-1.02261749 1-1.02261749zm2.3278755 8c1.6569514 0 3 1.3430486 3 3s-1.3430486 3-3 3-3-1.3430486-3-3 1.3430486-3 3-3zm-13 3c0 .5523819.44761808 1 1 1 .51292607 0 1-.3844458 1-1zm13-1c-.5523819 0-1 .4476181-1 1s.4476181 1 1 1 1-.4476181 1-1-.4476181-1-1-1zm-9.55-3h-3.78291109c-.87207471 0-1.58784168.6698125-1.66076985 1.5228761l-.00631906.4771239h6z" fill="var(--db-icon-color, currentColor)" fill-rule="evenodd"/></svg>
