<svg id="icon" height="32" viewBox="0 0 32 32" width="32" xmlns="http://www.w3.org/2000/svg"><path d="m12.707 14.293a.999.999 0 1 0 -1.414 1.414l3 3a.997.997 0 0 0 1.414 0l6-6a.999.999 0 1 0 -1.414-1.414l-5.293 5.293zm12.293-1.253c0 6.711-2.944 11.61-9 14.96-6.055-3.35-9-8.249-9-14.96v-4.71l9-4.33 9 4.33zm-8.295-10.886a1.692 1.692 0 0 0 -1.41 0l-9.731 4.576c-.341.155-.564.52-.564.923v5.347c0 7.523 3.532 13.23 10.595 16.901a.876.876 0 0 0 .81 0c7.063-3.671 10.595-9.377 10.595-16.901v-5.347c0-.403-.223-.768-.564-.923z" fill="var(--db-icon-color, currentColor)" fill-rule="evenodd"/></svg>
