<svg id="icon" height="32" viewBox="0 0 32 32" width="32" xmlns="http://www.w3.org/2000/svg"><path d="m3 27v-22a3 3 0 0 1 3-3h7.5c.531 0 1 .438 1 1 0 .563-.469 1-1 1h-7.5c-.563 0-1 .438-1 1v22c0 .563.438 1 1 1h14c.563 0 1-.438 1-1v-8c0-.563.438-1 1-1 .563 0 1 .438 1 1v8a3 3 0 0 1 -3 3h-14a3 3 0 0 1 -3-3zm4-4c0-.563.438-1 1-1h1c.563 0 1 .438 1 1 0 .563-.438 1-1 1h-1c-.563 0-1-.438-1-1zm4.5 0c0-.563.438-1 1-1h1c.563 0 1 .438 1 1 0 .563-.438 1-1 1h-1c-.563 0-1-.438-1-1zm6.5-1c.563 0 1 .438 1 1 0 .563-.438 1-1 1h-1c-.563 0-1-.438-1-1 0-.563.438-1 1-1zm4.048-20c3.86 0 7 3.141 7 7s-3.14 7-7 7c-3.26 0-6-2.245-6.774-5.269l-1.36 2.941a.986.986 0 0 1 -.569.515.987.987 0 0 1 -1.282-.597.996.996 0 0 1 .028-.767l2.382-5.132c.111-.24.344-.425.58-.51a.996.996 0 0 1 .766.028l5.126 2.391c.261.122.43.334.515.57.15.411.05 1.046-.598 1.281a1.027 1.027 0 0 1 -.77-.019l-2.93-1.39a5.006 5.006 0 0 0 4.885 3.958c2.757 0 5-2.243 5-5a5.006 5.006 0 0 0 -8.054-3.964 1.001 1.001 0 0 1 -1.22-1.586 6.953 6.953 0 0 1 4.275-1.45z" fill="var(--db-icon-color, currentColor)" fill-rule="evenodd"/></svg>
