<svg id="icon" height="20" viewBox="0 0 20 20" width="20" xmlns="http://www.w3.org/2000/svg"><path d="m3 14a1 1 0 0 1 0-2h.822v-3.667l-.405.132a1 1 0 1 1 -.619-1.902l1.714-.56a1 1 0 0 1 1.312.952v5.045h.801a1 1 0 0 1 0 2zm9.567-.665a1 1 0 0 1 .26-1.1l.3-.272c1.233-1.116 2.63-2.38 2.63-3.364 0-.423-.215-.667-.592-.667a1.55 1.55 0 0 0 -.922.32 1 1 0 1 1 -1.208-1.595 3.569 3.569 0 0 1 2.13-.724 2.573 2.573 0 0 1 2.592 2.667c0 1.257-.75 2.35-1.735 3.375h1.022a1 1 0 0 1 0 2h-3.545a1 1 0 0 1 -.932-.639zm-2.567 3.662a1 1 0 0 1 -1-1v-11.997a1 1 0 1 1 2 0v11.997a1 1 0 0 1 -1 1z" fill="#282D37" style="fill: currentColor;fill: var(--db-icon-color, currentColor)" fill-rule="evenodd"/></svg>
