<svg id="icon" height="64" viewBox="0 0 64 64" width="64" xmlns="http://www.w3.org/2000/svg"><g fill="none" fill-rule="evenodd" transform="translate(10 6.798)"><path d="m22 3.202c2.877 0 5.68.554 8.29 1.616a1 1 0 1 1 -.755 1.852 19.897 19.897 0 0 0 -6.535-1.443v1.975a1 1 0 0 1 -1.993.117l-.007-.117v-1.975c-3.029.15-5.881.972-8.41 2.323l.637 1.068a1 1 0 0 1 -1.653 1.12l-.065-.096-.634-1.063a20.107 20.107 0 0 0 -5.848 6.039l1.154.618a1 1 0 0 1 -.838 1.812l-.106-.048-1.184-.634a19.89 19.89 0 0 0 -2.028 7.838h1.975a1 1 0 0 1 .117 1.993l-.117.005h-1.975a19.887 19.887 0 0 0 2.312 8.391l1.07-.642a1 1 0 0 1 1.126 1.65l-.097.065-1.071.643a20.107 20.107 0 0 0 6.058 5.871l.589-1.064a1 1 0 0 1 1.8.863l-.05.105-.592 1.069a19.89 19.89 0 0 0 7.83 2.025v-1.976a1 1 0 0 1 1.993-.116l.007.116v1.976a19.887 19.887 0 0 0 8.326-2.278l-.664-1.114a1 1 0 0 1 1.653-1.12l.065.097.666 1.115a20.107 20.107 0 0 0 5.856-5.978l-1.107-.631a1 1 0 0 1 .887-1.79l.104.053 1.1.628a19.888 19.888 0 0 0 2.09-7.957h-1.976a1 1 0 0 1 -.117-1.994l.117-.007h1.975a20.17 20.17 0 0 0 -.062-.882 1 1 0 0 1 1.991-.186c.064.685.096 1.375.096 2.068 0 12.15-9.85 22-22 22s-22-9.85-22-22 9.85-22 22-22zm-7.618 16.615.105.05 8.06 4.498.081.06.102.093.07.083.053.08 7.01 12.018a1 1 0 0 1 -1.662 1.105l-.065-.098-6.861-11.763-7.762-4.329a1 1 0 0 1 .869-1.797z" fill="#282D37" style="fill: currentColor;fill: var(--db-icon-color, currentColor)" fill-rule="nonzero"/><path d="m36.097 12.557v-4.63c0-.59.47-1.05 1.033-1.05.532 0 .97.46.97 1.05v4.63c0 .656-.407 1.115-.97 1.115-.564 0-1.033-.492-1.033-1.115zm-.704-11.344-8.06 16c-.156.328-.25.656-.25.984 0 .983.751 1.803 1.846 1.803h16.307c1.096 0 1.847-.82 1.847-1.803 0-.295-.094-.656-.25-.984l-8.029-16c-.421-.787-1.064-1.213-1.721-1.213s-1.26.426-1.69 1.213zm1.945.993 7.695 15.313c.128.24 0 .481-.287.481h-15.344c-.192 0-.32-.137-.32-.275 0-.103.033-.137.033-.206l7.713-15.313c.063-.103.16-.206.255-.206.096 0 .223.103.255.206zm-.27 14.614c.563 0 1-.46 1-1.05s-.437-1.049-1-1.049c-.564 0-1.002.46-1.002 1.05s.438 1.049 1.001 1.049z" fill="#EC0016" style="fill:#EC0016;fill: var(--db-icon-pulse-color, #EC0016)"/></g></svg>
