<svg id="icon" height="32" viewBox="0 0 32 32" width="32" xmlns="http://www.w3.org/2000/svg"><path d="m16 2c1.132 0 2.17.612 2.71 1.615l10.943 20.933c.244.452.347.935.347 1.452 0 1.735-1.27 3-3 3h-21.857c-1.733 0-3.143-1.27-3.143-3 0-.517.103-1 .347-1.452l10.943-20.933a3.068 3.068 0 0 1 2.71-1.615zm0 1.843c-.356 0-.646.259-.906.742l-10.99 20.9a1.04 1.04 0 0 0 -.139.48c0 .432.388 1.035 1.035 1.035l21.965.035c.553 0 1.035-.515 1.035-1.035a1.04 1.04 0 0 0 -.138-.48l-10.956-20.935c-.26-.483-.55-.742-.906-.742zm-1.39 19.753c0 .744.646 1.39 1.39 1.39a1.4 1.4 0 0 0 1.39-1.39 1.38 1.38 0 0 0 -1.39-1.39 1.4 1.4 0 0 0 -1.39 1.39zm.39-4.43v-9.148c0-.582.418-1.018 1-1.018s1 .437 1 1.018v9.148c0 .582-.418 1.038-1 1.038s-1-.456-1-1.038z" fill="#282D37" style="fill: currentColor;fill: var(--db-icon-color, currentColor)" fill-rule="evenodd"/></svg>
