<svg id="icon" height="64" viewBox="0 0 64 64" width="64" xmlns="http://www.w3.org/2000/svg"><g fill="none" fill-rule="evenodd" transform="translate(6 4)"><path d="m36.5 22a3.5 3.5 0 0 1 3.495 3.308l.005.192v1.5h7.5a3.5 3.5 0 0 1 3.495 3.308l.005.192v22a3.5 3.5 0 0 1 -3.287 3.493l-.213.007h-15.5a1 1 0 0 1 -.117-1.993l.117-.007h11v-25h-11a1 1 0 0 1 -.117-1.993l.117-.007h6v-1.5a1.5 1.5 0 0 0 -1.356-1.493l-.144-.007h-4.5a1 1 0 0 1 -.117-1.993l.117-.007zm-30.5 30a2 2 0 1 1 0 4 2 2 0 0 1 0-4zm16 0a2 2 0 1 1 0 4 2 2 0 0 1 0-4zm25.5-23h-2.5v25h2.5a1.5 1.5 0 0 0 1.493-1.352l.007-.148v-22a1.5 1.5 0 0 0 -1.356-1.493zm-32-29a3.5 3.5 0 0 1 3.493 3.287l.007.213v9.5h5.5a3.5 3.5 0 0 1 3.495 3.308l.005.192v31a3.5 3.5 0 0 1 -3.308 3.495l-.192.005h-21a3.5 3.5 0 0 1 -3.495-3.308l-.005-.192v-31a3.5 3.5 0 0 1 3.308-3.495l.192-.005h5.505l-.005-9.5a3.5 3.5 0 0 1 3.308-3.495l.192-.005zm9 15h-21a1.5 1.5 0 0 0 -1.493 1.356l-.007.144v31a1.5 1.5 0 0 0 1.356 1.493l.144.007h21a1.5 1.5 0 0 0 1.493-1.356l.007-.144v-31a1.5 1.5 0 0 0 -1.356-1.493zm-2.99 3.853a3.315 3.315 0 0 1 1.367 4.322l-.089.172-2.898 5.248a1 1 0 0 1 -1.257.44l-4.12-2.292-.095-.06-.09-.071-.081-.084-.066-.084-.058-.094-.05-.104-.035-.103-.024-.107-.012-.105a.994.994 0 0 1 .035-.33l.039-.113.051-.108 2.894-5.239a3.29 3.29 0 0 1 1.767-1.51l.208-.068a3.291 3.291 0 0 1 2.513.29zm-1.962 1.632a1.29 1.29 0 0 0 -.697.496l-.078.125-2.417 4.376 2.269 1.266 2.413-4.368a1.314 1.314 0 0 0 -.392-1.71l-.113-.072a1.29 1.29 0 0 0 -.985-.113zm-4.048-18.485h-3a1.5 1.5 0 0 0 -1.493 1.356l-.007.144v9.5h6.005l-.005-9.5a1.5 1.5 0 0 0 -1.352-1.493z" fill="#282D37" style="fill: currentColor;fill: var(--db-icon-color, currentColor)" fill-rule="nonzero"/><path d="m22 44a1 1 0 0 1 .117 1.993l-.117.007h-16a1 1 0 0 1 -.117-1.993l.117-.007z" fill="#EC0016" style="fill:#EC0016;fill: var(--db-icon-pulse-color, #EC0016)"/></g></svg>
