<svg id="icon" height="64" viewBox="0 0 64 64" width="64" xmlns="http://www.w3.org/2000/svg"><g fill="none" fill-rule="evenodd" transform="translate(4 16)"><path d="m22 24a8 8 0 0 1 7.994 7.698l.006.302v9a1 1 0 0 1 -1.993.117l-.007-.117v-9a6 6 0 0 0 -5.442-5.974l-.297-.02-.122.072a14.764 14.764 0 0 1 -6.705 1.91l-.444.012a14.752 14.752 0 0 1 -7.129-1.922l-.123-.072-.186.01a6 6 0 0 0 -5.548 5.76l-.004.224v9a1 1 0 0 1 -1.993.117l-.007-.117v-9a8 8 0 0 1 8-8 1 1 0 0 1 .52.145 12.736 12.736 0 0 0 6.47 1.855 12.752 12.752 0 0 0 6.49-1.855 1 1 0 0 1 .52-.145zm15.5-15h1.5l.09.004.118.018.115.031.087.035.02.01a.97.97 0 0 1 .286.204l.084.098 2.2 2.933 2.2-2.933a1.01 1.01 0 0 1 .264-.244l.126-.068.105-.04.057-.017.1-.02.114-.01 1.534-.001a3.5 3.5 0 0 1 3.495 3.308l.005.192v9.214a1 1 0 0 1 -.042.287l3.045-.001a2.997 2.997 0 0 1 2.99 2.8l.007.197v8.003a1 1 0 0 1 -1.993.117l-.007-.117v-8.003a.997.997 0 0 0 -.866-.988l-.131-.009h-22.003a1 1 0 0 1 -.117-1.993l.117-.007 3.042.001a.995.995 0 0 1 -.035-.17l-.007-.117v-9.214a3.5 3.5 0 0 1 3.308-3.495zm-22.5-4a9 9 0 1 1 0 18 9 9 0 0 1 0-18zm27.8 9.6a1 1 0 0 1 -1.515.1l-.085-.1-2.7-3.6h-1a1.5 1.5 0 0 0 -1.493 1.356l-.007.144v9.214a1 1 0 0 1 -.042.287h12.084a.995.995 0 0 1 -.035-.17l-.007-.117v-9.214a1.5 1.5 0 0 0 -1.356-1.493l-.144-.007h-1zm-27.8-7.6a7 7 0 1 0 0 14 7 7 0 0 0 0-14zm27-7a4 4 0 1 1 0 8 4 4 0 0 1 0-8zm0 2-.15.005a2 2 0 1 0 .15-.005z" fill="#282D37" style="fill: currentColor;fill: var(--db-icon-color, currentColor)" fill-rule="nonzero"/><path d="m45 17a1 1 0 0 1 .117 1.993l-.117.007h-1a1 1 0 0 1 -.117-1.993l.117-.007z" fill="#EC0016" style="fill:#EC0016;fill: var(--db-icon-pulse-color, #EC0016)"/></g></svg>
