<svg id="icon" height="20" viewBox="0 0 20 20" width="20" xmlns="http://www.w3.org/2000/svg"><path d="m9.00002757 0c-4.97056991 0-9.00002757 4.02942195-9.00002757 8.99997243 0 4.97049537 4.02945766 9.00002757 9.00002757 9.00002757 4.97052583 0 8.99997243-4.0295322 8.99997243-9.00002757 0-4.97055048-4.0294466-8.99997243-8.99997243-8.99997243zm2.61027323 3.03163931c.5624638 0 .8609005.05739302 1.1593372.21809125.2869668.14922846.5050043.37880052.6656924.66576559.1492184.27548426.2066779.55096853.2181478 1.03307426v.56244934c.0802889-.04591221.172158-.08035463.275497-.08035463.2640271 0 .5279439.20662147.5050042.50505632v1.80214507c0 .27548426-.2295073.50505632-.5050042.50505632-.0918691 0-.1837382-.02295059-.275497-.0803436v4.01749997c0 .5624604-.0574596.8608952-.2181478 1.1593301-.1032286.1952068-.2409771.355894-.4016653.4936417v.4820616c0 .3328442-.2640271.5968697-.5969836.5968697h-.355786c-.3328462 0-.5968733-.2295059-.5968733-.6887382h-5.05070449c0 .4476523-.26391684.6887382-.59687336.6887382h-.35578594c-.33284623 0-.59687336-.2640255-.59687336-.5968697v-.4820616c-.17226833-.1377477-.30990653-.2984349-.40178665-.4936417-.14922937-.2754953-.20662273-.5509906-.21809259-1.0330522v-4.15525868c-.08035512.04591221-.17218009.08035463-.2640161.08035463-.27548595 0-.50505941-.22957206-.50505941-.50506735v-1.79066426c0-.27548426.22957346-.50505632.50505941-.50505632.09183601 0 .18366098.02296162.2640161.08035463v-.42471272c0-.56244934.05739337-.86089522.21809259-1.1593411.14922937-.28696507.37884695-.50505632.66581378-.66575456.2753867-.14921742.55088368-.20661044 1.03305854-.21809125-.00788553-.00394652.63121377-.00653643 1.4734276-.00823606l.47686506-.00084158c.08194548-.00012648.16490262-.00024631.24853793-.00035983l.50728206-.00060823c.08501407-.0000897.17003933-.00017379.25474231-.00025262l.97962292-.00071615c.0767889-.00004239.1519216-.00008093.2250646-.00011597zm-5.72786677 8.82706549c-.36736607 0-.6772726.2984349-.6772726.6772685 0 .3787233.29843668.6771581.6772726.6771581.36725579 0 .67716232-.2984348.67716232-.6771581 0-.3788336-.30990653-.6772685-.67716232-.6772685zm6.14100197 0c-.3672558 0-.6771623.2984349-.6771623.6772685 0 .3787233.2984367.6771581.6771623.6771581.3788359 0 .6772726-.2984348.6772726-.6771581 0-.3788336-.3099065-.6772685-.6772726-.6772685zm.6084535-6.5313449h-7.36937882v5.1653382c1.38895476.2181464 2.65163087.3099047 3.68468941.3099047 1.05599821 0 2.28426481-.1032281 3.68468941-.3099047z" fill="#fbba00" fill-rule="evenodd" transform="translate(1 1)"/></svg>
