<svg id="icon" height="24" viewBox="0 0 24 24" width="24" xmlns="http://www.w3.org/2000/svg"><path d="m19.5 5c1.375 0 2.5 1.125 2.5 2.5v9c0 1.375-1.125 2.5-2.5 2.5h-15a2.507 2.507 0 0 1 -2.5-2.5v-9c0-1.375 1.125-2.5 2.5-2.5zm-12.469 2h-2.531c-.281 0-.5.219-.5.5v9c0 .281.219.5.5.5h6a1.614 1.614 0 0 1 -.531-1.188c0-.937.75-1.624 1.656-1.624a1.614 1.614 0 0 1 1.094 2.812h6.781c.281 0 .5-.219.5-.5v-9c0-.281-.219-.5-.5-.5h-8.781a2.4 2.4 0 0 1 .562 1.563c0 1.342-1.061 2.437-2.406 2.437-1.375 0-2.438-1.125-2.438-2.469 0-.562.22-1.094.594-1.531zm4.719 4c0-1.719 1.375-3.125 3.094-3.125s3.094 1.406 3.094 3.125a3.08 3.08 0 0 1 -3.094 3.094 3.08 3.08 0 0 1 -3.094-3.094z" fill="var(--db-icon-color, currentColor)" fill-rule="evenodd"/></svg>
