<svg id="icon" height="32" viewBox="0 0 32 32" width="32" xmlns="http://www.w3.org/2000/svg"><path d="m18 5.995c1.656 0 3 1.374 3 3.028v16.95c0 1.653-1.344 3.027-3 3.027h-12c-1.656 0-3-1.373-3-3.028v-16.949c0-1.653 1.344-3.028 3-3.028zm0 1.998h-12c-.563 0-1 .468-1 1.03v16.95c0 .561.438.998 1 .998h12c.563 0 1-.437 1-.999v-16.949c0-.562-.438-1.03-1-1.03zm8-5.993c1.656 0 3 1.373 3 3.028v16.949c0 1.654-1.344 3.028-3 3.028h-1.969c-.562 0-1-.469-1-1.03 0-.531.438-1 1-1h1.969c.563 0 1-.436 1-.998v-16.95a.987.987 0 0 0 -1-.998h-12c-.563 0-1-.468-1-.999 0-.562.438-1.03 1-1.03zm-18 19.977c.563 0 1 .468 1 1.03 0 .53-.438.999-1 .999-.563 0-1-.468-1-1 0-.56.438-1.03 1-1.03zm4 0c.563 0 1 .468 1 1.03 0 .53-.438.999-1 .999-.563 0-1-.468-1-1 0-.56.438-1.03 1-1.03zm4 0c.563 0 1 .468 1 1.03 0 .53-.438.999-1 .999-.563 0-1-.468-1-1 0-.56.438-1.03 1-1.03zm8-4.994c.563 0 1 .468 1 .999a.987.987 0 0 1 -1 .998c-.563 0-1-.437-1-.998 0-.531.438-1 1-1z" fill="var(--db-icon-color, currentColor)" fill-rule="evenodd"/></svg>
