<svg id="icon" height="24" viewBox="0 0 24 24" width="24" xmlns="http://www.w3.org/2000/svg"><path d="m16.093 2c.25 0 .5.156.625.25l3.031 3.062c.156.188.25.438.25.688v3.184a2.99 2.99 0 0 1 2.002 2.816v4.999a3 3 0 0 1 -3.001 3.001h-9.065c-.267 1.171-1.357 2-2.747 2-1.217 0-5.188-.579-5.188-8.031 0-5.645 2.154-7.38 4-7.83v-2.358c0-1.031.812-1.781 1.812-1.781zm-8.906 5.999c-2.438 0-3.188 2.75-3.188 5.969 0 3.593 1.063 6.031 3.188 6.031.437 0 .812-.187.812-.562v-1.75c0-.187-.093-.312-.312-.312h-.469c-.875 0-1.219-1-1.219-3.406 0-2.25.344-3.375 1.219-3.375h.5c.187 0 .281-.157.281-.313v-1.782c0-.375-.406-.5-.812-.5zm11.811 3.003h-9.115a2.25 2.25 0 0 1 -1.812 1.567c-.038.292-.072.737-.072 1.401 0 .681.031 1.136.067 1.435 1.125.171 1.933 1.096 1.933 2.284v.312h8.999c.552 0 1.001-.449 1.001-1.001v-4.997c0-.552-.449-1.001-1.001-1.001zm-3.987 3.998c.541 0 .988.442.988 1s-.447 1-.988 1h-.023a.993.993 0 0 1 -.988-1c0-.558.447-1 .988-1zm3 0c.541 0 .988.442.988 1s-.447 1-.988 1h-.023a.993.993 0 0 1 -.988-1c0-.558.447-1 .988-1zm-3-3c.541 0 .988.442.988 1s-.447 1-.988 1h-.023a.993.993 0 0 1 -.988-1c0-.558.447-1 .988-1zm3 0c.541 0 .988.442.988 1s-.447 1-.988 1h-.023a.993.993 0 0 1 -.988-1c0-.558.447-1 .988-1zm-3.012-8h-7v2.102c1.311.311 2 1.355 2 2.398v.5h8v-2h-2.031c-.531 0-.969-.5-.969-1z" fill="var(--db-icon-color, currentColor)" fill-rule="evenodd"/></svg>
