<svg id="icon" height="24" viewBox="0 0 24 24" width="24" xmlns="http://www.w3.org/2000/svg"><path d="m11 14.5573905v-4.6311695c0-.59016703.4366211-1.049186 1-1.049186s1.0031249.45901897 1.0031249 1.049186v4.6311695c0 .6557411-.439746 1.1147599-1.0031249 1.1147599s-1-.4918583-1-1.1147599zm-.6901366-11.3443215-8.05947279 16.0000836c-.15644405.3278706-.25039061.6557411-.25039061.9836117 0 .9836117.75117183 1.8032357 1.84668082 1.8032357h16.30663838c1.095509 0 1.8466808-.819624 1.8466808-1.8032357 0-.295136-.0939466-.6557411-.2503906-.9836117l-8.0281239-16.0000836c-.4214855-.78688937-1.0641601-1.213069-1.7214855-1.213069-.6572253 0-1.26.42617963-1.6901366 1.213069zm1.9453452.99294 7.6953291 15.3133043c.1276043.2402884 0 .4806867-.2871607.4806867h-15.34436625c-.19140645 0-.31901075-.1373391-.31901075-.2746781 0-.1030592.03185003-.1373391.03185003-.2060086l7.71294137-15.3133043c.0638021-.10305923.1595564-.206009.2552086-.206009.0638362 0 .1489057.06866967.2552086.206009zm-.270833 14.6136989c.5633789 0 1.0015625-.4590188 1.0015625-1.0491858 0-.5901671-.4381836-1.0491859-1.0015625-1.0491859-.5633788 0-1.0015624.4590188-1.0015624 1.0491859 0 .590167.4381836 1.0491858 1.0015624 1.0491858z" fill="var(--db-icon-color, currentColor)" fill-rule="evenodd"/></svg>
