<svg id="icon" height="20" viewBox="0 0 20 20" width="20" xmlns="http://www.w3.org/2000/svg"><path d="m14.153 7.077h1.859a1 1 0 1 0 0-2h-1.967v-2.077a1 1 0 1 0 -2 0v2.077h-1.967a1 1 0 1 0 0 2h1.859c-.387 1.963-1.8 3.594-2.695 4.457l-1.738-4.87a1 1 0 0 0 -1.883 0l-3.562 10a1 1 0 1 0 1.883.672l1.009-2.833h3.226l1.004 2.813a.997.997 0 0 0 1.278.605.998.998 0 0 0 .606-1.277l-1.096-3.072c.604-.502 2.07-1.836 3.074-3.729 1.248 2.355 3.236 3.866 3.358 3.957a1 1 0 0 0 1.2-1.6c-.031-.024-2.875-2.208-3.448-5.123zm-8.488 5.426.899-2.524.9 2.524h-1.8z" fill="var(--db-icon-color, currentColor)" fill-rule="evenodd"/></svg>
