<svg id="icon" height="64" viewBox="0 0 64 64" width="64" xmlns="http://www.w3.org/2000/svg"><g fill="none" fill-rule="evenodd" transform="translate(7.999 8)"><path d="m8.301 48c-2.413-.17-4.21-1.776-4.293-4.184l-.9-7.7a1 1 0 0 1 .877-1.11c.51-.059 1.032.3 1.11.878l.905 7.766c.067 1.346.827 2.173 2.366 2.35h31.47c1.434-.151 2.235-.955 2.37-2.403l.8-7.7a.996.996 0 0 1 1.099-.892c.51.053.945.522.89 1.098l-.799 7.697c-.235 2.355-1.72 3.978-4.295 4.2h-31.6zm35.6-48c2.283 0 4.355 1.884 4.295 4.401l-1.7 16.7a1 1 0 0 1 -1.096.894c-.51-.052-.982-.544-.894-1.096l1.694-16.637c0-1.17-1.036-2.252-2.299-2.262h-39.5c-1.28 0-2.361.98-2.399 2.267l1.694 16.633c.052.51-.32 1.04-.894 1.096a1.004 1.004 0 0 1 -1.096-.894l-1.705-16.701c-.057-2.395 1.922-4.397 4.4-4.401zm-19.9 4c6.653 0 12 5.348 12 12 0 .513-.41.999-1 1h-11a.978.978 0 0 0 .654-.244c.386-.333.484-.962.103-1.41l-.299-.346h9.492a9.919 9.919 0 0 0 -2.69-5.9l-.953 1.007a1 1 0 0 1 -1.414-1.414l.87-.878a9.852 9.852 0 0 0 -4.762-1.766v.951a1 1 0 1 1 -2 0v-.95a9.894 9.894 0 0 0 -4.826 1.807l.832.837a1 1 0 0 1 -1.414 1.414l-.927-.925a9.958 9.958 0 0 0 -2.617 5.817h1.451c.513 0 1 .416 1 1 0 .513-.417 1-1 1h-2.5a1 1 0 0 1 -1-1c0-6.652 5.348-12 12-12zm-20.4 29c-.479 0-.966-.379-.996-.914l-.6-7a1.005 1.005 0 0 1 .995-1.086h26.1c2.453 0 4.5 2.048 4.5 4.5s-2.047 4.5-4.5 4.5h-25.5zm25.5-2c1.348 0 2.5-1.152 2.5-2.5s-1.152-2.5-2.5-2.5h-25.01l.428 5h3.482v-2a1 1 0 1 1 2 0v2h4v-2a1 1 0 1 1 2 0v2h4v-2a1 1 0 1 1 2 0v2h4v-2a1 1 0 0 1 1-1c.513 0 1 .419 1 1v2zm15.9-7c.552 0 1.056.482.995 1.1l-.7 7a.998.998 0 0 1 -.995.9h-4.9c-2.041 0-4-2.146-4-4.5-.008-2.375 2.062-4.5 4.1-4.5zm-1.606 7 .5-5h-3.994c-1.347 0-2.5 1.152-2.5 2.5 0 1.153.92 2.5 2.6 2.5v-2a1 1 0 1 1 2 0v2z" fill="#282D37" style="fill: currentColor;fill: var(--db-icon-color, currentColor)" fill-rule="nonzero"/><path d="m20.147 11.544a.995.995 0 0 1 1.41.102l3.2 3.7a1 1 0 0 1 -1.512 1.308l-3.2-3.7a1 1 0 0 1 .102-1.41z" fill="#EC0016" style="fill:#EC0016;fill: var(--db-icon-pulse-color, #EC0016)"/></g></svg>
