<svg id="icon" height="64" viewBox="0 0 64 64" width="64" xmlns="http://www.w3.org/2000/svg"><g fill="none" fill-rule="evenodd" transform="translate(5.045 9.5)"><path d="m8.11.033c1.926.507 3.404 2.13 3.66 3.544.906-.402 2.06-.621 2.589-.672a1 1 0 0 1 1.084.843c.109.705.084 1.717-.047 2.442 2.81 1.955 18.446.923 19.04.888.596-.035 9.262-.678 10.019-.678 3.176 0 5.823 1.342 7.056 3.442 1.81 2.31 2.532 4.164 2.274 7.02-.195 1.752-.214 3.636-.058 5.651.447 4.71.123 6.493-.084 7.84a1 1 0 0 1 -1.976-.305c.589-3.464.074-6.5.063-7.423-.011-.595-.295-2.662.099-6.521-.362 1.642-1.584 5.61-1.957 7.194-.565 2.399-.63 3.801-.075 5.368.366 1.032.49 2.583.431 4.58-.066 2.229-.362 5.036-.887 8.422-.087.51-.416.787-.986.832h-4.8a1 1 0 0 1 -.929-1.371c1.251-3.127 1.245-5.325 1.23-6.781a1 1 0 1 1 1.998.105c-.022.568.07 3.476-.862 6.046l2.508.001c.804-5.07.75-8.715.702-9.445-.049-.73-.144-1.31-.287-1.715-.68-1.88-.683-3.55-.026-6.363.61-2.751 2.395-7.442 2.366-10.377 0-3.11-3.455-4.137-5.533-4.196-.834-.024-7.426.5-9.262.615-1.835.115-16.503 1.236-20.757-.928a3.855 3.855 0 0 1 -2 1.647 1 1 0 0 1 -1.286-.59c-.178-.481.015-1.072.59-1.286.69-.255 1.366-.87 1.5-2.769-.857.229-1.445.514-1.763.855-.219 1.09-1.34.834-1.49.768-.506-.221-.831-.867-.396-1.557.366-2.18-1.723-3.051-2.258-3.192a1 1 0 0 1 .51-1.934zm-.276 4.563a1 1 0 0 1 -.662 1.153c-.741.165-1.086.448-2.022 2.354-.74 1.507-1.488 2.647-2.478 2.973-.598.133-.845.776-.55 1.517.345.867 1.225 1.278 2.558.846 1.963-.561 4.221-.196 5.76 1.233 1.54 1.429 3.067 3.714 4.054 5.371 3.383 5.469 3.479 4.952 4.822 6.415.558.816 2.644 7.806.499 14.041h2.458c.142-1.166.236-2.774.282-4.824a1 1 0 0 1 2 .05 63.043 63.043 0 0 1 -.414 5.94 1 1 0 0 1 -.866.828l-4.92.007a1 1 0 0 1 -.929-1.371c.474-1.183.79-2.093.95-2.73.39-1.91.683-7.02-.642-10.697-2.196-1.871-3.646-4.616-4.93-6.588-.646-1.126-2.35-3.7-3.73-4.981-.974-.905-2.508-1.153-3.81-.782-2.3.748-4.265-.17-5-2.019-.668-1.677-.062-3.6 1.763-4.153.41-.275.887-.997 1.43-2.167.995-2.029 1.682-2.876 3.194-3.19a1 1 0 0 1 1.183.774zm.02 3.304a.8.8 0 1 1 0 1.6.8.8 0 0 1 0-1.6z" fill="#282D37" style="fill: currentColor;fill: var(--db-icon-color, currentColor)" fill-rule="nonzero"/><path d="m29.41 13.032c1.925.125 2.273 2.179 1.103 3.665.422 1.62.56 3.7 2.262 5.394 1.98.66 6.168-.15 9.32-1.383 1.649-.645 2.77-.607 3.331.241.484.73.558 4.69-.79 8.185-1.458 3.786-4.31 6.421-8.775 7.33.024 2.665-1.994 3.13-2.202 3.182l-.003.775a43.1 43.1 0 0 1 2.01.124 1 1 0 0 1 -.213 1.989c-1.65-.177-3.943-.16-5.49 0a1 1 0 1 1 -.207-1.99c.63-.065 1.27-.105 1.908-.125l-.004-.91c-.142-.057-1.874-.678-1.802-2.993-4.806-2.05-8.432-6.127-8.12-10.026l.325-3.639c.045-.51.507-.959 1.084-.908.51.045.973.52.908 1.084l-.303 3.433c-.38 3.111 3.139 6.823 7.458 8.443a1 1 0 0 1 .642.813l.007.923c0 .854.414 1.1 1 1.1.784 0 1.088-.479 1-1.664-.329-.738.213-1.348.76-1.426 4.27-.604 6.84-2.833 8.152-6.234.764-1.984 1.007-3.936.925-6.118a6.512 6.512 0 0 0 -.878.276c-3.464 1.332-7.843 2.264-10.518 1.465a.996.996 0 0 1 -.621-.266c-.88-.817-2.387-2.366-3.082-6.48l-.131-.544c-.08-.09-.143-.234-.19-.43-.15-.817-1.01-1.716-2.135-1.786-.693.005-1.398.388-2.115 1.15a1.793 1.793 0 0 1 -.181.131l-.545.302 1.01.865a1 1 0 0 1 .349.794c-.02.194-.125.837-.313 1.93a1 1 0 0 1 -1.151.822c-.506-.085-.926-.582-.822-1.151l.206-1.245-1.67-1.431a.994.994 0 0 1 .165-1.634l1.67-.928c.853-.876 1.777-1.398 2.772-1.565a3.336 3.336 0 0 1 2.228-1.069c.63-.033 1.631.198 1.665 1.529zm.33 14.274c2.7 2.505 5.605 2.9 8.468.173a1 1 0 1 1 1.502 1.32c-3.74 3.665-7.905 3.15-11.33-.026a1 1 0 1 1 1.36-1.467zm-3.48-11.667a.8.8 0 1 1 0 1.6.8.8 0 0 1 0-1.6z" fill="#EC0016" style="fill:#EC0016;fill: var(--db-icon-pulse-color, #EC0016)"/></g></svg>
