<svg id="icon" height="20" viewBox="0 0 20 20" width="20" xmlns="http://www.w3.org/2000/svg"><path d="m16 2c1.1045695 0 2 .8954305 2 2v12c0 1.1045695-.8954305 2-2 2h-12c-1.1045695 0-2-.8954305-2-2v-12c0-1.1045695.8954305-2 2-2zm-6.04099996 5.43897545c.43999996 0 .74799996.077.92399996.231s.264.429.264.825c0 .38866667-.0916666.66733334-.275.836-.1833333.16866667-.4876666.253-.91299996.253l-1.07805304.001v-2.146zm.07699996-1.43747545h-2.286c-.41421356 0-.75.33578644-.75.75v6.3065c0 .5194238.42107619.9405.9405.9405.51941531 0 .94048462-.4210693.94048462-.9404846l-.00003766-2.3035154.36305304-.001c.39252143 0 .57823979.0900442.7645.297.1241735.1379705.2396735.3066372.3465.506l1.2195138 2.0262939c.2501439.4156288.7885076.5520125 1.2063643.3056084.3801451-.224166.5634344-.7260329.3006623-1.1942488-.2004415-.3387124-.507955-.8462636-.9225404-1.5226535-.154-.2493333-.3173707-.4304322-.4675-.583-.0779908-.0792576-.2005085-.1575909-.367553-.235.5821285-.172328.9851462-.39466131 1.209053-.667.2933333-.32266667.44-.77733333.44-1.364 0-.77733333-.242-1.3585-.726-1.7435s-1.221-.5775-2.211-.5775z" fill="var(--db-icon-color, currentColor)" fill-rule="evenodd"/></svg>
