<svg id="icon" height="64" viewBox="0 0 64 64" width="64" xmlns="http://www.w3.org/2000/svg"><g fill="none" fill-rule="evenodd" transform="translate(15.97 8)"><path d="m17.131 10.005a1 1 0 0 1 .877.79c.205.981-.028 4.364-2.225 6.262-.732.632-2.585 1.95-6.753 1.95-4.139 0-6.022-1.318-6.754-1.95-1.556-1.343-2.466-3.633-2.243-6.145a1 1 0 0 1 .777-.888c.42-.094 6.091-.57 8.213 3.378 2.27-3.986 7.671-3.442 8.108-3.397zm0 10a1 1 0 0 1 .877.79c.205.981-.028 4.364-2.225 6.262-.732.632-2.585 1.95-6.753 1.95-4.139 0-6.022-1.318-6.754-1.95-1.556-1.343-2.466-3.633-2.243-6.145a1 1 0 0 1 .777-.888c.42-.094 6.091-.57 8.213 3.378 2.27-3.986 7.671-3.442 8.108-3.397zm0 10a1 1 0 0 1 .877.79c.205.981-.028 4.364-2.225 6.262-.732.632-2.585 1.95-6.753 1.95-4.139 0-6.022-1.318-6.754-1.95-1.556-1.343-2.466-3.633-2.243-6.145a1 1 0 0 1 .777-.888c.42-.094 6.091-.57 8.213 3.378 2.27-3.986 7.671-3.442 8.108-3.397zm-1.11-18.039c-2.84.082-5.693.94-5.984 5.018 4.452-.343 5.7-2.082 5.984-5.018zm0 10c-2.84.082-5.693.94-5.984 5.018 4.452-.343 5.7-2.082 5.984-5.018zm0 10c-2.84.082-5.693.94-5.984 5.018 4.452-.343 5.7-2.082 5.984-5.018zm-13.986-20c.24 2.969 1.706 4.724 5.982 5.018-.375-4.34-3.457-4.927-5.982-5.018zm0 10c.24 2.969 1.706 4.724 5.982 5.018-.375-4.34-3.457-4.927-5.982-5.018zm0 10c.24 2.969 1.706 4.724 5.982 5.018-.375-4.34-3.457-4.927-5.982-5.018zm6.453-31.807a1 1 0 0 1 1.06-.014c.415.252 3.282 2.14 3.282 4.855 0 2.483-2.533 4.361-3.248 4.834a1 1 0 0 1 -1.093.007c-.411-.263-3.279-2.258-3.259-4.841 0-2.65 2.94-4.637 3.26-4.841zm.552 2.077c-1.207 1.01-1.81 1.932-1.81 2.764 0 .823.6 1.742 1.8 2.755 1.2-1.013 1.8-1.932 1.8-2.755 0-.878-.597-1.799-1.79-2.764zm-.01 38.764c.512 0 1 .412 1 1v5a1 1 0 1 1 -2 0v-5a1 1 0 0 1 1-1z" fill="#282D37" style="fill: currentColor;fill: var(--db-icon-color, currentColor)" fill-rule="nonzero"/><path d="m26.03 35c.512 0 .998.405.998 1v8.585l2.494-2.492c.36-.36.989-.416 1.414 0 .36.36.416.981 0 1.414l-4.2 4.2a1 1 0 0 1 -1.414 0l-4.2-4.2a1 1 0 0 1 1.414-1.414l2.492 2.49.002-8.583a1 1 0 0 1 1-1z" fill="#EC0016" style="fill:#EC0016;fill: var(--db-icon-pulse-color, #EC0016)"/></g></svg>
