<svg id="icon" height="64" viewBox="0 0 64 64" width="64" xmlns="http://www.w3.org/2000/svg"><g fill="none" fill-rule="evenodd" transform="translate(9 4)"><path d="M25 0a5 5 0 0 1 4.995 4.783L30 5v5.618a1 1 0 0 1-1.993.117L28 10.618V5a3 3 0 0 0-2.824-2.995L25 2h-2v.034c0 .715-.258 1.404-.723 1.94l-.146.157a2.966 2.966 0 0 1-1.883.861L20.034 5H9.966a2.966 2.966 0 0 1-2.961-2.791L7 2H5a3 3 0 0 0-2.995 2.824L2 5v46a3 3 0 0 0 2.824 2.995L5 54h20a3 3 0 0 0 2.995-2.824L28 51v-9.467a1 1 0 0 1 1.993-.116l.007.116V51a5 5 0 0 1-4.783 4.995L25 56H5a5 5 0 0 1-4.995-4.783L0 51V5A5 5 0 0 1 4.783.005L5 0h20Zm-4 50a1 1 0 0 1 .117 1.993L21 52H9a1 1 0 0 1-.117-1.993L9 50h12Zm22.108-37a2.848 2.848 0 0 1 2.884 2.646l.008.168v20.389a2.844 2.844 0 0 1-2.704 2.795l-.171.002h-12.15a2.848 2.848 0 0 1-2.885-2.646l-.007-.168V15.797a2.846 2.846 0 0 1 2.718-2.795l.173-.002h12.134Zm-12.166 2a.846.846 0 0 0-.85.712l-.01.102V36.17c.008.43.336.78.767.826l.11.005H43.14c.43.007.792-.31.85-.712l.009-.102V15.83a.846.846 0 0 0-.766-.826l-.11-.005h-12.18Zm10.06 17a1 1 0 0 1 .116 1.993L41 34a1 1 0 0 1-.119-1.993l.12-.007Zm-4 0a1 1 0 0 1 .116 1.993L37 34a1 1 0 0 1-.119-1.993l.12-.007Zm-4 0a1 1 0 0 1 .116 1.993L33 34a1 1 0 0 1-.119-1.993l.12-.007ZM12 24a2 2 0 0 1 2 2v5a2 2 0 0 1-2 2H7a2 2 0 0 1-2-2v-5a2 2 0 0 1 2-2h5Zm8 0a1 1 0 0 1 1 1v3h3a1 1 0 0 1 1 1v3a1 1 0 0 1-1 1h-3a1 1 0 0 1-1-1v-3h-3a1 1 0 0 1-1-1v-3a1 1 0 0 1 1-1h3Zm-8 1.5H7a.5.5 0 0 0-.492.41L6.5 26v5a.5.5 0 0 0 .41.492L7 31.5h5a.5.5 0 0 0 .492-.41L12.5 31v-5a.5.5 0 0 0-.41-.492L12 25.5Zm11.5 4h-2v2h2v-2Zm-12.945-2.54a.5.5 0 0 1 .5.5v2a.5.5 0 0 1-.5.5h-2a.5.5 0 0 1-.5-.5v-2a.5.5 0 0 1 .5-.5h2ZM19.5 25.5h-2v2h2v-2ZM12 13a2 2 0 0 1 2 2v5a2 2 0 0 1-2 2H7a2 2 0 0 1-2-2v-5a2 2 0 0 1 2-2h5Zm11 0a2 2 0 0 1 2 2v5a2 2 0 0 1-2 2h-5a2 2 0 0 1-2-2v-5a2 2 0 0 1 2-2h5Zm-11 1.5H7a.5.5 0 0 0-.492.41L6.5 15v5a.5.5 0 0 0 .41.492L7 20.5h5a.5.5 0 0 0 .492-.41L12.5 20v-5a.5.5 0 0 0-.41-.492L12 14.5Zm11 0h-5a.5.5 0 0 0-.492.41L17.5 15v5a.5.5 0 0 0 .41.492l.09.008h5a.5.5 0 0 0 .492-.41L23.5 20v-5a.5.5 0 0 0-.41-.492L23 14.5ZM10.555 16a.5.5 0 0 1 .5.5v2a.5.5 0 0 1-.5.5h-2a.5.5 0 0 1-.5-.5v-2a.5.5 0 0 1 .5-.5h2Zm10.884 0a.5.5 0 0 1 .5.5v2a.5.5 0 0 1-.5.5h-2a.5.5 0 0 1-.5-.5v-2a.5.5 0 0 1 .5-.5h2ZM21 2H9l.006.147a.967.967 0 0 0 .738.827l.11.02.112.006h10.068a.966.966 0 0 0 .958-.839L21 2.034V2Z" fill="var(--db-icon-color, currentColor)" fill-rule="nonzero"/><path d="M37 18a1 1 0 0 1 .117 1.993L37 20h-4a1 1 0 0 1-.117-1.993L33 18h4Z" fill="var(--db-icon-pulse-color, #EC0016)"/></g></svg>
