<svg id="icon" height="24" viewBox="0 0 24 24" width="24" xmlns="http://www.w3.org/2000/svg"><path d="m10 17.988c0 1.113.941 2.012 2 2.012 1.106 0 2-.9 2-2.012 0-1.088-.918-1.988-2.047-1.988-1.059 0-1.953.9-1.953 1.988zm1.93-8.049c-2.23 0-4.32 1.15-5.61 2.981-.189.267-.494.446-.775.446-.658 0-1.057-.54-1.057-.939 0-.211.094-.48.215-.654 1.655-2.374 4.363-3.83 7.227-3.83.815 0 1.614.115 2.38.331l1.545-1.545c-1.16-.463-2.45-.71-3.855-.71-3.216 0-6.309 1.55-8.195 4.223-.25.354-.584.425-.866.425-.4 0-.939-.47-.939-.986 0-.212.07-.446.188-.61a12.03 12.03 0 0 1 9.812-5.071 12.1 12.1 0 0 1 5.343 1.242l1.95-1.95a1 1 0 0 1 1.414 0 1.01 1.01 0 0 1 0 1.415l-16 16a1 1 0 0 1 -1.414 0c-.36-.36-.397-1.017 0-1.414l3.902-3.905c-.05-.123-.108-.633.11-.966a5.583 5.583 0 0 1 3.166-2.31l2.139-2.139a6.748 6.748 0 0 0 -.68-.034zm3.289 3.059c.526.387.988.869 1.357 1.426.119.18.19.374.19.562 0 .493-.4 1.01-.987 1.01a.983.983 0 0 1 -.843-.448 3.575 3.575 0 0 0 -1.146-1.122zm2.698-2.7c.477.44.909.933 1.286 1.475.12.173.191.373.191.607 0 .634-.563.986-1.009.986a.993.993 0 0 1 -.8-.444 7.091 7.091 0 0 0 -1.076-1.214zm2.687-2.688c.438.45.841.94 1.205 1.463.12.174.191.373.191.584 0 .564-.4 1.01-.986 1.01-.329 0-.639-.165-.82-.424a10.38 10.38 0 0 0 -.993-1.228z" fill="#282D37" style="fill: currentColor;fill: var(--db-icon-color, currentColor)" fill-rule="evenodd"/></svg>
