<svg id="icon" height="32" viewBox="0 0 32 32" width="32" xmlns="http://www.w3.org/2000/svg"><path d="m8.28576799 20.796c.513.206.763.788.557 1.301l-2.913 7.275c-.157.391-.532.628-.929.628-.123 0-.249-.022-.371-.071-.513-.206-.763-.788-.557-1.301l2.913-7.275c.205-.513.787-.763 1.3-.557zm1.91600001-11.028c.356.19.562.578.522.98l-.73700001 7.365 2.63600001 3.594c.064.089.114.189.147.293l2.099 6.7c.165.527-.128 1.088-.655 1.253-.099.031-.2.046-.299.046-.426 0-.82-.273-.954-.701l-2.048-6.543-2.76400001-3.768c-.146-.199-.212-.445-.188-.691l.535-5.345-.997.816-1.122 3.672c-.162.529-.723.83-1.249.664-.529-.161-.826-.72-.665-1.248l1.21-3.962c.058-.189.17-.356.323-.481l3.1-2.537c.313-.256.75-.3 1.10600001-.107zm5.628 8.354c.385-.396 1.018-.404 1.414-.018l8.31 8.096c.396.385.404 1.018.019 1.414-.195.201-.456.302-.716.302-.252 0-.504-.095-.698-.284l-8.31-8.096c-.396-.385-.404-1.018-.019-1.414zm-2.511-5.55.484 1.771 1.484 1.518c.385.395.378 1.028-.017 1.414-.195.19-.447.285-.699.285-.259 0-.519-.101-.715-.301l-1.664-1.703c-.119-.123-.205-.272-.249-.436l-.553-2.02c-.146-.533.168-1.083.701-1.229.528-.144 1.082.168 1.228.701zm13.682 15.427c-.517 0-1 .483-1 1s.483 1 1 1 1-.483 1-1-.483-1-1-1zm-16.59-19.839c1.698 0 3.08-1.382 3.08-3.08s-1.382-3.08-3.08-3.08c-1.69800001 0-3.08000001 1.382-3.08000001 3.08s1.382 3.08 3.08000001 3.08zm0-4.16c.596 0 1.08.484 1.08 1.08s-.484 1.08-1.08 1.08c-.59600001 0-1.08000001-.484-1.08000001-1.08s.484-1.08 1.08000001-1.08z" fill="var(--db-icon-color, currentColor)" fill-rule="evenodd"/></svg>
