<svg id="icon" height="64" viewBox="0 0 64 64" width="64" xmlns="http://www.w3.org/2000/svg"><g fill="none" fill-rule="evenodd" transform="translate(4 11)"><path d="m40.233 0c2.215 0 4.131 1.598 4.661 3.888l3.07 11.291c.012.044.002.086.008.128a.99.99 0 0 1 .014.204l-.014.1-.028.102c-.012.04-.008.082-.026.122-.008.018-.024.03-.032.046-.032.062-.074.114-.116.168-.04.05-.076.1-.124.142-.042.036-.09.06-.138.088-.068.04-.132.078-.206.102-.016.006-.026.018-.042.022a.9.9 0 0 1 -.24.032.97.97 0 0 1 -.418-.078c-.458-.198-1.452-.464-3.596-.616-4.685-.336-9.505-.322-14.193-.332h-.814a340.7 340.7 0 0 0 -15.631.36l-.282.02c-2.388.23-4.26 1.962-4.822 4.166l4.95.354a3.017 3.017 0 0 1 2.785 2.994v.488c0 1.654-1.345 3-3 3l-.223-.008-4.254-.304.302 3.298c.146 1.518.99 2.494 2.31 2.672l.034.012h.042l.023.005.06.012c.75.152 6.478 1.25 15.168 1.434a1 1 0 0 1 -.022 2h-.022a111.65 111.65 0 0 1 -9.418-.588v1.052c0 .97-.098 1.476-.388 2.014a2.83 2.83 0 0 1 -1.166 1.164c-.533.286-1.041.384-2.011.384h-2.872c-.972 0-1.48-.096-2.016-.388a2.821 2.821 0 0 1 -1.164-1.162c-.286-.538-.384-1.046-.384-2.012v-5.436c0-.006.004-.012.004-.02a6.199 6.199 0 0 1 -.172-.954l-.724-7.934c-.258-2.672.934-5.142 2.916-6.678.006-.058-.004-.116.012-.174l3.08-11.327c.52-2.253 2.438-3.853 4.651-3.853zm-32.235 33.748v2.63c0 .79.078.938.148 1.066a.814.814 0 0 0 .346.346c.134.072.278.15 1.07.15h2.872c.792 0 .938-.078 1.066-.148a.807.807 0 0 0 .348-.346c.072-.132.15-.276.15-1.068v-1.286c-2.6-.334-4.088-.646-4.208-.672a.123.123 0 0 1 -.022-.01 4.556 4.556 0 0 1 -1.77-.662zm26.435-10.805a1 1 0 0 1 0 2h-12.873c-.788 0-.938.08-1.068.15a.814.814 0 0 0 -.346.346c-.02.08-.25.962-1.166 5.694a.999.999 0 1 1 -1.962-.38c1.015-5.255 1.219-5.95 1.333-6.194l.014-.028.02-.038c.267-.498.67-.9 1.167-1.166.538-.286 1.046-.384 2.01-.384h12.87zm-27.325-.99.23 2.51 4.592.328c.622 0 1.07-.448 1.07-.998v-.488c0-.522-.408-.96-.93-.998zm-1.108-9.012a1 1 0 0 1 0 2h-3.5a.5.5 0 0 0 -.5.5v.264c0 .382.212.724.552.894l.896.448c.492.25.694.85.446 1.344a1.004 1.004 0 0 1 -1.342.446l-.894-.448a2.984 2.984 0 0 1 -1.658-2.684v-.264c0-1.378 1.122-2.5 2.5-2.5zm34.233-10.937h-24.466c-1.278 0-2.393.962-2.711 2.338l-2.654 9.76a7.532 7.532 0 0 1 1.884-.327c5.177-.24 10.467-.362 15.713-.362h.812c4.722-.008 9.582.002 14.34.34a23.73 23.73 0 0 1 2.43.282l-2.628-9.655c-.328-1.416-1.443-2.376-2.721-2.376z" fill="var(--db-icon-color, currentColor)" fill-rule="nonzero"/><path d="m38.393 33.608a2.208 2.208 0 1 1 -3.123 3.122 2.208 2.208 0 0 1 3.123-3.122zm12.207-15.605-10.883 10.864-1.114-.298a6.77 6.77 0 0 0 -1.768-.234 6.79 6.79 0 0 0 -4.832 2.002 6.842 6.842 0 0 0 0 9.663 6.785 6.785 0 0 0 4.832 2.002c1.826 0 3.54-.71 4.83-2.002a6.85 6.85 0 0 0 1.77-6.6l-.299-1.113 3.61-3.612.578-2.808 2.588-.514.536-2.604 2.764-.552.778-.768.012-3.416-3.4-.01zm-.236-2.002 4.348.012c.726.09 1.288.71 1.288 1.462l-.014 4.356c-.042.32-.188.618-.418.848l-1.172 1.156a1.48 1.48 0 0 1 -.622.288l-1.638.326-.378 1.826c-.166.49-.584.862-1.102.966l-1.644.33-.374 1.81c-.072.22-.194.42-.36.584l-2.916 2.92a8.829 8.829 0 0 1 -2.288 8.53 8.836 8.836 0 0 1 -12.491 0 8.832 8.832 0 0 1 0-12.492 8.827 8.827 0 0 1 8.532-2.288l10.35-10.332a1.47 1.47 0 0 1 .895-.304z" fill="var(--db-icon-pulse-color, #EC0016)"/></g></svg>
