<svg id="icon" height="64" viewBox="0 0 64 64" width="64" xmlns="http://www.w3.org/2000/svg"><g fill="none" fill-rule="evenodd" transform="translate(14 8)"><path d="m32 0a4 4 0 0 1 4 4v40a4 4 0 0 1 -4 4h-28a4 4 0 0 1 -4-4v-40a4 4 0 0 1 4-4zm0 2h-28a2 2 0 0 0 -2 2v40a2 2 0 0 0 2 2h28a2 2 0 0 0 2-2v-40a2 2 0 0 0 -2-2zm-14 1.875a1.125 1.125 0 1 1 0 2.25 1.125 1.125 0 0 1 0-2.25z" fill="var(--db-icon-color, currentColor)" fill-rule="nonzero"/><path d="m22 42a1 1 0 0 1 .117 1.993l-.117.007h-8a1 1 0 0 1 -.117-1.993l.117-.007z" fill="var(--db-icon-pulse-color, #EC0016)"/></g></svg>
