<svg id="icon" height="24" viewBox="0 0 24 24" width="24" xmlns="http://www.w3.org/2000/svg"><path d="m2 9.68c0 .517.54.987.939.987.282 0 .616-.07.866-.425 1.885-2.674 4.979-4.222 8.195-4.222 3.545 0 6.356 1.573 8.195 4.224.18.26.49.424.82.424.586 0 .985-.446.985-1.01 0-.211-.07-.41-.191-.584-2.219-3.196-5.912-5.074-9.809-5.074a12.03 12.03 0 0 0 -9.812 5.07c-.118.165-.188.4-.188.61zm2.488 2.747c0 .4.4.94 1.057.94.281 0 .586-.18.774-.447 1.291-1.83 3.381-2.98 5.611-2.98 2.279 0 4.373 1.15 5.655 2.983.196.28.496.444.801.444.446 0 1.01-.352 1.01-.986 0-.234-.071-.434-.192-.607-1.655-2.374-4.362-3.83-7.273-3.83-2.864 0-5.572 1.456-7.227 3.83a1.273 1.273 0 0 0 -.215.654zm2.63 2.559c0 .563.422 1.01.985 1.01.352 0 .681-.188.845-.447a3.533 3.533 0 0 1 2.982-1.643c1.22 0 2.343.61 3.006 1.642a.983.983 0 0 0 .843.447c.587 0 .986-.516.986-1.01 0-.187-.07-.381-.19-.561a5.59 5.59 0 0 0 -4.645-2.513 5.567 5.567 0 0 0 -4.626 2.511c-.14.214-.187.376-.187.564zm2.882 3.002c0 1.113.941 2.012 2 2.012 1.106 0 2-.9 2-2.012 0-1.088-.918-1.988-2.047-1.988-1.059 0-1.953.9-1.953 1.988z" fill="var(--db-icon-color, currentColor)" fill-rule="evenodd"/></svg>
