<svg id="icon" height="20" viewBox="0 0 20 20" width="20" xmlns="http://www.w3.org/2000/svg"><path d="m7 11a.97.97 0 0 1 -.306.725 2.488 2.488 0 0 0 -.725 1.744 2.54 2.54 0 0 0 2.531 2.531c.656 0 1.3-.25 1.806-.756a.921.921 0 0 1 .663-.275c.562 0 1 .469 1 1 0 .25-.063.531-.25.719-.844.843-2 1.312-3.188 1.312a4.535 4.535 0 0 1 -4.531-4.531c0-1.156.469-2.25 1.25-3.156a.95.95 0 0 1 .719-.313c.561 0 1.031.438 1.031 1zm3.188-3.25 1.03 3.25h2.188c.781 0 1.253.374 1.531 1.063l1.844 4.562c.043.105.063.281.063.375a.98.98 0 0 1 -.969 1c-.469 0-.815-.311-.969-.688l-1.75-4.312h-2.75c-.469 0-.86-.276-1-.75l-1.187-4a1.006 1.006 0 0 1 .969-1.25c.468 0 .863.316 1 .75zm-1.376-5.75c.813 0 1.5.688 1.5 1.5a1.5 1.5 0 0 1 -1.5 1.5 1.48 1.48 0 0 1 -1.5-1.5 1.5 1.5 0 0 1 1.5-1.5z" fill="var(--db-icon-color, currentColor)" fill-rule="evenodd"/></svg>
