<svg id="icon" height="32" viewBox="0 0 32 32" width="32" xmlns="http://www.w3.org/2000/svg"><path d="m16.156 16c1.125 0 2 .906 2 2 0 .094 0 .219-.031.313l-1.656 10a2.01 2.01 0 0 1 -1.97 1.687h-4.312c-1 0-1.812-.719-1.968-1.688l-1.688-10c-.219-1.217.75-2.312 1.969-2.312zm0 2h-7.656l.687 4h2.813c.563 0 1 .438 1 1 0 .531-.437 1-1 1h-2.5l.687 4h4.313zm-1.312-6.938 1.531-3.03c.437-.845.625-1.782.625-2.688v-1.344c0-1.125.906-2 2-2h2c1.094 0 2 .875 2 2v1.344c0 .906.187 1.843.625 2.687l1.531 3.031a7.862 7.862 0 0 1 .844 3.564v13.374c0 1.094-.906 2-2 2h-4c-.563 0-1-.469-1-1 0-.563.437-1 1-1h4v-13.375c0-.906-.219-1.844-.625-2.656l-1.531-3.063a7.862 7.862 0 0 1 -.844-3.562v-1.344h-2v1.344a7.862 7.862 0 0 1 -.844 3.562l-1.531 3.063c-.156.344-.531.531-.875.531-.563 0-1-.438-1-1a1.1 1.1 0 0 1 .094-.438z" fill="#282D37" style="fill: currentColor;fill: var(--db-icon-color, currentColor)" fill-rule="evenodd"/></svg>
