<svg id="icon" height="32" viewBox="0 0 32 32" width="32" xmlns="http://www.w3.org/2000/svg"><path d="m27.745 10.64c-1.023.332-2.044.665-3.064 1-.64.28-.8.775-.64 1.262.16.488.714.834 1.261.64 1.79-.582 1.828-.638 3.575-1.17.473 1.795-.508 3.502-2.184 4.03l-5.45 1.715-4.242 7.788c-.136.25-.368.433-.643.507l-.568.154a1.041 1.041 0 0 1 -1.312-1.003l-.009-5.315-4.199 1.317a3.934 3.934 0 0 1 -4.851-2.324l-2.367-6.71a.916.916 0 0 1 .535-1.16l.71-.276a1.62 1.62 0 0 1 1.598.248l2.894 2.32 12.114-3.805c2.234-.714 5.182-.57 6.842.782zm-16.831 5.006a1.407 1.407 0 1 0 .862 2.679 1.407 1.407 0 0 0 -.862-2.68zm4.375-1.41a1.406 1.406 0 1 0 .862 2.678 1.406 1.406 0 0 0 -.862-2.677zm4.376-1.408a1.406 1.406 0 1 0 .862 2.677 1.406 1.406 0 0 0 -.862-2.677zm-7.292-7.486 3.754 3.805-4.252 1.445-1.958-3.851a1.124 1.124 0 0 1 .73-1.528l.616-.172c.397-.11.823.005 1.11.301z" fill="var(--db-icon-color, currentColor)" fill-rule="evenodd"/></svg>
