<svg id="icon" height="24" viewBox="0 0 24 24" width="24" xmlns="http://www.w3.org/2000/svg"><path d="m18 10c.5522847 0 1 .4477153 1 1 0 3.5275105-2.6062446 6.5160607-6 7v2h2c.5522847 0 1 .4477153 1 1 0 .5128358-.45 1-1 1h-6c-.55228475 0-1-.4477153-1-1 0-.5128358.45-1 1-1h2v-2c-3.39424381-.4835078-6-3.4721423-6-7 0-.5522847.44771525-1 1-1s1 .4477153 1 1c0 2.7614237 2.23857625 5 5 5 2.7614237 0 5-2.2385763 5-5 0-.5522847.4477153-1 1-1zm-6-8c1.8685634 0 3.5 1.57 3.5 3.5v5.5c0 1.9329966-1.5670034 3.5-3.5 3.5-1.8685634 0-3.5-1.57-3.5-3.5v-5.5c0-1.93299662 1.5670034-3.5 3.5-3.5z" fill="var(--db-icon-color, currentColor)" fill-rule="evenodd"/></svg>
