<svg id="icon" height="64" viewBox="0 0 64 64" width="64" xmlns="http://www.w3.org/2000/svg"><g fill="none" fill-rule="evenodd" transform="translate(11.5 11.5)"><path d="m29.238 16.717c.108.382.262 1.575.262 2.093v18.73c0 1.555-1.249 2.96-2.907 2.96h-12.163c-1.562 0-2.93-1.245-2.93-2.92v-3.125l2-2v5.125c0 .472.374.92.93.92h12.163c.468 0 .907-.421.907-.96v-18.707l-.022-.356zm-12.738 15.783c.513 0 1 .404 1 1v1a1 1 0 0 1 -2 0v-1a1 1 0 0 1 1-1zm1-4.045v1.045a1 1 0 0 1 -1.729.685zm.08-12.839a1 1 0 0 1 .646 1.162c-.484 1.23-.726 2.34-.726 3.332v1.272l-2 2v-3.272c0-1.277.268-2.57.806-3.88a1 1 0 0 1 1.274-.614zm7.44-11.606c.513 0 1 .403 1 1l-.02 4.13c0 1.596.685 2.468.938 2.801l-1.435 1.435c-1.168-1.51-1.503-2.806-1.503-4.235 0-.954.006-1.997.02-3.132h-7.04l.02 3.19c0 2.742-1.569 4.177-2.092 4.99s-1.196 1.914-1.408 4.621v6.569l-2 2v-8.592c.062-1.94.652-4.193 1.79-5.775 1.14-1.582 1.618-2.043 1.71-3.828l-.02-4.174c0-.513.411-1 1-1zm0-3.51a1 1 0 0 1 1 1c0 .513-.42 1-1 1h-9.04a1 1 0 1 1 0-2z" fill="#282D37" style="fill: currentColor;fill: var(--db-icon-color, currentColor)" fill-rule="nonzero"/><path d="m38.44.44a1.5 1.5 0 0 1 2.12 0 1.49 1.49 0 0 1 0 2.12l-38 38a1.5 1.5 0 0 1 -2.12-2.12l38-38z" fill="#EC0016" style="fill:#EC0016;fill: var(--db-icon-pulse-color, #EC0016)"/></g></svg>
