<svg id="icon" height="64" viewBox="0 0 64 64" width="64" xmlns="http://www.w3.org/2000/svg"><g fill="none" fill-rule="evenodd" transform="translate(11.504 11.5)"><path d="m33.257 12.675c1.215 3.086 1.939 6.478 1.939 9.825 0 11.072-5.542 18-14.7 18-4.425 0-8.006-1.618-10.526-4.54l1.421-1.418c2.173 2.57 5.267 3.958 9.105 3.958 7.943 0 12.7-5.947 12.7-16 0-2.805-.56-5.645-1.495-8.269zm-12.761-12.175c3.753 0 7.583 3.047 10.393 7.487l-1.452 1.453c-2.005-3.384-5.446-6.923-8.941-6.94-5.376.004-12.624 9.297-12.7 20 0 2.834.378 5.341 1.099 7.481l-1.553 1.553c-1.011-2.556-1.546-5.595-1.546-9.034 0-10.762 7.492-22 14.7-22zm9.307 15.627a24.68 24.68 0 0 1 .683 3.23 1 1 0 0 1 -1.98.286c-.094-.65-.21-1.274-.346-1.872zm-6.346-9.214c.984.51 2.64 1.826 4.2 4.305l-1.456 1.456c-1.573-2.676-3.304-3.786-3.666-3.987a1 1 0 1 1 .922-1.774z" fill="var(--db-icon-color, currentColor)" fill-rule="nonzero"/><path d="m38.435.44a1.5 1.5 0 0 1 2.122 0 1.506 1.506 0 0 1 0 2.12l-38 38a1.5 1.5 0 0 1 -2.122 0 1.51 1.51 0 0 1 0-2.12l38-38z" fill="var(--db-icon-pulse-color, #EC0016)"/></g></svg>
