<svg id="icon" height="20" viewBox="0 0 20 20" width="20" xmlns="http://www.w3.org/2000/svg"><path d="m15.923 4c1.147 0 2.077.93 2.077 2.077v1.923a1 1 0 0 1 -1 1 1 1 0 0 0 0 2 1 1 0 0 1 1 1v1.923c0 1.147-.93 2.077-2.077 2.077h-11.846a2.077 2.077 0 0 1 -2.077-2.077v-1.923a1 1 0 0 1 1-1 1 1 0 0 0 0-2 1 1 0 0 1 -1-1v-1.923c0-1.147.93-2.077 2.077-2.077zm-3.933 6.995a.996.996 0 0 0 -.995.995 1.006 1.006 0 1 0 .995-.995zm-.488-3.919-4.406 4.426 1.402 1.402 4.426-4.406zm-3.492-.081a1.006 1.006 0 1 0 0 2.01.996.996 0 0 0 .995-.995c0-.568-.447-1.015-.995-1.015z" fill="#282D37" style="fill: currentColor;fill: var(--db-icon-color, currentColor)" fill-rule="evenodd"/></svg>
