<svg id="icon" height="20" viewBox="0 0 20 20" width="20" xmlns="http://www.w3.org/2000/svg"><path d="m8.5 14c.91 0 1.601.646 1.907 1.421l.57 1.362a1 1 0 0 1 -.76 1.193c-.54.12-1.006-.316-1.193-.76l-.54-1.216h-3.984l-.524 1.218c-.231.509-.655.878-1.194.758a1 1 0 0 1 -.758-1.194l.553-1.345c.243-.672.96-1.437 1.923-1.437zm-1.978-7.25a2.714 2.714 0 0 1 2.728 2.728 2.754 2.754 0 0 1 -2.728 2.772 2.791 2.791 0 0 1 -2.772-2.772 2.754 2.754 0 0 1 2.772-2.728zm8.459 3.817a.75.75 0 1 1 -1.46.338.75.75 0 0 1 1.46-.338zm2.917-.694a.75.75 0 1 1 -1.296.755.75.75 0 0 1 1.296-.755zm-6.271-.273a.75.75 0 1 1 -.754 1.297.75.75 0 0 1 .754-1.297zm3.353-1.342a.75.75 0 1 1 -1.459.339.75.75 0 0 1 1.46-.339zm-2.603-.906a.75.75 0 1 1 -.755 1.297.75.75 0 0 1 .755-1.297zm4.771.271a.75.75 0 1 1 -1.295.755.75.75 0 0 1 1.295-.755zm-2.898-5.623c.513 0 1 .429 1 1v1.324l.414.05.981.137a1 1 0 1 1 -.29 1.978l-1.266-.17a5.208 5.208 0 0 0 -1.4-.038l-1.544.208a1 1 0 1 1 -.29-1.978l.981-.136.414-.049v-1.326a1 1 0 0 1 1-1z" fill="var(--db-icon-color, currentColor)" fill-rule="evenodd"/></svg>
