<svg id="icon" height="32" viewBox="0 0 32 32" width="32" xmlns="http://www.w3.org/2000/svg"><path d="m16 2c7.7319865 0 14 6.2680135 14 14s-6.2680135 14-14 14-14-6.2680135-14-14 6.2680135-14 14-14zm0 2c-6.627417 0-12 5.372583-12 12s5.372583 12 12 12 12-5.372583 12-12-5.372583-12-12-12zm4.59 4.46c.7796961 0 1.5.64191521 1.5 1.5v11.54c0 .8284271-.6715729 1.5-1.5 1.5-.7796966 0-1.5000122-.6466062-1.5000029-1.5 0-.5049116-.0000031-2.1115783-.0000093-4.82h-6.18l.0000122 4.8200029c0 .8284255-.6715745 1.4999971-1.5 1.4999971-.7796961 0-1.5-.6399618-1.5-1.5 0-.7056899 0-4.5523565 0-11.54 0-.77969612.6656368-1.5 1.5-1.5s1.4999878.79184245 1.5 1.5c-.0000081 1.2903002-.0000122 2.7769668-.0000122 4.46h6.18l.0000091-4.46c.0000017-.82842762.6715755-1.5 1.5000031-1.5z" fill="var(--db-icon-color, currentColor)" fill-rule="evenodd"/></svg>
