<svg id="icon" height="24" viewBox="0 0 24 24" width="24" xmlns="http://www.w3.org/2000/svg"><path d="m12 2c5.5228475 0 10 4.4771525 10 10s-4.4771525 10-10 10-10-4.4771525-10-10 4.4771525-10 10-10zm0 2c-4.418278 0-8 3.581722-8 8s3.581722 8 8 8 8-3.581722 8-8-3.581722-8-8-8zm-3.163 2.86531864.11662316.00672593c.45908174.05332257.82332852.41757096.87664771.87665293l.00672708.11662114-.00000649 3.17199996h4.32600004l.0000065-3.17199996c.0000029-.51283509.386043-.93550528.883381-.99327187l.116621-.00672813h.1c.5128358 0 .9355072.38604019.9932723.88337888l.0067277.11662112v8.17799996c0 .5128359-.3860402.9355072-.8833789.9932723l-.1166211.0067277h-.1c-.5128351 0-.9355061-.3860411-.9932736-.883379l-.0067283-.116621-.0000066-3.424h-4.32600004l.00000661 3.424c.00000179.5128377-.38603827.9355091-.88337695.9932727l-.11662112.0067273h-.1c-.51283584 0-.93550716-.3860401-.99327227-.8833788l-.00672773-.1166212v-8.17799996c0-.51283584.38604019-.93550716.88337887-.99327226l.11662113-.00672774z" fill="var(--db-icon-color, currentColor)" fill-rule="evenodd"/></svg>
