<svg id="icon" height="20" viewBox="0 0 20 20" width="20" xmlns="http://www.w3.org/2000/svg"><path d="m10 2c4.418278 0 8 3.581722 8 8s-3.581722 8-8 8-8-3.581722-8-8 3.581722-8 8-8zm0 2c-3.3137085 0-6 2.6862915-6 6s2.6862915 6 6 6 6-2.6862915 6-6-2.6862915-6-6-6zm-2.29076345 2.365c.41547984 0 .81357713.32605199.81496774.815.00200484.70491424.00199089 1.40991424-.00004186 2.115h2.94999997l.0000419-2.115c.0000089-.45011468.3649014-.815.8150161-.815.4154881 0 .8144655.33161733.815.815.0020789 1.87991163.0020789 3.7599116 0 5.64 0 .4501121-.3648879.815-.815.815-.4154903 0-.8150152-.3320787-.8150152-.815 0-.3380998-.0000142-1.1027664-.0000428-2.294h-2.94999997l.00004279 2.2940152c0 .4501037-.36488113.8149848-.8149848.8149848-.41548807 0-.815-.327275-.815-.815 0-.659018 0-2.539018 0-5.64 0-.41548807.39953628-.815.81501613-.815z" fill="var(--db-icon-color, currentColor)" fill-rule="evenodd"/></svg>
