<svg id="icon" height="20" viewBox="0 0 20 20" width="20" xmlns="http://www.w3.org/2000/svg"><path d="m10 3c3.866 0 7 3.134 7 7s-3.134 7-7 7-7-3.134-7-7 3.134-7 7-7zm0 2c-2.757 0-5 2.243-5 5s2.243 5 5 5 5-2.243 5-5-2.243-5-5-5zm-.003 5.222c1.518 0 2.582.936 2.698 1.043.407.373.434 1.006.06 1.413-.197.214-.466.323-.737.323-.238-.001-.478-.086-.668-.259-.024-.021-.611-.521-1.352-.521-.753 0-1.344.512-1.35.517-.412.362-1.042.33-1.409-.08-.366-.408-.339-1.031.066-1.401.116-.106 1.174-1.035 2.692-1.035zm-1.997-3.222c.69035594 0 1.25.55964406 1.25 1.25s-.55964406 1.25-1.25 1.25-1.25-.55964406-1.25-1.25.55964406-1.25 1.25-1.25zm4 0c.6903559 0 1.25.55964406 1.25 1.25s-.5596441 1.25-1.25 1.25-1.25-.55964406-1.25-1.25.5596441-1.25 1.25-1.25z" fill="var(--db-icon-color, currentColor)" fill-rule="evenodd"/></svg>
