<?xml version="1.0" encoding="UTF-8" standalone="no"?>
<!-- Created with Inkscape (http://www.inkscape.org/) -->

<svg
   width="210mm"
   height="297mm"
   viewBox="0 0 210 297"
   version="1.1"
   id="svg5"
   inkscape:version="1.1.2 (b8e25be833, 2022-02-05)"
   sodipodi:docname="angular-showcase.svg"
   xmlns:inkscape="http://www.inkscape.org/namespaces/inkscape"
   xmlns:sodipodi="http://sodipodi.sourceforge.net/DTD/sodipodi-0.dtd"
   xmlns="http://www.w3.org/2000/svg"
   xmlns:svg="http://www.w3.org/2000/svg">
  <sodipodi:namedview
     id="namedview7"
     pagecolor="#ffffff"
     bordercolor="#666666"
     borderopacity="1.0"
     inkscape:pageshadow="2"
     inkscape:pageopacity="0.0"
     inkscape:pagecheckerboard="0"
     inkscape:document-units="mm"
     showgrid="false"
     inkscape:zoom="0.3599046"
     inkscape:cx="-180.60341"
     inkscape:cy="737.69549"
     inkscape:window-width="1920"
     inkscape:window-height="1001"
     inkscape:window-x="-9"
     inkscape:window-y="-9"
     inkscape:window-maximized="1"
     inkscape:current-layer="layer1" />
  <defs
     id="defs2" />
  <g
     inkscape:label="Ebene 1"
     inkscape:groupmode="layer"
     id="layer1">
    <g
       class="icon-style"
       transform="matrix(4.6754744,0,0,4.6754744,34.867884,17.586717)"
       id="g69"
       style="fill:none;fill-rule:evenodd">
      <path
         fill="#282D37"
         style="fill:currentColor"
         fill-rule="nonzero"
         d="m 25,0 a 5,5 0 0 1 4.995,4.783 L 30,51 a 5,5 0 0 1 -4.783,4.995 L 5,56 A 5,5 0 0 1 0.005,51.217 L 0,5 A 5,5 0 0 1 4.783,0.005 Z M 23,2 V 2.034 A 2.966,2.966 0 0 1 20.248,4.992 L 9.966,5 C 8.386,5 7.096,3.557 7.005,2 H 5 A 3,3 0 0 0 2.005,4.824 L 2,51 a 3,3 0 0 0 2.824,2.995 L 25,54 a 3,3 0 0 0 2.995,-2.824 L 28,5 A 3,3 0 0 0 25.176,2.005 Z M 21,2 H 9 V 2.034 C 9,2.53 9.373,2.938 9.853,2.994 L 9.966,3 H 20.034 A 0.966,0.966 0 0 0 20.992,2.161 L 21,2.034 Z"
         class="base"
         id="path65" />
      <path
         fill="#EC0016"
         style="fill:#ec0016"
         d="m 21,50 a 1,1 0 0 1 0.117,1.993 L 21,52 H 9 A 1,1 0 0 1 8.883,50.007 L 9,50 Z"
         class="pulse"
         id="path67" />
    </g>
    <g
       id="g452"
       transform="matrix(0.5,0,0,0.5,42.5,83.5)">
	<polygon
   class="st0"
   points="125,230 125,230 125,230 203.9,186.3 218.1,63.2 125,30 31.9,63.2 46.1,186.3 "
   id="polygon446" />

	<polygon
   class="st1"
   points="125,230 125,230 203.9,186.3 218.1,63.2 125,30 125,52.2 125,52.1 125,153.4 "
   id="polygon448" />

	<path
   class="st2"
   d="M 125,52.1 66.8,182.6 v 0 h 21.7 v 0 l 11.7,-29.2 h 49.4 l 11.7,29.2 v 0 H 183 v 0 z m 17,83.3 h -34 l 17,-40.9 z"
   id="path450" />

</g>
  </g>
  <style
     type="text/css"
     id="style444">
	.st0{fill:#DD0031;}
	.st1{fill:#C3002F;}
	.st2{fill:#FFFFFF;}
</style>
</svg>
