<svg id="icon" height="20" viewBox="0 0 20 20" width="20" xmlns="http://www.w3.org/2000/svg"><path d="m8 18c-.55228475 0-1-.4477153-1-1 0-.5128358.45-1 1-1h.99974726l.00025274-1c-2.12550128-.3324258-4.11625288-1.7703345-4.91619706-3.599272-.22131598-.5060016.00946737-1.0956091.51546904-1.3169251.50600166-.22131594 1.0956091.0094674 1.31692508.5154691.59018428 1.3493568 2.37226099 2.400728 4.08380294 2.400728 1.7129625 0 3.4940605-1.0505451 4.0836029-2.4002703.2210632-.5061122.8105553-.73719001 1.3166674-.5161268.5061122.2210632.73719.8105553.5161268 1.3166674-.7994201 1.8302288-2.78965 3.2676977-4.9163971 3.5997297l-.0002527 1h1.0002527c.5522847 0 1 .4477153 1 1 0 .5128358-.45 1-1 1zm2-16c1.5976809 0 3 1.34 3 3v3.5c0 1.6568542-1.3431458 3-3 3-1.59768088 0-3-1.34-3-3v-3.5c0-1.65685425 1.34314575-3 3-3z" fill="var(--db-icon-color, currentColor)" fill-rule="evenodd"/></svg>
