<svg id="icon" height="24" viewBox="0 0 24 24" width="24" xmlns="http://www.w3.org/2000/svg"><path d="m12 2a.98.98 0 0 1 1 .969v2.061c3.094.469 5.5 2.875 5.938 5.969h2.062c.563 0 1 .438 1 1 0 .563-.438 1-1 1h-2.063a7.027 7.027 0 0 1 -5.937 5.939v2.062c0 .563-.438 1-1 1-.531 0-1-.438-1-1v-2.063c-3.063-.437-5.469-2.874-5.906-5.937h-2.094c-.563 0-1-.438-1-1 0-.563.438-1 1-1h2.094a7.027 7.027 0 0 1 5.906-5.969v-2.061c0-.531.469-.969 1-.969zm0 5c-2.75 0-5 2.25-5 5a4.948 4.948 0 0 0 5 4.969c2.844 0 5-2.25 5-4.969 0-2.75-2.25-5-5-5zm-2 5c0-1.094.906-2 2-2s2 .906 2 2-.906 2-2 2-2-.906-2-2z" fill="var(--db-icon-color, currentColor)" fill-rule="evenodd"/></svg>
