<svg id="icon" height="32" viewBox="0 0 32 32" width="32" xmlns="http://www.w3.org/2000/svg"><path d="m16 2c.375 0 .733.18.906.531l3.782 7.657 8.468 1.218c.52.075.844.563.844 1 0 .25-.123.534-.313.719l-6.125 5.969 1.47 8.437c.109.628-.376 1.157-1 1.157a.989.989 0 0 1 -.47-.125l-7.562-3.97-7.563 3.97a.989.989 0 0 1 -.468.125c-.656 0-1.093-.623-1-1.157l1.468-8.437-6.124-5.969a1.019 1.019 0 0 1 -.313-.719c0-.381.265-.916.844-1l8.469-1.218 3.78-7.657c.174-.35.532-.531.907-.531zm0 3.219-3.125 6.312a1.01 1.01 0 0 1 -.75.563l-6.969 1 5.032 4.937c.26.256.39.564.312 1l-1.219 6.813 6.25-3.281a.987.987 0 0 1 .469-.125c.156 0 .307.04.469.125l6.25 3.28-1.189-6.843c-.065-.375-.066-.628.282-.969l5.03-4.937-6.968-1a1.007 1.007 0 0 1 -.75-.563l-3.124-6.311z" fill="#282D37" style="fill: currentColor;fill: var(--db-icon-color, currentColor)" fill-rule="evenodd"/></svg>
