<svg id="icon" height="20" viewBox="0 0 20 20" width="20" xmlns="http://www.w3.org/2000/svg"><path d="m14 2c.52 0 1.008.39 1.008.91v1.074h1.366c.91 0 1.626.747 1.626 1.626v5.658c0 .878-.65 1.724-1.528 1.724h-1.464v4c0 .52-.389 1.008-.878 1.008h-8.13c-.52 0-1.008-.39-1.008-.878v-4.13h-1.366a1.63 1.63 0 0 1 -1.626-1.626v-5.626c0-.91.65-1.756 1.528-1.756h1.464v-.976c0-.52.39-1.008.91-1.008zm-1 9h-6v5h6zm-5-5h-3v2h3z" fill="#282D37" style="fill: currentColor;fill: var(--db-icon-color, currentColor)" fill-rule="evenodd"/></svg>
