<svg id="icon" height="20" viewBox="0 0 20 20" width="20" xmlns="http://www.w3.org/2000/svg"><path d="m2 17.4285714c0-.3121714 0-6.5477143 0-6.8598857 0-.3122286.271375-.5686857.625-.5686857h.350625c4.26825 0 9.024375 3.4173714 9.024375 5.7142857 0 1.6076572-1.5 2.2857143-4.524375 2.2857143h-4.8415c-.353625 0-.634125-.2592-.634125-.5714286zm0-5.4174285v2.3980001c.19983333-.001219.43772917-.001219.7136875 0 2.4965625.0108 3.4120625.1346289 4.71.512286.22.0642857.4434375.016285.607875-.134115.33666667-.2154665.5009375-.3789521.4928125-.4904569-.0121875-.1672-.1219375-.3233142-.26825-.4125142-1.6341875-1.1038286-3.5731875-1.7505143-5.5975625-1.8732-.22766667-.0148572-.4471875-.0148572-.6585625 0zm6.649375-9.39306359 3.90125 2.03375.052375.03117069 4.0155607-1.14437514c.5312289-.15153313 1.0847169.15627111 1.23625.6875.1515332.5312289-.1562711 1.08471687-.6875 1.23625l-10.88812496 3.1c-.08920065.02573496-.181537.03898596-.274375.039375-.27429788-.00032505-.53642026-.11330884-.725-.3125l-.980625-1.030625c-.26089915-.25633488-.36103982-.63465618-.26112345-.986498.09991638-.35184181.38394752-.62106564.74063013-.70201907s.72910582.03928015.97111832.31351707l.5625.5925 3.49868926-.99712486-2.086625-1.08779569c-.32052723-.16314156-.52875781-.48584098-.5453337-.8451154-.0165759-.35927442.16105647-.69977646.46520023-.89173855s.68794459-.20581185 1.00513347-.03627105z" fill="var(--db-icon-color, currentColor)" fill-rule="evenodd"/></svg>
