<svg id="icon" height="32" viewBox="0 0 32 32" width="32" xmlns="http://www.w3.org/2000/svg"><path d="m2 16c0-2.219 1.781-4 4-4s4 1.781 4 4-1.781 4-4 4-4-1.781-4-4zm10 0c0-.563.438-1 1-1h13.594l-2.305-2.29a.987.987 0 0 1 -.289-.71c0-.594.469-1 1-1 .25 0 .508.086.711.289l4.008 3.993c.187.187.281.468.281.718s-.086.508-.289.711l-4 4a.992.992 0 0 1 -.711.289c-.438 0-1-.313-1-1 0-.25.093-.532.281-.718l2.313-2.282h-13.594c-.563 0-1-.438-1-1z" fill="#282D37" style="fill: currentColor;fill: var(--db-icon-color, currentColor)" fill-rule="evenodd"/></svg>