<svg id="icon" height="20" viewBox="0 0 20 20" width="20" xmlns="http://www.w3.org/2000/svg"><path d="m4.071 12.007c1.224-.784 3.702-1.569 5.929-1.569 2.792 0 4.83.91 6.054 1.569h.942a1.01 1.01 0 0 1 1.004 1.004 1.01 1.01 0 0 1 -1.004 1.003h-.785c-1.035 2.447-3.513 4.047-6.211 3.984-2.698-.031-5.176-1.537-6.211-3.984h-.785a.991.991 0 0 1 -1.004-1.003.99.99 0 0 1 1.004-1.004h1.066zm-1.004-3.325c0-3.702 3.137-6.682 6.996-6.682 3.858 0 6.995 2.98 6.995 6.682a.99.99 0 0 1 -1.004 1.003.99.99 0 0 1 -1.004-1.003c0-2.573-2.227-4.643-4.987-4.643-2.73 0-4.957 2.07-4.957 4.643 0 .564-.47 1.003-1.035 1.003a1.01 1.01 0 0 1 -1.004-1.003zm2.698 4.8c.816 1.599 2.447 2.509 4.235 2.54s3.42-.91 4.235-2.51a9.728 9.728 0 0 0 -4.235-1.066c-1.443.031-2.823.44-4.235 1.035z" fill="var(--db-icon-color, currentColor)" fill-rule="evenodd"/></svg>
