<svg id="icon" height="64" viewBox="0 0 64 64" width="64" xmlns="http://www.w3.org/2000/svg"><path d="m54 2a8 8 0 0 1 8 8v44a8 8 0 0 1 -8 8h-44a8 8 0 0 1 -8-8v-44a8 8 0 0 1 8-8zm0 2h-44c-3.31 0-6 2.691-6 6v44c0 3.309 2.69 6 6 6h44c3.309 0 6-2.691 6-6v-44c0-3.309-2.691-6-6-6zm-40.922 9.08a.999.999 0 0 1 1.414 0l17.508 17.505 17.507-17.505a.999.999 0 1 1 1.414 1.414l-17.507 17.506 17.507 17.507a.999.999 0 1 1 -1.414 1.414l-17.507-17.507-17.508 17.507a1 1 0 0 1 -1.414-1.414l17.508-17.507-17.508-17.507a1 1 0 0 1 0-1.414z" fill="#282D37" style="fill: currentColor;fill: var(--db-icon-color, currentColor)" fill-rule="evenodd"/></svg>
