<svg id="icon" height="24" viewBox="0 0 24 24" width="24" xmlns="http://www.w3.org/2000/svg"><path d="m16.028 2c1.077 0 1.967.89 1.967 1.99v2.015h1.007a3.003 3.003 0 0 1 2.998 2.997v5.996a3.003 3.003 0 0 1 -2.998 2.997h-1.007v2.014c0 1.101-.89 1.991-1.967 1.991h-8.056c-1.077 0-1.967-.89-1.967-1.99v-2.015h-1.007a3.003 3.003 0 0 1 -2.998-2.997v-5.996a3.003 3.003 0 0 1 2.998-2.997h1.007v-2.015c0-1.1.89-1.99 1.967-1.99zm-.023 14.005h-8.01v4.004h8.01zm2.997-8.01h-14.004a.995.995 0 0 0 -.984 1.007v5.996a.995.995 0 0 0 .984 1.007h1.007c0-1.101.866-2.014 1.967-2.014h8.056c1.1 0 1.967.913 1.967 2.014h1.007a.995.995 0 0 0 .984-1.007v-5.996a.995.995 0 0 0 -.984-1.007zm-2.997-3.981h-8.01v1.99h8.01zm-10 6.986c0-.558.447-1 .988-1h2.023c.542 0 .989.442.989 1s-.447 1-.989 1h-2.023a.993.993 0 0 1 -.988-1z" fill="#282D37" style="fill: currentColor;fill: var(--db-icon-color, currentColor)" fill-rule="evenodd"/></svg>
