<svg id="icon" height="32" viewBox="0 0 32 32" width="32" xmlns="http://www.w3.org/2000/svg"><path d="m12.68 3.137a3 3 0 0 1 1.098 4.098l-.993 1.72.432.25a1 1 0 0 1 .482 1.056l-.331 1.713a1.01 1.01 0 0 1 1.055.624l.573 2.114a1 1 0 0 1 -1.895.628l-.36-1.321-8.552.552c-.22 2.06.515 5.429 1.999 7.458l5.385-2.659a1 1 0 0 1 .993 1.732 232.71 232.71 0 0 1 -3.966 1.982c.739 1.756 1.81 2.931 3.211 3.526.268-.507.9-.685 1.37-.428a1 1 0 0 1 .445 1.272l-.473.832c-.217.375-.65.552-1.074.479-2.76-.479-4.492-3.048-5.286-4.805l-.446.221a.984.984 0 0 1 -1.191-.233c-2.403-2.795-3.455-7.747-2.82-10.523.09-.394.4-.708.795-.782l.617-.046c-.12-2.157-.12-4.804 2.175-6.804.324-.282.794-.34 1.17-.123l.494.285.994-1.72a3 3 0 0 1 4.098-1.098zm14.32 14.863a3 3 0 0 1 .176 5.995l-1.196.005c-.05.83-.2 1.38-.498 1.937a3.726 3.726 0 0 1 -1.544 1.544c-.66.353-1.312.498-2.433.517l-1.935.002c-1.099 0-1.82-.151-2.508-.519a3.726 3.726 0 0 1 -1.544-1.544c-.337-.63-.492-1.29-.516-2.24l-.002-3.416c0-.557.065-.892.252-1.242a1.9 1.9 0 0 1 .788-.788c.306-.164.6-.234 1.043-.249zm-3 2h-7v3.43c0 .79.084 1.193.283 1.564.168.314.409.555.723.723.334.179.693.265 1.338.28l2.307-.003c.69-.02 1.016-.102 1.343-.277.314-.168.555-.409.723-.723.157-.294.24-.588.27-1.147zm3 0h-1v2h1a1 1 0 0 0 0-2zm-8-7a1 1 0 0 1 1 1v1a1 1 0 0 1 -2 0v-1a1 1 0 0 1 1-1zm3-1a1 1 0 0 1 1 1v2a1 1 0 0 1 -2 0v-2a1 1 0 0 1 1-1zm-15.23-4.207c-1.4 1.83-1.102 3.718-1.018 4.662l5.554-.348.295-1.525-4.83-2.789zm3.544-2.558-.994 1.72 1.733 1 .993-1.72a1 1 0 1 0 -1.732-1z" fill="var(--db-icon-color, currentColor)" fill-rule="evenodd"/></svg>
