<svg id="icon" height="20" viewBox="0 0 20 20" width="20" xmlns="http://www.w3.org/2000/svg"><path d="m4.022 9 5.998.002c.624 0 1.073.565.995 1.15l-.976 6.975c-.059.488-.488.854-.977.873h-4.005a1.056 1.056 0 0 1 -.996-.873l-1.048-6.974c-.098-.606.384-1.153 1.009-1.153zm4.866 2.004h-3.705l.733 5.003h2.266zm2.112-7.004h2.005l-.007.998c0 .858.235 1.697.644 2.457l.917 1.697c.273.507.439 1.053.439 1.6v5.248l-2.002.004a.988.988 0 0 0 -.996.996 1 1 0 0 0 .996.996l2.998.004c.547 0 1.006-.469 1.006-.996v-6.252c0-.879-.244-1.758-.674-2.54l-.918-1.719c-.254-.469-.41-.966-.41-1.493v-1.398c0-.88-.723-1.602-1.622-1.602h-2.755c-.898 0-1.621.723-1.621 1.602v1.416c0 .585.41.994.995.994s1.005-.427 1.005-1.012z" fill="var(--db-icon-color, currentColor)" fill-rule="evenodd"/></svg>
