<svg id="icon" height="20" viewBox="0 0 20 20" width="20" xmlns="http://www.w3.org/2000/svg"><path d="m16.4598251 7c.9376 0 1.75.7812 1.5626 1.8438l-.8438 4.3124c-.0312.25-.2188.5-.4688.6563v3.1875c0 .5625-.4374 1-.9687 1-.5625 0-1-.4375-1-1v-4.0625c0-.4063.25-.7813.6563-.9063l.5937-3.0624h-3.4687l.625 3.0624c.4062.125.6562.5.6562.9063v4.0625c0 .5625-.4375 1-1 1-.5312 0-.9688-.4375-.9688-1v-3.1875c-.25-.1563-.4374-.4063-.4687-.6563l-.875-4.2812c-.1875-.875.5-1.875 1.5937-1.875zm-2.1891622-1.0938c1.0624 0 1.9374-.875 1.9374-1.9374 0-1.0938-.875-1.9688-1.9374-1.9688-1.0938 0-1.9688.875-1.9688 1.9688 0 1.0624.875 1.9374 1.9688 1.9374zm-7.04966771 1.0938c.8124 0 1.5.5625 1.5937 1.3438l.7187 3.6562c.1563.9062-.4374 1.75-1.3124 1.9062v3.0938c0 .5938-.4688 1-.9688 1-.5625 0-1-.4375-1-1v-4.0625c0-.5625.4375-1 1-1h.25l-.5625-2.9687h-2.2813l-.5937 2.9687h.2187c.5626 0 1 .4375 1 1v4.0625c0 .5625-.4374 1-1 1-.5312 0-.9687-.4375-.9687-1v-3.0938c-.8437-.1562-1.4687-.9374-1.2813-1.9062l.75-3.6875c.0938-.7813.7813-1.3125 1.5626-1.3125zm-1.4376-1.0938c1.0626 0 1.9376-.875 1.9376-1.9374 0-1.0938-.875-1.9688-1.9376-1.9688-1.0937 0-1.9687.875-1.9687 1.9688 0 1.0624.875 1.9374 1.9687 1.9374z" fill="var(--db-icon-color, currentColor)" fill-rule="evenodd"/></svg>
