<svg id="icon" height="64" viewBox="0 0 64 64" width="64" xmlns="http://www.w3.org/2000/svg"><g fill="none" fill-rule="evenodd" transform="translate(8 8)"><path d="M24 0c1.256 0 2.462.481 3.368 1.335l.177.176 20.173 20.793a1 1 0 0 1-1.343 1.477l-.093-.085L43 20.312V45a3 3 0 0 1-2.823 2.995L40 48h-9a2 2 0 0 1-1.995-1.85L29 46V34a1 1 0 0 0-.883-.993L28 33h-8a1 1 0 0 0-.993.883L19 34v12a2 2 0 0 1-1.85 1.995L17 48H8a3 3 0 0 1-2.995-2.824L5 45V20.312l-3.282 3.384A1 1 0 0 1 .2 22.4l.081-.095L8 14.348V6a2 2 0 0 1 1.85-1.995L10 4h3a2 2 0 0 1 1.995 1.85L15 6v1.133l5.45-5.618A4.914 4.914 0 0 1 24 0Zm0 2c-.729 0-1.428.273-1.966.764l-.143.14L7 18.25V45a1 1 0 0 0 .883.993L8 46h9V34a3 3 0 0 1 2.824-2.995L20 31h8a3 3 0 0 1 2.995 2.824L31 34v12h9a1 1 0 0 0 .993-.883L41 45l-.001-26.749L26.105 2.899A2.914 2.914 0 0 0 24 2ZM13 6h-3v6.286l3-3.092V6Z" fill="var(--db-icon-color, currentColor)" fill-rule="nonzero"/><path d="M24 13.089a4 4 0 1 0 0 8 4 4 0 0 0 0-8Zm0 2a2 2 0 1 1 0 4 2 2 0 0 1 0-4Z" fill="var(--db-icon-pulse-color, #EC0016)"/></g></svg>
