<svg id="icon" height="24" viewBox="0 0 24 24" width="24" xmlns="http://www.w3.org/2000/svg"><path d="m18.001 11.5c-.113 0-.219.024-.329.033l-.561-1.684h1.89a.8.8 0 0 0 .566-.234l1-1a.8.8 0 0 0 -1.132-1.131l-.766.766h-2.092l-.818-2.453a.8.8 0 0 0 -.759-.547h-2a.8.8 0 1 0 0 1.6h1.423l.685 2.055-3.399 4.534-2.271-5.589h.562a.8.8 0 1 0 0-1.6h-3a.8.8 0 1 0 0 1.6h.712l.863 2.125-1.24 1.772a3.773 3.773 0 0 0 -1.335-.247 3.804 3.804 0 0 0 -3.8 3.8c0 2.096 1.705 3.8 3.8 3.8 1.907 0 3.475-1.416 3.744-3.25h1.756a.786.786 0 0 0 .335-.079c.031-.014.054-.038.083-.056a.81.81 0 0 0 .183-.152c.011-.013.029-.019.039-.033l3.584-4.779.418 1.255c-1.153.653-1.942 1.877-1.942 3.294 0 2.096 1.705 3.8 3.8 3.8s3.8-1.704 3.8-3.8-1.705-3.8-3.8-3.8zm-7.688 2.75h-2.776l1.756-2.509 1.019 2.509zm-4.312 3.25c-1.213 0-2.2-.987-2.2-2.2a2.203 2.203 0 0 1 2.567-2.17l-1.022 1.461c-.016.023-.019.051-.033.075a.735.735 0 0 0 -.096.305c-.003.027-.016.051-.016.078 0 .023.011.043.013.066a.73.73 0 0 0 .033.161.81.81 0 0 0 .053.137.781.781 0 0 0 .084.125.729.729 0 0 0 .112.117c.018.015.028.036.047.049.03.021.064.031.096.047.028.015.054.03.084.041a.797.797 0 0 0 .278.056h2.122a2.198 2.198 0 0 1 -2.122 1.65zm12 0c-1.213 0-2.2-.987-2.2-2.2 0-.707.342-1.331.862-1.734l.579 1.737a.8.8 0 0 0 1.518-.506l-.559-1.677c1.118.103 2 1.036 2 2.18 0 1.213-.987 2.2-2.2 2.2z" fill="var(--db-icon-color, currentColor)" fill-rule="evenodd"/></svg>
