<svg id="icon" height="24" viewBox="0 0 24 24" width="24" xmlns="http://www.w3.org/2000/svg"><path d="m10.1997764 5.75c1.077 0 1.875-.878 1.875-1.875 0-1.037-.798-1.875-1.875-1.875-.99699998 0-1.87499998.838-1.87499998 1.875 0 .997.878 1.875 1.87499998 1.875zm-3.58799998 10.299c.525.172.812.737.642 1.262l-1.301 4c-.138.421-.529.69-.951.69-.102 0-.206-.016-.309-.049-.525-.171-.812-.736-.642-1.261l1.301-4c.171-.524.733-.813 1.26-.642zm1.664-8.778c.048.004.096-.005.143.006.127.029.248.083.356.16l3.14799998 2.261c.448.323.55.948.228 1.397-.195.271-.502.416-.813.416-.203 0-.406-.061-.583-.188l-2.50099998-1.797c-.826 1.091-.225 3-.054 3.478l2.59099998 3.329c.137.176.211.391.211.614v4.053c0 .553-.448 1-1 1-.55199998 0-.99999998-.447-.99999998-1v-3.71l-2.473-3.178c-.011-.015-.013-.032-.023-.047-.041-.059-.084-.117-.112-.186-.696-1.686-1.21-4.948 1.274-6.48l.1177037-.061c.07940741-.03533333.16296296-.06.2482963-.074.081-.013.161 0 .242.007zm5.22599998 12.229c.690356 0 1.25.5596441 1.25 1.25s-.559644 1.25-1.25 1.25c-.6903559 0-1.25-.5596441-1.25-1.25s.5596441-1.25 1.25-1.25zm5.25 0c.690356 0 1.25.5596441 1.25 1.25s-.559644 1.25-1.25 1.25c-.6903559 0-1.25-.5596441-1.25-1.25s.5596441-1.25 1.25-1.25zm-4-8.5c.345 0 .665.178.848.47l1.581 2.53h1.821c.4 0 .762.239.919.607.158.367.081.794-.196 1.083l-3.245 3.392c-.197.205-.46.309-.723.309-.248 0-.497-.091-.691-.277-.399-.382-.413-1.015-.031-1.414l1.626-1.7h-.034c-.345 0-.665-.178-.848-.47l-1.581-2.53h-.196c-.552 0-1-.447-1-1s.448-1 1-1z" fill="var(--db-icon-color, currentColor)" fill-rule="evenodd"/></svg>
