<svg id="icon" height="20" viewBox="0 0 20 20" width="20" xmlns="http://www.w3.org/2000/svg"><path d="m11.502 2a2.002 2.002 0 0 1 1.718 3.005h2.536a2.257 2.257 0 0 1 2.244 2.244v7.492c0 1.171-.839 2.264-2.244 2.264h-11.512c-1.23 0-2.244-1.015-2.244-2.265v-7.49c0-1.23 1.034-2.244 2.244-2.244h2.536a1.903 1.903 0 0 1 -.273-.995c0-1.112.898-2.01 1.99-2.01a2.02 2.02 0 0 1 1.503.682 2.02 2.02 0 0 1 1.502-.683zm-2.497 8.995h-4.995v4h4.995zm6.985 0h-4.995v4h4.995zm-6.985-4h-4.995v2.01h4.995zm6.985 0h-4.995v2.01h4.995z" fill="#282D37" style="fill: currentColor;fill: var(--db-icon-color, currentColor)" fill-rule="evenodd"/></svg>
