<svg id="icon" height="32" viewBox="0 0 32 32" width="32" xmlns="http://www.w3.org/2000/svg"><path d="m16 1.998c3.498 0 6.452 2.521 6.933 5.883a1 1 0 0 1 -1.98.283c-.339-2.37-2.444-4.166-4.953-4.166-2.695 0-4.996 2.085-5 4.835a835.825 835.825 0 0 0 0 3.167h12c1.598 0 3 1.285 3 3 .002 3.667.002 7.333 0 11 0 1.598-1.314 3-3 3-4.667.002-9.333.002-14 0-1.598 0-3-1.284-3-3v-11c0-1.598 1.284-3 3-3v-3.167c0-3.781 3.14-6.835 7-6.835zm7 12.002h-14c-.657 0-1 .404-1 1v11a1 1 0 0 0 1 1c4.667.002 9.333.002 14 0 .513 0 1-.415 1-1 .002-3.667.002-7.333 0-11a1 1 0 0 0 -1-1zm-7 3a2 2 0 0 1 1.001 3.732l-.001 2.281a1 1 0 1 1 -2 0v-2.28a2 2 0 0 1 1-3.733z" fill="#282D37" style="fill: currentColor;fill: var(--db-icon-color, currentColor)" fill-rule="evenodd"/></svg>
