<svg id="icon" height="32" viewBox="0 0 32 32" width="32" xmlns="http://www.w3.org/2000/svg"><path d="m16 2c7.72 0 14 6.28 14 14s-6.28 14-14 14-14-6.28-14-14 6.28-14 14-14zm0 2c-6.617 0-12 5.383-12 12s5.383 12 12 12 12-5.383 12-12-5.383-12-12-12zm-1.507 13.567c0-3.403 3.632-2.756 3.632-5.571 0-1.036-.881-1.5-1.753-1.5-1.477 0-1.693.49-2.624.49-.55 0-.998-.454-.998-.997 0-1.182 2.097-1.489 3.622-1.489 2.137 0 3.748 1.502 3.748 3.496 0 3.945-3.631 3.575-3.631 5.571a.998.998 0 1 1 -1.996 0zm2.406 4.308a1.375 1.375 0 1 0 -2.75 0 1.375 1.375 0 0 0 2.75 0z" fill="#282D37" style="fill: currentColor;fill: var(--db-icon-color, currentColor)" fill-rule="evenodd"/></svg>
