<svg id="icon" height="64" viewBox="0 0 64 64" width="64" xmlns="http://www.w3.org/2000/svg"><g fill="none" fill-rule="evenodd" transform="translate(16.2 11.94)"><path d="m12.335 1.871c1.489-.323 2.894.528 2.663 2.394a8.459 8.459 0 0 1 -.236 1.17 1 1 0 0 1 -1.923-.55c.072-.244.125-.461.158-.65a3.418 3.418 0 0 1 .023-.481c-1.771.538-2.686-.79-2.686-1.63-.461.25-.916.652-1.364 1.209 1.265.465 2.987 1.705 3.614 4.195.628 2.489.576 3.197 1.288 4.792.713 1.596 1.745 2.667 2.161 2.766 2.732.648 8.056-.52 11.373-1.846 1.936-.83 3.7-.948 4.084.817.287 2.682-.098 6.286-1.248 9.27-1.808 4.69-5.353 7.925-10.941 8.98.264 3.796-2.283 4.278-2.5 4.335l-.001.844c1.345.088 2.754.382 3.547.78a1 1 0 1 1 -.894 1.788c-2.087-.904-5.727-.615-7.302-.058a1 1 0 1 1 -.702-1.873c.757-.284 2.108-.53 3.352-.623v-.907c-.282-.089-2.696-.805-2.402-4.089-6.903-2.48-11.411-6.647-11.021-11.942l.525-6.878a1 1 0 0 1 .956-.924c.5-.02 1.071.369 1.038 1.075l-.502 6.63c-.46 4.359 3.599 8.065 10.084 10.3.657.225.921.445.921.995v1.4c0 1.168.693 1.6 1.4 1.6.273 0 1.428.016 1.496-1.517l.004-1.757a1 1 0 0 1 .858-1.016c5.334-.768 8.568-3.583 10.218-7.862.97-2.516 1.348-5.513 1.154-7.948-.268.032-.542.101-1.359.428-3.704 1.482-9.339 2.717-12.687 1.92-1.749-.583-2.92-2.71-3.438-3.872-.529-1.185-.989-2.86-1.38-5.024-.488-2.073-2.194-3.406-4.307-3.065a1 1 0 0 1 -.318-1.975 6.36 6.36 0 0 1 .714-.074c.862-1.261 1.144-1.588 2.145-2.338 1.001-.751 2.886-1.387 3.435 1.211zm13.43 17.19a1 1 0 0 1 1.034.963c.103 2.87-2.778 5.545-6 6.004l.001 1.332a1 1 0 0 1 -.705.955c-.415.128-3.426.534-6.322-.313-2.86-.835-4.975-2.657-5.926-5.639a1 1 0 1 1 1.906-.607c.733 2.299 2.321 3.666 4.58 4.327 1.428.417 3.038.527 4.466.39l.001-1.413c0-.545.45-1 .965-1 2.161.187 5.013-1.799 5.036-3.965.025-.605.411-1.015.963-1.035zm-18.065-12.301a1 1 0 1 1 0 2 1 1 0 0 1 0-2z" fill="var(--db-icon-color, currentColor)" fill-rule="nonzero"/><path d="m3.1 4.793a1 1 0 0 1 1.097 1.669l-1.479.86 1.136.98a1 1 0 0 1 .343.681c.008.097-.025.741-.098 1.932a1 1 0 0 1 -1.054.943c-.512-.028-.985-.48-.943-1.054l.072-1.31-1.828-1.579a1 1 0 0 1 .049-1.553c.098-.074 1-.598 2.705-1.57z" fill="var(--db-icon-pulse-color, #EC0016)"/></g></svg>
