<svg id="icon" height="32" viewBox="0 0 32 32" width="32" xmlns="http://www.w3.org/2000/svg"><path d="m7.79029539 15.3871006c.30502489.3922912.27729535.9595222-.08318861 1.3200062-.36048396.3604839-.92771502.3882135-1.32000622.0831886l-4.17739595-4.177396c-.27960615-.3596002-.27960615-.8661986 0-1.2257988l4.17739595-4.17739599c.35960027-.27960615.86619861-.27960615 1.22579888 0l.09420734.08318861.08318861.09420734c.27960615.35960027.27960615.86619861 0 1.22579888l-2.37529539 2.38710056h16.585c3.8659932 0 7 3.1340068 7 7 0 3.7854517-3.0047834 6.8690987-6.7593502 6.995941l-12.35829686.004059c-.55228475 0-1-.4477153-1-1 0-.5128358.38604019-.9355072.88337888-.9932723l12.23426818-.0067277c2.7614237 0 5-2.2385763 5-5 0-2.6887547-2.1223067-4.8818181-4.7831104-4.9953805l-16.8018896-.0046195z" fill="var(--db-icon-color, currentColor)" fill-rule="evenodd"/></svg>
