<svg id="icon" height="24" viewBox="0 0 24 24" width="24" xmlns="http://www.w3.org/2000/svg"><path d="m14.5192286 2.20660172 7.6842834 7.59565061c.3925029.38853567.395719 1.02169247.0071834 1.41419527-.3586483.3623104-.9257311.3929208-1.3195666.0898924l-.8141288-.79534-3.3884895 3.3558513c.28831.4238358.4934448.8726212.6156789 1.3418686.4142607 1.7006953-.1147563 3.4300632-1.5870511 5.1881036-.6292745.7514052-1.2253346 1.3478974-1.651364 1.6930318-.3632224.2942532-.8760775.2947618-1.2381863.0164721l-4.609588-4.5523274-4.43216969 4.3878674c-.39250509.3885334-1.02566188.3853137-1.41419527-.0071914-.35864621-.3623124-.38349097-.9296772-.07647518-1.3204122l4.50084014-4.4672638-4.49949654-4.454178c-.33723122-.3338195-.38983927-.8529691-.14221469-1.2444809.24762458-.3915119 1.16792332-1.25202694 1.7850263-1.73788963 1.61246849-1.26954221 3.28691871-1.94284885 4.96194069-1.62503899.57108058.10835383 1.11464154.33305559 1.62298254.67484153l3.3867617-3.35225401-.7041547-.69731058c-.3925029-.38853562-.395719-1.02169243-.0071833-1.41419532.3586482-.36231035.9257311-.39292073 1.3195666-.08989238z" fill="var(--db-icon-color, currentColor)" fill-rule="evenodd"/></svg>
