<svg id="icon" height="64" viewBox="0 0 64 64" width="64" xmlns="http://www.w3.org/2000/svg"><g fill="none" fill-rule="evenodd" transform="translate(16.001 6)"><path d="m23.652 6.001.642.013c1.938.059 3.005.316 4.107.906a6.452 6.452 0 0 1 2.678 2.678c.555 1.037.815 2.043.893 3.773l.025.976.003 26.653a163.75 163.75 0 0 1 -.053 1.826c-.074 1.171-.074 2.583-1.128 4.513-.918 1.678-2.255 2.84-3.44 3.474-1.267.678-2.498 1.015-4.55 1.135-.694.032-1.39.049-2.085.052a3314.3 3314.3 0 0 1 -11.538-.05c-2.073-.118-3.31-.455-4.585-1.137a8.269 8.269 0 0 1 -3.435-3.434c-.678-1.267-1.016-2.498-1.135-4.549l-.051-1.715v-26.768c.001-2.37.329-3.647.918-4.75a6.452 6.452 0 0 1 2.679-2.677c1.037-.555 2.042-.816 3.773-.894l.976-.025zm-7.653 28.999c-4.027 0-8.692-.294-13.998-.88l-.002 4.88h4c1.597 0 2.992 1.205 3 3v1c0 1.598-1.265 3-3 3h-3.265c.619 1.339 1.348 2.24 2.829 3.05 1.284.676 2.27.842 4.042.92l1.65.03h9.488l1.6-.029c1.69-.07 2.825-.244 4.092-.921 1.042-.558 2.159-1.617 2.83-3.05-.864.003-1.634.003-3.266 0-1.537.05-2.993-1.314-3-3-.002-.5-.002-.5 0-1 0-1.59 1.295-2.998 3-3 1.333-.002 2.666-.002 4 0l-.001-4.88c-5.307.586-9.973.88-14 .88zm13.998 6c-.998 0-2.62.007-3.998 0-.678.007-1.002.577-1 1 0 .344-.002.645 0 1a.988.988 0 0 0 1 1c1.276.003 2.553.004 3.83.002.067-.468.172-2.002.168-3.002zm-23.998 0h-4c0 1.501.101 2.527.17 3.002l3.831-.002c.513 0 1-.525 1-1v-1c0-.513-.422-1-1-1zm17.899-32.995-15.657-.002-1.145.04c-1.195.078-1.868.272-2.556.64a4.452 4.452 0 0 0 -1.858 1.858c-.387.643-.6 1.495-.64 2.557l-.043 1.594v17.415c5.335.596 10 .893 14 .893 4.003 0 8.67-.297 14-.893.013-5.805.013-11.61 0-17.415 0-.457-.014-.988-.043-1.594-.078-1.196-.272-1.869-.64-2.557a4.452 4.452 0 0 0 -1.858-1.858c-.636-.34-1.258-.531-2.29-.62zm-2.371-8.005c.388 0 .928.107 1.341.317.312.154.838.417 1.578.789a1 1 0 0 1 -.787 1.835l-1.685-.835a1.048 1.048 0 0 0 -.447-.106h-4.528v2c0 .59-.415 1-1 1-.592 0-1-.41-1-1v-2h-4.529c-.117 0-.333.041-.447.106l-1.578.788a1 1 0 0 1 -1.342-.447.986.986 0 0 1 .449-1.341c.521-.264 1.047-.527 1.577-.79a3.067 3.067 0 0 1 1.342-.316z" fill="#282D37" style="fill: currentColor;fill: var(--db-icon-color, currentColor)" fill-rule="nonzero"/><path d="m22.999 10a1 1 0 0 1 1 1c0 .513-.402 1-1 1-4.663.002-9.33.002-14 0a1 1 0 0 1 0-2c4.662-.002 9.33-.002 14 0z" fill="#EC0016" style="fill:#EC0016;fill: var(--db-icon-pulse-color, #EC0016)"/></g></svg>
