<svg id="icon" height="20" viewBox="0 0 20 20" width="20" xmlns="http://www.w3.org/2000/svg"><path d="m11.254 2.15c.155 0 .31.013.463.038l.99.237a.85.85 0 0 1 -.308 1.67c-.66-.158-1.01-.238-1.051-.241l-.498-.004v1.3h.586c.863 0 1.468.114 1.942.368.474.253.85.63 1.104 1.104.25.468.351.919.366 1.716l.002 6.348c0 .941-.095 1.431-.368 1.942-.253.474-.63.85-1.104 1.104-.468.25-.919.351-1.716.366l-3.098.002c-.941 0-1.431-.095-1.942-.368a2.667 2.667 0 0 1 -1.104-1.104c-.25-.468-.351-.919-.366-1.716-.01-.53-.01-2.647-.002-6.348 0-.941.095-1.431.368-1.942.253-.474.63-.85 1.104-1.104.468-.25.919-.351 1.716-.366l.812-.002v-1.3c-.353.003-.55.009-.59.015l-.854.21a.85.85 0 0 1 -.514-1.617l.863-.223c.15-.038.429-.085.691-.085zm-3.004 12.259h-1.5v1.7h1.5zm5 0h-1.5v1.7h1.5zm-4.862-7.559c-.55.008-.755.054-.964.166a.968.968 0 0 0 -.407.407c-.101.189-.149.373-.162.81l-.005 4.86c1.05.106 2.1.16 3.15.16.779 0 2.067-.033 3.145-.16v-4.86c-.013-.437-.06-.621-.162-.81a.968.968 0 0 0 -.407-.407c-.189-.101-.373-.149-.81-.162l-3.377-.004zm2.612 1.045a.75.75 0 0 1 .75.75c0 .38-.314.75-.75.75h-2a.75.75 0 0 1 0-1.5z" fill="#282D37" style="fill: currentColor;fill: var(--db-icon-color, currentColor)" fill-rule="evenodd"/></svg>