<svg id="icon" height="32" viewBox="0 0 32 32" width="32" xmlns="http://www.w3.org/2000/svg"><path d="m19.5 6c-2.333 0-4.725 1.249-6.062 3.081l-.136.172a6.504 6.504 0 0 0 -1.802-.253l-.242.004a6.503 6.503 0 0 0 -6.05 4.858l-.068.214c-1.93 1.184-3.14 3.2-3.14 5.424 0 3.61 3.152 6.5 7 6.5l14.247-.004c3.754-.13 6.753-2.978 6.753-6.496l-.005-.258c-.087-2.055-1.207-3.908-2.963-5.057-.021-.38-.032-.608-.032-.685 0-4.142-3.36-7.5-7.5-7.5z" fill="#282D37" style="fill: currentColor;fill: var(--db-icon-color, currentColor)" fill-rule="evenodd"/></svg>
