<svg id="icon" height="24" viewBox="0 0 24 24" width="24" xmlns="http://www.w3.org/2000/svg"><path d="m18.99531 5c1.64319 0 3.00469 1.33218018 3.00469 3v8c0 1.6678198-1.3615 3-3.00469 3h-13.990615c-1.643193 0-3.004695-1.3321802-3.004695-3v-8c0-1.66781982 1.361502-3 3.004695-3zm-.0087933 1.9966406h-13.98241342c-.56304974 0-1.00879828.446-1.00879828 1.0094v7.9812c0 .5634.44574854 1.0094 1.00879828 1.0094h13.98241342c.5630498 0 1.0087883-.446 1.0087883-1.0094v-7.9812c0-.5634-.4457385-1.0094-1.0087883-1.0094zm-3.0193767 1.22152017c.37558 0 .82159.04693151 1.22065.11737881.32864.07054736.58686.39936814.58686.75170471v.02351579c0 .46981545-.44601.82215202-.89202.72818893-.25822-.04703158-.53991-.0704473-.84507-.0704473-1.40845 0-1.80751.77512039-1.80751 2.25501409 0 1.4093463.37558 2.2079825 1.78403 2.2079825.30517 0 .58686-.0234157.89202-.093863.46949-.0939631.89202.2348577.89202.7046731v.0469315c0 .3289209-.21127.6108101-.51643.7046732-.42254.1174788-.86854.1879261-1.3615.1879261-2.37089 0-3.5446-1.3388989-3.5446-3.7349077 0-2.41942446 1.24413-3.82877073 3.59155-3.82877073zm-7.300473.16441038c1.455399 0 2.441314.51674696 2.441314 1.85564595 0 .8456678-.375587 1.2450359-1.197183 1.5503409 1.056338.211442 1.596244.728189 1.596244 1.7852987 0 1.4563779-1.12676 2.0670879-2.887324 2.0670879h-2.042253c-.399061 0-.751174-.3288207-.751174-.7517047v-5.75496403c0-.42288394.352113-.75170472.751174-.75170472zm-.023475 4.20472315h-1.056338v1.550341h.938968c.798122 0 1.220657-.1879262 1.220657-.7987363 0-.4932312-.28169-.7516047-1.103287-.7516047zm-.070422-2.70141378h-.985916v1.17448858h.938968c.586854 0 .868544-.1879262.868544-.61071 0-.3993682-.258216-.56377858-.821596-.56377858z" fill="var(--db-icon-color, currentColor)" fill-rule="evenodd"/></svg>
