<svg id="icon" height="20" viewBox="0 0 20 20" width="20" xmlns="http://www.w3.org/2000/svg"><path d="m15.75 4c1.25 0 2.25 1.0312 2.25 2.25v7.5c0 1.2188-1 2.25-2.25 2.25h-11.5c-1.25 0-2.25-1.0312-2.25-2.25v-7.5c0-1.2188 1-2.25 2.25-2.25zm-9.1875 2h-2.5625v8h4.875c-.25-.25-.40625-.5625-.40625-.9062 0-.6876.59375-1.25 1.28125-1.25s1.25.5624 1.25 1.25c0 .3437-.125.6562-.375.9062h5.375v-8h-7.28125c.5.3438.78125.9375.78125 1.5312 0 1.0938-.875 1.875-1.875 1.875s-1.875-.8124-1.875-1.875c0-.5937.3125-1.1874.8125-1.5312zm5.65625 1c1.3125 0 2.40625 1.0625 2.40625 2.4062 0 1.2813-1.09375 2.375-2.40625 2.375s-2.40625-1.0937-2.40625-2.375c0-1.3437 1.09375-2.4062 2.40625-2.4062z" fill="var(--db-icon-color, currentColor)" fill-rule="evenodd"/></svg>
