<svg id="icon" height="16" viewBox="0 0 16 16" width="16" xmlns="http://www.w3.org/2000/svg"><path d="m11.714 2a2.285 2.285 0 0 1 2.286 2.285v7.429a2.286 2.286 0 0 1 -2.286 2.286h-7.428a2.286 2.286 0 0 1 -2.286-2.286v-7.429a2.285 2.285 0 0 1 2.286-2.285zm0 2h-7.428a.286.286 0 0 0 -.286.285v7.429c0 .158.128.286.286.286h7.428a.286.286 0 0 0 .286-.286v-7.429a.286.286 0 0 0 -.286-.285zm-6.02 1.753a1 1 0 0 1 1.415-.002l.874.866.873-.866a1 1 0 1 1 1.413 1.416l-.87.862.87.862a1 1 0 1 1 -1.413 1.416l-.873-.866-.874.866a1.002 1.002 0 0 1 -1.415-.002 1 1 0 0 1 .003-1.414l.869-.862-.869-.862a1 1 0 0 1 -.003-1.414z" fill="var(--db-icon-color, #55b9e6)" fill-rule="evenodd"/></svg>
