<svg id="icon" height="20" viewBox="0 0 20 20" width="20" xmlns="http://www.w3.org/2000/svg"><path d="m17 13c.5522847 0 1 .4477153 1 1 0 .4915404-.3546453.900249-.8220185.9842082l.3084124 1.8513928c.0907951.5447703-.2772246 1.0599979-.8219949 1.1507929-.5058582.0843097-.9862432-.2269912-1.1249843-.7080666l-.0258086-.1139283-.3616061-2.164399h-10.305l-.36060608 2.164399c-.09079505.5447703-.60602259.91279-1.15079291.8219949-.50585815-.0843097-.85931396-.5345841-.83453114-1.0346525l.01253621-.1161404.30841247-1.8513928c-.46737323-.0839592-.82201855-.4926678-.82201855-.9842082 0-.5128358.38604019-.9355072.88337887-.9932723l.11662113-.0067277zm-7.87204928-3.99227051c2.66813768.33111855 5.33351858.66445188 7.99614288 1.00000001.5480159.068535.9367119.5683483.8681769 1.1163641-.0636397.5088719-.5070229.8760118-1.1163641.8681769-3.7482092-.4656497-7.47788375-.9370811-7.8278502-.9809054-.16069277.5626541-.36663015.956827-1.05577012.9886059-.55226832-.004261-.99651661-.4554166-.99237533-1.0076849.00784155-1.0010882.99237533-2.11353076 2.12803997-1.98455661zm-4.62795072 2.99227051c.82842712 0 1.5-.6715729 1.5-1.5 0-.82842712-.67157288-1.5-1.5-1.5s-1.5.67157288-1.5 1.5c0 .8284271.67157288 1.5 1.5 1.5zm5.16152344-7.90820312c.15586942 0 .28222656.16389465.28222656.31860351 0 .20236206-.06097675.32423579-.17328756.46861239l-1.18804056 1.52723722h1.09570312c.16395954 0 .296875.13291546.296875.296875s-.13291546.296875-.296875.296875h-1.78125c-.16395954 0-.296875-.15551758-.296875-.33744812 0-.19105275.0453843-.29846651.12994209-.41584981l1.24505791-1.56115519h-.96289062c-.16395954 0-.296875-.13291547-.296875-.296875 0-.16395954.13291546-.296875.296875-.296875zm3.79761356-1.09179688c.2049494 0 .3710937.20515756.3710937.39249595 0 .22640581-.076829.44611084-.2179202.62317826l-1.495947 1.8773922h1.3427735c.2049494 0 .3710937.16614433.3710937.37109375s-.1661443.37109375-.3710937.37109375h-2.081306c-.2049494 0-.3710937-.23402291-.3710937-.39831543 0-.24580384.0771517-.44042126.2187852-.61766443l1.4999648-1.87708655h-1.3543936c-.2049494 0-.3710937-.16614433-.3710937-.37109375s.1661443-.37109375.3710937-.37109375zm4.1495636-1c.2299157 0 .4162992.23891048.4162992.45707016 0 .26365453-.0861881.51950586-.2444665.72570476l-1.6781782 2.18626444h1.5063455c.2299157 0 .4162992.19347872.4162992.43214682s-.1863835.43214682-.4162992.43214682h-2.3348435c-.2299156 0-.4162991-.27252481-.4162991-.46384706 0-.28624397.08655-.51288023.2454369-.71928379l1.6826853-2.18590851h-1.5193811c-.2299156 0-.4162991-.19347872-.4162991-.43214682s.1863835-.43214682.4162991-.43214682z" fill="var(--db-icon-color, currentColor)" fill-rule="evenodd"/></svg>
