<svg id="icon" height="32" viewBox="0 0 32 32" width="32" xmlns="http://www.w3.org/2000/svg"><path d="m2 6.00250225c0-.5325292.43859473-1.00250225 1.00250225-1.00250225 2.13031727 0 3.99863075 1.66044447 3.99863075 4.01000898v2.85091592l2.29828635 11.5600539c.18245541.9096705 1.03388055 1.5790212 1.97372645 1.5790212h5.7268542c.5639075 0 1 .4360925 1 1s-.4360925 1-1 1h-5.7268542c-1.91107006 0-3.53422144-1.3244939-3.91607455-3.2030829l-2.32956425-11.5600539c-.01253128-.0613531-.031379-.2819036-.031379-.3759383v-2.85091592c0-1.12781502-.89718905-2.01000898-1.99362575-2.01000898-.56390752 0-1.00250225-.43348999-1.00250225-.99749775zm9 8.70933855c0-.8459114 1.0337803-1.096537 1.7543789-1.096537 1.785657 0 3.2456211 1.2844059 3.2456211 3.0387848v.3459114h2.9573616c.5325292 0 1.0025022.4673706 1.0025022 1 0 .5638073-.469973 1.002475-1.0025022 1.002475h-2.9573616v1.997525h5.0876788c.4698728 0 .891024.3508116.971124.8232909l1.1904714 7.0175158c.0853129.5027548-.2506256 1.1591933-.9711239 1.1591933-.5012512 0-.9246079-.346966-1.0025023-.8146333l-1.0338805-6.2028824h-5.1691021c-.5639075 0-1.0025023-.438695-1.0025023-1.0025023v-5.3258934c0-.6132306-.4890206-1.0650584-1.2531278-1.0650584-.2602496 0-.5530805.1253128-.8459114.1253128-.5325292 0-.9711239-.4073167-.9711239-1.0025022zm5.2656752-9.7118408c1.7898915 0 3.2343248 1.4688 3.2343248 3.25 0 1.7813-1.4444333 3.25-3.2343248 3.25-1.8212419 0-3.2656752-1.4687-3.2656752-3.25 0-1.7812 1.4444333-3.25 3.2656752-3.25zm-.0156752 2c-.6875 0-1.25.5626-1.25 1.25 0 .6876.5625 1.25 1.25 1.25s1.25-.5624 1.25-1.25c0-.6874-.5625-1.25-1.25-1.25zm5.75 11.596537c0-1.6918228 1.3471625-3.0075068 3.0075067-3.0075068 1.6604445 0 2.9924933 1.3470623 2.9924933 2.9761284l.0150135 10.4348414c0 .5326294-.451106 1-1.0150135 1-.5326294 0-.989991-.4673706-.989991-1l-.010009-10.403463c0-.5640078-.4360925-1.0025023-1-1.0025023s-1 .4698728-1 1.0025023c0 .5325291-.4674708 1.0025022-1 1.0025022-.5639075 0-1-.438695-1-1.0025022z" fill="var(--db-icon-color, currentColor)" fill-rule="evenodd"/></svg>
