<svg id="icon" height="20" viewBox="0 0 20 20" width="20" xmlns="http://www.w3.org/2000/svg"><path d="m5.7075919 8.02156635c0 .51283583-.3298595.97843365-1 1-.23933252.00192897-.47870007.00192897-.71810265 0l.90327499 3.60011305c.04882171.1945849.23218702.3783206.48496816.3783206h2.17433536c.95270283 0 1.6386223.1880671 2.08400084 1.1286093.33679489.8308814.6701282 1.6642147 1 2.5.2051134.5127835-.0443025 1.094754-.557086 1.2998674-.44214499.176858-1.04529532-.0320835-1.25797092-.4556163-.45416598-1.1214481-.78694515-1.9462178-.99833751-2.474309l-2.44494177.0014486c-1.08905931 0-2.1297117-.7230897-2.42484083-1.891603-.30281046-1.1993059-.60390213-2.3993435-.90327499-3.60011304-.26880672-1.07136208.57959144-2.48671761 1.93987267-2.48671761h.71810265c.66666667.29847683 1 .63181016 1 1zm9.7959606-5.02156635c.8284271 0 1.5.67157288 1.5 1.5l.0010775.76818814c.5512681.31935002.9989225.95653557.9989225 1.73181186v6c0 1.0543618-.8793126 2-2 2h-1c-1.0543618 0-2.0714181-.9002491-2-2-.001784-1.9998115-.001784-3.99981153 0-6 0-.74025244.4021661-1.38657394.9999275-1.73239368l.0000725-.76760632c0-.82842712.6715729-1.5 1.5-1.5zm-7.55810767 4.98688834c.49811805.1219795.87131383.6350847.73344826 1.2091541-.06314696.26565769-.12824736.53097688-.19530119.79595756l1.2299909.008c.5128266-.00307234.9939913.3848401.9939913.9790316s-.4861449 1.005973-.9939913 1.005973c-.83324106.0071344-1.6665744.0121269-2.5.0149953-.61274462.0036531-1.1240007-.5582698-.97729208-1.2378528l.5-2.0418105c.13136254-.53643483.67271928-.8648108 1.20915411-.73344826zm.51210275-3.73688834c.82845132 0 1.50004432.67153899 1.50004432 1.5 0 .82843938-.67160092 1.5-1.50004432 1.5-.82837531 0-1.49995568-.67158118-1.49995568-1.5 0-.82844045.67157245-1.5 1.49995568-1.5zm-4.25004063-2.25c1.1046151 0 2.00008495.89538109 2.00008495 2.00001214s-.89546985 1.99998786-2.00008495 1.99998786c-1.10444519 0-1.99991505-.89535681-1.99991505-1.99998786s.89546986-2.00001214 1.99991505-2.00001214z" fill="var(--db-icon-color, currentColor)" fill-rule="evenodd"/></svg>
