<svg id="icon" height="20" viewBox="0 0 20 20" width="20" xmlns="http://www.w3.org/2000/svg"><path d="m7 11c0 .2812-.0937.5125-.3062.725-.475.475-.725 1.1188-.725 1.7438 0 1.4062 1.1562 2.5312 2.5312 2.5312.6563 0 1.3-.25 1.8063-.7563.1812-.1812.4125-.2749.6625-.2749.5625 0 1 .4687 1 1 0 .25-.0625.5312-.25.7187-.8438.8437-2 1.3125-3.1875 1.3125-2.5 0-4.5313-2.0312-4.5313-4.5312 0-1.1563.4688-2.2494 1.25-3.1563.188-.2187.4688-.3125.7188-.3125.5625 0 1.0312.4375 1.0312 1zm3.1875-3.25 1.0313 3.25h2.1875c.7812 0 1.2529.3738 1.5312 1.0625l1.8438 4.5625c.0422.1045.0625.2812.0625.375 0 .5625-.4375 1-.9688 1-.4687 0-.815-.3115-.9687-.6875l-1.75-4.3125h-2.75c-.4688 0-.8594-.2763-1-.75l-1.1875-4c-.0199-.067-.0313-.1875-.0313-.25 0-.5938.5-1 1-1 .4688 0 .8636.3159 1 .75zm-1.375-5.75c.8125 0 1.5.6875 1.5 1.5 0 .8438-.6875 1.5-1.5 1.5-.8437 0-1.5-.6562-1.5-1.5 0-.8125.6563-1.5 1.5-1.5z" fill="var(--db-icon-color, currentColor)" fill-rule="evenodd"/></svg>
