<svg id="icon" height="64" viewBox="0 0 64 64" width="64" xmlns="http://www.w3.org/2000/svg"><g fill="none" fill-rule="evenodd" transform="translate(4 20)"><path d="m43 14a5 5 0 1 1 0 10 5 5 0 0 1 0-10zm-32 0a5 5 0 1 1 0 10 5 5 0 0 1 0-10zm32 2a3 3 0 1 0 0 6 3 3 0 0 0 0-6zm-32 0a3 3 0 1 0 0 6 3 3 0 0 0 0-6zm14.428-16c2.734 0 5.986 1.021 9.553 2.762a51.774 51.774 0 0 1 6.138 3.545.89.89 0 0 0 .206.103l.114.032 6.005 1.285.752.128c4.76.852 6.98 2.127 7.604 4.124.119.38.17.693.19 1.13l.01.408-.001 1.683a2.928 2.928 0 0 1 -1.35 2.577l-.168.1-.165.072-3 1a1 1 0 0 1 -.74-1.854l.108-.044 2.892-.964.041-.026a.939.939 0 0 0 .38-.697l.002-.127v-1.683l-.007-.323a2.385 2.385 0 0 0 -.1-.655c-.254-.808-1.191-1.519-3.29-2.13l-.485-.134c-.252-.066-.52-.13-.802-.194l-.587-.126-.628-.123c-.217-.04-.44-.08-.672-.119l-.353-.058-6.051-1.294a2.894 2.894 0 0 1 -1.025-.433 49.835 49.835 0 0 0 -5.896-3.406c-3.172-1.548-6.05-2.476-8.363-2.554l-.312-.005h-11.58a8.07 8.07 0 0 0 -5.11 1.769l-.245.207-6.218 6.168a.929.929 0 0 0 -.267.537l-.008.122v5.067c0 .275.136.528.357.682l.1.059.99.495a1 1 0 0 1 -.787 1.835l-.107-.047-.99-.494a2.828 2.828 0 0 1 -1.557-2.342l-.006-.188v-5.067c0-.71.258-1.393.721-1.924l.145-.155 6.262-6.209a10.076 10.076 0 0 1 6.392-2.512l.336-.003zm-3.428 4a1 1 0 0 1 .993.883l.007.117v2.366a.622.622 0 0 0 .456.63l.087.011h10.457a1 1 0 0 1 .117 1.994l-.117.006h-10.502c-1.385-.063-2.47-1.191-2.5-2.521l.002-2.486a1 1 0 0 1 1-1z" fill="#282D37" style="fill: currentColor;fill: var(--db-icon-color, currentColor)" fill-rule="nonzero"/><path d="m35 18a1 1 0 0 1 .117 1.993l-.117.007h-16a1 1 0 0 1 -.117-1.993l.117-.007z" fill="#EC0016" style="fill:#EC0016;fill: var(--db-icon-pulse-color, #EC0016)"/></g></svg>
