<svg id="icon" height="24" viewBox="0 0 24 24" width="24" xmlns="http://www.w3.org/2000/svg"><path d="m21.5 9c.245 0 .5.202.5.51.003.668.006 1.337.012 2.006 0 .245-.204.507-.5.484l-1.512.008v1.48c0 .214-.153.514-.499.514-.489.003-.992.003-1.509 0l.009 1a.55.55 0 0 1 -.158.368 7.81 7.81 0 0 0 -.456.524l-.548.616a4.001 4.001 0 1 1 -2.52-2.307l4.907-5.047a.593.593 0 0 1 .374-.156c.644-.002 1.277-.002 1.9 0zm-8.935 8.029a1.509 1.509 0 1 1 0 3.018 1.509 1.509 0 0 1 0-3.018zm4.435-14.029c.992 0 1.686.666 1.98 1.625.116.465.22.92.315 1.366.1.454-.162.979-.566 1.068-.462.148-.948-.09-1.077-.664l-.283-1.222c-.06-.255-.211-.47-.442-.47l-4.629-.008-5.134-.001c-.208 0-.406.144-.498.375l-.921 3.931h10.844a61.824 61.824 0 0 1 -2.961 3.045c-2.092-.115-3.51.515-4.733 1.737a5.978 5.978 0 0 0 -1.75 3.927l-.545-.051v.342a1 1 0 0 1 -1 1h-.6a1 1 0 0 1 -1-1v-2.262a2.994 2.994 0 0 1 -.152-.548l-.398-3.403a2.498 2.498 0 0 1 .033-.787h-.835c-.37 0-.648-.321-.648-.69v-.666a.63.63 0 0 1 .648-.644h1.352l.978-4.213c.23-.99 1.043-1.787 2.022-1.787zm-12.48 9.804a1 1 0 0 0 .67 1.147l1.48.296a1 1 0 0 0 .39-1.948l-1.48-.296a1 1 0 0 0 -1.06.8z" fill="#282D37" style="fill: currentColor;fill: var(--db-icon-color, currentColor)" fill-rule="evenodd"/></svg>
