<svg id="icon" height="20" viewBox="0 0 20 20" width="20" xmlns="http://www.w3.org/2000/svg"><path d="m9.006 6.0724c.5455 0 .9899.3955.9899.9293h1.4586c.5455 0 .9899.4445.9899.9899 0 .5455-.4444.9899-.9899.9899h-1.4586v2.0185h2.2263c.6061 0 .9559.2141 1.0505.8182l.7879 5.0303c.0063.0399 0 .101 0 .1616 0 .5455-.4445.9899-.9899.9899-.5051 0-.8973-.3855-.9697-.8485l-.6667-4.1726h-2.4283c-.6464 0-.9899-.3434-.9899-.9899v-4.9267c0-.5454.4445-.9899.9899-.9899zm6.489.9293c1.4141 0 2.5454 1.2323 2.5454 2.7071v7.3013c0 .5455-.4444.9899-.9899.9899-.5454 0-.9899-.4444-.9899-.9899v-7.2811c0-.4243-.2626-.7475-.5656-.7475h-.5051c-.5454 0-.9899-.4444-.9899-.9899 0-.5454.4445-.9899.9899-.9899zm-12.49749352-5.0017c.53860017 0 1.00249352.4636634 1.00249352 1.00806371v2.58068701l2.10971485 9.13305128c.0333786.1428115.15958524.2822299.31917047.2822299h2.5736082c.53860017 0 .99750648.4636634.99750648 1.0080637 0 .524241-.47885446.9879044-.99750648.9879044h-2.63345266c-1.03740279 0-1.93961239-.724736-2.17454635-1.7338975l-2.1545982-9.25400693c-.01441797-.06207461-.03989631-.18143351-.03989631-.30238918v-2.70164268c0-.54440031.4388594-1.00806371.99750648-1.00806371zm7.00254372 0c.8108298 0 1.4999498.66895214 1.4999498 1.49994983 0 .83109803-.68912 1.50005017-1.4999498 1.50005017-.81082982 0-1.5000502-.66895214-1.5000502-1.50005017 0-.83099769.68922038-1.49994983 1.5000502-1.49994983z" fill="var(--db-icon-color, currentColor)" fill-rule="evenodd"/></svg>
