<svg id="icon" height="32" viewBox="0 0 32 32" width="32" xmlns="http://www.w3.org/2000/svg"><path d="m24.376 13.999c-.24 0-.468.04-.7.071l-.703-2.311 2.906-.009a.875.875 0 0 0 .616-.256l1-1a.875.875 0 0 0 -1.237-1.238l-.745.745-3.072.01-.728-2.391a.875.875 0 0 0 -.837-.62h-3a.875.875 0 0 0 0 1.75h2.352l.613 2.015-5.635 6.834-2.615-7.844h.284a.876.876 0 0 0 .001-1.75l-3-.005h-.001a.876.876 0 0 0 -.001 1.75h.871l1.01 3.032-1.653 1.974a5.308 5.308 0 0 0 -2.727-.756 5.38 5.38 0 0 0 -5.375 5.375 5.38 5.38 0 0 0 5.375 5.375c2.664 0 4.865-1.953 5.287-4.5h2.213c.128 0 .247-.03.356-.079.031-.014.054-.039.083-.056a.841.841 0 0 0 .205-.159c.009-.01.022-.013.031-.024l5.901-7.157.549 1.803c-1.77.88-3 2.69-3 4.797a5.38 5.38 0 0 0 5.375 5.375 5.38 5.38 0 0 0 5.375-5.375 5.38 5.38 0 0 0 -5.375-5.375zm-10.714 4.5h-4.412l3.156-3.768zm-6.286 4.5a3.629 3.629 0 0 1 -3.625-3.625 3.629 3.629 0 0 1 3.625-3.625c.56 0 1.094.133 1.583.372l-2.254 2.691c-.026.031-.035.07-.056.104-.033.053-.067.103-.088.162-.021.058-.028.117-.036.178-.006.04-.024.076-.024.118 0 .013.007.024.008.038.003.062.021.12.036.18.014.052.021.104.043.151s.056.086.087.128c.036.051.069.102.115.144.01.009.014.021.024.03.042.035.09.052.136.078.037.021.069.047.109.062a.87.87 0 0 0 .317.064h3.506a3.623 3.623 0 0 1 -3.506 2.75zm17 0a3.629 3.629 0 0 1 -3.625-3.625c0-1.318.714-2.462 1.768-3.097l1.02 3.352a.875.875 0 1 0 1.673-.51l-1.02-3.352c.062-.003.12-.018.183-.018a3.629 3.629 0 0 1 3.625 3.625 3.629 3.629 0 0 1 -3.625 3.625z" fill="var(--db-icon-color, currentColor)" fill-rule="evenodd"/></svg>
