<svg id="icon" height="24" viewBox="0 0 24 24" width="24" xmlns="http://www.w3.org/2000/svg"><path d="m11 14.623v-5.623c0-.59.437-1 1-1 .532 0 1 .41 1 1l.017 5.623c0 .656-.454 1.05-1.017 1.05s-1-.427-1-1.05zm-.69-11.41-8.06 16c-.156.328-.25.656-.25.984 0 .983.751 1.803 1.847 1.803h16.306c1.097 0 1.847-.82 1.847-1.803 0-.295-.094-.656-.25-.984l-8.029-16c-.421-.787-1.064-1.213-1.721-1.213s-1.26.426-1.69 1.213zm1.674 15.607c.564 0 1.002-.46 1.002-1.05s-.438-1.049-1.002-1.049c-.563 0-1.001.46-1.001 1.05s.438 1.049 1.001 1.049z" fill="var(--db-icon-color, currentColor)" fill-rule="evenodd"/></svg>
