<svg id="icon" height="24" viewBox="0 0 24 24" width="24" xmlns="http://www.w3.org/2000/svg"><path d="m2 19v-10c0-1.6562 1.3438-3 3-3h7c1.6562 0 3 1.3438 3 3v10c0 1.6562-1.3438 3-3 3h-7c-1.6562 0-3-1.3438-3-3zm2 0c0 .5312.4688 1 1 1h7c.5312 0 1-.4688 1-1v-10c0-.5625-.4688-1-1-1h-7c-.5312 0-1 .4375-1 1zm2-2c0 .5312.4688 1 1 1 .5625 0 1-.4688 1-1 0-.5625-.4375-1-1-1-.5312 0-1 .4375-1 1zm3 0c0 .5312.4375 1 1 1 .5312 0 1-.4688 1-1 0-.5625-.4688-1-1-1-.5625 0-1 .4375-1 1zm2-14c0-.5625.4688-1 1-1h7c1.6562 0 3 1.3438 3 3v10c0 1.5625-1.2812 3-3 3h-1c-.5312 0-.9688-.4688-.9688-1 0-.5625.4376-1 .9688-1h1c.5312 0 1-.4375 1-1v-10c0-.5312-.4688-1-1-1h-7c-.5312 0-1-.4375-1-1z" fill="var(--db-icon-color, currentColor)" fill-rule="evenodd"/></svg>
