<svg id="icon" height="32" viewBox="0 0 32 32" width="32" xmlns="http://www.w3.org/2000/svg"><path d="m26.1 18a2.9 2.9 0 0 1 2.9 2.9v5.2a2.9 2.9 0 0 1 -2.9 2.9h-5.208a2.9 2.9 0 0 1 -2.892-2.9v-5.2a2.9 2.9 0 0 1 2.9-2.9zm0 2h-5.2a.9.9 0 0 0 -.9.9v5.2a.9.9 0 0 0 .9.9h5.2a.9.9 0 0 0 .9-.9v-5.2a.9.9 0 0 0 -.9-.9zm.002-17c1.6 0 2.898 1.298 2.898 2.899v5.197a2.9 2.9 0 0 1 -2.898 2.904h-5.204a2.898 2.898 0 0 1 -2.898-2.899v-5.201c0-1.602 1.297-2.9 2.898-2.9zm-.001 2-5.202.005a.9.9 0 0 0 -.899.9v5.195a.9.9 0 0 0 .9.899h5.2a.9.9 0 0 0 .9-.9v-5.199a.9.9 0 0 0 -.9-.9zm-15.001 13a2.9 2.9 0 0 1 2.9 2.9v5.2a2.9 2.9 0 0 1 -2.9 2.9h-5.2a2.9 2.9 0 0 1 -2.9-2.9v-5.2a2.9 2.9 0 0 1 2.9-2.9zm0 2h-5.2a.9.9 0 0 0 -.9.9v5.2a.9.9 0 0 0 .9.9h5.2a.9.9 0 0 0 .9-.9v-5.2a.9.9 0 0 0 -.9-.9zm.001-17a2.9 2.9 0 0 1 2.899 2.899v5.197a2.899 2.899 0 0 1 -2.896 2.904h-5.204a2.899 2.899 0 0 1 -2.9-2.899v-5.201a2.9 2.9 0 0 1 2.899-2.9h5.201zm.003 2-5.202.005a.9.9 0 0 0 -.899.9v5.195a.9.9 0 0 0 .9.899h5.2a.9.9 0 0 0 .9-.9v-5.199a.9.9 0 0 0 -.9-.9z" fill="#282D37" style="fill: currentColor;fill: var(--db-icon-color, currentColor)" fill-rule="evenodd"/></svg>