<svg id="icon" height="24" viewBox="0 0 24 24" width="24" xmlns="http://www.w3.org/2000/svg"><path d="m17.25 3a3.74 3.74 0 0 1 3.75 3.75 3.76 3.76 0 0 1 -1.344 2.875c.219.75.344 1.531.344 2.344a8.052 8.052 0 0 1 -1.781 5.062l1.625 2.407c.093.156.156.375.156.562 0 .531-.438 1-1 1a.982.982 0 0 1 -.813-.438l-1.437-2.156a7.922 7.922 0 0 1 -9.531 0l-1.439 2.157a.996.996 0 0 1 -.843.437c-.532 0-1-.438-1-1 0-.188.062-.375.187-.563l1.626-2.437a7.901 7.901 0 0 1 -1.781-5.031c0-.813.125-1.625.344-2.375a3.772 3.772 0 0 1 -1.313-2.844 3.761 3.761 0 0 1 3.75-3.75c1.125 0 2.156.5 2.844 1.313.75-.22 1.562-.375 2.406-.375.813 0 1.625.156 2.406.374a3.722 3.722 0 0 1 2.844-1.312zm-5.25 2.938a6.035 6.035 0 0 0 -6.031 6.03 6.035 6.035 0 0 0 6.031 6.032c3.313 0 6-2.719 6-6.031 0-3.313-2.688-6.031-6-6.031zm5.25-.938a1.71 1.71 0 0 0 -.906.25 8.032 8.032 0 0 1 2.406 2.406c.156-.281.25-.593.25-.906 0-.969-.781-1.75-1.75-1.75zm-10.5 0c-.969 0-1.75.781-1.75 1.75 0 .313.094.625.25.906.625-.968 1.438-1.812 2.406-2.406-.281-.188-.593-.25-.906-.25zm5.25 3c.563 0 1 .5 1 1v2h2c.563 0 1 .437 1 1 0 .562-.438 1-1 1h-2v2c0 .531-.469 1-1 1-.563 0-1-.469-1-1v-2l-2-.031c-.563 0-1-.407-1-.969 0-.563.438-1 1-1h2v-2c0-.5.438-1 1-1z" fill="var(--db-icon-color, currentColor)" fill-rule="evenodd"/></svg>
