<svg id="icon" height="64" viewBox="0 0 64 64" width="64" xmlns="http://www.w3.org/2000/svg"><g fill="none" fill-rule="evenodd" transform="translate(7.03 6.999)"><path d="m37.97.001c1.629 0 2.812.927 4.234 2.8l1.168 1.6c.31.41.393.52.728.824 1.242 1.133 4.11 2.386 5.786 3.226 1.015.507 1.583 1.206 1.583 2.05 0 3.682-3.37 6.455-11.522 7.398 0 3.653-1.733 11.215-3.073 14.028-2.002 4.256-2.304 9.539.914 12.756.232.233 1.375 1.09 1.743 1.35.961.643 1.438 1.437 1.438 2.468 0 1.405-1.164 2.5-3 2.5s-3.312-.214-4.327-1.055c-1.98-1.642-4.6-5.37-6.725-9.432-.247-.494-.073-1.168.421-1.415s1.124.005 1.371.499c3.54 6.352 5.261 8.022 6.21 8.808.717.595 2.293.595 3.05.595.758 0 1-.228 1-.5 0-.318-.088-.459-.483-.756-1.084-.771-1.788-1.32-2.112-1.647-3.879-3.908-3.636-9.943-1.421-14.76 1.822-4.38 3.016-9.905 3.016-15.242 9.968-.862 11.5-3.493 11.5-5.595-.369-.32-4.492-1.946-6.63-3.724-.292-.237-.571-.54-.896-.954l-1.153-1.573c-1.093-1.482-1.894-2.25-2.82-2.25h-2.801c.93 2.171 1.358 4.513 1.284 7.017-.067 2.25-1.531 4.22-3.741 4.953-2.53.633-4.685.247-6.22-1.596-4.897 7.867-9.982 13.306-15.909 17.915-4.758 3.702-6.26 10.851-2.079 13.872a1 1 0 0 1 -1.17 1.621c-5.406-3.902-3.666-12.725 2.02-17.07 5.897-4.587 10.898-9.848 16.158-18.57.384-1.519 1.174-3.711 1.888-5.16 1.6-3.184 3.361-4.98 5.568-4.98 1.667-.002 3.334-.002 5 0zm-18.622 27.14c4.608 1.86 6.621 5.67 6.621 9.86 0 3.09-1.858 5.821-4.876 8.001 2.657 0 3.954.663 4.583 1.292 1.47 1.47 1.553 4.672-.707 4.707-2.25 0-9.31-.006-12.904-.003-3.675.003-4.96-.714-6.61-1.64-4.49-2.693-6.984-8.375-4.43-15.687a1 1 0 0 1 1.888.66c-2.221 6.36-.149 11.08 3.57 13.313.894.535 2.108 1.357 5.124 1.35.681.006 11.373.006 13.103.006 0-.595-.172-1.017-.448-1.293-.477-.477-1.606-.707-3.293-.707h-3c-.902 0-1.166-.755-1.064-1.27.08-.403.267-.568 1.31-1.213s1.784-1.154 2.564-1.811c2.03-1.712 3.19-3.593 3.19-5.706 0-3.443-1.608-6.487-5.37-8.006a1 1 0 1 1 .749-1.854zm20.557 5.446a972.163 972.163 0 0 1 1.783 3.926 6.147 6.147 0 0 1 -1.567 7.188 1 1 0 0 1 -1.31-1.51c1.333-1.158 1.86-3.157 1.056-4.85l-1.783-3.926a1 1 0 0 1 .496-1.325c.467-.212 1.114-.047 1.325.497zm-6.942-30.585c-1.289 0-2.708 1.549-3.963 4.297a442.72 442.72 0 0 0 -1.47 4.064c1.04 1.822 2.544 2.206 4.623 1.69a3.367 3.367 0 0 0 2.3-3.095c.075-2.524-.421-4.838-1.49-6.956z" fill="#282D37" style="fill: currentColor;fill: var(--db-icon-color, currentColor)" fill-rule="nonzero"/><path d="m27.768 15.086c1.796 1.632 3.625 2.779 6.545 3.432 1.052.236 3.885.499 4.437.484a1 1 0 0 1 1.027.972c.015.552-.42 1.026-.972 1.027a22.957 22.957 0 0 1 -4.93-.531c-3.255-.729-5.562-2.107-7.533-4.042-.357-.35-.502-1.024-.146-1.402.55-.584 1.09-.378 1.572.06z" fill="#EC0016" style="fill:#EC0016;fill: var(--db-icon-pulse-color, #EC0016)"/></g></svg>
