<svg id="icon" height="20" viewBox="0 0 20 20" width="20" xmlns="http://www.w3.org/2000/svg"><path d="m9.056 4c.226 0 .444 0 .72.306.385.397.768.795 1.149 1.194h4.075c1.054 0 2 .85 2 2 .002.5.002 1 0 1.5.592 0 1.121.523.98 1.196-.277 1.399-.557 2.798-.839 4.196a2.021 2.021 0 0 1 -1.96 1.608c-3.454.002-6.908.002-10.361 0-.9 0-1.82-.703-1.961-1.608-.282-1.398-.562-2.797-.84-4.196-.116-.58.322-1.196.981-1.196v-3c0-1.054.869-2 2-2 1.352-.002 2.704-.002 4.056 0zm6.724 7h-11.561l.6 3h10.361zm-7.149-5h-3.631v3h10v-1.5h-4.5c-.226 0-.5-.08-.72-.306-.387-.398-.77-.796-1.15-1.194z" fill="#282D37" style="fill: currentColor;fill: var(--db-icon-color, currentColor)" fill-rule="evenodd"/></svg>
