<svg id="icon" height="32" viewBox="0 0 32 32" width="32" xmlns="http://www.w3.org/2000/svg"><path d="m5 25a3 3 0 0 0 3 3h6c.563 0 1-.438 1-1 0-.563-.438-1-1-1h-6c-.563 0-1-.438-1-1v-18c0-.563.438-1 1-1h6c.563 0 1-.438 1-1 0-.563-.438-1-1-1h-6a3 3 0 0 0 -3 3zm7-9c0 .563.438 1 1 1h13.094l-4.313 4.313a.97.97 0 0 0 -.281.687c0 .563.406 1 1 1 .25 0 .531-.094.719-.281l6-6c.187-.188.281-.469.281-.719a.97.97 0 0 0 -.281-.688l-6.032-6.03a.97.97 0 0 0 -.687-.282c-.594 0-1 .438-1 1 0 .25.063.531.281.719l4.313 4.281h-13.094c-.563 0-1 .469-1 1z" fill="#282D37" style="fill: currentColor;fill: var(--db-icon-color, currentColor)" fill-rule="evenodd"/></svg>
