<svg id="icon" height="20" viewBox="0 0 20 20" width="20" xmlns="http://www.w3.org/2000/svg"><path d="m10 2.25c.375 0 .75.219.906.562l1.906 3.907 4.344.625c.469.062.844.468.844 1 0 .25-.125.531-.313.718l-3.125 3.032.75 4.312a.996.996 0 0 1 -1 1.156 1.01 1.01 0 0 1 -.437-.125l-3.875-2.03-3.875 2.03a.813.813 0 0 1 -.469.125c-.593 0-1.062-.593-.968-1.156l.75-4.312-3.125-3.032a1.076 1.076 0 0 1 -.313-.718c0-.407.281-.907.844-1l4.344-.625 1.906-3.907c.156-.343.531-.562.906-.562zm0 3.25-1.281 2.562a.996.996 0 0 1 -.75.563l-2.813.406 2.032 2c.218.219.375.594.312.875l-.5 2.814 2.531-1.313a.882.882 0 0 1 .469-.125.88.88 0 0 1 .469.125l2.531 1.313-.5-2.813c-.063-.312.094-.656.313-.875l2.03-2-2.812-.406c-.344-.063-.594-.281-.75-.563z" fill="#282D37" style="fill: currentColor;fill: var(--db-icon-color, currentColor)" fill-rule="evenodd"/></svg>
