<svg id="icon" height="20" viewBox="0 0 20 20" width="20" xmlns="http://www.w3.org/2000/svg"><path d="m13.436 2.15c.941 0 1.431.095 1.942.368.474.253.85.63 1.104 1.104.213.397.317.782.353 1.376l.965.002v4l-.95-.001v5.72c0 .467-.046.764-.174 1.049-.128.284-.415.653-.676.78v1.452h-2.5v-1.15h-7.001l.001 1.15h-2.5l-.002-1.45a1.757 1.757 0 0 1 -.614-.66c-.152-.285-.217-.56-.231-.981-.01-.282-.01-2.252-.003-5.91l-.95.001v-4l.965-.002c.036-.594.14-.979.353-1.376.253-.474.63-.85 1.104-1.104.468-.25.919-.351 1.716-.366zm-7.586 11.1a1 1 0 1 0 0 2 1 1 0 0 0 0-2zm8.194 0a1 1 0 1 0 0 2 1 1 0 0 0 0-2zm1.106-7.501h-10.3l.001 5.883a34.63 34.63 0 0 0 5.149.386 34.63 34.63 0 0 0 5.15-.386zm-2.15-2.499h-6v1.5h6z" fill="var(--db-icon-color, currentColor)" fill-rule="evenodd"/></svg>
