<svg id="icon" width="64" height="64" viewBox="0 0 64 64" xmlns="http://www.w3.org/2000/svg"><g fill="none" fill-rule="evenodd" transform="translate(4 12)"><path d="M23.117 39.993 23 40H1a1 1 0 0 1-.993-.883L0 39V25a5 5 0 0 1 4.783-4.995L5 20h11V5A5 5 0 0 1 20.783.005L21 0h14a5 5 0 0 1 4.995 4.783L40 5v15h11a5 5 0 0 1 4.995 4.783L56 25v14a1 1 0 0 1-1 1l-.017-.001h-4.966L50 40H39l-.018-.001L33 40a1 1 0 0 1-.993-.883L32 39V27a1 1 0 0 0-.883-.993L31 26h-6a1 1 0 0 0-.993.883L24 27v12a1 1 0 0 1-.883.993ZM35 2H21a3 3 0 0 0-2.995 2.824L18 5v33h4V27a3 3 0 0 1 2.824-2.995L25 24h6a3 3 0 0 1 2.995 2.824L34 27v10.999h3.999L38 5a3 3 0 0 0-2.824-2.995L35 2ZM15.999 22H5a3 3 0 0 0-2.995 2.824L2 25l-.001 12.999H5V27.028a3 3 0 0 1 2.824-2.995L8 24.028h2a3 3 0 0 1 2.995 2.824l.005.176V38h2.999V22ZM10 26.028H8a1 1 0 0 0-.993.883L7 27.028v10.971L11 38V27.028a1 1 0 0 0-.77-.974l-.113-.02-.117-.006ZM51 22H40v15.999h3V27.028a3 3 0 0 1 2.824-2.995l.176-.005h2a3 3 0 0 1 2.995 2.824l.005.176v10.971h3V25a3 3 0 0 0-2.824-2.995L51 22Zm-3 4.028h-2a1 1 0 0 0-.993.883l-.007.117v10.971h4V27.028a1 1 0 0 0-.77-.974l-.113-.02-.117-.006ZM28 6a5 5 0 1 1 0 10 5 5 0 0 1 0-10Zm0 2a3 3 0 1 0 0 6 3 3 0 0 0 0-6Z" fill="#282D37" style="fill: currentColor;fill: var(--db-icon-color, currentColor)" fill-rule="nonzero"/><path d="M30 19a1 1 0 0 1 .117 1.993L30 21h-4a1 1 0 0 1-.117-1.993L26 19h4Z" fill="#EC0016" style="fill:#EC0016;fill: var(--db-icon-pulse-color, #EC0016)"/></g></svg>
