<svg id="icon" height="64" viewBox="0 0 64 64" width="64" xmlns="http://www.w3.org/2000/svg"><g fill="none" transform="translate(4 11.028)"><path d="m8 23.624a1 1 0 0 1 1 1v5.348a1 1 0 0 0 1 1h43a1 1 0 0 0 .993-.884l.007-.116a1 1 0 0 1 2 0 3 3 0 0 1 -3 3h-43a3 3 0 0 1 -3-3v-5.348a1 1 0 0 1 1-1zm40-13.652a3 3 0 0 1 3 3v15.25a1 1 0 1 1 -2 0v-15.25a1 1 0 0 0 -1-1h-24a1 1 0 1 1 0-2zm-4 3.75a1 1 0 0 1 1 1v13.5a1 1 0 1 1 -2 0v-13.5a1 1 0 0 1 1-1zm-6 0a1 1 0 0 1 1 1v13.5a1 1 0 1 1 -2 0v-13.5a1 1 0 0 1 1-1zm-6 0a1 1 0 0 1 1 1v13.5a1 1 0 1 1 -2 0v-13.5a1 1 0 0 1 1-1zm-6 0a1 1 0 0 1 1 1v13.5a1 1 0 1 1 -2 0v-13.5a1 1 0 0 1 1-1zm-6 2a1 1 0 0 1 1 1v11.5a1 1 0 1 1 -2 0v-11.5a1 1 0 0 1 1-1zm-6 5.749a1 1 0 0 1 1 1v5.75a1 1 0 1 1 -2 0v-5.75a1 1 0 0 1 1-1zm-4.156 12.91a1 1 0 0 1 1.146.674l.029.113a1 1 0 0 0 1.929.125l.03-.112a1 1 0 1 1 1.957.415 3 3 0 0 1 -5.878-.04 1 1 0 0 1 .787-1.175zm8 0a1 1 0 0 1 1.146.674l.029.113a1 1 0 0 0 1.929.125l.03-.112a1 1 0 1 1 1.957.415 3 3 0 0 1 -5.878-.04 1 1 0 0 1 .787-1.175zm18 0a1 1 0 0 1 1.146.674l.029.113a1 1 0 0 0 1.929.125l.03-.112a1 1 0 1 1 1.957.415 3 3 0 0 1 -5.878-.04 1 1 0 0 1 .787-1.175zm8 0a1 1 0 0 1 1.146.674l.029.113a1 1 0 0 0 1.929.125l.03-.112a1 1 0 1 1 1.957.415 3 3 0 0 1 -5.878-.04 1 1 0 0 1 .787-1.175z" fill="var(--db-icon-color, currentColor)"/><path d="m21.35.28c-5.003-.833-10.948.232-14.798 2.657-4.693 2.958-8.849 9.273-5.098 17.328.015.03.04.044.055.069-1.12 5.24.217 10.953 3.598 15.316a.9.9 0 0 0 1.267.158.908.908 0 0 0 .163-1.272c-3.091-3.988-4.299-9.209-3.234-13.97 1.306-5.837 3.83-9.692 7.937-12.137a.907.907 0 0 0 -.927-1.558c-3.86 2.297-6.438 5.694-8.01 10.53-2.283-7.705 3.859-12.083 5.214-12.941 3.253-2.05 8.396-3.041 12.773-2.514-.103 5.783-1.794 10.476-5.028 13.951-3.204 3.446-7.98 4.318-9.706 4.003a.907.907 0 0 0 -.325 1.784c.285.05.63.08 1.02.08 2.544 0 7.113-1.169 10.332-4.634 3.702-3.98 5.557-9.352 5.517-15.972a.904.904 0 0 0 -.755-.888l.005.01z" fill="var(--db-icon-pulse-color, #86bc25)"/></g></svg>
