<svg id="icon" height="24" viewBox="0 0 24 24" width="24" xmlns="http://www.w3.org/2000/svg"><path d="m10.007 19h8.986a.996.996 0 0 0 1.007-1.016c0-.525-.455-.984-1.007-.984h-8.986c-.552 0-1.007.46-1.007.984a.996.996 0 0 0 1.007 1.016zm-5.007 0h1c.58 0 1-.426 1-1.016a.986.986 0 0 0 -1-.984h-1c-.548 0-1 .46-1 .984a.993.993 0 0 0 1 1.016zm5.007-5.998h8.986c.552 0 1.007-.452 1.007-1s-.455-1-1.007-1h-8.986c-.552 0-1.007.452-1.007 1s.455 1 1.007 1zm-5.007 0h1c.58 0 1-.452 1-1s-.42-1-1-1h-1c-.548 0-1 .452-1 1s.452 1 1 1zm5.007-6.002h8.986a.989.989 0 0 0 1.007-.984c0-.556-.455-1.016-1.007-1.016h-8.986c-.552 0-1.007.459-1.007 1.016 0 .558.455.984 1.007.984zm-5.007 0h1c.58 0 1-.426 1-.984 0-.556-.42-1.016-1-1.016h-1c-.548 0-1 .459-1 1.016 0 .558.452.984 1 .984z" fill="#282D37" style="fill: currentColor;fill: var(--db-icon-color, currentColor)" fill-rule="evenodd"/></svg>