<svg id="icon" height="32" viewBox="0 0 32 32" width="32" xmlns="http://www.w3.org/2000/svg"><path d="m16 2c1.132 0 2.17.612 2.71 1.615l10.943 20.933c.244.452.347.935.347 1.452 0 1.735-1.27 3-3 3h-21.857c-1.733 0-3.143-1.27-3.143-3 0-.517.103-1 .347-1.452l10.943-20.933a3.068 3.068 0 0 1 2.71-1.615zm0 20.206a1.4 1.4 0 0 0 -1.39 1.39c0 .744.646 1.39 1.39 1.39a1.4 1.4 0 0 0 1.39-1.39 1.38 1.38 0 0 0 -1.39-1.39zm0-13.784c-.582 0-1 .496-1 1.078v9.735c0 .582.418.998 1 .998s1-.416 1-.998v-9.735c0-.582-.418-1.078-1-1.078z" fill="var(--db-icon-color, currentColor)" fill-rule="evenodd"/></svg>
