<svg id="icon" height="24" viewBox="0 0 24 24" width="24" xmlns="http://www.w3.org/2000/svg"><path d="m11.8081014 3.49497334.4037383-.82655393c.1211986-.24812399.0183053-.54751909-.2298187-.66871768-.0867156-.04235705-.1838363-.05871348-.279642-.04709542l-.913199.11074084c-4.99425385.60563777-8.78918 4.85898407-8.78918 9.93171565 0 5.5255744 4.4793631 10.0049375 10.0049375 10.0049375 3.8621972 0 7.3282565-2.2087319 8.9938293-5.6170131l.4039752-.8266592c.1212436-.248102.0184044-.5475158-.2296976-.6687593-.0867356-.0423863-.1838871-.0587569-.2797233-.0471352l-.9133962.1107648c-.3215879.038998-.6469501.0586764-.9749876.0586764-4.4210048 0-8.0049373-3.5839325-8.0049373-8.00493735 0-1.23399587.2787425-2.42623317.8081014-3.50996401zm-2.4771014.95102666-.07379001.29592046c-.16998904.73500095-.25720999 1.49304723-.25720999 2.26301689l.00384369.28004304c.140629 5.11697931 4.12327221 9.27423131 9.16677561 9.69060191l.0963807.0064177-.1349861.1667825c-1.491706 1.7727115-3.712372 2.8512178-6.1270764 2.8512178-4.4210049 0-8.0049375-3.5839326-8.0049375-8.0049375 0-3.36053687 2.08234129-6.27222482 5.06564451-7.44907826z" fill="var(--db-icon-color, currentColor)" fill-rule="evenodd"/></svg>
