<svg id="icon" height="20" viewBox="0 0 20 20" width="20" xmlns="http://www.w3.org/2000/svg"><path d="m17 16.0022761c.5522847 0 1 .4468258 1 .9980134s-.4477153.9980135-1 .9980135h-14c-.55228475 0-1-.4468259-1-.9980135s.44771525-.9980134 1-.9980134zm-5.09375-14.00375291c.8098764-.01349075 1.4857756.59446073 1.5722088 1.38439685l.0090412.14120015v.4743663h2.005c.7855853.00064977 1.4307109.60165801 1.5011277 1.36914385l.0063723.13707851v6.98737175c-.0013014.7855701-.6028557 1.4301851-1.3704137 1.4999639l-.1370863.0062585h-10.985c-.78558535-.0006498-1.43071089-.601658-1.50112772-1.3691439l-.00637228-.1370785v-6.98737175c.00130145-.78557013.60285566-1.43018505 1.37041374-1.49996391l.13708626-.00625845h1.98v-.47499128c.01582906-.80959332.64752486-1.46293585 1.43985265-1.52099505l.14139735-.00397697zm3.09375 4.00147681h-10v6h10z" fill="var(--db-icon-color, currentColor)" fill-rule="evenodd"/></svg>
