<svg id="icon" height="24" viewBox="0 0 24 24" width="24" xmlns="http://www.w3.org/2000/svg"><path d="m19.290672 16.6088125 1.7188424.0600233c.5519483.0192745.9837658.482342.9644913 1.0342903-.0178977.5125235-.4338788.9832563-1.0342903.9644914-.5731173-.0179119-1.1460648-.0379197-1.7188424-.0600233-.0870978-.0030416-.1790633.0065801-.2758966.0288649l-13.58736178 3.373959c-.24773796.0654978-.52363453.0943628-.82768971.086595l-1.7188424-.0600233c-.55194831-.0192745-.98376579-.482342-.96449132-1.0342904.01789771-.5125234.44332435-.982961 1.03429032-.9644913.57311752.0179119 1.14606499.0379197 1.7188424.0600233.09070686.0031676.18267238-.0064541.27589657-.028865l13.58736182-3.3739589c.2718539-.0675057.5477504-.0963707.8276897-.086595zm-12.82196308-6.2167056c.05421964.234851.03311585.4494662-.074307.6664842l-.0609556.1088141c-.35597403.5696775-.45474305 1.2532147-.31414864 1.862196.31632617 1.3701592 1.69596277 2.2062371 3.03572161 1.8969294.63947908-.1476354 1.21044331-.5360289 1.58987421-1.1432452.1357947-.217317.3400886-.3606466.5836811-.4168844.5480831-.1265349 1.0798046.2317362 1.1993211.749419.0562378.2435926.0585959.5316449-.0819202.7565176-.6323822 1.0118897-1.6534919 1.7287628-2.81055632 1.9958922-2.43592516.5623776-4.87208365-.9598198-5.43446129-3.395745-.2601109-1.1266641-.04922021-2.297205.50794957-3.356593.13398478-.25538554.38648748-.40994771.63008-.46618547.54808316-.12653497 1.1031865.19431737 1.22972146.74240057zm2.14443521-3.94488532 1.83732117 2.87233885 2.1129628-.56616666c.7545812-.20218944 1.306955.03678869 1.7540208.62999247l2.961836 3.92982606c.0678086.0900171.1331503.2554421.1574275.346046.1455857.5433332-.1637735 1.0791591-.6769699 1.2166697-.4527295.1213085-.8678517-.0899484-1.1136305-.413356l-2.8065273-3.7126218-2.656296.7117524c-.45282603.1213343-.90162836-.0444563-1.16004012-.4656254l-2.1823131-3.55635565c-.0365628-.05956653-.07876205-.17301006-.09493824-.23338042-.15368675-.57356676.22414387-1.09533535.70710678-1.22474487.45282603-.12133437.91593448.08161984 1.16004011.46562532zm-2.56425539-4.33513537c.78481473-.21029048 1.62682683.27584544 1.83711731 1.06066017.21839151.81504821-.27584544 1.62682683-1.06066018 1.83711731-.81495161.21836563-1.61872579-.24561196-1.8371173-1.06066017-.21029048-.78481474.24570855-1.61875168 1.06066017-1.83711731z" fill="var(--db-icon-color, currentColor)" fill-rule="evenodd"/></svg>
