<svg id="icon" height="20" viewBox="0 0 20 20" width="20" xmlns="http://www.w3.org/2000/svg"><path d="m14 8a1 1 0 0 0 -1 1v6.5a.5.5 0 0 1 -1 0v-2.5a1.002 1.002 0 0 0 -1.444-.896c-.224.11-.94.396-1.556.396s-1.332-.286-1.553-.395a1.003 1.003 0 0 0 -.973.044 1.003 1.003 0 0 0 -.474.851v2.5a.5.5 0 0 1 -1 0v-5.5h6a1 1 0 0 0 .986-.836l.681-4.083.626.626c.11.109.244.192.391.241l2.228.743c-.333 1.18-1.516 1.303-1.912 1.309m3.316-2.948-2.776-.926-1.833-1.833a.997.997 0 0 0 -1.012-.245.997.997 0 0 0 -.681.788l-.861 5.164h-5.975c-.057-.09-.178-.355-.178-1a1 1 0 1 0 -2 0c0 1.514.5 2.262 1 2.633v5.867c0 1.379 1.122 2.5 2.5 2.5s2.5-1.121 2.5-2.5v-1.111a5.138 5.138 0 0 0 2 0v1.111c0 1.379 1.122 2.5 2.5 2.5s2.5-1.121 2.5-2.5v-5.626c1.445-.357 3-1.508 3-3.874a.997.997 0 0 0 -.684-.948" fill="var(--db-icon-color, currentColor)" fill-rule="evenodd"/></svg>
