<svg id="icon" height="24" viewBox="0 0 24 24" width="24" xmlns="http://www.w3.org/2000/svg"><path d="m4 21c-.55228475 0-1.00003102-.4477153-1.00003102-1 0-.5128358.40305951-1 1.00003102-1l.00009834-6.7638055c-.61380644-.5493233-1.00012936-1.3476498-1.00012936-2.2361945 0-.44216561.05892762-.63429956.1576257-.9886278l1.17982746-4.51582226c.21609103-.82903945.96691822-1.49554994 1.93531927-1.49554994h11.45390059c.8572641 0 1.672114.52547428 1.9356632 1.49680229l1.1815888 4.51456991c.110127.31559753.156106.64892433.156106.9886278 0 .8880739-.3858804 1.6860206-.9991175 2.2353163l-.0008825 6.7646837c.5522847 0 1 .4477153 1 1 0 .5128358-.4102612 1-1 1zm14-4h-12v2h12zm-1.501-4.402c-.4596764.268-.959343.402-1.499.402s-1.0399903-.134-1.501-.402c-.4757642.268-.9754309.402-1.499.402s-1.0239024-.134-1.501-.402c-.461969.268-.96163568.402-1.499.402s-1.03769766-.134-1.501-.402c-.4453384.2608898-.94500506.3948898-1.499.402v2h12v-2c-.5209516 0-1.0212849-.134-1.501-.402zm1.227642-7.598-11.45390059.00006882-1.25162086 4.79351041c-.01398086.06697272-.02112055.1359426-.02112055.20642077 0 .5522847.44771525 1 1 1 .51703035 0 1.01661158-.3967415 1.49874368-1.19022465.44083083.79348315.9412496 1.19022465 1.50125632 1.19022465s1.0595879-.3967415 1.4987437-1.19022465c.470799.79348315.9712178 1.19022465 1.5012563 1.19022465s1.0296197-.3967415 1.4987437-1.19022465c.4385163.79348315.9389351 1.19022465 1.5012563 1.19022465s1.0619024-.3967415 1.4987437-1.19022465c.4500954.79348315.9505142 1.19022465 1.5012563 1.19022465.5522847 0 1-.4477153 1-1 0-.09166699-.0687569-.37339043-.1043596-.49869182z" fill="var(--db-icon-color, currentColor)" fill-rule="evenodd"/></svg>
