<svg id="icon" height="32" viewBox="0 0 32 32" width="32" xmlns="http://www.w3.org/2000/svg"><path d="m26.26 21.818 1.753.061a1 1 0 0 1 -.07 2c-.584-.02-1.168-.04-1.752-.062-.118.002-.2.01-.244.021-6.556 1.398-13.107 2.797-19.653 4.197a2.902 2.902 0 0 1 -.732.065l-1.778-.063a1 1 0 0 1 -.965-1.034.993.993 0 0 1 1.034-.964c.593.018 1.186.039 1.78.062a.749.749 0 0 0 .243-.022 6812.95 6812.95 0 0 0 19.654-4.197c.217-.047.46-.069.73-.064zm-18.918-3.686a5.826 5.826 0 0 1 .38-4.05.973.973 0 0 1 .631-.516c.58-.155 1.091.18 1.234.712.056.209.042.436-.047.658-.4.827-.51 1.8-.275 2.68.546 2.04 2.618 3.286 4.657 2.74a3.944 3.944 0 0 0 2.667-2.368c.134-.334.398-.553.676-.628.51-.136 1.101.127 1.257.706a.92.92 0 0 1 -.054.635 5.974 5.974 0 0 1 -4.029 3.587c-3.011.807-6.246-.983-7.097-4.156zm1.533-7.809c-.143-.533.18-1.09.712-1.234l.695-.186c1.112-.298 2.246.044 2.843.976l.177.29 3.313-.887a1.001 1.001 0 0 1 1.23.698 1.015 1.015 0 0 1 -.713 1.234l-2.733.732 1.097 1.777 3.382-.906c.417-.112.807.047 1.074.397l3.449 4.438c.071.08.125.19.156.306a.992.992 0 0 1 -.718 1.21c-.417.112-.803-.033-1.071-.383l-3.043-3.852-3.428.919a1 1 0 0 1 -1.113-.447l-2.65-4.33c-.173-.276-.32-.36-.737-.25l-.695.187a.993.993 0 0 1 -1.227-.689zm-1.292-4.818a2.027 2.027 0 0 1 1.424-2.467c1.066-.286 2.159.365 2.444 1.43a1.986 1.986 0 0 1 -1.407 2.438c-1.066.286-2.176-.336-2.461-1.401z" fill="var(--db-icon-color, currentColor)" fill-rule="evenodd"/></svg>
