<svg id="icon" height="32" viewBox="0 0 32 32" width="32" xmlns="http://www.w3.org/2000/svg"><path d="m12 5c.5522847 0 1 .44771525 1 1 0 .51283584-.397353 1-1 .99327227l-5.1541722.00672773c-1.06826023 0-1.44856785.07344079-1.8394975.28251225-.31462041.16826084-.55555721.40919764-.72381805.72381805-.17920411.33508256-.25876119.66236118-.27783456 1.42175457v13.14383023c.01907337.7593934.09863045 1.086672.27783456 1.4217546.16826084.3146204.40919764.5555572.72381805.723818.33508256.1792042.66236118.2587612 1.42175457.2778346l5.57191513.0046777c.5522847 0 1 .4477153 1 1 0 .5128358-.4096222 1-1 1h-5.1541722c-1.37018965 0-2.06241236-.1336744-2.78269521-.5188859-.66315737-.3546604-1.18958629-.8810893-1.54424673-1.5442467-.35953072-.672264-.49994467-1.3200845-.51706861-2.5174876l-.00181725-12.573552c0-1.37018965.13367437-2.06241236.51888586-2.78269521.35466044-.66315737.88108936-1.18958629 1.54424673-1.54424673.67226399-.35953072 1.32008449-.49994467 2.51748765-.51706861zm12 5c3.3137085 0 6 2.6862915 6 6s-2.6862915 6-6 6c-2.1713794 0-4.1358512-1.1642664-5.1963592-2.9985663l-2.8036408-.0014337c-.15794 0-.3130529-.0374003-.4528854-.1084305l-1.0491146-.6905695-.947526.6316234c-.2987837.1987432-.6777422.2204678-.9940168.0653215l-1.0574572-.6959449-.9442998.6300503c-.131414.0876093-.2812217.1425315-.4369699.1609961l-1.1177303.0069536c-.22101374 0-.43448403-.0731645-.60802951-.2060806l-2.09907727-2.0868126c-.36048396-.360484-.3882135-.927715-.08318861-1.3200062l2.08318861-2.0942074c.15628031-.1562803.3589617-.2554915.5756628-.2842208l9.93436418-.0089525c1.0589511-1.8329152 3.0233871-2.9997199 5.1970798-2.9997199zm0 2c-1.4757305 0-2.8060846.8058849-3.502961 2.0668404-.3030475.5439421-.4499943.9331596-1.1465338.9331596h-9.9365052l-.999 1 1 1h.281l1.2492998-.8320503c.2988564-.1992376.6781911-.2211956.9947682-.0659483l1.057932.6959986.9481604-.6306234c.2985045-.1985575.6770629-.2204408.9931949-.0657238l1.3636447.8983472h3.0868461c.7627876 0 1.014135.755647 1.0449456.8159849.6790163 1.3297458 2.0456291 2.1840151 3.5652083 2.1840151 2.209139 0 4-1.790861 4-4s-1.790861-4-4-4zm0 2.5c.8284271 0 1.5.6715729 1.5 1.5s-.6715729 1.5-1.5 1.5-1.5-.6715729-1.5-1.5.6715729-1.5 1.5-1.5z" fill="var(--db-icon-color, currentColor)" fill-rule="evenodd"/></svg>
