<svg id="icon" height="32" viewBox="0 0 32 32" width="32" xmlns="http://www.w3.org/2000/svg"><path d="m29.1001127 6.59884952c.5854117.07536647.9482422.677322.795084 1.24559403-2.2812755 8.46435405-5.8904587 13.52906975-10.3186474 15.48779735-3.1964387 1.4138858-6.6732892 1.0020058-8.8256524-.5624804-1.63307234.4583453-3.32637929.6696163-5.02193104.4982765-1.04935477-.10604-2.03416176-.3253001-3.01317866-.6933911-1.21718631-.5455081-.54736355-2.299435.7091256-1.8700645.80274916.3044013 1.63236716.4918565 2.48733568.5718714 4.28687212.4012008 8.54053982-1.9399819 11.85943422-4.4256942 1.5864513-1.1759206 3.1824976-2.6116699 4.788139-4.3072478.8097636-.9022929 2.2686199.155047 1.5690504 1.2258389 0 0-1.7299349 1.9578069-3.7645876 3.583093-2.0416851 1.677095-4.3540648 3.3059768-7.0682722 4.4978895 1.5794874.5362931 6.0766707 1.1652623 10.2265801-4.4140441 1.633381-2.2952151 3.0086335-5.2945093 4.1257576-8.99788252-2.1969694-.16117081-4.168761-.09764611-5.915375.1905741-4.0885467.71307993-8.8767091 2.65900692-10.982677 8.30580832-.3921685 1.0374048-2.21486328.8071515-1.86929599-.7111487 1.26003849-3.3454052 3.71450919-6.46318527 7.97804339-8.27249514 3.1682561-1.32795673 7.5096832-2.01210067 12.2410673-1.35229464z" fill="var(--db-icon-color, currentColor)" fill-rule="evenodd"/></svg>
