<svg id="icon" height="24" viewBox="0 0 24 24" width="24" xmlns="http://www.w3.org/2000/svg"><path d="m11.999 2.125c.446 0 .883.366.875.875v1.744l1.077-1.077a.875.875 0 0 1 1.238 0 .887.887 0 0 1 0 1.237l-2.316 2.316v3.265l3.042-1.756.79-2.948a.875.875 0 0 1 1.072-.619.868.868 0 0 1 .619 1.072l-.338 1.258 1.297-.749a.875.875 0 0 1 1.196.32.89.89 0 0 1 -.263 1.16l-1.627.941 1.688.452a.875.875 0 0 1 .618 1.072c-.114.428-.552.73-.999.638l-3.45-.925-2.77 1.6 3.198 1.846 2.95-.79a.875.875 0 0 1 1.071.62c.115.427-.129.944-.618 1.071l-1.259.337 1.14.658a.875.875 0 1 1 -.875 1.516l-1.412-.816.453 1.687a.875.875 0 1 1 -1.69.453l-.906-3.377-2.927-1.69v3.627l2.316 2.316a.875.875 0 0 1 -1.238 1.237l-1.078-1.078v1.382a.871.871 0 1 1 -1.743 0l-.007-1.383-1.077 1.078a.875.875 0 1 1 -1.237-1.237l2.314-2.316v-3.627l-2.927 1.69-.904 3.377a.875.875 0 0 1 -1.072.62c-.428-.116-.754-.58-.618-1.073l.451-1.687-1.411.816a.875.875 0 0 1 -.875-1.516l1.138-.658-1.256-.337a.875.875 0 1 1 .453-1.69l2.948.789 3.2-1.847-2.773-1.599-3.376.906a.875.875 0 1 1 -.453-1.69l1.686-.453-1.568-.905a.875.875 0 0 1 .875-1.516l1.296.749-.336-1.258a.875.875 0 0 1 .618-1.072c.428-.114.904.092 1.072.62l.79 2.947 3.041 1.756v-3.265l-2.312-2.315a.875.875 0 0 1 0-1.237c.313-.313.808-.365 1.214-.027l1.1 1.104v-1.744c0-.483.392-.875.876-.875z" fill="#282D37" style="fill: currentColor;fill: var(--db-icon-color, currentColor)" fill-rule="evenodd"/></svg>
