<svg id="icon" height="32" viewBox="0 0 32 32" width="32" xmlns="http://www.w3.org/2000/svg"><path d="m18 4c1.6568542 0 3 1.34314575 3 3v4h4c1.6568542 0 3 1.3431458 3 3v4c0 1.6568542-1.3431458 3-3 3h-4v4c0 1.6568542-1.3431458 3-3 3h-4c-1.6568542 0-3-1.3431458-3-3v-4h-4c-1.65685425 0-3-1.3431458-3-3v-4c0-1.6568542 1.34314575-3 3-3h4v-4c0-1.65685425 1.3431458-3 3-3zm0 2h-4c-.5128358 0-.9355072.38604019-.9932723.88337887l-.0067277.11662113v6h-6c-.51283584 0-.93550716.3860402-.99327227.8833789l-.00672773.1166211v4c0 .5128358.38604019.9355072.88337887.9932723l.11662113.0067277h6v6c0 .5128358.3860402.9355072.8833789.9932723l.1166211.0067277h4c.5128358 0 .9355072-.3860402.9932723-.8833789l.0067277-.1166211v-6h6c.5128358 0 .9355072-.3860402.9932723-.8833789l.0067277-.1166211v-4c0-.5128358-.3860402-.9355072-.8833789-.9932723l-.1166211-.0067277h-6v-6c0-.51283584-.3860402-.93550716-.8833789-.99327227z" fill="var(--db-icon-color, currentColor)" fill-rule="evenodd"/></svg>
