<svg id="icon" height="32" viewBox="0 0 32 32" width="32" xmlns="http://www.w3.org/2000/svg"><path d="m29.316 7.623-5.348-1.783-3.547-3.547a.997.997 0 0 0 -1.012-.245.997.997 0 0 0 -.681.788l-1.718 10.307h-.108l-11.354-10.866a1 1 0 0 0 -1.383 1.445l9.843 9.42h-9.097c-.261-.048-.911-.619-.911-2.714a1 1 0 1 0 -2 0c0 2.862 1.032 3.983 1.857 4.425v11.36a3.79 3.79 0 0 0 3.786 3.787 3.79 3.79 0 0 0 3.786-3.786v-3.12c.759.266 1.729.513 2.714.513s1.955-.247 2.714-.513v3.12a3.79 3.79 0 0 0 3.786 3.786 3.79 3.79 0 0 0 3.786-3.786v-12.004c1.043-.007 2.582-.219 3.794-1.232 1.179-.986 1.777-2.47 1.777-4.407a.998.998 0 0 0 -.684-.948zm-18.402 13.074a1.002 1.002 0 0 0 -1.486.874v4.643c0 .986-.801 1.786-1.786 1.786a1.788 1.788 0 0 1 -1.786-1.786v-11.07h9.643v6.27a5.515 5.515 0 0 1 -1.357.193c-1.565 0-3.212-.9-3.229-.909h.001zm9.729 7.303a1.788 1.788 0 0 1 -1.786-1.786v-4.643a1 1 0 0 0 -1.001-.999.999.999 0 0 0 -.356.074v-5.038l4.929 1.931v8.675c0 .985-.801 1.786-1.786 1.786zm6.304-16.562c-1.261 1.063-3.324.725-3.342.721a1 1 0 0 0 -1.176.985v2.25l-3.535-1.387 1.488-8.925 2.34 2.34a1 1 0 0 0 .391.241l4.85 1.617c-.108.957-.448 1.682-1.015 2.158z" fill="var(--db-icon-color, currentColor)" fill-rule="evenodd"/></svg>
