<svg id="icon" height="32" viewBox="0 0 32 32" width="32" xmlns="http://www.w3.org/2000/svg"><path d="m8.286 20.796a1 1 0 0 1 .557 1.301l-2.913 7.275a1 1 0 0 1 -1.857-.744l2.913-7.275a1 1 0 0 1 1.3-.557zm1.916-11.028a1 1 0 0 1 .522.98l-.737 7.365 2.636 3.594c.064.089.114.189.147.293l2.099 6.7a1 1 0 1 1 -1.908.598l-2.048-6.543-2.764-3.768a1.002 1.002 0 0 1 -.188-.691l.535-5.345-.997.816-1.122 3.672a.997.997 0 0 1 -1.25.664 1 1 0 0 1 -.664-1.248l1.21-3.962a.998.998 0 0 1 .323-.481l3.1-2.537a.997.997 0 0 1 1.106-.107zm5.628 8.354a.999.999 0 0 1 1.414-.018l8.31 8.096a1 1 0 1 1 -1.395 1.432l-8.31-8.096a1 1 0 0 1 -.02-1.414zm-2.511-5.55.484 1.771 1.484 1.518a1 1 0 0 1 -1.431 1.398l-1.664-1.703a1 1 0 0 1 -.25-.436l-.552-2.02a1 1 0 0 1 1.929-.528zm13.681 15.427c-.517 0-1 .483-1 1s.483 1 1 1 1-.483 1-1-.483-1-1-1zm-16.59-19.839a3.084 3.084 0 0 0 3.08-3.08 3.084 3.084 0 0 0 -3.08-3.08 3.084 3.084 0 0 0 -3.08 3.08 3.084 3.084 0 0 0 3.08 3.08zm0-4.16a1.08 1.08 0 1 1 -.001 2.161 1.08 1.08 0 0 1 0-2.161z" fill="var(--db-icon-color, currentColor)" fill-rule="evenodd"/></svg>
