<svg id="icon" height="32" viewBox="0 0 32 32" width="32" xmlns="http://www.w3.org/2000/svg"><path d="m6 28c-.55228475 0-1-.4477153-1-1 0-.5128358.41637039-1 1.00006832-1v-10.627297c-.90678057-.6324679-1.50006832-1.6833006-1.50006832-2.872703 0-.2128456.01911676-.4236451.05340608-.6154007l1.30241-6.28955954c.18075176-.87419809.9455698-1.59503976 1.95857275-1.59503976h16.37210197c.891941 0 1.7547219.62003469 1.9581431 1.59503976l1.2946582 6.22887684c.0396079.227741.0607079.4516843.0607079.6760834 0 1.1889671-.5928535 2.2394658-1.4990727 2.8720083l-.0009273 10.6279917c.5522847 0 1 .4477153 1 1 0 .5128358-.4024305 1-.9990727 1zm18-6h-16v4h16zm-2.001-6.629c-.6001382.4193333-1.2664715.629-1.999.629s-1.3995285-.2096667-2.001-.629c-.6001382.4193333-1.2664715.629-1.999.629s-1.3995285-.2096667-2.001-.629c-.6001382.4193333-1.2664715.629-1.999.629s-1.3995285-.2096667-2.001-.629c-.61971564.4324834-1.28604898.6421501-1.999.629v4h16v-4c-.719986 0-1.386986-.2096667-2.001-.629zm2.1874908-9.371-16.37213273.00014871-1.29511243 6.25798139c-.01276411.0791527-.01924564.1599046-.01924564.2418699 0 .8284271.56425762 1.5 1.5 1.5.62382825 0 1.29016159-.5 1.999-1.5.7022588 1 1.3692588 1.5 2.001 1.5s1.2980745-.5 1.999-1.5c.7260874 1 1.3943741 1.5 2.0048601 1.5s1.2755326-.5 1.9951399-1.5c.7107503 1 1.3777503 1.5 2.001 1.5s1.289583-.5 1.999-1.5c.7246536 1 1.3916536 1.5 2.001 1.5.9140196 0 1.5-.6715729 1.5-1.5 0-.0692296-.017586-.235048-.0249907-.3012226z" fill="var(--db-icon-color, currentColor)" fill-rule="evenodd"/></svg>
