<svg id="icon" height="20" viewBox="0 0 20 20" width="20" xmlns="http://www.w3.org/2000/svg"><path d="m16 2c1.1045695 0 2 .8954305 2 2v12c0 1.1045695-.8954305 2-2 2h-12c-1.1045695 0-2-.8954305-2-2v-12c0-1.1045695.8954305-2 2-2zm0 2h-12v12h12zm-4.6175196 2.29200843c.4643533.09115482.7857327.1794419.9641381.26486123.2676081.12812899.426264.44654459.3401788.74053441-.0774767.26459084-.4067973.46789067-.6625127.39482224-.1793591-.04832685-.4567045-.11211217-.8320363-.19135598-.2339878-.03735145-.5085975-.06587033-.8022483-.06587033-.55333333 0-.98833333.09833333-1.305.295s-.54166667.485-.675.865-.2.87-.2 1.47c0 .6133333.07 1.1033333.21 1.47s.36333333.6366667.67.81.72052489.26 1.22.26c.2604578 0 .5069759-.02355.7395543-.0706499.0931872-.0188715.2004188-.1192221.2004188-.2448307v-1.1245194c0-.0662742-.0488074-.1462686-.15-.15-.1531949-.0023089-.3065193-.0023089-.4599731 0-.325848 0-.59-.264152-.59-.59 0-.2932632.21-.58830939.59-.59.5465982-.00243181 1.0932649-.00243181 1.64 0 .2454599 0 .5.165.5.5v2.2432428c0 .44189-.2900327.8313906-.7133825.9580465-.5829128.1724738-1.1851187.2587107-1.8066175.2587107-1.28 0-2.22666667-.31-2.84-.93s-.92-1.5566667-.92-2.81c0-.84.15-1.54666667.45-2.12s.735-1.005 1.305-1.295 1.71981182-.58608277 3.1274804-.34799157z" fill="var(--db-icon-color, currentColor)" fill-rule="evenodd"/></svg>
