<svg id="icon" height="24" viewBox="0 0 24 24" width="24" xmlns="http://www.w3.org/2000/svg"><path d="m11.9957959 5c1.6591761 0 3.0042041 1.34502797 3.0042041 3.00420405 0 1.20420806-.6559601 2.01740235-1.8231603 2.69677225-.1723921.1003409-.1816472.2204715-.1816472.6210237 0 0 2.4590334.9488599 7.3771002 2.8465798 1.2876079.4984288 1.9273639 1.9462976 1.428935 3.2339055-.3507865.9061985-1.1919082 1.5217111-2.1504155 1.5909887l-15.12061967.006526c-1.38071187 0-2.5-1.1192881-2.5-2.5 0-.9717238.56220678-1.8493711 1.43107138-2.2599927l7.53392859-2.9150073.0042434-.3661882c.0151948-.353866.0816872-.6714332.2680387-1.03695788.1937819-.38009908.4894613-.70349958.8873802-.940048.6350653-.37752351.8451452-.63548919.8451452-.97760187 0-.55460658-.4411774-1.00420405-1.0042041-1.00420405-.3409497 0-.8861883.23151087-1.0305747.76458779-.1443865.53307692-.693579.84817283-1.22665595.7037864-.53307692-.14438643-.84817283-.69357898-.7037864-1.2266559.35145523-1.29757816 1.59426695-2.24171829 2.96101705-2.24171829zm-.6028048 8.3077331-7.04329562 2.7259829c-.1925672.0745421-.31950295.2597927-.31950295.466284 0 .2454599.17687517.4496084.41012437.4919443l15.0294906.0080557c.2064913 0 .3917419-.1269357.466284-.3195029.0886096-.2289081-.0026421-.4831414-.2048799-.6068241l-7.1242027-2.7659399c-.2646775-.1075417-.4669017-.1613126-.6066726-.1613126s-.3422193.0537709-.6073452.1613126z" fill="var(--db-icon-color, currentColor)" fill-rule="evenodd"/></svg>
