<svg id="icon" height="24" viewBox="0 0 24 24" width="24" xmlns="http://www.w3.org/2000/svg"><path d="m7.512 15.863c-1.542-1.543-1.542-4.054 0-5.597.39-.391 1.023-.391 1.414 0s.391 1.023 0 1.414c-.763.764-.763 2.005 0 2.769.763.762 2.005.762 2.769 0 .391-.391 1.024-.391 1.415 0 .39.391.39 1.024 0 1.414-.772.771-1.785 1.156-2.798 1.157-1.014 0-2.027-.386-2.798-1.157zm3.512-9.306c.861 0 1.558-.698 1.558-1.558s-.698-1.558-1.558-1.558-1.558.698-1.558 1.558.698 1.558 1.558 1.558zm5.624 10.465c.124 0 .25-.023.373-.072.513-.206.761-.788.555-1.301l-1.7-4.226c-.152-.379-.52-.627-.928-.627h-2.215l-.775-2.659c-.154-.531-.711-.835-1.24-.681-.53.154-.835.71-.68 1.239l.985 3.38c.124.427.516.721.96.721h2.29l1.448 3.599c.157.391.532.627.928.627zm-3.954 1.977h-9.694c-.552 0-1 .447-1 1s.448 1 1 1h9.694c.552 0 1-.447 1-1s-.448-1-1-1zm8.305 0h-4.305c-.552 0-1 .447-1 1s.448 1 1 1h4.305c.552 0 1-.447 1-1s-.448-1-1-1z" fill="var(--db-icon-color, currentColor)" fill-rule="evenodd"/></svg>
