<svg id="icon" height="32" viewBox="0 0 32 32" width="32" xmlns="http://www.w3.org/2000/svg"><path d="m26.3871006 4.20970461c.3700108-.32816671.9595222-.27729535 1.3200062.08318861.3604839.36048396.4079205.96837896.0831886 1.32000622l-13.3762954 13.38710056h12.8007233c.6136962 0 1.1101995.1061788 1.4895098.3185363.418713.2239301.7533005.5585176.9772306.9772306.1979148.3700685.3185363.7058093.3185363 1.7047331s-.092348 1.2807977-.3185363 1.7037331c-.2239301.418713-.5585176.7533005-.9772306.9772306-.3700685.1979148-.7536246.293358-1.2631175.3141264l-19.0271156.0044099-2.80110056 2.7902954c-.38290486.3136053-.95952226.2772953-1.32000622-.0831886-.36048396-.360484-.40145675-.9673505-.08318861-1.3200062zm-17.5021006 14.79029539-2.001 2.001h-2.2193176c-.19009913.005282-.39010049.0081738-.49903299.1230692-.10893249.1148954-.16564941.2460327-.16564941.4557953v.7954865c0 .1604526.04491379.3701365.13428731.4694861.08937351.0993497.2977923.1472482.52591126.1535867l.22480143.0015762-1.64746252 1.6493009c-.33287426-.1898064-.70742056-.5204111-.91900115-.9450678-.21158059-.4246566-.31853633-.7042331-.31853633-1.7037331s.09234799-1.2817977.31853633-1.7047331c.22393012-.418713.55851762-.7533005.97723053-.9772306.3700685-.1979148.75362466-.293358 1.2631175-.3141264zm3.528 2.001-1.999 1.999h16.8007233c.2732534 0 .4274977-.0164043.5755721-.112496.1480744-.0960916.2097046-.2692478.2097046-.512153 0-.2998551 0-.5650173 0-.7954865 0-.3457039-.1687886-.4601713-.2389646-.4977018-.0908602-.0485925-.193115-.074248-.421234-.0805865zm-8.76145931-15.69735927c.391087-.38996077 1.02425133-.38904777 1.41421209.00203923 1.85875319 1.86412143 1.83350933 4.05261634.01434233 6.16510234l-.32318658.3655602c-.88820255 1.0565884-.92277565 2.0038857-.44946323 2.9211421.07998685.1550107.20485777.3410261.37461273.5580464.37791733.4119934.37791733 1.0284101-.01737563 1.4141068s-1.02841015.3779173-1.41410681-.0173756c-.20828901-.2134714-.47559105-.5631189-.72045867-1.0376604-.82965616-1.6078333-.74493754-3.4351833.73005122-5.1654223l.31423991-.3541283c1.15850027-1.3393045 1.15425825-2.35491681.0750934-3.43719838-.38996076-.39108701-.38904777-1.02425133.00203924-1.41421209z" fill="var(--db-icon-color, currentColor)" fill-rule="evenodd"/></svg>
