<svg id="icon" height="32" viewBox="0 0 32 32" width="32" xmlns="http://www.w3.org/2000/svg"><path d="m26.445 13.978c.964 0 1.477.1 2.012.385.5.268.899.666 1.166 1.167.263.49.368.962.384 1.78l.002 9.104c0 .964-.1 1.477-.386 2.012-.267.5-.666.9-1.166 1.167-.49.262-.963.367-1.78.383l-3.72.002c-.964 0-1.477-.1-2.012-.385a2.817 2.817 0 0 1 -1.166-1.167c-.263-.49-.368-.962-.384-1.78l-.002-9.104c0-.964.1-1.477.386-2.012.267-.5.666-.9 1.166-1.167.49-.262.963-.367 1.78-.383zm-4.744 12.5a.75.75 0 0 0 -.102 1.493l1.352.007a.75.75 0 0 0 .102-1.493zm4.75 0a.75.75 0 0 0 -.102 1.493l1.352.007a.75.75 0 0 0 .102-1.493zm-10.412-2.48a1 1 0 1 1 0 2h-9.039a1 1 0 1 1 0-2zm10.964-8.02-4.674.002a1 1 0 0 0 -.93.95l.475 6.844c.055.536.15 1.202 1.143 1.202l3.22.002c1.115 0 1.243-.595 1.278-1.056.326-4.614.488-6.928.488-6.944a1 1 0 0 0 -1-1zm-4.003-9.978a3 3 0 0 1 3 3v2.104a1 1 0 0 1 -2 0v-2.104a1 1 0 0 0 -1-1h-16a1 1 0 0 0 -1 1v9.944a1 1 0 0 0 1 1h9.041a1 1 0 1 1 0 2h-9.041a3 3 0 0 1 -3-3v-9.944a3 3 0 0 1 3-3zm-9.512 5.573c.078 0 .148.023.219.07l3.079 1.78a.668.668 0 0 1 .288.546.666.666 0 0 1 -.288.546l-3.087 1.787a.4.4 0 0 1 -.625-.328v-3.987c0-.227.196-.414.414-.414z" fill="var(--db-icon-color, currentColor)" fill-rule="evenodd"/></svg>
