<svg id="icon" height="20" viewBox="0 0 20 20" width="20" xmlns="http://www.w3.org/2000/svg"><path d="m6.129 13.021a3.338 3.338 0 0 1 0-4.714.999.999 0 1 1 1.414 1.414 1.335 1.335 0 0 0 1.676 2.058 1.001 1.001 0 0 1 1.101 1.67 3.338 3.338 0 0 1 -4.192-.428zm3.158-7.847a1.282 1.282 0 1 0 0-2.565 1.282 1.282 0 0 0 0 2.565zm4.933 8.752a1 1 0 0 0 .555-1.301l-1.341-3.333a1 1 0 0 0 -.928-.627h-1.589l-.567-1.946a.999.999 0 1 0 -1.92.558l.777 2.667a1 1 0 0 0 .96.721h1.664l1.089 2.706a.999.999 0 0 0 1.301.555zm-3.525 2.072h-7.695a1 1 0 1 0 0 2h7.694a1 1 0 1 0 0-2zm6.305 0h-2.305a1 1 0 1 0 0 2h2.305a1 1 0 1 0 0-2z" fill="var(--db-icon-color, currentColor)" fill-rule="evenodd"/></svg>
