<svg id="icon" height="32" viewBox="0 0 32 32" width="32" xmlns="http://www.w3.org/2000/svg"><path d="m29.338 27.032c-.416 1.003-1.016 1.783-1.773 2.26-.148.477-.468.716-.96.716h-4a1 1 0 0 1 -.975-.779c-.6-.426-1.118-1.069-1.517-2.021.702.505 1.2.848 1.493 1.028.441.27.997.47 1.659.513h2.682a3.732 3.732 0 0 0 1.66-.513c.326-.198.903-.6 1.731-1.204zm-4.759-13.024c3.684 0 5.474 2.502 5.52 6.005l.003 2.008c0 .78-.036 1.745-.147 2.613-.364.316-.816.675-1.355 1.078a38.36 38.36 0 0 1 -1.642 1.16 2.337 2.337 0 0 1 -1.26.386h-2.184c-.475 0-.946-.176-1.261-.387a53.4 53.4 0 0 1 -1.642-1.16 24.317 24.317 0 0 1 -1.142-.897c-.244-1.312-.367-2.245-.367-2.799v-2.002c0-3.503 1.708-6.005 5.477-6.005zm-8.54 9.99a1 1 0 1 1 0 2h-9.039a1 1 0 1 1 0-2zm5.83-1.202a.75.75 0 0 0 -.5.85l.564 1.693a.75.75 0 0 0 1.41-.47l-.565-1.693a.75.75 0 0 0 -.91-.38zm4.564.38-.565 1.693a.75.75 0 0 0 1.41.47l.565-1.693a.75.75 0 0 0 -1.41-.47zm-3.433-17.176a3 3 0 0 1 3 3v2.104a1 1 0 0 1 -2 0v-2.104a1 1 0 0 0 -1-1h-16a1 1 0 0 0 -1 1v9.944a1 1 0 0 0 1 1h9.041a1 1 0 1 1 0 2h-9.041a3 3 0 0 1 -3-3v-9.944a3 3 0 0 1 3-3zm1.606 10.008c-1.154 0-2.072.182-2.754.546a2.271 2.271 0 0 0 -1.144 2.275c.196.947.32 1.511.374 1.692.16.547.596.963 1.14 1.1.97.173 1.764.262 2.384.266.619.003 1.368-.076 2.247-.238a1.595 1.595 0 0 0 1.28-1.127 25.93 25.93 0 0 0 .373-1.696c.128-.864-.674-2.063-1.334-2.365s-1.515-.453-2.566-.453zm-11.118-4.435c.078 0 .148.023.219.07l3.079 1.78a.668.668 0 0 1 .288.546.666.666 0 0 1 -.288.546l-3.087 1.787a.4.4 0 0 1 -.625-.328v-3.987c0-.227.196-.414.414-.414z" fill="var(--db-icon-color, currentColor)" fill-rule="evenodd"/></svg>
