<svg id="icon" height="24" viewBox="0 0 24 24" width="24" xmlns="http://www.w3.org/2000/svg"><path d="m21.329 19.604c-.333.803-.813 1.427-1.419 1.808-.118.382-.374.573-.767.573h-3.2a.8.8 0 0 1 -.78-.623c-.48-.34-.895-.855-1.214-1.617.561.404.959.678 1.195.823a2.88 2.88 0 0 0 1.326.41h2.146c.463-.03.936-.173 1.328-.41.261-.159.723-.48 1.385-.964zm-10.319-1.62a1 1 0 0 1 0 2h-6.04a1 1 0 1 1 0-2zm6.512-8.8c2.947 0 4.379 2.003 4.416 4.805l.003 1.606c0 .624-.029 1.397-.118 2.09-.292.254-.653.541-1.084.863s-.869.631-1.314.928a1.868 1.868 0 0 1 -1.008.309h-1.748c-.379 0-.756-.14-1.008-.31a42.81 42.81 0 0 1 -1.314-.927 19.31 19.31 0 0 1 -.913-.718c-.196-1.05-.293-1.796-.293-2.24v-1.6c0-2.803 1.366-4.805 4.381-4.805zm-2.169 7.031a.6.6 0 0 0 -.4.68l.452 1.355a.6.6 0 0 0 1.128-.376l-.452-1.355a.6.6 0 0 0 -.728-.303zm3.652.304-.452 1.355a.6.6 0 0 0 1.128.376l.452-1.355a.6.6 0 0 0 -1.128-.376zm-2.986-12.519a2.984 2.984 0 0 1 2.984 2.985 1 1 0 1 1 -2 0 .985.985 0 0 0 -.984-.985h-11.019a1 1 0 0 0 -1 1v6.019a1 1 0 0 0 1 1h5.965a1 1 0 0 1 0 2h-5.965a3 3 0 0 1 -3-3v-6.019a3 3 0 0 1 3-3zm1.524 6.785c-.923 0-1.657.145-2.203.436a1.818 1.818 0 0 0 -.915 1.821c.157.758.257 1.209.299 1.354.128.437.477.77.913.88.775.138 1.411.209 1.906.212.496.003 1.095-.06 1.798-.19a1.277 1.277 0 0 0 1.024-.902 19.84 19.84 0 0 0 .298-1.357c.102-.69-.539-1.65-1.066-1.891-.528-.242-1.213-.363-2.054-.363zm-8.629-3.175c.079 0 .149.024.22.07l3.078 1.78a.663.663 0 0 1 0 1.093l-3.086 1.787a.402.402 0 0 1 -.567-.123.411.411 0 0 1 -.058-.205v-3.988c0-.226.195-.414.413-.414z" fill="var(--db-icon-color, currentColor)" fill-rule="evenodd"/></svg>
