<svg id="icon" height="24" viewBox="0 0 24 24" width="24" xmlns="http://www.w3.org/2000/svg"><path d="m20.670528 5.96088162c.5799052.10036005.9481725.67734055.7950171 1.24558849-1.5243778 5.65585679-3.9579607 9.07072499-6.9757078 10.40544229-2.1625099.956455-4.51753422.7062267-6.03661042-.3318927-1.92434232.5725553-3.73871367.4630405-5.30774752-.1592383-1.03574387-.3278222-.83529297-2.2923894.70904128-1.8700964 3.34365479 1.2467309 6.86208876-.4025529 10.55530196-4.9478515 1.0274943-1.20497889 2.3541373.3910027 1.6321828 1.1558457-1.6728103 2.1664193-3.3879347 3.6986062-5.0654412 4.6972896 4.5111525.3793973 6.8760808-4.0628761 8.2291654-8.33888276-2.095566-.13378876-4.0251939.13939453-5.7888837.81954988-2.1785915.86094858-3.75322972 2.41063578-4.54684307 4.57801818-.45933539 1.254459-2.38698969.5357985-1.86942331-.710814 1.45264736-3.49885238 3.45195218-5.00289869 6.51300058-6.02669845 3.3565924-1.12264756 7.1270404-.52113083 7.1569479-.51626003z" fill="var(--db-icon-color, currentColor)" fill-rule="evenodd"/></svg>
