<svg id="icon" height="20" viewBox="0 0 20 20" width="20" xmlns="http://www.w3.org/2000/svg"><path d="m10.000127 2.25c.3796958 0 .7514657.3051648.7431534.75l.0059887 1.189.7205278-.71933009c.2662666-.26626656.7284605-.30870494 1.0272734-.03697643.2988129.27172852.3679199.71925354.0333868 1.09763661l-1.781188 1.77966991v2.391l2.254-1.301.6030861-2.24850005c.1072064-.40009958.5184591-.63753644.9185587-.53033008.3637269.09746032.6450232.44847124.5303301.91855865l-.2149749.79927148.8470356-.48851905c.3587194-.20710678.8174122-.08420042 1.024519.27451905.1898479.32882618.1111591.79216003-.274519 1.02451905l-1.0790356.62248095 1.1666448.31327148c.3935126.08768689.6309394.51749646.5303301.91855865s-.4574657.64187605-.9185587.53033009l-2.6164162-.70116022-2.02 1.166 2.388 1.379 2.2484162-.6015c.4000996-.1072064.8113523.1302305.9185587.53033.0974603.3637269-.1020267.8036823-.5303301.9185587l-.7996448.2136113.7120356.4114809c.3587194.2071068.4816258.6657996.274519 1.0245191-.1898479.3288262-.6172622.5001085-1.024519.2745191l-.9450356-.5465191.3129749 1.1679317c.0974603.3637268-.1036481.795352-.4783238.9185586s-.8294934-.0798209-.970565-.5303301l-.7020861-2.6171602-2.155-1.244v2.702l1.781188 1.7803301c.2928932.2928932.2928932.7677669 0 1.0606602-.2662666.2662665-.7213473.3096627-1.030188.0392805l-.751-.7602708.0008579.88c0 .4142136-.3357864.75-.75.75-.37969577 0-.75-.2901855-.75085795-.75v-.879l-.71881196.7199903c-.31597451.3144089-.79085111.2662665-1.06066018 0-.26980906-.2662666-.31082391-.7199903 0-1.0606602l1.77947214-1.7803301v-2.701l-2.155 1.244-.70036948 2.6161602c-.10720636.4000996-.51845908.6375365-.91855865.5303301-.36372689-.0974603-.6450933-.4949723-.55220634-.8798564l.33413447-1.2056339-.94432005.5455191c-.35871947.2071067-.81741227.0842004-1.02451905-.2745191-.18984789-.3288262-.13055219-.7795654.23282583-.9906891l.75301327-.4453109-.79892813-.2136113c-.36372689-.0974603-.66522129-.4964001-.53033009-.9185587s.5090297-.6251436.91855865-.53033l2.24769957.6015 2.389-1.379-2.021-1.167-2.61569957.70216022c-.40009957.10720636-.82231796-.1471512-.91855865-.53033009-.09624069-.38317888.09624069-.80685442.49697525-.91855865l1.20028297-.31327148-1.07932005-.62248095c-.35871947-.20710678-.48162583-.66579958-.27451905-1.02451905.18984788-.32882618.63318565-.48890686 1.02451905-.27451905l.84532005.48751905-.21325822-.79827148c-.09746033-.36372689.0608638-.80289685.5033992-.91855865s.82533265.1156618.94548954.53033008l.60136948 2.24750005 2.254 1.301v-2.39l-1.77947214-1.77966991c-.29289321-.29289322-.29289321-.76776696 0-1.06066018.26626657-.26626656.72279953-.30626354 1.03047214-.03697643l.749.75530652.00085795-1.188c0-.41421356.33578644-.75.75-.75z" fill="var(--db-icon-color, currentColor)" fill-rule="evenodd"/></svg>
