<svg id="icon" height="20" viewBox="0 0 20 20" width="20" xmlns="http://www.w3.org/2000/svg"><path d="m16 2a2 2 0 0 1 2 2v12a2 2 0 0 1 -2 2h-12a2 2 0 0 1 -2-2v-12a2 2 0 0 1 2-2zm-5.64 3.939c-.878 0-1.622.155-2.232.466a3.16 3.16 0 0 0 -1.396 1.385c-.321.614-.482 1.37-.482 2.269 0 1.341.328 2.343.984 3.007.657.663 1.67.995 3.04.995.643 0 1.566-.165 1.987-.293a1 1 0 0 0 .71-.957v-2.488a.5.5 0 0 0 -.5-.5h-1.79a.631.631 0 1 0 0 1.263h.502a.15.15 0 0 1 .15.15v1.228a.25.25 0 0 1 -.2.245 3.97 3.97 0 0 1 -.806.079c-.534 0-.977-.093-1.305-.279-.329-.185-.568-.474-.717-.866-.15-.393-.225-.917-.225-1.573 0-.642.071-1.167.214-1.573a1.72 1.72 0 0 1 .722-.926c.339-.21.805-.316 1.397-.316s1.343.162 1.653.256c.31.093.712-.088.804-.403a.685.685 0 0 0 -.364-.792c-.286-.138-1.27-.377-2.147-.377z" fill="var(--db-icon-color, currentColor)" fill-rule="evenodd"/></svg>
