<svg id="icon" height="32" viewBox="0 0 32 32" width="32" xmlns="http://www.w3.org/2000/svg"><path d="m26.947 11.438c-1.261 1.063-3.324.724-3.342.72a1.002 1.002 0 0 0 -1.177.985v13.07c0 .986-.801 1.787-1.785 1.787-.985 0-1.786-.8-1.786-1.787v-4.642a1.003 1.003 0 0 0 -1.001-.998.996.996 0 0 0 -.485.125c-.016.008-1.664.909-3.228.909-1.565 0-3.213-.9-3.229-.91a1.005 1.005 0 0 0 -.993.012 1.003 1.003 0 0 0 -.493.863v4.642c0 .986-.801 1.786-1.786 1.786-.984 0-1.785-.8-1.785-1.787v-11.07h12a1 1 0 0 0 .986-.837l1.538-9.224 2.34 2.338a.99.99 0 0 0 .391.242l4.85 1.618c-.109.957-.449 1.68-1.015 2.158m2.369-3.815-5.348-1.783-3.547-3.547a.999.999 0 0 0 -1.693.544l-1.719 10.306h-12.098c-.261-.048-.911-.619-.911-2.713a1 1 0 1 0 -2 0c0 2.861 1.032 3.982 1.857 4.425v11.36a3.79 3.79 0 0 0 3.785 3.785 3.79 3.79 0 0 0 3.786-3.787v-3.12c.76.267 1.729.514 2.715.514.985 0 1.954-.247 2.714-.514v3.12a3.79 3.79 0 0 0 3.786 3.787 3.79 3.79 0 0 0 3.785-3.787v-12.003c1.043-.006 2.582-.218 3.795-1.232 1.179-.986 1.777-2.47 1.777-4.405a.998.998 0 0 0 -.684-.948" fill="var(--db-icon-color, currentColor)" fill-rule="evenodd"/></svg>
