<svg id="icon" height="20" viewBox="0 0 20 20" width="20" xmlns="http://www.w3.org/2000/svg"><path d="m15.022 3a3 3 0 0 1 3 3v5.057a3 3 0 0 1 -3 3h-10.022a3 3 0 0 1 -3-3v-5.057a3 3 0 0 1 3-3zm0 2h-10.022a1 1 0 0 0 -1 1v5.057a1 1 0 0 0 1 1h10.022a1 1 0 0 0 1-1v-5.057a1 1 0 0 0 -1-1zm-6.29 1.13c.078 0 .148.022.219.07l3.079 1.78a.669.669 0 0 1 .288.546.664.664 0 0 1 -.288.546l-3.087 1.787a.4.4 0 0 1 -.625-.329v-3.987c0-.227.196-.414.414-.414zm-4.765 10.876a1 1 0 0 1 1-1h10.088a1 1 0 0 1 0 2h-10.088a1 1 0 0 1 -1-1z" fill="var(--db-icon-color, currentColor)" fill-rule="evenodd"/></svg>
