<svg id="icon" height="32" viewBox="0 0 32 32" width="32" xmlns="http://www.w3.org/2000/svg"><path d="m16 25a1 1 0 0 1 1 1v3a1 1 0 0 1 -2 0v-3a1 1 0 0 1 1-1zm-6.364-2.636a1 1 0 0 1 0 1.414l-2.121 2.122a1 1 0 0 1 -1.415-1.415l2.12-2.121a1 1 0 0 1 1.415 0zm14.142 0 2.121 2.121a1 1 0 1 1 -1.414 1.414l-2.121-2.12a1 1 0 0 1 1.414-1.415zm-7.778-13.364a7 7 0 1 1 0 14 7 7 0 0 1 0-14zm0 2a5 5 0 1 0 0 10 5 5 0 0 0 0-10zm13 4a1 1 0 0 1 0 2h-3a1 1 0 0 1 0-2zm-23 0a1 1 0 0 1 0 2h-3a1 1 0 0 1 0-2zm19.9-8.9a1 1 0 0 1 0 1.415l-2.122 2.121a1 1 0 1 1 -1.414-1.414l2.121-2.122a1 1 0 0 1 1.414 0zm-18.385 0 2.121 2.122a1 1 0 1 1 -1.414 1.414l-2.122-2.121a1 1 0 0 1 1.415-1.415zm8.485-4.1a1 1 0 0 1 1 1v3a1 1 0 0 1 -2 0v-3a1 1 0 0 1 1-1z" fill="#282D37" style="fill: currentColor;fill: var(--db-icon-color, currentColor)" fill-rule="evenodd"/></svg>
