<svg id="icon" height="24" viewBox="0 0 24 24" width="24" xmlns="http://www.w3.org/2000/svg"><path d="m8.94076789 6c1.10500001 0 2.00000001-.895 2.00000001-2s-.895-2-2.00000001-2c-1.105 0-2 .895-2 2s.895 2 2 2zm-.2465 1.043875.1205.006125c.036.003.07.003.105.011.106.024.211.059.307.118.003.002.005.005.008.007.017.01.029.026.045.037.085.06.156.13.217.21.01.014.025.02.035.034l2.54500001 3.696c.313.455.198 1.079-.257 1.391-.173.12-.371.177-.566.177-.318 0-.631-.152-.825-.433l-1.08000001-1.569-.388 2.84 1.77500001 2.422c.061.083.109.175.142.274l1.474 4.418c.176.524-.107 1.09-.631 1.265-.105.035-.212.052-.317.052-.419 0-.809-.265-.949-.684l-1.42600001-4.27-1.922-2.621c-.153-.209-.219-.47-.184-.727l.482-3.524-.69.486-.754 2.617c-.154.531-.709.833-1.238.684-.531-.153-.837-.707-.684-1.238l.852-2.955c.063-.219.199-.409.385-.54l2.855-2.011.009-.006c.006-.005.014-.005.02-.009.094-.061.194-.102.299-.129.038-.01.076-.016.115-.021.081-.01.16-.011.241-.002zm-2.8695 9.775125c.231-.503.824-.721 1.327-.49.502.23.721.825.49 1.326l-1.732 3.763c-.169.366-.531.582-.909.582-.14 0-.282-.03-.418-.092-.502-.23-.721-.825-.49-1.326zm8.25000001-3.717c-.412-.368-1.043-.333-1.412.078-.368.411-.333 1.044.078 1.412l5.555 4.974c.191.171.429.255.667.255.274 0 .548-.112.746-.333.368-.411.333-1.044-.078-1.412l-5.555-4.974zm6.926 6.897c-.517 0-1 .483-1 1s.483 1 1 1 1-.483 1-1-.483-1-1-1z" fill="var(--db-icon-color, currentColor)" fill-rule="evenodd"/></svg>
