<svg id="icon" height="32" viewBox="0 0 32 32" width="32" xmlns="http://www.w3.org/2000/svg"><path d="m26.2607845 21.8181279 1.7524038.0611953c.5519483.0192745.9837658.482342.9644913 1.0342904-.0178977.5125234-.4478875.982857-1.0342903.9644913-.5843531-.0183015-1.1684877-.0387-1.7524038-.0611953-.118116.0022573-.1993611.009404-.2437351.0214401-6.5559824 1.397445-13.1071988 2.7964187-19.65364933 4.1969211-.23298338.0516754-.4767185.0731155-.73120538.0643202l-1.77888376-.06212c-.55194831-.0192745-.98376579-.482342-.96449133-1.0342903.01789772-.5125234.43110239-.9837366 1.03429033-.9644913.59318.0186078 1.18614125.0393144 1.77888376.06212.10711257.0037404.18835762-.0034063.24373513-.0214401 6.56764378-1.3923787 13.11886028-2.7913524 19.65364938-4.1969211.2171987-.0477989.4609338-.069239.7312053-.0643203zm-18.91941359-3.6861589c-.35377975-1.320324-.24430148-2.7647776.37981143-4.0492782.14638199-.2874822.37637248-.4483909.63118371-.5166674.57907253-.155162 1.09079845.1793933 1.23356303.7121979.05585315.2084468.04215964.4355286-.04716971.6581338-.39908977.8268669-.51067149 1.8002123-.27480969 2.6804605.54618583 2.0383933 2.61819292 3.2856165 4.65668272 2.7394048 1.2275952-.3289332 2.2099772-1.2028711 2.667364-2.3681576.1339586-.3338466.3978902-.5535432.6758837-.6280313.5095259-.136527 1.1014866.1269397 1.2566487.7060122.0558531.2084468.0422821.4355993-.0532848.6349257-.6976712 1.7510357-2.1527592 3.0843725-4.0289735 3.5871026-3.0112738.8068684-6.2465755-.9826503-7.09689959-4.156103zm1.53230096-7.808973c-.14276458-.53280465.17939327-1.09079841.71219795-1.233563l.69488708-.18619442c1.1118772-.2979266 2.2461313.04364561 2.8434985.97600498l.1770332.29016764 3.3124494-.88756812c.5327081-.1427387 1.0870715.16548393 1.2298361.69828862.1427645.5328047-.1794899 1.0908243-.712198 1.233563l-2.7333769.7324062 1.0968072 1.7766637 3.3818995-.9061772c.4168936-.1117063.8070433.0469206 1.0746462.3972987l3.4485708 4.4384818c.0710886.0802349.1253291.1899343.1563615.3057488.1241296.463258-.1161549 1.0490071-.7184096 1.2103808-.4168936.1117063-.8033163-.0330113-1.0709192-.3833894l-3.0431707-3.852024-3.4281673.9185747c-.4169902.1117322-.8852863-.0607408-1.1128071-.4466019l-2.6497311-4.3298347c-.173332-.2763549-.3201789-.361137-.7371691-.2494049l-.6948871.1861945c-.53280464.1427645-1.08458674-.1562111-1.22735133-.6890158zm-1.2909894-4.81803799c-.28550328-1.06551278.35888313-2.18162278 1.4243959-2.46712607 1.06551283-.28550328 2.15844053.36509478 2.44394383 1.43060756s-.3419125 2.1522289-1.4074253 2.43773219c-1.06551279.28550329-2.17541114-.3357009-2.46091443-1.40121368z" fill="var(--db-icon-color, currentColor)" fill-rule="evenodd"/></svg>
