<svg id="icon" height="32" viewBox="0 0 32 32" width="32" xmlns="http://www.w3.org/2000/svg"><path d="m20.2665835 23.304c.4143058 0 .8084344.0465629 1.1823857.1396886.7214655.2033415.4646143 1.3445955-.2370616 1.1544667-.304152-.0707702-.60426-.1061553-.9003241-.1061553-.396 0-.7125.075-.9495.225s-.4095.39-.5175.72-.162.768-.162 1.314c0 .78.126 1.341.378 1.683s.666.513 1.242.513c.27 0 .526439-.0249829.7695-.072.0536317-.0103744.1035054-.0208972.1513992-.0316086.2764415-.0708623.5100069-.0030248.6089066.1625785.1415133.236958.1080906.7036051-.2149129.8754227-.3939937.2095798-.9310103.2536074-1.4048929.2536074-1.056 0-1.854-.288-2.394-.864s-.81-1.413-.81-2.511c0-1.11.2805-1.9635.8415-2.5605s1.3665-.8955 2.4165-.8955zm-6.939.144c.3577961 0 .6785714.2205447.8066782.5546206l1.9315711 5.0371364c.1533696.3999561-.0442694.8487837-.442851 1.0056908-.4038614.1528183-.8443792-.0459245-.9935014-.4402085l-.3748969-.9912393h-2.25l-.3942355 1.0759623c-.0015815.0043163-.0032125.0086143-.0048927.0128931-.1212723.3088449-.4699512.4609025-.7787961.3396301-.3162946-.1241976-.4724842-.4808875-.3492377-.797554l2.0407197-5.2433788c.1298934-.3337454.4513107-.5535527.8094423-.5535527zm-.198 2.025-.756 2.106h1.512zm2.870585-23.348c.4460761 0 .8831361.36641347.875.875l-.0006382 1.744 1.0783486-1.07700415c.3417088-.34170875.8957281-.34170875 1.2374369 0 .313233.31323303.3560555.85189453 0 1.23743687l-2.3157855 2.31456728v3.265l3.042-1.756.790446-2.94792277c.1250741-.46678284.604869-.74379252 1.0716518-.61871844.4278843.11465125.7480441.54179673.6187184 1.07165177l-.3378162 1.25798944 1.2973673-.74877223c.4185061-.24162458.9536477-.09823382 1.1952722.32027223.2230381.38631327.1070555.90322876-.262375 1.15977478l-1.6272645.94072522 1.6875264.45220373c.4667828.12507408.7437925.60486897.6187184 1.07165177-.1146512.4278843-.5528359.7305639-.9989419.6382635l-3.4503029-.925119-2.771 1.6 3.199 1.846 2.949593-.7891371c.4667829-.125074.9465777.1519356 1.0716518.6187185.1146512.4278842-.1289467.9448562-.6187184 1.0716517l-1.2585264.3367669 1.1403673.6582278c.4185061.2416245.5618968.7767662.3202722 1.1952722-.223038.3863133-.7344667.578949-1.1952722.3202722l-1.4123673-.8157722.4528162 1.6874263c.1250741.4667829-.1519356.9465777-.6187184 1.0716518-.4278843.1146512-.931857-.1155526-1.0716518-.6187185l-.905446-3.3773596-2.927-1.69v3.627l2.3157855 2.3160041c.3417087.3417088.3417087.8957282 0 1.2374369-.313233.313233-.8503959.3714383-1.2374369 0l-1.0783486-1.078441.0006382 1.383c0 .4832492-.3917509.875-.875.875-.4460762 0-.8681825-.3583679-.8681825-.875l-.0074557-1.383-1.0770717 1.078441c-.3417087.3417088-.8957281.3417088-1.2374368 0-.3132331-.313233-.3676696-.8672702 0-1.2374369l2.3145085-2.3160041v-3.627l-2.927 1.69-.9041692 3.3773596c-.1250741.4667829-.6048689.7437926-1.0716518.6187185-.42788423-.1146513-.75395125-.5796792-.61871839-1.0716518l.45153939-1.6874263-1.41108996.8157722c-.41850604.2416246-.95364765.0982338-1.19527222-.3202722-.22303808-.3863133-.13273856-.9186859.32027222-1.1952722l1.13808993-.6582278-1.2562495-.3367669c-.46678284-.125074-.74379252-.6048689-.61871843-1.0716517.11465124-.4278843.5747913-.7511429 1.07165176-.6187185l2.9483162.7891371 3.199-1.847-2.771-1.599-3.3763162.9055739c-.46678284.1250741-.94657768-.1519356-1.07165176-.6187184-.11465125-.4278843.09612308-.9128992.61871843-1.07165177l1.6862495-.45220373-1.56808993-.90522777c-.41850604-.24162458-.5618968-.77676618-.32027222-1.19527223.22303807-.38631327.72120431-.57351685 1.19527222-.32027223l1.29608993.74877223-.33653936-1.25798944c-.12507409-.46678284.15193559-.94657768.61871839-1.07165177.4278843-.11465124.9039314.09128098 1.0716518.61871844l.7891692 2.94792277 3.042 1.756v-3.265l-2.3145085-2.31456728c-.3417088-.34170876-.3417088-.89572811 0-1.23743687.313233-.31323302.8084626-.36458191 1.2148499-.02707275l1.0996586 1.1040769.0006382-1.744c0-.48324916.3917508-.875.875-.875z" fill="var(--db-icon-color, currentColor)" fill-rule="evenodd"/></svg>
