<svg id="icon" height="32" viewBox="0 0 32 32" width="32" xmlns="http://www.w3.org/2000/svg"><path d="m16 25c.5522847 0 1 .4477153 1 1v3c0 .5522847-.4477153 1-1 1s-1-.4477153-1-1v-3c0-.5522847.4477153-1 1-1zm-6.36396103-2.636039c.39052433.3905243.39052433 1.0236893 0 1.4142136l-2.12132034 2.1213203c-.3905243.3905243-1.02368927.3905243-1.41421357 0-.39052429-.3905243-.39052429-1.0236892 0-1.4142135l2.12132035-2.1213204c.39052429-.3905243 1.02368927-.3905243 1.41421356 0zm14.14213563 0 2.1213203 2.1213204c.3905243.3905243.3905243 1.0236892 0 1.4142135s-1.0236892.3905243-1.4142135 0l-2.1213204-2.1213203c-.3905243-.3905243-.3905243-1.0236893 0-1.4142136s1.0236893-.3905243 1.4142136 0zm-7.7781746-13.363961c3.8659932 0 7 3.1340068 7 7s-3.1340068 7-7 7-7-3.1340068-7-7 3.1340068-7 7-7zm0 2c-2.7614237 0-5 2.2385763-5 5s2.2385763 5 5 5 5-2.2385763 5-5-2.2385763-5-5-5zm13 4c.5522847 0 1 .4477153 1 1s-.4477153 1-1 1h-3c-.5522847 0-1-.4477153-1-1s.4477153-1 1-1zm-23 0c.55228475 0 1 .4477153 1 1s-.44771525 1-1 1h-3c-.55228475 0-1-.4477153-1-1s.44771525-1 1-1zm19.8994949-8.89949494c.3905243.3905243.3905243 1.02368927 0 1.41421357l-2.1213203 2.12132034c-.3905243.39052433-1.0236893.39052433-1.4142136 0-.3905243-.39052429-.3905243-1.02368927 0-1.41421356l2.1213204-2.12132035c.3905243-.39052429 1.0236892-.39052429 1.4142135 0zm-18.38477627 0 2.12132034 2.12132035c.39052433.39052429.39052433 1.02368927 0 1.41421356-.39052429.39052433-1.02368927.39052433-1.41421356 0l-2.12132035-2.12132034c-.39052429-.3905243-.39052429-1.02368927 0-1.41421357.3905243-.39052429 1.02368927-.39052429 1.41421357 0zm8.48528137-4.10050506c.5522847 0 1 .44771525 1 1v3c0 .55228475-.4477153 1-1 1s-1-.44771525-1-1v-3c0-.55228475.4477153-1 1-1z" fill="var(--db-icon-color, currentColor)" fill-rule="evenodd"/></svg>
