<svg id="icon" height="20" viewBox="0 0 20 20" width="20" xmlns="http://www.w3.org/2000/svg"><path d="m8 2c.552 0 1 .448 1 1 0 .513-.417 1-1 1l-2.992.01c-.277.017-.544.056-.769.364-.176.239-.222.566-.234.962l-.004 9.19c.002.479.079 1.165.534 1.351.24.098.491.117.76.121l2.705.002c.552 0 1 .448 1 1 0 .513-.413 1-1 1h-2.558c-.939 0-1.449-.109-1.975-.419-.483-.285-.862-.702-1.112-1.219-.242-.499-.339-.976-.353-1.816l-.002-8.854c0-.992.091-1.51.355-2.054.25-.517.629-.934 1.112-1.219.482-.284.951-.399 1.749-.417zm6.8731 4.8682c2.275.074 3.131 1.917 3.131 3.132 0 1.729-1.402 3.131-3.131 3.131-.805 0-1.539-.303-2.094-.803-.37-.332-.646-.733-.829-1.203-.531.015-.916.027-1.155.036-.155-.009-.171-.02-.292-.117-.173-.173-.356-.359-.548-.558-.269.272-.54.543-.812.812-.181.18-.432.122-.553 0-.28-.276-.558-.554-.834-.834-.1465.1465-.284.284-.412375.41225l-.357625.35675c-.187.188-.417.136-.553 0-.333-.329-.664-.66-.993-.992-.082-.084-.224-.327 0-.554.17333333-.17533333.289-.29211111.38562963-.38918519l.17932236-.1793882c.11788752-.11742661.24771468-.24587105.48104801-.47742661.108-.107.197-.115.277-.115 1.779.002 3.559.006 5.339.013.103-.218.265-.445.486-.68.571-.61 1.383-.991 2.285-.991zm-.235 2.264c-.461.461-.461 1.209 0 1.67.461.462 1.209.462 1.67 0 .462-.461.462-1.209 0-1.67-.461-.462-1.209-.462-1.67 0z" fill="var(--db-icon-color, currentColor)" fill-rule="evenodd"/></svg>
