<svg id="icon" height="20" viewBox="0 0 20 20" width="20" xmlns="http://www.w3.org/2000/svg"><path d="m2 17v-14c0-.566.434-1 1-1h14c.566 0 1 .434 1 1v3.995a.987.987 0 0 1 -1 1.005 1 1 0 0 1 -1-1.005v-2.995h-12v12h4c.546 0 1.005.454 1.005 1a1 1 0 0 1 -1.005 1h-5c-.566 0-1-.434-1-1zm3.005-6.98c0-2.771 2.224-5.015 4.975-5.015a5.01 5.01 0 0 1 3.766 1.697c.176.196.254.43.254.644 0 .547-.468 1.015-.995 1.015a.971.971 0 0 1 -.761-.351 2.98 2.98 0 0 0 -2.224-1.015 3.027 3.027 0 0 0 -3.025 3.025c0 .838.37 1.658 1.015 2.224.214.195.351.468.351.76a.987.987 0 0 1 -.995.996 1 1 0 0 1 -.664-.254 4.957 4.957 0 0 1 -1.697-3.726zm2.995-.015c0-.55.431-1 1-1 .549 0 1 .45 1 1 0 .549-.451 1-1 1-.569 0-1-.451-1-1zm4.634-.961a.99.99 0 0 1 .703.293l.663.663.39-.37a.97.97 0 0 1 .703-.274.97.97 0 0 1 .702.273l1.17 1.152c.684.702 1.015 1.619 1.015 2.556a3.67 3.67 0 0 1 -.878 2.38l.586.546c.195.195.312.469.312.742 0 .566-.449.995-1.015.995-.234 0-.487-.098-.683-.273l-.604-.585c-.703.565-1.561.838-2.479.838-.897 0-1.775-.37-2.419-1.014l-1.17-1.17a.927.927 0 0 1 -.293-.703c0-.274.097-.527.292-.703l.371-.37-.702-.703a.977.977 0 0 1 -.332-.741 1 1 0 0 1 .995-.995c.273 0 .546.097.741.312l.703.702 1.19-1.17-.683-.684a.99.99 0 0 1 0-1.404c.195-.195.449-.293.722-.293zm2.459 2.693-3.356 3.356.468.448c.312.313.722.45 1.132.45.468 0 .936-.176 1.268-.547l.839-.84c.37-.35.546-.8.546-1.267 0-.41-.136-.82-.429-1.132z" fill="var(--db-icon-color, currentColor)" fill-rule="evenodd"/></svg>
