<svg id="icon" height="24" viewBox="0 0 24 24" width="24" xmlns="http://www.w3.org/2000/svg"><path d="m11.502 2c.55 0 1.061.272 1.37.73.426.64 1.02 1.528 1.623 2.428l.279.415c.972 1.451 1.905 2.84 2.123 3.165l.042.063c1.382 1.999 2.083 3.88 2.083 5.59 0 4.338-3.226 7.609-7.503 7.609-4.298 0-7.539-3.27-7.539-7.607 0-1.614.626-3.382 1.86-5.26l.225-.332.005-.009.042-.062.081-.12.116-.174c.598-.89 2.163-3.221 3.264-4.869l.237-.354.318-.477a1.65 1.65 0 0 1 1.371-.736zm0 2.275a3286.407 3286.407 0 0 1 -3.551 5.298l-.113.167-.124.185c-1.155 1.673-1.738 3.173-1.738 4.468 0 3.252 2.332 5.61 5.543 5.61 3.192 0 5.507-2.36 5.507-5.613 0-1.295-.582-2.795-1.73-4.457l-2.25-3.353-.273-.408c-.455-.678-.901-1.344-1.27-1.897z" fill="#282D37" style="fill: currentColor;fill: var(--db-icon-color, currentColor)" fill-rule="evenodd"/></svg>
