<svg id="icon" height="32" viewBox="0 0 32 32" width="32" xmlns="http://www.w3.org/2000/svg"><path d="m25.422 13.274a1 1 0 0 1 .226.978l-1.85 6.153a2.374 2.374 0 0 1 -3.1 1.542l-3.551-1.794a1.63 1.63 0 0 0 -.73-.173l-10.29.025c-.614 0-1.112.497-1.113 1.111v7.908c-.014.476-.461 1-1 1s-1.014-.524-1-1l.006-.858-.006-7.05a3.114 3.114 0 0 1 3.11-3.111l10.294.023c.57-.008 1.126.078 1.633.342l3.383 1.714a.373.373 0 0 0 .45-.255l1.849-6.153a1 1 0 0 1 1.689-.402zm-8.422 8.726a1 1 0 0 1 1 1v6c0 .5-.5 1-1 1s-1-.5-1-1v-6a1 1 0 0 1 1-1zm-6.5-15a4.5 4.5 0 1 1 0 9 4.5 4.5 0 0 1 0-9zm0 2a2.5 2.5 0 0 0 -2.507 2.493 2.512 2.512 0 0 0 2.507 2.507 2.5 2.5 0 0 0 2.493-2.507 2.49 2.49 0 0 0 -2.493-2.493zm15.49-7.018a1 1 0 0 1 1 1v1.71l2.867 4.757a1 1 0 0 1 -.843 1.538h-6.046a1 1 0 0 1 -.857-1.515l2.878-4.786.001-1.704a1 1 0 0 1 1-1zm-.014 4.946-1.24 2.06h2.453z" fill="var(--db-icon-color, currentColor)" fill-rule="evenodd"/></svg>
