<svg id="icon" height="64" viewBox="0 0 64 64" width="64" xmlns="http://www.w3.org/2000/svg"><g fill="none" fill-rule="evenodd" transform="translate(4 8)"><path d="m24.277 35.611h-19.277c-2.757 0-5-2.243-5-5v-25.611c0-2.757 2.243-5 5-5h39.594c2.757 0 5 2.243 5 5v9.531a1 1 0 1 1 -2 0v-9.531c0-1.655-1.346-3-3-3h-39.594c-1.654 0-3 1.345-3 3v25.611c0 1.654 1.346 3 3 3h19.277a1 1 0 1 1 0 2" fill="var(--db-icon-color, currentColor)" fill-rule="nonzero"/><path d="m44.264 18.555a5.135 5.135 0 0 0 -5.13 5.13 5.135 5.135 0 0 0 5.13 5.13 5.135 5.135 0 0 0 5.13-5.13 5.135 5.135 0 0 0 -5.13-5.13m0 12.26a7.137 7.137 0 0 1 -7.13-7.13 7.137 7.137 0 0 1 7.13-7.13 7.137 7.137 0 0 1 7.13 7.13 7.137 7.137 0 0 1 -7.13 7.13m-11.653 2.137a3.625 3.625 0 0 0 -3.62 3.622 3.625 3.625 0 0 0 3.62 3.621 3.625 3.625 0 0 0 3.621-3.62 3.625 3.625 0 0 0 -3.62-3.623m0 9.243a5.628 5.628 0 0 1 -5.622-5.62c0-3.1 2.522-5.623 5.621-5.623a5.628 5.628 0 0 1 5.621 5.622 5.628 5.628 0 0 1 -5.62 5.621m22.38 6.375a1 1 0 0 1 -1-1v-10.093a4.336 4.336 0 0 0 -1.279-3.086 4.333 4.333 0 0 0 -2.825-1.27 11.56 11.56 0 0 1 -5.613 1.525 11.51 11.51 0 0 1 -4.713-1.05.999.999 0 0 1 -.49-1.327.997.997 0 0 1 1.324-.492 9.487 9.487 0 0 0 3.88.87 9.532 9.532 0 0 0 4.832-1.389.999.999 0 0 1 .52-.145c1.7 0 3.297.662 4.5 1.864a6.322 6.322 0 0 1 1.863 4.5v10.093a1 1 0 0 1 -1 1m-14.314 0a1 1 0 0 1 -.995-.902 3.045 3.045 0 0 0 -2.775-2.73 8.945 8.945 0 0 1 -4.286 1.144 8.957 8.957 0 0 1 -4.306-1.145 3.033 3.033 0 0 0 -2.775 2.721 1 1 0 0 1 -1.99-.202 5.027 5.027 0 0 1 5.018-4.529 1 1 0 0 1 .52.146 6.945 6.945 0 0 0 3.533 1.01 6.93 6.93 0 0 0 3.514-1.01 1 1 0 0 1 .52-.146c1.347 0 2.613.524 3.566 1.478a5.056 5.056 0 0 1 1.452 3.066 1 1 0 0 1 -.996 1.1" fill="var(--db-icon-pulse-color, #EC0016)"/></g></svg>
