<svg id="icon" height="24" viewBox="0 0 24 24" width="24" xmlns="http://www.w3.org/2000/svg"><path d="m20.227 8h.411c.8 0 1.504.752 1.346 1.594-.571 3.438-1.145 6.875-1.721 10.312-.21 1.164-1.074 2.014-2.296 2.089l-.176.005h-11.549l2.001-2.003 9.548.003a.505.505 0 0 0 .449-.326l.043-.08 1.944-11.595zm-8.227-6a5.971 5.971 0 0 1 5.338 3.246l2.488-2.49a1 1 0 0 1 1.415 1.414 36216.799 36216.799 0 0 1 -17.525 17.537 1 1 0 0 1 -1.415-1.414c.436-.439.872-.876 1.311-1.312l-1.594-9.356c-.118-.767.362-1.625 1.22-1.625a635.72 635.72 0 0 1 2.762 0 6 6 0 0 1 6.001-6zm.585 8h-8.47l1.229 7.248 7.242-7.248zm-.585-6a3.986 3.986 0 0 0 -3.996 3.8l-.004.2h6.585l1.223-1.223a4.004 4.004 0 0 0 -3.807-2.777z" fill="#282D37" style="fill: currentColor;fill: var(--db-icon-color, currentColor)" fill-rule="evenodd"/></svg>
