<svg id="icon" height="20" viewBox="0 0 20 20" width="20" xmlns="http://www.w3.org/2000/svg"><path d="m6 18.004a1 1 0 0 1 -1-1v-3.054h-.109a2.894 2.894 0 0 1 -2.891-2.891 2.876 2.876 0 0 1 1.539-2.556 1.001 1.001 0 0 1 .922 1.776l-.038.021a.89.89 0 0 0 .468 1.65h1.109a1 1 0 0 1 1 1v4.054a1 1 0 0 1 -1 1zm6.001-14.004a2 2 0 1 0 3.999.001 2 2 0 0 0 -4-.001zm0 3c-1.169 0-2 .946-2 2a750 750 0 0 0 0 3c0 1.191.946 2 2 2v3c0 .627.487 1 1 1a1 1 0 0 0 1-1v-4c0-.663-.487-1-1-1h-1v-3h2c.581 0 1-.487 1-1a1 1 0 0 0 -1-1zm2.949 3.002a.991.991 0 0 0 0 1.98h.505c.303 0 .566.323.566.748v4.281a.991.991 0 0 0 1.98 0v-4.301c0-1.475-1.131-2.707-2.545-2.707h-.505zm-8.2-8.002a2 2 0 1 0 -.001 3.999 2 2 0 0 0 .001-3.999zm1.25 8v-1.991a1 1 0 1 0 -2 0v1.991a1 1 0 1 0 2 0z" fill="var(--db-icon-color, currentColor)" fill-rule="evenodd"/></svg>
