<svg id="icon" height="64" viewBox="0 0 64 64" width="64" xmlns="http://www.w3.org/2000/svg"><g fill="none" transform="translate(8 4)"><path d="m26.636.002c.935.04 1.78.503 2.319 1.267l12.48 17.656c3.999 5.79 6.023 11.16 6.023 15.969 0 12.109-9.035 21.24-21.016 21.24-4.142-.001-8.088-1.1-11.408-3.18a1 1 0 0 1 1.06-1.694c3.002 1.88 6.58 2.873 10.35 2.873 10.84 0 19.016-8.271 19.016-19.24 0-4.396-1.905-9.383-5.661-14.823l-12.476-17.647a.995.995 0 0 0 -.773-.423 1.018 1.018 0 0 0 -.807.354l-3.252 3.85a1 1 0 0 1 -1.529-1.291l3.252-3.85a3.017 3.017 0 0 1 2.422-1.061zm8.339 35.874c.818 0 1.44.2 1.863.598.424.399.635.983.635 1.753 0 .51-.103.972-.31 1.386a4.828 4.828 0 0 1 -.855 1.186l-.146.148c-.26.26-.597.58-1.015.962l-.223.202h2.332a.617.617 0 0 1 .613.682.764.764 0 0 1 -.76.682h-3.843a.655.655 0 0 1 -.572-.98 1.48 1.48 0 0 1 .302-.363l.362-.326a21.376 21.376 0 0 0 1.332-1.306c.295-.315.543-.67.735-1.055.168-.351.252-.724.252-1.123 0-.365-.084-.633-.252-.803-.168-.172-.433-.257-.798-.257-.286 0-.564.043-.834.13l-.05.019a.581.581 0 0 1 -.74-.354l-.013-.04a.656.656 0 0 1 .349-.81 3.32 3.32 0 0 1 .48-.184 4.355 4.355 0 0 1 1.155-.147zm-5.391-10.972c.874 0 1.582.708 1.582 1.582v11.923a1.582 1.582 0 1 1 -3.164 0v-4.93h-5.045v4.93a1.582 1.582 0 1 1 -3.164 0v-11.923a1.582 1.582 0 1 1 3.164 0v4.604h5.045v-4.604c0-.874.708-1.582 1.582-1.582z" fill="var(--db-icon-color, currentColor)"/><path d="m17.792 3.339.157.395c.89 2.302 3.543 10.127 1.515 17.097-2.544 8.743-9.353 10.567-9.642 10.64a.997.997 0 0 1 -1.216-.722 1 1 0 0 1 .608-1.179l.385-.12c1.21-.41 5.977-2.421 7.944-9.178 1.785-6.135-.445-13.117-1.356-15.545l-.568.22c-3.114 1.237-10.156 4.607-12.499 10.481-1.818 4.562-1.394 8.685 1.26 12.256a26.005 26.005 0 0 0 1.554 1.862c1.172-6.362 4.2-12.28 7.206-15.907a1 1 0 0 1 1.54 1.277c-3.493 4.213-7.252 12.26-7.252 19.975 0 5.226 1.854 10.04 5.22 13.56a1 1 0 1 1 -1.446 1.383c-3.724-3.894-5.774-9.2-5.774-14.943 0-.939.05-1.878.144-2.814l-.267-.275c-.584-.606-1.69-1.795-2.53-2.924-3.096-4.166-3.605-8.94-1.512-14.19 3.061-7.674 12.957-11.409 14.91-12.079a1.293 1.293 0 0 1 1.619.73z" fill="var(--db-icon-pulse-color, #78be14)"/></g></svg>
