<svg id="icon" height="64" viewBox="0 0 64 64" width="64" xmlns="http://www.w3.org/2000/svg"><g fill="none" fill-rule="evenodd" transform="translate(8 4)"><path d="m25 0a5 5 0 0 1 4.995 4.783v6.218c.001.57-.486.999-.998.999-.511 0-.997-.419-.997-.998v-6.002a3 3 0 0 0 -2.824-2.995l-2.176-.005c0 .813-.312 1.575-.869 2.131a2.966 2.966 0 0 1 -1.883.861l-10.282.008c-1.58 0-2.87-1.443-2.961-3h-2.005a3 3 0 0 0 -2.995 2.824l-.005 46.176a3 3 0 0 0 2.824 2.995l20.176.005a3 3 0 0 0 2.995-2.824l.005-9.582-20.464-10.708a1 1 0 0 1 .09-1.813l7.055-2.851a1 1 0 1 1 .75 1.854l-5.052 2.04 18.621 9.744 18.618-9.744-4.979-2.01a1.022 1.022 0 0 1 -.527-1.367c.263-.6.81-.652 1.277-.488l6.984 2.822c.796.316.847 1.39.089 1.813l-20.462 10.708v9.406a5 5 0 0 1 -4.783 4.995l-20.217.005a5 5 0 0 1 -4.995-4.783l-.005-46.217a5 5 0 0 1 4.783-4.995zm-3.872 50a1 1 0 0 1 1 1c0 .513-.429 1-1 1h-12a1 1 0 0 1 -1-1c0-.513.42-1 1-1zm7.872-20c.513 0 1 .415 1 1v1.384l.564-.282a1 1 0 0 1 1.342.445.992.992 0 0 1 -.445 1.342l-2.011 1.011a1.026 1.026 0 0 1 -.898 0l-2.01-1.01a1 1 0 0 1 -.445-1.342c.23-.458.791-.693 1.342-.445l.561.282v-1.385a1 1 0 0 1 1-1zm8-3.5c.538 0 1 .428 1 1l.002 2.488c0 .337-.2.712-.552.895l-2.557 1.283a1 1 0 0 1 -1.342-.445 1.015 1.015 0 0 1 .445-1.342l.911-.458-.282-.163a.875.875 0 0 1 -.32-1.195.885.885 0 0 1 1.195-.32l.501.289-.001-1.032c0-.55.46-1 1-1.001zm-16 0c.513 0 1 .43 1 1v1.03l.5-.288a.875.875 0 0 1 1.196.32c.223.387.111.954-.32 1.196l-.284.162.887.445c.507.254.683.869.445 1.343-.238.473-.788.694-1.337.445l-2.536-1.27a1.004 1.004 0 0 1 -.551-.883v-2.5a1 1 0 0 1 1-1zm3.426-8.241c.227.46.062 1.062-.447 1.336l-.931.458.327.19a.875.875 0 0 1 .32 1.195.893.893 0 0 1 -1.195.32l-.5-.29v1.032a.999.999 0 0 1 -2 .007v-2.558c0-.339.206-.732.551-.897l2.536-1.248a1 1 0 0 1 1.339.455zm10.481-.455 2.537 1.248c.304.15.55.462.556.897v2.552a1 1 0 0 1 -1.999.005v-1.04l-.501.292a.875.875 0 0 1 -.875-1.516l.327-.19-.927-.457c-.558-.274-.664-.915-.455-1.34a1 1 0 0 1 1.337-.45zm-5.464-2.699 2.036 1.004a1 1 0 0 1 .454 1.34c-.227.46-.78.704-1.339.454l-.594-.294v1.391a1 1 0 0 1 -2 0v-1.39l-.543.268c-.518.266-1.112.006-1.339-.454s-.103-1.032.455-1.34l1.986-.979c.236-.133.652-.133.884 0zm-8.443-13.105h-12c0 .555.388 1 1.002 1h10.032c.698 0 .966-.614.966-1z" fill="#282D37" style="fill: currentColor;fill: var(--db-icon-color, currentColor)" fill-rule="nonzero"/><path d="m31.941 21.7c1.258 0 1.888.553 1.888 1.66 0 .452-.112.8-.335 1.041-.165.175-.411.312-.739.41.218.115.399.319.543.61l.86 1.776c.113.23-.076.497-.506.497-.214 0-.588-.064-.726-.34l-.796-1.667c-.107-.227-.212-.38-.314-.46-.09-.069-.232-.104-.429-.104h-.404v1.944a.627.627 0 1 1 -1.254 0v-4.867a.5.5 0 0 1 .5-.5zm-5.592 0c.262 0 .5.15.598.411l1.908 5.059c.107.283.056.524-.449.524-.449 0-.616-.113-.73-.393l-.355-.88h-2.225l-.3.805c-.125.339-.299.468-.748.468-.448 0-.557-.223-.448-.506l1.945-5.077c.084-.22.28-.412.523-.412zm-.1 1.6-.795 2.226h1.59l-.795-2.225zm5.559-.659h-.827v1.63h.819c.301 0 .514-.069.637-.205.102-.111.153-.307.153-.587 0-.23-.02-.397-.063-.502-.086-.224-.326-.336-.72-.336z" fill="#EC0016" style="fill:#EC0016;fill: var(--db-icon-pulse-color, #EC0016)"/></g></svg>
