<svg id="icon" height="20" viewBox="0 0 20 20" width="20" xmlns="http://www.w3.org/2000/svg"><path d="m14.205 3.788a2.766 2.766 0 0 1 .108 3.782l-5.51 5.517a1 1 0 0 1 -1.493-1.327l5.472-5.482a.766.766 0 0 0 .002-1.08.753.753 0 0 0 -.987-.072l-5.537 5.527a2.516 2.516 0 0 0 -.003 3.555c.936.94 2.434.98 3.419.119l4.792-4.784a1 1 0 0 1 1.491 1.327l-4.749 4.76a4.503 4.503 0 0 1 -6.368-.012 4.516 4.516 0 0 1 -.142-6.225l5.612-5.619a2.753 2.753 0 0 1 3.893.014z" fill="var(--db-icon-color, currentColor)" fill-rule="evenodd"/></svg>
