<svg id="icon" height="64" viewBox="0 0 64 64" width="64" xmlns="http://www.w3.org/2000/svg"><g fill="none" fill-rule="evenodd" transform="translate(11 3)"><path d="m20.998 0c3.425 0 6.252.394 8.729 1.193a1 1 0 0 1 -.614 1.904c-2.266-.731-4.888-1.097-8.115-1.097-5.923 0-9.766 1.183-13.441 3.82-3.492 2.506-5.557 7.042-5.557 13.18 0 2.815.094 5.645.264 8.82.05.938.213 3.698.235 4.13a41.06 41.06 0 0 0 .598 5.25.963.963 0 0 1 .266.296c1.474 2.521 4.863 5.426 10.157 8.65 1.27.774 4.22 1.354 7.48 1.354 3.262 0 6.21-.58 7.48-1.354 5.295-3.224 8.684-6.129 10.157-8.65.07-.12.161-.22.267-.299.303-1.67.507-3.43.597-5.246.022-.427.185-3.204.236-4.157.034-.641.064-1.26.092-1.876a1 1 0 1 1 1.998.09 235.798 235.798 0 0 1 -.1 2.034l-.02.342c-.02.376-.048.844-.075 1.32l-.027.476c-.05.865-.096 1.662-.106 1.87-.432 8.67-3.294 16.258-7.519 19.649l-.498 2.73a4 4 0 0 1 -3.64 3.269 120.13 120.13 0 0 1 -8.842.305c-3.138 0-6.085-.101-8.84-.305a4 4 0 0 1 -3.64-3.268l-.5-2.726c-4.22-3.392-7.086-10.995-7.519-19.654-.02-.421-.184-3.176-.235-4.124-.171-3.206-.266-6.07-.266-8.926 0-6.75 2.345-11.902 6.39-14.805 4.023-2.887 8.275-4.195 14.608-4.195zm10.703 53.054a7.4 7.4 0 0 1 -1.537.433c-1.247.208-3.604.513-9.166.513s-8.355-.377-9.174-.513a7.345 7.345 0 0 1 -1.522-.427l.186 1.01a2 2 0 0 0 1.82 1.633c2.704.2 5.601.3 8.692.3 3.09 0 5.989-.1 8.694-.3a2 2 0 0 0 1.82-1.633zm6.089-11.348-.024.024c-1.964 1.936-4.711 3.972-8.246 6.124-1.64 1-4.925 1.646-8.52 1.646s-6.88-.647-8.52-1.646c-3.546-2.159-6.3-4.202-8.264-6.144 1.755 5.438 4.652 9.259 7.936 9.804 1.108.31 4.825.512 8.846.503 5.705.046 7.654-.31 8.837-.503 3.3-.54 6.2-4.361 7.955-9.808zm-25.641-11.076 2.598.755a2 2 0 0 1 1.317 1.224l.05.15 1.487 5.243a2 2 0 0 1 -1.378 2.47c-.119.033-.721.059-1.808.076a3 3 0 0 1 -2.829-2.002l-1.881-5.33a2 2 0 0 1 2.444-2.586zm18.93.035a2 2 0 0 1 1.22 2.551l-1.88 5.33a3 3 0 0 1 -2.83 2.002c-1.087-.017-1.69-.042-1.807-.076a2 2 0 0 1 -1.38-2.469l1.485-5.243.049-.15a2 2 0 0 1 1.318-1.226l2.602-.754a2 2 0 0 1 1.223.035zm-19.488 1.886 1.881 5.33a1 1 0 0 0 .943.667h1.262l-1.488-5.243zm18.822 0-2.602.754-1.484 5.243h1.262a1 1 0 0 0 .943-.667zm-9.413-28.551c1.54 0 2.982.076 4.324.229a1 1 0 1 1 -.225 1.987 36.395 36.395 0 0 0 -4.099-.216c-4.031 0-7.292.545-9.779 1.617a8 8 0 0 0 -4.717 8.7 45.595 45.595 0 0 0 1.29 5.473 5.502 5.502 0 0 0 4.435 3.857l3.027.463a38 38 0 0 0 11.488 0l3.04-.464a6.186 6.186 0 0 0 1.922-.615 1 1 0 1 1 .926 1.773 8.18 8.18 0 0 1 -2.546.819l-3.04.464a40 40 0 0 1 -12.093 0l-3.026-.463a7.502 7.502 0 0 1 -6.049-5.26 49.47 49.47 0 0 1 -.785-2.945 47.255 47.255 0 0 1 -.56-2.763 10 10 0 0 1 5.897-10.876c2.764-1.192 6.286-1.78 10.57-1.78z" fill="var(--db-icon-color, currentColor)" fill-rule="nonzero"/><path d="m25.333 11.294c0 .603.63 1.15 1.096 1.15.328 0 .719-.082 1.01-.495 2.2-3.12 5.809-4.927 9.561-4.927 4.135 0 7.416 1.835 9.56 4.928.21.303.573.494.956.494.685 0 1.15-.52 1.15-1.177a1.19 1.19 0 0 0 -.223-.682c-2.588-3.727-6.897-5.918-11.443-5.918s-8.791 2.19-11.448 5.915a1.287 1.287 0 0 0 -.219.712zm2.903 3.204c0 .466.466 1.096 1.233 1.096.328 0 .684-.21.903-.52 1.507-2.137 3.944-3.479 6.546-3.479 2.658 0 5.1 1.343 6.597 3.48.229.327.578.519.934.519.52 0 1.178-.41 1.178-1.15 0-.274-.082-.507-.224-.71-1.93-2.768-5.088-4.466-8.485-4.466-3.341 0-6.5 1.698-8.431 4.467-.141.202-.25.517-.25.763zm3.068 2.986c0 .657.493 1.177 1.15 1.177.41 0 .794-.219.986-.52a4.122 4.122 0 0 1 3.478-1.917 4.15 4.15 0 0 1 3.508 1.915c.212.33.572.522.983.522.685 0 1.15-.602 1.15-1.177 0-.22-.082-.446-.22-.656a6.521 6.521 0 0 0 -5.421-2.932 6.495 6.495 0 0 0 -5.396 2.93c-.164.25-.218.438-.218.658zm3.363 3.502c0 1.298 1.098 2.347 2.333 2.347a2.338 2.338 0 0 0 2.333-2.347c0-1.27-1.07-2.32-2.388-2.32-1.235 0-2.278 1.05-2.278 2.32z" fill="var(--db-icon-pulse-color, #EC0016)"/></g></svg>
