<svg id="icon" height="24" viewBox="0 0 24 24" width="24" xmlns="http://www.w3.org/2000/svg"><path d="m15.012 4c.635 0 .988.492.988.988v1.012h1.506a2.48 2.48 0 0 1 2.494 2.494v9.012a2.48 2.48 0 0 1 -2.494 2.494h-11.012a2.48 2.48 0 0 1 -2.494-2.494v-9.012a2.495 2.495 0 0 1 2.494-2.494h1.506v-1.012c0-.494.372-.988.996-.988a.983.983 0 0 1 1.004.988v1.012h4v-1.012c0-.494.306-.988 1.012-.988zm2.988 8.024h-12v5.482c0 .282.212.494.494.494h11.012a.483.483 0 0 0 .494-.494zm-.494-4.024h-11.012a.483.483 0 0 0 -.494.494v1.506h12v-1.506a.483.483 0 0 0 -.494-.494zm-10.518 7.004a1 1 0 1 1 2 0 .992.992 0 0 1 -.996.996 1 1 0 0 1 -1.004-.996zm4 0c0-.557.47-1.004 1.02-1.004a1 1 0 1 1 0 2c-.553 0-1.02-.442-1.02-.996zm4.024 0a1 1 0 1 1 2 0 1 1 0 0 1 -1.004.996.992.992 0 0 1 -.996-.996z" fill="#282D37" style="fill: currentColor;fill: var(--db-icon-color, currentColor)" fill-rule="evenodd"/></svg>
