<svg id="icon" height="24" viewBox="0 0 24 24" width="24" xmlns="http://www.w3.org/2000/svg"><path d="m8.02 7.75c.843 0 1.562.594 1.687 1.438l.75 4.78c.156 1.063-.563 2-1.781 2v5.064a.974.974 0 0 1 -.97.97.974.974 0 0 1 -.968-.97v-6.062c0-.531.438-.969.969-.969h.781l-.687-4.313h-3.125l-.657 4.312h.813c.531 0 .969.438.969.969v6.063c0 .532-.47.97-1 .97-.5 0-.97-.438-.97-.97v-5.062c-1.155 0-1.968-.875-1.812-2l.782-4.781a1.686 1.686 0 0 1 1.687-1.439h3.531zm11.852 0c1.03 0 1.843.906 1.687 1.906l-.749 5.344a1.64 1.64 0 0 1 -1.062 1.313v4.718a.974.974 0 0 1 -.97.969.974.974 0 0 1 -.968-.969v-5.593c0-.532.344-.97 1.125-.97l.656-4.78h-4.593l.687 4.78c.75 0 1.156.407 1.156.97v5.593a.974.974 0 0 1 -.968.969.974.974 0 0 1 -.97-.969v-4.718c-.562-.22-1-.72-1.093-1.282l-.781-5.312a1.666 1.666 0 0 1 1.656-1.969h5.188zm-13.633-5.75a2.25 2.25 0 1 1 0 4.5 2.25 2.25 0 0 1 0-4.5zm11.05 0a2.25 2.25 0 1 1 0 4.5 2.25 2.25 0 0 1 0-4.5z" fill="#282D37" style="fill: currentColor;fill: var(--db-icon-color, currentColor)" fill-rule="evenodd"/></svg>
