<svg id="icon" height="32" viewBox="0 0 32 32" width="32" xmlns="http://www.w3.org/2000/svg"><path d="m3.036 19.624 1.594-8.53c.18-.907 1-1.593 1.906-1.593h4.312c.937 0 1.725.686 1.906 1.594l1.593 8.498a1.96 1.96 0 0 1 -1.937 2.375h-.781v7.061a.973.973 0 0 1 -.969.969c-.531 0-1-.438-1-.969v-8.061c0-.531.469-.969 1-.969h1.75l-1.562-8.53h-4.312l-1.562 8.531h1.75a.98.98 0 0 1 1 .969v8.061a.98.98 0 0 1 -1 .969.973.973 0 0 1 -.97-.969v-7.061h-.78c-1.25 0-2.171-1.165-1.938-2.344zm5.656-17.622c1.656 0 3 1.368 3 3.016a2.993 2.993 0 0 1 -3 2.984c-1.656 0-3-1.336-3-2.984s1.344-3.016 3-3.016zm0 2.031c-.563 0-1 .438-1 1 0 .563.437 1 1 1 .562 0 1-.438 1-1s-.438-1-1-1zm9.03 7.749a1.997 1.997 0 0 1 1.968-2.282h7.53c1.187 0 2.114 1.092 1.937 2.28l-1.187 8.5c-.12.813-.75 1.468-1.562 1.655v7.093a.98.98 0 0 1 -1 .969.973.973 0 0 1 -.969-.969v-8.061c0-.531.438-.969.969-.969h.594l1.218-8.53h-7.53l1.156 8.532h.625a.98.98 0 0 1 1 .969v8.061a.98.98 0 0 1 -1 .969.973.973 0 0 1 -.969-.969v-7.061h-.5a1.01 1.01 0 0 1 -.968-.844l-1.312-9.342zm5.546-9.78c1.617 0 2.985 1.368 2.985 3.016s-1.368 2.984-2.985 2.984a2.992 2.992 0 0 1 -3.015-2.984 3.018 3.018 0 0 1 3.015-3.016zm.015 2.031c-.562 0-1 .438-1 1 0 .563.438 1 1 1 .531 0 1-.438 1-1s-.469-1-1-1z" fill="#282D37" style="fill: currentColor;fill: var(--db-icon-color, currentColor)" fill-rule="evenodd"/></svg>
