<svg id="icon" height="24" viewBox="0 0 24 24" width="24" xmlns="http://www.w3.org/2000/svg"><path d="m12.562 17.767a6.2 6.2 0 0 0 .82.577c.5.296 1.1.553 1.618.553s1.1-.219 1.668-.553c.268-.158.44-.265.822-.578.383-.312.901-.273 1.208.088.131.154.392.41.736.666.48.355 1.097.63 1.566.63a.85.85 0 0 1 0 1.7c-1.007 0-2.015-.441-3.024-1.324-1.114.737-2.118 1.094-3.011 1.07-.894-.024-1.888-.4-2.98-1.13-1.137.754-2.16 1.131-3.069 1.131s-1.889-.355-2.939-1.066c-1.031.88-2.024 1.319-2.977 1.319a.85.85 0 0 1 0-1.7c.47 0 .976-.231 1.523-.633.353-.259.626-.519.767-.678.318-.356.854-.373 1.216-.054.361.318.565.442.768.567.561.344 1.143.545 1.642.545.5 0 1.138-.268 1.66-.562.156-.087.563-.324.886-.588a.862.862 0 0 1 1.1.02zm-1.704-11.617c1.22-.208 2.972.656 3.926 1.813.39.474.68.943.866 1.345l6.19-1.143a.85.85 0 0 1 .96 1.125l-3.02 6.117c-.218.484-.858.666-1.243.361a5.54 5.54 0 0 1 -.58-.512c-.98 1.063-1.965 1.594-2.957 1.594s-1.992-.523-3-1.568c-1.035 1.045-2.035 1.568-3 1.568-.964 0-1.964-.522-3.001-1.567-1.022 1.045-2.022 1.567-2.999 1.567-.462 0-.85-.413-.843-.743l-.007-3.607c0-.373.238-.724.59-.81.234-.056 1.181-.232 2.84-.528.495-.346.788-1.747.578-3.298a.86.86 0 0 1 .684-.95zm8.631 5.185a.85.85 0 0 0 -.893-.683l-10.318 2.041a.85.85 0 0 0 .327 1.655l10.319-2.041a.85.85 0 0 0 .565-.972zm-11.571-2.894c.047.849-.024 1.673-.204 2.327l6.176-1.138c-.83-1.34-2.01-1.906-2.867-1.777l-3.105.589z" fill="var(--db-icon-color, currentColor)" fill-rule="evenodd"/></svg>
