<svg id="icon" height="64" viewBox="0 0 64 64" width="64" xmlns="http://www.w3.org/2000/svg"><g fill="none" fill-rule="evenodd" transform="translate(7.83 8)"><path d="m43.17 0a1 1 0 0 1 .994.883l.006.117v5h3a1 1 0 0 1 1 1.005l-.047 9.133c-.028 1.021-.351 2.474-1.25 3.94-1.5 2.45-4.128 3.922-7.94 3.92a8.221 8.221 0 0 1 -6.032-2.077 8.242 8.242 0 0 1 -2.731-5.81v-9.111a1 1 0 0 1 1-1h3v-5a1 1 0 0 1 1.993-.117l.007.117v5h6v-5a1 1 0 0 1 1-1zm2.996 8h-13.996l-.001 8.067a6.221 6.221 0 0 0 1.85 4.162l.216.202c1.248 1.117 2.894 1.683 4.631 1.569 3.183 0 5.165-1.11 6.302-2.967a6.748 6.748 0 0 0 .883-2.355l.04-.246.023-.193.009-.133zm-39.862.5a1 1 0 0 1 1.371-.363l.25.15.38.243a38.11 38.11 0 0 1 6.44 5.332c6.636 6.88 9.24 14.868 5.338 23.548a1 1 0 1 1 -1.824-.82c3.512-7.812 1.173-14.988-4.954-21.34a36.13 36.13 0 0 0 -5.522-4.664l-.262-.177-.05.09c-5.518 9.928-6.643 17.49-4.366 22.76l.116.261c1.804 3.92 5.655 6.305 9.003 6.482a1 1 0 0 1 -.106 1.998c-4.06-.216-8.585-3.017-10.714-7.644-2.819-6.127-1.496-14.756 4.9-25.854z" fill="var(--db-icon-color, currentColor)" fill-rule="nonzero"/><path d="m8.17 26a1 1 0 0 1 1 1l.005.252.024.553c.036.66.102 1.398.203 2.193.29 2.27.813 4.538 1.622 6.644 2.263 5.897 6.25 9.358 12.501 9.358 6.825 0 10.972-3.46 13.126-9.344.696-1.9 1.133-3.943 1.36-6.015a26.79 26.79 0 0 0 .17-3.175l-.01-.416a1 1 0 1 1 1.998-.1l.007.19a28.16 28.16 0 0 1 -.176 3.718c-.243 2.222-.714 4.42-1.47 6.486-2.424 6.616-7.265 10.656-15.005 10.656-7.183 0-11.834-4.039-14.369-10.642-.87-2.27-1.428-4.689-1.737-7.106a32.557 32.557 0 0 1 -.217-2.338l-.016-.338-.01-.278-.006-.298a1 1 0 0 1 1-1z" fill="var(--db-icon-pulse-color, #EC0016)"/></g></svg>
