<svg id="icon" height="20" viewBox="0 0 20 20" width="20" xmlns="http://www.w3.org/2000/svg"><path d="m17 16.002a.999.999 0 1 1 0 1.996h-14a.999.999 0 1 1 0-1.996zm-5.094-14.002a1.556 1.556 0 0 1 1.572 1.384l.01.141v.474h2.005c.785.001 1.43.602 1.5 1.37l.007.137v6.987a1.509 1.509 0 0 1 -1.37 1.5l-.138.006h-10.984c-.785 0-1.43-.601-1.5-1.369l-.008-.138v-6.987a1.509 1.509 0 0 1 1.37-1.5l.138-.007h1.98v-.475a1.556 1.556 0 0 1 1.44-1.52l.14-.004h3.838zm3.094 4h-10v6h10z" fill="var(--db-icon-color, currentColor)" fill-rule="evenodd"/></svg>
