<svg id="icon" height="24" viewBox="0 0 24 24" width="24" xmlns="http://www.w3.org/2000/svg"><path d="m17.843 5.888c.057.43-.176.867-.73.955-.29.04-.58.078-.87.115l1.424 4.456a3.85 3.85 0 1 1 -1.62.517l-.286-.897-3.368 3.744a1.1 1.1 0 0 1 -1.775-.195l-.999-2.312-.55.653a3.85 3.85 0 1 1 -1.3-1.095l1.1-1.308-1.144-2.671h-.725a.85.85 0 0 1 -.85-.85c0-.433.334-.85.85-.85.833-.002 1.667-.002 2.5 0a.85.85 0 0 1 .073 1.695c.23.541.465 1.091.706 1.649l4.471-1.626-.434-1.36a.846.846 0 0 1 .698-1.1c.624-.086 1.248-.17 1.874-.25a.85.85 0 0 1 .955.73zm-11.843 7.212a2.15 2.15 0 1 0 1.922 1.186l-1.272 1.512a.858.858 0 0 1 -1.198.102c-.329-.277-.435-.82-.102-1.198.422-.505.845-1.009 1.27-1.511a2.15 2.15 0 0 0 -.62-.091zm12.209.01.6 1.881a.852.852 0 0 1 -.55 1.069.855.855 0 0 1 -1.069-.551c-.202-.627-.403-1.253-.601-1.88a2.15 2.15 0 1 0 1.62-.518zm-3.539-3.404-3.72 1.352.807 1.884z" fill="#282D37" style="fill: currentColor;fill: var(--db-icon-color, currentColor)" fill-rule="evenodd"/></svg>