<svg id="icon" height="20" viewBox="0 0 20 20" width="20" xmlns="http://www.w3.org/2000/svg"><path d="m15.592 14.908c-.442 1.205-1.416 2.167-2.649 2.634a1 1 0 0 0 -1.153-.645c-.713.153-1.312.228-1.79.228s-1.077-.075-1.79-.228a1 1 0 0 0 -1.153.645c-1.232-.466-2.206-1.428-2.648-2.632.295.134 1.329.55 2.723.92.342.08.296.062.724.123a14 14 0 0 0 .834.038l2.783-.004c.184-.005.407-.016.668-.034a4.46 4.46 0 0 0 .723-.123c.983-.272 1.892-.58 2.728-.922zm-4.142-12.758c2.349 0 4.283 1.766 4.395 4.005l.005 6.919c-.74.405-1.407.704-2.003.899-.893.292-1.33.417-1.704.471s-1.127.054-2.141.054-1.93-.027-2.148-.054c-.486-.06-.815-.164-1.245-.302a22.518 22.518 0 0 1 -1.521-.572 7.717 7.717 0 0 1 -.938-.495v-6.715c0-2.267 1.865-4.1 4.188-4.205zm-4.43 9.35a.85.85 0 0 0 -.251 1.668l1.21.182a.85.85 0 0 0 .252-1.667l-1.21-.183zm4.749.183a.85.85 0 0 0 .251 1.667l1.211-.182a.85.85 0 0 0 -.251-1.668zm-3.683-8.634a2 2 0 0 0 -1.74 2.144l.317 3.958c.07.872.887 1.662 1.738 1.727.852.065 2.28.07 3.203 0a1.882 1.882 0 0 0 1.733-1.727l.317-3.958a2 2 0 0 0 -1.74-2.144c-.257-.033-3.571-.033-3.828 0z" fill="#282D37" style="fill: currentColor;fill: var(--db-icon-color, currentColor)" fill-rule="evenodd"/></svg>