<svg id="icon" height="24" viewBox="0 0 24 24" width="24" xmlns="http://www.w3.org/2000/svg"><path d="m5.815 18.365c.103.092.307.248.571.404.35.207.73.381 1.114.381.385 0 .764-.174 1.114-.381.087-.052.258-.143.571-.404a.885.885 0 0 1 1.13 0c.34.28.484.352.572.404.349.207.75.382 1.112.381.36 0 .707-.14 1.114-.381.059-.035.25-.17.572-.404a.85.85 0 0 1 1.13 0c.322.234.513.369.572.404.348.206.764.381 1.107.381s.712-.14 1.12-.381c.058-.035.249-.17.571-.404a.85.85 0 0 1 1.13 0c.322.234.513.369.572.404a3.2 3.2 0 0 0 1.113.373c.463.015.85.389.85.858 0 .433-.327.85-.85.85-.721 0-1.471-.263-2.25-.79-.799.53-1.554.794-2.265.79s-1.456-.267-2.235-.79c-.794.528-1.543.79-2.246.79s-1.454-.264-2.254-.79c-.802.527-1.551.79-2.25.79-.698 0-1.448-.263-2.25-.79-.796.527-1.546.79-2.25.79a.85.85 0 0 1 -.85-.85c0-.433.312-.85.85-.85.44-.04.706-.14 1.114-.381a3.95 3.95 0 0 0 .57-.404.85.85 0 0 1 1.131 0zm9.466-16.11c.353 0 .71.226.791.538.054.208.159.629.314 1.263l-9.691.007a.85.85 0 0 0 0 1.687l10.101.006.831 3.394h3.373c.397 0 .79.269.843.743.102 1.084-.413 2.766-1.121 4.064a12.13 12.13 0 0 1 -1.23 1.84c-.274.35-.623.656-1.047.918-.636.394-1.207.635-2.059.635-.568 0-1.28-.263-2.137-.788-.795.525-1.543.788-2.245.788-.701 0-1.453-.263-2.256-.788-.796.525-1.545.788-2.248.788-.702 0-1.453-.262-2.25-.787-.804.525-1.554.787-2.25.787-.672 0-.85-.446-.85-.824v-6.594l13.036-.007a.85.85 0 0 0 0-1.687l-13.036-.006v-5.127c0-.434.354-.85.85-.85zm-2.49 10.163a1.15 1.15 0 1 0 0 2.3 1.15 1.15 0 0 0 0-2.3zm4 0a1.15 1.15 0 1 0 0 2.3 1.15 1.15 0 0 0 0-2.3zm-8 0a1.15 1.15 0 1 0 0 2.3 1.15 1.15 0 0 0 0-2.3zm-4 0a1.15 1.15 0 1 0 0 2.3 1.15 1.15 0 0 0 0-2.3z" fill="#282D37" style="fill: currentColor;fill: var(--db-icon-color, currentColor)" fill-rule="evenodd"/></svg>