<svg id="icon" height="64" viewBox="0 0 64 64" width="64" xmlns="http://www.w3.org/2000/svg"><g fill="none" fill-rule="evenodd" transform="translate(7 8)"><path d="m44 18a1 1 0 0 1 .993.883l.007.117v23.681c.092 2.765-2.014 5.095-4.78 5.307l-.22.012h-30.035c-2.765-.1-4.944-2.36-4.967-5.07l.002-.217v-23.713a1 1 0 0 1 1.993-.117l.007.117v23.748c-.056 1.676 1.208 3.09 2.826 3.24l.174.012h29.965c1.675-.06 3-1.418 3.036-3.104v-23.896a1 1 0 0 1 1-1zm-8.5 1a3.5 3.5 0 0 1 3.495 3.308l.005.192v14a3.5 3.5 0 0 1 -3.308 3.495l-.192.005h-21a3.5 3.5 0 0 1 -3.495-3.308l-.005-.192v-14a3.5 3.5 0 0 1 3.308-3.495l.192-.005zm0 2h-21a1.5 1.5 0 0 0 -1.493 1.356l-.007.144v14a1.5 1.5 0 0 0 1.356 1.493l.144.007h9.5v-4a3 3 0 0 1 2.824-2.995l.176-.005h4a3 3 0 0 1 2.995 2.824l.005.176v4h1.5a1.5 1.5 0 0 0 1.493-1.356l.007-.144v-14a1.5 1.5 0 0 0 -1.355-1.493zm-4.5 12h-4a1 1 0 0 0 -.993.883l-.007.117v4h6v-4a1 1 0 0 0 -.883-.993zm-2-9 .19.006a3 3 0 1 1 -.366 0zm0 2-.116.007a1 1 0 1 0 .236 0zm16.618-26a1 1 0 0 1 .896.55l.05.115 3.378 9.5c.055.154.07.313.05.464.005.043.008.087.008.131 0 2.981-3.17 5.24-6.949 5.24-2.511 0-4.753-.998-5.974-2.542-1.222 1.544-3.464 2.542-5.977 2.542-2.524 0-4.775-1.008-5.993-2.565-1.215 1.557-3.467 2.565-5.992 2.565-2.588 0-4.89-1.06-6.083-2.685-1.194 1.625-3.496 2.685-6.085 2.685-3.777 0-6.947-2.26-6.947-5.24 0-.044.003-.088.009-.13a.986.986 0 0 1 .017-.357l.033-.112 3.381-9.387a1 1 0 0 1 .813-.653l.124-.008zm-.703 2.001-39.833.109-3.084 8.576.002.074c0 1.703 2.157 3.24 4.947 3.24 2.708 0 4.818-1.446 4.944-3.086l.006-.154a1 1 0 0 1 1.136-.99 1 1 0 0 1 1.129.874l.006.116c0 1.703 2.156 3.24 4.947 3.24 2.707 0 4.818-1.446 4.943-3.086l.006-.154a1 1 0 0 1 1-1h.09a1 1 0 0 1 .993.884l.007.116c0 1.703 2.156 3.24 4.947 3.24 2.707 0 4.818-1.446 4.943-3.086l.006-.154a1 1 0 0 1 .884-.993l.17-.007a1 1 0 0 1 .993.884l.007.116c0 1.703 2.156 3.24 4.947 3.24 2.707 0 4.818-1.446 4.943-3.086l.01-.231z" fill="var(--db-icon-color, currentColor)" fill-rule="nonzero"/><path d="m22 25a1 1 0 0 1 .117 1.993l-.117.007h-5a1 1 0 0 1 -.116-1.993l.116-.007z" fill="var(--db-icon-pulse-color, #EC0016)"/></g></svg>
