<svg id="icon" height="24" viewBox="0 0 24 24" width="24" xmlns="http://www.w3.org/2000/svg"><path d="m17 4c.9917596 0 1.6864918.66621055 1.9809494 1.62458164l1.0190506 4.37541836h1.3517681c.3363956 0 .6482319.2665351.6482319.5776978v.7329689c0 .3345454-.2613373.6901075-.6482319.6893333l-.8346898.000574c.0327182.1613771.0498926.3789731.0498926.5354367 0 .1043091-.1294072 1.2617522-.3882215 3.4723292-.0292403.253359-.0896659.4968074-.1773256.7264827l-.0014238 2.2651774c0 .5522847-.4477153 1-1 1h-.6c-.5522847 0-1-.4477153-1-1v-.342c-1.8.228-3.6.342-5.4.342s-3.6-.114-5.4-.342v.342c0 .5522847-.44771525 1-1 1h-.6c-.55228475 0-1-.4477153-1-1l-.00028537-2.2621851c-.06701737-.1750296-.11821156-.3580762-.15183108-.5474276l-.39837677-3.403827c-.03108446-.2693986-.01811876-.533728.03318502-.7857861l-.83445986-.0007742c-.37003519 0-.64823194-.3213333-.64823194-.6893333v-.6666667c0-.3686667.27819675-.644.64823194-.644h1.35176806l.97799769-4.21310801c.2307565-.98895642 1.0466472-1.71337671 2.02200231-1.78689199zm-2.9943687 9.75-4.14149596.0068907c-.38657995.0455413-.71263569.312843-.83310717.6829845l-.29610306 1.4796845c-.03774719.460624.24550827.9522655.80073874 1.061021.55523045.1087554 1.00490895-.231718 1.14722845-.6714276l.1181077-.5601531h2.385l.118519.5601531c.1541795.4763521.6443515.772003 1.1472284.6714276s.8416315-.5620116.8007388-1.061021l-.2961031-1.4796845c-.1325186-.4071556-.5137942-.6898752-.9507518-.6898752zm-9.48621198.0538839c-.10057538.5028769.19507551.9930489.67142754 1.1472284l1.47871284.2957426c.49900938.0408928.96044559-.2978619 1.06102098-.8007388.10057538-.5028769-.19507551-.9930489-.67142754-1.1472284l-1.47871284-.2957426c-.49900938-.0408928-.96044559.2978619-1.06102098.8007388zm13.90014038-.8007388-1.4787128.2957426c-.4763521.1541795-.772003.6443515-.6714276 1.1472284s.5620116.8416316 1.061021.8007388l1.4787128-.2957426c.4763521-.1541795.772003-.6443515.6714276-1.1472284s-.5620116-.8416316-1.061021-.8007388zm-11.25559698-7.3093045c-.20822573 0-.40607717.14373798-.49786834.37502321l-.92109438 3.93113619h12.51l-.8857763-3.82681766c-.0595355-.25515205-.2388006-.43078403-.4421095-.47070527z" fill="var(--db-icon-color, currentColor)" fill-rule="evenodd"/></svg>
