<svg id="icon" height="24" viewBox="0 0 24 24" width="24" xmlns="http://www.w3.org/2000/svg"><path d="m15.836829 2.15c.8374521 0 1.2674951.06997513 1.7297683.27838054.4362795.19668672.8004903.49526812 1.078919.88450195.2655158.37118212.4159606.73875483.5631238 1.40720462l.3679059 1.83346585c.1497756-.24219144.4177708-.40355296.723454-.40355296.4333311 0 .7909267.32426241.8433773.74337781l.0066227 3.10662219c0 .469442-.380558.85-.85.85-.1654384 0-.3198378-.0472639-.4504319-.1290256l.0004319 6.7151404c0 .9411366-.0946377 1.4312107-.3675915 1.9415899-.1724477.3224492-.4020788.6000516-.6805021.8244159l-.0019064.7978794c0 .5522847-.4477153 1-1 1h-.6c-.5522847 0-1-.4477153-1-1l-.001-.15h-8.399v.15c0 .5522847-.44771525 1-1 1h-.6c-.55228475 0-1-.4477153-1-1l-.00190643-.7978794c-.27842324-.2243643-.50805439-.5019667-.68050208-.8244159-.25020768-.4678476-.35058024-.9186333-.36557145-1.7154301l-.00158816-6.9413002c-.1305941.0817617-.28499345.1290256-.45043188.1290256-.43333111 0-.79092668-.3242624-.84337729-.7433778l-.00662271-3.1066222c0-.46944204.38055796-.85.85-.85.30568319 0 .57367837.16136152.72345397.40355296l.31881972-1.59908798c.16423788-.82118939.31719249-1.22915792.61221006-1.64158249.27842865-.38923383.6426394-.68781523 1.07891893-.88450195.41604594-.18756487.8059853-.26300121 1.49031533-.27621283zm-8.85386915 14.6500528c-.50061839.0079874-.92680314.3901453-.97783625.9004356-.05103312.5102903.29103022.9692792.78015202 1.0762485l2.23192453.2232103c.50061839-.0079874.92680314-.3901453.97783625-.9004356.0510331-.5102903-.29103022-.9692792-.78015202-1.0762485zm7.80216355.2232086c-.4891227.1069655-.8311897.5659516-.7801606 1.0762423.0510291.5102908.4772108.892452.9778291.9004434l2.2320847-.2232085c.4891227-.1069655.8311897-.5659516.7801606-1.0762423-.0510291-.5102908-.4772108-.892452-.9778291-.9004434zm1.2247719-13.17223983c-.5890966 0-7.58602871-.00621221-8.01979062 0-.43376192.00621221-.99662629.10331199-1.19010468.36248096-.19347839.25916898-.23229593.34733761-.39073916 1.07435988-.10562883.48468151-.29238244 1.41739404-.56026084 2.79813759v6.8407839c2.26571318.3291607 4.433958.5185138 6.151.5185138 1.7605684 0 3.8108441-.1724225 6.1481883-.5185138l.0008117-6.8457839-.6258933-3.10987466c-.2161154-.80083426-.4923891-.91956088-.6551954-.99295841-.123023-.05546213-.2689194-.12714536-.858016-.12714536zm-.5098953 3.29897843c.469442 0 .85.38055796.85.85 0 .43333111-.3401047.85-.85.85h-7c-.46944204 0-.85-.38055796-.85-.85 0-.43333111.35008-.85.85-.85z" fill="var(--db-icon-color, currentColor)" fill-rule="evenodd"/></svg>
