<svg id="icon" height="32" viewBox="0 0 32 32" width="32" xmlns="http://www.w3.org/2000/svg"><path d="m29.2556493 13.0050827c.4749339 0 .75.3899292.75.75.0026056.9187675.0026056 1.8376366 0 2.7566074 0 .2454599-.1921337.5-.5.5-.6728406.0025704-1.3457891.0025704-2.0188456 0v1.4950622c0 .2454599-.1893088.5-.5.5-.5113597.0025362-1.0228259.0025362-1.5343986 0v1.1174539c0 .106574-.0486355.254706-.1476916.3547941-.4220696.4219121-.8455655.8424117-1.2704876 1.2614988.9334058 1.879975.6169971 4.2227336-.9492263 5.788957-1.9627357 1.9627356-5.1449589 1.9627356-7.1076945 0s-1.9627356-5.1449588 0-7.1076945c1.4598186-1.4598186 3.5942453-1.8338718 5.3997772-1.1221597l6.0016421-5.9999923c.1559953-.1559952.4387289-.2945269.7057105-.2928922.5855968.0035854.5856066-.0016347 1.1712144-.0016347zm-10.5156792 10.0120109c-.9663313 0-1.7496975.7833663-1.7496975 1.7496975 0 .9663313.7833662 1.7496975 1.7496975 1.7496975.9663312 0 1.7496975-.7833662 1.7496975-1.7496975 0-1.1668448-.9885508-1.7496975-1.7496975-1.7496975zm3.7689067-18.71581517c1.2536507 0 2.3508959.89301818 2.7808259 2.14726159.0454425.07963162.4162917 1.15418156 1.1125475 3.22364981.1973526.42594337.0120431.93122467-.4139003 1.12857717-.4259434.1973526-.9312246.0120431-1.1285772-.4139003l-1.1975089-3.52601612c-.2415357-.63455078-.740113-.85931718-1.153387-.85957215-2.1400485-.00132032-4.3505542-.15326076-6.4906579-.15326448-2.1521942-.00000374-4.38885.03623138-6.45666609.1417526-.48557995.03231783-.95558426.32279056-1.11566387.87108403-.4418754 1.75891176-.88173838 3.47162822-1.31958894 5.13814942 4.1399357-.1288815 7.0978357-.1932464 8.8737-.1930945 3.0946035.0002645 5.4774343.0859411 8.4015.1945714.7626963.0000652.9150278.7408398.6153643 1.0487747-2.7472564 2.7464879-4.1452904 4.1437099-4.194102 4.1916659-2.0571526-.3890939-3.7857457.0812246-5.204579 1.0736448l-2.1262864.0007168-.1534621-.7903123c-.0712392-.4274352-.5507388-.7699349-.9781739-.6986957-.4274352.0712392-.763892.4523574-.6986957.9781739l.25 1.5c.0620999.3725998.4486957.7102609.8384348.7102609l1.1792696-.0003959c-.6767863.9807254-1.0636332 2.1011589-1.1605408 3.2415968l-3.6844288-.1630068.00035017.6251574c0 .9479738-.37988057 1.2819426-1.281943 1.2819426h-1.536114c-1.00301662.0347017-1.28273059-.3994458-1.281943-1.2819426l-.00078759-1.1027078c-.24365139-.7383098-.24181678-1.0966096-.43144855-2.3059724-.18963177-1.2093629-.62551055-4.5352485-.54867828-5.3105425l-1.03643575.0010653c-.553 0-.967-.482-.967-1.034v-1c0-.553.414-.966.967-.966l2.406-.0009 1.42334669-5.55045998c.30276415-1.21105659 1.36554673-2.08888992 2.76490612-2.15877347 2.61895529-.11591955 4.84252579-.13976655 6.45902679-.13976655 3.2450302 0 3.2432669.15127843 6.4882972.15127843zm-17.00391399 12.34921787c-.05102907.5102907.33225936 1.0367573.89553347 1.0945409 1.24841745.1280692 1.24910971.1281431 2.5.25.58301602.0567951 1.04351184-.3852427 1.09454091-.8955335.05102911-.5102907-.290619-1.0324856-.89553347-1.0945409-1.24841745-.1280692-1.24913903-.128146-2.5-.25-.28206391-.0274776-1.01718065.1219308-1.09454091.8955335z" fill="var(--db-icon-color, currentColor)" fill-rule="evenodd"/></svg>
