<svg id="icon" height="32" viewBox="0 0 32 32" width="32" xmlns="http://www.w3.org/2000/svg"><path d="m26.6399002 24.4320182c.2941412.3789706.6225463.752078.8291406.9415645.4856236.4454098 1.1070603.7219433 1.5309592.7720032.5028428.0593828.85.3849721.85.8544141s-.380558.85-.85.85c-1.0206394 0-2.0346394-.5264167-3.042-1.57925-1.1641366 1.0528333-2.3168033 1.57925-3.458 1.57925s-2.2481967-.44775-3.321-1.34325c-1.0910619.8955-2.1507286 1.34325-3.179 1.34325s-2.1082714-.4564167-3.24-1.36925c-1.1656917.9128333-2.2523584 1.36925-3.26 1.36925-1.00764165 0-2.12597498-.4560833-3.355-1.36825-1.08363911.9121667-2.13197244 1.36825-3.145 1.36825-.46944204 0-.85-.380558-.85-.85 0-.4333311.35062521-.8500087.85-.8500087.72056367-.1626994 1.2755772-.3845504 1.66504059-.6655531.37305608-.2691646.65831206-.5388648.8052331-.7032928.31773484-.3555958.86288162-.3762573 1.21419146-.0546871s.71152059.5688463.96544419.7313525c.5731158.3667831 1.27528341.6860152 1.85009066.6877751.5748072.0017599 1.1400988-.2545254 1.7665184-.676702.2380117-.1604084.5318672-.3760494.8944985-.7200498.3626312-.3440004.8550943-.3413908 1.2120366.0053026.3569422.3466934.6443549.557444.8788503.717351.6290953.4289925 1.2402975.6785036 1.7480962.6785036.505762 0 1.1076861-.2480298 1.7241613-.6750076.2298924-.1592261.5109982-.3489415.8583603-.7136845.3473622-.3647429.9339151-.3491257 1.261376.0335846.1338654.1564512.4083657.4188659.7849517.6827862.6056708.4244683 1.2425282.6723213 1.8711507.6723213.6035219 0 1.2733477-.3009515 1.9387455-.8201341.2469982-.1927226.573755-.4520193.9078837-.8647156.3341288-.4126963.9991299-.412094 1.293271-.0331234zm-6.2335261-11.3325774c.4350834.4781145.7836735.9540509 1.0417569 1.3634293l7.4049592-1.3000783c.6901227-.1210998 1.2064324.5905841.9172119 1.1975629l-2.5101859 4.0262967c-1.4408257 2.3089049-2.4110001 3.8466877-2.9105232 4.6133486-.7492848 1.1499913-1.849593 1-1.849593 1-.9839498-.0012541-2.0672831-.6679208-3.25-2-1.1926899 1.3333333-2.2760232 2-3.25 2s-2.0573101-.6666667-3.25-2c-1.1846667 1.3333333-2.268 2-3.25 2s-2.06533333-.6666667-3.25-2c-1.18035377 1.3333333-2.2636871 2-3.25 2-.43333183 0-.85-.3559331-.85-.8503672l.00507296-3.095046c-.00507296-1.3156293.95130664-2.346579 2.12870039-2.581317l4.21380388-.7391398c.72667477-1.0240334.97708897-2.3173867.67675402-3.5454914-.109224-.4466297.15075979-.9349161.68773616-1.0406525l6.00018779-.9867509c1.7184303-.2822063 3.2430238.5084284 4.5441189 1.9382056zm-11.74157726 5.5621273c-.40599389.1165236-.67116457.5198909-.60426826.9480273.0668963.4281363.44247595.7313864.86466417.7185065l16.21068805-2.53292c.4059939-.1165235.6711645-.5198909.6042682-.9480272-.0668963-.4281364-.4424759-.7313865-.8646641-.7185066zm7.65633486-5.8457375-5.3481317.8709194c.0960744.949598-.0628125 1.874902-.3672765 2.6776024 5.9953627-1.0524956 8.993044-1.5787435 8.993044-1.5787435-1.23919-1.5969703-2.3018188-2.0536232-3.2776358-1.9697783z" fill="var(--db-icon-color, currentColor)" fill-rule="evenodd"/></svg>
