<svg id="icon" height="32" viewBox="0 0 32 32" width="32" xmlns="http://www.w3.org/2000/svg"><path d="m16.746 10.436a4480.41 4480.41 0 0 1 -.803 7.728l3.636 3.644c.08.08.186.281.222.39.564 2.201 1.127 4.405 1.687 6.61a.85.85 0 0 1 -.613 1.034c-.42.107-.872-.126-1.034-.613-.545-2.127-1.088-4.256-1.63-6.386l-3.588-3.595a1.367 1.367 0 0 1 -.387-1.093c.216-2.108.434-4.215.656-6.322l-3.058 1.597-.478 2.687c-.076.427-.56.764-.986.688a.859.859 0 0 1 -.688-.986c.182-1.033.366-2.066.552-3.098.04-.222.239-.509.444-.604 1.609-.843 3.219-1.684 4.83-2.522a.853.853 0 0 1 1.238.841zm-2.808 10.53c.396.177.612.628.43 1.123a4852.98 4852.98 0 0 1 -3.244 7.276.85.85 0 0 1 -1.123.43.858.858 0 0 1 -.43-1.123c1.08-2.427 2.162-4.852 3.245-7.275a.85.85 0 0 1 1.122-.43zm5.11-8.754c.293.315.584.63.873.948l2.1 1.066c1.05.532.263 1.956-.768 1.516-.747-.376-1.491-.753-2.235-1.133a1.47 1.47 0 0 1 -.24-.182c-.328-.353-.655-.707-.98-1.063a.85.85 0 0 1 .05-1.2c.316-.292.822-.32 1.2.048zm-2.618-10.055a2.843 2.843 0 1 1 0 5.686 2.843 2.843 0 0 1 0-5.686zm0 1.7a1.143 1.143 0 1 0 0 2.286 1.143 1.143 0 0 0 0-2.286z" fill="#282D37" style="fill: currentColor;fill: var(--db-icon-color, currentColor)" fill-rule="evenodd"/></svg>
