<svg id="icon" height="24" viewBox="0 0 24 24" width="24" xmlns="http://www.w3.org/2000/svg"><path d="m5.81520455 18.3651427c.10285819.0915732.30724512.2474713.57075827.403709.34940766.2071647.72970215.3811659 1.11419773.3811483.38449559-.0000176.76374498-.174069 1.11336885-.3812505.08794133-.0521127.25880349-.1426257.57177493-.4040595.31297143-.2614338.78888619-.2811219 1.12931177-.0000707.3404256.2810512.4839764.3519963.571934.4041142.3492908.2069668.7513905.3818229 1.1123501.3812665.3609595-.0005564.7072168-.1399545 1.1145051-.3812755.0586445-.0347472.2493189-.1694621.5720232-.4041449.3218747-.2859858.8067536-.2861213 1.1287879-.0003152.3231294.2348298.5140404.3696261.572733.4043888.3476265.2058936.7645181.3817904 1.1072599.3813308.3427419-.0004596.7118625-.1398996 1.1192077-.3812571.0586428-.0347467.2493095-.169459.5719999-.4041369.3220137-.28612.8071525-.28612 1.1291662 0 .3226904.2346779.5133571.3693902.5719999.4041369.349153.2068778.8270463.3390652 1.113417.3728435.4633636.0150523.85.3889876.85.8584296 0 .4333311-.3274628.85-.85.85-.7209778 0-1.4709778-.2631426-2.25-.7894278-.7990128.5301847-1.5540727.7933133-2.2651797.7893859-.711107-.0039275-1.4560471-.2670561-2.2348203-.7893859-.7941149.5270165-1.5426941.7901591-2.2457377.7894278s-1.4544644-.2638739-2.2542623-.7894278c-.80152938.5262852-1.55139993.7894278-2.24961165.7894278-.69821173 0-1.44834118-.2631426-2.25038835-.7894278-.79597337.5262852-1.54597337.7894278-2.25.7894278-.46944204 0-.85-.380558-.85-.85 0-.4333311.31182631-.85.85-.85.43983343-.0395971.70639491-.1394561 1.11403718-.3811483.26351315-.1562377.46790008-.3121358.57075827-.403709.32220761-.2868569.80820149-.2868569 1.1304091 0zm9.46607925-16.11057053c.3527271 0 .7094697.22609789.790739.53804894.0541796.20796737.1588331.62895106.3139605 1.26295106l-9.69110183.0075508c-.4191154.05245061-.74337781.41004618-.74337781.84337729s.32426241.79092668.74337781.8433773l10.10110183.00569461.8310167 3.394 3.3730198.00042783c.3972202 0 .7897885.26862012.8433773.74337781.1018173 1.08341869-.4133263 2.76605259-1.1217581 4.06352749-.3981712.7292404-.8319602 1.3519575-1.2299415 1.8394641-.2740458.3498622-.6230342.6561557-1.0469655.9188806-.6358968.3940873-1.2065493.6347677-2.0587487.6347677-.5681329 0-1.2804607-.2628152-2.1369833-.7884455-.7948489.5256303-1.5430948.7884455-2.2447377.7884455-.701643 0-1.4537304-.2628152-2.2562623-.7884455-.79555906.5254711-1.54476294.7882863-2.24761165.7884455-.70284871.0001356-1.45305828-.2623652-2.2506287-.7875023-.8036974.5250016-1.55361729.7875023-2.24975965.7875023-.67186824 0-.85001666-.4462307-.85001666-.8236172v-6.59482833l13.03579656-.00657137c.4191154-.05245061.7433778-.41004618.7433778-.84337729s-.3242624-.79092668-.7433778-.8433773l-13.03579656-.00667404v-5.127c0-.43333111.35368772-.85.85001666-.85zm-2.4900647 10.16329133c-.6351275 0-1.15.5148725-1.15 1.15 0 .6351274.5148725 1.15 1.15 1.15s1.15-.5148726 1.15-1.15c0-.6351275-.5148725-1.15-1.15-1.15zm4 0c-.6351275 0-1.15.5148725-1.15 1.15 0 .6351274.5148725 1.15 1.15 1.15s1.15-.5148726 1.15-1.15c0-.6351275-.5148725-1.15-1.15-1.15zm-7.99999999 0c-.63512746 0-1.15.5148725-1.15 1.15 0 .6351274.51487254 1.15 1.15 1.15s1.15-.5148726 1.15-1.15c0-.6351275-.51487254-1.15-1.15-1.15zm-4 0c-.63512746 0-1.15.5148725-1.15 1.15 0 .6351274.51487254 1.15 1.15 1.15s1.15-.5148726 1.15-1.15c0-.6351275-.51487254-1.15-1.15-1.15z" fill="var(--db-icon-color, currentColor)" fill-rule="evenodd"/></svg>
