<svg id="icon" height="20" viewBox="0 0 20 20" width="20" xmlns="http://www.w3.org/2000/svg"><path d="m10.4535253 6.08291099c1.0438472.65514786 2.0869051 1.31317293 3.1291735 1.97407519.3970366.25047511.5158481.77538705.265373 1.17242363-.2296022.3639502-.7291448.52059019-1.1724236.26537302-.6142928-.38484423-1.2279008-.77216928-1.8408241-1.16197514-.1592735 1.87630581-.2389103 2.81445871-.2389103 2.81445871.054296.02401.2018446.1234834.2445993.1642584.873636.8331842 1.7441862 1.6736595 1.7441862 1.6736595.0711443.0682676.1946926.2794828.2116611.3265701.3489772.968408.6964525 1.9380616 1.0424261 2.9089608.1583634.4419241-.0715078.9285532-.5134318 1.0869167-.4079299.1461817-.8933108-.0461358-1.0869167-.5134318-.3268828-.9056173-.6520288-1.812684-.975438-2.7212001l-1.31417592-1.2611923-2.06287015 4.0752878c-.21204651.4188222-.72346672.5864471-1.142289.3744006-.38660518-.1957352-.61366493-.7534449-.37440064-1.142289.8382976-1.6610029 1.67820951-3.3204053 2.51973571-4.9782071l.25582408-3.00319231-1.05682408.49319231-.25171029 1.5093533c-.0715523.4273829-.55130267.7695312-.97868555.6979789-.42738287-.0715523-.7265271-.4504103-.70905276-.87243333l.33752651-2.05615869c.03961015-.23659202.21030606-.52921296.4789563-.62993816.89122793-.41873622 1.78309121-.83483094 2.67558985-1.24828416.22462907-.10479967.53140234-.10479967.81290124.05139313zm-.1793962-3.92876224c.7455844 0 1.35.60441559 1.35 1.35s-.6044156 1.35-1.35 1.35c-.74558445 0-1.35000004-.60441559-1.35000004-1.35s.60441559-1.35 1.35000004-1.35z" fill="var(--db-icon-color, currentColor)" fill-rule="evenodd"/></svg>
