<svg id="icon" height="20" viewBox="0 0 20 20" width="20" xmlns="http://www.w3.org/2000/svg"><path d="m5.7352124 2.61325886 1.32249487.43865788c.63656536.19093905 1.03302628.81296999.95187851 1.45983934l-1.43715265 6.64790612c.89329508.3821733 1.60215786.9117424 2.11255157 1.5922674.45857339.6114311.79354391 1.3314219 1.0076909 2.1547596l4.2984605.001183c.3532682-.6833282 1.0664492-1.1503394 1.8888486-1.1503394 1.1733783 0 2.125.9513587 2.125 2.125 0 1.1736412-.9516217 2.125-2.125 2.125-.9189448 0-1.7015226-.5830967-1.9979781-1.3995348-3.2992309 0-4.94884635-.0011524-4.94884635-.003457-.139917 0-.66634523-.1579016-.76654367-.7068694-.14524389-.8689089-.42772199-1.5738622-.84163188-2.125742-.27077365-.3610316-.64595192-.6667619-1.13360058-.9151452l-.33621156 1.4962914c.40060438.3864713.64981214.9288588.64981214 1.529457 0 1.1736412-.95162166 2.125-2.125 2.125-1.17373475 0-2.125-.9512653-2.125-2.125 0-1.0716709.80806883-2.0342016 1.989-2.1212238 0 .0070804.67066157-3.051356 2.01198471-9.175309l-1.00917672-.34441495c-.43105606-.13034121-.71667782-.63252112-.56995324-1.05837295.14672457-.42585184.56995324-.70433009 1.05837295-.56995324zm6.9297105 9.28265644c1.1011307-1.0630986 2.2719599-1.404898 3.692889-1.2322886.4660162.05661.7979056.4802823.7412956.9462985-.05661.4660163-.4802823.7979056-.9462985.7412956-.9348395-.113561-1.5934606.0787099-2.3071111.7677114-.3377268.3260621-.8758339.3166059-1.2018959-.0211209s-.3166059-.875834.0211209-1.201896z" fill="var(--db-icon-color, currentColor)" fill-rule="evenodd" transform="matrix(-1 0 0 1 20.25997 0)"/></svg>
