<svg id="icon" height="32" viewBox="0 0 32 32" width="32" xmlns="http://www.w3.org/2000/svg"><path d="m29.98 12.38a1 1 0 0 1 -1.312 1.504l-1.491-1.463-5.613 5.557c4.352 5.295-3.184 11.52-3.547 11.814a1 1 0 0 1 -1.238.016l-7.086-7.002-6.868 6.8a1 1 0 0 1 -1.49-1.329l6.936-6.877-6.975-6.905a1 1 0 0 1 -.143-1.245c1.24-1.524 6.866-7.345 11.991-3.598l5.617-5.56-1.379-1.366a1 1 0 0 1 -.007-1.414c.067-.067.7-.665 1.386 0 1.377 1.333 5.117 5.023 11.218 11.07z" fill="var(--db-icon-color, currentColor)" fill-rule="evenodd"/></svg>
