<svg id="icon" height="32" viewBox="0 0 32 32" width="32" xmlns="http://www.w3.org/2000/svg"><path d="M2 26c0 -0.517 0.103 -1 0.347 -1.452l10.943 -20.933a3.068 3.068 0 0 1 2.71 -1.615c1.132 0 2.17 0.612 2.71 1.615l10.943 20.933c0.244 0.452 0.347 0.935 0.347 1.452c0 1.735 -1.27 3 -3 3h-21.857c-1.733 0 -3.143 -1.27 -3.143 -3zm12.61 -2.404c0 0.744 0.646 1.39 1.39 1.39a1.4 1.4 0 0 0 1.39 -1.39a1.38 1.38 0 0 0 -1.39 -1.39a1.4 1.4 0 0 0 -1.39 1.39zm0.39 -4.361c0 0.582 0.418 0.998 1 0.998s1 -0.416 1 -0.998v-9.735c0 -0.582 -0.418 -1.078 -1 -1.078s-1 0.496 -1 1.078v9.735z" fill="var(--db-icon-color, currentColor)"/></svg>
