<svg id="icon" height="24" viewBox="0 0 24 24" width="24" xmlns="http://www.w3.org/2000/svg"><path d="M10.31 3.213l-8.06 16c-0.156 0.328 -0.25 0.656 -0.25 0.984c0 0.983 0.751 1.803 1.847 1.803h16.306c1.097 0 1.847 -0.82 1.847 -1.803c0 -0.295 -0.094 -0.656 -0.25 -0.984l-8.029 -16c-0.421 -0.787 -1.064 -1.213 -1.721 -1.213s-1.26 0.426 -1.69 1.213zm1.674 15.607c-0.563 0 -1.001 -0.459 -1.001 -1.049s0.438 -1.05 1.001 -1.05s1.002 0.459 1.002 1.049s-0.438 1.05 -1.002 1.05zm-0.984 -4.197v-5.623c0 -0.59 0.437 -1 1 -1s1 0.41 1 1v5.623c0.017 0.656 -0.437 1.05 -1 1.05s-1 -0.427 -1 -1.05z" fill="var(--db-icon-color, currentColor)"/></svg>
