<svg id="icon" height="20" viewBox="0 0 20 20" width="20" xmlns="http://www.w3.org/2000/svg"><path d="m6.742 2.485a1392.89 1392.89 0 0 1 2.197 3.66c.835 1.418.28 2.85-1.267 2.85l-1.172.005v3.632c0 1.213-.635 2.048-1.83 1.997l-.306.003c-.19-.003-.364.185-.36.38l-.004 1.988a1 1 0 0 1 -1 1c-.513 0-1-.341-1-1v-1.988c0-1.221.53-2.28 1.714-2.374l.786-.006-.01-3.637c0-.945.885-1.995 2.01-1.995h.619l-2.092-3.485c-.264-.44-.097-1.109.343-1.372.44-.264 1.027-.155 1.372.342zm4.947 5.603c.493.141.846.687.686 1.237l-.622 2.175h.747a1 1 0 0 1 .452.108l1.349.89h1.199c.117 0 .234.016.448.106l1 .502c.384.192.635.66.522 1.135l-.468 1.88v.879c0 .513-.487 1-1 1-.512 0-1-.478-1-1v-1c.002-.082.012-.163.03-.241l.285-1.148c.01-.039.035-.111-.055-.114l-1.262.001a1 1 0 0 1 -.452-.108l-1.212-.799a.909.909 0 0 0 -.327-.092h-.827l-.182.638v2.863c0 .513-.487.993-1 .993s-1-.433-1-.993v-2.884a2.1 2.1 0 0 1 .078-.528l1.374-4.813a1 1 0 0 1 1.237-.687zm-8.689-4.088a1 1 0 1 1 0 2 1 1 0 0 1 0-2zm7.926-2c.813 0 1.262.433 1.262 1.223 0 .817-.463 1.255-1.32 1.255a1.056 1.056 0 0 1 -.258-.038v1.082c0 .264-.192.478-.43.478-.237 0-.43-.214-.43-.478v-3.048c0-.264.192-.474.435-.474h.74zm2.521.969c.184 0 .407.051.547.1.153.054.25.138.25.309 0 .17-.126.344-.278.308a1.252 1.252 0 0 0 -.48-.1c-.258 0-.372.07-.372.221 0 .098.031.157.109.211l.067.032.177.056.185.053c.496.146.693.4.693.893 0 .617-.35.944-1.034.946-.296 0-.592-.068-.791-.148-.147-.06-.196-.178-.19-.307.01-.197.17-.335.354-.26.11.046.353.11.558.11.287 0 .397-.07.397-.255a.221.221 0 0 0 -.075-.178l-.053-.03-.1-.036-.232-.07c-.554-.184-.747-.422-.747-.936 0-.606.346-.92 1.015-.92zm2.141 0c.184 0 .408.051.547.1.153.054.25.138.25.309 0 .17-.125.344-.278.308a1.252 1.252 0 0 0 -.48-.1c-.258 0-.371.07-.371.221 0 .098.03.157.108.211l.067.032.177.056.185.053c.497.146.693.4.693.893 0 .617-.35.944-1.034.946-.295 0-.591-.068-.79-.148-.148-.06-.197-.178-.19-.307.009-.197.168-.335.353-.26.11.046.354.11.559.11.286 0 .396-.07.396-.255a.221.221 0 0 0 -.075-.178l-.053-.03-.1-.036-.232-.07c-.554-.184-.747-.422-.747-.936 0-.606.347-.92 1.015-.92zm1.895-.591c.177 0 .279.103.304.241l.007.072v.364l.387-.002c.15-.001.272.135.272.3 0 .143-.09.263-.21.294l-.062.008h-.387v1.443c0 .19.053.267.21.283l.097.003.175-.019c.144.005.224.147.224.28a.31.31 0 0 1 -.209.303c-.112.034-.23.045-.361.045-.605 0-.883-.25-.917-.842l-.004-.132v-1.363h-.076l-.062-.01a.296.296 0 0 1 -.209-.292c0-.141.09-.26.21-.291l.061-.008h.131l.096-.335.044-.136c.05-.124.122-.206.28-.206zm-6.635.315h-.238v1.109a.48.48 0 0 0 .18.032c.404 0 .564-.167.564-.59 0-.364-.1-.551-.506-.551z" fill="var(--db-icon-color, currentColor)" fill-rule="evenodd"/></svg>
