<svg id="icon" height="64" viewBox="0 0 64 64" width="64" xmlns="http://www.w3.org/2000/svg"><g fill="none" fill-rule="evenodd" transform="translate(4 4)"><path d="m42.988 0c2.208 0 4.006 1.808 4.006 4.026v8.446c.752.595 1.86 1.472 3.012 2.387l.462.367c.575.457 1.15.916 1.687 1.345l.395.317c1.224.982 2.179 1.76 2.35 1.93.492.497 1.1 1.105 1.1 2.381v31.775c0 2.22-1.798 4.026-4.007 4.026h-47.984c-2.209 0-4.009-1.808-4.009-4.026v-31.725c0-1.291.644-1.928 1.028-2.308.274-.275 2.04-1.698 3.93-3.206l.474-.378c1.346-1.073 2.698-2.143 3.57-2.833v-8.498c0-2.22 1.798-4.026 4.008-4.026zm-15.933 32.484-23.3 22.455c.088.012.164.052.254.052l47.982-.002c.09 0 .166-.038.252-.05l-23.288-22.439a1.333 1.333 0 0 0 -1.9-.016zm26.943-9.828-16.295 15.491 16.147 15.56c.09-.229.148-.472.148-.731zm-51.994-.01v30.328c0 .26.058.502.146.73l16.145-15.559-8.979-8.54-.032-.03-7.28-6.93zm40.986-20.637h-29.98a2.014 2.014 0 0 0 -2.008 2.017v24.416l8.736 8.311 5.92-5.704c1.285-1.285 3.4-1.285 4.699.017l5.903 5.687 8.736-8.305v-24.422c0-1.113-.9-2.017-2.006-2.017zm4.006 13.023v11.513l6.558-6.236-.064-.066c-.26-.25-2.54-2.073-4.903-3.95l-.458-.363-.457-.363zm-37.994.048-.676.536-.457.362-.458.363-.455.362c-2.193 1.743-4.202 3.354-4.446 3.588l-.034.036 6.526 6.21zm30.995 8.94c.552 0 1 .45 1 1.004 0 .555-.448 1.005-1 1.005h-23.997c-.552 0-1-.45-1-1.005 0-.554.448-1.004 1-1.004zm0-6.027c.552 0 1 .45 1 1.004 0 .555-.448 1.005-1 1.005h-23.997c-.552 0-1-.45-1-1.005 0-.554.448-1.004 1-1.004zm0-6.027c.552 0 1 .45 1 1.004 0 .555-.448 1.005-1 1.005h-23.997c-.552 0-1-.45-1-1.005 0-.554.448-1.004 1-1.004h23.996z" fill="#282D37" style="fill: currentColor;fill: var(--db-icon-color, currentColor)" fill-rule="nonzero"/><path d="m39.997 7.948h-23.997c-.552 0-1-.45-1-1.005 0-.554.448-1.004 1-1.004h23.996c.552 0 1 .45 1 1.004 0 .555-.448 1.005-1 1.005z" fill="#EC0016" style="fill:#EC0016;fill: var(--db-icon-pulse-color, #EC0016)"/></g></svg>
