<svg id="icon" height="64" viewBox="0 0 64 64" width="64" xmlns="http://www.w3.org/2000/svg"><g fill="none" fill-rule="evenodd" transform="translate(6 6)"><path d="m31 33a5 5 0 0 1 4.995 4.783l.005 7.217a1 1 0 0 1 -2 .002v-7.002a3 3 0 0 0 -2.824-2.995l-12.176-.005a3 3 0 0 0 -2.995 2.824l-.005 12.176a1 1 0 0 1 -2 0v-12a5 5 0 0 1 4.783-4.995zm18.217 6.005a5 5 0 0 1 4.778 4.772l-.002 6.223c.002.584-.48 1-.993 1a.999.999 0 0 1 -.993-1l-.012-6.176a3 3 0 0 0 -2.819-2.819l-10.176-.005c-.576.005-1-.487-1-1s.414-1 1-.995zm-4.37-14.005a6 6 0 1 1 0 12 6 6 0 0 1 0-12zm0 2a4 4 0 1 0 0 8 4 4 0 0 0 0-8zm2.221-27c1.562 0 2.932 1.265 2.932 2.935v19.065a1 1 0 0 1 -2 0v-19.065a.93.93 0 0 0 -.932-.935h-44.136a.938.938 0 0 0 -.932.935v26.13c0 .48.399.935.932.935h10.568a1 1 0 0 1 1 1c0 .513-.383 1-1 1h-10.568c-1.562 0-2.932-1.287-2.932-2.935v-26.13c0-1.562 1.269-2.935 2.932-2.93zm-21.867 17a7 7 0 1 1 0 14 7 7 0 0 1 0-14zm0 2a5 5 0 1 0 0 10 5 5 0 0 0 0-10zm18.799-1a1 1 0 0 1 1 1c0 .513-.477 1-1 1h-9a1 1 0 0 1 -1-1c0-.513.4-1 1-.993zm-36-12a1 1 0 0 1 1 1c0 .513-.43 1-1 1h-2a1 1 0 0 1 -1-1c0-.513.429-1 1-1zm0 6a1 1 0 0 1 1 1c0 .513-.43 1-1 1h-2a1 1 0 0 1 -1-1c0-.513.429-1 1-1zm6 0a1 1 0 0 1 1 1c0 .513-.43 1-1 1h-2a1 1 0 0 1 -1-1c0-.513.429-1 1-1zm-6 6a1 1 0 0 1 1 1c0 .513-.43 1-1 1h-2a1 1 0 0 1 -1-1c0-.513.429-1 1-1zm0 6a1 1 0 0 1 1 1c0 .513-.43 1-1 1h-2a1 1 0 0 1 -1-1c0-.513.429-1 1-1zm6 0a1 1 0 0 1 1 1c0 .513-.43 1-1 1h-2a1 1 0 0 1 -1-1c0-.513.429-1 1-1zm30-18a1 1 0 0 1 1 1c0 .513-.45 1-1 1h-25a1 1 0 0 1 -1-1c0-.513.396-1 1-1z" fill="#282D37" style="fill: currentColor;fill: var(--db-icon-color, currentColor)" fill-rule="nonzero"/><path d="m14 6a1 1 0 0 1 0 2h-2a1 1 0 0 1 -1-1c0-.513.422-1 1-.993zm30 6a1 1 0 0 1 1 1c0 .513-.436.993-1 1h-25a1 1 0 0 1 -1-1 .978.978 0 0 1 1-.993zm-30 6a1 1 0 0 1 1 1c0 .513-.44 1-.993 1h-2.007a1 1 0 0 1 -1-1c0-.513.427-.993 1-.993z" fill="#EC0016" style="fill:#EC0016;fill: var(--db-icon-pulse-color, #EC0016)"/></g></svg>
