<svg id="icon" height="64" viewBox="0 0 64 64" width="64" xmlns="http://www.w3.org/2000/svg"><g fill="none" fill-rule="evenodd" transform="translate(4 13)"><path d="m36.059 26.114a1 1 0 0 1 1.066 1.688l-.098.062-3.359 1.857a9 9 0 0 1 -2.461.922l-.371.071-.667.115a12.824 12.824 0 0 1 -3.858.073l-.48-.073-.664-.114a9 9 0 0 1 -2.502-.82l-.335-.176-3.35-1.855a1 1 0 0 1 .863-1.8l.105.05 3.35 1.855a7 7 0 0 0 1.877.71l.33.065.664.114c1.077.184 2.176.205 3.257.061l.405-.061.667-.115a7 7 0 0 0 1.905-.617l.297-.156z" fill="var(--db-icon-pulse-color, #EC0016)"/><path d="m29.172 10c1.067 0 3.175-.067 5.535 2.293s2.36 4.109 2.427 5.485c.147 3.061.292 6.123.437 9.185.252 5.285-3.873 10.037-9.57 10.037-5.293 0-9.837-4.435-9.572-10.037.145-3.062.291-6.124.438-9.185.128-2.685.985-4.044 2.426-5.485s3.068-2.293 5.537-2.293h2.343zm0 2h-2.343c-.614 0-2.276-.139-4.122 1.707-1.23 1.23-1.845 2.62-1.842 4.166l-.438 9.185c-.162 3.414 2.427 7.942 7.573 7.942s7.74-4.402 7.573-7.942c-.144-3.062-.29-6.124-.437-9.185-.032-.672-.032-2.355-1.843-4.166-1.207-1.207-2.58-1.776-4.121-1.707zm27.273 5.604a1 1 0 0 1 .451 1.34c-.743 1.498-2.168 2.482-4.081 2.555-1.214.047-2.427.094-3.641.143a4 4 0 1 1 -4.601.179l-4.534.178a1 1 0 0 1 -.078-1.998c4.271-.17 8.543-.336 12.815-.501a2.6 2.6 0 0 0 2.328-1.444 1 1 0 0 1 1.34-.452zm-54.55.448a2.831 2.831 0 0 0 2.38 1.529c3.92.142 7.84.282 11.76.42a1 1 0 0 1 .965 1.035.991.991 0 0 1 -1.035.963c-1.506-.051-3.01-.105-4.516-.161a4 4 0 1 1 -4.666-.167l-2.58-.092a4.775 4.775 0 0 1 -4.097-2.63 1 1 0 0 1 1.788-.897zm45.105 4.948a2.001 2.001 0 0 0 0 4 2 2 0 1 0 0-4zm-38 0a2.001 2.001 0 0 0 0 4 2 2 0 1 0 0-4zm19-8.945c2.707 0 4.77.995 5 2.945.014 1.249.014 2.498 0 3.748a1.25 1.25 0 0 1 -1.122 1.245c-.185.02-.501-.02-.95-.12a18.402 18.402 0 0 0 -6.441.104c-.635.123-1.487-.339-1.487-1.227v-3.75c.18-1.935 2.293-2.945 5-2.945zm0 1.944c-1.654 0-3 .585-3 1.501v2.363c1.38-.15 2.38-.225 3-.225s1.62.075 3 .225c.016-.689.016-1.477 0-2.363 0-.798-1.345-1.5-3-1.5zm0-15.999c.513 0 1 .402 1 1 .002 2.082.002 4.166 0 6.25a1 1 0 0 1 -1 1c-.513 0-1-.446-1-1-.002-2.082-.002-4.166 0-6.25a1 1 0 0 1 1-1z" fill="var(--db-icon-color, currentColor)" fill-rule="nonzero"/></g></svg>
