<svg id="icon" height="32" viewBox="0 0 32 32" width="32" xmlns="http://www.w3.org/2000/svg"><path d="m14.6 16c1.819 0 3.139 1.164 3.139 2.768 0 .803-.3 1.428-.742 1.916.779.528 1.259 1.409 1.259 2.466 0 3.681-4.647 3.905-6.396 3.989l-.05.001a1 1 0 0 1 -.046-1.999c3.959-.19 4.492-1.113 4.492-1.991 0-.646-.387-1.001-1.091-1.001-.446 0-.734.029-1.661.213a1 1 0 0 1 -.42-1.955c1.21-.281 2.655-.792 2.655-1.639 0-.712-.872-.768-1.14-.768-.648 0-1.314.18-2.094.565a1 1 0 0 1 -.886-1.793c1.066-.527 2.013-.772 2.98-.772zm-.066-11a1 1 0 0 1 .709.29l3.157 3.15c.193.193.29.45.29.708a.997.997 0 0 1 -.29.708l-3.157 3.152a1 1 0 0 1 -.709.29.983.983 0 0 1 -.998-.998c0-.257.096-.515.29-.708l1.578-1.576c-4.993-.225-9.407 3.763-9.407 8.942a8.95 8.95 0 0 0 2.223 5.918.982.982 0 0 1 .226.643c0 .579-.42 1.03-1 1.03-.289 0-.579-.13-.74-.355-1.772-1.993-2.706-4.566-2.706-7.203 0-6.111 5.026-11.032 11.146-10.968l-1.32-1.318a.997.997 0 0 1 -.29-.708c0-.579.45-.997.998-.997zm9.471 11c2.32 0 3.995 1.5 3.995 4.02v2.927c0 2.553-1.74 4.02-3.995 4.053-2.255.032-3.962-1.5-3.962-3.989v-3.087c0-2.424 1.772-3.924 3.962-3.924zm0 1.994c-1.385 0-1.997.611-1.997 1.93v3.087c0 1.448.58 2.027 1.997 2.027 1.386 0 2.03-.676 2.03-2.091v-2.927c0-1.447-.58-2.026-2.03-2.026z" fill="#282D37" style="fill: currentColor;fill: var(--db-icon-color, currentColor)" fill-rule="evenodd"/></svg>