<svg id="icon" height="32" viewBox="0 0 32 32" width="32" xmlns="http://www.w3.org/2000/svg"><path d="m9.846 28.784-5.71-4.524a2.985 2.985 0 0 1 -1.116-2.008 2.98 2.98 0 0 1 .628-2.208 2.977 2.977 0 0 1 2.007-1.116 2.98 2.98 0 0 1 2.209.629l3.14 2.487.007-11.996a3.004 3.004 0 0 1 3-2.998 3.006 3.006 0 0 1 3.002 3.002l-.005 7.546a3 3 0 0 1 3.453 1.104c.461-.277.99-.426 1.542-.426h.003c1.013 0 1.91.506 2.453 1.277a2.986 2.986 0 0 1 1.539-.424c.803 0 1.556.312 2.123.881.567.567.879 1.32.878 2.121v3.264c0 1.077-.23 2.099-.683 3.036a1 1 0 1 1 -1.8-.871 4.942 4.942 0 0 0 .484-2.166v-3.263a.994.994 0 0 0 -.293-.708.997.997 0 0 0 -1.414-.001.995.995 0 0 0 -.294.688v.026a1 1 0 0 1 -2-.008v-.043l.006-.815a1 1 0 0 0 -2.001-.013v.025a1 1 0 0 1 -2-.008v-.04l.006-.813a1 1 0 0 0 -2.001.005 1 1 0 1 1 -2 0l.007-10.376a1.001 1.001 0 0 0 -2.001-.001l-.008 14.062a1 1 0 0 1 -1.621.783l-4.76-3.771a1.014 1.014 0 0 0 -.737-.21.993.993 0 0 0 -.669.372 1 1 0 0 0 .163 1.406l5.71 4.523a1 1 0 0 1 -.621 1.784.984.984 0 0 1 -.626-.214zm-.837-14.465a.995.995 0 0 1 -.833-.446 6.961 6.961 0 0 1 -1.168-3.873c0-3.859 3.141-7 7-7s7.001 3.141 7.001 7a6.967 6.967 0 0 1 -1.159 3.858 1 1 0 0 1 -1.668-1.104c.541-.817.827-1.77.827-2.755 0-2.757-2.244-5-5.001-5s-5 2.243-5 5c0 .989.288 1.945.833 2.766a1 1 0 0 1 -.832 1.554z" fill="var(--db-icon-color, currentColor)" fill-rule="evenodd"/></svg>
