<svg id="icon" height="24" viewBox="0 0 24 24" width="24" xmlns="http://www.w3.org/2000/svg"><path d="m14.52 2.207 7.684 7.595a1 1 0 0 1 -1.313 1.504l-.814-.795-3.388 3.356c.288.424.493.872.615 1.342.414 1.7-.115 3.43-1.587 5.188-.63.751-1.225 1.348-1.651 1.693a1 1 0 0 1 -1.238.016l-4.61-4.552-4.432 4.388a1 1 0 0 1 -1.49-1.328l4.5-4.467-4.5-4.454a1 1 0 0 1 -.142-1.245c.248-.391 1.168-1.252 1.785-1.738 1.613-1.27 3.287-1.942 4.962-1.625a4.342 4.342 0 0 1 1.623.675l3.387-3.352-.704-.697a1 1 0 0 1 1.312-1.504z" fill="var(--db-icon-color, currentColor)" fill-rule="evenodd"/></svg>
