<svg id="icon" height="20" viewBox="0 0 20 20" width="20" xmlns="http://www.w3.org/2000/svg"><path d="m18 13.576v1.906c0 .695-.149 1.352-.441 1.954a.999.999 0 0 1 -1.336.464 1.002 1.002 0 0 1 -.464-1.337 2.46 2.46 0 0 0 .241-1.082v-1.906c0-.08-.088-.169-.167-.169a.17.17 0 0 0 -.135.067c-.262.339-.706.491-1.157.393-.442-.095-.778-.411-.876-.825-.029-.119-.252-.123-.295-.07-.258.316-.688.462-1.119.376-.447-.09-.8-.401-.921-.812a.17.17 0 0 0 -.161-.122h-.001c-.147 0-.374.136-.481.234a1.003 1.003 0 0 1 -1.084.184.998.998 0 0 1 -.603-.91v-5.42a.75.75 0 0 0 -1.5-.002v10.501a1 1 0 1 1 -2 0v-.516l-3.121-2.473a1.001 1.001 0 0 1 1.242-1.569l1.879 1.489v-3.916a4.452 4.452 0 0 1 -1.7-3.515c0-2.482 2.018-4.5 4.5-4.5 2.481 0 4.5 2.018 4.5 4.5a4.5 4.5 0 0 1 -1.8 3.596v.323c.056-.004.143-.015.17-.006.589 0 1.139.243 1.538.644.793-.31 1.761-.091 2.338.496a2.21 2.21 0 0 1 2.32.49c.409.409.634.954.634 1.533" fill="var(--db-icon-color, currentColor)" fill-rule="evenodd"/></svg>
