<svg id="icon" height="20" viewBox="0 0 20 20" width="20" xmlns="http://www.w3.org/2000/svg"><path d="m16 12c.531 0 1 .438 1 1v2a3 3 0 0 1 -3 3h-8a3 3 0 0 1 -3-3v-2c0-.563.469-1 1-1 .563 0 1 .438 1 1v2c0 .531.438 1 1 1h8c.563 0 1-.469 1-1v-2c0-.563.438-1 1-1zm-6-10c.563 0 1 .469 1 1v6.594l1.281-1.281c.219-.221.406-.313.719-.313.563 0 1 .469 1 1 0 .188-.063.438-.219.625l-3.062 3.094c-.219.187-.438.281-.688.281s-.5-.094-.719-.281l-3.03-3a.97.97 0 0 1 -.282-.689c0-.593.531-1.03 1.031-1.03.25 0 .5.094.688.313l1.281 1.279v-6.592c0-.531.438-1 1-1z" fill="var(--db-icon-color, currentColor)" fill-rule="evenodd"/></svg>
