<svg id="icon" height="24" viewBox="0 0 24 24" width="24" xmlns="http://www.w3.org/2000/svg"><path d="m19 12c0 3.86-3.14 7-7 7s-7-3.14-7-7 3.14-7 7-7 7 3.14 7 7zm-16 0a9 9 0 0 0 9 9 9 9 0 0 0 9-9 9 9 0 0 0 -9-9 9 9 0 0 0 -9 9zm14.071-2.468a1 1 0 0 0 -1.307-.541.685.685 0 0 1 -.898-.373 1 1 0 1 0 -1.848.766 2.692 2.692 0 0 0 2.483 1.661c.349 0 .696-.068 1.028-.206a1 1 0 0 0 .542-1.307zm-7.544 1.307a2.67 2.67 0 0 0 1.454-1.455 1 1 0 0 0 -1.848-.766.684.684 0 0 1 -.898.373 1 1 0 1 0 -.766 1.848 2.672 2.672 0 0 0 2.057 0zm5.417 5.589c-.031-.013-1.294-.504-2.943-.504-1.662 0-2.931.499-2.944.504a1.003 1.003 0 0 1 -1.363-1.075c.197-1.333 1.352-3.854 4.307-3.854s4.109 2.521 4.307 3.854a.998.998 0 0 1 -.99 1.147.995.995 0 0 1 -.374-.072zm-2.943-2.504c.529 0 1.024.041 1.47.102-.343-.303-.817-.525-1.47-.525s-1.127.223-1.47.525c.446-.061.941-.102 1.47-.102z" fill="var(--db-icon-color, currentColor)" fill-rule="evenodd"/></svg>
