<svg id="icon" height="24" viewBox="0 0 24 24" width="24" xmlns="http://www.w3.org/2000/svg"><path d="m11.028 5c.564 0 .972.469.972 1v12c0 .563-.408 1-.972 1-.188 0-.439-.031-.564-.156l-4.264-2.875h-1.723c-1.38 0-2.477-1.094-2.477-2.5v-2.969c0-1.406 1.097-2.5 2.477-2.5h1.723l4.263-2.844c.157-.093.376-.156.564-.156zm-1.034 2.875-2.947 1.938a.941.941 0 0 1 -.564.187h-2.006a.461.461 0 0 0 -.47.469v3c0 .281.187.5.47.5h2.006c.188 0 .407.094.564.187l2.947 1.969z" fill="#282D37" style="fill: currentColor;fill: var(--db-icon-color, currentColor)" fill-rule="evenodd"/></svg>
