<svg id="icon" height="32" viewBox="0 0 32 32" width="32" xmlns="http://www.w3.org/2000/svg"><path d="m5 16c0-6.0625 4.9062-11 11-11 .9688 0 1.9062.125 2.8438.375.4374.125.7187.5.7187.9375 0 .6875-.5937 1.1563-1.25 1-.75-.2187-1.5313-.3125-2.3125-.3125-4.9688 0-9 4.0312-9 9s4.0312 9 9 9c.7812 0 1.5625-.0938 2.3125-.3125.5625-.125 1.25.2187 1.25 1 0 .4375-.2813.8125-.7187.9375-.9376.25-1.875.375-2.8438.375-6.0938 0-11-4.9375-11-11z" fill="var(--db-icon-color, currentColor)" fill-rule="evenodd"/></svg>
