<svg id="icon" height="64" viewBox="0 0 64 64" width="64" xmlns="http://www.w3.org/2000/svg"><g fill="none" fill-rule="evenodd" transform="translate(8 15)"><path d="m44.848 1.51a1 1 0 0 1 -1.671 1.093l-.064-.098c-.173-.3-.39-.436-.964-.484l-.292-.016-.35-.005-.946.009h-32.608c-1.57 0-2.858 1.245-2.948 2.82l-.005.176v17.986c0 1.598 1.231 2.9 2.78 2.992l.173.005 33.027.003.525.005.356-.006c.758-.026 1.035-.138 1.232-.435l.041-.067a1 1 0 1 1 1.732 1.001c-.638 1.103-1.377 1.436-2.87 1.496l-.449.01h-.24l-.582-.007h-32.772c-2.666 0-4.836-2.123-4.948-4.78l-.005-.218v-17.985c0-2.684 2.1-4.878 4.738-4.992l.215-.003 32.867-.003.241-.004c2.125-.035 3.031.19 3.787 1.507zm.152 17.99c.688 0 1.25.563 1.25 1.25 0 .688-.562 1.25-1.25 1.25-.687 0-1.25-.563-1.25-1.25 0-.688.563-1.25 1.25-1.25zm-6.75 0c.688 0 1.25.563 1.25 1.25 0 .688-.563 1.25-1.25 1.25-.719 0-1.25-.563-1.25-1.25 0-.688.531-1.25 1.25-1.25zm-3.344-13.5c.938 0 1.688.656 1.907 1.594l.093.406h10.594a.98.98 0 0 1 .969 1.219l-1.063 4.562c-.187.75-.75 1.469-1.75 1.563l-7.312.687.187.969h6.969c.563 0 1 .438 1 1 0 .469-.438 1-1 1h-6.906c-1.032 0-1.875-.688-2.032-1.594l-1.686-9.406h-.876c-.563 0-1-.469-1-1s.469-1 1-1zm11.344 4h-9l.75 4.063 7.438-.72zm-38.25 1.759c0-.465.416-.759.808-.759.318 0 .648.193.734.587l.679 3.123.765-3.147c.09-.37.44-.563.759-.563.318 0 .669.186.758.563l.749 3.159.671-3.135c.09-.417.416-.587.734-.587.416 0 .808.294.808.759a.855.855 0 0 1 -.025.22l-1.42 5.458c-.1.39-.44.563-.758.563s-.649-.175-.759-.563l-.783-2.766-.783 2.766c-.112.395-.44.563-.759.563a.775.775 0 0 1 -.758-.587l-1.396-5.434a.87.87 0 0 1 -.024-.22zm8.465 0c0-.465.416-.759.808-.759.318 0 .648.193.734.587l.679 3.123.765-3.147c.09-.37.44-.563.759-.563.318 0 .669.186.758.563l.749 3.159.67-3.135c.09-.417.417-.587.735-.587.416 0 .808.294.808.759a.855.855 0 0 1 -.025.22l-1.42 5.458c-.1.39-.44.563-.758.563s-.649-.175-.759-.563l-.783-2.766-.783 2.766c-.112.395-.44.563-.759.563a.775.775 0 0 1 -.759-.587l-1.395-5.434a.87.87 0 0 1 -.024-.22zm8.465 0c0-.465.416-.759.807-.759.319 0 .649.193.735.587l.679 3.123.765-3.147c.09-.37.44-.563.758-.563.319 0 .67.186.76.563l.748 3.159.67-3.135c.09-.417.417-.587.735-.587.416 0 .808.294.808.759a.855.855 0 0 1 -.025.22l-1.42 5.458c-.1.39-.44.563-.758.563s-.649-.175-.759-.563l-.783-2.766-.783 2.766c-.112.395-.44.563-.759.563a.775.775 0 0 1 -.759-.587l-1.395-5.434a.87.87 0 0 1 -.024-.22z" fill="#282D37" style="fill: currentColor;fill: var(--db-icon-color, currentColor)" fill-rule="nonzero"/><path d="m47 29.998a1 1 0 0 1 .117 1.993l-.117.007h-46a1 1 0 0 1 -.117-1.994l.117-.006z" fill="#EC0016" style="fill:#EC0016;fill: var(--db-icon-pulse-color, #EC0016)"/></g></svg>
