<svg id="icon" height="20" viewBox="0 0 20 20" width="20" xmlns="http://www.w3.org/2000/svg"><path d="m2 14c0 1.094.875 2 2 2h12c1.125 0 2-.906 2-2v-8c0-1.094-.875-2-2-2h-12c-1.125 0-2 .906-2 2zm3.438-6.656c0-1.125.906-2 2-2 1.062 0 2 .812 2 1.968 0 1.125-.876 2.032-2 2.032-1.094 0-2-.906-2-2zm2.906 6c0-.813.625-1.375 1.375-1.375s1.344.625 1.344 1.344c0 .75-.626 1.343-1.344 1.343-.688 0-1.375-.531-1.375-1.312zm1.469-4a2.574 2.574 0 0 1 2.562-2.563 2.574 2.574 0 0 1 2.563 2.563c0 1.344-1.094 2.562-2.563 2.562a2.574 2.574 0 0 1 -2.563-2.562z" fill="#282D37" style="fill: currentColor;fill: var(--db-icon-color, currentColor)" fill-rule="evenodd"/></svg>
