<svg id="icon" height="32" viewBox="0 0 32 32" width="32" xmlns="http://www.w3.org/2000/svg"><path d="m12.045 14c1.632 0 2.856.888 3.174 2.43l.907 4.57h5.618c.471 0 .88.386.974.857l1.38 6.968a1.005 1.005 0 0 1 -.972 1.193c-.503 0-.91-.345-1.005-.816l-1.193-6.202h-5.65c-.47 0-.879-.296-.973-.767l-1.036-5.242c-.126-.628-.565-.991-1.193-.991-.596 0-.753.27-1.161.27-.534 0-.91-.472-.91-1.037 0-.847 1.16-1.233 2.04-1.233zm-9.038-9c2.13 0 3.999 1.66 3.999 4.01v2.85l2.298 11.561c.182.91 1.034 1.579 1.974 1.579h5.726c.564 0 1 .436 1 1s-.436 1-1 1h-5.726a3.976 3.976 0 0 1 -3.916-3.203l-2.33-11.56a3.11 3.11 0 0 1 -.031-.376v-2.851a1.995 1.995 0 0 0 -1.994-2.01.985.985 0 0 1 -1.002-.997 1.01 1.01 0 0 1 1.001-1.003zm20.993 0a1 1 0 0 1 1 1v2h2a1 1 0 0 1 1 1v1a1 1 0 0 1 -1 1h-2v2a1 1 0 0 1 -1 1h-1a1 1 0 0 1 -1-1v-2h-2a1 1 0 0 1 -1-1v-1a1 1 0 0 1 1-1h2v-2a1 1 0 0 1 1-1zm-11.735.753c1.789 0 3.233 1.476 3.233 3.265 0 1.79-1.444 3.264-3.233 3.264a3.262 3.262 0 0 1 -3.265-3.263 3.262 3.262 0 0 1 3.265-3.265zm0 2.01a1.26 1.26 0 0 0 -1.256 1.255c0 .69.565 1.256 1.256 1.256a1.26 1.26 0 0 0 1.255-1.256 1.26 1.26 0 0 0 -1.255-1.256z" fill="#282D37" style="fill: currentColor;fill: var(--db-icon-color, currentColor)" fill-rule="evenodd"/></svg>
