<svg id="icon" height="20" viewBox="0 0 20 20" width="20" xmlns="http://www.w3.org/2000/svg"><path d="m12.2048622 7c.9376 0 1.75.7812 1.5626 1.8438l-.8438 4.3124c-.0312.25-.2188.5-.4688.6563v3.1875c0 .5625-.4374 1-.9687 1-.5625 0-1-.4375-1-1v-4.0625c0-.4063.25-.7813.6563-.9063l.5937-3.0624h-3.46870003l.625 3.0624c.4062.125.6562.5.6562.9063v4.0625c0 .5625-.4375 1-1 1-.5312 0-.9688-.4375-.9688-1v-3.1875c-.25-.1563-.4374-.4063-.4687-.6563l-.875-4.2812c-.1875-.875.5-1.875 1.5937-1.875zm-2.1891622-1.0938c1.0624 0 1.9374-.875 1.9374-1.9374 0-1.0938-.875-1.9688-1.9374-1.9688-1.0938 0-1.9688.875-1.9688 1.9688 0 1.0624.875 1.9374 1.9688 1.9374z" fill="var(--db-icon-color, currentColor)" fill-rule="evenodd"/></svg>
