<svg id="icon" height="32" viewBox="0 0 32 32" width="32" xmlns="http://www.w3.org/2000/svg"><path d="m22.3333333 19c1.832783 0 3.6190348.5594803 5.1216429 1.5994035 1.0017387.6932821 1.7167466 1.2268143 2.1450238 1.6005965.4418278.3313708.5313708.9581722.2 1.4-.3058808.407841-.9189519.5380592-1.2949748.2690296-.250682-.1793531-.9079126-.6690296-1.9716919-1.4690296-1.1308949-.8481712-2.4900752-1.3326451-3.897692-1.3934719l-3.5740885-.0065281c-.7527211 0-1.4088486.5122889-1.5914103 1.2425356-.0816567.3266269.1294637.7055866.516926.7574644h4.0129315c.5522847 0 1 .4477153 1 1 0 .5128358-.4135904.9945357-1 1h-3.9397666c-.8611879-.011756-1.2024299-.1852811-3.1786615-1-.5403475-.2227631-1.5124675-.6092177-2.9163599-1.1593638-1.1256638-.439417-2.39850001-.2656702-3.365212.4593638-.15607115.1170534-.23247993.4803425.09122662.6145642.2090483.0866799 2.65103888.9746764 7.32597178 2.6639898.6572117.2389861 1.3458976.3779155 2.043035.4127324l5.1476105.0087136c.4741343 0 .9473411.037467 1.4152117.1119644l4.5730605.9074549c.5415598.108312.8927765.6351371.7844646 1.1766968-.1005754.5028769-.5941021.8889099-1.1766968.7844646l-4.2232271-.8446454c-.3390092-.0678019-.6824197-.1103645-1.027406-.1274083l-5.143851-.008527c-.9178511 0-1.8295194-.1404004-2.7035159-.4156535l-7.6981434-2.7901954c-.42947902-.1561742-.80419266-.434021-1.07838845-.7996154-.77979507-1.0397268-.5690788-2.5147406.47064795-3.2945357 1.45124667-1.088435 3.3411639-1.3868854 5.0497114-.8107134 2.014977.7831231 3.0224655 1.1746846 3.0224655 1.1746846.233707-1.7490472 1.8769902-3.0639712 3.5278231-3.0639712zm-11.3333333-2c.5522847 0 1 .4477153 1 1s-.4477153 1-1 1-1-.4477153-1-1 .4477153-1 1-1zm3.75-.75c.5522847 0 1 .4477153 1 1s-.4477153 1-1 1-1-.4477153-1-1 .4477153-1 1-1zm-7.5 0c.55228475 0 1 .4477153 1 1s-.44771525 1-1 1-1-.4477153-1-1 .44771525-1 1-1zm3.75-2.25c.5522847 0 1 .4477153 1 1s-.4477153 1-1 1-1-.4477153-1-1 .4477153-1 1-1zm3-1c.5522847 0 1 .4477153 1 1s-.4477153 1-1 1-1-.4477153-1-1 .4477153-1 1-1zm-6 0c.55228475 0 1 .4477153 1 1s-.44771525 1-1 1-1-.4477153-1-1 .44771525-1 1-1zm2.5-10c2.4142733 0 4.3844891 1.90123652 4.495102 4.2881643l.004898 2.7118357c0 1.0543618-.8238197 2-2 2h-4c-1.0543618 0-1.91816512-.8158778-1.99451426-1.8507377l-.00548574-.59863364c0-.30119324-.19108582-.55062866-.5-.55062866h-3.5c-.55228475 0-1-.44771525-1-1 0-.51283584.4164065-1 1-1h3.5c1.3254834 0 2.41003867 1.03153594 2.49468232 2.33562431l.00531768.66437569h4v-2.5c0-1.3254834-1.0315359-2.41003867-2.3356243-2.49468232l-7.6643757-.00531768c-.55228475 0-1-.44771525-1-1 0-.51283584.44548288-1 1-1z" fill="var(--db-icon-color, currentColor)" fill-rule="evenodd"/></svg>
