<svg id="icon" height="24" viewBox="0 0 24 24" width="24" xmlns="http://www.w3.org/2000/svg"><path d="m5 15c0 .2812-.0937.5125-.3062.725-.475.475-.725 1.1188-.725 1.7438 0 1.4062 1.1562 2.5312 2.5312 2.5312.6563 0 1.3-.25 1.8063-.7563.1812-.1812.4125-.2749.6625-.2749.5625 0 1 .4687 1 1 0 .25-.0625.5312-.25.7187-.8438.8437-2 1.3125-3.1875 1.3125-2.5 0-4.5313-2.0312-4.5313-4.5312 0-1.1563.4688-2.2494 1.25-3.1563.188-.2187.4688-.3125.7188-.3125.5625 0 1.0312.4375 1.0312 1zm3.1875-3.25 1.0313 3.25h2.1875c.7812 0 1.2529.3738 1.5312 1.0625l1.8438 4.5625c.0422.1045.0625.2812.0625.375 0 .5625-.4375 1-.9688 1-.4687 0-.815-.3115-.9687-.6875l-1.75-4.3125h-2.75c-.4688 0-.8594-.2763-1-.75l-1.1875-4c-.0199-.067-.0313-.1875-.0313-.25 0-.5938.5-1 1-1 .4688 0 .8636.3159 1 .75zm-1.375-5.75c.8125 0 1.5.6875 1.5 1.5 0 .8438-.6875 1.5-1.5 1.5-.8437 0-1.5-.6562-1.5-1.5 0-.8125.6563-1.5 1.5-1.5zm3.6804385-2.25781735c0-.42737399.382319-.69727168.7421826-.69727168.2924252 0 .5959341.17734078.6748162.53979538l.6240035 2.86976814.7029575-2.89222363c.0824807-.33927939.4048466-.51733989.6971997-.51733989.2924251 0 .6150788.17136704.6972717.51733989l.6876273 2.90287559.6168781-2.8804201c.0824808-.38397444.3823911-.53979538.6747444-.53979538.382319 0 .7421825.26989769.7421825.69727168 0 .06751041-.0045343.13358136-.0224554.20238729l-1.3045055 5.01563468c-.0933487.35899992-.4048465.51733988-.6971997.51733988-.2924252 0-.596222-.16042718-.6972717-.51733988l-.7197272-2.54150058-.7197271 2.54150058c-.1027051.3627425-.4048466.51733988-.6972717.51733988-.2923532 0-.6049307-.18057954-.6971997-.53979537l-1.28205-4.99317919c-.0176334-.06887789-.0224555-.13487688-.0224555-.20238729zm7.1748161 2.54150058c0-2.96887457 1.7542631-3.28368323 2.5190451-3.28368323.4498295 0 .9221145.08996589 1.3494884.29235318.3148088.13494884.4498296.38231907.4498296.62976126 0 .38231908-.2924251.76471011-.6972717.76471011-.0899659 0-.2023873-.02252745-.2923532-.06743843-.2474422-.11249335-.4948844-.17993178-.7422546-.17993178-.3148807 0-1.1470292 0-1.1470292 1.84422889 0 1.77686243.7421827 1.77686243 1.1470292 1.77686243.2698977-.02245549.5397953-.0899659.7871656-.17993179.0899659-.02245549.1799318-.04498295.2698977-.04498295.4049185 0 .6972717.38239105.6972717.76471011 0 .2698977-.1349489.51733989-.4722851.65221676-.4273739.13502082-.8772033.22498671-1.3270328.24744221-.944642 0-2.5415007-.42737399-2.5415007-3.21631677z" fill="var(--db-icon-color, currentColor)" fill-rule="evenodd"/></svg>
