<svg id="icon" height="20" viewBox="0 0 20 20" width="20" xmlns="http://www.w3.org/2000/svg"><path d="m2 7.0312c0-.5938.5312-.9688 1.0312-.9688.4063 0 .828.2464.9376.75l.867 3.9873.9767-4.0185c.1146-.4714.5625-.7188.9687-.7188.4063 0 .8546.2381.9688.7188l.9554 4.0333.8571-4.0021c.1146-.5335.5313-.75.9375-.75.5312 0 1.0312.375 1.0312.9688 0 .0938-.0063.1856-.0312.2812l-1.8125 6.9688c-.1297.4988-.5625.7188-.9687.7188-.4063 0-.8284-.2229-.9688-.7188l-1-3.5312-1 3.5312c-.1427.504-.5625.7188-.9688.7188-.4062 0-.8405-.2509-.9687-.75l-1.7813-6.9376c-.0245-.0957-.0312-.1874-.0312-.2812zm9.9688 3.5312c0-4.125 2.4374-4.5624 3.5-4.5624.625 0 1.2812.125 1.875.4062.4374.1875.625.5312.625.875 0 .5312-.4063 1.0625-.9688 1.0625-.125 0-.2812-.0313-.4062-.0937-.3438-.1563-.6876-.25-1.0313-.25-.4375 0-1.5937 0-1.5937 2.5624 0 2.4688 1.0312 2.4688 1.5937 2.4688.375-.0312.75-.125 1.0937-.25.125-.0312.25-.0625.375-.0625.5626 0 .9688.5313.9688 1.0625 0 .375-.1875.7188-.6562.9062-.5938.1876-1.2188.3126-1.8438.3438-1.3125 0-3.5312-.5938-3.5312-4.4688z" fill="var(--db-icon-color, currentColor)" fill-rule="evenodd"/></svg>
