<svg id="icon" height="20" viewBox="0 0 20 20" width="20" xmlns="http://www.w3.org/2000/svg"><path d="m12.5380853 10c1.7320635.0160649 3.4113825.6508241 4.6830638 1.8163233l.4859577.4765699c.3905243.3905243.3905243 1.0236893 0 1.4142136-.360484.3604839-.927715.3882135-1.3200062.0831886l-.3598544-.3488356c-.8645693-.8645693-2.0315056-1.4142136-3.2280091-1.4550062s-1.4633947.0036645-1.8057645.000489-.6481907.2057382-.7292291.5383941c-.0247299.1015139.0379761.2110594.1663647.2331543.0855924.01473.9727895.096879 2.6615912.246447.5499324.0509203.9544615.5380077.9035412 1.08794-.0472832.5106514-.4550915.9370193-.9711954.9075944-.5161039-.0294248-2.2821266-.1983591-2.7783359-.2505003s-.93083051-.2084797-1.45235448-.3735558c-.34768264-.1100506-1.44448411-.4521258-3.29040441-1.0262254-.53779751-.1660344-1.12250824.0118764-1.47668664.4493135-.05771612.0712838-.0546186.2069057.11239639.2714642.11134332.043039 1.39133333.5328048 3.83997003 1.4692973.69712653.2659397 1.43163678.4184688 2.17562721.4524458l6.8452426.0072883c.5522847 0 1 .4477153 1 1 0 .5128358-.4266938 1-1 1h-6.5258905c-.97453659 0-2.09076161-.1774831-2.86412913-.4678977-.51557835-.1936098-1.92430833-.7283698-4.22618996-1.6042799-.21373385-.0815351-.41320271-.1964127-.59099111-.3403621-.92974464-.7527836-1.07319997-2.1167421-.32041644-3.0464868.82507225-1.0190267 2.16032676-1.4637054 3.42245963-1.1565536l2.4102296.7381854c.31623807-1.24624 1.31113013-2.0587398 2.50970931-2.1226053zm-6.2880853-2.25c.41421356 0 .75.33578644.75.75s-.33578644.75-.75.75-.75-.33578644-.75-.75.33578644-.75.75-.75zm3.5-.75c.4142136 0 .75.33578644.75.75s-.3357864.75-.75.75c-.41421356 0-.75-.33578644-.75-.75s.33578644-.75.75-.75zm-7.00008579-.0338617c.41421357 0 .75.33578644.75.75 0 .41421357-.33578643.75-.75.75-.41421356 0-.75-.33578643-.75-.75 0-.41421356.33578644-.75.75-.75zm3.50008579-1.9661383c.41421356 0 .75.33578644.75.75s-.33578644.75-.75.75-.75-.33578644-.75-.75.33578644-.75.75-.75zm3-.5c.41421356 0 .75.33578644.75.75s-.33578644.75-.75.75-.75-.33578644-.75-.75.33578644-.75.75-.75zm-6-.02154559c.41421356 0 .75.33578643.75.75 0 .41421356-.33578644.75-.75.75s-.75-.33578644-.75-.75c0-.41421357.33578644-.75.75-.75zm3-2.22845441c.41421356 0 .75.33578644.75.75s-.33578644.75-.75.75-.75-.33578644-.75-.75.33578644-.75.75-.75zm-2.51031083-.25c.41421356 0 .75.33578644.75.75s-.33578644.75-.75.75-.75-.33578644-.75-.75.33578644-.75.75-.75zm5.01031083 0c.41421356 0 .75.33578644.75.75s-.33578644.75-.75.75-.75-.33578644-.75-.75.33578644-.75.75-.75z" fill="var(--db-icon-color, currentColor)" fill-rule="evenodd"/></svg>
