<svg id="icon" height="32" viewBox="0 0 32 32" width="32" xmlns="http://www.w3.org/2000/svg"><path d="m14.7586971 23c1.3822537 0 2.4185572 1.2606109 2.2161154 2.6370024l-.489233 3.507963c-.0800622.5464508-.5879514.9245335-1.1344022.8444713s-.9245335-.5879513-.8444713-1.1344021l.4893138-3.5085134c.0246722-.1677449-.0704064-.3465212-.2700677-.3465212h-9.48424741c-.1380247 0-.26538063.1544656-.238065.3460599l.48506977 3.5118519c.07847315.5466813-.30108452 1.053469-.84776579 1.1319422-.5076326.0728679-.98086726-.2491989-1.10871225-.7332838l-.50843463-3.6272768c-.20493783-1.3780059.87312993-2.6241868 2.06612845-2.6241868.79533234 0 4.01825629-.0017022 9.66877186-.0051066zm-4.7586971-12c2.7614237 0 5 2.2385763 5 5s-2.2385763 5-5 5c-2.76142375 0-5-2.2385763-5-5s2.23857625-5 5-5zm0 2c-1.65685425 0-3 1.3431458-3 3s1.34314575 3 3 3c1.6568542 0 3-1.3431458 3-3s-1.3431458-3-3-3zm13.1521143 4.4700756c.2925514-.4682904.9094935-.610576 1.3779558-.3180401.4683012.2923746.6108969.9091648.3181843 1.377294-.2927126.4681291-.9094935.610576-1.3779559.3180401-.4684623-.2925359-.6108968-.9091649-.3181842-1.377294zm-5.0165065-.9734214c.2773366-.47699.8892563-.6385732 1.3666129-.3605953.4775847.2779779.6397445.890077.3621798 1.367067-.2775647.4772183-.8894844.6388015-1.366841.3608236s-.6395165-.8900771-.3619517-1.3672953zm10 0c.2773366-.47699.8892563-.6385732 1.3666129-.3605953.4775847.2779779.6397445.890077.3621798 1.367067-.2775647.4772183-.8894844.6388015-1.366841.3608236s-.6395165-.8900771-.3619517-1.3672953zm-4.9834935-2.0265786c.2925514-.4682904.9094935-.610576 1.3779558-.3180401.4683012.2923746.6108969.9091648.3181843 1.377294-.2927126.4681291-.9094935.610576-1.3779559.3180401-.4684623-.2925359-.6108968-.9091649-.3181842-1.377294zm-4.0165065-.9734214c.2773366-.47699.8892563-.6385732 1.3666129-.3605953.4775847.2779779.6397445.890077.3621798 1.367067-.2775647.4772183-.8894844.6388015-1.366841.3608236s-.6395165-.8900771-.3619517-1.3672953zm8.3610653-.3612006c.4771879-.2773482 1.0894765-.1151816 1.3674367.3621949.2777321.4773765.1161591 1.0893216-.3608006 1.3668979-.477188.2773482-1.0892483.1151816-1.3672086-.3621949-.2779603-.4776046-.1166155-1.0895497.3605725-1.3668979zm-4.3446456-1.6654856c.2927396-.4681572.9097106-.6104689 1.3778589-.317937.4686323.2923703.6110518.9090186.3183122 1.3771758-.2925784.4683184-.9095493.6106301-1.3780203.3180984-.4683097-.2923705-.6107292-.9090188-.3181508-1.3773372zm-3.0165739-.9731064c.2773482-.4772062.8895214-.6387854 1.3668979-.3608145s.6395431.8900546.3621949 1.3672609c-.2775763.4772062-.8895214.6385571-1.3668979.3605862-.4773765-.2777427-.6395431-.8900546-.3621949-1.3670326zm6.3611985-.3612469c.4772163-.27757886 1.0893128-.1154108 1.3672896.36197.2779767.4773808.1163942 1.0893315-.3605938 1.3669103-.4772163.2773507-1.0893128.1154107-1.3672896-.3621982-.2779767-.4773808-.1163942-1.0893314.3605938-1.3666821zm-2.4966521-8.1356147c.5128358 0 1 .40974158 1 1l.0007904 2.54292822c1.120166.09611753 2.2376925.35350239 3.350333.7707426.5171204.19392012.7791259.7703323.5852058 1.28745262-.1939201.51712033-.7703323.77912586-1.2874526.58520574-1.2228831-.45858116-2.4375392-.68632918-3.6488766-.68632918s-2.4259935.22774802-3.6488766.68632918c-.5171203.19392012-1.0935325-.06808541-1.2874526-.58520574-.1939201-.51712032.0680854-1.0935325.5852058-1.28745262 1.1129717-.41736439 2.2308322-.67477826 3.3513331-.77082837l-.0002097-2.54284245c0-.55228475.4477153-1 1-1z" fill="var(--db-icon-color, currentColor)" fill-rule="evenodd"/></svg>
