<svg id="icon" height="20" viewBox="0 0 20 20" width="20" xmlns="http://www.w3.org/2000/svg"><path d="m4.09768507 12.1987634c.40725566.3066597.54449764.9393197.19732377 1.4003797-.19427455.2580039-.30046224.5700538-.30046224.9008569 0 .8284271.67157286 1.5 1.5 1.5.2811199 0 .60416002-.0710144.91591773-.3119516.43699185-.3377227 1.06502202-.257249 1.40274463.1797428.33772262.4369919.257249 1.065022-.17974285 1.4027446-.60793193.4698311-1.35501239.7294642-2.13891951.7294642-1.93299664 0-3.5-1.5670034-3.5-3.5 0-.7686251.249591-1.5020891.70275876-2.1039129.33221472-.4411936.95918608-.5295385 1.40037971-.1973237zm2.85099823-2.0149912c.25927029.7710457.51662892 1.5431216.77207591 2.3162278h1.11984463c.74671912 0 1.49357906.4120436 1.83829006 1.2121614.4151062.9635139.8285232 1.9281537 1.2402511 2.8939193.2175557.5076298-.0175959 1.0955087-.5252257 1.3130643-.4713705.202016-1.0866855 0-1.3130643-.5252257-.41523662-.963398-.82865366-1.9280377-1.24025114-2.8939193h-1.11984464c-.807057 0-1.52922649-.4841544-1.84065417-1.2176009l-.82878835-2.4661713c-.17464777-.5239434.10851222-1.09026333.63245554-1.2649111.48651879-.16217293 1.07489619.06736907 1.26491106.6324555zm-1.45399378-3.91845074c.62371906 0 1.15148134.52776228 1.15148134 1.15148134 0 .64774664-.52776228 1.15148134-1.15148134 1.15148134-.64766987 0-1.15148134-.5037347-1.15148134-1.15148134 0-.62371906.50381147-1.15148134 1.15148134-1.15148134zm1.91221658-3.60021382c0-.3986305.35660581-.65037594.69226639-.65037594.27275778 0 .55585392.16541354.62943071.50349088l.58203545 2.67675886.65567938-2.69770409c.07693337-.31646079.37761817-.48254565.65030877-.48254565.2727578 0 .5737111.15984157.650376.48254565l.6413802 2.70763964.5753893-2.68669441c.0769335-.35814984.356673-.50349088.6293637-.50349088.3566058 0 .6922663.25174544.6922663.65037594 0 .06296993-.0042293.12459721-.0209452.18877552l-1.2167696 4.67830289c-.0870704.334855-.3776181.48254565-.6503088.48254565-.2727578 0-.5561224-.14963748-.6503759-.48254565l-.6713212-2.37056928-.67132114 2.37056928c-.09579754.33834587-.37761816.48254565-.65037595.48254565-.27269065 0-.56424543-.16843448-.6503088-.50349086l-1.19582438-4.65735768c-.01644737-.06424544-.02094523-.12580559-.02094523-.18877552zm6.6000271 2.33940321c0-2.7404996 1.6193197-3.03109221 2.3252724-3.03109221.4152272 0 .8511826.08304544 1.2456816.26986447.2905927.12456816.4152273.35290991.4152273.58131809 0 .35290992-.2699309.70588626-.6436354.70588626-.0830455 0-.1868191-.02079457-.2698645-.06225086-.2284082-.10384002-.4568164-.16609088-.6851581-.16609088-.2906591 0-1.0587962 0-1.0587962 1.70236513 0 1.64018071.6850917 1.64018071 1.0587962 1.64018071.2491363-.02072815.4982726-.08304545.7266144-.16609089.0830454-.02072814.1660909-.04152272.2491363-.04152272.3737709 0 .6436354.35297635.6436354.70588626 0 .24913633-.1245682.47754451-.4359554.60204624-.394499.1246346-.8097262.20768004-1.2249534.22840819-.8719772 0-2.3460006-.39449907-2.3460006-2.96890779z" fill="var(--db-icon-color, currentColor)" fill-rule="evenodd"/></svg>
