<svg id="icon" height="32" viewBox="0 0 32 32" width="32" xmlns="http://www.w3.org/2000/svg"><path d="m13 23.0206539c2.1421954 0 4.0669561 1.8342556 4 4 .0014823.6597775.0014823 1.3195596 0 1.9793461 0 .5522847-.4477153 1-1 1-.5128358 0-1-.4147834-1-1-.0021177-.6597668-.0021177-1.3195488 0-1.9793461 0-1.0543617-.9219913-2-2-2-1.9952733-.0017839-3.99067808-.0017839-5.98621431 0-1.05436179 0-2.01378569.8246661-2 2-.00170033.6597743-.00170033 1.3195563 0 1.9793461 0 .5522847-.44771525 1-1 1-.51283584 0-1-.4097394-1-1-.00211775-.6597668-.00211775-1.3195488 0-1.9793461 0-2.1421953 1.72428411-4 4-4 1.99532706-.001579 3.99073181-.001579 5.98621431 0zm-3-12.0206539c2.7614237 0 5 2.2385763 5 5s-2.2385763 5-5 5c-2.76142375 0-5-2.2385763-5-5s2.23857625-5 5-5zm0 2c-1.65685425 0-3 1.3431458-3 3s1.34314575 3 3 3c1.6568542 0 3-1.3431458 3-3s-1.3431458-3-3-3zm13.1521143 4.4700756c.2925514-.4682904.9094935-.610576 1.3779558-.3180401.4683012.2923746.6108969.9091648.3181843 1.377294-.2927126.4681291-.9094935.610576-1.3779559.3180401-.4684623-.2925359-.6108968-.9091649-.3181842-1.377294zm-5.0165065-.9734214c.2773366-.47699.8892563-.6385732 1.3666129-.3605953.4775847.2779779.6397445.890077.3621798 1.367067-.2775647.4772183-.8894844.6388015-1.366841.3608236s-.6395165-.8900771-.3619517-1.3672953zm10 0c.2773366-.47699.8892563-.6385732 1.3666129-.3605953.4775847.2779779.6397445.890077.3621798 1.367067-.2775647.4772183-.8894844.6388015-1.366841.3608236s-.6395165-.8900771-.3619517-1.3672953zm-4.9834935-2.0265786c.2925514-.4682904.9094935-.610576 1.3779558-.3180401.4683012.2923746.6108969.9091648.3181843 1.377294-.2927126.4681291-.9094935.610576-1.3779559.3180401-.4684623-.2925359-.6108968-.9091649-.3181842-1.377294zm-4.0165065-.9734214c.2773366-.47699.8892563-.6385732 1.3666129-.3605953.4775847.2779779.6397445.890077.3621798 1.367067-.2775647.4772183-.8894844.6388015-1.366841.3608236s-.6395165-.8900771-.3619517-1.3672953zm8.3610653-.3612006c.4771879-.2773482 1.0894765-.1151816 1.3674367.3621949.2777321.4773765.1161591 1.0893216-.3608006 1.3668979-.477188.2773482-1.0892483.1151816-1.3672086-.3621949-.2779603-.4776046-.1166155-1.0895497.3605725-1.3668979zm-4.3446456-1.6654856c.2927396-.4681572.9097106-.6104689 1.3778589-.317937.4686323.2923703.6110518.9090186.3183122 1.3771758-.2925784.4683184-.9095493.6106301-1.3780203.3180984-.4683097-.2923705-.6107292-.9090188-.3181508-1.3773372zm-3.0165739-.9731064c.2773482-.4772062.8895214-.6387854 1.3668979-.3608145s.6395431.8900546.3621949 1.3672609c-.2775763.4772062-.8895214.6385571-1.3668979.3605862-.4773765-.2777427-.6395431-.8900546-.3621949-1.3670326zm6.3611985-.3612469c.4772163-.27757886 1.0893128-.1154108 1.3672896.36197.2779767.4773808.1163942 1.0893315-.3605938 1.3669103-.4772163.2773507-1.0893128.1154107-1.3672896-.3621982-.2779767-.4773808-.1163942-1.0893314.3605938-1.3666821zm-2.4966521-8.1356147c.5128358 0 1 .40974158 1 1l.0007904 2.54292822c1.120166.09611753 2.2376925.35350239 3.350333.7707426.5171204.19392012.7791259.7703323.5852058 1.28745262-.1939201.51712033-.7703323.77912586-1.2874526.58520574-1.2228831-.45858116-2.4375392-.68632918-3.6488766-.68632918s-2.4259935.22774802-3.6488766.68632918c-.5171203.19392012-1.0935325-.06808541-1.2874526-.58520574-.1939201-.51712032.0680854-1.0935325.5852058-1.28745262 1.1129717-.41736439 2.2308322-.67477826 3.3513331-.77082837l-.0002097-2.54284245c0-.55228475.4477153-1 1-1z" fill="var(--db-icon-color, currentColor)" fill-rule="evenodd"/></svg>
