<svg id="icon" height="20" viewBox="0 0 20 20" width="20" xmlns="http://www.w3.org/2000/svg"><path d="m6.52162403 6.75005775c1.51837597 0 2.72837597 1.20994225 2.72831741 2.72831741.00979525 1.51788974-1.21046165 2.75751574-2.72831741 2.77162484-1.5263282-.0105656-2.76105927-1.2452966-2.77162403-2.77162484.014176-1.51782702 1.25376198-2.73804448 2.77162403-2.72831741zm7.55949597 3.25481415c.4034973-.0931997.8061386.1585249.8994377.5621052.0932992.4034092-.1581805.8061344-.5616777.8991631-.4034973.0930286-.8061386-.158525-.8994377-.5621052-.0932992-.4035803.1581805-.8061345.5616777-.8991631zm2.7913848-.40328169c.357891-.20801116.8171074-.08638622 1.0255776.27164615.208299.35803234.0871193.81699124-.2706005 1.02517344-.357891.2080112-.8169362.0863862-1.0254064-.2716462-.2084703-.3582034-.0874617-.81716223.2704293-1.02517339zm-6.270799.26932189c.2080025-.35774251.6669423-.47892992 1.0249597-.27044649.3581885.20848343.4798084.66755779.2716349 1.02530029-.2081736.3579137-.6671133.4791011-1.0251308.2706177-.3580174-.2084835-.4796373-.6675578-.2714638-1.0254715zm3.4794563-2.17478771c.4035265-.09302921.8061969.15869688.8993316.56210846.093477.40358258-.1580208.80613911-.5615473.89916832-.4035264.09320021-.8061969-.15852587-.8995027-.56210846-.0933059-.40341158.1581919-.80596811.5617184-.89916832zm-2.7295719-.07347821c.2080112-.35790467.6671411-.47908903 1.0251734-.27061085.3580324.20847819.4796574.66754098.2716462 1.02544564-.2081822.35790466-.6671411.47891786-1.0251734.27043968-.3580324-.20830702-.4796574-.66754098-.2716462-1.02527447zm4.7708989-.27093519c.3579122-.20818411.8169846-.08655806 1.0254672.27147755.2084825.35803561.0872956.8169986-.2704454 1.02518271-.3579122.20801304-.8169846.08655806-1.0254672-.27164862-.2084825-.35803561-.0872956-.8169986.2704454-1.02501164zm-1.8724891-5.35171099c.5128358 0 .9998627.42860184.9998627 1v1.324l.4138514.05082512.9812973.1357449c.5464471.08008759.9245062.58799431.8444186 1.1344414s-.5879943.92450616-1.1344414.84441856l-1.2658321-.16995187c-.2829771-.04631874-.5637871-.06947811-.8424301-.06947811s-.5572706.02315937-.8358829.06947811l-1.2658321.16995187c-.5464471.0800876-1.0543538-.29797147-1.1344414-.84441856s.2979715-1.05435381.8444186-1.1344414l.9812973-.1357449.4135768-.04882512.0001373-1.326c0-.55228475.4477153-1 1-1zm-4.97437604 11.999875c1.22437604 0 1.71950644 1.1849437 1.40268774 2.0319542-.1622308.4337214-.3266133.8672767-.4931476 1.3006658-.19582225.5164769-.77325477.7764188-1.28973164.5805965-.47958566-.1818349-.77358174-.749061-.58059655-1.2897316.07646629-.2079316.15485432-.4157182.23516409-.6233599h-4.107l.24343565.6488045c.18010565.4802378-.02469243 1.0774065-.58524014 1.2876312-.48023776.1801056-1.08316785-.047257-1.28763116-.5852402-.16771202-.4412833-.3332802-.8827581-.49670453-1.3244242-.43638287-1.1635811.54396143-2.0258592 1.40459496-2.0268963 1.85114791-.0022307 3.70253764-.0022307 5.55416918 0z" fill="var(--db-icon-color, currentColor)" fill-rule="evenodd"/></svg>
