<svg id="icon" height="20" viewBox="0 0 20 20" width="20" xmlns="http://www.w3.org/2000/svg"><path d="m8.5 14c.91016876 0 1.6009818.6459435 1.906914 1.4211063l.5694002 1.3619593c.1198096.5392035-.2201764 1.0734391-.7593798 1.1932486-.53920349.1198096-1.00570428-.3167503-1.19324864-.7593798l-.54013999-1.2168094h-3.98354577l-.52385157 1.2175543c-.23137185.5089201-.65471582.8786901-1.19382771.7584691-.53911189-.1202209-.87869009-.6547158-.75846915-1.1938277l.55359188-1.3452577c.24155099-.6721495.95890303-1.437063 1.92255655-1.437063zm-1.97837597-7.24994225c1.51837597 0 2.72837597 1.20994225 2.72831741 2.72831741.00979525 1.51788974-1.21046165 2.75751574-2.72831741 2.77162484-1.5263282-.0105656-2.76105927-1.2452966-2.77162403-2.77162484.014176-1.51782702 1.25376198-2.73804448 2.77162403-2.72831741zm8.45893367 3.81691935c.0932992.4034092-.1581805.8061344-.5616777.8991631-.4034973.0930286-.8061386-.158525-.8994377-.5621052-.0932992-.4035803.1581805-.8061345.5616777-.8991631.4034973-.0931997.8061386.1585249.8994377.5621052zm2.9175247-.69374074c.208299.35803234.0871193.81699124-.2706005 1.02517344-.357891.2080112-.8169362.0863862-1.0254064-.2716462-.2084703-.3582034-.0874617-.81716223.2704293-1.02517339s.8171074-.08638622 1.0255776.27164615zm-6.2714169-.27277075c.3581885.20848343.4798084.66755779.2716349 1.02530029-.2081736.3579137-.6671133.4791011-1.0251308.2706177-.3580174-.2084835-.4796373-.6675578-.2714638-1.0254715.2080025-.35774251.6669423-.47892992 1.0249597-.27044649zm3.3538282-1.34223276c.093477.40358258-.1580208.80613911-.5615473.89916832-.4035264.09320021-.8061969-.15852587-.8995027-.56210846-.0933059-.40341158.1581919-.80596811.5617184-.89916832.4035265-.09302921.8061969.15869688.8993316.56210846zm-2.6037301-.90619752c.3580324.20847819.4796574.66754098.2716462 1.02544564-.2081822.35790466-.6671411.47891786-1.0251734.27043968-.3580324-.20830702-.4796574-.66754098-.2716462-1.02527447.2080112-.35790467.6671411-.47908903 1.0251734-.27061085zm4.7711927.27115321c.2084825.35803561.0872956.8169986-.2704454 1.02518271-.3579122.20801304-.8169846.08655806-1.0254672-.27164862-.2084825-.35803561-.0872956-.8169986.2704454-1.02501164.3579122-.20818411.8169846-.08655806 1.0254672.27147755zm-2.8979563-5.62318854c.5128358 0 .9998627.42860184.9998627 1v1.324l.4138514.05082512.9812973.1357449c.5464471.08008759.9245062.58799431.8444186 1.1344414s-.5879943.92450616-1.1344414.84441856l-1.2658321-.16995187c-.2829771-.04631874-.5637871-.06947811-.8424301-.06947811-.185762 0-.3715172.01029305-.5572655.03087916l-1.5444495.20855082c-.5464471.0800876-1.0543538-.29797147-1.1344414-.84441856s.2979715-1.05435381.8444186-1.1344414l.9812973-.1357449.4135768-.04882512.0001373-1.326c0-.55228475.4477153-1 1-1z" fill="var(--db-icon-color, currentColor)" fill-rule="evenodd"/></svg>
