<svg id="icon" height="24" viewBox="0 0 24 24" width="24" xmlns="http://www.w3.org/2000/svg"><path d="m19.3975829 13c1.4457906 0 2.6024171 1.1552053 2.6024171 2.5751766v4.4248234c0 .5-.5 1-1 1l-1-.0012381c0 .55-.4457813 1-1 1h-3c-.55 0-1-.45-1-1h-6c0 .55-.45 1-1.00023598 1h-3.01181293c-.55421668 0-.98795109-.45725-.98795109-1.0108423l-1 .0120804c-.5 0-1-.5-1-1v-4.4248234c0-1.4199713 1.15662646-2.5751766 2.60240904-2.5751766zm.010758 1.9940601-.0331531.0003019-.2314589.0008423c-.0361915.0000882-.0757427.0001748-.1185222.0002595l-.4686252.0007151c-.060965.0000742-.1247635.0001466-.191264.0002172l-.9192885.0007628c-.0860127.0000565-.1742012.0001113-.2644342.0001642l-2.4907724.0009324c-.1145254.0000247-.2300428.0000476-.3464209.0000688h-4.3340999c-.11809164-.0000212-.23546548-.0000441-.35198998-.0000688l-2.56617004-.0009324c-.09451694-.0000529-.18713228-.0001077-.27771448-.0001642l-.98097741-.0007628c-.07221253-.0000706-.14186578-.000143-.20882822-.0002172l-.52645867-.0007151c-.04963377-.0000847-.09618213-.0001713-.13951355-.0002595l-.29957382-.0008423c-.02284594-.0000989-.04208034-.0001995-.05757165-.0003019-.37408372 0-.60150378.3145674-.60150378.661633v2.3443069h16v-2.4254694c0-.2925087-.2241848-.5804705-.5916591-.5804705zm-14.0869991-12.9940601c.31273069 0 .59589515.18032541.71294598.49012804l2.2725287 6.01551295c.12719191.33672647.06684538.62381881-.53469163.62381881-.53469163 0-.7340137-.13419068-.86891854-.46784625l-.42328266-1.04717289h-2.65124777l-.3565087.95804571c-.15004503.40328618-.35643728.55697343-.89120033.55697343-.53469163 0-.66366894-.26552471-.53469163-.60153701l2.31709229-6.03779475c.10098223-.26309656.33329849-.49012804.6238188-.49012804zm14.9810437-.00170211c.4016415 0 .7809695.044635 1.1602976.13390501.3347012.044635.5578354.35708002.535522.69180684 0 .42406824-.1561939.64724325-.7140293.53562004-.3123878-.08927001-.6247757-.1338336-.9594769-.1338336-1.4280586 0-1.8966403.80343006-1.8966403 2.34330197 0 1.4283201.4462683 2.32102016 1.8743269 2.32102016.3570146 0 .7140293-.06698821 1.0487305-.15625821.4462683-.1115518.6917159.04470641.6917159.46870324.0446268.33472681-.1785073.64724325-.4908951.71416005-.4239549.13390501-.8702232.20089322-1.3164916.20089322-2.1644013 0-3.2354452-1.2721333-3.2354452-3.50388346 0-2.27638517 1.1156708-3.61543526 3.3023855-3.61543526zm-9.7422468.00206878.0881561.0038854h2.0082074c1.3388049 0 2.2313415.51333824 2.2313415 1.78540013 0 .75886647-.2900744 1.2052165-1.1602976 1.51759011.9371635.04470642 1.6511928.82578326 1.5842525 1.76311833 0 1.3836851-1.0264171 2.03092836-2.6776098 2.03092836h-1.985894c-.3793281.04456358-.66940249-.26781002-.6470891-.64724326v-5.82490363c-.02231339-.35708002.2900744-.66945363.6470891-.62489004zm2.084854 3.9480933h-1.2272379v2.03092835h1.0487306c.9371634 0 1.4057451-.24552822 1.4057451-1.04895828 0-.64717184-.3347012-.98197007-1.2272378-.98197007zm-7.40038118-2.04428315-.94690481 2.65131919h1.89373821zm7.33344088-.74536885h-1.1602976v1.62914191h1.1156708c.5801488 0 1.0041037-.2008218 1.0041037-.84799364 0-.51333825-.2231341-.78114827-.9594769-.78114827z" fill="var(--db-icon-color, currentColor)" fill-rule="evenodd"/></svg>
