<svg id="icon" height="20" viewBox="0 0 20 20" width="20" xmlns="http://www.w3.org/2000/svg"><path d="m2 15.7698426c0-.5076251.37118425-1.0348784.95726436-1.0348784.1172159 0 .21489665.0195279.3516487.0585837.42979231.1366953.89865691.2148069 1.36752051.2148069.66422511 0 1.44566512-.1366953 1.44566512-.8005436 0-.3710301-.17582436-.5271531-1.13308871-.937239-.89865691-.37103-2.26617742-.9567668-2.26617742-2.6164377 0-1.60108729 1.32844921-2.67502148 3.28205023-2.67502148.60561665 0 1.23076846.11716738 1.79731281.31244635.4688646.17565093.66422511.54668097.66422511.91771102 0 .50762518-.37118486 1.03477821-.95726536 1.03477821-.1172159 0-.2344318-.0195279-.3516477-.0585837-.37118486-.1365951-.76190486-.19517878-1.15262486-.19517878-.31257641 0-1.26984077.03905578-1.26984077.66384838 0 .2733905.1172159.3905579 1.03540896.7810157.93772821.4100859 2.36385717 1.0153505 2.36385717 2.7921889 0 1.6791988-1.36752051 2.7726609-3.45787458 2.7726609-.68376025 0-1.36752051-.0976395-2.03174562-.3124464-.44932785-.1756509-.64468795-.5466809-.64468795-.917711zm.52747205-11.77402c0-.54668097.44932846-.9958226.99633666-.9958226 6.85714069 0 14.47619129 5.95540773 14.47619129 9.9776538 0 3.7880114-4.3565375 4.0028183-6.8180734 4.0223462h-.4297923c-.5665444 0-1.01587283-.4491416-1.01587283-.9958226s.44932843-.9958226 1.01587283-.9958226c4.8253951 0 5.2356562-1.0153505 5.2356562-2.030701 0-2.4992704-6.25152903-7.9664807-12.46398179-7.9664807-.5470082 0-.99633666-.44904148-.99633666-1.0153505z" fill="var(--db-icon-color, currentColor)" fill-rule="evenodd"/></svg>
