<svg id="icon" height="20" viewBox="0 0 20 20" width="20" xmlns="http://www.w3.org/2000/svg"><path d="m2 16c0-.5463.4488-1 1.0146-1h7.7464c4.839 0 5.239-.9659 5.239-2 0-2.4976-6.2537-8-12.439-8h-.561c-.5658 0-1-.4585-1-1.0048 0-.5464.4342-.9952 1-.9952h.561c6.8292 0 14.439 5.9804 14.439 10 0 2.8134-2.4 4-7.239 4h-7.7464c-.5658 0-1.0146-.4536-1.0146-1zm0-8.8634v2.6028c0 .6346.4796 1.0914 1.1419 1.0946 3.9945.0189 5.4593.2356 7.536.8965.352.1125.7095.0285.9726-.2347l.4958-.4958c.2147-.2146.3122-.5073.2927-.8-.0195-.2926-.1951-.5658-.4292-.7219-2.6147-1.9317-5.7171-3.0634-8.9561-3.2781-.5464-.039-1.0537.3889-1.0537.9366z" fill="var(--db-icon-color, currentColor)" fill-rule="evenodd"/></svg>
