<svg id="icon" height="24" viewBox="0 0 24 24" width="24" xmlns="http://www.w3.org/2000/svg"><path d="m3.65517283 20.4261666c-.46798059-.1871843-.65517283-.5382296-.65517283-.9125981 0-.5148065.42118253-1.0529364.98275824-1.0529364.11699515 0 .21059127.0468459.32758642.0701692.58497573.2106072 1.21674853.3041994 1.84852233.3041994.95935921 0 2.10591166-.2339305 2.10591166-1.3102899 0-.6552446-.35098544-.8891751-1.61453204-1.4507278-1.14655245-.4680604-2.71428643-1.1466282-2.71428643-3.0887397 0-1.8719423 1.56773398-3.11206297 3.88423691-3.11206297.74876795 0 1.49753689.11701508 2.22290681.39779147.4679796.1637613.6551718.5382295.6551718.8891751 0 .5148065-.3743844 1.0529364-.95935919 1.0529364-.09359612 0-.23399029-.023423-.35098544-.0701692-.49137962-.1871843-1.0295563-.2807764-1.56773398-.2807764-.44458156 0-1.89532039.0701692-1.89532039 1.1231056 0 .5615528.35098544.77216 1.49753689 1.2869665 1.12315242.4679607 2.83128061 1.2167974 2.83128061 3.252501 0 1.9888577-1.61453208 3.2758243-4.09482721 3.2758243-.84236407 0-1.68472913-.1170151-2.50369416-.3743685zm-.18719224-15.44339939c0-.56155278.44458056-.98276721.98275824-.98276721 8.44704437 0 17.54926117 7.0899777 17.54926117 12.073983 0 4.4691986-5.2881777 4.7265521-7.9790641 4.7265521h-.4211825c-.561576 0-1.0061573-.4445377-1.0061573-1.0061902 0-.5147069.4445813-.9593442 1.0061573-.9593442 5.6157641 0 6.4113301-1.3337128 6.4113301-2.7610177 0-3.5098545-8.0024628-10.08502562-15.56034467-10.08502562-.53817768 0-.98275824-.46796066-.98275824-1.00619017z" fill="var(--db-icon-color, currentColor)" fill-rule="evenodd"/></svg>
