<svg id="icon" height="32" viewBox="0 0 32 32" width="32" xmlns="http://www.w3.org/2000/svg"><path d="m2 26c0-.5625.4375-1 1-1h16c6.4062 0 9-1.1875 9-4.0312 0-2.5938-2.9062-6.2813-7.1562-9.1876-3.9376-2.7187-9.0626-4.7812-14.1563-4.7812h-3.6875c-.5625 0-1-.4375-1-1s.4375-1 1-1h3.6875c5.7531 0 11.2813 2.1562 15.875 5.5938 4.5937 3.3124 7.4375 7.2812 7.4375 10.375 0 4.4687-3.6875 6.0312-11 6.0312h-16c-.5625 0-1-.4375-1-1zm0-11c0-.5625.4375-1 1-1h2.0938c3.4689 0 6.9062.2188 10.3124.7188l.9376-.9376c-3.125-1.8437-6.7187-2.7812-10.3438-2.7812h-3c-.5625 0-1-.4375-1-1s.4375-1 1-1h3c4.4688 0 8.8125 1.2812 12.5 3.7812.2824.1765.5.4737.5.7813 0 .2885-.1273.5336-.3438.75l-2.1874 2.1875c-.2131.2131-.5426.33-.8438.2812-3.5-.5312-6.9999-.7812-10.5312-.7812h-2.0938c-.5625 0-1-.4375-1-1z" fill="var(--db-icon-color, currentColor)" fill-rule="evenodd"/></svg>
