<svg id="icon" height="20" viewBox="0 0 20 20" width="20" xmlns="http://www.w3.org/2000/svg"><path d="m14.7783131 5.01259693c1.204715 0 2.2167116 1.10329543 2.2167116 2.22767598l.0049753 2.75972709c0 .2198958-.0724282.4323644-.2041311.6054753l-4.0776158 4.1215058c-.1564617.1576781-.3173437.2730189-.7098394.2730189-.2616638 0-1.5961041 0-4.00332104 0-.01244381 1.0938715-.92974893 2-2.00509266 2s-2-.8850026-1.99368094-2h-1.00611906c-.54225078 0-.99327227-.386612-.99327227-.9976944l-.00672773-1.3130214c0-1.9596485 1.53761714-3.56035197 3.47215437-3.66158398l2.17184563-.00510329-.2702-1.02459693-2.38417248.00056091c-.59640733-.00056091-.98982752-.48716416-.98982752-1s.37415607-.98596398.98982752-1h2.59974979c.69134538 0 1.39336448.53105157 1.63370784 1.18978963l1.54571485 5.83364946h.823l3.407-3.434.001-2.1872993c0-.21235016-.0550513-.40213979-.3252624-.40213979l-1.6677056-.00888525c-.5522847 0-.9986183-.43883-.9986183-.99111475 0-.51283584.3233561-.98596398.9986183-.98596398zm1.2216869 7.98740307c1.1045695 0 2 .8954305 2 2s-.8954305 2-2 2-2-.8954305-2-2 .8954305-2 2-2zm-7.82157373-1.9937015-2.50511109.0000205c-.87207471 0-1.67331518.8386529-1.66699612 1.5391746-.00421271.137886-.00631906.2967215-.00631906.4765064l4.7002.0005969z" fill="var(--db-icon-color, currentColor)" fill-rule="evenodd"/></svg>
