<svg id="icon" height="24" viewBox="0 0 24 24" width="24" xmlns="http://www.w3.org/2000/svg"><path d="m10.0837194 2c2.171 0 3.429.756 4.4 2.041.89 1.177 1.415 2.584 1.513 4.048l.027 1.039c0 .468-.38.848-.848.848s-.848-.379-.848-.848l-.015-.682c-.031-1.221-.444-2.402-1.184-3.38-.688-.909-1.459-1.366-3.044-1.362l-2.04600001-.004c-1.519 0-2.369.413-3.089 1.366-.683.903-1.088 1.979-1.17 3.099l-.073 2.623c-.031 1.211.066 2.421.287 3.61l1.519 1.048.985.653c.169.087.542.166.801.212.396.077.701.409.701.828 0 .476-.386.861-.861.861-.04 0-.133-.007-.144-.009-.599-.091-1.069-.238-1.417-.462l-.995-.659c.095.44.253.857.475 1.251.333.592.757 1.189 1.552 1.172.148-.003.38475-.00475.677-.0055l.790936-.000008.219064.000508.10920937.0068785c.42144743.0535712.74779063.4134292.74779063.8491215l-.002.994c.001.479-.383.862-.856.862h-2.259c-.469 0-.85-.381-.85-.85 0-.157.042-.305.117-.431-.634-.291-.866-.532-1.289-1.087s-.762-1.23-.926-1.778-.124-.447-.504-1.946c-.38-1.5-.576-3.038-.584-4.583-.005-1.03.016-2.004.065-2.922.039-1.576.573-3.101 1.527-4.362.927-1.226 2.185-2.041 4.445-2.036zm6.101875 8.975875.143125.000125.9445.0005.1235.0005.6194398.0005c.2652546.0008333.4678935.0016667.5795602.0025.696.006 1.384.563 1.542 1.188.106.417.331 1.43.675 3.038 0 0 .192.665.192.665h.018c.554.057.982.523.982 1.088v.25c0 .518-.358.951-.839 1.067-.048.442-.084.723-.107.845-.012.06-.027.122-.045.187.003.032.004.066.004.099v1.467c0 .608-.493 1.1-1.1 1.1h-.214c-.607 0-1.1-.492-1.1-1.1l-.113.035c-.968.146-1.936.219-2.904.219s-1.936-.073-2.904-.219l-.114-.043c0 .616-.493 1.108-1.1 1.108h-.214c-.608 0-1.1-.492-1.1-1.1v-1.467l.004-.096c-.003-.009-.006-.018-.008-.027-.029-.106-.074-.433-.137-.98l.086.003c-.60600001 0-1.09700001-.491-1.09700001-1.097v-.25c0-.606.491-1.097 1.09700001-1.097l.063.003.192-.661.631-2.904c.198-.681.782-1.326 1.731-1.326zm-.055875 7.700125h-1.094c-.304 0-.55.246-.55.55s.246.55.55.55h1.094c.304 0 .55-.246.55-.55s-.246-.55-.55-.55zm-4.729-1.296-.003.011c-.086.322.105.652.426.739l1.163.316c.327.086.659-.107.744-.43l.003-.011c.085-.322-.105-.652-.426-.739l-1.163-.316c-.327-.086-.659.107-.744.43zm7.623-.43-1.167.316c-.321.088-.511.417-.426.739l.003.011c.086.323.417.516.74.43l1.167-.316c.321-.088.511-.417.426-.739l-.003-.011c-.086-.323-.417-.515-.74-.43zm-.323-4.474h-6.267l-.774 3.389h7.827zm-12.54300001.265c.388-.194.853-.063 1.087.288l.554 1.092c.21.42.04.93-.38 1.14-.388.194-.853.063-1.087-.288l-.554-1.092c-.21-.419-.04-.93.38-1.14zm2.881-7.74c.803 0 1.49200001.093 2.06800001.278 1.217.392 1.942 1.639 1.681 2.89l-.275 1.318c-.168.81-.819 1.433-1.635 1.566-.742.132-1.35500001.198-1.83900001.198s-1.097-.066-1.839-.198c-.816-.134-1.466-.756-1.635-1.566l-.275-1.318c-.261-1.252.464-2.498 1.681-2.89.576-.185 1.265-.278 2.068-.278zm-.001 1.701c-.636 0-1.153.069-1.547.196-.354.114-.578.454-.553.816.131.671.218 1.094.261 1.268.063.262.098.366.273.395s1.038.172 1.565.176c.527.003 1.11500001-.113 1.45400001-.156.34-.043.34-.226.386-.414.031-.126.113-.512.246-1.16.084-.401-.149-.8-.538-.925-.394-.127-.91100001-.196-1.54700001-.196z" fill="var(--db-icon-color, currentColor)" fill-rule="evenodd"/></svg>
