<svg id="icon" height="24" viewBox="0 0 24 24" width="24" xmlns="http://www.w3.org/2000/svg"><path d="m18.7144315 17.2999632c.4198513.4308802 1.4648503 1.7000368 2.2855685 1.7000368.5522847 0 1 .4477153 1 1 0 .5128358-.4446527 1.0045085-1 .9999077-1.0162608-.0084193-2.0162608-.5110552-3-1.5079077-1.0433591 1.0068464-2.0447688 1.5095131-3.0042288 1.508-.9594601-.0015131-1.9580505-.5038464-2.9957712-1.507-1.0307302 1.0046667-2.03052444 1.507-2.99938267 1.507s-1.96906401-.502-3.00061733-1.506c-1.03366921 1.004-2.03366921 1.506-3 1.506-.55228475 0-1-.4477153-1-1 0-.5128358.43581904-1 1-1 .8675416 0 1.79957358-1.0652594 2.19954803-1.5993969.39997446-.5341375 1.20092948-.5341375 1.60090394 0 .39997445.5341375 1.20855163 1.5995365 2.19970595 1.5993969s1.79988408-1.0667456 2.19985448-1.6000165c.3999704-.533271 1.1998675-.5333194 1.5999025-.0000969s1.1286103 1.6000008 2.2016844 1.6001134c1.073074.0001126 1.8253128-1.1027667 2.1985265-1.6001677.3732138-.4974011 1.0944543-.5307492 1.5143057-.0998691zm-7.7436629-11.2999632c1.6467728 0 2.9583016.71141694 3.9285541 1.86696266.3755751.44730024.6512567.89307942.8422745 1.28424362l6.0748135-1.13420931c.775288-.14479571 1.389405.61662473 1.1222537 1.32890043l-3.0442372 6.1013162c-.2469893.4939785-.8476623.6942028-1.3416408.4472136-.4586943-.2293472-.7234246-.8034537-.3808555-1.4626872-2.3883069.4273828-5.4446784.9833394-9.16911458 1.6678699-.54337635.0987957-1.06395965-.2616081-1.16275535-.8049845-.09173887-.5045637.21246472-.9894743.69144795-1.1352743l10.75842198-1.9626111.9150691-1.84474-15.83740226 2.9581762c-.2106149.043764-.33409575.1540692-.3616751.3331319l-.00592264 2.3566919c0 .5522847-.44771525 1-1 1-.51283584 0-.93550716-.3860402-.99327227-.8833789l-.00672773-2.3923558c0-1.1713009.7581328-2.0479348 1.81180476-2.3356814l1.62420058-.3149922c.45502048-.1855828.78819747-1.60034933.57303716-3.18941559-.06628884-.48957612.23416263-.94775181.69600772-1.08977016zm-2.89417758 2.56402567c.03189568.73130233-.02005383 1.43031479-.16513369 2.05116493l5.74532267-1.0747054c-.0877962-.13249855-.1841766-.26245473-.2891319-.38745384-.5706827-.67966836-1.2807903-1.09129089-2.184796-1.14662641z" fill="var(--db-icon-color, currentColor)" fill-rule="evenodd"/></svg>
