<svg id="icon" height="20" viewBox="0 0 20 20" width="20" xmlns="http://www.w3.org/2000/svg"><path d="m8.81070856 3.48682476c.91745177.91149332 1.83376964 1.8238748 2.74895364 2.73714444l.3078498-.09581265c2.3563853-.75792105 5.1154074.04519195 5.9332973 1.89535368.5896194 1.33378732-.165015 2.77923617-1.6551088 3.31783417l-2.6977005.8486556-2.112414 3.8596448c-.1489169.2475242-.3197124.4339957-.6503437.5968376-1.49104487.7343666-2.53449784-.2779462-2.53449784-1.2998682-.00587498-.4951799-.01045647-.9903846-.01374446-1.4856142l-.93551161.2886068c-1.52905998.4999582-3.2561189-.1969422-3.83380666-1.842944-.4328167-1.212663-.86436783-2.42568021-1.29465339-3.63905153-.19259322-.64901278 0-1.39272188.75081524-1.77407301.07432515-.03715049.15009268-.07216263.22730258-.10503644.59469897-.26464104 1.20154907-.0888629 1.62417759.30704935l.98667625.97644883 1.3186622-.4130308-1.13637914-2.32277976c-.36394134-.85086976.0799673-1.94953182 1.04668786-2.18319843.10948705-.03206181.21947368-.06287054.32995989-.09242619.52166331-.14732159 1.10652987-.06059562 1.58977775.42625994zm3.66209144 4.54752456c-2.2635668.70743256-4.52556675 1.41643256-6.78600001 2.12699998-.31392212.0983956-.7993645.0983956-1.07079999-.3113493.12049881.3686019.33292925.9652648.63729134 1.7899885.15122927.4309324.66994785.8626471 1.34333124.6033574.74629102-.2283437 1.49162436-.457677 2.236-.688.60203594-.1852418 1.28560092.2316061 1.29404982.9472897.0061675.5224324.0102767 1.0448872.0123276 1.5673644l1.7473995-3.1928011c.0827604-.1512868.1645542-.3098455.5782097-.474296.6555939-.2102684 1.6242365-.51388102 2.9059279-.91083793.5407006-.16580329.6750625-.3674781.58738-.67769736s-.56901-.62336274-1.0994866-.79511539c-.6548675-.21202678-1.6557673-.21202678-2.3856305.0150971z" fill="var(--db-icon-color, currentColor)" fill-rule="evenodd"/></svg>
