<svg id="icon" height="32" viewBox="0 0 32 32" width="32" xmlns="http://www.w3.org/2000/svg"><path d="m4 6c0-.5625.4375-1 .96875-1 10.625005 0 23.125005 9 23.125005 15.8125 0 5.7188-6.71876 5.9688-10.40626 5.9688h-.5c-.5625 0-1-.4376-1-.9688 0-.5625.4375-1 1-1 6.34376 0 8.90626-1.1562 8.90626-4 0-4.9688-10.625-13.8438-21.125005-13.8438-.53125 0-.96875-.4374-.96875-.9687zm.125 19.375c0-.5313.375-1.0313.96875-1.0313.09375 0 .21875 0 .34375.0626.875.2812 1.78125.4062 2.6875.4062 1.25 0 3.34375-.2812 3.34375-2.1562 0-1.1876-.75-1.6563-2.46875-2.4063-1.59375-.6563-3.53125-1.5-3.53125-3.9063 0-2.375 2-3.9687 5-3.9687 1 0 2 .1875 2.9375.5313.468745.1562.656245.5312.656245.875 0 .5312-.375 1.0624-.937495 1.0624-.125 0-.25-.0312-.375-.0624-.71875-.2813-1.5-.4063-2.28125-.4063-.71875 0-3.03125.125-3.03125 1.9687 0 1 .6875 1.4063 2.34375 2.0938 1.53125.6875 3.6875 1.5938 3.6875 4.2188-.03125 2.5624-2.0625 4.125-5.34375 4.125-1.125.0312-2.25-.1563-3.3125-.5-.46875-.1563-.6875-.5313-.6875-.9063z" fill="var(--db-icon-color, currentColor)" fill-rule="evenodd"/></svg>
