<svg id="icon" height="32" viewBox="0 0 32 32" width="32" xmlns="http://www.w3.org/2000/svg"><path d="m24.0745 7.78031555c.1217788.5390299-.2164701 1.07472119-.7555 1.19649999l-1.088.245 1.531864 4.90997086c.2411165-.0322967.487179-.0489709.737136-.0489709 3.0375661 0 5.5 2.4624339 5.5 5.5-.0033068 3.0361954-2.4638047 5.4966932-5.5 5.5-3.0375661 0-5.5-2.4624338-5.5-5.5 0-2.0817226 1.1565351-3.893322 2.8621244-4.8273171l-.4351244-1.3944984-4.427 6.5288155c-.2963683.4346878-.7888954.6942477-1.315.6930045l-.8146391-.0067255c-.3837516-.0446764-.7120319-.3084437-.8343609-.682279l-1.561-4.7678155-.7586096.9250341c.8011873.9554798 1.2836096 2.1872927 1.2836096 3.5317814-.0033068 3.0361954-2.4638047 5.4966932-5.5 5.5-3.03756612 0-5.5-2.4624338-5.5-5.5 0-3.0375661 2.46243388-5.5 5.5-5.5.97053942 0 1.88236471.2513851 2.6739152.6925945l1.5630848-1.90441-.913-2.871h-.824c-.55228475 0-1-.44771525-1-1s.44771525-1 1-1h4c.5522847 0 1 .44771525 1 1s-.4477153 1-1 1h-1.072l.615 1.964 6.946-1.613-.489-1.56818446c-.134542-.43152272.0427104-1.11659437.734-1.273l2.144-.485c.5390299-.12177877 1.0747212.2164701 1.1965.75550001zm.4255 8.30249995-.128.0021845.959 3.0748155c.0791496.2532812.054384.527636-.0688431.762649-.123227.2350129-.3348102.4114115-.5881569.490351-.0972178.0297823-.1983227.045-.3.045-.4367401 0-.822978-.2833765-.954-.7l-.9437565-3.030938c-.8933338.6341763-1.4762435 1.6769842-1.4762435 2.855938 0 1.9329967 1.5670034 3.5 3.5 3.5s3.5-1.5670033 3.5-3.5c0-1.9329966-1.5670034-3.5-3.5-3.5zm-17 0c-1.93299662 0-3.5 1.5670034-3.5 3.5 0 1.9329967 1.56700338 3.5 3.5 3.5s3.5-1.5670033 3.5-3.5c0-.7183433-.2164073-1.386142-.5875837-1.9417579l-2.0124163 2.4517579c-.19050338.2317597-.47499415.3657457-.775.3650031-.38688952.0001857-.7391762-.2228136-.90454081-.5725822-.1653646-.3497686-.11413411-.763544.13154081-1.0624209l2.01987884-2.4609089c-.4212727-.179662-.88496432-.2790911-1.37187884-.2790911zm12.002-3.4488155-5.335 1.238 1.462 4.47z" fill="var(--db-icon-color, currentColor)" fill-rule="evenodd"/></svg>
