<svg id="icon" height="20" viewBox="0 0 20 20" width="20" xmlns="http://www.w3.org/2000/svg"><path d="m15.001 10.013c-.065 0-.126.015-.19.019l-.487-1.519h1.678c.25 0 .484-.125.623-.332l.503-.75c.23-.345.139-.811-.206-1.041-.342-.229-.809-.14-1.041.205l-.28.418h-1.759l-.638-1.992c-.1-.311-.388-.521-.714-.521h-1.5c-.414 0-.75.336-.75.75s.336.75.75.75h.953l.577 1.802-2.501 3.216c-.007 0-.012-.004-.019-.004h-.519l-1.219-4.002c.408-.006.738-.338.738-.748 0-.414-.336-.75-.75-.75h-2c-.414 0-.75.336-.75.75s.336.75.75.75h.442l.581 1.941-.87 1.457c-.412-.247-.889-.398-1.404-.398-1.517 0-2.75 1.233-2.75 2.75s1.233 2.75 2.75 2.75c1.431 0 2.596-1.102 2.725-2.5h1.319.003.953c.231 0 .45-.106.592-.289l2.483-3.192.322 1.006c-.692.5-1.147 1.308-1.147 2.225 0 1.517 1.233 2.75 2.75 2.75s2.75-1.233 2.75-2.75-1.233-2.75-2.75-2.75zm-10 4c-.689 0-1.25-.561-1.25-1.25s.561-1.25 1.25-1.25 1.25.561 1.25 1.25-.561 1.25-1.25 1.25zm10 0c-.689 0-1.25-.561-1.25-1.25s.561-1.25 1.25-1.25 1.25.561 1.25 1.25-.561 1.25-1.25 1.25z" fill="var(--db-icon-color, currentColor)" fill-rule="evenodd"/></svg>
