<svg id="icon" height="24" viewBox="0 0 24 24" width="24" xmlns="http://www.w3.org/2000/svg"><path d="m5 16c1.1045695 0 2 .8954305 2 2s-.8954305 2-2 2-2-.8954305-2-2 .8954305-2 2-2zm10 0c1.1045695 0 2 .8954305 2 2s-.8954305 2-2 2-2-.8954305-2-2 .8954305-2 2-2zm-3.5527864.6055728c.4939785.2469893.6942028.8476623.4472136 1.3416408-.2293472.4586943-.7636564.6641006-1.234323.4933507-.2348998-.1137095-.4549345-.1705643-.6601042-.1705643-.20516968 0-.38943181.0414757-.5527864.1244272-.4939785.2469892-1.09465154.0467649-1.34164079-.4472136s-.0467649-1.0946515.44721359-1.3416408c.9110421-.455521 1.9833851-.455521 2.8944272 0zm6.5784274-12.6055728c1.1363344 0 2.1167609.77632457 2.3877528 1.86507512l1.596846 8.96009548c.1035145.5685367-.2452252.9525851-.7333496 1.142803l-2.4085832.9606429c-.5128608.2049202-1.0947372-.0447149-1.2996574-.5575756-.1902831-.4762279 0-1.0702139.5575756-1.2996574l1.7707748-.7083835-1.4175448-7.9826683c-.0341854-.1925242-.2033627-.3803317-.4538142-.3803317-.5522847 0-1-.44771525-1-1s.4477153-1 1-1zm-1.025641 5c.5522847 0 1 .44771525 1 1 0 .5128358-.3486097.9927503-1 1l-.0050524 1.7101907c-.0737433 1.1994837-.9468444 2.1993269-2.0992735 2.2840024h-9.88894062c-.99223763 0-2.00168111-1.2031012-2.00168111-2.2840024 0-.2523911-.00168412-.8246973-.00505237-1.7169184-.56988784 0-1-.4804365-1-.9932723 0-.51283584.41540527-1 .999-1zm-2.001 2h-10c.00133333.7872111.00166667 1.2868245.001 1.4988403-.001.3180237.19944763.5011597.5.5011597h9.0016479c.2351942 0 .4983521-.2116699.4983521-.5011597 0-.1929931-.0003333-.6926066-.001-1.4988403z" fill="var(--db-icon-color, currentColor)" fill-rule="evenodd"/></svg>
