<svg id="icon" height="24" viewBox="0 0 24 24" width="24" xmlns="http://www.w3.org/2000/svg"><path d="m13.527864 2c.3881128 0 .7717838.07530227 1.1299617.22093726l.7893879.38463555c.4939785.24698925.6942028.84766229.4472136 1.34164079-.2293472.45869431-.7636564.66410062-1.234323.49335068l-.6850266-.33499147c-.1381665-.0599595-.4631924-.09515043-.9750776-.10557281v2h1.4361148c.9446084 0 1.5121354.11781261 2.0123298.38531951.5001944.26750689.898729.66604153 1.1662359 1.16623593.2623173.4904907.367495.96282039.3832029 1.78049286l.0021166 7.8221239c0 1.3701896-.1336744 2.0624124-.5188859 2.7826952-.3546604.6631574-.8810893 1.1895863-1.5442467 1.5442467-.672264.3595308-1.3200845.4999447-2.5174876.5170687l-2.573552.0018172c-1.37018965 0-2.06241236-.1336744-2.78269521-.5188859-.66315737-.3546604-1.18958629-.8810893-1.54424673-1.5442467-.35953072-.672264-.49994467-1.3200845-.51706861-2.5174876l-.00181725-7.8554946c0-.96378133.09915518-1.47724899.38531951-2.01232976.26750689-.5001944.66604153-.89872904 1.16623593-1.16623593.4904907-.2623173.96282039-.36749497 1.78049286-.38320294l1.6679517-.00211657v-2c-.4247409-.00676078-.714225.0131683-.8684522.05978724l-.6843342.33463995c-.4939785.24698925-1.09465154.0467649-1.34164079-.44721359-.22934716-.45869432-.07308668-1.00938547.34591322-1.28346877l.67900914-.3470264c.34713858-.1735693.81412145-.31671843 1.34164083-.31671843zm-1.527864 13.2482389c-1.1780667 0-2.51074621-.0825493-3.99950944-.2470949l-.00049056.998856h1c.55228475 0 1 .4477153 1 1 0 .5128358-.4361148 1.0027266-.9936697 1l-.98084448.0027266c.03669118.4684015.11600502.727256.25702643.9909431.16826084.3146204.40919764.5555572.72381805.723818.30462051.1629129.60279148.2434728 1.2250304.2711038l3.3405544.0067308c.7593934-.0190734 1.086672-.0986304 1.4217546-.2778346.3146204-.1682608.5555572-.4091976.723818-.723818.1410215-.2636871.2203353-.5225416.2570265-.9909431l-.9745142-.0027266c-.5522847 0-1-.4477153-1-1 0-.5128358.4361148-1 .9936697-1h1.0063303l.0004967-.9989651c-1.4891613.1646182-2.8221696.247204-4.0004967.247204zm3-7.23092975c0 .47744401-.4472136.98482002-1 .98482002l-4-.00212917c-.54650344 0-.99061519-.43839096-.99985321-.98269085-.24661678.02083649-.37516878.06199174-.50539363.13163675-.15165746.0811073-.26469996.1941498-.34580726.34580726-.09414059.15565083-.1489459.41270272-.14795672.89969039.00065945.32465844.00123096 1.52275535.00171454 3.59429065 1.50814844.1732157 2.84114608.2595047 3.99729628.2595047s2.4891478-.086289 3.9972963-.2595047c.002286-2.0107806.0028576-3.20887745.0017145-3.59429065-.0017145-.57811981-.0668494-.74803294-.1479567-.89969039-.0811073-.15165746-.1941498-.26469996-.3458073-.34580726-.1011049-.05407153-.2695205-.09795044-.5052468-.13163675z" fill="var(--db-icon-color, currentColor)" fill-rule="evenodd"/></svg>
