<svg id="icon" height="20" viewBox="0 0 20 20" width="20" xmlns="http://www.w3.org/2000/svg"><path d="m4.14486273 5.58816757c.11213244-.0106474.28195751.0087792.50947519.05827982s1.75543794.42708618 4.58376076 1.1327567c.08616541.02129352.16911243.05396379.24665506.0971498 1.81807086 1.01254273 3.23688306 2.07665185 4.25521776 3.20300241.2475217.2737766.3217698.658198.2024943.999913l-1.2038393 2.3758418c-.1696828.3319881-.5099655.5420106-.8827929.5448597l-3.01744943-.0748253c-.20040238 1.109532-1.17110663 1.9511623-2.33838417 1.9511623-1.28992136 0-2.33979216-1.0277786-2.37537563-2.309099l-.9528178-.0731042c-.47393843-.036308-.85682634-.401216-.91586986-.8728618-.16780713-1.2667846-.25312493-1.9938092-.2559534-2.1810736-.00282847-.1872645.05654615-1.17786171.17812386-2.97179164.06308334-1.05247294.92918158-1.86591415 1.96675556-1.88020999zm13.82527977 6.66929683c.124381.4975238-.1610189 1.0818628-.7276069 1.2126781l-2 .5c-.5357949.1339487-1.0787294-.191812-1.2126781-.7276069-.124381-.4975238.1547031-1.0541509.7276069-1.2126781l2-.5c.5357949-.1339487 1.0787294.191812 1.2126781.7276069zm-14.0583928-4.15104526-.00648505 1.6601195c0 .46944206.38055796.84999996.85.84999996.43333111 0 .79092668-.3242624.84337729-.74337777l.00662271-.61316083 2.565.539 1.35729283.90767c.35775949.239134.89303552.1649913 1.16036562-.1998468s.1895681-.86559745-.1240804-1.14294663l-1.58519473-1.06891085c-.04009845-.02680265-.13921588-.06850933-.29735227-.12512004l-3.75103019-.78918171c-.49306686-.10373666-.95863189.24047945-1.01851581.72575517z" fill="var(--db-icon-color, currentColor)" fill-rule="evenodd"/></svg>
