<svg id="icon" height="20" viewBox="0 0 20 20" width="20" xmlns="http://www.w3.org/2000/svg"><path d="m2.46444203 7.69950038c.42750535 0 .5925014-.12286211.71245182-.44526097l.28500357-.76588999h2.11948564l.33838465.83714088c.1078469.2667341.26719084.37401008.69463909.37401008.48088643 0 .52912922-.22951008.42744826-.49869914l-1.81672645-4.80897843c-.09357389-.24766536-.31994391-.39182281-.56995004-.39182281h-.26713375c-.2322505 0-.41797097.18149566-.49869915.39182281l-1.8523519 4.82679115c-.10310826.26861814 0 .48088642.42744826.48088642zm13.89654297 2.30049962c.9170648 0 1.639015.7606 1.639015 1.6577v4.3423c0 .5-.5 1-1 1l-.2722017.0001667c-.0504613.0000555-.1034697.000125-.1590253.0002083l-.3638991.0006667-.2048739.0004583c0 .5485-.45.9946-1.0049175.9946h-1.9902053c-.5548772 0-1.0048772-.4461-1.0048772-.9946l-.5705967-.0026885-3.1604073-.0048393-.268996.0075278c-.00975842.546-.45.9946-1.00487671.9946h-1.99020331c-.55491998 0-1.00491998-.4486-.99516369-.9961h-1.00975629c-.5 0-1-.5-1-1v-4.3423c0-.8971.72195147-1.6577 1.63902488-1.6577zm-.360985 2h-12v2h12zm-7.14907185-9.9989741.08461156.00238507h1.61096689c1.073978 0 1.7899633.41179559 1.7899633 1.43223283 0 .60875625-.2326952.96681445-.9307809 1.21739791.7517846.03586311 1.3245728.66243633 1.2708739 1.41435856 0 1.10998045-.8233831 1.62919349-2.1479559 1.62919349h-1.59306729c-.30429375.03574854-.53698898-.21483492-.51908934-.51921304v-4.67268826c-.01789964-.28644656.23269522-.53703002.51908934-.50128149zm7.75316195-.00476201c.321084 0 .6243301.0357365.9275761.10720949.26757.0357365.4459501.28589198.4281121.55388713 0 .33952532-.1248661.51820781-.5708161.42883797-.249732-.07147299-.4994641-.10715231-.7670341-.10715231-1.1416322 0-1.5162302.64325696-1.5162302 1.87613755 0 1.14356793.35676 1.85829789 1.4983922 1.85829789.285408 0 .5708161-.05363334.8383861-.12510634.35676-.08931265.5529781.03579368.5529781.37526182.035676.26799515-.142704.51820781-.3924361.57178397-.338922.10720949-.6956821.16084283-1.0524421.16084283-1.7302862 0-2.5865103-1.01851878-2.5865103-2.80534368 0-1.82256139.8919001-2.89465632 2.6400243-2.89465632zm-6.0827588 3.15787604h-.98109012v1.62358401h.83838612c.7491961 0 1.1237941-.1962825 1.1237941-.83856818 0-.51736825-.26757-.78501583-.9810901-.78501583zm-5.9160829-1.63426023.75692653 2.11954274h-1.51391016zm5.8625689-.59586983h-.92757612v1.30238408h.89190012c.4637881 0 .8027101-.16054288.8027101-.67791113 0-.41037773-.17838-.62447295-.7670341-.62447295z" fill="var(--db-icon-color, currentColor)" fill-rule="evenodd"/></svg>
