<svg id="icon" height="20" viewBox="0 0 20 20" width="20" xmlns="http://www.w3.org/2000/svg"><path d="m13.4361148 2c.9637813 0 1.477249.09915518 2.0123298.38531951.5001944.26750689.898729.66604153 1.1662359 1.16623593.2244497.41968437.3338538.82607264.3706032 1.44687634l1.0147163.00156822v4h-1v5.7180574c0 .4839749-.0576981.9125988-.2517532 1.2419643-.194055.3293655-.4583899.6077047-.7482468.7639783v1.276h-2.5v-1h-7v1h-2.5l.00003486-1.2737126c-.31868578-.1800401-.57510569-.4424547-.74828171-.7662657-.16372752-.3061438-.23368039-.6006762-.24861036-1.0429221l-.00314279-5.9170996h-1v-4l1.01471632-.00156822c.0367494-.6208037.14615353-1.02719197.37060319-1.44687634.26750689-.5001944.66604153-.89872904 1.16623593-1.16623593.4904907-.2623173 1.03459256-.38531951 1.84288811-.38320294zm-6.95591321 10.75h-1.5v1.5h1.5zm8.60828401 0h-1.5v1.5h1.5zm-1.4829291-8.74901082c-.3710322-.00088203-6.88920969 0-7.21111295 0-.32190327 0-.75239948 0-1.06775288.26910665-.31535339.26910664-.32331902.73203334-.32570149 1.12434772-.00158832.26154292-.00090515 2.04617151.00204951 5.35388575 1.87868979.1445774 3.54472086.2167231 4.99696131.2167231 1.4522404 0 3.1182715-.0721457 4.9969613-.2167231.0013664-3.28845219.0020495-5.07308078.0020495-5.35388575 0-.42120747-.0085009-.8561231-.3203914-1.12434772-.3118905-.26822463-.7020308-.26822463-1.0730629-.26910665zm-.6055565.99901082v1.7h-6v-1.7z" fill="var(--db-icon-color, currentColor)" fill-rule="evenodd"/></svg>
