<svg id="icon" height="24" viewBox="0 0 24 24" width="24" xmlns="http://www.w3.org/2000/svg"><path d="m12.000245 2c5.5226681 0 9.999755 4.47725524 9.999755 10.000245 0 5.5225839-4.4771711 9.999755-9.999755 9.999755-5.52331896 0-10.000245-4.476926-10.000245-9.999755 0-5.52323478 4.47684185-10.000245 10.000245-10.000245zm0 2c-4.41881681 0-8.000245 3.58156289-8.000245 8.000245 0 4.4182595 3.58149554 7.999755 8.000245 7.999755 4.4180144 0 7.999755-3.5817406 7.999755-7.999755 0-4.41843709-3.5816732-8.000245-7.999755-8.000245zm-.3791786 2.5c1.5268794 0 2.8947553.51844341 3.9817745 1.39110521v1.83301283c-.9406468-1.04957869-2.3571897-1.97223874-4.0185533-1.97223874-.9402754 0-1.4778409.51844342-1.4778409 1.12534527 0 .90445556.7706106 1.26338863 1.7659827 1.53620143.8812007.2413127.8812007.2105132 1.6888772.4290453 1.3981206.4016764 2.6886934 1.0664421 2.6886934 2.9899646 0 1.6949408-1.5878059 3.6675641-4.2622596 3.6675641-1.4901005 0-3.21239075-.6957449-4.1522946-1.5680221v-2.2003077c.89123689 1.3276459 2.5154502 2.3514563 4.1522946 2.3514563 1.0015734 0 1.8073645-.5934408 1.8073645-1.226111 0-.7624938-.6157305-1.1309752-1.454172-1.4132645-.7916623-.2486979-1.3722439-.3758799-2.0488831-.6033754-1.33521808-.4499786-2.5420498-1.1734613-2.5420498-3.01510725 0-2.16223209 2.03918269-3.32526835 3.8710664-3.32526835z" fill="var(--db-icon-color, currentColor)" fill-rule="evenodd"/></svg>
