<svg id="icon" height="24" viewBox="0 0 24 24" width="24" xmlns="http://www.w3.org/2000/svg"><path d="m7.5 14c1.38071187 0 2.5 1.1192881 2.5 2.5s-1.11928813 2.5-2.5 2.5-2.5-1.1192881-2.5-2.5 1.11928813-2.5 2.5-2.5zm-5.16315957-4.75700228c.54434019-2.16329021 2.70512527-3.52758167 4.90880686-3.09830597.27039628.05148557.96981987.28792284 2.09827079.70931184 1.94242182.75641767 3.73050462 1.86417123 5.27409302 3.26912981.8216801.7478849 1.5398367 1.4947791 2.1542095 2.2415264.2057034.2500248.2776285.5841682.1930133.8966846-.1158191.4277644-.3496225.9752745-.7042058 1.655959l-.9034988 1.5971122c-.1581232.2635945-.4271245.4376742-.7272452.4770754l-2.6302958.001859c-.5096929.00665-.970402-.4241972-.970402-.99335s.4607091-.9932723.970402-.9932723l1.93-.0077277.934-1.79c-.7267509-.7665347-1.2574884-1.3021333-1.5922125-1.6067958-1.3539307-1.2323341-2.9210465-2.20552275-4.62320189-2.87264615-.82782344-.34934434-1.47818423-.56575376-1.95108237-.64922825-1.08914384-.13901443-2.11877023.54740317-2.40935069 1.60623379-.19210172.74550721-.28815258 1.21698601-.28815258 1.41443641v3.162c.47312626.1603002.75125458.7358295.60140399 1.2262838-.16137755.5281815-.71410438.8141773-1.24855717.6641573-.84399676-.2369084-1.35284682-.9471403-1.35284682-1.8904411 0-1.0961381 0-2.1838048 0-3.263 0-.2184887.11228405-.8041561.33685216-1.75700228zm18.66315957 4.75700228c.5522847 0 1 .4477153 1 1 0 .5128358-.4187998 1-1 1-.186778 0-.3639.0452371-.531366.1357113l-.909289.4968774c-.4473127.2354475-.9220173.3674113-1.559345.3674113-.5522847 0-1-.4477153-1-1 0-.5128358.3929264-1 1-1 .2557019 0 .4558019-.0408235.6002999-.1224704l.909289-.4968774c.4570616-.2497595.9695606-.3806522 1.4904111-.3806522zm-13.5 2c-.27614237 0-.5.2238576-.5.5s.22385763.5.5.5.5-.2238576.5-.5-.22385763-.5-.5-.5zm-.79228672-6.79460286c.12996774 0 .30180449.03565499.51551025.10696498l2.78367477 1.12215038c.3298713.1534172.6420185.3423816.930887.5635307l1.5528473 1.3297927c.3344406.3675351.3506477.9352123.0191123 1.3224869-.3315355.3872746-.894925.4587747-1.309624.1849915l-1.50420381-1.2689759c-.15723854-.117678-.32565554-.2196325-.50282144-.3043929l-2.11100878-.8519455-.11086297.8289208c-.11900631.4863333-.58629611.8169665-1.09517176.7533571-.50887566-.0636095-.88040067-.4990945-.87610802-.9997576l.20222803-1.6161001c.1560663-.69915249.76504722-1.17102306 1.50554113-1.17102306z" fill="var(--db-icon-color, currentColor)" fill-rule="evenodd"/></svg>
