<svg id="icon" height="32" viewBox="0 0 32 32" width="32" xmlns="http://www.w3.org/2000/svg"><path d="m3 28c0-.5463.4488-1 1.0146-1h7.7464c4.839 0 5.239-.9659 5.239-2 0-2.4976-6.2537-8-12.439-8h-.561c-.5658 0-1-.4585-1-1.0048 0-.5464.4342-.9952 1-.9952h.561c6.8292 0 14.439 5.9804 14.439 10 0 2.8134-2.4 4-7.239 4h-7.7464c-.5658 0-1.0146-.4536-1.0146-1zm0-8.8634v2.6028c0 .6346.4796 1.0914 1.1419 1.0946 3.9945.0189 5.4593.2356 7.536.8965.352.1125.7095.0285.9726-.2347l.4958-.4958c.2147-.2146.3122-.5073.2927-.8-.0195-.2926-.1951-.5658-.4292-.7219-3.16429147-2.2204664-5.71870966-3.2781-8.9561-3.2781-.55124903 0-1.0537.3889-1.0537.9366zm12.5436461-14.53460566 5.0293539 2.67500566 5.6737121-1.7585721c.5169627-.14854624 1.0551148.15320631 1.2107242.67887707.1556093.52567077-.12851 1.08207737-.6392062 1.25179288l-12.8647018 3.98763125c-.0915986.0284065-.186718.0431785-.2824319.0438617-.2624038-.0001444-.5139006-.107396-.6986864-.2979569l-1.1770463-1.20997723c-.2533823-.25427218-.3535055-.6282701-.2621169-.97910507.0913886-.35083496.3601683-.62429844.7036499-.71591167.3434816-.09161322.7085926.01277924.9558398.27329346l.7593131.7796791 3.9299504-1.21961249-3.2751039-1.74200566c-.4685872-.26823411-.6398176-.85988341-.3869216-1.33692338.2528959-.47703997.8386807-.66736841 1.3236716-.43007662z" fill="var(--db-icon-color, currentColor)" fill-rule="evenodd"/></svg>
