<svg id="icon" height="20" viewBox="0 0 20 20" width="20" xmlns="http://www.w3.org/2000/svg"><path d="m11.7438071 2c.9637813 0 1.477249.09915518 2.0123298.38531951.5001944.26750689.898729.66604153 1.1662359 1.16623593.2623173.4904907.367495.96282039.3832029 1.78049286l.0021166 9.1040665c0 .9637813-.0991552 1.477249-.3853195 2.0123298-.2675069.5001944-.6660415.898729-1.1662359 1.1662359-.4904907.2623173-.9628204.367495-1.7804929.3832029l-3.71945111.0021166c-.96378133 0-1.47724899-.0991552-2.01232976-.3853195-.5001944-.2675069-.89872904-.6660415-1.16623593-1.1662359-.2623173-.4904907-.36749497-.9628204-.38320293-1.7804929l-.00211658-9.1040665c0-.96378133.09915518-1.47724899.38531951-2.01232976.26750689-.5001944.66604153-.89872904 1.16623593-1.16623593.4904907-.2623173.96282039-.36749497 1.78049286-.38320294zm-4.7438071 12.5c-.41421356 0-.75.3357864-.75.75 0 .3796958.28215388.693491.64822944.7431534l1.35177056.0068466c.41421356 0 .75-.3357864.75-.75 0-.3796958-.28215388-.693491-.64822944-.7431534zm4.75 0c-.4142136 0-.75.3357864-.75.75 0 .3796958.2821539.693491.6482294.7431534l1.3517706.0068466c.4142136 0 .75-.3357864.75-.75 0-.3796958-.2821539-.693491-.6482294-.7431534zm.5522186-10.5-4.67457656.0024628c-.51157283.03596996-.90612659.4507053-.92886643.95087074l.47438989 6.84279796c.05509218.5363043.15127397 1.2019165 1.14323196 1.2019165l3.21894934.001952c1.1157876 0 1.2432363-.5952498 1.2791419-1.0561148.3251533-4.61365587.4877299-6.92828427.4877299-6.9438852 0-.55228475-.4477152-1-1-1z" fill="var(--db-icon-color, currentColor)" fill-rule="evenodd"/></svg>
