<svg id="icon" height="24" viewBox="0 0 24 24" width="24" xmlns="http://www.w3.org/2000/svg"><path d="m19.4142154 19.2524588.1286553.1050253.186196.1338335c.0705713.0478258.1491064.0980728.2339791.1483611.3311443.1962074.6487975.3204909.9099876.3522479l.1269666.0080734c.5522847 0 1 .4477153 1 1 0 .5128358-.3860402.9355072-.8833789.9932723l-.1207367.0067277c-.7011504-.0009985-1.3858719-.2447856-2.0523427-.6396787l-.1935417-.1203213-.1935417.1203213c-.5924185.3510161-1.1992573.5826398-1.8192369.6304774l-.2532295.0091571c-.6966887-.0038479-1.3771682-.2470737-2.0398133-.6395478l-.1941786-.120408-.1935619.1203241c-.5923101.3509475-1.19903.5825496-1.8188846.6304475l-.240594.0092284c-.7015535-.0007375-1.3866585-.2445748-2.05347513-.6396865l-.19348437-.1203135-.1933462.1202947c-.59346796.3516797-1.20145839.5835122-1.82267469.6307643l-.23357354.008941c-.70384588 0-1.39037374-.2440222-2.0579424-.6398255l-.19246317-.1191745-.19246317.1191745c-.66756866.3958033-1.35409652.6398255-2.05753683.6398255-.55228475 0-1-.4477153-1-1 0-.5128358.38604019-.9355072.88337887-.9932723l.11662113-.0067277c.2824794 0 .65097005-.1309778 1.03753721-.3601745.12710414-.0753604.23992511-.1506209.33299909-.2177507l.15819973-.1210388.05631744-.047927c.34747879-.3093555.85687049-.3351351 1.23133477-.0773388l.22678618.1821826c.10573631.0810892.24981618.1813922.41928837.2818727.33134328.1964543.64940586.3207478.91138256.352251l.12629223.0079235.12582076-.007942c.26147155-.0315399.57953025-.1558689.91110151-.3523527.08484799-.0502796.16335646-.1005174.23390051-.1483334l.18611393-.1338029.12857786-.1049925c.37884531-.3367369.94971455-.3367727 1.32860205-.0000832l.1286326.1050157.186172.1338245c.0705633.0478229.1490906.0980672.2339561.148353.3312693.1962884.6490412.3205852.9103137.3522787l.1280647.0080348c.2813427-.0004374.6492665-.1314487 1.0355499-.3603241.0848753-.0502891.1634132-.1005371.2339873-.1483639l.1862045-.1338366.1286633-.1050288c.3471197-.3084161.8553793-.3342513 1.2295003-.0774232l.2273932.1821846.1864632.1339329c.07066.0478574.1492819.0981346.2342353.1484511.3297598.1953115.6460978.3194446.9063769.3519008l.1315085.0085072c.2813713-.0004004.6493435-.1314126 1.0356785-.3603213.0848727-.0502883.1634078-.1005353.2339791-.1483611l.186196-.1338335.1286553-.1050253c.3788396-.3366117.9495912-.3366117 1.3284308 0zm-6.1494063-17.2524588c.8200968 0 1.550983.49965787 1.8541333 1.25009303l.0548266.15335698 2.061231 6.59654999h3.765c.5666629 0 1.0201061.4703867.9993275 1.0366685-.096446 2.6284483-1.3255262 5.0865841-3.3704319 6.740797-.4293824.347346-1.0590451.2808424-1.4063911-.1485399-.347346-.4293824-.2808424-1.0590451.1485399-1.4063911 1.305365-1.0559664 2.1846354-2.5318099 2.5024312-4.1567734l.0105244-.0657611h-16.884c-.51283584 0-.93550716-.3860402-.99327227-.8833789l-.00672773-.1166211c0-.5128358.38604019-.9355072.88337887-.9932723l.11662113-.0067277h12.139l-.625-2h-9.514c-.55228475 0-1-.44771525-1-1 0-.51283584.38604019-.93550716.88337887-.99327227l.11662113-.00672773h8.889l-.6241909-2h-10.2648091c-.55228475 0-1-.44771525-1-1 0-.51283584.38604019-.93550716.88337887-.99327227l.11662113-.00672773zm-2.0148091 11.75c.6903559 0 1.25.5596441 1.25 1.25s-.5596441 1.25-1.25 1.25-1.25-.5596441-1.25-1.25.5596441-1.25 1.25-1.25zm4 0c.6903559 0 1.25.5596441 1.25 1.25s-.5596441 1.25-1.25 1.25-1.25-.5596441-1.25-1.25.5596441-1.25 1.25-1.25zm-8 0c.69035594 0 1.25.5596441 1.25 1.25s-.55964406 1.25-1.25 1.25-1.25-.5596441-1.25-1.25.55964406-1.25 1.25-1.25zm-4 0c.69035594 0 1.25.5596441 1.25 1.25s-.55964406 1.25-1.25 1.25-1.25-.5596441-1.25-1.25.55964406-1.25 1.25-1.25z" fill="var(--db-icon-color, currentColor)" fill-rule="evenodd"/></svg>
