<svg id="icon" height="20" viewBox="0 0 20 20" width="20" xmlns="http://www.w3.org/2000/svg"><path d="m15 10c0 2.757-2.243 5-5 5s-5-2.243-5-5 2.243-5 5-5 5 2.243 5 5zm-12 0a7 7 0 1 0 14 0 7 7 0 0 0 -14 0zm9.057.854a.815.815 0 0 0 -.904-.019c-.017.011-.431.271-1.171.271s-1.154-.261-1.159-.264a.8.8 0 0 0 -1.229.867c.17.627.892 1.812 2.402 1.812 1.522 0 2.221-1.196 2.377-1.829a.796.796 0 0 0 -.316-.838zm-4.018-1.439a.452.452 0 0 1 .397-.107 1 1 0 0 0 .46-1.947c-1.319-.31-2.189.556-2.285.655a.982.982 0 0 0 .024 1.376.985.985 0 0 0 .708.293c.25 0 .5-.09.696-.27zm5.351-1.399c-.096-.101-.965-.968-2.285-.655a1 1 0 1 0 .46 1.947.457.457 0 0 1 .395.105.999.999 0 0 0 1.43-1.397z" fill="var(--db-icon-color, currentColor)" fill-rule="evenodd"/></svg>
