<svg id="icon" height="32" viewBox="0 0 32 32" width="32" xmlns="http://www.w3.org/2000/svg"><path d="m22.547 9.846h4.575a1 1 0 1 0 0-2h-4.637v-4.846a1 1 0 1 0 -2 0v4.847h-4.638a1 1 0 1 0 0 2h4.576c-.462 4.76-4.066 8.669-5.94 10.396l-3.773-10.579a1 1 0 0 0 -1.883 0l-6.768 19a1 1 0 1 0 1.883.672l2.13-5.979h7.399l2.12 5.943a1 1 0 0 0 1.885-.672l-2.265-6.349c1.38-1.172 4.622-4.233 6.273-8.403 2.072 5.245 6.669 8.738 6.919 8.925a1.002 1.002 0 0 0 1.399-.201 1 1 0 0 0 -.2-1.399c-.07-.052-6.433-4.916-7.055-11.355zm-12.778 3.133 2.989 8.378h-5.973z" fill="var(--db-icon-color, currentColor)" fill-rule="evenodd"/></svg>
