<svg id="icon" height="64" viewBox="0 0 64 64" width="64" xmlns="http://www.w3.org/2000/svg"><g fill="none" fill-rule="evenodd" transform="translate(6.3 10.626)"><path d="m22.95 27.874a.997.997 0 0 1 -.708-.293l-5.5-5.5a.999.999 0 1 1 1.414-1.414l4.793 4.793 10.293-10.293a.999.999 0 1 1 1.414 1.414l-11 11a.997.997 0 0 1 -.707.293z" fill="var(--db-icon-pulse-color, #EC0016)"/><path d="m25.897 42.749c-11.766 0-21.355-9.501-21.499-21.234l-2.69 2.691a.999.999 0 1 1 -1.415-1.414l4.5-4.5a.999.999 0 0 1 1.414 0l4.5 4.5a.999.999 0 1 1 -1.414 1.414l-2.896-2.896c.033 10.725 8.768 19.439 19.5 19.439 8.127 0 15.48-5.12 18.296-12.74a1 1 0 1 1 1.876.693c-3.105 8.402-11.212 14.047-20.172 14.047zm20-18a.997.997 0 0 1 -.707-.293l-4.5-4.5a.999.999 0 1 1 1.414-1.414l2.896 2.896c-.033-10.725-8.768-19.439-19.5-19.439-8.2 0-15.576 5.182-18.353 12.894a1 1 0 1 1 -1.882-.677c3.062-8.503 11.193-14.216 20.235-14.216 11.765 0 21.354 9.501 21.5 21.234l2.69-2.691a.999.999 0 1 1 1.414 1.414l-4.5 4.5a.997.997 0 0 1 -.707.293l.001-.001z" fill="var(--db-icon-color, currentColor)" fill-rule="nonzero"/></g></svg>
